  0
SECTION
  2
HEADER
  9
$ACADVER
  1
AC1032
  9
$ACADMAINTVER
 90
      228
  9
$DWGCODEPAGE
  3
ANSI_1252
  9
$REQUIREDVERSIONS
160
                 0
  9
$INSBASE
 10
0.0
 20
0.0
 30
0.0
  9
$EXTMIN
 10
1.000000000000000E+20
 20
1.000000000000000E+20
 30
1.000000000000000E+20
  9
$EXTMAX
 10
-1.000000000000000E+20
 20
-1.000000000000000E+20
 30
-1.000000000000000E+20
  9
$LIMMIN
 10
0.0
 20
0.0
  9
$LIMMAX
 10
12.0
 20
9.0
  9
$ORTHOMODE
 70
     0
  9
$REGENMODE
 70
     1
  9
$FILLMODE
 70
     1
  9
$QTEXTMODE
 70
     0
  9
$MIRRTEXT
 70
     0
  9
$LTSCALE
 40
1.0
  9
$ATTMODE
 70
     1
  9
$TEXTSIZE
 40
0.2
  9
$TRACEWID
 40
0.05
  9
$TEXTSTYLE
  7
Standard
  9
$CLAYER
  8
0
  9
$CELTYPE
  6
ByLayer
  9
$CECOLOR
 62
   256
  9
$CELTSCALE
 40
1.0
  9
$DISPSILH
 70
     0
  9
$DIMSCALE
 40
1.0
  9
$DIMASZ
 40
0.18
  9
$DIMEXO
 40
0.0625
  9
$DIMDLI
 40
0.38
  9
$DIMRND
 40
0.0
  9
$DIMDLE
 40
0.0
  9
$DIMEXE
 40
0.18
  9
$DIMTP
 40
0.0
  9
$DIMTM
 40
0.0
  9
$DIMTXT
 40
0.18
  9
$DIMCEN
 40
0.09
  9
$DIMTSZ
 40
0.0
  9
$DIMTOL
 70
     0
  9
$DIMLIM
 70
     0
  9
$DIMTIH
 70
     1
  9
$DIMTOH
 70
     1
  9
$DIMSE1
 70
     0
  9
$DIMSE2
 70
     0
  9
$DIMTAD
 70
     0
  9
$DIMZIN
 70
     0
  9
$DIMBLK
  1

  9
$DIMASO
 70
     1
  9
$DIMSHO
 70
     1
  9
$DIMPOST
  1

  9
$DIMAPOST
  1

  9
$DIMALT
 70
     0
  9
$DIMALTD
 70
     2
  9
$DIMALTF
 40
25.4
  9
$DIMLFAC
 40
1.0
  9
$DIMTOFL
 70
     0
  9
$DIMTVP
 40
0.0
  9
$DIMTIX
 70
     0
  9
$DIMSOXD
 70
     0
  9
$DIMSAH
 70
     0
  9
$DIMBLK1
  1

  9
$DIMBLK2
  1

  9
$DIMSTYLE
  2
Standard
  9
$DIMCLRD
 70
     0
  9
$DIMCLRE
 70
     0
  9
$DIMCLRT
 70
     0
  9
$DIMTFAC
 40
1.0
  9
$DIMGAP
 40
0.09
  9
$DIMJUST
 70
     0
  9
$DIMSD1
 70
     0
  9
$DIMSD2
 70
     0
  9
$DIMTOLJ
 70
     1
  9
$DIMTZIN
 70
     0
  9
$DIMALTZ
 70
     0
  9
$DIMALTTZ
 70
     0
  9
$DIMUPT
 70
     0
  9
$DIMDEC
 70
     4
  9
$DIMTDEC
 70
     4
  9
$DIMALTU
 70
     2
  9
$DIMALTTD
 70
     2
  9
$DIMTXSTY
  7
Standard
  9
$DIMAUNIT
 70
     0
  9
$DIMADEC
 70
     0
  9
$DIMALTRND
 40
0.0
  9
$DIMAZIN
 70
     0
  9
$DIMDSEP
 70
    46
  9
$DIMATFIT
 70
     3
  9
$DIMFRAC
 70
     0
  9
$DIMLDRBLK
  1

  9
$DIMLUNIT
 70
     2
  9
$DIMLWD
 70
    -2
  9
$DIMLWE
 70
    -2
  9
$DIMTMOVE
 70
     0
  9
$DIMFXL
 40
1.0
  9
$DIMFXLON
 70
     0
  9
$DIMJOGANG
 40
0.7853981633974483
  9
$DIMTFILL
 70
     0
  9
$DIMTFILLCLR
 70
     0
  9
$DIMARCSYM
 70
     0
  9
$DIMLTYPE
  6

  9
$DIMLTEX1
  6

  9
$DIMLTEX2
  6

  9
$DIMTXTDIRECTION
 70
     0
  9
$LUNITS
 70
     2
  9
$LUPREC
 70
     4
  9
$SKETCHINC
 40
0.1
  9
$FILLETRAD
 40
0.0
  9
$AUNITS
 70
     0
  9
$AUPREC
 70
     0
  9
$MENU
  1
.
  9
$ELEVATION
 40
0.0
  9
$PELEVATION
 40
0.0
  9
$THICKNESS
 40
0.0
  9
$LIMCHECK
 70
     0
  9
$CHAMFERA
 40
0.0
  9
$CHAMFERB
 40
0.0
  9
$CHAMFERC
 40
0.0
  9
$CHAMFERD
 40
0.0
  9
$SKPOLY
 70
     0
  9
$TDCREATE
 40
2460226.004108796
  9
$TDUCREATE
 40
2460226.170775463
  9
$TDUPDATE
 40
2460226.004108796
  9
$TDUUPDATE
 40
2460226.170775463
  9
$TDINDWG
 40
0.0000000000
  9
$TDUSRTIMER
 40
0.0000000000
  9
$USRTIMER
 70
     1
  9
$ANGBASE
 50
0.0
  9
$ANGDIR
 70
     0
  9
$PDMODE
 70
     0
  9
$PDSIZE
 40
0.0
  9
$PLINEWID
 40
0.0
  9
$SPLFRAME
 70
     0
  9
$SPLINETYPE
 70
     6
  9
$SPLINESEGS
 70
     8
  9
$HANDSEED
  5
B3
  9
$SURFTAB1
 70
     6
  9
$SURFTAB2
 70
     6
  9
$SURFTYPE
 70
     6
  9
$SURFU
 70
     6
  9
$SURFV
 70
     6
  9
$UCSBASE
  2

  9
$UCSNAME
  2

  9
$UCSORG
 10
0.0
 20
0.0
 30
0.0
  9
$UCSXDIR
 10
1.0
 20
0.0
 30
0.0
  9
$UCSYDIR
 10
0.0
 20
1.0
 30
0.0
  9
$UCSORTHOREF
  2

  9
$UCSORTHOVIEW
 70
     0
  9
$UCSORGTOP
 10
0.0
 20
0.0
 30
0.0
  9
$UCSORGBOTTOM
 10
0.0
 20
0.0
 30
0.0
  9
$UCSORGLEFT
 10
0.0
 20
0.0
 30
0.0
  9
$UCSORGRIGHT
 10
0.0
 20
0.0
 30
0.0
  9
$UCSORGFRONT
 10
0.0
 20
0.0
 30
0.0
  9
$UCSORGBACK
 10
0.0
 20
0.0
 30
0.0
  9
$PUCSBASE
  2

  9
$PUCSNAME
  2

  9
$PUCSORG
 10
0.0
 20
0.0
 30
0.0
  9
$PUCSXDIR
 10
1.0
 20
0.0
 30
0.0
  9
$PUCSYDIR
 10
0.0
 20
1.0
 30
0.0
  9
$PUCSORTHOREF
  2

  9
$PUCSORTHOVIEW
 70
     0
  9
$PUCSORGTOP
 10
0.0
 20
0.0
 30
0.0
  9
$PUCSORGBOTTOM
 10
0.0
 20
0.0
 30
0.0
  9
$PUCSORGLEFT
 10
0.0
 20
0.0
 30
0.0
  9
$PUCSORGRIGHT
 10
0.0
 20
0.0
 30
0.0
  9
$PUCSORGFRONT
 10
0.0
 20
0.0
 30
0.0
  9
$PUCSORGBACK
 10
0.0
 20
0.0
 30
0.0
  9
$USERI1
 70
     0
  9
$USERI2
 70
     0
  9
$USERI3
 70
     0
  9
$USERI4
 70
     0
  9
$USERI5
 70
     0
  9
$USERR1
 40
0.0
  9
$USERR2
 40
0.0
  9
$USERR3
 40
0.0
  9
$USERR4
 40
0.0
  9
$USERR5
 40
0.0
  9
$WORLDVIEW
 70
     1
  9
$SHADEDGE
 70
     3
  9
$SHADEDIF
 70
    70
  9
$TILEMODE
 70
     1
  9
$MAXACTVP
 70
    64
  9
$PINSBASE
 10
0.0
 20
0.0
 30
0.0
  9
$PLIMCHECK
 70
     0
  9
$PEXTMIN
 10
1.000000000000000E+20
 20
1.000000000000000E+20
 30
1.000000000000000E+20
  9
$PEXTMAX
 10
-1.000000000000000E+20
 20
-1.000000000000000E+20
 30
-1.000000000000000E+20
  9
$PLIMMIN
 10
0.0
 20
0.0
  9
$PLIMMAX
 10
12.0
 20
9.0
  9
$UNITMODE
 70
     0
  9
$VISRETAIN
 70
     1
  9
$PLINEGEN
 70
     0
  9
$PSLTSCALE
 70
     1
  9
$TREEDEPTH
 70
  3020
  9
$CMLSTYLE
  2
Standard
  9
$CMLJUST
 70
     0
  9
$CMLSCALE
 40
1.0
  9
$PROXYGRAPHICS
 70
     1
  9
$MEASUREMENT
 70
     0
  9
$CELWEIGHT
370
    -1
  9
$ENDCAPS
280
     0
  9
$JOINSTYLE
280
     0
  9
$LWDISPLAY
290
     1
  9
$INSUNITS
 70
     4
  9
$HYPERLINKBASE
  1

  9
$STYLESHEET
  1

  9
$XEDIT
290
     1
  9
$CEPSNTYPE
380
     0
  9
$PSTYLEMODE
290
     1
  9
$FINGERPRINTGUID
  2
{A589CA60-B3A0-4244-A537-2FB8DDB4AEDB}
  9
$VERSIONGUID
  2
{F6DFA82E-5E5F-2948-B11F-A187DD106638}
  9
$EXTNAMES
290
     1
  9
$PSVPSCALE
 40
0.0
  9
$OLESTARTUP
290
     0
  9
$SORTENTS
280
   127
  9
$INDEXCTL
280
     0
  9
$HIDETEXT
280
     1
  9
$XCLIPFRAME
280
     2
  9
$HALOGAP
280
     0
  9
$OBSCOLOR
 70
   257
  9
$OBSLTYPE
280
     0
  9
$INTERSECTIONDISPLAY
280
     0
  9
$INTERSECTIONCOLOR
 70
   257
  9
$DIMASSOC
280
     2
  9
$PROJECTNAME
  1

  9
$CAMERADISPLAY
290
     0
  9
$LENSLENGTH
 40
50.0
  9
$CAMERAHEIGHT
 40
0.0
  9
$STEPSPERSEC
 40
2.0
  9
$STEPSIZE
 40
6.0
  9
$3DDWFPREC
 40
2.0
  9
$PSOLWIDTH
 40
0.25
  9
$PSOLHEIGHT
 40
4.0
  9
$LOFTANG1
 40
1.570796326794896
  9
$LOFTANG2
 40
1.570796326794896
  9
$LOFTMAG1
 40
0.0
  9
$LOFTMAG2
 40
0.0
  9
$LOFTPARAM
 70
     7
  9
$LOFTNORMALS
280
     1
  9
$LATITUDE
 40
37.795
  9
$LONGITUDE
 40
-122.394
  9
$NORTHDIRECTION
 40
0.0
  9
$TIMEZONE
 70
 -8000
  9
$LIGHTGLYPHDISPLAY
280
     1
  9
$TILEMODELIGHTSYNCH
280
     1
  9
$CMATERIAL
347
11
  9
$SOLIDHIST
280
     0
  9
$SHOWHIST
280
     1
  9
$DWFFRAME
280
     2
  9
$DGNFRAME
280
     0
  9
$REALWORLDSCALE
290
     1
  9
$INTERFERECOLOR
 62
     1
  9
$INTERFEREOBJVS
345
33
  9
$INTERFEREVPVS
346
30
  9
$CSHADOW
280
     0
  9
$SHADOWPLANELOCATION
 40
0.0
  0
ENDSEC
  0
SECTION
  2
CLASSES
  0
CLASS
  1
ACDBDICTIONARYWDFLT
  2
AcDbDictionaryWithDefault
  3
ObjectDBX Classes
 90
        0
 91
        1
280
     0
281
     0
  0
CLASS
  1
MATERIAL
  2
AcDbMaterial
  3
ObjectDBX Classes
 90
     1153
 91
        3
280
     0
281
     0
  0
CLASS
  1
VISUALSTYLE
  2
AcDbVisualStyle
  3
ObjectDBX Classes
 90
     4095
 91
       24
280
     0
281
     0
  0
CLASS
  1
SCALE
  2
AcDbScale
  3
ObjectDBX Classes
 90
     1153
 91
       17
280
     0
281
     0
  0
CLASS
  1
TABLESTYLE
  2
AcDbTableStyle
  3
ObjectDBX Classes
 90
     4095
 91
        1
280
     0
281
     0
  0
CLASS
  1
MLEADERSTYLE
  2
AcDbMLeaderStyle
  3
ACDB_MLEADERSTYLE_CLASS
 90
     4095
 91
        1
280
     0
281
     0
  0
CLASS
  1
ACDBSECTIONVIEWSTYLE
  2
AcDbSectionViewStyle
  3
ObjectDBX Classes
 90
     1025
 91
        1
280
     0
281
     0
  0
CLASS
  1
ACDBDETAILVIEWSTYLE
  2
AcDbDetailViewStyle
  3
ObjectDBX Classes
 90
     1025
 91
        1
280
     0
281
     0
  0
CLASS
  1
DICTIONARYVAR
  2
AcDbDictionaryVar
  3
ObjectDBX Classes
 90
        0
 91
        5
280
     0
281
     0
  0
CLASS
  1
CELLSTYLEMAP
  2
AcDbCellStyleMap
  3
ObjectDBX Classes
 90
     1152
 91
        1
280
     0
281
     0
  0
ENDSEC
  0
SECTION
  2
TABLES
  0
TABLE
  2
VPORT
  5
8
330
0
100
AcDbSymbolTable
 70
     1
  0
VPORT
  5
57
330
8
100
AcDbSymbolTableRecord
100
AcDbViewportTableRecord
  2
*Active
 70
     0
 10
0.0
 20
0.0
 11
1.0
 21
1.0
 12
0.0
 22
0.0
 13
0.0
 23
0.0
 14
1.0
 24
1.0
 15
0.0
 25
0.0
 16
0.0
 26
0.0
 36
1.0
 17
199.9999999499937
 27
99.99999997500566
 37
0.0
 40
203.9999999490116
 41
1.999999999999823
 42
50.0
 43
0.0
 44
0.0
 50
0.0
 51
0.0
 71
     0
 72
   100
 73
     1
 74
     1
 75
     0
 76
     0
 77
     0
 78
     0
281
     0
 65
     1
110
0.0
120
0.0
130
0.0
111
1.0
121
0.0
131
0.0
112
0.0
122
1.0
132
0.0
 79
     0
146
0.0
 60
     3
 61
     5
292
     1
282
     1
141
0.0
142
0.0
 63
   250
421
  3355443
  0
ENDTAB
  0
TABLE
  2
LTYPE
  5
5
330
0
100
AcDbSymbolTable
 70
     1
  0
LTYPE
  5
5B
330
5
100
AcDbSymbolTableRecord
100
AcDbLinetypeTableRecord
  2
ByBlock
 70
     0
  3

 72
    65
 73
     0
 40
0.0
  0
LTYPE
  5
5C
330
5
100
AcDbSymbolTableRecord
100
AcDbLinetypeTableRecord
  2
ByLayer
 70
     0
  3

 72
    65
 73
     0
 40
0.0
  0
LTYPE
  5
5D
330
5
100
AcDbSymbolTableRecord
100
AcDbLinetypeTableRecord
  2
Continuous
 70
     0
  3
Solid line
 72
    65
 73
     0
 40
0.0
  0
ENDTAB
  0
TABLE
  2
LAYER
  5
2
330
0
100
AcDbSymbolTable
 70
     1
  0
LAYER
  5
54
330
2
100
AcDbSymbolTableRecord
100
AcDbLayerTableRecord
  2
0
 70
     0
 62
     7
  6
Continuous
370
     0
390
F
347
21
348
0
  0
ENDTAB
  0
TABLE
  2
STYLE
  5
3
330
0
100
AcDbSymbolTable
 70
     2
  0
STYLE
  5
55
330
3
100
AcDbSymbolTableRecord
100
AcDbTextStyleTableRecord
  2
Standard
 70
     0
 40
0.0
 41
1.0
 50
0.0
 71
     0
 42
0.2
  3
txt
  4

  0
STYLE
  5
5A
330
3
100
AcDbSymbolTableRecord
100
AcDbTextStyleTableRecord
  2
Annotative
 70
     0
 40
0.0
 41
1.0
 50
0.0
 71
     0
 42
0.2
  3
txt
  4

1001
AcadAnnotative
1000
AnnotativeData
1002
{
1070
     1
1070
     1
1002
}
  0
ENDTAB
  0
TABLE
  2
VIEW
  5
6
330
0
100
AcDbSymbolTable
 70
     0
  0
ENDTAB
  0
TABLE
  2
UCS
  5
7
330
0
100
AcDbSymbolTable
 70
     0
  0
ENDTAB
  0
TABLE
  2
APPID
  5
9
330
0
100
AcDbSymbolTable
 70
     2
  0
APPID
  5
56
330
9
100
AcDbSymbolTableRecord
100
AcDbRegAppTableRecord
  2
ACAD
 70
     0
  0
APPID
  5
5E
330
9
100
AcDbSymbolTableRecord
100
AcDbRegAppTableRecord
  2
AcadAnnotative
 70
     0
  0
ENDTAB
  0
TABLE
  2
DIMSTYLE
  5
A
330
0
100
AcDbSymbolTable
 70
     2
100
AcDbDimStyleTable
 71
     0
  0
DIMSTYLE
105
58
330
A
100
AcDbSymbolTableRecord
100
AcDbDimStyleTableRecord
  2
Standard
 70
     0
340
55
  0
DIMSTYLE
105
59
330
A
100
AcDbSymbolTableRecord
100
AcDbDimStyleTableRecord
  2
Annotative
 70
     0
340
55
1001
AcadAnnotative
1000
AnnotativeData
1002
{
1070
     1
1070
     1
1002
}
  0
ENDTAB
  0
TABLE
  2
BLOCK_RECORD
  5
1
330
0
100
AcDbSymbolTable
 70
     1
  0
BLOCK_RECORD
  5
70
330
1
100
AcDbSymbolTableRecord
100
AcDbBlockTableRecord
  2
*Model_Space
340
73
 70
     0
280
     1
281
     0
  0
BLOCK_RECORD
  5
6C
330
1
100
AcDbSymbolTableRecord
100
AcDbBlockTableRecord
  2
*Paper_Space
340
6F
 70
     0
280
     1
281
     0
  0
BLOCK_RECORD
  5
74
330
1
100
AcDbSymbolTableRecord
100
AcDbBlockTableRecord
  2
*Paper_Space0
340
77
 70
     0
280
     1
281
     0
  0
ENDTAB
  0
ENDSEC
  0
SECTION
  2
BLOCKS
  0
BLOCK
  5
71
330
70
100
AcDbEntity
  8
0
100
AcDbBlockBegin
  2
*Model_Space
 70
     0
 10
0.0
 20
0.0
 30
0.0
  3
*Model_Space
  1

  0
ENDBLK
  5
72
330
70
100
AcDbEntity
  8
0
100
AcDbBlockEnd
  0
BLOCK
  5
6D
330
6C
100
AcDbEntity
 67
     1
  8
0
100
AcDbBlockBegin
  2
*Paper_Space
 70
     0
 10
0.0
 20
0.0
 30
0.0
  3
*Paper_Space
  1

  0
ENDBLK
  5
6E
330
6C
100
AcDbEntity
 67
     1
  8
0
100
AcDbBlockEnd
  0
BLOCK
  5
75
330
74
100
AcDbEntity
 67
     1
  8
0
100
AcDbBlockBegin
  2
*Paper_Space0
 70
     0
 10
0.0
 20
0.0
 30
0.0
  3
*Paper_Space0
  1

  0
ENDBLK
  5
76
330
74
100
AcDbEntity
 67
     1
  8
0
100
AcDbBlockEnd
  0
ENDSEC
  0
SECTION
  2
ENTITIES
  0
SPLINE
  5
78
330
70
100
AcDbEntity
  8
0
 62
    18
420
        0
370
    25
100
AcDbSpline
210
0.0
220
0.0
230
1.0
 70
     8
 71
     3
 72
    47
 73
    43
 74
     0
 42
0.0000000001
 43
0.0000000001
 40
0.0
 40
0.0
 40
0.0
 40
0.0
 40
1.0
 40
1.0
 40
1.0
 40
2.0
 40
2.0
 40
2.0
 40
3.0
 40
3.0
 40
3.0
 40
4.0
 40
4.0
 40
4.0
 40
5.0
 40
5.0
 40
5.0
 40
6.0
 40
6.0
 40
6.0
 40
7.0
 40
7.0
 40
7.0
 40
8.0
 40
8.0
 40
8.0
 40
9.0
 40
9.0
 40
9.0
 40
10.0
 40
10.0
 40
10.0
 40
11.0
 40
11.0
 40
11.0
 40
12.0
 40
12.0
 40
12.0
 40
13.0
 40
13.0
 40
13.0
 40
14.0
 40
14.0
 40
14.0
 40
14.0
 10
228.4559999536459
 20
59.0249999887551
 30
0.0
 10
228.4559999536459
 20
58.74885761390925
 30
0.0
 10
228.2321423286171
 20
58.52499998888053
 30
0.0
 10
227.9559999537713
 20
58.52499998888053
 30
0.0
 10
227.9559999537713
 20
58.52499998888053
 30
0.0
 10
212.5749999576161
 20
58.52499998888053
 30
0.0
 10
212.5749999576161
 20
58.52499998888053
 30
0.0
 10
212.2988575827703
 20
58.52499998888053
 30
0.0
 10
212.0749999577415
 20
58.74885761390925
 30
0.0
 10
212.0749999577415
 20
59.0249999887551
 30
0.0
 10
212.0749999577415
 20
59.0249999887551
 30
0.0
 10
212.0749999577415
 20
72.02499998550536
 30
0.0
 10
212.0749999577415
 20
72.02499998550536
 30
0.0
 10
212.0749999577415
 20
72.30114236035184
 30
0.0
 10
212.2988575827703
 20
72.52499998538056
 30
0.0
 10
212.5749999576161
 20
72.52499998538056
 30
0.0
 10
212.5749999576161
 20
72.52499998538056
 30
0.0
 10
224.6000981319618
 20
72.52457118087876
 30
0.0
 10
224.6000981319618
 20
72.52457118087876
 30
0.0
 10
224.876240506877
 20
72.52457118085374
 30
0.0
 10
225.1000981319821
 20
72.74842880591838
 30
0.0
 10
225.1000981320071
 20
73.02457118083353
 30
0.0
 10
225.1000981320071
 20
73.02457118083353
 30
0.0
 10
225.1000981320963
 20
74.01957118083355
 30
0.0
 10
225.1000981320963
 20
74.01957118083355
 30
0.0
 10
225.1000981321213
 20
74.29571355574871
 30
0.0
 10
225.3239557572258
 20
74.51957118081335
 30
0.0
 10
225.600098132141
 20
74.51957118078897
 30
0.0
 10
225.600098132141
 20
74.51957118078897
 30
0.0
 10
234.0130199561161
 20
74.52499998350559
 30
0.0
 10
234.0130199561161
 20
74.52499998350559
 30
0.0
 10
234.2891623309626
 20
74.52499998350559
 30
0.0
 10
234.5130199559913
 20
74.30114235847688
 30
0.0
 10
234.5130199559913
 20
74.02499998363102
 30
0.0
 10
234.5130199559913
 20
74.02499998363102
 30
0.0
 10
234.5130199559913
 20
60.02499998713036
 30
0.0
 10
234.5130199559913
 20
60.02499998713036
 30
0.0
 10
234.5130199559913
 20
59.7488576122845
 30
0.0
 10
234.2891623309626
 20
59.52499998725579
 30
0.0
 10
234.0130199561161
 20
59.52499998725579
 30
0.0
 10
234.0130199561161
 20
59.52499998725579
 30
0.0
 10
228.9559985375711
 20
59.52499998725579
 30
0.0
 10
228.9559985375711
 20
59.52499998725579
 30
0.0
  0
SPLINE
  5
79
330
70
100
AcDbEntity
  8
0
 62
    18
420
        0
370
    25
100
AcDbSpline
210
0.0
220
0.0
230
1.0
 70
     8
 71
     3
 72
   122
 73
   118
 74
     0
 42
0.0000000001
 43
0.0000000001
 40
0.0
 40
0.0
 40
0.0
 40
0.0
 40
1.0
 40
1.0
 40
1.0
 40
2.0
 40
2.0
 40
2.0
 40
3.0
 40
3.0
 40
3.0
 40
4.0
 40
4.0
 40
4.0
 40
5.0
 40
5.0
 40
5.0
 40
6.0
 40
6.0
 40
6.0
 40
7.0
 40
7.0
 40
7.0
 40
8.0
 40
8.0
 40
8.0
 40
9.0
 40
9.0
 40
9.0
 40
10.0
 40
10.0
 40
10.0
 40
11.0
 40
11.0
 40
11.0
 40
12.0
 40
12.0
 40
12.0
 40
13.0
 40
13.0
 40
13.0
 40
14.0
 40
14.0
 40
14.0
 40
15.0
 40
15.0
 40
15.0
 40
16.0
 40
16.0
 40
16.0
 40
17.0
 40
17.0
 40
17.0
 40
18.0
 40
18.0
 40
18.0
 40
19.0
 40
19.0
 40
19.0
 40
20.0
 40
20.0
 40
20.0
 40
21.0
 40
21.0
 40
21.0
 40
22.0
 40
22.0
 40
22.0
 40
23.0
 40
23.0
 40
23.0
 40
24.0
 40
24.0
 40
24.0
 40
25.0
 40
25.0
 40
25.0
 40
26.0
 40
26.0
 40
26.0
 40
27.0
 40
27.0
 40
27.0
 40
28.0
 40
28.0
 40
28.0
 40
29.0
 40
29.0
 40
29.0
 40
30.0
 40
30.0
 40
30.0
 40
31.0
 40
31.0
 40
31.0
 40
32.0
 40
32.0
 40
32.0
 40
33.0
 40
33.0
 40
33.0
 40
34.0
 40
34.0
 40
34.0
 40
35.0
 40
35.0
 40
35.0
 40
36.0
 40
36.0
 40
36.0
 40
37.0
 40
37.0
 40
37.0
 40
38.0
 40
38.0
 40
38.0
 40
39.0
 40
39.0
 40
39.0
 40
39.0
 10
171.5452213050069
 20
56.00034806330352
 30
0.0
 10
171.5452213050069
 20
56.00034806330352
 30
0.0
 10
238.3215948012713
 20
56.00034805714257
 30
0.0
 10
238.3215948012713
 20
56.00034805714257
 30
0.0
 10
239.5706984426888
 20
56.00034805703092
 30
0.0
 10
240.5833015287586
 20
57.01293809082487
 30
0.0
 10
240.5833176294764
 20
58.26204173213835
 30
0.0
 10
240.5833176293488
 20
58.26205270318341
 30
0.0
 10
240.5833176292929
 20
58.26206367421242
 30
0.0
 10
240.583317629309
 20
58.26207464525812
 30
0.0
 10
240.5833197060928
 20
59.64278651983263
 30
0.0
 10
241.7026095150797
 20
60.7620729616886
 30
0.0
 10
243.0833213896555
 20
60.76207088490537
 30
0.0
 10
243.0833213896555
 20
60.76207088490537
 30
0.0
 10
277.1323754392594
 20
60.76201967036665
 30
0.0
 10
277.1323754392594
 20
60.76201967036665
 30
0.0
 10
277.662814633018
 20
60.76201887251143
 30
0.0
 10
278.1715275771349
 20
60.55129950328867
 30
0.0
 10
278.5466008007866
 20
60.17621842515349
 30
0.0
 10
278.5466008007866
 20
60.17621842515349
 30
0.0
 10
283.3763981643308
 20
55.34631991984756
 30
0.0
 10
283.3763981643308
 20
55.34631991984756
 30
0.0
 10
283.7514669940105
 20
54.97124323577607
 30
0.0
 10
284.2601726135052
 20
54.76052422863584
 30
0.0
 10
284.7906055931555
 20
54.7605186747422
 30
0.0
 10
284.7906055931555
 20
54.7605186747422
 30
0.0
 10
293.2090515687846
 20
54.76043052947725
 30
0.0
 10
293.2090515687846
 20
54.76043052947725
 30
0.0
 10
293.7394845484342
 20
54.76042497558298
 30
0.0
 10
294.2481945804806
 20
54.97113332988195
 30
0.0
 10
294.6232712645521
 20
55.34620215956104
 30
0.0
 10
294.6232712645521
 20
55.34620215956104
 30
0.0
 10
299.4517814932864
 20
60.17461127560706
 30
0.0
 10
299.4517814932864
 20
60.17461127560706
 30
0.0
 10
299.8268581773572
 20
60.54968010528615
 30
0.0
 10
300.0375771844975
 20
61.05838572478017
 30
0.0
 10
300.0375827383917
 20
61.58881870442982
 30
0.0
 10
300.0375827383917
 20
61.58881870442982
 30
0.0
 10
300.0379811525256
 20
136.1336583878673
 30
0.0
 10
300.0379811525256
 20
136.1336583878673
 30
0.0
 10
300.0379785433286
 20
136.6640924483503
 30
0.0
 10
299.8272619309129
 20
137.1728002741853
 30
0.0
 10
299.4521865647834
 20
137.5478719503351
 30
0.0
 10
299.4521865647834
 20
137.5478719503351
 30
0.0
 10
294.623726892562
 20
142.3763316234238
 30
0.0
 10
294.623726892562
 20
142.3763316234238
 30
0.0
 10
294.2486541357002
 20
142.7514043803533
 30
0.0
 10
293.7399463099211
 20
142.9621180611306
 30
0.0
 10
293.2095133302419
 20
142.9621180611781
 30
0.0
 10
293.2095133302419
 20
142.9621180611781
 30
0.0
 10
284.791067354152
 20
142.962118061934
 30
0.0
 10
284.791067354152
 20
142.962118061934
 30
0.0
 10
284.2606343744716
 20
142.9621180619815
 30
0.0
 10
283.7519265486539
 20
142.7514043812953
 30
0.0
 10
283.3768537917247
 20
142.3763316244332
 30
0.0
 10
283.3768537917247
 20
142.3763316244332
 30
0.0
 10
278.5483847740577
 20
137.5478626076325
 30
0.0
 10
278.5483847740577
 20
137.5478626076325
 30
0.0
 10
278.173311899629
 20
137.1727897332711
 30
0.0
 10
277.6646038779468
 20
136.9620760429048
 30
0.0
 10
277.1341707320984
 20
136.9620761701329
 30
0.0
 10
277.1341707320984
 20
136.9620761701329
 30
0.0
 10
123.2410274874046
 20
136.9621180764401
 30
0.0
 10
123.2410274874046
 20
136.9621180764401
 30
0.0
 10
122.7105945077261
 20
136.9621180764882
 30
0.0
 10
122.2018866819482
 20
137.1728317572646
 30
0.0
 10
121.8268139250857
 20
137.5479045141938
 30
0.0
 10
121.8268139250857
 20
137.5479045141938
 30
0.0
 10
116.9983868007729
 20
142.3763316393732
 30
0.0
 10
116.9983868007729
 20
142.3763316393732
 30
0.0
 10
116.6233140439098
 20
142.7514043963037
 30
0.0
 10
116.1146062181316
 20
142.9621180770801
 30
0.0
 10
115.5841732384521
 20
142.9621180771276
 30
0.0
 10
115.5841732384521
 20
142.9621180771276
 30
0.0
 10
106.8410248272631
 20
142.9621180779124
 30
0.0
 10
106.8410248272631
 20
142.9621180779124
 30
0.0
 10
106.3105918475839
 20
142.9621180779601
 30
0.0
 10
105.8018840217669
 20
142.7514043972749
 30
0.0
 10
105.4268112648367
 20
142.3763316404121
 30
0.0
 10
105.4268112648367
 20
142.3763316404121
 30
0.0
 10
100.5983841761492
 20
137.5479045525918
 30
0.0
 10
100.5983841761492
 20
137.5479045525918
 30
0.0
 10
100.2233114305986
 20
137.1728318071076
 30
0.0
 10
100.0125977507597
 20
136.6641240002981
 30
0.0
 10
100.0125977383951
 20
136.1336910367114
 30
0.0
 10
100.0125977383951
 20
136.1336910367114
 30
0.0
 10
100.0125981343379
 20
98.98334398088039
 30
0.0
 10
100.0125981343379
 20
98.98334398088039
 30
0.0
 10
100.0125981343379
 20
98.98334398088039
 30
0.0
 10
100.0122074851268
 20
61.59088043752801
 30
0.0
 10
100.0122074851268
 20
61.59088043752801
 30
0.0
 10
100.0122019435487
 20
61.06044747397024
 30
0.0
 10
100.2229102969098
 20
60.55173746089316
 30
0.0
 10
100.5979791152106
 20
60.17666078820092
 30
0.0
 10
100.5979791152106
 20
60.17666078820092
 30
0.0
 10
105.4263556471969
 20
55.34818314420776
 30
0.0
 10
105.4263556471969
 20
55.34818314420776
 30
0.0
 10
105.8014244768763
 20
54.97310646013628
 30
0.0
 10
106.3101300963704
 20
54.76238745299669
 30
0.0
 10
106.84056307602
 20
54.7623818991024
 30
0.0
 10
106.84056307602
 20
54.7623818991024
 30
0.0
 10
115.583711486731
 20
54.76229035404344
 30
0.0
 10
115.583711486731
 20
54.76229035404344
 30
0.0
 10
116.1141444663813
 20
54.76228480014981
 30
0.0
 10
116.6228544984276
 20
54.97299315444813
 30
0.0
 10
116.9979311824991
 20
55.34806198412724
 30
0.0
 10
116.9979311824991
 20
55.34806198412724
 30
0.0
 10
121.8264175370213
 20
60.17644722645993
 30
0.0
 10
121.8264175370213
 20
60.17644722645993
 30
0.0
 10
122.1955375020074
 20
60.54555946179426
 30
0.0
 10
122.6943426518757
 20
60.75572794896933
 30
0.0
 10
123.2163131051764
 20
60.76207118998257
 30
0.0
 10
123.2163131051764
 20
60.76207118998257
 30
0.0
 10
165.0369999585706
 20
60.76250447419564
 30
0.0
 10
165.0369999585706
 20
60.76250447419564
 30
0.0
 10
165.3131423334857
 20
60.76250447417061
 30
0.0
 10
165.5369999585905
 20
60.98636209923526
 30
0.0
 10
165.5369999586158
 20
61.26250447415041
 30
0.0
  0
SPLINE
  5
7A
330
70
100
AcDbEntity
  8
0
 62
    18
420
        0
370
    25
100
AcDbSpline
210
0.0
220
0.0
230
1.0
 70
     8
 71
     3
 72
    11
 73
     7
 74
     0
 42
0.0000000001
 43
0.0000000001
 40
0.0
 40
0.0
 40
0.0
 40
0.0
 40
1.0
 40
1.0
 40
1.0
 40
2.0
 40
2.0
 40
2.0
 40
2.0
 10
189.4130981320067
 20
73.02499549218691
 30
0.0
 10
189.4130981320067
 20
73.02499549218691
 30
0.0
 10
189.4130981320966
 20
74.02457118403822
 30
0.0
 10
189.4130981320966
 20
74.02457118403822
 30
0.0
 10
189.4130981321216
 20
74.30071355895337
 30
0.0
 10
189.636955757226
 20
74.52457118401866
 30
0.0
 10
189.9130981321412
 20
74.52457118399299
 30
0.0
  0
SPLINE
  5
7B
330
70
100
AcDbEntity
  8
0
 62
    18
420
        0
370
    25
100
AcDbSpline
210
0.0
220
0.0
230
1.0
 70
     8
 71
     3
 72
    23
 73
    19
 74
     0
 42
0.0000000001
 43
0.0000000001
 40
0.0
 40
0.0
 40
0.0
 40
0.0
 40
1.0
 40
1.0
 40
1.0
 40
2.0
 40
2.0
 40
2.0
 40
3.0
 40
3.0
 40
3.0
 40
4.0
 40
4.0
 40
4.0
 40
5.0
 40
5.0
 40
5.0
 40
6.0
 40
6.0
 40
6.0
 40
6.0
 10
166.0369999600074
 20
74.52499998730509
 30
0.0
 10
166.0369999600074
 20
74.52499998730509
 30
0.0
 10
174.449999960007
 20
74.52499998654918
 30
0.0
 10
174.449999960007
 20
74.52499998654918
 30
0.0
 10
174.449999960007
 20
74.52499998654918
 30
0.0
 10
174.449999960007
 20
74.51999998654979
 30
0.0
 10
174.449999960007
 20
74.51999998654979
 30
0.0
 10
174.7261423349227
 20
74.51999998652476
 30
0.0
 10
174.9499999599867
 20
74.29614236141969
 30
0.0
 10
174.9499999599627
 20
74.01999998650454
 30
0.0
 10
174.9499999599627
 20
74.01999998650454
 30
0.0
 10
174.9499999598732
 20
73.02499998650453
 30
0.0
 10
174.9499999598732
 20
73.02499998650453
 30
0.0
 10
174.9499999598481
 20
72.74885761158936
 30
0.0
 10
175.1738575849128
 20
72.52499998648429
 30
0.0
 10
175.4499999598283
 20
72.52499998645927
 30
0.0
 10
175.4499999598283
 20
72.52499998645927
 30
0.0
 10
188.9130015656537
 20
72.52500079561736
 30
0.0
 10
188.9130015656537
 20
72.52500079561736
 30
0.0
  0
CIRCLE
  5
7C
330
70
100
AcDbEntity
  8
0
 62
    18
420
        0
370
    25
100
AcDbCircle
 10
288.9188276624626
 20
139.9620994017994
 30
0.0
 40
1.349999999662393
  0
CIRCLE
  5
7D
330
70
100
AcDbEntity
  8
0
 62
    18
420
        0
370
    25
100
AcDbCircle
 10
111.1311387528576
 20
139.962118091452
 30
0.0
 40
1.349999999662393
  0
CIRCLE
  5
7E
330
70
100
AcDbEntity
  8
0
 62
    18
420
        0
370
    25
100
AcDbCircle
 10
111.1311387576322
 20
57.76021876634515
 30
0.0
 40
1.349999999662754
  0
CIRCLE
  5
7F
330
70
100
AcDbEntity
  8
0
 62
    18
420
        0
370
    25
100
AcDbCircle
 10
288.9188276576876
 20
57.76049326172647
 30
0.0
 40
1.349999999662353
  0
SPLINE
  5
80
330
70
100
AcDbEntity
  8
0
 62
    18
420
        0
370
    25
100
AcDbSpline
210
0.0
220
0.0
230
1.0
 70
     9
 71
     3
 72
    29
 73
    25
 74
     0
 42
0.0000000001
 43
0.0000000001
 40
0.0
 40
0.0
 40
0.0
 40
0.0
 40
1.0
 40
1.0
 40
1.0
 40
2.0
 40
2.0
 40
2.0
 40
3.0
 40
3.0
 40
3.0
 40
4.0
 40
4.0
 40
4.0
 40
5.0
 40
5.0
 40
5.0
 40
6.0
 40
6.0
 40
6.0
 40
7.0
 40
7.0
 40
7.0
 40
8.0
 40
8.0
 40
8.0
 40
8.0
 10
284.0122054069487
 20
77.28721874594724
 30
0.0
 10
284.0122054069487
 20
77.28721874594724
 30
0.0
 10
297.0122054036989
 20
77.28721874477999
 30
0.0
 10
297.0122054036989
 20
77.28721874477999
 30
0.0
 10
297.2883477785448
 20
77.28721874475496
 30
0.0
 10
297.5122054035536
 20
77.06336111970699
 30
0.0
 10
297.5122054035286
 20
76.78721874486051
 30
0.0
 10
297.5122054035286
 20
76.78721874486051
 30
0.0
 10
297.5122054023619
 20
63.78721874811025
 30
0.0
 10
297.5122054023619
 20
63.78721874811025
 30
0.0
 10
297.5122054023369
 20
63.51107637326375
 30
0.0
 10
297.2883477772883
 20
63.28721874825558
 30
0.0
 10
297.0122054024419
 20
63.28721874827996
 30
0.0
 10
297.0122054024419
 20
63.28721874827996
 30
0.0
 10
284.0122054056916
 20
63.28721874944786
 30
0.0
 10
284.0122054056916
 20
63.28721874944786
 30
0.0
 10
283.7360630308451
 20
63.28721874947223
 30
0.0
 10
283.5122054058369
 20
63.51107637452084
 30
0.0
 10
283.5122054058613
 20
63.78721874936734
 30
0.0
 10
283.5122054058613
 20
63.78721874936734
 30
0.0
 10
283.5122054070292
 20
76.78721874611759
 30
0.0
 10
283.5122054070292
 20
76.78721874611759
 30
0.0
 10
283.5122054070536
 20
77.06336112096344
 30
0.0
 10
283.7360630321029
 20
77.28721874597226
 30
0.0
 10
284.0122054069487
 20
77.28721874594724
 30
0.0
  0
SPLINE
  5
81
330
70
100
AcDbEntity
  8
0
 62
    18
420
        0
370
    25
100
AcDbSpline
210
0.0
220
0.0
230
1.0
 70
     9
 71
     3
 72
    29
 73
    25
 74
     0
 42
0.0000000001
 43
0.0000000001
 40
0.0
 40
0.0
 40
0.0
 40
0.0
 40
1.0
 40
1.0
 40
1.0
 40
2.0
 40
2.0
 40
2.0
 40
3.0
 40
3.0
 40
3.0
 40
4.0
 40
4.0
 40
4.0
 40
5.0
 40
5.0
 40
5.0
 40
6.0
 40
6.0
 40
6.0
 40
7.0
 40
7.0
 40
7.0
 40
8.0
 40
8.0
 40
8.0
 40
8.0
 10
264.9625981340143
 20
77.28721874765802
 30
0.0
 10
264.9625981340143
 20
77.28721874765802
 30
0.0
 10
277.9625981307646
 20
77.28721874649076
 30
0.0
 10
277.9625981307646
 20
77.28721874649076
 30
0.0
 10
278.2387405056111
 20
77.28721874646574
 30
0.0
 10
278.4625981306199
 20
77.06336112141713
 30
0.0
 10
278.4625981305949
 20
76.78721874657063
 30
0.0
 10
278.4625981305949
 20
76.78721874657063
 30
0.0
 10
278.4625981294277
 20
63.78721874982038
 30
0.0
 10
278.4625981294277
 20
63.78721874982038
 30
0.0
 10
278.4625981294033
 20
63.51107637497452
 30
0.0
 10
278.238740504354
 20
63.28721874996571
 30
0.0
 10
277.9625981295075
 20
63.28721874999073
 30
0.0
 10
277.9625981295075
 20
63.28721874999073
 30
0.0
 10
264.9625981327572
 20
63.28721875115799
 30
0.0
 10
264.9625981327572
 20
63.28721875115799
 30
0.0
 10
264.6864557579114
 20
63.28721875118301
 30
0.0
 10
264.4625981329026
 20
63.51107637623098
 30
0.0
 10
264.4625981329276
 20
63.78721875107811
 30
0.0
 10
264.4625981329276
 20
63.78721875107811
 30
0.0
 10
264.4625981340949
 20
76.78721874782836
 30
0.0
 10
264.4625981340949
 20
76.78721874782836
 30
0.0
 10
264.4625981341193
 20
77.06336112267422
 30
0.0
 10
264.6864557591685
 20
77.2872187476824
 30
0.0
 10
264.9625981340143
 20
77.28721874765802
 30
0.0
  0
SPLINE
  5
82
330
70
100
AcDbEntity
  8
0
 62
    18
420
        0
370
    25
100
AcDbSpline
210
0.0
220
0.0
230
1.0
 70
     9
 71
     3
 72
    29
 73
    25
 74
     0
 42
0.0000000001
 43
0.0000000001
 40
0.0
 40
0.0
 40
0.0
 40
0.0
 40
1.0
 40
1.0
 40
1.0
 40
2.0
 40
2.0
 40
2.0
 40
3.0
 40
3.0
 40
3.0
 40
4.0
 40
4.0
 40
4.0
 40
5.0
 40
5.0
 40
5.0
 40
6.0
 40
6.0
 40
6.0
 40
7.0
 40
7.0
 40
7.0
 40
8.0
 40
8.0
 40
8.0
 40
8.0
 10
245.9125981340142
 20
77.28721874936877
 30
0.0
 10
245.9125981340142
 20
77.28721874936877
 30
0.0
 10
258.9125981307644
 20
77.28721874820088
 30
0.0
 10
258.9125981307644
 20
77.28721874820088
 30
0.0
 10
259.1887405056109
 20
77.2872187481765
 30
0.0
 10
259.4125981306198
 20
77.06336112312725
 30
0.0
 10
259.4125981305948
 20
76.7872187482814
 30
0.0
 10
259.4125981305948
 20
76.7872187482814
 30
0.0
 10
259.4125981294275
 20
63.78721875153114
 30
0.0
 10
259.4125981294275
 20
63.78721875153114
 30
0.0
 10
259.4125981294031
 20
63.51107637668466
 30
0.0
 10
259.1887405043538
 20
63.28721875167648
 30
0.0
 10
258.9125981295079
 20
63.2872187517015
 30
0.0
 10
258.9125981295079
 20
63.2872187517015
 30
0.0
 10
245.9125981327577
 20
63.28721875286811
 30
0.0
 10
245.9125981327577
 20
63.28721875286811
 30
0.0
 10
245.6364557579112
 20
63.28721875289378
 30
0.0
 10
245.4125981329024
 20
63.51107637794174
 30
0.0
 10
245.4125981329274
 20
63.78721875278824
 30
0.0
 10
245.4125981329274
 20
63.78721875278824
 30
0.0
 10
245.4125981340947
 20
76.7872187495385
 30
0.0
 10
245.4125981340947
 20
76.7872187495385
 30
0.0
 10
245.4125981341191
 20
77.06336112438498
 30
0.0
 10
245.6364557591683
 20
77.28721874939316
 30
0.0
 10
245.9125981340142
 20
77.28721874936877
 30
0.0
  0
SPLINE
  5
83
330
70
100
AcDbEntity
  8
0
 62
    18
420
        0
370
    25
100
AcDbSpline
210
0.0
220
0.0
230
1.0
 70
     9
 71
     3
 72
    29
 73
    25
 74
     0
 42
0.0000000001
 43
0.0000000001
 40
0.0
 40
0.0
 40
0.0
 40
0.0
 40
1.0
 40
1.0
 40
1.0
 40
2.0
 40
2.0
 40
2.0
 40
3.0
 40
3.0
 40
3.0
 40
4.0
 40
4.0
 40
4.0
 40
5.0
 40
5.0
 40
5.0
 40
6.0
 40
6.0
 40
6.0
 40
7.0
 40
7.0
 40
7.0
 40
8.0
 40
8.0
 40
8.0
 40
8.0
 10
179.2377945026787
 20
134.437218741068
 30
0.0
 10
179.2377945026787
 20
134.437218741068
 30
0.0
 10
192.237794499429
 20
134.4372187399004
 30
0.0
 10
192.237794499429
 20
134.4372187399004
 30
0.0
 10
192.5139368742755
 20
134.4372187398754
 30
0.0
 10
192.7377944992843
 20
134.2133611148271
 30
0.0
 10
192.7377944992593
 20
133.9372187399806
 30
0.0
 10
192.7377944992593
 20
133.9372187399806
 30
0.0
 10
192.737794498092
 20
120.9372187432304
 30
0.0
 10
192.737794498092
 20
120.9372187432304
 30
0.0
 10
192.737794498067
 20
120.6610763683839
 30
0.0
 10
192.5139368730184
 20
120.437218743375
 30
0.0
 10
192.2377944981719
 20
120.4372187434001
 30
0.0
 10
192.2377944981719
 20
120.4372187434001
 30
0.0
 10
179.2377945014216
 20
120.4372187445673
 30
0.0
 10
179.2377945014216
 20
120.4372187445673
 30
0.0
 10
178.9616521265758
 20
120.4372187445923
 30
0.0
 10
178.737794501567
 20
120.661076369641
 30
0.0
 10
178.737794501592
 20
120.9372187444874
 30
0.0
 10
178.737794501592
 20
120.9372187444874
 30
0.0
 10
178.7377945027593
 20
133.9372187412377
 30
0.0
 10
178.7377945027593
 20
133.9372187412377
 30
0.0
 10
178.7377945027843
 20
134.2133611160845
 30
0.0
 10
178.9616521278329
 20
134.437218741093
 30
0.0
 10
179.2377945026787
 20
134.437218741068
 30
0.0
  0
SPLINE
  5
84
330
70
100
AcDbEntity
  8
0
 62
    18
420
        0
370
    25
100
AcDbSpline
210
0.0
220
0.0
230
1.0
 70
     9
 71
     3
 72
    29
 73
    25
 74
     0
 42
0.0000000001
 43
0.0000000001
 40
0.0
 40
0.0
 40
0.0
 40
0.0
 40
1.0
 40
1.0
 40
1.0
 40
2.0
 40
2.0
 40
2.0
 40
3.0
 40
3.0
 40
3.0
 40
4.0
 40
4.0
 40
4.0
 40
5.0
 40
5.0
 40
5.0
 40
6.0
 40
6.0
 40
6.0
 40
7.0
 40
7.0
 40
7.0
 40
8.0
 40
8.0
 40
8.0
 40
8.0
 10
160.1877945026785
 20
134.4372187427788
 30
0.0
 10
160.1877945026785
 20
134.4372187427788
 30
0.0
 10
173.1877944994288
 20
134.4372187416115
 30
0.0
 10
173.1877944994288
 20
134.4372187416115
 30
0.0
 10
173.4639368742753
 20
134.4372187415865
 30
0.0
 10
173.6877944992841
 20
134.2133611165382
 30
0.0
 10
173.6877944992588
 20
133.9372187416914
 30
0.0
 10
173.6877944992588
 20
133.9372187416914
 30
0.0
 10
173.6877944980919
 20
120.9372187449411
 30
0.0
 10
173.6877944980919
 20
120.9372187449411
 30
0.0
 10
173.6877944980668
 20
120.6610763700946
 30
0.0
 10
173.4639368730182
 20
120.4372187450858
 30
0.0
 10
173.1877944981717
 20
120.4372187451108
 30
0.0
 10
173.1877944981717
 20
120.4372187451108
 30
0.0
 10
160.1877945014211
 20
120.4372187462781
 30
0.0
 10
160.1877945014211
 20
120.4372187462781
 30
0.0
 10
159.9116521265756
 20
120.4372187463025
 30
0.0
 10
159.6877945015668
 20
120.661076371352
 30
0.0
 10
159.6877945015918
 20
120.9372187461982
 30
0.0
 10
159.6877945015918
 20
120.9372187461982
 30
0.0
 10
159.6877945027591
 20
133.9372187429485
 30
0.0
 10
159.6877945027591
 20
133.9372187429485
 30
0.0
 10
159.6877945027841
 20
134.213361117795
 30
0.0
 10
159.9116521278327
 20
134.4372187428031
 30
0.0
 10
160.1877945026785
 20
134.4372187427788
 30
0.0
  0
SPLINE
  5
85
330
70
100
AcDbEntity
  8
0
 62
    18
420
        0
370
    25
100
AcDbSpline
210
0.0
220
0.0
230
1.0
 70
     9
 71
     3
 72
    29
 73
    25
 74
     0
 42
0.0000000001
 43
0.0000000001
 40
0.0
 40
0.0
 40
0.0
 40
0.0
 40
1.0
 40
1.0
 40
1.0
 40
2.0
 40
2.0
 40
2.0
 40
3.0
 40
3.0
 40
3.0
 40
4.0
 40
4.0
 40
4.0
 40
5.0
 40
5.0
 40
5.0
 40
6.0
 40
6.0
 40
6.0
 40
7.0
 40
7.0
 40
7.0
 40
8.0
 40
8.0
 40
8.0
 40
8.0
 10
141.1374017756131
 20
134.4372187444889
 30
0.0
 10
141.1374017756131
 20
134.4372187444889
 30
0.0
 10
154.137401772363
 20
134.4372187433219
 30
0.0
 10
154.137401772363
 20
134.4372187433219
 30
0.0
 10
154.4135441472095
 20
134.4372187432969
 30
0.0
 10
154.6374017722187
 20
134.213361118248
 30
0.0
 10
154.6374017721933
 20
133.9372187434015
 30
0.0
 10
154.6374017721933
 20
133.9372187434015
 30
0.0
 10
154.6374017710264
 20
120.9372187466513
 30
0.0
 10
154.6374017710264
 20
120.9372187466513
 30
0.0
 10
154.6374017710014
 20
120.6610763718048
 30
0.0
 10
154.4135441459524
 20
120.4372187467966
 30
0.0
 10
154.1374017711059
 20
120.437218746821
 30
0.0
 10
154.1374017711059
 20
120.437218746821
 30
0.0
 10
141.137401774356
 20
120.4372187479882
 30
0.0
 10
141.137401774356
 20
120.4372187479882
 30
0.0
 10
140.8612593995098
 20
120.4372187480132
 30
0.0
 10
140.6374017745007
 20
120.6610763730618
 30
0.0
 10
140.6374017745257
 20
120.9372187479083
 30
0.0
 10
140.6374017745257
 20
120.9372187479083
 30
0.0
 10
140.637401775693
 20
133.9372187446586
 30
0.0
 10
140.637401775693
 20
133.9372187446586
 30
0.0
 10
140.637401775718
 20
134.2133611195054
 30
0.0
 10
140.8612594007666
 20
134.4372187445139
 30
0.0
 10
141.1374017756131
 20
134.4372187444889
 30
0.0
  0
SPLINE
  5
86
330
70
100
AcDbEntity
  8
0
 62
    18
420
        0
370
    25
100
AcDbSpline
210
0.0
220
0.0
230
1.0
 70
     9
 71
     3
 72
    29
 73
    25
 74
     0
 42
0.0000000001
 43
0.0000000001
 40
0.0
 40
0.0
 40
0.0
 40
0.0
 40
1.0
 40
1.0
 40
1.0
 40
2.0
 40
2.0
 40
2.0
 40
3.0
 40
3.0
 40
3.0
 40
4.0
 40
4.0
 40
4.0
 40
5.0
 40
5.0
 40
5.0
 40
6.0
 40
6.0
 40
6.0
 40
7.0
 40
7.0
 40
7.0
 40
8.0
 40
8.0
 40
8.0
 40
8.0
 10
122.0877945026788
 20
134.4372187461996
 30
0.0
 10
122.0877945026788
 20
134.4372187461996
 30
0.0
 10
135.0877944994291
 20
134.4372187450321
 30
0.0
 10
135.0877944994291
 20
134.4372187450321
 30
0.0
 10
135.3639368742752
 20
134.4372187450074
 30
0.0
 10
135.5877944992844
 20
134.2133611199591
 30
0.0
 10
135.5877944992593
 20
133.9372187451123
 30
0.0
 10
135.5877944992593
 20
133.9372187451123
 30
0.0
 10
135.5877944980921
 20
120.937218748362
 30
0.0
 10
135.5877944980921
 20
120.937218748362
 30
0.0
 10
135.5877944980671
 20
120.6610763735155
 30
0.0
 10
135.3639368730185
 20
120.4372187485067
 30
0.0
 10
135.087794498172
 20
120.4372187485317
 30
0.0
 10
135.087794498172
 20
120.4372187485317
 30
0.0
 10
122.0877945014217
 20
120.437218749699
 30
0.0
 10
122.0877945014217
 20
120.437218749699
 30
0.0
 10
121.8116521265759
 20
120.437218749724
 30
0.0
 10
121.587794501567
 20
120.6610763747729
 30
0.0
 10
121.5877945015921
 20
120.9372187496191
 30
0.0
 10
121.5877945015921
 20
120.9372187496191
 30
0.0
 10
121.587794502759
 20
133.9372187463694
 30
0.0
 10
121.587794502759
 20
133.9372187463694
 30
0.0
 10
121.587794502784
 20
134.2133611212159
 30
0.0
 10
121.8116521278326
 20
134.4372187462247
 30
0.0
 10
122.0877945026788
 20
134.4372187461996
 30
0.0
  0
SPLINE
  5
87
330
70
100
AcDbEntity
  8
0
 62
    18
420
        0
370
    25
100
AcDbSpline
210
0.0
220
0.0
230
1.0
 70
     9
 71
     3
 72
    29
 73
    25
 74
     0
 42
0.0000000001
 43
0.0000000001
 40
0.0
 40
0.0
 40
0.0
 40
0.0
 40
1.0
 40
1.0
 40
1.0
 40
2.0
 40
2.0
 40
2.0
 40
3.0
 40
3.0
 40
3.0
 40
4.0
 40
4.0
 40
4.0
 40
5.0
 40
5.0
 40
5.0
 40
6.0
 40
6.0
 40
6.0
 40
7.0
 40
7.0
 40
7.0
 40
8.0
 40
8.0
 40
8.0
 40
8.0
 10
103.0379999748689
 20
134.4372187479104
 30
0.0
 10
103.0379999748689
 20
134.4372187479104
 30
0.0
 10
116.0379999716191
 20
134.4372187467432
 30
0.0
 10
116.0379999716191
 20
134.4372187467432
 30
0.0
 10
116.314142346465
 20
134.4372187467185
 30
0.0
 10
116.5379999714745
 20
134.2133611216695
 30
0.0
 10
116.5379999714491
 20
133.937218746823
 30
0.0
 10
116.5379999714491
 20
133.937218746823
 30
0.0
 10
116.5379999702822
 20
120.9372187500728
 30
0.0
 10
116.5379999702822
 20
120.9372187500728
 30
0.0
 10
116.5379999702572
 20
120.6610763752263
 30
0.0
 10
116.3141423452086
 20
120.4372187502175
 30
0.0
 10
116.0379999703621
 20
120.4372187502425
 30
0.0
 10
116.0379999703621
 20
120.4372187502425
 30
0.0
 10
103.0379999736112
 20
120.4372187514101
 30
0.0
 10
103.0379999736112
 20
120.4372187514101
 30
0.0
 10
102.7618575987653
 20
120.4372187514342
 30
0.0
 10
102.5379999737565
 20
120.6610763764834
 30
0.0
 10
102.5379999737822
 20
120.9372187513299
 30
0.0
 10
102.5379999737822
 20
120.9372187513299
 30
0.0
 10
102.5379999749497
 20
133.9372187480802
 30
0.0
 10
102.5379999749497
 20
133.9372187480802
 30
0.0
 10
102.5379999749738
 20
134.2133611229263
 30
0.0
 10
102.7618576000224
 20
134.4372187479345
 30
0.0
 10
103.0379999748689
 20
134.4372187479104
 30
0.0
  0
LINE
  5
88
330
70
100
AcDbEntity
  8
0
 62
    18
420
        0
370
    25
100
AcDbLine
 10
280.6313486067701
 20
120.437218743984
 30
0.0
 11
280.6313486067701
 21
120.437218743984
 31
0.0
  0
SPLINE
  5
89
330
70
100
AcDbEntity
  8
0
 62
    18
420
        0
370
    25
100
AcDbSpline
210
0.0
220
0.0
230
1.0
 70
     9
 71
     3
 72
    29
 73
    25
 74
     0
 42
0.0000000001
 43
0.0000000001
 40
0.0
 40
0.0
 40
0.0
 40
0.0
 40
1.0
 40
1.0
 40
1.0
 40
2.0
 40
2.0
 40
2.0
 40
3.0
 40
3.0
 40
3.0
 40
4.0
 40
4.0
 40
4.0
 40
5.0
 40
5.0
 40
5.0
 40
6.0
 40
6.0
 40
6.0
 40
7.0
 40
7.0
 40
7.0
 40
8.0
 40
8.0
 40
8.0
 40
8.0
 10
284.0124953979181
 20
134.4372187376468
 30
0.0
 10
284.0124953979181
 20
134.4372187376468
 30
0.0
 10
297.0124953946684
 20
134.4372187364792
 30
0.0
 10
297.0124953946684
 20
134.4372187364792
 30
0.0
 10
297.2886377695155
 20
134.4372187364542
 30
0.0
 10
297.5124953945237
 20
134.2133611114059
 30
0.0
 10
297.5124953944993
 20
133.9372187365594
 30
0.0
 10
297.5124953944993
 20
133.9372187365594
 30
0.0
 10
297.5124953933315
 20
120.9372187398091
 30
0.0
 10
297.5124953933315
 20
120.9372187398091
 30
0.0
 10
297.5124953933071
 20
120.6610763649626
 30
0.0
 10
297.2886377682578
 20
120.4372187399538
 30
0.0
 10
297.0124953934119
 20
120.4372187399789
 30
0.0
 10
297.0124953934119
 20
120.4372187399789
 30
0.0
 10
284.0124953966617
 20
120.4372187411461
 30
0.0
 10
284.0124953966617
 20
120.4372187411461
 30
0.0
 10
283.7363530218159
 20
120.4372187411711
 30
0.0
 10
283.5124953968064
 20
120.6610763662197
 30
0.0
 10
283.512495396832
 20
120.9372187410662
 30
0.0
 10
283.512495396832
 20
120.9372187410662
 30
0.0
 10
283.5124953979986
 20
133.9372187378165
 30
0.0
 10
283.5124953979986
 20
133.9372187378165
 30
0.0
 10
283.5124953980243
 20
134.213361112663
 30
0.0
 10
283.7363530230723
 20
134.4372187376718
 30
0.0
 10
284.0124953979181
 20
134.4372187376468
 30
0.0
  0
SPLINE
  5
8A
330
70
100
AcDbEntity
  8
0
 62
    18
420
        0
370
    25
100
AcDbSpline
210
0.0
220
0.0
230
1.0
 70
     9
 71
     3
 72
    29
 73
    25
 74
     0
 42
0.0000000001
 43
0.0000000001
 40
0.0
 40
0.0
 40
0.0
 40
0.0
 40
1.0
 40
1.0
 40
1.0
 40
2.0
 40
2.0
 40
2.0
 40
3.0
 40
3.0
 40
3.0
 40
4.0
 40
4.0
 40
4.0
 40
5.0
 40
5.0
 40
5.0
 40
6.0
 40
6.0
 40
6.0
 40
7.0
 40
7.0
 40
7.0
 40
8.0
 40
8.0
 40
8.0
 40
8.0
 10
264.962495397918
 20
134.4372187393576
 30
0.0
 10
264.962495397918
 20
134.4372187393576
 30
0.0
 10
277.9624953946682
 20
134.4372187381903
 30
0.0
 10
277.9624953946682
 20
134.4372187381903
 30
0.0
 10
278.2386377695153
 20
134.4372187381653
 30
0.0
 10
278.4624953945235
 20
134.2133611131167
 30
0.0
 10
278.4624953944991
 20
133.9372187382702
 30
0.0
 10
278.4624953944991
 20
133.9372187382702
 30
0.0
 10
278.4624953933312
 20
120.9372187415199
 30
0.0
 10
278.4624953933312
 20
120.9372187415199
 30
0.0
 10
278.4624953933068
 20
120.6610763666734
 30
0.0
 10
278.2386377682576
 20
120.4372187416646
 30
0.0
 10
277.9624953934118
 20
120.4372187416896
 30
0.0
 10
277.9624953934118
 20
120.4372187416896
 30
0.0
 10
264.9624953966615
 20
120.4372187428569
 30
0.0
 10
264.9624953966615
 20
120.4372187428569
 30
0.0
 10
264.6863530218157
 20
120.4372187428813
 30
0.0
 10
264.4624953968062
 20
120.6610763679305
 30
0.0
 10
264.4624953968318
 20
120.937218742777
 30
0.0
 10
264.4624953968318
 20
120.937218742777
 30
0.0
 10
264.4624953979985
 20
133.9372187395273
 30
0.0
 10
264.4624953979985
 20
133.9372187395273
 30
0.0
 10
264.4624953980241
 20
134.2133611143738
 30
0.0
 10
264.6863530230721
 20
134.4372187393819
 30
0.0
 10
264.962495397918
 20
134.4372187393576
 30
0.0
  0
SPLINE
  5
8B
330
70
100
AcDbEntity
  8
0
 62
    18
420
        0
370
    25
100
AcDbSpline
210
0.0
220
0.0
230
1.0
 70
     9
 71
     3
 72
    29
 73
    25
 74
     0
 42
0.0000000001
 43
0.0000000001
 40
0.0
 40
0.0
 40
0.0
 40
0.0
 40
1.0
 40
1.0
 40
1.0
 40
2.0
 40
2.0
 40
2.0
 40
3.0
 40
3.0
 40
3.0
 40
4.0
 40
4.0
 40
4.0
 40
5.0
 40
5.0
 40
5.0
 40
6.0
 40
6.0
 40
6.0
 40
7.0
 40
7.0
 40
7.0
 40
8.0
 40
8.0
 40
8.0
 40
8.0
 10
245.9121026708531
 20
134.4372187410677
 30
0.0
 10
245.9121026708531
 20
134.4372187410677
 30
0.0
 10
258.9121026676034
 20
134.4372187399004
 30
0.0
 10
258.9121026676034
 20
134.4372187399004
 30
0.0
 10
259.1882450424492
 20
134.4372187398764
 30
0.0
 10
259.4121026674587
 20
134.2133611148268
 30
0.0
 10
259.412102667433
 20
133.9372187399803
 30
0.0
 10
259.412102667433
 20
133.9372187399803
 30
0.0
 10
259.4121026662664
 20
120.93721874323
 30
0.0
 10
259.4121026662664
 20
120.93721874323
 30
0.0
 10
259.4121026662407
 20
120.6610763683835
 30
0.0
 10
259.1882450411928
 20
120.4372187433754
 30
0.0
 10
258.9121026663457
 20
120.4372187433998
 30
0.0
 10
258.9121026663457
 20
120.4372187433998
 30
0.0
 10
245.9121026695961
 20
120.437218744567
 30
0.0
 10
245.9121026695961
 20
120.437218744567
 30
0.0
 10
245.6359602947496
 20
120.437218744592
 30
0.0
 10
245.4121026697407
 20
120.6610763696406
 30
0.0
 10
245.4121026697658
 20
120.9372187444871
 30
0.0
 10
245.4121026697658
 20
120.9372187444871
 30
0.0
 10
245.4121026709324
 20
133.9372187412374
 30
0.0
 10
245.4121026709324
 20
133.9372187412374
 30
0.0
 10
245.412102670958
 20
134.2133611160839
 30
0.0
 10
245.6359602960067
 20
134.4372187410927
 30
0.0
 10
245.9121026708531
 20
134.4372187410677
 30
0.0
  0
SPLINE
  5
8C
330
70
100
AcDbEntity
  8
0
 62
    18
420
        0
370
    25
100
AcDbSpline
210
0.0
220
0.0
230
1.0
 70
     9
 71
     3
 72
    29
 73
    25
 74
     0
 42
0.0000000001
 43
0.0000000001
 40
0.0
 40
0.0
 40
0.0
 40
0.0
 40
1.0
 40
1.0
 40
1.0
 40
2.0
 40
2.0
 40
2.0
 40
3.0
 40
3.0
 40
3.0
 40
4.0
 40
4.0
 40
4.0
 40
5.0
 40
5.0
 40
5.0
 40
6.0
 40
6.0
 40
6.0
 40
7.0
 40
7.0
 40
7.0
 40
8.0
 40
8.0
 40
8.0
 40
8.0
 10
226.8624953979188
 20
134.4372187427784
 30
0.0
 10
226.8624953979188
 20
134.4372187427784
 30
0.0
 10
239.8624953946691
 20
134.4372187416109
 30
0.0
 10
239.8624953946691
 20
134.4372187416109
 30
0.0
 10
240.138637769515
 20
134.4372187415862
 30
0.0
 10
240.3624953945244
 20
134.2133611165376
 30
0.0
 10
240.3624953944994
 20
133.9372187416914
 30
0.0
 10
240.3624953944994
 20
133.9372187416914
 30
0.0
 10
240.3624953933321
 20
120.9372187449408
 30
0.0
 10
240.3624953933321
 20
120.9372187449408
 30
0.0
 10
240.3624953933071
 20
120.6610763700943
 30
0.0
 10
240.1386377682585
 20
120.4372187450858
 30
0.0
 10
239.862495393412
 20
120.4372187451105
 30
0.0
 10
239.862495393412
 20
120.4372187451105
 30
0.0
 10
226.8624953966618
 20
120.4372187462778
 30
0.0
 10
226.8624953966618
 20
120.4372187462778
 30
0.0
 10
226.5863530218159
 20
120.4372187463028
 30
0.0
 10
226.3624953968071
 20
120.6610763713514
 30
0.0
 10
226.3624953968321
 20
120.9372187461979
 30
0.0
 10
226.3624953968321
 20
120.9372187461979
 30
0.0
 10
226.3624953979994
 20
133.9372187429481
 30
0.0
 10
226.3624953979994
 20
133.9372187429481
 30
0.0
 10
226.3624953980237
 20
134.2133611177946
 30
0.0
 10
226.586353023073
 20
134.4372187428034
 30
0.0
 10
226.8624953979188
 20
134.4372187427784
 30
0.0
  0
SPLINE
  5
8D
330
70
100
AcDbEntity
  8
0
 62
    18
420
        0
370
    25
100
AcDbSpline
210
0.0
220
0.0
230
1.0
 70
     9
 71
     3
 72
    29
 73
    25
 74
     0
 42
0.0000000001
 43
0.0000000001
 40
0.0
 40
0.0
 40
0.0
 40
0.0
 40
1.0
 40
1.0
 40
1.0
 40
2.0
 40
2.0
 40
2.0
 40
3.0
 40
3.0
 40
3.0
 40
4.0
 40
4.0
 40
4.0
 40
5.0
 40
5.0
 40
5.0
 40
6.0
 40
6.0
 40
6.0
 40
7.0
 40
7.0
 40
7.0
 40
8.0
 40
8.0
 40
8.0
 40
8.0
 10
207.8127008701089
 20
134.4372187444892
 30
0.0
 10
207.8127008701089
 20
134.4372187444892
 30
0.0
 10
220.8127008668592
 20
134.4372187433223
 30
0.0
 10
220.8127008668592
 20
134.4372187433223
 30
0.0
 10
221.088843241705
 20
134.4372187432969
 30
0.0
 10
221.3127008667145
 20
134.2133611182483
 30
0.0
 10
221.3127008666888
 20
133.9372187434018
 30
0.0
 10
221.3127008666888
 20
133.9372187434018
 30
0.0
 10
221.3127008655222
 20
120.9372187466516
 30
0.0
 10
221.3127008655222
 20
120.9372187466516
 30
0.0
 10
221.3127008654972
 20
120.6610763718051
 30
0.0
 10
221.0888432404486
 20
120.4372187467963
 30
0.0
 10
220.8127008656021
 20
120.4372187468213
 30
0.0
 10
220.8127008656021
 20
120.4372187468213
 30
0.0
 10
207.8127008688512
 20
120.4372187479885
 30
0.0
 10
207.8127008688512
 20
120.4372187479885
 30
0.0
 10
207.5365584940054
 20
120.4372187480129
 30
0.0
 10
207.3127008689965
 20
120.6610763730622
 30
0.0
 10
207.3127008690222
 20
120.9372187479087
 30
0.0
 10
207.3127008690222
 20
120.9372187479087
 30
0.0
 10
207.3127008701895
 20
133.9372187446589
 30
0.0
 10
207.3127008701895
 20
133.9372187446589
 30
0.0
 10
207.3127008702138
 20
134.2133611195054
 30
0.0
 10
207.5365584952624
 20
134.437218744513
 30
0.0
 10
207.8127008701089
 20
134.4372187444892
 30
0.0
  0
SPLINE
  5
8E
330
70
100
AcDbEntity
  8
0
 62
    18
420
        0
370
    25
100
AcDbSpline
210
0.0
220
0.0
230
1.0
 70
     9
 71
     3
 72
    29
 73
    25
 74
     0
 42
0.0000000001
 43
0.0000000001
 40
0.0
 40
0.0
 40
0.0
 40
0.0
 40
1.0
 40
1.0
 40
1.0
 40
2.0
 40
2.0
 40
2.0
 40
3.0
 40
3.0
 40
3.0
 40
4.0
 40
4.0
 40
4.0
 40
5.0
 40
5.0
 40
5.0
 40
6.0
 40
6.0
 40
6.0
 40
7.0
 40
7.0
 40
7.0
 40
8.0
 40
8.0
 40
8.0
 40
8.0
 10
284.0119999347564
 20
115.3871798651952
 30
0.0
 10
284.0119999347564
 20
115.3871798651952
 30
0.0
 10
297.0119999315067
 20
115.3871798640276
 30
0.0
 10
297.0119999315067
 20
115.3871798640276
 30
0.0
 10
297.2881423063538
 20
115.3871798640026
 30
0.0
 10
297.511999931362
 20
115.1633222389543
 30
0.0
 10
297.5119999313376
 20
114.8871798641081
 30
0.0
 10
297.5119999313376
 20
114.8871798641081
 30
0.0
 10
297.5119999301697
 20
101.8871798673576
 30
0.0
 10
297.5119999301697
 20
101.8871798673576
 30
0.0
 10
297.5119999301453
 20
101.6110374925111
 30
0.0
 10
297.2881423050962
 20
101.3871798675026
 30
0.0
 10
297.0119999302503
 20
101.3871798675276
 30
0.0
 10
297.0119999302503
 20
101.3871798675276
 30
0.0
 10
284.0119999335
 20
101.3871798686945
 30
0.0
 10
284.0119999335
 20
101.3871798686945
 30
0.0
 10
283.7358575586542
 20
101.3871798687196
 30
0.0
 10
283.5119999336447
 20
101.6110374937682
 30
0.0
 10
283.5119999336704
 20
101.8871798686147
 30
0.0
 10
283.5119999336704
 20
101.8871798686147
 30
0.0
 10
283.511999934837
 20
114.8871798653649
 30
0.0
 10
283.511999934837
 20
114.8871798653649
 30
0.0
 10
283.5119999348626
 20
115.1633222402114
 30
0.0
 10
283.7358575599106
 20
115.3871798652202
 30
0.0
 10
284.0119999347564
 20
115.3871798651952
 30
0.0
  0
SPLINE
  5
8F
330
70
100
AcDbEntity
  8
0
 62
    18
420
        0
370
    25
100
AcDbSpline
210
0.0
220
0.0
230
1.0
 70
     9
 71
     3
 72
    29
 73
    25
 74
     0
 42
0.0000000001
 43
0.0000000001
 40
0.0
 40
0.0
 40
0.0
 40
0.0
 40
1.0
 40
1.0
 40
1.0
 40
2.0
 40
2.0
 40
2.0
 40
3.0
 40
3.0
 40
3.0
 40
4.0
 40
4.0
 40
4.0
 40
5.0
 40
5.0
 40
5.0
 40
6.0
 40
6.0
 40
6.0
 40
7.0
 40
7.0
 40
7.0
 40
8.0
 40
8.0
 40
8.0
 40
8.0
 10
264.9619999347562
 20
115.387179866906
 30
0.0
 10
264.9619999347562
 20
115.387179866906
 30
0.0
 10
277.9619999315065
 20
115.387179865739
 30
0.0
 10
277.9619999315065
 20
115.387179865739
 30
0.0
 10
278.2381423063537
 20
115.3871798657137
 30
0.0
 10
278.4619999313619
 20
115.1633222406651
 30
0.0
 10
278.4619999313374
 20
114.8871798658186
 30
0.0
 10
278.4619999313374
 20
114.8871798658186
 30
0.0
 10
278.4619999301696
 20
101.8871798690683
 30
0.0
 10
278.4619999301696
 20
101.8871798690683
 30
0.0
 10
278.4619999301451
 20
101.6110374942218
 30
0.0
 10
278.238142305096
 20
101.387179869213
 30
0.0
 10
277.9619999302501
 20
101.3871798692381
 30
0.0
 10
277.9619999302501
 20
101.3871798692381
 30
0.0
 10
264.9619999334998
 20
101.3871798704053
 30
0.0
 10
264.9619999334998
 20
101.3871798704053
 30
0.0
 10
264.685857558654
 20
101.3871798704297
 30
0.0
 10
264.4619999336445
 20
101.6110374954789
 30
0.0
 10
264.4619999336702
 20
101.8871798703254
 30
0.0
 10
264.4619999336702
 20
101.8871798703254
 30
0.0
 10
264.4619999348368
 20
114.8871798670757
 30
0.0
 10
264.4619999348368
 20
114.8871798670757
 30
0.0
 10
264.4619999348624
 20
115.1633222419225
 30
0.0
 10
264.6858575599104
 20
115.3871798669304
 30
0.0
 10
264.9619999347562
 20
115.387179866906
 30
0.0
  0
SPLINE
  5
90
330
70
100
AcDbEntity
  8
0
 62
    18
420
        0
370
    25
100
AcDbSpline
210
0.0
220
0.0
230
1.0
 70
     9
 71
     3
 72
    29
 73
    25
 74
     0
 42
0.0000000001
 43
0.0000000001
 40
0.0
 40
0.0
 40
0.0
 40
0.0
 40
1.0
 40
1.0
 40
1.0
 40
2.0
 40
2.0
 40
2.0
 40
3.0
 40
3.0
 40
3.0
 40
4.0
 40
4.0
 40
4.0
 40
5.0
 40
5.0
 40
5.0
 40
6.0
 40
6.0
 40
6.0
 40
7.0
 40
7.0
 40
7.0
 40
8.0
 40
8.0
 40
8.0
 40
8.0
 10
245.9116072076915
 20
115.3871798686161
 30
0.0
 10
245.9116072076915
 20
115.3871798686161
 30
0.0
 10
258.9116072044417
 20
115.3871798674489
 30
0.0
 10
258.9116072044417
 20
115.3871798674489
 30
0.0
 10
259.1877495792876
 20
115.3871798674245
 30
0.0
 10
259.411607204297
 20
115.1633222423752
 30
0.0
 10
259.4116072042714
 20
114.887179867529
 30
0.0
 10
259.4116072042714
 20
114.887179867529
 30
0.0
 10
259.4116072031048
 20
101.8871798707781
 30
0.0
 10
259.4116072031048
 20
101.8871798707781
 30
0.0
 10
259.4116072030791
 20
101.611037495932
 30
0.0
 10
259.1877495780311
 20
101.3871798709238
 30
0.0
 10
258.911607203184
 20
101.3871798709485
 30
0.0
 10
258.911607203184
 20
101.3871798709485
 30
0.0
 10
245.9116072064344
 20
101.3871798721154
 30
0.0
 10
245.9116072064344
 20
101.3871798721154
 30
0.0
 10
245.6354648315879
 20
101.3871798721405
 30
0.0
 10
245.4116072065791
 20
101.6110374971891
 30
0.0
 10
245.4116072066041
 20
101.8871798720356
 30
0.0
 10
245.4116072066041
 20
101.8871798720356
 30
0.0
 10
245.4116072077707
 20
114.8871798687858
 30
0.0
 10
245.4116072077707
 20
114.8871798687858
 30
0.0
 10
245.4116072077964
 20
115.1633222436323
 30
0.0
 10
245.635464832845
 20
115.3871798686411
 30
0.0
 10
245.9116072076915
 20
115.3871798686161
 30
0.0
  0
SPLINE
  5
91
330
70
100
AcDbEntity
  8
0
 62
    18
420
        0
370
    25
100
AcDbSpline
210
0.0
220
0.0
230
1.0
 70
     9
 71
     3
 72
    29
 73
    25
 74
     0
 42
0.0000000001
 43
0.0000000001
 40
0.0
 40
0.0
 40
0.0
 40
0.0
 40
1.0
 40
1.0
 40
1.0
 40
2.0
 40
2.0
 40
2.0
 40
3.0
 40
3.0
 40
3.0
 40
4.0
 40
4.0
 40
4.0
 40
5.0
 40
5.0
 40
5.0
 40
6.0
 40
6.0
 40
6.0
 40
7.0
 40
7.0
 40
7.0
 40
8.0
 40
8.0
 40
8.0
 40
8.0
 10
226.8619999347571
 20
115.3871798703269
 30
0.0
 10
226.8619999347571
 20
115.3871798703269
 30
0.0
 10
239.8619999315074
 20
115.3871798691593
 30
0.0
 10
239.8619999315074
 20
115.3871798691593
 30
0.0
 10
240.1381423063533
 20
115.3871798691346
 30
0.0
 10
240.3619999313627
 20
115.163322244086
 30
0.0
 10
240.3619999313377
 20
114.8871798692395
 30
0.0
 10
240.3619999313377
 20
114.8871798692395
 30
0.0
 10
240.3619999301705
 20
101.8871798724892
 30
0.0
 10
240.3619999301705
 20
101.8871798724892
 30
0.0
 10
240.3619999301454
 20
101.6110374976427
 30
0.0
 10
240.1381423050968
 20
101.3871798726339
 30
0.0
 10
239.8619999302503
 20
101.387179872659
 30
0.0
 10
239.8619999302503
 20
101.387179872659
 30
0.0
 10
226.8619999335001
 20
101.3871798738262
 30
0.0
 10
226.8619999335001
 20
101.3871798738262
 30
0.0
 10
226.5858575586542
 20
101.3871798738512
 30
0.0
 10
226.3619999336454
 20
101.6110374988998
 30
0.0
 10
226.3619999336704
 20
101.8871798737463
 30
0.0
 10
226.3619999336704
 20
101.8871798737463
 30
0.0
 10
226.3619999348377
 20
114.8871798704966
 30
0.0
 10
226.3619999348377
 20
114.8871798704966
 30
0.0
 10
226.3619999348621
 20
115.1633222453434
 30
0.0
 10
226.5858575599113
 20
115.3871798703519
 30
0.0
 10
226.8619999347571
 20
115.3871798703269
 30
0.0
  0
SPLINE
  5
92
330
70
100
AcDbEntity
  8
0
 62
    18
420
        0
370
    25
100
AcDbSpline
210
0.0
220
0.0
230
1.0
 70
     9
 71
     3
 72
    29
 73
    25
 74
     0
 42
0.0000000001
 43
0.0000000001
 40
0.0
 40
0.0
 40
0.0
 40
0.0
 40
1.0
 40
1.0
 40
1.0
 40
2.0
 40
2.0
 40
2.0
 40
3.0
 40
3.0
 40
3.0
 40
4.0
 40
4.0
 40
4.0
 40
5.0
 40
5.0
 40
5.0
 40
6.0
 40
6.0
 40
6.0
 40
7.0
 40
7.0
 40
7.0
 40
8.0
 40
8.0
 40
8.0
 40
8.0
 10
207.8122054069473
 20
115.3871798720377
 30
0.0
 10
207.8122054069473
 20
115.3871798720377
 30
0.0
 10
220.8122054036975
 20
115.3871798708704
 30
0.0
 10
220.8122054036975
 20
115.3871798708704
 30
0.0
 10
221.0883477785433
 20
115.3871798708454
 30
0.0
 10
221.3122054035528
 20
115.1633222457971
 30
0.0
 10
221.3122054035272
 20
114.8871798709503
 30
0.0
 10
221.3122054035272
 20
114.8871798709503
 30
0.0
 10
221.3122054023605
 20
101.8871798742
 30
0.0
 10
221.3122054023605
 20
101.8871798742
 30
0.0
 10
221.3122054023355
 20
101.6110374993535
 30
0.0
 10
221.0883477772869
 20
101.3871798743447
 30
0.0
 10
220.8122054024404
 20
101.3871798743697
 30
0.0
 10
220.8122054024404
 20
101.3871798743697
 30
0.0
 10
207.8122054056895
 20
101.387179875537
 30
0.0
 10
207.8122054056895
 20
101.387179875537
 30
0.0
 10
207.5360630308437
 20
101.3871798755614
 30
0.0
 10
207.3122054058349
 20
101.6110375006109
 30
0.0
 10
207.3122054058605
 20
101.8871798754571
 30
0.0
 10
207.3122054058605
 20
101.8871798754571
 30
0.0
 10
207.3122054070278
 20
114.8871798722074
 30
0.0
 10
207.3122054070278
 20
114.8871798722074
 30
0.0
 10
207.3122054070521
 20
115.1633222470535
 30
0.0
 10
207.5360630321008
 20
115.3871798720617
 30
0.0
 10
207.8122054069473
 20
115.3871798720377
 30
0.0
  0
SPLINE
  5
93
330
70
100
AcDbEntity
  8
0
 62
    18
420
        0
370
    25
100
AcDbSpline
210
0.0
220
0.0
230
1.0
 70
     9
 71
     3
 72
    29
 73
    25
 74
     0
 42
0.0000000001
 43
0.0000000001
 40
0.0
 40
0.0
 40
0.0
 40
0.0
 40
1.0
 40
1.0
 40
1.0
 40
2.0
 40
2.0
 40
2.0
 40
3.0
 40
3.0
 40
3.0
 40
4.0
 40
4.0
 40
4.0
 40
5.0
 40
5.0
 40
5.0
 40
6.0
 40
6.0
 40
6.0
 40
7.0
 40
7.0
 40
7.0
 40
8.0
 40
8.0
 40
8.0
 40
8.0
 10
179.2372990395171
 20
115.3871798686164
 30
0.0
 10
179.2372990395171
 20
115.3871798686164
 30
0.0
 10
192.2372990362673
 20
115.3871798674489
 30
0.0
 10
192.2372990362673
 20
115.3871798674489
 30
0.0
 10
192.5134414111145
 20
115.3871798674238
 30
0.0
 10
192.7372990361226
 20
115.1633222423755
 30
0.0
 10
192.7372990360982
 20
114.887179867529
 30
0.0
 10
192.7372990360982
 20
114.887179867529
 30
0.0
 10
192.7372990349303
 20
101.8871798707788
 30
0.0
 10
192.7372990349303
 20
101.8871798707788
 30
0.0
 10
192.737299034906
 20
101.6110374959323
 30
0.0
 10
192.5134414098567
 20
101.3871798709238
 30
0.0
 10
192.2372990350109
 20
101.3871798709485
 30
0.0
 10
192.2372990350109
 20
101.3871798709485
 30
0.0
 10
179.2372990382606
 20
101.3871798721158
 30
0.0
 10
179.2372990382606
 20
101.3871798721158
 30
0.0
 10
178.9611566634148
 20
101.3871798721408
 30
0.0
 10
178.7372990384053
 20
101.6110374971894
 30
0.0
 10
178.737299038431
 20
101.8871798720359
 30
0.0
 10
178.737299038431
 20
101.8871798720359
 30
0.0
 10
178.7372990395979
 20
114.8871798687861
 30
0.0
 10
178.7372990395979
 20
114.8871798687861
 30
0.0
 10
178.7372990396232
 20
115.1633222436326
 30
0.0
 10
178.9611566646712
 20
115.3871798686415
 30
0.0
 10
179.2372990395171
 20
115.3871798686164
 30
0.0
  0
SPLINE
  5
94
330
70
100
AcDbEntity
  8
0
 62
    18
420
        0
370
    25
100
AcDbSpline
210
0.0
220
0.0
230
1.0
 70
     9
 71
     3
 72
    29
 73
    25
 74
     0
 42
0.0000000001
 43
0.0000000001
 40
0.0
 40
0.0
 40
0.0
 40
0.0
 40
1.0
 40
1.0
 40
1.0
 40
2.0
 40
2.0
 40
2.0
 40
3.0
 40
3.0
 40
3.0
 40
4.0
 40
4.0
 40
4.0
 40
5.0
 40
5.0
 40
5.0
 40
6.0
 40
6.0
 40
6.0
 40
7.0
 40
7.0
 40
7.0
 40
8.0
 40
8.0
 40
8.0
 40
8.0
 10
160.1872990395169
 20
115.3871798703272
 30
0.0
 10
160.1872990395169
 20
115.3871798703272
 30
0.0
 10
173.1872990362671
 20
115.38717986916
 30
0.0
 10
173.1872990362671
 20
115.38717986916
 30
0.0
 10
173.4634414111142
 20
115.3871798691349
 30
0.0
 10
173.6872990361224
 20
115.1633222440863
 30
0.0
 10
173.6872990360974
 20
114.8871798692398
 30
0.0
 10
173.6872990360974
 20
114.8871798692398
 30
0.0
 10
173.6872990349302
 20
101.8871798724896
 30
0.0
 10
173.6872990349302
 20
101.8871798724896
 30
0.0
 10
173.6872990349058
 20
101.6110374976431
 30
0.0
 10
173.4634414098565
 20
101.3871798726343
 30
0.0
 10
173.1872990350107
 20
101.3871798726593
 30
0.0
 10
173.1872990350107
 20
101.3871798726593
 30
0.0
 10
160.1872990382598
 20
101.3871798738265
 30
0.0
 10
160.1872990382598
 20
101.3871798738265
 30
0.0
 10
159.9111566634146
 20
101.3871798738509
 30
0.0
 10
159.6872990384051
 20
101.6110374989002
 30
0.0
 10
159.6872990384308
 20
101.8871798737467
 30
0.0
 10
159.6872990384308
 20
101.8871798737467
 30
0.0
 10
159.6872990395974
 20
114.8871798704969
 30
0.0
 10
159.6872990395974
 20
114.8871798704969
 30
0.0
 10
159.687299039623
 20
115.1633222453434
 30
0.0
 10
159.911156664671
 20
115.3871798703516
 30
0.0
 10
160.1872990395169
 20
115.3871798703272
 30
0.0
  0
SPLINE
  5
95
330
70
100
AcDbEntity
  8
0
 62
    18
420
        0
370
    25
100
AcDbSpline
210
0.0
220
0.0
230
1.0
 70
     9
 71
     3
 72
    29
 73
    25
 74
     0
 42
0.0000000001
 43
0.0000000001
 40
0.0
 40
0.0
 40
0.0
 40
0.0
 40
1.0
 40
1.0
 40
1.0
 40
2.0
 40
2.0
 40
2.0
 40
3.0
 40
3.0
 40
3.0
 40
4.0
 40
4.0
 40
4.0
 40
5.0
 40
5.0
 40
5.0
 40
6.0
 40
6.0
 40
6.0
 40
7.0
 40
7.0
 40
7.0
 40
8.0
 40
8.0
 40
8.0
 40
8.0
 10
141.1369063124517
 20
115.3871798720373
 30
0.0
 10
141.1369063124517
 20
115.3871798720373
 30
0.0
 10
154.1369063092017
 20
115.3871798708701
 30
0.0
 10
154.1369063092017
 20
115.3871798708701
 30
0.0
 10
154.4130486840482
 20
115.3871798708457
 30
0.0
 10
154.6369063090576
 20
115.1633222457964
 30
0.0
 10
154.636906309032
 20
114.8871798709503
 30
0.0
 10
154.636906309032
 20
114.8871798709503
 30
0.0
 10
154.6369063078654
 20
101.8871798741997
 30
0.0
 10
154.6369063078654
 20
101.8871798741997
 30
0.0
 10
154.6369063078397
 20
101.6110374993532
 30
0.0
 10
154.4130486827911
 20
101.387179874345
 30
0.0
 10
154.1369063079446
 20
101.3871798743694
 30
0.0
 10
154.1369063079446
 20
101.3871798743694
 30
0.0
 10
141.1369063111947
 20
101.3871798755367
 30
0.0
 10
141.1369063111947
 20
101.3871798755367
 30
0.0
 10
140.8607639363485
 20
101.3871798755617
 30
0.0
 10
140.6369063113394
 20
101.6110375006103
 30
0.0
 10
140.6369063113644
 20
101.8871798754568
 30
0.0
 10
140.6369063113644
 20
101.8871798754568
 30
0.0
 10
140.6369063125313
 20
114.887179872207
 30
0.0
 10
140.6369063125313
 20
114.887179872207
 30
0.0
 10
140.6369063125566
 20
115.1633222470535
 30
0.0
 10
140.8607639376052
 20
115.3871798720623
 30
0.0
 10
141.1369063124517
 20
115.3871798720373
 30
0.0
  0
SPLINE
  5
96
330
70
100
AcDbEntity
  8
0
 62
    18
420
        0
370
    25
100
AcDbSpline
210
0.0
220
0.0
230
1.0
 70
     9
 71
     3
 72
    29
 73
    25
 74
     0
 42
0.0000000001
 43
0.0000000001
 40
0.0
 40
0.0
 40
0.0
 40
0.0
 40
1.0
 40
1.0
 40
1.0
 40
2.0
 40
2.0
 40
2.0
 40
3.0
 40
3.0
 40
3.0
 40
4.0
 40
4.0
 40
4.0
 40
5.0
 40
5.0
 40
5.0
 40
6.0
 40
6.0
 40
6.0
 40
7.0
 40
7.0
 40
7.0
 40
8.0
 40
8.0
 40
8.0
 40
8.0
 10
122.0872990395174
 20
115.3871798737481
 30
0.0
 10
122.0872990395174
 20
115.3871798737481
 30
0.0
 10
135.087299036268
 20
115.3871798725805
 30
0.0
 10
135.087299036268
 20
115.3871798725805
 30
0.0
 10
135.3634414111139
 20
115.3871798725558
 30
0.0
 10
135.587299036123
 20
115.1633222475072
 30
0.0
 10
135.587299036098
 20
114.8871798726607
 30
0.0
 10
135.587299036098
 20
114.8871798726607
 30
0.0
 10
135.5872990349307
 20
101.8871798759105
 30
0.0
 10
135.5872990349307
 20
101.8871798759105
 30
0.0
 10
135.5872990349057
 20
101.611037501064
 30
0.0
 10
135.3634414098571
 20
101.3871798760551
 30
0.0
 10
135.0872990350106
 20
101.3871798760802
 30
0.0
 10
135.0872990350106
 20
101.3871798760802
 30
0.0
 10
122.0872990382604
 20
101.3871798772474
 30
0.0
 10
122.0872990382604
 20
101.3871798772474
 30
0.0
 10
121.8111566634145
 20
101.3871798772725
 30
0.0
 10
121.5872990384057
 20
101.611037502321
 30
0.0
 10
121.5872990384307
 20
101.8871798771675
 30
0.0
 10
121.5872990384307
 20
101.8871798771675
 30
0.0
 10
121.5872990395976
 20
114.8871798739178
 30
0.0
 10
121.5872990395976
 20
114.8871798739178
 30
0.0
 10
121.5872990396227
 20
115.1633222487643
 30
0.0
 10
121.8111566646713
 20
115.3871798737731
 30
0.0
 10
122.0872990395174
 20
115.3871798737481
 30
0.0
  0
SPLINE
  5
97
330
70
100
AcDbEntity
  8
0
 62
    18
420
        0
370
    25
100
AcDbSpline
210
0.0
220
0.0
230
1.0
 70
     9
 71
     3
 72
    29
 73
    25
 74
     0
 42
0.0000000001
 43
0.0000000001
 40
0.0
 40
0.0
 40
0.0
 40
0.0
 40
1.0
 40
1.0
 40
1.0
 40
2.0
 40
2.0
 40
2.0
 40
3.0
 40
3.0
 40
3.0
 40
4.0
 40
4.0
 40
4.0
 40
5.0
 40
5.0
 40
5.0
 40
6.0
 40
6.0
 40
6.0
 40
7.0
 40
7.0
 40
7.0
 40
8.0
 40
8.0
 40
8.0
 40
8.0
 10
103.0375045117075
 20
115.3871798754589
 30
0.0
 10
103.0375045117075
 20
115.3871798754589
 30
0.0
 10
116.0375045084578
 20
115.3871798742916
 30
0.0
 10
116.0375045084578
 20
115.3871798742916
 30
0.0
 10
116.3136468833037
 20
115.3871798742666
 30
0.0
 10
116.5375045083131
 20
115.1633222492183
 30
0.0
 10
116.5375045082878
 20
114.8871798743715
 30
0.0
 10
116.5375045082878
 20
114.8871798743715
 30
0.0
 10
116.5375045071208
 20
101.8871798776212
 30
0.0
 10
116.5375045071208
 20
101.8871798776212
 30
0.0
 10
116.5375045070958
 20
101.6110375027747
 30
0.0
 10
116.3136468820472
 20
101.3871798777659
 30
0.0
 10
116.0375045072007
 20
101.387179877791
 30
0.0
 10
116.0375045072007
 20
101.387179877791
 30
0.0
 10
103.0375045104498
 20
101.3871798789582
 30
0.0
 10
103.0375045104498
 20
101.3871798789582
 30
0.0
 10
102.761362135604
 20
101.3871798789826
 30
0.0
 10
102.5375045105952
 20
101.6110375040321
 30
0.0
 10
102.5375045106208
 20
101.8871798788783
 30
0.0
 10
102.5375045106208
 20
101.8871798788783
 30
0.0
 10
102.5375045117884
 20
114.8871798756286
 30
0.0
 10
102.5375045117884
 20
114.8871798756286
 30
0.0
 10
102.5375045118124
 20
115.1633222504748
 30
0.0
 10
102.761362136861
 20
115.3871798754829
 30
0.0
 10
103.0375045117075
 20
115.3871798754589
 30
0.0
  0
SPLINE
  5
98
330
70
100
AcDbEntity
  8
0
 62
    18
420
        0
370
    25
100
AcDbSpline
210
0.0
220
0.0
230
1.0
 70
     9
 71
     3
 72
    29
 73
    25
 74
     0
 42
0.0000000001
 43
0.0000000001
 40
0.0
 40
0.0
 40
0.0
 40
0.0
 40
1.0
 40
1.0
 40
1.0
 40
2.0
 40
2.0
 40
2.0
 40
3.0
 40
3.0
 40
3.0
 40
4.0
 40
4.0
 40
4.0
 40
5.0
 40
5.0
 40
5.0
 40
6.0
 40
6.0
 40
6.0
 40
7.0
 40
7.0
 40
7.0
 40
8.0
 40
8.0
 40
8.0
 40
8.0
 10
179.2372990395171
 20
96.33719931198614
 30
0.0
 10
179.2372990395171
 20
96.33719931198614
 30
0.0
 10
192.2372990362673
 20
96.33719931081889
 30
0.0
 10
192.2372990362673
 20
96.33719931081889
 30
0.0
 10
192.5134414111145
 20
96.33719931079323
 30
0.0
 10
192.7372990361226
 20
96.11334168574526
 30
0.0
 10
192.7372990360982
 20
95.83719931089877
 30
0.0
 10
192.7372990360982
 20
95.83719931089877
 30
0.0
 10
192.7372990349303
 20
82.8371993141485
 30
0.0
 10
192.7372990349303
 20
82.8371993141485
 30
0.0
 10
192.737299034906
 20
82.56105693930201
 30
0.0
 10
192.5134414098567
 20
82.3371993142932
 30
0.0
 10
192.2372990350109
 20
82.33719931431823
 30
0.0
 10
192.2372990350109
 20
82.33719931431823
 30
0.0
 10
179.2372990382606
 20
82.33719931548547
 30
0.0
 10
179.2372990382606
 20
82.33719931548547
 30
0.0
 10
178.9611566634148
 20
82.3371993155105
 30
0.0
 10
178.7372990384053
 20
82.56105694055911
 30
0.0
 10
178.737299038431
 20
82.83719931540559
 30
0.0
 10
178.737299038431
 20
82.83719931540559
 30
0.0
 10
178.7372990395979
 20
95.83719931215586
 30
0.0
 10
178.7372990395979
 20
95.83719931215586
 30
0.0
 10
178.7372990396232
 20
96.11334168700235
 30
0.0
 10
178.9611566646712
 20
96.33719931201117
 30
0.0
 10
179.2372990395171
 20
96.33719931198614
 30
0.0
  0
SPLINE
  5
99
330
70
100
AcDbEntity
  8
0
 62
    18
420
        0
370
    25
100
AcDbSpline
210
0.0
220
0.0
230
1.0
 70
     9
 71
     3
 72
    29
 73
    25
 74
     0
 42
0.0000000001
 43
0.0000000001
 40
0.0
 40
0.0
 40
0.0
 40
0.0
 40
1.0
 40
1.0
 40
1.0
 40
2.0
 40
2.0
 40
2.0
 40
3.0
 40
3.0
 40
3.0
 40
4.0
 40
4.0
 40
4.0
 40
5.0
 40
5.0
 40
5.0
 40
6.0
 40
6.0
 40
6.0
 40
7.0
 40
7.0
 40
7.0
 40
8.0
 40
8.0
 40
8.0
 40
8.0
 10
160.1872990395169
 20
96.33719931369691
 30
0.0
 10
160.1872990395169
 20
96.33719931369691
 30
0.0
 10
173.1872990362671
 20
96.33719931252967
 30
0.0
 10
173.1872990362671
 20
96.33719931252967
 30
0.0
 10
173.4634414111142
 20
96.33719931250464
 30
0.0
 10
173.6872990361224
 20
96.11334168745603
 30
0.0
 10
173.6872990360974
 20
95.83719931260954
 30
0.0
 10
173.6872990360974
 20
95.83719931260954
 30
0.0
 10
173.6872990349302
 20
82.83719931585928
 30
0.0
 10
173.6872990349302
 20
82.83719931585928
 30
0.0
 10
173.6872990349058
 20
82.56105694101279
 30
0.0
 10
173.4634414098565
 20
82.33719931600397
 30
0.0
 10
173.1872990350107
 20
82.337199316029
 30
0.0
 10
173.1872990350107
 20
82.337199316029
 30
0.0
 10
160.1872990382598
 20
82.33719931719624
 30
0.0
 10
160.1872990382598
 20
82.33719931719624
 30
0.0
 10
159.9111566634146
 20
82.33719931722061
 30
0.0
 10
159.6872990384051
 20
82.56105694226986
 30
0.0
 10
159.6872990384308
 20
82.83719931711637
 30
0.0
 10
159.6872990384308
 20
82.83719931711637
 30
0.0
 10
159.6872990395974
 20
95.83719931386662
 30
0.0
 10
159.6872990395974
 20
95.83719931386662
 30
0.0
 10
159.687299039623
 20
96.11334168871312
 30
0.0
 10
159.911156664671
 20
96.3371993137213
 30
0.0
 10
160.1872990395169
 20
96.33719931369691
 30
0.0
  0
SPLINE
  5
9A
330
70
100
AcDbEntity
  8
0
 62
    18
420
        0
370
    25
100
AcDbSpline
210
0.0
220
0.0
230
1.0
 70
     9
 71
     3
 72
    29
 73
    25
 74
     0
 42
0.0000000001
 43
0.0000000001
 40
0.0
 40
0.0
 40
0.0
 40
0.0
 40
1.0
 40
1.0
 40
1.0
 40
2.0
 40
2.0
 40
2.0
 40
3.0
 40
3.0
 40
3.0
 40
4.0
 40
4.0
 40
4.0
 40
5.0
 40
5.0
 40
5.0
 40
6.0
 40
6.0
 40
6.0
 40
7.0
 40
7.0
 40
7.0
 40
8.0
 40
8.0
 40
8.0
 40
8.0
 10
141.1369063124517
 20
96.33719931540703
 30
0.0
 10
141.1369063124517
 20
96.33719931540703
 30
0.0
 10
154.1369063092017
 20
96.3371993142398
 30
0.0
 10
154.1369063092017
 20
96.3371993142398
 30
0.0
 10
154.4130486840482
 20
96.33719931421541
 30
0.0
 10
154.6369063090576
 20
96.11334168916616
 30
0.0
 10
154.636906309032
 20
95.83719931431966
 30
0.0
 10
154.636906309032
 20
95.83719931431966
 30
0.0
 10
154.6369063078654
 20
82.83719931756941
 30
0.0
 10
154.6369063078654
 20
82.83719931756941
 30
0.0
 10
154.6369063078397
 20
82.56105694272291
 30
0.0
 10
154.4130486827911
 20
82.33719931771473
 30
0.0
 10
154.1369063079446
 20
82.33719931773912
 30
0.0
 10
154.1369063079446
 20
82.33719931773912
 30
0.0
 10
141.1369063111947
 20
82.33719931890638
 30
0.0
 10
141.1369063111947
 20
82.33719931890638
 30
0.0
 10
140.8607639363485
 20
82.33719931893139
 30
0.0
 10
140.6369063113394
 20
82.56105694398
 30
0.0
 10
140.6369063113644
 20
82.83719931882648
 30
0.0
 10
140.6369063113644
 20
82.83719931882648
 30
0.0
 10
140.6369063125313
 20
95.83719931557675
 30
0.0
 10
140.6369063125313
 20
95.83719931557675
 30
0.0
 10
140.6369063125566
 20
96.11334169042324
 30
0.0
 10
140.8607639376052
 20
96.33719931543208
 30
0.0
 10
141.1369063124517
 20
96.33719931540703
 30
0.0
  0
SPLINE
  5
9B
330
70
100
AcDbEntity
  8
0
 62
    18
420
        0
370
    25
100
AcDbSpline
210
0.0
220
0.0
230
1.0
 70
     9
 71
     3
 72
    29
 73
    25
 74
     0
 42
0.0000000001
 43
0.0000000001
 40
0.0
 40
0.0
 40
0.0
 40
0.0
 40
1.0
 40
1.0
 40
1.0
 40
2.0
 40
2.0
 40
2.0
 40
3.0
 40
3.0
 40
3.0
 40
4.0
 40
4.0
 40
4.0
 40
5.0
 40
5.0
 40
5.0
 40
6.0
 40
6.0
 40
6.0
 40
7.0
 40
7.0
 40
7.0
 40
8.0
 40
8.0
 40
8.0
 40
8.0
 10
122.0872990395174
 20
96.3371993171178
 30
0.0
 10
122.0872990395174
 20
96.3371993171178
 30
0.0
 10
135.087299036268
 20
96.33719931594992
 30
0.0
 10
135.087299036268
 20
96.33719931594992
 30
0.0
 10
135.3634414111139
 20
96.33719931592553
 30
0.0
 10
135.587299036123
 20
96.11334169087692
 30
0.0
 10
135.587299036098
 20
95.83719931603043
 30
0.0
 10
135.587299036098
 20
95.83719931603043
 30
0.0
 10
135.5872990349307
 20
82.83719931928017
 30
0.0
 10
135.5872990349307
 20
82.83719931928017
 30
0.0
 10
135.5872990349057
 20
82.56105694443368
 30
0.0
 10
135.3634414098571
 20
82.33719931942486
 30
0.0
 10
135.0872990350106
 20
82.33719931944989
 30
0.0
 10
135.0872990350106
 20
82.33719931944989
 30
0.0
 10
122.0872990382604
 20
82.33719932061715
 30
0.0
 10
122.0872990382604
 20
82.33719932061715
 30
0.0
 10
121.8111566634145
 20
82.33719932064216
 30
0.0
 10
121.5872990384057
 20
82.56105694569077
 30
0.0
 10
121.5872990384307
 20
82.83719932053726
 30
0.0
 10
121.5872990384307
 20
82.83719932053726
 30
0.0
 10
121.5872990395976
 20
95.83719931728753
 30
0.0
 10
121.5872990395976
 20
95.83719931728753
 30
0.0
 10
121.5872990396227
 20
96.11334169213401
 30
0.0
 10
121.8111566646713
 20
96.33719931714283
 30
0.0
 10
122.0872990395174
 20
96.3371993171178
 30
0.0
  0
SPLINE
  5
9C
330
70
100
AcDbEntity
  8
0
 62
    18
420
        0
370
    25
100
AcDbSpline
210
0.0
220
0.0
230
1.0
 70
     9
 71
     3
 72
    29
 73
    25
 74
     0
 42
0.0000000001
 43
0.0000000001
 40
0.0
 40
0.0
 40
0.0
 40
0.0
 40
1.0
 40
1.0
 40
1.0
 40
2.0
 40
2.0
 40
2.0
 40
3.0
 40
3.0
 40
3.0
 40
4.0
 40
4.0
 40
4.0
 40
5.0
 40
5.0
 40
5.0
 40
6.0
 40
6.0
 40
6.0
 40
7.0
 40
7.0
 40
7.0
 40
8.0
 40
8.0
 40
8.0
 40
8.0
 10
103.0375045117075
 20
96.33719931882858
 30
0.0
 10
103.0375045117075
 20
96.33719931882858
 30
0.0
 10
116.0375045084578
 20
96.33719931766133
 30
0.0
 10
116.0375045084578
 20
96.33719931766133
 30
0.0
 10
116.3136468833037
 20
96.3371993176363
 30
0.0
 10
116.5375045083131
 20
96.11334169258769
 30
0.0
 10
116.5375045082878
 20
95.83719931774121
 30
0.0
 10
116.5375045082878
 20
95.83719931774121
 30
0.0
 10
116.5375045071208
 20
82.83719932099094
 30
0.0
 10
116.5375045071208
 20
82.83719932099094
 30
0.0
 10
116.5375045070958
 20
82.56105694614445
 30
0.0
 10
116.3136468820472
 20
82.33719932113563
 30
0.0
 10
116.0375045072007
 20
82.33719932116066
 30
0.0
 10
116.0375045072007
 20
82.33719932116066
 30
0.0
 10
103.0375045104498
 20
82.33719932232792
 30
0.0
 10
103.0375045104498
 20
82.33719932232792
 30
0.0
 10
102.761362135604
 20
82.3371993223523
 30
0.0
 10
102.5375045105952
 20
82.56105694740154
 30
0.0
 10
102.5375045106208
 20
82.83719932224803
 30
0.0
 10
102.5375045106208
 20
82.83719932224803
 30
0.0
 10
102.5375045117884
 20
95.83719931899828
 30
0.0
 10
102.5375045117884
 20
95.83719931899828
 30
0.0
 10
102.5375045118124
 20
96.11334169384479
 30
0.0
 10
102.761362136861
 20
96.33719931885297
 30
0.0
 10
103.0375045117075
 20
96.33719931882858
 30
0.0
  0
SPLINE
  5
9D
330
70
100
AcDbEntity
  8
0
 62
    18
420
        0
370
    25
100
AcDbSpline
210
0.0
220
0.0
230
1.0
 70
     9
 71
     3
 72
    29
 73
    25
 74
     0
 42
0.0000000001
 43
0.0000000001
 40
0.0
 40
0.0
 40
0.0
 40
0.0
 40
1.0
 40
1.0
 40
1.0
 40
2.0
 40
2.0
 40
2.0
 40
3.0
 40
3.0
 40
3.0
 40
4.0
 40
4.0
 40
4.0
 40
5.0
 40
5.0
 40
5.0
 40
6.0
 40
6.0
 40
6.0
 40
7.0
 40
7.0
 40
7.0
 40
8.0
 40
8.0
 40
8.0
 40
8.0
 10
284.0124953979188
 20
96.33719931540769
 30
0.0
 10
284.0124953979188
 20
96.33719931540769
 30
0.0
 10
297.012495394669
 20
96.33719931424044
 30
0.0
 10
297.012495394669
 20
96.33719931424044
 30
0.0
 10
297.2886377695162
 20
96.33719931421476
 30
0.0
 10
297.5124953945244
 20
96.1133416891668
 30
0.0
 10
297.5124953945
 20
95.8371993143203
 30
0.0
 10
297.5124953945
 20
95.8371993143203
 30
0.0
 10
297.5124953933321
 20
82.83719931757005
 30
0.0
 10
297.5124953933321
 20
82.83719931757005
 30
0.0
 10
297.5124953933077
 20
82.56105694272354
 30
0.0
 10
297.2886377682584
 20
82.33719931771473
 30
0.0
 10
297.0124953934126
 20
82.33719931773975
 30
0.0
 10
297.0124953934126
 20
82.33719931773975
 30
0.0
 10
284.0124953966623
 20
82.33719931890702
 30
0.0
 10
284.0124953966623
 20
82.33719931890702
 30
0.0
 10
283.7363530218165
 20
82.33719931893203
 30
0.0
 10
283.512495396807
 20
82.56105694398064
 30
0.0
 10
283.5124953968326
 20
82.83719931882714
 30
0.0
 10
283.5124953968326
 20
82.83719931882714
 30
0.0
 10
283.5124953979993
 20
95.83719931557739
 30
0.0
 10
283.5124953979993
 20
95.83719931557739
 30
0.0
 10
283.5124953980249
 20
96.1133416904239
 30
0.0
 10
283.7363530230729
 20
96.33719931543271
 30
0.0
 10
284.0124953979188
 20
96.33719931540769
 30
0.0
  0
SPLINE
  5
9E
330
70
100
AcDbEntity
  8
0
 62
    18
420
        0
370
    25
100
AcDbSpline
210
0.0
220
0.0
230
1.0
 70
     9
 71
     3
 72
    29
 73
    25
 74
     0
 42
0.0000000001
 43
0.0000000001
 40
0.0
 40
0.0
 40
0.0
 40
0.0
 40
1.0
 40
1.0
 40
1.0
 40
2.0
 40
2.0
 40
2.0
 40
3.0
 40
3.0
 40
3.0
 40
4.0
 40
4.0
 40
4.0
 40
5.0
 40
5.0
 40
5.0
 40
6.0
 40
6.0
 40
6.0
 40
7.0
 40
7.0
 40
7.0
 40
8.0
 40
8.0
 40
8.0
 40
8.0
 10
264.9624953979186
 20
96.33719931711844
 30
0.0
 10
264.9624953979186
 20
96.33719931711844
 30
0.0
 10
277.9624953946688
 20
96.3371993159512
 30
0.0
 10
277.9624953946688
 20
96.3371993159512
 30
0.0
 10
278.2386377695159
 20
96.33719931592617
 30
0.0
 10
278.4624953945241
 20
96.11334169087758
 30
0.0
 10
278.4624953944991
 20
95.83719931603107
 30
0.0
 10
278.4624953944991
 20
95.83719931603107
 30
0.0
 10
278.4624953933319
 20
82.83719931928082
 30
0.0
 10
278.4624953933319
 20
82.83719931928082
 30
0.0
 10
278.4624953933075
 20
82.56105694443432
 30
0.0
 10
278.2386377682582
 20
82.3371993194255
 30
0.0
 10
277.9624953934124
 20
82.33719931945053
 30
0.0
 10
277.9624953934124
 20
82.33719931945053
 30
0.0
 10
264.9624953966615
 20
82.33719932061779
 30
0.0
 10
264.9624953966615
 20
82.33719932061779
 30
0.0
 10
264.6863530218163
 20
82.33719932064216
 30
0.0
 10
264.4624953968068
 20
82.56105694569141
 30
0.0
 10
264.4624953968325
 20
82.8371993205379
 30
0.0
 10
264.4624953968325
 20
82.8371993205379
 30
0.0
 10
264.4624953979991
 20
95.83719931728817
 30
0.0
 10
264.4624953979991
 20
95.83719931728817
 30
0.0
 10
264.4624953980247
 20
96.11334169213465
 30
0.0
 10
264.6863530230727
 20
96.33719931714283
 30
0.0
 10
264.9624953979186
 20
96.33719931711844
 30
0.0
  0
SPLINE
  5
9F
330
70
100
AcDbEntity
  8
0
 62
    18
420
        0
370
    25
100
AcDbSpline
210
0.0
220
0.0
230
1.0
 70
     9
 71
     3
 72
    29
 73
    25
 74
     0
 42
0.0000000001
 43
0.0000000001
 40
0.0
 40
0.0
 40
0.0
 40
0.0
 40
1.0
 40
1.0
 40
1.0
 40
2.0
 40
2.0
 40
2.0
 40
3.0
 40
3.0
 40
3.0
 40
4.0
 40
4.0
 40
4.0
 40
5.0
 40
5.0
 40
5.0
 40
6.0
 40
6.0
 40
6.0
 40
7.0
 40
7.0
 40
7.0
 40
8.0
 40
8.0
 40
8.0
 40
8.0
 10
245.9121026708531
 20
96.33719931882858
 30
0.0
 10
245.9121026708531
 20
96.33719931882858
 30
0.0
 10
258.9121026676034
 20
96.33719931766133
 30
0.0
 10
258.9121026676034
 20
96.33719931766133
 30
0.0
 10
259.1882450424499
 20
96.33719931763694
 30
0.0
 10
259.4121026674593
 20
96.11334169258769
 30
0.0
 10
259.4121026674336
 20
95.83719931774121
 30
0.0
 10
259.4121026674336
 20
95.83719931774121
 30
0.0
 10
259.4121026662671
 20
82.83719932099094
 30
0.0
 10
259.4121026662671
 20
82.83719932099094
 30
0.0
 10
259.4121026662414
 20
82.56105694614445
 30
0.0
 10
259.1882450411928
 20
82.33719932113627
 30
0.0
 10
258.9121026663463
 20
82.33719932116066
 30
0.0
 10
258.9121026663463
 20
82.33719932116066
 30
0.0
 10
245.9121026695967
 20
82.33719932232792
 30
0.0
 10
245.9121026695967
 20
82.33719932232792
 30
0.0
 10
245.6359602947496
 20
82.33719932235294
 30
0.0
 10
245.4121026697414
 20
82.56105694740154
 30
0.0
 10
245.4121026697658
 20
82.83719932224803
 30
0.0
 10
245.4121026697658
 20
82.83719932224803
 30
0.0
 10
245.412102670933
 20
95.83719931899828
 30
0.0
 10
245.412102670933
 20
95.83719931899828
 30
0.0
 10
245.412102670958
 20
96.11334169384479
 30
0.0
 10
245.6359602960073
 20
96.33719931885361
 30
0.0
 10
245.9121026708531
 20
96.33719931882858
 30
0.0
  0
SPLINE
  5
A0
330
70
100
AcDbEntity
  8
0
 62
    18
420
        0
370
    25
100
AcDbSpline
210
0.0
220
0.0
230
1.0
 70
     9
 71
     3
 72
    29
 73
    25
 74
     0
 42
0.0000000001
 43
0.0000000001
 40
0.0
 40
0.0
 40
0.0
 40
0.0
 40
1.0
 40
1.0
 40
1.0
 40
2.0
 40
2.0
 40
2.0
 40
3.0
 40
3.0
 40
3.0
 40
4.0
 40
4.0
 40
4.0
 40
5.0
 40
5.0
 40
5.0
 40
6.0
 40
6.0
 40
6.0
 40
7.0
 40
7.0
 40
7.0
 40
8.0
 40
8.0
 40
8.0
 40
8.0
 10
226.8624953979188
 20
96.33719932053935
 30
0.0
 10
226.8624953979188
 20
96.33719932053935
 30
0.0
 10
239.8624953946691
 20
96.33719931937147
 30
0.0
 10
239.8624953946691
 20
96.33719931937147
 30
0.0
 10
240.1386377695156
 20
96.33719931934708
 30
0.0
 10
240.3624953945244
 20
96.11334169429847
 30
0.0
 10
240.3624953945
 20
95.83719931945196
 30
0.0
 10
240.3624953945
 20
95.83719931945196
 30
0.0
 10
240.3624953933321
 20
82.83719932270171
 30
0.0
 10
240.3624953933321
 20
82.83719932270171
 30
0.0
 10
240.3624953933078
 20
82.56105694785523
 30
0.0
 10
240.1386377682585
 20
82.33719932284641
 30
0.0
 10
239.8624953934127
 20
82.33719932287142
 30
0.0
 10
239.8624953934127
 20
82.33719932287142
 30
0.0
 10
226.8624953966624
 20
82.33719932403868
 30
0.0
 10
226.8624953966624
 20
82.33719932403868
 30
0.0
 10
226.5863530218165
 20
82.33719932406371
 30
0.0
 10
226.3624953968071
 20
82.56105694911232
 30
0.0
 10
226.3624953968327
 20
82.83719932395881
 30
0.0
 10
226.3624953968327
 20
82.83719932395881
 30
0.0
 10
226.3624953979994
 20
95.83719932070906
 30
0.0
 10
226.3624953979994
 20
95.83719932070906
 30
0.0
 10
226.3624953980244
 20
96.11334169555556
 30
0.0
 10
226.586353023073
 20
96.33719932056438
 30
0.0
 10
226.8624953979188
 20
96.33719932053935
 30
0.0
  0
SPLINE
  5
A1
330
70
100
AcDbEntity
  8
0
 62
    18
420
        0
370
    25
100
AcDbSpline
210
0.0
220
0.0
230
1.0
 70
     9
 71
     3
 72
    29
 73
    25
 74
     0
 42
0.0000000001
 43
0.0000000001
 40
0.0
 40
0.0
 40
0.0
 40
0.0
 40
1.0
 40
1.0
 40
1.0
 40
2.0
 40
2.0
 40
2.0
 40
3.0
 40
3.0
 40
3.0
 40
4.0
 40
4.0
 40
4.0
 40
5.0
 40
5.0
 40
5.0
 40
6.0
 40
6.0
 40
6.0
 40
7.0
 40
7.0
 40
7.0
 40
8.0
 40
8.0
 40
8.0
 40
8.0
 10
207.8127008701089
 20
96.33719932225012
 30
0.0
 10
207.8127008701089
 20
96.33719932225012
 30
0.0
 10
220.8127008668592
 20
96.33719932108286
 30
0.0
 10
220.8127008668592
 20
96.33719932108286
 30
0.0
 10
221.088843241705
 20
96.33719932105783
 30
0.0
 10
221.3127008667145
 20
96.11334169600924
 30
0.0
 10
221.3127008666888
 20
95.83719932116274
 30
0.0
 10
221.3127008666888
 20
95.83719932116274
 30
0.0
 10
221.3127008655222
 20
82.83719932441249
 30
0.0
 10
221.3127008655222
 20
82.83719932441249
 30
0.0
 10
221.3127008654979
 20
82.561056949566
 30
0.0
 10
221.0888432404486
 20
82.33719932455718
 30
0.0
 10
220.8127008656028
 20
82.33719932458219
 30
0.0
 10
220.8127008656028
 20
82.33719932458219
 30
0.0
 10
207.8127008688512
 20
82.33719932574945
 30
0.0
 10
207.8127008688512
 20
82.33719932574945
 30
0.0
 10
207.5365584940054
 20
82.33719932577384
 30
0.0
 10
207.3127008689972
 20
82.56105695082309
 30
0.0
 10
207.3127008690228
 20
82.83719932566958
 30
0.0
 10
207.3127008690228
 20
82.83719932566958
 30
0.0
 10
207.3127008701895
 20
95.83719932241983
 30
0.0
 10
207.3127008701895
 20
95.83719932241983
 30
0.0
 10
207.3127008702138
 20
96.11334169726632
 30
0.0
 10
207.5365584952631
 20
96.3371993222745
 30
0.0
 10
207.8127008701089
 20
96.33719932225012
 30
0.0
  0
SPLINE
  5
A2
330
70
100
AcDbEntity
  8
0
 62
    18
420
        0
370
    25
100
AcDbSpline
210
0.0
220
0.0
230
1.0
 70
     9
 71
     3
 72
    29
 73
    25
 74
     0
 42
0.0000000001
 43
0.0000000001
 40
0.0
 40
0.0
 40
0.0
 40
0.0
 40
1.0
 40
1.0
 40
1.0
 40
2.0
 40
2.0
 40
2.0
 40
3.0
 40
3.0
 40
3.0
 40
4.0
 40
4.0
 40
4.0
 40
5.0
 40
5.0
 40
5.0
 40
6.0
 40
6.0
 40
6.0
 40
7.0
 40
7.0
 40
7.0
 40
8.0
 40
8.0
 40
8.0
 40
8.0
 10
161.2656666297316
 20
63.28681442746684
 30
0.0
 10
161.2656666297316
 20
63.28681442746684
 30
0.0
 10
122.0716666395297
 20
63.28681442746684
 30
0.0
 10
122.0716666395297
 20
63.28681442746684
 30
0.0
 10
121.7955242646835
 20
63.28681442746684
 30
0.0
 10
121.5716666396548
 20
63.51067205249554
 30
0.0
 10
121.5716666396548
 20
63.78681442734205
 30
0.0
 10
121.5716666396548
 20
63.78681442734205
 30
0.0
 10
121.5716666396548
 20
76.7868144240923
 30
0.0
 10
121.5716666396548
 20
76.7868144240923
 30
0.0
 10
121.5716666396548
 20
77.06295679893878
 30
0.0
 10
121.7955242646835
 20
77.2868144239675
 30
0.0
 10
122.0716666395297
 20
77.2868144239675
 30
0.0
 10
122.0716666395297
 20
77.2868144239675
 30
0.0
 10
161.2656666297316
 20
77.2868144239675
 30
0.0
 10
161.2656666297316
 20
77.2868144239675
 30
0.0
 10
161.5418090045777
 20
77.2868144239675
 30
0.0
 10
161.7656666296065
 20
77.06295679893878
 30
0.0
 10
161.7656666296065
 20
76.7868144240923
 30
0.0
 10
161.7656666296065
 20
76.7868144240923
 30
0.0
 10
161.7656666296065
 20
63.78681442734205
 30
0.0
 10
161.7656666296065
 20
63.78681442734205
 30
0.0
 10
161.7656666296065
 20
63.51067205249554
 30
0.0
 10
161.5418090045777
 20
63.28681442746684
 30
0.0
 10
161.2656666297316
 20
63.28681442746684
 30
0.0
  0
SPLINE
  5
A3
330
70
100
AcDbEntity
  8
0
 62
    18
420
        0
370
    25
100
AcDbSpline
210
0.0
220
0.0
230
1.0
 70
     9
 71
     3
 72
    29
 73
    25
 74
     0
 42
0.0000000001
 43
0.0000000001
 40
0.0
 40
0.0
 40
0.0
 40
0.0
 40
1.0
 40
1.0
 40
1.0
 40
2.0
 40
2.0
 40
2.0
 40
3.0
 40
3.0
 40
3.0
 40
4.0
 40
4.0
 40
4.0
 40
5.0
 40
5.0
 40
5.0
 40
6.0
 40
6.0
 40
6.0
 40
7.0
 40
7.0
 40
7.0
 40
8.0
 40
8.0
 40
8.0
 40
8.0
 10
118.4189999703952
 20
63.28718554091295
 30
0.0
 10
118.4189999703952
 20
63.28718554091295
 30
0.0
 10
103.0379999742404
 20
63.28718554091295
 30
0.0
 10
103.0379999742404
 20
63.28718554091295
 30
0.0
 10
102.7618575993942
 20
63.28718554091295
 30
0.0
 10
102.5379999743655
 20
63.51104316594167
 30
0.0
 10
102.5379999743655
 20
63.78718554078751
 30
0.0
 10
102.5379999743655
 20
63.78718554078751
 30
0.0
 10
102.5379999743655
 20
76.78718553753776
 30
0.0
 10
102.5379999743655
 20
76.78718553753776
 30
0.0
 10
102.5379999743655
 20
77.06332791238363
 30
0.0
 10
102.7618575993942
 20
77.28718553741234
 30
0.0
 10
103.0379999742404
 20
77.28718553741234
 30
0.0
 10
103.0379999742404
 20
77.28718553741234
 30
0.0
 10
118.4189999703952
 20
77.28718553741234
 30
0.0
 10
118.4189999703952
 20
77.28718553741234
 30
0.0
 10
118.6951423452414
 20
77.28718553741234
 30
0.0
 10
118.9189999702701
 20
77.06332791238363
 30
0.0
 10
118.9189999702701
 20
76.78718553753776
 30
0.0
 10
118.9189999702701
 20
76.78718553753776
 30
0.0
 10
118.9189999702701
 20
63.78718554078751
 30
0.0
 10
118.9189999702701
 20
63.78718554078751
 30
0.0
 10
118.9189999702701
 20
63.51104316594167
 30
0.0
 10
118.6951423452414
 20
63.28718554091295
 30
0.0
 10
118.4189999703952
 20
63.28718554091295
 30
0.0
  0
SPLINE
  5
A4
330
70
100
AcDbEntity
  8
0
 62
    18
420
        0
370
    25
100
AcDbSpline
210
0.0
220
0.0
230
1.0
 70
     8
 71
     3
 72
    14
 73
    10
 74
     0
 42
0.0000000001
 43
0.0000000001
 40
0.0
 40
0.0
 40
0.0
 40
0.0
 40
1.0
 40
1.0
 40
1.0
 40
2.0
 40
2.0
 40
2.0
 40
3.0
 40
3.0
 40
3.0
 40
3.0
 10
173.9749899577411
 20
59.02499998525527
 30
0.0
 10
173.9749899577411
 20
58.74885761040879
 30
0.0
 10
174.1988475827698
 20
58.52499998538007
 30
0.0
 10
174.4749899576157
 20
58.52499998538007
 30
0.0
 10
174.4749899576157
 20
58.52499998538007
 30
0.0
 10
206.5249899496031
 20
58.52499998538007
 30
0.0
 10
206.5249899496031
 20
58.52499998538007
 30
0.0
 10
206.801132324449
 20
58.52499998538007
 30
0.0
 10
207.0249899494777
 20
58.74885761040879
 30
0.0
 10
207.0249899494777
 20
59.02499998525527
 30
0.0
  0
SPLINE
  5
A5
330
70
100
AcDbEntity
  8
0
 62
    18
420
        0
370
    25
100
AcDbSpline
210
0.0
220
0.0
230
1.0
 70
     8
 71
     3
 72
    11
 73
     7
 74
     0
 42
0.0000000001
 43
0.0000000001
 40
0.0
 40
0.0
 40
0.0
 40
0.0
 40
1.0
 40
1.0
 40
1.0
 40
2.0
 40
2.0
 40
2.0
 40
2.0
 10
166.0369999584907
 20
74.52499998350559
 30
0.0
 10
165.7608575836445
 20
74.52499998350559
 30
0.0
 10
165.5369999586158
 20
74.30114235847688
 30
0.0
 10
165.5369999586158
 20
74.02499998363102
 30
0.0
 10
165.5369999586158
 20
74.02499998363102
 30
0.0
 10
165.5369999586158
 20
61.26250386379452
 30
0.0
 10
165.5369999586158
 20
61.26250386379452
 30
0.0
  0
SPLINE
  5
A6
330
70
100
AcDbEntity
  8
0
 62
    18
420
        0
370
    25
100
AcDbSpline
210
0.0
220
0.0
230
1.0
 70
     8
 71
     3
 72
     8
 73
     4
 74
     0
 42
0.0000000001
 43
0.0000000001
 40
0.0
 40
0.0
 40
0.0
 40
0.0
 40
1.0
 40
1.0
 40
1.0
 40
1.0
 10
188.9129999526014
 20
72.5249973264191
 30
0.0
 10
189.1891423275165
 20
72.52499732639407
 30
0.0
 10
189.4129999526216
 20
72.74885495145873
 30
0.0
 10
189.4129999526466
 20
73.02499732637388
 30
0.0
  0
SPLINE
  5
A7
330
70
100
AcDbEntity
  8
0
 62
    18
420
        0
370
    25
100
AcDbSpline
210
0.0
220
0.0
230
1.0
 70
     8
 71
     3
 72
    47
 73
    43
 74
     0
 42
0.0000000001
 43
0.0000000001
 40
0.0
 40
0.0
 40
0.0
 40
0.0
 40
1.0
 40
1.0
 40
1.0
 40
2.0
 40
2.0
 40
2.0
 40
3.0
 40
3.0
 40
3.0
 40
4.0
 40
4.0
 40
4.0
 40
5.0
 40
5.0
 40
5.0
 40
6.0
 40
6.0
 40
6.0
 40
7.0
 40
7.0
 40
7.0
 40
8.0
 40
8.0
 40
8.0
 40
9.0
 40
9.0
 40
9.0
 40
10.0
 40
10.0
 40
10.0
 40
11.0
 40
11.0
 40
11.0
 40
12.0
 40
12.0
 40
12.0
 40
13.0
 40
13.0
 40
13.0
 40
14.0
 40
14.0
 40
14.0
 40
14.0
 10
207.0249904635486
 20
59.02500003017357
 30
0.0
 10
207.0249904635858
 20
59.30114240508872
 30
0.0
 10
207.2488480887005
 20
59.52500003014311
 30
0.0
 10
207.5249904636156
 20
59.52500003010588
 30
0.0
 10
207.5249904636156
 20
59.52500003010588
 30
0.0
 10
210.1369849569904
 20
59.52499998725579
 30
0.0
 10
210.1369849569904
 20
59.52499998725579
 30
0.0
 10
210.4131273318376
 20
59.52499998725579
 30
0.0
 10
210.6369849568663
 20
59.7488576122845
 30
0.0
 10
210.6369849568663
 20
60.02499998713036
 30
0.0
 10
210.6369849568663
 20
60.02499998713036
 30
0.0
 10
210.6369849568663
 20
74.02499998363102
 30
0.0
 10
210.6369849568663
 20
74.02499998363102
 30
0.0
 10
210.6369849568663
 20
74.30114235847688
 30
0.0
 10
210.4131273318376
 20
74.52499998350559
 30
0.0
 10
210.1369849569904
 20
74.52499998350559
 30
0.0
 10
210.1369849569904
 20
74.52499998350559
 30
0.0
 10
204.1369849584905
 20
74.52499998350559
 30
0.0
 10
204.1369849584905
 20
74.52499998350559
 30
0.0
 10
203.8608425836447
 20
74.52499998350559
 30
0.0
 10
203.636984958616
 20
74.30114235847688
 30
0.0
 10
203.636984958616
 20
74.02499998363102
 30
0.0
 10
203.636984958616
 20
74.02499998363102
 30
0.0
 10
203.636984958616
 20
73.02499998183488
 30
0.0
 10
203.636984958616
 20
73.02499998183488
 30
0.0
 10
203.6369849585909
 20
72.74885760691971
 30
0.0
 10
203.4131273334859
 20
72.52499998185507
 30
0.0
 10
203.1369849585707
 20
72.5249999818801
 30
0.0
 10
203.1369849585707
 20
72.5249999818801
 30
0.0
 10
196.9129899568887
 20
72.5249973264082
 30
0.0
 10
196.9129899568887
 20
72.5249973264082
 30
0.0
 10
196.6368475819736
 20
72.52499732639535
 30
0.0
 10
196.4129899568785
 20
72.74885495147026
 30
0.0
 10
196.412989956866
 20
73.02499732638543
 30
0.0
 10
196.412989956866
 20
73.02499732638543
 30
0.0
 10
196.412989956866
 20
74.02499998363102
 30
0.0
 10
196.412989956866
 20
74.02499998363102
 30
0.0
 10
196.412989956866
 20
74.30114235847688
 30
0.0
 10
196.1891323318372
 20
74.52499998350559
 30
0.0
 10
195.9129899569914
 20
74.52499998350559
 30
0.0
 10
195.9129899569914
 20
74.52499998350559
 30
0.0
 10
189.9129899584915
 20
74.52499998350559
 30
0.0
 10
189.9129899584915
 20
74.52499998350559
 30
0.0
  0
SPLINE
  5
A8
330
70
100
AcDbEntity
  8
0
 62
    18
420
        0
370
    25
100
AcDbSpline
210
0.0
220
0.0
230
1.0
 70
     8
 71
     3
 72
     8
 73
     4
 74
     0
 42
0.0000000001
 43
0.0000000001
 40
0.0
 40
0.0
 40
0.0
 40
0.0
 40
1.0
 40
1.0
 40
1.0
 40
1.0
 10
228.9559999429542
 20
59.52500003010588
 30
0.0
 10
228.6798575680391
 20
59.52500003014311
 30
0.0
 10
228.4559999429237
 20
59.30114240508872
 30
0.0
 10
228.4559999428859
 20
59.02500003017357
 30
0.0
  0
SPLINE
  5
A9
330
70
100
AcDbEntity
  8
0
 62
    18
420
        0
370
    25
100
AcDbSpline
210
0.0
220
0.0
230
1.0
 70
     8
 71
     3
 72
    23
 73
    19
 74
     0
 42
0.0000000001
 43
0.0000000001
 40
0.0
 40
0.0
 40
0.0
 40
0.0
 40
1.0
 40
1.0
 40
1.0
 40
2.0
 40
2.0
 40
2.0
 40
3.0
 40
3.0
 40
3.0
 40
4.0
 40
4.0
 40
4.0
 40
5.0
 40
5.0
 40
5.0
 40
6.0
 40
6.0
 40
6.0
 40
6.0
 10
171.5452180640542
 20
56.00001290566247
 30
0.0
 10
171.5360617631955
 20
55.99998350163412
 30
0.0
 10
171.5269053699397
 20
56.00000428849911
 30
0.0
 10
171.5177492969662
 20
56.00007526532188
 30
0.0
 10
170.1339898662415
 20
56.01080200888582
 30
0.0
 10
169.0209269522078
 20
57.14125641047914
 30
0.0
 10
169.031653695773
 20
58.52501584120313
 30
0.0
 10
169.031653695773
 20
58.52501584120313
 30
0.0
 10
169.0315775555177
 20
59.02500003017357
 30
0.0
 10
169.0315775555177
 20
59.02500003017357
 30
0.0
 10
169.0315775555552
 20
59.30114240508872
 30
0.0
 10
169.2554351806702
 20
59.52500003014311
 30
0.0
 10
169.5315775555854
 20
59.52500003010588
 30
0.0
 10
169.5315775555854
 20
59.52500003010588
 30
0.0
 10
173.474999956461
 20
59.52500003011744
 30
0.0
 10
173.474999956461
 20
59.52500003011744
 30
0.0
 10
173.7511423313761
 20
59.52500003014247
 30
0.0
 10
173.9749999564809
 20
59.30114240507782
 30
0.0
 10
173.9749999565062
 20
59.02500003016266
 30
0.0
  0
ENDSEC
  0
SECTION
  2
OBJECTS
  0
DICTIONARY
  5
C
330
0
100
AcDbDictionary
281
     1
  3
ACAD_COLOR
350
63
  3
ACAD_DETAILVIEWSTYLE
350
6A
  3
ACAD_GROUP
350
D
  3
ACAD_LAYOUT
350
62
  3
ACAD_MATERIAL
350
10
  3
ACAD_MLEADERSTYLE
350
66
  3
ACAD_MLINESTYLE
350
5F
  3
ACAD_PLOTSETTINGS
350
61
  3
ACAD_PLOTSTYLENAME
350
E
  3
ACAD_SCALELIST
350
42
  3
ACAD_SECTIONVIEWSTYLE
350
68
  3
ACAD_TABLESTYLE
350
64
  3
ACAD_VISUALSTYLE
350
29
  3
ACDB_RECOMPOSE_DATA
350
B2
  3
AcDbVariableDictionary
350
AA
  0
DICTIONARY
  5
63
102
{ACAD_REACTORS
330
C
102
}
330
C
100
AcDbDictionary
281
     1
  0
DICTIONARY
  5
6A
102
{ACAD_REACTORS
330
C
102
}
330
C
100
AcDbDictionary
281
     1
  3
Imperial24
350
6B
  0
DICTIONARY
  5
D
102
{ACAD_REACTORS
330
C
102
}
330
C
100
AcDbDictionary
281
     1
  0
DICTIONARY
  5
62
102
{ACAD_REACTORS
330
C
102
}
330
C
100
AcDbDictionary
281
     1
  3
Layout1
350
6F
  3
Layout2
350
77
  3
Model
350
73
  0
DICTIONARY
  5
10
102
{ACAD_REACTORS
330
C
102
}
330
C
100
AcDbDictionary
281
     1
  3
ByBlock
350
19
  3
ByLayer
350
11
  3
Global
350
21
  0
DICTIONARY
  5
66
102
{ACAD_REACTORS
330
C
102
}
330
C
100
AcDbDictionary
281
     1
  3
Standard
350
67
  0
DICTIONARY
  5
5F
102
{ACAD_REACTORS
330
C
102
}
330
C
100
AcDbDictionary
281
     1
  3
Standard
350
60
  0
DICTIONARY
  5
61
102
{ACAD_REACTORS
330
C
102
}
330
C
100
AcDbDictionary
281
     1
  0
ACDBDICTIONARYWDFLT
  5
E
102
{ACAD_REACTORS
330
C
102
}
330
C
100
AcDbDictionary
281
     1
  3
Normal
350
F
100
AcDbDictionaryWithDefault
340
F
  0
DICTIONARY
  5
42
102
{ACAD_REACTORS
330
C
102
}
330
C
100
AcDbDictionary
281
     1
  3
A0
350
43
  3
A1
350
44
  3
A2
350
45
  3
A3
350
46
  3
A4
350
47
  3
A5
350
48
  3
A6
350
49
  3
A7
350
4A
  3
A8
350
4B
  3
A9
350
4C
  3
B0
350
4D
  3
B1
350
4E
  3
B2
350
4F
  3
B3
350
50
  3
B4
350
51
  3
B5
350
52
  3
B6
350
53
  0
DICTIONARY
  5
68
102
{ACAD_REACTORS
330
C
102
}
330
C
100
AcDbDictionary
281
     1
  3
Imperial24
350
69
  0
DICTIONARY
  5
64
102
{ACAD_REACTORS
330
C
102
}
330
C
100
AcDbDictionary
281
     1
  3
Standard
350
65
  0
DICTIONARY
  5
29
102
{ACAD_REACTORS
330
C
102
}
330
C
100
AcDbDictionary
281
     1
  3
2dWireframe
350
2F
  3
Basic
350
2E
  3
Brighten
350
35
  3
ColorChange
350
39
  3
Conceptual
350
32
  3
Dim
350
34
  3
EdgeColorOff
350
41
  3
Facepattern
350
38
  3
Flat
350
2A
  3
FlatWithEdges
350
2B
  3
Gouraud
350
2C
  3
GouraudWithEdges
350
2D
  3
Hidden
350
31
  3
JitterOff
350
3F
  3
Linepattern
350
37
  3
OverhangOff
350
40
  3
Realistic
350
33
  3
Shaded
350
3E
  3
Shaded with edges
350
3D
  3
Shades of Gray
350
3A
  3
Sketchy
350
3B
  3
Thicken
350
36
  3
Wireframe
350
30
  3
X-Ray
350
3C
  0
XRECORD
  5
B2
102
{ACAD_REACTORS
330
C
102
}
330
C
100
AcDbXrecord
280
     1
 90
        1
330
65
  0
DICTIONARY
  5
AA
102
{ACAD_REACTORS
330
C
102
}
330
C
100
AcDbDictionary
281
     1
  3
CANNOSCALE
350
AF
  3
CMLEADERSTYLE
350
AC
  3
CTABLESTYLE
350
AB
  3
CVIEWDETAILSTYLE
350
AD
  3
CVIEWSECTIONSTYLE
350
AE
  0
ACDBDETAILVIEWSTYLE
  5
6B
102
{ACAD_REACTORS
330
6A
102
}
330
6A
100
AcDbModelDocViewStyle
 70
     0
  3
Imperial24
290
     1
300
Imperial24
 90
        0
100
AcDbDetailViewStyle
 70
     0
 71
     0
 90
        3
 71
     1
340
55
 62
   256
 40
0.24
340
0
 62
   256
 40
0.24
300

 40
0.36
280
     3
 71
     2
340
5D
 90
       25
 62
   256
 71
     3
340
55
 62
   256
 40
0.24
 90
        1
 40
0.75
 90
        1
300
%<\AcVar ViewType \f "%tc1">% %<\AcVar ViewDetailId>%\PSCALE %<\AcVar ViewScale \f "%sn">%
 71
     4
340
5D
 90
       25
 62
   256
340
5D
 90
       25
 62
   256
280
     0
  0
LAYOUT
  5
6F
102
{ACAD_REACTORS
330
62
102
}
330
62
100
AcDbPlotSettings
  1

  2

  4

  6

 40
0.0
 41
0.0
 42
0.0
 43
0.0
 44
0.0
 45
0.0
 46
0.0
 47
0.0
 48
0.0
 49
0.0
140
0.0
141
0.0
142
1.0
143
1.0
 70
   688
 72
     0
 73
     0
 74
     5
  7

 75
    16
147
1.0
 76
     0
 77
     2
 78
   300
148
0.0
149
0.0
100
AcDbLayout
  1
Layout1
 70
     1
 71
     1
 10
0.0
 20
0.0
 11
12.0
 21
9.0
 12
0.0
 22
0.0
 32
0.0
 14
0.0
 24
0.0
 34
0.0
 15
0.0
 25
0.0
 35
0.0
146
0.0
 13
0.0
 23
0.0
 33
0.0
 16
1.0
 26
0.0
 36
0.0
 17
0.0
 27
1.0
 37
0.0
 76
     0
330
6C
  0
LAYOUT
  5
77
102
{ACAD_REACTORS
330
62
102
}
330
62
100
AcDbPlotSettings
  1

  2

  4

  6

 40
0.0
 41
0.0
 42
0.0
 43
0.0
 44
0.0
 45
0.0
 46
0.0
 47
0.0
 48
0.0
 49
0.0
140
0.0
141
0.0
142
1.0
143
1.0
 70
   688
 72
     0
 73
     0
 74
     5
  7

 75
    16
147
1.0
 76
     0
 77
     2
 78
   300
148
0.0
149
0.0
100
AcDbLayout
  1
Layout2
 70
     1
 71
     2
 10
0.0
 20
0.0
 11
12.0
 21
9.0
 12
0.0
 22
0.0
 32
0.0
 14
0.0
 24
0.0
 34
0.0
 15
0.0
 25
0.0
 35
0.0
146
0.0
 13
0.0
 23
0.0
 33
0.0
 16
1.0
 26
0.0
 36
0.0
 17
0.0
 27
1.0
 37
0.0
 76
     0
330
74
  0
LAYOUT
  5
73
102
{ACAD_REACTORS
330
62
102
}
330
62
100
AcDbPlotSettings
  1

  2

  4

  6

 40
0.0
 41
0.0
 42
0.0
 43
0.0
 44
0.0
 45
0.0
 46
0.0
 47
0.0
 48
0.0
 49
0.0
140
0.0
141
0.0
142
1.0
143
1.0
 70
  1712
 72
     0
 73
     0
 74
     0
  7

 75
     0
147
1.0
 76
     0
 77
     2
 78
   300
148
0.0
149
0.0
100
AcDbLayout
  1
Model
 70
     1
 71
     0
 10
0.0
 20
0.0
 11
12.0
 21
9.0
 12
0.0
 22
0.0
 32
0.0
 14
0.0
 24
0.0
 34
0.0
 15
0.0
 25
0.0
 35
0.0
146
0.0
 13
0.0
 23
0.0
 33
0.0
 16
1.0
 26
0.0
 36
0.0
 17
0.0
 27
1.0
 37
0.0
 76
     0
330
70
  0
MATERIAL
  5
19
102
{ACAD_XDICTIONARY
360
1A
102
}
102
{ACAD_REACTORS
330
10
102
}
330
10
100
AcDbMaterial
  1
ByBlock
 72
     0
 43
0.0208333333333333
 43
0.0
 43
0.0
 43
0.0
 43
0.0
 43
0.0208333333333333
 43
0.0
 43
0.0
 43
0.0
 43
0.0
 43
1.0
 43
0.0
 43
0.0
 43
0.0
 43
0.0
 43
1.0
 77
     0
 47
0.0208333333333333
 47
0.0
 47
0.0
 47
0.0
 47
0.0
 47
0.0208333333333333
 47
0.0
 47
0.0
 47
0.0
 47
0.0
 47
1.0
 47
0.0
 47
0.0
 47
0.0
 47
0.0
 47
1.0
171
     0
 49
0.0208333333333333
 49
0.0
 49
0.0
 49
0.0
 49
0.0
 49
0.0208333333333333
 49
0.0
 49
0.0
 49
0.0
 49
0.0
 49
1.0
 49
0.0
 49
0.0
 49
0.0
 49
0.0
 49
1.0
175
     0
142
0.0208333333333333
142
0.0
142
0.0
142
0.0
142
0.0
142
0.0208333333333333
142
0.0
142
0.0
142
0.0
142
0.0
142
1.0
142
0.0
142
0.0
142
0.0
142
0.0
142
1.0
179
     0
144
0.0208333333333333
144
0.0
144
0.0
144
0.0
144
0.0
144
0.0208333333333333
144
0.0
144
0.0
144
0.0
144
0.0
144
1.0
144
0.0
144
0.0
144
0.0
144
0.0
144
1.0
147
0.0208333333333333
147
0.0
147
0.0
147
0.0
147
0.0
147
0.0208333333333333
147
0.0
147
0.0
147
0.0
147
0.0
147
1.0
147
0.0
147
0.0
147
0.0
147
0.0
147
1.0
  0
MATERIAL
  5
11
102
{ACAD_XDICTIONARY
360
12
102
}
102
{ACAD_REACTORS
330
10
102
}
330
10
100
AcDbMaterial
  1
ByLayer
 72
     0
 43
0.0208333333333333
 43
0.0
 43
0.0
 43
0.0
 43
0.0
 43
0.0208333333333333
 43
0.0
 43
0.0
 43
0.0
 43
0.0
 43
1.0
 43
0.0
 43
0.0
 43
0.0
 43
0.0
 43
1.0
 77
     0
 47
0.0208333333333333
 47
0.0
 47
0.0
 47
0.0
 47
0.0
 47
0.0208333333333333
 47
0.0
 47
0.0
 47
0.0
 47
0.0
 47
1.0
 47
0.0
 47
0.0
 47
0.0
 47
0.0
 47
1.0
171
     0
 49
0.0208333333333333
 49
0.0
 49
0.0
 49
0.0
 49
0.0
 49
0.0208333333333333
 49
0.0
 49
0.0
 49
0.0
 49
0.0
 49
1.0
 49
0.0
 49
0.0
 49
0.0
 49
0.0
 49
1.0
175
     0
142
0.0208333333333333
142
0.0
142
0.0
142
0.0
142
0.0
142
0.0208333333333333
142
0.0
142
0.0
142
0.0
142
0.0
142
1.0
142
0.0
142
0.0
142
0.0
142
0.0
142
1.0
179
     0
144
0.0208333333333333
144
0.0
144
0.0
144
0.0
144
0.0
144
0.0208333333333333
144
0.0
144
0.0
144
0.0
144
0.0
144
1.0
144
0.0
144
0.0
144
0.0
144
0.0
144
1.0
147
0.0208333333333333
147
0.0
147
0.0
147
0.0
147
0.0
147
0.0208333333333333
147
0.0
147
0.0
147
0.0
147
0.0
147
1.0
147
0.0
147
0.0
147
0.0
147
0.0
147
1.0
  0
MATERIAL
  5
21
102
{ACAD_XDICTIONARY
360
22
102
}
102
{ACAD_REACTORS
330
10
102
}
330
10
100
AcDbMaterial
  1
Global
 72
     0
 43
0.0208333333333333
 43
0.0
 43
0.0
 43
0.0
 43
0.0
 43
0.0208333333333333
 43
0.0
 43
0.0
 43
0.0
 43
0.0
 43
1.0
 43
0.0
 43
0.0
 43
0.0
 43
0.0
 43
1.0
 77
     0
 47
0.0208333333333333
 47
0.0
 47
0.0
 47
0.0
 47
0.0
 47
0.0208333333333333
 47
0.0
 47
0.0
 47
0.0
 47
0.0
 47
1.0
 47
0.0
 47
0.0
 47
0.0
 47
0.0
 47
1.0
171
     0
 49
0.0208333333333333
 49
0.0
 49
0.0
 49
0.0
 49
0.0
 49
0.0208333333333333
 49
0.0
 49
0.0
 49
0.0
 49
0.0
 49
1.0
 49
0.0
 49
0.0
 49
0.0
 49
0.0
 49
1.0
175
     0
142
0.0208333333333333
142
0.0
142
0.0
142
0.0
142
0.0
142
0.0208333333333333
142
0.0
142
0.0
142
0.0
142
0.0
142
1.0
142
0.0
142
0.0
142
0.0
142
0.0
142
1.0
179
     0
144
0.0208333333333333
144
0.0
144
0.0
144
0.0
144
0.0
144
0.0208333333333333
144
0.0
144
0.0
144
0.0
144
0.0
144
1.0
144
0.0
144
0.0
144
0.0
144
0.0
144
1.0
147
0.0208333333333333
147
0.0
147
0.0
147
0.0
147
0.0
147
0.0208333333333333
147
0.0
147
0.0
147
0.0
147
0.0
147
1.0
147
0.0
147
0.0
147
0.0
147
0.0
147
1.0
  0
MLEADERSTYLE
  5
67
102
{ACAD_REACTORS
330
66
102
}
330
66
100
AcDbMLeaderStyle
179
     2
170
     2
171
     1
172
     0
 90
        2
 40
0.0
 41
0.0
173
     1
 91
-1056964608
340
5B
 92
       -2
290
     1
 42
0.09
291
     1
 43
0.36
  3
Standard
 44
0.18
300

342
55
174
     1
178
     6
175
     1
176
     0
 93
-1056964608
 45
0.18
292
     0
297
     0
 46
0.18
 94
-1056964608
 47
1.0
 49
1.0
140
1.0
293
     1
141
0.0
294
     1
177
     0
142
1.0
295
     1
296
     0
143
0.125
271
     0
272
     9
273
     9
298
     1
  0
MLINESTYLE
  5
60
102
{ACAD_REACTORS
330
5F
102
}
330
5F
100
AcDbMlineStyle
  2
STANDARD
 70
     0
  3

 62
   256
 51
90.0
 52
90.0
 71
     2
 49
0.5
 62
   256
  6
BYLAYER
 49
-0.5
 62
   256
  6
BYLAYER
  0
ACDBPLACEHOLDER
  5
F
102
{ACAD_REACTORS
330
E
102
}
330
E
  0
SCALE
  5
43
102
{ACAD_REACTORS
330
42
102
}
330
42
100
AcDbScale
 70
     0
300
1:1
140
1.0
141
1.0
290
     1
  0
SCALE
  5
44
102
{ACAD_REACTORS
330
42
102
}
330
42
100
AcDbScale
 70
     0
300
1/128" = 1'-0"
140
0.0078125
141
12.0
290
     0
  0
SCALE
  5
45
102
{ACAD_REACTORS
330
42
102
}
330
42
100
AcDbScale
 70
     0
300
1/64" = 1'-0"
140
0.015625
141
12.0
290
     0
  0
SCALE
  5
46
102
{ACAD_REACTORS
330
42
102
}
330
42
100
AcDbScale
 70
     0
300
1/32" = 1'-0"
140
0.03125
141
12.0
290
     0
  0
SCALE
  5
47
102
{ACAD_REACTORS
330
42
102
}
330
42
100
AcDbScale
 70
     0
300
1/16" = 1'-0"
140
0.0625
141
12.0
290
     0
  0
SCALE
  5
48
102
{ACAD_REACTORS
330
42
102
}
330
42
100
AcDbScale
 70
     0
300
3/32" = 1'-0"
140
0.09375
141
12.0
290
     0
  0
SCALE
  5
49
102
{ACAD_REACTORS
330
42
102
}
330
42
100
AcDbScale
 70
     0
300
1/8" = 1'-0"
140
0.125
141
12.0
290
     0
  0
SCALE
  5
4A
102
{ACAD_REACTORS
330
42
102
}
330
42
100
AcDbScale
 70
     0
300
3/16" = 1'-0"
140
0.1875
141
12.0
290
     0
  0
SCALE
  5
4B
102
{ACAD_REACTORS
330
42
102
}
330
42
100
AcDbScale
 70
     0
300
1/4" = 1'-0"
140
0.25
141
12.0
290
     0
  0
SCALE
  5
4C
102
{ACAD_REACTORS
330
42
102
}
330
42
100
AcDbScale
 70
     0
300
3/8" = 1'-0"
140
0.375
141
12.0
290
     0
  0
SCALE
  5
4D
102
{ACAD_REACTORS
330
42
102
}
330
42
100
AcDbScale
 70
     0
300
1/2" = 1'-0"
140
0.5
141
12.0
290
     0
  0
SCALE
  5
4E
102
{ACAD_REACTORS
330
42
102
}
330
42
100
AcDbScale
 70
     0
300
3/4" = 1'-0"
140
0.75
141
12.0
290
     0
  0
SCALE
  5
4F
102
{ACAD_REACTORS
330
42
102
}
330
42
100
AcDbScale
 70
     0
300
1" = 1'-0"
140
1.0
141
12.0
290
     0
  0
SCALE
  5
50
102
{ACAD_REACTORS
330
42
102
}
330
42
100
AcDbScale
 70
     0
300
1-1/2" = 1'-0"
140
1.5
141
12.0
290
     0
  0
SCALE
  5
51
102
{ACAD_REACTORS
330
42
102
}
330
42
100
AcDbScale
 70
     0
300
3" = 1'-0"
140
3.0
141
12.0
290
     0
  0
SCALE
  5
52
102
{ACAD_REACTORS
330
42
102
}
330
42
100
AcDbScale
 70
     0
300
6" = 1'-0"
140
6.0
141
12.0
290
     0
  0
SCALE
  5
53
102
{ACAD_REACTORS
330
42
102
}
330
42
100
AcDbScale
 70
     0
300
1'-0" = 1'-0"
140
12.0
141
12.0
290
     0
  0
ACDBSECTIONVIEWSTYLE
  5
69
102
{ACAD_REACTORS
330
68
102
}
330
68
100
AcDbModelDocViewStyle
 70
     0
  3
Imperial24
290
     1
300
Imperial24
 90
        0
100
AcDbSectionViewStyle
 70
     0
 71
     0
 90
       78
 71
     1
340
55
 62
   256
 40
0.24
340
0
340
0
 62
   256
 40
0.24
300
I, O, Q, S, X, Z
 40
0.48
 90
        3
 40
0.18
 90
        1
 71
     2
340
5D
 90
       25
 62
   256
340
5D
 90
       50
 62
   256
 40
0.24
 40
0.0
 40
0.24
 71
     3
340
55
 62
   256
 40
0.24
 90
        1
 40
0.75
 90
        1
300
%<\AcVar ViewType \f "%tc1">% %<\AcVar ViewSectionStartId>%-%<\AcVar ViewSectionEndId>%\PSCALE %<\AcVar ViewScale \f "%sn">%
 71
     4
 62
   256
 62
   257
300
ANSI31
 40
1.0
 90
        0
290
     0
290
     0
 90
        6
 40
0.0
 40
1.570796326794896
 40
0.2617993877991494
 40
1.308996938995747
 40
-0.2617993877991494
 40
1.832595714594046
  0
TABLESTYLE
  5
65
102
{ACAD_XDICTIONARY
360
B0
102
}
102
{ACAD_REACTORS
330
64
102
}
330
64
100
AcDbTableStyle
280
     0
  3
Standard
 70
     0
 71
     0
 40
0.06
 41
0.06
280
     0
281
     0
  7
Standard
140
0.18
170
     2
 62
     0
 63
     7
283
     0
 90
      512
 91
        0
  1

274
    -2
284
     1
 64
     0
275
    -2
285
     1
 65
     0
276
    -2
286
     1
 66
     0
277
    -2
287
     1
 67
     0
278
    -2
288
     1
 68
     0
279
    -2
289
     1
 69
     0
  7
Standard
140
0.25
170
     5
 62
     0
 63
     7
283
     0
 90
      512
 91
        0
  1

274
    -2
284
     1
 64
     0
275
    -2
285
     1
 65
     0
276
    -2
286
     1
 66
     0
277
    -2
287
     1
 67
     0
278
    -2
288
     1
 68
     0
279
    -2
289
     1
 69
     0
  7
Standard
140
0.18
170
     5
 62
     0
 63
     7
283
     0
 90
      512
 91
        0
  1

274
    -2
284
     1
 64
     0
275
    -2
285
     1
 65
     0
276
    -2
286
     1
 66
     0
277
    -2
287
     1
 67
     0
278
    -2
288
     1
 68
     0
279
    -2
289
     1
 69
     0
  0
VISUALSTYLE
  5
2F
102
{ACAD_REACTORS
330
29
102
}
330
29
100
AcDbVisualStyle
  2
2dWireframe
 70
     4
177
     3
291
     0
 70
    58
 90
        0
176
     1
 90
        2
176
     1
 90
        0
176
     1
 90
        0
176
     1
 40
0.6
176
     1
 40
30.0
176
     1
 62
     7
420
 16777215
176
     1
 90
        1
176
     1
 90
        4
176
     1
 62
     7
176
     1
 62
   257
176
     1
 90
        1
176
     1
 90
        1
176
     1
 40
1.0
176
     1
 90
        0
176
     1
 62
   257
176
     1
 40
1.0
176
     1
 90
        1
176
     1
 90
        6
176
     1
 90
        2
176
     1
 62
     7
176
     1
 90
        5
176
     1
 90
        0
176
     1
 90
        0
176
     1
290
     0
176
     1
 90
        1
176
     1
 40
0.0
176
     1
 90
        0
176
     1
290
     1
176
     1
290
     1
176
     1
290
     0
176
     1
290
     0
176
     1
290
     0
176
     1
290
     0
176
     1
290
     0
176
     1
290
     0
176
     1
290
     0
176
     1
 90
       50
176
     1
 40
0.0
176
     1
 40
1.0
176
     1
 90
        0
176
     1
 62
    18
420
        0
176
     1
 90
       50
176
     1
 90
        3
176
     1
 62
     5
420
      255
176
     1
290
     0
176
     1
 90
       50
176
     1
 90
       50
176
     1
 90
       50
176
     1
290
     0
176
     1
 90
       50
176
     1
 62
   256
176
     0
 40
1.0
176
     0
 90
        2
176
     1
  1
strokes_ogs.tif
176
     1
290
     0
176
     1
 40
1.0
176
     1
 40
1.0
176
     1
  0
VISUALSTYLE
  5
2E
102
{ACAD_REACTORS
330
29
102
}
330
29
100
AcDbVisualStyle
  2
Basic
 70
     7
177
     3
291
     1
 70
    58
 90
        1
176
     1
 90
        0
176
     1
 90
        1
176
     1
 90
        0
176
     1
 40
0.6
176
     1
 40
30.0
176
     1
 62
     7
420
 16777215
176
     1
 90
        0
176
     1
 90
        4
176
     1
 62
     7
176
     1
 62
   257
176
     1
 90
        1
176
     1
 90
        1
176
     1
 40
1.0
176
     1
 90
        8
176
     1
 62
     7
176
     1
 40
1.0
176
     1
 90
        1
176
     1
 90
        6
176
     1
 90
        2
176
     1
 62
     7
176
     1
 90
        5
176
     1
 90
        0
176
     1
 90
        0
176
     1
290
     0
176
     1
 90
        1
176
     1
 40
0.0
176
     1
 90
        0
176
     1
290
     0
176
     1
290
     1
176
     1
290
     1
176
     1
290
     0
176
     1
290
     0
176
     1
290
     0
176
     1
290
     0
176
     1
290
     0
176
     1
290
     0
176
     1
 90
       50
176
     1
 40
0.0
176
     1
 40
1.0
176
     1
 90
        0
176
     1
 62
    18
420
        0
176
     1
 90
       50
176
     1
 90
        3
176
     1
 62
     5
420
      255
176
     1
290
     0
176
     1
 90
       50
176
     1
 90
       50
176
     1
 90
       50
176
     1
290
     0
176
     1
 90
       50
176
     1
 62
   256
176
     0
 40
1.0
176
     0
 90
        2
176
     1
  1
strokes_ogs.tif
176
     1
290
     0
176
     1
 40
1.0
176
     1
 40
1.0
176
     1
  0
VISUALSTYLE
  5
35
102
{ACAD_REACTORS
330
29
102
}
330
29
100
AcDbVisualStyle
  2
Brighten
 70
    12
177
     3
291
     1
 70
    58
 90
        2
176
     1
 90
        2
176
     1
 90
        0
176
     1
 90
        0
176
     1
 40
0.6
176
     1
 40
30.0
176
     1
 62
     7
420
 16777215
176
     1
 90
        1
176
     1
 90
        4
176
     1
 62
     7
176
     1
 62
   257
176
     1
 90
        1
176
     1
 90
        1
176
     1
 40
1.0
176
     1
 90
        8
176
     1
 62
     7
176
     1
 40
1.0
176
     1
 90
        1
176
     1
 90
        6
176
     1
 90
        2
176
     1
 62
     7
176
     1
 90
        5
176
     1
 90
        0
176
     1
 90
        0
176
     1
290
     0
176
     1
 90
        1
176
     1
 40
50.0
176
     1
 90
        0
176
     1
290
     0
176
     1
290
     1
176
     1
290
     1
176
     1
290
     0
176
     1
290
     0
176
     1
290
     0
176
     1
290
     0
176
     1
290
     0
176
     1
290
     0
176
     1
 90
       50
176
     1
 40
0.0
176
     1
 40
1.0
176
     1
 90
        0
176
     1
 62
    18
420
        0
176
     1
 90
       50
176
     1
 90
        3
176
     1
 62
     5
420
      255
176
     1
290
     0
176
     1
 90
       50
176
     1
 90
       50
176
     1
 90
       50
176
     1
290
     0
176
     1
 90
       50
176
     1
 62
   256
176
     0
 40
1.0
176
     0
 90
        2
176
     1
  1
strokes_ogs.tif
176
     1
290
     0
176
     1
 40
1.0
176
     1
 40
1.0
176
     1
  0
VISUALSTYLE
  5
39
102
{ACAD_REACTORS
330
29
102
}
330
29
100
AcDbVisualStyle
  2
ColorChange
 70
    16
177
     3
291
     1
 70
    58
 90
        2
176
     1
 90
        2
176
     1
 90
        3
176
     1
 90
        0
176
     1
 40
0.6
176
     1
 40
30.0
176
     1
 62
     8
420
  8421504
176
     1
 90
        1
176
     1
 90
        4
176
     1
 62
     7
176
     1
 62
   257
176
     1
 90
        1
176
     1
 90
        1
176
     1
 40
1.0
176
     1
 90
        8
176
     1
 62
     8
420
  8421504
176
     1
 40
1.0
176
     1
 90
        1
176
     1
 90
        6
176
     1
 90
        2
176
     1
 62
     7
176
     1
 90
        5
176
     1
 90
        0
176
     1
 90
        0
176
     1
290
     0
176
     1
 90
        1
176
     1
 40
0.0
176
     1
 90
        0
176
     1
290
     0
176
     1
290
     1
176
     1
290
     1
176
     1
290
     0
176
     1
290
     0
176
     1
290
     0
176
     1
290
     0
176
     1
290
     0
176
     1
290
     0
176
     1
 90
       50
176
     1
 40
0.0
176
     1
 40
1.0
176
     1
 90
        0
176
     1
 62
    18
420
        0
176
     1
 90
       50
176
     1
 90
        3
176
     1
 62
     5
420
      255
176
     1
290
     0
176
     1
 90
       50
176
     1
 90
       50
176
     1
 90
       50
176
     1
290
     0
176
     1
 90
       50
176
     1
 62
   256
176
     0
 40
1.0
176
     0
 90
        2
176
     1
  1
strokes_ogs.tif
176
     1
290
     0
176
     1
 40
1.0
176
     1
 40
1.0
176
     1
  0
VISUALSTYLE
  5
32
102
{ACAD_REACTORS
330
29
102
}
330
29
100
AcDbVisualStyle
  2
Conceptual
 70
     9
177
     3
291
     0
 70
    58
 90
        3
176
     1
 90
        2
176
     1
 90
        0
176
     1
 90
        0
176
     1
 40
0.6
176
     1
 40
30.0
176
     1
 62
     7
420
 16777215
176
     1
 90
        2
176
     1
 90
        2
176
     1
 62
     7
176
     1
 62
   257
176
     1
 90
        1
176
     1
 90
        1
176
     1
 40
179.0
176
     1
 90
        8
176
     1
 62
     7
176
     1
 40
1.0
176
     1
 90
        1
176
     1
 90
        6
176
     1
 90
        2
176
     1
 62
     7
176
     1
 90
        3
176
     1
 90
        0
176
     1
 90
        0
176
     1
290
     0
176
     1
 90
        1
176
     1
 40
0.0
176
     1
 90
        0
176
     1
290
     0
176
     1
290
     1
176
     1
290
     1
176
     1
290
     0
176
     1
290
     0
176
     1
290
     0
176
     1
290
     0
176
     1
290
     0
176
     1
290
     0
176
     1
 90
       50
176
     1
 40
0.0
176
     1
 40
1.0
176
     1
 90
        0
176
     1
 62
    18
420
        0
176
     1
 90
       50
176
     1
 90
        3
176
     1
 62
     5
420
      255
176
     1
290
     0
176
     1
 90
       50
176
     1
 90
       50
176
     1
 90
       50
176
     1
290
     0
176
     1
 90
       50
176
     1
 62
   256
176
     0
 40
1.0
176
     0
 90
        2
176
     1
  1
strokes_ogs.tif
176
     1
290
     0
176
     1
 40
1.0
176
     1
 40
1.0
176
     1
  0
VISUALSTYLE
  5
34
102
{ACAD_REACTORS
330
29
102
}
330
29
100
AcDbVisualStyle
  2
Dim
 70
    11
177
     3
291
     1
 70
    58
 90
        2
176
     1
 90
        2
176
     1
 90
        0
176
     1
 90
        0
176
     1
 40
0.6
176
     1
 40
30.0
176
     1
 62
     7
420
 16777215
176
     1
 90
        1
176
     1
 90
        4
176
     1
 62
     7
176
     1
 62
   257
176
     1
 90
        1
176
     1
 90
        1
176
     1
 40
1.0
176
     1
 90
        8
176
     1
 62
     7
176
     1
 40
1.0
176
     1
 90
        1
176
     1
 90
        6
176
     1
 90
        2
176
     1
 62
     7
176
     1
 90
        5
176
     1
 90
        0
176
     1
 90
        0
176
     1
290
     0
176
     1
 90
        1
176
     1
 40
-50.0
176
     1
 90
        0
176
     1
290
     0
176
     1
290
     1
176
     1
290
     1
176
     1
290
     0
176
     1
290
     0
176
     1
290
     0
176
     1
290
     0
176
     1
290
     0
176
     1
290
     0
176
     1
 90
       50
176
     1
 40
0.0
176
     1
 40
1.0
176
     1
 90
        0
176
     1
 62
    18
420
        0
176
     1
 90
       50
176
     1
 90
        3
176
     1
 62
     5
420
      255
176
     1
290
     0
176
     1
 90
       50
176
     1
 90
       50
176
     1
 90
       50
176
     1
290
     0
176
     1
 90
       50
176
     1
 62
   256
176
     0
 40
1.0
176
     0
 90
        2
176
     1
  1
strokes_ogs.tif
176
     1
290
     0
176
     1
 40
1.0
176
     1
 40
1.0
176
     1
  0
VISUALSTYLE
  5
41
102
{ACAD_REACTORS
330
29
102
}
330
29
100
AcDbVisualStyle
  2
EdgeColorOff
 70
    22
177
     3
291
     1
 70
    58
 90
        2
176
     0
 90
        2
176
     0
 90
        0
176
     0
 90
        0
176
     0
 40
0.6
176
     0
 40
30.0
176
     0
 62
     7
420
 16777215
176
     0
 90
        1
176
     0
 90
        4
176
     0
 62
     7
176
     0
 62
   257
176
     0
 90
        1
176
     0
 90
        1
176
     0
 40
1.0
176
     0
 90
        8
176
     2
 62
     7
176
     0
 40
1.0
176
     0
 90
        1
176
     0
 90
        6
176
     0
 90
        2
176
     0
 62
     7
176
     0
 90
        5
176
     0
 90
        0
176
     0
 90
        0
176
     0
290
     0
176
     0
 90
        1
176
     0
 40
0.0
176
     0
 90
        0
176
     0
290
     0
176
     0
290
     1
176
     0
290
     1
176
     0
290
     0
176
     0
290
     0
176
     0
290
     0
176
     0
290
     0
176
     0
290
     0
176
     0
290
     0
176
     0
 90
       50
176
     0
 40
0.0
176
     0
 40
1.0
176
     0
 90
        0
176
     0
 62
    18
420
        0
176
     0
 90
       50
176
     0
 90
        3
176
     0
 62
     5
420
      255
176
     0
290
     0
176
     0
 90
       50
176
     0
 90
       50
176
     0
 90
       50
176
     0
290
     0
176
     0
 90
       50
176
     0
 62
   256
176
     0
 40
1.0
176
     0
 90
        2
176
     0
  1
strokes_ogs.tif
176
     0
290
     0
176
     0
 40
1.0
176
     0
 40
1.0
176
     0
  0
VISUALSTYLE
  5
38
102
{ACAD_REACTORS
330
29
102
}
330
29
100
AcDbVisualStyle
  2
Facepattern
 70
    15
177
     3
291
     1
 70
    58
 90
        2
176
     1
 90
        2
176
     1
 90
        0
176
     1
 90
        0
176
     1
 40
0.6
176
     1
 40
30.0
176
     1
 62
     7
420
 16777215
176
     1
 90
        1
176
     1
 90
        4
176
     1
 62
     7
176
     1
 62
   257
176
     1
 90
        1
176
     1
 90
        1
176
     1
 40
1.0
176
     1
 90
        8
176
     1
 62
     7
176
     1
 40
1.0
176
     1
 90
        1
176
     1
 90
        6
176
     1
 90
        2
176
     1
 62
     7
176
     1
 90
        5
176
     1
 90
        0
176
     1
 90
        0
176
     1
290
     0
176
     1
 90
        1
176
     1
 40
0.0
176
     1
 90
        0
176
     1
290
     0
176
     1
290
     1
176
     1
290
     1
176
     1
290
     0
176
     1
290
     0
176
     1
290
     0
176
     1
290
     0
176
     1
290
     0
176
     1
290
     0
176
     1
 90
       50
176
     1
 40
0.0
176
     1
 40
1.0
176
     1
 90
        0
176
     1
 62
    18
420
        0
176
     1
 90
       50
176
     1
 90
        3
176
     1
 62
     5
420
      255
176
     1
290
     0
176
     1
 90
       50
176
     1
 90
       50
176
     1
 90
       50
176
     1
290
     0
176
     1
 90
       50
176
     1
 62
   256
176
     0
 40
1.0
176
     0
 90
        2
176
     1
  1
strokes_ogs.tif
176
     1
290
     0
176
     1
 40
1.0
176
     1
 40
1.0
176
     1
  0
VISUALSTYLE
  5
2A
102
{ACAD_REACTORS
330
29
102
}
330
29
100
AcDbVisualStyle
  2
Flat
 70
     0
177
     3
291
     1
 70
    58
 90
        2
176
     1
 90
        1
176
     1
 90
        1
176
     1
 90
        2
176
     1
 40
0.6
176
     1
 40
30.0
176
     1
 62
     7
420
 16777215
176
     1
 90
        0
176
     1
 90
        0
176
     1
 62
     7
176
     1
 62
   257
176
     1
 90
        1
176
     1
 90
        1
176
     1
 40
1.0
176
     1
 90
        8
176
     1
 62
     7
176
     1
 40
1.0
176
     1
 90
        1
176
     1
 90
        6
176
     1
 90
        2
176
     1
 62
     7
176
     1
 90
        5
176
     1
 90
        0
176
     1
 90
        0
176
     1
290
     0
176
     1
 90
       13
176
     1
 40
0.0
176
     1
 90
        0
176
     1
290
     0
176
     1
290
     1
176
     1
290
     1
176
     1
290
     0
176
     1
290
     0
176
     1
290
     0
176
     1
290
     0
176
     1
290
     0
176
     1
290
     0
176
     1
 90
       50
176
     1
 40
0.0
176
     1
 40
1.0
176
     1
 90
        0
176
     1
 62
    18
420
        0
176
     1
 90
       50
176
     1
 90
        3
176
     1
 62
     5
420
      255
176
     1
290
     0
176
     1
 90
       50
176
     1
 90
       50
176
     1
 90
       50
176
     1
290
     0
176
     1
 90
       50
176
     1
 62
   256
176
     0
 40
1.0
176
     0
 90
        2
176
     1
  1
strokes_ogs.tif
176
     1
290
     0
176
     1
 40
1.0
176
     1
 40
1.0
176
     1
  0
VISUALSTYLE
  5
2B
102
{ACAD_REACTORS
330
29
102
}
330
29
100
AcDbVisualStyle
  2
FlatWithEdges
 70
     1
177
     3
291
     1
 70
    58
 90
        2
176
     1
 90
        1
176
     1
 90
        1
176
     1
 90
        2
176
     1
 40
0.6
176
     1
 40
30.0
176
     1
 62
     7
420
 16777215
176
     1
 90
        1
176
     1
 90
        0
176
     1
 62
     7
176
     1
 62
   257
176
     1
 90
        1
176
     1
 90
        1
176
     1
 40
1.0
176
     1
 90
        0
176
     1
 62
   257
176
     1
 40
1.0
176
     1
 90
        1
176
     1
 90
        6
176
     1
 90
        2
176
     1
 62
     7
176
     1
 90
        5
176
     1
 90
        0
176
     1
 90
        0
176
     1
290
     0
176
     1
 90
       13
176
     1
 40
0.0
176
     1
 90
        0
176
     1
290
     0
176
     1
290
     1
176
     1
290
     1
176
     1
290
     0
176
     1
290
     0
176
     1
290
     0
176
     1
290
     0
176
     1
290
     0
176
     1
290
     0
176
     1
 90
       50
176
     1
 40
0.0
176
     1
 40
1.0
176
     1
 90
        0
176
     1
 62
    18
420
        0
176
     1
 90
       50
176
     1
 90
        3
176
     1
 62
     5
420
      255
176
     1
290
     0
176
     1
 90
       50
176
     1
 90
       50
176
     1
 90
       50
176
     1
290
     0
176
     1
 90
       50
176
     1
 62
   256
176
     0
 40
1.0
176
     0
 90
        2
176
     1
  1
strokes_ogs.tif
176
     1
290
     0
176
     1
 40
1.0
176
     1
 40
1.0
176
     1
  0
VISUALSTYLE
  5
2C
102
{ACAD_REACTORS
330
29
102
}
330
29
100
AcDbVisualStyle
  2
Gouraud
 70
     2
177
     3
291
     1
 70
    58
 90
        2
176
     1
 90
        2
176
     1
 90
        1
176
     1
 90
        2
176
     1
 40
0.6
176
     1
 40
30.0
176
     1
 62
     7
420
 16777215
176
     1
 90
        0
176
     1
 90
        0
176
     1
 62
     7
176
     1
 62
   257
176
     1
 90
        1
176
     1
 90
        1
176
     1
 40
1.0
176
     1
 90
        0
176
     1
 62
     7
176
     1
 40
1.0
176
     1
 90
        1
176
     1
 90
        6
176
     1
 90
        2
176
     1
 62
     7
176
     1
 90
        5
176
     1
 90
        0
176
     1
 90
        0
176
     1
290
     0
176
     1
 90
       13
176
     1
 40
0.0
176
     1
 90
        0
176
     1
290
     0
176
     1
290
     1
176
     1
290
     1
176
     1
290
     0
176
     1
290
     0
176
     1
290
     0
176
     1
290
     0
176
     1
290
     0
176
     1
290
     0
176
     1
 90
       50
176
     1
 40
0.0
176
     1
 40
1.0
176
     1
 90
        0
176
     1
 62
    18
420
        0
176
     1
 90
       50
176
     1
 90
        3
176
     1
 62
     5
420
      255
176
     1
290
     0
176
     1
 90
       50
176
     1
 90
       50
176
     1
 90
       50
176
     1
290
     0
176
     1
 90
       50
176
     1
 62
   256
176
     0
 40
1.0
176
     0
 90
        2
176
     1
  1
strokes_ogs.tif
176
     1
290
     0
176
     1
 40
1.0
176
     1
 40
1.0
176
     1
  0
VISUALSTYLE
  5
2D
102
{ACAD_REACTORS
330
29
102
}
330
29
100
AcDbVisualStyle
  2
GouraudWithEdges
 70
     3
177
     3
291
     1
 70
    58
 90
        2
176
     1
 90
        2
176
     1
 90
        1
176
     1
 90
        2
176
     1
 40
0.6
176
     1
 40
30.0
176
     1
 62
     7
420
 16777215
176
     1
 90
        1
176
     1
 90
        0
176
     1
 62
     7
176
     1
 62
   257
176
     1
 90
        1
176
     1
 90
        1
176
     1
 40
1.0
176
     1
 90
        0
176
     1
 62
   257
176
     1
 40
1.0
176
     1
 90
        1
176
     1
 90
        6
176
     1
 90
        2
176
     1
 62
     7
176
     1
 90
        5
176
     1
 90
        0
176
     1
 90
        0
176
     1
290
     0
176
     1
 90
       13
176
     1
 40
0.0
176
     1
 90
        0
176
     1
290
     0
176
     1
290
     1
176
     1
290
     1
176
     1
290
     0
176
     1
290
     0
176
     1
290
     0
176
     1
290
     0
176
     1
290
     0
176
     1
290
     0
176
     1
 90
       50
176
     1
 40
0.0
176
     1
 40
1.0
176
     1
 90
        0
176
     1
 62
    18
420
        0
176
     1
 90
       50
176
     1
 90
        3
176
     1
 62
     5
420
      255
176
     1
290
     0
176
     1
 90
       50
176
     1
 90
       50
176
     1
 90
       50
176
     1
290
     0
176
     1
 90
       50
176
     1
 62
   256
176
     0
 40
1.0
176
     0
 90
        2
176
     1
  1
strokes_ogs.tif
176
     1
290
     0
176
     1
 40
1.0
176
     1
 40
1.0
176
     1
  0
VISUALSTYLE
  5
31
102
{ACAD_REACTORS
330
29
102
}
330
29
100
AcDbVisualStyle
  2
Hidden
 70
     6
177
     3
291
     0
 70
    58
 90
        1
176
     1
 90
        2
176
     1
 90
        2
176
     1
 90
        0
176
     1
 40
0.6
176
     1
 40
30.0
176
     1
 62
     7
420
 16777215
176
     1
 90
        2
176
     1
 90
        2
176
     1
 62
     7
176
     1
 62
   257
176
     1
 90
        2
176
     1
 90
        1
176
     1
 40
40.0
176
     1
 90
        0
176
     1
 62
   257
176
     1
 40
1.0
176
     1
 90
        1
176
     1
 90
        6
176
     1
 90
        2
176
     1
 62
     7
176
     1
 90
        3
176
     1
 90
        0
176
     1
 90
        0
176
     1
290
     0
176
     1
 90
        1
176
     1
 40
0.0
176
     1
 90
        0
176
     1
290
     0
176
     1
290
     1
176
     1
290
     1
176
     1
290
     0
176
     1
290
     0
176
     1
290
     0
176
     1
290
     0
176
     1
290
     0
176
     1
290
     0
176
     1
 90
       50
176
     1
 40
0.0
176
     1
 40
1.0
176
     1
 90
        0
176
     1
 62
    18
420
        0
176
     1
 90
       50
176
     1
 90
        3
176
     1
 62
     5
420
      255
176
     1
290
     0
176
     1
 90
       50
176
     1
 90
       50
176
     1
 90
       50
176
     1
290
     0
176
     1
 90
       50
176
     1
 62
   256
176
     0
 40
1.0
176
     0
 90
        2
176
     1
  1
strokes_ogs.tif
176
     1
290
     0
176
     1
 40
1.0
176
     1
 40
1.0
176
     1
  0
VISUALSTYLE
  5
3F
102
{ACAD_REACTORS
330
29
102
}
330
29
100
AcDbVisualStyle
  2
JitterOff
 70
    20
177
     3
291
     1
 70
    58
 90
        2
176
     0
 90
        2
176
     0
 90
        0
176
     0
 90
        0
176
     0
 40
0.6
176
     0
 40
30.0
176
     0
 62
     7
420
 16777215
176
     0
 90
        1
176
     0
 90
        4
176
     0
 62
     7
176
     0
 62
   257
176
     0
 90
        1
176
     0
 90
        1
176
     0
 40
1.0
176
     0
 90
       10
176
     2
 62
     7
176
     0
 40
1.0
176
     0
 90
        1
176
     0
 90
        6
176
     0
 90
        2
176
     0
 62
     7
176
     0
 90
        5
176
     0
 90
        0
176
     0
 90
        0
176
     0
290
     0
176
     0
 90
        1
176
     0
 40
0.0
176
     0
 90
        0
176
     0
290
     0
176
     0
290
     1
176
     0
290
     1
176
     0
290
     0
176
     0
290
     0
176
     0
290
     0
176
     0
290
     0
176
     0
290
     0
176
     0
290
     0
176
     0
 90
       50
176
     0
 40
0.0
176
     0
 40
1.0
176
     0
 90
        0
176
     0
 62
    18
420
        0
176
     0
 90
       50
176
     0
 90
        3
176
     0
 62
     5
420
      255
176
     0
290
     0
176
     0
 90
       50
176
     0
 90
       50
176
     0
 90
       50
176
     0
290
     0
176
     0
 90
       50
176
     0
 62
   256
176
     0
 40
1.0
176
     0
 90
        2
176
     0
  1
strokes_ogs.tif
176
     0
290
     0
176
     0
 40
1.0
176
     0
 40
1.0
176
     0
  0
VISUALSTYLE
  5
37
102
{ACAD_REACTORS
330
29
102
}
330
29
100
AcDbVisualStyle
  2
Linepattern
 70
    14
177
     3
291
     1
 70
    58
 90
        2
176
     1
 90
        2
176
     1
 90
        0
176
     1
 90
        0
176
     1
 40
0.6
176
     1
 40
30.0
176
     1
 62
     7
420
 16777215
176
     1
 90
        1
176
     1
 90
        4
176
     1
 62
     7
176
     1
 62
   257
176
     1
 90
        7
176
     1
 90
        7
176
     1
 40
1.0
176
     1
 90
        8
176
     1
 62
     7
176
     1
 40
1.0
176
     1
 90
        1
176
     1
 90
        6
176
     1
 90
        2
176
     1
 62
     7
176
     1
 90
        5
176
     1
 90
        0
176
     1
 90
        0
176
     1
290
     0
176
     1
 90
        1
176
     1
 40
0.0
176
     1
 90
        0
176
     1
290
     0
176
     1
290
     1
176
     1
290
     1
176
     1
290
     0
176
     1
290
     0
176
     1
290
     0
176
     1
290
     0
176
     1
290
     0
176
     1
290
     0
176
     1
 90
       50
176
     1
 40
0.0
176
     1
 40
1.0
176
     1
 90
        0
176
     1
 62
    18
420
        0
176
     1
 90
       50
176
     1
 90
        3
176
     1
 62
     5
420
      255
176
     1
290
     0
176
     1
 90
       50
176
     1
 90
       50
176
     1
 90
       50
176
     1
290
     0
176
     1
 90
       50
176
     1
 62
   256
176
     0
 40
1.0
176
     0
 90
        2
176
     1
  1
strokes_ogs.tif
176
     1
290
     0
176
     1
 40
1.0
176
     1
 40
1.0
176
     1
  0
VISUALSTYLE
  5
40
102
{ACAD_REACTORS
330
29
102
}
330
29
100
AcDbVisualStyle
  2
OverhangOff
 70
    21
177
     3
291
     1
 70
    58
 90
        2
176
     0
 90
        2
176
     0
 90
        0
176
     0
 90
        0
176
     0
 40
0.6
176
     0
 40
30.0
176
     0
 62
     7
420
 16777215
176
     0
 90
        1
176
     0
 90
        4
176
     0
 62
     7
176
     0
 62
   257
176
     0
 90
        1
176
     0
 90
        1
176
     0
 40
1.0
176
     0
 90
        9
176
     2
 62
     7
176
     0
 40
1.0
176
     0
 90
        1
176
     0
 90
        6
176
     0
 90
        2
176
     0
 62
     7
176
     0
 90
        5
176
     0
 90
        0
176
     0
 90
        0
176
     0
290
     0
176
     0
 90
        1
176
     0
 40
0.0
176
     0
 90
        0
176
     0
290
     0
176
     0
290
     1
176
     0
290
     1
176
     0
290
     0
176
     0
290
     0
176
     0
290
     0
176
     0
290
     0
176
     0
290
     0
176
     0
290
     0
176
     0
 90
       50
176
     0
 40
0.0
176
     0
 40
1.0
176
     0
 90
        0
176
     0
 62
    18
420
        0
176
     0
 90
       50
176
     0
 90
        3
176
     0
 62
     5
420
      255
176
     0
290
     0
176
     0
 90
       50
176
     0
 90
       50
176
     0
 90
       50
176
     0
290
     0
176
     0
 90
       50
176
     0
 62
   256
176
     0
 40
1.0
176
     0
 90
        2
176
     0
  1
strokes_ogs.tif
176
     0
290
     0
176
     0
 40
1.0
176
     0
 40
1.0
176
     0
  0
VISUALSTYLE
  5
33
102
{ACAD_REACTORS
330
29
102
}
330
29
100
AcDbVisualStyle
  2
Realistic
 70
     8
177
     3
291
     0
 70
    58
 90
        2
176
     1
 90
        3
176
     1
 90
        0
176
     1
 90
        2
176
     1
 40
0.6
176
     1
 40
30.0
176
     1
 62
     7
420
 16777215
176
     1
 90
        0
176
     1
 90
        0
176
     1
 62
     7
176
     1
 62
   257
176
     1
 90
        1
176
     1
 90
        1
176
     1
 40
1.0
176
     1
 90
        8
176
     1
 62
   257
176
     1
 40
1.0
176
     1
 90
        1
176
     1
 90
        6
176
     1
 90
        2
176
     1
 62
     7
176
     1
 90
        3
176
     1
 90
        0
176
     1
 90
        0
176
     1
290
     0
176
     1
 90
       13
176
     1
 40
0.0
176
     1
 90
        0
176
     1
290
     0
176
     1
290
     1
176
     1
290
     1
176
     1
290
     0
176
     1
290
     0
176
     1
290
     0
176
     1
290
     0
176
     1
290
     0
176
     1
290
     0
176
     1
 90
       50
176
     1
 40
0.0
176
     1
 40
1.0
176
     1
 90
        0
176
     1
 62
    18
420
        0
176
     1
 90
       50
176
     1
 90
        3
176
     1
 62
     5
420
      255
176
     1
290
     0
176
     1
 90
       50
176
     1
 90
       50
176
     1
 90
       50
176
     1
290
     0
176
     1
 90
       50
176
     1
 62
   256
176
     0
 40
1.0
176
     0
 90
        2
176
     1
  1
strokes_ogs.tif
176
     1
290
     0
176
     1
 40
1.0
176
     1
 40
1.0
176
     1
  0
VISUALSTYLE
  5
3E
102
{ACAD_REACTORS
330
29
102
}
330
29
100
AcDbVisualStyle
  2
Shaded
 70
    27
177
     3
291
     0
 70
    58
 90
        2
176
     1
 90
        2
176
     1
 90
        1
176
     1
 90
        2
176
     1
 40
0.6
176
     1
 40
30.0
176
     1
 62
     7
420
 16777215
176
     1
 90
        0
176
     1
 90
        4
176
     1
 62
     7
176
     1
 62
   257
176
     1
 90
        1
176
     1
 90
        1
176
     1
 40
1.0
176
     1
 90
        8
176
     1
 62
   257
176
     1
 40
1.0
176
     1
 90
        1
176
     1
 90
        6
176
     1
 90
        2
176
     1
 62
     8
420
  7895160
176
     1
 90
        3
176
     1
 90
        0
176
     1
 90
        0
176
     1
290
     0
176
     1
 90
        5
176
     1
 40
0.0
176
     1
 90
        0
176
     1
290
     0
176
     1
290
     1
176
     1
290
     1
176
     1
290
     0
176
     1
290
     0
176
     1
290
     0
176
     1
290
     0
176
     1
290
     0
176
     1
290
     0
176
     1
 90
       50
176
     1
 40
0.0
176
     1
 40
1.0
176
     1
 90
        0
176
     1
 62
    18
420
        0
176
     1
 90
       50
176
     1
 90
        3
176
     1
 62
     5
420
      255
176
     1
290
     0
176
     1
 90
       50
176
     1
 90
       50
176
     1
 90
       50
176
     1
290
     0
176
     1
 90
       50
176
     1
 62
   256
176
     0
 40
1.0
176
     0
 90
        2
176
     1
  1
strokes_ogs.tif
176
     1
290
     0
176
     1
 40
1.0
176
     1
 40
1.0
176
     1
  0
VISUALSTYLE
  5
3D
102
{ACAD_REACTORS
330
29
102
}
330
29
100
AcDbVisualStyle
  2
Shaded with edges
 70
    26
177
     3
291
     0
 70
    58
 90
        2
176
     1
 90
        2
176
     1
 90
        1
176
     1
 90
        2
176
     1
 40
0.6
176
     1
 40
30.0
176
     1
 62
     7
420
 16777215
176
     1
 90
        1
176
     1
 90
        2
176
     1
 62
     7
176
     1
 62
   257
176
     1
 90
        2
176
     1
 90
        1
176
     1
 40
1.0
176
     1
 90
        8
176
     1
 62
   257
176
     1
 40
1.0
176
     1
 90
        1
176
     1
 90
        6
176
     1
 90
        2
176
     1
 62
     7
176
     1
 90
        3
176
     1
 90
        0
176
     1
 90
        0
176
     1
290
     0
176
     1
 90
        5
176
     1
 40
0.0
176
     1
 90
        0
176
     1
290
     0
176
     1
290
     1
176
     1
290
     1
176
     1
290
     0
176
     1
290
     0
176
     1
290
     0
176
     1
290
     0
176
     1
290
     0
176
     1
290
     0
176
     1
 90
       50
176
     1
 40
0.0
176
     1
 40
1.0
176
     1
 90
        0
176
     1
 62
    18
420
        0
176
     1
 90
       50
176
     1
 90
        3
176
     1
 62
     5
420
      255
176
     1
290
     0
176
     1
 90
       50
176
     1
 90
       50
176
     1
 90
       50
176
     1
290
     0
176
     1
 90
       50
176
     1
 62
   256
176
     0
 40
1.0
176
     0
 90
        2
176
     1
  1
strokes_ogs.tif
176
     1
290
     0
176
     1
 40
1.0
176
     1
 40
1.0
176
     1
  0
VISUALSTYLE
  5
3A
102
{ACAD_REACTORS
330
29
102
}
330
29
100
AcDbVisualStyle
  2
Shades of Gray
 70
    23
177
     3
291
     0
 70
    58
 90
        2
176
     1
 90
        2
176
     1
 90
        3
176
     1
 90
        0
176
     1
 40
0.6
176
     1
 40
30.0
176
     1
 62
     7
420
 16777215
176
     1
 90
        2
176
     1
 90
        2
176
     1
 62
     7
176
     1
 62
     7
176
     1
 90
        1
176
     1
 90
        1
176
     1
 40
40.0
176
     1
 90
        8
176
     1
 62
     7
176
     1
 40
1.0
176
     1
 90
        1
176
     1
 90
        6
176
     1
 90
        2
176
     1
 62
     7
176
     1
 90
        3
176
     1
 90
        0
176
     1
 90
        0
176
     1
290
     0
176
     1
 90
        1
176
     1
 40
0.0
176
     1
 90
        0
176
     1
290
     0
176
     1
290
     1
176
     1
290
     1
176
     1
290
     0
176
     1
290
     0
176
     1
290
     0
176
     1
290
     0
176
     1
290
     0
176
     1
290
     0
176
     1
 90
       50
176
     1
 40
0.0
176
     1
 40
1.0
176
     1
 90
        0
176
     1
 62
    18
420
        0
176
     1
 90
       50
176
     1
 90
        3
176
     1
 62
     5
420
      255
176
     1
290
     0
176
     1
 90
       50
176
     1
 90
       50
176
     1
 90
       50
176
     1
290
     0
176
     1
 90
       50
176
     1
 62
   256
176
     0
 40
1.0
176
     0
 90
        2
176
     1
  1
strokes_ogs.tif
176
     1
290
     0
176
     1
 40
1.0
176
     1
 40
1.0
176
     1
  0
VISUALSTYLE
  5
3B
102
{ACAD_REACTORS
330
29
102
}
330
29
100
AcDbVisualStyle
  2
Sketchy
 70
    24
177
     3
291
     0
 70
    58
 90
        1
176
     1
 90
        2
176
     1
 90
        2
176
     1
 90
        0
176
     1
 40
0.6
176
     1
 40
30.0
176
     1
 62
     7
420
 16777215
176
     1
 90
        2
176
     1
 90
        2
176
     1
 62
     7
176
     1
 62
     7
176
     1
 90
        1
176
     1
 90
        1
176
     1
 40
40.0
176
     1
 90
       11
176
     1
 62
     7
176
     1
 40
1.0
176
     1
 90
        1
176
     1
 90
        6
176
     1
 90
        2
176
     1
 62
     7
176
     1
 90
        6
176
     1
 90
        0
176
     1
 90
        0
176
     1
290
     0
176
     1
 90
        1
176
     1
 40
0.0
176
     1
 90
        0
176
     1
290
     0
176
     1
290
     1
176
     1
290
     1
176
     1
290
     0
176
     1
290
     0
176
     1
290
     0
176
     1
290
     0
176
     1
290
     0
176
     1
290
     0
176
     1
 90
       50
176
     1
 40
0.0
176
     1
 40
1.0
176
     1
 90
        0
176
     1
 62
    18
420
        0
176
     1
 90
       50
176
     1
 90
        3
176
     1
 62
     5
420
      255
176
     1
290
     0
176
     1
 90
       50
176
     1
 90
       50
176
     1
 90
       50
176
     1
290
     0
176
     1
 90
       50
176
     1
 62
   256
176
     0
 40
1.0
176
     0
 90
        2
176
     1
  1
strokes_ogs.tif
176
     1
290
     0
176
     1
 40
1.0
176
     1
 40
1.0
176
     1
  0
VISUALSTYLE
  5
36
102
{ACAD_REACTORS
330
29
102
}
330
29
100
AcDbVisualStyle
  2
Thicken
 70
    13
177
     3
291
     1
 70
    58
 90
        2
176
     1
 90
        2
176
     1
 90
        0
176
     1
 90
        0
176
     1
 40
0.6
176
     1
 40
30.0
176
     1
 62
     7
420
 16777215
176
     1
 90
        1
176
     1
 90
        4
176
     1
 62
     7
176
     1
 62
   257
176
     1
 90
        1
176
     1
 90
        1
176
     1
 40
1.0
176
     1
 90
       12
176
     1
 62
     7
176
     1
 40
1.0
176
     1
 90
        1
176
     1
 90
        6
176
     1
 90
        2
176
     1
 62
     7
176
     1
 90
        5
176
     1
 90
        0
176
     1
 90
        0
176
     1
290
     0
176
     1
 90
        1
176
     1
 40
0.0
176
     1
 90
        0
176
     1
290
     0
176
     1
290
     1
176
     1
290
     1
176
     1
290
     0
176
     1
290
     0
176
     1
290
     0
176
     1
290
     0
176
     1
290
     0
176
     1
290
     0
176
     1
 90
       50
176
     1
 40
0.0
176
     1
 40
1.0
176
     1
 90
        0
176
     1
 62
    18
420
        0
176
     1
 90
       50
176
     1
 90
        3
176
     1
 62
     5
420
      255
176
     1
290
     0
176
     1
 90
       50
176
     1
 90
       50
176
     1
 90
       50
176
     1
290
     0
176
     1
 90
       50
176
     1
 62
   256
176
     0
 40
1.0
176
     0
 90
        2
176
     1
  1
strokes_ogs.tif
176
     1
290
     0
176
     1
 40
1.0
176
     1
 40
1.0
176
     1
  0
VISUALSTYLE
  5
30
102
{ACAD_REACTORS
330
29
102
}
330
29
100
AcDbVisualStyle
  2
Wireframe
 70
     5
177
     3
291
     0
 70
    58
 90
        0
176
     1
 90
        2
176
     1
 90
        0
176
     1
 90
        0
176
     1
 40
0.6
176
     1
 40
30.0
176
     1
 62
     7
420
 16777215
176
     1
 90
        1
176
     1
 90
        4
176
     1
 62
     7
176
     1
 62
   257
176
     1
 90
        1
176
     1
 90
        1
176
     1
 40
1.0
176
     1
 90
        0
176
     1
 62
   257
176
     1
 40
1.0
176
     1
 90
        1
176
     1
 90
        6
176
     1
 90
        2
176
     1
 62
     7
176
     1
 90
        3
176
     1
 90
        0
176
     1
 90
        0
176
     1
290
     0
176
     1
 90
        1
176
     1
 40
0.0
176
     1
 90
        0
176
     1
290
     0
176
     1
290
     1
176
     1
290
     1
176
     1
290
     0
176
     1
290
     0
176
     1
290
     0
176
     1
290
     0
176
     1
290
     0
176
     1
290
     0
176
     1
 90
       50
176
     1
 40
0.0
176
     1
 40
1.0
176
     1
 90
        0
176
     1
 62
    18
420
        0
176
     1
 90
       50
176
     1
 90
        3
176
     1
 62
     5
420
      255
176
     1
290
     0
176
     1
 90
       50
176
     1
 90
       50
176
     1
 90
       50
176
     1
290
     0
176
     1
 90
       50
176
     1
 62
   256
176
     0
 40
1.0
176
     0
 90
        2
176
     1
  1
strokes_ogs.tif
176
     1
290
     0
176
     1
 40
1.0
176
     1
 40
1.0
176
     1
  0
VISUALSTYLE
  5
3C
102
{ACAD_REACTORS
330
29
102
}
330
29
100
AcDbVisualStyle
  2
X-Ray
 70
    25
177
     3
291
     0
 70
    58
 90
        2
176
     1
 90
        2
176
     1
 90
        1
176
     1
 90
        1
176
     1
 40
0.5
176
     1
 40
30.0
176
     1
 62
     7
420
 16777215
176
     1
 90
        1
176
     1
 90
        0
176
     1
 62
     7
176
     1
 62
   257
176
     1
 90
        1
176
     1
 90
        1
176
     1
 40
1.0
176
     1
 90
        8
176
     1
 62
     7
176
     1
 40
1.0
176
     1
 90
        1
176
     1
 90
        6
176
     1
 90
        2
176
     1
 62
     7
176
     1
 90
        3
176
     1
 90
        0
176
     1
 90
        0
176
     1
290
     0
176
     1
 90
       13
176
     1
 40
0.0
176
     1
 90
        0
176
     1
290
     0
176
     1
290
     1
176
     1
290
     1
176
     1
290
     0
176
     1
290
     0
176
     1
290
     0
176
     1
290
     0
176
     1
290
     0
176
     1
290
     0
176
     1
 90
       50
176
     1
 40
0.0
176
     1
 40
1.0
176
     1
 90
        0
176
     1
 62
    18
420
        0
176
     1
 90
       50
176
     1
 90
        3
176
     1
 62
     5
420
      255
176
     1
290
     0
176
     1
 90
       50
176
     1
 90
       50
176
     1
 90
       50
176
     1
290
     0
176
     1
 90
       50
176
     1
 62
   256
176
     0
 40
1.0
176
     0
 90
        2
176
     1
  1
strokes_ogs.tif
176
     1
290
     0
176
     1
 40
1.0
176
     1
 40
1.0
176
     1
  0
DICTIONARYVAR
  5
AF
102
{ACAD_REACTORS
330
AA
102
}
330
AA
100
DictionaryVariables
280
     0
  1
1:1
  0
DICTIONARYVAR
  5
AC
102
{ACAD_REACTORS
330
AA
102
}
330
AA
100
DictionaryVariables
280
     0
  1
STANDARD
  0
DICTIONARYVAR
  5
AB
102
{ACAD_REACTORS
330
AA
102
}
330
AA
100
DictionaryVariables
280
     0
  1
STANDARD
  0
DICTIONARYVAR
  5
AD
102
{ACAD_REACTORS
330
AA
102
}
330
AA
100
DictionaryVariables
280
     0
  1
Imperial24
  0
DICTIONARYVAR
  5
AE
102
{ACAD_REACTORS
330
AA
102
}
330
AA
100
DictionaryVariables
280
     0
  1
Imperial24
  0
DICTIONARY
  5
1A
330
19
100
AcDbDictionary
280
     1
281
     1
  3
BUMPTILE
360
1C
  3
DIFFUSETILE
360
1B
  3
OPACITYTILE
360
1F
  3
REFLECTIONTILE
360
1E
  3
REFRACTIONTILE
360
20
  3
SPECULARTILE
360
1D
  0
DICTIONARY
  5
12
330
11
100
AcDbDictionary
280
     1
281
     1
  3
BUMPTILE
360
14
  3
DIFFUSETILE
360
13
  3
OPACITYTILE
360
17
  3
REFLECTIONTILE
360
16
  3
REFRACTIONTILE
360
18
  3
SPECULARTILE
360
15
  0
DICTIONARY
  5
22
330
21
100
AcDbDictionary
280
     1
281
     1
  3
BUMPTILE
360
24
  3
DIFFUSETILE
360
23
  3
OPACITYTILE
360
27
  3
REFLECTIONTILE
360
26
  3
REFRACTIONTILE
360
28
  3
SPECULARTILE
360
25
  0
DICTIONARY
  5
B0
330
65
100
AcDbDictionary
280
     1
281
     1
  3
ACAD_ROUNDTRIP_2008_TABLESTYLE_CELLSTYLEMAP
360
B1
  0
XRECORD
  5
1C
102
{ACAD_REACTORS
330
1A
102
}
330
1A
100
AcDbXrecord
280
     1
270
     1
271
     1
  0
XRECORD
  5
1B
102
{ACAD_REACTORS
330
1A
102
}
330
1A
100
AcDbXrecord
280
     1
270
     1
271
     1
  0
XRECORD
  5
1F
102
{ACAD_REACTORS
330
1A
102
}
330
1A
100
AcDbXrecord
280
     1
270
     1
271
     1
  0
XRECORD
  5
1E
102
{ACAD_REACTORS
330
1A
102
}
330
1A
100
AcDbXrecord
280
     1
270
     1
271
     1
  0
XRECORD
  5
20
102
{ACAD_REACTORS
330
1A
102
}
330
1A
100
AcDbXrecord
280
     1
270
     1
271
     1
  0
XRECORD
  5
1D
102
{ACAD_REACTORS
330
1A
102
}
330
1A
100
AcDbXrecord
280
     1
270
     1
271
     1
  0
XRECORD
  5
14
102
{ACAD_REACTORS
330
12
102
}
330
12
100
AcDbXrecord
280
     1
270
     1
271
     1
  0
XRECORD
  5
13
102
{ACAD_REACTORS
330
12
102
}
330
12
100
AcDbXrecord
280
     1
270
     1
271
     1
  0
XRECORD
  5
17
102
{ACAD_REACTORS
330
12
102
}
330
12
100
AcDbXrecord
280
     1
270
     1
271
     1
  0
XRECORD
  5
16
102
{ACAD_REACTORS
330
12
102
}
330
12
100
AcDbXrecord
280
     1
270
     1
271
     1
  0
XRECORD
  5
18
102
{ACAD_REACTORS
330
12
102
}
330
12
100
AcDbXrecord
280
     1
270
     1
271
     1
  0
XRECORD
  5
15
102
{ACAD_REACTORS
330
12
102
}
330
12
100
AcDbXrecord
280
     1
270
     1
271
     1
  0
XRECORD
  5
24
102
{ACAD_REACTORS
330
22
102
}
330
22
100
AcDbXrecord
280
     1
270
     1
271
     1
  0
XRECORD
  5
23
102
{ACAD_REACTORS
330
22
102
}
330
22
100
AcDbXrecord
280
     1
270
     1
271
     1
  0
XRECORD
  5
27
102
{ACAD_REACTORS
330
22
102
}
330
22
100
AcDbXrecord
280
     1
270
     1
271
     1
  0
XRECORD
  5
26
102
{ACAD_REACTORS
330
22
102
}
330
22
100
AcDbXrecord
280
     1
270
     1
271
     1
  0
XRECORD
  5
28
102
{ACAD_REACTORS
330
22
102
}
330
22
100
AcDbXrecord
280
     1
270
     1
271
     1
  0
XRECORD
  5
25
102
{ACAD_REACTORS
330
22
102
}
330
22
100
AcDbXrecord
280
     1
270
     1
271
     1
  0
CELLSTYLEMAP
  5
B1
102
{ACAD_REACTORS
330
B0
102
}
330
B0
100
AcDbCellStyleMap
 90
        3
300
CELLSTYLE
  1
TABLEFORMAT_BEGIN
 90
        5
170
     1
 91
        0
 92
    32768
 62
   257
 93
        1
300
CONTENTFORMAT
  1
CONTENTFORMAT_BEGIN
 90
        0
 91
        0
 92
      512
 93
        0
300

 40
0.0
140
1.0
 94
        5
 62
     0
340
55
144
0.25
309
CONTENTFORMAT_END
171
     0
 94
        0
309
TABLEFORMAT_END
  1
CELLSTYLE_BEGIN
 90
        1
 91
        1
300
_TITLE
309
CELLSTYLE_END
300
CELLSTYLE
  1
TABLEFORMAT_BEGIN
 90
        5
170
     1
 91
        0
 92
        0
 62
   257
 93
        1
300
CONTENTFORMAT
  1
CONTENTFORMAT_BEGIN
 90
        0
 91
        0
 92
      512
 93
        0
300

 40
0.0
140
1.0
 94
        5
 62
     0
340
55
144
0.18
309
CONTENTFORMAT_END
171
     0
 94
        0
309
TABLEFORMAT_END
  1
CELLSTYLE_BEGIN
 90
        2
 91
        1
300
_HEADER
309
CELLSTYLE_END
300
CELLSTYLE
  1
TABLEFORMAT_BEGIN
 90
        5
170
     1
 91
        0
 92
        0
 62
   257
 93
        1
300
CONTENTFORMAT
  1
CONTENTFORMAT_BEGIN
 90
        0
 91
        0
 92
      512
 93
        0
300

 40
0.0
140
1.0
 94
        2
 62
     0
340
55
144
0.18
309
CONTENTFORMAT_END
171
     0
 94
        0
309
TABLEFORMAT_END
  1
CELLSTYLE_BEGIN
 90
        3
 91
        2
300
_DATA
309
CELLSTYLE_END
  0
ENDSEC
  0
EOF
