M48
; DRILL file {KiCad 7.0.6} date Mon Jul 31 23:10:26 2023
; FORMAT={-:-/ absolute / metric / decimal}
; #@! TF.CreationDate,2023-07-31T23:10:26-04:00
; #@! TF.GenerationSoftware,Kicad,Pcbnew,7.0.6
; #@! TF.FileFunction,Plated,1,2,PTH
FMAT,2
METRIC
; #@! TA.AperFunction,Plated,PTH,ComponentDrill
T1C0.300
; #@! TA.AperFunction,Plated,PTH,ViaDrill
T2C0.400
; #@! TA.AperFunction,Plated,PTH,ComponentDrill
T3C1.000
%
G90
G05
T1
X25.003Y44.138
X25.003Y42.863
X25.003Y41.588
X26.278Y44.138
X26.278Y42.863
X26.278Y41.588
X27.553Y44.138
X27.553Y42.863
X27.553Y41.588
T2
X2.44Y72.033
X2.44Y14.883
X4.821Y52.983
X5.953Y48.173
X7.202Y33.933
X14.518Y50.304
X16.428Y60.127
X18.455Y44.649
X18.667Y29.17
X20.471Y47.923
X21.431Y45.463
X21.431Y42.863
X21.49Y72.033
X21.49Y14.883
X22.92Y51.792
X22.92Y48.518
X23.515Y30.956
X24.11Y48.518
X24.11Y33.635
X24.408Y30.063
X25.301Y29.17
X25.599Y36.909
X26.078Y48.518
X26.252Y52.983
X27.087Y31.849
X27.384Y49.113
X27.384Y34.528
X30.063Y46.732
X30.956Y41.863
X31.015Y33.933
X31.849Y38.993
X32.032Y45.839
X33.338Y24.706
X33.635Y46.137
X34.231Y39.886
X34.528Y45.542
X35.421Y44.946
X35.719Y39.291
X36.314Y44.351
X37.207Y43.756
X38.993Y41.374
X39.291Y49.113
X39.76Y45.542
X40.54Y72.033
X40.54Y14.883
X41.672Y42.267
X42.267Y43.16
X42.863Y44.053
X43.458Y44.946
X45.302Y52.983
X50.065Y33.933
X59.59Y72.033
X64.352Y52.983
X69.115Y33.933
X73.877Y10.121
X78.64Y72.033
X83.402Y52.983
X88.165Y33.933
X97.69Y72.033
X102.452Y52.983
X107.215Y33.933
X111.977Y10.121
X116.74Y72.033
X121.502Y52.983
X126.265Y33.933
X135.79Y72.033
X140.552Y52.983
X145.315Y33.933
X145.315Y14.883
X154.84Y72.033
X159.602Y52.983
X164.365Y33.933
X164.365Y14.883
X178.652Y72.033
X181.034Y52.983
X183.415Y33.933
X183.415Y14.883
T3
X1.85Y50.713
X1.85Y48.173
X1.85Y45.633
X1.85Y43.093
X1.85Y40.553
T0
M30
