%TF.GenerationSoftware,KiCad,Pcbnew,7.0.6*%
%TF.CreationDate,2023-10-08T00:22:19-04:00*%
%TF.ProjectId,ortho-fr4-plate,6f727468-6f2d-4667-9234-2d706c617465,rev?*%
%TF.SameCoordinates,Original*%
%TF.FileFunction,Legend,Bot*%
%TF.FilePolarity,Positive*%
%FSLAX46Y46*%
G04 Gerber Fmt 4.6, Leading zero omitted, Abs format (unit mm)*
G04 Created by KiCad (PCBNEW 7.0.6) date 2023-10-08 00:22:19*
%MOMM*%
%LPD*%
G01*
G04 APERTURE LIST*
%ADD10C,0.150000*%
G04 APERTURE END LIST*
D10*
X241074584Y-119123045D02*
X241074584Y-119837330D01*
X241074584Y-119837330D02*
X241122203Y-119980187D01*
X241122203Y-119980187D02*
X241217441Y-120075426D01*
X241217441Y-120075426D02*
X241360298Y-120123045D01*
X241360298Y-120123045D02*
X241455536Y-120123045D01*
X240122203Y-120123045D02*
X240598393Y-120123045D01*
X240598393Y-120123045D02*
X240598393Y-119123045D01*
X239217441Y-120027806D02*
X239265060Y-120075426D01*
X239265060Y-120075426D02*
X239407917Y-120123045D01*
X239407917Y-120123045D02*
X239503155Y-120123045D01*
X239503155Y-120123045D02*
X239646012Y-120075426D01*
X239646012Y-120075426D02*
X239741250Y-119980187D01*
X239741250Y-119980187D02*
X239788869Y-119884949D01*
X239788869Y-119884949D02*
X239836488Y-119694473D01*
X239836488Y-119694473D02*
X239836488Y-119551616D01*
X239836488Y-119551616D02*
X239788869Y-119361140D01*
X239788869Y-119361140D02*
X239741250Y-119265902D01*
X239741250Y-119265902D02*
X239646012Y-119170664D01*
X239646012Y-119170664D02*
X239503155Y-119123045D01*
X239503155Y-119123045D02*
X239407917Y-119123045D01*
X239407917Y-119123045D02*
X239265060Y-119170664D01*
X239265060Y-119170664D02*
X239217441Y-119218283D01*
X238503155Y-119123045D02*
X238503155Y-119837330D01*
X238503155Y-119837330D02*
X238550774Y-119980187D01*
X238550774Y-119980187D02*
X238646012Y-120075426D01*
X238646012Y-120075426D02*
X238788869Y-120123045D01*
X238788869Y-120123045D02*
X238884107Y-120123045D01*
X237550774Y-120123045D02*
X238026964Y-120123045D01*
X238026964Y-120123045D02*
X238026964Y-119123045D01*
X236646012Y-120027806D02*
X236693631Y-120075426D01*
X236693631Y-120075426D02*
X236836488Y-120123045D01*
X236836488Y-120123045D02*
X236931726Y-120123045D01*
X236931726Y-120123045D02*
X237074583Y-120075426D01*
X237074583Y-120075426D02*
X237169821Y-119980187D01*
X237169821Y-119980187D02*
X237217440Y-119884949D01*
X237217440Y-119884949D02*
X237265059Y-119694473D01*
X237265059Y-119694473D02*
X237265059Y-119551616D01*
X237265059Y-119551616D02*
X237217440Y-119361140D01*
X237217440Y-119361140D02*
X237169821Y-119265902D01*
X237169821Y-119265902D02*
X237074583Y-119170664D01*
X237074583Y-119170664D02*
X236931726Y-119123045D01*
X236931726Y-119123045D02*
X236836488Y-119123045D01*
X236836488Y-119123045D02*
X236693631Y-119170664D01*
X236693631Y-119170664D02*
X236646012Y-119218283D01*
X235931726Y-119123045D02*
X235931726Y-119837330D01*
X235931726Y-119837330D02*
X235979345Y-119980187D01*
X235979345Y-119980187D02*
X236074583Y-120075426D01*
X236074583Y-120075426D02*
X236217440Y-120123045D01*
X236217440Y-120123045D02*
X236312678Y-120123045D01*
X234979345Y-120123045D02*
X235455535Y-120123045D01*
X235455535Y-120123045D02*
X235455535Y-119123045D01*
X234074583Y-120027806D02*
X234122202Y-120075426D01*
X234122202Y-120075426D02*
X234265059Y-120123045D01*
X234265059Y-120123045D02*
X234360297Y-120123045D01*
X234360297Y-120123045D02*
X234503154Y-120075426D01*
X234503154Y-120075426D02*
X234598392Y-119980187D01*
X234598392Y-119980187D02*
X234646011Y-119884949D01*
X234646011Y-119884949D02*
X234693630Y-119694473D01*
X234693630Y-119694473D02*
X234693630Y-119551616D01*
X234693630Y-119551616D02*
X234646011Y-119361140D01*
X234646011Y-119361140D02*
X234598392Y-119265902D01*
X234598392Y-119265902D02*
X234503154Y-119170664D01*
X234503154Y-119170664D02*
X234360297Y-119123045D01*
X234360297Y-119123045D02*
X234265059Y-119123045D01*
X234265059Y-119123045D02*
X234122202Y-119170664D01*
X234122202Y-119170664D02*
X234074583Y-119218283D01*
X233360297Y-119123045D02*
X233360297Y-119837330D01*
X233360297Y-119837330D02*
X233407916Y-119980187D01*
X233407916Y-119980187D02*
X233503154Y-120075426D01*
X233503154Y-120075426D02*
X233646011Y-120123045D01*
X233646011Y-120123045D02*
X233741249Y-120123045D01*
X232407916Y-120123045D02*
X232884106Y-120123045D01*
X232884106Y-120123045D02*
X232884106Y-119123045D01*
X231503154Y-120027806D02*
X231550773Y-120075426D01*
X231550773Y-120075426D02*
X231693630Y-120123045D01*
X231693630Y-120123045D02*
X231788868Y-120123045D01*
X231788868Y-120123045D02*
X231931725Y-120075426D01*
X231931725Y-120075426D02*
X232026963Y-119980187D01*
X232026963Y-119980187D02*
X232074582Y-119884949D01*
X232074582Y-119884949D02*
X232122201Y-119694473D01*
X232122201Y-119694473D02*
X232122201Y-119551616D01*
X232122201Y-119551616D02*
X232074582Y-119361140D01*
X232074582Y-119361140D02*
X232026963Y-119265902D01*
X232026963Y-119265902D02*
X231931725Y-119170664D01*
X231931725Y-119170664D02*
X231788868Y-119123045D01*
X231788868Y-119123045D02*
X231693630Y-119123045D01*
X231693630Y-119123045D02*
X231550773Y-119170664D01*
X231550773Y-119170664D02*
X231503154Y-119218283D01*
X242598543Y-101620723D02*
X242455686Y-101668342D01*
X242455686Y-101668342D02*
X242217591Y-101668342D01*
X242217591Y-101668342D02*
X242122353Y-101620723D01*
X242122353Y-101620723D02*
X242074734Y-101573103D01*
X242074734Y-101573103D02*
X242027115Y-101477865D01*
X242027115Y-101477865D02*
X242027115Y-101382627D01*
X242027115Y-101382627D02*
X242074734Y-101287389D01*
X242074734Y-101287389D02*
X242122353Y-101239770D01*
X242122353Y-101239770D02*
X242217591Y-101192151D01*
X242217591Y-101192151D02*
X242408067Y-101144532D01*
X242408067Y-101144532D02*
X242503305Y-101096913D01*
X242503305Y-101096913D02*
X242550924Y-101049294D01*
X242550924Y-101049294D02*
X242598543Y-100954056D01*
X242598543Y-100954056D02*
X242598543Y-100858818D01*
X242598543Y-100858818D02*
X242550924Y-100763580D01*
X242550924Y-100763580D02*
X242503305Y-100715961D01*
X242503305Y-100715961D02*
X242408067Y-100668342D01*
X242408067Y-100668342D02*
X242169972Y-100668342D01*
X242169972Y-100668342D02*
X242027115Y-100715961D01*
X241169972Y-101001675D02*
X241169972Y-101668342D01*
X241598543Y-101001675D02*
X241598543Y-101525484D01*
X241598543Y-101525484D02*
X241550924Y-101620723D01*
X241550924Y-101620723D02*
X241455686Y-101668342D01*
X241455686Y-101668342D02*
X241312829Y-101668342D01*
X241312829Y-101668342D02*
X241217591Y-101620723D01*
X241217591Y-101620723D02*
X241169972Y-101573103D01*
X240693781Y-101001675D02*
X240693781Y-102001675D01*
X240693781Y-101049294D02*
X240598543Y-101001675D01*
X240598543Y-101001675D02*
X240408067Y-101001675D01*
X240408067Y-101001675D02*
X240312829Y-101049294D01*
X240312829Y-101049294D02*
X240265210Y-101096913D01*
X240265210Y-101096913D02*
X240217591Y-101192151D01*
X240217591Y-101192151D02*
X240217591Y-101477865D01*
X240217591Y-101477865D02*
X240265210Y-101573103D01*
X240265210Y-101573103D02*
X240312829Y-101620723D01*
X240312829Y-101620723D02*
X240408067Y-101668342D01*
X240408067Y-101668342D02*
X240598543Y-101668342D01*
X240598543Y-101668342D02*
X240693781Y-101620723D01*
X239789019Y-101001675D02*
X239789019Y-102001675D01*
X239789019Y-101049294D02*
X239693781Y-101001675D01*
X239693781Y-101001675D02*
X239503305Y-101001675D01*
X239503305Y-101001675D02*
X239408067Y-101049294D01*
X239408067Y-101049294D02*
X239360448Y-101096913D01*
X239360448Y-101096913D02*
X239312829Y-101192151D01*
X239312829Y-101192151D02*
X239312829Y-101477865D01*
X239312829Y-101477865D02*
X239360448Y-101573103D01*
X239360448Y-101573103D02*
X239408067Y-101620723D01*
X239408067Y-101620723D02*
X239503305Y-101668342D01*
X239503305Y-101668342D02*
X239693781Y-101668342D01*
X239693781Y-101668342D02*
X239789019Y-101620723D01*
X238741400Y-101668342D02*
X238836638Y-101620723D01*
X238836638Y-101620723D02*
X238884257Y-101573103D01*
X238884257Y-101573103D02*
X238931876Y-101477865D01*
X238931876Y-101477865D02*
X238931876Y-101192151D01*
X238931876Y-101192151D02*
X238884257Y-101096913D01*
X238884257Y-101096913D02*
X238836638Y-101049294D01*
X238836638Y-101049294D02*
X238741400Y-101001675D01*
X238741400Y-101001675D02*
X238598543Y-101001675D01*
X238598543Y-101001675D02*
X238503305Y-101049294D01*
X238503305Y-101049294D02*
X238455686Y-101096913D01*
X238455686Y-101096913D02*
X238408067Y-101192151D01*
X238408067Y-101192151D02*
X238408067Y-101477865D01*
X238408067Y-101477865D02*
X238455686Y-101573103D01*
X238455686Y-101573103D02*
X238503305Y-101620723D01*
X238503305Y-101620723D02*
X238598543Y-101668342D01*
X238598543Y-101668342D02*
X238741400Y-101668342D01*
X237979495Y-101668342D02*
X237979495Y-101001675D01*
X237979495Y-101192151D02*
X237931876Y-101096913D01*
X237931876Y-101096913D02*
X237884257Y-101049294D01*
X237884257Y-101049294D02*
X237789019Y-101001675D01*
X237789019Y-101001675D02*
X237693781Y-101001675D01*
X237503304Y-101001675D02*
X237122352Y-101001675D01*
X237360447Y-100668342D02*
X237360447Y-101525484D01*
X237360447Y-101525484D02*
X237312828Y-101620723D01*
X237312828Y-101620723D02*
X237217590Y-101668342D01*
X237217590Y-101668342D02*
X237122352Y-101668342D01*
X236836637Y-101620723D02*
X236741399Y-101668342D01*
X236741399Y-101668342D02*
X236550923Y-101668342D01*
X236550923Y-101668342D02*
X236455685Y-101620723D01*
X236455685Y-101620723D02*
X236408066Y-101525484D01*
X236408066Y-101525484D02*
X236408066Y-101477865D01*
X236408066Y-101477865D02*
X236455685Y-101382627D01*
X236455685Y-101382627D02*
X236550923Y-101335008D01*
X236550923Y-101335008D02*
X236693780Y-101335008D01*
X236693780Y-101335008D02*
X236789018Y-101287389D01*
X236789018Y-101287389D02*
X236836637Y-101192151D01*
X236836637Y-101192151D02*
X236836637Y-101144532D01*
X236836637Y-101144532D02*
X236789018Y-101049294D01*
X236789018Y-101049294D02*
X236693780Y-101001675D01*
X236693780Y-101001675D02*
X236550923Y-101001675D01*
X236550923Y-101001675D02*
X236455685Y-101049294D01*
X234789018Y-101001675D02*
X234789018Y-101668342D01*
X235027113Y-100620723D02*
X235265208Y-101335008D01*
X235265208Y-101335008D02*
X234646161Y-101335008D01*
X233836637Y-101001675D02*
X233836637Y-101668342D01*
X234265208Y-101001675D02*
X234265208Y-101525484D01*
X234265208Y-101525484D02*
X234217589Y-101620723D01*
X234217589Y-101620723D02*
X234122351Y-101668342D01*
X234122351Y-101668342D02*
X233979494Y-101668342D01*
X233979494Y-101668342D02*
X233884256Y-101620723D01*
X233884256Y-101620723D02*
X233836637Y-101573103D01*
X233312827Y-101620723D02*
X233312827Y-101668342D01*
X233312827Y-101668342D02*
X233360446Y-101763580D01*
X233360446Y-101763580D02*
X233408065Y-101811199D01*
X232931875Y-100763580D02*
X232884256Y-100715961D01*
X232884256Y-100715961D02*
X232789018Y-100668342D01*
X232789018Y-100668342D02*
X232550923Y-100668342D01*
X232550923Y-100668342D02*
X232455685Y-100715961D01*
X232455685Y-100715961D02*
X232408066Y-100763580D01*
X232408066Y-100763580D02*
X232360447Y-100858818D01*
X232360447Y-100858818D02*
X232360447Y-100954056D01*
X232360447Y-100954056D02*
X232408066Y-101096913D01*
X232408066Y-101096913D02*
X232979494Y-101668342D01*
X232979494Y-101668342D02*
X232360447Y-101668342D01*
X232027113Y-101668342D02*
X231503304Y-101001675D01*
X232027113Y-101001675D02*
X231503304Y-101668342D01*
X231169970Y-100763580D02*
X231122351Y-100715961D01*
X231122351Y-100715961D02*
X231027113Y-100668342D01*
X231027113Y-100668342D02*
X230789018Y-100668342D01*
X230789018Y-100668342D02*
X230693780Y-100715961D01*
X230693780Y-100715961D02*
X230646161Y-100763580D01*
X230646161Y-100763580D02*
X230598542Y-100858818D01*
X230598542Y-100858818D02*
X230598542Y-100954056D01*
X230598542Y-100954056D02*
X230646161Y-101096913D01*
X230646161Y-101096913D02*
X231217589Y-101668342D01*
X231217589Y-101668342D02*
X230598542Y-101668342D01*
X229741399Y-101001675D02*
X229741399Y-101668342D01*
X230169970Y-101001675D02*
X230169970Y-101525484D01*
X230169970Y-101525484D02*
X230122351Y-101620723D01*
X230122351Y-101620723D02*
X230027113Y-101668342D01*
X230027113Y-101668342D02*
X229884256Y-101668342D01*
X229884256Y-101668342D02*
X229789018Y-101620723D01*
X229789018Y-101620723D02*
X229741399Y-101573103D01*
X229217589Y-101620723D02*
X229217589Y-101668342D01*
X229217589Y-101668342D02*
X229265208Y-101763580D01*
X229265208Y-101763580D02*
X229312827Y-101811199D01*
X228360447Y-101668342D02*
X228360447Y-101144532D01*
X228360447Y-101144532D02*
X228408066Y-101049294D01*
X228408066Y-101049294D02*
X228503304Y-101001675D01*
X228503304Y-101001675D02*
X228693780Y-101001675D01*
X228693780Y-101001675D02*
X228789018Y-101049294D01*
X228360447Y-101620723D02*
X228455685Y-101668342D01*
X228455685Y-101668342D02*
X228693780Y-101668342D01*
X228693780Y-101668342D02*
X228789018Y-101620723D01*
X228789018Y-101620723D02*
X228836637Y-101525484D01*
X228836637Y-101525484D02*
X228836637Y-101430246D01*
X228836637Y-101430246D02*
X228789018Y-101335008D01*
X228789018Y-101335008D02*
X228693780Y-101287389D01*
X228693780Y-101287389D02*
X228455685Y-101287389D01*
X228455685Y-101287389D02*
X228360447Y-101239770D01*
X227884256Y-101001675D02*
X227884256Y-101668342D01*
X227884256Y-101096913D02*
X227836637Y-101049294D01*
X227836637Y-101049294D02*
X227741399Y-101001675D01*
X227741399Y-101001675D02*
X227598542Y-101001675D01*
X227598542Y-101001675D02*
X227503304Y-101049294D01*
X227503304Y-101049294D02*
X227455685Y-101144532D01*
X227455685Y-101144532D02*
X227455685Y-101668342D01*
X226550923Y-101668342D02*
X226550923Y-100668342D01*
X226550923Y-101620723D02*
X226646161Y-101668342D01*
X226646161Y-101668342D02*
X226836637Y-101668342D01*
X226836637Y-101668342D02*
X226931875Y-101620723D01*
X226931875Y-101620723D02*
X226979494Y-101573103D01*
X226979494Y-101573103D02*
X227027113Y-101477865D01*
X227027113Y-101477865D02*
X227027113Y-101192151D01*
X227027113Y-101192151D02*
X226979494Y-101096913D01*
X226979494Y-101096913D02*
X226931875Y-101049294D01*
X226931875Y-101049294D02*
X226836637Y-101001675D01*
X226836637Y-101001675D02*
X226646161Y-101001675D01*
X226646161Y-101001675D02*
X226550923Y-101049294D01*
X225360446Y-100763580D02*
X225312827Y-100715961D01*
X225312827Y-100715961D02*
X225217589Y-100668342D01*
X225217589Y-100668342D02*
X224979494Y-100668342D01*
X224979494Y-100668342D02*
X224884256Y-100715961D01*
X224884256Y-100715961D02*
X224836637Y-100763580D01*
X224836637Y-100763580D02*
X224789018Y-100858818D01*
X224789018Y-100858818D02*
X224789018Y-100954056D01*
X224789018Y-100954056D02*
X224836637Y-101096913D01*
X224836637Y-101096913D02*
X225408065Y-101668342D01*
X225408065Y-101668342D02*
X224789018Y-101668342D01*
X224455684Y-101668342D02*
X223931875Y-101001675D01*
X224455684Y-101001675D02*
X223931875Y-101668342D01*
X223027113Y-101668342D02*
X223598541Y-101668342D01*
X223312827Y-101668342D02*
X223312827Y-100668342D01*
X223312827Y-100668342D02*
X223408065Y-100811199D01*
X223408065Y-100811199D02*
X223503303Y-100906437D01*
X223503303Y-100906437D02*
X223598541Y-100954056D01*
X222598541Y-101573103D02*
X222550922Y-101620723D01*
X222550922Y-101620723D02*
X222598541Y-101668342D01*
X222598541Y-101668342D02*
X222646160Y-101620723D01*
X222646160Y-101620723D02*
X222598541Y-101573103D01*
X222598541Y-101573103D02*
X222598541Y-101668342D01*
X222217589Y-100668342D02*
X221550923Y-100668342D01*
X221550923Y-100668342D02*
X221979494Y-101668342D01*
X220693780Y-100668342D02*
X221169970Y-100668342D01*
X221169970Y-100668342D02*
X221217589Y-101144532D01*
X221217589Y-101144532D02*
X221169970Y-101096913D01*
X221169970Y-101096913D02*
X221074732Y-101049294D01*
X221074732Y-101049294D02*
X220836637Y-101049294D01*
X220836637Y-101049294D02*
X220741399Y-101096913D01*
X220741399Y-101096913D02*
X220693780Y-101144532D01*
X220693780Y-101144532D02*
X220646161Y-101239770D01*
X220646161Y-101239770D02*
X220646161Y-101477865D01*
X220646161Y-101477865D02*
X220693780Y-101573103D01*
X220693780Y-101573103D02*
X220741399Y-101620723D01*
X220741399Y-101620723D02*
X220836637Y-101668342D01*
X220836637Y-101668342D02*
X221074732Y-101668342D01*
X221074732Y-101668342D02*
X221169970Y-101620723D01*
X221169970Y-101620723D02*
X221217589Y-101573103D01*
X219789018Y-101001675D02*
X219789018Y-101668342D01*
X220217589Y-101001675D02*
X220217589Y-101525484D01*
X220217589Y-101525484D02*
X220169970Y-101620723D01*
X220169970Y-101620723D02*
X220074732Y-101668342D01*
X220074732Y-101668342D02*
X219931875Y-101668342D01*
X219931875Y-101668342D02*
X219836637Y-101620723D01*
X219836637Y-101620723D02*
X219789018Y-101573103D01*
X218598541Y-101620723D02*
X218503303Y-101668342D01*
X218503303Y-101668342D02*
X218312827Y-101668342D01*
X218312827Y-101668342D02*
X218217589Y-101620723D01*
X218217589Y-101620723D02*
X218169970Y-101525484D01*
X218169970Y-101525484D02*
X218169970Y-101477865D01*
X218169970Y-101477865D02*
X218217589Y-101382627D01*
X218217589Y-101382627D02*
X218312827Y-101335008D01*
X218312827Y-101335008D02*
X218455684Y-101335008D01*
X218455684Y-101335008D02*
X218550922Y-101287389D01*
X218550922Y-101287389D02*
X218598541Y-101192151D01*
X218598541Y-101192151D02*
X218598541Y-101144532D01*
X218598541Y-101144532D02*
X218550922Y-101049294D01*
X218550922Y-101049294D02*
X218455684Y-101001675D01*
X218455684Y-101001675D02*
X218312827Y-101001675D01*
X218312827Y-101001675D02*
X218217589Y-101049294D01*
X217741398Y-101001675D02*
X217741398Y-102001675D01*
X217741398Y-101049294D02*
X217646160Y-101001675D01*
X217646160Y-101001675D02*
X217455684Y-101001675D01*
X217455684Y-101001675D02*
X217360446Y-101049294D01*
X217360446Y-101049294D02*
X217312827Y-101096913D01*
X217312827Y-101096913D02*
X217265208Y-101192151D01*
X217265208Y-101192151D02*
X217265208Y-101477865D01*
X217265208Y-101477865D02*
X217312827Y-101573103D01*
X217312827Y-101573103D02*
X217360446Y-101620723D01*
X217360446Y-101620723D02*
X217455684Y-101668342D01*
X217455684Y-101668342D02*
X217646160Y-101668342D01*
X217646160Y-101668342D02*
X217741398Y-101620723D01*
X216408065Y-101668342D02*
X216408065Y-101144532D01*
X216408065Y-101144532D02*
X216455684Y-101049294D01*
X216455684Y-101049294D02*
X216550922Y-101001675D01*
X216550922Y-101001675D02*
X216741398Y-101001675D01*
X216741398Y-101001675D02*
X216836636Y-101049294D01*
X216408065Y-101620723D02*
X216503303Y-101668342D01*
X216503303Y-101668342D02*
X216741398Y-101668342D01*
X216741398Y-101668342D02*
X216836636Y-101620723D01*
X216836636Y-101620723D02*
X216884255Y-101525484D01*
X216884255Y-101525484D02*
X216884255Y-101430246D01*
X216884255Y-101430246D02*
X216836636Y-101335008D01*
X216836636Y-101335008D02*
X216741398Y-101287389D01*
X216741398Y-101287389D02*
X216503303Y-101287389D01*
X216503303Y-101287389D02*
X216408065Y-101239770D01*
X215503303Y-101620723D02*
X215598541Y-101668342D01*
X215598541Y-101668342D02*
X215789017Y-101668342D01*
X215789017Y-101668342D02*
X215884255Y-101620723D01*
X215884255Y-101620723D02*
X215931874Y-101573103D01*
X215931874Y-101573103D02*
X215979493Y-101477865D01*
X215979493Y-101477865D02*
X215979493Y-101192151D01*
X215979493Y-101192151D02*
X215931874Y-101096913D01*
X215931874Y-101096913D02*
X215884255Y-101049294D01*
X215884255Y-101049294D02*
X215789017Y-101001675D01*
X215789017Y-101001675D02*
X215598541Y-101001675D01*
X215598541Y-101001675D02*
X215503303Y-101049294D01*
X214693779Y-101620723D02*
X214789017Y-101668342D01*
X214789017Y-101668342D02*
X214979493Y-101668342D01*
X214979493Y-101668342D02*
X215074731Y-101620723D01*
X215074731Y-101620723D02*
X215122350Y-101525484D01*
X215122350Y-101525484D02*
X215122350Y-101144532D01*
X215122350Y-101144532D02*
X215074731Y-101049294D01*
X215074731Y-101049294D02*
X214979493Y-101001675D01*
X214979493Y-101001675D02*
X214789017Y-101001675D01*
X214789017Y-101001675D02*
X214693779Y-101049294D01*
X214693779Y-101049294D02*
X214646160Y-101144532D01*
X214646160Y-101144532D02*
X214646160Y-101239770D01*
X214646160Y-101239770D02*
X215122350Y-101335008D01*
X214217588Y-101668342D02*
X214217588Y-100668342D01*
X214217588Y-101049294D02*
X214122350Y-101001675D01*
X214122350Y-101001675D02*
X213931874Y-101001675D01*
X213931874Y-101001675D02*
X213836636Y-101049294D01*
X213836636Y-101049294D02*
X213789017Y-101096913D01*
X213789017Y-101096913D02*
X213741398Y-101192151D01*
X213741398Y-101192151D02*
X213741398Y-101477865D01*
X213741398Y-101477865D02*
X213789017Y-101573103D01*
X213789017Y-101573103D02*
X213836636Y-101620723D01*
X213836636Y-101620723D02*
X213931874Y-101668342D01*
X213931874Y-101668342D02*
X214122350Y-101668342D01*
X214122350Y-101668342D02*
X214217588Y-101620723D01*
X212884255Y-101668342D02*
X212884255Y-101144532D01*
X212884255Y-101144532D02*
X212931874Y-101049294D01*
X212931874Y-101049294D02*
X213027112Y-101001675D01*
X213027112Y-101001675D02*
X213217588Y-101001675D01*
X213217588Y-101001675D02*
X213312826Y-101049294D01*
X212884255Y-101620723D02*
X212979493Y-101668342D01*
X212979493Y-101668342D02*
X213217588Y-101668342D01*
X213217588Y-101668342D02*
X213312826Y-101620723D01*
X213312826Y-101620723D02*
X213360445Y-101525484D01*
X213360445Y-101525484D02*
X213360445Y-101430246D01*
X213360445Y-101430246D02*
X213312826Y-101335008D01*
X213312826Y-101335008D02*
X213217588Y-101287389D01*
X213217588Y-101287389D02*
X212979493Y-101287389D01*
X212979493Y-101287389D02*
X212884255Y-101239770D01*
X212408064Y-101668342D02*
X212408064Y-101001675D01*
X212408064Y-101192151D02*
X212360445Y-101096913D01*
X212360445Y-101096913D02*
X212312826Y-101049294D01*
X212312826Y-101049294D02*
X212217588Y-101001675D01*
X212217588Y-101001675D02*
X212122350Y-101001675D01*
X210884254Y-101668342D02*
X210979492Y-101620723D01*
X210979492Y-101620723D02*
X211027111Y-101525484D01*
X211027111Y-101525484D02*
X211027111Y-100668342D01*
X210074730Y-101668342D02*
X210074730Y-101144532D01*
X210074730Y-101144532D02*
X210122349Y-101049294D01*
X210122349Y-101049294D02*
X210217587Y-101001675D01*
X210217587Y-101001675D02*
X210408063Y-101001675D01*
X210408063Y-101001675D02*
X210503301Y-101049294D01*
X210074730Y-101620723D02*
X210169968Y-101668342D01*
X210169968Y-101668342D02*
X210408063Y-101668342D01*
X210408063Y-101668342D02*
X210503301Y-101620723D01*
X210503301Y-101620723D02*
X210550920Y-101525484D01*
X210550920Y-101525484D02*
X210550920Y-101430246D01*
X210550920Y-101430246D02*
X210503301Y-101335008D01*
X210503301Y-101335008D02*
X210408063Y-101287389D01*
X210408063Y-101287389D02*
X210169968Y-101287389D01*
X210169968Y-101287389D02*
X210074730Y-101239770D01*
X209693777Y-101001675D02*
X209455682Y-101668342D01*
X209217587Y-101001675D02*
X209455682Y-101668342D01*
X209455682Y-101668342D02*
X209550920Y-101906437D01*
X209550920Y-101906437D02*
X209598539Y-101954056D01*
X209598539Y-101954056D02*
X209693777Y-102001675D01*
X208693777Y-101668342D02*
X208789015Y-101620723D01*
X208789015Y-101620723D02*
X208836634Y-101573103D01*
X208836634Y-101573103D02*
X208884253Y-101477865D01*
X208884253Y-101477865D02*
X208884253Y-101192151D01*
X208884253Y-101192151D02*
X208836634Y-101096913D01*
X208836634Y-101096913D02*
X208789015Y-101049294D01*
X208789015Y-101049294D02*
X208693777Y-101001675D01*
X208693777Y-101001675D02*
X208550920Y-101001675D01*
X208550920Y-101001675D02*
X208455682Y-101049294D01*
X208455682Y-101049294D02*
X208408063Y-101096913D01*
X208408063Y-101096913D02*
X208360444Y-101192151D01*
X208360444Y-101192151D02*
X208360444Y-101477865D01*
X208360444Y-101477865D02*
X208408063Y-101573103D01*
X208408063Y-101573103D02*
X208455682Y-101620723D01*
X208455682Y-101620723D02*
X208550920Y-101668342D01*
X208550920Y-101668342D02*
X208693777Y-101668342D01*
X207503301Y-101001675D02*
X207503301Y-101668342D01*
X207931872Y-101001675D02*
X207931872Y-101525484D01*
X207931872Y-101525484D02*
X207884253Y-101620723D01*
X207884253Y-101620723D02*
X207789015Y-101668342D01*
X207789015Y-101668342D02*
X207646158Y-101668342D01*
X207646158Y-101668342D02*
X207550920Y-101620723D01*
X207550920Y-101620723D02*
X207503301Y-101573103D01*
X207169967Y-101001675D02*
X206789015Y-101001675D01*
X207027110Y-100668342D02*
X207027110Y-101525484D01*
X207027110Y-101525484D02*
X206979491Y-101620723D01*
X206979491Y-101620723D02*
X206884253Y-101668342D01*
X206884253Y-101668342D02*
X206789015Y-101668342D01*
X206503300Y-101620723D02*
X206408062Y-101668342D01*
X206408062Y-101668342D02*
X206217586Y-101668342D01*
X206217586Y-101668342D02*
X206122348Y-101620723D01*
X206122348Y-101620723D02*
X206074729Y-101525484D01*
X206074729Y-101525484D02*
X206074729Y-101477865D01*
X206074729Y-101477865D02*
X206122348Y-101382627D01*
X206122348Y-101382627D02*
X206217586Y-101335008D01*
X206217586Y-101335008D02*
X206360443Y-101335008D01*
X206360443Y-101335008D02*
X206455681Y-101287389D01*
X206455681Y-101287389D02*
X206503300Y-101192151D01*
X206503300Y-101192151D02*
X206503300Y-101144532D01*
X206503300Y-101144532D02*
X206455681Y-101049294D01*
X206455681Y-101049294D02*
X206360443Y-101001675D01*
X206360443Y-101001675D02*
X206217586Y-101001675D01*
X206217586Y-101001675D02*
X206122348Y-101049294D01*
X205027109Y-101001675D02*
X204646157Y-101001675D01*
X204884252Y-101668342D02*
X204884252Y-100811199D01*
X204884252Y-100811199D02*
X204836633Y-100715961D01*
X204836633Y-100715961D02*
X204741395Y-100668342D01*
X204741395Y-100668342D02*
X204646157Y-100668342D01*
X204169966Y-101668342D02*
X204265204Y-101620723D01*
X204265204Y-101620723D02*
X204312823Y-101573103D01*
X204312823Y-101573103D02*
X204360442Y-101477865D01*
X204360442Y-101477865D02*
X204360442Y-101192151D01*
X204360442Y-101192151D02*
X204312823Y-101096913D01*
X204312823Y-101096913D02*
X204265204Y-101049294D01*
X204265204Y-101049294D02*
X204169966Y-101001675D01*
X204169966Y-101001675D02*
X204027109Y-101001675D01*
X204027109Y-101001675D02*
X203931871Y-101049294D01*
X203931871Y-101049294D02*
X203884252Y-101096913D01*
X203884252Y-101096913D02*
X203836633Y-101192151D01*
X203836633Y-101192151D02*
X203836633Y-101477865D01*
X203836633Y-101477865D02*
X203884252Y-101573103D01*
X203884252Y-101573103D02*
X203931871Y-101620723D01*
X203931871Y-101620723D02*
X204027109Y-101668342D01*
X204027109Y-101668342D02*
X204169966Y-101668342D01*
X203408061Y-101668342D02*
X203408061Y-101001675D01*
X203408061Y-101192151D02*
X203360442Y-101096913D01*
X203360442Y-101096913D02*
X203312823Y-101049294D01*
X203312823Y-101049294D02*
X203217585Y-101001675D01*
X203217585Y-101001675D02*
X203122347Y-101001675D01*
X201884251Y-101668342D02*
X201979489Y-101620723D01*
X201979489Y-101620723D02*
X202027108Y-101573103D01*
X202027108Y-101573103D02*
X202074727Y-101477865D01*
X202074727Y-101477865D02*
X202074727Y-101192151D01*
X202074727Y-101192151D02*
X202027108Y-101096913D01*
X202027108Y-101096913D02*
X201979489Y-101049294D01*
X201979489Y-101049294D02*
X201884251Y-101001675D01*
X201884251Y-101001675D02*
X201741394Y-101001675D01*
X201741394Y-101001675D02*
X201646156Y-101049294D01*
X201646156Y-101049294D02*
X201598537Y-101096913D01*
X201598537Y-101096913D02*
X201550918Y-101192151D01*
X201550918Y-101192151D02*
X201550918Y-101477865D01*
X201550918Y-101477865D02*
X201598537Y-101573103D01*
X201598537Y-101573103D02*
X201646156Y-101620723D01*
X201646156Y-101620723D02*
X201741394Y-101668342D01*
X201741394Y-101668342D02*
X201884251Y-101668342D01*
X201122346Y-101668342D02*
X201122346Y-101001675D01*
X201122346Y-101192151D02*
X201074727Y-101096913D01*
X201074727Y-101096913D02*
X201027108Y-101049294D01*
X201027108Y-101049294D02*
X200931870Y-101001675D01*
X200931870Y-101001675D02*
X200836632Y-101001675D01*
X200646155Y-101001675D02*
X200265203Y-101001675D01*
X200503298Y-100668342D02*
X200503298Y-101525484D01*
X200503298Y-101525484D02*
X200455679Y-101620723D01*
X200455679Y-101620723D02*
X200360441Y-101668342D01*
X200360441Y-101668342D02*
X200265203Y-101668342D01*
X199931869Y-101668342D02*
X199931869Y-100668342D01*
X199503298Y-101668342D02*
X199503298Y-101144532D01*
X199503298Y-101144532D02*
X199550917Y-101049294D01*
X199550917Y-101049294D02*
X199646155Y-101001675D01*
X199646155Y-101001675D02*
X199789012Y-101001675D01*
X199789012Y-101001675D02*
X199884250Y-101049294D01*
X199884250Y-101049294D02*
X199931869Y-101096913D01*
X198884250Y-101668342D02*
X198979488Y-101620723D01*
X198979488Y-101620723D02*
X199027107Y-101573103D01*
X199027107Y-101573103D02*
X199074726Y-101477865D01*
X199074726Y-101477865D02*
X199074726Y-101192151D01*
X199074726Y-101192151D02*
X199027107Y-101096913D01*
X199027107Y-101096913D02*
X198979488Y-101049294D01*
X198979488Y-101049294D02*
X198884250Y-101001675D01*
X198884250Y-101001675D02*
X198741393Y-101001675D01*
X198741393Y-101001675D02*
X198646155Y-101049294D01*
X198646155Y-101049294D02*
X198598536Y-101096913D01*
X198598536Y-101096913D02*
X198550917Y-101192151D01*
X198550917Y-101192151D02*
X198550917Y-101477865D01*
X198550917Y-101477865D02*
X198598536Y-101573103D01*
X198598536Y-101573103D02*
X198646155Y-101620723D01*
X198646155Y-101620723D02*
X198741393Y-101668342D01*
X198741393Y-101668342D02*
X198884250Y-101668342D01*
X196789012Y-101573103D02*
X196836631Y-101620723D01*
X196836631Y-101620723D02*
X196979488Y-101668342D01*
X196979488Y-101668342D02*
X197074726Y-101668342D01*
X197074726Y-101668342D02*
X197217583Y-101620723D01*
X197217583Y-101620723D02*
X197312821Y-101525484D01*
X197312821Y-101525484D02*
X197360440Y-101430246D01*
X197360440Y-101430246D02*
X197408059Y-101239770D01*
X197408059Y-101239770D02*
X197408059Y-101096913D01*
X197408059Y-101096913D02*
X197360440Y-100906437D01*
X197360440Y-100906437D02*
X197312821Y-100811199D01*
X197312821Y-100811199D02*
X197217583Y-100715961D01*
X197217583Y-100715961D02*
X197074726Y-100668342D01*
X197074726Y-100668342D02*
X196979488Y-100668342D01*
X196979488Y-100668342D02*
X196836631Y-100715961D01*
X196836631Y-100715961D02*
X196789012Y-100763580D01*
X195931869Y-101001675D02*
X195931869Y-101668342D01*
X196360440Y-101001675D02*
X196360440Y-101525484D01*
X196360440Y-101525484D02*
X196312821Y-101620723D01*
X196312821Y-101620723D02*
X196217583Y-101668342D01*
X196217583Y-101668342D02*
X196074726Y-101668342D01*
X196074726Y-101668342D02*
X195979488Y-101620723D01*
X195979488Y-101620723D02*
X195931869Y-101573103D01*
X195598535Y-101001675D02*
X195217583Y-101001675D01*
X195455678Y-100668342D02*
X195455678Y-101525484D01*
X195455678Y-101525484D02*
X195408059Y-101620723D01*
X195408059Y-101620723D02*
X195312821Y-101668342D01*
X195312821Y-101668342D02*
X195217583Y-101668342D01*
X194884249Y-101668342D02*
X194884249Y-101001675D01*
X194884249Y-100668342D02*
X194931868Y-100715961D01*
X194931868Y-100715961D02*
X194884249Y-100763580D01*
X194884249Y-100763580D02*
X194836630Y-100715961D01*
X194836630Y-100715961D02*
X194884249Y-100668342D01*
X194884249Y-100668342D02*
X194884249Y-100763580D01*
X194027107Y-101620723D02*
X194122345Y-101668342D01*
X194122345Y-101668342D02*
X194312821Y-101668342D01*
X194312821Y-101668342D02*
X194408059Y-101620723D01*
X194408059Y-101620723D02*
X194455678Y-101525484D01*
X194455678Y-101525484D02*
X194455678Y-101144532D01*
X194455678Y-101144532D02*
X194408059Y-101049294D01*
X194408059Y-101049294D02*
X194312821Y-101001675D01*
X194312821Y-101001675D02*
X194122345Y-101001675D01*
X194122345Y-101001675D02*
X194027107Y-101049294D01*
X194027107Y-101049294D02*
X193979488Y-101144532D01*
X193979488Y-101144532D02*
X193979488Y-101239770D01*
X193979488Y-101239770D02*
X194455678Y-101335008D01*
X193550916Y-101001675D02*
X193550916Y-102001675D01*
X193550916Y-101049294D02*
X193455678Y-101001675D01*
X193455678Y-101001675D02*
X193265202Y-101001675D01*
X193265202Y-101001675D02*
X193169964Y-101049294D01*
X193169964Y-101049294D02*
X193122345Y-101096913D01*
X193122345Y-101096913D02*
X193074726Y-101192151D01*
X193074726Y-101192151D02*
X193074726Y-101477865D01*
X193074726Y-101477865D02*
X193122345Y-101573103D01*
X193122345Y-101573103D02*
X193169964Y-101620723D01*
X193169964Y-101620723D02*
X193265202Y-101668342D01*
X193265202Y-101668342D02*
X193455678Y-101668342D01*
X193455678Y-101668342D02*
X193550916Y-101620723D01*
X192646154Y-101668342D02*
X192646154Y-101001675D01*
X192646154Y-100668342D02*
X192693773Y-100715961D01*
X192693773Y-100715961D02*
X192646154Y-100763580D01*
X192646154Y-100763580D02*
X192598535Y-100715961D01*
X192598535Y-100715961D02*
X192646154Y-100668342D01*
X192646154Y-100668342D02*
X192646154Y-100763580D01*
X191789012Y-101620723D02*
X191884250Y-101668342D01*
X191884250Y-101668342D02*
X192074726Y-101668342D01*
X192074726Y-101668342D02*
X192169964Y-101620723D01*
X192169964Y-101620723D02*
X192217583Y-101525484D01*
X192217583Y-101525484D02*
X192217583Y-101144532D01*
X192217583Y-101144532D02*
X192169964Y-101049294D01*
X192169964Y-101049294D02*
X192074726Y-101001675D01*
X192074726Y-101001675D02*
X191884250Y-101001675D01*
X191884250Y-101001675D02*
X191789012Y-101049294D01*
X191789012Y-101049294D02*
X191741393Y-101144532D01*
X191741393Y-101144532D02*
X191741393Y-101239770D01*
X191741393Y-101239770D02*
X192217583Y-101335008D01*
X191312821Y-101573103D02*
X191265202Y-101620723D01*
X191265202Y-101620723D02*
X191312821Y-101668342D01*
X191312821Y-101668342D02*
X191360440Y-101620723D01*
X191360440Y-101620723D02*
X191312821Y-101573103D01*
X191312821Y-101573103D02*
X191312821Y-101668342D01*
M02*
