%TF.GenerationSoftware,KiCad,Pcbnew,7.0.6*%
%TF.CreationDate,2023-10-08T00:22:18-04:00*%
%TF.ProjectId,ortho-fr4-plate,6f727468-6f2d-4667-9234-2d706c617465,rev?*%
%TF.SameCoordinates,Original*%
%TF.FileFunction,Copper,L1,Top*%
%TF.FilePolarity,Positive*%
%FSLAX46Y46*%
G04 Gerber Fmt 4.6, Leading zero omitted, Abs format (unit mm)*
G04 Created by KiCad (PCBNEW 7.0.6) date 2023-10-08 00:22:18*
%MOMM*%
%LPD*%
G01*
G04 APERTURE LIST*
G04 APERTURE END LIST*
%TA.AperFunction,NonConductor*%
G36*
X61489850Y-38289125D02*
G01*
X61507132Y-38289554D01*
X61513236Y-38290007D01*
X61610824Y-38302113D01*
X61793908Y-38324825D01*
X61811773Y-38328392D01*
X62076486Y-38401830D01*
X62093552Y-38407941D01*
X62344283Y-38519039D01*
X62360299Y-38527590D01*
X62510014Y-38622232D01*
X62592902Y-38674630D01*
X62607595Y-38685514D01*
X62823202Y-38871329D01*
X62826558Y-38874446D01*
X67646769Y-43694657D01*
X67648297Y-43696430D01*
X67653336Y-43701224D01*
X67659981Y-43707870D01*
X67661930Y-43709402D01*
X67723136Y-43767648D01*
X67725213Y-43769812D01*
X67727379Y-43771677D01*
X67734323Y-43778256D01*
X67734137Y-43778452D01*
X67737152Y-43780848D01*
X67763138Y-43806816D01*
X67796484Y-43825169D01*
X67885585Y-43894604D01*
X67957829Y-43950902D01*
X67958156Y-43951179D01*
X67959605Y-43951951D01*
X68107330Y-44035512D01*
X68211512Y-44094443D01*
X68213153Y-44095429D01*
X68214992Y-44096078D01*
X68415767Y-44173559D01*
X68485848Y-44200604D01*
X68486042Y-44200688D01*
X68486044Y-44200690D01*
X68486046Y-44200690D01*
X68486233Y-44200772D01*
X68487805Y-44201087D01*
X68770899Y-44264890D01*
X68772524Y-44265295D01*
X68774270Y-44265382D01*
X69063597Y-44286854D01*
X69065924Y-44287186D01*
X69069539Y-44287319D01*
X69071875Y-44287175D01*
X222947712Y-44287215D01*
X222951170Y-44287586D01*
X222959614Y-44287270D01*
X222962528Y-44287229D01*
X222970571Y-44287305D01*
X222973749Y-44286902D01*
X223057253Y-44284832D01*
X223061236Y-44284919D01*
X223064091Y-44284706D01*
X223073816Y-44284576D01*
X223073816Y-44284600D01*
X223076781Y-44284258D01*
X223113424Y-44284257D01*
X223150176Y-44273604D01*
X223351500Y-44248629D01*
X223353195Y-44248458D01*
X223354844Y-44247956D01*
X223633679Y-44170600D01*
X223635534Y-44170142D01*
X223637176Y-44169366D01*
X223901422Y-44052280D01*
X223903097Y-44051589D01*
X223904594Y-44050588D01*
X224149618Y-43895695D01*
X224151264Y-43894718D01*
X224152699Y-43893412D01*
X224372403Y-43704066D01*
X224374624Y-43702396D01*
X224376739Y-43700439D01*
X224378596Y-43698319D01*
X225373385Y-42703530D01*
X226791226Y-41286694D01*
X233390063Y-41286694D01*
X233397769Y-41374776D01*
X233398054Y-41378027D01*
X233398290Y-41383433D01*
X233398290Y-41390803D01*
X233396630Y-41396453D01*
X233397768Y-41409451D01*
X233400681Y-41418145D01*
X233401961Y-41425403D01*
X233402667Y-41430766D01*
X233410658Y-41522097D01*
X233410660Y-41522107D01*
X233434382Y-41610641D01*
X233435554Y-41615924D01*
X233436836Y-41623200D01*
X233436183Y-41629051D01*
X233439557Y-41641643D01*
X233443942Y-41649711D01*
X233446460Y-41656632D01*
X233448086Y-41661790D01*
X233471819Y-41750357D01*
X233510567Y-41833453D01*
X233512638Y-41838452D01*
X233515154Y-41845364D01*
X233515527Y-41851245D01*
X233521046Y-41863081D01*
X233526773Y-41870275D01*
X233530448Y-41876643D01*
X233532938Y-41881429D01*
X233558658Y-41936583D01*
X233571687Y-41964524D01*
X233624264Y-42039611D01*
X233624284Y-42039640D01*
X233627195Y-42044210D01*
X233630868Y-42050573D01*
X233632255Y-42056295D01*
X233639736Y-42066979D01*
X233646609Y-42073053D01*
X233651336Y-42078686D01*
X233654625Y-42082973D01*
X233687007Y-42129218D01*
X233707227Y-42158095D01*
X233707228Y-42158096D01*
X233707229Y-42158097D01*
X233772063Y-42222931D01*
X233775719Y-42226921D01*
X233780442Y-42232548D01*
X233782805Y-42237948D01*
X233792034Y-42247177D01*
X233799862Y-42251969D01*
X233805495Y-42256696D01*
X233809470Y-42260338D01*
X233874321Y-42325189D01*
X233949441Y-42377789D01*
X233953721Y-42381072D01*
X233959357Y-42385802D01*
X233962621Y-42390707D01*
X233973309Y-42398192D01*
X233981849Y-42401551D01*
X233988218Y-42405228D01*
X233992757Y-42408119D01*
X234067892Y-42460729D01*
X234150996Y-42499481D01*
X234155784Y-42501973D01*
X234159039Y-42503852D01*
X234162154Y-42505650D01*
X234166224Y-42509917D01*
X234178058Y-42515436D01*
X234187053Y-42517262D01*
X234193962Y-42519777D01*
X234198960Y-42521847D01*
X234282059Y-42560597D01*
X234282061Y-42560598D01*
X234322187Y-42571349D01*
X234370631Y-42584329D01*
X234375778Y-42585952D01*
X234382715Y-42588477D01*
X234387456Y-42591968D01*
X234400046Y-42595341D01*
X234409214Y-42595576D01*
X234412810Y-42596211D01*
X234416480Y-42596858D01*
X234421750Y-42598026D01*
X234510314Y-42621757D01*
X234601690Y-42629751D01*
X234606982Y-42630448D01*
X234614289Y-42631737D01*
X234619559Y-42634349D01*
X234632541Y-42635485D01*
X234641613Y-42634126D01*
X234648982Y-42634126D01*
X234654385Y-42634361D01*
X234708735Y-42639117D01*
X234745721Y-42642353D01*
X234745722Y-42642353D01*
X234745723Y-42642353D01*
X234782708Y-42639117D01*
X234837058Y-42634361D01*
X234842462Y-42634126D01*
X234849829Y-42634126D01*
X234855479Y-42635785D01*
X234868465Y-42634648D01*
X234877154Y-42631737D01*
X234884474Y-42630446D01*
X234889756Y-42629751D01*
X234981130Y-42621757D01*
X235069712Y-42598021D01*
X235074947Y-42596860D01*
X235082228Y-42595577D01*
X235088081Y-42596230D01*
X235100670Y-42592856D01*
X235108729Y-42588477D01*
X235115686Y-42585945D01*
X235120799Y-42584333D01*
X235193532Y-42564844D01*
X235209382Y-42560598D01*
X235209383Y-42560597D01*
X235209385Y-42560597D01*
X235292516Y-42521831D01*
X235297479Y-42519777D01*
X235304400Y-42517257D01*
X235310276Y-42516884D01*
X235322533Y-42511169D01*
X235330145Y-42505159D01*
X235329862Y-42505319D01*
X235335653Y-42501976D01*
X235340427Y-42499490D01*
X235423552Y-42460729D01*
X235498676Y-42408126D01*
X235503205Y-42405240D01*
X235509576Y-42401561D01*
X235515305Y-42400170D01*
X235526006Y-42392677D01*
X235532078Y-42385809D01*
X235537744Y-42381054D01*
X235541977Y-42377806D01*
X235617123Y-42325189D01*
X235681984Y-42260327D01*
X235685924Y-42256716D01*
X235691573Y-42251976D01*
X235696974Y-42249612D01*
X235706205Y-42240381D01*
X235710998Y-42232552D01*
X235715740Y-42226902D01*
X235719353Y-42222958D01*
X235784217Y-42158095D01*
X235836834Y-42082949D01*
X235840082Y-42078716D01*
X235844835Y-42073051D01*
X235849736Y-42069791D01*
X235857225Y-42059096D01*
X235860586Y-42050553D01*
X235864274Y-42044168D01*
X235867160Y-42039640D01*
X235919757Y-41964524D01*
X235958515Y-41881408D01*
X235960998Y-41876637D01*
X235961714Y-41875395D01*
X235964675Y-41870266D01*
X235968941Y-41866197D01*
X235974460Y-41854362D01*
X235976286Y-41845371D01*
X235976293Y-41845352D01*
X235978812Y-41838433D01*
X235980859Y-41833488D01*
X236019625Y-41750357D01*
X236043361Y-41661771D01*
X236044973Y-41656658D01*
X236047503Y-41649706D01*
X236050994Y-41644964D01*
X236054368Y-41632374D01*
X236054605Y-41623200D01*
X236055892Y-41615905D01*
X236057049Y-41610684D01*
X236080785Y-41522102D01*
X236088779Y-41430728D01*
X236089474Y-41425443D01*
X236093154Y-41404579D01*
X236093154Y-41404566D01*
X236093402Y-41403162D01*
X236093409Y-41403113D01*
X236094628Y-41396199D01*
X236093511Y-41388154D01*
X236093802Y-41374795D01*
X236094019Y-41370834D01*
X236101381Y-41286694D01*
X236094019Y-41202557D01*
X236093802Y-41198588D01*
X236093511Y-41185233D01*
X236095046Y-41179553D01*
X236093501Y-41170789D01*
X236093493Y-41170733D01*
X236093154Y-41168809D01*
X236089474Y-41147944D01*
X236088779Y-41142656D01*
X236080785Y-41051286D01*
X236057054Y-40962718D01*
X236055886Y-40957452D01*
X236054605Y-40950187D01*
X236055257Y-40944334D01*
X236051886Y-40931749D01*
X236047505Y-40923687D01*
X236044983Y-40916758D01*
X236043355Y-40911595D01*
X236020190Y-40825138D01*
X236019628Y-40823040D01*
X236019626Y-40823036D01*
X236019625Y-40823031D01*
X235980873Y-40739928D01*
X235978805Y-40734934D01*
X235976290Y-40728025D01*
X235975915Y-40722143D01*
X235970402Y-40710319D01*
X235964682Y-40703133D01*
X235961004Y-40696761D01*
X235958511Y-40691972D01*
X235919757Y-40608865D01*
X235867155Y-40533742D01*
X235864252Y-40529183D01*
X235860580Y-40522823D01*
X235860578Y-40522820D01*
X235859189Y-40517095D01*
X235851711Y-40506414D01*
X235844832Y-40500332D01*
X235840091Y-40494682D01*
X235836811Y-40490406D01*
X235784217Y-40415293D01*
X235719366Y-40350442D01*
X235715728Y-40346471D01*
X235710997Y-40340834D01*
X235708635Y-40335436D01*
X235699412Y-40326213D01*
X235691577Y-40321415D01*
X235689854Y-40319969D01*
X235685949Y-40316691D01*
X235681959Y-40313035D01*
X235617125Y-40248201D01*
X235617125Y-40248200D01*
X235617123Y-40248199D01*
X235588246Y-40227979D01*
X235542001Y-40195597D01*
X235537714Y-40192308D01*
X235532081Y-40187581D01*
X235528819Y-40182677D01*
X235518140Y-40175200D01*
X235509601Y-40171840D01*
X235506097Y-40169817D01*
X235503232Y-40168163D01*
X235498668Y-40165256D01*
X235423552Y-40112659D01*
X235395611Y-40099630D01*
X235340457Y-40073910D01*
X235335671Y-40071420D01*
X235329303Y-40067745D01*
X235325227Y-40063472D01*
X235313391Y-40057953D01*
X235304392Y-40056126D01*
X235297480Y-40053610D01*
X235292481Y-40051539D01*
X235209385Y-40012791D01*
X235120818Y-39989058D01*
X235115660Y-39987432D01*
X235108739Y-39984914D01*
X235103991Y-39981418D01*
X235091402Y-39978045D01*
X235082228Y-39977808D01*
X235074952Y-39976526D01*
X235069669Y-39975354D01*
X234981135Y-39951632D01*
X234981125Y-39951630D01*
X234889794Y-39943639D01*
X234884431Y-39942933D01*
X234877173Y-39941653D01*
X234871899Y-39939039D01*
X234858903Y-39937902D01*
X234849832Y-39939262D01*
X234842462Y-39939262D01*
X234837058Y-39939026D01*
X234782708Y-39934270D01*
X234745723Y-39931035D01*
X234745721Y-39931035D01*
X234708735Y-39934270D01*
X234654385Y-39939026D01*
X234648982Y-39939262D01*
X234641611Y-39939262D01*
X234635960Y-39937602D01*
X234622974Y-39938739D01*
X234614279Y-39941652D01*
X234607021Y-39942932D01*
X234601653Y-39943639D01*
X234510311Y-39951631D01*
X234421771Y-39975355D01*
X234416489Y-39976526D01*
X234409213Y-39977808D01*
X234403364Y-39977155D01*
X234390776Y-39980528D01*
X234382708Y-39984912D01*
X234375793Y-39987429D01*
X234370633Y-39989056D01*
X234282058Y-40012791D01*
X234198956Y-40051541D01*
X234193960Y-40053610D01*
X234187051Y-40056125D01*
X234181170Y-40056498D01*
X234169355Y-40062008D01*
X234162176Y-40067724D01*
X234155810Y-40071400D01*
X234151006Y-40073901D01*
X234067896Y-40112656D01*
X233992780Y-40165252D01*
X233988216Y-40168160D01*
X233981851Y-40171834D01*
X233976127Y-40173222D01*
X233965431Y-40180711D01*
X233959345Y-40187596D01*
X233953719Y-40192314D01*
X233949434Y-40195603D01*
X233874320Y-40248198D01*
X233809472Y-40313046D01*
X233805471Y-40316712D01*
X233799840Y-40321434D01*
X233794452Y-40323790D01*
X233785244Y-40332998D01*
X233780462Y-40340812D01*
X233775740Y-40346443D01*
X233772074Y-40350444D01*
X233707226Y-40415293D01*
X233654630Y-40490406D01*
X233651343Y-40494690D01*
X233646626Y-40500314D01*
X233641714Y-40503582D01*
X233634222Y-40514283D01*
X233630862Y-40522823D01*
X233627188Y-40529188D01*
X233624280Y-40533752D01*
X233571684Y-40608868D01*
X233532929Y-40691978D01*
X233530428Y-40696782D01*
X233526752Y-40703148D01*
X233522488Y-40707211D01*
X233516979Y-40719026D01*
X233515153Y-40728023D01*
X233512638Y-40734932D01*
X233510569Y-40739928D01*
X233471819Y-40823030D01*
X233448087Y-40911595D01*
X233446467Y-40916734D01*
X233444267Y-40922785D01*
X233443888Y-40923824D01*
X233440420Y-40928521D01*
X233437072Y-40941019D01*
X233436836Y-40950185D01*
X233435554Y-40957461D01*
X233434383Y-40962743D01*
X233410659Y-41051283D01*
X233410659Y-41051284D01*
X233402667Y-41142619D01*
X233401962Y-41147977D01*
X233400685Y-41155229D01*
X233398067Y-41160511D01*
X233396930Y-41173513D01*
X233398290Y-41182583D01*
X233398290Y-41189953D01*
X233398054Y-41195358D01*
X233390063Y-41286694D01*
X226791226Y-41286694D01*
X229261132Y-38818540D01*
X229273721Y-38806561D01*
X229278346Y-38802574D01*
X229501432Y-38628728D01*
X229516593Y-38618614D01*
X229755700Y-38483364D01*
X229772089Y-38475618D01*
X230027939Y-38376883D01*
X230045317Y-38371603D01*
X230313759Y-38311101D01*
X230331831Y-38308409D01*
X230615685Y-38287344D01*
X230620274Y-38287175D01*
X232351298Y-38287175D01*
X239115190Y-38289125D01*
X239132489Y-38289554D01*
X239138564Y-38290005D01*
X239419248Y-38324825D01*
X239437113Y-38328392D01*
X239701826Y-38401830D01*
X239718892Y-38407941D01*
X239969623Y-38519039D01*
X239985639Y-38527590D01*
X240135354Y-38622232D01*
X240218242Y-38674630D01*
X240232935Y-38685514D01*
X240448542Y-38871329D01*
X240451898Y-38874446D01*
X241448018Y-39870566D01*
X241917912Y-40340793D01*
X245333000Y-43758305D01*
X245344985Y-43770899D01*
X245348968Y-43775521D01*
X245351252Y-43778452D01*
X245485797Y-43951106D01*
X245522807Y-43998598D01*
X245532928Y-44013767D01*
X245668177Y-44252869D01*
X245675929Y-44269270D01*
X245682895Y-44287319D01*
X245774659Y-44525104D01*
X245779940Y-44542484D01*
X245840443Y-44810924D01*
X245843137Y-44829010D01*
X245864203Y-45112857D01*
X245864373Y-45117448D01*
X245864293Y-60311505D01*
X245862017Y-119738963D01*
X245861593Y-119756046D01*
X245861140Y-119762144D01*
X245826321Y-120042804D01*
X245822751Y-120060687D01*
X245749315Y-120325380D01*
X245743197Y-120342465D01*
X245632100Y-120593187D01*
X245623544Y-120609211D01*
X245476506Y-120841806D01*
X245465622Y-120856499D01*
X245279814Y-121072093D01*
X245276688Y-121075459D01*
X244280416Y-122071711D01*
X240392796Y-125956491D01*
X240380192Y-125968486D01*
X240375556Y-125972481D01*
X240152478Y-126146315D01*
X240137310Y-126156435D01*
X239898221Y-126291674D01*
X239881813Y-126299429D01*
X239625964Y-126398160D01*
X239608583Y-126403441D01*
X239340154Y-126463935D01*
X239322068Y-126466629D01*
X239038222Y-126487690D01*
X239033632Y-126487860D01*
X237300537Y-126487843D01*
X230538732Y-126485821D01*
X230521425Y-126485391D01*
X230515326Y-126484938D01*
X230234667Y-126450118D01*
X230216784Y-126446548D01*
X229952091Y-126373113D01*
X229935006Y-126366995D01*
X229684284Y-126255898D01*
X229668260Y-126247342D01*
X229435665Y-126100304D01*
X229420972Y-126089420D01*
X229285287Y-125972481D01*
X229205369Y-125903603D01*
X229202013Y-125900487D01*
X226789877Y-123488300D01*
X233390063Y-123488300D01*
X233397858Y-123577399D01*
X233398054Y-123579633D01*
X233398290Y-123585039D01*
X233398290Y-123592409D01*
X233396630Y-123598059D01*
X233397768Y-123611057D01*
X233400681Y-123619751D01*
X233401961Y-123627009D01*
X233402667Y-123632372D01*
X233410658Y-123723703D01*
X233410660Y-123723713D01*
X233434382Y-123812247D01*
X233435554Y-123817530D01*
X233436836Y-123824806D01*
X233436183Y-123830657D01*
X233439557Y-123843249D01*
X233443942Y-123851317D01*
X233446460Y-123858238D01*
X233448086Y-123863396D01*
X233471819Y-123951963D01*
X233510567Y-124035059D01*
X233512638Y-124040058D01*
X233515154Y-124046970D01*
X233515527Y-124052851D01*
X233521046Y-124064687D01*
X233526773Y-124071881D01*
X233530448Y-124078249D01*
X233532938Y-124083035D01*
X233558658Y-124138189D01*
X233571687Y-124166130D01*
X233624277Y-124241236D01*
X233624284Y-124241246D01*
X233627195Y-124245816D01*
X233630868Y-124252179D01*
X233632255Y-124257901D01*
X233639736Y-124268585D01*
X233646609Y-124274659D01*
X233651336Y-124280292D01*
X233654625Y-124284579D01*
X233687007Y-124330824D01*
X233707227Y-124359701D01*
X233707229Y-124359702D01*
X233707229Y-124359703D01*
X233772063Y-124424537D01*
X233775719Y-124428527D01*
X233780442Y-124434154D01*
X233782805Y-124439554D01*
X233792034Y-124448783D01*
X233799862Y-124453575D01*
X233805495Y-124458302D01*
X233809470Y-124461944D01*
X233848308Y-124500782D01*
X233874322Y-124526796D01*
X233874719Y-124527074D01*
X233949441Y-124579395D01*
X233953721Y-124582678D01*
X233959357Y-124587408D01*
X233962621Y-124592313D01*
X233973309Y-124599798D01*
X233981848Y-124603156D01*
X233982323Y-124603431D01*
X233988218Y-124606834D01*
X233992761Y-124609728D01*
X234067892Y-124662335D01*
X234150996Y-124701087D01*
X234155784Y-124703579D01*
X234159039Y-124705458D01*
X234162154Y-124707256D01*
X234166224Y-124711523D01*
X234178058Y-124717042D01*
X234187053Y-124718868D01*
X234193962Y-124721383D01*
X234198956Y-124723451D01*
X234242626Y-124743815D01*
X234282059Y-124762203D01*
X234282061Y-124762204D01*
X234322187Y-124772955D01*
X234370631Y-124785935D01*
X234375778Y-124787558D01*
X234382715Y-124790083D01*
X234387456Y-124793574D01*
X234400046Y-124796947D01*
X234409214Y-124797182D01*
X234409430Y-124797221D01*
X234416480Y-124798464D01*
X234421750Y-124799632D01*
X234510314Y-124823363D01*
X234601690Y-124831357D01*
X234606982Y-124832054D01*
X234614289Y-124833343D01*
X234619559Y-124835955D01*
X234632541Y-124837091D01*
X234641613Y-124835732D01*
X234648982Y-124835732D01*
X234654385Y-124835967D01*
X234678458Y-124838074D01*
X234745721Y-124843959D01*
X234745722Y-124843959D01*
X234745723Y-124843959D01*
X234812986Y-124838074D01*
X234837058Y-124835967D01*
X234842462Y-124835732D01*
X234849829Y-124835732D01*
X234855479Y-124837391D01*
X234868465Y-124836254D01*
X234877154Y-124833343D01*
X234884474Y-124832052D01*
X234889756Y-124831357D01*
X234981130Y-124823363D01*
X235069712Y-124799627D01*
X235074947Y-124798466D01*
X235082228Y-124797183D01*
X235088081Y-124797836D01*
X235100670Y-124794462D01*
X235108729Y-124790083D01*
X235115686Y-124787551D01*
X235120799Y-124785939D01*
X235208359Y-124762478D01*
X235209382Y-124762204D01*
X235209383Y-124762203D01*
X235209385Y-124762203D01*
X235292516Y-124723437D01*
X235297479Y-124721383D01*
X235304400Y-124718863D01*
X235310276Y-124718490D01*
X235322106Y-124712974D01*
X235329290Y-124707256D01*
X235334423Y-124704292D01*
X235335665Y-124703576D01*
X235340438Y-124701091D01*
X235423552Y-124662335D01*
X235498676Y-124609732D01*
X235503205Y-124606846D01*
X235509576Y-124603167D01*
X235515305Y-124601776D01*
X235526006Y-124594283D01*
X235532078Y-124587415D01*
X235537744Y-124582660D01*
X235541977Y-124579412D01*
X235617123Y-124526795D01*
X235681984Y-124461933D01*
X235685924Y-124458322D01*
X235691573Y-124453582D01*
X235696974Y-124451218D01*
X235706205Y-124441987D01*
X235710998Y-124434158D01*
X235715739Y-124428509D01*
X235719353Y-124424564D01*
X235784217Y-124359701D01*
X235836834Y-124284555D01*
X235840082Y-124280322D01*
X235844835Y-124274657D01*
X235849736Y-124271397D01*
X235857225Y-124260702D01*
X235860586Y-124252159D01*
X235864268Y-124245783D01*
X235867160Y-124241246D01*
X235919757Y-124166130D01*
X235958513Y-124083016D01*
X235960998Y-124078243D01*
X235961714Y-124077001D01*
X235964675Y-124071872D01*
X235968941Y-124067803D01*
X235974460Y-124055968D01*
X235976286Y-124046977D01*
X235976289Y-124046970D01*
X235978807Y-124040051D01*
X235980859Y-124035094D01*
X236019625Y-123951963D01*
X236043360Y-123863378D01*
X236044979Y-123858247D01*
X236047503Y-123851312D01*
X236050994Y-123846570D01*
X236054368Y-123833980D01*
X236054605Y-123824806D01*
X236055888Y-123817525D01*
X236057049Y-123812290D01*
X236080785Y-123723708D01*
X236088779Y-123632334D01*
X236089474Y-123627049D01*
X236093154Y-123606185D01*
X236093154Y-123606172D01*
X236093402Y-123604768D01*
X236093409Y-123604719D01*
X236094628Y-123597805D01*
X236093511Y-123589760D01*
X236093802Y-123576401D01*
X236094019Y-123572440D01*
X236101381Y-123488300D01*
X236094019Y-123404163D01*
X236093802Y-123400194D01*
X236093511Y-123386839D01*
X236095046Y-123381159D01*
X236093501Y-123372395D01*
X236093493Y-123372339D01*
X236093154Y-123370415D01*
X236089474Y-123349550D01*
X236088779Y-123344262D01*
X236080785Y-123252892D01*
X236057054Y-123164328D01*
X236055886Y-123159058D01*
X236054605Y-123151793D01*
X236055257Y-123145940D01*
X236051886Y-123133355D01*
X236047505Y-123125293D01*
X236044980Y-123118356D01*
X236043357Y-123113209D01*
X236031783Y-123070012D01*
X236019628Y-123024646D01*
X236019626Y-123024642D01*
X236019625Y-123024637D01*
X235980873Y-122941534D01*
X235978805Y-122936540D01*
X235976290Y-122929631D01*
X235975915Y-122923749D01*
X235970402Y-122911925D01*
X235964682Y-122904739D01*
X235961004Y-122898367D01*
X235958511Y-122893578D01*
X235919757Y-122810471D01*
X235867155Y-122735348D01*
X235864252Y-122730789D01*
X235860738Y-122724703D01*
X235860578Y-122724426D01*
X235859189Y-122718701D01*
X235851706Y-122708014D01*
X235844822Y-122701925D01*
X235840090Y-122696287D01*
X235836811Y-122692012D01*
X235784217Y-122616899D01*
X235719366Y-122552048D01*
X235715728Y-122548077D01*
X235710997Y-122542440D01*
X235708635Y-122537042D01*
X235699412Y-122527819D01*
X235691577Y-122523021D01*
X235689854Y-122521575D01*
X235685949Y-122518297D01*
X235681959Y-122514641D01*
X235617123Y-122449805D01*
X235617122Y-122449804D01*
X235541987Y-122397194D01*
X235537713Y-122393913D01*
X235533674Y-122390524D01*
X235532241Y-122389321D01*
X235532149Y-122389244D01*
X235532047Y-122389158D01*
X235528795Y-122384266D01*
X235518140Y-122376806D01*
X235509601Y-122373446D01*
X235503701Y-122370040D01*
X235503232Y-122369769D01*
X235498668Y-122366862D01*
X235423552Y-122314265D01*
X235395611Y-122301236D01*
X235340457Y-122275516D01*
X235335671Y-122273026D01*
X235329303Y-122269351D01*
X235325227Y-122265078D01*
X235313391Y-122259559D01*
X235304392Y-122257732D01*
X235297480Y-122255216D01*
X235292481Y-122253145D01*
X235209385Y-122214397D01*
X235120818Y-122190664D01*
X235115660Y-122189038D01*
X235108739Y-122186520D01*
X235103991Y-122183024D01*
X235091402Y-122179651D01*
X235082228Y-122179414D01*
X235074952Y-122178132D01*
X235069669Y-122176960D01*
X234981135Y-122153238D01*
X234981125Y-122153236D01*
X234889794Y-122145245D01*
X234884431Y-122144539D01*
X234877173Y-122143259D01*
X234871899Y-122140645D01*
X234858903Y-122139508D01*
X234849832Y-122140868D01*
X234842462Y-122140868D01*
X234837058Y-122140632D01*
X234782708Y-122135876D01*
X234745723Y-122132641D01*
X234745721Y-122132641D01*
X234708735Y-122135876D01*
X234654385Y-122140632D01*
X234648982Y-122140868D01*
X234641611Y-122140868D01*
X234635960Y-122139208D01*
X234622974Y-122140345D01*
X234614279Y-122143258D01*
X234607021Y-122144538D01*
X234601653Y-122145245D01*
X234510311Y-122153237D01*
X234421771Y-122176961D01*
X234416489Y-122178132D01*
X234409213Y-122179414D01*
X234403364Y-122178761D01*
X234390776Y-122182134D01*
X234382708Y-122186518D01*
X234375793Y-122189035D01*
X234370633Y-122190662D01*
X234282058Y-122214397D01*
X234198956Y-122253147D01*
X234193960Y-122255216D01*
X234187051Y-122257731D01*
X234181170Y-122258104D01*
X234169355Y-122263614D01*
X234162176Y-122269330D01*
X234155810Y-122273006D01*
X234151006Y-122275507D01*
X234067896Y-122314262D01*
X233992780Y-122366858D01*
X233988216Y-122369766D01*
X233981851Y-122373440D01*
X233976127Y-122374828D01*
X233965431Y-122382317D01*
X233959345Y-122389202D01*
X233953719Y-122393920D01*
X233949434Y-122397209D01*
X233874320Y-122449804D01*
X233809472Y-122514652D01*
X233805471Y-122518318D01*
X233799840Y-122523040D01*
X233794452Y-122525396D01*
X233785244Y-122534604D01*
X233780462Y-122542418D01*
X233775740Y-122548049D01*
X233772074Y-122552050D01*
X233707226Y-122616899D01*
X233654630Y-122692012D01*
X233651343Y-122696296D01*
X233646626Y-122701920D01*
X233641714Y-122705188D01*
X233634222Y-122715889D01*
X233630862Y-122724429D01*
X233627188Y-122730794D01*
X233624280Y-122735358D01*
X233571684Y-122810474D01*
X233532929Y-122893584D01*
X233530428Y-122898388D01*
X233526752Y-122904754D01*
X233522488Y-122908817D01*
X233516979Y-122920632D01*
X233515153Y-122929629D01*
X233512638Y-122936538D01*
X233510569Y-122941534D01*
X233471819Y-123024636D01*
X233448090Y-123113189D01*
X233446478Y-123118306D01*
X233445210Y-123121798D01*
X233443932Y-123125309D01*
X233440441Y-123130047D01*
X233437072Y-123142625D01*
X233436836Y-123151791D01*
X233435554Y-123159067D01*
X233434383Y-123164349D01*
X233410659Y-123252889D01*
X233410659Y-123252890D01*
X233402667Y-123344225D01*
X233401962Y-123349583D01*
X233400685Y-123356835D01*
X233398067Y-123362117D01*
X233396930Y-123375119D01*
X233398290Y-123384189D01*
X233398290Y-123391559D01*
X233398054Y-123396964D01*
X233390063Y-123488300D01*
X226789877Y-123488300D01*
X224383581Y-121081953D01*
X224382015Y-121079999D01*
X224373869Y-121072241D01*
X224368471Y-121066843D01*
X224366617Y-121065340D01*
X224304246Y-121005984D01*
X224301904Y-121003528D01*
X224299576Y-121001520D01*
X224293113Y-120995315D01*
X224293202Y-120995222D01*
X224290436Y-120992998D01*
X224264059Y-120966639D01*
X224230703Y-120948277D01*
X224070466Y-120823406D01*
X224069276Y-120822434D01*
X224068917Y-120822251D01*
X223815545Y-120678928D01*
X223814064Y-120678043D01*
X223812404Y-120677449D01*
X223542777Y-120573396D01*
X223541255Y-120572763D01*
X223540827Y-120572685D01*
X223256336Y-120508567D01*
X223254819Y-120508187D01*
X223254395Y-120508173D01*
X222983453Y-120488066D01*
X222963357Y-120486574D01*
X222961350Y-120486296D01*
X222960832Y-120486290D01*
X222957943Y-120486182D01*
X222956123Y-120486271D01*
X188919598Y-120486222D01*
X188915836Y-120485940D01*
X188911765Y-120486144D01*
X188908665Y-120486222D01*
X188908079Y-120486222D01*
X188906320Y-120486417D01*
X188898813Y-120486797D01*
X188657663Y-120498972D01*
X188651757Y-120498989D01*
X188651244Y-120498966D01*
X188642128Y-120499632D01*
X188595774Y-120499649D01*
X188592139Y-120502965D01*
X188556491Y-120514095D01*
X188408372Y-120536700D01*
X188406228Y-120536959D01*
X188404153Y-120537622D01*
X188050693Y-120637881D01*
X188050309Y-120637972D01*
X188048862Y-120638669D01*
X187719836Y-120787332D01*
X187718303Y-120787982D01*
X187716901Y-120788928D01*
X187415581Y-120982045D01*
X187414226Y-120982867D01*
X187413908Y-120983165D01*
X187143558Y-121217327D01*
X187142098Y-121218522D01*
X187140952Y-121219913D01*
X186907677Y-121489235D01*
X186906409Y-121490624D01*
X186905409Y-121492286D01*
X186712479Y-121793318D01*
X186711487Y-121794783D01*
X186710834Y-121796322D01*
X186562190Y-122125302D01*
X186561465Y-122126804D01*
X186561372Y-122127196D01*
X186461027Y-122480956D01*
X186460443Y-122482818D01*
X186460199Y-122484822D01*
X186423025Y-122728400D01*
X186422482Y-122731182D01*
X186422471Y-122731298D01*
X186422463Y-122734167D01*
X186409908Y-122982823D01*
X186409712Y-122984582D01*
X186409712Y-122985174D01*
X186409633Y-122988302D01*
X186398231Y-123214026D01*
X186397347Y-123221785D01*
X186340144Y-123542709D01*
X186335537Y-123560663D01*
X186234932Y-123858247D01*
X186227840Y-123875041D01*
X186086435Y-124151252D01*
X186077119Y-124166596D01*
X185898509Y-124417817D01*
X185887196Y-124431531D01*
X185675010Y-124654089D01*
X185661872Y-124666027D01*
X185419797Y-124856230D01*
X185404979Y-124866234D01*
X185136693Y-125020436D01*
X185120357Y-125028297D01*
X184829501Y-125142896D01*
X184811892Y-125148361D01*
X184501986Y-125219782D01*
X184483495Y-125222596D01*
X184150803Y-125247768D01*
X184146123Y-125247945D01*
X117361183Y-125247945D01*
X117358058Y-125248247D01*
X117346387Y-125248221D01*
X117342916Y-125248116D01*
X117091752Y-125233480D01*
X117085526Y-125232800D01*
X116844032Y-125194026D01*
X116836472Y-125192322D01*
X116493331Y-125092109D01*
X116476161Y-125085682D01*
X116161159Y-124940403D01*
X116145374Y-124931679D01*
X115857192Y-124743815D01*
X115843001Y-124733035D01*
X115585699Y-124506658D01*
X115573251Y-124494016D01*
X115361589Y-124245783D01*
X115350878Y-124233221D01*
X115340321Y-124218865D01*
X115307390Y-124166596D01*
X115156955Y-123927817D01*
X115148476Y-123911899D01*
X115128716Y-123867246D01*
X115008091Y-123594665D01*
X115001933Y-123577399D01*
X115000631Y-123572669D01*
X114907050Y-123232739D01*
X114905470Y-123225185D01*
X114870444Y-122983105D01*
X114869861Y-122976870D01*
X114868149Y-122936812D01*
X114859047Y-122723773D01*
X114858974Y-122240851D01*
X114863540Y-122207498D01*
X114922125Y-121997659D01*
X114956008Y-121941245D01*
X115096831Y-121807043D01*
X115151937Y-121776604D01*
X115234783Y-121755627D01*
X115343557Y-121728086D01*
X115373993Y-121724293D01*
X119284839Y-121724293D01*
X119318182Y-121728859D01*
X119528023Y-121787445D01*
X119584441Y-121821330D01*
X119698713Y-121941241D01*
X119718641Y-121962152D01*
X119749081Y-122017260D01*
X119798991Y-122214371D01*
X119799401Y-122216760D01*
X119869766Y-122468792D01*
X119871167Y-122477815D01*
X119871473Y-122478668D01*
X119873177Y-122482031D01*
X119873809Y-122483362D01*
X119874688Y-122484543D01*
X119876796Y-122487540D01*
X119878398Y-122489308D01*
X119885751Y-122494693D01*
X120050780Y-122651962D01*
X120055860Y-122658327D01*
X120060363Y-122661688D01*
X120062650Y-122663609D01*
X120063216Y-122663998D01*
X120064535Y-122664553D01*
X120067154Y-122665382D01*
X120072622Y-122667510D01*
X120081055Y-122668391D01*
X120292892Y-122722031D01*
X120296522Y-122723240D01*
X120300517Y-122724039D01*
X120301838Y-122724336D01*
X120303239Y-122724372D01*
X120307089Y-122724565D01*
X120310872Y-122724293D01*
X152348217Y-122724293D01*
X152350641Y-122724435D01*
X152351847Y-122724389D01*
X152353859Y-122723905D01*
X152353977Y-122723880D01*
X152356058Y-122723145D01*
X152556014Y-122667319D01*
X152596363Y-122656054D01*
X152606023Y-122654596D01*
X152609359Y-122652893D01*
X152611498Y-122651902D01*
X152613409Y-122650459D01*
X152616255Y-122648484D01*
X152617038Y-122647770D01*
X152622785Y-122639921D01*
X152779503Y-122475471D01*
X152786134Y-122470248D01*
X152789545Y-122465645D01*
X152791839Y-122462930D01*
X152791879Y-122462873D01*
X152792299Y-122462111D01*
X152792548Y-122461519D01*
X152793544Y-122458361D01*
X152795462Y-122453460D01*
X152796371Y-122445059D01*
X152852366Y-122223923D01*
X152853773Y-122218885D01*
X157901113Y-122218885D01*
X157901301Y-122222288D01*
X157901346Y-122223943D01*
X157901730Y-122225657D01*
X157901779Y-122225917D01*
X157902402Y-122227842D01*
X157945358Y-122397483D01*
X157957595Y-122445810D01*
X157958531Y-122453991D01*
X157960327Y-122458594D01*
X157960954Y-122460561D01*
X157961849Y-122462490D01*
X157961879Y-122462563D01*
X157962598Y-122463618D01*
X157962626Y-122463662D01*
X157963922Y-122465210D01*
X157967427Y-122469905D01*
X157973816Y-122474994D01*
X158131865Y-122640841D01*
X158137406Y-122648248D01*
X158138015Y-122648800D01*
X158141132Y-122650982D01*
X158142332Y-122651870D01*
X158143634Y-122652480D01*
X158148074Y-122654699D01*
X158148093Y-122654705D01*
X158157689Y-122656130D01*
X158397936Y-122723206D01*
X158400096Y-122723960D01*
X158401887Y-122724387D01*
X158403135Y-122724435D01*
X158405560Y-122724293D01*
X173773907Y-122724293D01*
X173777689Y-122724565D01*
X173781540Y-122724372D01*
X173782946Y-122724336D01*
X173784313Y-122724030D01*
X173788083Y-122723280D01*
X173791729Y-122722071D01*
X174004286Y-122668248D01*
X174012799Y-122667319D01*
X174012928Y-122667268D01*
X174017048Y-122665974D01*
X174019344Y-122664892D01*
X174021621Y-122663924D01*
X174022719Y-122663163D01*
X174024711Y-122661485D01*
X174028898Y-122658388D01*
X174034083Y-122651879D01*
X174199504Y-122494235D01*
X174207385Y-122488400D01*
X174209806Y-122484946D01*
X174211006Y-122483351D01*
X174211842Y-122481553D01*
X174213688Y-122477911D01*
X174215140Y-122468324D01*
X174215888Y-122465645D01*
X174279347Y-122238353D01*
X174280658Y-122235178D01*
X174283040Y-122225308D01*
X174283769Y-122222566D01*
X174285618Y-122216196D01*
X174286114Y-122213109D01*
X174291728Y-122190938D01*
X174335705Y-122017258D01*
X174366142Y-121962156D01*
X174500347Y-121821329D01*
X174556761Y-121787446D01*
X174766604Y-121728860D01*
X174799949Y-121724293D01*
X179830927Y-121724293D01*
X179834709Y-121724565D01*
X179838560Y-121724372D01*
X179839966Y-121724336D01*
X179841333Y-121724030D01*
X179845103Y-121723280D01*
X179848749Y-121722071D01*
X180061306Y-121668248D01*
X180069819Y-121667319D01*
X180069948Y-121667268D01*
X180074068Y-121665974D01*
X180076364Y-121664892D01*
X180078641Y-121663924D01*
X180079739Y-121663163D01*
X180081731Y-121661485D01*
X180085918Y-121658388D01*
X180091103Y-121651879D01*
X180256524Y-121494235D01*
X180264405Y-121488400D01*
X180266826Y-121484946D01*
X180268026Y-121483351D01*
X180268862Y-121481553D01*
X180270708Y-121477910D01*
X180272159Y-121468328D01*
X180273904Y-121462077D01*
X180339266Y-121227967D01*
X180340025Y-121225818D01*
X180340520Y-121223804D01*
X180340564Y-121222697D01*
X180340414Y-121220122D01*
X180340414Y-117456666D01*
X191238711Y-117456666D01*
X191238899Y-117460069D01*
X191238944Y-117461724D01*
X191239328Y-117463438D01*
X191239377Y-117463698D01*
X191240000Y-117465623D01*
X191295193Y-117683591D01*
X191296129Y-117691772D01*
X191297925Y-117696375D01*
X191298552Y-117698342D01*
X191299447Y-117700271D01*
X191299477Y-117700344D01*
X191300196Y-117701399D01*
X191300224Y-117701443D01*
X191301520Y-117702991D01*
X191305025Y-117707686D01*
X191311414Y-117712775D01*
X191469463Y-117878622D01*
X191475004Y-117886029D01*
X191475613Y-117886581D01*
X191478730Y-117888763D01*
X191479930Y-117889651D01*
X191481232Y-117890261D01*
X191485672Y-117892480D01*
X191485691Y-117892486D01*
X191495287Y-117893911D01*
X191735534Y-117960987D01*
X191737694Y-117961741D01*
X191739485Y-117962168D01*
X191740733Y-117962216D01*
X191743158Y-117962074D01*
X204730505Y-117962074D01*
X204734287Y-117962346D01*
X204738138Y-117962153D01*
X204739544Y-117962117D01*
X204740911Y-117961811D01*
X204744681Y-117961061D01*
X204748327Y-117959852D01*
X204960884Y-117906029D01*
X204969397Y-117905100D01*
X204969526Y-117905049D01*
X204973646Y-117903755D01*
X204975942Y-117902673D01*
X204978219Y-117901705D01*
X204979317Y-117900944D01*
X204981309Y-117899266D01*
X204985496Y-117896169D01*
X204990681Y-117889660D01*
X205156102Y-117732016D01*
X205163983Y-117726181D01*
X205166404Y-117722727D01*
X205167604Y-117721132D01*
X205168440Y-117719334D01*
X205170286Y-117715691D01*
X205171737Y-117706109D01*
X205238844Y-117465748D01*
X205239603Y-117463599D01*
X205240098Y-117461585D01*
X205240143Y-117460474D01*
X205239992Y-117457903D01*
X205239992Y-117456666D01*
X210288711Y-117456666D01*
X210288899Y-117460069D01*
X210288944Y-117461724D01*
X210289328Y-117463438D01*
X210289377Y-117463698D01*
X210290000Y-117465623D01*
X210345193Y-117683591D01*
X210346129Y-117691772D01*
X210347925Y-117696375D01*
X210348552Y-117698342D01*
X210349447Y-117700271D01*
X210349477Y-117700344D01*
X210350196Y-117701399D01*
X210350224Y-117701443D01*
X210351520Y-117702991D01*
X210355025Y-117707686D01*
X210361414Y-117712775D01*
X210519463Y-117878622D01*
X210525004Y-117886029D01*
X210525613Y-117886581D01*
X210528730Y-117888763D01*
X210529930Y-117889651D01*
X210531232Y-117890261D01*
X210535672Y-117892480D01*
X210535691Y-117892486D01*
X210545287Y-117893911D01*
X210785534Y-117960987D01*
X210787694Y-117961741D01*
X210789485Y-117962168D01*
X210790733Y-117962216D01*
X210793158Y-117962074D01*
X223780505Y-117962074D01*
X223784287Y-117962346D01*
X223788138Y-117962153D01*
X223789544Y-117962117D01*
X223790911Y-117961811D01*
X223794681Y-117961061D01*
X223798327Y-117959852D01*
X224010884Y-117906029D01*
X224019397Y-117905100D01*
X224019526Y-117905049D01*
X224023646Y-117903755D01*
X224025942Y-117902673D01*
X224028219Y-117901705D01*
X224029317Y-117900944D01*
X224031309Y-117899266D01*
X224035496Y-117896169D01*
X224040681Y-117889660D01*
X224206102Y-117732016D01*
X224213983Y-117726181D01*
X224216404Y-117722727D01*
X224217604Y-117721132D01*
X224218440Y-117719334D01*
X224220286Y-117715691D01*
X224221737Y-117706109D01*
X224288844Y-117465748D01*
X224289603Y-117463599D01*
X224290098Y-117461585D01*
X224290143Y-117460474D01*
X224289992Y-117457903D01*
X224289992Y-117456663D01*
X229338318Y-117456663D01*
X229338506Y-117460069D01*
X229338551Y-117461724D01*
X229338935Y-117463438D01*
X229338984Y-117463698D01*
X229339607Y-117465623D01*
X229394800Y-117683591D01*
X229395736Y-117691772D01*
X229397532Y-117696375D01*
X229398159Y-117698342D01*
X229399054Y-117700271D01*
X229399084Y-117700344D01*
X229399803Y-117701399D01*
X229399831Y-117701443D01*
X229401127Y-117702991D01*
X229404632Y-117707686D01*
X229411021Y-117712775D01*
X229569070Y-117878622D01*
X229574611Y-117886029D01*
X229575220Y-117886581D01*
X229578337Y-117888763D01*
X229579537Y-117889651D01*
X229580839Y-117890261D01*
X229585279Y-117892480D01*
X229585298Y-117892486D01*
X229594894Y-117893911D01*
X229835141Y-117960987D01*
X229837301Y-117961741D01*
X229839092Y-117962168D01*
X229840340Y-117962216D01*
X229842765Y-117962074D01*
X242830112Y-117962074D01*
X242833894Y-117962346D01*
X242837745Y-117962153D01*
X242839151Y-117962117D01*
X242840518Y-117961811D01*
X242844288Y-117961061D01*
X242847934Y-117959852D01*
X243060491Y-117906029D01*
X243069004Y-117905100D01*
X243069133Y-117905049D01*
X243073253Y-117903755D01*
X243075549Y-117902673D01*
X243077826Y-117901705D01*
X243078924Y-117900944D01*
X243080916Y-117899266D01*
X243085103Y-117896169D01*
X243090288Y-117889660D01*
X243255709Y-117732016D01*
X243263590Y-117726181D01*
X243266011Y-117722727D01*
X243267211Y-117721132D01*
X243268047Y-117719334D01*
X243269893Y-117715691D01*
X243271344Y-117706109D01*
X243338451Y-117465748D01*
X243339208Y-117463603D01*
X243339684Y-117461668D01*
X243339752Y-117459807D01*
X243339598Y-117457454D01*
X243339598Y-117452724D01*
X243339598Y-104470547D01*
X243339871Y-104466775D01*
X243339678Y-104462929D01*
X243339642Y-104461528D01*
X243339345Y-104460207D01*
X243338546Y-104456212D01*
X243337337Y-104452582D01*
X243283697Y-104240745D01*
X243282816Y-104232312D01*
X243280688Y-104226844D01*
X243279859Y-104224225D01*
X243279304Y-104222906D01*
X243278915Y-104222340D01*
X243276994Y-104220053D01*
X243273633Y-104215550D01*
X243267268Y-104210470D01*
X243109999Y-104045441D01*
X243104614Y-104038088D01*
X243102846Y-104036486D01*
X243099849Y-104034378D01*
X243098668Y-104033499D01*
X243097337Y-104032867D01*
X243093974Y-104031163D01*
X243093121Y-104030857D01*
X243084098Y-104029456D01*
X242842899Y-103962115D01*
X242840661Y-103961341D01*
X242839141Y-103960980D01*
X242837856Y-103960931D01*
X242835432Y-103961074D01*
X229848086Y-103961074D01*
X229844303Y-103960801D01*
X229840453Y-103960995D01*
X229838950Y-103961033D01*
X229837343Y-103961385D01*
X229837140Y-103961423D01*
X229835207Y-103962042D01*
X229617623Y-104017137D01*
X229609531Y-104018026D01*
X229603815Y-104020217D01*
X229601765Y-104020875D01*
X229600486Y-104021432D01*
X229599651Y-104021995D01*
X229597951Y-104023416D01*
X229592962Y-104027175D01*
X229587988Y-104033408D01*
X229422489Y-104191125D01*
X229415708Y-104196146D01*
X229413582Y-104198840D01*
X229412269Y-104200299D01*
X229411046Y-104202040D01*
X229409921Y-104204296D01*
X229409285Y-104206066D01*
X229408148Y-104208651D01*
X229406891Y-104216894D01*
X229339595Y-104457934D01*
X229338804Y-104460239D01*
X229338487Y-104461586D01*
X229338461Y-104462212D01*
X229338598Y-104464837D01*
X229338598Y-117452724D01*
X229338318Y-117456663D01*
X224289992Y-117456663D01*
X224289992Y-104470561D01*
X224290264Y-104466780D01*
X224290071Y-104462929D01*
X224290035Y-104461528D01*
X224289738Y-104460207D01*
X224288939Y-104456212D01*
X224287730Y-104452582D01*
X224234090Y-104240745D01*
X224233209Y-104232312D01*
X224231081Y-104226844D01*
X224230252Y-104224225D01*
X224229697Y-104222906D01*
X224229308Y-104222340D01*
X224227387Y-104220053D01*
X224224026Y-104215550D01*
X224217661Y-104210470D01*
X224060392Y-104045441D01*
X224055007Y-104038088D01*
X224053239Y-104036486D01*
X224050242Y-104034378D01*
X224049061Y-104033499D01*
X224047730Y-104032867D01*
X224044367Y-104031163D01*
X224043514Y-104030857D01*
X224034491Y-104029456D01*
X223793292Y-103962115D01*
X223791054Y-103961341D01*
X223789534Y-103960980D01*
X223788249Y-103960931D01*
X223785825Y-103961074D01*
X210798479Y-103961074D01*
X210794696Y-103960801D01*
X210790846Y-103960995D01*
X210789343Y-103961033D01*
X210787736Y-103961385D01*
X210787533Y-103961423D01*
X210785600Y-103962042D01*
X210568016Y-104017137D01*
X210559924Y-104018026D01*
X210554208Y-104020217D01*
X210552158Y-104020875D01*
X210550879Y-104021432D01*
X210550044Y-104021995D01*
X210548344Y-104023416D01*
X210543355Y-104027175D01*
X210538381Y-104033408D01*
X210372882Y-104191125D01*
X210366101Y-104196146D01*
X210363975Y-104198840D01*
X210362662Y-104200299D01*
X210361439Y-104202040D01*
X210360314Y-104204296D01*
X210359678Y-104206066D01*
X210358541Y-104208651D01*
X210357284Y-104216894D01*
X210289988Y-104457934D01*
X210289196Y-104460243D01*
X210288901Y-104461490D01*
X210288849Y-104462893D01*
X210288992Y-104465292D01*
X210288992Y-117452724D01*
X210288711Y-117456666D01*
X205239992Y-117456666D01*
X205239992Y-104470563D01*
X205240301Y-104466280D01*
X205240171Y-104464232D01*
X205240121Y-104461538D01*
X205239520Y-104458940D01*
X205239105Y-104456710D01*
X205237728Y-104452573D01*
X205184194Y-104241155D01*
X205184090Y-104240745D01*
X205183209Y-104232312D01*
X205181081Y-104226844D01*
X205180252Y-104224225D01*
X205179697Y-104222906D01*
X205179308Y-104222340D01*
X205177387Y-104220053D01*
X205174026Y-104215550D01*
X205167661Y-104210470D01*
X205010392Y-104045441D01*
X205005007Y-104038088D01*
X205003239Y-104036486D01*
X205000242Y-104034378D01*
X204999061Y-104033499D01*
X204997730Y-104032867D01*
X204994367Y-104031163D01*
X204993514Y-104030857D01*
X204984491Y-104029456D01*
X204743292Y-103962115D01*
X204741054Y-103961341D01*
X204739534Y-103960980D01*
X204738249Y-103960931D01*
X204735825Y-103961074D01*
X191748479Y-103961074D01*
X191744696Y-103960801D01*
X191740846Y-103960995D01*
X191739343Y-103961033D01*
X191737736Y-103961385D01*
X191737533Y-103961423D01*
X191735600Y-103962042D01*
X191518016Y-104017137D01*
X191509924Y-104018026D01*
X191504208Y-104020217D01*
X191502158Y-104020875D01*
X191500879Y-104021432D01*
X191500044Y-104021995D01*
X191498344Y-104023416D01*
X191493355Y-104027175D01*
X191488381Y-104033408D01*
X191322882Y-104191125D01*
X191316101Y-104196146D01*
X191313975Y-104198840D01*
X191312662Y-104200299D01*
X191311439Y-104202040D01*
X191310314Y-104204296D01*
X191309678Y-104206066D01*
X191308541Y-104208651D01*
X191307284Y-104216894D01*
X191239988Y-104457934D01*
X191239196Y-104460243D01*
X191238901Y-104461490D01*
X191238849Y-104462893D01*
X191238992Y-104465292D01*
X191238992Y-117452724D01*
X191238711Y-117456666D01*
X180340414Y-117456666D01*
X180340414Y-107232780D01*
X180340686Y-107228999D01*
X180340493Y-107225148D01*
X180340457Y-107223747D01*
X180340160Y-107222426D01*
X180339361Y-107218431D01*
X180338152Y-107214801D01*
X180284512Y-107002964D01*
X180283631Y-106994531D01*
X180281503Y-106989063D01*
X180280674Y-106986444D01*
X180280119Y-106985125D01*
X180279730Y-106984559D01*
X180277809Y-106982272D01*
X180274448Y-106977769D01*
X180268083Y-106972689D01*
X180110814Y-106807660D01*
X180105429Y-106800307D01*
X180103661Y-106798705D01*
X180100664Y-106796597D01*
X180099483Y-106795718D01*
X180098152Y-106795086D01*
X180094789Y-106793382D01*
X180093936Y-106793076D01*
X180084913Y-106791675D01*
X179843714Y-106724334D01*
X179841332Y-106723510D01*
X179839998Y-106723187D01*
X179838919Y-106723143D01*
X179836313Y-106723295D01*
X171431104Y-106728718D01*
X171429376Y-106728605D01*
X171426934Y-106728713D01*
X171424806Y-106729144D01*
X171423098Y-106729691D01*
X171205516Y-106784785D01*
X171197424Y-106785674D01*
X171191708Y-106787865D01*
X171189658Y-106788523D01*
X171188379Y-106789080D01*
X171187544Y-106789643D01*
X171185844Y-106791064D01*
X171180855Y-106794823D01*
X171175881Y-106801056D01*
X171010382Y-106958773D01*
X171003601Y-106963794D01*
X171001475Y-106966488D01*
X171000162Y-106967947D01*
X170998939Y-106969688D01*
X170997814Y-106971944D01*
X170997178Y-106973714D01*
X170996041Y-106976299D01*
X170994784Y-106984542D01*
X170927488Y-107225582D01*
X170926696Y-107227891D01*
X170926401Y-107229138D01*
X170926349Y-107230541D01*
X170926492Y-107232940D01*
X170926492Y-108208705D01*
X170922698Y-108239143D01*
X170874179Y-108430753D01*
X170843739Y-108485861D01*
X170709539Y-108626682D01*
X170653118Y-108660568D01*
X170443286Y-108719152D01*
X170409937Y-108723720D01*
X158410878Y-108723293D01*
X158407096Y-108723020D01*
X158403248Y-108723214D01*
X158401745Y-108723252D01*
X158400138Y-108723604D01*
X158399935Y-108723642D01*
X158398002Y-108724261D01*
X158180418Y-108779356D01*
X158172326Y-108780245D01*
X158166610Y-108782436D01*
X158164560Y-108783094D01*
X158163281Y-108783651D01*
X158162446Y-108784214D01*
X158160746Y-108785635D01*
X158155757Y-108789394D01*
X158150783Y-108795627D01*
X157985284Y-108953344D01*
X157978503Y-108958365D01*
X157976377Y-108961059D01*
X157975064Y-108962518D01*
X157973841Y-108964259D01*
X157972716Y-108966515D01*
X157972080Y-108968285D01*
X157970943Y-108970870D01*
X157969686Y-108979113D01*
X157902390Y-109220153D01*
X157901598Y-109222462D01*
X157901303Y-109223709D01*
X157901251Y-109225112D01*
X157901394Y-109227511D01*
X157901394Y-122214943D01*
X157901113Y-122218885D01*
X152853773Y-122218885D01*
X152915536Y-121997660D01*
X152949420Y-121941245D01*
X153090245Y-121807042D01*
X153145349Y-121776604D01*
X153228195Y-121755627D01*
X153336969Y-121728086D01*
X153367405Y-121724293D01*
X155960212Y-121724293D01*
X155962636Y-121724435D01*
X155963842Y-121724389D01*
X155965854Y-121723905D01*
X155965972Y-121723880D01*
X155968053Y-121723145D01*
X156168009Y-121667319D01*
X156208358Y-121656054D01*
X156218018Y-121654596D01*
X156221354Y-121652893D01*
X156223493Y-121651902D01*
X156225404Y-121650459D01*
X156228250Y-121648484D01*
X156229033Y-121647770D01*
X156234780Y-121639921D01*
X156391498Y-121475471D01*
X156398129Y-121470248D01*
X156401540Y-121465645D01*
X156403834Y-121462930D01*
X156403874Y-121462873D01*
X156404294Y-121462111D01*
X156404543Y-121461519D01*
X156405539Y-121458361D01*
X156407458Y-121453460D01*
X156408366Y-121445059D01*
X156462157Y-121232628D01*
X156463365Y-121228985D01*
X156464073Y-121225425D01*
X156464428Y-121223863D01*
X156464472Y-121222288D01*
X156464659Y-121218887D01*
X156464378Y-121214956D01*
X156464378Y-107227967D01*
X156464524Y-107225773D01*
X156464522Y-107225733D01*
X156464452Y-107223698D01*
X156464046Y-107221995D01*
X156463292Y-107219835D01*
X156396216Y-106979588D01*
X156394791Y-106969992D01*
X156394785Y-106969973D01*
X156392566Y-106965533D01*
X156391956Y-106964231D01*
X156391068Y-106963031D01*
X156388886Y-106959914D01*
X156388334Y-106959305D01*
X156380927Y-106953764D01*
X156215080Y-106795715D01*
X156209991Y-106789326D01*
X156205296Y-106785821D01*
X156203748Y-106784525D01*
X156203704Y-106784497D01*
X156202649Y-106783778D01*
X156202576Y-106783748D01*
X156200647Y-106782853D01*
X156198680Y-106782226D01*
X156194077Y-106780430D01*
X156185896Y-106779494D01*
X155967928Y-106724301D01*
X155966007Y-106723680D01*
X155965536Y-106723590D01*
X155963999Y-106723251D01*
X155962525Y-106723214D01*
X155958674Y-106723020D01*
X155954892Y-106723293D01*
X149967546Y-106723293D01*
X149965121Y-106723150D01*
X149963809Y-106723200D01*
X149962543Y-106723499D01*
X149960239Y-106724289D01*
X149719147Y-106791600D01*
X149710871Y-106792866D01*
X149708354Y-106793978D01*
X149706662Y-106794589D01*
X149704350Y-106795737D01*
X149702471Y-106797073D01*
X149701104Y-106798303D01*
X149698791Y-106800126D01*
X149693823Y-106806772D01*
X149535759Y-106972635D01*
X149529443Y-106977670D01*
X149525885Y-106982415D01*
X149524569Y-106983982D01*
X149524566Y-106983988D01*
X149523726Y-106985228D01*
X149523253Y-106986305D01*
X149522610Y-106988293D01*
X149520445Y-106993971D01*
X149519547Y-107001899D01*
X149464348Y-107219900D01*
X149463727Y-107221839D01*
X149463690Y-107222037D01*
X149463338Y-107223644D01*
X149463300Y-107225147D01*
X149463106Y-107228998D01*
X149463379Y-107232779D01*
X149463379Y-108206740D01*
X149458811Y-108240086D01*
X149400225Y-108449919D01*
X149366339Y-108506339D01*
X149225517Y-108640540D01*
X149170409Y-108670980D01*
X148978800Y-108719499D01*
X148948362Y-108723293D01*
X142756934Y-108723294D01*
X142723590Y-108718727D01*
X142513753Y-108660141D01*
X142457336Y-108626257D01*
X142323131Y-108485429D01*
X142292694Y-108430327D01*
X142244176Y-108238711D01*
X142240384Y-108208280D01*
X142240384Y-107227510D01*
X142240526Y-107225111D01*
X142240476Y-107223778D01*
X142240051Y-107221994D01*
X142239297Y-107219835D01*
X142172221Y-106979588D01*
X142170796Y-106969992D01*
X142170790Y-106969973D01*
X142168571Y-106965533D01*
X142167961Y-106964231D01*
X142167073Y-106963031D01*
X142164891Y-106959914D01*
X142164339Y-106959305D01*
X142156932Y-106953764D01*
X141991085Y-106795715D01*
X141985996Y-106789326D01*
X141981301Y-106785821D01*
X141979753Y-106784525D01*
X141979709Y-106784497D01*
X141978654Y-106783778D01*
X141978581Y-106783748D01*
X141976652Y-106782853D01*
X141974685Y-106782226D01*
X141970082Y-106780430D01*
X141961901Y-106779494D01*
X141743933Y-106724301D01*
X141742012Y-106723680D01*
X141741541Y-106723590D01*
X141740004Y-106723251D01*
X141738530Y-106723214D01*
X141734679Y-106723020D01*
X141730897Y-106723293D01*
X135739783Y-106723293D01*
X135736564Y-106723930D01*
X135728256Y-106726677D01*
X135518516Y-106779785D01*
X135510423Y-106780674D01*
X135504708Y-106782865D01*
X135502658Y-106783523D01*
X135501379Y-106784080D01*
X135500544Y-106784643D01*
X135498844Y-106786064D01*
X135493855Y-106789823D01*
X135488881Y-106796056D01*
X135323382Y-106953773D01*
X135316601Y-106958794D01*
X135314475Y-106961488D01*
X135313162Y-106962947D01*
X135311939Y-106964688D01*
X135310814Y-106966944D01*
X135310178Y-106968714D01*
X135309041Y-106971299D01*
X135307784Y-106979542D01*
X135240488Y-107220582D01*
X135239696Y-107222891D01*
X135239401Y-107224138D01*
X135239317Y-107226399D01*
X135239062Y-107229776D01*
X135239337Y-107237621D01*
X135181833Y-108415270D01*
X135158903Y-108481269D01*
X135147747Y-108494768D01*
X135022441Y-108626256D01*
X134966021Y-108660142D01*
X134839962Y-108695337D01*
X134756199Y-108718724D01*
X134722855Y-108723292D01*
X134626375Y-108723292D01*
X121088596Y-108663665D01*
X121021644Y-108643685D01*
X121003597Y-108629432D01*
X121000264Y-108626256D01*
X120874431Y-108506339D01*
X120840546Y-108449922D01*
X120781961Y-108240081D01*
X120777394Y-108206737D01*
X120777394Y-107237780D01*
X120777666Y-107233999D01*
X120777473Y-107230148D01*
X120777437Y-107228747D01*
X120777140Y-107227426D01*
X120776341Y-107223431D01*
X120775132Y-107219801D01*
X120721492Y-107007964D01*
X120720611Y-106999531D01*
X120718483Y-106994063D01*
X120717654Y-106991444D01*
X120717099Y-106990125D01*
X120716710Y-106989559D01*
X120714789Y-106987272D01*
X120711428Y-106982769D01*
X120705063Y-106977689D01*
X120547794Y-106812660D01*
X120542409Y-106805307D01*
X120540641Y-106803705D01*
X120537644Y-106801597D01*
X120536463Y-106800718D01*
X120535132Y-106800086D01*
X120531769Y-106798382D01*
X120530914Y-106798076D01*
X120521895Y-106796675D01*
X120315494Y-106739050D01*
X120301092Y-106730634D01*
X120300181Y-106732846D01*
X120276993Y-106723293D01*
X120276894Y-106723252D01*
X120252340Y-106723252D01*
X120252134Y-106723293D01*
X111867561Y-106723293D01*
X111865136Y-106723150D01*
X111863824Y-106723200D01*
X111862558Y-106723499D01*
X111860254Y-106724289D01*
X111619162Y-106791600D01*
X111610886Y-106792866D01*
X111608369Y-106793978D01*
X111606677Y-106794589D01*
X111604365Y-106795737D01*
X111602486Y-106797073D01*
X111601119Y-106798303D01*
X111598806Y-106800126D01*
X111593838Y-106806772D01*
X111435774Y-106972635D01*
X111429458Y-106977670D01*
X111425900Y-106982415D01*
X111424584Y-106983982D01*
X111424581Y-106983988D01*
X111423741Y-106985228D01*
X111423268Y-106986305D01*
X111422625Y-106988293D01*
X111420460Y-106993971D01*
X111419562Y-107001899D01*
X111364363Y-107219900D01*
X111363742Y-107221839D01*
X111363705Y-107222037D01*
X111363353Y-107223644D01*
X111363315Y-107225147D01*
X111363121Y-107228998D01*
X111363394Y-107232779D01*
X111363394Y-107331508D01*
X111303777Y-120174602D01*
X111283781Y-120241549D01*
X111269544Y-120259571D01*
X111146441Y-120388748D01*
X111090021Y-120422635D01*
X110880186Y-120481221D01*
X110846841Y-120485789D01*
X69046752Y-120486220D01*
X69045683Y-120486161D01*
X69043288Y-120486219D01*
X69043205Y-120486221D01*
X69043108Y-120486222D01*
X69043107Y-120486222D01*
X69040673Y-120486247D01*
X69039522Y-120486355D01*
X68948556Y-120489680D01*
X68945836Y-120489656D01*
X68942952Y-120489902D01*
X68933920Y-120490288D01*
X68888314Y-120490292D01*
X68886853Y-120491606D01*
X68849814Y-120502665D01*
X68659537Y-120528248D01*
X68657641Y-120528450D01*
X68655856Y-120529012D01*
X68380406Y-120607789D01*
X68380027Y-120607879D01*
X68378591Y-120608567D01*
X68119234Y-120725260D01*
X68117403Y-120726022D01*
X68115786Y-120727118D01*
X67873822Y-120881245D01*
X67873601Y-120881372D01*
X67873413Y-120881550D01*
X67655846Y-121069493D01*
X67654287Y-121070686D01*
X67654189Y-121070783D01*
X67651823Y-121072979D01*
X67650522Y-121074428D01*
X66655055Y-122069873D01*
X62767455Y-125954633D01*
X62754852Y-125966625D01*
X62750219Y-125970617D01*
X62527138Y-126144455D01*
X62511969Y-126154575D01*
X62272880Y-126289814D01*
X62256472Y-126297569D01*
X62000623Y-126396300D01*
X61983242Y-126401581D01*
X61714813Y-126462075D01*
X61696728Y-126464769D01*
X61412881Y-126485831D01*
X61408291Y-126486001D01*
X59609035Y-126485983D01*
X52588681Y-126483957D01*
X52571386Y-126483528D01*
X52565284Y-126483075D01*
X52284624Y-126448255D01*
X52266741Y-126444685D01*
X52002048Y-126371250D01*
X51984963Y-126365132D01*
X51734241Y-126254035D01*
X51718217Y-126245479D01*
X51485626Y-126098443D01*
X51470939Y-126087564D01*
X51311236Y-125949925D01*
X51255337Y-125901749D01*
X51251971Y-125898623D01*
X50256849Y-124903481D01*
X50215582Y-124862184D01*
X48842975Y-123488574D01*
X55602374Y-123488574D01*
X55610145Y-123577399D01*
X55610365Y-123579907D01*
X55610601Y-123585313D01*
X55610601Y-123592683D01*
X55608941Y-123598333D01*
X55610079Y-123611331D01*
X55612992Y-123620025D01*
X55614272Y-123627283D01*
X55614978Y-123632646D01*
X55622969Y-123723977D01*
X55622971Y-123723987D01*
X55646693Y-123812521D01*
X55647865Y-123817804D01*
X55649147Y-123825080D01*
X55648494Y-123830931D01*
X55651868Y-123843523D01*
X55656253Y-123851591D01*
X55658771Y-123858512D01*
X55660397Y-123863670D01*
X55684130Y-123952237D01*
X55722878Y-124035333D01*
X55724949Y-124040332D01*
X55727465Y-124047244D01*
X55727838Y-124053125D01*
X55733357Y-124064961D01*
X55739084Y-124072155D01*
X55742759Y-124078523D01*
X55745249Y-124083309D01*
X55770969Y-124138463D01*
X55783998Y-124166404D01*
X55826497Y-124227099D01*
X55836595Y-124241520D01*
X55839506Y-124246090D01*
X55843179Y-124252453D01*
X55844566Y-124258175D01*
X55852047Y-124268859D01*
X55858920Y-124274933D01*
X55863647Y-124280566D01*
X55866936Y-124284853D01*
X55899318Y-124331098D01*
X55919538Y-124359975D01*
X55919540Y-124359977D01*
X55984374Y-124424811D01*
X55988030Y-124428801D01*
X55992753Y-124434428D01*
X55995116Y-124439828D01*
X56004345Y-124449057D01*
X56012173Y-124453849D01*
X56017806Y-124458576D01*
X56021781Y-124462218D01*
X56086632Y-124527069D01*
X56161752Y-124579669D01*
X56166032Y-124582952D01*
X56171668Y-124587682D01*
X56174932Y-124592587D01*
X56185620Y-124600072D01*
X56194159Y-124603430D01*
X56200064Y-124606840D01*
X56200529Y-124607108D01*
X56205072Y-124610002D01*
X56280203Y-124662609D01*
X56363307Y-124701361D01*
X56368095Y-124703853D01*
X56371350Y-124705732D01*
X56374465Y-124707530D01*
X56378535Y-124711797D01*
X56390369Y-124717316D01*
X56399364Y-124719142D01*
X56406273Y-124721657D01*
X56411267Y-124723725D01*
X56481370Y-124756415D01*
X56494370Y-124762477D01*
X56494372Y-124762478D01*
X56534498Y-124773229D01*
X56582942Y-124786209D01*
X56588089Y-124787832D01*
X56595026Y-124790357D01*
X56599767Y-124793848D01*
X56612357Y-124797221D01*
X56621526Y-124797457D01*
X56628791Y-124798738D01*
X56634061Y-124799906D01*
X56722625Y-124823637D01*
X56814001Y-124831631D01*
X56819293Y-124832328D01*
X56826600Y-124833617D01*
X56831870Y-124836229D01*
X56844852Y-124837365D01*
X56853924Y-124836006D01*
X56861293Y-124836006D01*
X56866696Y-124836241D01*
X56921046Y-124840997D01*
X56958032Y-124844233D01*
X56958033Y-124844233D01*
X56958034Y-124844233D01*
X56995019Y-124840997D01*
X57049369Y-124836241D01*
X57054773Y-124836006D01*
X57062140Y-124836006D01*
X57067790Y-124837665D01*
X57080776Y-124836528D01*
X57089465Y-124833617D01*
X57096785Y-124832326D01*
X57102067Y-124831631D01*
X57193441Y-124823637D01*
X57282023Y-124799901D01*
X57287258Y-124798740D01*
X57294539Y-124797457D01*
X57300392Y-124798110D01*
X57312981Y-124794736D01*
X57321040Y-124790357D01*
X57327997Y-124787825D01*
X57333110Y-124786213D01*
X57405843Y-124766724D01*
X57421693Y-124762478D01*
X57421694Y-124762477D01*
X57421696Y-124762477D01*
X57504827Y-124723711D01*
X57509790Y-124721657D01*
X57516711Y-124719137D01*
X57522587Y-124718764D01*
X57534417Y-124713248D01*
X57541601Y-124707530D01*
X57546734Y-124704566D01*
X57547976Y-124703850D01*
X57552749Y-124701365D01*
X57635863Y-124662609D01*
X57710987Y-124610006D01*
X57715516Y-124607120D01*
X57721887Y-124603441D01*
X57727616Y-124602050D01*
X57738317Y-124594557D01*
X57744389Y-124587689D01*
X57750055Y-124582934D01*
X57754288Y-124579686D01*
X57829434Y-124527069D01*
X57894295Y-124462207D01*
X57898235Y-124458596D01*
X57903884Y-124453856D01*
X57909285Y-124451492D01*
X57918516Y-124442261D01*
X57923309Y-124434432D01*
X57928050Y-124428783D01*
X57931664Y-124424838D01*
X57996528Y-124359975D01*
X57996719Y-124359703D01*
X57999492Y-124355742D01*
X58049145Y-124284829D01*
X58052393Y-124280596D01*
X58057146Y-124274931D01*
X58062047Y-124271671D01*
X58069536Y-124260976D01*
X58072897Y-124252433D01*
X58076579Y-124246057D01*
X58079471Y-124241520D01*
X58132068Y-124166404D01*
X58170824Y-124083290D01*
X58173309Y-124078517D01*
X58174025Y-124077275D01*
X58176986Y-124072146D01*
X58181252Y-124068077D01*
X58186771Y-124056242D01*
X58188597Y-124047251D01*
X58188697Y-124046977D01*
X58191118Y-124040325D01*
X58193170Y-124035368D01*
X58231936Y-123952237D01*
X58232009Y-123951967D01*
X58240402Y-123920640D01*
X58255672Y-123863651D01*
X58257284Y-123858538D01*
X58259814Y-123851586D01*
X58263305Y-123846844D01*
X58266679Y-123834254D01*
X58266916Y-123825080D01*
X58268199Y-123817799D01*
X58269360Y-123812564D01*
X58293096Y-123723982D01*
X58301090Y-123632608D01*
X58301785Y-123627323D01*
X58305465Y-123606459D01*
X58305465Y-123606446D01*
X58305713Y-123605042D01*
X58305720Y-123604993D01*
X58306939Y-123598079D01*
X58305822Y-123590034D01*
X58306113Y-123576675D01*
X58306330Y-123572714D01*
X58313692Y-123488574D01*
X58306330Y-123404437D01*
X58306113Y-123400468D01*
X58305822Y-123387113D01*
X58307357Y-123381433D01*
X58305812Y-123372669D01*
X58305804Y-123372613D01*
X58305465Y-123370689D01*
X58301785Y-123349824D01*
X58301090Y-123344536D01*
X58293096Y-123253166D01*
X58269365Y-123164602D01*
X58268197Y-123159332D01*
X58266916Y-123152067D01*
X58267568Y-123146214D01*
X58264197Y-123133629D01*
X58259816Y-123125567D01*
X58259722Y-123125309D01*
X58257286Y-123118614D01*
X58255666Y-123113475D01*
X58232501Y-123027018D01*
X58231939Y-123024920D01*
X58231937Y-123024916D01*
X58231936Y-123024911D01*
X58193184Y-122941808D01*
X58191116Y-122936814D01*
X58188601Y-122929905D01*
X58188226Y-122924023D01*
X58182713Y-122912199D01*
X58176993Y-122905013D01*
X58173315Y-122898641D01*
X58170822Y-122893852D01*
X58132068Y-122810745D01*
X58079466Y-122735622D01*
X58076563Y-122731063D01*
X58076405Y-122730789D01*
X58072889Y-122724700D01*
X58071500Y-122718975D01*
X58064022Y-122708294D01*
X58057143Y-122702212D01*
X58052402Y-122696562D01*
X58049122Y-122692286D01*
X57996528Y-122617173D01*
X57931677Y-122552322D01*
X57928039Y-122548351D01*
X57923308Y-122542714D01*
X57920946Y-122537316D01*
X57911723Y-122528093D01*
X57903888Y-122523295D01*
X57902165Y-122521849D01*
X57898260Y-122518571D01*
X57894270Y-122514915D01*
X57829436Y-122450081D01*
X57829435Y-122450081D01*
X57829434Y-122450079D01*
X57800557Y-122429859D01*
X57754312Y-122397477D01*
X57750025Y-122394188D01*
X57744392Y-122389461D01*
X57741130Y-122384557D01*
X57730451Y-122377080D01*
X57721912Y-122373720D01*
X57718408Y-122371697D01*
X57715543Y-122370043D01*
X57710979Y-122367136D01*
X57635863Y-122314539D01*
X57607922Y-122301510D01*
X57552768Y-122275790D01*
X57547982Y-122273300D01*
X57541614Y-122269625D01*
X57537538Y-122265352D01*
X57525702Y-122259833D01*
X57516703Y-122258006D01*
X57509791Y-122255490D01*
X57504792Y-122253419D01*
X57421696Y-122214671D01*
X57333129Y-122190938D01*
X57327971Y-122189312D01*
X57321050Y-122186794D01*
X57316302Y-122183298D01*
X57303713Y-122179925D01*
X57294539Y-122179688D01*
X57287263Y-122178406D01*
X57281980Y-122177234D01*
X57193446Y-122153512D01*
X57193436Y-122153510D01*
X57102105Y-122145519D01*
X57096742Y-122144813D01*
X57089484Y-122143533D01*
X57084210Y-122140919D01*
X57071214Y-122139782D01*
X57062143Y-122141142D01*
X57054773Y-122141142D01*
X57049369Y-122140906D01*
X56995019Y-122136150D01*
X56958034Y-122132915D01*
X56958032Y-122132915D01*
X56921046Y-122136150D01*
X56866696Y-122140906D01*
X56861293Y-122141142D01*
X56853922Y-122141142D01*
X56848271Y-122139482D01*
X56835285Y-122140619D01*
X56826590Y-122143532D01*
X56819332Y-122144812D01*
X56813964Y-122145519D01*
X56722622Y-122153511D01*
X56634082Y-122177235D01*
X56628800Y-122178406D01*
X56621524Y-122179688D01*
X56615675Y-122179035D01*
X56603087Y-122182408D01*
X56595019Y-122186792D01*
X56588104Y-122189309D01*
X56582944Y-122190936D01*
X56494369Y-122214671D01*
X56411267Y-122253421D01*
X56406271Y-122255490D01*
X56399362Y-122258005D01*
X56393481Y-122258378D01*
X56381666Y-122263888D01*
X56374487Y-122269604D01*
X56368121Y-122273280D01*
X56363317Y-122275781D01*
X56280207Y-122314536D01*
X56205091Y-122367132D01*
X56200527Y-122370040D01*
X56194162Y-122373714D01*
X56188438Y-122375102D01*
X56177742Y-122382591D01*
X56171656Y-122389476D01*
X56166030Y-122394194D01*
X56161745Y-122397483D01*
X56086631Y-122450078D01*
X56021783Y-122514926D01*
X56017782Y-122518592D01*
X56012151Y-122523314D01*
X56006763Y-122525670D01*
X55997555Y-122534878D01*
X55992773Y-122542692D01*
X55988051Y-122548323D01*
X55984385Y-122552324D01*
X55919537Y-122617173D01*
X55866941Y-122692286D01*
X55863654Y-122696570D01*
X55858937Y-122702194D01*
X55854025Y-122705462D01*
X55846533Y-122716163D01*
X55843173Y-122724703D01*
X55839499Y-122731068D01*
X55836591Y-122735632D01*
X55783995Y-122810748D01*
X55745240Y-122893858D01*
X55742739Y-122898662D01*
X55739063Y-122905028D01*
X55734799Y-122909091D01*
X55729290Y-122920906D01*
X55727464Y-122929903D01*
X55724949Y-122936812D01*
X55722880Y-122941808D01*
X55684130Y-123024910D01*
X55660398Y-123113475D01*
X55658778Y-123118614D01*
X55656677Y-123124393D01*
X55656212Y-123125666D01*
X55652738Y-123130374D01*
X55649383Y-123142899D01*
X55649147Y-123152065D01*
X55647865Y-123159341D01*
X55646694Y-123164623D01*
X55622970Y-123253163D01*
X55622970Y-123253164D01*
X55614978Y-123344499D01*
X55614273Y-123349857D01*
X55612996Y-123357109D01*
X55610378Y-123362391D01*
X55609241Y-123375393D01*
X55610601Y-123384463D01*
X55610601Y-123391833D01*
X55610365Y-123397238D01*
X55602374Y-123488574D01*
X48842975Y-123488574D01*
X46370967Y-121014760D01*
X46358978Y-121002161D01*
X46354985Y-120997529D01*
X46181146Y-120774446D01*
X46171026Y-120759277D01*
X46161296Y-120742076D01*
X46035783Y-120520180D01*
X46028036Y-120503788D01*
X45929298Y-120247923D01*
X45924022Y-120230558D01*
X45863524Y-119962112D01*
X45860833Y-119944043D01*
X45839771Y-119660189D01*
X45839601Y-119655599D01*
X45839620Y-117886986D01*
X45839624Y-117456698D01*
X48364113Y-117456698D01*
X48364301Y-117460102D01*
X48364346Y-117461757D01*
X48364730Y-117463471D01*
X48364779Y-117463731D01*
X48365402Y-117465656D01*
X48420587Y-117683591D01*
X48420595Y-117683624D01*
X48421531Y-117691805D01*
X48423327Y-117696408D01*
X48423954Y-117698375D01*
X48424849Y-117700304D01*
X48424879Y-117700377D01*
X48425598Y-117701432D01*
X48425626Y-117701476D01*
X48426922Y-117703024D01*
X48430427Y-117707719D01*
X48436816Y-117712808D01*
X48594865Y-117878655D01*
X48600406Y-117886062D01*
X48601015Y-117886614D01*
X48604132Y-117888796D01*
X48605332Y-117889684D01*
X48606634Y-117890294D01*
X48611074Y-117892513D01*
X48611093Y-117892519D01*
X48620689Y-117893944D01*
X48860936Y-117961020D01*
X48863096Y-117961774D01*
X48864887Y-117962201D01*
X48866135Y-117962249D01*
X48868560Y-117962107D01*
X64236907Y-117962107D01*
X64240689Y-117962379D01*
X64244540Y-117962186D01*
X64245946Y-117962150D01*
X64247313Y-117961844D01*
X64251083Y-117961094D01*
X64254729Y-117959885D01*
X64467286Y-117906062D01*
X64475799Y-117905133D01*
X64475928Y-117905082D01*
X64480048Y-117903788D01*
X64482344Y-117902706D01*
X64484621Y-117901738D01*
X64485719Y-117900977D01*
X64487711Y-117899299D01*
X64491898Y-117896202D01*
X64497083Y-117889693D01*
X64662382Y-117732165D01*
X64669757Y-117726720D01*
X64671097Y-117725246D01*
X64672711Y-117722917D01*
X64673982Y-117721216D01*
X64674841Y-117719371D01*
X64676688Y-117715726D01*
X64678139Y-117706142D01*
X64679665Y-117700676D01*
X64745246Y-117465781D01*
X64746054Y-117463495D01*
X64746510Y-117461677D01*
X64746553Y-117460661D01*
X64746394Y-117457939D01*
X64746394Y-117457071D01*
X67397780Y-117457071D01*
X67397968Y-117460474D01*
X67398013Y-117462129D01*
X67398397Y-117463843D01*
X67398446Y-117464103D01*
X67399069Y-117466028D01*
X67454159Y-117683591D01*
X67454262Y-117683996D01*
X67455198Y-117692177D01*
X67456994Y-117696780D01*
X67457621Y-117698747D01*
X67458516Y-117700676D01*
X67458546Y-117700749D01*
X67459265Y-117701804D01*
X67459293Y-117701848D01*
X67460589Y-117703396D01*
X67464094Y-117708091D01*
X67470483Y-117713180D01*
X67628532Y-117879027D01*
X67634073Y-117886434D01*
X67634682Y-117886986D01*
X67637799Y-117889168D01*
X67638999Y-117890056D01*
X67640301Y-117890666D01*
X67644741Y-117892885D01*
X67644760Y-117892891D01*
X67654356Y-117894316D01*
X67894603Y-117961392D01*
X67896763Y-117962146D01*
X67898554Y-117962573D01*
X67899802Y-117962621D01*
X67902227Y-117962479D01*
X107083574Y-117962479D01*
X107087356Y-117962751D01*
X107091207Y-117962558D01*
X107092613Y-117962522D01*
X107093980Y-117962216D01*
X107097750Y-117961466D01*
X107101396Y-117960257D01*
X107313953Y-117906434D01*
X107322466Y-117905505D01*
X107322595Y-117905454D01*
X107326715Y-117904160D01*
X107329011Y-117903078D01*
X107331288Y-117902110D01*
X107332386Y-117901349D01*
X107334378Y-117899671D01*
X107338565Y-117896574D01*
X107343750Y-117890065D01*
X107509171Y-117732421D01*
X107517052Y-117726586D01*
X107519473Y-117723132D01*
X107520673Y-117721537D01*
X107521509Y-117719739D01*
X107523355Y-117716096D01*
X107524806Y-117706514D01*
X107526449Y-117700628D01*
X107591913Y-117466153D01*
X107592672Y-117464004D01*
X107593167Y-117461990D01*
X107593211Y-117460883D01*
X107593061Y-117458308D01*
X107593061Y-104470966D01*
X107593333Y-104467185D01*
X107593140Y-104463334D01*
X107593104Y-104461933D01*
X107592807Y-104460612D01*
X107592008Y-104456617D01*
X107590799Y-104452987D01*
X107537159Y-104241150D01*
X107536278Y-104232717D01*
X107534150Y-104227249D01*
X107533321Y-104224630D01*
X107532766Y-104223311D01*
X107532377Y-104222745D01*
X107530456Y-104220458D01*
X107527095Y-104215955D01*
X107520730Y-104210875D01*
X107363461Y-104045846D01*
X107358076Y-104038493D01*
X107356308Y-104036891D01*
X107353311Y-104034783D01*
X107352130Y-104033904D01*
X107350799Y-104033272D01*
X107347436Y-104031568D01*
X107346583Y-104031262D01*
X107337560Y-104029861D01*
X107096361Y-103962520D01*
X107094123Y-103961746D01*
X107092603Y-103961385D01*
X107091318Y-103961336D01*
X107088894Y-103961479D01*
X67907548Y-103961479D01*
X67903765Y-103961206D01*
X67899915Y-103961400D01*
X67898412Y-103961438D01*
X67896805Y-103961790D01*
X67896602Y-103961828D01*
X67894669Y-103962447D01*
X67677085Y-104017542D01*
X67668993Y-104018431D01*
X67663277Y-104020622D01*
X67661227Y-104021280D01*
X67659948Y-104021837D01*
X67659113Y-104022400D01*
X67657413Y-104023821D01*
X67652424Y-104027580D01*
X67647450Y-104033813D01*
X67481951Y-104191530D01*
X67475170Y-104196551D01*
X67473044Y-104199245D01*
X67471731Y-104200704D01*
X67470508Y-104202445D01*
X67469383Y-104204701D01*
X67468747Y-104206471D01*
X67467610Y-104209056D01*
X67466353Y-104217299D01*
X67399057Y-104458339D01*
X67398265Y-104460648D01*
X67397970Y-104461895D01*
X67397918Y-104463298D01*
X67398061Y-104465697D01*
X67398061Y-117453129D01*
X67397780Y-117457071D01*
X64746394Y-117457071D01*
X64746394Y-104470594D01*
X64746666Y-104466813D01*
X64746473Y-104462962D01*
X64746437Y-104461561D01*
X64746140Y-104460240D01*
X64745341Y-104456245D01*
X64744132Y-104452615D01*
X64690492Y-104240778D01*
X64689611Y-104232345D01*
X64687483Y-104226877D01*
X64686654Y-104224258D01*
X64686099Y-104222939D01*
X64685710Y-104222373D01*
X64683789Y-104220086D01*
X64680428Y-104215583D01*
X64674063Y-104210503D01*
X64516794Y-104045474D01*
X64511409Y-104038121D01*
X64509641Y-104036519D01*
X64506644Y-104034411D01*
X64505463Y-104033532D01*
X64504132Y-104032900D01*
X64500769Y-104031196D01*
X64499916Y-104030890D01*
X64490893Y-104029489D01*
X64249694Y-103962148D01*
X64247456Y-103961374D01*
X64245936Y-103961013D01*
X64244651Y-103960964D01*
X64242227Y-103961107D01*
X48873881Y-103961107D01*
X48870098Y-103960834D01*
X48866248Y-103961028D01*
X48864745Y-103961066D01*
X48863138Y-103961418D01*
X48862935Y-103961456D01*
X48861002Y-103962075D01*
X48643418Y-104017170D01*
X48635326Y-104018059D01*
X48629610Y-104020250D01*
X48627560Y-104020908D01*
X48626281Y-104021465D01*
X48625446Y-104022028D01*
X48623746Y-104023449D01*
X48618757Y-104027208D01*
X48613783Y-104033441D01*
X48448284Y-104191158D01*
X48441503Y-104196179D01*
X48439377Y-104198873D01*
X48438064Y-104200332D01*
X48436841Y-104202073D01*
X48435716Y-104204329D01*
X48435080Y-104206099D01*
X48433943Y-104208684D01*
X48432686Y-104216927D01*
X48365390Y-104457967D01*
X48364598Y-104460276D01*
X48364303Y-104461523D01*
X48364251Y-104462926D01*
X48364394Y-104465325D01*
X48364394Y-117452756D01*
X48364113Y-117456698D01*
X45839624Y-117456698D01*
X45839823Y-98406686D01*
X48363618Y-98406686D01*
X48363806Y-98410089D01*
X48363851Y-98411744D01*
X48364235Y-98413458D01*
X48364284Y-98413718D01*
X48364907Y-98415643D01*
X48420100Y-98633611D01*
X48421036Y-98641792D01*
X48422832Y-98646395D01*
X48423459Y-98648362D01*
X48424354Y-98650291D01*
X48424384Y-98650364D01*
X48425103Y-98651419D01*
X48425131Y-98651463D01*
X48426427Y-98653011D01*
X48429932Y-98657706D01*
X48436321Y-98662795D01*
X48594370Y-98828642D01*
X48599911Y-98836049D01*
X48600520Y-98836601D01*
X48603637Y-98838783D01*
X48604837Y-98839671D01*
X48606139Y-98840281D01*
X48610579Y-98842500D01*
X48610598Y-98842506D01*
X48620194Y-98843931D01*
X48860441Y-98911007D01*
X48862601Y-98911761D01*
X48864392Y-98912188D01*
X48865640Y-98912236D01*
X48868065Y-98912094D01*
X61855412Y-98912094D01*
X61859194Y-98912366D01*
X61863045Y-98912173D01*
X61864451Y-98912137D01*
X61865818Y-98911831D01*
X61869588Y-98911081D01*
X61873234Y-98909872D01*
X62085791Y-98856049D01*
X62094304Y-98855120D01*
X62094433Y-98855069D01*
X62098553Y-98853775D01*
X62100849Y-98852693D01*
X62103126Y-98851725D01*
X62104224Y-98850964D01*
X62106216Y-98849286D01*
X62110403Y-98846189D01*
X62115588Y-98839680D01*
X62281009Y-98682036D01*
X62288890Y-98676201D01*
X62291311Y-98672747D01*
X62292511Y-98671152D01*
X62293347Y-98669354D01*
X62295193Y-98665711D01*
X62296644Y-98656129D01*
X62298287Y-98650243D01*
X62363751Y-98415768D01*
X62364510Y-98413619D01*
X62365005Y-98411605D01*
X62365049Y-98410498D01*
X62364899Y-98407923D01*
X62364899Y-98406686D01*
X67413412Y-98406686D01*
X67413600Y-98410089D01*
X67413645Y-98411744D01*
X67414029Y-98413458D01*
X67414078Y-98413718D01*
X67414701Y-98415643D01*
X67469894Y-98633611D01*
X67470830Y-98641792D01*
X67472626Y-98646395D01*
X67473253Y-98648362D01*
X67474148Y-98650291D01*
X67474178Y-98650364D01*
X67474897Y-98651419D01*
X67474925Y-98651463D01*
X67476221Y-98653011D01*
X67479726Y-98657706D01*
X67486115Y-98662795D01*
X67644164Y-98828642D01*
X67649705Y-98836049D01*
X67650314Y-98836601D01*
X67653431Y-98838783D01*
X67654631Y-98839671D01*
X67655933Y-98840281D01*
X67660373Y-98842500D01*
X67660392Y-98842506D01*
X67669988Y-98843931D01*
X67910235Y-98911007D01*
X67912395Y-98911761D01*
X67914186Y-98912188D01*
X67915434Y-98912236D01*
X67917859Y-98912094D01*
X80905206Y-98912094D01*
X80908988Y-98912366D01*
X80912839Y-98912173D01*
X80914245Y-98912137D01*
X80915612Y-98911831D01*
X80919382Y-98911081D01*
X80923028Y-98909872D01*
X81135585Y-98856049D01*
X81144098Y-98855120D01*
X81144227Y-98855069D01*
X81148347Y-98853775D01*
X81150643Y-98852693D01*
X81152920Y-98851725D01*
X81154018Y-98850964D01*
X81156010Y-98849286D01*
X81160197Y-98846189D01*
X81165382Y-98839680D01*
X81330803Y-98682036D01*
X81338684Y-98676201D01*
X81341105Y-98672747D01*
X81342305Y-98671152D01*
X81343141Y-98669354D01*
X81344987Y-98665711D01*
X81346438Y-98656129D01*
X81348081Y-98650243D01*
X81413545Y-98415768D01*
X81414304Y-98413619D01*
X81414799Y-98411605D01*
X81414843Y-98410498D01*
X81414693Y-98407923D01*
X81414693Y-98406686D01*
X86463019Y-98406686D01*
X86463207Y-98410089D01*
X86463252Y-98411744D01*
X86463636Y-98413458D01*
X86463685Y-98413718D01*
X86464308Y-98415643D01*
X86519501Y-98633611D01*
X86520437Y-98641792D01*
X86522233Y-98646395D01*
X86522860Y-98648362D01*
X86523755Y-98650291D01*
X86523785Y-98650364D01*
X86524504Y-98651419D01*
X86524532Y-98651463D01*
X86525828Y-98653011D01*
X86529333Y-98657706D01*
X86535722Y-98662795D01*
X86693771Y-98828642D01*
X86699312Y-98836049D01*
X86699921Y-98836601D01*
X86703038Y-98838783D01*
X86704238Y-98839671D01*
X86705540Y-98840281D01*
X86709980Y-98842500D01*
X86709999Y-98842506D01*
X86719595Y-98843931D01*
X86959842Y-98911007D01*
X86962002Y-98911761D01*
X86963793Y-98912188D01*
X86965041Y-98912236D01*
X86967466Y-98912094D01*
X99954813Y-98912094D01*
X99958595Y-98912366D01*
X99962446Y-98912173D01*
X99963852Y-98912137D01*
X99965219Y-98911831D01*
X99968989Y-98911081D01*
X99972635Y-98909872D01*
X100185192Y-98856049D01*
X100193705Y-98855120D01*
X100193834Y-98855069D01*
X100197954Y-98853775D01*
X100200250Y-98852693D01*
X100202527Y-98851725D01*
X100203625Y-98850964D01*
X100205617Y-98849286D01*
X100209804Y-98846189D01*
X100214989Y-98839680D01*
X100380410Y-98682036D01*
X100388291Y-98676201D01*
X100390712Y-98672747D01*
X100391912Y-98671152D01*
X100392748Y-98669354D01*
X100394594Y-98665711D01*
X100396045Y-98656129D01*
X100397688Y-98650243D01*
X100463152Y-98415768D01*
X100463911Y-98413619D01*
X100464406Y-98411605D01*
X100464450Y-98410498D01*
X100464300Y-98407923D01*
X100464300Y-98406100D01*
X105513454Y-98406100D01*
X105513684Y-98411649D01*
X105514160Y-98413972D01*
X105514705Y-98415656D01*
X105569894Y-98633611D01*
X105570830Y-98641792D01*
X105572626Y-98646395D01*
X105573253Y-98648362D01*
X105574148Y-98650291D01*
X105574178Y-98650364D01*
X105574897Y-98651419D01*
X105574925Y-98651463D01*
X105576221Y-98653011D01*
X105579726Y-98657706D01*
X105586115Y-98662795D01*
X105744164Y-98828642D01*
X105749705Y-98836049D01*
X105750314Y-98836601D01*
X105753431Y-98838783D01*
X105754631Y-98839671D01*
X105755933Y-98840281D01*
X105760373Y-98842500D01*
X105760392Y-98842506D01*
X105769988Y-98843931D01*
X106010235Y-98911007D01*
X106012395Y-98911761D01*
X106014186Y-98912188D01*
X106015434Y-98912236D01*
X106017859Y-98912094D01*
X119005206Y-98912094D01*
X119008988Y-98912366D01*
X119012839Y-98912173D01*
X119014245Y-98912137D01*
X119015612Y-98911831D01*
X119019382Y-98911081D01*
X119023028Y-98909872D01*
X119235585Y-98856049D01*
X119244098Y-98855120D01*
X119244227Y-98855069D01*
X119248347Y-98853775D01*
X119250643Y-98852693D01*
X119252920Y-98851725D01*
X119254018Y-98850964D01*
X119256010Y-98849286D01*
X119260197Y-98846189D01*
X119265382Y-98839680D01*
X119430803Y-98682036D01*
X119438684Y-98676201D01*
X119441105Y-98672747D01*
X119442305Y-98671152D01*
X119443141Y-98669354D01*
X119444987Y-98665711D01*
X119446438Y-98656129D01*
X119448081Y-98650243D01*
X119513545Y-98415768D01*
X119514304Y-98413619D01*
X119514799Y-98411605D01*
X119514843Y-98410498D01*
X119514693Y-98407923D01*
X119514693Y-98406686D01*
X124563412Y-98406686D01*
X124563600Y-98410089D01*
X124563645Y-98411744D01*
X124564029Y-98413458D01*
X124564078Y-98413718D01*
X124564701Y-98415643D01*
X124619894Y-98633611D01*
X124620830Y-98641792D01*
X124622626Y-98646395D01*
X124623253Y-98648362D01*
X124624148Y-98650291D01*
X124624178Y-98650364D01*
X124624897Y-98651419D01*
X124624925Y-98651463D01*
X124626221Y-98653011D01*
X124629726Y-98657706D01*
X124636115Y-98662795D01*
X124794164Y-98828642D01*
X124799705Y-98836049D01*
X124800314Y-98836601D01*
X124803431Y-98838783D01*
X124804631Y-98839671D01*
X124805933Y-98840281D01*
X124810373Y-98842500D01*
X124810392Y-98842506D01*
X124819988Y-98843931D01*
X125060235Y-98911007D01*
X125062395Y-98911761D01*
X125064186Y-98912188D01*
X125065434Y-98912236D01*
X125067859Y-98912094D01*
X138055206Y-98912094D01*
X138058988Y-98912366D01*
X138062839Y-98912173D01*
X138064245Y-98912137D01*
X138065612Y-98911831D01*
X138069382Y-98911081D01*
X138073028Y-98909872D01*
X138285585Y-98856049D01*
X138294098Y-98855120D01*
X138294227Y-98855069D01*
X138298347Y-98853775D01*
X138300643Y-98852693D01*
X138302920Y-98851725D01*
X138304018Y-98850964D01*
X138306010Y-98849286D01*
X138310197Y-98846189D01*
X138315382Y-98839680D01*
X138480803Y-98682036D01*
X138488684Y-98676201D01*
X138491105Y-98672747D01*
X138492305Y-98671152D01*
X138493141Y-98669354D01*
X138494987Y-98665711D01*
X138496438Y-98656129D01*
X138498081Y-98650243D01*
X138563545Y-98415768D01*
X138564304Y-98413619D01*
X138564799Y-98411605D01*
X138564843Y-98410498D01*
X138564693Y-98407923D01*
X138564693Y-98406686D01*
X153138814Y-98406686D01*
X153139002Y-98410089D01*
X153139047Y-98411744D01*
X153139431Y-98413458D01*
X153139480Y-98413718D01*
X153140103Y-98415643D01*
X153195296Y-98633611D01*
X153196232Y-98641792D01*
X153198028Y-98646395D01*
X153198655Y-98648362D01*
X153199550Y-98650291D01*
X153199580Y-98650364D01*
X153200299Y-98651419D01*
X153200327Y-98651463D01*
X153201623Y-98653011D01*
X153205128Y-98657706D01*
X153211517Y-98662795D01*
X153369566Y-98828642D01*
X153375107Y-98836049D01*
X153375716Y-98836601D01*
X153378833Y-98838783D01*
X153380033Y-98839671D01*
X153381335Y-98840281D01*
X153385775Y-98842500D01*
X153385794Y-98842506D01*
X153395390Y-98843931D01*
X153635637Y-98911007D01*
X153637797Y-98911761D01*
X153639588Y-98912188D01*
X153640836Y-98912236D01*
X153643261Y-98912094D01*
X166630608Y-98912094D01*
X166634390Y-98912366D01*
X166638241Y-98912173D01*
X166639647Y-98912137D01*
X166641014Y-98911831D01*
X166644784Y-98911081D01*
X166648430Y-98909872D01*
X166860987Y-98856049D01*
X166869500Y-98855120D01*
X166869629Y-98855069D01*
X166873749Y-98853775D01*
X166876045Y-98852693D01*
X166878322Y-98851725D01*
X166879420Y-98850964D01*
X166881412Y-98849286D01*
X166885599Y-98846189D01*
X166890784Y-98839680D01*
X167056205Y-98682036D01*
X167064086Y-98676201D01*
X167066507Y-98672747D01*
X167067707Y-98671152D01*
X167068543Y-98669354D01*
X167070389Y-98665711D01*
X167071840Y-98656129D01*
X167073497Y-98650196D01*
X167083065Y-98615923D01*
X167138946Y-98415775D01*
X167140152Y-98412357D01*
X167140331Y-98411078D01*
X167140094Y-98407473D01*
X167140094Y-98406686D01*
X172188608Y-98406686D01*
X172188796Y-98410089D01*
X172188841Y-98411744D01*
X172189225Y-98413458D01*
X172189274Y-98413718D01*
X172189897Y-98415643D01*
X172245090Y-98633611D01*
X172246026Y-98641792D01*
X172247822Y-98646395D01*
X172248449Y-98648362D01*
X172249344Y-98650291D01*
X172249374Y-98650364D01*
X172250093Y-98651419D01*
X172250121Y-98651463D01*
X172251417Y-98653011D01*
X172254922Y-98657706D01*
X172261311Y-98662795D01*
X172419360Y-98828642D01*
X172424901Y-98836049D01*
X172425510Y-98836601D01*
X172428627Y-98838783D01*
X172429827Y-98839671D01*
X172431129Y-98840281D01*
X172435569Y-98842500D01*
X172435588Y-98842506D01*
X172445184Y-98843931D01*
X172685431Y-98911007D01*
X172687591Y-98911761D01*
X172689382Y-98912188D01*
X172690630Y-98912236D01*
X172693055Y-98912094D01*
X185680402Y-98912094D01*
X185684184Y-98912366D01*
X185688035Y-98912173D01*
X185689441Y-98912137D01*
X185690808Y-98911831D01*
X185694578Y-98911081D01*
X185698224Y-98909872D01*
X185910781Y-98856049D01*
X185919294Y-98855120D01*
X185919423Y-98855069D01*
X185923543Y-98853775D01*
X185925839Y-98852693D01*
X185928116Y-98851725D01*
X185929214Y-98850964D01*
X185931206Y-98849286D01*
X185935393Y-98846189D01*
X185940578Y-98839680D01*
X186105999Y-98682036D01*
X186113880Y-98676201D01*
X186116301Y-98672747D01*
X186117501Y-98671152D01*
X186118337Y-98669354D01*
X186120183Y-98665711D01*
X186121634Y-98656129D01*
X186123277Y-98650243D01*
X186188741Y-98415768D01*
X186189500Y-98413619D01*
X186189995Y-98411605D01*
X186190039Y-98410498D01*
X186189889Y-98407923D01*
X186189889Y-98406686D01*
X191238216Y-98406686D01*
X191238404Y-98410089D01*
X191238449Y-98411744D01*
X191238833Y-98413458D01*
X191238882Y-98413718D01*
X191239505Y-98415643D01*
X191294698Y-98633611D01*
X191295634Y-98641792D01*
X191297430Y-98646395D01*
X191298057Y-98648362D01*
X191298952Y-98650291D01*
X191298982Y-98650364D01*
X191299701Y-98651419D01*
X191299729Y-98651463D01*
X191301025Y-98653011D01*
X191304530Y-98657706D01*
X191310919Y-98662795D01*
X191468968Y-98828642D01*
X191474509Y-98836049D01*
X191475118Y-98836601D01*
X191478235Y-98838783D01*
X191479435Y-98839671D01*
X191480737Y-98840281D01*
X191485177Y-98842500D01*
X191485196Y-98842506D01*
X191494792Y-98843931D01*
X191735039Y-98911007D01*
X191737199Y-98911761D01*
X191738990Y-98912188D01*
X191740238Y-98912236D01*
X191742663Y-98912094D01*
X204730010Y-98912094D01*
X204733792Y-98912366D01*
X204737643Y-98912173D01*
X204739049Y-98912137D01*
X204740416Y-98911831D01*
X204744186Y-98911081D01*
X204747832Y-98909872D01*
X204960389Y-98856049D01*
X204968902Y-98855120D01*
X204969031Y-98855069D01*
X204973151Y-98853775D01*
X204975447Y-98852693D01*
X204977724Y-98851725D01*
X204978822Y-98850964D01*
X204980814Y-98849286D01*
X204985001Y-98846189D01*
X204990186Y-98839680D01*
X205155607Y-98682036D01*
X205163488Y-98676201D01*
X205165909Y-98672747D01*
X205167109Y-98671152D01*
X205167945Y-98669354D01*
X205169791Y-98665711D01*
X205171242Y-98656129D01*
X205172885Y-98650243D01*
X205238349Y-98415768D01*
X205239108Y-98413619D01*
X205239603Y-98411605D01*
X205239647Y-98410498D01*
X205239497Y-98407923D01*
X205239497Y-98406100D01*
X210288650Y-98406100D01*
X210288880Y-98411649D01*
X210289356Y-98413972D01*
X210289901Y-98415656D01*
X210345090Y-98633611D01*
X210346026Y-98641792D01*
X210347822Y-98646395D01*
X210348449Y-98648362D01*
X210349344Y-98650291D01*
X210349374Y-98650364D01*
X210350093Y-98651419D01*
X210350121Y-98651463D01*
X210351417Y-98653011D01*
X210354922Y-98657706D01*
X210361311Y-98662795D01*
X210519360Y-98828642D01*
X210524901Y-98836049D01*
X210525510Y-98836601D01*
X210528627Y-98838783D01*
X210529827Y-98839671D01*
X210531129Y-98840281D01*
X210535569Y-98842500D01*
X210535588Y-98842506D01*
X210545184Y-98843931D01*
X210785431Y-98911007D01*
X210787591Y-98911761D01*
X210789382Y-98912188D01*
X210790630Y-98912236D01*
X210793055Y-98912094D01*
X223780402Y-98912094D01*
X223784184Y-98912366D01*
X223788035Y-98912173D01*
X223789441Y-98912137D01*
X223790808Y-98911831D01*
X223794578Y-98911081D01*
X223798224Y-98909872D01*
X224010781Y-98856049D01*
X224019294Y-98855120D01*
X224019423Y-98855069D01*
X224023543Y-98853775D01*
X224025839Y-98852693D01*
X224028116Y-98851725D01*
X224029214Y-98850964D01*
X224031206Y-98849286D01*
X224035393Y-98846189D01*
X224040578Y-98839680D01*
X224205999Y-98682036D01*
X224213880Y-98676201D01*
X224216301Y-98672747D01*
X224217501Y-98671152D01*
X224218337Y-98669354D01*
X224220183Y-98665711D01*
X224221634Y-98656129D01*
X224223277Y-98650243D01*
X224288741Y-98415768D01*
X224289500Y-98413619D01*
X224289995Y-98411605D01*
X224290039Y-98410498D01*
X224289889Y-98407923D01*
X224289889Y-98406686D01*
X229338608Y-98406686D01*
X229338796Y-98410089D01*
X229338841Y-98411744D01*
X229339225Y-98413458D01*
X229339274Y-98413718D01*
X229339897Y-98415643D01*
X229395090Y-98633611D01*
X229396026Y-98641792D01*
X229397822Y-98646395D01*
X229398449Y-98648362D01*
X229399344Y-98650291D01*
X229399374Y-98650364D01*
X229400093Y-98651419D01*
X229400121Y-98651463D01*
X229401417Y-98653011D01*
X229404922Y-98657706D01*
X229411311Y-98662795D01*
X229569360Y-98828642D01*
X229574901Y-98836049D01*
X229575510Y-98836601D01*
X229578627Y-98838783D01*
X229579827Y-98839671D01*
X229581129Y-98840281D01*
X229585569Y-98842500D01*
X229585588Y-98842506D01*
X229595184Y-98843931D01*
X229835431Y-98911007D01*
X229837591Y-98911761D01*
X229839382Y-98912188D01*
X229840630Y-98912236D01*
X229843055Y-98912094D01*
X242830402Y-98912094D01*
X242834184Y-98912366D01*
X242838035Y-98912173D01*
X242839441Y-98912137D01*
X242840808Y-98911831D01*
X242844578Y-98911081D01*
X242848224Y-98909872D01*
X243060781Y-98856049D01*
X243069294Y-98855120D01*
X243069423Y-98855069D01*
X243073543Y-98853775D01*
X243075839Y-98852693D01*
X243078116Y-98851725D01*
X243079214Y-98850964D01*
X243081206Y-98849286D01*
X243085393Y-98846189D01*
X243090578Y-98839680D01*
X243255999Y-98682036D01*
X243263880Y-98676201D01*
X243266301Y-98672747D01*
X243267501Y-98671152D01*
X243268337Y-98669354D01*
X243270183Y-98665711D01*
X243271634Y-98656129D01*
X243273277Y-98650243D01*
X243338741Y-98415768D01*
X243339500Y-98413619D01*
X243339995Y-98411605D01*
X243340039Y-98410498D01*
X243339889Y-98407923D01*
X243339889Y-85420581D01*
X243340161Y-85416800D01*
X243339968Y-85412949D01*
X243339932Y-85411548D01*
X243339635Y-85410227D01*
X243338836Y-85406232D01*
X243337627Y-85402602D01*
X243283987Y-85190765D01*
X243283106Y-85182332D01*
X243280978Y-85176864D01*
X243280149Y-85174245D01*
X243279594Y-85172926D01*
X243279205Y-85172360D01*
X243277284Y-85170073D01*
X243273923Y-85165570D01*
X243267558Y-85160490D01*
X243110289Y-84995461D01*
X243104904Y-84988108D01*
X243103136Y-84986506D01*
X243100139Y-84984398D01*
X243098958Y-84983519D01*
X243097627Y-84982887D01*
X243094264Y-84981183D01*
X243093411Y-84980877D01*
X243084388Y-84979476D01*
X242843189Y-84912135D01*
X242840951Y-84911361D01*
X242839431Y-84911000D01*
X242838146Y-84910951D01*
X242835722Y-84911094D01*
X229848376Y-84911094D01*
X229844593Y-84910821D01*
X229840743Y-84911015D01*
X229839240Y-84911053D01*
X229837633Y-84911405D01*
X229837430Y-84911443D01*
X229835497Y-84912062D01*
X229617913Y-84967157D01*
X229609821Y-84968046D01*
X229604105Y-84970237D01*
X229602055Y-84970895D01*
X229600776Y-84971452D01*
X229599941Y-84972015D01*
X229598241Y-84973436D01*
X229593252Y-84977195D01*
X229588278Y-84983428D01*
X229422779Y-85141145D01*
X229415998Y-85146166D01*
X229413872Y-85148860D01*
X229412559Y-85150319D01*
X229411336Y-85152060D01*
X229410211Y-85154316D01*
X229409575Y-85156086D01*
X229408438Y-85158671D01*
X229407181Y-85166914D01*
X229339885Y-85407954D01*
X229339093Y-85410263D01*
X229338798Y-85411510D01*
X229338746Y-85412913D01*
X229338889Y-85415312D01*
X229338889Y-98402744D01*
X229338608Y-98406686D01*
X224289889Y-98406686D01*
X224289889Y-98402744D01*
X224289889Y-85420567D01*
X224290161Y-85416795D01*
X224289968Y-85412949D01*
X224289932Y-85411548D01*
X224289635Y-85410227D01*
X224288836Y-85406232D01*
X224287627Y-85402602D01*
X224233987Y-85190765D01*
X224233106Y-85182332D01*
X224230978Y-85176864D01*
X224230149Y-85174245D01*
X224229594Y-85172926D01*
X224229205Y-85172360D01*
X224227284Y-85170073D01*
X224223923Y-85165570D01*
X224217558Y-85160490D01*
X224060289Y-84995461D01*
X224054904Y-84988108D01*
X224053136Y-84986506D01*
X224050139Y-84984398D01*
X224048958Y-84983519D01*
X224047627Y-84982887D01*
X224044264Y-84981183D01*
X224043411Y-84980877D01*
X224034388Y-84979476D01*
X223793189Y-84912135D01*
X223790951Y-84911361D01*
X223789431Y-84911000D01*
X223788146Y-84910951D01*
X223785722Y-84911094D01*
X210798376Y-84911094D01*
X210794593Y-84910821D01*
X210790743Y-84911015D01*
X210789240Y-84911053D01*
X210787633Y-84911405D01*
X210787430Y-84911443D01*
X210785497Y-84912062D01*
X210567913Y-84967157D01*
X210559821Y-84968046D01*
X210554105Y-84970237D01*
X210552055Y-84970895D01*
X210550776Y-84971452D01*
X210549941Y-84972015D01*
X210548241Y-84973436D01*
X210543252Y-84977195D01*
X210538278Y-84983428D01*
X210372779Y-85141145D01*
X210365998Y-85146166D01*
X210363872Y-85148860D01*
X210362559Y-85150319D01*
X210361336Y-85152060D01*
X210360211Y-85154316D01*
X210359575Y-85156086D01*
X210358438Y-85158671D01*
X210357181Y-85166914D01*
X210289885Y-85407954D01*
X210289093Y-85410263D01*
X210288798Y-85411510D01*
X210288746Y-85412913D01*
X210288889Y-85415312D01*
X210288889Y-98402747D01*
X210288650Y-98406100D01*
X205239497Y-98406100D01*
X205239497Y-85420581D01*
X205239769Y-85416800D01*
X205239576Y-85412949D01*
X205239540Y-85411548D01*
X205239243Y-85410227D01*
X205238444Y-85406232D01*
X205237235Y-85402602D01*
X205183595Y-85190765D01*
X205182714Y-85182332D01*
X205180586Y-85176864D01*
X205179757Y-85174245D01*
X205179202Y-85172926D01*
X205178813Y-85172360D01*
X205176892Y-85170073D01*
X205173531Y-85165570D01*
X205167166Y-85160490D01*
X205009897Y-84995461D01*
X205004512Y-84988108D01*
X205002744Y-84986506D01*
X204999747Y-84984398D01*
X204998566Y-84983519D01*
X204997235Y-84982887D01*
X204993872Y-84981183D01*
X204993019Y-84980877D01*
X204983996Y-84979476D01*
X204742797Y-84912135D01*
X204740559Y-84911361D01*
X204739039Y-84911000D01*
X204737754Y-84910951D01*
X204735330Y-84911094D01*
X191747984Y-84911094D01*
X191744201Y-84910821D01*
X191740351Y-84911015D01*
X191738848Y-84911053D01*
X191737241Y-84911405D01*
X191737038Y-84911443D01*
X191735105Y-84912062D01*
X191517521Y-84967157D01*
X191509429Y-84968046D01*
X191503713Y-84970237D01*
X191501663Y-84970895D01*
X191500384Y-84971452D01*
X191499549Y-84972015D01*
X191497849Y-84973436D01*
X191492860Y-84977195D01*
X191487886Y-84983428D01*
X191322387Y-85141145D01*
X191315606Y-85146166D01*
X191313480Y-85148860D01*
X191312167Y-85150319D01*
X191310944Y-85152060D01*
X191309819Y-85154316D01*
X191309183Y-85156086D01*
X191308046Y-85158671D01*
X191306789Y-85166914D01*
X191239493Y-85407954D01*
X191238701Y-85410263D01*
X191238406Y-85411510D01*
X191238354Y-85412913D01*
X191238497Y-85415312D01*
X191238497Y-98402744D01*
X191238216Y-98406686D01*
X186189889Y-98406686D01*
X186189889Y-85420581D01*
X186190161Y-85416800D01*
X186189968Y-85412949D01*
X186189932Y-85411548D01*
X186189635Y-85410227D01*
X186188836Y-85406232D01*
X186187627Y-85402602D01*
X186133987Y-85190765D01*
X186133106Y-85182332D01*
X186130978Y-85176864D01*
X186130149Y-85174245D01*
X186129594Y-85172926D01*
X186129205Y-85172360D01*
X186127284Y-85170073D01*
X186123923Y-85165570D01*
X186117558Y-85160490D01*
X185960289Y-84995461D01*
X185954904Y-84988108D01*
X185953136Y-84986506D01*
X185950139Y-84984398D01*
X185948958Y-84983519D01*
X185947627Y-84982887D01*
X185944264Y-84981183D01*
X185943411Y-84980877D01*
X185934388Y-84979476D01*
X185693189Y-84912135D01*
X185690951Y-84911361D01*
X185689431Y-84911000D01*
X185688146Y-84910951D01*
X185685722Y-84911094D01*
X172698376Y-84911094D01*
X172694593Y-84910821D01*
X172690743Y-84911015D01*
X172689240Y-84911053D01*
X172687633Y-84911405D01*
X172687430Y-84911443D01*
X172685497Y-84912062D01*
X172467913Y-84967157D01*
X172459821Y-84968046D01*
X172454105Y-84970237D01*
X172452055Y-84970895D01*
X172450776Y-84971452D01*
X172449941Y-84972015D01*
X172448241Y-84973436D01*
X172443252Y-84977195D01*
X172438278Y-84983428D01*
X172272779Y-85141145D01*
X172265998Y-85146166D01*
X172263872Y-85148860D01*
X172262559Y-85150319D01*
X172261336Y-85152060D01*
X172260211Y-85154316D01*
X172259575Y-85156086D01*
X172258438Y-85158671D01*
X172257181Y-85166914D01*
X172189885Y-85407954D01*
X172189093Y-85410263D01*
X172188798Y-85411510D01*
X172188746Y-85412913D01*
X172188889Y-85415312D01*
X172188889Y-98402744D01*
X172188608Y-98406686D01*
X167140094Y-98406686D01*
X167140094Y-98402744D01*
X167140094Y-85420567D01*
X167140367Y-85416795D01*
X167140174Y-85412949D01*
X167140138Y-85411548D01*
X167139841Y-85410227D01*
X167139042Y-85406232D01*
X167137833Y-85402602D01*
X167084193Y-85190765D01*
X167083312Y-85182332D01*
X167081184Y-85176864D01*
X167080355Y-85174245D01*
X167079800Y-85172926D01*
X167079411Y-85172360D01*
X167077490Y-85170073D01*
X167074129Y-85165570D01*
X167067764Y-85160490D01*
X166910495Y-84995461D01*
X166905110Y-84988108D01*
X166903342Y-84986506D01*
X166900345Y-84984398D01*
X166899164Y-84983519D01*
X166897833Y-84982887D01*
X166894470Y-84981183D01*
X166893617Y-84980877D01*
X166884594Y-84979476D01*
X166643395Y-84912135D01*
X166641157Y-84911361D01*
X166639637Y-84911000D01*
X166638352Y-84910951D01*
X166635928Y-84911094D01*
X153648582Y-84911094D01*
X153644799Y-84910821D01*
X153640949Y-84911015D01*
X153639446Y-84911053D01*
X153637839Y-84911405D01*
X153637636Y-84911443D01*
X153635703Y-84912062D01*
X153418119Y-84967157D01*
X153410027Y-84968046D01*
X153404311Y-84970237D01*
X153402261Y-84970895D01*
X153400982Y-84971452D01*
X153400147Y-84972015D01*
X153398447Y-84973436D01*
X153393458Y-84977195D01*
X153388484Y-84983428D01*
X153222985Y-85141145D01*
X153216204Y-85146166D01*
X153214078Y-85148860D01*
X153212765Y-85150319D01*
X153211542Y-85152060D01*
X153210417Y-85154316D01*
X153209781Y-85156086D01*
X153208644Y-85158671D01*
X153207387Y-85166914D01*
X153140091Y-85407954D01*
X153139299Y-85410263D01*
X153139004Y-85411510D01*
X153138952Y-85412913D01*
X153139095Y-85415312D01*
X153139095Y-98402744D01*
X153138814Y-98406686D01*
X138564693Y-98406686D01*
X138564693Y-85420581D01*
X138564965Y-85416800D01*
X138564772Y-85412949D01*
X138564736Y-85411548D01*
X138564439Y-85410227D01*
X138563640Y-85406232D01*
X138562431Y-85402602D01*
X138508791Y-85190765D01*
X138507910Y-85182332D01*
X138505782Y-85176864D01*
X138504953Y-85174245D01*
X138504398Y-85172926D01*
X138504009Y-85172360D01*
X138502088Y-85170073D01*
X138498727Y-85165570D01*
X138492362Y-85160490D01*
X138335093Y-84995461D01*
X138329708Y-84988108D01*
X138327940Y-84986506D01*
X138324943Y-84984398D01*
X138323762Y-84983519D01*
X138322431Y-84982887D01*
X138319068Y-84981183D01*
X138318215Y-84980877D01*
X138309192Y-84979476D01*
X138067993Y-84912135D01*
X138065755Y-84911361D01*
X138064235Y-84911000D01*
X138062950Y-84910951D01*
X138060526Y-84911094D01*
X125073180Y-84911094D01*
X125069397Y-84910821D01*
X125065547Y-84911015D01*
X125064044Y-84911053D01*
X125062437Y-84911405D01*
X125062234Y-84911443D01*
X125060301Y-84912062D01*
X124842717Y-84967157D01*
X124834625Y-84968046D01*
X124828909Y-84970237D01*
X124826859Y-84970895D01*
X124825580Y-84971452D01*
X124824745Y-84972015D01*
X124823045Y-84973436D01*
X124818056Y-84977195D01*
X124813082Y-84983428D01*
X124647583Y-85141145D01*
X124640802Y-85146166D01*
X124638676Y-85148860D01*
X124637363Y-85150319D01*
X124636140Y-85152060D01*
X124635015Y-85154316D01*
X124634379Y-85156086D01*
X124633242Y-85158671D01*
X124631985Y-85166914D01*
X124564689Y-85407954D01*
X124563897Y-85410263D01*
X124563602Y-85411510D01*
X124563550Y-85412913D01*
X124563693Y-85415312D01*
X124563693Y-98402744D01*
X124563412Y-98406686D01*
X119514693Y-98406686D01*
X119514693Y-85420581D01*
X119514965Y-85416800D01*
X119514772Y-85412949D01*
X119514736Y-85411548D01*
X119514439Y-85410227D01*
X119513640Y-85406232D01*
X119512431Y-85402602D01*
X119458791Y-85190765D01*
X119457910Y-85182332D01*
X119455782Y-85176864D01*
X119454953Y-85174245D01*
X119454398Y-85172926D01*
X119454009Y-85172360D01*
X119452088Y-85170073D01*
X119448727Y-85165570D01*
X119442362Y-85160490D01*
X119285093Y-84995461D01*
X119279708Y-84988108D01*
X119277940Y-84986506D01*
X119274943Y-84984398D01*
X119273762Y-84983519D01*
X119272431Y-84982887D01*
X119269068Y-84981183D01*
X119268215Y-84980877D01*
X119259192Y-84979476D01*
X119017993Y-84912135D01*
X119015755Y-84911361D01*
X119014235Y-84911000D01*
X119012950Y-84910951D01*
X119010526Y-84911094D01*
X106023180Y-84911094D01*
X106019397Y-84910821D01*
X106015547Y-84911015D01*
X106014044Y-84911053D01*
X106012437Y-84911405D01*
X106012234Y-84911443D01*
X106010301Y-84912062D01*
X105792717Y-84967157D01*
X105784625Y-84968046D01*
X105778909Y-84970237D01*
X105776859Y-84970895D01*
X105775580Y-84971452D01*
X105774745Y-84972015D01*
X105773045Y-84973436D01*
X105768056Y-84977195D01*
X105763082Y-84983428D01*
X105597583Y-85141145D01*
X105590802Y-85146166D01*
X105588676Y-85148860D01*
X105587363Y-85150319D01*
X105586140Y-85152060D01*
X105585015Y-85154316D01*
X105584379Y-85156086D01*
X105583242Y-85158671D01*
X105581985Y-85166914D01*
X105514689Y-85407954D01*
X105513897Y-85410263D01*
X105513602Y-85411510D01*
X105513550Y-85412913D01*
X105513693Y-85415312D01*
X105513693Y-98402747D01*
X105513454Y-98406100D01*
X100464300Y-98406100D01*
X100464300Y-85420581D01*
X100464572Y-85416800D01*
X100464379Y-85412949D01*
X100464343Y-85411548D01*
X100464046Y-85410227D01*
X100463247Y-85406232D01*
X100462038Y-85402602D01*
X100408398Y-85190765D01*
X100407517Y-85182332D01*
X100405389Y-85176864D01*
X100404560Y-85174245D01*
X100404005Y-85172926D01*
X100403616Y-85172360D01*
X100401695Y-85170073D01*
X100398334Y-85165570D01*
X100391969Y-85160490D01*
X100234700Y-84995461D01*
X100229315Y-84988108D01*
X100227547Y-84986506D01*
X100224550Y-84984398D01*
X100223369Y-84983519D01*
X100222038Y-84982887D01*
X100218675Y-84981183D01*
X100217822Y-84980877D01*
X100208799Y-84979476D01*
X99967600Y-84912135D01*
X99965362Y-84911361D01*
X99963842Y-84911000D01*
X99962557Y-84910951D01*
X99960133Y-84911094D01*
X86972787Y-84911094D01*
X86969004Y-84910821D01*
X86965154Y-84911015D01*
X86963651Y-84911053D01*
X86962044Y-84911405D01*
X86961841Y-84911443D01*
X86959908Y-84912062D01*
X86742324Y-84967157D01*
X86734232Y-84968046D01*
X86728516Y-84970237D01*
X86726466Y-84970895D01*
X86725187Y-84971452D01*
X86724352Y-84972015D01*
X86722652Y-84973436D01*
X86717663Y-84977195D01*
X86712689Y-84983428D01*
X86547190Y-85141145D01*
X86540409Y-85146166D01*
X86538283Y-85148860D01*
X86536970Y-85150319D01*
X86535747Y-85152060D01*
X86534622Y-85154316D01*
X86533986Y-85156086D01*
X86532849Y-85158671D01*
X86531592Y-85166914D01*
X86464296Y-85407954D01*
X86463504Y-85410263D01*
X86463209Y-85411510D01*
X86463157Y-85412913D01*
X86463300Y-85415312D01*
X86463300Y-98402744D01*
X86463019Y-98406686D01*
X81414693Y-98406686D01*
X81414693Y-85420581D01*
X81414965Y-85416800D01*
X81414772Y-85412949D01*
X81414736Y-85411548D01*
X81414439Y-85410227D01*
X81413640Y-85406232D01*
X81412431Y-85402602D01*
X81358791Y-85190765D01*
X81357910Y-85182332D01*
X81355782Y-85176864D01*
X81354953Y-85174245D01*
X81354398Y-85172926D01*
X81354009Y-85172360D01*
X81352088Y-85170073D01*
X81348727Y-85165570D01*
X81342362Y-85160490D01*
X81185093Y-84995461D01*
X81179708Y-84988108D01*
X81177940Y-84986506D01*
X81174943Y-84984398D01*
X81173762Y-84983519D01*
X81172431Y-84982887D01*
X81169068Y-84981183D01*
X81168215Y-84980877D01*
X81159192Y-84979476D01*
X80917993Y-84912135D01*
X80915755Y-84911361D01*
X80914235Y-84911000D01*
X80912950Y-84910951D01*
X80910526Y-84911094D01*
X67923180Y-84911094D01*
X67919397Y-84910821D01*
X67915547Y-84911015D01*
X67914044Y-84911053D01*
X67912437Y-84911405D01*
X67912234Y-84911443D01*
X67910301Y-84912062D01*
X67692717Y-84967157D01*
X67684625Y-84968046D01*
X67678909Y-84970237D01*
X67676859Y-84970895D01*
X67675580Y-84971452D01*
X67674745Y-84972015D01*
X67673045Y-84973436D01*
X67668056Y-84977195D01*
X67663082Y-84983428D01*
X67497583Y-85141145D01*
X67490802Y-85146166D01*
X67488676Y-85148860D01*
X67487363Y-85150319D01*
X67486140Y-85152060D01*
X67485015Y-85154316D01*
X67484379Y-85156086D01*
X67483242Y-85158671D01*
X67481985Y-85166914D01*
X67414689Y-85407954D01*
X67413897Y-85410263D01*
X67413602Y-85411510D01*
X67413550Y-85412913D01*
X67413693Y-85415312D01*
X67413693Y-98402744D01*
X67413412Y-98406686D01*
X62364899Y-98406686D01*
X62364899Y-85420583D01*
X62365208Y-85416300D01*
X62365078Y-85414252D01*
X62365028Y-85411558D01*
X62364427Y-85408960D01*
X62364012Y-85406730D01*
X62362635Y-85402593D01*
X62308997Y-85190765D01*
X62308116Y-85182332D01*
X62305988Y-85176864D01*
X62305159Y-85174245D01*
X62304604Y-85172926D01*
X62304215Y-85172360D01*
X62302294Y-85170073D01*
X62298933Y-85165570D01*
X62292568Y-85160490D01*
X62135299Y-84995461D01*
X62129914Y-84988108D01*
X62128146Y-84986506D01*
X62125149Y-84984398D01*
X62123968Y-84983519D01*
X62122637Y-84982887D01*
X62119274Y-84981183D01*
X62118421Y-84980877D01*
X62109398Y-84979476D01*
X61868199Y-84912135D01*
X61865961Y-84911361D01*
X61864441Y-84911000D01*
X61863156Y-84910951D01*
X61860732Y-84911094D01*
X48873386Y-84911094D01*
X48869603Y-84910821D01*
X48865753Y-84911015D01*
X48864250Y-84911053D01*
X48862643Y-84911405D01*
X48862440Y-84911443D01*
X48860507Y-84912062D01*
X48642923Y-84967157D01*
X48634831Y-84968046D01*
X48629115Y-84970237D01*
X48627065Y-84970895D01*
X48625786Y-84971452D01*
X48624951Y-84972015D01*
X48623251Y-84973436D01*
X48618262Y-84977195D01*
X48613288Y-84983428D01*
X48447789Y-85141145D01*
X48441008Y-85146166D01*
X48438882Y-85148860D01*
X48437569Y-85150319D01*
X48436346Y-85152060D01*
X48435221Y-85154316D01*
X48434585Y-85156086D01*
X48433448Y-85158671D01*
X48432191Y-85166914D01*
X48364895Y-85407954D01*
X48364103Y-85410263D01*
X48363808Y-85411510D01*
X48363756Y-85412913D01*
X48363899Y-85415312D01*
X48363899Y-98402744D01*
X48363618Y-98406686D01*
X45839823Y-98406686D01*
X45839992Y-82265350D01*
X45839992Y-79356705D01*
X48363618Y-79356705D01*
X48363806Y-79360108D01*
X48363851Y-79361763D01*
X48364235Y-79363477D01*
X48364284Y-79363737D01*
X48364907Y-79365662D01*
X48420100Y-79583630D01*
X48421036Y-79591811D01*
X48422832Y-79596414D01*
X48423459Y-79598381D01*
X48424354Y-79600310D01*
X48424384Y-79600383D01*
X48425103Y-79601438D01*
X48425131Y-79601482D01*
X48426427Y-79603030D01*
X48429932Y-79607725D01*
X48436321Y-79612814D01*
X48594370Y-79778661D01*
X48599911Y-79786068D01*
X48600520Y-79786620D01*
X48603637Y-79788802D01*
X48604837Y-79789690D01*
X48606139Y-79790300D01*
X48610579Y-79792519D01*
X48610598Y-79792525D01*
X48620194Y-79793950D01*
X48860441Y-79861026D01*
X48862601Y-79861780D01*
X48864392Y-79862207D01*
X48865640Y-79862255D01*
X48868065Y-79862113D01*
X61855412Y-79862113D01*
X61859194Y-79862385D01*
X61863045Y-79862192D01*
X61864451Y-79862156D01*
X61865818Y-79861850D01*
X61869588Y-79861100D01*
X61873234Y-79859891D01*
X62085791Y-79806068D01*
X62094304Y-79805139D01*
X62094433Y-79805088D01*
X62098553Y-79803794D01*
X62100849Y-79802712D01*
X62103126Y-79801744D01*
X62104224Y-79800983D01*
X62106216Y-79799305D01*
X62110403Y-79796208D01*
X62115588Y-79789699D01*
X62281009Y-79632055D01*
X62288890Y-79626220D01*
X62291311Y-79622766D01*
X62292511Y-79621171D01*
X62293347Y-79619373D01*
X62295193Y-79615730D01*
X62296644Y-79606148D01*
X62298287Y-79600262D01*
X62363751Y-79365787D01*
X62364510Y-79363638D01*
X62365005Y-79361624D01*
X62365049Y-79360517D01*
X62364899Y-79357942D01*
X62364899Y-79356705D01*
X67413412Y-79356705D01*
X67413600Y-79360108D01*
X67413645Y-79361763D01*
X67414029Y-79363477D01*
X67414078Y-79363737D01*
X67414701Y-79365662D01*
X67469894Y-79583630D01*
X67470830Y-79591811D01*
X67472626Y-79596414D01*
X67473253Y-79598381D01*
X67474148Y-79600310D01*
X67474178Y-79600383D01*
X67474897Y-79601438D01*
X67474925Y-79601482D01*
X67476221Y-79603030D01*
X67479726Y-79607725D01*
X67486115Y-79612814D01*
X67644164Y-79778661D01*
X67649705Y-79786068D01*
X67650314Y-79786620D01*
X67653431Y-79788802D01*
X67654631Y-79789690D01*
X67655933Y-79790300D01*
X67660373Y-79792519D01*
X67660392Y-79792525D01*
X67669988Y-79793950D01*
X67910235Y-79861026D01*
X67912395Y-79861780D01*
X67914186Y-79862207D01*
X67915434Y-79862255D01*
X67917859Y-79862113D01*
X80905206Y-79862113D01*
X80908988Y-79862385D01*
X80912839Y-79862192D01*
X80914245Y-79862156D01*
X80915612Y-79861850D01*
X80919382Y-79861100D01*
X80923028Y-79859891D01*
X81135585Y-79806068D01*
X81144098Y-79805139D01*
X81144227Y-79805088D01*
X81148347Y-79803794D01*
X81150643Y-79802712D01*
X81152920Y-79801744D01*
X81154018Y-79800983D01*
X81156010Y-79799305D01*
X81160197Y-79796208D01*
X81165382Y-79789699D01*
X81330803Y-79632055D01*
X81338684Y-79626220D01*
X81341105Y-79622766D01*
X81342305Y-79621171D01*
X81343141Y-79619373D01*
X81344987Y-79615730D01*
X81346438Y-79606148D01*
X81348081Y-79600262D01*
X81413545Y-79365787D01*
X81414304Y-79363638D01*
X81414799Y-79361624D01*
X81414843Y-79360517D01*
X81414693Y-79357942D01*
X81414693Y-79356704D01*
X86463019Y-79356704D01*
X86463207Y-79360108D01*
X86463252Y-79361763D01*
X86463636Y-79363477D01*
X86463685Y-79363737D01*
X86464308Y-79365662D01*
X86519501Y-79583630D01*
X86520437Y-79591811D01*
X86522233Y-79596414D01*
X86522860Y-79598381D01*
X86523755Y-79600310D01*
X86523785Y-79600383D01*
X86524504Y-79601438D01*
X86524532Y-79601482D01*
X86525828Y-79603030D01*
X86529333Y-79607725D01*
X86535722Y-79612814D01*
X86693771Y-79778661D01*
X86699312Y-79786068D01*
X86699921Y-79786620D01*
X86703038Y-79788802D01*
X86704238Y-79789690D01*
X86705540Y-79790300D01*
X86709980Y-79792519D01*
X86709999Y-79792525D01*
X86719595Y-79793950D01*
X86959842Y-79861026D01*
X86962002Y-79861780D01*
X86963793Y-79862207D01*
X86965041Y-79862255D01*
X86967466Y-79862113D01*
X99954813Y-79862113D01*
X99958595Y-79862385D01*
X99962446Y-79862192D01*
X99963852Y-79862156D01*
X99965219Y-79861850D01*
X99968989Y-79861100D01*
X99972635Y-79859891D01*
X100185192Y-79806068D01*
X100193705Y-79805139D01*
X100193834Y-79805088D01*
X100197954Y-79803794D01*
X100200250Y-79802712D01*
X100202527Y-79801744D01*
X100203625Y-79800983D01*
X100205617Y-79799305D01*
X100209804Y-79796208D01*
X100214989Y-79789699D01*
X100380410Y-79632055D01*
X100388291Y-79626220D01*
X100390712Y-79622766D01*
X100391912Y-79621171D01*
X100392748Y-79619373D01*
X100394594Y-79615730D01*
X100396045Y-79606148D01*
X100397688Y-79600262D01*
X100463152Y-79365787D01*
X100463911Y-79363638D01*
X100464406Y-79361624D01*
X100464450Y-79360517D01*
X100464300Y-79357942D01*
X100464300Y-79356119D01*
X105513454Y-79356119D01*
X105513684Y-79361668D01*
X105514160Y-79363991D01*
X105514705Y-79365675D01*
X105569894Y-79583630D01*
X105570830Y-79591811D01*
X105572626Y-79596414D01*
X105573253Y-79598381D01*
X105574148Y-79600310D01*
X105574178Y-79600383D01*
X105574897Y-79601438D01*
X105574925Y-79601482D01*
X105576221Y-79603030D01*
X105579726Y-79607725D01*
X105586115Y-79612814D01*
X105744164Y-79778661D01*
X105749705Y-79786068D01*
X105750314Y-79786620D01*
X105753431Y-79788802D01*
X105754631Y-79789690D01*
X105755933Y-79790300D01*
X105760373Y-79792519D01*
X105760392Y-79792525D01*
X105769988Y-79793950D01*
X106010235Y-79861026D01*
X106012395Y-79861780D01*
X106014186Y-79862207D01*
X106015434Y-79862255D01*
X106017859Y-79862113D01*
X119005206Y-79862113D01*
X119008988Y-79862385D01*
X119012839Y-79862192D01*
X119014245Y-79862156D01*
X119015612Y-79861850D01*
X119019382Y-79861100D01*
X119023028Y-79859891D01*
X119235585Y-79806068D01*
X119244098Y-79805139D01*
X119244227Y-79805088D01*
X119248347Y-79803794D01*
X119250643Y-79802712D01*
X119252920Y-79801744D01*
X119254018Y-79800983D01*
X119256010Y-79799305D01*
X119260197Y-79796208D01*
X119265382Y-79789699D01*
X119430803Y-79632055D01*
X119438684Y-79626220D01*
X119441105Y-79622766D01*
X119442305Y-79621171D01*
X119443141Y-79619373D01*
X119444987Y-79615730D01*
X119446438Y-79606148D01*
X119448081Y-79600262D01*
X119513545Y-79365787D01*
X119514304Y-79363638D01*
X119514799Y-79361624D01*
X119514843Y-79360517D01*
X119514693Y-79357942D01*
X119514693Y-79356704D01*
X124563412Y-79356704D01*
X124563600Y-79360108D01*
X124563645Y-79361763D01*
X124564029Y-79363477D01*
X124564078Y-79363737D01*
X124564701Y-79365662D01*
X124619894Y-79583630D01*
X124620830Y-79591811D01*
X124622626Y-79596414D01*
X124623253Y-79598381D01*
X124624148Y-79600310D01*
X124624178Y-79600383D01*
X124624897Y-79601438D01*
X124624925Y-79601482D01*
X124626221Y-79603030D01*
X124629726Y-79607725D01*
X124636115Y-79612814D01*
X124794164Y-79778661D01*
X124799705Y-79786068D01*
X124800314Y-79786620D01*
X124803431Y-79788802D01*
X124804631Y-79789690D01*
X124805933Y-79790300D01*
X124810373Y-79792519D01*
X124810392Y-79792525D01*
X124819988Y-79793950D01*
X125060235Y-79861026D01*
X125062395Y-79861780D01*
X125064186Y-79862207D01*
X125065434Y-79862255D01*
X125067859Y-79862113D01*
X138055206Y-79862113D01*
X138058988Y-79862385D01*
X138062839Y-79862192D01*
X138064245Y-79862156D01*
X138065612Y-79861850D01*
X138069382Y-79861100D01*
X138073028Y-79859891D01*
X138285585Y-79806068D01*
X138294098Y-79805139D01*
X138294227Y-79805088D01*
X138298347Y-79803794D01*
X138300643Y-79802712D01*
X138302920Y-79801744D01*
X138304018Y-79800983D01*
X138306010Y-79799305D01*
X138310197Y-79796208D01*
X138315382Y-79789699D01*
X138480803Y-79632055D01*
X138488684Y-79626220D01*
X138491105Y-79622766D01*
X138492305Y-79621171D01*
X138493141Y-79619373D01*
X138494987Y-79615730D01*
X138496438Y-79606148D01*
X138498081Y-79600262D01*
X138563545Y-79365787D01*
X138564304Y-79363638D01*
X138564799Y-79361624D01*
X138564843Y-79360517D01*
X138564693Y-79357942D01*
X138564693Y-79356704D01*
X153138318Y-79356704D01*
X153138506Y-79360108D01*
X153138551Y-79361763D01*
X153138935Y-79363477D01*
X153138984Y-79363737D01*
X153139607Y-79365662D01*
X153194800Y-79583630D01*
X153195736Y-79591811D01*
X153197532Y-79596414D01*
X153198159Y-79598381D01*
X153199054Y-79600310D01*
X153199084Y-79600383D01*
X153199803Y-79601438D01*
X153199831Y-79601482D01*
X153201127Y-79603030D01*
X153204632Y-79607725D01*
X153211021Y-79612814D01*
X153369070Y-79778661D01*
X153374611Y-79786068D01*
X153375220Y-79786620D01*
X153378337Y-79788802D01*
X153379537Y-79789690D01*
X153380839Y-79790300D01*
X153385279Y-79792519D01*
X153385298Y-79792525D01*
X153394894Y-79793950D01*
X153635141Y-79861026D01*
X153637301Y-79861780D01*
X153639092Y-79862207D01*
X153640340Y-79862255D01*
X153642765Y-79862113D01*
X166630112Y-79862113D01*
X166633894Y-79862385D01*
X166637745Y-79862192D01*
X166639151Y-79862156D01*
X166640518Y-79861850D01*
X166644288Y-79861100D01*
X166647934Y-79859891D01*
X166860491Y-79806068D01*
X166869004Y-79805139D01*
X166869133Y-79805088D01*
X166873253Y-79803794D01*
X166875549Y-79802712D01*
X166877826Y-79801744D01*
X166878924Y-79800983D01*
X166880916Y-79799305D01*
X166885103Y-79796208D01*
X166890288Y-79789699D01*
X167055709Y-79632055D01*
X167063590Y-79626220D01*
X167066011Y-79622766D01*
X167067211Y-79621171D01*
X167068047Y-79619373D01*
X167069893Y-79615730D01*
X167071344Y-79606148D01*
X167073001Y-79600215D01*
X167082569Y-79565942D01*
X167138450Y-79365794D01*
X167139656Y-79362376D01*
X167139835Y-79361097D01*
X167139598Y-79357492D01*
X167139598Y-79356705D01*
X172188113Y-79356705D01*
X172188301Y-79360108D01*
X172188346Y-79361763D01*
X172188730Y-79363477D01*
X172188779Y-79363737D01*
X172189402Y-79365662D01*
X172244595Y-79583630D01*
X172245531Y-79591811D01*
X172247327Y-79596414D01*
X172247954Y-79598381D01*
X172248849Y-79600310D01*
X172248879Y-79600383D01*
X172249598Y-79601438D01*
X172249626Y-79601482D01*
X172250922Y-79603030D01*
X172254427Y-79607725D01*
X172260816Y-79612814D01*
X172418865Y-79778661D01*
X172424406Y-79786068D01*
X172425015Y-79786620D01*
X172428132Y-79788802D01*
X172429332Y-79789690D01*
X172430634Y-79790300D01*
X172435074Y-79792519D01*
X172435093Y-79792525D01*
X172444689Y-79793950D01*
X172684936Y-79861026D01*
X172687096Y-79861780D01*
X172688887Y-79862207D01*
X172690135Y-79862255D01*
X172692560Y-79862113D01*
X185679907Y-79862113D01*
X185683689Y-79862385D01*
X185687540Y-79862192D01*
X185688946Y-79862156D01*
X185690313Y-79861850D01*
X185694083Y-79861100D01*
X185697729Y-79859891D01*
X185910286Y-79806068D01*
X185918799Y-79805139D01*
X185918928Y-79805088D01*
X185923048Y-79803794D01*
X185925344Y-79802712D01*
X185927621Y-79801744D01*
X185928719Y-79800983D01*
X185930711Y-79799305D01*
X185934898Y-79796208D01*
X185940083Y-79789699D01*
X186105504Y-79632055D01*
X186113385Y-79626220D01*
X186115806Y-79622766D01*
X186117006Y-79621171D01*
X186117842Y-79619373D01*
X186119688Y-79615730D01*
X186121139Y-79606148D01*
X186122782Y-79600262D01*
X186188246Y-79365787D01*
X186189005Y-79363638D01*
X186189500Y-79361624D01*
X186189544Y-79360517D01*
X186189394Y-79357942D01*
X186189394Y-79356705D01*
X191237720Y-79356705D01*
X191237908Y-79360108D01*
X191237953Y-79361763D01*
X191238337Y-79363477D01*
X191238386Y-79363737D01*
X191239009Y-79365662D01*
X191294202Y-79583630D01*
X191295138Y-79591811D01*
X191296934Y-79596414D01*
X191297561Y-79598381D01*
X191298456Y-79600310D01*
X191298486Y-79600383D01*
X191299205Y-79601438D01*
X191299233Y-79601482D01*
X191300529Y-79603030D01*
X191304034Y-79607725D01*
X191310423Y-79612814D01*
X191468472Y-79778661D01*
X191474013Y-79786068D01*
X191474622Y-79786620D01*
X191477739Y-79788802D01*
X191478939Y-79789690D01*
X191480241Y-79790300D01*
X191484681Y-79792519D01*
X191484700Y-79792525D01*
X191494296Y-79793950D01*
X191734543Y-79861026D01*
X191736703Y-79861780D01*
X191738494Y-79862207D01*
X191739742Y-79862255D01*
X191742167Y-79862113D01*
X204729514Y-79862113D01*
X204733296Y-79862385D01*
X204737147Y-79862192D01*
X204738553Y-79862156D01*
X204739920Y-79861850D01*
X204743690Y-79861100D01*
X204747336Y-79859891D01*
X204959893Y-79806068D01*
X204968406Y-79805139D01*
X204968535Y-79805088D01*
X204972655Y-79803794D01*
X204974951Y-79802712D01*
X204977228Y-79801744D01*
X204978326Y-79800983D01*
X204980318Y-79799305D01*
X204984505Y-79796208D01*
X204989690Y-79789699D01*
X205155111Y-79632055D01*
X205162992Y-79626220D01*
X205165413Y-79622766D01*
X205166613Y-79621171D01*
X205167449Y-79619373D01*
X205169295Y-79615730D01*
X205170746Y-79606148D01*
X205172389Y-79600262D01*
X205237853Y-79365787D01*
X205238612Y-79363638D01*
X205239107Y-79361624D01*
X205239151Y-79360517D01*
X205239001Y-79357942D01*
X205239001Y-79356705D01*
X210288113Y-79356705D01*
X210288301Y-79360108D01*
X210288346Y-79361763D01*
X210288730Y-79363477D01*
X210288779Y-79363737D01*
X210289402Y-79365662D01*
X210344595Y-79583630D01*
X210345531Y-79591811D01*
X210347327Y-79596414D01*
X210347954Y-79598381D01*
X210348849Y-79600310D01*
X210348879Y-79600383D01*
X210349598Y-79601438D01*
X210349626Y-79601482D01*
X210350922Y-79603030D01*
X210354427Y-79607725D01*
X210360816Y-79612814D01*
X210518865Y-79778661D01*
X210524406Y-79786068D01*
X210525015Y-79786620D01*
X210528132Y-79788802D01*
X210529332Y-79789690D01*
X210530634Y-79790300D01*
X210535074Y-79792519D01*
X210535093Y-79792525D01*
X210544689Y-79793950D01*
X210784936Y-79861026D01*
X210787096Y-79861780D01*
X210788887Y-79862207D01*
X210790135Y-79862255D01*
X210792560Y-79862113D01*
X223779907Y-79862113D01*
X223783689Y-79862385D01*
X223787540Y-79862192D01*
X223788946Y-79862156D01*
X223790313Y-79861850D01*
X223794083Y-79861100D01*
X223797729Y-79859891D01*
X224010286Y-79806068D01*
X224018799Y-79805139D01*
X224018928Y-79805088D01*
X224023048Y-79803794D01*
X224025344Y-79802712D01*
X224027621Y-79801744D01*
X224028719Y-79800983D01*
X224030711Y-79799305D01*
X224034898Y-79796208D01*
X224040083Y-79789699D01*
X224205504Y-79632055D01*
X224213385Y-79626220D01*
X224215806Y-79622766D01*
X224217006Y-79621171D01*
X224217842Y-79619373D01*
X224219688Y-79615730D01*
X224221139Y-79606148D01*
X224222782Y-79600262D01*
X224288246Y-79365787D01*
X224289005Y-79363638D01*
X224289500Y-79361624D01*
X224289544Y-79360517D01*
X224289394Y-79357942D01*
X224289394Y-79356119D01*
X229338155Y-79356119D01*
X229338385Y-79361668D01*
X229338861Y-79363991D01*
X229339406Y-79365675D01*
X229394595Y-79583630D01*
X229395531Y-79591811D01*
X229397327Y-79596414D01*
X229397954Y-79598381D01*
X229398849Y-79600310D01*
X229398879Y-79600383D01*
X229399598Y-79601438D01*
X229399626Y-79601482D01*
X229400922Y-79603030D01*
X229404427Y-79607725D01*
X229410816Y-79612814D01*
X229568865Y-79778661D01*
X229574406Y-79786068D01*
X229575015Y-79786620D01*
X229578132Y-79788802D01*
X229579332Y-79789690D01*
X229580634Y-79790300D01*
X229585074Y-79792519D01*
X229585093Y-79792525D01*
X229594689Y-79793950D01*
X229834936Y-79861026D01*
X229837096Y-79861780D01*
X229838887Y-79862207D01*
X229840135Y-79862255D01*
X229842560Y-79862113D01*
X242829907Y-79862113D01*
X242833689Y-79862385D01*
X242837540Y-79862192D01*
X242838946Y-79862156D01*
X242840313Y-79861850D01*
X242844083Y-79861100D01*
X242847729Y-79859891D01*
X243060286Y-79806068D01*
X243068799Y-79805139D01*
X243068928Y-79805088D01*
X243073048Y-79803794D01*
X243075344Y-79802712D01*
X243077621Y-79801744D01*
X243078719Y-79800983D01*
X243080711Y-79799305D01*
X243084898Y-79796208D01*
X243090083Y-79789699D01*
X243255504Y-79632055D01*
X243263385Y-79626220D01*
X243265806Y-79622766D01*
X243267006Y-79621171D01*
X243267842Y-79619373D01*
X243269688Y-79615730D01*
X243271139Y-79606148D01*
X243272782Y-79600262D01*
X243338246Y-79365787D01*
X243339005Y-79363638D01*
X243339500Y-79361624D01*
X243339544Y-79360517D01*
X243339394Y-79357942D01*
X243339394Y-66370600D01*
X243339666Y-66366819D01*
X243339473Y-66362968D01*
X243339437Y-66361567D01*
X243339140Y-66360246D01*
X243338341Y-66356251D01*
X243337132Y-66352621D01*
X243283492Y-66140784D01*
X243282611Y-66132351D01*
X243280483Y-66126883D01*
X243279654Y-66124264D01*
X243279099Y-66122945D01*
X243278710Y-66122379D01*
X243276789Y-66120092D01*
X243273428Y-66115589D01*
X243267063Y-66110509D01*
X243109794Y-65945480D01*
X243104409Y-65938127D01*
X243102641Y-65936525D01*
X243099644Y-65934417D01*
X243098463Y-65933538D01*
X243097132Y-65932906D01*
X243093769Y-65931202D01*
X243092916Y-65930896D01*
X243083893Y-65929495D01*
X242842694Y-65862154D01*
X242840456Y-65861380D01*
X242838936Y-65861019D01*
X242837651Y-65860970D01*
X242835227Y-65861113D01*
X229847881Y-65861113D01*
X229844098Y-65860840D01*
X229840248Y-65861034D01*
X229838745Y-65861072D01*
X229837138Y-65861424D01*
X229836935Y-65861462D01*
X229835002Y-65862081D01*
X229617418Y-65917176D01*
X229609326Y-65918065D01*
X229603610Y-65920256D01*
X229601560Y-65920914D01*
X229600281Y-65921471D01*
X229599446Y-65922034D01*
X229597746Y-65923455D01*
X229592757Y-65927214D01*
X229587783Y-65933447D01*
X229422284Y-66091164D01*
X229415503Y-66096185D01*
X229413377Y-66098879D01*
X229412064Y-66100338D01*
X229410841Y-66102079D01*
X229409716Y-66104335D01*
X229409080Y-66106105D01*
X229407943Y-66108690D01*
X229406686Y-66116933D01*
X229339390Y-66357973D01*
X229338598Y-66360282D01*
X229338303Y-66361529D01*
X229338251Y-66362932D01*
X229338394Y-66365331D01*
X229338394Y-79352766D01*
X229338155Y-79356119D01*
X224289394Y-79356119D01*
X224289394Y-66370600D01*
X224289666Y-66366819D01*
X224289473Y-66362968D01*
X224289437Y-66361567D01*
X224289140Y-66360246D01*
X224288341Y-66356251D01*
X224287132Y-66352621D01*
X224233492Y-66140784D01*
X224232611Y-66132351D01*
X224230483Y-66126883D01*
X224229654Y-66124264D01*
X224229099Y-66122945D01*
X224228710Y-66122379D01*
X224226789Y-66120092D01*
X224223428Y-66115589D01*
X224217063Y-66110509D01*
X224059794Y-65945480D01*
X224054409Y-65938127D01*
X224052641Y-65936525D01*
X224049644Y-65934417D01*
X224048463Y-65933538D01*
X224047132Y-65932906D01*
X224043769Y-65931202D01*
X224042916Y-65930896D01*
X224033893Y-65929495D01*
X223792694Y-65862154D01*
X223790456Y-65861380D01*
X223788936Y-65861019D01*
X223787651Y-65860970D01*
X223785227Y-65861113D01*
X210797881Y-65861113D01*
X210794098Y-65860840D01*
X210790248Y-65861034D01*
X210788745Y-65861072D01*
X210787138Y-65861424D01*
X210786935Y-65861462D01*
X210785002Y-65862081D01*
X210567418Y-65917176D01*
X210559326Y-65918065D01*
X210553610Y-65920256D01*
X210551560Y-65920914D01*
X210550281Y-65921471D01*
X210549446Y-65922034D01*
X210547746Y-65923455D01*
X210542757Y-65927214D01*
X210537783Y-65933447D01*
X210372284Y-66091164D01*
X210365503Y-66096185D01*
X210363377Y-66098879D01*
X210362064Y-66100338D01*
X210360841Y-66102079D01*
X210359716Y-66104335D01*
X210359080Y-66106105D01*
X210357943Y-66108690D01*
X210356686Y-66116933D01*
X210289390Y-66357973D01*
X210288598Y-66360282D01*
X210288303Y-66361529D01*
X210288251Y-66362932D01*
X210288394Y-66365331D01*
X210288394Y-79352763D01*
X210288113Y-79356705D01*
X205239001Y-79356705D01*
X205239001Y-66370602D01*
X205239310Y-66366319D01*
X205239180Y-66364271D01*
X205239130Y-66361577D01*
X205238529Y-66358979D01*
X205238114Y-66356749D01*
X205236737Y-66352612D01*
X205183099Y-66140784D01*
X205182218Y-66132351D01*
X205180090Y-66126883D01*
X205179261Y-66124264D01*
X205178706Y-66122945D01*
X205178317Y-66122379D01*
X205176396Y-66120092D01*
X205173035Y-66115589D01*
X205166670Y-66110509D01*
X205009401Y-65945480D01*
X205004016Y-65938127D01*
X205002248Y-65936525D01*
X204999251Y-65934417D01*
X204998070Y-65933538D01*
X204996739Y-65932906D01*
X204993376Y-65931202D01*
X204992523Y-65930896D01*
X204983500Y-65929495D01*
X204742301Y-65862154D01*
X204740063Y-65861380D01*
X204738543Y-65861019D01*
X204737258Y-65860970D01*
X204734834Y-65861113D01*
X191747488Y-65861113D01*
X191743705Y-65860840D01*
X191739855Y-65861034D01*
X191738352Y-65861072D01*
X191736745Y-65861424D01*
X191736542Y-65861462D01*
X191734609Y-65862081D01*
X191517025Y-65917176D01*
X191508933Y-65918065D01*
X191503217Y-65920256D01*
X191501167Y-65920914D01*
X191499888Y-65921471D01*
X191499053Y-65922034D01*
X191497353Y-65923455D01*
X191492364Y-65927214D01*
X191487390Y-65933447D01*
X191321891Y-66091164D01*
X191315110Y-66096185D01*
X191312984Y-66098879D01*
X191311671Y-66100338D01*
X191310448Y-66102079D01*
X191309323Y-66104335D01*
X191308687Y-66106105D01*
X191307550Y-66108690D01*
X191306293Y-66116933D01*
X191238997Y-66357973D01*
X191238205Y-66360282D01*
X191237910Y-66361529D01*
X191237858Y-66362932D01*
X191238001Y-66365331D01*
X191238001Y-79352763D01*
X191237720Y-79356705D01*
X186189394Y-79356705D01*
X186189394Y-66370600D01*
X186189666Y-66366819D01*
X186189473Y-66362968D01*
X186189437Y-66361567D01*
X186189140Y-66360246D01*
X186188341Y-66356251D01*
X186187132Y-66352621D01*
X186133492Y-66140784D01*
X186132611Y-66132351D01*
X186130483Y-66126883D01*
X186129654Y-66124264D01*
X186129099Y-66122945D01*
X186128710Y-66122379D01*
X186126789Y-66120092D01*
X186123428Y-66115589D01*
X186117063Y-66110509D01*
X185959794Y-65945480D01*
X185954409Y-65938127D01*
X185952641Y-65936525D01*
X185949644Y-65934417D01*
X185948463Y-65933538D01*
X185947132Y-65932906D01*
X185943769Y-65931202D01*
X185942916Y-65930896D01*
X185933893Y-65929495D01*
X185692694Y-65862154D01*
X185690456Y-65861380D01*
X185688936Y-65861019D01*
X185687651Y-65860970D01*
X185685227Y-65861113D01*
X172697881Y-65861113D01*
X172694098Y-65860840D01*
X172690248Y-65861034D01*
X172688745Y-65861072D01*
X172687138Y-65861424D01*
X172686935Y-65861462D01*
X172685002Y-65862081D01*
X172467418Y-65917176D01*
X172459326Y-65918065D01*
X172453610Y-65920256D01*
X172451560Y-65920914D01*
X172450281Y-65921471D01*
X172449446Y-65922034D01*
X172447746Y-65923455D01*
X172442757Y-65927214D01*
X172437783Y-65933447D01*
X172272284Y-66091164D01*
X172265503Y-66096185D01*
X172263377Y-66098879D01*
X172262064Y-66100338D01*
X172260841Y-66102079D01*
X172259716Y-66104335D01*
X172259080Y-66106105D01*
X172257943Y-66108690D01*
X172256686Y-66116933D01*
X172189390Y-66357973D01*
X172188598Y-66360282D01*
X172188303Y-66361529D01*
X172188251Y-66362932D01*
X172188394Y-66365331D01*
X172188394Y-79352763D01*
X172188113Y-79356705D01*
X167139598Y-79356705D01*
X167139598Y-74685163D01*
X167139598Y-66370586D01*
X167139871Y-66366814D01*
X167139678Y-66362968D01*
X167139642Y-66361567D01*
X167139345Y-66360246D01*
X167138546Y-66356251D01*
X167137337Y-66352621D01*
X167083697Y-66140784D01*
X167082816Y-66132351D01*
X167080688Y-66126883D01*
X167079859Y-66124264D01*
X167079304Y-66122945D01*
X167078915Y-66122379D01*
X167076994Y-66120092D01*
X167073633Y-66115589D01*
X167067268Y-66110509D01*
X166909999Y-65945480D01*
X166904614Y-65938127D01*
X166902846Y-65936525D01*
X166899849Y-65934417D01*
X166898668Y-65933538D01*
X166897337Y-65932906D01*
X166893974Y-65931202D01*
X166893121Y-65930896D01*
X166884098Y-65929495D01*
X166642899Y-65862154D01*
X166640661Y-65861380D01*
X166639141Y-65861019D01*
X166637856Y-65860970D01*
X166635432Y-65861113D01*
X153648086Y-65861113D01*
X153644303Y-65860840D01*
X153640453Y-65861034D01*
X153638950Y-65861072D01*
X153637343Y-65861424D01*
X153637140Y-65861462D01*
X153635207Y-65862081D01*
X153417623Y-65917176D01*
X153409531Y-65918065D01*
X153403815Y-65920256D01*
X153401765Y-65920914D01*
X153400486Y-65921471D01*
X153399651Y-65922034D01*
X153397951Y-65923455D01*
X153392962Y-65927214D01*
X153387988Y-65933447D01*
X153222489Y-66091164D01*
X153215708Y-66096185D01*
X153213582Y-66098879D01*
X153212269Y-66100338D01*
X153211046Y-66102079D01*
X153209921Y-66104335D01*
X153209285Y-66106105D01*
X153208148Y-66108690D01*
X153206891Y-66116933D01*
X153139595Y-66357973D01*
X153138803Y-66360282D01*
X153138508Y-66361529D01*
X153138456Y-66362932D01*
X153138599Y-66365331D01*
X153138599Y-79352762D01*
X153138318Y-79356704D01*
X138564693Y-79356704D01*
X138564693Y-66370600D01*
X138564965Y-66366819D01*
X138564772Y-66362968D01*
X138564736Y-66361567D01*
X138564439Y-66360246D01*
X138563640Y-66356251D01*
X138562431Y-66352621D01*
X138508791Y-66140784D01*
X138507910Y-66132351D01*
X138505782Y-66126883D01*
X138504953Y-66124264D01*
X138504398Y-66122945D01*
X138504009Y-66122379D01*
X138502088Y-66120092D01*
X138498727Y-66115589D01*
X138492362Y-66110509D01*
X138335093Y-65945480D01*
X138329708Y-65938127D01*
X138327940Y-65936525D01*
X138324943Y-65934417D01*
X138323762Y-65933538D01*
X138322431Y-65932906D01*
X138319068Y-65931202D01*
X138318215Y-65930896D01*
X138309192Y-65929495D01*
X138067993Y-65862154D01*
X138065755Y-65861380D01*
X138064235Y-65861019D01*
X138062950Y-65860970D01*
X138060526Y-65861113D01*
X125073180Y-65861113D01*
X125069397Y-65860840D01*
X125065547Y-65861034D01*
X125064044Y-65861072D01*
X125062437Y-65861424D01*
X125062234Y-65861462D01*
X125060301Y-65862081D01*
X124842717Y-65917176D01*
X124834625Y-65918065D01*
X124828909Y-65920256D01*
X124826859Y-65920914D01*
X124825580Y-65921471D01*
X124824745Y-65922034D01*
X124823045Y-65923455D01*
X124818056Y-65927214D01*
X124813082Y-65933447D01*
X124647583Y-66091164D01*
X124640802Y-66096185D01*
X124638676Y-66098879D01*
X124637363Y-66100338D01*
X124636140Y-66102079D01*
X124635015Y-66104335D01*
X124634379Y-66106105D01*
X124633242Y-66108690D01*
X124631985Y-66116933D01*
X124564689Y-66357973D01*
X124563897Y-66360282D01*
X124563602Y-66361529D01*
X124563550Y-66362932D01*
X124563693Y-66365331D01*
X124563693Y-79352762D01*
X124563412Y-79356704D01*
X119514693Y-79356704D01*
X119514693Y-66370600D01*
X119514965Y-66366819D01*
X119514772Y-66362968D01*
X119514736Y-66361567D01*
X119514439Y-66360246D01*
X119513640Y-66356251D01*
X119512431Y-66352621D01*
X119458791Y-66140784D01*
X119457910Y-66132351D01*
X119455782Y-66126883D01*
X119454953Y-66124264D01*
X119454398Y-66122945D01*
X119454009Y-66122379D01*
X119452088Y-66120092D01*
X119448727Y-66115589D01*
X119442362Y-66110509D01*
X119285093Y-65945480D01*
X119279708Y-65938127D01*
X119277940Y-65936525D01*
X119274943Y-65934417D01*
X119273762Y-65933538D01*
X119272431Y-65932906D01*
X119269068Y-65931202D01*
X119268215Y-65930896D01*
X119259192Y-65929495D01*
X119017993Y-65862154D01*
X119015755Y-65861380D01*
X119014235Y-65861019D01*
X119012950Y-65860970D01*
X119010526Y-65861113D01*
X106023180Y-65861113D01*
X106019397Y-65860840D01*
X106015547Y-65861034D01*
X106014044Y-65861072D01*
X106012437Y-65861424D01*
X106012234Y-65861462D01*
X106010301Y-65862081D01*
X105792717Y-65917176D01*
X105784625Y-65918065D01*
X105778909Y-65920256D01*
X105776859Y-65920914D01*
X105775580Y-65921471D01*
X105774745Y-65922034D01*
X105773045Y-65923455D01*
X105768056Y-65927214D01*
X105763082Y-65933447D01*
X105597583Y-66091164D01*
X105590802Y-66096185D01*
X105588676Y-66098879D01*
X105587363Y-66100338D01*
X105586140Y-66102079D01*
X105585015Y-66104335D01*
X105584379Y-66106105D01*
X105583242Y-66108690D01*
X105581985Y-66116933D01*
X105514689Y-66357973D01*
X105513897Y-66360282D01*
X105513602Y-66361529D01*
X105513550Y-66362932D01*
X105513693Y-66365331D01*
X105513693Y-79352766D01*
X105513454Y-79356119D01*
X100464300Y-79356119D01*
X100464300Y-66370600D01*
X100464572Y-66366819D01*
X100464379Y-66362968D01*
X100464343Y-66361567D01*
X100464046Y-66360246D01*
X100463247Y-66356251D01*
X100462038Y-66352621D01*
X100408398Y-66140784D01*
X100407517Y-66132351D01*
X100405389Y-66126883D01*
X100404560Y-66124264D01*
X100404005Y-66122945D01*
X100403616Y-66122379D01*
X100401695Y-66120092D01*
X100398334Y-66115589D01*
X100391969Y-66110509D01*
X100234700Y-65945480D01*
X100229315Y-65938127D01*
X100227547Y-65936525D01*
X100224550Y-65934417D01*
X100223369Y-65933538D01*
X100222038Y-65932906D01*
X100218675Y-65931202D01*
X100217822Y-65930896D01*
X100208799Y-65929495D01*
X99967600Y-65862154D01*
X99965362Y-65861380D01*
X99963842Y-65861019D01*
X99962557Y-65860970D01*
X99960133Y-65861113D01*
X86972787Y-65861113D01*
X86969004Y-65860840D01*
X86965154Y-65861034D01*
X86963651Y-65861072D01*
X86962044Y-65861424D01*
X86961841Y-65861462D01*
X86959908Y-65862081D01*
X86742324Y-65917176D01*
X86734232Y-65918065D01*
X86728516Y-65920256D01*
X86726466Y-65920914D01*
X86725187Y-65921471D01*
X86724352Y-65922034D01*
X86722652Y-65923455D01*
X86717663Y-65927214D01*
X86712689Y-65933447D01*
X86547190Y-66091164D01*
X86540409Y-66096185D01*
X86538283Y-66098879D01*
X86536970Y-66100338D01*
X86535747Y-66102079D01*
X86534622Y-66104335D01*
X86533986Y-66106105D01*
X86532849Y-66108690D01*
X86531592Y-66116933D01*
X86464296Y-66357973D01*
X86463504Y-66360282D01*
X86463209Y-66361529D01*
X86463157Y-66362932D01*
X86463300Y-66365331D01*
X86463300Y-79352762D01*
X86463019Y-79356704D01*
X81414693Y-79356704D01*
X81414693Y-66370600D01*
X81414965Y-66366819D01*
X81414772Y-66362968D01*
X81414736Y-66361567D01*
X81414439Y-66360246D01*
X81413640Y-66356251D01*
X81412431Y-66352621D01*
X81358791Y-66140784D01*
X81357910Y-66132351D01*
X81355782Y-66126883D01*
X81354953Y-66124264D01*
X81354398Y-66122945D01*
X81354009Y-66122379D01*
X81352088Y-66120092D01*
X81348727Y-66115589D01*
X81342362Y-66110509D01*
X81185093Y-65945480D01*
X81179708Y-65938127D01*
X81177940Y-65936525D01*
X81174943Y-65934417D01*
X81173762Y-65933538D01*
X81172431Y-65932906D01*
X81169068Y-65931202D01*
X81168215Y-65930896D01*
X81159192Y-65929495D01*
X80917993Y-65862154D01*
X80915755Y-65861380D01*
X80914235Y-65861019D01*
X80912950Y-65860970D01*
X80910526Y-65861113D01*
X67923180Y-65861113D01*
X67919397Y-65860840D01*
X67915547Y-65861034D01*
X67914044Y-65861072D01*
X67912437Y-65861424D01*
X67912234Y-65861462D01*
X67910301Y-65862081D01*
X67692717Y-65917176D01*
X67684625Y-65918065D01*
X67678909Y-65920256D01*
X67676859Y-65920914D01*
X67675580Y-65921471D01*
X67674745Y-65922034D01*
X67673045Y-65923455D01*
X67668056Y-65927214D01*
X67663082Y-65933447D01*
X67497583Y-66091164D01*
X67490802Y-66096185D01*
X67488676Y-66098879D01*
X67487363Y-66100338D01*
X67486140Y-66102079D01*
X67485015Y-66104335D01*
X67484379Y-66106105D01*
X67483242Y-66108690D01*
X67481985Y-66116933D01*
X67414689Y-66357973D01*
X67413897Y-66360282D01*
X67413602Y-66361529D01*
X67413550Y-66362932D01*
X67413693Y-66365331D01*
X67413693Y-79352763D01*
X67413412Y-79356705D01*
X62364899Y-79356705D01*
X62364899Y-66370602D01*
X62365208Y-66366319D01*
X62365078Y-66364271D01*
X62365028Y-66361577D01*
X62364427Y-66358979D01*
X62364012Y-66356749D01*
X62362635Y-66352612D01*
X62308997Y-66140784D01*
X62308116Y-66132351D01*
X62305988Y-66126883D01*
X62305159Y-66124264D01*
X62304604Y-66122945D01*
X62304215Y-66122379D01*
X62302294Y-66120092D01*
X62298933Y-66115589D01*
X62292568Y-66110509D01*
X62135299Y-65945480D01*
X62129914Y-65938127D01*
X62128146Y-65936525D01*
X62125149Y-65934417D01*
X62123968Y-65933538D01*
X62122637Y-65932906D01*
X62119274Y-65931202D01*
X62118421Y-65930896D01*
X62109398Y-65929495D01*
X61868199Y-65862154D01*
X61865961Y-65861380D01*
X61864441Y-65861019D01*
X61863156Y-65860970D01*
X61860732Y-65861113D01*
X48873386Y-65861113D01*
X48869603Y-65860840D01*
X48865753Y-65861034D01*
X48864250Y-65861072D01*
X48862643Y-65861424D01*
X48862440Y-65861462D01*
X48860507Y-65862081D01*
X48642923Y-65917176D01*
X48634831Y-65918065D01*
X48629115Y-65920256D01*
X48627065Y-65920914D01*
X48625786Y-65921471D01*
X48624951Y-65922034D01*
X48623251Y-65923455D01*
X48618262Y-65927214D01*
X48613288Y-65933447D01*
X48447789Y-66091164D01*
X48441008Y-66096185D01*
X48438882Y-66098879D01*
X48437569Y-66100338D01*
X48436346Y-66102079D01*
X48435221Y-66104335D01*
X48434585Y-66106105D01*
X48433448Y-66108690D01*
X48432191Y-66116933D01*
X48364895Y-66357973D01*
X48364103Y-66360282D01*
X48363808Y-66361529D01*
X48363756Y-66362932D01*
X48363899Y-66365331D01*
X48363899Y-79352763D01*
X48363618Y-79356705D01*
X45839992Y-79356705D01*
X45839992Y-74685162D01*
X45840540Y-66370600D01*
X45840940Y-60306666D01*
X48364113Y-60306666D01*
X48364301Y-60310069D01*
X48364346Y-60311724D01*
X48364730Y-60313438D01*
X48364779Y-60313698D01*
X48365402Y-60315623D01*
X48420595Y-60533591D01*
X48421531Y-60541772D01*
X48423327Y-60546375D01*
X48423954Y-60548342D01*
X48424849Y-60550271D01*
X48424879Y-60550344D01*
X48425598Y-60551399D01*
X48425626Y-60551443D01*
X48426922Y-60552991D01*
X48430427Y-60557686D01*
X48436816Y-60562775D01*
X48594865Y-60728622D01*
X48600406Y-60736029D01*
X48601015Y-60736581D01*
X48604132Y-60738763D01*
X48605332Y-60739651D01*
X48606634Y-60740261D01*
X48611074Y-60742480D01*
X48611093Y-60742486D01*
X48620689Y-60743911D01*
X48860936Y-60810987D01*
X48863096Y-60811741D01*
X48864887Y-60812168D01*
X48866135Y-60812216D01*
X48868560Y-60812074D01*
X61855907Y-60812074D01*
X61859689Y-60812346D01*
X61863540Y-60812153D01*
X61864946Y-60812117D01*
X61866313Y-60811811D01*
X61870083Y-60811061D01*
X61873729Y-60809852D01*
X62086286Y-60756029D01*
X62094799Y-60755100D01*
X62094928Y-60755049D01*
X62099048Y-60753755D01*
X62101344Y-60752673D01*
X62103621Y-60751705D01*
X62104719Y-60750944D01*
X62106711Y-60749266D01*
X62110898Y-60746169D01*
X62116083Y-60739660D01*
X62281504Y-60582016D01*
X62289385Y-60576181D01*
X62291806Y-60572727D01*
X62293006Y-60571132D01*
X62293842Y-60569334D01*
X62295688Y-60565691D01*
X62297139Y-60556109D01*
X62298782Y-60550223D01*
X62364246Y-60315748D01*
X62365005Y-60313599D01*
X62365500Y-60311585D01*
X62365544Y-60310478D01*
X62365394Y-60307903D01*
X62365394Y-60306666D01*
X67413908Y-60306666D01*
X67414096Y-60310069D01*
X67414141Y-60311724D01*
X67414525Y-60313438D01*
X67414574Y-60313698D01*
X67415197Y-60315623D01*
X67470390Y-60533591D01*
X67471326Y-60541772D01*
X67473122Y-60546375D01*
X67473749Y-60548342D01*
X67474644Y-60550271D01*
X67474674Y-60550344D01*
X67475393Y-60551399D01*
X67475421Y-60551443D01*
X67476717Y-60552991D01*
X67480222Y-60557686D01*
X67486611Y-60562775D01*
X67644660Y-60728622D01*
X67650201Y-60736029D01*
X67650810Y-60736581D01*
X67653927Y-60738763D01*
X67655127Y-60739651D01*
X67656429Y-60740261D01*
X67660869Y-60742480D01*
X67660888Y-60742486D01*
X67670484Y-60743911D01*
X67910731Y-60810987D01*
X67912891Y-60811741D01*
X67914682Y-60812168D01*
X67915930Y-60812216D01*
X67918355Y-60812074D01*
X80905701Y-60812074D01*
X80909483Y-60812346D01*
X80913334Y-60812153D01*
X80914740Y-60812117D01*
X80916107Y-60811811D01*
X80919877Y-60811061D01*
X80923523Y-60809852D01*
X81136080Y-60756029D01*
X81144593Y-60755100D01*
X81144722Y-60755049D01*
X81148842Y-60753755D01*
X81151138Y-60752673D01*
X81153415Y-60751705D01*
X81154513Y-60750944D01*
X81156505Y-60749266D01*
X81160692Y-60746169D01*
X81165877Y-60739660D01*
X81331298Y-60582016D01*
X81339179Y-60576181D01*
X81341600Y-60572727D01*
X81342800Y-60571132D01*
X81343636Y-60569334D01*
X81345482Y-60565691D01*
X81346933Y-60556109D01*
X81348576Y-60550223D01*
X81414040Y-60315748D01*
X81414799Y-60313599D01*
X81415294Y-60311585D01*
X81415338Y-60310478D01*
X81415188Y-60307903D01*
X81415188Y-60306666D01*
X86463515Y-60306666D01*
X86463703Y-60310069D01*
X86463748Y-60311724D01*
X86464132Y-60313438D01*
X86464181Y-60313698D01*
X86464804Y-60315623D01*
X86519997Y-60533591D01*
X86520933Y-60541772D01*
X86522729Y-60546375D01*
X86523356Y-60548342D01*
X86524251Y-60550271D01*
X86524281Y-60550344D01*
X86525000Y-60551399D01*
X86525028Y-60551443D01*
X86526324Y-60552991D01*
X86529829Y-60557686D01*
X86536218Y-60562775D01*
X86694267Y-60728622D01*
X86699808Y-60736029D01*
X86700417Y-60736581D01*
X86703534Y-60738763D01*
X86704734Y-60739651D01*
X86706036Y-60740261D01*
X86710476Y-60742480D01*
X86710495Y-60742486D01*
X86720091Y-60743911D01*
X86960338Y-60810987D01*
X86962498Y-60811741D01*
X86964289Y-60812168D01*
X86965537Y-60812216D01*
X86967962Y-60812074D01*
X99955309Y-60812074D01*
X99959091Y-60812346D01*
X99962942Y-60812153D01*
X99964348Y-60812117D01*
X99965715Y-60811811D01*
X99969485Y-60811061D01*
X99973131Y-60809852D01*
X100185688Y-60756029D01*
X100194201Y-60755100D01*
X100194330Y-60755049D01*
X100198450Y-60753755D01*
X100200746Y-60752673D01*
X100203023Y-60751705D01*
X100204121Y-60750944D01*
X100206113Y-60749266D01*
X100210300Y-60746169D01*
X100215485Y-60739660D01*
X100380906Y-60582016D01*
X100388787Y-60576181D01*
X100391208Y-60572727D01*
X100392408Y-60571132D01*
X100393244Y-60569334D01*
X100395090Y-60565691D01*
X100396541Y-60556109D01*
X100398184Y-60550223D01*
X100463648Y-60315748D01*
X100464407Y-60313599D01*
X100464902Y-60311585D01*
X100464946Y-60310478D01*
X100464796Y-60307903D01*
X100464796Y-60306666D01*
X105513908Y-60306666D01*
X105514096Y-60310069D01*
X105514141Y-60311724D01*
X105514525Y-60313438D01*
X105514574Y-60313698D01*
X105515197Y-60315623D01*
X105570390Y-60533591D01*
X105571326Y-60541772D01*
X105573122Y-60546375D01*
X105573749Y-60548342D01*
X105574644Y-60550271D01*
X105574674Y-60550344D01*
X105575393Y-60551399D01*
X105575421Y-60551443D01*
X105576717Y-60552991D01*
X105580222Y-60557686D01*
X105586611Y-60562775D01*
X105744660Y-60728622D01*
X105750201Y-60736029D01*
X105750810Y-60736581D01*
X105753927Y-60738763D01*
X105755127Y-60739651D01*
X105756429Y-60740261D01*
X105760869Y-60742480D01*
X105760888Y-60742486D01*
X105770484Y-60743911D01*
X106010731Y-60810987D01*
X106012891Y-60811741D01*
X106014682Y-60812168D01*
X106015930Y-60812216D01*
X106018355Y-60812074D01*
X119005701Y-60812074D01*
X119009483Y-60812346D01*
X119013334Y-60812153D01*
X119014740Y-60812117D01*
X119016107Y-60811811D01*
X119019877Y-60811061D01*
X119023523Y-60809852D01*
X119236080Y-60756029D01*
X119244593Y-60755100D01*
X119244722Y-60755049D01*
X119248842Y-60753755D01*
X119251138Y-60752673D01*
X119253415Y-60751705D01*
X119254513Y-60750944D01*
X119256505Y-60749266D01*
X119260692Y-60746169D01*
X119265877Y-60739660D01*
X119431298Y-60582016D01*
X119439179Y-60576181D01*
X119441600Y-60572727D01*
X119442800Y-60571132D01*
X119443636Y-60569334D01*
X119445482Y-60565691D01*
X119446933Y-60556109D01*
X119448590Y-60550176D01*
X119458158Y-60515903D01*
X119514039Y-60315755D01*
X119515205Y-60312451D01*
X119515382Y-60311220D01*
X119515188Y-60307906D01*
X119515188Y-60306080D01*
X124563950Y-60306080D01*
X124564180Y-60311629D01*
X124564656Y-60313952D01*
X124565201Y-60315636D01*
X124620390Y-60533591D01*
X124621326Y-60541772D01*
X124623122Y-60546375D01*
X124623749Y-60548342D01*
X124624644Y-60550271D01*
X124624674Y-60550344D01*
X124625393Y-60551399D01*
X124625421Y-60551443D01*
X124626717Y-60552991D01*
X124630222Y-60557686D01*
X124636611Y-60562775D01*
X124794660Y-60728622D01*
X124800201Y-60736029D01*
X124800810Y-60736581D01*
X124803927Y-60738763D01*
X124805127Y-60739651D01*
X124806429Y-60740261D01*
X124810869Y-60742480D01*
X124810888Y-60742486D01*
X124820484Y-60743911D01*
X125060731Y-60810987D01*
X125062891Y-60811741D01*
X125064682Y-60812168D01*
X125065930Y-60812216D01*
X125068355Y-60812074D01*
X138055701Y-60812074D01*
X138059483Y-60812346D01*
X138063334Y-60812153D01*
X138064740Y-60812117D01*
X138066107Y-60811811D01*
X138069877Y-60811061D01*
X138073523Y-60809852D01*
X138286080Y-60756029D01*
X138294593Y-60755100D01*
X138294722Y-60755049D01*
X138298842Y-60753755D01*
X138301138Y-60752673D01*
X138303415Y-60751705D01*
X138304513Y-60750944D01*
X138306505Y-60749266D01*
X138310692Y-60746169D01*
X138315877Y-60739660D01*
X138481298Y-60582016D01*
X138489179Y-60576181D01*
X138491600Y-60572727D01*
X138492800Y-60571132D01*
X138493636Y-60569334D01*
X138495482Y-60565691D01*
X138496933Y-60556109D01*
X138498576Y-60550223D01*
X138564040Y-60315748D01*
X138564799Y-60313599D01*
X138565294Y-60311585D01*
X138565338Y-60310478D01*
X138565188Y-60307903D01*
X138565188Y-60306666D01*
X153138814Y-60306666D01*
X153139002Y-60310069D01*
X153139047Y-60311724D01*
X153139431Y-60313438D01*
X153139480Y-60313698D01*
X153140103Y-60315623D01*
X153195296Y-60533591D01*
X153196232Y-60541772D01*
X153198028Y-60546375D01*
X153198655Y-60548342D01*
X153199550Y-60550271D01*
X153199580Y-60550344D01*
X153200299Y-60551399D01*
X153200327Y-60551443D01*
X153201623Y-60552991D01*
X153205128Y-60557686D01*
X153211517Y-60562775D01*
X153369566Y-60728622D01*
X153375107Y-60736029D01*
X153375716Y-60736581D01*
X153378833Y-60738763D01*
X153380033Y-60739651D01*
X153381335Y-60740261D01*
X153385775Y-60742480D01*
X153385794Y-60742486D01*
X153395390Y-60743911D01*
X153635637Y-60810987D01*
X153637797Y-60811741D01*
X153639588Y-60812168D01*
X153640836Y-60812216D01*
X153643261Y-60812074D01*
X166630608Y-60812074D01*
X166634390Y-60812346D01*
X166638241Y-60812153D01*
X166639647Y-60812117D01*
X166641014Y-60811811D01*
X166644784Y-60811061D01*
X166648430Y-60809852D01*
X166860987Y-60756029D01*
X166869500Y-60755100D01*
X166869629Y-60755049D01*
X166873749Y-60753755D01*
X166876045Y-60752673D01*
X166878322Y-60751705D01*
X166879420Y-60750944D01*
X166881412Y-60749266D01*
X166885599Y-60746169D01*
X166890784Y-60739660D01*
X167056205Y-60582016D01*
X167064086Y-60576181D01*
X167066507Y-60572727D01*
X167067707Y-60571132D01*
X167068543Y-60569334D01*
X167070389Y-60565691D01*
X167071840Y-60556109D01*
X167073497Y-60550176D01*
X167083065Y-60515903D01*
X167138946Y-60315755D01*
X167140152Y-60312337D01*
X167140331Y-60311058D01*
X167140094Y-60307453D01*
X167140094Y-60306666D01*
X172188608Y-60306666D01*
X172188796Y-60310069D01*
X172188841Y-60311724D01*
X172189225Y-60313438D01*
X172189274Y-60313698D01*
X172189897Y-60315623D01*
X172245090Y-60533591D01*
X172246026Y-60541772D01*
X172247822Y-60546375D01*
X172248449Y-60548342D01*
X172249344Y-60550271D01*
X172249374Y-60550344D01*
X172250093Y-60551399D01*
X172250121Y-60551443D01*
X172251417Y-60552991D01*
X172254922Y-60557686D01*
X172261311Y-60562775D01*
X172419360Y-60728622D01*
X172424901Y-60736029D01*
X172425510Y-60736581D01*
X172428627Y-60738763D01*
X172429827Y-60739651D01*
X172431129Y-60740261D01*
X172435569Y-60742480D01*
X172435588Y-60742486D01*
X172445184Y-60743911D01*
X172685431Y-60810987D01*
X172687591Y-60811741D01*
X172689382Y-60812168D01*
X172690630Y-60812216D01*
X172693055Y-60812074D01*
X185680402Y-60812074D01*
X185684184Y-60812346D01*
X185688035Y-60812153D01*
X185689441Y-60812117D01*
X185690808Y-60811811D01*
X185694578Y-60811061D01*
X185698224Y-60809852D01*
X185910781Y-60756029D01*
X185919294Y-60755100D01*
X185919423Y-60755049D01*
X185923543Y-60753755D01*
X185925839Y-60752673D01*
X185928116Y-60751705D01*
X185929214Y-60750944D01*
X185931206Y-60749266D01*
X185935393Y-60746169D01*
X185940578Y-60739660D01*
X186105999Y-60582016D01*
X186113880Y-60576181D01*
X186116301Y-60572727D01*
X186117501Y-60571132D01*
X186118337Y-60569334D01*
X186120183Y-60565691D01*
X186121634Y-60556109D01*
X186123277Y-60550223D01*
X186188741Y-60315748D01*
X186189500Y-60313599D01*
X186189995Y-60311585D01*
X186190039Y-60310478D01*
X186189889Y-60307903D01*
X186189889Y-60306666D01*
X191238216Y-60306666D01*
X191238404Y-60310069D01*
X191238449Y-60311724D01*
X191238833Y-60313438D01*
X191238882Y-60313698D01*
X191239505Y-60315623D01*
X191294698Y-60533591D01*
X191295634Y-60541772D01*
X191297430Y-60546375D01*
X191298057Y-60548342D01*
X191298952Y-60550271D01*
X191298982Y-60550344D01*
X191299701Y-60551399D01*
X191299729Y-60551443D01*
X191301025Y-60552991D01*
X191304530Y-60557686D01*
X191310919Y-60562775D01*
X191468968Y-60728622D01*
X191474509Y-60736029D01*
X191475118Y-60736581D01*
X191478235Y-60738763D01*
X191479435Y-60739651D01*
X191480737Y-60740261D01*
X191485177Y-60742480D01*
X191485196Y-60742486D01*
X191494792Y-60743911D01*
X191735039Y-60810987D01*
X191737199Y-60811741D01*
X191738990Y-60812168D01*
X191740238Y-60812216D01*
X191742663Y-60812074D01*
X204730010Y-60812074D01*
X204733792Y-60812346D01*
X204737643Y-60812153D01*
X204739049Y-60812117D01*
X204740416Y-60811811D01*
X204744186Y-60811061D01*
X204747832Y-60809852D01*
X204960389Y-60756029D01*
X204968902Y-60755100D01*
X204969031Y-60755049D01*
X204973151Y-60753755D01*
X204975447Y-60752673D01*
X204977724Y-60751705D01*
X204978822Y-60750944D01*
X204980814Y-60749266D01*
X204985001Y-60746169D01*
X204990186Y-60739660D01*
X205155607Y-60582016D01*
X205163488Y-60576181D01*
X205165909Y-60572727D01*
X205167109Y-60571132D01*
X205167945Y-60569334D01*
X205169791Y-60565691D01*
X205171242Y-60556109D01*
X205172885Y-60550223D01*
X205238349Y-60315748D01*
X205239108Y-60313599D01*
X205239603Y-60311585D01*
X205239647Y-60310478D01*
X205239497Y-60307903D01*
X205239497Y-60306080D01*
X210288650Y-60306080D01*
X210288880Y-60311629D01*
X210289356Y-60313952D01*
X210289901Y-60315636D01*
X210345090Y-60533591D01*
X210346026Y-60541772D01*
X210347822Y-60546375D01*
X210348449Y-60548342D01*
X210349344Y-60550271D01*
X210349374Y-60550344D01*
X210350093Y-60551399D01*
X210350121Y-60551443D01*
X210351417Y-60552991D01*
X210354922Y-60557686D01*
X210361311Y-60562775D01*
X210519360Y-60728622D01*
X210524901Y-60736029D01*
X210525510Y-60736581D01*
X210528627Y-60738763D01*
X210529827Y-60739651D01*
X210531129Y-60740261D01*
X210535569Y-60742480D01*
X210535588Y-60742486D01*
X210545184Y-60743911D01*
X210785431Y-60810987D01*
X210787591Y-60811741D01*
X210789382Y-60812168D01*
X210790630Y-60812216D01*
X210793055Y-60812074D01*
X223780402Y-60812074D01*
X223784184Y-60812346D01*
X223788035Y-60812153D01*
X223789441Y-60812117D01*
X223790808Y-60811811D01*
X223794578Y-60811061D01*
X223798224Y-60809852D01*
X224010781Y-60756029D01*
X224019294Y-60755100D01*
X224019423Y-60755049D01*
X224023543Y-60753755D01*
X224025839Y-60752673D01*
X224028116Y-60751705D01*
X224029214Y-60750944D01*
X224031206Y-60749266D01*
X224035393Y-60746169D01*
X224040578Y-60739660D01*
X224205999Y-60582016D01*
X224213880Y-60576181D01*
X224216301Y-60572727D01*
X224217501Y-60571132D01*
X224218337Y-60569334D01*
X224220183Y-60565691D01*
X224221634Y-60556109D01*
X224223277Y-60550223D01*
X224288741Y-60315748D01*
X224289500Y-60313599D01*
X224289995Y-60311585D01*
X224290039Y-60310478D01*
X224289889Y-60307903D01*
X224289889Y-60306666D01*
X229338608Y-60306666D01*
X229338796Y-60310069D01*
X229338841Y-60311724D01*
X229339225Y-60313438D01*
X229339274Y-60313698D01*
X229339897Y-60315623D01*
X229395090Y-60533591D01*
X229396026Y-60541772D01*
X229397822Y-60546375D01*
X229398449Y-60548342D01*
X229399344Y-60550271D01*
X229399374Y-60550344D01*
X229400093Y-60551399D01*
X229400121Y-60551443D01*
X229401417Y-60552991D01*
X229404922Y-60557686D01*
X229411311Y-60562775D01*
X229569360Y-60728622D01*
X229574901Y-60736029D01*
X229575510Y-60736581D01*
X229578627Y-60738763D01*
X229579827Y-60739651D01*
X229581129Y-60740261D01*
X229585569Y-60742480D01*
X229585588Y-60742486D01*
X229595184Y-60743911D01*
X229835431Y-60810987D01*
X229837591Y-60811741D01*
X229839382Y-60812168D01*
X229840630Y-60812216D01*
X229843055Y-60812074D01*
X242830402Y-60812074D01*
X242834184Y-60812346D01*
X242838035Y-60812153D01*
X242839441Y-60812117D01*
X242840808Y-60811811D01*
X242844578Y-60811061D01*
X242848224Y-60809852D01*
X243060781Y-60756029D01*
X243069294Y-60755100D01*
X243069423Y-60755049D01*
X243073543Y-60753755D01*
X243075839Y-60752673D01*
X243078116Y-60751705D01*
X243079214Y-60750944D01*
X243081206Y-60749266D01*
X243085393Y-60746169D01*
X243090578Y-60739660D01*
X243255999Y-60582016D01*
X243263880Y-60576181D01*
X243266301Y-60572727D01*
X243267501Y-60571132D01*
X243268337Y-60569334D01*
X243270183Y-60565691D01*
X243271634Y-60556109D01*
X243273277Y-60550223D01*
X243338741Y-60315748D01*
X243339500Y-60313599D01*
X243339995Y-60311585D01*
X243340039Y-60310478D01*
X243339889Y-60307903D01*
X243339889Y-47320561D01*
X243340161Y-47316780D01*
X243339968Y-47312929D01*
X243339932Y-47311528D01*
X243339635Y-47310207D01*
X243338836Y-47306212D01*
X243337627Y-47302582D01*
X243283987Y-47090745D01*
X243283106Y-47082312D01*
X243280978Y-47076844D01*
X243280149Y-47074225D01*
X243279594Y-47072906D01*
X243279205Y-47072340D01*
X243277284Y-47070053D01*
X243273923Y-47065550D01*
X243267558Y-47060470D01*
X243110289Y-46895441D01*
X243104904Y-46888088D01*
X243103136Y-46886486D01*
X243100139Y-46884378D01*
X243098958Y-46883499D01*
X243097627Y-46882867D01*
X243094264Y-46881163D01*
X243093411Y-46880857D01*
X243084388Y-46879456D01*
X242843189Y-46812115D01*
X242840951Y-46811341D01*
X242839431Y-46810980D01*
X242838146Y-46810931D01*
X242835722Y-46811074D01*
X229848376Y-46811074D01*
X229844593Y-46810801D01*
X229840743Y-46810995D01*
X229839240Y-46811033D01*
X229837633Y-46811385D01*
X229837430Y-46811423D01*
X229835497Y-46812042D01*
X229617913Y-46867137D01*
X229609821Y-46868026D01*
X229604105Y-46870217D01*
X229602055Y-46870875D01*
X229600776Y-46871432D01*
X229599941Y-46871995D01*
X229598241Y-46873416D01*
X229593252Y-46877175D01*
X229588278Y-46883408D01*
X229422779Y-47041125D01*
X229415998Y-47046146D01*
X229413872Y-47048840D01*
X229412559Y-47050299D01*
X229411336Y-47052040D01*
X229410211Y-47054296D01*
X229409575Y-47056066D01*
X229408438Y-47058651D01*
X229407181Y-47066894D01*
X229339885Y-47307934D01*
X229339093Y-47310243D01*
X229338798Y-47311490D01*
X229338746Y-47312893D01*
X229338889Y-47315292D01*
X229338889Y-60302724D01*
X229338608Y-60306666D01*
X224289889Y-60306666D01*
X224289889Y-60302724D01*
X224289889Y-47320547D01*
X224290161Y-47316775D01*
X224289968Y-47312929D01*
X224289932Y-47311528D01*
X224289635Y-47310207D01*
X224288836Y-47306212D01*
X224287627Y-47302582D01*
X224233987Y-47090745D01*
X224233106Y-47082312D01*
X224230978Y-47076844D01*
X224230149Y-47074225D01*
X224229594Y-47072906D01*
X224229205Y-47072340D01*
X224227284Y-47070053D01*
X224223923Y-47065550D01*
X224217558Y-47060470D01*
X224060289Y-46895441D01*
X224054904Y-46888088D01*
X224053136Y-46886486D01*
X224050139Y-46884378D01*
X224048958Y-46883499D01*
X224047627Y-46882867D01*
X224044264Y-46881163D01*
X224043411Y-46880857D01*
X224034388Y-46879456D01*
X223793189Y-46812115D01*
X223790951Y-46811341D01*
X223789431Y-46810980D01*
X223788146Y-46810931D01*
X223785722Y-46811074D01*
X210798376Y-46811074D01*
X210794593Y-46810801D01*
X210790743Y-46810995D01*
X210789240Y-46811033D01*
X210787633Y-46811385D01*
X210787430Y-46811423D01*
X210785497Y-46812042D01*
X210567913Y-46867137D01*
X210559821Y-46868026D01*
X210554105Y-46870217D01*
X210552055Y-46870875D01*
X210550776Y-46871432D01*
X210549941Y-46871995D01*
X210548241Y-46873416D01*
X210543252Y-46877175D01*
X210538278Y-46883408D01*
X210372779Y-47041125D01*
X210365998Y-47046146D01*
X210363872Y-47048840D01*
X210362559Y-47050299D01*
X210361336Y-47052040D01*
X210360211Y-47054296D01*
X210359575Y-47056066D01*
X210358438Y-47058651D01*
X210357181Y-47066894D01*
X210289885Y-47307934D01*
X210289093Y-47310243D01*
X210288798Y-47311490D01*
X210288746Y-47312893D01*
X210288889Y-47315292D01*
X210288889Y-60302727D01*
X210288650Y-60306080D01*
X205239497Y-60306080D01*
X205239497Y-47320561D01*
X205239769Y-47316780D01*
X205239576Y-47312929D01*
X205239540Y-47311528D01*
X205239243Y-47310207D01*
X205238444Y-47306212D01*
X205237235Y-47302582D01*
X205183595Y-47090745D01*
X205182714Y-47082312D01*
X205180586Y-47076844D01*
X205179757Y-47074225D01*
X205179202Y-47072906D01*
X205178813Y-47072340D01*
X205176892Y-47070053D01*
X205173531Y-47065550D01*
X205167166Y-47060470D01*
X205009897Y-46895441D01*
X205004512Y-46888088D01*
X205002744Y-46886486D01*
X204999747Y-46884378D01*
X204998566Y-46883499D01*
X204997235Y-46882867D01*
X204993872Y-46881163D01*
X204993019Y-46880857D01*
X204983996Y-46879456D01*
X204742797Y-46812115D01*
X204740559Y-46811341D01*
X204739039Y-46810980D01*
X204737754Y-46810931D01*
X204735330Y-46811074D01*
X191747984Y-46811074D01*
X191744201Y-46810801D01*
X191740351Y-46810995D01*
X191738848Y-46811033D01*
X191737241Y-46811385D01*
X191737038Y-46811423D01*
X191735105Y-46812042D01*
X191517521Y-46867137D01*
X191509429Y-46868026D01*
X191503713Y-46870217D01*
X191501663Y-46870875D01*
X191500384Y-46871432D01*
X191499549Y-46871995D01*
X191497849Y-46873416D01*
X191492860Y-46877175D01*
X191487886Y-46883408D01*
X191322387Y-47041125D01*
X191315606Y-47046146D01*
X191313480Y-47048840D01*
X191312167Y-47050299D01*
X191310944Y-47052040D01*
X191309819Y-47054296D01*
X191309183Y-47056066D01*
X191308046Y-47058651D01*
X191306789Y-47066894D01*
X191239493Y-47307934D01*
X191238701Y-47310243D01*
X191238406Y-47311490D01*
X191238354Y-47312893D01*
X191238497Y-47315292D01*
X191238497Y-60302724D01*
X191238216Y-60306666D01*
X186189889Y-60306666D01*
X186189889Y-47320561D01*
X186190161Y-47316780D01*
X186189968Y-47312929D01*
X186189932Y-47311528D01*
X186189635Y-47310207D01*
X186188836Y-47306212D01*
X186187627Y-47302582D01*
X186133987Y-47090745D01*
X186133106Y-47082312D01*
X186130978Y-47076844D01*
X186130149Y-47074225D01*
X186129594Y-47072906D01*
X186129205Y-47072340D01*
X186127284Y-47070053D01*
X186123923Y-47065550D01*
X186117558Y-47060470D01*
X185960289Y-46895441D01*
X185954904Y-46888088D01*
X185953136Y-46886486D01*
X185950139Y-46884378D01*
X185948958Y-46883499D01*
X185947627Y-46882867D01*
X185944264Y-46881163D01*
X185943411Y-46880857D01*
X185934388Y-46879456D01*
X185693189Y-46812115D01*
X185690951Y-46811341D01*
X185689431Y-46810980D01*
X185688146Y-46810931D01*
X185685722Y-46811074D01*
X172698376Y-46811074D01*
X172694593Y-46810801D01*
X172690743Y-46810995D01*
X172689240Y-46811033D01*
X172687633Y-46811385D01*
X172687430Y-46811423D01*
X172685497Y-46812042D01*
X172467913Y-46867137D01*
X172459821Y-46868026D01*
X172454105Y-46870217D01*
X172452055Y-46870875D01*
X172450776Y-46871432D01*
X172449941Y-46871995D01*
X172448241Y-46873416D01*
X172443252Y-46877175D01*
X172438278Y-46883408D01*
X172272779Y-47041125D01*
X172265998Y-47046146D01*
X172263872Y-47048840D01*
X172262559Y-47050299D01*
X172261336Y-47052040D01*
X172260211Y-47054296D01*
X172259575Y-47056066D01*
X172258438Y-47058651D01*
X172257181Y-47066894D01*
X172189885Y-47307934D01*
X172189093Y-47310243D01*
X172188798Y-47311490D01*
X172188746Y-47312893D01*
X172188889Y-47315292D01*
X172188889Y-60302724D01*
X172188608Y-60306666D01*
X167140094Y-60306666D01*
X167140094Y-60302724D01*
X167140094Y-47320547D01*
X167140367Y-47316775D01*
X167140174Y-47312929D01*
X167140138Y-47311528D01*
X167139841Y-47310207D01*
X167139042Y-47306212D01*
X167137833Y-47302582D01*
X167084193Y-47090745D01*
X167083312Y-47082312D01*
X167081184Y-47076844D01*
X167080355Y-47074225D01*
X167079800Y-47072906D01*
X167079411Y-47072340D01*
X167077490Y-47070053D01*
X167074129Y-47065550D01*
X167067764Y-47060470D01*
X166910495Y-46895441D01*
X166905110Y-46888088D01*
X166903342Y-46886486D01*
X166900345Y-46884378D01*
X166899164Y-46883499D01*
X166897833Y-46882867D01*
X166894470Y-46881163D01*
X166893617Y-46880857D01*
X166884594Y-46879456D01*
X166643395Y-46812115D01*
X166641157Y-46811341D01*
X166639637Y-46810980D01*
X166638352Y-46810931D01*
X166635928Y-46811074D01*
X153648582Y-46811074D01*
X153644799Y-46810801D01*
X153640949Y-46810995D01*
X153639446Y-46811033D01*
X153637839Y-46811385D01*
X153637636Y-46811423D01*
X153635703Y-46812042D01*
X153418119Y-46867137D01*
X153410027Y-46868026D01*
X153404311Y-46870217D01*
X153402261Y-46870875D01*
X153400982Y-46871432D01*
X153400147Y-46871995D01*
X153398447Y-46873416D01*
X153393458Y-46877175D01*
X153388484Y-46883408D01*
X153222985Y-47041125D01*
X153216204Y-47046146D01*
X153214078Y-47048840D01*
X153212765Y-47050299D01*
X153211542Y-47052040D01*
X153210417Y-47054296D01*
X153209781Y-47056066D01*
X153208644Y-47058651D01*
X153207387Y-47066894D01*
X153140091Y-47307934D01*
X153139299Y-47310243D01*
X153139004Y-47311490D01*
X153138952Y-47312893D01*
X153139095Y-47315292D01*
X153139095Y-60302724D01*
X153138814Y-60306666D01*
X138565188Y-60306666D01*
X138565188Y-47320561D01*
X138565460Y-47316780D01*
X138565267Y-47312929D01*
X138565231Y-47311528D01*
X138564934Y-47310207D01*
X138564135Y-47306212D01*
X138562926Y-47302582D01*
X138509286Y-47090745D01*
X138508405Y-47082312D01*
X138506277Y-47076844D01*
X138505448Y-47074225D01*
X138504893Y-47072906D01*
X138504504Y-47072340D01*
X138502583Y-47070053D01*
X138499222Y-47065550D01*
X138492857Y-47060470D01*
X138335588Y-46895441D01*
X138330203Y-46888088D01*
X138328435Y-46886486D01*
X138325438Y-46884378D01*
X138324257Y-46883499D01*
X138322926Y-46882867D01*
X138319563Y-46881163D01*
X138318710Y-46880857D01*
X138309687Y-46879456D01*
X138068488Y-46812115D01*
X138066250Y-46811341D01*
X138064730Y-46810980D01*
X138063445Y-46810931D01*
X138061021Y-46811074D01*
X125073676Y-46811074D01*
X125069893Y-46810801D01*
X125066043Y-46810995D01*
X125064540Y-46811033D01*
X125062933Y-46811385D01*
X125062730Y-46811423D01*
X125060797Y-46812042D01*
X124843213Y-46867137D01*
X124835121Y-46868026D01*
X124829405Y-46870217D01*
X124827355Y-46870875D01*
X124826076Y-46871432D01*
X124825241Y-46871995D01*
X124823541Y-46873416D01*
X124818552Y-46877175D01*
X124813578Y-46883408D01*
X124648079Y-47041125D01*
X124641298Y-47046146D01*
X124639172Y-47048840D01*
X124637859Y-47050299D01*
X124636636Y-47052040D01*
X124635511Y-47054296D01*
X124634875Y-47056066D01*
X124633738Y-47058651D01*
X124632481Y-47066894D01*
X124565185Y-47307934D01*
X124564393Y-47310243D01*
X124564098Y-47311490D01*
X124564046Y-47312893D01*
X124564189Y-47315292D01*
X124564189Y-60302727D01*
X124563950Y-60306080D01*
X119515188Y-60306080D01*
X119515188Y-47320561D01*
X119515460Y-47316780D01*
X119515267Y-47312929D01*
X119515231Y-47311528D01*
X119514934Y-47310207D01*
X119514135Y-47306212D01*
X119512926Y-47302582D01*
X119459286Y-47090745D01*
X119458405Y-47082312D01*
X119456277Y-47076844D01*
X119455448Y-47074225D01*
X119454893Y-47072906D01*
X119454504Y-47072340D01*
X119452583Y-47070053D01*
X119449222Y-47065550D01*
X119442857Y-47060470D01*
X119285588Y-46895441D01*
X119280203Y-46888088D01*
X119278435Y-46886486D01*
X119275438Y-46884378D01*
X119274257Y-46883499D01*
X119272926Y-46882867D01*
X119269563Y-46881163D01*
X119268710Y-46880857D01*
X119259687Y-46879456D01*
X119018488Y-46812115D01*
X119016250Y-46811341D01*
X119014730Y-46810980D01*
X119013445Y-46810931D01*
X119011021Y-46811074D01*
X106023676Y-46811074D01*
X106019893Y-46810801D01*
X106016043Y-46810995D01*
X106014540Y-46811033D01*
X106012933Y-46811385D01*
X106012730Y-46811423D01*
X106010797Y-46812042D01*
X105793213Y-46867137D01*
X105785121Y-46868026D01*
X105779405Y-46870217D01*
X105777355Y-46870875D01*
X105776076Y-46871432D01*
X105775241Y-46871995D01*
X105773541Y-46873416D01*
X105768552Y-46877175D01*
X105763578Y-46883408D01*
X105598079Y-47041125D01*
X105591298Y-47046146D01*
X105589172Y-47048840D01*
X105587859Y-47050299D01*
X105586636Y-47052040D01*
X105585511Y-47054296D01*
X105584875Y-47056066D01*
X105583738Y-47058651D01*
X105582481Y-47066894D01*
X105515185Y-47307934D01*
X105514393Y-47310243D01*
X105514098Y-47311490D01*
X105514046Y-47312893D01*
X105514189Y-47315292D01*
X105514189Y-60302724D01*
X105513908Y-60306666D01*
X100464796Y-60306666D01*
X100464796Y-47320561D01*
X100465068Y-47316780D01*
X100464875Y-47312929D01*
X100464839Y-47311528D01*
X100464542Y-47310207D01*
X100463743Y-47306212D01*
X100462534Y-47302582D01*
X100408894Y-47090745D01*
X100408013Y-47082312D01*
X100405885Y-47076844D01*
X100405056Y-47074225D01*
X100404501Y-47072906D01*
X100404112Y-47072340D01*
X100402191Y-47070053D01*
X100398830Y-47065550D01*
X100392465Y-47060470D01*
X100235196Y-46895441D01*
X100229811Y-46888088D01*
X100228043Y-46886486D01*
X100225046Y-46884378D01*
X100223865Y-46883499D01*
X100222534Y-46882867D01*
X100219171Y-46881163D01*
X100218318Y-46880857D01*
X100209295Y-46879456D01*
X99968096Y-46812115D01*
X99965858Y-46811341D01*
X99964338Y-46810980D01*
X99963053Y-46810931D01*
X99960629Y-46811074D01*
X86973283Y-46811074D01*
X86969500Y-46810801D01*
X86965650Y-46810995D01*
X86964147Y-46811033D01*
X86962540Y-46811385D01*
X86962337Y-46811423D01*
X86960404Y-46812042D01*
X86742820Y-46867137D01*
X86734728Y-46868026D01*
X86729012Y-46870217D01*
X86726962Y-46870875D01*
X86725683Y-46871432D01*
X86724848Y-46871995D01*
X86723148Y-46873416D01*
X86718159Y-46877175D01*
X86713185Y-46883408D01*
X86547686Y-47041125D01*
X86540905Y-47046146D01*
X86538779Y-47048840D01*
X86537466Y-47050299D01*
X86536243Y-47052040D01*
X86535118Y-47054296D01*
X86534482Y-47056066D01*
X86533345Y-47058651D01*
X86532088Y-47066894D01*
X86464792Y-47307934D01*
X86464000Y-47310243D01*
X86463705Y-47311490D01*
X86463653Y-47312893D01*
X86463796Y-47315292D01*
X86463796Y-60302724D01*
X86463515Y-60306666D01*
X81415188Y-60306666D01*
X81415188Y-47320561D01*
X81415460Y-47316780D01*
X81415267Y-47312929D01*
X81415231Y-47311528D01*
X81414934Y-47310207D01*
X81414135Y-47306212D01*
X81412926Y-47302582D01*
X81359286Y-47090745D01*
X81358405Y-47082312D01*
X81356277Y-47076844D01*
X81355448Y-47074225D01*
X81354893Y-47072906D01*
X81354504Y-47072340D01*
X81352583Y-47070053D01*
X81349222Y-47065550D01*
X81342857Y-47060470D01*
X81185588Y-46895441D01*
X81180203Y-46888088D01*
X81178435Y-46886486D01*
X81175438Y-46884378D01*
X81174257Y-46883499D01*
X81172926Y-46882867D01*
X81169563Y-46881163D01*
X81168710Y-46880857D01*
X81159687Y-46879456D01*
X80918488Y-46812115D01*
X80916250Y-46811341D01*
X80914730Y-46810980D01*
X80913445Y-46810931D01*
X80911021Y-46811074D01*
X67923676Y-46811074D01*
X67919893Y-46810801D01*
X67916043Y-46810995D01*
X67914540Y-46811033D01*
X67912933Y-46811385D01*
X67912730Y-46811423D01*
X67910797Y-46812042D01*
X67693213Y-46867137D01*
X67685121Y-46868026D01*
X67679405Y-46870217D01*
X67677355Y-46870875D01*
X67676076Y-46871432D01*
X67675241Y-46871995D01*
X67673541Y-46873416D01*
X67668552Y-46877175D01*
X67663578Y-46883408D01*
X67498079Y-47041125D01*
X67491298Y-47046146D01*
X67489172Y-47048840D01*
X67487859Y-47050299D01*
X67486636Y-47052040D01*
X67485511Y-47054296D01*
X67484875Y-47056066D01*
X67483738Y-47058651D01*
X67482481Y-47066894D01*
X67415185Y-47307934D01*
X67414393Y-47310243D01*
X67414098Y-47311490D01*
X67414046Y-47312893D01*
X67414189Y-47315292D01*
X67414189Y-60302724D01*
X67413908Y-60306666D01*
X62365394Y-60306666D01*
X62365394Y-47320561D01*
X62365666Y-47316780D01*
X62365473Y-47312929D01*
X62365437Y-47311528D01*
X62365140Y-47310207D01*
X62364341Y-47306212D01*
X62363132Y-47302582D01*
X62309492Y-47090745D01*
X62308611Y-47082312D01*
X62306483Y-47076844D01*
X62305654Y-47074225D01*
X62305099Y-47072906D01*
X62304710Y-47072340D01*
X62302789Y-47070053D01*
X62299428Y-47065550D01*
X62293063Y-47060470D01*
X62135794Y-46895441D01*
X62130409Y-46888088D01*
X62128641Y-46886486D01*
X62125644Y-46884378D01*
X62124463Y-46883499D01*
X62123132Y-46882867D01*
X62119769Y-46881163D01*
X62118916Y-46880857D01*
X62109893Y-46879456D01*
X61868694Y-46812115D01*
X61866456Y-46811341D01*
X61864936Y-46810980D01*
X61863651Y-46810931D01*
X61861227Y-46811074D01*
X48873881Y-46811074D01*
X48870098Y-46810801D01*
X48866248Y-46810995D01*
X48864745Y-46811033D01*
X48863138Y-46811385D01*
X48862935Y-46811423D01*
X48861002Y-46812042D01*
X48643418Y-46867137D01*
X48635326Y-46868026D01*
X48629610Y-46870217D01*
X48627560Y-46870875D01*
X48626281Y-46871432D01*
X48625446Y-46871995D01*
X48623746Y-46873416D01*
X48618757Y-46877175D01*
X48613783Y-46883408D01*
X48448284Y-47041125D01*
X48441503Y-47046146D01*
X48439377Y-47048840D01*
X48438064Y-47050299D01*
X48436841Y-47052040D01*
X48435716Y-47054296D01*
X48435080Y-47056066D01*
X48433943Y-47058651D01*
X48432686Y-47066894D01*
X48365390Y-47307934D01*
X48364598Y-47310243D01*
X48364303Y-47311490D01*
X48364251Y-47312893D01*
X48364394Y-47315292D01*
X48364394Y-60302724D01*
X48364113Y-60306666D01*
X45840940Y-60306666D01*
X45841946Y-45036185D01*
X45842372Y-45019024D01*
X45842825Y-45012928D01*
X45865640Y-44829010D01*
X45877643Y-44732253D01*
X45881207Y-44714401D01*
X45954646Y-44449679D01*
X45960759Y-44432610D01*
X46071855Y-44181883D01*
X46080402Y-44165872D01*
X46227450Y-43933257D01*
X46238319Y-43918584D01*
X46424144Y-43702969D01*
X46427256Y-43699616D01*
X47423667Y-42703205D01*
X48841202Y-41286675D01*
X55602374Y-41286675D01*
X55610365Y-41378008D01*
X55610601Y-41383414D01*
X55610601Y-41390784D01*
X55608941Y-41396434D01*
X55610079Y-41409432D01*
X55612992Y-41418126D01*
X55614272Y-41425384D01*
X55614978Y-41430747D01*
X55622969Y-41522078D01*
X55622971Y-41522088D01*
X55646693Y-41610622D01*
X55647865Y-41615905D01*
X55649147Y-41623181D01*
X55648494Y-41629032D01*
X55651868Y-41641624D01*
X55656253Y-41649692D01*
X55658771Y-41656613D01*
X55660397Y-41661771D01*
X55684130Y-41750338D01*
X55722878Y-41833434D01*
X55724949Y-41838433D01*
X55727465Y-41845345D01*
X55727838Y-41851226D01*
X55733357Y-41863062D01*
X55739084Y-41870256D01*
X55742759Y-41876624D01*
X55745249Y-41881410D01*
X55770969Y-41936564D01*
X55783998Y-41964505D01*
X55784012Y-41964525D01*
X55836595Y-42039621D01*
X55839506Y-42044191D01*
X55843179Y-42050554D01*
X55844566Y-42056276D01*
X55852047Y-42066960D01*
X55858920Y-42073034D01*
X55863647Y-42078667D01*
X55866936Y-42082954D01*
X55899318Y-42129199D01*
X55919538Y-42158076D01*
X55919540Y-42158078D01*
X55984374Y-42222912D01*
X55988030Y-42226902D01*
X55992753Y-42232529D01*
X55995116Y-42237929D01*
X56004345Y-42247158D01*
X56012173Y-42251950D01*
X56017806Y-42256677D01*
X56021781Y-42260319D01*
X56081914Y-42320452D01*
X56086633Y-42325171D01*
X56086666Y-42325194D01*
X56161752Y-42377770D01*
X56166032Y-42381053D01*
X56171668Y-42385783D01*
X56174932Y-42390688D01*
X56185620Y-42398173D01*
X56194160Y-42401532D01*
X56200529Y-42405209D01*
X56205072Y-42408103D01*
X56280203Y-42460710D01*
X56363307Y-42499462D01*
X56368095Y-42501954D01*
X56371350Y-42503833D01*
X56374465Y-42505631D01*
X56378535Y-42509898D01*
X56390369Y-42515417D01*
X56399364Y-42517243D01*
X56406273Y-42519758D01*
X56411267Y-42521826D01*
X56481958Y-42554790D01*
X56494370Y-42560578D01*
X56494372Y-42560579D01*
X56534498Y-42571330D01*
X56582942Y-42584310D01*
X56588089Y-42585933D01*
X56595026Y-42588458D01*
X56599767Y-42591949D01*
X56612357Y-42595322D01*
X56621525Y-42595557D01*
X56621633Y-42595577D01*
X56628791Y-42596839D01*
X56634061Y-42598007D01*
X56722625Y-42621738D01*
X56814001Y-42629732D01*
X56819293Y-42630429D01*
X56826600Y-42631718D01*
X56831870Y-42634330D01*
X56844852Y-42635466D01*
X56853924Y-42634107D01*
X56861293Y-42634107D01*
X56866696Y-42634342D01*
X56921046Y-42639098D01*
X56958032Y-42642334D01*
X56958033Y-42642334D01*
X56958034Y-42642334D01*
X56995019Y-42639098D01*
X57049369Y-42634342D01*
X57054773Y-42634107D01*
X57062140Y-42634107D01*
X57067790Y-42635766D01*
X57080776Y-42634629D01*
X57089465Y-42631718D01*
X57096785Y-42630427D01*
X57102067Y-42629732D01*
X57193441Y-42621738D01*
X57282023Y-42598002D01*
X57287258Y-42596841D01*
X57294539Y-42595558D01*
X57300392Y-42596211D01*
X57312981Y-42592837D01*
X57321040Y-42588458D01*
X57327997Y-42585926D01*
X57333110Y-42584314D01*
X57405843Y-42564825D01*
X57421693Y-42560579D01*
X57421694Y-42560578D01*
X57421696Y-42560578D01*
X57504827Y-42521812D01*
X57509790Y-42519758D01*
X57516711Y-42517238D01*
X57522587Y-42516865D01*
X57535068Y-42511045D01*
X57542888Y-42504897D01*
X57542355Y-42505195D01*
X57547972Y-42501952D01*
X57552738Y-42499471D01*
X57635863Y-42460710D01*
X57710987Y-42408107D01*
X57715516Y-42405221D01*
X57721887Y-42401542D01*
X57727616Y-42400151D01*
X57738317Y-42392658D01*
X57744389Y-42385790D01*
X57750055Y-42381035D01*
X57754293Y-42377784D01*
X57829400Y-42325194D01*
X57829427Y-42325175D01*
X57829427Y-42325174D01*
X57829434Y-42325170D01*
X57894294Y-42260309D01*
X57898242Y-42256692D01*
X57903884Y-42251957D01*
X57909285Y-42249593D01*
X57918516Y-42240362D01*
X57923309Y-42232533D01*
X57928050Y-42226884D01*
X57931669Y-42222935D01*
X57996528Y-42158076D01*
X58049145Y-42082930D01*
X58052393Y-42078697D01*
X58057146Y-42073032D01*
X58062047Y-42069772D01*
X58069536Y-42059077D01*
X58072897Y-42050534D01*
X58076579Y-42044158D01*
X58079471Y-42039621D01*
X58132068Y-41964505D01*
X58170824Y-41881391D01*
X58173309Y-41876618D01*
X58174025Y-41875376D01*
X58176986Y-41870247D01*
X58181252Y-41866178D01*
X58186771Y-41854343D01*
X58188597Y-41845352D01*
X58188600Y-41845345D01*
X58191118Y-41838426D01*
X58193170Y-41833469D01*
X58231936Y-41750338D01*
X58232496Y-41748250D01*
X58236183Y-41734485D01*
X58255672Y-41661752D01*
X58257284Y-41656639D01*
X58259814Y-41649687D01*
X58263305Y-41644945D01*
X58266679Y-41632355D01*
X58266916Y-41623181D01*
X58268199Y-41615900D01*
X58269360Y-41610665D01*
X58293096Y-41522083D01*
X58301090Y-41430709D01*
X58301785Y-41425424D01*
X58305465Y-41404560D01*
X58305465Y-41404547D01*
X58305713Y-41403143D01*
X58305720Y-41403094D01*
X58306939Y-41396180D01*
X58305822Y-41388135D01*
X58306113Y-41374776D01*
X58306330Y-41370815D01*
X58313692Y-41286675D01*
X58306330Y-41202538D01*
X58306113Y-41198569D01*
X58305822Y-41185214D01*
X58307357Y-41179534D01*
X58305812Y-41170770D01*
X58305804Y-41170714D01*
X58305465Y-41168790D01*
X58301785Y-41147925D01*
X58301088Y-41142619D01*
X58293096Y-41051267D01*
X58269365Y-40962703D01*
X58268197Y-40957433D01*
X58266916Y-40950168D01*
X58267568Y-40944315D01*
X58264197Y-40931730D01*
X58259816Y-40923668D01*
X58257294Y-40916739D01*
X58257292Y-40916734D01*
X58257287Y-40916718D01*
X58255668Y-40911584D01*
X58231944Y-40823040D01*
X58231939Y-40823021D01*
X58231937Y-40823017D01*
X58231936Y-40823012D01*
X58193184Y-40739909D01*
X58191116Y-40734915D01*
X58188601Y-40728006D01*
X58188226Y-40722124D01*
X58182713Y-40710300D01*
X58176993Y-40703114D01*
X58173315Y-40696742D01*
X58170822Y-40691953D01*
X58132077Y-40608865D01*
X58132070Y-40608850D01*
X58132067Y-40608845D01*
X58079466Y-40533723D01*
X58076563Y-40529164D01*
X58072902Y-40522823D01*
X58072889Y-40522801D01*
X58071500Y-40517076D01*
X58064013Y-40506382D01*
X58057122Y-40500288D01*
X58052406Y-40494668D01*
X58049132Y-40490401D01*
X57996528Y-40415274D01*
X57931677Y-40350423D01*
X57928039Y-40346452D01*
X57923308Y-40340815D01*
X57920946Y-40335417D01*
X57911723Y-40326194D01*
X57903888Y-40321396D01*
X57902165Y-40319950D01*
X57898260Y-40316672D01*
X57894270Y-40313016D01*
X57829434Y-40248180D01*
X57754307Y-40195575D01*
X57750035Y-40192297D01*
X57744380Y-40187552D01*
X57741122Y-40182652D01*
X57730451Y-40175181D01*
X57721912Y-40171821D01*
X57715570Y-40168160D01*
X57715543Y-40168144D01*
X57710979Y-40165237D01*
X57635863Y-40112640D01*
X57607922Y-40099611D01*
X57552768Y-40073891D01*
X57547982Y-40071401D01*
X57541614Y-40067726D01*
X57537538Y-40063453D01*
X57525702Y-40057934D01*
X57516703Y-40056107D01*
X57509791Y-40053591D01*
X57504792Y-40051520D01*
X57421696Y-40012772D01*
X57333129Y-39989039D01*
X57327971Y-39987413D01*
X57321050Y-39984895D01*
X57316302Y-39981399D01*
X57303713Y-39978026D01*
X57294539Y-39977789D01*
X57287263Y-39976507D01*
X57281980Y-39975335D01*
X57193446Y-39951613D01*
X57193436Y-39951611D01*
X57102105Y-39943620D01*
X57096742Y-39942914D01*
X57089484Y-39941634D01*
X57084210Y-39939020D01*
X57071214Y-39937883D01*
X57062143Y-39939243D01*
X57054773Y-39939243D01*
X57049369Y-39939007D01*
X56995019Y-39934251D01*
X56958034Y-39931016D01*
X56958032Y-39931016D01*
X56921046Y-39934251D01*
X56866696Y-39939007D01*
X56861293Y-39939243D01*
X56853922Y-39939243D01*
X56848271Y-39937583D01*
X56835285Y-39938720D01*
X56826590Y-39941633D01*
X56819332Y-39942913D01*
X56813964Y-39943620D01*
X56722622Y-39951612D01*
X56634082Y-39975336D01*
X56628800Y-39976507D01*
X56621524Y-39977789D01*
X56615675Y-39977136D01*
X56603087Y-39980509D01*
X56595019Y-39984893D01*
X56588104Y-39987410D01*
X56582944Y-39989037D01*
X56494369Y-40012772D01*
X56411267Y-40051522D01*
X56406271Y-40053591D01*
X56399362Y-40056106D01*
X56393481Y-40056479D01*
X56381666Y-40061989D01*
X56374487Y-40067705D01*
X56368121Y-40071381D01*
X56363317Y-40073882D01*
X56280207Y-40112637D01*
X56205091Y-40165233D01*
X56200527Y-40168141D01*
X56194162Y-40171815D01*
X56188438Y-40173203D01*
X56177739Y-40180694D01*
X56171653Y-40187579D01*
X56166029Y-40192296D01*
X56161745Y-40195583D01*
X56086632Y-40248179D01*
X56021783Y-40313027D01*
X56017782Y-40316693D01*
X56012151Y-40321415D01*
X56006763Y-40323771D01*
X55997555Y-40332979D01*
X55992773Y-40340793D01*
X55988051Y-40346424D01*
X55984385Y-40350425D01*
X55919537Y-40415274D01*
X55866941Y-40490387D01*
X55863654Y-40494671D01*
X55858937Y-40500295D01*
X55854025Y-40503563D01*
X55846533Y-40514264D01*
X55843173Y-40522804D01*
X55839499Y-40529169D01*
X55836591Y-40533733D01*
X55783995Y-40608849D01*
X55745240Y-40691959D01*
X55742739Y-40696763D01*
X55739063Y-40703129D01*
X55734799Y-40707192D01*
X55729290Y-40719007D01*
X55727464Y-40728004D01*
X55724949Y-40734913D01*
X55722880Y-40739909D01*
X55684130Y-40823011D01*
X55660397Y-40911577D01*
X55658777Y-40916718D01*
X55656572Y-40922783D01*
X55656201Y-40923798D01*
X55652732Y-40928496D01*
X55649383Y-40941000D01*
X55649147Y-40950166D01*
X55647865Y-40957442D01*
X55646694Y-40962724D01*
X55622970Y-41051264D01*
X55622970Y-41051265D01*
X55614978Y-41142600D01*
X55614273Y-41147958D01*
X55612996Y-41155210D01*
X55610378Y-41160492D01*
X55609241Y-41173494D01*
X55610601Y-41182564D01*
X55610601Y-41189934D01*
X55610365Y-41195340D01*
X55602374Y-41286674D01*
X55602374Y-41286675D01*
X48841202Y-41286675D01*
X51311089Y-38818540D01*
X51323678Y-38806561D01*
X51328303Y-38802574D01*
X51551389Y-38628728D01*
X51566550Y-38618614D01*
X51805657Y-38483364D01*
X51822046Y-38475618D01*
X52077901Y-38376881D01*
X52095271Y-38371603D01*
X52363717Y-38311101D01*
X52381789Y-38308409D01*
X52665643Y-38287344D01*
X52670232Y-38287175D01*
X54467333Y-38287175D01*
X61489850Y-38289125D01*
G37*
%TD.AperFunction*%
M02*
