%TF.GenerationSoftware,KiCad,Pcbnew,7.0.6*%
%TF.CreationDate,2023-10-08T00:22:24-04:00*%
%TF.ProjectId,ortho-fr4-plate,6f727468-6f2d-4667-9234-2d706c617465,rev?*%
%TF.SameCoordinates,Original*%
%TF.FileFunction,Drillmap*%
%TF.FilePolarity,Positive*%
%FSLAX45Y45*%
G04 Gerber Fmt 4.5, Leading zero omitted, Abs format (unit mm)*
G04 Created by KiCad (PCBNEW 7.0.6) date 2023-10-08 00:22:24*
%MOMM*%
%LPD*%
G01*
G04 APERTURE LIST*
%ADD10C,0.250000*%
%ADD11C,0.200000*%
G04 APERTURE END LIST*
D10*
X11901419Y-8491159D02*
X11927346Y-8498398D01*
X11945384Y-8517326D01*
X11951419Y-8541159D01*
X4886440Y-8491159D02*
X6186440Y-8491159D01*
X22983939Y-9891159D02*
X22958012Y-9883921D01*
X22939974Y-9864992D01*
X22933939Y-9841159D01*
X11951469Y-6031157D02*
X11944230Y-6057084D01*
X11925302Y-6075123D01*
X11901469Y-6081157D01*
X18618939Y-8541159D02*
X18618939Y-9841159D01*
X8091419Y-7986161D02*
X6791419Y-7986161D01*
X6236440Y-6636161D02*
X6236440Y-7936161D01*
X14896388Y-10872379D02*
X14273988Y-10872380D01*
X11901469Y-4681157D02*
X11927396Y-4688396D01*
X11945434Y-4707324D01*
X11951469Y-4731157D01*
X15840189Y-12272379D02*
X15814262Y-12265141D01*
X15796224Y-12246212D01*
X15790189Y-12222379D01*
X18618939Y-6031157D02*
X18611700Y-6057084D01*
X18592772Y-6075123D01*
X18568939Y-6081157D01*
X6765331Y-12107235D02*
X6787392Y-12088178D01*
X6811766Y-12072651D01*
X6838034Y-12060833D01*
X6865774Y-12052899D01*
X6894563Y-12049029D01*
X6904321Y-12048672D01*
X6236440Y-9841159D02*
X6229201Y-9867086D01*
X6210273Y-9885125D01*
X6186440Y-9891159D01*
X6741419Y-8541159D02*
X6748658Y-8515233D01*
X6767586Y-8497194D01*
X6791419Y-8491159D01*
X17268939Y-6081157D02*
X17243012Y-6073919D01*
X17224974Y-6054990D01*
X17218939Y-6031157D01*
X8091469Y-6081157D02*
X6791469Y-6081157D01*
X21078889Y-6586161D02*
X22378889Y-6586161D01*
X11737211Y-12524878D02*
X11734464Y-12524872D01*
X10601419Y-9891159D02*
X10575492Y-9883921D01*
X10557454Y-9864992D01*
X10551419Y-9841159D01*
X22428889Y-7936161D02*
X22421651Y-7962088D01*
X22402722Y-7980126D01*
X22378889Y-7986161D01*
X6739856Y-11746198D02*
X6739856Y-10446198D01*
X8696380Y-7986161D02*
X8670453Y-7978923D01*
X8652415Y-7959994D01*
X8646380Y-7936161D01*
X13806419Y-6586161D02*
X13832346Y-6593400D01*
X13850384Y-6612328D01*
X13856419Y-6636161D01*
X8696430Y-4681157D02*
X9996430Y-4681157D01*
X22378939Y-9891159D02*
X21078939Y-9891159D01*
X15363910Y-7986161D02*
X15337983Y-7978923D01*
X15319945Y-7959994D01*
X15313910Y-7936161D01*
X10709256Y-11796198D02*
X6789856Y-11796198D01*
X14173988Y-10672379D02*
X13573988Y-10672379D01*
X16713959Y-6031157D02*
X16706721Y-6057084D01*
X16687792Y-6075123D01*
X16663959Y-6081157D01*
X17142699Y-10672922D02*
X17983991Y-10672379D01*
X12506419Y-7986161D02*
X12480492Y-7978923D01*
X12462454Y-7959994D01*
X12456419Y-7936161D01*
X22378949Y-10396157D02*
X22404876Y-10403396D01*
X22422914Y-10422324D01*
X22428949Y-10446157D01*
X22933910Y-10446157D02*
X22941148Y-10420231D01*
X22960077Y-10402192D01*
X22983910Y-10396157D01*
X21078939Y-8491159D02*
X22378939Y-8491159D01*
X19123900Y-6031157D02*
X19123900Y-4731157D01*
X22983910Y-10396157D02*
X24283910Y-10396157D01*
X13473989Y-10872380D02*
X13499916Y-10865141D01*
X13517955Y-10846213D01*
X13523989Y-10822380D01*
X8696380Y-6586161D02*
X9996380Y-6586161D01*
X24283889Y-7986161D02*
X22983889Y-7986161D01*
X6739856Y-10446198D02*
X6747095Y-10420271D01*
X6766023Y-10402233D01*
X6789856Y-10396198D01*
X18568889Y-7986161D02*
X17268889Y-7986161D01*
X9996430Y-4681157D02*
X10022356Y-4688396D01*
X10040395Y-4707324D01*
X10046430Y-4731157D01*
X6186440Y-6586161D02*
X6212367Y-6593400D01*
X6230405Y-6612328D01*
X6236440Y-6636161D01*
X5266746Y-12648641D02*
X6141060Y-12648650D01*
X13806469Y-4681157D02*
X13832396Y-4688396D01*
X13850434Y-4707324D01*
X13856469Y-4731157D01*
X10046380Y-6636161D02*
X10046380Y-7936161D01*
X18033991Y-10722379D02*
X18033991Y-12122379D01*
X6904321Y-12048672D02*
X11086389Y-12048629D01*
X20473900Y-9891159D02*
X19173900Y-9891159D01*
X17268889Y-6586161D02*
X18568889Y-6586161D01*
X21028949Y-11746157D02*
X21028949Y-10446157D01*
X24333939Y-4731157D02*
X24333939Y-6031157D01*
X17218939Y-4731157D02*
X17226178Y-4705231D01*
X17245106Y-4687192D01*
X17268939Y-4681157D01*
X14996388Y-10672379D02*
X14970461Y-10679618D01*
X14952423Y-10698546D01*
X14946388Y-10722379D01*
X22983939Y-4681157D02*
X24283939Y-4681157D01*
X18891022Y-12048672D02*
X22295927Y-12048677D01*
X21028939Y-8541159D02*
X21036178Y-8515233D01*
X21055106Y-8497194D01*
X21078939Y-8491159D01*
X12506469Y-4681157D02*
X13806469Y-4681157D01*
X24527908Y-4370092D02*
X24045062Y-3887246D01*
X20473900Y-4681157D02*
X20499827Y-4688396D01*
X20517865Y-4707324D01*
X20523900Y-4731157D01*
X4583949Y-8226545D02*
X4583910Y-11965791D01*
X20523850Y-6636161D02*
X20523850Y-7936161D01*
X22378889Y-6586161D02*
X22404816Y-6593400D01*
X22422855Y-6612328D01*
X22428889Y-6636161D01*
X15596388Y-12172379D02*
X15622315Y-12165141D01*
X15640353Y-12146212D01*
X15646388Y-12122379D01*
X17268939Y-8491159D02*
X18568939Y-8491159D01*
X24283939Y-4681157D02*
X24309866Y-4688396D01*
X24327904Y-4707324D01*
X24333939Y-4731157D01*
X10551469Y-4731157D02*
X10558708Y-4705231D01*
X10577636Y-4687192D01*
X10601469Y-4681157D01*
X8141469Y-4731157D02*
X8141469Y-6031157D01*
X21078939Y-4681157D02*
X22378939Y-4681157D01*
X22983939Y-8491159D02*
X24283939Y-8491159D01*
X9996380Y-7986161D02*
X8696380Y-7986161D01*
X11901419Y-6586161D02*
X11927346Y-6593400D01*
X11945384Y-6612328D01*
X11951419Y-6636161D01*
X24333889Y-7936161D02*
X24326651Y-7962088D01*
X24307722Y-7980126D01*
X24283889Y-7986161D01*
X11136389Y-10722379D02*
X11136389Y-11998629D01*
X17218939Y-8541159D02*
X17226178Y-8515233D01*
X17245106Y-8497194D01*
X17268939Y-8491159D01*
X8091419Y-6586161D02*
X8117346Y-6593400D01*
X8135384Y-6612328D01*
X8141419Y-6636161D01*
X17428289Y-12222379D02*
X17421051Y-12248306D01*
X17402122Y-12266344D01*
X17378289Y-12272379D01*
X19123949Y-11746157D02*
X19123949Y-10446157D01*
X4886489Y-6081157D02*
X4860563Y-6073919D01*
X4842524Y-6054990D01*
X4836489Y-6031157D01*
X19173900Y-8491159D02*
X20473900Y-8491159D01*
X14223988Y-10722379D02*
X14216750Y-10696452D01*
X14197821Y-10678414D01*
X14173988Y-10672379D01*
X23903641Y-3828667D02*
X23061796Y-3828667D01*
X21028949Y-10446157D02*
X21036188Y-10420231D01*
X21055116Y-10402192D01*
X21078949Y-10396157D01*
X6186440Y-8491159D02*
X6212367Y-8498398D01*
X6230405Y-8517326D01*
X6236440Y-8541159D01*
X24333939Y-8541159D02*
X24333939Y-9841159D01*
X10046430Y-6031157D02*
X10039191Y-6057084D01*
X10020263Y-6075123D01*
X9996430Y-6081157D01*
X5830803Y-4128667D02*
G75*
G03*
X5830803Y-4128667I-135000J0D01*
G01*
X20523900Y-9841159D02*
X20516661Y-9867086D01*
X20497733Y-9885125D01*
X20473900Y-9891159D01*
X22983939Y-6081157D02*
X22958012Y-6073919D01*
X22939974Y-6054990D01*
X22933939Y-6031157D01*
X10759256Y-10446198D02*
X10759256Y-11746198D01*
X12027689Y-10672379D02*
X12027689Y-10672879D01*
X12456419Y-9841159D02*
X12456419Y-8541159D01*
X20473900Y-6081157D02*
X19173900Y-6081157D01*
X22920329Y-12590247D02*
X22942762Y-12609581D01*
X22967572Y-12625265D01*
X22994315Y-12637115D01*
X23022550Y-12644948D01*
X23051832Y-12648581D01*
X23061750Y-12648827D01*
X4583910Y-11965791D02*
X4586102Y-11995325D01*
X4592555Y-12023958D01*
X4603086Y-12051248D01*
X4617511Y-12076752D01*
X4635648Y-12100027D01*
X4642487Y-12107213D01*
X5125371Y-3887246D02*
X4642528Y-4370089D01*
X10046380Y-7936161D02*
X10039141Y-7962088D01*
X10020213Y-7980126D01*
X9996380Y-7986161D01*
X13523999Y-10822380D02*
X13523999Y-10722422D01*
X15363959Y-4681157D02*
X16663959Y-4681157D01*
X13856419Y-9841159D02*
X13849181Y-9867086D01*
X13830252Y-9885125D01*
X13806419Y-9891159D01*
X4836489Y-6031157D02*
X4836489Y-4731157D01*
X4886440Y-6586161D02*
X6186440Y-6586161D01*
X18568939Y-4681157D02*
X18594866Y-4688396D01*
X18612904Y-4707324D01*
X18618939Y-4731157D01*
X4886440Y-9891159D02*
X4860513Y-9883921D01*
X4842475Y-9864992D01*
X4836440Y-9841159D01*
X22933939Y-9841159D02*
X22933939Y-8541159D01*
X24283910Y-10396157D02*
X24309837Y-10403396D01*
X24327875Y-10422324D01*
X24333910Y-10446157D01*
X19123850Y-6636161D02*
X19131089Y-6610234D01*
X19150017Y-6592196D01*
X19173850Y-6586161D01*
X4836440Y-9841159D02*
X4836440Y-8541159D01*
X24283939Y-9891159D02*
X22983939Y-9891159D01*
X15335188Y-12172379D02*
X15596388Y-12172379D01*
X23061796Y-3828667D02*
X23032262Y-3830859D01*
X23003629Y-3837312D01*
X22976339Y-3847844D01*
X22950836Y-3862270D01*
X22927561Y-3880407D01*
X22920375Y-3887246D01*
X22437528Y-4370093D02*
X22415094Y-4389427D01*
X22390285Y-4405110D01*
X22363541Y-4416960D01*
X22335307Y-4424793D01*
X22306024Y-4428426D01*
X22296107Y-4428672D01*
X15646388Y-10722379D02*
X15639149Y-10696452D01*
X15620221Y-10678414D01*
X15596388Y-10672379D01*
X14273988Y-10872380D02*
X14248061Y-10865141D01*
X14230023Y-10846213D01*
X14223988Y-10822380D01*
X16663959Y-9891159D02*
X15363959Y-9891159D01*
X6236440Y-8541159D02*
X6236440Y-9841159D01*
X10601469Y-6081157D02*
X10575542Y-6073919D01*
X10557504Y-6054990D01*
X10551469Y-6031157D01*
X19173949Y-11796157D02*
X19148022Y-11788919D01*
X19129984Y-11769990D01*
X19123949Y-11746157D01*
X11737211Y-12524844D02*
X18414849Y-12524844D01*
X24045062Y-3887246D02*
X24022628Y-3867912D01*
X23997819Y-3852229D01*
X23971075Y-3840379D01*
X23942841Y-3832546D01*
X23913558Y-3828913D01*
X23903641Y-3828667D01*
X20523850Y-7936161D02*
X20516611Y-7962088D01*
X20497683Y-7980126D01*
X20473850Y-7986161D01*
X21078949Y-11796157D02*
X21053022Y-11788919D01*
X21034984Y-11769990D01*
X21028949Y-11746157D01*
X20473850Y-6586161D02*
X20499777Y-6593400D01*
X20517815Y-6612328D01*
X20523850Y-6636161D01*
X11980188Y-12222379D02*
X11987427Y-12248306D01*
X12006355Y-12266344D01*
X12030188Y-12272379D01*
X17478289Y-12172379D02*
X17452363Y-12179618D01*
X17434324Y-12198546D01*
X17428289Y-12222379D01*
X11951419Y-6636161D02*
X11951419Y-7936161D01*
X20473949Y-11796157D02*
X19173949Y-11796157D01*
X5266792Y-3828667D02*
X5237258Y-3830859D01*
X5208625Y-3837312D01*
X5181335Y-3847844D01*
X5155832Y-3862270D01*
X5132557Y-3880407D01*
X5125371Y-3887246D01*
X24333889Y-6636161D02*
X24333889Y-7936161D01*
X20473850Y-7986161D02*
X19173850Y-7986161D01*
X17268939Y-9891159D02*
X17243012Y-9883921D01*
X17224974Y-9864992D01*
X17218939Y-9841159D01*
X21028889Y-7936161D02*
X21028889Y-6636161D01*
X6906792Y-4428668D02*
X6877258Y-4426476D01*
X6848625Y-4420022D01*
X6821335Y-4409491D01*
X6795832Y-4395065D01*
X6772557Y-4376928D01*
X6765371Y-4370089D01*
X11930189Y-12172379D02*
X11956116Y-12179618D01*
X11974155Y-12198546D01*
X11980189Y-12222379D01*
X19123900Y-4731157D02*
X19131138Y-4705231D01*
X19150067Y-4687192D01*
X19173900Y-4681157D01*
X23609572Y-12348830D02*
G75*
G03*
X23609572Y-12348830I-135000J0D01*
G01*
X22428939Y-6031157D02*
X22421700Y-6057084D01*
X22402772Y-6075123D01*
X22378939Y-6081157D01*
X10551419Y-9841159D02*
X10551419Y-8541159D01*
X9996430Y-6081157D02*
X8696430Y-6081157D01*
X16713910Y-6636161D02*
X16713910Y-7936161D01*
X22378939Y-4681157D02*
X22404866Y-4688396D01*
X22422904Y-4707324D01*
X22428939Y-4731157D01*
X24333910Y-10446157D02*
X24333910Y-11746157D01*
X8141419Y-7936161D02*
X8134181Y-7962088D01*
X8115252Y-7980126D01*
X8091419Y-7986161D01*
X11951419Y-8541159D02*
X11951419Y-9841159D01*
X8141469Y-6031157D02*
X8134230Y-6057084D01*
X8115302Y-6075123D01*
X8091469Y-6081157D01*
X16713959Y-9841159D02*
X16706721Y-9867086D01*
X16687792Y-9885125D01*
X16663959Y-9891159D01*
X8646430Y-6031157D02*
X8646430Y-4731157D01*
X8141419Y-6636161D02*
X8141419Y-7936161D01*
X12456469Y-6031157D02*
X12456469Y-4731157D01*
X11951419Y-7936161D02*
X11944181Y-7962088D01*
X11925252Y-7980126D01*
X11901419Y-7986161D01*
X15313910Y-6636161D02*
X15321148Y-6610234D01*
X15340077Y-6592196D01*
X15363910Y-6586161D01*
X24283889Y-6586161D02*
X24309816Y-6593400D01*
X24327855Y-6612328D01*
X24333889Y-6636161D01*
X19173949Y-10396157D02*
X20473949Y-10396157D01*
X9996380Y-9891159D02*
X8696380Y-9891159D01*
X10046380Y-9841159D02*
X10039141Y-9867086D01*
X10020213Y-9885125D01*
X9996380Y-9891159D01*
X4836440Y-8541159D02*
X4843679Y-8515233D01*
X4862607Y-8497194D01*
X4886440Y-8491159D01*
X10046430Y-4731157D02*
X10046430Y-6031157D01*
X12030188Y-12272379D02*
X15235188Y-12272379D01*
X16663959Y-6081157D02*
X15363959Y-6081157D01*
X22983889Y-7986161D02*
X22957962Y-7978923D01*
X22939924Y-7959994D01*
X22933889Y-7936161D01*
X19173850Y-7986161D02*
X19147923Y-7978923D01*
X19129885Y-7959994D01*
X19123850Y-7936161D01*
X10601469Y-4681157D02*
X11901469Y-4681157D01*
X10601419Y-7986161D02*
X10575492Y-7978923D01*
X10557454Y-7959994D01*
X10551419Y-7936161D01*
X24333939Y-6031157D02*
X24326700Y-6057084D01*
X24307772Y-6075123D01*
X24283939Y-6081157D01*
X21028939Y-9841159D02*
X21028939Y-8541159D01*
X24283910Y-11796157D02*
X22983910Y-11796157D01*
X10551419Y-6636161D02*
X10558658Y-6610234D01*
X10577586Y-6592196D01*
X10601419Y-6586161D01*
X13856469Y-6031157D02*
X13849230Y-6057084D01*
X13830302Y-6075123D01*
X13806469Y-6081157D01*
X15313910Y-7936161D02*
X15313910Y-6636161D01*
X18568939Y-9891159D02*
X17268939Y-9891159D01*
X17983991Y-12172379D02*
X17478289Y-12172379D01*
X6791419Y-7986161D02*
X6765492Y-7978923D01*
X6747454Y-7959994D01*
X6741419Y-7936161D01*
X4583949Y-4511510D02*
X4583949Y-8226545D01*
X17218939Y-6031157D02*
X17218939Y-4731157D01*
X22437349Y-12107257D02*
X22920329Y-12590247D01*
X6791469Y-6081157D02*
X6765542Y-6073919D01*
X6747504Y-6054990D01*
X6741469Y-6031157D01*
X8646380Y-9841159D02*
X8646380Y-8541159D01*
X17218889Y-6636161D02*
X17226128Y-6610234D01*
X17245056Y-6592196D01*
X17268889Y-6586161D01*
X11186389Y-10672379D02*
X11160463Y-10679618D01*
X11142424Y-10698546D01*
X11136389Y-10722379D01*
X6282528Y-3887246D02*
X6260094Y-3867912D01*
X6235285Y-3852229D01*
X6208541Y-3840379D01*
X6180307Y-3832546D01*
X6151024Y-3828913D01*
X6141107Y-3828667D01*
X18618889Y-6636161D02*
X18618889Y-7936161D01*
X18618939Y-4731157D02*
X18618939Y-6031157D01*
X12506469Y-6081157D02*
X12480542Y-6073919D01*
X12462504Y-6054990D01*
X12456469Y-6031157D01*
X19173850Y-6586161D02*
X20473850Y-6586161D01*
X20523949Y-11746157D02*
X20516711Y-11772084D01*
X20497782Y-11790123D01*
X20473949Y-11796157D01*
X20473949Y-10396157D02*
X20499876Y-10403396D01*
X20517914Y-10422324D01*
X20523949Y-10446157D01*
X18618889Y-7936161D02*
X18611651Y-7962088D01*
X18592722Y-7980126D01*
X18568889Y-7986161D01*
X13806419Y-8491159D02*
X13832346Y-8498398D01*
X13850384Y-8517326D01*
X13856419Y-8541159D01*
X24586487Y-4511514D02*
X24584295Y-4481979D01*
X24577842Y-4453346D01*
X24567311Y-4426057D01*
X24552884Y-4400553D01*
X24534747Y-4377279D01*
X24527908Y-4370092D01*
X8091419Y-9891159D02*
X6791419Y-9891159D01*
X11535847Y-12172379D02*
X11930189Y-12172379D01*
X23903595Y-12648836D02*
X23933128Y-12646645D01*
X23961762Y-12640192D01*
X23989051Y-12629661D01*
X24014555Y-12615235D01*
X24037830Y-12597098D01*
X24045016Y-12590259D01*
X6791469Y-4681157D02*
X8091469Y-4681157D01*
X10551469Y-6031157D02*
X10551469Y-4731157D01*
X23061750Y-12648827D02*
X23903595Y-12648836D01*
X21078889Y-7986161D02*
X21052963Y-7978923D01*
X21034924Y-7959994D01*
X21028889Y-7936161D01*
X8091469Y-4681157D02*
X8117396Y-4688396D01*
X8135434Y-4707324D01*
X8141469Y-4731157D01*
X22428939Y-4731157D02*
X22428939Y-6031157D01*
X14946388Y-10722379D02*
X14946388Y-10822379D01*
X24283939Y-8491159D02*
X24309866Y-8498398D01*
X24327904Y-8517326D01*
X24333939Y-8541159D01*
X22428889Y-6636161D02*
X22428889Y-7936161D01*
X4886489Y-11796161D02*
X4860563Y-11788922D01*
X4842524Y-11769994D01*
X4836489Y-11746161D01*
X14946388Y-10822379D02*
X14939149Y-10848306D01*
X14920221Y-10866345D01*
X14896388Y-10872379D01*
X4642487Y-12107213D02*
X5125325Y-12590061D01*
X22428939Y-9841159D02*
X22421700Y-9867086D01*
X22402772Y-9885125D01*
X22378939Y-9891159D01*
X15363959Y-9891159D02*
X15338033Y-9883921D01*
X15319994Y-9864992D01*
X15313959Y-9841159D01*
X6741419Y-9841159D02*
X6741419Y-8541159D01*
X16663959Y-4681157D02*
X16689886Y-4688396D01*
X16707925Y-4707324D01*
X16713959Y-4731157D01*
X6791419Y-9891159D02*
X6765492Y-9883921D01*
X6747454Y-9864992D01*
X6741419Y-9841159D01*
X8696380Y-9891159D02*
X8670453Y-9883921D01*
X8652415Y-9864992D01*
X8646380Y-9841159D01*
X22933910Y-11746157D02*
X22933910Y-10446157D01*
X11951419Y-9841159D02*
X11944181Y-9867086D01*
X11925252Y-9885125D01*
X11901419Y-9891159D01*
X8646380Y-6636161D02*
X8653619Y-6610234D01*
X8672547Y-6592196D01*
X8696380Y-6586161D01*
X24527867Y-12107418D02*
X24547201Y-12084985D01*
X24562885Y-12060175D01*
X24574735Y-12033432D01*
X24582569Y-12005198D01*
X24586202Y-11975915D01*
X24586448Y-11965997D01*
X17218939Y-9841159D02*
X17218939Y-8541159D01*
X6765371Y-4370089D02*
X6282528Y-3887246D01*
X10709256Y-10396198D02*
X10735183Y-10403437D01*
X10753221Y-10422365D01*
X10759256Y-10446198D01*
X20523900Y-6031157D02*
X20516661Y-6057084D01*
X20497733Y-6075123D01*
X20473900Y-6081157D01*
X17092699Y-10822422D02*
X17092699Y-10722922D01*
X13856419Y-7936161D02*
X13849181Y-7962088D01*
X13830252Y-7980126D01*
X13806419Y-7986161D01*
X11734464Y-12524872D02*
X11708857Y-12523380D01*
X11684009Y-12519390D01*
X11648434Y-12509000D01*
X11615271Y-12493706D01*
X11584941Y-12473934D01*
X11557866Y-12450113D01*
X11534468Y-12422673D01*
X11515169Y-12392040D01*
X11500390Y-12358644D01*
X11490554Y-12322912D01*
X11486950Y-12298005D01*
X11485855Y-12272378D01*
X4642528Y-4370089D02*
X4623194Y-4392522D01*
X4607510Y-4417332D01*
X4595661Y-4444075D01*
X4587828Y-4472310D01*
X4584195Y-4501593D01*
X4583949Y-4511510D01*
X24045016Y-12590259D02*
X24527867Y-12107418D01*
X13856419Y-6636161D02*
X13856419Y-7936161D01*
X10046380Y-8541159D02*
X10046380Y-9841159D01*
X21028939Y-4731157D02*
X21036178Y-4705231D01*
X21055106Y-4687192D01*
X21078939Y-4681157D01*
X6236440Y-7936161D02*
X6229201Y-7962088D01*
X6210273Y-7980126D01*
X6186440Y-7986161D01*
X6186440Y-7986161D02*
X4886440Y-7986161D01*
X4836489Y-10446161D02*
X4843728Y-10420234D01*
X4862656Y-10402195D01*
X4886489Y-10396161D01*
X22378889Y-7986161D02*
X21078889Y-7986161D01*
X13856469Y-4731157D02*
X13856469Y-6031157D01*
X11485847Y-12222379D02*
X11493086Y-12196452D01*
X11512014Y-12178414D01*
X11535847Y-12172379D01*
X16663910Y-6586161D02*
X16689837Y-6593400D01*
X16707875Y-6612328D01*
X16713910Y-6636161D01*
X6474589Y-10446161D02*
X6474589Y-11746161D01*
X12027689Y-10672879D02*
X12053616Y-10680118D01*
X12071655Y-10699046D01*
X12077689Y-10722879D01*
X21028889Y-6636161D02*
X21036128Y-6610234D01*
X21055056Y-6592196D01*
X21078889Y-6586161D01*
X11901469Y-6081157D02*
X10601469Y-6081157D01*
X16713910Y-7936161D02*
X16706671Y-7962088D01*
X16687743Y-7980126D01*
X16663910Y-7986161D01*
X18033991Y-12122379D02*
X18026753Y-12148306D01*
X18007824Y-12166344D01*
X17983991Y-12172379D01*
X19123900Y-9841159D02*
X19123900Y-8541159D01*
X4836440Y-6636161D02*
X4843679Y-6610234D01*
X4862607Y-6592196D01*
X4886440Y-6586161D01*
X22378949Y-11796157D02*
X21078949Y-11796157D01*
X13806469Y-6081157D02*
X12506469Y-6081157D01*
X22933939Y-8541159D02*
X22941177Y-8515233D01*
X22960106Y-8497194D01*
X22983939Y-8491159D01*
X22428949Y-10446157D02*
X22428949Y-11746157D01*
X12456419Y-7936161D02*
X12456419Y-6636161D01*
X19123900Y-8541159D02*
X19131138Y-8515233D01*
X19150067Y-8497194D01*
X19173900Y-8491159D01*
X15363959Y-6081157D02*
X15338033Y-6073919D01*
X15319994Y-6054990D01*
X15313959Y-6031157D01*
X16663910Y-7986161D02*
X15363910Y-7986161D01*
X12077689Y-10822379D02*
X12084928Y-10848306D01*
X12103856Y-10866345D01*
X12127689Y-10872379D01*
X4836489Y-11746161D02*
X4836489Y-10446161D01*
X12506419Y-6586161D02*
X13806419Y-6586161D01*
X6791419Y-8491159D02*
X8091419Y-8491159D01*
X10551419Y-7936161D02*
X10551419Y-6636161D01*
X8141419Y-8541159D02*
X8141419Y-9841159D01*
X11485855Y-12272378D02*
X11485847Y-12222379D01*
X19123949Y-10446157D02*
X19131188Y-10420231D01*
X19150116Y-10402192D01*
X19173949Y-10396157D01*
X24333939Y-9841159D02*
X24326700Y-9867086D01*
X24307772Y-9885125D01*
X24283939Y-9891159D01*
X22296107Y-4428672D02*
X6906792Y-4428668D01*
X15790189Y-12222379D02*
X15790189Y-10922379D01*
X6424589Y-11796161D02*
X4886489Y-11796161D01*
X16713959Y-8541159D02*
X16713959Y-9841159D01*
X8646380Y-7936161D02*
X8646380Y-6636161D01*
X11186389Y-10672379D02*
X12027689Y-10672379D01*
X18641021Y-12298672D02*
X18642312Y-12273111D01*
X18646100Y-12248288D01*
X18656191Y-12212713D01*
X18671195Y-12179507D01*
X18690688Y-12149093D01*
X18714245Y-12121895D01*
X18741443Y-12098338D01*
X18771857Y-12078846D01*
X18805063Y-12063842D01*
X18840638Y-12053751D01*
X18865460Y-12049963D01*
X18891022Y-12048672D01*
X6789856Y-11796198D02*
X6763929Y-11788959D01*
X6745891Y-11770031D01*
X6739856Y-11746198D01*
X20523949Y-10446157D02*
X20523949Y-11746157D01*
X8646430Y-4731157D02*
X8653668Y-4705231D01*
X8672597Y-4687192D01*
X8696430Y-4681157D01*
X4886440Y-7986161D02*
X4860513Y-7978923D01*
X4842475Y-7959994D01*
X4836440Y-7936161D01*
X12506419Y-9891159D02*
X12480492Y-9883921D01*
X12462454Y-9864992D01*
X12456419Y-9841159D01*
X22920375Y-3887246D02*
X22437528Y-4370093D01*
X6474589Y-11746161D02*
X6467351Y-11772087D01*
X6448422Y-11790126D01*
X6424589Y-11796161D01*
X6186489Y-4681157D02*
X6212416Y-4688396D01*
X6230455Y-4707324D01*
X6236489Y-4731157D01*
X22933889Y-7936161D02*
X22933889Y-6636161D01*
X8696380Y-8491159D02*
X9996380Y-8491159D01*
X4836440Y-7936161D02*
X4836440Y-6636161D01*
X6741419Y-6636161D02*
X6748658Y-6610234D01*
X6767586Y-6592196D01*
X6791419Y-6586161D01*
X18568939Y-8491159D02*
X18594866Y-8498398D01*
X18612904Y-8517326D01*
X18618939Y-8541159D01*
X22933889Y-6636161D02*
X22941128Y-6610234D01*
X22960056Y-6592196D01*
X22983889Y-6586161D01*
X22378939Y-8491159D02*
X22404866Y-8498398D01*
X22422904Y-8517326D01*
X22428939Y-8541159D01*
X10759256Y-11746198D02*
X10752017Y-11772125D01*
X10733089Y-11790163D01*
X10709256Y-11796198D01*
X8141419Y-9841159D02*
X8134181Y-9867086D01*
X8115252Y-9885125D01*
X8091419Y-9891159D01*
X11901419Y-9891159D02*
X10601419Y-9891159D01*
X11901419Y-7986161D02*
X10601419Y-7986161D01*
X22428939Y-8541159D02*
X22428939Y-9841159D01*
X19123850Y-7936161D02*
X19123850Y-6636161D01*
X19173900Y-6081157D02*
X19147973Y-6073919D01*
X19129934Y-6054990D01*
X19123900Y-6031157D01*
X6424589Y-10396161D02*
X6450516Y-10403399D01*
X6468555Y-10422328D01*
X6474589Y-10446161D01*
X4886489Y-10396161D02*
X6424589Y-10396161D01*
X5125325Y-12590061D02*
X5147758Y-12609395D01*
X5172568Y-12625079D01*
X5199311Y-12636929D01*
X5227545Y-12644762D01*
X5256828Y-12648395D01*
X5266746Y-12648641D01*
X17268939Y-4681157D02*
X18568939Y-4681157D01*
X13523999Y-10722422D02*
X13531238Y-10696495D01*
X13550166Y-10678457D01*
X13573999Y-10672422D01*
X13806419Y-9891159D02*
X12506419Y-9891159D01*
X15363910Y-6586161D02*
X16663910Y-6586161D01*
X21078949Y-10396157D02*
X22378949Y-10396157D01*
X6282482Y-12590073D02*
X6765331Y-12107235D01*
X13806419Y-7986161D02*
X12506419Y-7986161D01*
X18618939Y-9841159D02*
X18611700Y-9867086D01*
X18592772Y-9885125D01*
X18568939Y-9891159D01*
X22933939Y-4731157D02*
X22941177Y-4705231D01*
X22960106Y-4687192D01*
X22983939Y-4681157D01*
X17218889Y-7936161D02*
X17218889Y-6636161D01*
X10601419Y-6586161D02*
X11901419Y-6586161D01*
X24586448Y-11965997D02*
X24586487Y-4511514D01*
X6236489Y-6031157D02*
X6229251Y-6057084D01*
X6210322Y-6075123D01*
X6186489Y-6081157D01*
X15235188Y-12272379D02*
X15261115Y-12265141D01*
X15279154Y-12246212D01*
X15285188Y-12222379D01*
X17042699Y-10872422D02*
X17068626Y-10865184D01*
X17086664Y-10846255D01*
X17092699Y-10822422D01*
X14223988Y-10822380D02*
X14223988Y-10722379D01*
X6791419Y-6586161D02*
X8091419Y-6586161D01*
X18568889Y-6586161D02*
X18594816Y-6593400D01*
X18612855Y-6612328D01*
X18618889Y-6636161D01*
X4836489Y-4731157D02*
X4843728Y-4705231D01*
X4862656Y-4687192D01*
X4886489Y-4681157D01*
X22378939Y-6081157D02*
X21078939Y-6081157D01*
X20523900Y-4731157D02*
X20523900Y-6031157D01*
X24283939Y-6081157D02*
X22983939Y-6081157D01*
X15646388Y-12122379D02*
X15646388Y-10722379D01*
X15313959Y-9841159D02*
X15313959Y-8541159D01*
X17378289Y-12272379D02*
X15840189Y-12272379D01*
X12077689Y-10722879D02*
X12077689Y-10822379D01*
X5830803Y-12348857D02*
G75*
G03*
X5830803Y-12348857I-135000J0D01*
G01*
X6741469Y-4731157D02*
X6748707Y-4705231D01*
X6767636Y-4687192D01*
X6791469Y-4681157D01*
X4886489Y-4681157D02*
X6186489Y-4681157D01*
X22428949Y-11746157D02*
X22421710Y-11772084D01*
X22402782Y-11790123D01*
X22378949Y-11796157D01*
X16663959Y-8491159D02*
X16689886Y-8498398D01*
X16707925Y-8517326D01*
X16713959Y-8541159D01*
X17092699Y-10722922D02*
X17099938Y-10696995D01*
X17118866Y-10678957D01*
X17142699Y-10672922D01*
X11086389Y-12048629D02*
X11112316Y-12041390D01*
X11130355Y-12022462D01*
X11136389Y-11998629D01*
X21078939Y-6081157D02*
X21053012Y-6073919D01*
X21034974Y-6054990D01*
X21028939Y-6031157D01*
X8091419Y-8491159D02*
X8117346Y-8498398D01*
X8135384Y-8517326D01*
X8141419Y-8541159D01*
X18568939Y-6081157D02*
X17268939Y-6081157D01*
X10551419Y-8541159D02*
X10558658Y-8515233D01*
X10577586Y-8497194D01*
X10601419Y-8491159D01*
X11951469Y-4731157D02*
X11951469Y-6031157D01*
X22983889Y-6586161D02*
X24283889Y-6586161D01*
X22295927Y-12048677D02*
X22325461Y-12050869D01*
X22354095Y-12057323D01*
X22381384Y-12067854D01*
X22406888Y-12082280D01*
X22430163Y-12100418D01*
X22437349Y-12107257D01*
X15285188Y-12222379D02*
X15292427Y-12196452D01*
X15311355Y-12178414D01*
X15335188Y-12172379D01*
X20523900Y-8541159D02*
X20523900Y-9841159D01*
X12127689Y-10872379D02*
X13473990Y-10872379D01*
X12456469Y-4731157D02*
X12463707Y-4705231D01*
X12482636Y-4687192D01*
X12506469Y-4681157D01*
X18641021Y-12298675D02*
X18641021Y-12298672D01*
X12456419Y-6636161D02*
X12463658Y-6610234D01*
X12482586Y-6592196D01*
X12506419Y-6586161D01*
X19173900Y-9891159D02*
X19147973Y-9883921D01*
X19129934Y-9864992D01*
X19123900Y-9841159D01*
X6741469Y-6031157D02*
X6741469Y-4731157D01*
X6141060Y-12648650D02*
X6170594Y-12646459D01*
X6199228Y-12640006D01*
X6226517Y-12629475D01*
X6252021Y-12615049D01*
X6275296Y-12596912D01*
X6282482Y-12590073D01*
X22983910Y-11796157D02*
X22957983Y-11788919D01*
X22939945Y-11769990D01*
X22933910Y-11746157D01*
X21028939Y-6031157D02*
X21028939Y-4731157D01*
X16713959Y-4731157D02*
X16713959Y-6031157D01*
X10601419Y-8491159D02*
X11901419Y-8491159D01*
X24333910Y-11746157D02*
X24326671Y-11772084D01*
X24307743Y-11790123D01*
X24283910Y-11796157D01*
X12506419Y-8491159D02*
X13806419Y-8491159D01*
X6186489Y-6081157D02*
X4886489Y-6081157D01*
X15313959Y-6031157D02*
X15313959Y-4731157D01*
X6789856Y-10396198D02*
X10709256Y-10396198D01*
X15313959Y-8541159D02*
X15321198Y-8515233D01*
X15340126Y-8497194D01*
X15363959Y-8491159D01*
X19173900Y-4681157D02*
X20473900Y-4681157D01*
X21078939Y-9891159D02*
X21053012Y-9883921D01*
X21034974Y-9864992D01*
X21028939Y-9841159D01*
X20473900Y-8491159D02*
X20499827Y-8498398D01*
X20517865Y-8517326D01*
X20523900Y-8541159D01*
X12456419Y-8541159D02*
X12463658Y-8515233D01*
X12482586Y-8497194D01*
X12506419Y-8491159D01*
X9996380Y-8491159D02*
X10022307Y-8498398D01*
X10040345Y-8517326D01*
X10046380Y-8541159D01*
X6236489Y-4731157D02*
X6236489Y-6031157D01*
X6141107Y-3828667D02*
X5266792Y-3828667D01*
X15840189Y-10872379D02*
X17042699Y-10872422D01*
X8646380Y-8541159D02*
X8653619Y-8515233D01*
X8672547Y-8497194D01*
X8696380Y-8491159D01*
X17268889Y-7986161D02*
X17242963Y-7978923D01*
X17224924Y-7959994D01*
X17218889Y-7936161D01*
X23609572Y-4128669D02*
G75*
G03*
X23609572Y-4128669I-135000J0D01*
G01*
X15596388Y-10672379D02*
X14996388Y-10672379D01*
X13856419Y-8541159D02*
X13856419Y-9841159D01*
X15363959Y-8491159D02*
X16663959Y-8491159D01*
X22933939Y-6031157D02*
X22933939Y-4731157D01*
X15313959Y-4731157D02*
X15321198Y-4705231D01*
X15340126Y-4687192D01*
X15363959Y-4681157D01*
X6741419Y-7936161D02*
X6741419Y-6636161D01*
X6186440Y-9891159D02*
X4886440Y-9891159D01*
X18414849Y-12524844D02*
X18449292Y-12522238D01*
X18482105Y-12514676D01*
X18512903Y-12502542D01*
X18541303Y-12486218D01*
X18566921Y-12466090D01*
X18589373Y-12442540D01*
X18608276Y-12415952D01*
X18623247Y-12386711D01*
X18633900Y-12355198D01*
X18639853Y-12321800D01*
X18641021Y-12298675D01*
X15790189Y-10922379D02*
X15797428Y-10896452D01*
X15816356Y-10878414D01*
X15840189Y-10872379D01*
X17983991Y-10672379D02*
X18009918Y-10679618D01*
X18027957Y-10698546D01*
X18033991Y-10722379D01*
X8696430Y-6081157D02*
X8670503Y-6073919D01*
X8652464Y-6054990D01*
X8646430Y-6031157D01*
X9996380Y-6586161D02*
X10022307Y-6593400D01*
X10040345Y-6612328D01*
X10046380Y-6636161D01*
D11*
X4832186Y-12972821D02*
X4832186Y-12772821D01*
X4832186Y-12772821D02*
X4879805Y-12772821D01*
X4879805Y-12772821D02*
X4908377Y-12782344D01*
X4908377Y-12782344D02*
X4927425Y-12801392D01*
X4927425Y-12801392D02*
X4936948Y-12820440D01*
X4936948Y-12820440D02*
X4946472Y-12858535D01*
X4946472Y-12858535D02*
X4946472Y-12887106D01*
X4946472Y-12887106D02*
X4936948Y-12925201D01*
X4936948Y-12925201D02*
X4927425Y-12944249D01*
X4927425Y-12944249D02*
X4908377Y-12963297D01*
X4908377Y-12963297D02*
X4879805Y-12972821D01*
X4879805Y-12972821D02*
X4832186Y-12972821D01*
X5032186Y-12972821D02*
X5032186Y-12839487D01*
X5032186Y-12877582D02*
X5041710Y-12858535D01*
X5041710Y-12858535D02*
X5051234Y-12849011D01*
X5051234Y-12849011D02*
X5070282Y-12839487D01*
X5070282Y-12839487D02*
X5089329Y-12839487D01*
X5155996Y-12972821D02*
X5155996Y-12839487D01*
X5155996Y-12772821D02*
X5146472Y-12782344D01*
X5146472Y-12782344D02*
X5155996Y-12791868D01*
X5155996Y-12791868D02*
X5165520Y-12782344D01*
X5165520Y-12782344D02*
X5155996Y-12772821D01*
X5155996Y-12772821D02*
X5155996Y-12791868D01*
X5279805Y-12972821D02*
X5260758Y-12963297D01*
X5260758Y-12963297D02*
X5251234Y-12944249D01*
X5251234Y-12944249D02*
X5251234Y-12772821D01*
X5384567Y-12972821D02*
X5365520Y-12963297D01*
X5365520Y-12963297D02*
X5355996Y-12944249D01*
X5355996Y-12944249D02*
X5355996Y-12772821D01*
X5613139Y-12972821D02*
X5613139Y-12772821D01*
X5613139Y-12772821D02*
X5679805Y-12915678D01*
X5679805Y-12915678D02*
X5746472Y-12772821D01*
X5746472Y-12772821D02*
X5746472Y-12972821D01*
X5927424Y-12972821D02*
X5927424Y-12868059D01*
X5927424Y-12868059D02*
X5917901Y-12849011D01*
X5917901Y-12849011D02*
X5898853Y-12839487D01*
X5898853Y-12839487D02*
X5860758Y-12839487D01*
X5860758Y-12839487D02*
X5841710Y-12849011D01*
X5927424Y-12963297D02*
X5908377Y-12972821D01*
X5908377Y-12972821D02*
X5860758Y-12972821D01*
X5860758Y-12972821D02*
X5841710Y-12963297D01*
X5841710Y-12963297D02*
X5832186Y-12944249D01*
X5832186Y-12944249D02*
X5832186Y-12925201D01*
X5832186Y-12925201D02*
X5841710Y-12906154D01*
X5841710Y-12906154D02*
X5860758Y-12896630D01*
X5860758Y-12896630D02*
X5908377Y-12896630D01*
X5908377Y-12896630D02*
X5927424Y-12887106D01*
X6022663Y-12839487D02*
X6022663Y-13039487D01*
X6022663Y-12849011D02*
X6041710Y-12839487D01*
X6041710Y-12839487D02*
X6079805Y-12839487D01*
X6079805Y-12839487D02*
X6098853Y-12849011D01*
X6098853Y-12849011D02*
X6108377Y-12858535D01*
X6108377Y-12858535D02*
X6117901Y-12877582D01*
X6117901Y-12877582D02*
X6117901Y-12934725D01*
X6117901Y-12934725D02*
X6108377Y-12953773D01*
X6108377Y-12953773D02*
X6098853Y-12963297D01*
X6098853Y-12963297D02*
X6079805Y-12972821D01*
X6079805Y-12972821D02*
X6041710Y-12972821D01*
X6041710Y-12972821D02*
X6022663Y-12963297D01*
X6203615Y-12953773D02*
X6213139Y-12963297D01*
X6213139Y-12963297D02*
X6203615Y-12972821D01*
X6203615Y-12972821D02*
X6194091Y-12963297D01*
X6194091Y-12963297D02*
X6203615Y-12953773D01*
X6203615Y-12953773D02*
X6203615Y-12972821D01*
X6203615Y-12849011D02*
X6213139Y-12858535D01*
X6213139Y-12858535D02*
X6203615Y-12868059D01*
X6203615Y-12868059D02*
X6194091Y-12858535D01*
X6194091Y-12858535D02*
X6203615Y-12849011D01*
X6203615Y-12849011D02*
X6203615Y-12868059D01*
M02*
