%TF.GenerationSoftware,KiCad,Pcbnew,7.0.6*%
%TF.CreationDate,2023-10-08T00:22:19-04:00*%
%TF.ProjectId,ortho-fr4-plate,6f727468-6f2d-4667-9234-2d706c617465,rev?*%
%TF.SameCoordinates,Original*%
%TF.FileFunction,Profile,NP*%
%FSLAX46Y46*%
G04 Gerber Fmt 4.6, Leading zero omitted, Abs format (unit mm)*
G04 Created by KiCad (PCBNEW 7.0.6) date 2023-10-08 00:22:19*
%MOMM*%
%LPD*%
G01*
G04 APERTURE LIST*
%ADD10C,0.250000*%
%TA.AperFunction,Profile*%
%ADD11C,0.250000*%
%TD*%
G04 APERTURE END LIST*
D10*
X119014193Y-84911594D02*
X119273461Y-84983980D01*
X119453845Y-85173264D01*
X119514193Y-85411594D01*
D11*
X48864399Y-84911594D02*
X61864399Y-84911594D01*
D10*
X229839389Y-98911594D02*
X229580120Y-98839207D01*
X229399736Y-98649923D01*
X229339389Y-98411594D01*
X119514688Y-60311574D02*
X119442301Y-60570842D01*
X119253017Y-60751226D01*
X119014688Y-60811574D01*
D11*
X186189389Y-85411594D02*
X186189389Y-98411594D01*
X80914193Y-79861613D02*
X67914193Y-79861613D01*
X62364399Y-66361613D02*
X62364399Y-79361613D01*
X148963879Y-108723793D02*
X142739884Y-108723796D01*
D10*
X119014688Y-46811574D02*
X119273956Y-46883960D01*
X119454340Y-47073244D01*
X119514688Y-47311574D01*
X158401894Y-122723793D02*
X158142625Y-122651406D01*
X157962241Y-122462122D01*
X157901894Y-122223793D01*
X186189389Y-60311574D02*
X186117002Y-60570842D01*
X185927718Y-60751226D01*
X185689389Y-60811574D01*
X67653312Y-121072346D02*
X67873917Y-120881779D01*
X68117665Y-120726515D01*
X68380343Y-120608329D01*
X68657737Y-120528995D01*
X68945635Y-120490288D01*
X69043207Y-120486722D01*
X62364399Y-98411594D02*
X62292012Y-98670862D01*
X62102728Y-98851246D01*
X61864399Y-98911594D01*
X67414193Y-85411594D02*
X67486579Y-85152325D01*
X67675863Y-84971941D01*
X67914193Y-84911594D01*
X172689389Y-60811574D02*
X172430120Y-60739187D01*
X172249736Y-60549903D01*
X172189389Y-60311574D01*
D11*
X80914688Y-60811574D02*
X67914689Y-60811574D01*
X210788894Y-65861613D02*
X223788894Y-65861613D01*
D10*
X117372112Y-125248780D02*
X117344643Y-125248718D01*
X106014193Y-98911594D02*
X105754924Y-98839207D01*
X105574540Y-98649923D01*
X105514193Y-98411594D01*
X224288894Y-79361613D02*
X224216507Y-79620881D01*
X224027223Y-79801265D01*
X223788894Y-79861613D01*
D11*
X67398561Y-117461979D02*
X67398561Y-104461979D01*
D10*
X86963800Y-79861613D02*
X86704531Y-79789226D01*
X86524147Y-79599942D01*
X86463800Y-79361613D01*
X138064193Y-65861613D02*
X138323461Y-65933999D01*
X138503845Y-66123283D01*
X138564193Y-66361613D01*
D11*
X86964296Y-46811574D02*
X99964296Y-46811574D01*
X223789389Y-98911594D02*
X210789389Y-98911594D01*
D10*
X153639099Y-79861613D02*
X153379830Y-79789226D01*
X153199446Y-79599942D01*
X153139099Y-79361613D01*
D11*
X107092561Y-117961979D02*
X67898561Y-117961979D01*
X141739884Y-106723793D02*
X135739884Y-106723793D01*
D10*
X167139595Y-60311574D02*
X167067208Y-60570842D01*
X166877924Y-60751226D01*
X166639595Y-60811574D01*
D11*
X171426992Y-106729222D02*
X179839914Y-106723793D01*
D10*
X125064193Y-79861613D02*
X124804924Y-79789226D01*
X124624540Y-79599942D01*
X124564193Y-79361613D01*
X223789492Y-103961574D02*
X224048760Y-104033960D01*
X224229144Y-104223244D01*
X224289492Y-104461574D01*
X229339099Y-104461574D02*
X229411485Y-104202305D01*
X229600769Y-104021921D01*
X229839099Y-103961574D01*
D11*
X210789389Y-84911594D02*
X223789389Y-84911594D01*
X191238997Y-60311574D02*
X191238997Y-47311574D01*
X229839099Y-103961574D02*
X242839099Y-103961574D01*
D10*
X134739894Y-108723796D02*
X134999162Y-108651409D01*
X135179546Y-108462125D01*
X135239894Y-108223796D01*
D11*
X86963800Y-65861613D02*
X99963800Y-65861613D01*
X242838894Y-79861613D02*
X229838894Y-79861613D01*
D10*
X67398561Y-104461979D02*
X67470947Y-104202710D01*
X67660231Y-104022326D01*
X67898561Y-103961979D01*
D11*
X185688894Y-79861613D02*
X172688894Y-79861613D01*
D10*
X99964296Y-46811574D02*
X100223564Y-46883960D01*
X100403948Y-47073244D01*
X100464296Y-47311574D01*
X61864399Y-65861613D02*
X62123667Y-65933999D01*
X62304051Y-66123283D01*
X62364399Y-66361613D01*
D11*
X52667457Y-126486411D02*
X61410605Y-126486503D01*
D10*
X138064688Y-46811574D02*
X138323956Y-46883960D01*
X138504340Y-47073244D01*
X138564688Y-47311574D01*
D11*
X100463800Y-66361613D02*
X100463800Y-79361613D01*
X180339914Y-107223793D02*
X180339914Y-121223793D01*
X69043207Y-120486722D02*
X110863894Y-120486289D01*
X204738997Y-98911594D02*
X191738997Y-98911594D01*
X172688894Y-65861613D02*
X185688894Y-65861613D01*
X210289492Y-117461574D02*
X210289492Y-104461574D01*
X243339389Y-47311574D02*
X243339389Y-60311574D01*
D10*
X172189389Y-47311574D02*
X172261775Y-47052305D01*
X172451059Y-46871921D01*
X172689389Y-46811574D01*
X149963879Y-106723793D02*
X149704610Y-106796179D01*
X149524226Y-106985463D01*
X149463879Y-107223793D01*
D11*
X229839389Y-46811574D02*
X242839389Y-46811574D01*
X188910215Y-120486722D02*
X222959269Y-120486773D01*
D10*
X210289389Y-85411594D02*
X210361775Y-85152325D01*
X210551059Y-84971941D01*
X210789389Y-84911594D01*
D11*
X125064689Y-46811574D02*
X138064688Y-46811574D01*
X245279081Y-43700921D02*
X240450621Y-38872461D01*
D10*
X204738997Y-46811574D02*
X204998265Y-46883960D01*
X205178649Y-47073244D01*
X205238997Y-47311574D01*
D11*
X45839492Y-82265449D02*
X45839101Y-119657913D01*
X205238501Y-66361613D02*
X205238501Y-79361613D01*
D10*
X223788894Y-65861613D02*
X224048162Y-65933999D01*
X224228546Y-66123283D01*
X224288894Y-66361613D01*
X155963879Y-121723793D02*
X156223147Y-121651406D01*
X156403531Y-121462122D01*
X156463879Y-121223793D01*
D11*
X172689389Y-84911594D02*
X185689389Y-84911594D01*
D10*
X242839389Y-46811574D02*
X243098657Y-46883960D01*
X243279041Y-47073244D01*
X243339389Y-47311574D01*
X105514689Y-47311574D02*
X105587075Y-47052305D01*
X105776359Y-46871921D01*
X106014689Y-46811574D01*
D11*
X81414688Y-47311574D02*
X81414688Y-60311574D01*
X210789389Y-46811574D02*
X223789389Y-46811574D01*
X229839389Y-84911594D02*
X242839389Y-84911594D01*
X99963800Y-79861613D02*
X86963800Y-79861613D01*
D10*
X119014193Y-65861613D02*
X119273461Y-65933999D01*
X119453845Y-66123283D01*
X119514193Y-66361613D01*
X243338894Y-79361613D02*
X243266507Y-79620881D01*
X243077223Y-79801265D01*
X242838894Y-79861613D01*
D11*
X111363894Y-107223793D02*
X111363894Y-119986289D01*
D10*
X172189389Y-85411594D02*
X172261775Y-85152325D01*
X172451059Y-84971941D01*
X172689389Y-84911594D01*
X80914193Y-65861613D02*
X81173461Y-65933999D01*
X81353845Y-66123283D01*
X81414193Y-66361613D01*
X174282894Y-122223793D02*
X174210507Y-122483061D01*
X174021223Y-122663445D01*
X173782894Y-122723793D01*
D11*
X191239492Y-117461574D02*
X191239492Y-104461574D01*
D10*
X48864894Y-60811574D02*
X48605625Y-60739187D01*
X48425241Y-60549903D01*
X48364894Y-60311574D01*
D11*
X191738997Y-84911594D02*
X204738997Y-84911594D01*
D10*
X142239884Y-107223793D02*
X142167497Y-106964524D01*
X141978213Y-106784140D01*
X141739884Y-106723793D01*
D11*
X239036407Y-38286675D02*
X230617961Y-38286675D01*
D10*
X210289492Y-104461574D02*
X210361878Y-104202305D01*
X210551162Y-104021921D01*
X210789492Y-103961574D01*
X61864399Y-84911594D02*
X62123667Y-84983980D01*
X62304051Y-85173264D01*
X62364399Y-85411594D01*
D11*
X243339389Y-85411594D02*
X243339389Y-98411594D01*
D10*
X100464296Y-60311574D02*
X100391909Y-60570842D01*
X100202625Y-60751226D01*
X99964296Y-60811574D01*
D11*
X58308033Y-41286675D02*
G75*
G03*
X58308033Y-41286675I-1350000J0D01*
G01*
D10*
X205238997Y-98411594D02*
X205166610Y-98670862D01*
X204977326Y-98851246D01*
X204738997Y-98911594D01*
X229839389Y-60811574D02*
X229580120Y-60739187D01*
X229399736Y-60549903D01*
X229339389Y-60311574D01*
D11*
X107592561Y-104461979D02*
X107592561Y-117461979D01*
X120276894Y-106723793D02*
X120276894Y-106728793D01*
X124564193Y-98411594D02*
X124564193Y-85411594D01*
X204738997Y-60811574D02*
X191738997Y-60811574D01*
D10*
X229203292Y-125902473D02*
X229427625Y-126095813D01*
X229675721Y-126252651D01*
X229943154Y-126371153D01*
X230225497Y-126449485D01*
X230518325Y-126485815D01*
X230617500Y-126488274D01*
X45839101Y-119657913D02*
X45861016Y-119953252D01*
X45925545Y-120239584D01*
X46030855Y-120512481D01*
X46175113Y-120767517D01*
X46356484Y-121000266D01*
X46424873Y-121072132D01*
D11*
X51253705Y-38872461D02*
X46425278Y-43700888D01*
D10*
X100463800Y-79361613D02*
X100391413Y-79620881D01*
X100202129Y-79801265D01*
X99963800Y-79861613D01*
D11*
X135239992Y-108223798D02*
X135239992Y-107224222D01*
X153639595Y-46811574D02*
X166639595Y-46811574D01*
D10*
X138564193Y-98411594D02*
X138491806Y-98670862D01*
X138302522Y-98851246D01*
X138064193Y-98911594D01*
D11*
X48364894Y-60311574D02*
X48364894Y-47311574D01*
X48864399Y-65861613D02*
X61864399Y-65861613D01*
D10*
X185689389Y-46811574D02*
X185948657Y-46883960D01*
X186129041Y-47073244D01*
X186189389Y-47311574D01*
X48864399Y-98911594D02*
X48605130Y-98839207D01*
X48424746Y-98649923D01*
X48364399Y-98411594D01*
D11*
X229339389Y-98411594D02*
X229339389Y-85411594D01*
D10*
X242839099Y-103961574D02*
X243098367Y-104033960D01*
X243278751Y-104223244D01*
X243339099Y-104461574D01*
X191238501Y-66361613D02*
X191310887Y-66102344D01*
X191500171Y-65921960D01*
X191738501Y-65861613D01*
D11*
X48364399Y-98411594D02*
X48364399Y-85411594D01*
X242839389Y-98911594D02*
X229839389Y-98911594D01*
X153351884Y-121723793D02*
X155963879Y-121723793D01*
D10*
X230617961Y-38286675D02*
X230322621Y-38308593D01*
X230036290Y-38373125D01*
X229763395Y-38478438D01*
X229508360Y-38622698D01*
X229275612Y-38804072D01*
X229203748Y-38872461D01*
X224375279Y-43700930D02*
X224150943Y-43894268D01*
X223902846Y-44051103D01*
X223635412Y-44169602D01*
X223353067Y-44247932D01*
X223060239Y-44284259D01*
X222961065Y-44286717D01*
X156463879Y-107223793D02*
X156391492Y-106964524D01*
X156202208Y-106784140D01*
X155963879Y-106723793D01*
X142739884Y-108723796D02*
X142480615Y-108651409D01*
X142300231Y-108462125D01*
X142239884Y-108223796D01*
D11*
X166639595Y-98911594D02*
X153639595Y-98911594D01*
X62364399Y-85411594D02*
X62364399Y-98411594D01*
D10*
X106014689Y-60811574D02*
X105755420Y-60739187D01*
X105575036Y-60549903D01*
X105514689Y-60311574D01*
X191739492Y-117961574D02*
X191480223Y-117889187D01*
X191299839Y-117699903D01*
X191239492Y-117461574D01*
D11*
X117372115Y-125248445D02*
X184148489Y-125248445D01*
D10*
X240450621Y-38872461D02*
X240226285Y-38679123D01*
X239978188Y-38522288D01*
X239710754Y-38403789D01*
X239428409Y-38325459D01*
X239135581Y-38289132D01*
X239036407Y-38286675D01*
X205238501Y-79361613D02*
X205166114Y-79620881D01*
X204976830Y-79801265D01*
X204738501Y-79861613D01*
X210789492Y-117961574D02*
X210530223Y-117889187D01*
X210349839Y-117699903D01*
X210289492Y-117461574D01*
X204738501Y-65861613D02*
X204997769Y-65933999D01*
X205178153Y-66123283D01*
X205238501Y-66361613D01*
X119801884Y-122223793D02*
X119874270Y-122483061D01*
X120063554Y-122663445D01*
X120301884Y-122723793D01*
X174782894Y-121723793D02*
X174523625Y-121796179D01*
X174343241Y-121985463D01*
X174282894Y-122223793D01*
D11*
X119514193Y-66361613D02*
X119514193Y-79361613D01*
X204739492Y-117961574D02*
X191739492Y-117961574D01*
D10*
X52667919Y-38286675D02*
X52372579Y-38308593D01*
X52086248Y-38373125D01*
X51813352Y-38478438D01*
X51558317Y-38622698D01*
X51325569Y-38804072D01*
X51253705Y-38872461D01*
D11*
X243338894Y-66361613D02*
X243338894Y-79361613D01*
X204738501Y-79861613D02*
X191738501Y-79861613D01*
D10*
X172689389Y-98911594D02*
X172430120Y-98839207D01*
X172249736Y-98649923D01*
X172189389Y-98411594D01*
D11*
X210288894Y-79361613D02*
X210288894Y-66361613D01*
D10*
X69067921Y-44286675D02*
X68772581Y-44264756D01*
X68486251Y-44200224D01*
X68213355Y-44094911D01*
X67958320Y-43950651D01*
X67725572Y-43769276D01*
X67653708Y-43700888D01*
X119301894Y-121723793D02*
X119561162Y-121796179D01*
X119741546Y-121985463D01*
X119801894Y-122223793D01*
X191238997Y-47311574D02*
X191311383Y-47052305D01*
X191500667Y-46871921D01*
X191738997Y-46811574D01*
D11*
X236095722Y-123488300D02*
G75*
G03*
X236095722Y-123488300I-1350000J0D01*
G01*
D10*
X224289389Y-60311574D02*
X224217002Y-60570842D01*
X224027718Y-60751226D01*
X223789389Y-60811574D01*
D11*
X105514193Y-98411594D02*
X105514193Y-85411594D01*
X99964296Y-60811574D02*
X86964296Y-60811574D01*
X167139099Y-66361613D02*
X167139099Y-79361613D01*
D10*
X223789389Y-46811574D02*
X224048657Y-46883960D01*
X224229041Y-47073244D01*
X224289389Y-47311574D01*
D11*
X243339099Y-104461574D02*
X243339099Y-117461574D01*
D10*
X81414193Y-79361613D02*
X81341806Y-79620881D01*
X81152522Y-79801265D01*
X80914193Y-79861613D01*
D11*
X119514193Y-85411594D02*
X119514193Y-98411594D01*
D10*
X81414688Y-60311574D02*
X81342301Y-60570842D01*
X81153017Y-60751226D01*
X80914688Y-60811574D01*
X167139595Y-98411594D02*
X167067208Y-98670862D01*
X166877924Y-98851246D01*
X166639595Y-98911594D01*
D11*
X86464296Y-60311574D02*
X86464296Y-47311574D01*
X81414193Y-66361613D02*
X81414193Y-79361613D01*
X124564689Y-60311574D02*
X124564689Y-47311574D01*
D10*
X119514193Y-79361613D02*
X119441806Y-79620881D01*
X119252522Y-79801265D01*
X119014193Y-79861613D01*
X153139099Y-66361613D02*
X153211485Y-66102344D01*
X153400769Y-65921960D01*
X153639099Y-65861613D01*
X242838894Y-65861613D02*
X243098162Y-65933999D01*
X243278546Y-66123283D01*
X243338894Y-66361613D01*
D11*
X191739492Y-103961574D02*
X204739492Y-103961574D01*
X99963800Y-98911594D02*
X86963800Y-98911594D01*
D10*
X100463800Y-98411594D02*
X100391413Y-98670862D01*
X100202129Y-98851246D01*
X99963800Y-98911594D01*
X48364399Y-85411594D02*
X48436785Y-85152325D01*
X48626069Y-84971941D01*
X48864399Y-84911594D01*
D11*
X100464296Y-47311574D02*
X100464296Y-60311574D01*
X120301884Y-122723793D02*
X152351884Y-122723793D01*
X166639595Y-60811574D02*
X153639595Y-60811574D01*
D10*
X229838894Y-79861613D02*
X229579625Y-79789226D01*
X229399241Y-79599942D01*
X229338894Y-79361613D01*
X191738501Y-79861613D02*
X191479232Y-79789226D01*
X191298848Y-79599942D01*
X191238501Y-79361613D01*
D11*
X106014689Y-46811574D02*
X119014688Y-46811574D01*
D10*
X106014193Y-79861613D02*
X105754924Y-79789226D01*
X105574540Y-79599942D01*
X105514193Y-79361613D01*
X243339389Y-60311574D02*
X243267002Y-60570842D01*
X243077718Y-60751226D01*
X242839389Y-60811574D01*
D11*
X210289389Y-98411594D02*
X210289389Y-85411594D01*
X242839099Y-117961574D02*
X229839099Y-117961574D01*
D10*
X105514193Y-66361613D02*
X105586579Y-66102344D01*
X105775863Y-65921960D01*
X106014193Y-65861613D01*
X138564688Y-60311574D02*
X138492301Y-60570842D01*
X138303017Y-60751226D01*
X138064688Y-60811574D01*
D11*
X153139099Y-79361613D02*
X153139099Y-66361613D01*
X185689389Y-98911594D02*
X172689389Y-98911594D01*
X179839914Y-121723793D02*
X174782893Y-121723793D01*
D10*
X67914193Y-79861613D02*
X67654924Y-79789226D01*
X67474540Y-79599942D01*
X67414193Y-79361613D01*
D11*
X45839492Y-45115102D02*
X45839492Y-82265449D01*
X172189389Y-60311574D02*
X172189389Y-47311574D01*
X224373495Y-121072575D02*
X229203292Y-125902473D01*
D10*
X67914689Y-60811574D02*
X67655420Y-60739187D01*
X67475036Y-60549903D01*
X67414689Y-60311574D01*
D11*
X86463800Y-98411594D02*
X86463800Y-85411594D01*
D10*
X172188894Y-66361613D02*
X172261280Y-66102344D01*
X172450564Y-65921960D01*
X172688894Y-65861613D01*
X111863894Y-106723793D02*
X111604625Y-106796179D01*
X111424241Y-106985463D01*
X111363894Y-107223793D01*
X62825281Y-38872461D02*
X62600945Y-38679123D01*
X62352848Y-38522288D01*
X62085414Y-38403789D01*
X61803069Y-38325459D01*
X61510241Y-38289132D01*
X61411067Y-38286675D01*
D11*
X186188894Y-66361613D02*
X186188894Y-79361613D01*
X186189389Y-47311574D02*
X186189389Y-60311574D01*
D10*
X125064689Y-60811574D02*
X124805420Y-60739187D01*
X124625036Y-60549903D01*
X124564689Y-60311574D01*
D11*
X191738501Y-65861613D02*
X204738501Y-65861613D01*
D10*
X205239492Y-117461574D02*
X205167105Y-117720842D01*
X204977821Y-117901226D01*
X204739492Y-117961574D01*
X204739492Y-103961574D02*
X204998760Y-104033960D01*
X205179144Y-104223244D01*
X205239492Y-104461574D01*
X186188894Y-79361613D02*
X186116507Y-79620881D01*
X185927223Y-79801265D01*
X185688894Y-79861613D01*
X138064193Y-84911594D02*
X138323461Y-84983980D01*
X138503845Y-85173264D01*
X138564193Y-85411594D01*
X245864875Y-45115135D02*
X245842955Y-44819794D01*
X245778421Y-44533463D01*
X245673107Y-44260567D01*
X245528845Y-44005533D01*
X245347470Y-43772785D01*
X245279081Y-43700921D01*
D11*
X80914193Y-98911594D02*
X67914193Y-98911594D01*
X115358472Y-121723793D02*
X119301894Y-121723793D01*
D10*
X239035946Y-126488362D02*
X239331285Y-126466447D01*
X239617617Y-126401918D01*
X239890514Y-126296608D01*
X240145550Y-126152350D01*
X240378299Y-125970979D01*
X240450165Y-125902591D01*
D11*
X67914689Y-46811574D02*
X80914688Y-46811574D01*
X105514689Y-60311574D02*
X105514689Y-47311574D01*
X230617500Y-126488274D02*
X239035946Y-126488362D01*
D10*
X210788894Y-79861613D02*
X210529625Y-79789226D01*
X210349241Y-79599942D01*
X210288894Y-79361613D01*
X80914688Y-46811574D02*
X81173956Y-46883960D01*
X81354340Y-47073244D01*
X81414688Y-47311574D01*
D11*
X224289389Y-47311574D02*
X224289389Y-60311574D01*
X149463879Y-107223793D02*
X149463879Y-108223793D01*
D10*
X242839389Y-84911594D02*
X243098657Y-84983980D01*
X243279041Y-85173264D01*
X243339389Y-85411594D01*
D11*
X224288894Y-66361613D02*
X224288894Y-79361613D01*
D10*
X48864894Y-117961607D02*
X48605625Y-117889220D01*
X48425241Y-117699936D01*
X48364894Y-117461607D01*
X149463879Y-108223793D02*
X149391492Y-108483061D01*
X149202208Y-108663445D01*
X148963879Y-108723793D01*
D11*
X46424873Y-121072132D02*
X51253250Y-125900610D01*
D10*
X224289389Y-98411594D02*
X224217002Y-98670862D01*
X224027718Y-98851246D01*
X223789389Y-98911594D01*
X153639595Y-98911594D02*
X153380326Y-98839207D01*
X153199942Y-98649923D01*
X153139595Y-98411594D01*
D11*
X67414193Y-98411594D02*
X67414193Y-85411594D01*
D10*
X166639595Y-46811574D02*
X166898863Y-46883960D01*
X167079247Y-47073244D01*
X167139595Y-47311574D01*
X67914193Y-98911594D02*
X67654924Y-98839207D01*
X67474540Y-98649923D01*
X67414193Y-98411594D01*
X86963800Y-98911594D02*
X86704531Y-98839207D01*
X86524147Y-98649923D01*
X86463800Y-98411594D01*
D11*
X229339099Y-117461574D02*
X229339099Y-104461574D01*
D10*
X119514193Y-98411594D02*
X119441806Y-98670862D01*
X119252522Y-98851246D01*
X119014193Y-98911594D01*
X86463800Y-66361613D02*
X86536186Y-66102344D01*
X86725470Y-65921960D01*
X86963800Y-65861613D01*
X245278675Y-121074182D02*
X245472015Y-120849848D01*
X245628853Y-120601752D01*
X245747355Y-120334319D01*
X245825688Y-120051976D01*
X245862017Y-119759148D01*
X245864477Y-119659974D01*
D11*
X172189389Y-98411594D02*
X172189389Y-85411594D01*
X67653708Y-43700888D02*
X62825281Y-38872461D01*
D10*
X107092561Y-103961979D02*
X107351829Y-104034365D01*
X107532213Y-104223649D01*
X107592561Y-104461979D01*
X205238997Y-60311574D02*
X205166610Y-60570842D01*
X204977326Y-60751226D01*
X204738997Y-60811574D01*
D11*
X170926992Y-108224222D02*
X170926992Y-107229222D01*
D10*
X138564193Y-79361613D02*
X138491806Y-79620881D01*
X138302522Y-79801265D01*
X138064193Y-79861613D01*
X117344643Y-125248718D02*
X117088568Y-125233796D01*
X116840088Y-125193900D01*
X116484340Y-125090005D01*
X116152708Y-124937057D01*
X115849410Y-124739339D01*
X115578663Y-124501134D01*
X115344684Y-124226727D01*
X115151692Y-123920400D01*
X115003903Y-123586436D01*
X114905536Y-123229121D01*
X114869497Y-122980052D01*
X114858548Y-122723777D01*
X46425278Y-43700888D02*
X46231939Y-43925223D01*
X46075104Y-44173320D01*
X45956605Y-44440754D01*
X45878276Y-44723099D01*
X45841949Y-45015927D01*
X45839492Y-45115102D01*
D11*
X240450165Y-125902591D02*
X245278675Y-121074182D01*
X138564193Y-66361613D02*
X138564193Y-79361613D01*
X100463800Y-85411594D02*
X100463800Y-98411594D01*
D10*
X210289389Y-47311574D02*
X210361775Y-47052305D01*
X210551059Y-46871921D01*
X210789389Y-46811574D01*
X62364399Y-79361613D02*
X62292012Y-79620881D01*
X62102728Y-79801265D01*
X61864399Y-79861613D01*
D11*
X61864399Y-79861613D02*
X48864399Y-79861613D01*
D10*
X48364894Y-104461607D02*
X48437280Y-104202338D01*
X48626564Y-104021954D01*
X48864894Y-103961607D01*
D11*
X223788894Y-79861613D02*
X210788894Y-79861613D01*
X138564688Y-47311574D02*
X138564688Y-60311574D01*
D10*
X114858472Y-122223793D02*
X114930858Y-121964524D01*
X115120142Y-121784140D01*
X115358472Y-121723793D01*
X166639099Y-65861613D02*
X166898367Y-65933999D01*
X167078751Y-66123283D01*
X167139099Y-66361613D01*
D11*
X64745894Y-104461607D02*
X64745894Y-117461607D01*
D10*
X120276894Y-106728793D02*
X120536162Y-106801179D01*
X120716546Y-106990463D01*
X120776894Y-107228793D01*
X210288894Y-66361613D02*
X210361280Y-66102344D01*
X210550564Y-65921960D01*
X210788894Y-65861613D01*
D11*
X119014688Y-60811574D02*
X106014689Y-60811574D01*
D10*
X167139099Y-79361613D02*
X167066712Y-79620881D01*
X166877428Y-79801265D01*
X166639099Y-79861613D01*
X180339914Y-121223793D02*
X180267527Y-121483061D01*
X180078243Y-121663445D01*
X179839914Y-121723793D01*
D11*
X191238997Y-98411594D02*
X191238997Y-85411594D01*
D10*
X48364399Y-66361613D02*
X48436785Y-66102344D01*
X48626069Y-65921960D01*
X48864399Y-65861613D01*
D11*
X223789492Y-117961574D02*
X210789492Y-117961574D01*
X138064688Y-60811574D02*
X125064689Y-60811574D01*
D10*
X229339389Y-85411594D02*
X229411775Y-85152325D01*
X229601059Y-84971941D01*
X229839389Y-84911594D01*
D11*
X224289492Y-104461574D02*
X224289492Y-117461574D01*
X124564193Y-79361613D02*
X124564193Y-66361613D01*
D10*
X191238997Y-85411594D02*
X191311383Y-85152325D01*
X191500667Y-84971941D01*
X191738997Y-84911594D01*
X153639595Y-60811574D02*
X153380326Y-60739187D01*
X153199942Y-60549903D01*
X153139595Y-60311574D01*
D11*
X166639099Y-79861613D02*
X153639099Y-79861613D01*
D10*
X120776894Y-108223793D02*
X120849280Y-108483061D01*
X121038564Y-108663445D01*
X121276894Y-108723793D01*
D11*
X48364894Y-117461607D02*
X48364894Y-104461607D01*
X125064193Y-65861613D02*
X138064193Y-65861613D01*
X67914193Y-84911594D02*
X80914193Y-84911594D01*
X105514193Y-79361613D02*
X105514193Y-66361613D01*
X81414193Y-85411594D02*
X81414193Y-98411594D01*
X114858548Y-122723777D02*
X114858472Y-122223793D01*
D10*
X191239492Y-104461574D02*
X191311878Y-104202305D01*
X191501162Y-104021921D01*
X191739492Y-103961574D01*
X243339389Y-98411594D02*
X243267002Y-98670862D01*
X243077718Y-98851246D01*
X242839389Y-98911594D01*
D11*
X222961065Y-44286717D02*
X69067921Y-44286675D01*
X157901894Y-122223793D02*
X157901894Y-109223793D01*
X64245894Y-117961607D02*
X48864894Y-117961607D01*
X167139595Y-85411594D02*
X167139595Y-98411594D01*
X86463800Y-79361613D02*
X86463800Y-66361613D01*
X111863894Y-106723793D02*
X120276894Y-106723793D01*
D10*
X186410212Y-122986718D02*
X186423119Y-122731107D01*
X186461003Y-122482880D01*
X186561912Y-122127134D01*
X186711950Y-121795070D01*
X186906875Y-121490928D01*
X187142447Y-121218952D01*
X187414425Y-120983381D01*
X187718566Y-120788456D01*
X188050631Y-120638420D01*
X188406378Y-120537512D01*
X188654604Y-120499628D01*
X188910215Y-120486722D01*
X67898561Y-117961979D02*
X67639292Y-117889592D01*
X67458908Y-117700308D01*
X67398561Y-117461979D01*
D11*
X205239492Y-104461574D02*
X205239492Y-117461574D01*
D10*
X86464296Y-47311574D02*
X86536682Y-47052305D01*
X86725966Y-46871921D01*
X86964296Y-46811574D01*
X48864399Y-79861613D02*
X48605130Y-79789226D01*
X48424746Y-79599942D01*
X48364399Y-79361613D01*
X125064193Y-98911594D02*
X124804924Y-98839207D01*
X124624540Y-98649923D01*
X124564193Y-98411594D01*
D11*
X229203748Y-38872461D02*
X224375279Y-43700930D01*
D10*
X64745894Y-117461607D02*
X64673507Y-117720875D01*
X64484223Y-117901259D01*
X64245894Y-117961607D01*
X61864894Y-46811574D02*
X62124162Y-46883960D01*
X62304546Y-47073244D01*
X62364894Y-47311574D01*
D11*
X229338894Y-79361613D02*
X229338894Y-66361613D01*
X86963800Y-84911594D02*
X99963800Y-84911594D01*
X48364399Y-79361613D02*
X48364399Y-66361613D01*
D10*
X67414193Y-66361613D02*
X67486579Y-66102344D01*
X67675863Y-65921960D01*
X67914193Y-65861613D01*
X185689389Y-84911594D02*
X185948657Y-84983980D01*
X186129041Y-85173264D01*
X186189389Y-85411594D01*
X229338894Y-66361613D02*
X229411280Y-66102344D01*
X229600564Y-65921960D01*
X229838894Y-65861613D01*
X223789389Y-84911594D02*
X224048657Y-84983980D01*
X224229041Y-85173264D01*
X224289389Y-85411594D01*
X107592561Y-117461979D02*
X107520174Y-117721247D01*
X107330890Y-117901631D01*
X107092561Y-117961979D01*
X81414193Y-98411594D02*
X81341806Y-98670862D01*
X81152522Y-98851246D01*
X80914193Y-98911594D01*
D11*
X119014193Y-98911594D02*
X106014193Y-98911594D01*
X119014193Y-79861613D02*
X106014193Y-79861613D01*
X224289389Y-85411594D02*
X224289389Y-98411594D01*
X191238501Y-79361613D02*
X191238501Y-66361613D01*
D10*
X191738997Y-60811574D02*
X191479728Y-60739187D01*
X191299344Y-60549903D01*
X191238997Y-60311574D01*
X64245894Y-103961607D02*
X64505162Y-104033993D01*
X64685546Y-104223277D01*
X64745894Y-104461607D01*
D11*
X48864894Y-103961607D02*
X64245894Y-103961607D01*
D10*
X51253250Y-125900610D02*
X51477582Y-126093950D01*
X51725678Y-126250788D01*
X51993111Y-126369290D01*
X52275454Y-126447622D01*
X52568282Y-126483952D01*
X52667457Y-126486411D01*
D11*
X172689389Y-46811574D02*
X185689389Y-46811574D01*
D10*
X135239992Y-107224222D02*
X135312378Y-106964953D01*
X135501662Y-106784569D01*
X135739992Y-106724222D01*
D11*
X138064193Y-98911594D02*
X125064193Y-98911594D01*
X153639099Y-65861613D02*
X166639099Y-65861613D01*
X210789492Y-103961574D02*
X223789492Y-103961574D01*
X62824825Y-125900731D02*
X67653312Y-121072346D01*
X138064193Y-79861613D02*
X125064193Y-79861613D01*
D10*
X186189389Y-98411594D02*
X186117002Y-98670862D01*
X185927718Y-98851246D01*
X185689389Y-98911594D01*
X229339389Y-47311574D02*
X229411775Y-47052305D01*
X229601059Y-46871921D01*
X229839389Y-46811574D01*
D11*
X172188894Y-79361613D02*
X172188894Y-66361613D01*
X106014193Y-65861613D02*
X119014193Y-65861613D01*
X245864477Y-119659974D02*
X245864875Y-45115135D01*
D10*
X62364894Y-60311574D02*
X62292507Y-60570842D01*
X62103223Y-60751226D01*
X61864894Y-60811574D01*
X152351884Y-122723793D02*
X152611152Y-122651406D01*
X152791536Y-122462122D01*
X152851884Y-122223793D01*
X170426992Y-108724222D02*
X170686260Y-108651835D01*
X170866644Y-108462551D01*
X170926992Y-108224222D01*
D11*
X142239884Y-108223796D02*
X142239884Y-107223793D01*
X67914193Y-65861613D02*
X80914193Y-65861613D01*
D10*
X185688894Y-65861613D02*
X185948162Y-65933999D01*
X186128546Y-66123283D01*
X186188894Y-66361613D01*
X48364894Y-47311574D02*
X48437280Y-47052305D01*
X48626564Y-46871921D01*
X48864894Y-46811574D01*
D11*
X223789389Y-60811574D02*
X210789389Y-60811574D01*
X205238997Y-47311574D02*
X205238997Y-60311574D01*
X242839389Y-60811574D02*
X229839389Y-60811574D01*
X156463879Y-121223793D02*
X156463879Y-107223793D01*
X153139595Y-98411594D02*
X153139595Y-85411594D01*
X173782894Y-122723793D02*
X158401894Y-122723793D01*
X120776894Y-107228793D02*
X120776894Y-108223793D01*
X58308033Y-123488574D02*
G75*
G03*
X58308033Y-123488574I-1350000J0D01*
G01*
D10*
X67414689Y-47311574D02*
X67487075Y-47052305D01*
X67676359Y-46871921D01*
X67914689Y-46811574D01*
D11*
X48864894Y-46811574D02*
X61864894Y-46811574D01*
D10*
X224289492Y-117461574D02*
X224217105Y-117720842D01*
X224027821Y-117901226D01*
X223789492Y-117961574D01*
X166639595Y-84911594D02*
X166898863Y-84983980D01*
X167079247Y-85173264D01*
X167139595Y-85411594D01*
X170926992Y-107229222D02*
X170999378Y-106969953D01*
X171188662Y-106789569D01*
X171426992Y-106729222D01*
X110863894Y-120486289D02*
X111123162Y-120413902D01*
X111303546Y-120224618D01*
X111363894Y-119986289D01*
X210789389Y-60811574D02*
X210530120Y-60739187D01*
X210349736Y-60549903D01*
X210289389Y-60311574D01*
X80914193Y-84911594D02*
X81173461Y-84983980D01*
X81353845Y-85173264D01*
X81414193Y-85411594D01*
D11*
X185689389Y-60811574D02*
X172689389Y-60811574D01*
D10*
X105514193Y-85411594D02*
X105586579Y-85152325D01*
X105775863Y-84971941D01*
X106014193Y-84911594D01*
D11*
X119514688Y-47311574D02*
X119514688Y-60311574D01*
X229838894Y-65861613D02*
X242838894Y-65861613D01*
D10*
X222959269Y-120486773D02*
X223254612Y-120508692D01*
X223540946Y-120573226D01*
X223813844Y-120678541D01*
X224068881Y-120822805D01*
X224301630Y-121004184D01*
X224373495Y-121072575D01*
X152851884Y-122223793D02*
X152924270Y-121964524D01*
X153113554Y-121784140D01*
X153351884Y-121723793D01*
D11*
X205238997Y-85411594D02*
X205238997Y-98411594D01*
X121276894Y-108723793D02*
X134739896Y-108723792D01*
D10*
X124564689Y-47311574D02*
X124637075Y-47052305D01*
X124826359Y-46871921D01*
X125064689Y-46811574D01*
X186410212Y-122986751D02*
X186410212Y-122986718D01*
X124564193Y-66361613D02*
X124636579Y-66102344D01*
X124825863Y-65921960D01*
X125064193Y-65861613D01*
X191738997Y-98911594D02*
X191479728Y-98839207D01*
X191299344Y-98649923D01*
X191238997Y-98411594D01*
D11*
X67414689Y-60311574D02*
X67414689Y-47311574D01*
D10*
X61410605Y-126486503D02*
X61705944Y-126464587D01*
X61992276Y-126400058D01*
X62265173Y-126294748D01*
X62520209Y-126150490D01*
X62752959Y-125969119D01*
X62824825Y-125900731D01*
X229839099Y-117961574D02*
X229579830Y-117889187D01*
X229399446Y-117699903D01*
X229339099Y-117461574D01*
D11*
X210289389Y-60311574D02*
X210289389Y-47311574D01*
X167139595Y-47311574D02*
X167139595Y-60311574D01*
X106014193Y-84911594D02*
X119014193Y-84911594D01*
D10*
X243339099Y-117461574D02*
X243266712Y-117720842D01*
X243077428Y-117901226D01*
X242839099Y-117961574D01*
D11*
X125064193Y-84911594D02*
X138064193Y-84911594D01*
X61864894Y-60811574D02*
X48864894Y-60811574D01*
X153139595Y-60311574D02*
X153139595Y-47311574D01*
X67898561Y-103961979D02*
X107092561Y-103961979D01*
D10*
X153139595Y-85411594D02*
X153211981Y-85152325D01*
X153401265Y-84971941D01*
X153639595Y-84911594D01*
D11*
X191738997Y-46811574D02*
X204738997Y-46811574D01*
D10*
X210789389Y-98911594D02*
X210530120Y-98839207D01*
X210349736Y-98649923D01*
X210289389Y-98411594D01*
X204738997Y-84911594D02*
X204998265Y-84983980D01*
X205178649Y-85173264D01*
X205238997Y-85411594D01*
X124564193Y-85411594D02*
X124636579Y-85152325D01*
X124825863Y-84971941D01*
X125064193Y-84911594D01*
X99963800Y-84911594D02*
X100223068Y-84983980D01*
X100403452Y-85173264D01*
X100463800Y-85411594D01*
D11*
X62364894Y-47311574D02*
X62364894Y-60311574D01*
X61411067Y-38286675D02*
X52667919Y-38286675D01*
X158401894Y-108723793D02*
X170426992Y-108724222D01*
D10*
X86463800Y-85411594D02*
X86536186Y-85152325D01*
X86725470Y-84971941D01*
X86963800Y-84911594D01*
X172688894Y-79861613D02*
X172429625Y-79789226D01*
X172249241Y-79599942D01*
X172188894Y-79361613D01*
D11*
X236095722Y-41286694D02*
G75*
G03*
X236095722Y-41286694I-1350000J0D01*
G01*
X155963879Y-106723793D02*
X149963879Y-106723793D01*
X138564193Y-85411594D02*
X138564193Y-98411594D01*
X153639595Y-84911594D02*
X166639595Y-84911594D01*
X229339389Y-60311574D02*
X229339389Y-47311574D01*
D10*
X153139595Y-47311574D02*
X153211981Y-47052305D01*
X153401265Y-46871921D01*
X153639595Y-46811574D01*
D11*
X67414193Y-79361613D02*
X67414193Y-66361613D01*
X61864399Y-98911594D02*
X48864399Y-98911594D01*
D10*
X184148489Y-125248445D02*
X184492923Y-125222385D01*
X184821050Y-125146764D01*
X185129031Y-125025418D01*
X185413030Y-124862184D01*
X185669210Y-124660899D01*
X185893733Y-124425400D01*
X186082764Y-124159523D01*
X186232466Y-123867106D01*
X186339000Y-123551985D01*
X186398532Y-123217996D01*
X186410212Y-122986751D01*
X157901894Y-109223793D02*
X157974280Y-108964524D01*
X158163564Y-108784140D01*
X158401894Y-108723793D01*
X179839914Y-106723793D02*
X180099182Y-106796179D01*
X180279566Y-106985463D01*
X180339914Y-107223793D01*
X86964296Y-60811574D02*
X86705027Y-60739187D01*
X86524643Y-60549903D01*
X86464296Y-60311574D01*
X99963800Y-65861613D02*
X100223068Y-65933999D01*
X100403452Y-66123283D01*
X100463800Y-66361613D01*
M02*
