0
SECTION
2
HEADER
9
$INSUNITS
70
4
9
$ACADVER
1
AC1014
9
$HANDSEED
5
FFFF
0
ENDSEC
0
SECTION
2
TABLES
0
TABLE
2
VPORT
5
8
100
AcDbSymbolTable
0
ENDTAB
0
TABLE
2
LTYPE
5
5
100
AcDbSymbolTable
0
LTYPE
5
14
100
AcDbSymbolTableRecord
100
AcDbLinetypeTableRecord
2
BYBLOCK
70
0
0
LTYPE
5
15
100
AcDbSymbolTableRecord
100
AcDbLinetypeTableRecord
2
BYLAYER
70
0
0
ENDTAB
0
TABLE
2
LAYER
5
2
100
AcDbSymbolTable
70
2
0
LAYER
5
50
100
AcDbSymbolTableRecord
100
AcDbLayerTableRecord
2
0
70
0
6
CONTINUOUS
0
ENDTAB
0
TABLE
2
STYLE
5
3
100
AcDbSymbolTable
70
1
0
STYLE
5
11
100
AcDbSymbolTableRecord
100
AcDbTextStyleTableRecord
2
STANDARD
70
0
0
ENDTAB
0
TABLE
2
VIEW
5
6
100
AcDbSymbolTable
70
0
0
ENDTAB
0
TABLE
2
UCS
5
7
100
AcDbSymbolTable
70
0
0
ENDTAB
0
TABLE
2
APPID
5
9
100
AcDbSymbolTable
70
2
0
APPID
5
12
100
AcDbSymbolTableRecord
100
AcDbRegAppTableRecord
2
ACAD
70
0
0
ENDTAB
0
TABLE
2
DIMSTYLE
5
A
100
AcDbSymbolTable
70
1
0
ENDTAB
0
TABLE
2
BLOCK_RECORD
5
1
100
AcDbSymbolTable
70
1
0
BLOCK_RECORD
5
1F
100
AcDbSymbolTableRecord
100
AcDbBlockTableRecord
2
*MODEL_SPACE
0
BLOCK_RECORD
5
1B
100
AcDbSymbolTableRecord
100
AcDbBlockTableRecord
2
*PAPER_SPACE
0
ENDTAB
0
ENDSEC
0
SECTION
2
BLOCKS
0
BLOCK
5
20
100
AcDbEntity
100
AcDbBlockBegin
2
*MODEL_SPACE
0
ENDBLK
5
21
100
AcDbEntity
100
AcDbBlockEnd
0
BLOCK
5
1C
100
AcDbEntity
100
AcDbBlockBegin
2
*PAPER_SPACE
0
ENDBLK
5
1D
100
AcDbEntity
100
AcDbBlockEnd
0
ENDSEC
0
SECTION
2
ENTITIES
0
LWPOLYLINE
5
100
100
AcDbEntity
8
0
100
AcDbPolyline
90
8
70
1
43
0.0
10
-951.17498588562034
20
-39.249996566772467
10
-964.17498588562023
20
-39.249996566772438
42
-0.41421356237309509
10
-964.67498588562023
20
-38.749996566772467
10
-964.67498588562023
20
-25.749996566772467
42
-0.41421356237309509
10
-964.17498588562023
20
-25.24999656677247
10
-951.17498588562012
20
-25.249996566772495
42
-0.41421356237309509
10
-950.67498588562012
20
-25.749996566772467
10
-950.67498588562034
20
-38.749996566772467
42
-0.41421356237309509
0
LWPOLYLINE
5
101
100
AcDbEntity
8
0
100
AcDbPolyline
90
8
70
1
43
0.0
10
-1002.2749858856203
20
-25.24999656677247
10
-989.27498588562014
20
-25.249996566772495
42
-0.41421356237309509
10
-988.77498588562025
20
-25.749996566772467
10
-988.77498588562037
20
-38.749996566772467
42
-0.41421356237309509
10
-989.27498588562025
20
-39.249996566772467
10
-1002.2749858856203
20
-39.249996566772438
42
-0.41421356237309509
10
-1002.7749858856203
20
-38.749996566772467
10
-1002.7749858856203
20
-25.749996566772467
42
-0.41421356237309509
0
LWPOLYLINE
5
102
100
AcDbEntity
8
0
100
AcDbPolyline
90
4
70
1
43
0.0
10
-993.24998474121105
20
-68.112497329711928
10
-979.24998474121094
20
-68.112497329711928
10
-979.24998474121094
20
-82.112497329711914
10
-993.24998474121105
20
-82.112497329711914
0
LWPOLYLINE
5
103
100
AcDbEntity
8
0
100
AcDbPolyline
90
4
70
1
43
0.0
10
-998.29998588562034
20
-68.112496566772492
10
-998.29998588562034
20
-82.112496566772478
10
-1012.2999858856202
20
-82.112496566772478
10
-1012.2999858856202
20
-68.112496566772492
0
LWPOLYLINE
5
104
100
AcDbEntity
8
0
100
AcDbPolyline
90
4
70
1
43
0.0
10
-1017.3499858856203
20
-68.112496566772492
10
-1017.3499858856203
20
-82.112496566772464
10
-1031.3499858856203
20
-82.112496566772464
10
-1031.3499858856203
20
-68.112496566772492
0
LWPOLYLINE
5
105
100
AcDbEntity
8
0
100
AcDbPolyline
90
4
70
1
43
0.0
10
-1036.3999858856203
20
-68.112496566772492
10
-1036.3999858856203
20
-82.112496566772464
10
-1050.3999858856203
20
-82.112496566772464
10
-1050.3999858856203
20
-68.112496566772478
0
LINE
5
106
100
AcDbEntity
8
0
100
AcDbLine
10
-1055.4499858856204
20
-69.694496566772472
30
0
11
-1055.4499858856204
21
-75.694496566772528
31
0
0
ARC
5
107
100
AcDbEntity
8
0
100
AcDbCircle
10
-1055.9499890720051
20
-75.694496566772528
30
0
40
0.49999999999999822
210
0
220
0
230
1
100
AcDbArc
50
-90
51
0
0
LINE
5
108
100
AcDbEntity
8
0
100
AcDbLine
10
-1055.9499890720051
20
-76.194496566772528
30
0
11
-1057.3312358856201
21
-76.194496566772415
31
9.5367431729442842e-07
0
ARC
5
109
100
AcDbEntity
8
0
100
AcDbCircle
10
-1057.3312358856201
20
-76.694496566772457
30
9.5367431729442842e-07
40
0.50000000000004263
210
0
220
-0
230
1
100
AcDbArc
50
90
51
180
0
LINE
5
110
100
AcDbEntity
8
0
100
AcDbLine
10
-1057.8312358856203
20
-76.694496566772457
30
9.5367431729442842e-07
11
-1057.8312358856203
21
-86.657496566772465
31
9.5367431729442842e-07
0
ARC
5
111
100
AcDbEntity
8
0
100
AcDbCircle
10
-1057.3312358856201
20
-86.657496566772423
30
9.5367431729442842e-07
40
0.50000000000011369
210
0
220
0
230
1
100
AcDbArc
50
180
51
270
0
LINE
5
112
100
AcDbEntity
8
0
100
AcDbLine
10
-1057.3312358856201
20
-87.157496566772537
30
9.5367431729442842e-07
11
-1056.8312358856203
21
-87.157496566772465
31
4.7683716086766026e-07
0
LINE
5
113
100
AcDbEntity
8
0
100
AcDbLine
10
-1056.8312358856203
20
-87.157496566772465
30
4.7683716086766026e-07
11
-1056.8312358856203
21
-87.162496566772475
31
0
0
LINE
5
114
100
AcDbEntity
8
0
100
AcDbLine
10
-1056.8312358856203
20
-87.162496566772475
30
0
11
-1055.9499858856204
21
-87.162496566772475
31
0
0
ARC
5
115
100
AcDbEntity
8
0
100
AcDbCircle
10
-1055.9499858856204
20
-87.662496566772489
30
0
40
0.49999999999997158
210
0
220
0
230
1
100
AcDbArc
50
0
51
90
0
LINE
5
116
100
AcDbEntity
8
0
100
AcDbLine
10
-1055.4499858856204
20
-87.662496566772489
30
0
11
-1055.4499858856204
21
-100.66249656677246
31
0
0
ARC
5
117
100
AcDbEntity
8
0
100
AcDbCircle
10
-1055.9499858856202
20
-100.66249656677246
30
0
40
0.50000000000000711
210
0
220
0
230
1
100
AcDbArc
50
-90
51
0
0
LINE
5
118
100
AcDbEntity
8
0
100
AcDbLine
10
-1055.9499858856202
20
-101.16249656677248
30
0
11
-1068.9499858856202
21
-101.16249656677248
31
0
0
ARC
5
119
100
AcDbEntity
8
0
100
AcDbCircle
10
-1068.9499858856202
20
-100.66249656677246
30
0
40
0.49999999999997158
210
0
220
0
230
1
100
AcDbArc
50
180
51
270
0
LINE
5
120
100
AcDbEntity
8
0
100
AcDbLine
10
-1069.4499858856202
20
-100.66249656677246
30
0
11
-1069.4499858856202
21
-100.57049656677243
31
0
0
ARC
5
121
100
AcDbEntity
8
0
100
AcDbCircle
10
-1069.9499858856202
20
-100.57049656677243
30
0
40
0.49999999999997158
210
0
220
0
230
1
100
AcDbArc
50
0
51
90
0
LINE
5
122
100
AcDbEntity
8
0
100
AcDbLine
10
-1069.9499858856202
20
-100.07049656677242
30
0
11
-1074.2378176552538
21
-100.07049656677246
31
0
0
ARC
5
123
100
AcDbEntity
8
0
100
AcDbCircle
10
-1074.2378176552538
20
-99.570496566772349
30
0
40
0.50000000000011369
210
0
220
0
230
1
100
AcDbArc
50
180
51
270
0
LINE
5
124
100
AcDbEntity
8
0
100
AcDbLine
10
-1074.737817655254
20
-99.570496566772405
30
0
11
-1074.737817655254
21
-93.570496566772647
31
0
0
ARC
5
125
100
AcDbEntity
8
0
100
AcDbCircle
10
-1074.2378176552538
20
-93.570496566772732
30
0
40
0.50000000000014921
210
0
220
-0
230
1
100
AcDbArc
50
90
51
180
0
LINE
5
126
100
AcDbEntity
8
0
100
AcDbLine
10
-1074.2378176552538
20
-93.070496566772576
30
0
11
-1072.3312358856201
21
-93.070496566772448
31
0
0
ARC
5
127
100
AcDbEntity
8
0
100
AcDbCircle
10
-1072.3312358856201
20
-92.570496566772391
30
0
40
0.5000000000000604
210
0
220
0
230
1
100
AcDbArc
50
270
51
360
0
LINE
5
128
100
AcDbEntity
8
0
100
AcDbLine
10
-1071.8312358856201
20
-92.570496566772462
30
0
11
-1071.8312335610394
21
-76.694496566770482
31
5.8034275607354857e-07
0
ARC
5
129
100
AcDbEntity
8
0
100
AcDbCircle
10
-1072.331235884898
20
-76.694496566772543
30
0.0012446335432120543
40
0.50000232458122729
210
-1.1606801159566804e-06
220
-4.7214589719217501e-18
230
0.99999999999932654
100
AcDbArc
50
0
51
90
0
LINE
5
130
100
AcDbEntity
8
0
100
AcDbLine
10
-1072.3312358856201
20
-76.194496566772557
30
0
11
-1074.237817655254
21
-76.194496566772557
31
0
0
ARC
5
131
100
AcDbEntity
8
0
100
AcDbCircle
10
-1074.237817655254
20
-75.694496566772443
30
0
40
0.50000000000011369
210
0
220
0
230
1
100
AcDbArc
50
180
51
270
0
LINE
5
132
100
AcDbEntity
8
0
100
AcDbLine
10
-1074.7378176552543
20
-75.6944965667725
30
0
11
-1074.737817655254
21
-69.694496566772543
31
0
0
ARC
5
133
100
AcDbEntity
8
0
100
AcDbCircle
10
-1074.237817655254
20
-69.694496566772585
30
0
40
0.49999999999997158
210
0
220
-0
230
1
100
AcDbArc
50
89.999999999973952
51
180
0
LINE
5
134
100
AcDbEntity
8
0
100
AcDbLine
10
-1074.2378176552538
20
-69.194496566772614
30
0
11
-1072.3312358856201
21
-69.194496566772472
31
0
0
ARC
5
135
100
AcDbEntity
8
0
100
AcDbCircle
10
-1072.3312358856201
20
-68.694496566772486
30
0
40
0.49999999999998934
210
0
220
0
230
1
100
AcDbArc
50
-90
51
0
0
LINE
5
136
100
AcDbEntity
8
0
100
AcDbLine
10
-1071.8312358856203
20
-68.694496566772429
30
0
11
-1071.8312358856203
21
-68.112497329711928
31
0
0
LINE
5
137
100
AcDbEntity
8
0
100
AcDbLine
10
-1071.8312358856203
20
-68.112497329711928
30
0
11
-1059.8312358856203
21
-68.112497329711928
31
0
0
LINE
5
138
100
AcDbEntity
8
0
100
AcDbLine
10
-1059.8312358856203
20
-68.112497329711928
30
0
11
-1059.8312358856203
21
-68.107496566772454
31
0
0
LINE
5
139
100
AcDbEntity
8
0
100
AcDbLine
10
-1059.8312358856203
20
-68.107496566772454
30
0
11
-1058.3312358856201
21
-68.107496566772454
31
0
0
ARC
5
140
100
AcDbEntity
8
0
100
AcDbCircle
10
-1058.3312358856203
20
-68.607496566772497
30
0
40
0.49999999999997158
210
0
220
-0
230
1
100
AcDbArc
50
0
51
89.999999999973952
0
LINE
5
141
100
AcDbEntity
8
0
100
AcDbLine
10
-1057.8312358856203
20
-68.607496566772483
30
0
11
-1057.8312358856203
21
-68.694496566772486
31
0
0
ARC
5
142
100
AcDbEntity
8
0
100
AcDbCircle
10
-1057.3312358856201
20
-68.6944965667725
30
0
40
0.50000000000011369
210
0
220
0
230
1
100
AcDbArc
50
180
51
270
0
LINE
5
143
100
AcDbEntity
8
0
100
AcDbLine
10
-1057.3312358856201
20
-69.194496566772614
30
0
11
-1055.9499890720049
21
-69.194496566772472
31
0
0
ARC
5
144
100
AcDbEntity
8
0
100
AcDbCircle
10
-1055.9499890720049
20
-69.694496566772472
30
0
40
0.50000318638453223
210
0
220
0
230
1
100
AcDbArc
50
0
51
90
0
LWPOLYLINE
5
145
100
AcDbEntity
8
0
100
AcDbPolyline
90
8
70
1
43
0.0
10
-892.73748588562034
20
-30.012496566772491
10
-879.66695220572194
20
-30.012496566772509
42
-0.37333963451511881
10
-879.23748588562023
20
-30.507496566772492
10
-879.23748588562023
20
-43.507496566772481
42
-0.4142135623730222
10
-879.73748588562012
20
-44.007496566772616
10
-892.73748588562034
20
-44.007496566772453
42
-0.41421356237309509
10
-893.23748588562023
20
-43.507496566772481
10
-893.23748588562023
20
-30.51249656677248
42
-0.41421356237309509
0
LWPOLYLINE
5
146
100
AcDbEntity
8
0
100
AcDbPolyline
90
10
70
1
43
0.0
10
-930.83748588562025
20
-30.012496566772509
42
0.41421356237308465
10
-931.33748588562025
20
-30.512496566772462
10
-931.33748588562014
20
-43.512496566772455
42
0.41421356237300133
10
-930.83748588562025
20
-44.012496566772455
10
-924.48123588562021
20
-44.012496566772455
10
-924.48123588562021
20
-44.007496566772474
10
-917.83748588562025
20
-44.007496566772488
42
0.41421356237312629
10
-917.33748588562025
20
-43.50749656677246
10
-917.33748588562025
20
-30.512496566772462
42
0.41421356237308465
10
-917.83748588562025
20
-30.012496566772473
0
LWPOLYLINE
5
147
100
AcDbEntity
8
0
100
AcDbPolyline
90
10
70
1
43
0.0
10
-911.78748588562019
20
-30.012496566772473
10
-898.71695220572201
20
-30.012496566772406
42
-0.37333963451510288
10
-898.28748588562019
20
-30.507496566772492
10
-898.28748588562019
20
-43.507496566772481
42
-0.41421356237310542
10
-898.78748588562019
20
-44.007496566772474
10
-903.04998588562034
20
-44.007496566772488
10
-903.04998588562034
20
-44.012496566772477
10
-911.78748588562019
20
-44.012496566772427
42
-0.4142135623731783
10
-912.2874858856203
20
-43.512496566772455
10
-912.2874858856203
20
-30.512496566772462
42
-0.41421356237316787
0
LWPOLYLINE
5
148
100
AcDbEntity
8
0
100
AcDbPolyline
90
4
70
1
43
0.0
10
-964.96248588562025
20
-49.062496566772431
10
-964.96248588562025
20
-63.062496566772467
10
-978.96248588562014
20
-63.062496566772467
10
-978.96248588562014
20
-49.062496566772431
0
LWPOLYLINE
5
149
100
AcDbEntity
8
0
100
AcDbPolyline
90
4
70
1
43
0.0
10
-1017.0624858856204
20
-63.062496566772452
10
-1017.0624858856204
20
-49.062496566772467
10
-1003.0624858856203
20
-49.062496566772467
10
-1003.0624858856203
20
-63.062496566772452
0
LWPOLYLINE
5
150
100
AcDbEntity
8
0
100
AcDbPolyline
90
4
70
1
43
0.0
10
-984.01248588562021
20
-63.062496566772467
10
-998.01248588562032
20
-63.062496566772467
10
-998.01248588562032
20
-49.062496566772431
10
-984.01248588562021
20
-49.062496566772431
0
LWPOLYLINE
5
151
100
AcDbEntity
8
0
100
AcDbPolyline
90
4
70
1
43
0.0
10
-881.61873588562025
20
-68.112496566772506
10
-881.61873588562025
20
-82.112496566772506
10
-895.61873588562025
20
-82.112496566772506
10
-895.61873588562025
20
-68.112496566772506
0
LWPOLYLINE
5
152
100
AcDbEntity
8
0
100
AcDbPolyline
90
4
70
1
43
0.0
10
-959.9124858856203
20
-49.062496566772431
10
-945.9124858856203
20
-49.062496566772431
10
-945.9124858856203
20
-63.062496566772467
10
-959.9124858856203
20
-63.062496566772467
0
LWPOLYLINE
5
153
100
AcDbEntity
8
0
100
AcDbPolyline
90
4
70
1
43
0.0
10
-1060.2124858856203
20
-49.06249656677241
10
-1060.2124858856203
20
-63.062496566772452
10
-1074.2124858856203
20
-63.062496566772452
10
-1074.2124858856203
20
-49.06249656677241
0
LWPOLYLINE
5
154
100
AcDbEntity
8
0
100
AcDbPolyline
90
4
70
1
43
0.0
10
-955.14998588562025
20
-82.112496566772478
10
-955.14998588562025
20
-68.112496566772492
10
-941.14998588562025
20
-68.112496566772492
10
-941.14998588562025
20
-82.112496566772478
0
LWPOLYLINE
5
155
100
AcDbEntity
8
0
100
AcDbPolyline
90
4
70
1
43
0.0
10
-1041.1624858856203
20
-63.062496566772467
10
-1055.1624858856203
20
-63.062496566772452
10
-1055.1624858856203
20
-49.06249656677241
10
-1041.1624858856203
20
-49.062496566772431
0
LWPOLYLINE
5
156
100
AcDbEntity
8
0
100
AcDbPolyline
90
4
70
1
43
0.0
10
-1036.1124858856203
20
-30.012496566772473
10
-1022.1124858856203
20
-30.012496566772473
10
-1022.1124858856203
20
-44.012496566772455
10
-1036.1124858856203
20
-44.012496566772455
0
LWPOLYLINE
5
157
100
AcDbEntity
8
0
100
AcDbPolyline
90
4
70
1
43
0.0
10
-1060.2124858856203
20
-44.012496566772441
10
-1074.2124858856203
20
-44.012496566772441
10
-1074.2124858856203
20
-30.012496566772455
10
-1060.2124858856203
20
-30.012496566772455
0
LWPOLYLINE
5
158
100
AcDbEntity
8
0
100
AcDbPolyline
90
4
70
1
43
0.0
10
-912.2874858856203
20
-87.162496566772489
10
-898.28748588562019
20
-87.162496566772489
10
-898.28748588562019
20
-101.16249656677248
10
-912.2874858856203
20
-101.16249656677248
0
LWPOLYLINE
5
159
100
AcDbEntity
8
0
100
AcDbPolyline
90
4
70
1
43
0.0
10
-1026.5874858856203
20
-87.162496566772461
10
-1012.5874858856203
20
-87.162496566772475
10
-1012.5874858856203
20
-101.16249656677248
10
-1026.5874858856203
20
-101.16249656677248
0
LWPOLYLINE
5
160
100
AcDbEntity
8
0
100
AcDbPolyline
90
4
70
1
43
0.0
10
-1031.6374858856202
20
-101.16249656677248
10
-1045.6374858856202
20
-101.16249656677248
10
-1045.6374858856202
20
-87.162496566772461
10
-1031.6374858856202
20
-87.162496566772461
0
LWPOLYLINE
5
161
100
AcDbEntity
8
0
100
AcDbPolyline
90
4
70
1
43
0.0
10
-993.5374858856203
20
-101.16249656677248
10
-1007.5374858856202
20
-101.16249656677248
10
-1007.5374858856202
20
-87.162496566772475
10
-993.5374858856203
20
-87.162496566772475
0
LWPOLYLINE
5
162
100
AcDbEntity
8
0
100
AcDbPolyline
90
4
70
1
43
0.0
10
-974.48748588562023
20
-87.162496566772475
10
-974.48748588562023
20
-101.16249656677248
10
-988.48748588562012
20
-101.16249656677248
10
-988.48748588562012
20
-87.162496566772475
0
LWPOLYLINE
5
163
100
AcDbEntity
8
0
100
AcDbPolyline
90
4
70
1
43
0.0
10
-969.43748588562028
20
-87.162496566772475
10
-955.43748588562028
20
-87.162496566772475
10
-955.43748588562028
20
-101.16249656677248
10
-969.43748588562028
20
-101.16249656677248
0
LWPOLYLINE
5
164
100
AcDbEntity
8
0
100
AcDbPolyline
90
4
70
1
43
0.0
10
-1041.1624858856203
20
-30.012496566772473
10
-1041.1624858856203
20
-44.012496566772455
10
-1055.1624858856203
20
-44.012496566772441
10
-1055.1624858856203
20
-30.012496566772455
0
LWPOLYLINE
5
165
100
AcDbEntity
8
0
100
AcDbPolyline
90
4
70
1
43
0.0
10
-936.38748588562044
20
-87.162496566772489
10
-936.38748588562044
20
-101.16249656677248
10
-950.38748588562032
20
-101.16249656677248
10
-950.38748588562032
20
-87.162496566772475
0
LWPOLYLINE
5
166
100
AcDbEntity
8
0
100
AcDbPolyline
90
4
70
1
43
0.0
10
-907.81248588562016
20
-63.062496566772467
10
-921.81248588562028
20
-63.062496566772467
10
-921.81248588562028
20
-49.062496566772431
10
-907.81248588562016
20
-49.062496566772431
0
LWPOLYLINE
5
167
100
AcDbEntity
8
0
100
AcDbPolyline
90
4
70
1
43
0.0
10
-1022.1124858856203
20
-49.062496566772431
10
-1022.1124858856203
20
-63.062496566772467
10
-1036.1124858856203
20
-63.062496566772467
10
-1036.1124858856203
20
-49.062496566772431
0
LWPOLYLINE
5
168
100
AcDbEntity
8
0
100
AcDbPolyline
90
4
70
1
43
0.0
10
-917.33748588562025
20
-101.16249656677248
10
-931.33748588562025
20
-101.16249656677248
10
-931.33748588562025
20
-87.162496566772489
10
-917.33748588562025
20
-87.162496566772489
0
LWPOLYLINE
5
169
100
AcDbEntity
8
0
100
AcDbPolyline
90
4
70
1
43
0.0
10
-879.23748588562023
20
-101.16249656677248
10
-893.23748588562023
20
-101.16249656677248
10
-893.23748588562023
20
-87.162496566772489
10
-879.23748588562023
20
-87.162496566772489
0
LWPOLYLINE
5
170
100
AcDbEntity
8
0
100
AcDbPolyline
90
4
70
1
43
0.0
10
-883.99998588562028
20
-63.062496566772488
10
-897.99998588562016
20
-63.062496566772488
10
-897.99998588562016
20
-49.062496566772452
10
-883.99998588562028
20
-49.062496566772452
0
LWPOLYLINE
5
171
100
AcDbEntity
8
0
100
AcDbPolyline
90
4
70
1
43
0.0
10
-960.19998588562032
20
-82.112496566772478
10
-974.19998588562021
20
-82.112496566772478
10
-974.19998588562021
20
-68.112496566772492
10
-960.19998588562021
20
-68.112496566772492
0
LWPOLYLINE
5
172
100
AcDbEntity
8
0
100
AcDbPolyline
90
4
70
1
43
0.0
10
-940.86248588562034
20
-49.062496566772431
10
-926.86248588562023
20
-49.062496566772431
10
-926.86248588562023
20
-63.062496566772467
10
-940.86248588562034
20
-63.062496566772467
0
LWPOLYLINE
5
173
100
AcDbEntity
8
0
100
AcDbPolyline
90
4
70
1
43
0.0
10
-917.04998588562023
20
-82.112496566772506
10
-917.04998588562023
20
-68.112496566772492
10
-903.04998588562034
20
-68.112496566772506
10
-903.04998588562034
20
-82.112496566772506
0
LWPOLYLINE
5
174
100
AcDbEntity
8
0
100
AcDbPolyline
90
4
70
1
43
0.0
10
-936.09998588562019
20
-82.112496566772506
10
-936.09998588562019
20
-68.112496566772492
10
-922.0999858856203
20
-68.112496566772492
10
-922.0999858856203
20
-82.112496566772506
0
LWPOLYLINE
5
175
100
AcDbEntity
8
0
100
AcDbPolyline
90
64
70
1
43
0.0
10
-951.6389180308812
20
-22.725034004878015
10
-951.63891803088109
20
-22.724996566772461
10
-1001.7999858856203
20
-22.724996566772461
10
-1001.7999858856203
20
-22.725741992326466
10
-1008.7999858856205
20
-22.725741992326466
10
-1008.7999858856203
20
-22.724996566772461
10
-1014.8249893188478
20
-22.724996566772461
10
-1014.8249893188478
20
-22.726122694567028
42
0.40932955151674644
10
-1017.2832026051385
20
-25.225802597280254
10
-1017.2832053844156
20
-24.987467119467279
42
-0.41421741839010895
10
-1019.7832091443706
20
-27.48749627245834
10
-1053.8322631939741
20
-27.487445060976722
42
-0.19891469765951303
10
-1055.2464885555532
20
-26.901643815890878
10
-1060.0762859195315
20
-22.071745311018827
42
0.19891236737963805
10
-1061.4904933484083
20
-21.4859440660403
10
-1069.9089393240374
20
-21.485855921531467
42
0.19891236737963844
10
-1071.3231590197522
20
-22.071627551742502
10
-1076.1516692480532
20
-26.90003666822129
42
0.090052478250211024
10
-1076.5585837734623
20
-27.487496376037591
10
-1076.7374801635742
20
-27.487496376037601
10
-1076.7374801635742
20
-28.314244097097685
10
-1076.7383151465244
20
-101.31191225458593
42
0.023545083463806925
10
-1076.7378607502264
20
-101.52672502387372
10
-1076.7378607502303
20
-102.85908378057795
42
0.004877273591278819
10
-1076.7374801635742
20
-102.89809918494822
10
-1076.7374801635742
20
-103.68749809265138
10
-1076.5582260233423
20
-103.68749809265138
42
0.089822052704168626
10
-1076.1520743126034
20
-104.27329734295107
10
-1071.3236146399486
20
-109.10175701560559
42
0.19891236737963464
10
-1069.9094010775757
20
-109.68754345323242
10
-1061.4909551014848
20
-109.68754345323248
42
0.19891236737966292
10
-1060.0767415391117
20
-109.1017570156056
10
-1055.2482725218774
20
-104.27328799837122
42
-0.19891242969308739
10
-1053.8340584799701
20
-103.68750156074444
10
-899.94091523527709
20
-103.68754345323252
42
-0.19891236737947218
10
-898.52670167290535
20
-104.27332989085933
10
-893.69827454815913
20
-109.10175701560561
42
0.1989123673796564
10
-892.28406098578603
20
-109.68754345323255
10
-883.54091257459629
20
-109.68754345323249
42
0.19891236737965312
10
-882.1266990122233
20
-109.10175701560563
10
-877.29827192396897
20
-104.27332992735126
42
0.089826563772790066
10
-876.8921053850288
20
-103.68749809265134
10
-876.71248626708984
20
-103.68749809265138
10
-876.71248548634196
20
-102.85911641141803
10
-876.71248545686285
20
-101.58955163210676
10
-876.71248588562025
20
-94.162496566772489
10
-876.71248626708984
20
-29.90486544120045
42
0.023945921395082507
10
-876.71233524396257
20
-29.683279304826339
10
-876.71210850313992
20
-29.585870591476855
10
-876.71209523976631
20
-28.316305812234894
42
0.0049463360798288145
10
-876.71248626708984
20
-28.276738023828536
10
-876.71248626708984
20
-27.487496376037601
10
-876.89190031797307
20
-27.487496376037601
42
0.089767602299120827
10
-877.29786686997784
20
-26.902086162960018
10
-882.12624340239756
20
-22.073608519400416
42
0.19891236737963913
10
-883.54045083127392
20
-21.48780727442189
10
-892.28359924198446
20
-21.48771573014816
42
0.19891236737964321
10
-893.69781893769914
20
-22.073487360359287
10
-898.52630529178759
20
-26.901872603125376
42
-0.19575337311216243
10
-899.91620085989041
20
-27.487496566772464
10
-943.19148223075081
20
-27.487496566772506
42
-0.41421387729021353
10
-945.69148223074922
20
-24.987493878786893
10
-945.69148248607621
20
-25.224964465311324
42
0.41418023325494718
10
-948.19122715373067
20
-22.724993631344148
0
CIRCLE
5
176
100
AcDbEntity
8
0
100
AcDbCircle
10
-1065.6997453618203
20
-24.485918653402923
30
0
40
1.4000000000000057
210
0
220
0
230
1
0
CIRCLE
5
177
100
AcDbEntity
8
0
100
AcDbCircle
10
-887.9124867941232
20
-106.68754346716446
30
0
40
1.4000000000000057
210
0
220
0
230
1
0
CIRCLE
5
178
100
AcDbEntity
8
0
100
AcDbCircle
10
-887.91205646176536
20
-24.487761488188475
30
0
40
1.4000000000000057
210
0
220
0
230
1
0
CIRCLE
5
179
100
AcDbEntity
8
0
100
AcDbCircle
10
-1065.7001757037281
20
-106.68752479347592
30
0
40
1.4000000000000057
210
0
220
0
230
1
0
ENDSEC
0
SECTION
2
OBJECTS
0
DICTIONARY
5
C
100
AcDbDictionary
3
ACAD_GROUP
350
D
3
ACAD_MLINESTYLE
350
17
0
DICTIONARY
5
D
100
AcDbDictionary
0
DICTIONARY
5
1A
330
C
100
AcDbDictionary
0
DICTIONARY
5
17
100
AcDbDictionary
0
ENDSEC
0
EOF
