0
SECTION
2
HEADER
9
$INSUNITS
70
4
9
$ACADVER
1
AC1014
9
$HANDSEED
5
FFFF
0
ENDSEC
0
SECTION
2
TABLES
0
TABLE
2
VPORT
5
8
100
AcDbSymbolTable
0
ENDTAB
0
TABLE
2
LTYPE
5
5
100
AcDbSymbolTable
0
LTYPE
5
14
100
AcDbSymbolTableRecord
100
AcDbLinetypeTableRecord
2
BYBLOCK
70
0
0
LTYPE
5
15
100
AcDbSymbolTableRecord
100
AcDbLinetypeTableRecord
2
BYLAYER
70
0
0
ENDTAB
0
TABLE
2
LAYER
5
2
100
AcDbSymbolTable
70
2
0
LAYER
5
50
100
AcDbSymbolTableRecord
100
AcDbLayerTableRecord
2
0
70
0
6
CONTINUOUS
0
ENDTAB
0
TABLE
2
STYLE
5
3
100
AcDbSymbolTable
70
1
0
STYLE
5
11
100
AcDbSymbolTableRecord
100
AcDbTextStyleTableRecord
2
STANDARD
70
0
0
ENDTAB
0
TABLE
2
VIEW
5
6
100
AcDbSymbolTable
70
0
0
ENDTAB
0
TABLE
2
UCS
5
7
100
AcDbSymbolTable
70
0
0
ENDTAB
0
TABLE
2
APPID
5
9
100
AcDbSymbolTable
70
2
0
APPID
5
12
100
AcDbSymbolTableRecord
100
AcDbRegAppTableRecord
2
ACAD
70
0
0
ENDTAB
0
TABLE
2
DIMSTYLE
5
A
100
AcDbSymbolTable
70
1
0
ENDTAB
0
TABLE
2
BLOCK_RECORD
5
1
100
AcDbSymbolTable
70
1
0
BLOCK_RECORD
5
1F
100
AcDbSymbolTableRecord
100
AcDbBlockTableRecord
2
*MODEL_SPACE
0
BLOCK_RECORD
5
1B
100
AcDbSymbolTableRecord
100
AcDbBlockTableRecord
2
*PAPER_SPACE
0
ENDTAB
0
ENDSEC
0
SECTION
2
BLOCKS
0
BLOCK
5
20
100
AcDbEntity
100
AcDbBlockBegin
2
*MODEL_SPACE
0
ENDBLK
5
21
100
AcDbEntity
100
AcDbBlockEnd
0
BLOCK
5
1C
100
AcDbEntity
100
AcDbBlockBegin
2
*PAPER_SPACE
0
ENDBLK
5
1D
100
AcDbEntity
100
AcDbBlockEnd
0
ENDSEC
0
SECTION
2
ENTITIES
0
LINE
5
100
100
AcDbEntity
8
0
100
AcDbLine
10
-140.05625000000003
20
124.21250000000001
30
0
11
-126.05625000000002
21
124.21250000000001
31
0
0
LWPOLYLINE
5
101
100
AcDbEntity
8
0
100
AcDbPolyline
90
4
70
1
43
0.0
10
-190.34999999999999
20
119.45
10
-190.34999999999999
20
105.45000000000002
10
-204.35000000000002
20
105.45000000000002
10
-204.35000000000002
20
119.45
0
LWPOLYLINE
5
102
100
AcDbEntity
8
0
100
AcDbPolyline
90
4
70
1
43
0.0
10
-242.45000000000002
20
100.40000000000005
10
-228.44999999999999
20
100.40000000000005
10
-228.44999999999999
20
86.400000000000006
10
-242.45000000000002
20
86.400000000000006
0
LWPOLYLINE
5
103
100
AcDbEntity
8
0
100
AcDbPolyline
90
4
70
1
43
0.0
10
-242.45000000000002
20
119.45
10
-228.44999999999999
20
119.45
10
-228.44999999999999
20
105.45000000000002
10
-242.45000000000002
20
105.45000000000002
0
LWPOLYLINE
5
104
100
AcDbEntity
8
0
100
AcDbPolyline
90
4
70
1
43
0.0
10
-104.62500000000006
20
48.299999999999997
10
-118.625
20
48.299999999999997
10
-118.625
20
62.300000000000004
10
-104.62500000000006
20
62.300000000000004
0
LWPOLYLINE
5
105
100
AcDbEntity
8
0
100
AcDbPolyline
90
4
70
1
43
0.0
10
-47.474999999999987
20
48.299999999999997
10
-61.475000000000009
20
48.299999999999997
10
-61.475000000000009
20
62.300000000000004
10
-47.474999999999987
20
62.300000000000004
0
LWPOLYLINE
5
106
100
AcDbEntity
8
0
100
AcDbPolyline
90
4
70
1
43
0.0
10
-99.575000000000017
20
62.300000000000004
10
-85.575000000000031
20
62.300000000000004
10
-85.575000000000031
20
48.299999999999997
10
-99.575000000000017
20
48.299999999999997
0
LWPOLYLINE
5
107
100
AcDbEntity
8
0
100
AcDbPolyline
90
4
70
1
43
0.0
10
-223.40000000000003
20
119.45
10
-209.40000000000001
20
119.45
10
-209.40000000000001
20
105.45000000000002
10
-223.40000000000003
20
105.45000000000002
0
LWPOLYLINE
5
108
100
AcDbEntity
8
0
100
AcDbPolyline
90
4
70
1
43
0.0
10
-137.67500000000001
20
62.300000000000004
10
-123.67500000000005
20
62.300000000000004
10
-123.67500000000005
20
48.299999999999997
10
-137.67500000000001
20
48.299999999999997
0
LWPOLYLINE
5
109
100
AcDbEntity
8
0
100
AcDbPolyline
90
4
70
1
43
0.0
10
-204.35000000000002
20
100.40000000000005
10
-190.34999999999999
20
100.40000000000005
10
-190.34999999999999
20
86.400000000000006
10
-204.35000000000002
20
86.400000000000006
0
CIRCLE
5
110
100
AcDbEntity
8
0
100
AcDbCircle
10
-56.149570576145109
20
124.97473507858402
30
0
40
1.1500000000000019
210
0
220
0
230
1
0
LWPOLYLINE
5
111
100
AcDbEntity
8
0
100
AcDbPolyline
90
4
70
1
43
0.0
10
-171.30000000000001
20
86.40000000000002
10
-185.30000000000001
20
86.40000000000002
10
-185.30000000000001
20
100.40000000000001
10
-171.30000000000001
20
100.40000000000001
0
LINE
5
112
100
AcDbEntity
8
0
100
AcDbLine
10
-106.71875
20
119.45
30
0
11
-92.71875
21
119.45
31
0
0
CIRCLE
5
113
100
AcDbEntity
8
0
100
AcDbCircle
10
-233.93725947619998
20
124.97657791336954
30
0
40
1.1499999999999844
210
0
220
0
230
1
0
LINE
5
114
100
AcDbEntity
8
0
100
AcDbLine
10
-85.287499999999994
20
119.45
30
0
11
-71.287499999999994
21
119.45
31
0
0
LWPOLYLINE
5
115
100
AcDbEntity
8
0
100
AcDbPolyline
90
48
70
1
43
0.0
10
-113.91517689971616
20
124.21250000000001
42
0.41742822642572636
10
-116.42874126811054
20
126.73750293542831
10
-183.02074587268226
20
126.73672312231631
42
0.41421356237307005
10
-185.52071671951833
20
124.23669396949222
10
-185.52071949879544
20
124.47502944730519
42
-0.41421741839010473
10
-188.02072325875042
20
121.97500029431411
10
-222.06977730835391
20
121.97505150579573
42
-0.19891469765950687
10
-223.48400266993303
20
122.56085275088165
10
-228.31380003391146
20
127.39075125575363
42
0.19891236737963014
10
-229.72800746278801
20
127.97655250073214
10
-238.1464534384173
20
127.97664064524099
42
0.19891236737964538
10
-239.56067313413203
20
127.39086901502995
10
-244.38918336243304
20
122.56245989855117
42
0.19891236737968107
10
-244.97498460741159
20
121.14825246967477
10
-244.97499949214591
20
119.86186591623098
10
-244.97537486460999
20
48.160228457020004
42
0.024603351585867947
10
-244.97537486460601
20
47.935771542898742
10
-244.97537486460999
20
46.603412786194539
42
0.19891236737967841
10
-244.38958842698312
20
45.189199223821475
10
-239.56112875432848
20
40.36073955116688
42
0.19891236737964499
10
-238.14691519195549
20
39.774953113539972
10
-229.72846921586452
20
39.774953113539993
42
0.19891236737967213
10
-228.31425565349144
20
40.360739551166859
10
-223.48578663625713
20
45.189208568401249
42
-0.19891242969309719
10
-222.07157259434979
20
45.774995006028092
10
-68.178429349656966
20
45.774953113539993
42
-0.19891236737949464
10
-66.764215787285067
20
45.189166675913093
10
-61.935788662538883
20
40.36073955116688
42
0.19891236737964837
10
-60.521575100165812
20
39.774953113539993
10
-51.778426688976076
20
39.774953113539993
42
0.19891236737966511
10
-50.364213126602984
20
40.360739551166901
10
-45.535786038348647
20
45.189166639421224
42
0.19891236134499285
10
-44.949999600721753
20
46.603380155354451
10
-44.949999571242536
20
47.872944934665725
10
-44.95000000000001
20
55.300000000000004
10
-44.95000000000001
20
82.5
10
-44.950382867150012
20
119.55001987190002
42
0.024769493435370125
10
-44.949849358342419
20
119.77921726194616
10
-44.949622617519722
20
119.87662597529564
10
-44.949609354146027
20
121.1461907545376
42
0.1989123613450029
10
-45.535380984357573
20
122.56041040381248
10
-50.363757516777326
20
127.38888804737208
42
0.1989123673796469
10
-51.777964945653714
20
127.9746892923506
10
-60.521113356364182
20
127.97478083662433
42
0.19891236737965284
10
-61.935333052078931
20
127.38900920641321
10
-66.763819406167329
20
122.56062396364712
42
-0.19575337311216509
10
-68.153714974270216
20
121.97500000000004
10
-111.42899634513044
20
121.97499999999998
42
-0.38372803820301055
0
LWPOLYLINE
5
116
100
AcDbEntity
8
0
100
AcDbPolyline
90
4
70
1
43
0.0
10
-66.525000000000006
20
48.299999999999997
10
-80.52500000000002
20
48.299999999999997
10
-80.52500000000002
20
62.300000000000004
10
-66.525000000000006
20
62.300000000000004
0
LWPOLYLINE
5
117
100
AcDbEntity
8
0
100
AcDbPolyline
90
10
70
1
43
0.0
10
-64.13308440944914
20
105.46871330149123
10
-64.13308440944914
20
119.46871330149122
10
-50.133084409449147
20
119.46871330149122
10
-47.475000000000016
20
119.46871330149122
10
-47.475000000000016
20
119.08355471342264
10
-47.475000000000016
20
118.78026233982536
10
-47.475000000000016
20
105.95500000000001
10
-47.475000000000016
20
105.45500000000001
10
-47.975000000000001
20
105.45500000000001
10
-50.133084409449147
20
105.46871330149123
0
CIRCLE
5
118
100
AcDbEntity
8
0
100
AcDbCircle
10
-233.93768981810769
20
42.774971773296535
30
0
40
1.1499999999999844
210
0
220
0
230
1
0
LWPOLYLINE
5
119
100
AcDbEntity
8
0
100
AcDbPolyline
90
4
70
1
43
0.0
10
-209.40000000000001
20
86.400000000000006
10
-223.40000000000003
20
86.400000000000006
10
-223.40000000000003
20
100.40000000000005
10
-209.40000000000001
20
100.40000000000005
0
LINE
5
120
100
AcDbEntity
8
0
100
AcDbLine
10
-159.39375000000001
20
110.21250000000002
30
0
11
-170.03772241108533
21
110.21250000000002
31
0
0
LINE
5
121
100
AcDbEntity
8
0
100
AcDbLine
10
-166.25
20
100.40000000000005
30
0
11
-152.25
21
100.40000000000005
31
0
0
CIRCLE
5
122
100
AcDbEntity
8
0
100
AcDbCircle
10
-56.150000908502911
20
42.774953099608027
30
0
40
1.1500000000000019
210
0
220
0
230
1
0
LINE
5
123
100
AcDbEntity
8
0
100
AcDbLine
10
-166.25
20
86.400000000000006
30
0
11
-166.25
21
100.40000000000005
31
0
0
LINE
5
124
100
AcDbEntity
8
0
100
AcDbLine
10
-152.25
20
86.400000000000006
30
0
11
-166.25
21
86.400000000000006
31
0
0
LINE
5
125
100
AcDbEntity
8
0
100
AcDbLine
10
-140.05625000000003
20
110.21250000000002
30
0
11
-140.05625000000003
21
110.2175
31
0
0
LINE
5
126
100
AcDbEntity
8
0
100
AcDbLine
10
-126.05625000000002
20
110.2175
30
0
11
-126.05625000000002
21
110.21250000000002
31
0
0
LWPOLYLINE
5
127
100
AcDbEntity
8
0
100
AcDbPolyline
90
4
70
1
43
0.0
10
-80.52500000000002
20
62.300000000000004
10
-66.524999999999991
20
62.300000000000004
10
-66.524999999999991
20
48.299999999999997
10
-80.52500000000002
20
48.299999999999997
0
LWPOLYLINE
5
128
100
AcDbEntity
8
0
100
AcDbPolyline
90
4
70
1
43
0.0
10
-99.575000000000017
20
62.300000000000004
10
-85.574999999999989
20
62.300000000000004
10
-85.574999999999989
20
48.299999999999997
10
-99.575000000000017
20
48.299999999999997
0
LWPOLYLINE
5
129
100
AcDbEntity
8
0
100
AcDbPolyline
90
4
70
1
43
0.0
10
-118.625
20
62.300000000000004
10
-104.62499999999999
20
62.300000000000004
10
-104.62499999999999
20
48.299999999999997
10
-118.625
20
48.299999999999997
0
LWPOLYLINE
5
130
100
AcDbEntity
8
0
100
AcDbPolyline
90
4
70
1
43
0.0
10
-137.67500000000001
20
62.300000000000004
10
-123.675
20
62.300000000000004
10
-123.675
20
48.299999999999997
10
-137.67500000000001
20
48.299999999999997
0
LWPOLYLINE
5
131
100
AcDbEntity
8
0
100
AcDbPolyline
90
4
70
1
43
0.0
10
-61.475000000000009
20
81.350000000000023
10
-47.474999999999987
20
81.350000000000023
10
-47.474999999999987
20
67.350000000000009
10
-61.475000000000009
20
67.350000000000009
0
LWPOLYLINE
5
132
100
AcDbEntity
8
0
100
AcDbPolyline
90
4
70
1
43
0.0
10
-80.52500000000002
20
81.350000000000023
10
-66.524999999999991
20
81.350000000000023
10
-66.524999999999991
20
67.350000000000009
10
-80.52500000000002
20
67.350000000000009
0
LWPOLYLINE
5
133
100
AcDbEntity
8
0
100
AcDbPolyline
90
4
70
1
43
0.0
10
-99.575000000000017
20
81.350000000000023
10
-85.574999999999989
20
81.350000000000023
10
-85.574999999999989
20
67.350000000000009
10
-99.575000000000017
20
67.350000000000009
0
LWPOLYLINE
5
134
100
AcDbEntity
8
0
100
AcDbPolyline
90
4
70
1
43
0.0
10
-118.625
20
81.350000000000023
10
-104.62499999999999
20
81.350000000000023
10
-104.62499999999999
20
67.350000000000009
10
-118.625
20
67.350000000000009
0
LWPOLYLINE
5
135
100
AcDbEntity
8
0
100
AcDbPolyline
90
4
70
1
43
0.0
10
-137.67500000000001
20
81.350000000000023
10
-123.675
20
81.350000000000023
10
-123.675
20
67.350000000000009
10
-137.67500000000001
20
67.350000000000009
0
LWPOLYLINE
5
136
100
AcDbEntity
8
0
100
AcDbPolyline
90
4
70
1
43
0.0
10
-61.475000000000009
20
100.40000000000001
10
-47.474999999999987
20
100.40000000000001
10
-47.474999999999987
20
86.400000000000006
10
-61.475000000000009
20
86.400000000000006
0
LWPOLYLINE
5
137
100
AcDbEntity
8
0
100
AcDbPolyline
90
4
70
1
43
0.0
10
-80.52500000000002
20
100.40000000000001
10
-66.524999999999991
20
100.40000000000001
10
-66.524999999999991
20
86.400000000000006
10
-80.52500000000002
20
86.400000000000006
0
LWPOLYLINE
5
138
100
AcDbEntity
8
0
100
AcDbPolyline
90
4
70
1
43
0.0
10
-99.575000000000017
20
100.40000000000001
10
-85.574999999999989
20
100.40000000000001
10
-85.574999999999989
20
86.400000000000006
10
-99.575000000000017
20
86.400000000000006
0
LWPOLYLINE
5
139
100
AcDbEntity
8
0
100
AcDbPolyline
90
4
70
1
43
0.0
10
-118.625
20
100.40000000000001
10
-104.62499999999999
20
100.40000000000001
10
-104.62499999999999
20
86.400000000000006
10
-118.625
20
86.400000000000006
0
LWPOLYLINE
5
140
100
AcDbEntity
8
0
100
AcDbPolyline
90
4
70
1
43
0.0
10
-137.67500000000001
20
100.40000000000001
10
-123.675
20
100.40000000000001
10
-123.675
20
86.400000000000006
10
-137.67500000000001
20
86.400000000000006
0
LWPOLYLINE
5
141
100
AcDbEntity
8
0
100
AcDbPolyline
90
4
70
1
43
0.0
10
-223.40000000000001
20
86.400000000000006
10
-223.40000000000001
20
100.40000000000005
10
-209.39999999999998
20
100.40000000000005
10
-209.39999999999998
20
86.400000000000006
0
LWPOLYLINE
5
142
100
AcDbEntity
8
0
100
AcDbPolyline
90
4
70
1
43
0.0
10
-204.35000000000002
20
86.400000000000006
10
-204.35000000000002
20
100.40000000000005
10
-190.34999999999997
20
100.40000000000005
10
-190.34999999999997
20
86.400000000000006
0
LWPOLYLINE
5
143
100
AcDbEntity
8
0
100
AcDbPolyline
90
4
70
1
43
0.0
10
-185.30000000000001
20
86.400000000000006
10
-185.30000000000001
20
100.40000000000005
10
-171.29999999999998
20
100.40000000000005
10
-171.29999999999998
20
86.400000000000006
0
LWPOLYLINE
5
144
100
AcDbEntity
8
0
100
AcDbPolyline
90
4
70
1
43
0.0
10
-166.25
20
86.400000000000006
10
-166.25
20
100.40000000000005
10
-152.24999999999997
20
100.40000000000005
10
-152.24999999999997
20
86.400000000000006
0
LWPOLYLINE
5
145
100
AcDbEntity
8
0
100
AcDbPolyline
90
4
70
1
43
0.0
10
-242.45000000000002
20
67.350000000000009
10
-242.45000000000002
20
81.350000000000051
10
-228.44999999999999
20
81.350000000000051
10
-228.44999999999999
20
67.350000000000009
0
LWPOLYLINE
5
146
100
AcDbEntity
8
0
100
AcDbPolyline
90
4
70
1
43
0.0
10
-223.40000000000001
20
67.350000000000009
10
-223.40000000000001
20
81.350000000000051
10
-209.39999999999998
20
81.350000000000051
10
-209.39999999999998
20
67.350000000000009
0
LWPOLYLINE
5
147
100
AcDbEntity
8
0
100
AcDbPolyline
90
4
70
1
43
0.0
10
-204.35000000000002
20
67.350000000000009
10
-204.35000000000002
20
81.350000000000051
10
-190.34999999999997
20
81.350000000000051
10
-190.34999999999997
20
67.350000000000009
0
LWPOLYLINE
5
148
100
AcDbEntity
8
0
100
AcDbPolyline
90
4
70
1
43
0.0
10
-185.30000000000001
20
67.350000000000009
10
-185.30000000000001
20
81.350000000000051
10
-171.29999999999998
20
81.350000000000051
10
-171.29999999999998
20
67.350000000000009
0
LWPOLYLINE
5
149
100
AcDbEntity
8
0
100
AcDbPolyline
90
4
70
1
43
0.0
10
-166.25
20
67.350000000000009
10
-166.25
20
81.350000000000051
10
-152.24999999999997
20
81.350000000000051
10
-152.24999999999997
20
67.350000000000009
0
LWPOLYLINE
5
150
100
AcDbEntity
8
0
100
AcDbPolyline
90
4
70
1
43
0.0
10
-242.45000000000002
20
48.299999999999997
10
-242.45000000000002
20
62.30000000000004
10
-228.44999999999999
20
62.30000000000004
10
-228.44999999999999
20
48.299999999999997
0
LWPOLYLINE
5
151
100
AcDbEntity
8
0
100
AcDbPolyline
90
4
70
1
43
0.0
10
-223.40000000000001
20
48.299999999999997
10
-223.40000000000001
20
62.30000000000004
10
-209.39999999999998
20
62.30000000000004
10
-209.39999999999998
20
48.299999999999997
0
LWPOLYLINE
5
152
100
AcDbEntity
8
0
100
AcDbPolyline
90
4
70
1
43
0.0
10
-204.35000000000002
20
48.299999999999997
10
-204.35000000000002
20
62.30000000000004
10
-190.34999999999997
20
62.30000000000004
10
-190.34999999999997
20
48.299999999999997
0
LWPOLYLINE
5
153
100
AcDbEntity
8
0
100
AcDbPolyline
90
4
70
1
43
0.0
10
-185.30000000000001
20
48.299999999999997
10
-185.30000000000001
20
62.30000000000004
10
-171.29999999999998
20
62.30000000000004
10
-171.29999999999998
20
48.299999999999997
0
LWPOLYLINE
5
154
100
AcDbEntity
8
0
100
AcDbPolyline
90
4
70
1
43
0.0
10
-166.25
20
48.299999999999997
10
-166.25
20
62.30000000000004
10
-152.24999999999997
20
62.30000000000004
10
-152.24999999999997
20
48.299999999999997
0
ARC
5
155
100
AcDbEntity
8
0
100
AcDbCircle
10
-170.53750000000002
20
108.71750000000003
30
0
40
0.50000000000000711
210
0
220
0
230
1
100
AcDbArc
50
270.00000000000648
51
360
0
ARC
5
156
100
AcDbEntity
8
0
100
AcDbCircle
10
-176.53750000000008
20
108.71749999999999
30
0
40
0.49999999999997158
210
0
220
0
230
1
100
AcDbArc
50
180
51
270
0
LINE
5
157
100
AcDbEntity
8
0
100
AcDbLine
10
-118.625
20
108.21750000000002
30
0
11
-119.38750000000002
21
108.21750000000002
31
0
0
LINE
5
158
100
AcDbEntity
8
0
100
AcDbLine
10
-119.38750000000002
20
124.21250000000001
30
0
11
-113.91517689971616
21
124.21250000000001
31
0
0
LINE
5
159
100
AcDbEntity
8
0
100
AcDbLine
10
-112.88750000000002
20
122.44454017800591
30
0
11
-112.88750000000002
21
119.45
31
0
0
LINE
5
160
100
AcDbEntity
8
0
100
AcDbLine
10
-170.03772241108533
20
108.71750000000003
30
0
11
-170.03772241108533
21
110.21250000000002
31
0
0
ARC
5
161
100
AcDbEntity
8
0
100
AcDbCircle
10
-170.53772241108533
20
108.7175
30
0
40
0.50000000000000711
210
-0
220
0
230
1
100
AcDbArc
50
-90
51
0
0
ARC
5
162
100
AcDbEntity
8
0
100
AcDbCircle
10
-176.53750000000008
20
108.71749999999999
30
0
40
0.49999999999997158
210
0
220
0
230
1
100
AcDbArc
50
180
51
270.00000000000324
0
ARC
5
163
100
AcDbEntity
8
0
100
AcDbCircle
10
-176.53750000000008
20
123.71250000000003
30
0
40
0.49999999999997158
210
0
220
-0
230
1
100
AcDbArc
50
89.999999999996746
51
180
0
LINE
5
164
100
AcDbEntity
8
0
100
AcDbLine
10
-118.625
20
105.45000000000002
30
0
11
-118.625
21
108.21750000000002
31
0
0
LINE
5
165
100
AcDbEntity
8
0
100
AcDbLine
10
-112.88750000000002
20
119.45
30
0
11
-104.62500000000006
21
119.45
31
0
0
LINE
5
166
100
AcDbEntity
8
0
100
AcDbLine
10
-138.9375
20
109.45750000000001
30
0
11
-138.9375
21
110.2175
31
0
0
LINE
5
167
100
AcDbEntity
8
0
100
AcDbLine
10
-131.9375
20
110.2175
30
0
11
-131.9375
21
109.45750000000001
31
0
0
LINE
5
168
100
AcDbEntity
8
0
100
AcDbLine
10
-126.05625000000002
20
110.2175
30
0
11
-131.9375
21
110.2175
31
0
0
LINE
5
169
100
AcDbEntity
8
0
100
AcDbLine
10
-138.9375
20
110.2175
30
0
11
-151.96250000000003
21
110.2175
31
0
0
ARC
5
170
100
AcDbEntity
8
0
100
AcDbCircle
10
-132.43750000000003
20
109.45750000000001
30
0
40
0.50000000000000711
210
-0
220
0
230
1
100
AcDbArc
50
-90
51
0
0
ARC
5
171
100
AcDbEntity
8
0
100
AcDbCircle
10
-138.4375
20
109.45750000000001
30
0
40
0.50000000000000711
210
0
220
0
230
1
100
AcDbArc
50
180
51
270
0
LINE
5
172
100
AcDbEntity
8
0
100
AcDbLine
10
-132.43750000000003
20
108.9575
30
0
11
-138.4375
21
108.9575
31
0
0
LINE
5
173
100
AcDbEntity
8
0
100
AcDbLine
10
-47.475000000000016
20
119.46871330149122
30
0
11
-50.133084409449147
21
119.46871330149122
31
0
0
LINE
5
174
100
AcDbEntity
8
0
100
AcDbLine
10
-99.075000000000003
20
105.45000000000002
30
0
11
-104.62500000000006
21
105.45000000000002
31
0
0
LINE
5
175
100
AcDbEntity
8
0
100
AcDbLine
10
-66.52500000000002
20
105.45500000000001
30
0
11
-66.52500000000002
21
105.95500000000001
31
0
0
LINE
5
176
100
AcDbEntity
8
0
100
AcDbLine
10
-72.365507467533789
20
119.45
30
0
11
-66.52500000000002
21
119.45
31
0
0
LINE
5
177
100
AcDbEntity
8
0
100
AcDbLine
10
-151.96250000000003
20
110.2175
30
0
11
-159.39375000000001
21
110.21250000000002
31
0
0
LINE
5
178
100
AcDbEntity
8
0
100
AcDbLine
10
-71.287499999999994
20
105.45500000000001
30
0
11
-85.287499999999994
21
105.45000000000002
31
0
0
LINE
5
179
100
AcDbEntity
8
0
100
AcDbLine
10
-85.287499999999994
20
119.45
30
0
11
-85.575000000000031
21
119.45
31
0
0
LINE
5
180
100
AcDbEntity
8
0
100
AcDbLine
10
-85.287499999999994
20
105.45000000000002
30
0
11
-85.575000000000031
21
105.45000000000002
31
0
0
LINE
5
181
100
AcDbEntity
8
0
100
AcDbLine
10
-71.287499999999994
20
105.45500000000001
30
0
11
-66.52500000000002
21
105.45500000000001
31
0
0
LINE
5
182
100
AcDbEntity
8
0
100
AcDbLine
10
-99.075000000000003
20
105.45000000000002
30
0
11
-85.575000000000031
21
105.45000000000002
31
0
0
LINE
5
183
100
AcDbEntity
8
0
100
AcDbLine
10
-118.625
20
105.45000000000002
30
0
11
-104.62500000000006
21
105.45000000000002
31
0
0
LINE
5
184
100
AcDbEntity
8
0
100
AcDbLine
10
-119.88750000000003
20
110.2175
30
0
11
-119.88750000000003
21
108.7175
31
0
0
ARC
5
185
100
AcDbEntity
8
0
100
AcDbCircle
10
-119.38750000000002
20
108.71750000000003
30
0
40
0.50000000000000711
210
0
220
0
230
1
100
AcDbArc
50
180
51
270
0
LINE
5
186
100
AcDbEntity
8
0
100
AcDbLine
10
-66.52500000000002
20
119.45
30
0
11
-66.52500000000002
21
105.95500000000001
31
0
0
LINE
5
187
100
AcDbEntity
8
0
100
AcDbLine
10
-92.71875
20
119.45
30
0
11
-85.575000000000031
21
119.45
31
0
0
LINE
5
188
100
AcDbEntity
8
0
100
AcDbLine
10
-177.03750000000008
20
123.71250000000001
30
0
11
-177.03750000000008
21
109.00000162422657
31
0
0
LINE
5
189
100
AcDbEntity
8
0
100
AcDbLine
10
-176.53750000000005
20
124.21250000000001
30
0
11
-160.98750000000001
21
124.21249999999999
31
0
0
LINE
5
190
100
AcDbEntity
8
0
100
AcDbLine
10
-160.98750000000001
20
124.21249999999999
30
0
11
-151.96250000000003
21
124.21250000000001
31
0
0
LINE
5
191
100
AcDbEntity
8
0
100
AcDbLine
10
-151.96250000000003
20
124.21250000000001
30
0
11
-140.05625000000003
21
124.21250000000001
31
0
0
LINE
5
192
100
AcDbEntity
8
0
100
AcDbLine
10
-176.53750000000005
20
108.21750000000002
30
0
11
-170.53772241108533
21
108.2175
31
0
0
LINE
5
193
100
AcDbEntity
8
0
100
AcDbLine
10
-177.03750000000008
20
109.00000162422657
30
0
11
-177.03750000000008
21
108.71750000000003
31
0
0
LINE
5
194
100
AcDbEntity
8
0
100
AcDbLine
10
-126.05625000000002
20
110.2175
30
0
11
-119.88750000000003
21
110.2175
31
0
0
LINE
5
195
100
AcDbEntity
8
0
100
AcDbLine
10
-118.29905834962068
20
124.21250000000001
30
0
11
-126.05625000000002
21
124.21250000000001
31
0
0
ENDSEC
0
SECTION
2
OBJECTS
0
DICTIONARY
5
C
100
AcDbDictionary
3
ACAD_GROUP
350
D
3
ACAD_MLINESTYLE
350
17
0
DICTIONARY
5
D
100
AcDbDictionary
0
DICTIONARY
5
1A
330
C
100
AcDbDictionary
0
DICTIONARY
5
17
100
AcDbDictionary
0
ENDSEC
0
EOF
