0
SECTION
2
HEADER
9
$INSUNITS
70
4
9
$ACADVER
1
AC1014
9
$HANDSEED
5
FFFF
0
ENDSEC
0
SECTION
2
TABLES
0
TABLE
2
VPORT
5
8
100
AcDbSymbolTable
0
ENDTAB
0
TABLE
2
LTYPE
5
5
100
AcDbSymbolTable
0
LTYPE
5
14
100
AcDbSymbolTableRecord
100
AcDbLinetypeTableRecord
2
BYBLOCK
70
0
0
LTYPE
5
15
100
AcDbSymbolTableRecord
100
AcDbLinetypeTableRecord
2
BYLAYER
70
0
0
ENDTAB
0
TABLE
2
LAYER
5
2
100
AcDbSymbolTable
70
2
0
LAYER
5
50
100
AcDbSymbolTableRecord
100
AcDbLayerTableRecord
2
0
70
0
6
CONTINUOUS
0
ENDTAB
0
TABLE
2
STYLE
5
3
100
AcDbSymbolTable
70
1
0
STYLE
5
11
100
AcDbSymbolTableRecord
100
AcDbTextStyleTableRecord
2
STANDARD
70
0
0
ENDTAB
0
TABLE
2
VIEW
5
6
100
AcDbSymbolTable
70
0
0
ENDTAB
0
TABLE
2
UCS
5
7
100
AcDbSymbolTable
70
0
0
ENDTAB
0
TABLE
2
APPID
5
9
100
AcDbSymbolTable
70
2
0
APPID
5
12
100
AcDbSymbolTableRecord
100
AcDbRegAppTableRecord
2
ACAD
70
0
0
ENDTAB
0
TABLE
2
DIMSTYLE
5
A
100
AcDbSymbolTable
70
1
0
ENDTAB
0
TABLE
2
BLOCK_RECORD
5
1
100
AcDbSymbolTable
70
1
0
BLOCK_RECORD
5
1F
100
AcDbSymbolTableRecord
100
AcDbBlockTableRecord
2
*MODEL_SPACE
0
BLOCK_RECORD
5
1B
100
AcDbSymbolTableRecord
100
AcDbBlockTableRecord
2
*PAPER_SPACE
0
ENDTAB
0
ENDSEC
0
SECTION
2
BLOCKS
0
BLOCK
5
20
100
AcDbEntity
100
AcDbBlockBegin
2
*MODEL_SPACE
0
ENDBLK
5
21
100
AcDbEntity
100
AcDbBlockEnd
0
BLOCK
5
1C
100
AcDbEntity
100
AcDbBlockBegin
2
*PAPER_SPACE
0
ENDBLK
5
1D
100
AcDbEntity
100
AcDbBlockEnd
0
ENDSEC
0
SECTION
2
ENTITIES
0
LWPOLYLINE
5
100
100
AcDbEntity
8
0
100
AcDbPolyline
90
45
70
1
43
0.0
10
-11.935333052078931
20
77.389009206413206
10
-16.763819406167329
20
72.560623963647117
42
-0.19575337311216509
10
-18.153714974270223
20
71.975000000000037
10
-61.428996345130443
20
71.97499999999998
42
-0.38372803820301055
10
-63.915176899716158
20
74.212500000000006
42
0.41742822642572636
10
-66.428741268110542
20
76.73750293542831
10
-133.02074587268226
20
76.736723122316306
42
0.41421356237307005
10
-135.52071671951833
20
74.236693969492222
10
-135.52071949879544
20
74.475029447305189
42
-0.41421741839010473
10
-138.02072325875042
20
71.975000294314114
10
-172.06977730835391
20
71.975051505795733
42
-0.19891469765950687
10
-173.48400266993303
20
72.560852750881651
10
-178.31380003391146
20
77.390751255753628
42
0.19891236737963014
10
-179.72800746278801
20
77.97655250073214
10
-188.1464534384173
20
77.976640645240991
42
0.19891236737964538
10
-189.56067313413203
20
77.390869015029949
10
-194.38918336243304
20
72.562459898551168
42
0.19891236737968107
10
-194.97498460741159
20
71.148252469674773
10
-194.97537486460999
20
-3.3965872138054642
42
0.19891236737967841
10
-194.38958842698312
20
-4.810800776178521
10
-189.56112875432848
20
-9.6392604488331202
42
0.19891236737964499
10
-188.14691519195549
20
-10.225046886460024
10
-179.72846921586452
20
-10.225046886460003
42
0.19891236737967213
10
-178.31425565349144
20
-9.6392604488331379
10
-173.48578663625713
20
-4.8107914315987532
42
-0.19891242969309719
10
-172.07157259434979
20
-4.2250049939719059
10
-18.178429349656966
20
-4.2250468864600066
42
-0.19891236737949464
10
-16.764215787285075
20
-4.8108333240869072
10
-11.935788662538886
20
-9.6392604488331202
42
0.19891236737964837
10
-10.521575100165812
20
-10.225046886460003
10
-1.7784266889760758
20
-10.225046886460003
42
0.19891236737966511
10
-0.36421312660298355
20
-9.6392604488331024
10
4.4642139616513532
20
-4.8108333605787745
42
0.19891236134499285
10
5.050000399278245
20
-3.3966198446455476
10
5.050000428757464
20
-2.1270550653342735
10
5.0499999999999901
20
5.3000000000000025
10
5.0499999999999901
20
32.5
10
5.0496171328499884
20
69.55001987190002
42
0.024769493435370125
10
5.0501506416575825
20
69.779217261946158
10
5.0503773824802778
20
69.876625975295639
10
5.0503906458539749
20
71.146190754537599
42
0.1989123613450029
10
4.4646190156424304
20
72.560410403812483
10
-0.36375751677732993
20
77.388888047372077
42
0.1989123673796469
10
-1.7779649456537161
20
77.974689292350604
10
-10.521113356364182
20
77.974780836624333
42
0.19891236737965284
0
LINE
5
101
100
AcDbEntity
8
0
100
AcDbLine
10
-90.056250000000034
20
60.21250000000002
30
0
11
-90.056250000000034
21
60.217500000000008
31
0
0
LWPOLYLINE
5
102
100
AcDbEntity
8
0
100
AcDbPolyline
90
4
70
1
43
0.0
10
-87.875000000000014
20
36.200000000000003
10
-87.875000000000014
20
50.600000000000009
10
-73.474999999999994
20
50.600000000000009
10
-73.474999999999994
20
36.200000000000003
0
LWPOLYLINE
5
103
100
AcDbEntity
8
0
100
AcDbPolyline
90
4
70
1
43
0.0
10
-54.42499999999999
20
50.600000000000009
10
-54.42499999999999
20
36.200000000000003
10
-68.825000000000003
20
36.200000000000003
10
-68.825000000000003
20
50.600000000000009
0
LWPOLYLINE
5
104
100
AcDbEntity
8
0
100
AcDbPolyline
90
4
70
1
43
0.0
10
-49.775000000000006
20
50.600000000000009
10
-35.374999999999993
20
50.600000000000009
10
-35.374999999999993
20
36.200000000000003
10
-49.775000000000006
20
36.200000000000003
0
LWPOLYLINE
5
105
100
AcDbEntity
8
0
100
AcDbPolyline
90
4
70
1
43
0.0
10
-30.725000000000019
20
50.600000000000009
10
-16.324999999999989
20
50.600000000000009
10
-16.324999999999989
20
36.200000000000003
10
-30.725000000000019
20
36.200000000000003
0
LWPOLYLINE
5
106
100
AcDbEntity
8
0
100
AcDbPolyline
90
4
70
1
43
0.0
10
-11.675000000000008
20
50.600000000000009
10
2.725000000000013
20
50.600000000000009
10
2.725000000000013
20
36.200000000000003
10
-11.675000000000008
20
36.200000000000003
0
LINE
5
107
100
AcDbEntity
8
0
100
AcDbLine
10
2.7249999999999863
20
69.083554713422643
30
0
11
2.7249999999999863
21
68.780262339825356
31
0
0
LINE
5
108
100
AcDbEntity
8
0
100
AcDbLine
10
2.7249999999999863
20
68.780262339825356
30
0
11
2.7249999999999863
21
55.955000000000013
31
0
0
LINE
5
109
100
AcDbEntity
8
0
100
AcDbLine
10
2.7249999999999859
20
55.268713301491239
30
0
11
2.7249999999999863
21
55.955000000000013
31
0
0
LINE
5
110
100
AcDbEntity
8
0
100
AcDbLine
10
-0.13371984164140929
20
55.268713301491239
30
0
11
-14.333084409449143
21
55.268713301491239
31
0
0
LINE
5
111
100
AcDbEntity
8
0
100
AcDbLine
10
-14.333084409449143
20
55.268713301491239
30
0
11
-14.333084409449143
21
69.668713301491209
31
0
0
LINE
5
112
100
AcDbEntity
8
0
100
AcDbLine
10
-14.333084409449143
20
69.668713301491209
30
0
11
-0.13308440944914679
21
69.668713301491209
31
0
0
LINE
5
113
100
AcDbEntity
8
0
100
AcDbLine
10
-16.325000000000024
20
69.650000000000006
30
0
11
-16.325000000000024
21
55.955000000000013
31
0
0
LINE
5
114
100
AcDbEntity
8
0
100
AcDbLine
10
-16.325000000000024
20
55.25500000000001
30
0
11
-16.325000000000024
21
55.955000000000013
31
0
0
LINE
5
115
100
AcDbEntity
8
0
100
AcDbLine
10
-21.287464285698448
20
55.25500000000001
30
0
11
-16.325000000000024
21
55.25500000000001
31
0
0
LINE
5
116
100
AcDbEntity
8
0
100
AcDbLine
10
-21.287464285698448
20
55.25500000000001
30
0
11
-35.287464285698434
21
55.250000000000021
31
0
0
LINE
5
117
100
AcDbEntity
8
0
100
AcDbLine
10
-35.287464285698434
20
55.250000000000021
30
0
11
-35.575000000000031
21
55.250000000000021
31
0
0
LINE
5
118
100
AcDbEntity
8
0
100
AcDbLine
10
-49.075000000000003
20
55.250000000000021
30
0
11
-35.575000000000031
21
55.250000000000021
31
0
0
LINE
5
119
100
AcDbEntity
8
0
100
AcDbLine
10
-49.075000000000003
20
55.250000000000021
30
0
11
-54.625000000000057
21
55.250000000000021
31
0
0
LINE
5
120
100
AcDbEntity
8
0
100
AcDbLine
10
-68.825000000000003
20
55.250000000000021
30
0
11
-54.625000000000057
21
55.250000000000021
31
0
0
LINE
5
121
100
AcDbEntity
8
0
100
AcDbLine
10
-68.825000000000003
20
55.250000000000021
30
0
11
-68.825000000000003
21
58.01750000000002
31
0
0
LINE
5
122
100
AcDbEntity
8
0
100
AcDbLine
10
-68.825000000000003
20
58.01750000000002
30
0
11
-69.387500000000017
21
58.01750000000002
31
0
0
LINE
5
123
100
AcDbEntity
8
0
100
AcDbLine
10
-56.71875
20
69.650000000000006
30
0
11
-42.71875
21
69.650000000000006
31
0
0
LINE
5
124
100
AcDbEntity
8
0
100
AcDbLine
10
-42.71875
20
69.650000000000006
30
0
11
-35.575000000000031
21
69.650000000000006
31
0
0
LINE
5
125
100
AcDbEntity
8
0
100
AcDbLine
10
-35.287499999999987
20
69.650000000000006
30
0
11
-35.575000000000031
21
69.650000000000006
31
0
0
LINE
5
126
100
AcDbEntity
8
0
100
AcDbLine
10
-35.287499999999987
20
69.650000000000006
30
0
11
-21.287500000000001
21
69.650000000000006
31
0
0
LINE
5
127
100
AcDbEntity
8
0
100
AcDbLine
10
-62.687500000000028
20
72.444540178005909
30
0
11
-62.687500000000028
21
69.650000000000006
31
0
0
LINE
5
128
100
AcDbEntity
8
0
100
AcDbLine
10
-69.387500000000017
20
74.412499999999994
30
0
11
-63.915176899716158
21
74.412499999999994
31
0
0
ARC
5
129
100
AcDbEntity
8
0
100
AcDbCircle
10
-69.387500000000017
20
73.712500000000006
30
0
40
0.70000000000000284
210
0
220
-0
230
1
100
AcDbArc
50
90
51
180
0
LINE
5
130
100
AcDbEntity
8
0
100
AcDbLine
10
-70.087500000000034
20
73.71250000000002
30
0
11
-70.087500000000034
21
58.717500000000001
31
0
0
ARC
5
131
100
AcDbEntity
8
0
100
AcDbCircle
10
-69.387500000000017
20
58.717500000000022
30
0
40
0.70000000000000284
210
0
220
0
230
1
100
AcDbArc
50
180
51
270
0
LINE
5
132
100
AcDbEntity
8
0
100
AcDbLine
10
-56.71875
20
69.650000000000006
30
0
11
-62.687500000000028
21
69.650000000000006
31
0
0
LINE
5
133
100
AcDbEntity
8
0
100
AcDbLine
10
-21.287500000000001
20
69.650000000000006
30
0
11
-16.325000000000024
21
69.650000000000006
31
0
0
LINE
5
134
100
AcDbEntity
8
0
100
AcDbLine
10
-0.13371984164140929
20
55.268713301491239
30
0
11
2.7250328912181492
21
55.268713301491239
31
0
0
LINE
5
135
100
AcDbEntity
8
0
100
AcDbLine
10
-0.13308440944914679
20
69.668713301491209
30
0
11
2.7249999999999863
21
69.668713301491209
31
0
0
LINE
5
136
100
AcDbEntity
8
0
100
AcDbLine
10
2.7249999999999863
20
69.668713301491209
30
0
11
2.7249999999999863
21
69.083554713422643
31
0
0
LWPOLYLINE
5
137
100
AcDbEntity
8
0
100
AcDbPolyline
90
21
70
1
43
0.0
10
-75.856250000000017
20
60.017500000000013
10
-75.856250000000017
20
74.412499999999994
10
-90.056250000000034
20
74.412499999999994
10
-101.96250000000005
20
74.412499999999994
10
-110.98750000000003
20
74.41249999999998
10
-126.53750000000005
20
74.412499999999994
42
0.41421356237312845
10
-127.23750000000007
20
73.712499999999991
10
-127.23750000000007
20
59.00000162422657
10
-127.23750000000007
20
58.717500000000022
42
0.41421356237313217
10
-126.53750000000004
20
58.01750000000002
10
-120.53772241108533
20
58.017499999999998
42
0.41421356237310619
10
-119.83772241108532
20
58.71750000000003
10
-119.83772241108532
20
60.012500000000024
10
-109.39368271656471
20
60.012500000000024
10
-101.96243271656473
20
60.017500000000013
10
-89.137500000000003
20
60.017500000000013
10
-89.137500000000003
20
59.457500000000003
42
0.41421356237309509
10
-88.4375
20
58.7575
10
-82.437500000000028
20
58.7575
42
0.41421356237309509
10
-81.737500000000011
20
59.457500000000003
10
-81.737500000000011
20
60.017500000000013
0
LWPOLYLINE
5
138
100
AcDbEntity
8
0
100
AcDbPolyline
90
4
70
1
43
0.0
10
-154.55000000000001
20
69.650000000000006
10
-140.15000000000001
20
69.650000000000006
10
-140.15000000000001
20
55.250000000000021
10
-154.55000000000001
20
55.250000000000021
0
LWPOLYLINE
5
139
100
AcDbEntity
8
0
100
AcDbPolyline
90
4
70
1
43
0.0
10
-173.60000000000002
20
69.650000000000006
10
-159.20000000000002
20
69.650000000000006
10
-159.20000000000002
20
55.250000000000021
10
-173.60000000000002
20
55.250000000000021
0
LWPOLYLINE
5
140
100
AcDbEntity
8
0
100
AcDbPolyline
90
4
70
1
43
0.0
10
-192.65000000000001
20
69.650000000000006
10
-178.25
20
69.650000000000006
10
-178.25
20
55.250000000000021
10
-192.65000000000001
20
55.250000000000021
0
LWPOLYLINE
5
141
100
AcDbEntity
8
0
100
AcDbPolyline
90
4
70
1
43
0.0
10
-116.44999999999999
20
36.200000000000003
10
-116.44999999999999
20
50.600000000000037
10
-102.04999999999998
20
50.600000000000037
10
-102.04999999999998
20
36.200000000000003
0
LWPOLYLINE
5
142
100
AcDbEntity
8
0
100
AcDbPolyline
90
4
70
1
43
0.0
10
-135.5
20
36.200000000000024
10
-135.5
20
50.600000000000009
10
-121.10000000000002
20
50.600000000000009
10
-121.10000000000002
20
36.200000000000024
0
LWPOLYLINE
5
143
100
AcDbEntity
8
0
100
AcDbPolyline
90
4
70
1
43
0.0
10
-154.55000000000001
20
36.200000000000003
10
-154.55000000000001
20
50.600000000000037
10
-140.14999999999998
20
50.600000000000037
10
-140.14999999999998
20
36.200000000000003
0
LWPOLYLINE
5
144
100
AcDbEntity
8
0
100
AcDbPolyline
90
4
70
1
43
0.0
10
-173.59999999999999
20
36.200000000000003
10
-173.59999999999999
20
50.600000000000037
10
-159.19999999999999
20
50.600000000000037
10
-159.19999999999999
20
36.200000000000003
0
LWPOLYLINE
5
145
100
AcDbEntity
8
0
100
AcDbPolyline
90
4
70
1
43
0.0
10
-192.65000000000001
20
36.200000000000003
10
-192.65000000000001
20
50.600000000000037
10
-178.25
20
50.600000000000037
10
-178.25
20
36.200000000000003
0
LWPOLYLINE
5
146
100
AcDbEntity
8
0
100
AcDbPolyline
90
4
70
1
43
0.0
10
2.725000000000013
20
17.150000000000002
10
-11.675000000000008
20
17.150000000000002
10
-11.675000000000008
20
31.550000000000015
10
2.725000000000013
20
31.550000000000015
0
LWPOLYLINE
5
147
100
AcDbEntity
8
0
100
AcDbPolyline
90
4
70
1
43
0.0
10
-16.324999999999989
20
31.550000000000015
10
-16.324999999999989
20
17.150000000000002
10
-30.725000000000019
20
17.150000000000002
10
-30.725000000000019
20
31.550000000000015
0
LWPOLYLINE
5
148
100
AcDbEntity
8
0
100
AcDbPolyline
90
4
70
1
43
0.0
10
-49.775000000000006
20
17.150000000000002
10
-49.775000000000006
20
31.550000000000015
10
-35.374999999999993
20
31.550000000000015
10
-35.374999999999993
20
17.150000000000002
0
LWPOLYLINE
5
149
100
AcDbEntity
8
0
100
AcDbPolyline
90
4
70
1
43
0.0
10
-68.825000000000003
20
17.150000000000002
10
-68.825000000000003
20
31.550000000000015
10
-54.42499999999999
20
31.550000000000015
10
-54.42499999999999
20
17.150000000000002
0
LWPOLYLINE
5
150
100
AcDbEntity
8
0
100
AcDbPolyline
90
4
70
1
43
0.0
10
-87.875000000000014
20
17.150000000000002
10
-87.875000000000014
20
31.550000000000015
10
-73.474999999999994
20
31.550000000000015
10
-73.474999999999994
20
17.150000000000002
0
LWPOLYLINE
5
151
100
AcDbEntity
8
0
100
AcDbPolyline
90
4
70
1
43
0.0
10
-116.44999999999999
20
31.55000000000005
10
-102.04999999999998
20
31.55000000000005
10
-102.04999999999998
20
17.150000000000002
10
-116.44999999999999
20
17.150000000000002
0
LWPOLYLINE
5
152
100
AcDbEntity
8
0
100
AcDbPolyline
90
4
70
1
43
0.0
10
-135.5
20
17.150000000000002
10
-135.5
20
31.55000000000005
10
-121.09999999999999
20
31.55000000000005
10
-121.09999999999999
20
17.150000000000002
0
LWPOLYLINE
5
153
100
AcDbEntity
8
0
100
AcDbPolyline
90
4
70
1
43
0.0
10
-154.55000000000001
20
17.150000000000002
10
-154.55000000000001
20
31.55000000000005
10
-140.14999999999998
20
31.55000000000005
10
-140.14999999999998
20
17.150000000000002
0
LWPOLYLINE
5
154
100
AcDbEntity
8
0
100
AcDbPolyline
90
4
70
1
43
0.0
10
-173.59999999999999
20
17.150000000000002
10
-173.59999999999999
20
31.55000000000005
10
-159.19999999999999
20
31.55000000000005
10
-159.19999999999999
20
17.150000000000002
0
LWPOLYLINE
5
155
100
AcDbEntity
8
0
100
AcDbPolyline
90
4
70
1
43
0.0
10
-192.65000000000001
20
17.150000000000002
10
-192.65000000000001
20
31.55000000000005
10
-178.25
20
31.55000000000005
10
-178.25
20
17.150000000000002
0
LWPOLYLINE
5
156
100
AcDbEntity
8
0
100
AcDbPolyline
90
4
70
1
43
0.0
10
-192.65000000000001
20
-1.8999999999999995
10
-192.65000000000001
20
12.500000000000039
10
-178.25
20
12.500000000000039
10
-178.25
20
-1.8999999999999995
0
LWPOLYLINE
5
157
100
AcDbEntity
8
0
100
AcDbPolyline
90
4
70
1
43
0.0
10
-173.59999999999999
20
-1.8999999999999995
10
-173.59999999999999
20
12.500000000000039
10
-159.19999999999999
20
12.500000000000039
10
-159.19999999999999
20
-1.8999999999999995
0
LWPOLYLINE
5
158
100
AcDbEntity
8
0
100
AcDbPolyline
90
4
70
1
43
0.0
10
-140.14999999999998
20
12.500000000000039
10
-140.14999999999998
20
-1.8999999999999995
10
-154.55000000000001
20
-1.8999999999999995
10
-154.55000000000001
20
12.500000000000039
0
LWPOLYLINE
5
159
100
AcDbEntity
8
0
100
AcDbPolyline
90
4
70
1
43
0.0
10
-102.04999999999998
20
12.500000000000039
10
-102.04999999999998
20
-1.8999999999999995
10
-116.44999999999999
20
-1.8999999999999995
10
-116.44999999999999
20
12.500000000000039
0
LWPOLYLINE
5
160
100
AcDbEntity
8
0
100
AcDbPolyline
90
4
70
1
43
0.0
10
-135.5
20
-1.8999999999999995
10
-135.5
20
12.500000000000039
10
-121.09999999999999
20
12.500000000000039
10
-121.09999999999999
20
-1.8999999999999995
0
LWPOLYLINE
5
161
100
AcDbEntity
8
0
100
AcDbPolyline
90
4
70
1
43
0.0
10
2.725000000000013
20
12.500000000000004
10
2.725000000000013
20
-1.8999999999999995
10
-11.675000000000008
20
-1.8999999999999995
10
-11.675000000000008
20
12.500000000000004
0
LWPOLYLINE
5
162
100
AcDbEntity
8
0
100
AcDbPolyline
90
4
70
1
43
0.0
10
-30.725000000000019
20
-1.8999999999999995
10
-30.725000000000019
20
12.500000000000004
10
-16.325000000000006
20
12.500000000000004
10
-16.325000000000006
20
-1.8999999999999995
0
LWPOLYLINE
5
163
100
AcDbEntity
8
0
100
AcDbPolyline
90
4
70
1
43
0.0
10
-49.775000000000006
20
-1.8999999999999995
10
-49.775000000000006
20
12.500000000000004
10
-35.375000000000028
20
12.500000000000004
10
-35.375000000000028
20
-1.8999999999999995
0
LWPOLYLINE
5
164
100
AcDbEntity
8
0
100
AcDbPolyline
90
4
70
1
43
0.0
10
-68.825000000000003
20
-1.8999999999999995
10
-68.825000000000003
20
12.500000000000004
10
-54.42499999999999
20
12.500000000000004
10
-54.42499999999999
20
-1.8999999999999995
0
LWPOLYLINE
5
165
100
AcDbEntity
8
0
100
AcDbPolyline
90
4
70
1
43
0.0
10
-87.875000000000014
20
-1.8999999999999995
10
-87.875000000000014
20
12.500000000000004
10
-73.474999999999994
20
12.500000000000004
10
-73.474999999999994
20
-1.8999999999999995
0
CIRCLE
5
166
100
AcDbEntity
8
0
100
AcDbCircle
10
-6.1500009085029106
20
-7.2250469003919715
30
0
40
1.3500000000000023
210
0
220
0
230
1
0
CIRCLE
5
167
100
AcDbEntity
8
0
100
AcDbCircle
10
-6.1495705761451092
20
74.974735078584018
30
0
40
1.3500000000000023
210
0
220
0
230
1
0
CIRCLE
5
168
100
AcDbEntity
8
0
100
AcDbCircle
10
-183.93725947619998
20
74.976577913369539
30
0
40
1.3499999999999845
210
0
220
0
230
1
0
CIRCLE
5
169
100
AcDbEntity
8
0
100
AcDbCircle
10
-183.93768981810769
20
-7.2250282267034649
30
0
40
1.3499999999999845
210
0
220
0
230
1
0
ENDSEC
0
SECTION
2
OBJECTS
0
DICTIONARY
5
C
100
AcDbDictionary
3
ACAD_GROUP
350
D
3
ACAD_MLINESTYLE
350
17
0
DICTIONARY
5
D
100
AcDbDictionary
0
DICTIONARY
5
1A
330
C
100
AcDbDictionary
0
DICTIONARY
5
17
100
AcDbDictionary
0
ENDSEC
0
EOF
