  0
SECTION
  2
HEADER
  9
$ACADVER
  1
AC1032
  9
$ACADMAINTVER
 90
      228
  9
$DWGCODEPAGE
  3
ANSI_1252
  9
$REQUIREDVERSIONS
160
                 0
  9
$INSBASE
 10
0.0
 20
0.0
 30
0.0
  9
$EXTMIN
 10
1.000000000000000E+20
 20
1.000000000000000E+20
 30
1.000000000000000E+20
  9
$EXTMAX
 10
-1.000000000000000E+20
 20
-1.000000000000000E+20
 30
-1.000000000000000E+20
  9
$LIMMIN
 10
0.0
 20
0.0
  9
$LIMMAX
 10
12.0
 20
9.0
  9
$ORTHOMODE
 70
     0
  9
$REGENMODE
 70
     1
  9
$FILLMODE
 70
     1
  9
$QTEXTMODE
 70
     0
  9
$MIRRTEXT
 70
     0
  9
$LTSCALE
 40
1.0
  9
$ATTMODE
 70
     1
  9
$TEXTSIZE
 40
0.2
  9
$TRACEWID
 40
0.05
  9
$TEXTSTYLE
  7
Standard
  9
$CLAYER
  8
0
  9
$CELTYPE
  6
ByLayer
  9
$CECOLOR
 62
   256
  9
$CELTSCALE
 40
1.0
  9
$DISPSILH
 70
     0
  9
$DIMSCALE
 40
1.0
  9
$DIMASZ
 40
0.18
  9
$DIMEXO
 40
0.0625
  9
$DIMDLI
 40
0.38
  9
$DIMRND
 40
0.0
  9
$DIMDLE
 40
0.0
  9
$DIMEXE
 40
0.18
  9
$DIMTP
 40
0.0
  9
$DIMTM
 40
0.0
  9
$DIMTXT
 40
0.18
  9
$DIMCEN
 40
0.09
  9
$DIMTSZ
 40
0.0
  9
$DIMTOL
 70
     0
  9
$DIMLIM
 70
     0
  9
$DIMTIH
 70
     1
  9
$DIMTOH
 70
     1
  9
$DIMSE1
 70
     0
  9
$DIMSE2
 70
     0
  9
$DIMTAD
 70
     0
  9
$DIMZIN
 70
     0
  9
$DIMBLK
  1

  9
$DIMASO
 70
     1
  9
$DIMSHO
 70
     1
  9
$DIMPOST
  1

  9
$DIMAPOST
  1

  9
$DIMALT
 70
     0
  9
$DIMALTD
 70
     2
  9
$DIMALTF
 40
25.4
  9
$DIMLFAC
 40
1.0
  9
$DIMTOFL
 70
     0
  9
$DIMTVP
 40
0.0
  9
$DIMTIX
 70
     0
  9
$DIMSOXD
 70
     0
  9
$DIMSAH
 70
     0
  9
$DIMBLK1
  1

  9
$DIMBLK2
  1

  9
$DIMSTYLE
  2
Standard
  9
$DIMCLRD
 70
     0
  9
$DIMCLRE
 70
     0
  9
$DIMCLRT
 70
     0
  9
$DIMTFAC
 40
1.0
  9
$DIMGAP
 40
0.09
  9
$DIMJUST
 70
     0
  9
$DIMSD1
 70
     0
  9
$DIMSD2
 70
     0
  9
$DIMTOLJ
 70
     1
  9
$DIMTZIN
 70
     0
  9
$DIMALTZ
 70
     0
  9
$DIMALTTZ
 70
     0
  9
$DIMUPT
 70
     0
  9
$DIMDEC
 70
     4
  9
$DIMTDEC
 70
     4
  9
$DIMALTU
 70
     2
  9
$DIMALTTD
 70
     2
  9
$DIMTXSTY
  7
Standard
  9
$DIMAUNIT
 70
     0
  9
$DIMADEC
 70
     0
  9
$DIMALTRND
 40
0.0
  9
$DIMAZIN
 70
     0
  9
$DIMDSEP
 70
    46
  9
$DIMATFIT
 70
     3
  9
$DIMFRAC
 70
     0
  9
$DIMLDRBLK
  1

  9
$DIMLUNIT
 70
     2
  9
$DIMLWD
 70
    -2
  9
$DIMLWE
 70
    -2
  9
$DIMTMOVE
 70
     0
  9
$DIMFXL
 40
1.0
  9
$DIMFXLON
 70
     0
  9
$DIMJOGANG
 40
0.7853981633974483
  9
$DIMTFILL
 70
     0
  9
$DIMTFILLCLR
 70
     0
  9
$DIMARCSYM
 70
     0
  9
$DIMLTYPE
  6

  9
$DIMLTEX1
  6

  9
$DIMLTEX2
  6

  9
$DIMTXTDIRECTION
 70
     0
  9
$LUNITS
 70
     2
  9
$LUPREC
 70
     4
  9
$SKETCHINC
 40
0.1
  9
$FILLETRAD
 40
0.0
  9
$AUNITS
 70
     0
  9
$AUPREC
 70
     0
  9
$MENU
  1
.
  9
$ELEVATION
 40
0.0
  9
$PELEVATION
 40
0.0
  9
$THICKNESS
 40
0.0
  9
$LIMCHECK
 70
     0
  9
$CHAMFERA
 40
0.0
  9
$CHAMFERB
 40
0.0
  9
$CHAMFERC
 40
0.0
  9
$CHAMFERD
 40
0.0
  9
$SKPOLY
 70
     0
  9
$TDCREATE
 40
2460282.005937500
  9
$TDUCREATE
 40
2460282.214270834
  9
$TDUPDATE
 40
2460282.005937500
  9
$TDUUPDATE
 40
2460282.214270834
  9
$TDINDWG
 40
0.0000000000
  9
$TDUSRTIMER
 40
0.0000000000
  9
$USRTIMER
 70
     1
  9
$ANGBASE
 50
0.0
  9
$ANGDIR
 70
     0
  9
$PDMODE
 70
     0
  9
$PDSIZE
 40
0.0
  9
$PLINEWID
 40
0.0
  9
$SPLFRAME
 70
     0
  9
$SPLINETYPE
 70
     6
  9
$SPLINESEGS
 70
     8
  9
$HANDSEED
  5
A5
  9
$SURFTAB1
 70
     6
  9
$SURFTAB2
 70
     6
  9
$SURFTYPE
 70
     6
  9
$SURFU
 70
     6
  9
$SURFV
 70
     6
  9
$UCSBASE
  2

  9
$UCSNAME
  2

  9
$UCSORG
 10
0.0
 20
0.0
 30
0.0
  9
$UCSXDIR
 10
1.0
 20
0.0
 30
0.0
  9
$UCSYDIR
 10
0.0
 20
1.0
 30
0.0
  9
$UCSORTHOREF
  2

  9
$UCSORTHOVIEW
 70
     0
  9
$UCSORGTOP
 10
0.0
 20
0.0
 30
0.0
  9
$UCSORGBOTTOM
 10
0.0
 20
0.0
 30
0.0
  9
$UCSORGLEFT
 10
0.0
 20
0.0
 30
0.0
  9
$UCSORGRIGHT
 10
0.0
 20
0.0
 30
0.0
  9
$UCSORGFRONT
 10
0.0
 20
0.0
 30
0.0
  9
$UCSORGBACK
 10
0.0
 20
0.0
 30
0.0
  9
$PUCSBASE
  2

  9
$PUCSNAME
  2

  9
$PUCSORG
 10
0.0
 20
0.0
 30
0.0
  9
$PUCSXDIR
 10
1.0
 20
0.0
 30
0.0
  9
$PUCSYDIR
 10
0.0
 20
1.0
 30
0.0
  9
$PUCSORTHOREF
  2

  9
$PUCSORTHOVIEW
 70
     0
  9
$PUCSORGTOP
 10
0.0
 20
0.0
 30
0.0
  9
$PUCSORGBOTTOM
 10
0.0
 20
0.0
 30
0.0
  9
$PUCSORGLEFT
 10
0.0
 20
0.0
 30
0.0
  9
$PUCSORGRIGHT
 10
0.0
 20
0.0
 30
0.0
  9
$PUCSORGFRONT
 10
0.0
 20
0.0
 30
0.0
  9
$PUCSORGBACK
 10
0.0
 20
0.0
 30
0.0
  9
$USERI1
 70
     0
  9
$USERI2
 70
     0
  9
$USERI3
 70
     0
  9
$USERI4
 70
     0
  9
$USERI5
 70
     0
  9
$USERR1
 40
0.0
  9
$USERR2
 40
0.0
  9
$USERR3
 40
0.0
  9
$USERR4
 40
0.0
  9
$USERR5
 40
0.0
  9
$WORLDVIEW
 70
     1
  9
$SHADEDGE
 70
     3
  9
$SHADEDIF
 70
    70
  9
$TILEMODE
 70
     1
  9
$MAXACTVP
 70
    64
  9
$PINSBASE
 10
0.0
 20
0.0
 30
0.0
  9
$PLIMCHECK
 70
     0
  9
$PEXTMIN
 10
1.000000000000000E+20
 20
1.000000000000000E+20
 30
1.000000000000000E+20
  9
$PEXTMAX
 10
-1.000000000000000E+20
 20
-1.000000000000000E+20
 30
-1.000000000000000E+20
  9
$PLIMMIN
 10
0.0
 20
0.0
  9
$PLIMMAX
 10
12.0
 20
9.0
  9
$UNITMODE
 70
     0
  9
$VISRETAIN
 70
     1
  9
$PLINEGEN
 70
     0
  9
$PSLTSCALE
 70
     1
  9
$TREEDEPTH
 70
  3020
  9
$CMLSTYLE
  2
Standard
  9
$CMLJUST
 70
     0
  9
$CMLSCALE
 40
1.0
  9
$PROXYGRAPHICS
 70
     1
  9
$MEASUREMENT
 70
     0
  9
$CELWEIGHT
370
    -1
  9
$ENDCAPS
280
     0
  9
$JOINSTYLE
280
     0
  9
$LWDISPLAY
290
     1
  9
$INSUNITS
 70
     4
  9
$HYPERLINKBASE
  1

  9
$STYLESHEET
  1

  9
$XEDIT
290
     1
  9
$CEPSNTYPE
380
     0
  9
$PSTYLEMODE
290
     1
  9
$FINGERPRINTGUID
  2
{D2E2C8ED-502C-B54A-ACF4-4EDD05E4A42C}
  9
$VERSIONGUID
  2
{9E485074-6277-E648-91E7-AA6CD9CB7C82}
  9
$EXTNAMES
290
     1
  9
$PSVPSCALE
 40
0.0
  9
$OLESTARTUP
290
     0
  9
$SORTENTS
280
   127
  9
$INDEXCTL
280
     0
  9
$HIDETEXT
280
     1
  9
$XCLIPFRAME
280
     2
  9
$HALOGAP
280
     0
  9
$OBSCOLOR
 70
   257
  9
$OBSLTYPE
280
     0
  9
$INTERSECTIONDISPLAY
280
     0
  9
$INTERSECTIONCOLOR
 70
   257
  9
$DIMASSOC
280
     2
  9
$PROJECTNAME
  1

  9
$CAMERADISPLAY
290
     0
  9
$LENSLENGTH
 40
50.0
  9
$CAMERAHEIGHT
 40
0.0
  9
$STEPSPERSEC
 40
2.0
  9
$STEPSIZE
 40
6.0
  9
$3DDWFPREC
 40
2.0
  9
$PSOLWIDTH
 40
0.25
  9
$PSOLHEIGHT
 40
4.0
  9
$LOFTANG1
 40
1.570796326794896
  9
$LOFTANG2
 40
1.570796326794896
  9
$LOFTMAG1
 40
0.0
  9
$LOFTMAG2
 40
0.0
  9
$LOFTPARAM
 70
     7
  9
$LOFTNORMALS
280
     1
  9
$LATITUDE
 40
37.795
  9
$LONGITUDE
 40
-122.394
  9
$NORTHDIRECTION
 40
0.0
  9
$TIMEZONE
 70
 -8000
  9
$LIGHTGLYPHDISPLAY
280
     1
  9
$TILEMODELIGHTSYNCH
280
     1
  9
$CMATERIAL
347
11
  9
$SOLIDHIST
280
     0
  9
$SHOWHIST
280
     1
  9
$DWFFRAME
280
     2
  9
$DGNFRAME
280
     0
  9
$REALWORLDSCALE
290
     1
  9
$INTERFERECOLOR
 62
     1
  9
$INTERFEREOBJVS
345
33
  9
$INTERFEREVPVS
346
30
  9
$CSHADOW
280
     0
  9
$SHADOWPLANELOCATION
 40
0.0
  0
ENDSEC
  0
SECTION
  2
CLASSES
  0
CLASS
  1
ACDBDICTIONARYWDFLT
  2
AcDbDictionaryWithDefault
  3
ObjectDBX Classes
 90
        0
 91
        1
280
     0
281
     0
  0
CLASS
  1
MATERIAL
  2
AcDbMaterial
  3
ObjectDBX Classes
 90
     1153
 91
        3
280
     0
281
     0
  0
CLASS
  1
VISUALSTYLE
  2
AcDbVisualStyle
  3
ObjectDBX Classes
 90
     4095
 91
       24
280
     0
281
     0
  0
CLASS
  1
SCALE
  2
AcDbScale
  3
ObjectDBX Classes
 90
     1153
 91
       17
280
     0
281
     0
  0
CLASS
  1
TABLESTYLE
  2
AcDbTableStyle
  3
ObjectDBX Classes
 90
     4095
 91
        1
280
     0
281
     0
  0
CLASS
  1
MLEADERSTYLE
  2
AcDbMLeaderStyle
  3
ACDB_MLEADERSTYLE_CLASS
 90
     4095
 91
        1
280
     0
281
     0
  0
CLASS
  1
ACDBSECTIONVIEWSTYLE
  2
AcDbSectionViewStyle
  3
ObjectDBX Classes
 90
     1025
 91
        1
280
     0
281
     0
  0
CLASS
  1
ACDBDETAILVIEWSTYLE
  2
AcDbDetailViewStyle
  3
ObjectDBX Classes
 90
     1025
 91
        1
280
     0
281
     0
  0
CLASS
  1
DICTIONARYVAR
  2
AcDbDictionaryVar
  3
ObjectDBX Classes
 90
        0
 91
        5
280
     0
281
     0
  0
CLASS
  1
CELLSTYLEMAP
  2
AcDbCellStyleMap
  3
ObjectDBX Classes
 90
     1152
 91
        1
280
     0
281
     0
  0
ENDSEC
  0
SECTION
  2
TABLES
  0
TABLE
  2
VPORT
  5
8
330
0
100
AcDbSymbolTable
 70
     1
  0
VPORT
  5
57
330
8
100
AcDbSymbolTableRecord
100
AcDbViewportTableRecord
  2
*Active
 70
     0
 10
0.0
 20
0.0
 11
1.0
 21
1.0
 12
0.0
 22
0.0
 13
0.0
 23
0.0
 14
1.0
 24
1.0
 15
0.0
 25
0.0
 16
0.0
 26
0.0
 36
1.0
 17
134.9999999662568
 27
59.99999998500689
 37
0.0
 40
122.399999969414
 41
2.249999999999855
 42
50.0
 43
0.0
 44
0.0
 50
0.0
 51
0.0
 71
     0
 72
   100
 73
     1
 74
     1
 75
     0
 76
     0
 77
     0
 78
     0
281
     0
 65
     1
110
0.0
120
0.0
130
0.0
111
1.0
121
0.0
131
0.0
112
0.0
122
1.0
132
0.0
 79
     0
146
0.0
 60
     3
 61
     5
292
     1
282
     1
141
0.0
142
0.0
 63
   250
421
  3355443
  0
ENDTAB
  0
TABLE
  2
LTYPE
  5
5
330
0
100
AcDbSymbolTable
 70
     1
  0
LTYPE
  5
5B
330
5
100
AcDbSymbolTableRecord
100
AcDbLinetypeTableRecord
  2
ByBlock
 70
     0
  3

 72
    65
 73
     0
 40
0.0
  0
LTYPE
  5
5C
330
5
100
AcDbSymbolTableRecord
100
AcDbLinetypeTableRecord
  2
ByLayer
 70
     0
  3

 72
    65
 73
     0
 40
0.0
  0
LTYPE
  5
5D
330
5
100
AcDbSymbolTableRecord
100
AcDbLinetypeTableRecord
  2
Continuous
 70
     0
  3
Solid line
 72
    65
 73
     0
 40
0.0
  0
ENDTAB
  0
TABLE
  2
LAYER
  5
2
330
0
100
AcDbSymbolTable
 70
     1
  0
LAYER
  5
54
330
2
100
AcDbSymbolTableRecord
100
AcDbLayerTableRecord
  2
0
 70
     0
 62
     7
  6
Continuous
370
     0
390
F
347
21
348
0
  0
ENDTAB
  0
TABLE
  2
STYLE
  5
3
330
0
100
AcDbSymbolTable
 70
     2
  0
STYLE
  5
55
330
3
100
AcDbSymbolTableRecord
100
AcDbTextStyleTableRecord
  2
Standard
 70
     0
 40
0.0
 41
1.0
 50
0.0
 71
     0
 42
0.2
  3
txt
  4

  0
STYLE
  5
5A
330
3
100
AcDbSymbolTableRecord
100
AcDbTextStyleTableRecord
  2
Annotative
 70
     0
 40
0.0
 41
1.0
 50
0.0
 71
     0
 42
0.2
  3
txt
  4

1001
AcadAnnotative
1000
AnnotativeData
1002
{
1070
     1
1070
     1
1002
}
  0
ENDTAB
  0
TABLE
  2
VIEW
  5
6
330
0
100
AcDbSymbolTable
 70
     0
  0
ENDTAB
  0
TABLE
  2
UCS
  5
7
330
0
100
AcDbSymbolTable
 70
     0
  0
ENDTAB
  0
TABLE
  2
APPID
  5
9
330
0
100
AcDbSymbolTable
 70
     2
  0
APPID
  5
56
330
9
100
AcDbSymbolTableRecord
100
AcDbRegAppTableRecord
  2
ACAD
 70
     0
  0
APPID
  5
5E
330
9
100
AcDbSymbolTableRecord
100
AcDbRegAppTableRecord
  2
AcadAnnotative
 70
     0
  0
ENDTAB
  0
TABLE
  2
DIMSTYLE
  5
A
330
0
100
AcDbSymbolTable
 70
     2
100
AcDbDimStyleTable
 71
     0
  0
DIMSTYLE
105
58
330
A
100
AcDbSymbolTableRecord
100
AcDbDimStyleTableRecord
  2
Standard
 70
     0
340
55
  0
DIMSTYLE
105
59
330
A
100
AcDbSymbolTableRecord
100
AcDbDimStyleTableRecord
  2
Annotative
 70
     0
340
55
1001
AcadAnnotative
1000
AnnotativeData
1002
{
1070
     1
1070
     1
1002
}
  0
ENDTAB
  0
TABLE
  2
BLOCK_RECORD
  5
1
330
0
100
AcDbSymbolTable
 70
     1
  0
BLOCK_RECORD
  5
70
330
1
100
AcDbSymbolTableRecord
100
AcDbBlockTableRecord
  2
*Model_Space
340
73
 70
     0
280
     1
281
     0
  0
BLOCK_RECORD
  5
6C
330
1
100
AcDbSymbolTableRecord
100
AcDbBlockTableRecord
  2
*Paper_Space
340
6F
 70
     0
280
     1
281
     0
  0
BLOCK_RECORD
  5
74
330
1
100
AcDbSymbolTableRecord
100
AcDbBlockTableRecord
  2
*Paper_Space0
340
77
 70
     0
280
     1
281
     0
  0
ENDTAB
  0
ENDSEC
  0
SECTION
  2
BLOCKS
  0
BLOCK
  5
71
330
70
100
AcDbEntity
  8
0
100
AcDbBlockBegin
  2
*Model_Space
 70
     0
 10
0.0
 20
0.0
 30
0.0
  3
*Model_Space
  1

  0
ENDBLK
  5
72
330
70
100
AcDbEntity
  8
0
100
AcDbBlockEnd
  0
BLOCK
  5
6D
330
6C
100
AcDbEntity
 67
     1
  8
0
100
AcDbBlockBegin
  2
*Paper_Space
 70
     0
 10
0.0
 20
0.0
 30
0.0
  3
*Paper_Space
  1

  0
ENDBLK
  5
6E
330
6C
100
AcDbEntity
 67
     1
  8
0
100
AcDbBlockEnd
  0
BLOCK
  5
75
330
74
100
AcDbEntity
 67
     1
  8
0
100
AcDbBlockBegin
  2
*Paper_Space0
 70
     0
 10
0.0
 20
0.0
 30
0.0
  3
*Paper_Space0
  1

  0
ENDBLK
  5
76
330
74
100
AcDbEntity
 67
     1
  8
0
100
AcDbBlockEnd
  0
ENDSEC
  0
SECTION
  2
ENTITIES
  0
SPLINE
  5
78
330
70
100
AcDbEntity
  8
0
 62
    18
420
        0
370
    25
100
AcDbSpline
210
0.0
220
0.0
230
1.0
 70
     9
 71
     3
 72
    53
 73
    49
 74
     0
 42
0.0000000001
 43
0.0000000001
 40
0.0
 40
0.0
 40
0.0
 40
0.0
 40
1.0
 40
1.0
 40
1.0
 40
2.0
 40
2.0
 40
2.0
 40
3.0
 40
3.0
 40
3.0
 40
4.0
 40
4.0
 40
4.0
 40
5.0
 40
5.0
 40
5.0
 40
6.0
 40
6.0
 40
6.0
 40
7.0
 40
7.0
 40
7.0
 40
8.0
 40
8.0
 40
8.0
 40
9.0
 40
9.0
 40
9.0
 40
10.0
 40
10.0
 40
10.0
 40
11.0
 40
11.0
 40
11.0
 40
12.0
 40
12.0
 40
12.0
 40
13.0
 40
13.0
 40
13.0
 40
14.0
 40
14.0
 40
14.0
 40
15.0
 40
15.0
 40
15.0
 40
16.0
 40
16.0
 40
16.0
 40
16.0
 10
138.2259870370783
 20
33.62954127998116
 30
0.0
 10
138.5021294119935
 20
33.62954127995614
 30
0.0
 10
138.7259870370979
 20
33.85339890502078
 30
0.0
 10
138.7259870371236
 20
34.12954127993593
 30
0.0
 10
138.7259870371236
 20
34.12954127993593
 30
0.0
 10
138.7259870372134
 20
35.13454127993599
 30
0.0
 10
138.7259870372134
 20
35.13454127993599
 30
0.0
 10
138.7259870372378
 20
35.41068365485115
 30
0.0
 10
138.9498446623429
 20
35.6345412799158
 30
0.0
 10
139.2259870372587
 20
35.63454127989077
 30
0.0
 10
139.2259870372587
 20
35.63454127989077
 30
0.0
 10
145.2259870372583
 20
35.63454127935175
 30
0.0
 10
145.2259870372583
 20
35.63454127935175
 30
0.0
 10
145.502129412174
 20
35.63454127932736
 30
0.0
 10
145.725987037238
 20
35.41068365422229
 30
0.0
 10
145.725987037213
 20
35.13454127930712
 30
0.0
 10
145.725987037213
 20
35.13454127930712
 30
0.0
 10
145.7259870358667
 20
20.13454127930724
 30
0.0
 10
145.7259870358667
 20
20.13454127930724
 30
0.0
 10
145.7259870358417
 20
19.85839890439144
 30
0.0
 10
145.5021294107367
 20
19.63454127932743
 30
0.0
 10
145.2259870358215
 20
19.63454127935246
 30
0.0
 10
145.2259870358215
 20
19.63454127935246
 30
0.0
 10
125.0019870358214
 20
19.63454128116847
 30
0.0
 10
125.0019870358214
 20
19.63454128116847
 30
0.0
 10
124.7258446609066
 20
19.63454128119285
 30
0.0
 10
124.5019870358419
 20
19.85839890629728
 30
0.0
 10
124.5019870358669
 20
20.13454128121308
 30
0.0
 10
124.5019870358669
 20
20.13454128121308
 30
0.0
 10
124.5019870372132
 20
35.13454128121297
 30
0.0
 10
124.5019870372132
 20
35.13454128121297
 30
0.0
 10
124.5019870372383
 20
35.41068365612813
 30
0.0
 10
124.7258446623427
 20
35.63454128119341
 30
0.0
 10
125.0019870372578
 20
35.63454128116775
 30
0.0
 10
125.0019870372578
 20
35.63454128116775
 30
0.0
 10
131.001987037258
 20
35.63454128062936
 30
0.0
 10
131.001987037258
 20
35.63454128062936
 30
0.0
 10
131.2781294121735
 20
35.63454128060434
 30
0.0
 10
131.5019870372378
 20
35.4106836554999
 30
0.0
 10
131.5019870372128
 20
35.13454128058475
 30
0.0
 10
131.5019870372128
 20
35.13454128058475
 30
0.0
 10
131.501987037123
 20
34.1295412805847
 30
0.0
 10
131.501987037123
 20
34.1295412805847
 30
0.0
 10
131.501987037098
 20
33.85339890566954
 30
0.0
 10
131.7258446621632
 20
33.62954128056447
 30
0.0
 10
132.0019870370787
 20
33.62954128053945
 30
0.0
 10
132.0019870370787
 20
33.62954128053945
 30
0.0
 10
138.2259870370783
 20
33.62954127998116
 30
0.0
 10
138.2259870370783
 20
33.62954127998116
 30
0.0
  0
SPLINE
  5
79
330
70
100
AcDbEntity
  8
0
 62
    18
420
        0
370
    25
100
AcDbSpline
210
0.0
220
0.0
230
1.0
 70
     9
 71
     3
 72
    44
 73
    40
 74
     0
 42
0.0000000001
 43
0.0000000001
 40
0.0
 40
0.0
 40
0.0
 40
0.0
 40
1.0
 40
1.0
 40
1.0
 40
2.0
 40
2.0
 40
2.0
 40
3.0
 40
3.0
 40
3.0
 40
4.0
 40
4.0
 40
4.0
 40
5.0
 40
5.0
 40
5.0
 40
6.0
 40
6.0
 40
6.0
 40
7.0
 40
7.0
 40
7.0
 40
8.0
 40
8.0
 40
8.0
 40
9.0
 40
9.0
 40
9.0
 40
10.0
 40
10.0
 40
10.0
 40
11.0
 40
11.0
 40
11.0
 40
12.0
 40
12.0
 40
12.0
 40
13.0
 40
13.0
 40
13.0
 40
13.0
 10
159.6889870370785
 20
33.63454127805351
 30
0.0
 10
159.9651294119937
 20
33.63454127802849
 30
0.0
 10
160.1889870370987
 20
33.85839890309313
 30
0.0
 10
160.1889870371238
 20
34.13454127800829
 30
0.0
 10
160.1889870371238
 20
34.13454127800829
 30
0.0
 10
160.188987037213
 20
35.12954127800831
 30
0.0
 10
160.188987037213
 20
35.12954127800831
 30
0.0
 10
160.188987037238
 20
35.40568365292346
 30
0.0
 10
160.4128446623424
 20
35.62954127798812
 30
0.0
 10
160.6889870372576
 20
35.62954127796373
 30
0.0
 10
160.6889870372576
 20
35.62954127796373
 30
0.0
 10
169.1019870372578
 20
35.62954127720781
 30
0.0
 10
169.1019870372578
 20
35.62954127720781
 30
0.0
 10
169.1019870372578
 20
35.62954127720781
 30
0.0
 10
169.1019870372591
 20
35.63454127720846
 30
0.0
 10
169.1019870372591
 20
35.63454127720846
 30
0.0
 10
169.3781294121742
 20
35.63454127718344
 30
0.0
 10
169.6019870372382
 20
35.41068365207837
 30
0.0
 10
169.6019870372132
 20
35.13454127716321
 30
0.0
 10
169.6019870372132
 20
35.13454127716321
 30
0.0
 10
169.6019870358669
 20
20.13454127716332
 30
0.0
 10
169.6019870358669
 20
20.13454127716332
 30
0.0
 10
169.6019870358419
 20
19.85839890224816
 30
0.0
 10
169.3781294107368
 20
19.63454127718351
 30
0.0
 10
169.1019870358217
 20
19.6345412772079
 30
0.0
 10
169.1019870358217
 20
19.6345412772079
 30
0.0
 10
147.6639870358216
 20
19.634541279133
 30
0.0
 10
147.6639870358216
 20
19.634541279133
 30
0.0
 10
147.3878446609058
 20
19.63454127915802
 30
0.0
 10
147.1639870358418
 20
19.85839890426246
 30
0.0
 10
147.1639870358668
 20
20.13454127917825
 30
0.0
 10
147.1639870358668
 20
20.13454127917825
 30
0.0
 10
147.163987037034
 20
33.13454127917808
 30
0.0
 10
147.163987037034
 20
33.13454127917808
 30
0.0
 10
147.1639870370591
 20
33.41068365409323
 30
0.0
 10
147.3878446621635
 20
33.63454127915788
 30
0.0
 10
147.6639870370787
 20
33.63454127913286
 30
0.0
 10
147.6639870370787
 20
33.63454127913286
 30
0.0
 10
159.6889870370785
 20
33.63454127805351
 30
0.0
 10
159.6889870370785
 20
33.63454127805351
 30
0.0
  0
SPLINE
  5
7A
330
70
100
AcDbEntity
  8
0
 62
    18
420
        0
370
    25
100
AcDbSpline
210
0.0
220
0.0
230
1.0
 70
    11
 71
     3
 72
   125
 73
   121
 74
     0
 42
0.0000000001
 43
0.0000000001
 40
0.0
 40
0.0
 40
0.0
 40
0.0
 40
1.0
 40
1.0
 40
1.0
 40
2.0
 40
2.0
 40
2.0
 40
3.0
 40
3.0
 40
3.0
 40
4.0
 40
4.0
 40
4.0
 40
5.0
 40
5.0
 40
5.0
 40
6.0
 40
6.0
 40
6.0
 40
7.0
 40
7.0
 40
7.0
 40
8.0
 40
8.0
 40
8.0
 40
9.0
 40
9.0
 40
9.0
 40
10.0
 40
10.0
 40
10.0
 40
11.0
 40
11.0
 40
11.0
 40
12.0
 40
12.0
 40
12.0
 40
13.0
 40
13.0
 40
13.0
 40
14.0
 40
14.0
 40
14.0
 40
15.0
 40
15.0
 40
15.0
 40
16.0
 40
16.0
 40
16.0
 40
17.0
 40
17.0
 40
17.0
 40
18.0
 40
18.0
 40
18.0
 40
19.0
 40
19.0
 40
19.0
 40
20.0
 40
20.0
 40
20.0
 40
21.0
 40
21.0
 40
21.0
 40
22.0
 40
22.0
 40
22.0
 40
23.0
 40
23.0
 40
23.0
 40
24.0
 40
24.0
 40
24.0
 40
25.0
 40
25.0
 40
25.0
 40
26.0
 40
26.0
 40
26.0
 40
27.0
 40
27.0
 40
27.0
 40
28.0
 40
28.0
 40
28.0
 40
29.0
 40
29.0
 40
29.0
 40
30.0
 40
30.0
 40
30.0
 40
31.0
 40
31.0
 40
31.0
 40
32.0
 40
32.0
 40
32.0
 40
33.0
 40
33.0
 40
33.0
 40
34.0
 40
34.0
 40
34.0
 40
35.0
 40
35.0
 40
35.0
 40
36.0
 40
36.0
 40
36.0
 40
37.0
 40
37.0
 40
37.0
 40
38.0
 40
38.0
 40
38.0
 40
39.0
 40
39.0
 40
39.0
 40
40.0
 40
40.0
 40
40.0
 40
40.0
 10
35.10148703945456
 20
60.09331407805514
 30
0.0
 10
35.10148703945456
 20
60.09331407805514
 30
0.0
 10
35.10109639024321
 20
22.70085053470276
 30
0.0
 10
35.10109639024321
 20
22.70085053470276
 30
0.0
 10
35.10109084866538
 20
22.17041757114499
 30
0.0
 10
35.31179920202651
 20
21.66170755806792
 30
0.0
 10
35.68686802032732
 20
21.28663088537568
 30
0.0
 10
35.68686802032732
 20
21.28663088537568
 30
0.0
 10
40.51524455231362
 20
16.45815324138252
 30
0.0
 10
40.51524455231362
 20
16.45815324138252
 30
0.0
 10
40.89031338199304
 20
16.08307655731103
 30
0.0
 10
41.39901900148704
 20
15.87235755017144
 30
0.0
 10
41.92945198113671
 20
15.87235199627716
 30
0.0
 10
41.92945198113671
 20
15.87235199627716
 30
0.0
 10
50.67260039184769
 20
15.87226045121819
 30
0.0
 10
50.67260039184769
 20
15.87226045121819
 30
0.0
 10
51.20303337149799
 20
15.87225489732456
 30
0.0
 10
51.71174340354433
 20
16.08296325162289
 30
0.0
 10
52.08682008761581
 20
16.45803208130198
 30
0.0
 10
52.08682008761581
 20
16.45803208130198
 30
0.0
 10
56.91530644213728
 20
21.28641732363469
 30
0.0
 10
56.91530644213728
 20
21.28641732363469
 30
0.0
 10
57.28442640712412
 20
21.65552955896901
 30
0.0
 10
57.78323155699243
 20
21.86569804614408
 30
0.0
 10
58.30520201029309
 20
21.87204128715732
 30
0.0
 10
58.30520201029309
 20
21.87204128715732
 30
0.0
 10
92.35425601029303
 20
21.87204128410027
 30
0.0
 10
92.35425601029303
 20
21.87204128410027
 30
0.0
 10
93.73496788486914
 20
21.87204128397706
 30
0.0
 10
94.85425601019205
 20
20.75275315845297
 30
0.0
 10
94.8542560100682
 20
19.37204128387655
 30
0.0
 10
94.8542560099559
 20
18.1229260950804
 30
0.0
 10
95.86686394338661
 20
17.11031816146713
 30
0.0
 10
97.11597913218213
 20
17.11031816135612
 30
0.0
 10
97.11597913218213
 20
17.11031816135612
 30
0.0
 10
173.4104837063879
 20
17.11031815431732
 30
0.0
 10
173.4104837063879
 20
17.11031815431732
 30
0.0
 10
174.6595873478054
 20
17.11031815420566
 30
0.0
 10
175.6721904338752
 20
18.12290818799963
 30
0.0
 10
175.6722065345931
 20
19.37201182931311
 30
0.0
 10
175.6722065344654
 20
19.37202280035817
 30
0.0
 10
175.6722065344096
 20
19.37203377138718
 30
0.0
 10
175.6722065344256
 20
19.37204474243287
 30
0.0
 10
175.6722086112095
 20
20.75275661700738
 30
0.0
 10
176.7914984201963
 20
21.87204305886334
 30
0.0
 10
178.1722102947721
 20
21.87204098208013
 30
0.0
 10
178.1722102947721
 20
21.87204098208013
 30
0.0
 10
212.2212643443761
 20
21.87198976754141
 30
0.0
 10
212.2212643443761
 20
21.87198976754141
 30
0.0
 10
212.7517035381346
 20
21.87198896968618
 30
0.0
 10
213.2604164822516
 20
21.66126960046342
 30
0.0
 10
213.6354897059033
 20
21.28618852232824
 30
0.0
 10
213.6354897059033
 20
21.28618852232824
 30
0.0
 10
218.4652870694475
 20
16.45629001702231
 30
0.0
 10
218.4652870694475
 20
16.45629001702231
 30
0.0
 10
218.8403558991272
 20
16.08121333295082
 30
0.0
 10
219.3490615186218
 20
15.87049432581059
 30
0.0
 10
219.8794944982721
 20
15.87048877191695
 30
0.0
 10
219.8794944982721
 20
15.87048877191695
 30
0.0
 10
228.2979404739012
 20
15.87040062665201
 30
0.0
 10
228.2979404739012
 20
15.87040062665201
 30
0.0
 10
228.8283734535509
 20
15.87039507275773
 30
0.0
 10
229.3370834855972
 20
16.0811034270567
 30
0.0
 10
229.7121601696687
 20
16.4561722567358
 30
0.0
 10
229.7121601696687
 20
16.4561722567358
 30
0.0
 10
234.5406703984031
 20
21.28458137278181
 30
0.0
 10
234.5406703984031
 20
21.28458137278181
 30
0.0
 10
234.9157470824739
 20
21.65965020246091
 30
0.0
 10
235.1264660896141
 20
22.16835582195492
 30
0.0
 10
235.1264716435084
 20
22.69878880160458
 30
0.0
 10
235.1264716435084
 20
22.69878880160458
 30
0.0
 10
235.1268700576423
 20
97.24362848504213
 30
0.0
 10
235.1268700576423
 20
97.24362848504213
 30
0.0
 10
235.1268674484452
 20
97.77406254552538
 30
0.0
 10
234.9161508360296
 20
98.28277037136036
 30
0.0
 10
234.5410754699001
 20
98.65784204751021
 30
0.0
 10
234.5410754699001
 20
98.65784204751021
 30
0.0
 10
229.7126157976787
 20
103.4863017205988
 30
0.0
 10
229.7126157976787
 20
103.4863017205988
 30
0.0
 10
229.3375430408168
 20
103.8613744775287
 30
0.0
 10
228.8288352150377
 20
104.0720881583057
 30
0.0
 10
228.2984022353585
 20
104.0720881583529
 30
0.0
 10
228.2984022353585
 20
104.0720881583529
 30
0.0
 10
219.8799562592687
 20
104.0720881591091
 30
0.0
 10
219.8799562592687
 20
104.0720881591091
 30
0.0
 10
219.3495232795882
 20
104.0720881591566
 30
0.0
 10
218.8408154537706
 20
103.8613744784704
 30
0.0
 10
218.4657426968414
 20
103.4863017216082
 30
0.0
 10
218.4657426968414
 20
103.4863017216082
 30
0.0
 10
213.6372736791744
 20
98.65783270480758
 30
0.0
 10
213.6372736791744
 20
98.65783270480758
 30
0.0
 10
213.2622008047456
 20
98.28275983044617
 30
0.0
 10
212.7534927830634
 20
98.07204614007991
 30
0.0
 10
212.223059637215
 20
98.07204626730797
 30
0.0
 10
212.223059637215
 20
98.07204626730797
 30
0.0
 10
58.32991639252127
 20
98.07208817361519
 30
0.0
 10
58.32991639252127
 20
98.07208817361519
 30
0.0
 10
57.79948341284273
 20
98.0720881736633
 30
0.0
 10
57.29077558706485
 20
98.2828018544397
 30
0.0
 10
56.9157028302024
 20
98.65787461136889
 30
0.0
 10
56.9157028302024
 20
98.65787461136889
 30
0.0
 10
52.08727570588962
 20
103.4863017365483
 30
0.0
 10
52.08727570588962
 20
103.4863017365483
 30
0.0
 10
51.71220294902652
 20
103.8613744934788
 30
0.0
 10
51.20349512324832
 20
104.0720881742551
 30
0.0
 10
50.67306214356882
 20
104.0720881743026
 30
0.0
 10
50.67306214356882
 20
104.0720881743026
 30
0.0
 10
41.92991373237978
 20
104.0720881750874
 30
0.0
 10
41.92991373237978
 20
104.0720881750874
 30
0.0
 10
41.3994807527006
 20
104.0720881751356
 30
0.0
 10
40.89077292688358
 20
103.86137449445
 30
0.0
 10
40.51570016995343
 20
103.4863017375872
 30
0.0
 10
40.51570016995343
 20
103.4863017375872
 30
0.0
 10
35.68727308126553
 20
98.65787464976689
 30
0.0
 10
35.68727308126553
 20
98.65787464976689
 30
0.0
 10
35.31220033571526
 20
98.28280190428271
 30
0.0
 10
35.10148665587639
 20
97.77409409747313
 30
0.0
 10
35.10148664351181
 20
97.24366113388649
 30
0.0
 10
35.10148664351181
 20
97.24366113388649
 30
0.0
 10
35.10148703945456
 20
60.09331407805514
 30
0.0
 10
35.10148703945456
 20
60.09331407805514
 30
0.0
  0
SPLINE
  5
7B
330
70
100
AcDbEntity
  8
0
 62
    18
420
        0
370
    25
100
AcDbSpline
210
0.0
220
0.0
230
1.0
 70
     9
 71
     3
 72
    44
 73
    40
 74
     0
 42
0.0000000001
 43
0.0000000001
 40
0.0
 40
0.0
 40
0.0
 40
0.0
 40
1.0
 40
1.0
 40
1.0
 40
2.0
 40
2.0
 40
2.0
 40
3.0
 40
3.0
 40
3.0
 40
4.0
 40
4.0
 40
4.0
 40
5.0
 40
5.0
 40
5.0
 40
6.0
 40
6.0
 40
6.0
 40
7.0
 40
7.0
 40
7.0
 40
8.0
 40
8.0
 40
8.0
 40
9.0
 40
9.0
 40
9.0
 40
10.0
 40
10.0
 40
10.0
 40
11.0
 40
11.0
 40
11.0
 40
12.0
 40
12.0
 40
12.0
 40
13.0
 40
13.0
 40
13.0
 40
13.0
 10
110.0390943384972
 20
34.13454128251173
 30
0.0
 10
110.0390943384722
 20
33.85839890759658
 30
0.0
 10
110.2629519635368
 20
33.63454128249151
 30
0.0
 10
110.5390943384523
 20
33.63454128246648
 30
0.0
 10
110.5390943384523
 20
33.63454128246648
 30
0.0
 10
122.5640943384515
 20
33.63454128138714
 30
0.0
 10
122.5640943384515
 20
33.63454128138714
 30
0.0
 10
122.8402367133676
 20
33.63454128136211
 30
0.0
 10
123.0640943384317
 20
33.41068365625768
 30
0.0
 10
123.0640943384073
 20
33.13454128134188
 30
0.0
 10
123.0640943384073
 20
33.13454128134188
 30
0.0
 10
123.06409433724
 20
20.13454128134207
 30
0.0
 10
123.06409433724
 20
20.13454128134207
 30
0.0
 10
123.064094337215
 20
19.85839890642691
 30
0.0
 10
122.8402367121105
 20
19.63454128136226
 30
0.0
 10
122.5640943371947
 20
19.63454128138728
 30
0.0
 10
122.5640943371947
 20
19.63454128138728
 30
0.0
 10
101.1260943371953
 20
19.63454128331174
 30
0.0
 10
101.1260943371953
 20
19.63454128331174
 30
0.0
 10
100.8499519622792
 20
19.63454128333741
 30
0.0
 10
100.6260943372148
 20
19.8583989084412
 30
0.0
 10
100.6260943372399
 20
20.134541283357
 30
0.0
 10
100.6260943372399
 20
20.134541283357
 30
0.0
 10
100.6260943385862
 20
35.13454128335689
 30
0.0
 10
100.6260943385862
 20
35.13454128335689
 30
0.0
 10
100.6260943386112
 20
35.41068365827204
 30
0.0
 10
100.8499519637153
 20
35.6345412833367
 30
0.0
 10
101.1260943386314
 20
35.63454128331231
 30
0.0
 10
101.1260943386314
 20
35.63454128331231
 30
0.0
 10
109.539094338631
 20
35.63454128255639
 30
0.0
 10
109.539094338631
 20
35.63454128255639
 30
0.0
 10
109.539094338631
 20
35.63454128255639
 30
0.0
 10
109.539094338631
 20
35.62954128255702
 30
0.0
 10
109.539094338631
 20
35.62954128255702
 30
0.0
 10
109.8152367135468
 20
35.62954128253199
 30
0.0
 10
110.0390943386108
 20
35.40568365742692
 30
0.0
 10
110.0390943385867
 20
35.12954128251176
 30
0.0
 10
110.0390943385867
 20
35.12954128251176
 30
0.0
 10
110.0390943384972
 20
34.13454128251173
 30
0.0
 10
110.0390943384972
 20
34.13454128251173
 30
0.0
  0
CIRCLE
  5
7C
330
70
100
AcDbEntity
  8
0
 62
    18
420
        0
370
    25
100
AcDbCircle
 10
224.0077165675792
 20
101.0720694989745
 30
0.0
 40
1.349999999662353
  0
CIRCLE
  5
7D
330
70
100
AcDbEntity
  8
0
 62
    18
420
        0
370
    25
100
AcDbCircle
 10
46.22002765797434
 20
101.0720881886271
 30
0.0
 40
1.349999999662393
  0
CIRCLE
  5
7E
330
70
100
AcDbEntity
  8
0
 62
    18
420
        0
370
    25
100
AcDbCircle
 10
46.2200276627489
 20
18.87018886352022
 30
0.0
 40
1.349999999662594
  0
CIRCLE
  5
7F
330
70
100
AcDbEntity
  8
0
 62
    18
420
        0
370
    25
100
AcDbCircle
 10
224.0077165628043
 20
18.87046335890123
 30
0.0
 40
1.349999999662353
  0
SPLINE
  5
80
330
70
100
AcDbEntity
  8
0
 62
    18
420
        0
370
    25
100
AcDbSpline
210
0.0
220
0.0
230
1.0
 70
     9
 71
     3
 72
    29
 73
    25
 74
     0
 42
0.0000000001
 43
0.0000000001
 40
0.0
 40
0.0
 40
0.0
 40
0.0
 40
1.0
 40
1.0
 40
1.0
 40
2.0
 40
2.0
 40
2.0
 40
3.0
 40
3.0
 40
3.0
 40
4.0
 40
4.0
 40
4.0
 40
5.0
 40
5.0
 40
5.0
 40
6.0
 40
6.0
 40
6.0
 40
7.0
 40
7.0
 40
7.0
 40
8.0
 40
8.0
 40
8.0
 40
8.0
 10
66.70109435187512
 20
57.44718885204437
 30
0.0
 10
66.70109435187512
 20
57.44718885204437
 30
0.0
 10
232.1010943105263
 20
57.44718883719224
 30
0.0
 10
232.1010943105263
 20
57.44718883719224
 30
0.0
 10
232.3772366853722
 20
57.44718883716721
 30
0.0
 10
232.601094310381
 20
57.22333121211925
 30
0.0
 10
232.601094310356
 20
56.94718883727276
 30
0.0
 10
232.601094310356
 20
56.94718883727276
 30
0.0
 10
232.6010943091887
 20
43.94718884052251
 30
0.0
 10
232.6010943091887
 20
43.94718884052251
 30
0.0
 10
232.6010943091637
 20
43.67104646567601
 30
0.0
 10
232.3772366841151
 20
43.44718884066783
 30
0.0
 10
232.1010943092686
 20
43.44718884069222
 30
0.0
 10
232.1010943092686
 20
43.44718884069222
 30
0.0
 10
66.70109435061836
 20
43.4471888555437
 30
0.0
 10
66.70109435061836
 20
43.4471888555437
 30
0.0
 10
66.42495197577218
 20
43.44718885556936
 30
0.0
 10
66.20109435076368
 20
43.67104648061733
 30
0.0
 10
66.2010943507887
 20
43.94718885546318
 30
0.0
 10
66.2010943507887
 20
43.94718885546318
 30
0.0
 10
66.20109435195596
 20
56.94718885221472
 30
0.0
 10
66.20109435195596
 20
56.94718885221472
 30
0.0
 10
66.20109435198003
 20
57.22333122706057
 30
0.0
 10
66.42495197702928
 20
57.44718885206875
 30
0.0
 10
66.70109435187512
 20
57.44718885204437
 30
0.0
  0
SPLINE
  5
81
330
70
100
AcDbEntity
  8
0
 62
    18
420
        0
370
    25
100
AcDbSpline
210
0.0
220
0.0
230
1.0
 70
     9
 71
     3
 72
    29
 73
    25
 74
     0
 42
0.0000000001
 43
0.0000000001
 40
0.0
 40
0.0
 40
0.0
 40
0.0
 40
1.0
 40
1.0
 40
1.0
 40
2.0
 40
2.0
 40
2.0
 40
3.0
 40
3.0
 40
3.0
 40
4.0
 40
4.0
 40
4.0
 40
5.0
 40
5.0
 40
5.0
 40
6.0
 40
6.0
 40
6.0
 40
7.0
 40
7.0
 40
7.0
 40
8.0
 40
8.0
 40
8.0
 40
8.0
 10
219.1010943120653
 20
38.397188843122
 30
0.0
 10
219.1010943120653
 20
38.397188843122
 30
0.0
 10
232.1010943088156
 20
38.39718884195475
 30
0.0
 10
232.1010943088156
 20
38.39718884195475
 30
0.0
 10
232.3772366836614
 20
38.39718884192972
 30
0.0
 10
232.6010943086703
 20
38.17333121688175
 30
0.0
 10
232.6010943086452
 20
37.89718884203526
 30
0.0
 10
232.6010943086452
 20
37.89718884203526
 30
0.0
 10
232.6010943074786
 20
24.897188845285
 30
0.0
 10
232.6010943074786
 20
24.897188845285
 30
0.0
 10
232.6010943074536
 20
24.62104647043851
 30
0.0
 10
232.377236682405
 20
24.39718884543033
 30
0.0
 10
232.1010943075585
 20
24.39718884545472
 30
0.0
 10
232.1010943075585
 20
24.39718884545472
 30
0.0
 10
219.1010943108082
 20
24.39718884662261
 30
0.0
 10
219.1010943108082
 20
24.39718884662261
 30
0.0
 10
218.8249519359617
 20
24.397188846647
 30
0.0
 10
218.6010943109536
 20
24.6210464716956
 30
0.0
 10
218.601094310978
 20
24.89718884654209
 30
0.0
 10
218.601094310978
 20
24.89718884654209
 30
0.0
 10
218.6010943121459
 20
37.89718884329235
 30
0.0
 10
218.6010943121459
 20
37.89718884329235
 30
0.0
 10
218.6010943121702
 20
38.1733312181382
 30
0.0
 10
218.8249519372195
 20
38.39718884314702
 30
0.0
 10
219.1010943120653
 20
38.397188843122
 30
0.0
  0
SPLINE
  5
82
330
70
100
AcDbEntity
  8
0
 62
    18
420
        0
370
    25
100
AcDbSpline
210
0.0
220
0.0
230
1.0
 70
     9
 71
     3
 72
    29
 73
    25
 74
     0
 42
0.0000000001
 43
0.0000000001
 40
0.0
 40
0.0
 40
0.0
 40
0.0
 40
1.0
 40
1.0
 40
1.0
 40
2.0
 40
2.0
 40
2.0
 40
3.0
 40
3.0
 40
3.0
 40
4.0
 40
4.0
 40
4.0
 40
5.0
 40
5.0
 40
5.0
 40
6.0
 40
6.0
 40
6.0
 40
7.0
 40
7.0
 40
7.0
 40
8.0
 40
8.0
 40
8.0
 40
8.0
 10
200.051487039131
 20
38.39718884483276
 30
0.0
 10
200.051487039131
 20
38.39718884483276
 30
0.0
 10
213.0514870358813
 20
38.39718884366551
 30
0.0
 10
213.0514870358813
 20
38.39718884366551
 30
0.0
 10
213.3276294107278
 20
38.39718884364049
 30
0.0
 10
213.5514870357366
 20
38.17333121859189
 30
0.0
 10
213.5514870357116
 20
37.89718884374539
 30
0.0
 10
213.5514870357116
 20
37.89718884374539
 30
0.0
 10
213.5514870345443
 20
24.89718884699513
 30
0.0
 10
213.5514870345443
 20
24.89718884699513
 30
0.0
 10
213.55148703452
 20
24.62104647214928
 30
0.0
 10
213.3276294094707
 20
24.39718884714046
 30
0.0
 10
213.0514870346242
 20
24.39718884716549
 30
0.0
 10
213.0514870346242
 20
24.39718884716549
 30
0.0
 10
200.051487037874
 20
24.39718884833274
 30
0.0
 10
200.051487037874
 20
24.39718884833274
 30
0.0
 10
199.7753446630281
 20
24.39718884835777
 30
0.0
 10
199.5514870380192
 20
24.62104647340573
 30
0.0
 10
199.5514870380443
 20
24.89718884825287
 30
0.0
 10
199.5514870380443
 20
24.89718884825287
 30
0.0
 10
199.5514870392115
 20
37.89718884500312
 30
0.0
 10
199.5514870392115
 20
37.89718884500312
 30
0.0
 10
199.5514870392359
 20
38.17333121984897
 30
0.0
 10
199.7753446642851
 20
38.39718884485715
 30
0.0
 10
200.051487039131
 20
38.39718884483276
 30
0.0
  0
SPLINE
  5
83
330
70
100
AcDbEntity
  8
0
 62
    18
420
        0
370
    25
100
AcDbSpline
210
0.0
220
0.0
230
1.0
 70
     9
 71
     3
 72
    29
 73
    25
 74
     0
 42
0.0000000001
 43
0.0000000001
 40
0.0
 40
0.0
 40
0.0
 40
0.0
 40
1.0
 40
1.0
 40
1.0
 40
2.0
 40
2.0
 40
2.0
 40
3.0
 40
3.0
 40
3.0
 40
4.0
 40
4.0
 40
4.0
 40
5.0
 40
5.0
 40
5.0
 40
6.0
 40
6.0
 40
6.0
 40
7.0
 40
7.0
 40
7.0
 40
8.0
 40
8.0
 40
8.0
 40
8.0
 10
181.0014870391308
 20
38.39718884654354
 30
0.0
 10
181.0014870391308
 20
38.39718884654354
 30
0.0
 10
194.0014870358811
 20
38.39718884537564
 30
0.0
 10
194.0014870358811
 20
38.39718884537564
 30
0.0
 10
194.2776294107276
 20
38.39718884535126
 30
0.0
 10
194.5014870357364
 20
38.17333122030201
 30
0.0
 10
194.5014870357114
 20
37.89718884545616
 30
0.0
 10
194.5014870357114
 20
37.89718884545616
 30
0.0
 10
194.5014870345441
 20
24.8971888487059
 30
0.0
 10
194.5014870345441
 20
24.8971888487059
 30
0.0
 10
194.5014870345197
 20
24.62104647385941
 30
0.0
 10
194.2776294094705
 20
24.39718884885123
 30
0.0
 10
194.0014870346246
 20
24.39718884887626
 30
0.0
 10
194.0014870346246
 20
24.39718884887626
 30
0.0
 10
181.0014870378744
 20
24.39718885004287
 30
0.0
 10
181.0014870378744
 20
24.39718885004287
 30
0.0
 10
180.7253446630279
 20
24.39718885006854
 30
0.0
 10
180.501487038019
 20
24.6210464751165
 30
0.0
 10
180.5014870380441
 20
24.89718884996299
 30
0.0
 10
180.5014870380441
 20
24.89718884996299
 30
0.0
 10
180.5014870392113
 20
37.89718884671324
 30
0.0
 10
180.5014870392113
 20
37.89718884671324
 30
0.0
 10
180.5014870392357
 20
38.17333122155974
 30
0.0
 10
180.725344664285
 20
38.39718884656792
 30
0.0
 10
181.0014870391308
 20
38.39718884654354
 30
0.0
  0
SPLINE
  5
84
330
70
100
AcDbEntity
  8
0
 62
    18
420
        0
370
    25
100
AcDbSpline
210
0.0
220
0.0
230
1.0
 70
     9
 71
     3
 72
    29
 73
    25
 74
     0
 42
0.0000000001
 43
0.0000000001
 40
0.0
 40
0.0
 40
0.0
 40
0.0
 40
1.0
 40
1.0
 40
1.0
 40
2.0
 40
2.0
 40
2.0
 40
3.0
 40
3.0
 40
3.0
 40
4.0
 40
4.0
 40
4.0
 40
5.0
 40
5.0
 40
5.0
 40
6.0
 40
6.0
 40
6.0
 40
7.0
 40
7.0
 40
7.0
 40
8.0
 40
8.0
 40
8.0
 40
8.0
 10
76.22629067559748
 20
38.39718885595149
 30
0.0
 10
76.22629067559748
 20
38.39718885595149
 30
0.0
 10
89.22629067234773
 20
38.39718885478423
 30
0.0
 10
89.22629067234773
 20
38.39718885478423
 30
0.0
 10
89.50243304719391
 20
38.39718885475921
 30
0.0
 10
89.72629067220273
 20
38.1733312297106
 30
0.0
 10
89.7262906721777
 20
37.89718885486474
 30
0.0
 10
89.7262906721777
 20
37.89718885486474
 30
0.0
 10
89.72629067101077
 20
24.89718885811449
 30
0.0
 10
89.72629067101077
 20
24.89718885811449
 30
0.0
 10
89.72629067098543
 20
24.62104648326736
 30
0.0
 10
89.50243304593682
 20
24.39718885825918
 30
0.0
 10
89.22629067109033
 20
24.39718885828421
 30
0.0
 10
89.22629067109033
 20
24.39718885828421
 30
0.0
 10
76.22629067434039
 20
24.39718885945146
 30
0.0
 10
76.22629067434039
 20
24.39718885945146
 30
0.0
 10
75.95014829949422
 20
24.39718885947584
 30
0.0
 10
75.72629067448573
 20
24.62104648452509
 30
0.0
 10
75.72629067451075
 20
24.89718885937094
 30
0.0
 10
75.72629067451075
 20
24.89718885937094
 30
0.0
 10
75.726290675678
 20
37.8971888561212
 30
0.0
 10
75.726290675678
 20
37.8971888561212
 30
0.0
 10
75.7262906757027
 20
38.17333123096769
 30
0.0
 10
75.95014830075164
 20
38.39718885597651
 30
0.0
 10
76.22629067559748
 20
38.39718885595149
 30
0.0
  0
SPLINE
  5
85
330
70
100
AcDbEntity
  8
0
 62
    18
420
        0
370
    25
100
AcDbSpline
210
0.0
220
0.0
230
1.0
 70
     9
 71
     3
 72
    29
 73
    25
 74
     0
 42
0.0000000001
 43
0.0000000001
 40
0.0
 40
0.0
 40
0.0
 40
0.0
 40
1.0
 40
1.0
 40
1.0
 40
2.0
 40
2.0
 40
2.0
 40
3.0
 40
3.0
 40
3.0
 40
4.0
 40
4.0
 40
4.0
 40
5.0
 40
5.0
 40
5.0
 40
6.0
 40
6.0
 40
6.0
 40
7.0
 40
7.0
 40
7.0
 40
8.0
 40
8.0
 40
8.0
 40
8.0
 10
57.17668340266318
 20
38.39718885766161
 30
0.0
 10
57.17668340266318
 20
38.39718885766161
 30
0.0
 10
70.17668339941312
 20
38.397188856495
 30
0.0
 10
70.17668339941312
 20
38.397188856495
 30
0.0
 10
70.45282577426057
 20
38.39718885646933
 30
0.0
 10
70.67668339926939
 20
38.17333123142137
 30
0.0
 10
70.67668339924437
 20
37.89718885657488
 30
0.0
 10
70.67668339924437
 20
37.89718885657488
 30
0.0
 10
70.67668339807712
 20
24.89718885982462
 30
0.0
 10
70.67668339807712
 20
24.89718885982462
 30
0.0
 10
70.67668339805209
 20
24.62104648497813
 30
0.0
 10
70.45282577300348
 20
24.39718885996995
 30
0.0
 10
70.17668339815603
 20
24.39718885999433
 30
0.0
 10
70.17668339815603
 20
24.39718885999433
 30
0.0
 10
57.17668340140609
 20
24.39718886116223
 30
0.0
 10
57.17668340140609
 20
24.39718886116223
 30
0.0
 10
56.90054102655992
 20
24.39718886118661
 30
0.0
 10
56.67668340155142
 20
24.62104648623522
 30
0.0
 10
56.67668340157645
 20
24.89718886108172
 30
0.0
 10
56.67668340157645
 20
24.89718886108172
 30
0.0
 10
56.6766834027437
 20
37.89718885783197
 30
0.0
 10
56.6766834027437
 20
37.89718885783197
 30
0.0
 10
56.67668340276872
 20
38.17333123267782
 30
0.0
 10
56.90054102781701
 20
38.39718885768664
 30
0.0
 10
57.17668340266318
 20
38.39718885766161
 30
0.0
  0
SPLINE
  5
86
330
70
100
AcDbEntity
  8
0
 62
    18
420
        0
370
    25
100
AcDbSpline
210
0.0
220
0.0
230
1.0
 70
     9
 71
     3
 72
    29
 73
    25
 74
     0
 42
0.0000000001
 43
0.0000000001
 40
0.0
 40
0.0
 40
0.0
 40
0.0
 40
1.0
 40
1.0
 40
1.0
 40
2.0
 40
2.0
 40
2.0
 40
3.0
 40
3.0
 40
3.0
 40
4.0
 40
4.0
 40
4.0
 40
5.0
 40
5.0
 40
5.0
 40
6.0
 40
6.0
 40
6.0
 40
7.0
 40
7.0
 40
7.0
 40
8.0
 40
8.0
 40
8.0
 40
8.0
 10
38.12668340266332
 20
38.39718885937238
 30
0.0
 10
38.12668340266332
 20
38.39718885937238
 30
0.0
 10
51.12668339941389
 20
38.39718885820513
 30
0.0
 10
51.12668339941389
 20
38.39718885820513
 30
0.0
 10
51.40282577426038
 20
38.3971888581801
 30
0.0
 10
51.6266833992692
 20
38.1733312331315
 30
0.0
 10
51.62668339924418
 20
37.89718885828501
 30
0.0
 10
51.62668339924418
 20
37.89718885828501
 30
0.0
 10
51.62668339807693
 20
24.89718886153475
 30
0.0
 10
51.62668339807693
 20
24.89718886153475
 30
0.0
 10
51.6266833980519
 20
24.6210464866889
 30
0.0
 10
51.40282577300329
 20
24.39718886168072
 30
0.0
 10
51.1266833981568
 20
24.3971888617051
 30
0.0
 10
51.1266833981568
 20
24.3971888617051
 30
0.0
 10
38.12668340140623
 20
24.39718886287236
 30
0.0
 10
38.12668340140623
 20
24.39718886287236
 30
0.0
 10
37.85054102655973
 20
24.39718886289738
 30
0.0
 10
37.62668340155091
 20
24.62104648794535
 30
0.0
 10
37.62668340157594
 20
24.89718886279248
 30
0.0
 10
37.62668340157594
 20
24.89718886279248
 30
0.0
 10
37.62668340274351
 20
37.89718885954273
 30
0.0
 10
37.62668340274351
 20
37.89718885954273
 30
0.0
 10
37.62668340276821
 20
38.17333123438859
 30
0.0
 10
37.85054102781682
 20
38.39718885939741
 30
0.0
 10
38.12668340266332
 20
38.39718885937238
 30
0.0
  0
SPLINE
  5
87
330
70
100
AcDbEntity
  8
0
 62
    18
420
        0
370
    25
100
AcDbSpline
210
0.0
220
0.0
230
1.0
 70
     9
 71
     3
 72
    29
 73
    25
 74
     0
 42
0.0000000001
 43
0.0000000001
 40
0.0
 40
0.0
 40
0.0
 40
0.0
 40
1.0
 40
1.0
 40
1.0
 40
2.0
 40
2.0
 40
2.0
 40
3.0
 40
3.0
 40
3.0
 40
4.0
 40
4.0
 40
4.0
 40
5.0
 40
5.0
 40
5.0
 40
6.0
 40
6.0
 40
6.0
 40
7.0
 40
7.0
 40
7.0
 40
8.0
 40
8.0
 40
8.0
 40
8.0
 10
195.2887906790192
 20
76.49718883573578
 30
0.0
 10
195.2887906790192
 20
76.49718883573578
 30
0.0
 10
208.2887906757695
 20
76.49718883456853
 30
0.0
 10
208.2887906757695
 20
76.49718883456853
 30
0.0
 10
208.564933050616
 20
76.49718883454351
 30
0.0
 10
208.7887906756242
 20
76.2733312094949
 30
0.0
 10
208.7887906755991
 20
75.9971888346484
 30
0.0
 10
208.7887906755991
 20
75.9971888346484
 30
0.0
 10
208.7887906744325
 20
62.99718883789815
 30
0.0
 10
208.7887906744325
 20
62.99718883789815
 30
0.0
 10
208.7887906744068
 20
62.72104646305166
 30
0.0
 10
208.5649330493589
 20
62.49718883804283
 30
0.0
 10
208.288790674513
 20
62.49718883806786
 30
0.0
 10
208.288790674513
 20
62.49718883806786
 30
0.0
 10
195.2887906777628
 20
62.4971888392351
 30
0.0
 10
195.2887906777628
 20
62.4971888392351
 30
0.0
 10
195.0126483029163
 20
62.49718883926014
 30
0.0
 10
194.7887906779074
 20
62.72104646430874
 30
0.0
 10
194.7887906779325
 20
62.99718883915524
 30
0.0
 10
194.7887906779325
 20
62.99718883915524
 30
0.0
 10
194.7887906790997
 20
75.99718883590549
 30
0.0
 10
194.7887906790997
 20
75.99718883590549
 30
0.0
 10
194.7887906791241
 20
76.27333121075199
 30
0.0
 10
195.0126483041734
 20
76.49718883576081
 30
0.0
 10
195.2887906790192
 20
76.49718883573578
 30
0.0
  0
SPLINE
  5
88
330
70
100
AcDbEntity
  8
0
 62
    18
420
        0
370
    25
100
AcDbSpline
210
0.0
220
0.0
230
1.0
 70
     9
 71
     3
 72
    29
 73
    25
 74
     0
 42
0.0000000001
 43
0.0000000001
 40
0.0
 40
0.0
 40
0.0
 40
0.0
 40
1.0
 40
1.0
 40
1.0
 40
2.0
 40
2.0
 40
2.0
 40
3.0
 40
3.0
 40
3.0
 40
4.0
 40
4.0
 40
4.0
 40
5.0
 40
5.0
 40
5.0
 40
6.0
 40
6.0
 40
6.0
 40
7.0
 40
7.0
 40
7.0
 40
8.0
 40
8.0
 40
8.0
 40
8.0
 10
176.2391834060849
 20
76.49718883744654
 30
0.0
 10
176.2391834060849
 20
76.49718883744654
 30
0.0
 10
189.2391834028352
 20
76.49718883627866
 30
0.0
 10
189.2391834028352
 20
76.49718883627866
 30
0.0
 10
189.5153257776817
 20
76.49718883625459
 30
0.0
 10
189.7391834026905
 20
76.27333121120502
 30
0.0
 10
189.7391834026661
 20
75.99718883635853
 30
0.0
 10
189.7391834026661
 20
75.99718883635853
 30
0.0
 10
189.7391834014982
 20
62.99718883960828
 30
0.0
 10
189.7391834014982
 20
62.99718883960828
 30
0.0
 10
189.7391834014738
 20
62.72104646476178
 30
0.0
 10
189.5153257764246
 20
62.49718883975361
 30
0.0
 10
189.2391834015787
 20
62.49718883977799
 30
0.0
 10
189.2391834015787
 20
62.49718883977799
 30
0.0
 10
176.2391834048285
 20
62.49718884094588
 30
0.0
 10
176.2391834048285
 20
62.49718884094588
 30
0.0
 10
175.9630410299826
 20
62.49718884097027
 30
0.0
 10
175.7391834049732
 20
62.72104646601887
 30
0.0
 10
175.7391834049989
 20
62.99718884086536
 30
0.0
 10
175.7391834049989
 20
62.99718884086536
 30
0.0
 10
175.7391834061655
 20
75.99718883761562
 30
0.0
 10
175.7391834061655
 20
75.99718883761562
 30
0.0
 10
175.7391834061905
 20
76.27333121246211
 30
0.0
 10
175.9630410312391
 20
76.49718883747093
 30
0.0
 10
176.2391834060849
 20
76.49718883744654
 30
0.0
  0
SPLINE
  5
89
330
70
100
AcDbEntity
  8
0
 62
    18
420
        0
370
    25
100
AcDbSpline
210
0.0
220
0.0
230
1.0
 70
     9
 71
     3
 72
    29
 73
    25
 74
     0
 42
0.0000000001
 43
0.0000000001
 40
0.0
 40
0.0
 40
0.0
 40
0.0
 40
1.0
 40
1.0
 40
1.0
 40
2.0
 40
2.0
 40
2.0
 40
3.0
 40
3.0
 40
3.0
 40
4.0
 40
4.0
 40
4.0
 40
5.0
 40
5.0
 40
5.0
 40
6.0
 40
6.0
 40
6.0
 40
7.0
 40
7.0
 40
7.0
 40
8.0
 40
8.0
 40
8.0
 40
8.0
 10
157.1891834060847
 20
76.49718883915667
 30
0.0
 10
157.1891834060847
 20
76.49718883915667
 30
0.0
 10
170.189183402835
 20
76.49718883798943
 30
0.0
 10
170.189183402835
 20
76.49718883798943
 30
0.0
 10
170.4653257776821
 20
76.4971888379644
 30
0.0
 10
170.6891834026903
 20
76.27333121291579
 30
0.0
 10
170.6891834026659
 20
75.9971888380693
 30
0.0
 10
170.6891834026659
 20
75.9971888380693
 30
0.0
 10
170.6891834014981
 20
62.99718884131904
 30
0.0
 10
170.6891834014981
 20
62.99718884131904
 30
0.0
 10
170.6891834014737
 20
62.72104646647255
 30
0.0
 10
170.4653257764244
 20
62.49718884146341
 30
0.0
 10
170.1891834015785
 20
62.49718884148876
 30
0.0
 10
170.1891834015785
 20
62.49718884148876
 30
0.0
 10
157.1891834048283
 20
62.497188842656
 30
0.0
 10
157.1891834048283
 20
62.497188842656
 30
0.0
 10
156.9130410299824
 20
62.49718884268103
 30
0.0
 10
156.689183404973
 20
62.72104646772964
 30
0.0
 10
156.6891834049986
 20
62.99718884257614
 30
0.0
 10
156.6891834049986
 20
62.99718884257614
 30
0.0
 10
156.6891834061653
 20
75.99718883932638
 30
0.0
 10
156.6891834061653
 20
75.99718883932638
 30
0.0
 10
156.6891834061903
 20
76.27333121417288
 30
0.0
 10
156.9130410312389
 20
76.4971888391817
 30
0.0
 10
157.1891834060847
 20
76.49718883915667
 30
0.0
  0
SPLINE
  5
8A
330
70
100
AcDbEntity
  8
0
 62
    18
420
        0
370
    25
100
AcDbSpline
210
0.0
220
0.0
230
1.0
 70
     9
 71
     3
 72
    29
 73
    25
 74
     0
 42
0.0000000001
 43
0.0000000001
 40
0.0
 40
0.0
 40
0.0
 40
0.0
 40
1.0
 40
1.0
 40
1.0
 40
2.0
 40
2.0
 40
2.0
 40
3.0
 40
3.0
 40
3.0
 40
4.0
 40
4.0
 40
4.0
 40
5.0
 40
5.0
 40
5.0
 40
6.0
 40
6.0
 40
6.0
 40
7.0
 40
7.0
 40
7.0
 40
8.0
 40
8.0
 40
8.0
 40
8.0
 10
138.1387906790199
 20
76.49718884086745
 30
0.0
 10
138.1387906790199
 20
76.49718884086745
 30
0.0
 10
151.1387906757702
 20
76.49718883969987
 30
0.0
 10
151.1387906757702
 20
76.49718883969987
 30
0.0
 10
151.4149330506161
 20
76.49718883967517
 30
0.0
 10
151.6387906756242
 20
76.27333121462656
 30
0.0
 10
151.6387906755998
 20
75.99718883978006
 30
0.0
 10
151.6387906755998
 20
75.99718883978006
 30
0.0
 10
151.6387906744326
 20
62.99718884302982
 30
0.0
 10
151.6387906744326
 20
62.99718884302982
 30
0.0
 10
151.6387906744076
 20
62.72104646818331
 30
0.0
 10
151.4149330493583
 20
62.4971888431745
 30
0.0
 10
151.1387906745125
 20
62.49718884319952
 30
0.0
 10
151.1387906745125
 20
62.49718884319952
 30
0.0
 10
138.1387906777622
 20
62.49718884436678
 30
0.0
 10
138.1387906777622
 20
62.49718884436678
 30
0.0
 10
137.8626483029163
 20
62.49718884439213
 30
0.0
 10
137.6387906779075
 20
62.72104646944041
 30
0.0
 10
137.6387906779326
 20
62.9971888442869
 30
0.0
 10
137.6387906779326
 20
62.9971888442869
 30
0.0
 10
137.6387906790998
 20
75.99718884103715
 30
0.0
 10
137.6387906790998
 20
75.99718884103715
 30
0.0
 10
137.6387906791249
 20
76.27333121588366
 30
0.0
 10
137.8626483041734
 20
76.49718884089248
 30
0.0
 10
138.1387906790199
 20
76.49718884086745
 30
0.0
  0
SPLINE
  5
8B
330
70
100
AcDbEntity
  8
0
 62
    18
420
        0
370
    25
100
AcDbSpline
210
0.0
220
0.0
230
1.0
 70
     9
 71
     3
 72
    29
 73
    25
 74
     0
 42
0.0000000001
 43
0.0000000001
 40
0.0
 40
0.0
 40
0.0
 40
0.0
 40
1.0
 40
1.0
 40
1.0
 40
2.0
 40
2.0
 40
2.0
 40
3.0
 40
3.0
 40
3.0
 40
4.0
 40
4.0
 40
4.0
 40
5.0
 40
5.0
 40
5.0
 40
6.0
 40
6.0
 40
6.0
 40
7.0
 40
7.0
 40
7.0
 40
8.0
 40
8.0
 40
8.0
 40
8.0
 10
119.0891834060847
 20
76.49718884257821
 30
0.0
 10
119.0891834060847
 20
76.49718884257821
 30
0.0
 10
132.0891834028353
 20
76.49718884141032
 30
0.0
 10
132.0891834028353
 20
76.49718884141032
 30
0.0
 10
132.3653257776817
 20
76.49718884138593
 30
0.0
 10
132.5891834026906
 20
76.27333121633668
 30
0.0
 10
132.5891834026655
 20
75.99718884149051
 30
0.0
 10
132.5891834026655
 20
75.99718884149051
 30
0.0
 10
132.5891834014983
 20
62.99718884473994
 30
0.0
 10
132.5891834014983
 20
62.99718884473994
 30
0.0
 10
132.5891834014739
 20
62.72104646989345
 30
0.0
 10
132.3653257764247
 20
62.49718884488527
 30
0.0
 10
132.0891834015785
 20
62.49718884490966
 30
0.0
 10
132.0891834015785
 20
62.49718884490966
 30
0.0
 10
119.0891834048273
 20
62.49718884607755
 30
0.0
 10
119.0891834048273
 20
62.49718884607755
 30
0.0
 10
118.8130410299821
 20
62.49718884610193
 30
0.0
 10
118.5891834049739
 20
62.72104647115117
 30
0.0
 10
118.5891834049983
 20
62.99718884599768
 30
0.0
 10
118.5891834049983
 20
62.99718884599768
 30
0.0
 10
118.5891834061652
 20
75.99718884274793
 30
0.0
 10
118.5891834061652
 20
75.99718884274793
 30
0.0
 10
118.5891834061906
 20
76.27333121759441
 30
0.0
 10
118.8130410312391
 20
76.49718884260259
 30
0.0
 10
119.0891834060847
 20
76.49718884257821
 30
0.0
  0
SPLINE
  5
8C
330
70
100
AcDbEntity
  8
0
 62
    18
420
        0
370
    25
100
AcDbSpline
210
0.0
220
0.0
230
1.0
 70
     9
 71
     3
 72
    29
 73
    25
 74
     0
 42
0.0000000001
 43
0.0000000001
 40
0.0
 40
0.0
 40
0.0
 40
0.0
 40
1.0
 40
1.0
 40
1.0
 40
2.0
 40
2.0
 40
2.0
 40
3.0
 40
3.0
 40
3.0
 40
4.0
 40
4.0
 40
4.0
 40
5.0
 40
5.0
 40
5.0
 40
6.0
 40
6.0
 40
6.0
 40
7.0
 40
7.0
 40
7.0
 40
8.0
 40
8.0
 40
8.0
 40
8.0
 10
100.0391834060845
 20
76.49718884428835
 30
0.0
 10
100.0391834060845
 20
76.49718884428835
 30
0.0
 10
113.0391834028351
 20
76.4971888431214
 30
0.0
 10
113.0391834028351
 20
76.4971888431214
 30
0.0
 10
113.3153257776815
 20
76.49718884309606
 30
0.0
 10
113.5391834026904
 20
76.27333121804745
 30
0.0
 10
113.5391834026654
 20
75.99718884320097
 30
0.0
 10
113.5391834026654
 20
75.99718884320097
 30
0.0
 10
113.5391834014978
 20
62.99718884645071
 30
0.0
 10
113.5391834014978
 20
62.99718884645071
 30
0.0
 10
113.5391834014737
 20
62.72104647160421
 30
0.0
 10
113.3153257764245
 20
62.49718884659539
 30
0.0
 10
113.039183401578
 20
62.49718884662042
 30
0.0
 10
113.039183401578
 20
62.49718884662042
 30
0.0
 10
100.0391834048274
 20
62.49718884778768
 30
0.0
 10
100.0391834048274
 20
62.49718884778768
 30
0.0
 10
99.76304102998222
 20
62.4971888478127
 30
0.0
 10
99.53918340497372
 20
62.72104647286131
 30
0.0
 10
99.53918340499811
 20
62.9971888477078
 30
0.0
 10
99.53918340499811
 20
62.9971888477078
 30
0.0
 10
99.53918340616535
 20
75.99718884445805
 30
0.0
 10
99.53918340616535
 20
75.99718884445805
 30
0.0
 10
99.53918340619038
 20
76.27333121930455
 30
0.0
 10
99.76304103123899
 20
76.49718884431337
 30
0.0
 10
100.0391834060845
 20
76.49718884428835
 30
0.0
  0
SPLINE
  5
8D
330
70
100
AcDbEntity
  8
0
 62
    18
420
        0
370
    25
100
AcDbSpline
210
0.0
220
0.0
230
1.0
 70
     9
 71
     3
 72
    29
 73
    25
 74
     0
 42
0.0000000001
 43
0.0000000001
 40
0.0
 40
0.0
 40
0.0
 40
0.0
 40
1.0
 40
1.0
 40
1.0
 40
2.0
 40
2.0
 40
2.0
 40
3.0
 40
3.0
 40
3.0
 40
4.0
 40
4.0
 40
4.0
 40
5.0
 40
5.0
 40
5.0
 40
6.0
 40
6.0
 40
6.0
 40
7.0
 40
7.0
 40
7.0
 40
8.0
 40
8.0
 40
8.0
 40
8.0
 10
80.98879067901938
 20
76.49718884599912
 30
0.0
 10
80.98879067901938
 20
76.49718884599912
 30
0.0
 10
93.98879067576933
 20
76.49718884483187
 30
0.0
 10
93.98879067576933
 20
76.49718884483187
 30
0.0
 10
94.26493305061582
 20
76.49718884480684
 30
0.0
 10
94.48879067562495
 20
76.27333121975791
 30
0.0
 10
94.48879067559992
 20
75.99718884491173
 30
0.0
 10
94.48879067559992
 20
75.99718884491173
 30
0.0
 10
94.48879067443268
 20
62.99718884816148
 30
0.0
 10
94.48879067443268
 20
62.99718884816148
 30
0.0
 10
94.48879067440829
 20
62.72104647331499
 30
0.0
 10
94.26493304935872
 20
62.49718884830617
 30
0.0
 10
93.98879067451192
 20
62.49718884833119
 30
0.0
 10
93.98879067451192
 20
62.49718884833119
 30
0.0
 10
80.98879067776229
 20
62.49718884949844
 30
0.0
 10
80.98879067776229
 20
62.49718884949844
 30
0.0
 10
80.7126483029158
 20
62.49718884952347
 30
0.0
 10
80.4887906779073
 20
62.7210464745724
 30
0.0
 10
80.48879067793169
 20
62.99718884941857
 30
0.0
 10
80.48879067793169
 20
62.99718884941857
 30
0.0
 10
80.48879067909927
 20
75.99718884616883
 30
0.0
 10
80.48879067909927
 20
75.99718884616883
 30
0.0
 10
80.48879067912428
 20
76.27333122101532
 30
0.0
 10
80.71264830417289
 20
76.49718884602414
 30
0.0
 10
80.98879067901938
 20
76.49718884599912
 30
0.0
  0
SPLINE
  5
8E
330
70
100
AcDbEntity
  8
0
 62
    18
420
        0
370
    25
100
AcDbSpline
210
0.0
220
0.0
230
1.0
 70
     9
 71
     3
 72
    29
 73
    25
 74
     0
 42
0.0000000001
 43
0.0000000001
 40
0.0
 40
0.0
 40
0.0
 40
0.0
 40
1.0
 40
1.0
 40
1.0
 40
2.0
 40
2.0
 40
2.0
 40
3.0
 40
3.0
 40
3.0
 40
4.0
 40
4.0
 40
4.0
 40
5.0
 40
5.0
 40
5.0
 40
6.0
 40
6.0
 40
6.0
 40
7.0
 40
7.0
 40
7.0
 40
8.0
 40
8.0
 40
8.0
 40
8.0
 10
61.93918340608509
 20
76.49718884770988
 30
0.0
 10
61.93918340608509
 20
76.49718884770988
 30
0.0
 10
74.93918340283503
 20
76.49718884654198
 30
0.0
 10
74.93918340283503
 20
76.49718884654198
 30
0.0
 10
75.21532577768152
 20
76.4971888465176
 30
0.0
 10
75.43918340269034
 20
76.273331221469
 30
0.0
 10
75.43918340266531
 20
75.99718884662251
 30
0.0
 10
75.43918340266531
 20
75.99718884662251
 30
0.0
 10
75.43918340149838
 20
62.99718884987225
 30
0.0
 10
75.43918340149838
 20
62.99718884987225
 30
0.0
 10
75.43918340147399
 20
62.72104647502608
 30
0.0
 10
75.21532577642474
 20
62.49718885001694
 30
0.0
 10
74.93918340157826
 20
62.49718885004132
 30
0.0
 10
74.93918340157826
 20
62.49718885004132
 30
0.0
 10
61.93918340482801
 20
62.49718885120921
 30
0.0
 10
61.93918340482801
 20
62.49718885120921
 30
0.0
 10
61.66304102998183
 20
62.4971888512336
 30
0.0
 10
61.43918340497397
 20
62.72104647628284
 30
0.0
 10
61.43918340499836
 20
62.99718885112934
 30
0.0
 10
61.43918340499836
 20
62.99718885112934
 30
0.0
 10
61.43918340616561
 20
75.9971888478796
 30
0.0
 10
61.43918340616561
 20
75.9971888478796
 30
0.0
 10
61.43918340619031
 20
76.27333122272609
 30
0.0
 10
61.66304103123891
 20
76.49718884773426
 30
0.0
 10
61.93918340608509
 20
76.49718884770988
 30
0.0
  0
SPLINE
  5
8F
330
70
100
AcDbEntity
  8
0
 62
    18
420
        0
370
    25
100
AcDbSpline
210
0.0
220
0.0
230
1.0
 70
     9
 71
     3
 72
    29
 73
    25
 74
     0
 42
0.0000000001
 43
0.0000000001
 40
0.0
 40
0.0
 40
0.0
 40
0.0
 40
1.0
 40
1.0
 40
1.0
 40
2.0
 40
2.0
 40
2.0
 40
3.0
 40
3.0
 40
3.0
 40
4.0
 40
4.0
 40
4.0
 40
5.0
 40
5.0
 40
5.0
 40
6.0
 40
6.0
 40
6.0
 40
7.0
 40
7.0
 40
7.0
 40
8.0
 40
8.0
 40
8.0
 40
8.0
 10
40.50762213705627
 20
76.49718884942001
 30
0.0
 10
40.50762213705627
 20
76.49718884942001
 30
0.0
 10
53.50762213380619
 20
76.49718884825276
 30
0.0
 10
53.50762213380619
 20
76.49718884825276
 30
0.0
 10
53.78376450865269
 20
76.49718884822838
 30
0.0
 10
54.00762213366151
 20
76.27333122317946
 30
0.0
 10
54.00762213363648
 20
75.99718884833262
 30
0.0
 10
54.00762213363648
 20
75.99718884833262
 30
0.0
 10
54.00762213246924
 20
62.99718885158238
 30
0.0
 10
54.00762213246924
 20
62.99718885158238
 30
0.0
 10
54.00762213244517
 20
62.72104647673589
 30
0.0
 10
53.7837645073956
 20
62.49718885172771
 30
0.0
 10
53.50762213254943
 20
62.49718885175209
 30
0.0
 10
53.50762213254943
 20
62.49718885175209
 30
0.0
 10
40.50762213579917
 20
62.49718885291934
 30
0.0
 10
40.50762213579917
 20
62.49718885291934
 30
0.0
 10
40.231479760953
 20
62.49718885294437
 30
0.0
 10
40.00762213594482
 20
62.7210464779933
 30
0.0
 10
40.0076221359692
 20
62.99718885283947
 30
0.0
 10
40.0076221359692
 20
62.99718885283947
 30
0.0
 10
40.00762213713677
 20
75.99718884958972
 30
0.0
 10
40.00762213713677
 20
75.99718884958972
 30
0.0
 10
40.00762213716148
 20
76.27333122443622
 30
0.0
 10
40.23147976221009
 20
76.49718884944504
 30
0.0
 10
40.50762213705627
 20
76.49718884942001
 30
0.0
  0
SPLINE
  5
90
330
70
100
AcDbEntity
  8
0
 62
    18
420
        0
370
    25
100
AcDbSpline
210
0.0
220
0.0
230
1.0
 70
     9
 71
     3
 72
    29
 73
    25
 74
     0
 42
0.0000000001
 43
0.0000000001
 40
0.0
 40
0.0
 40
0.0
 40
0.0
 40
1.0
 40
1.0
 40
1.0
 40
2.0
 40
2.0
 40
2.0
 40
3.0
 40
3.0
 40
3.0
 40
4.0
 40
4.0
 40
4.0
 40
5.0
 40
5.0
 40
5.0
 40
6.0
 40
6.0
 40
6.0
 40
7.0
 40
7.0
 40
7.0
 40
8.0
 40
8.0
 40
8.0
 40
8.0
 10
190.5262906807296
 20
95.54718883140065
 30
0.0
 10
190.5262906807296
 20
95.54718883140065
 30
0.0
 10
203.5262906774799
 20
95.54718883023339
 30
0.0
 10
203.5262906774799
 20
95.54718883023339
 30
0.0
 10
203.8024330523258
 20
95.54718883020838
 30
0.0
 10
204.0262906773345
 20
95.32333120515977
 30
0.0
 10
204.0262906773095
 20
95.04718883031328
 30
0.0
 10
204.0262906773095
 20
95.04718883031328
 30
0.0
 10
204.0262906761429
 20
82.04718883356303
 30
0.0
 10
204.0262906761429
 20
82.04718883356303
 30
0.0
 10
204.0262906761179
 20
81.77104645871652
 30
0.0
 10
203.8024330510693
 20
81.54718883370835
 30
0.0
 10
203.5262906762228
 20
81.54718883373273
 30
0.0
 10
203.5262906762228
 20
81.54718883373273
 30
0.0
 10
190.5262906794725
 20
81.54718883489998
 30
0.0
 10
190.5262906794725
 20
81.54718883489998
 30
0.0
 10
190.250148304626
 20
81.54718883492533
 30
0.0
 10
190.0262906796179
 20
81.77104645997362
 30
0.0
 10
190.0262906796422
 20
82.0471888348201
 30
0.0
 10
190.0262906796422
 20
82.0471888348201
 30
0.0
 10
190.0262906808102
 20
95.04718883157037
 30
0.0
 10
190.0262906808102
 20
95.04718883157037
 30
0.0
 10
190.0262906808345
 20
95.32333120641686
 30
0.0
 10
190.2501483058838
 20
95.54718883142568
 30
0.0
 10
190.5262906807296
 20
95.54718883140065
 30
0.0
  0
SPLINE
  5
91
330
70
100
AcDbEntity
  8
0
 62
    18
420
        0
370
    25
100
AcDbSpline
210
0.0
220
0.0
230
1.0
 70
     9
 71
     3
 72
    29
 73
    25
 74
     0
 42
0.0000000001
 43
0.0000000001
 40
0.0
 40
0.0
 40
0.0
 40
0.0
 40
1.0
 40
1.0
 40
1.0
 40
2.0
 40
2.0
 40
2.0
 40
3.0
 40
3.0
 40
3.0
 40
4.0
 40
4.0
 40
4.0
 40
5.0
 40
5.0
 40
5.0
 40
6.0
 40
6.0
 40
6.0
 40
7.0
 40
7.0
 40
7.0
 40
8.0
 40
8.0
 40
8.0
 40
8.0
 10
171.4766834077953
 20
95.54718883311108
 30
0.0
 10
171.4766834077953
 20
95.54718883311108
 30
0.0
 10
184.4766834045456
 20
95.54718883194416
 30
0.0
 10
184.4766834045456
 20
95.54718883194416
 30
0.0
 10
184.7528257793921
 20
95.54718883191881
 30
0.0
 10
184.9766834044009
 20
95.32333120687054
 30
0.0
 10
184.9766834043759
 20
95.04718883202405
 30
0.0
 10
184.9766834043759
 20
95.04718883202405
 30
0.0
 10
184.9766834032086
 20
82.04718883527378
 30
0.0
 10
184.9766834032086
 20
82.04718883527378
 30
0.0
 10
184.9766834031843
 20
81.7710464604273
 30
0.0
 10
184.752825778135
 20
81.54718883541848
 30
0.0
 10
184.4766834032885
 20
81.54718883544351
 30
0.0
 10
184.4766834032885
 20
81.54718883544351
 30
0.0
 10
171.4766834065382
 20
81.54718883661075
 30
0.0
 10
171.4766834065382
 20
81.54718883661075
 30
0.0
 10
171.2005410316924
 20
81.54718883663578
 30
0.0
 10
170.9766834066836
 20
81.77104646168437
 30
0.0
 10
170.9766834067086
 20
82.04718883653088
 30
0.0
 10
170.9766834067086
 20
82.04718883653088
 30
0.0
 10
170.9766834078758
 20
95.04718883328113
 30
0.0
 10
170.9766834078758
 20
95.04718883328113
 30
0.0
 10
170.9766834079002
 20
95.32333120812729
 30
0.0
 10
171.2005410329495
 20
95.54718883313645
 30
0.0
 10
171.4766834077953
 20
95.54718883311108
 30
0.0
  0
SPLINE
  5
92
330
70
100
AcDbEntity
  8
0
 62
    18
420
        0
370
    25
100
AcDbSpline
210
0.0
220
0.0
230
1.0
 70
     9
 71
     3
 72
    29
 73
    25
 74
     0
 42
0.0000000001
 43
0.0000000001
 40
0.0
 40
0.0
 40
0.0
 40
0.0
 40
1.0
 40
1.0
 40
1.0
 40
2.0
 40
2.0
 40
2.0
 40
3.0
 40
3.0
 40
3.0
 40
4.0
 40
4.0
 40
4.0
 40
5.0
 40
5.0
 40
5.0
 40
6.0
 40
6.0
 40
6.0
 40
7.0
 40
7.0
 40
7.0
 40
8.0
 40
8.0
 40
8.0
 40
8.0
 10
152.4266834077951
 20
95.5471888348222
 30
0.0
 10
152.4266834077951
 20
95.5471888348222
 30
0.0
 10
165.4266834045454
 20
95.54718883365493
 30
0.0
 10
165.4266834045454
 20
95.54718883365493
 30
0.0
 10
165.7028257793919
 20
95.54718883362928
 30
0.0
 10
165.9266834044007
 20
95.32333120858098
 30
0.0
 10
165.9266834043757
 20
95.04718883373481
 30
0.0
 10
165.9266834043757
 20
95.04718883373481
 30
0.0
 10
165.9266834032085
 20
82.04718883698456
 30
0.0
 10
165.9266834032085
 20
82.04718883698456
 30
0.0
 10
165.9266834031841
 20
81.77104646213775
 30
0.0
 10
165.7028257781348
 20
81.54718883712924
 30
0.0
 10
165.4266834032883
 20
81.54718883715426
 30
0.0
 10
165.4266834032883
 20
81.54718883715426
 30
0.0
 10
152.4266834065381
 20
81.54718883832151
 30
0.0
 10
152.4266834065381
 20
81.54718883832151
 30
0.0
 10
152.1505410316922
 20
81.5471888383459
 30
0.0
 10
151.9266834066834
 20
81.77104646339515
 30
0.0
 10
151.9266834067084
 20
82.04718883824165
 30
0.0
 10
151.9266834067084
 20
82.04718883824165
 30
0.0
 10
151.9266834078757
 20
95.0471888349919
 30
0.0
 10
151.9266834078757
 20
95.0471888349919
 30
0.0
 10
151.9266834079
 20
95.32333120983841
 30
0.0
 10
152.1505410329493
 20
95.54718883484659
 30
0.0
 10
152.4266834077951
 20
95.5471888348222
 30
0.0
  0
SPLINE
  5
93
330
70
100
AcDbEntity
  8
0
 62
    18
420
        0
370
    25
100
AcDbSpline
210
0.0
220
0.0
230
1.0
 70
     9
 71
     3
 72
    29
 73
    25
 74
     0
 42
0.0000000001
 43
0.0000000001
 40
0.0
 40
0.0
 40
0.0
 40
0.0
 40
1.0
 40
1.0
 40
1.0
 40
2.0
 40
2.0
 40
2.0
 40
3.0
 40
3.0
 40
3.0
 40
4.0
 40
4.0
 40
4.0
 40
5.0
 40
5.0
 40
5.0
 40
6.0
 40
6.0
 40
6.0
 40
7.0
 40
7.0
 40
7.0
 40
8.0
 40
8.0
 40
8.0
 40
8.0
 10
133.3762906807297
 20
95.54718883653199
 30
0.0
 10
133.3762906807297
 20
95.54718883653199
 30
0.0
 10
146.3762906774799
 20
95.54718883536507
 30
0.0
 10
146.3762906774799
 20
95.54718883536507
 30
0.0
 10
146.6524330523258
 20
95.54718883534068
 30
0.0
 10
146.8762906773346
 20
95.32333121029145
 30
0.0
 10
146.8762906773102
 20
95.04718883544494
 30
0.0
 10
146.8762906773102
 20
95.04718883544494
 30
0.0
 10
146.876290676143
 20
82.04718883869469
 30
0.0
 10
146.876290676143
 20
82.04718883869469
 30
0.0
 10
146.8762906761179
 20
81.77104646384819
 30
0.0
 10
146.6524330510687
 20
81.54718883884001
 30
0.0
 10
146.3762906762229
 20
81.5471888388644
 30
0.0
 10
146.3762906762229
 20
81.5471888388644
 30
0.0
 10
133.3762906794726
 20
81.54718884003164
 30
0.0
 10
133.3762906794726
 20
81.54718884003164
 30
0.0
 10
133.1001483046267
 20
81.54718884005667
 30
0.0
 10
132.8762906796179
 20
81.77104646510496
 30
0.0
 10
132.8762906796429
 20
82.04718883995177
 30
0.0
 10
132.8762906796429
 20
82.04718883995177
 30
0.0
 10
132.8762906808102
 20
95.0471888367017
 30
0.0
 10
132.8762906808102
 20
95.0471888367017
 30
0.0
 10
132.8762906808352
 20
95.3233312115482
 30
0.0
 10
133.1001483058838
 20
95.54718883655734
 30
0.0
 10
133.3762906807297
 20
95.54718883653199
 30
0.0
  0
SPLINE
  5
94
330
70
100
AcDbEntity
  8
0
 62
    18
420
        0
370
    25
100
AcDbSpline
210
0.0
220
0.0
230
1.0
 70
     9
 71
     3
 72
    29
 73
    25
 74
     0
 42
0.0000000001
 43
0.0000000001
 40
0.0
 40
0.0
 40
0.0
 40
0.0
 40
1.0
 40
1.0
 40
1.0
 40
2.0
 40
2.0
 40
2.0
 40
3.0
 40
3.0
 40
3.0
 40
4.0
 40
4.0
 40
4.0
 40
5.0
 40
5.0
 40
5.0
 40
6.0
 40
6.0
 40
6.0
 40
7.0
 40
7.0
 40
7.0
 40
8.0
 40
8.0
 40
8.0
 40
8.0
 10
114.3266834077954
 20
95.54718883824309
 30
0.0
 10
114.3266834077954
 20
95.54718883824309
 30
0.0
 10
127.3266834045456
 20
95.5471888370752
 30
0.0
 10
127.3266834045456
 20
95.5471888370752
 30
0.0
 10
127.6028257793921
 20
95.54718883705081
 30
0.0
 10
127.826683404401
 20
95.3233312120022
 30
0.0
 10
127.8266834043759
 20
95.04718883715572
 30
0.0
 10
127.8266834043759
 20
95.04718883715572
 30
0.0
 10
127.8266834032087
 20
82.04718884040545
 30
0.0
 10
127.8266834032087
 20
82.04718884040545
 30
0.0
 10
127.826683403184
 20
81.77104646555928
 30
0.0
 10
127.6028257781351
 20
81.54718884055014
 30
0.0
 10
127.3266834032886
 20
81.54718884057517
 30
0.0
 10
127.3266834032886
 20
81.54718884057517
 30
0.0
 10
114.3266834065383
 20
81.54718884174242
 30
0.0
 10
114.3266834065383
 20
81.54718884174242
 30
0.0
 10
114.0505410316925
 20
81.54718884176745
 30
0.0
 10
113.8266834066836
 20
81.77104646681604
 30
0.0
 10
113.8266834067087
 20
82.04718884166254
 30
0.0
 10
113.8266834067087
 20
82.04718884166254
 30
0.0
 10
113.8266834078759
 20
95.04718883841279
 30
0.0
 10
113.8266834078759
 20
95.04718883841279
 30
0.0
 10
113.826683407901
 20
95.3233312132593
 30
0.0
 10
114.0505410329495
 20
95.54718883826812
 30
0.0
 10
114.3266834077954
 20
95.54718883824309
 30
0.0
  0
SPLINE
  5
95
330
70
100
AcDbEntity
  8
0
 62
    18
420
        0
370
    25
100
AcDbSpline
210
0.0
220
0.0
230
1.0
 70
     9
 71
     3
 72
    29
 73
    25
 74
     0
 42
0.0000000001
 43
0.0000000001
 40
0.0
 40
0.0
 40
0.0
 40
0.0
 40
1.0
 40
1.0
 40
1.0
 40
2.0
 40
2.0
 40
2.0
 40
3.0
 40
3.0
 40
3.0
 40
4.0
 40
4.0
 40
4.0
 40
5.0
 40
5.0
 40
5.0
 40
6.0
 40
6.0
 40
6.0
 40
7.0
 40
7.0
 40
7.0
 40
8.0
 40
8.0
 40
8.0
 40
8.0
 10
95.27668340779523
 20
95.54718883995418
 30
0.0
 10
95.27668340779523
 20
95.54718883995418
 30
0.0
 10
108.2766834045455
 20
95.54718883878662
 30
0.0
 10
108.2766834045455
 20
95.54718883878662
 30
0.0
 10
108.552825779392
 20
95.54718883876159
 30
0.0
 10
108.7766834044008
 20
95.32333121371298
 30
0.0
 10
108.7766834043754
 20
95.04718883886647
 30
0.0
 10
108.7766834043754
 20
95.04718883886647
 30
0.0
 10
108.7766834032085
 20
82.04718884211622
 30
0.0
 10
108.7766834032085
 20
82.04718884211622
 30
0.0
 10
108.7766834031835
 20
81.77104646726972
 30
0.0
 10
108.5528257781349
 20
81.5471888422609
 30
0.0
 10
108.2766834032884
 20
81.54718884228593
 30
0.0
 10
108.2766834032884
 20
81.54718884228593
 30
0.0
 10
95.27668340653782
 20
81.54718884345319
 30
0.0
 10
95.27668340653782
 20
81.54718884345319
 30
0.0
 10
95.0005410316923
 20
81.54718884347756
 30
0.0
 10
94.77668340668348
 20
81.77104646852681
 30
0.0
 10
94.77668340670851
 20
82.04718884337331
 30
0.0
 10
94.77668340670851
 20
82.04718884337331
 30
0.0
 10
94.77668340787575
 20
95.04718884012357
 30
0.0
 10
94.77668340787575
 20
95.04718884012357
 30
0.0
 10
94.77668340790078
 20
95.32333121497007
 30
0.0
 10
95.00054103294939
 20
95.54718883997825
 30
0.0
 10
95.27668340779523
 20
95.54718883995418
 30
0.0
  0
SPLINE
  5
96
330
70
100
AcDbEntity
  8
0
 62
    18
420
        0
370
    25
100
AcDbSpline
210
0.0
220
0.0
230
1.0
 70
     9
 71
     3
 72
    29
 73
    25
 74
     0
 42
0.0000000001
 43
0.0000000001
 40
0.0
 40
0.0
 40
0.0
 40
0.0
 40
1.0
 40
1.0
 40
1.0
 40
2.0
 40
2.0
 40
2.0
 40
3.0
 40
3.0
 40
3.0
 40
4.0
 40
4.0
 40
4.0
 40
5.0
 40
5.0
 40
5.0
 40
6.0
 40
6.0
 40
6.0
 40
7.0
 40
7.0
 40
7.0
 40
8.0
 40
8.0
 40
8.0
 40
8.0
 10
76.22629068072979
 20
95.54718884166398
 30
0.0
 10
76.22629068072979
 20
95.54718884166398
 30
0.0
 10
89.22629067747973
 20
95.54718884049673
 30
0.0
 10
89.22629067747973
 20
95.54718884049673
 30
0.0
 10
89.50243305232623
 20
95.54718884047234
 30
0.0
 10
89.72629067733535
 20
95.32333121542311
 30
0.0
 10
89.72629067731002
 20
95.04718884057661
 30
0.0
 10
89.72629067731002
 20
95.04718884057661
 30
0.0
 10
89.72629067614308
 20
82.04718884382636
 30
0.0
 10
89.72629067614308
 20
82.04718884382636
 30
0.0
 10
89.72629067611805
 20
81.77104646897985
 30
0.0
 10
89.50243305106914
 20
81.54718884397167
 30
0.0
 10
89.22629067622263
 20
81.54718884399606
 30
0.0
 10
89.22629067622263
 20
81.54718884399606
 30
0.0
 10
76.22629067947269
 20
81.54718884516363
 30
0.0
 10
76.22629067947269
 20
81.54718884516363
 30
0.0
 10
75.95014830462652
 20
81.54718884518834
 30
0.0
 10
75.72629067961739
 20
81.77104647023694
 30
0.0
 10
75.72629067964242
 20
82.04718884508343
 30
0.0
 10
75.72629067964242
 20
82.04718884508343
 30
0.0
 10
75.72629068080967
 20
95.0471888418337
 30
0.0
 10
75.72629068080967
 20
95.0471888418337
 30
0.0
 10
75.72629068083469
 20
95.32333121668019
 30
0.0
 10
75.9501483058833
 20
95.54718884168901
 30
0.0
 10
76.22629068072979
 20
95.54718884166398
 30
0.0
  0
SPLINE
  5
97
330
70
100
AcDbEntity
  8
0
 62
    18
420
        0
370
    25
100
AcDbSpline
210
0.0
220
0.0
230
1.0
 70
     9
 71
     3
 72
    29
 73
    25
 74
     0
 42
0.0000000001
 43
0.0000000001
 40
0.0
 40
0.0
 40
0.0
 40
0.0
 40
1.0
 40
1.0
 40
1.0
 40
2.0
 40
2.0
 40
2.0
 40
3.0
 40
3.0
 40
3.0
 40
4.0
 40
4.0
 40
4.0
 40
5.0
 40
5.0
 40
5.0
 40
6.0
 40
6.0
 40
6.0
 40
7.0
 40
7.0
 40
7.0
 40
8.0
 40
8.0
 40
8.0
 40
8.0
 10
57.1766834077955
 20
95.54718884337475
 30
0.0
 10
57.1766834077955
 20
95.54718884337475
 30
0.0
 10
70.17668340454574
 20
95.54718884220717
 30
0.0
 10
70.17668340454574
 20
95.54718884220717
 30
0.0
 10
70.45282577939191
 20
95.54718884218248
 30
0.0
 10
70.67668340440106
 20
95.32333121713387
 30
0.0
 10
70.67668340437603
 20
95.04718884228738
 30
0.0
 10
70.67668340437603
 20
95.04718884228738
 30
0.0
 10
70.67668340320878
 20
82.04718884553711
 30
0.0
 10
70.67668340320878
 20
82.04718884553711
 30
0.0
 10
70.67668340318376
 20
81.77104647069063
 30
0.0
 10
70.45282577813515
 20
81.54718884568181
 30
0.0
 10
70.17668340328866
 20
81.54718884570684
 30
0.0
 10
70.17668340328866
 20
81.54718884570684
 30
0.0
 10
57.1766834065384
 20
81.5471888468741
 30
0.0
 10
57.1766834065384
 20
81.5471888468741
 30
0.0
 10
56.90054103169256
 20
81.54718884689911
 30
0.0
 10
56.67668340668374
 20
81.77104647194772
 30
0.0
 10
56.67668340670876
 20
82.04718884679454
 30
0.0
 10
56.67668340670876
 20
82.04718884679454
 30
0.0
 10
56.67668340787568
 20
95.04718884354446
 30
0.0
 10
56.67668340787568
 20
95.04718884354446
 30
0.0
 10
56.67668340790072
 20
95.32333121839096
 30
0.0
 10
56.90054103294932
 20
95.5471888434001
 30
0.0
 10
57.1766834077955
 20
95.54718884337475
 30
0.0
  0
SPLINE
  5
98
330
70
100
AcDbEntity
  8
0
 62
    18
420
        0
370
    25
100
AcDbSpline
210
0.0
220
0.0
230
1.0
 70
     9
 71
     3
 72
    29
 73
    25
 74
     0
 42
0.0000000001
 43
0.0000000001
 40
0.0
 40
0.0
 40
0.0
 40
0.0
 40
1.0
 40
1.0
 40
1.0
 40
2.0
 40
2.0
 40
2.0
 40
3.0
 40
3.0
 40
3.0
 40
4.0
 40
4.0
 40
4.0
 40
5.0
 40
5.0
 40
5.0
 40
6.0
 40
6.0
 40
6.0
 40
7.0
 40
7.0
 40
7.0
 40
8.0
 40
8.0
 40
8.0
 40
8.0
 10
38.12668340779531
 20
95.54718884508552
 30
0.0
 10
38.12668340779531
 20
95.54718884508552
 30
0.0
 10
51.12668340454556
 20
95.54718884391828
 30
0.0
 10
51.12668340454556
 20
95.54718884391828
 30
0.0
 10
51.40282577939173
 20
95.54718884389325
 30
0.0
 10
51.62668340440087
 20
95.32333121884464
 30
0.0
 10
51.62668340437552
 20
95.04718884399814
 30
0.0
 10
51.62668340437552
 20
95.04718884399814
 30
0.0
 10
51.62668340320859
 20
82.04718884724822
 30
0.0
 10
51.62668340320859
 20
82.04718884724822
 30
0.0
 10
51.62668340318357
 20
81.7710464724014
 30
0.0
 10
51.40282577813496
 20
81.54718884739258
 30
0.0
 10
51.12668340328879
 20
81.54718884741759
 30
0.0
 10
51.12668340328879
 20
81.54718884741759
 30
0.0
 10
38.12668340653758
 20
81.54718884858485
 30
0.0
 10
38.12668340653758
 20
81.54718884858485
 30
0.0
 10
37.85054103169204
 20
81.54718884860924
 30
0.0
 10
37.62668340668322
 20
81.77104647365849
 30
0.0
 10
37.62668340670856
 20
82.04718884850498
 30
0.0
 10
37.62668340670856
 20
82.04718884850498
 30
0.0
 10
37.62668340787582
 20
95.04718884525523
 30
0.0
 10
37.62668340787582
 20
95.04718884525523
 30
0.0
 10
37.62668340790052
 20
95.32333122010141
 30
0.0
 10
37.85054103294913
 20
95.54718884510959
 30
0.0
 10
38.12668340779531
 20
95.54718884508552
 30
0.0
  0
SPLINE
  5
99
330
70
100
AcDbEntity
  8
0
 62
    18
420
        0
370
    25
100
AcDbSpline
210
0.0
220
0.0
230
1.0
 70
     9
 71
     3
 72
    29
 73
    25
 74
     0
 42
0.0000000001
 43
0.0000000001
 40
0.0
 40
0.0
 40
0.0
 40
0.0
 40
1.0
 40
1.0
 40
1.0
 40
2.0
 40
2.0
 40
2.0
 40
3.0
 40
3.0
 40
3.0
 40
4.0
 40
4.0
 40
4.0
 40
5.0
 40
5.0
 40
5.0
 40
6.0
 40
6.0
 40
6.0
 40
7.0
 40
7.0
 40
7.0
 40
8.0
 40
8.0
 40
8.0
 40
8.0
 10
42.88959435782896
 20
57.44718885418251
 30
0.0
 10
42.88959435782896
 20
57.44718885418251
 30
0.0
 10
58.27059435398348
 20
57.44718885280157
 30
0.0
 10
58.27059435398348
 20
57.44718885280157
 30
0.0
 10
58.54673672882998
 20
57.44718885277655
 30
0.0
 10
58.77059435383784
 20
57.22333122772794
 30
0.0
 10
58.77059435381377
 20
56.94718885288144
 30
0.0
 10
58.77059435381377
 20
56.94718885288144
 30
0.0
 10
58.77059435264651
 20
43.94718885613118
 30
0.0
 10
58.77059435264651
 20
43.94718885613118
 30
0.0
 10
58.77059435262149
 20
43.6710464812847
 30
0.0
 10
58.54673672757289
 20
43.44718885627652
 30
0.0
 10
58.2705943527264
 20
43.4471888563009
 30
0.0
 10
58.2705943527264
 20
43.4471888563009
 30
0.0
 10
42.88959435657186
 20
43.44718885768184
 30
0.0
 10
42.88959435657186
 20
43.44718885768184
 30
0.0
 10
42.61345198172537
 20
43.44718885770751
 30
0.0
 10
42.38959435671623
 20
43.67104648275547
 30
0.0
 10
42.38959435674158
 20
43.94718885760196
 30
0.0
 10
42.38959435674158
 20
43.94718885760196
 30
0.0
 10
42.38959435790851
 20
56.94718885435221
 30
0.0
 10
42.38959435790851
 20
56.94718885435221
 30
0.0
 10
42.38959435793321
 20
57.22333122919871
 30
0.0
 10
42.61345198298246
 20
57.44718885420689
 30
0.0
 10
42.88959435782896
 20
57.44718885418251
 30
0.0
  0
SPLINE
  5
9A
330
70
100
AcDbEntity
  8
0
 62
    18
420
        0
370
    25
100
AcDbSpline
210
0.0
220
0.0
230
1.0
 70
     8
 71
     3
 72
    14
 73
    10
 74
     0
 42
0.0000000001
 43
0.0000000001
 40
0.0
 40
0.0
 40
0.0
 40
0.0
 40
1.0
 40
1.0
 40
1.0
 40
2.0
 40
2.0
 40
2.0
 40
3.0
 40
3.0
 40
3.0
 40
3.0
 10
214.2202370469953
 20
70.08154377170524
 30
0.0
 10
214.2202370469953
 20
70.08154377170524
 30
0.0
 10
214.2202370469953
 20
64.08154377320596
 30
0.0
 10
214.2202370469953
 20
64.08154377320596
 30
0.0
 10
214.2202370469953
 20
63.80540139835947
 30
0.0
 10
214.444094672024
 20
63.58154377333108
 30
0.0
 10
214.7202370468711
 20
63.58154377333108
 30
0.0
 10
214.7202370468711
 20
63.58154377333108
 30
0.0
 10
215.7202400494407
 20
63.58154377333108
 30
0.0
 10
215.7202400494407
 20
63.58154377333108
 30
0.0
  0
SPLINE
  5
9B
330
70
100
AcDbEntity
  8
0
 62
    18
420
        0
370
    25
100
AcDbSpline
210
0.0
220
0.0
230
1.0
 70
     8
 71
     3
 72
   104
 73
   100
 74
     0
 42
0.0000000001
 43
0.0000000001
 40
0.0
 40
0.0
 40
0.0
 40
0.0
 40
1.0
 40
1.0
 40
1.0
 40
2.0
 40
2.0
 40
2.0
 40
3.0
 40
3.0
 40
3.0
 40
4.0
 40
4.0
 40
4.0
 40
5.0
 40
5.0
 40
5.0
 40
6.0
 40
6.0
 40
6.0
 40
7.0
 40
7.0
 40
7.0
 40
8.0
 40
8.0
 40
8.0
 40
9.0
 40
9.0
 40
9.0
 40
10.0
 40
10.0
 40
10.0
 40
11.0
 40
11.0
 40
11.0
 40
12.0
 40
12.0
 40
12.0
 40
13.0
 40
13.0
 40
13.0
 40
14.0
 40
14.0
 40
14.0
 40
15.0
 40
15.0
 40
15.0
 40
16.0
 40
16.0
 40
16.0
 40
17.0
 40
17.0
 40
17.0
 40
18.0
 40
18.0
 40
18.0
 40
19.0
 40
19.0
 40
19.0
 40
20.0
 40
20.0
 40
20.0
 40
21.0
 40
21.0
 40
21.0
 40
22.0
 40
22.0
 40
22.0
 40
23.0
 40
23.0
 40
23.0
 40
24.0
 40
24.0
 40
24.0
 40
25.0
 40
25.0
 40
25.0
 40
26.0
 40
26.0
 40
26.0
 40
27.0
 40
27.0
 40
27.0
 40
28.0
 40
28.0
 40
28.0
 40
29.0
 40
29.0
 40
29.0
 40
30.0
 40
30.0
 40
30.0
 40
31.0
 40
31.0
 40
31.0
 40
32.0
 40
32.0
 40
32.0
 40
33.0
 40
33.0
 40
33.0
 40
33.0
 10
214.2202370469953
 20
70.08154377170524
 30
0.0
 10
214.2202370469953
 20
70.35768614655174
 30
0.0
 10
214.444094672024
 20
70.58154377158046
 30
0.0
 10
214.7202370468711
 20
70.58154377158046
 30
0.0
 10
214.7202370468711
 20
70.58154377158046
 30
0.0
 10
215.7199999460918
 20
70.58199998236867
 30
0.0
 10
215.7199999460918
 20
70.58199998236867
 30
0.0
 10
215.9961423209389
 20
70.58199998238086
 30
0.0
 10
216.219999945958
 20
70.80585760741953
 30
0.0
 10
216.2199999459452
 20
71.08199998226601
 30
0.0
 10
216.2199999459452
 20
71.08199998226601
 30
0.0
 10
216.2202370413356
 20
81.04204127297776
 30
0.0
 10
216.2202370413356
 20
81.04204127297776
 30
0.0
 10
216.2202370413606
 20
81.31818364789259
 30
0.0
 10
215.9963794162966
 20
81.54204127299735
 30
0.0
 10
215.7202370413802
 20
81.54204127302238
 30
0.0
 10
215.7202370413802
 20
81.54204127302238
 30
0.0
 10
214.3389870413806
 20
81.54204127314622
 30
0.0
 10
214.3389870413806
 20
81.54204127314622
 30
0.0
 10
214.0628446664655
 20
81.54204127317125
 30
0.0
 10
213.8389870414008
 20
81.76589889827569
 30
0.0
 10
213.8389870414252
 20
82.04204127319181
 30
0.0
 10
213.8389870414252
 20
82.04204127319181
 30
0.0
 10
213.8389870425931
 20
95.04704127319099
 30
0.0
 10
213.8389870425931
 20
95.04704127319099
 30
0.0
 10
213.8389870426175
 20
95.32318364810647
 30
0.0
 10
214.0628446677226
 20
95.54704127317114
 30
0.0
 10
214.3389870426384
 20
95.54704127314609
 30
0.0
 10
214.3389870426384
 20
95.54704127314609
 30
0.0
 10
227.3389870426382
 20
95.54704127197885
 30
0.0
 10
227.3389870426382
 20
95.54704127197885
 30
0.0
 10
227.6151294175534
 20
95.5470412719535
 30
0.0
 10
227.838987042618
 20
95.32318364684938
 30
0.0
 10
227.8389870425936
 20
95.0470412719339
 30
0.0
 10
227.8389870425936
 20
95.0470412719339
 30
0.0
 10
227.8389870425846
 20
94.95504127193381
 30
0.0
 10
227.8389870425846
 20
94.95504127193381
 30
0.0
 10
227.8389870425602
 20
94.67889889701865
 30
0.0
 10
228.0628446676249
 20
94.45504127191389
 30
0.0
 10
228.3389870425401
 20
94.45504127188918
 30
0.0
 10
228.3389870425401
 20
94.45504127188918
 30
0.0
 10
231.7202370425396
 20
94.45504127158567
 30
0.0
 10
231.7202370425396
 20
94.45504127158567
 30
0.0
 10
231.9963794174554
 20
94.45504127156064
 30
0.0
 10
232.2202370425201
 20
94.2311836464562
 30
0.0
 10
232.2202370424951
 20
93.95504127154104
 30
0.0
 10
232.2202370424951
 20
93.95504127154104
 30
0.0
 10
232.220237041956
 20
87.95504127154115
 30
0.0
 10
232.220237041956
 20
87.95504127154115
 30
0.0
 10
232.2202370419316
 20
87.67889889662535
 30
0.0
 10
231.9963794168266
 20
87.45504127156038
 30
0.0
 10
231.7202370419114
 20
87.45504127158605
 30
0.0
 10
231.7202370419114
 20
87.45504127158605
 30
0.0
 10
230.7202370419114
 20
87.45504127167526
 30
0.0
 10
230.7202370419114
 20
87.45504127167526
 30
0.0
 10
230.4440946669962
 20
87.45504127170061
 30
0.0
 10
230.2202370418918
 20
87.23118364663596
 30
0.0
 10
230.2202370418661
 20
86.95504127172048
 30
0.0
 10
230.2202370418661
 20
86.95504127172048
 30
0.0
 10
230.2202370404409
 20
71.07904127172057
 30
0.0
 10
230.2202370404409
 20
71.07904127172057
 30
0.0
 10
230.2202370404159
 20
70.80289889680478
 30
0.0
 10
230.4440946654805
 20
70.57904127170035
 30
0.0
 10
230.7202370403957
 20
70.57904127167532
 30
0.0
 10
230.7202370403957
 20
70.57904127167532
 30
0.0
 10
231.7202370403964
 20
70.57904127158548
 30
0.0
 10
231.7202370403964
 20
70.57904127158548
 30
0.0
 10
231.9963794153115
 20
70.57904127156046
 30
0.0
 10
232.2202370403762
 20
70.35518364645603
 30
0.0
 10
232.2202370403518
 20
70.07904127154086
 30
0.0
 10
232.2202370403518
 20
70.07904127154086
 30
0.0
 10
232.2202370398128
 20
64.07904127154065
 30
0.0
 10
232.2202370398128
 20
64.07904127154065
 30
0.0
 10
232.2202370397877
 20
63.80289889662549
 30
0.0
 10
231.9963794146826
 20
63.57904127156085
 30
0.0
 10
231.7202370397675
 20
63.57904127158587
 30
0.0
 10
231.7202370397675
 20
63.57904127158587
 30
0.0
 10
230.7202370397674
 20
63.57904127167572
 30
0.0
 10
230.7202370397674
 20
63.57904127167572
 30
0.0
 10
230.4440946648516
 20
63.57904127170074
 30
0.0
 10
230.2202370397472
 20
63.35518364663609
 30
0.0
 10
230.2202370397228
 20
63.07904127172029
 30
0.0
 10
230.2202370397228
 20
63.07904127172029
 30
0.0
 10
230.2202370397151
 20
62.99204127172052
 30
0.0
 10
230.2202370397151
 20
62.99204127172052
 30
0.0
 10
230.2202370396901
 20
62.71589889680472
 30
0.0
 10
229.996379414585
 20
62.49204127174007
 30
0.0
 10
229.7202370396699
 20
62.4920412717651
 30
0.0
 10
229.7202370396699
 20
62.4920412717651
 30
0.0
 10
216.72023703967
 20
62.49204127293236
 30
0.0
 10
216.72023703967
 20
62.49204127293236
 30
0.0
 10
216.4440946647549
 20
62.49204127295738
 30
0.0
 10
216.2202370396903
 20
62.71589889806181
 30
0.0
 10
216.2202370397146
 20
62.99204127297761
 30
0.0
 10
216.2202370397146
 20
62.99204127297761
 30
0.0
 10
216.2202370397224
 20
63.07904127297738
 30
0.0
 10
216.2202370397224
 20
63.07904127297738
 30
0.0
 10
216.220237039748
 20
63.35518364789318
 30
0.0
 10
215.9963794146833
 20
63.57904127299761
 30
0.0
 10
215.7202370397669
 20
63.57904127302264
 30
0.0
  0
ENDSEC
  0
SECTION
  2
OBJECTS
  0
DICTIONARY
  5
C
330
0
100
AcDbDictionary
281
     1
  3
ACAD_COLOR
350
63
  3
ACAD_DETAILVIEWSTYLE
350
6A
  3
ACAD_GROUP
350
D
  3
ACAD_LAYOUT
350
62
  3
ACAD_MATERIAL
350
10
  3
ACAD_MLEADERSTYLE
350
66
  3
ACAD_MLINESTYLE
350
5F
  3
ACAD_PLOTSETTINGS
350
61
  3
ACAD_PLOTSTYLENAME
350
E
  3
ACAD_SCALELIST
350
42
  3
ACAD_SECTIONVIEWSTYLE
350
68
  3
ACAD_TABLESTYLE
350
64
  3
ACAD_VISUALSTYLE
350
29
  3
ACDB_RECOMPOSE_DATA
350
A4
  3
AcDbVariableDictionary
350
9C
  0
DICTIONARY
  5
63
102
{ACAD_REACTORS
330
C
102
}
330
C
100
AcDbDictionary
281
     1
  0
DICTIONARY
  5
6A
102
{ACAD_REACTORS
330
C
102
}
330
C
100
AcDbDictionary
281
     1
  3
Imperial24
350
6B
  0
DICTIONARY
  5
D
102
{ACAD_REACTORS
330
C
102
}
330
C
100
AcDbDictionary
281
     1
  0
DICTIONARY
  5
62
102
{ACAD_REACTORS
330
C
102
}
330
C
100
AcDbDictionary
281
     1
  3
Layout1
350
6F
  3
Layout2
350
77
  3
Model
350
73
  0
DICTIONARY
  5
10
102
{ACAD_REACTORS
330
C
102
}
330
C
100
AcDbDictionary
281
     1
  3
ByBlock
350
19
  3
ByLayer
350
11
  3
Global
350
21
  0
DICTIONARY
  5
66
102
{ACAD_REACTORS
330
C
102
}
330
C
100
AcDbDictionary
281
     1
  3
Standard
350
67
  0
DICTIONARY
  5
5F
102
{ACAD_REACTORS
330
C
102
}
330
C
100
AcDbDictionary
281
     1
  3
Standard
350
60
  0
DICTIONARY
  5
61
102
{ACAD_REACTORS
330
C
102
}
330
C
100
AcDbDictionary
281
     1
  0
ACDBDICTIONARYWDFLT
  5
E
102
{ACAD_REACTORS
330
C
102
}
330
C
100
AcDbDictionary
281
     1
  3
Normal
350
F
100
AcDbDictionaryWithDefault
340
F
  0
DICTIONARY
  5
42
102
{ACAD_REACTORS
330
C
102
}
330
C
100
AcDbDictionary
281
     1
  3
A0
350
43
  3
A1
350
44
  3
A2
350
45
  3
A3
350
46
  3
A4
350
47
  3
A5
350
48
  3
A6
350
49
  3
A7
350
4A
  3
A8
350
4B
  3
A9
350
4C
  3
B0
350
4D
  3
B1
350
4E
  3
B2
350
4F
  3
B3
350
50
  3
B4
350
51
  3
B5
350
52
  3
B6
350
53
  0
DICTIONARY
  5
68
102
{ACAD_REACTORS
330
C
102
}
330
C
100
AcDbDictionary
281
     1
  3
Imperial24
350
69
  0
DICTIONARY
  5
64
102
{ACAD_REACTORS
330
C
102
}
330
C
100
AcDbDictionary
281
     1
  3
Standard
350
65
  0
DICTIONARY
  5
29
102
{ACAD_REACTORS
330
C
102
}
330
C
100
AcDbDictionary
281
     1
  3
2dWireframe
350
2F
  3
Basic
350
2E
  3
Brighten
350
35
  3
ColorChange
350
39
  3
Conceptual
350
32
  3
Dim
350
34
  3
EdgeColorOff
350
41
  3
Facepattern
350
38
  3
Flat
350
2A
  3
FlatWithEdges
350
2B
  3
Gouraud
350
2C
  3
GouraudWithEdges
350
2D
  3
Hidden
350
31
  3
JitterOff
350
3F
  3
Linepattern
350
37
  3
OverhangOff
350
40
  3
Realistic
350
33
  3
Shaded
350
3E
  3
Shaded with edges
350
3D
  3
Shades of Gray
350
3A
  3
Sketchy
350
3B
  3
Thicken
350
36
  3
Wireframe
350
30
  3
X-Ray
350
3C
  0
XRECORD
  5
A4
102
{ACAD_REACTORS
330
C
102
}
330
C
100
AcDbXrecord
280
     1
 90
        1
330
65
  0
DICTIONARY
  5
9C
102
{ACAD_REACTORS
330
C
102
}
330
C
100
AcDbDictionary
281
     1
  3
CANNOSCALE
350
A1
  3
CMLEADERSTYLE
350
9E
  3
CTABLESTYLE
350
9D
  3
CVIEWDETAILSTYLE
350
9F
  3
CVIEWSECTIONSTYLE
350
A0
  0
ACDBDETAILVIEWSTYLE
  5
6B
102
{ACAD_REACTORS
330
6A
102
}
330
6A
100
AcDbModelDocViewStyle
 70
     0
  3
Imperial24
290
     1
300
Imperial24
 90
        0
100
AcDbDetailViewStyle
 70
     0
 71
     0
 90
        3
 71
     1
340
55
 62
   256
 40
0.24
340
0
 62
   256
 40
0.24
300

 40
0.36
280
     3
 71
     2
340
5D
 90
       25
 62
   256
 71
     3
340
55
 62
   256
 40
0.24
 90
        1
 40
0.75
 90
        1
300
%<\AcVar ViewType \f "%tc1">% %<\AcVar ViewDetailId>%\PSCALE %<\AcVar ViewScale \f "%sn">%
 71
     4
340
5D
 90
       25
 62
   256
340
5D
 90
       25
 62
   256
280
     0
  0
LAYOUT
  5
6F
102
{ACAD_REACTORS
330
62
102
}
330
62
100
AcDbPlotSettings
  1

  2

  4

  6

 40
0.0
 41
0.0
 42
0.0
 43
0.0
 44
0.0
 45
0.0
 46
0.0
 47
0.0
 48
0.0
 49
0.0
140
0.0
141
0.0
142
1.0
143
1.0
 70
   688
 72
     0
 73
     0
 74
     5
  7

 75
    16
147
1.0
 76
     0
 77
     2
 78
   300
148
0.0
149
0.0
100
AcDbLayout
  1
Layout1
 70
     1
 71
     1
 10
0.0
 20
0.0
 11
12.0
 21
9.0
 12
0.0
 22
0.0
 32
0.0
 14
0.0
 24
0.0
 34
0.0
 15
0.0
 25
0.0
 35
0.0
146
0.0
 13
0.0
 23
0.0
 33
0.0
 16
1.0
 26
0.0
 36
0.0
 17
0.0
 27
1.0
 37
0.0
 76
     0
330
6C
  0
LAYOUT
  5
77
102
{ACAD_REACTORS
330
62
102
}
330
62
100
AcDbPlotSettings
  1

  2

  4

  6

 40
0.0
 41
0.0
 42
0.0
 43
0.0
 44
0.0
 45
0.0
 46
0.0
 47
0.0
 48
0.0
 49
0.0
140
0.0
141
0.0
142
1.0
143
1.0
 70
   688
 72
     0
 73
     0
 74
     5
  7

 75
    16
147
1.0
 76
     0
 77
     2
 78
   300
148
0.0
149
0.0
100
AcDbLayout
  1
Layout2
 70
     1
 71
     2
 10
0.0
 20
0.0
 11
12.0
 21
9.0
 12
0.0
 22
0.0
 32
0.0
 14
0.0
 24
0.0
 34
0.0
 15
0.0
 25
0.0
 35
0.0
146
0.0
 13
0.0
 23
0.0
 33
0.0
 16
1.0
 26
0.0
 36
0.0
 17
0.0
 27
1.0
 37
0.0
 76
     0
330
74
  0
LAYOUT
  5
73
102
{ACAD_REACTORS
330
62
102
}
330
62
100
AcDbPlotSettings
  1

  2

  4

  6

 40
0.0
 41
0.0
 42
0.0
 43
0.0
 44
0.0
 45
0.0
 46
0.0
 47
0.0
 48
0.0
 49
0.0
140
0.0
141
0.0
142
1.0
143
1.0
 70
  1712
 72
     0
 73
     0
 74
     0
  7

 75
     0
147
1.0
 76
     0
 77
     2
 78
   300
148
0.0
149
0.0
100
AcDbLayout
  1
Model
 70
     1
 71
     0
 10
0.0
 20
0.0
 11
12.0
 21
9.0
 12
0.0
 22
0.0
 32
0.0
 14
0.0
 24
0.0
 34
0.0
 15
0.0
 25
0.0
 35
0.0
146
0.0
 13
0.0
 23
0.0
 33
0.0
 16
1.0
 26
0.0
 36
0.0
 17
0.0
 27
1.0
 37
0.0
 76
     0
330
70
  0
MATERIAL
  5
19
102
{ACAD_XDICTIONARY
360
1A
102
}
102
{ACAD_REACTORS
330
10
102
}
330
10
100
AcDbMaterial
  1
ByBlock
 72
     0
 43
0.0208333333333333
 43
0.0
 43
0.0
 43
0.0
 43
0.0
 43
0.0208333333333333
 43
0.0
 43
0.0
 43
0.0
 43
0.0
 43
1.0
 43
0.0
 43
0.0
 43
0.0
 43
0.0
 43
1.0
 77
     0
 47
0.0208333333333333
 47
0.0
 47
0.0
 47
0.0
 47
0.0
 47
0.0208333333333333
 47
0.0
 47
0.0
 47
0.0
 47
0.0
 47
1.0
 47
0.0
 47
0.0
 47
0.0
 47
0.0
 47
1.0
171
     0
 49
0.0208333333333333
 49
0.0
 49
0.0
 49
0.0
 49
0.0
 49
0.0208333333333333
 49
0.0
 49
0.0
 49
0.0
 49
0.0
 49
1.0
 49
0.0
 49
0.0
 49
0.0
 49
0.0
 49
1.0
175
     0
142
0.0208333333333333
142
0.0
142
0.0
142
0.0
142
0.0
142
0.0208333333333333
142
0.0
142
0.0
142
0.0
142
0.0
142
1.0
142
0.0
142
0.0
142
0.0
142
0.0
142
1.0
179
     0
144
0.0208333333333333
144
0.0
144
0.0
144
0.0
144
0.0
144
0.0208333333333333
144
0.0
144
0.0
144
0.0
144
0.0
144
1.0
144
0.0
144
0.0
144
0.0
144
0.0
144
1.0
147
0.0208333333333333
147
0.0
147
0.0
147
0.0
147
0.0
147
0.0208333333333333
147
0.0
147
0.0
147
0.0
147
0.0
147
1.0
147
0.0
147
0.0
147
0.0
147
0.0
147
1.0
  0
MATERIAL
  5
11
102
{ACAD_XDICTIONARY
360
12
102
}
102
{ACAD_REACTORS
330
10
102
}
330
10
100
AcDbMaterial
  1
ByLayer
 72
     0
 43
0.0208333333333333
 43
0.0
 43
0.0
 43
0.0
 43
0.0
 43
0.0208333333333333
 43
0.0
 43
0.0
 43
0.0
 43
0.0
 43
1.0
 43
0.0
 43
0.0
 43
0.0
 43
0.0
 43
1.0
 77
     0
 47
0.0208333333333333
 47
0.0
 47
0.0
 47
0.0
 47
0.0
 47
0.0208333333333333
 47
0.0
 47
0.0
 47
0.0
 47
0.0
 47
1.0
 47
0.0
 47
0.0
 47
0.0
 47
0.0
 47
1.0
171
     0
 49
0.0208333333333333
 49
0.0
 49
0.0
 49
0.0
 49
0.0
 49
0.0208333333333333
 49
0.0
 49
0.0
 49
0.0
 49
0.0
 49
1.0
 49
0.0
 49
0.0
 49
0.0
 49
0.0
 49
1.0
175
     0
142
0.0208333333333333
142
0.0
142
0.0
142
0.0
142
0.0
142
0.0208333333333333
142
0.0
142
0.0
142
0.0
142
0.0
142
1.0
142
0.0
142
0.0
142
0.0
142
0.0
142
1.0
179
     0
144
0.0208333333333333
144
0.0
144
0.0
144
0.0
144
0.0
144
0.0208333333333333
144
0.0
144
0.0
144
0.0
144
0.0
144
1.0
144
0.0
144
0.0
144
0.0
144
0.0
144
1.0
147
0.0208333333333333
147
0.0
147
0.0
147
0.0
147
0.0
147
0.0208333333333333
147
0.0
147
0.0
147
0.0
147
0.0
147
1.0
147
0.0
147
0.0
147
0.0
147
0.0
147
1.0
  0
MATERIAL
  5
21
102
{ACAD_XDICTIONARY
360
22
102
}
102
{ACAD_REACTORS
330
10
102
}
330
10
100
AcDbMaterial
  1
Global
 72
     0
 43
0.0208333333333333
 43
0.0
 43
0.0
 43
0.0
 43
0.0
 43
0.0208333333333333
 43
0.0
 43
0.0
 43
0.0
 43
0.0
 43
1.0
 43
0.0
 43
0.0
 43
0.0
 43
0.0
 43
1.0
 77
     0
 47
0.0208333333333333
 47
0.0
 47
0.0
 47
0.0
 47
0.0
 47
0.0208333333333333
 47
0.0
 47
0.0
 47
0.0
 47
0.0
 47
1.0
 47
0.0
 47
0.0
 47
0.0
 47
0.0
 47
1.0
171
     0
 49
0.0208333333333333
 49
0.0
 49
0.0
 49
0.0
 49
0.0
 49
0.0208333333333333
 49
0.0
 49
0.0
 49
0.0
 49
0.0
 49
1.0
 49
0.0
 49
0.0
 49
0.0
 49
0.0
 49
1.0
175
     0
142
0.0208333333333333
142
0.0
142
0.0
142
0.0
142
0.0
142
0.0208333333333333
142
0.0
142
0.0
142
0.0
142
0.0
142
1.0
142
0.0
142
0.0
142
0.0
142
0.0
142
1.0
179
     0
144
0.0208333333333333
144
0.0
144
0.0
144
0.0
144
0.0
144
0.0208333333333333
144
0.0
144
0.0
144
0.0
144
0.0
144
1.0
144
0.0
144
0.0
144
0.0
144
0.0
144
1.0
147
0.0208333333333333
147
0.0
147
0.0
147
0.0
147
0.0
147
0.0208333333333333
147
0.0
147
0.0
147
0.0
147
0.0
147
1.0
147
0.0
147
0.0
147
0.0
147
0.0
147
1.0
  0
MLEADERSTYLE
  5
67
102
{ACAD_REACTORS
330
66
102
}
330
66
100
AcDbMLeaderStyle
179
     2
170
     2
171
     1
172
     0
 90
        2
 40
0.0
 41
0.0
173
     1
 91
-1056964608
340
5B
 92
       -2
290
     1
 42
0.09
291
     1
 43
0.36
  3
Standard
 44
0.18
300

342
55
174
     1
178
     6
175
     1
176
     0
 93
-1056964608
 45
0.18
292
     0
297
     0
 46
0.18
 94
-1056964608
 47
1.0
 49
1.0
140
1.0
293
     1
141
0.0
294
     1
177
     0
142
1.0
295
     1
296
     0
143
0.125
271
     0
272
     9
273
     9
298
     1
  0
MLINESTYLE
  5
60
102
{ACAD_REACTORS
330
5F
102
}
330
5F
100
AcDbMlineStyle
  2
STANDARD
 70
     0
  3

 62
   256
 51
90.0
 52
90.0
 71
     2
 49
0.5
 62
   256
  6
BYLAYER
 49
-0.5
 62
   256
  6
BYLAYER
  0
ACDBPLACEHOLDER
  5
F
102
{ACAD_REACTORS
330
E
102
}
330
E
  0
SCALE
  5
43
102
{ACAD_REACTORS
330
42
102
}
330
42
100
AcDbScale
 70
     0
300
1:1
140
1.0
141
1.0
290
     1
  0
SCALE
  5
44
102
{ACAD_REACTORS
330
42
102
}
330
42
100
AcDbScale
 70
     0
300
1/128" = 1'-0"
140
0.0078125
141
12.0
290
     0
  0
SCALE
  5
45
102
{ACAD_REACTORS
330
42
102
}
330
42
100
AcDbScale
 70
     0
300
1/64" = 1'-0"
140
0.015625
141
12.0
290
     0
  0
SCALE
  5
46
102
{ACAD_REACTORS
330
42
102
}
330
42
100
AcDbScale
 70
     0
300
1/32" = 1'-0"
140
0.03125
141
12.0
290
     0
  0
SCALE
  5
47
102
{ACAD_REACTORS
330
42
102
}
330
42
100
AcDbScale
 70
     0
300
1/16" = 1'-0"
140
0.0625
141
12.0
290
     0
  0
SCALE
  5
48
102
{ACAD_REACTORS
330
42
102
}
330
42
100
AcDbScale
 70
     0
300
3/32" = 1'-0"
140
0.09375
141
12.0
290
     0
  0
SCALE
  5
49
102
{ACAD_REACTORS
330
42
102
}
330
42
100
AcDbScale
 70
     0
300
1/8" = 1'-0"
140
0.125
141
12.0
290
     0
  0
SCALE
  5
4A
102
{ACAD_REACTORS
330
42
102
}
330
42
100
AcDbScale
 70
     0
300
3/16" = 1'-0"
140
0.1875
141
12.0
290
     0
  0
SCALE
  5
4B
102
{ACAD_REACTORS
330
42
102
}
330
42
100
AcDbScale
 70
     0
300
1/4" = 1'-0"
140
0.25
141
12.0
290
     0
  0
SCALE
  5
4C
102
{ACAD_REACTORS
330
42
102
}
330
42
100
AcDbScale
 70
     0
300
3/8" = 1'-0"
140
0.375
141
12.0
290
     0
  0
SCALE
  5
4D
102
{ACAD_REACTORS
330
42
102
}
330
42
100
AcDbScale
 70
     0
300
1/2" = 1'-0"
140
0.5
141
12.0
290
     0
  0
SCALE
  5
4E
102
{ACAD_REACTORS
330
42
102
}
330
42
100
AcDbScale
 70
     0
300
3/4" = 1'-0"
140
0.75
141
12.0
290
     0
  0
SCALE
  5
4F
102
{ACAD_REACTORS
330
42
102
}
330
42
100
AcDbScale
 70
     0
300
1" = 1'-0"
140
1.0
141
12.0
290
     0
  0
SCALE
  5
50
102
{ACAD_REACTORS
330
42
102
}
330
42
100
AcDbScale
 70
     0
300
1-1/2" = 1'-0"
140
1.5
141
12.0
290
     0
  0
SCALE
  5
51
102
{ACAD_REACTORS
330
42
102
}
330
42
100
AcDbScale
 70
     0
300
3" = 1'-0"
140
3.0
141
12.0
290
     0
  0
SCALE
  5
52
102
{ACAD_REACTORS
330
42
102
}
330
42
100
AcDbScale
 70
     0
300
6" = 1'-0"
140
6.0
141
12.0
290
     0
  0
SCALE
  5
53
102
{ACAD_REACTORS
330
42
102
}
330
42
100
AcDbScale
 70
     0
300
1'-0" = 1'-0"
140
12.0
141
12.0
290
     0
  0
ACDBSECTIONVIEWSTYLE
  5
69
102
{ACAD_REACTORS
330
68
102
}
330
68
100
AcDbModelDocViewStyle
 70
     0
  3
Imperial24
290
     1
300
Imperial24
 90
        0
100
AcDbSectionViewStyle
 70
     0
 71
     0
 90
       78
 71
     1
340
55
 62
   256
 40
0.24
340
0
340
0
 62
   256
 40
0.24
300
I, O, Q, S, X, Z
 40
0.48
 90
        3
 40
0.18
 90
        1
 71
     2
340
5D
 90
       25
 62
   256
340
5D
 90
       50
 62
   256
 40
0.24
 40
0.0
 40
0.24
 71
     3
340
55
 62
   256
 40
0.24
 90
        1
 40
0.75
 90
        1
300
%<\AcVar ViewType \f "%tc1">% %<\AcVar ViewSectionStartId>%-%<\AcVar ViewSectionEndId>%\PSCALE %<\AcVar ViewScale \f "%sn">%
 71
     4
 62
   256
 62
   257
300
ANSI31
 40
1.0
 90
        0
290
     0
290
     0
 90
        6
 40
0.0
 40
1.570796326794896
 40
0.2617993877991494
 40
1.308996938995747
 40
-0.2617993877991494
 40
1.832595714594046
  0
TABLESTYLE
  5
65
102
{ACAD_XDICTIONARY
360
A2
102
}
102
{ACAD_REACTORS
330
64
102
}
330
64
100
AcDbTableStyle
280
     0
  3
Standard
 70
     0
 71
     0
 40
0.06
 41
0.06
280
     0
281
     0
  7
Standard
140
0.18
170
     2
 62
     0
 63
     7
283
     0
 90
      512
 91
        0
  1

274
    -2
284
     1
 64
     0
275
    -2
285
     1
 65
     0
276
    -2
286
     1
 66
     0
277
    -2
287
     1
 67
     0
278
    -2
288
     1
 68
     0
279
    -2
289
     1
 69
     0
  7
Standard
140
0.25
170
     5
 62
     0
 63
     7
283
     0
 90
      512
 91
        0
  1

274
    -2
284
     1
 64
     0
275
    -2
285
     1
 65
     0
276
    -2
286
     1
 66
     0
277
    -2
287
     1
 67
     0
278
    -2
288
     1
 68
     0
279
    -2
289
     1
 69
     0
  7
Standard
140
0.18
170
     5
 62
     0
 63
     7
283
     0
 90
      512
 91
        0
  1

274
    -2
284
     1
 64
     0
275
    -2
285
     1
 65
     0
276
    -2
286
     1
 66
     0
277
    -2
287
     1
 67
     0
278
    -2
288
     1
 68
     0
279
    -2
289
     1
 69
     0
  0
VISUALSTYLE
  5
2F
102
{ACAD_REACTORS
330
29
102
}
330
29
100
AcDbVisualStyle
  2
2dWireframe
 70
     4
177
     3
291
     0
 70
    58
 90
        0
176
     1
 90
        2
176
     1
 90
        0
176
     1
 90
        0
176
     1
 40
0.6
176
     1
 40
30.0
176
     1
 62
     7
420
 16777215
176
     1
 90
        1
176
     1
 90
        4
176
     1
 62
     7
176
     1
 62
   257
176
     1
 90
        1
176
     1
 90
        1
176
     1
 40
1.0
176
     1
 90
        0
176
     1
 62
   257
176
     1
 40
1.0
176
     1
 90
        1
176
     1
 90
        6
176
     1
 90
        2
176
     1
 62
     7
176
     1
 90
        5
176
     1
 90
        0
176
     1
 90
        0
176
     1
290
     0
176
     1
 90
        1
176
     1
 40
0.0
176
     1
 90
        0
176
     1
290
     1
176
     1
290
     1
176
     1
290
     0
176
     1
290
     0
176
     1
290
     0
176
     1
290
     0
176
     1
290
     0
176
     1
290
     0
176
     1
290
     0
176
     1
 90
       50
176
     1
 40
0.0
176
     1
 40
1.0
176
     1
 90
        0
176
     1
 62
    18
420
        0
176
     1
 90
       50
176
     1
 90
        3
176
     1
 62
     5
420
      255
176
     1
290
     0
176
     1
 90
       50
176
     1
 90
       50
176
     1
 90
       50
176
     1
290
     0
176
     1
 90
       50
176
     1
 62
   256
176
     0
 40
1.0
176
     0
 90
        2
176
     1
  1
strokes_ogs.tif
176
     1
290
     0
176
     1
 40
1.0
176
     1
 40
1.0
176
     1
  0
VISUALSTYLE
  5
2E
102
{ACAD_REACTORS
330
29
102
}
330
29
100
AcDbVisualStyle
  2
Basic
 70
     7
177
     3
291
     1
 70
    58
 90
        1
176
     1
 90
        0
176
     1
 90
        1
176
     1
 90
        0
176
     1
 40
0.6
176
     1
 40
30.0
176
     1
 62
     7
420
 16777215
176
     1
 90
        0
176
     1
 90
        4
176
     1
 62
     7
176
     1
 62
   257
176
     1
 90
        1
176
     1
 90
        1
176
     1
 40
1.0
176
     1
 90
        8
176
     1
 62
     7
176
     1
 40
1.0
176
     1
 90
        1
176
     1
 90
        6
176
     1
 90
        2
176
     1
 62
     7
176
     1
 90
        5
176
     1
 90
        0
176
     1
 90
        0
176
     1
290
     0
176
     1
 90
        1
176
     1
 40
0.0
176
     1
 90
        0
176
     1
290
     0
176
     1
290
     1
176
     1
290
     1
176
     1
290
     0
176
     1
290
     0
176
     1
290
     0
176
     1
290
     0
176
     1
290
     0
176
     1
290
     0
176
     1
 90
       50
176
     1
 40
0.0
176
     1
 40
1.0
176
     1
 90
        0
176
     1
 62
    18
420
        0
176
     1
 90
       50
176
     1
 90
        3
176
     1
 62
     5
420
      255
176
     1
290
     0
176
     1
 90
       50
176
     1
 90
       50
176
     1
 90
       50
176
     1
290
     0
176
     1
 90
       50
176
     1
 62
   256
176
     0
 40
1.0
176
     0
 90
        2
176
     1
  1
strokes_ogs.tif
176
     1
290
     0
176
     1
 40
1.0
176
     1
 40
1.0
176
     1
  0
VISUALSTYLE
  5
35
102
{ACAD_REACTORS
330
29
102
}
330
29
100
AcDbVisualStyle
  2
Brighten
 70
    12
177
     3
291
     1
 70
    58
 90
        2
176
     1
 90
        2
176
     1
 90
        0
176
     1
 90
        0
176
     1
 40
0.6
176
     1
 40
30.0
176
     1
 62
     7
420
 16777215
176
     1
 90
        1
176
     1
 90
        4
176
     1
 62
     7
176
     1
 62
   257
176
     1
 90
        1
176
     1
 90
        1
176
     1
 40
1.0
176
     1
 90
        8
176
     1
 62
     7
176
     1
 40
1.0
176
     1
 90
        1
176
     1
 90
        6
176
     1
 90
        2
176
     1
 62
     7
176
     1
 90
        5
176
     1
 90
        0
176
     1
 90
        0
176
     1
290
     0
176
     1
 90
        1
176
     1
 40
50.0
176
     1
 90
        0
176
     1
290
     0
176
     1
290
     1
176
     1
290
     1
176
     1
290
     0
176
     1
290
     0
176
     1
290
     0
176
     1
290
     0
176
     1
290
     0
176
     1
290
     0
176
     1
 90
       50
176
     1
 40
0.0
176
     1
 40
1.0
176
     1
 90
        0
176
     1
 62
    18
420
        0
176
     1
 90
       50
176
     1
 90
        3
176
     1
 62
     5
420
      255
176
     1
290
     0
176
     1
 90
       50
176
     1
 90
       50
176
     1
 90
       50
176
     1
290
     0
176
     1
 90
       50
176
     1
 62
   256
176
     0
 40
1.0
176
     0
 90
        2
176
     1
  1
strokes_ogs.tif
176
     1
290
     0
176
     1
 40
1.0
176
     1
 40
1.0
176
     1
  0
VISUALSTYLE
  5
39
102
{ACAD_REACTORS
330
29
102
}
330
29
100
AcDbVisualStyle
  2
ColorChange
 70
    16
177
     3
291
     1
 70
    58
 90
        2
176
     1
 90
        2
176
     1
 90
        3
176
     1
 90
        0
176
     1
 40
0.6
176
     1
 40
30.0
176
     1
 62
     8
420
  8421504
176
     1
 90
        1
176
     1
 90
        4
176
     1
 62
     7
176
     1
 62
   257
176
     1
 90
        1
176
     1
 90
        1
176
     1
 40
1.0
176
     1
 90
        8
176
     1
 62
     8
420
  8421504
176
     1
 40
1.0
176
     1
 90
        1
176
     1
 90
        6
176
     1
 90
        2
176
     1
 62
     7
176
     1
 90
        5
176
     1
 90
        0
176
     1
 90
        0
176
     1
290
     0
176
     1
 90
        1
176
     1
 40
0.0
176
     1
 90
        0
176
     1
290
     0
176
     1
290
     1
176
     1
290
     1
176
     1
290
     0
176
     1
290
     0
176
     1
290
     0
176
     1
290
     0
176
     1
290
     0
176
     1
290
     0
176
     1
 90
       50
176
     1
 40
0.0
176
     1
 40
1.0
176
     1
 90
        0
176
     1
 62
    18
420
        0
176
     1
 90
       50
176
     1
 90
        3
176
     1
 62
     5
420
      255
176
     1
290
     0
176
     1
 90
       50
176
     1
 90
       50
176
     1
 90
       50
176
     1
290
     0
176
     1
 90
       50
176
     1
 62
   256
176
     0
 40
1.0
176
     0
 90
        2
176
     1
  1
strokes_ogs.tif
176
     1
290
     0
176
     1
 40
1.0
176
     1
 40
1.0
176
     1
  0
VISUALSTYLE
  5
32
102
{ACAD_REACTORS
330
29
102
}
330
29
100
AcDbVisualStyle
  2
Conceptual
 70
     9
177
     3
291
     0
 70
    58
 90
        3
176
     1
 90
        2
176
     1
 90
        0
176
     1
 90
        0
176
     1
 40
0.6
176
     1
 40
30.0
176
     1
 62
     7
420
 16777215
176
     1
 90
        2
176
     1
 90
        2
176
     1
 62
     7
176
     1
 62
   257
176
     1
 90
        1
176
     1
 90
        1
176
     1
 40
179.0
176
     1
 90
        8
176
     1
 62
     7
176
     1
 40
1.0
176
     1
 90
        1
176
     1
 90
        6
176
     1
 90
        2
176
     1
 62
     7
176
     1
 90
        3
176
     1
 90
        0
176
     1
 90
        0
176
     1
290
     0
176
     1
 90
        1
176
     1
 40
0.0
176
     1
 90
        0
176
     1
290
     0
176
     1
290
     1
176
     1
290
     1
176
     1
290
     0
176
     1
290
     0
176
     1
290
     0
176
     1
290
     0
176
     1
290
     0
176
     1
290
     0
176
     1
 90
       50
176
     1
 40
0.0
176
     1
 40
1.0
176
     1
 90
        0
176
     1
 62
    18
420
        0
176
     1
 90
       50
176
     1
 90
        3
176
     1
 62
     5
420
      255
176
     1
290
     0
176
     1
 90
       50
176
     1
 90
       50
176
     1
 90
       50
176
     1
290
     0
176
     1
 90
       50
176
     1
 62
   256
176
     0
 40
1.0
176
     0
 90
        2
176
     1
  1
strokes_ogs.tif
176
     1
290
     0
176
     1
 40
1.0
176
     1
 40
1.0
176
     1
  0
VISUALSTYLE
  5
34
102
{ACAD_REACTORS
330
29
102
}
330
29
100
AcDbVisualStyle
  2
Dim
 70
    11
177
     3
291
     1
 70
    58
 90
        2
176
     1
 90
        2
176
     1
 90
        0
176
     1
 90
        0
176
     1
 40
0.6
176
     1
 40
30.0
176
     1
 62
     7
420
 16777215
176
     1
 90
        1
176
     1
 90
        4
176
     1
 62
     7
176
     1
 62
   257
176
     1
 90
        1
176
     1
 90
        1
176
     1
 40
1.0
176
     1
 90
        8
176
     1
 62
     7
176
     1
 40
1.0
176
     1
 90
        1
176
     1
 90
        6
176
     1
 90
        2
176
     1
 62
     7
176
     1
 90
        5
176
     1
 90
        0
176
     1
 90
        0
176
     1
290
     0
176
     1
 90
        1
176
     1
 40
-50.0
176
     1
 90
        0
176
     1
290
     0
176
     1
290
     1
176
     1
290
     1
176
     1
290
     0
176
     1
290
     0
176
     1
290
     0
176
     1
290
     0
176
     1
290
     0
176
     1
290
     0
176
     1
 90
       50
176
     1
 40
0.0
176
     1
 40
1.0
176
     1
 90
        0
176
     1
 62
    18
420
        0
176
     1
 90
       50
176
     1
 90
        3
176
     1
 62
     5
420
      255
176
     1
290
     0
176
     1
 90
       50
176
     1
 90
       50
176
     1
 90
       50
176
     1
290
     0
176
     1
 90
       50
176
     1
 62
   256
176
     0
 40
1.0
176
     0
 90
        2
176
     1
  1
strokes_ogs.tif
176
     1
290
     0
176
     1
 40
1.0
176
     1
 40
1.0
176
     1
  0
VISUALSTYLE
  5
41
102
{ACAD_REACTORS
330
29
102
}
330
29
100
AcDbVisualStyle
  2
EdgeColorOff
 70
    22
177
     3
291
     1
 70
    58
 90
        2
176
     0
 90
        2
176
     0
 90
        0
176
     0
 90
        0
176
     0
 40
0.6
176
     0
 40
30.0
176
     0
 62
     7
420
 16777215
176
     0
 90
        1
176
     0
 90
        4
176
     0
 62
     7
176
     0
 62
   257
176
     0
 90
        1
176
     0
 90
        1
176
     0
 40
1.0
176
     0
 90
        8
176
     2
 62
     7
176
     0
 40
1.0
176
     0
 90
        1
176
     0
 90
        6
176
     0
 90
        2
176
     0
 62
     7
176
     0
 90
        5
176
     0
 90
        0
176
     0
 90
        0
176
     0
290
     0
176
     0
 90
        1
176
     0
 40
0.0
176
     0
 90
        0
176
     0
290
     0
176
     0
290
     1
176
     0
290
     1
176
     0
290
     0
176
     0
290
     0
176
     0
290
     0
176
     0
290
     0
176
     0
290
     0
176
     0
290
     0
176
     0
 90
       50
176
     0
 40
0.0
176
     0
 40
1.0
176
     0
 90
        0
176
     0
 62
    18
420
        0
176
     0
 90
       50
176
     0
 90
        3
176
     0
 62
     5
420
      255
176
     0
290
     0
176
     0
 90
       50
176
     0
 90
       50
176
     0
 90
       50
176
     0
290
     0
176
     0
 90
       50
176
     0
 62
   256
176
     0
 40
1.0
176
     0
 90
        2
176
     0
  1
strokes_ogs.tif
176
     0
290
     0
176
     0
 40
1.0
176
     0
 40
1.0
176
     0
  0
VISUALSTYLE
  5
38
102
{ACAD_REACTORS
330
29
102
}
330
29
100
AcDbVisualStyle
  2
Facepattern
 70
    15
177
     3
291
     1
 70
    58
 90
        2
176
     1
 90
        2
176
     1
 90
        0
176
     1
 90
        0
176
     1
 40
0.6
176
     1
 40
30.0
176
     1
 62
     7
420
 16777215
176
     1
 90
        1
176
     1
 90
        4
176
     1
 62
     7
176
     1
 62
   257
176
     1
 90
        1
176
     1
 90
        1
176
     1
 40
1.0
176
     1
 90
        8
176
     1
 62
     7
176
     1
 40
1.0
176
     1
 90
        1
176
     1
 90
        6
176
     1
 90
        2
176
     1
 62
     7
176
     1
 90
        5
176
     1
 90
        0
176
     1
 90
        0
176
     1
290
     0
176
     1
 90
        1
176
     1
 40
0.0
176
     1
 90
        0
176
     1
290
     0
176
     1
290
     1
176
     1
290
     1
176
     1
290
     0
176
     1
290
     0
176
     1
290
     0
176
     1
290
     0
176
     1
290
     0
176
     1
290
     0
176
     1
 90
       50
176
     1
 40
0.0
176
     1
 40
1.0
176
     1
 90
        0
176
     1
 62
    18
420
        0
176
     1
 90
       50
176
     1
 90
        3
176
     1
 62
     5
420
      255
176
     1
290
     0
176
     1
 90
       50
176
     1
 90
       50
176
     1
 90
       50
176
     1
290
     0
176
     1
 90
       50
176
     1
 62
   256
176
     0
 40
1.0
176
     0
 90
        2
176
     1
  1
strokes_ogs.tif
176
     1
290
     0
176
     1
 40
1.0
176
     1
 40
1.0
176
     1
  0
VISUALSTYLE
  5
2A
102
{ACAD_REACTORS
330
29
102
}
330
29
100
AcDbVisualStyle
  2
Flat
 70
     0
177
     3
291
     1
 70
    58
 90
        2
176
     1
 90
        1
176
     1
 90
        1
176
     1
 90
        2
176
     1
 40
0.6
176
     1
 40
30.0
176
     1
 62
     7
420
 16777215
176
     1
 90
        0
176
     1
 90
        0
176
     1
 62
     7
176
     1
 62
   257
176
     1
 90
        1
176
     1
 90
        1
176
     1
 40
1.0
176
     1
 90
        8
176
     1
 62
     7
176
     1
 40
1.0
176
     1
 90
        1
176
     1
 90
        6
176
     1
 90
        2
176
     1
 62
     7
176
     1
 90
        5
176
     1
 90
        0
176
     1
 90
        0
176
     1
290
     0
176
     1
 90
       13
176
     1
 40
0.0
176
     1
 90
        0
176
     1
290
     0
176
     1
290
     1
176
     1
290
     1
176
     1
290
     0
176
     1
290
     0
176
     1
290
     0
176
     1
290
     0
176
     1
290
     0
176
     1
290
     0
176
     1
 90
       50
176
     1
 40
0.0
176
     1
 40
1.0
176
     1
 90
        0
176
     1
 62
    18
420
        0
176
     1
 90
       50
176
     1
 90
        3
176
     1
 62
     5
420
      255
176
     1
290
     0
176
     1
 90
       50
176
     1
 90
       50
176
     1
 90
       50
176
     1
290
     0
176
     1
 90
       50
176
     1
 62
   256
176
     0
 40
1.0
176
     0
 90
        2
176
     1
  1
strokes_ogs.tif
176
     1
290
     0
176
     1
 40
1.0
176
     1
 40
1.0
176
     1
  0
VISUALSTYLE
  5
2B
102
{ACAD_REACTORS
330
29
102
}
330
29
100
AcDbVisualStyle
  2
FlatWithEdges
 70
     1
177
     3
291
     1
 70
    58
 90
        2
176
     1
 90
        1
176
     1
 90
        1
176
     1
 90
        2
176
     1
 40
0.6
176
     1
 40
30.0
176
     1
 62
     7
420
 16777215
176
     1
 90
        1
176
     1
 90
        0
176
     1
 62
     7
176
     1
 62
   257
176
     1
 90
        1
176
     1
 90
        1
176
     1
 40
1.0
176
     1
 90
        0
176
     1
 62
   257
176
     1
 40
1.0
176
     1
 90
        1
176
     1
 90
        6
176
     1
 90
        2
176
     1
 62
     7
176
     1
 90
        5
176
     1
 90
        0
176
     1
 90
        0
176
     1
290
     0
176
     1
 90
       13
176
     1
 40
0.0
176
     1
 90
        0
176
     1
290
     0
176
     1
290
     1
176
     1
290
     1
176
     1
290
     0
176
     1
290
     0
176
     1
290
     0
176
     1
290
     0
176
     1
290
     0
176
     1
290
     0
176
     1
 90
       50
176
     1
 40
0.0
176
     1
 40
1.0
176
     1
 90
        0
176
     1
 62
    18
420
        0
176
     1
 90
       50
176
     1
 90
        3
176
     1
 62
     5
420
      255
176
     1
290
     0
176
     1
 90
       50
176
     1
 90
       50
176
     1
 90
       50
176
     1
290
     0
176
     1
 90
       50
176
     1
 62
   256
176
     0
 40
1.0
176
     0
 90
        2
176
     1
  1
strokes_ogs.tif
176
     1
290
     0
176
     1
 40
1.0
176
     1
 40
1.0
176
     1
  0
VISUALSTYLE
  5
2C
102
{ACAD_REACTORS
330
29
102
}
330
29
100
AcDbVisualStyle
  2
Gouraud
 70
     2
177
     3
291
     1
 70
    58
 90
        2
176
     1
 90
        2
176
     1
 90
        1
176
     1
 90
        2
176
     1
 40
0.6
176
     1
 40
30.0
176
     1
 62
     7
420
 16777215
176
     1
 90
        0
176
     1
 90
        0
176
     1
 62
     7
176
     1
 62
   257
176
     1
 90
        1
176
     1
 90
        1
176
     1
 40
1.0
176
     1
 90
        0
176
     1
 62
     7
176
     1
 40
1.0
176
     1
 90
        1
176
     1
 90
        6
176
     1
 90
        2
176
     1
 62
     7
176
     1
 90
        5
176
     1
 90
        0
176
     1
 90
        0
176
     1
290
     0
176
     1
 90
       13
176
     1
 40
0.0
176
     1
 90
        0
176
     1
290
     0
176
     1
290
     1
176
     1
290
     1
176
     1
290
     0
176
     1
290
     0
176
     1
290
     0
176
     1
290
     0
176
     1
290
     0
176
     1
290
     0
176
     1
 90
       50
176
     1
 40
0.0
176
     1
 40
1.0
176
     1
 90
        0
176
     1
 62
    18
420
        0
176
     1
 90
       50
176
     1
 90
        3
176
     1
 62
     5
420
      255
176
     1
290
     0
176
     1
 90
       50
176
     1
 90
       50
176
     1
 90
       50
176
     1
290
     0
176
     1
 90
       50
176
     1
 62
   256
176
     0
 40
1.0
176
     0
 90
        2
176
     1
  1
strokes_ogs.tif
176
     1
290
     0
176
     1
 40
1.0
176
     1
 40
1.0
176
     1
  0
VISUALSTYLE
  5
2D
102
{ACAD_REACTORS
330
29
102
}
330
29
100
AcDbVisualStyle
  2
GouraudWithEdges
 70
     3
177
     3
291
     1
 70
    58
 90
        2
176
     1
 90
        2
176
     1
 90
        1
176
     1
 90
        2
176
     1
 40
0.6
176
     1
 40
30.0
176
     1
 62
     7
420
 16777215
176
     1
 90
        1
176
     1
 90
        0
176
     1
 62
     7
176
     1
 62
   257
176
     1
 90
        1
176
     1
 90
        1
176
     1
 40
1.0
176
     1
 90
        0
176
     1
 62
   257
176
     1
 40
1.0
176
     1
 90
        1
176
     1
 90
        6
176
     1
 90
        2
176
     1
 62
     7
176
     1
 90
        5
176
     1
 90
        0
176
     1
 90
        0
176
     1
290
     0
176
     1
 90
       13
176
     1
 40
0.0
176
     1
 90
        0
176
     1
290
     0
176
     1
290
     1
176
     1
290
     1
176
     1
290
     0
176
     1
290
     0
176
     1
290
     0
176
     1
290
     0
176
     1
290
     0
176
     1
290
     0
176
     1
 90
       50
176
     1
 40
0.0
176
     1
 40
1.0
176
     1
 90
        0
176
     1
 62
    18
420
        0
176
     1
 90
       50
176
     1
 90
        3
176
     1
 62
     5
420
      255
176
     1
290
     0
176
     1
 90
       50
176
     1
 90
       50
176
     1
 90
       50
176
     1
290
     0
176
     1
 90
       50
176
     1
 62
   256
176
     0
 40
1.0
176
     0
 90
        2
176
     1
  1
strokes_ogs.tif
176
     1
290
     0
176
     1
 40
1.0
176
     1
 40
1.0
176
     1
  0
VISUALSTYLE
  5
31
102
{ACAD_REACTORS
330
29
102
}
330
29
100
AcDbVisualStyle
  2
Hidden
 70
     6
177
     3
291
     0
 70
    58
 90
        1
176
     1
 90
        2
176
     1
 90
        2
176
     1
 90
        0
176
     1
 40
0.6
176
     1
 40
30.0
176
     1
 62
     7
420
 16777215
176
     1
 90
        2
176
     1
 90
        2
176
     1
 62
     7
176
     1
 62
   257
176
     1
 90
        2
176
     1
 90
        1
176
     1
 40
40.0
176
     1
 90
        0
176
     1
 62
   257
176
     1
 40
1.0
176
     1
 90
        1
176
     1
 90
        6
176
     1
 90
        2
176
     1
 62
     7
176
     1
 90
        3
176
     1
 90
        0
176
     1
 90
        0
176
     1
290
     0
176
     1
 90
        1
176
     1
 40
0.0
176
     1
 90
        0
176
     1
290
     0
176
     1
290
     1
176
     1
290
     1
176
     1
290
     0
176
     1
290
     0
176
     1
290
     0
176
     1
290
     0
176
     1
290
     0
176
     1
290
     0
176
     1
 90
       50
176
     1
 40
0.0
176
     1
 40
1.0
176
     1
 90
        0
176
     1
 62
    18
420
        0
176
     1
 90
       50
176
     1
 90
        3
176
     1
 62
     5
420
      255
176
     1
290
     0
176
     1
 90
       50
176
     1
 90
       50
176
     1
 90
       50
176
     1
290
     0
176
     1
 90
       50
176
     1
 62
   256
176
     0
 40
1.0
176
     0
 90
        2
176
     1
  1
strokes_ogs.tif
176
     1
290
     0
176
     1
 40
1.0
176
     1
 40
1.0
176
     1
  0
VISUALSTYLE
  5
3F
102
{ACAD_REACTORS
330
29
102
}
330
29
100
AcDbVisualStyle
  2
JitterOff
 70
    20
177
     3
291
     1
 70
    58
 90
        2
176
     0
 90
        2
176
     0
 90
        0
176
     0
 90
        0
176
     0
 40
0.6
176
     0
 40
30.0
176
     0
 62
     7
420
 16777215
176
     0
 90
        1
176
     0
 90
        4
176
     0
 62
     7
176
     0
 62
   257
176
     0
 90
        1
176
     0
 90
        1
176
     0
 40
1.0
176
     0
 90
       10
176
     2
 62
     7
176
     0
 40
1.0
176
     0
 90
        1
176
     0
 90
        6
176
     0
 90
        2
176
     0
 62
     7
176
     0
 90
        5
176
     0
 90
        0
176
     0
 90
        0
176
     0
290
     0
176
     0
 90
        1
176
     0
 40
0.0
176
     0
 90
        0
176
     0
290
     0
176
     0
290
     1
176
     0
290
     1
176
     0
290
     0
176
     0
290
     0
176
     0
290
     0
176
     0
290
     0
176
     0
290
     0
176
     0
290
     0
176
     0
 90
       50
176
     0
 40
0.0
176
     0
 40
1.0
176
     0
 90
        0
176
     0
 62
    18
420
        0
176
     0
 90
       50
176
     0
 90
        3
176
     0
 62
     5
420
      255
176
     0
290
     0
176
     0
 90
       50
176
     0
 90
       50
176
     0
 90
       50
176
     0
290
     0
176
     0
 90
       50
176
     0
 62
   256
176
     0
 40
1.0
176
     0
 90
        2
176
     0
  1
strokes_ogs.tif
176
     0
290
     0
176
     0
 40
1.0
176
     0
 40
1.0
176
     0
  0
VISUALSTYLE
  5
37
102
{ACAD_REACTORS
330
29
102
}
330
29
100
AcDbVisualStyle
  2
Linepattern
 70
    14
177
     3
291
     1
 70
    58
 90
        2
176
     1
 90
        2
176
     1
 90
        0
176
     1
 90
        0
176
     1
 40
0.6
176
     1
 40
30.0
176
     1
 62
     7
420
 16777215
176
     1
 90
        1
176
     1
 90
        4
176
     1
 62
     7
176
     1
 62
   257
176
     1
 90
        7
176
     1
 90
        7
176
     1
 40
1.0
176
     1
 90
        8
176
     1
 62
     7
176
     1
 40
1.0
176
     1
 90
        1
176
     1
 90
        6
176
     1
 90
        2
176
     1
 62
     7
176
     1
 90
        5
176
     1
 90
        0
176
     1
 90
        0
176
     1
290
     0
176
     1
 90
        1
176
     1
 40
0.0
176
     1
 90
        0
176
     1
290
     0
176
     1
290
     1
176
     1
290
     1
176
     1
290
     0
176
     1
290
     0
176
     1
290
     0
176
     1
290
     0
176
     1
290
     0
176
     1
290
     0
176
     1
 90
       50
176
     1
 40
0.0
176
     1
 40
1.0
176
     1
 90
        0
176
     1
 62
    18
420
        0
176
     1
 90
       50
176
     1
 90
        3
176
     1
 62
     5
420
      255
176
     1
290
     0
176
     1
 90
       50
176
     1
 90
       50
176
     1
 90
       50
176
     1
290
     0
176
     1
 90
       50
176
     1
 62
   256
176
     0
 40
1.0
176
     0
 90
        2
176
     1
  1
strokes_ogs.tif
176
     1
290
     0
176
     1
 40
1.0
176
     1
 40
1.0
176
     1
  0
VISUALSTYLE
  5
40
102
{ACAD_REACTORS
330
29
102
}
330
29
100
AcDbVisualStyle
  2
OverhangOff
 70
    21
177
     3
291
     1
 70
    58
 90
        2
176
     0
 90
        2
176
     0
 90
        0
176
     0
 90
        0
176
     0
 40
0.6
176
     0
 40
30.0
176
     0
 62
     7
420
 16777215
176
     0
 90
        1
176
     0
 90
        4
176
     0
 62
     7
176
     0
 62
   257
176
     0
 90
        1
176
     0
 90
        1
176
     0
 40
1.0
176
     0
 90
        9
176
     2
 62
     7
176
     0
 40
1.0
176
     0
 90
        1
176
     0
 90
        6
176
     0
 90
        2
176
     0
 62
     7
176
     0
 90
        5
176
     0
 90
        0
176
     0
 90
        0
176
     0
290
     0
176
     0
 90
        1
176
     0
 40
0.0
176
     0
 90
        0
176
     0
290
     0
176
     0
290
     1
176
     0
290
     1
176
     0
290
     0
176
     0
290
     0
176
     0
290
     0
176
     0
290
     0
176
     0
290
     0
176
     0
290
     0
176
     0
 90
       50
176
     0
 40
0.0
176
     0
 40
1.0
176
     0
 90
        0
176
     0
 62
    18
420
        0
176
     0
 90
       50
176
     0
 90
        3
176
     0
 62
     5
420
      255
176
     0
290
     0
176
     0
 90
       50
176
     0
 90
       50
176
     0
 90
       50
176
     0
290
     0
176
     0
 90
       50
176
     0
 62
   256
176
     0
 40
1.0
176
     0
 90
        2
176
     0
  1
strokes_ogs.tif
176
     0
290
     0
176
     0
 40
1.0
176
     0
 40
1.0
176
     0
  0
VISUALSTYLE
  5
33
102
{ACAD_REACTORS
330
29
102
}
330
29
100
AcDbVisualStyle
  2
Realistic
 70
     8
177
     3
291
     0
 70
    58
 90
        2
176
     1
 90
        3
176
     1
 90
        0
176
     1
 90
        2
176
     1
 40
0.6
176
     1
 40
30.0
176
     1
 62
     7
420
 16777215
176
     1
 90
        0
176
     1
 90
        0
176
     1
 62
     7
176
     1
 62
   257
176
     1
 90
        1
176
     1
 90
        1
176
     1
 40
1.0
176
     1
 90
        8
176
     1
 62
   257
176
     1
 40
1.0
176
     1
 90
        1
176
     1
 90
        6
176
     1
 90
        2
176
     1
 62
     7
176
     1
 90
        3
176
     1
 90
        0
176
     1
 90
        0
176
     1
290
     0
176
     1
 90
       13
176
     1
 40
0.0
176
     1
 90
        0
176
     1
290
     0
176
     1
290
     1
176
     1
290
     1
176
     1
290
     0
176
     1
290
     0
176
     1
290
     0
176
     1
290
     0
176
     1
290
     0
176
     1
290
     0
176
     1
 90
       50
176
     1
 40
0.0
176
     1
 40
1.0
176
     1
 90
        0
176
     1
 62
    18
420
        0
176
     1
 90
       50
176
     1
 90
        3
176
     1
 62
     5
420
      255
176
     1
290
     0
176
     1
 90
       50
176
     1
 90
       50
176
     1
 90
       50
176
     1
290
     0
176
     1
 90
       50
176
     1
 62
   256
176
     0
 40
1.0
176
     0
 90
        2
176
     1
  1
strokes_ogs.tif
176
     1
290
     0
176
     1
 40
1.0
176
     1
 40
1.0
176
     1
  0
VISUALSTYLE
  5
3E
102
{ACAD_REACTORS
330
29
102
}
330
29
100
AcDbVisualStyle
  2
Shaded
 70
    27
177
     3
291
     0
 70
    58
 90
        2
176
     1
 90
        2
176
     1
 90
        1
176
     1
 90
        2
176
     1
 40
0.6
176
     1
 40
30.0
176
     1
 62
     7
420
 16777215
176
     1
 90
        0
176
     1
 90
        4
176
     1
 62
     7
176
     1
 62
   257
176
     1
 90
        1
176
     1
 90
        1
176
     1
 40
1.0
176
     1
 90
        8
176
     1
 62
   257
176
     1
 40
1.0
176
     1
 90
        1
176
     1
 90
        6
176
     1
 90
        2
176
     1
 62
     8
420
  7895160
176
     1
 90
        3
176
     1
 90
        0
176
     1
 90
        0
176
     1
290
     0
176
     1
 90
        5
176
     1
 40
0.0
176
     1
 90
        0
176
     1
290
     0
176
     1
290
     1
176
     1
290
     1
176
     1
290
     0
176
     1
290
     0
176
     1
290
     0
176
     1
290
     0
176
     1
290
     0
176
     1
290
     0
176
     1
 90
       50
176
     1
 40
0.0
176
     1
 40
1.0
176
     1
 90
        0
176
     1
 62
    18
420
        0
176
     1
 90
       50
176
     1
 90
        3
176
     1
 62
     5
420
      255
176
     1
290
     0
176
     1
 90
       50
176
     1
 90
       50
176
     1
 90
       50
176
     1
290
     0
176
     1
 90
       50
176
     1
 62
   256
176
     0
 40
1.0
176
     0
 90
        2
176
     1
  1
strokes_ogs.tif
176
     1
290
     0
176
     1
 40
1.0
176
     1
 40
1.0
176
     1
  0
VISUALSTYLE
  5
3D
102
{ACAD_REACTORS
330
29
102
}
330
29
100
AcDbVisualStyle
  2
Shaded with edges
 70
    26
177
     3
291
     0
 70
    58
 90
        2
176
     1
 90
        2
176
     1
 90
        1
176
     1
 90
        2
176
     1
 40
0.6
176
     1
 40
30.0
176
     1
 62
     7
420
 16777215
176
     1
 90
        1
176
     1
 90
        2
176
     1
 62
     7
176
     1
 62
   257
176
     1
 90
        2
176
     1
 90
        1
176
     1
 40
1.0
176
     1
 90
        8
176
     1
 62
   257
176
     1
 40
1.0
176
     1
 90
        1
176
     1
 90
        6
176
     1
 90
        2
176
     1
 62
     7
176
     1
 90
        3
176
     1
 90
        0
176
     1
 90
        0
176
     1
290
     0
176
     1
 90
        5
176
     1
 40
0.0
176
     1
 90
        0
176
     1
290
     0
176
     1
290
     1
176
     1
290
     1
176
     1
290
     0
176
     1
290
     0
176
     1
290
     0
176
     1
290
     0
176
     1
290
     0
176
     1
290
     0
176
     1
 90
       50
176
     1
 40
0.0
176
     1
 40
1.0
176
     1
 90
        0
176
     1
 62
    18
420
        0
176
     1
 90
       50
176
     1
 90
        3
176
     1
 62
     5
420
      255
176
     1
290
     0
176
     1
 90
       50
176
     1
 90
       50
176
     1
 90
       50
176
     1
290
     0
176
     1
 90
       50
176
     1
 62
   256
176
     0
 40
1.0
176
     0
 90
        2
176
     1
  1
strokes_ogs.tif
176
     1
290
     0
176
     1
 40
1.0
176
     1
 40
1.0
176
     1
  0
VISUALSTYLE
  5
3A
102
{ACAD_REACTORS
330
29
102
}
330
29
100
AcDbVisualStyle
  2
Shades of Gray
 70
    23
177
     3
291
     0
 70
    58
 90
        2
176
     1
 90
        2
176
     1
 90
        3
176
     1
 90
        0
176
     1
 40
0.6
176
     1
 40
30.0
176
     1
 62
     7
420
 16777215
176
     1
 90
        2
176
     1
 90
        2
176
     1
 62
     7
176
     1
 62
     7
176
     1
 90
        1
176
     1
 90
        1
176
     1
 40
40.0
176
     1
 90
        8
176
     1
 62
     7
176
     1
 40
1.0
176
     1
 90
        1
176
     1
 90
        6
176
     1
 90
        2
176
     1
 62
     7
176
     1
 90
        3
176
     1
 90
        0
176
     1
 90
        0
176
     1
290
     0
176
     1
 90
        1
176
     1
 40
0.0
176
     1
 90
        0
176
     1
290
     0
176
     1
290
     1
176
     1
290
     1
176
     1
290
     0
176
     1
290
     0
176
     1
290
     0
176
     1
290
     0
176
     1
290
     0
176
     1
290
     0
176
     1
 90
       50
176
     1
 40
0.0
176
     1
 40
1.0
176
     1
 90
        0
176
     1
 62
    18
420
        0
176
     1
 90
       50
176
     1
 90
        3
176
     1
 62
     5
420
      255
176
     1
290
     0
176
     1
 90
       50
176
     1
 90
       50
176
     1
 90
       50
176
     1
290
     0
176
     1
 90
       50
176
     1
 62
   256
176
     0
 40
1.0
176
     0
 90
        2
176
     1
  1
strokes_ogs.tif
176
     1
290
     0
176
     1
 40
1.0
176
     1
 40
1.0
176
     1
  0
VISUALSTYLE
  5
3B
102
{ACAD_REACTORS
330
29
102
}
330
29
100
AcDbVisualStyle
  2
Sketchy
 70
    24
177
     3
291
     0
 70
    58
 90
        1
176
     1
 90
        2
176
     1
 90
        2
176
     1
 90
        0
176
     1
 40
0.6
176
     1
 40
30.0
176
     1
 62
     7
420
 16777215
176
     1
 90
        2
176
     1
 90
        2
176
     1
 62
     7
176
     1
 62
     7
176
     1
 90
        1
176
     1
 90
        1
176
     1
 40
40.0
176
     1
 90
       11
176
     1
 62
     7
176
     1
 40
1.0
176
     1
 90
        1
176
     1
 90
        6
176
     1
 90
        2
176
     1
 62
     7
176
     1
 90
        6
176
     1
 90
        0
176
     1
 90
        0
176
     1
290
     0
176
     1
 90
        1
176
     1
 40
0.0
176
     1
 90
        0
176
     1
290
     0
176
     1
290
     1
176
     1
290
     1
176
     1
290
     0
176
     1
290
     0
176
     1
290
     0
176
     1
290
     0
176
     1
290
     0
176
     1
290
     0
176
     1
 90
       50
176
     1
 40
0.0
176
     1
 40
1.0
176
     1
 90
        0
176
     1
 62
    18
420
        0
176
     1
 90
       50
176
     1
 90
        3
176
     1
 62
     5
420
      255
176
     1
290
     0
176
     1
 90
       50
176
     1
 90
       50
176
     1
 90
       50
176
     1
290
     0
176
     1
 90
       50
176
     1
 62
   256
176
     0
 40
1.0
176
     0
 90
        2
176
     1
  1
strokes_ogs.tif
176
     1
290
     0
176
     1
 40
1.0
176
     1
 40
1.0
176
     1
  0
VISUALSTYLE
  5
36
102
{ACAD_REACTORS
330
29
102
}
330
29
100
AcDbVisualStyle
  2
Thicken
 70
    13
177
     3
291
     1
 70
    58
 90
        2
176
     1
 90
        2
176
     1
 90
        0
176
     1
 90
        0
176
     1
 40
0.6
176
     1
 40
30.0
176
     1
 62
     7
420
 16777215
176
     1
 90
        1
176
     1
 90
        4
176
     1
 62
     7
176
     1
 62
   257
176
     1
 90
        1
176
     1
 90
        1
176
     1
 40
1.0
176
     1
 90
       12
176
     1
 62
     7
176
     1
 40
1.0
176
     1
 90
        1
176
     1
 90
        6
176
     1
 90
        2
176
     1
 62
     7
176
     1
 90
        5
176
     1
 90
        0
176
     1
 90
        0
176
     1
290
     0
176
     1
 90
        1
176
     1
 40
0.0
176
     1
 90
        0
176
     1
290
     0
176
     1
290
     1
176
     1
290
     1
176
     1
290
     0
176
     1
290
     0
176
     1
290
     0
176
     1
290
     0
176
     1
290
     0
176
     1
290
     0
176
     1
 90
       50
176
     1
 40
0.0
176
     1
 40
1.0
176
     1
 90
        0
176
     1
 62
    18
420
        0
176
     1
 90
       50
176
     1
 90
        3
176
     1
 62
     5
420
      255
176
     1
290
     0
176
     1
 90
       50
176
     1
 90
       50
176
     1
 90
       50
176
     1
290
     0
176
     1
 90
       50
176
     1
 62
   256
176
     0
 40
1.0
176
     0
 90
        2
176
     1
  1
strokes_ogs.tif
176
     1
290
     0
176
     1
 40
1.0
176
     1
 40
1.0
176
     1
  0
VISUALSTYLE
  5
30
102
{ACAD_REACTORS
330
29
102
}
330
29
100
AcDbVisualStyle
  2
Wireframe
 70
     5
177
     3
291
     0
 70
    58
 90
        0
176
     1
 90
        2
176
     1
 90
        0
176
     1
 90
        0
176
     1
 40
0.6
176
     1
 40
30.0
176
     1
 62
     7
420
 16777215
176
     1
 90
        1
176
     1
 90
        4
176
     1
 62
     7
176
     1
 62
   257
176
     1
 90
        1
176
     1
 90
        1
176
     1
 40
1.0
176
     1
 90
        0
176
     1
 62
   257
176
     1
 40
1.0
176
     1
 90
        1
176
     1
 90
        6
176
     1
 90
        2
176
     1
 62
     7
176
     1
 90
        3
176
     1
 90
        0
176
     1
 90
        0
176
     1
290
     0
176
     1
 90
        1
176
     1
 40
0.0
176
     1
 90
        0
176
     1
290
     0
176
     1
290
     1
176
     1
290
     1
176
     1
290
     0
176
     1
290
     0
176
     1
290
     0
176
     1
290
     0
176
     1
290
     0
176
     1
290
     0
176
     1
 90
       50
176
     1
 40
0.0
176
     1
 40
1.0
176
     1
 90
        0
176
     1
 62
    18
420
        0
176
     1
 90
       50
176
     1
 90
        3
176
     1
 62
     5
420
      255
176
     1
290
     0
176
     1
 90
       50
176
     1
 90
       50
176
     1
 90
       50
176
     1
290
     0
176
     1
 90
       50
176
     1
 62
   256
176
     0
 40
1.0
176
     0
 90
        2
176
     1
  1
strokes_ogs.tif
176
     1
290
     0
176
     1
 40
1.0
176
     1
 40
1.0
176
     1
  0
VISUALSTYLE
  5
3C
102
{ACAD_REACTORS
330
29
102
}
330
29
100
AcDbVisualStyle
  2
X-Ray
 70
    25
177
     3
291
     0
 70
    58
 90
        2
176
     1
 90
        2
176
     1
 90
        1
176
     1
 90
        1
176
     1
 40
0.5
176
     1
 40
30.0
176
     1
 62
     7
420
 16777215
176
     1
 90
        1
176
     1
 90
        0
176
     1
 62
     7
176
     1
 62
   257
176
     1
 90
        1
176
     1
 90
        1
176
     1
 40
1.0
176
     1
 90
        8
176
     1
 62
     7
176
     1
 40
1.0
176
     1
 90
        1
176
     1
 90
        6
176
     1
 90
        2
176
     1
 62
     7
176
     1
 90
        3
176
     1
 90
        0
176
     1
 90
        0
176
     1
290
     0
176
     1
 90
       13
176
     1
 40
0.0
176
     1
 90
        0
176
     1
290
     0
176
     1
290
     1
176
     1
290
     1
176
     1
290
     0
176
     1
290
     0
176
     1
290
     0
176
     1
290
     0
176
     1
290
     0
176
     1
290
     0
176
     1
 90
       50
176
     1
 40
0.0
176
     1
 40
1.0
176
     1
 90
        0
176
     1
 62
    18
420
        0
176
     1
 90
       50
176
     1
 90
        3
176
     1
 62
     5
420
      255
176
     1
290
     0
176
     1
 90
       50
176
     1
 90
       50
176
     1
 90
       50
176
     1
290
     0
176
     1
 90
       50
176
     1
 62
   256
176
     0
 40
1.0
176
     0
 90
        2
176
     1
  1
strokes_ogs.tif
176
     1
290
     0
176
     1
 40
1.0
176
     1
 40
1.0
176
     1
  0
DICTIONARYVAR
  5
A1
102
{ACAD_REACTORS
330
9C
102
}
330
9C
100
DictionaryVariables
280
     0
  1
1:1
  0
DICTIONARYVAR
  5
9E
102
{ACAD_REACTORS
330
9C
102
}
330
9C
100
DictionaryVariables
280
     0
  1
STANDARD
  0
DICTIONARYVAR
  5
9D
102
{ACAD_REACTORS
330
9C
102
}
330
9C
100
DictionaryVariables
280
     0
  1
STANDARD
  0
DICTIONARYVAR
  5
9F
102
{ACAD_REACTORS
330
9C
102
}
330
9C
100
DictionaryVariables
280
     0
  1
Imperial24
  0
DICTIONARYVAR
  5
A0
102
{ACAD_REACTORS
330
9C
102
}
330
9C
100
DictionaryVariables
280
     0
  1
Imperial24
  0
DICTIONARY
  5
1A
330
19
100
AcDbDictionary
280
     1
281
     1
  3
BUMPTILE
360
1C
  3
DIFFUSETILE
360
1B
  3
OPACITYTILE
360
1F
  3
REFLECTIONTILE
360
1E
  3
REFRACTIONTILE
360
20
  3
SPECULARTILE
360
1D
  0
DICTIONARY
  5
12
330
11
100
AcDbDictionary
280
     1
281
     1
  3
BUMPTILE
360
14
  3
DIFFUSETILE
360
13
  3
OPACITYTILE
360
17
  3
REFLECTIONTILE
360
16
  3
REFRACTIONTILE
360
18
  3
SPECULARTILE
360
15
  0
DICTIONARY
  5
22
330
21
100
AcDbDictionary
280
     1
281
     1
  3
BUMPTILE
360
24
  3
DIFFUSETILE
360
23
  3
OPACITYTILE
360
27
  3
REFLECTIONTILE
360
26
  3
REFRACTIONTILE
360
28
  3
SPECULARTILE
360
25
  0
DICTIONARY
  5
A2
330
65
100
AcDbDictionary
280
     1
281
     1
  3
ACAD_ROUNDTRIP_2008_TABLESTYLE_CELLSTYLEMAP
360
A3
  0
XRECORD
  5
1C
102
{ACAD_REACTORS
330
1A
102
}
330
1A
100
AcDbXrecord
280
     1
270
     1
271
     1
  0
XRECORD
  5
1B
102
{ACAD_REACTORS
330
1A
102
}
330
1A
100
AcDbXrecord
280
     1
270
     1
271
     1
  0
XRECORD
  5
1F
102
{ACAD_REACTORS
330
1A
102
}
330
1A
100
AcDbXrecord
280
     1
270
     1
271
     1
  0
XRECORD
  5
1E
102
{ACAD_REACTORS
330
1A
102
}
330
1A
100
AcDbXrecord
280
     1
270
     1
271
     1
  0
XRECORD
  5
20
102
{ACAD_REACTORS
330
1A
102
}
330
1A
100
AcDbXrecord
280
     1
270
     1
271
     1
  0
XRECORD
  5
1D
102
{ACAD_REACTORS
330
1A
102
}
330
1A
100
AcDbXrecord
280
     1
270
     1
271
     1
  0
XRECORD
  5
14
102
{ACAD_REACTORS
330
12
102
}
330
12
100
AcDbXrecord
280
     1
270
     1
271
     1
  0
XRECORD
  5
13
102
{ACAD_REACTORS
330
12
102
}
330
12
100
AcDbXrecord
280
     1
270
     1
271
     1
  0
XRECORD
  5
17
102
{ACAD_REACTORS
330
12
102
}
330
12
100
AcDbXrecord
280
     1
270
     1
271
     1
  0
XRECORD
  5
16
102
{ACAD_REACTORS
330
12
102
}
330
12
100
AcDbXrecord
280
     1
270
     1
271
     1
  0
XRECORD
  5
18
102
{ACAD_REACTORS
330
12
102
}
330
12
100
AcDbXrecord
280
     1
270
     1
271
     1
  0
XRECORD
  5
15
102
{ACAD_REACTORS
330
12
102
}
330
12
100
AcDbXrecord
280
     1
270
     1
271
     1
  0
XRECORD
  5
24
102
{ACAD_REACTORS
330
22
102
}
330
22
100
AcDbXrecord
280
     1
270
     1
271
     1
  0
XRECORD
  5
23
102
{ACAD_REACTORS
330
22
102
}
330
22
100
AcDbXrecord
280
     1
270
     1
271
     1
  0
XRECORD
  5
27
102
{ACAD_REACTORS
330
22
102
}
330
22
100
AcDbXrecord
280
     1
270
     1
271
     1
  0
XRECORD
  5
26
102
{ACAD_REACTORS
330
22
102
}
330
22
100
AcDbXrecord
280
     1
270
     1
271
     1
  0
XRECORD
  5
28
102
{ACAD_REACTORS
330
22
102
}
330
22
100
AcDbXrecord
280
     1
270
     1
271
     1
  0
XRECORD
  5
25
102
{ACAD_REACTORS
330
22
102
}
330
22
100
AcDbXrecord
280
     1
270
     1
271
     1
  0
CELLSTYLEMAP
  5
A3
102
{ACAD_REACTORS
330
A2
102
}
330
A2
100
AcDbCellStyleMap
 90
        3
300
CELLSTYLE
  1
TABLEFORMAT_BEGIN
 90
        5
170
     1
 91
        0
 92
    32768
 62
   257
 93
        1
300
CONTENTFORMAT
  1
CONTENTFORMAT_BEGIN
 90
        0
 91
        0
 92
      512
 93
        0
300

 40
0.0
140
1.0
 94
        5
 62
     0
340
55
144
0.25
309
CONTENTFORMAT_END
171
     0
 94
        0
309
TABLEFORMAT_END
  1
CELLSTYLE_BEGIN
 90
        1
 91
        1
300
_TITLE
309
CELLSTYLE_END
300
CELLSTYLE
  1
TABLEFORMAT_BEGIN
 90
        5
170
     1
 91
        0
 92
        0
 62
   257
 93
        1
300
CONTENTFORMAT
  1
CONTENTFORMAT_BEGIN
 90
        0
 91
        0
 92
      512
 93
        0
300

 40
0.0
140
1.0
 94
        5
 62
     0
340
55
144
0.18
309
CONTENTFORMAT_END
171
     0
 94
        0
309
TABLEFORMAT_END
  1
CELLSTYLE_BEGIN
 90
        2
 91
        1
300
_HEADER
309
CELLSTYLE_END
300
CELLSTYLE
  1
TABLEFORMAT_BEGIN
 90
        5
170
     1
 91
        0
 92
        0
 62
   257
 93
        1
300
CONTENTFORMAT
  1
CONTENTFORMAT_BEGIN
 90
        0
 91
        0
 92
      512
 93
        0
300

 40
0.0
140
1.0
 94
        2
 62
     0
340
55
144
0.18
309
CONTENTFORMAT_END
171
     0
 94
        0
309
TABLEFORMAT_END
  1
CELLSTYLE_BEGIN
 90
        3
 91
        2
300
_DATA
309
CELLSTYLE_END
  0
ENDSEC
  0
EOF
