0
SECTION
2
HEADER
9
$INSUNITS
70
4
9
$ACADVER
1
AC1014
9
$HANDSEED
5
FFFF
0
ENDSEC
0
SECTION
2
TABLES
0
TABLE
2
VPORT
5
8
100
AcDbSymbolTable
0
ENDTAB
0
TABLE
2
LTYPE
5
5
100
AcDbSymbolTable
0
LTYPE
5
14
100
AcDbSymbolTableRecord
100
AcDbLinetypeTableRecord
2
BYBLOCK
70
0
0
LTYPE
5
15
100
AcDbSymbolTableRecord
100
AcDbLinetypeTableRecord
2
BYLAYER
70
0
0
ENDTAB
0
TABLE
2
LAYER
5
2
100
AcDbSymbolTable
70
2
0
LAYER
5
50
100
AcDbSymbolTableRecord
100
AcDbLayerTableRecord
2
0
70
0
6
CONTINUOUS
0
ENDTAB
0
TABLE
2
STYLE
5
3
100
AcDbSymbolTable
70
1
0
STYLE
5
11
100
AcDbSymbolTableRecord
100
AcDbTextStyleTableRecord
2
STANDARD
70
0
0
ENDTAB
0
TABLE
2
VIEW
5
6
100
AcDbSymbolTable
70
0
0
ENDTAB
0
TABLE
2
UCS
5
7
100
AcDbSymbolTable
70
0
0
ENDTAB
0
TABLE
2
APPID
5
9
100
AcDbSymbolTable
70
2
0
APPID
5
12
100
AcDbSymbolTableRecord
100
AcDbRegAppTableRecord
2
ACAD
70
0
0
ENDTAB
0
TABLE
2
DIMSTYLE
5
A
100
AcDbSymbolTable
70
1
0
ENDTAB
0
TABLE
2
BLOCK_RECORD
5
1
100
AcDbSymbolTable
70
1
0
BLOCK_RECORD
5
1F
100
AcDbSymbolTableRecord
100
AcDbBlockTableRecord
2
*MODEL_SPACE
0
BLOCK_RECORD
5
1B
100
AcDbSymbolTableRecord
100
AcDbBlockTableRecord
2
*PAPER_SPACE
0
ENDTAB
0
ENDSEC
0
SECTION
2
BLOCKS
0
BLOCK
5
20
100
AcDbEntity
100
AcDbBlockBegin
2
*MODEL_SPACE
0
ENDBLK
5
21
100
AcDbEntity
100
AcDbBlockEnd
0
BLOCK
5
1C
100
AcDbEntity
100
AcDbBlockBegin
2
*PAPER_SPACE
0
ENDBLK
5
1D
100
AcDbEntity
100
AcDbBlockEnd
0
ENDSEC
0
SECTION
2
ENTITIES
0
LWPOLYLINE
5
100
100
AcDbEntity
8
0
100
AcDbPolyline
90
11
70
1
43
0.0
10
132.41250000000002
20
-124.21249999999995
10
113.38750000000002
20
-124.21250000000002
42
-0.41421356237309509
10
112.8875
20
-123.71250000000002
10
112.8875
20
-108.7175
42
-0.41421356237309509
10
113.38750000000002
20
-108.2175
10
119.3875
20
-108.21750000000002
42
-0.41421356237309509
10
119.88749999999999
20
-108.7175
10
119.88750000000002
20
-110.21250000000002
10
132.41250000000002
20
-110.21250000000011
42
-0.41421356237309509
10
132.91249999999991
20
-110.71250000000001
10
132.91250000000002
20
-123.71249999999996
42
-0.41421356237309509
0
LWPOLYLINE
5
101
100
AcDbEntity
8
0
100
AcDbPolyline
90
11
70
1
43
0.0
10
176.53750000000002
20
-124.21250000000006
10
157.51250000000002
20
-124.21250000000001
42
-0.41421356237310542
10
157.01249999999999
20
-123.71249999999998
10
157.0125000000003
20
-110.71250000000001
42
-0.41421356237309509
10
157.51249999999999
20
-110.21250000000032
10
170.03749999999999
20
-110.21250000000002
10
170.03749999999997
20
-108.7175
42
-0.41421356237309509
10
170.53750000000002
20
-108.21749999999996
10
176.53749999999999
20
-108.21750000000003
42
-0.41421356237309509
10
177.03749999999997
20
-108.7175
10
177.03750000000008
20
-123.71250000000001
42
-0.41421356237309509
0
LWPOLYLINE
5
102
100
AcDbEntity
8
0
100
AcDbPolyline
90
4
70
1
43
0.0
10
85.575000000000017
20
-48.299999999999997
10
99.575000000000017
20
-48.299999999999997
10
99.575000000000017
20
-62.300000000000004
10
85.575000000000017
20
-62.300000000000004
0
LWPOLYLINE
5
103
100
AcDbEntity
8
0
100
AcDbPolyline
90
10
70
1
43
0.0
10
151.96250000000001
20
-110.71750000000002
10
151.96250000000001
20
-123.7175
42
-0.41421356237309509
10
151.46250000000003
20
-124.2175
10
138.46250000000001
20
-124.21750000000003
42
-0.41421356237309509
10
137.96249999999998
20
-123.7175
10
137.96250000000003
20
-110.71250000000001
42
-0.41421356237309509
10
138.46250000000001
20
-110.21250000000002
10
140.05625000000003
20
-110.21250000000002
10
140.05625000000003
20
-110.2175
10
151.46250000000003
20
-110.21750000000003
42
-0.41421356237309509
0
LWPOLYLINE
5
104
100
AcDbEntity
8
0
100
AcDbPolyline
90
34
70
1
43
0.0
10
225.56875000000002
20
-73.267999999999958
42
0.41421356237309509
10
225.06874999999997
20
-73.768000000000001
10
225.06875000000002
20
-79.768000000000001
42
0.41421356237309509
10
225.56875000000002
20
-80.267999999999887
42
-0.41421356237315754
10
226.06875000000002
20
-80.768000000000001
10
226.06874999999997
20
-80.855000000000018
42
0.41421356237309509
10
226.56874999999999
20
-81.355000000000004
10
239.56874999999999
20
-81.35499999999999
42
0.41421356237303264
10
240.06875000000002
20
-80.855000000000018
10
240.06875000000002
20
-80.768000000000001
42
-0.41421356237309509
10
240.56875000000002
20
-80.268000000000001
10
241.56874999999999
20
-80.268000000000086
42
0.41421356237309509
10
242.06874999999999
20
-79.768000000000001
10
242.06875000000008
20
-73.768000000000001
42
0.41421356237303786
10
241.56874999999999
20
-73.268000000000001
10
240.56875000000002
20
-73.267999999999915
42
-0.41421356237303786
10
240.06875000000002
20
-72.768000000000001
10
240.06874999999994
20
-56.892000000000003
42
-0.41421356237303786
10
240.56875000000002
20
-56.39200000000001
10
241.56874999999999
20
-56.391999999999953
42
0.41421356237303786
10
242.06874999999999
20
-55.89200000000001
10
242.06874999999997
20
-49.892000000000003
42
0.41421356237309509
10
241.56874999999999
20
-49.392000000000003
10
238.1875
20
-49.39200000000001
42
-0.41421356237309509
10
237.6875
20
-48.89200000000001
10
237.68750000000009
20
-48.799999999999997
42
0.41421356237303786
10
237.1875
20
-48.299999999999997
10
224.18750000000003
20
-48.299999999999955
42
0.41421356237309509
10
223.68750000000003
20
-48.799999999999997
10
223.68750000000006
20
-61.805000000000007
42
0.41421356237309509
10
224.18750000000003
20
-62.305
10
225.56875000000002
20
-62.304999999999993
42
-0.41421356237309509
10
226.06875000000002
20
-62.805
10
226.06874999999997
20
-72.768000000000001
42
-0.41421356237309509
0
LWPOLYLINE
5
105
100
AcDbEntity
8
0
100
AcDbPolyline
90
4
70
1
43
0.0
10
63.85625000000001
20
-81.349999999999994
10
49.856250000000003
20
-81.349999999999994
10
49.856250000000003
20
-67.349999999999994
10
63.85625000000001
20
-67.349999999999994
0
LWPOLYLINE
5
106
100
AcDbEntity
8
0
100
AcDbPolyline
90
4
70
1
43
0.0
10
104.33750000000002
20
-81.349999999999994
10
90.337500000000006
20
-81.349999999999994
10
90.337500000000006
20
-67.349999999999994
10
104.33750000000002
20
-67.349999999999994
0
LWPOLYLINE
5
107
100
AcDbEntity
8
0
100
AcDbPolyline
90
4
70
1
43
0.0
10
223.40000000000003
20
-86.400000000000006
10
223.40000000000003
20
-100.40000000000001
10
209.40000000000001
20
-100.40000000000001
10
209.40000000000001
20
-86.400000000000006
0
LWPOLYLINE
5
108
100
AcDbEntity
8
0
100
AcDbPolyline
90
4
70
1
43
0.0
10
242.45000000000002
20
-86.400000000000006
10
242.45000000000002
20
-100.40000000000001
10
228.44999999999999
20
-100.40000000000001
10
228.44999999999999
20
-86.400000000000006
0
LWPOLYLINE
5
109
100
AcDbEntity
8
0
100
AcDbPolyline
90
4
70
1
43
0.0
10
128.4375
20
-81.349999999999994
10
128.4375
20
-67.349999999999994
10
142.4375
20
-67.349999999999994
10
142.4375
20
-81.349999999999994
0
LWPOLYLINE
5
110
100
AcDbEntity
8
0
100
AcDbPolyline
90
4
70
1
43
0.0
10
190.34999999999999
20
-119.45
10
190.34999999999999
20
-105.45000000000002
10
204.35000000000002
20
-105.45000000000002
10
204.35000000000002
20
-119.45
0
LWPOLYLINE
5
111
100
AcDbEntity
8
0
100
AcDbPolyline
90
4
70
1
43
0.0
10
123.38750000000002
20
-67.349999999999994
10
123.38750000000002
20
-81.349999999999994
10
109.3875
20
-81.349999999999994
10
109.3875
20
-67.349999999999994
0
LWPOLYLINE
5
112
100
AcDbEntity
8
0
100
AcDbPolyline
90
4
70
1
43
0.0
10
199.58750000000003
20
-81.349999999999994
10
185.58750000000001
20
-81.349999999999994
10
185.58750000000001
20
-67.349999999999994
10
199.58750000000003
20
-67.349999999999994
0
LWPOLYLINE
5
113
100
AcDbEntity
8
0
100
AcDbPolyline
90
4
70
1
43
0.0
10
71.287499999999994
20
-81.349999999999994
10
71.287499999999994
20
-67.349999999999994
10
85.287500000000009
20
-67.349999999999994
10
85.287500000000009
20
-81.349999999999994
0
LWPOLYLINE
5
114
100
AcDbEntity
8
0
100
AcDbPolyline
90
4
70
1
43
0.0
10
147.19999999999999
20
-100.40000000000001
10
133.19999999999999
20
-100.40000000000001
10
133.19999999999999
20
-86.400000000000006
10
147.19999999999999
20
-86.400000000000006
0
LWPOLYLINE
5
115
100
AcDbEntity
8
0
100
AcDbPolyline
90
4
70
1
43
0.0
10
161.26556091606002
20
-67.181213814313296
10
161.26556091606002
20
-81.349999999999994
10
147.26556091606
20
-81.349999999999994
10
147.26556091606
20
-67.181213814313296
0
LWPOLYLINE
5
116
100
AcDbEntity
8
0
100
AcDbPolyline
90
4
70
1
43
0.0
10
47.475000000000009
20
-62.300000000000004
10
47.475000000000009
20
-48.299999999999997
10
61.475000000000009
20
-48.299999999999997
10
61.475000000000009
20
-62.300000000000004
0
LWPOLYLINE
5
117
100
AcDbEntity
8
0
100
AcDbPolyline
90
4
70
1
43
0.0
10
52.237499999999997
20
-86.400000000000006
10
66.237499999999997
20
-86.400000000000006
10
66.237499999999997
20
-100.40000000000001
10
52.237499999999997
20
-100.40000000000001
0
LWPOLYLINE
5
118
100
AcDbEntity
8
0
100
AcDbPolyline
90
4
70
1
43
0.0
10
166.53749999999999
20
-81.349999999999994
10
166.53749999999999
20
-67.349999999999994
10
180.53750000000002
20
-67.349999999999994
10
180.53750000000002
20
-81.349999999999994
0
LWPOLYLINE
5
119
100
AcDbEntity
8
0
100
AcDbPolyline
90
4
70
1
43
0.0
10
109.09999999999999
20
-100.40000000000001
10
95.099999999999994
20
-100.40000000000001
10
95.099999999999994
20
-86.400000000000006
10
109.09999999999999
20
-86.400000000000006
0
LWPOLYLINE
5
120
100
AcDbEntity
8
0
100
AcDbPolyline
90
4
70
1
43
0.0
10
114.15000000000001
20
-86.400000000000006
10
128.15000000000001
20
-86.400000000000006
10
128.15000000000001
20
-100.40000000000001
10
114.15000000000001
20
-100.40000000000001
0
LWPOLYLINE
5
121
100
AcDbEntity
8
0
100
AcDbPolyline
90
4
70
1
43
0.0
10
218.63749999999999
20
-67.349999999999994
10
218.63749999999999
20
-81.349999999999994
10
204.63750000000002
20
-81.349999999999994
10
204.63750000000002
20
-67.349999999999994
0
LWPOLYLINE
5
122
100
AcDbEntity
8
0
100
AcDbPolyline
90
4
70
1
43
0.0
10
180.82499999999999
20
-48.299999999999997
10
194.82500000000002
20
-48.299999999999997
10
194.82500000000002
20
-62.300000000000004
10
180.82499999999999
20
-62.300000000000004
0
LWPOLYLINE
5
123
100
AcDbEntity
8
0
100
AcDbPolyline
90
4
70
1
43
0.0
10
166.25
20
-100.40000000000001
10
152.25
20
-100.40000000000001
10
152.25
20
-86.400000000000006
10
166.25
20
-86.400000000000006
0
LWPOLYLINE
5
124
100
AcDbEntity
8
0
100
AcDbPolyline
90
4
70
1
43
0.0
10
228.44999999999999
20
-105.45000000000002
10
242.45000000000002
20
-105.45000000000002
10
242.45000000000002
20
-119.45
10
228.44999999999999
20
-119.45
0
LWPOLYLINE
5
125
100
AcDbEntity
8
0
100
AcDbPolyline
90
4
70
1
43
0.0
10
223.40000000000003
20
-105.45000000000002
10
223.40000000000003
20
-119.45
10
209.40000000000001
20
-119.45
10
209.40000000000001
20
-105.45000000000002
0
LWPOLYLINE
5
126
100
AcDbEntity
8
0
100
AcDbPolyline
90
4
70
1
43
0.0
10
118.625
20
-48.299999999999997
10
118.625
20
-62.300000000000004
10
104.625
20
-62.300000000000004
10
104.625
20
-48.299999999999997
0
LWPOLYLINE
5
127
100
AcDbEntity
8
0
100
AcDbPolyline
90
4
70
1
43
0.0
10
161.77500000000003
20
-48.299999999999997
10
175.77500000000001
20
-48.299999999999997
10
175.77500000000001
20
-62.300000000000004
10
161.77500000000003
20
-62.300000000000004
0
LWPOLYLINE
5
128
100
AcDbEntity
8
0
100
AcDbPolyline
90
4
70
1
43
0.0
10
199.875
20
-62.300000000000004
10
199.875
20
-48.299999999999997
10
213.87500000000003
20
-48.299999999999997
10
213.87500000000003
20
-62.300000000000004
0
LWPOLYLINE
5
129
100
AcDbEntity
8
0
100
AcDbPolyline
90
4
70
1
43
0.0
10
90.050000000000011
20
-100.40000000000001
10
76.050000000000011
20
-100.40000000000001
10
76.050000000000011
20
-86.400000000000006
10
90.050000000000011
20
-86.400000000000006
0
LWPOLYLINE
5
130
100
AcDbEntity
8
0
100
AcDbPolyline
90
4
70
1
43
0.0
10
190.34999999999999
20
-100.40000000000001
10
190.34999999999999
20
-86.400000000000006
10
204.35000000000002
20
-86.400000000000006
10
204.35000000000002
20
-100.40000000000001
0
LWPOLYLINE
5
131
100
AcDbEntity
8
0
100
AcDbPolyline
90
4
70
1
43
0.0
10
66.525000000000006
20
-48.299999999999997
10
80.525000000000006
20
-48.299999999999997
10
80.525000000000006
20
-62.300000000000004
10
66.525000000000006
20
-62.300000000000004
0
LWPOLYLINE
5
132
100
AcDbEntity
8
0
100
AcDbPolyline
90
4
70
1
43
0.0
10
137.67500000000001
20
-48.299999999999997
10
137.67500000000001
20
-62.300000000000004
10
123.675
20
-62.300000000000004
10
123.675
20
-48.299999999999997
0
LWPOLYLINE
5
133
100
AcDbEntity
8
0
100
AcDbPolyline
90
4
70
1
43
0.0
10
171.30000000000001
20
-86.400000000000006
10
185.30000000000001
20
-86.400000000000006
10
185.30000000000001
20
-100.40000000000001
10
171.30000000000001
20
-100.40000000000001
0
LWPOLYLINE
5
134
100
AcDbEntity
8
0
100
AcDbPolyline
90
4
70
1
43
0.0
10
142.72500000000002
20
-48.299999999999997
10
156.72499999999999
20
-48.299999999999997
10
156.72499999999999
20
-62.300000000000004
10
142.72500000000002
20
-62.300000000000004
0
LWPOLYLINE
5
135
100
AcDbEntity
8
0
100
AcDbPolyline
90
4
70
1
43
0.0
10
80.525000000000006
20
-105.45000000000002
10
80.525000000000006
20
-119.45
10
66.525000000000006
20
-119.45
10
66.525000000000006
20
-105.45000000000002
0
LWPOLYLINE
5
136
100
AcDbEntity
8
0
100
AcDbPolyline
90
4
70
1
43
0.0
10
99.575000000000017
20
-119.45
10
85.575000000000017
20
-119.45
10
85.575000000000017
20
-105.45000000000002
10
99.575000000000017
20
-105.45000000000002
0
LWPOLYLINE
5
137
100
AcDbEntity
8
0
100
AcDbPolyline
90
4
70
1
43
0.0
10
61.475000000000009
20
-119.45
10
47.475000000000009
20
-119.45
10
47.475000000000009
20
-105.45000000000002
10
61.475000000000009
20
-105.45000000000002
0
LWPOLYLINE
5
138
100
AcDbEntity
8
0
100
AcDbPolyline
90
47
70
1
43
0.0
10
106.96449209658802
20
-126.73672312231601
10
183.25899667079301
20
-126.73672312250402
42
0.41420978706434769
10
185.52071949879513
20
-124.47502944730502
42
-0.4142174183900964
10
188.02072325875
20
-121.97500029431394
10
222.06977730835402
20
-121.97505150579542
42
-0.19891469765956907
10
223.48400266993352
20
-122.56085275088154
10
228.31380003391104
20
-127.390751255754
42
0.19891236737960288
10
229.72800746278804
20
-127.97655250073177
10
238.14645343841704
20
-127.97664064524101
42
0.19891236737970983
10
239.56067313413214
20
-127.39086901503015
10
244.38918336243302
20
-122.56245989855101
42
0.19891236737960388
10
244.97498460741122
20
-121.148252469675
10
244.974999492146
20
-119.86186591623101
10
244.97537486460999
20
-48.160228457020004
42
0.024603351585876707
10
244.97537486460635
20
-47.935771542898678
10
244.97537486460999
20
-46.603412786194497
42
0.19891236737965765
10
244.38958842698298
20
-45.189199223821561
10
239.56112875432802
20
-40.360739551166908
42
0.19891236737964818
10
238.14691519195503
20
-39.774953113540008
10
229.728469215865
20
-39.774953113540001
42
0.19891236737979623
10
228.31425565349099
20
-40.36073955116688
10
223.48578663625705
20
-45.189208568401327
42
-0.19891242969305473
10
222.07157259435002
20
-45.774995006028107
10
68.178429349656994
20
-45.774953113539965
42
-0.19891236737949294
10
66.76421578728511
20
-45.189166675913086
10
61.935788662538904
20
-40.360739551166908
42
0.19891236737964899
10
60.521575100165805
20
-39.774953113540057
10
51.778426688976104
20
-39.774953113540001
42
0.19891236737967158
10
50.364213126602955
20
-40.360739551166859
10
45.535786038348604
20
-45.189166639421209
42
0.19891236134497975
10
44.949999600721796
20
-46.603380155354401
10
44.9499995712425
20
-47.872944934665711
10
44.950000000000003
20
-55.300000000000004
10
44.950000000000003
20
-82.5
10
44.950382867150005
20
-119.55001987190002
42
0.024769493435354117
10
44.949849358342419
20
-119.77921726194602
10
44.949622617519708
20
-119.87662597529599
10
44.949609354145998
20
-121.14619075453801
42
0.19891236134492191
10
45.535380984357175
20
-122.56041040381243
10
50.363757516777305
20
-127.38888804737201
42
0.19891236737963899
10
51.777964945653707
20
-127.97468929235045
10
60.521113356364197
20
-127.97478083662401
42
0.19891236737968218
10
61.935333052079109
20
-127.38900920641319
10
66.763819406167229
20
-122.56062396364692
42
-0.19575337311217958
10
68.153714974270201
20
-121.97499999999978
10
102.20276897427
20
-121.974999999999
42
-0.41421356237309509
10
104.70276897427
20
-124.474999999999
42
0.41421356237309509
0
CIRCLE
5
139
100
AcDbEntity
8
0
100
AcDbCircle
10
233.93725947620001
20
-124.97657791336999
30
0
40
1.1499999999999799
210
0
220
0
230
1
0
CIRCLE
5
140
100
AcDbEntity
8
0
100
AcDbCircle
10
56.149570576145109
20
-124.97473507858402
30
0
40
1.1499999999999999
210
0
220
0
230
1
0
CIRCLE
5
141
100
AcDbEntity
8
0
100
AcDbCircle
10
56.150000908502911
20
-42.774953099607998
30
0
40
1.1499999999999999
210
0
220
0
230
1
0
CIRCLE
5
142
100
AcDbEntity
8
0
100
AcDbCircle
10
233.93768981810803
20
-42.7749717732965
30
0
40
1.1499999999999799
210
0
220
0
230
1
0
ENDSEC
0
SECTION
2
OBJECTS
0
DICTIONARY
5
C
100
AcDbDictionary
3
ACAD_GROUP
350
D
3
ACAD_MLINESTYLE
350
17
0
DICTIONARY
5
D
100
AcDbDictionary
0
DICTIONARY
5
1A
330
C
100
AcDbDictionary
0
DICTIONARY
5
17
100
AcDbDictionary
0
ENDSEC
0
EOF
