M48
; DRILL file {KiCad (6.0.7-1)-1} date Tuesday, November 08, 2022 at 10:29:57 AM
; FORMAT={-:-/ absolute / inch / decimal}
; #@! TF.CreationDate,2022-11-08T10:29:57-05:00
; #@! TF.GenerationSoftware,Kicad,Pcbnew,(6.0.7-1)-1
; #@! TF.FileFunction,NonPlated,1,2,NPTH
FMAT,2
INCH
; #@! TA.AperFunction,NonPlated,NPTH,ComponentDrill
T1C0.0689
; #@! TA.AperFunction,NonPlated,NPTH,ComponentDrill
T2C0.1200
; #@! TA.AperFunction,NonPlated,NPTH,ComponentDrill
T3C0.1570
%
G90
G05
T1
X1.9447Y-2.1772
X1.9447Y-4.4272
X2.0384Y-2.9272
X2.0384Y-4.4272
X2.1322Y-3.6772
X2.3447Y-2.1772
X2.3447Y-4.4272
X2.4384Y-2.9272
X2.4384Y-4.4272
X2.5322Y-3.6772
X2.6947Y-2.1772
X2.6947Y-4.4272
X2.8822Y-2.9272
X2.8822Y-4.4272
X3.0697Y-3.6772
X3.0947Y-2.1772
X3.0947Y-4.4272
X3.2822Y-2.9272
X3.2822Y-4.4272
X3.4447Y-2.1772
X3.4447Y-4.4272
X3.4697Y-3.6772
X3.6322Y-2.9272
X3.7259Y-4.4272
X3.8197Y-3.6772
X3.8447Y-2.1772
X3.8447Y-4.4272
X4.0322Y-2.9272
X4.1259Y-4.4272
X4.1947Y-2.1772
X4.1947Y-4.4272
X4.2197Y-3.6772
X4.3822Y-2.9272
X4.5697Y-3.6772
X4.5947Y-2.1772
X4.5947Y-4.4272
X4.7822Y-2.9272
X4.9447Y-2.1772
X4.9697Y-3.6772
X5.0384Y-4.6147
X5.1322Y-2.9272
X5.3197Y-3.6772
X5.3447Y-2.1772
X5.4384Y-4.6147
X5.5072Y-4.6147
X5.5322Y-2.9272
X5.6947Y-2.1772
X5.7197Y-3.6772
X5.8822Y-2.9272
X5.8822Y-4.6147
X5.9072Y-4.6147
X6.0697Y-3.6772
X6.0947Y-2.1772
X6.2822Y-2.9272
X6.2822Y-4.6147
X6.3509Y-4.6147
X6.4447Y-2.1772
X6.4697Y-3.6772
X6.6322Y-2.9272
X6.7509Y-4.6147
X6.8197Y-3.6772
X6.8447Y-2.1772
X7.0322Y-2.9272
X7.1947Y-2.1772
X7.2197Y-3.6772
X7.3822Y-2.9272
X7.5697Y-3.6772
X7.5697Y-4.4272
X7.5947Y-2.1772
X7.7822Y-2.9272
X7.9447Y-2.1772
X7.9697Y-3.6772
X7.9697Y-4.4272
X8.1322Y-2.9272
X8.3197Y-3.6772
X8.3197Y-4.4272
X8.3447Y-2.1772
X8.5322Y-2.9272
X8.7197Y-3.6772
X8.7197Y-4.4272
X8.8822Y-2.1772
X8.9759Y-2.5522
X8.9759Y-2.9272
X9.0697Y-3.6772
X9.0697Y-4.4272
X9.2822Y-2.1772
X9.3759Y-2.5522
X9.3759Y-2.9272
X9.4697Y-3.6772
X9.4697Y-4.4272
T2
X4.5822Y-4.8897
X5.3322Y-4.8897
X6.8322Y-4.8897
X6.8322Y-4.8897
X9.4509Y-2.0822
X9.4509Y-3.0222
T3
X2.1447Y-2.1772
X2.1447Y-4.4272
X2.2384Y-2.9272
X2.2384Y-4.4272
X2.3322Y-3.6772
X2.8947Y-2.1772
X2.8947Y-4.4272
X3.0822Y-2.9272
X3.0822Y-4.4272
X3.2697Y-3.6772
X3.6447Y-2.1772
X3.6447Y-4.4272
X3.8322Y-2.9272
X3.9259Y-4.4272
X4.0197Y-3.6772
X4.3947Y-2.1772
X4.3947Y-4.4272
X4.5822Y-2.9272
X4.5822Y-4.2897
X4.7697Y-3.6772
X5.1447Y-2.1772
X5.2384Y-4.6147
X5.3322Y-2.9272
X5.3322Y-4.2897
X5.5197Y-3.6772
X5.7072Y-4.6147
X5.8947Y-2.1772
X6.0822Y-2.9272
X6.0822Y-4.6147
X6.2697Y-3.6772
X6.5509Y-4.6147
X6.6447Y-2.1772
X6.8322Y-2.9272
X6.8322Y-4.2897
X6.8322Y-4.2897
X7.0197Y-3.6772
X7.3947Y-2.1772
X7.5822Y-2.9272
X7.7697Y-3.6772
X7.7697Y-4.4272
X8.1447Y-2.1772
X8.3322Y-2.9272
X8.5197Y-3.6772
X8.5197Y-4.4272
X8.8509Y-2.0822
X8.8509Y-3.0222
X9.0822Y-2.1772
X9.1759Y-2.5522
X9.1759Y-2.9272
X9.2697Y-3.6772
X9.2697Y-4.4272
T0
M30
