%TF.GenerationSoftware,KiCad,Pcbnew,(7.0.0-0)*%
%TF.CreationDate,2023-03-07T16:34:35-05:00*%
%TF.ProjectId,cutiepie2040,63757469-6570-4696-9532-3034302e6b69,rev?*%
%TF.SameCoordinates,Original*%
%TF.FileFunction,Paste,Bot*%
%TF.FilePolarity,Positive*%
%FSLAX46Y46*%
G04 Gerber Fmt 4.6, Leading zero omitted, Abs format (unit mm)*
G04 Created by KiCad (PCBNEW (7.0.0-0)) date 2023-03-07 16:34:35*
%MOMM*%
%LPD*%
G01*
G04 APERTURE LIST*
G04 Aperture macros list*
%AMRoundRect*
0 Rectangle with rounded corners*
0 $1 Rounding radius*
0 $2 $3 $4 $5 $6 $7 $8 $9 X,Y pos of 4 corners*
0 Add a 4 corners polygon primitive as box body*
4,1,4,$2,$3,$4,$5,$6,$7,$8,$9,$2,$3,0*
0 Add four circle primitives for the rounded corners*
1,1,$1+$1,$2,$3*
1,1,$1+$1,$4,$5*
1,1,$1+$1,$6,$7*
1,1,$1+$1,$8,$9*
0 Add four rect primitives between the rounded corners*
20,1,$1+$1,$2,$3,$4,$5,0*
20,1,$1+$1,$4,$5,$6,$7,0*
20,1,$1+$1,$6,$7,$8,$9,0*
20,1,$1+$1,$8,$9,$2,$3,0*%
G04 Aperture macros list end*
%ADD10RoundRect,0.140000X0.170000X-0.140000X0.170000X0.140000X-0.170000X0.140000X-0.170000X-0.140000X0*%
%ADD11R,1.200000X0.900000*%
%ADD12RoundRect,0.140000X-0.170000X0.140000X-0.170000X-0.140000X0.170000X-0.140000X0.170000X0.140000X0*%
%ADD13RoundRect,0.135000X0.185000X-0.135000X0.185000X0.135000X-0.185000X0.135000X-0.185000X-0.135000X0*%
%ADD14RoundRect,0.135000X-0.185000X0.135000X-0.185000X-0.135000X0.185000X-0.135000X0.185000X0.135000X0*%
%ADD15RoundRect,0.140000X0.140000X0.170000X-0.140000X0.170000X-0.140000X-0.170000X0.140000X-0.170000X0*%
%ADD16RoundRect,0.150000X0.150000X-0.587500X0.150000X0.587500X-0.150000X0.587500X-0.150000X-0.587500X0*%
%ADD17RoundRect,0.150000X-0.150000X0.650000X-0.150000X-0.650000X0.150000X-0.650000X0.150000X0.650000X0*%
%ADD18RoundRect,0.250000X0.292217X0.292217X-0.292217X0.292217X-0.292217X-0.292217X0.292217X-0.292217X0*%
%ADD19RoundRect,0.050000X0.387500X0.050000X-0.387500X0.050000X-0.387500X-0.050000X0.387500X-0.050000X0*%
%ADD20RoundRect,0.050000X0.050000X0.387500X-0.050000X0.387500X-0.050000X-0.387500X0.050000X-0.387500X0*%
%ADD21RoundRect,0.150000X-0.625000X0.150000X-0.625000X-0.150000X0.625000X-0.150000X0.625000X0.150000X0*%
%ADD22RoundRect,0.250000X-0.650000X0.350000X-0.650000X-0.350000X0.650000X-0.350000X0.650000X0.350000X0*%
%ADD23R,1.400000X1.200000*%
G04 APERTURE END LIST*
D10*
%TO.C,C_1V-Decoup2*%
X71900000Y-72730000D03*
X71900000Y-71770000D03*
%TD*%
D11*
%TO.C,D6*%
X81387499Y-75999999D03*
X81387499Y-72699999D03*
%TD*%
%TO.C,D14*%
X119487499Y-76499999D03*
X119487499Y-73199999D03*
%TD*%
D12*
%TO.C,C_Crystal1*%
X74200000Y-93570000D03*
X74200000Y-94530000D03*
%TD*%
D11*
%TO.C,D37*%
X238549999Y-95549999D03*
X238549999Y-92249999D03*
%TD*%
D13*
%TO.C,R_Crystal1*%
X70100000Y-91260000D03*
X70100000Y-90240000D03*
%TD*%
D11*
%TO.C,D17*%
X138537499Y-76499999D03*
X138537499Y-73199999D03*
%TD*%
D14*
%TO.C,R_Flash1*%
X85500000Y-62990000D03*
X85500000Y-64010000D03*
%TD*%
D11*
%TO.C,D8*%
X85499999Y-114549999D03*
X85499999Y-111249999D03*
%TD*%
%TO.C,D20*%
X152824999Y-57449999D03*
X152824999Y-54149999D03*
%TD*%
%TO.C,D15*%
X124249999Y-95549999D03*
X124249999Y-92249999D03*
%TD*%
%TO.C,D31*%
X209974999Y-57449999D03*
X209974999Y-54149999D03*
%TD*%
D10*
%TO.C,C_3V-Decoup2*%
X66200000Y-76480000D03*
X66200000Y-75520000D03*
%TD*%
D11*
%TO.C,D13*%
X114724999Y-57449999D03*
X114724999Y-54149999D03*
%TD*%
%TO.C,D23*%
X174493749Y-119362499D03*
X174493749Y-116062499D03*
%TD*%
D15*
%TO.C,C_3V-Decoup7*%
X64530000Y-78950000D03*
X63570000Y-78950000D03*
%TD*%
D11*
%TO.C,D32*%
X214737499Y-76499999D03*
X214737499Y-73199999D03*
%TD*%
%TO.C,D4*%
X64899999Y-114549999D03*
X64899999Y-111249999D03*
%TD*%
D10*
%TO.C,C_3V-Decoup9*%
X75700000Y-80080000D03*
X75700000Y-79120000D03*
%TD*%
D15*
%TO.C,C_3V-Decoup4*%
X65280000Y-84600000D03*
X64320000Y-84600000D03*
%TD*%
D11*
%TO.C,D26*%
X181399999Y-95549999D03*
X181399999Y-92249999D03*
%TD*%
%TO.C,D28*%
X195687499Y-76499999D03*
X195687499Y-73199999D03*
%TD*%
D14*
%TO.C,R_DATA1*%
X70000000Y-73690000D03*
X70000000Y-74710000D03*
%TD*%
D12*
%TO.C,C_3V-Decoup8*%
X68950000Y-90270000D03*
X68950000Y-91230000D03*
%TD*%
D10*
%TO.C,C_Flash1*%
X83650000Y-72880000D03*
X83650000Y-71920000D03*
%TD*%
D11*
%TO.C,D10*%
X100437499Y-76499999D03*
X100437499Y-73199999D03*
%TD*%
%TO.C,D35*%
X221799999Y-57449999D03*
X221799999Y-54149999D03*
%TD*%
%TO.C,D38*%
X238549999Y-114599999D03*
X238549999Y-111299999D03*
%TD*%
%TO.C,D19*%
X136156249Y-119362499D03*
X136156249Y-116062499D03*
%TD*%
D16*
%TO.C,U3*%
X61400000Y-61487500D03*
X59500000Y-61487500D03*
X60450000Y-59612500D03*
%TD*%
D11*
%TO.C,D25*%
X176637499Y-76499999D03*
X176637499Y-73199999D03*
%TD*%
%TO.C,D11*%
X105199999Y-95549999D03*
X105199999Y-92249999D03*
%TD*%
D12*
%TO.C,C_1V-Decoup3*%
X67450000Y-90270000D03*
X67450000Y-91230000D03*
%TD*%
D11*
%TO.C,D18*%
X143299999Y-95549999D03*
X143299999Y-92249999D03*
%TD*%
%TO.C,D34*%
X219499999Y-114599999D03*
X219499999Y-111299999D03*
%TD*%
%TO.C,D2*%
X59956249Y-75999999D03*
X59956249Y-72699999D03*
%TD*%
%TO.C,D3*%
X62337499Y-95549999D03*
X62337499Y-92249999D03*
%TD*%
%TO.C,D29*%
X200449999Y-95549999D03*
X200449999Y-92249999D03*
%TD*%
%TO.C,D16*%
X133774999Y-57449999D03*
X133774999Y-54149999D03*
%TD*%
D12*
%TO.C,C_3V-Decoup6*%
X77100000Y-85970000D03*
X77100000Y-86930000D03*
%TD*%
D11*
%TO.C,D30*%
X200449999Y-114599999D03*
X200449999Y-111299999D03*
%TD*%
%TO.C,D1*%
X57574999Y-57449999D03*
X57574999Y-54149999D03*
%TD*%
D15*
%TO.C,C_3V-Decoup1*%
X59480000Y-64250000D03*
X58520000Y-64250000D03*
%TD*%
%TO.C,C_LD1*%
X60430000Y-58100000D03*
X59470000Y-58100000D03*
%TD*%
D13*
%TO.C,R_RST1*%
X49350000Y-77560000D03*
X49350000Y-76540000D03*
%TD*%
D17*
%TO.C,U2*%
X85495000Y-65650000D03*
X86765000Y-65650000D03*
X88035000Y-65650000D03*
X89305000Y-65650000D03*
X89305000Y-72850000D03*
X88035000Y-72850000D03*
X86765000Y-72850000D03*
X85495000Y-72850000D03*
%TD*%
D11*
%TO.C,D33*%
X219499999Y-95549999D03*
X219499999Y-92249999D03*
%TD*%
%TO.C,D36*%
X236168749Y-76499999D03*
X236168749Y-73199999D03*
%TD*%
%TO.C,D7*%
X86149999Y-95549999D03*
X86149999Y-92249999D03*
%TD*%
%TO.C,D12*%
X102818749Y-114599999D03*
X102818749Y-111299999D03*
%TD*%
D10*
%TO.C,C_1V-Decoup1*%
X67800000Y-75410000D03*
X67800000Y-74450000D03*
%TD*%
%TO.C,C_3V-Decoup3*%
X70900000Y-72730000D03*
X70900000Y-71770000D03*
%TD*%
D11*
%TO.C,D22*%
X162349999Y-95549999D03*
X162349999Y-92249999D03*
%TD*%
D18*
%TO.C,U1*%
X71587500Y-84237500D03*
X71587500Y-82962500D03*
X70312500Y-84237500D03*
X70312500Y-82962500D03*
D19*
X74387500Y-81000000D03*
X74387500Y-81400000D03*
X74387500Y-81800000D03*
X74387500Y-82200000D03*
X74387500Y-82600000D03*
X74387500Y-83000000D03*
X74387500Y-83400000D03*
X74387500Y-83800000D03*
X74387500Y-84200000D03*
X74387500Y-84600000D03*
X74387500Y-85000000D03*
X74387500Y-85400000D03*
X74387500Y-85800000D03*
X74387500Y-86200000D03*
D20*
X73550000Y-87037500D03*
X73150000Y-87037500D03*
X72750000Y-87037500D03*
X72350000Y-87037500D03*
X71950000Y-87037500D03*
X71550000Y-87037500D03*
X71150000Y-87037500D03*
X70750000Y-87037500D03*
X70350000Y-87037500D03*
X69950000Y-87037500D03*
X69550000Y-87037500D03*
X69150000Y-87037500D03*
X68750000Y-87037500D03*
X68350000Y-87037500D03*
D19*
X67512500Y-86200000D03*
X67512500Y-85800000D03*
X67512500Y-85400000D03*
X67512500Y-85000000D03*
X67512500Y-84600000D03*
X67512500Y-84200000D03*
X67512500Y-83800000D03*
X67512500Y-83400000D03*
X67512500Y-83000000D03*
X67512500Y-82600000D03*
X67512500Y-82200000D03*
X67512500Y-81800000D03*
X67512500Y-81400000D03*
X67512500Y-81000000D03*
D20*
X68350000Y-80162500D03*
X68750000Y-80162500D03*
X69150000Y-80162500D03*
X69550000Y-80162500D03*
X69950000Y-80162500D03*
X70350000Y-80162500D03*
X70750000Y-80162500D03*
X71150000Y-80162500D03*
X71550000Y-80162500D03*
X71950000Y-80162500D03*
X72350000Y-80162500D03*
X72750000Y-80162500D03*
X73150000Y-80162500D03*
X73550000Y-80162500D03*
%TD*%
D11*
%TO.C,D27*%
X190924999Y-57449999D03*
X190924999Y-54149999D03*
%TD*%
D10*
%TO.C,C_Crystal2*%
X68200000Y-94530000D03*
X68200000Y-93570000D03*
%TD*%
D11*
%TO.C,D9*%
X95674999Y-57449999D03*
X95674999Y-54149999D03*
%TD*%
%TO.C,D24*%
X171874999Y-57449999D03*
X171874999Y-54149999D03*
%TD*%
D15*
%TO.C,C_3V-Decoup5*%
X64530000Y-80000000D03*
X63570000Y-80000000D03*
%TD*%
D14*
%TO.C,R_DATA2*%
X68900000Y-73690000D03*
X68900000Y-74710000D03*
%TD*%
D15*
%TO.C,C_LD2*%
X59480000Y-63200000D03*
X58520000Y-63200000D03*
%TD*%
D21*
%TO.C,J1*%
X65200000Y-63300000D03*
X65200000Y-64300000D03*
X65200000Y-65300000D03*
X65200000Y-66300000D03*
D22*
X69075000Y-62000000D03*
X69075000Y-67600000D03*
%TD*%
D11*
%TO.C,D21*%
X157587499Y-76499999D03*
X157587499Y-73199999D03*
%TD*%
D23*
%TO.C,Y1*%
X70099999Y-93199999D03*
X72299999Y-93199999D03*
X72299999Y-94899999D03*
X70099999Y-94899999D03*
%TD*%
D11*
%TO.C,D5*%
X76624999Y-57549999D03*
X76624999Y-54249999D03*
%TD*%
M02*
