%TF.GenerationSoftware,KiCad,Pcbnew,(6.0.7-1)-1*%
%TF.CreationDate,2022-11-08T10:29:57-05:00*%
%TF.ProjectId,cutiepie2040,63757469-6570-4696-9532-3034302e6b69,rev?*%
%TF.SameCoordinates,Original*%
%TF.FileFunction,Legend,Bot*%
%TF.FilePolarity,Positive*%
%FSLAX46Y46*%
G04 Gerber Fmt 4.6, Leading zero omitted, Abs format (unit mm)*
G04 Created by KiCad (PCBNEW (6.0.7-1)-1) date 2022-11-08 10:29:57*
%MOMM*%
%LPD*%
G01*
G04 APERTURE LIST*
G04 Aperture macros list*
%AMRoundRect*
0 Rectangle with rounded corners*
0 $1 Rounding radius*
0 $2 $3 $4 $5 $6 $7 $8 $9 X,Y pos of 4 corners*
0 Add a 4 corners polygon primitive as box body*
4,1,4,$2,$3,$4,$5,$6,$7,$8,$9,$2,$3,0*
0 Add four circle primitives for the rounded corners*
1,1,$1+$1,$2,$3*
1,1,$1+$1,$4,$5*
1,1,$1+$1,$6,$7*
1,1,$1+$1,$8,$9*
0 Add four rect primitives between the rounded corners*
20,1,$1+$1,$2,$3,$4,$5,0*
20,1,$1+$1,$4,$5,$6,$7,0*
20,1,$1+$1,$6,$7,$8,$9,0*
20,1,$1+$1,$8,$9,$2,$3,0*%
G04 Aperture macros list end*
%ADD10C,0.150000*%
%ADD11C,0.120000*%
%ADD12C,1.750000*%
%ADD13C,3.987800*%
%ADD14C,2.250000*%
%ADD15C,3.048000*%
%ADD16RoundRect,0.140000X0.170000X-0.140000X0.170000X0.140000X-0.170000X0.140000X-0.170000X-0.140000X0*%
%ADD17R,1.200000X0.900000*%
%ADD18RoundRect,0.140000X-0.170000X0.140000X-0.170000X-0.140000X0.170000X-0.140000X0.170000X0.140000X0*%
%ADD19RoundRect,0.135000X0.185000X-0.135000X0.185000X0.135000X-0.185000X0.135000X-0.185000X-0.135000X0*%
%ADD20RoundRect,0.135000X-0.185000X0.135000X-0.185000X-0.135000X0.185000X-0.135000X0.185000X0.135000X0*%
%ADD21R,1.000000X1.000000*%
%ADD22O,1.000000X1.000000*%
%ADD23RoundRect,0.140000X0.140000X0.170000X-0.140000X0.170000X-0.140000X-0.170000X0.140000X-0.170000X0*%
%ADD24RoundRect,0.150000X0.150000X-0.587500X0.150000X0.587500X-0.150000X0.587500X-0.150000X-0.587500X0*%
%ADD25RoundRect,0.150000X-0.150000X0.650000X-0.150000X-0.650000X0.150000X-0.650000X0.150000X0.650000X0*%
%ADD26RoundRect,0.050000X0.387500X0.050000X-0.387500X0.050000X-0.387500X-0.050000X0.387500X-0.050000X0*%
%ADD27RoundRect,0.050000X0.050000X0.387500X-0.050000X0.387500X-0.050000X-0.387500X0.050000X-0.387500X0*%
%ADD28RoundRect,0.144000X1.456000X1.456000X-1.456000X1.456000X-1.456000X-1.456000X1.456000X-1.456000X0*%
%ADD29R,1.700000X1.700000*%
%ADD30O,1.700000X1.700000*%
%ADD31RoundRect,0.150000X-0.625000X0.150000X-0.625000X-0.150000X0.625000X-0.150000X0.625000X0.150000X0*%
%ADD32RoundRect,0.250000X-0.650000X0.350000X-0.650000X-0.350000X0.650000X-0.350000X0.650000X0.350000X0*%
%ADD33R,1.400000X1.200000*%
%ADD34C,0.800000*%
G04 APERTURE END LIST*
D10*
X167657142Y-114552380D02*
X168228571Y-114552380D01*
X167942857Y-114552380D02*
X167942857Y-113552380D01*
X168038095Y-113695238D01*
X168133333Y-113790476D01*
X168228571Y-113838095D01*
X167228571Y-114457142D02*
X167180952Y-114504761D01*
X167228571Y-114552380D01*
X167276190Y-114504761D01*
X167228571Y-114457142D01*
X167228571Y-114552380D01*
X166847619Y-113552380D02*
X166180952Y-113552380D01*
X166609523Y-114552380D01*
X165323809Y-113552380D02*
X165800000Y-113552380D01*
X165847619Y-114028571D01*
X165800000Y-113980952D01*
X165704761Y-113933333D01*
X165466666Y-113933333D01*
X165371428Y-113980952D01*
X165323809Y-114028571D01*
X165276190Y-114123809D01*
X165276190Y-114361904D01*
X165323809Y-114457142D01*
X165371428Y-114504761D01*
X165466666Y-114552380D01*
X165704761Y-114552380D01*
X165800000Y-114504761D01*
X165847619Y-114457142D01*
X164419047Y-113885714D02*
X164419047Y-114552380D01*
X164847619Y-113885714D02*
X164847619Y-114409523D01*
X164800000Y-114504761D01*
X164704761Y-114552380D01*
X164561904Y-114552380D01*
X164466666Y-114504761D01*
X164419047Y-114457142D01*
X50938095Y-78252380D02*
X50319047Y-78252380D01*
X50652380Y-78633333D01*
X50509523Y-78633333D01*
X50414285Y-78680952D01*
X50366666Y-78728571D01*
X50319047Y-78823809D01*
X50319047Y-79061904D01*
X50366666Y-79157142D01*
X50414285Y-79204761D01*
X50509523Y-79252380D01*
X50795238Y-79252380D01*
X50890476Y-79204761D01*
X50938095Y-79157142D01*
X50033333Y-78252380D02*
X49700000Y-79252380D01*
X49366666Y-78252380D01*
X49128571Y-78252380D02*
X48509523Y-78252380D01*
X48842857Y-78633333D01*
X48700000Y-78633333D01*
X48604761Y-78680952D01*
X48557142Y-78728571D01*
X48509523Y-78823809D01*
X48509523Y-79061904D01*
X48557142Y-79157142D01*
X48604761Y-79204761D01*
X48700000Y-79252380D01*
X48985714Y-79252380D01*
X49080952Y-79204761D01*
X49128571Y-79157142D01*
X173661904Y-104185714D02*
X173661904Y-104852380D01*
X173900000Y-103804761D02*
X174138095Y-104519047D01*
X173519047Y-104519047D01*
X172709523Y-104185714D02*
X172709523Y-104852380D01*
X173138095Y-104185714D02*
X173138095Y-104709523D01*
X173090476Y-104804761D01*
X172995238Y-104852380D01*
X172852380Y-104852380D01*
X172757142Y-104804761D01*
X172709523Y-104757142D01*
X74285714Y-114947380D02*
X73666666Y-114947380D01*
X74000000Y-115328333D01*
X73857142Y-115328333D01*
X73761904Y-115375952D01*
X73714285Y-115423571D01*
X73666666Y-115518809D01*
X73666666Y-115756904D01*
X73714285Y-115852142D01*
X73761904Y-115899761D01*
X73857142Y-115947380D01*
X74142857Y-115947380D01*
X74238095Y-115899761D01*
X74285714Y-115852142D01*
X72809523Y-115280714D02*
X72809523Y-115947380D01*
X73238095Y-115280714D02*
X73238095Y-115804523D01*
X73190476Y-115899761D01*
X73095238Y-115947380D01*
X72952380Y-115947380D01*
X72857142Y-115899761D01*
X72809523Y-115852142D01*
X73761904Y-116890714D02*
X73761904Y-117557380D01*
X74000000Y-116509761D02*
X74238095Y-117224047D01*
X73619047Y-117224047D01*
X72809523Y-116890714D02*
X72809523Y-117557380D01*
X73238095Y-116890714D02*
X73238095Y-117414523D01*
X73190476Y-117509761D01*
X73095238Y-117557380D01*
X72952380Y-117557380D01*
X72857142Y-117509761D01*
X72809523Y-117462142D01*
X155285714Y-113452380D02*
X154666666Y-113452380D01*
X155000000Y-113833333D01*
X154857142Y-113833333D01*
X154761904Y-113880952D01*
X154714285Y-113928571D01*
X154666666Y-114023809D01*
X154666666Y-114261904D01*
X154714285Y-114357142D01*
X154761904Y-114404761D01*
X154857142Y-114452380D01*
X155142857Y-114452380D01*
X155238095Y-114404761D01*
X155285714Y-114357142D01*
X153809523Y-113785714D02*
X153809523Y-114452380D01*
X154238095Y-113785714D02*
X154238095Y-114309523D01*
X154190476Y-114404761D01*
X154095238Y-114452380D01*
X153952380Y-114452380D01*
X153857142Y-114404761D01*
X153809523Y-114357142D01*
X55085714Y-115047380D02*
X54466666Y-115047380D01*
X54800000Y-115428333D01*
X54657142Y-115428333D01*
X54561904Y-115475952D01*
X54514285Y-115523571D01*
X54466666Y-115618809D01*
X54466666Y-115856904D01*
X54514285Y-115952142D01*
X54561904Y-115999761D01*
X54657142Y-116047380D01*
X54942857Y-116047380D01*
X55038095Y-115999761D01*
X55085714Y-115952142D01*
X53609523Y-115380714D02*
X53609523Y-116047380D01*
X54038095Y-115380714D02*
X54038095Y-115904523D01*
X53990476Y-115999761D01*
X53895238Y-116047380D01*
X53752380Y-116047380D01*
X53657142Y-115999761D01*
X53609523Y-115952142D01*
X54561904Y-116990714D02*
X54561904Y-117657380D01*
X54800000Y-116609761D02*
X55038095Y-117324047D01*
X54419047Y-117324047D01*
X53609523Y-116990714D02*
X53609523Y-117657380D01*
X54038095Y-116990714D02*
X54038095Y-117514523D01*
X53990476Y-117609761D01*
X53895238Y-117657380D01*
X53752380Y-117657380D01*
X53657142Y-117609761D01*
X53609523Y-117562142D01*
X49052380Y-74452380D02*
X49385714Y-73976190D01*
X49623809Y-74452380D02*
X49623809Y-73452380D01*
X49242857Y-73452380D01*
X49147619Y-73500000D01*
X49100000Y-73547619D01*
X49052380Y-73642857D01*
X49052380Y-73785714D01*
X49100000Y-73880952D01*
X49147619Y-73928571D01*
X49242857Y-73976190D01*
X49623809Y-73976190D01*
X48623809Y-73928571D02*
X48290476Y-73928571D01*
X48147619Y-74452380D02*
X48623809Y-74452380D01*
X48623809Y-73452380D01*
X48147619Y-73452380D01*
X47766666Y-74404761D02*
X47623809Y-74452380D01*
X47385714Y-74452380D01*
X47290476Y-74404761D01*
X47242857Y-74357142D01*
X47195238Y-74261904D01*
X47195238Y-74166666D01*
X47242857Y-74071428D01*
X47290476Y-74023809D01*
X47385714Y-73976190D01*
X47576190Y-73928571D01*
X47671428Y-73880952D01*
X47719047Y-73833333D01*
X47766666Y-73738095D01*
X47766666Y-73642857D01*
X47719047Y-73547619D01*
X47671428Y-73500000D01*
X47576190Y-73452380D01*
X47338095Y-73452380D01*
X47195238Y-73500000D01*
X46766666Y-73928571D02*
X46433333Y-73928571D01*
X46290476Y-74452380D02*
X46766666Y-74452380D01*
X46766666Y-73452380D01*
X46290476Y-73452380D01*
X46004761Y-73452380D02*
X45433333Y-73452380D01*
X45719047Y-74452380D02*
X45719047Y-73452380D01*
X50561904Y-80700000D02*
X50657142Y-80652380D01*
X50800000Y-80652380D01*
X50942857Y-80700000D01*
X51038095Y-80795238D01*
X51085714Y-80890476D01*
X51133333Y-81080952D01*
X51133333Y-81223809D01*
X51085714Y-81414285D01*
X51038095Y-81509523D01*
X50942857Y-81604761D01*
X50800000Y-81652380D01*
X50704761Y-81652380D01*
X50561904Y-81604761D01*
X50514285Y-81557142D01*
X50514285Y-81223809D01*
X50704761Y-81223809D01*
X50085714Y-81652380D02*
X50085714Y-80652380D01*
X49514285Y-81652380D01*
X49514285Y-80652380D01*
X49038095Y-81652380D02*
X49038095Y-80652380D01*
X48800000Y-80652380D01*
X48657142Y-80700000D01*
X48561904Y-80795238D01*
X48514285Y-80890476D01*
X48466666Y-81080952D01*
X48466666Y-81223809D01*
X48514285Y-81414285D01*
X48561904Y-81509523D01*
X48657142Y-81604761D01*
X48800000Y-81652380D01*
X49038095Y-81652380D01*
X136285714Y-105252380D02*
X135666666Y-105252380D01*
X136000000Y-105633333D01*
X135857142Y-105633333D01*
X135761904Y-105680952D01*
X135714285Y-105728571D01*
X135666666Y-105823809D01*
X135666666Y-106061904D01*
X135714285Y-106157142D01*
X135761904Y-106204761D01*
X135857142Y-106252380D01*
X136142857Y-106252380D01*
X136238095Y-106204761D01*
X136285714Y-106157142D01*
X134809523Y-105585714D02*
X134809523Y-106252380D01*
X135238095Y-105585714D02*
X135238095Y-106109523D01*
X135190476Y-106204761D01*
X135095238Y-106252380D01*
X134952380Y-106252380D01*
X134857142Y-106204761D01*
X134809523Y-106157142D01*
X116661904Y-105485714D02*
X116661904Y-106152380D01*
X116900000Y-105104761D02*
X117138095Y-105819047D01*
X116519047Y-105819047D01*
X115709523Y-105485714D02*
X115709523Y-106152380D01*
X116138095Y-105485714D02*
X116138095Y-106009523D01*
X116090476Y-106104761D01*
X115995238Y-106152380D01*
X115852380Y-106152380D01*
X115757142Y-106104761D01*
X115709523Y-106057142D01*
X53061904Y-86604761D02*
X52919047Y-86652380D01*
X52680952Y-86652380D01*
X52585714Y-86604761D01*
X52538095Y-86557142D01*
X52490476Y-86461904D01*
X52490476Y-86366666D01*
X52538095Y-86271428D01*
X52585714Y-86223809D01*
X52680952Y-86176190D01*
X52871428Y-86128571D01*
X52966666Y-86080952D01*
X53014285Y-86033333D01*
X53061904Y-85938095D01*
X53061904Y-85842857D01*
X53014285Y-85747619D01*
X52966666Y-85700000D01*
X52871428Y-85652380D01*
X52633333Y-85652380D01*
X52490476Y-85700000D01*
X52157142Y-85652380D02*
X51919047Y-86652380D01*
X51728571Y-85938095D01*
X51538095Y-86652380D01*
X51300000Y-85652380D01*
X50347619Y-86557142D02*
X50395238Y-86604761D01*
X50538095Y-86652380D01*
X50633333Y-86652380D01*
X50776190Y-86604761D01*
X50871428Y-86509523D01*
X50919047Y-86414285D01*
X50966666Y-86223809D01*
X50966666Y-86080952D01*
X50919047Y-85890476D01*
X50871428Y-85795238D01*
X50776190Y-85700000D01*
X50633333Y-85652380D01*
X50538095Y-85652380D01*
X50395238Y-85700000D01*
X50347619Y-85747619D01*
X49442857Y-86652380D02*
X49919047Y-86652380D01*
X49919047Y-85652380D01*
X49109523Y-86652380D02*
X49109523Y-85652380D01*
X48538095Y-86652380D02*
X48966666Y-86080952D01*
X48538095Y-85652380D02*
X49109523Y-86223809D01*
X101057142Y-110052380D02*
X101628571Y-110052380D01*
X101342857Y-110052380D02*
X101342857Y-109052380D01*
X101438095Y-109195238D01*
X101533333Y-109290476D01*
X101628571Y-109338095D01*
X100628571Y-109957142D02*
X100580952Y-110004761D01*
X100628571Y-110052380D01*
X100676190Y-110004761D01*
X100628571Y-109957142D01*
X100628571Y-110052380D01*
X100247619Y-109052380D02*
X99580952Y-109052380D01*
X100009523Y-110052380D01*
X98723809Y-109052380D02*
X99200000Y-109052380D01*
X99247619Y-109528571D01*
X99200000Y-109480952D01*
X99104761Y-109433333D01*
X98866666Y-109433333D01*
X98771428Y-109480952D01*
X98723809Y-109528571D01*
X98676190Y-109623809D01*
X98676190Y-109861904D01*
X98723809Y-109957142D01*
X98771428Y-110004761D01*
X98866666Y-110052380D01*
X99104761Y-110052380D01*
X99200000Y-110004761D01*
X99247619Y-109957142D01*
X97819047Y-109385714D02*
X97819047Y-110052380D01*
X98247619Y-109385714D02*
X98247619Y-109909523D01*
X98200000Y-110004761D01*
X98104761Y-110052380D01*
X97961904Y-110052380D01*
X97866666Y-110004761D01*
X97819047Y-109957142D01*
X145261904Y-113785714D02*
X145261904Y-114452380D01*
X145500000Y-113404761D02*
X145738095Y-114119047D01*
X145119047Y-114119047D01*
X144309523Y-113785714D02*
X144309523Y-114452380D01*
X144738095Y-113785714D02*
X144738095Y-114309523D01*
X144690476Y-114404761D01*
X144595238Y-114452380D01*
X144452380Y-114452380D01*
X144357142Y-114404761D01*
X144309523Y-114357142D01*
X52719047Y-84104761D02*
X52576190Y-84152380D01*
X52338095Y-84152380D01*
X52242857Y-84104761D01*
X52195238Y-84057142D01*
X52147619Y-83961904D01*
X52147619Y-83866666D01*
X52195238Y-83771428D01*
X52242857Y-83723809D01*
X52338095Y-83676190D01*
X52528571Y-83628571D01*
X52623809Y-83580952D01*
X52671428Y-83533333D01*
X52719047Y-83438095D01*
X52719047Y-83342857D01*
X52671428Y-83247619D01*
X52623809Y-83200000D01*
X52528571Y-83152380D01*
X52290476Y-83152380D01*
X52147619Y-83200000D01*
X51814285Y-83152380D02*
X51576190Y-84152380D01*
X51385714Y-83438095D01*
X51195238Y-84152380D01*
X50957142Y-83152380D01*
X50576190Y-84152380D02*
X50576190Y-83152380D01*
X50338095Y-83152380D01*
X50195238Y-83200000D01*
X50100000Y-83295238D01*
X50052380Y-83390476D01*
X50004761Y-83580952D01*
X50004761Y-83723809D01*
X50052380Y-83914285D01*
X50100000Y-84009523D01*
X50195238Y-84104761D01*
X50338095Y-84152380D01*
X50576190Y-84152380D01*
X49576190Y-84152380D02*
X49576190Y-83152380D01*
X48909523Y-83152380D02*
X48719047Y-83152380D01*
X48623809Y-83200000D01*
X48528571Y-83295238D01*
X48480952Y-83485714D01*
X48480952Y-83819047D01*
X48528571Y-84009523D01*
X48623809Y-84104761D01*
X48719047Y-84152380D01*
X48909523Y-84152380D01*
X49004761Y-84104761D01*
X49100000Y-84009523D01*
X49147619Y-83819047D01*
X49147619Y-83485714D01*
X49100000Y-83295238D01*
X49004761Y-83200000D01*
X48909523Y-83152380D01*
X58357142Y-109952380D02*
X58928571Y-109952380D01*
X58642857Y-109952380D02*
X58642857Y-108952380D01*
X58738095Y-109095238D01*
X58833333Y-109190476D01*
X58928571Y-109238095D01*
X57928571Y-109857142D02*
X57880952Y-109904761D01*
X57928571Y-109952380D01*
X57976190Y-109904761D01*
X57928571Y-109857142D01*
X57928571Y-109952380D01*
X57547619Y-108952380D02*
X56880952Y-108952380D01*
X57309523Y-109952380D01*
X56023809Y-108952380D02*
X56500000Y-108952380D01*
X56547619Y-109428571D01*
X56500000Y-109380952D01*
X56404761Y-109333333D01*
X56166666Y-109333333D01*
X56071428Y-109380952D01*
X56023809Y-109428571D01*
X55976190Y-109523809D01*
X55976190Y-109761904D01*
X56023809Y-109857142D01*
X56071428Y-109904761D01*
X56166666Y-109952380D01*
X56404761Y-109952380D01*
X56500000Y-109904761D01*
X56547619Y-109857142D01*
X55119047Y-109285714D02*
X55119047Y-109952380D01*
X55547619Y-109285714D02*
X55547619Y-109809523D01*
X55500000Y-109904761D01*
X55404761Y-109952380D01*
X55261904Y-109952380D01*
X55166666Y-109904761D01*
X55119047Y-109857142D01*
X134457142Y-114552380D02*
X135028571Y-114552380D01*
X134742857Y-114552380D02*
X134742857Y-113552380D01*
X134838095Y-113695238D01*
X134933333Y-113790476D01*
X135028571Y-113838095D01*
X134028571Y-114457142D02*
X133980952Y-114504761D01*
X134028571Y-114552380D01*
X134076190Y-114504761D01*
X134028571Y-114457142D01*
X134028571Y-114552380D01*
X133647619Y-113552380D02*
X132980952Y-113552380D01*
X133409523Y-114552380D01*
X132123809Y-113552380D02*
X132600000Y-113552380D01*
X132647619Y-114028571D01*
X132600000Y-113980952D01*
X132504761Y-113933333D01*
X132266666Y-113933333D01*
X132171428Y-113980952D01*
X132123809Y-114028571D01*
X132076190Y-114123809D01*
X132076190Y-114361904D01*
X132123809Y-114457142D01*
X132171428Y-114504761D01*
X132266666Y-114552380D01*
X132504761Y-114552380D01*
X132600000Y-114504761D01*
X132647619Y-114457142D01*
X131219047Y-113885714D02*
X131219047Y-114552380D01*
X131647619Y-113885714D02*
X131647619Y-114409523D01*
X131600000Y-114504761D01*
X131504761Y-114552380D01*
X131361904Y-114552380D01*
X131266666Y-114504761D01*
X131219047Y-114457142D01*
X112485714Y-115752380D02*
X111866666Y-115752380D01*
X112200000Y-116133333D01*
X112057142Y-116133333D01*
X111961904Y-116180952D01*
X111914285Y-116228571D01*
X111866666Y-116323809D01*
X111866666Y-116561904D01*
X111914285Y-116657142D01*
X111961904Y-116704761D01*
X112057142Y-116752380D01*
X112342857Y-116752380D01*
X112438095Y-116704761D01*
X112485714Y-116657142D01*
X111009523Y-116085714D02*
X111009523Y-116752380D01*
X111438095Y-116085714D02*
X111438095Y-116609523D01*
X111390476Y-116704761D01*
X111295238Y-116752380D01*
X111152380Y-116752380D01*
X111057142Y-116704761D01*
X111009523Y-116657142D01*
X79857142Y-109852380D02*
X80428571Y-109852380D01*
X80142857Y-109852380D02*
X80142857Y-108852380D01*
X80238095Y-108995238D01*
X80333333Y-109090476D01*
X80428571Y-109138095D01*
X79428571Y-109757142D02*
X79380952Y-109804761D01*
X79428571Y-109852380D01*
X79476190Y-109804761D01*
X79428571Y-109757142D01*
X79428571Y-109852380D01*
X79047619Y-108852380D02*
X78380952Y-108852380D01*
X78809523Y-109852380D01*
X77523809Y-108852380D02*
X78000000Y-108852380D01*
X78047619Y-109328571D01*
X78000000Y-109280952D01*
X77904761Y-109233333D01*
X77666666Y-109233333D01*
X77571428Y-109280952D01*
X77523809Y-109328571D01*
X77476190Y-109423809D01*
X77476190Y-109661904D01*
X77523809Y-109757142D01*
X77571428Y-109804761D01*
X77666666Y-109852380D01*
X77904761Y-109852380D01*
X78000000Y-109804761D01*
X78047619Y-109757142D01*
X76619047Y-109185714D02*
X76619047Y-109852380D01*
X77047619Y-109185714D02*
X77047619Y-109709523D01*
X77000000Y-109804761D01*
X76904761Y-109852380D01*
X76761904Y-109852380D01*
X76666666Y-109804761D01*
X76619047Y-109757142D01*
X93385714Y-115047380D02*
X92766666Y-115047380D01*
X93100000Y-115428333D01*
X92957142Y-115428333D01*
X92861904Y-115475952D01*
X92814285Y-115523571D01*
X92766666Y-115618809D01*
X92766666Y-115856904D01*
X92814285Y-115952142D01*
X92861904Y-115999761D01*
X92957142Y-116047380D01*
X93242857Y-116047380D01*
X93338095Y-115999761D01*
X93385714Y-115952142D01*
X91909523Y-115380714D02*
X91909523Y-116047380D01*
X92338095Y-115380714D02*
X92338095Y-115904523D01*
X92290476Y-115999761D01*
X92195238Y-116047380D01*
X92052380Y-116047380D01*
X91957142Y-115999761D01*
X91909523Y-115952142D01*
X92861904Y-116990714D02*
X92861904Y-117657380D01*
X93100000Y-116609761D02*
X93338095Y-117324047D01*
X92719047Y-117324047D01*
X91909523Y-116990714D02*
X91909523Y-117657380D01*
X92338095Y-116990714D02*
X92338095Y-117514523D01*
X92290476Y-117609761D01*
X92195238Y-117657380D01*
X92052380Y-117657380D01*
X91957142Y-117609761D01*
X91909523Y-117562142D01*
X174185714Y-105352380D02*
X173566666Y-105352380D01*
X173900000Y-105733333D01*
X173757142Y-105733333D01*
X173661904Y-105780952D01*
X173614285Y-105828571D01*
X173566666Y-105923809D01*
X173566666Y-106161904D01*
X173614285Y-106257142D01*
X173661904Y-106304761D01*
X173757142Y-106352380D01*
X174042857Y-106352380D01*
X174138095Y-106304761D01*
X174185714Y-106257142D01*
X172709523Y-105685714D02*
X172709523Y-106352380D01*
X173138095Y-105685714D02*
X173138095Y-106209523D01*
X173090476Y-106304761D01*
X172995238Y-106352380D01*
X172852380Y-106352380D01*
X172757142Y-106304761D01*
X172709523Y-106257142D01*
%TO.C,U1*%
X71711904Y-78232380D02*
X71711904Y-79041904D01*
X71664285Y-79137142D01*
X71616666Y-79184761D01*
X71521428Y-79232380D01*
X71330952Y-79232380D01*
X71235714Y-79184761D01*
X71188095Y-79137142D01*
X71140476Y-79041904D01*
X71140476Y-78232380D01*
X70140476Y-79232380D02*
X70711904Y-79232380D01*
X70426190Y-79232380D02*
X70426190Y-78232380D01*
X70521428Y-78375238D01*
X70616666Y-78470476D01*
X70711904Y-78518095D01*
D11*
%TO.C,C_1V-Decoup2*%
X72260000Y-72357836D02*
X72260000Y-72142164D01*
X71540000Y-72357836D02*
X71540000Y-72142164D01*
%TO.C,D6*%
X80387500Y-76600000D02*
X80387500Y-72700000D01*
X82387500Y-76600000D02*
X82387500Y-72700000D01*
X82387500Y-76600000D02*
X80387500Y-76600000D01*
%TO.C,D14*%
X118487500Y-77100000D02*
X118487500Y-73200000D01*
X120487500Y-77100000D02*
X118487500Y-77100000D01*
X120487500Y-77100000D02*
X120487500Y-73200000D01*
%TO.C,C_Crystal1*%
X74560000Y-93942164D02*
X74560000Y-94157836D01*
X73840000Y-93942164D02*
X73840000Y-94157836D01*
%TO.C,D37*%
X239550000Y-96150000D02*
X239550000Y-92250000D01*
X239550000Y-96150000D02*
X237550000Y-96150000D01*
X237550000Y-96150000D02*
X237550000Y-92250000D01*
%TO.C,R_Crystal1*%
X70480000Y-90903641D02*
X70480000Y-90596359D01*
X69720000Y-90903641D02*
X69720000Y-90596359D01*
%TO.C,D17*%
X137537500Y-77100000D02*
X137537500Y-73200000D01*
X139537500Y-77100000D02*
X139537500Y-73200000D01*
X139537500Y-77100000D02*
X137537500Y-77100000D01*
%TO.C,R_Flash1*%
X85880000Y-63346359D02*
X85880000Y-63653641D01*
X85120000Y-63346359D02*
X85120000Y-63653641D01*
%TO.C,SW1*%
X84085000Y-60942470D02*
X84085000Y-60140000D01*
X85290000Y-62360000D02*
X85290000Y-61813471D01*
X85290000Y-60686529D02*
X85290000Y-60140000D01*
X85290000Y-62360000D02*
X84085000Y-62360000D01*
X86810000Y-62360000D02*
X86810000Y-61250000D01*
X85290000Y-60140000D02*
X84085000Y-60140000D01*
X86050000Y-62360000D02*
X86810000Y-62360000D01*
X84085000Y-62360000D02*
X84085000Y-61557530D01*
%TO.C,D8*%
X84500000Y-115150000D02*
X84500000Y-111250000D01*
X86500000Y-115150000D02*
X84500000Y-115150000D01*
X86500000Y-115150000D02*
X86500000Y-111250000D01*
%TO.C,D20*%
X153825000Y-58050000D02*
X153825000Y-54150000D01*
X151825000Y-58050000D02*
X151825000Y-54150000D01*
X153825000Y-58050000D02*
X151825000Y-58050000D01*
%TO.C,D15*%
X125250000Y-96150000D02*
X125250000Y-92250000D01*
X125250000Y-96150000D02*
X123250000Y-96150000D01*
X123250000Y-96150000D02*
X123250000Y-92250000D01*
%TO.C,D31*%
X208975000Y-58050000D02*
X208975000Y-54150000D01*
X210975000Y-58050000D02*
X208975000Y-58050000D01*
X210975000Y-58050000D02*
X210975000Y-54150000D01*
%TO.C,C_3V-Decoup2*%
X66560000Y-76107836D02*
X66560000Y-75892164D01*
X65840000Y-76107836D02*
X65840000Y-75892164D01*
%TO.C,D13*%
X113725000Y-58050000D02*
X113725000Y-54150000D01*
X115725000Y-58050000D02*
X115725000Y-54150000D01*
X115725000Y-58050000D02*
X113725000Y-58050000D01*
%TO.C,D23*%
X170493750Y-119962500D02*
X170493750Y-116062500D01*
X168493750Y-119962500D02*
X168493750Y-116062500D01*
X170493750Y-119962500D02*
X168493750Y-119962500D01*
%TO.C,C_3V-Decoup7*%
X64157836Y-79310000D02*
X63942164Y-79310000D01*
X64157836Y-78590000D02*
X63942164Y-78590000D01*
%TO.C,D32*%
X213737500Y-77100000D02*
X213737500Y-73200000D01*
X215737500Y-77100000D02*
X213737500Y-77100000D01*
X215737500Y-77100000D02*
X215737500Y-73200000D01*
%TO.C,D4*%
X63900000Y-115150000D02*
X63900000Y-111250000D01*
X65900000Y-115150000D02*
X65900000Y-111250000D01*
X65900000Y-115150000D02*
X63900000Y-115150000D01*
%TO.C,C_3V-Decoup9*%
X76060000Y-79707836D02*
X76060000Y-79492164D01*
X75340000Y-79707836D02*
X75340000Y-79492164D01*
%TO.C,C_3V-Decoup4*%
X64907836Y-84960000D02*
X64692164Y-84960000D01*
X64907836Y-84240000D02*
X64692164Y-84240000D01*
%TO.C,D26*%
X180400000Y-96150000D02*
X180400000Y-92250000D01*
X182400000Y-96150000D02*
X180400000Y-96150000D01*
X182400000Y-96150000D02*
X182400000Y-92250000D01*
%TO.C,D28*%
X194687500Y-77100000D02*
X194687500Y-73200000D01*
X196687500Y-77100000D02*
X196687500Y-73200000D01*
X196687500Y-77100000D02*
X194687500Y-77100000D01*
%TO.C,R_DATA1*%
X69620000Y-74046359D02*
X69620000Y-74353641D01*
X70380000Y-74046359D02*
X70380000Y-74353641D01*
%TO.C,C_3V-Decoup8*%
X69310000Y-90642164D02*
X69310000Y-90857836D01*
X68590000Y-90642164D02*
X68590000Y-90857836D01*
%TO.C,C_Flash1*%
X83290000Y-72507836D02*
X83290000Y-72292164D01*
X84010000Y-72507836D02*
X84010000Y-72292164D01*
%TO.C,D10*%
X101437500Y-77100000D02*
X99437500Y-77100000D01*
X99437500Y-77100000D02*
X99437500Y-73200000D01*
X101437500Y-77100000D02*
X101437500Y-73200000D01*
%TO.C,D35*%
X222800000Y-58050000D02*
X222800000Y-54150000D01*
X222800000Y-58050000D02*
X220800000Y-58050000D01*
X220800000Y-58050000D02*
X220800000Y-54150000D01*
%TO.C,D38*%
X239550000Y-115200000D02*
X239550000Y-111300000D01*
X239550000Y-115200000D02*
X237550000Y-115200000D01*
X237550000Y-115200000D02*
X237550000Y-111300000D01*
%TO.C,D19*%
X137156250Y-119962500D02*
X135156250Y-119962500D01*
X137156250Y-119962500D02*
X137156250Y-116062500D01*
X135156250Y-119962500D02*
X135156250Y-116062500D01*
%TO.C,U3*%
X62010000Y-60550000D02*
X62010000Y-59900000D01*
X58890000Y-60550000D02*
X58890000Y-59900000D01*
X58890000Y-60550000D02*
X58890000Y-61200000D01*
X62010000Y-60550000D02*
X62010000Y-62225000D01*
%TO.C,D25*%
X177637500Y-77100000D02*
X175637500Y-77100000D01*
X177637500Y-77100000D02*
X177637500Y-73200000D01*
X175637500Y-77100000D02*
X175637500Y-73200000D01*
%TO.C,D11*%
X106200000Y-96150000D02*
X106200000Y-92250000D01*
X104200000Y-96150000D02*
X104200000Y-92250000D01*
X106200000Y-96150000D02*
X104200000Y-96150000D01*
%TO.C,C_1V-Decoup3*%
X67810000Y-90642164D02*
X67810000Y-90857836D01*
X67090000Y-90642164D02*
X67090000Y-90857836D01*
%TO.C,D18*%
X144300000Y-96150000D02*
X144300000Y-92250000D01*
X144300000Y-96150000D02*
X142300000Y-96150000D01*
X142300000Y-96150000D02*
X142300000Y-92250000D01*
%TO.C,D34*%
X220500000Y-115200000D02*
X218500000Y-115200000D01*
X218500000Y-115200000D02*
X218500000Y-111300000D01*
X220500000Y-115200000D02*
X220500000Y-111300000D01*
%TO.C,D2*%
X58956250Y-76600000D02*
X58956250Y-72700000D01*
X60956250Y-76600000D02*
X58956250Y-76600000D01*
X60956250Y-76600000D02*
X60956250Y-72700000D01*
%TO.C,D3*%
X63337500Y-96150000D02*
X63337500Y-92250000D01*
X63337500Y-96150000D02*
X61337500Y-96150000D01*
X61337500Y-96150000D02*
X61337500Y-92250000D01*
%TO.C,D29*%
X201450000Y-96150000D02*
X199450000Y-96150000D01*
X201450000Y-96150000D02*
X201450000Y-92250000D01*
X199450000Y-96150000D02*
X199450000Y-92250000D01*
%TO.C,D16*%
X132775000Y-58050000D02*
X132775000Y-54150000D01*
X134775000Y-58050000D02*
X134775000Y-54150000D01*
X134775000Y-58050000D02*
X132775000Y-58050000D01*
%TO.C,C_3V-Decoup6*%
X76740000Y-86342164D02*
X76740000Y-86557836D01*
X77460000Y-86342164D02*
X77460000Y-86557836D01*
%TO.C,D30*%
X201450000Y-115200000D02*
X199450000Y-115200000D01*
X199450000Y-115200000D02*
X199450000Y-111300000D01*
X201450000Y-115200000D02*
X201450000Y-111300000D01*
%TO.C,D1*%
X58575000Y-58050000D02*
X56575000Y-58050000D01*
X56575000Y-58050000D02*
X56575000Y-54150000D01*
X58575000Y-58050000D02*
X58575000Y-54150000D01*
%TO.C,C_3V-Decoup1*%
X59107836Y-63890000D02*
X58892164Y-63890000D01*
X59107836Y-64610000D02*
X58892164Y-64610000D01*
%TO.C,C_LD1*%
X60057836Y-58460000D02*
X59842164Y-58460000D01*
X60057836Y-57740000D02*
X59842164Y-57740000D01*
%TO.C,R_RST1*%
X49730000Y-77203641D02*
X49730000Y-76896359D01*
X48970000Y-77203641D02*
X48970000Y-76896359D01*
%TO.C,U2*%
X84935000Y-66525000D02*
X84935000Y-64850000D01*
X90125000Y-69250000D02*
X90125000Y-71975000D01*
X84675000Y-66525000D02*
X84935000Y-66525000D01*
X90125000Y-71975000D02*
X89865000Y-71975000D01*
X84675000Y-71975000D02*
X84935000Y-71975000D01*
X90125000Y-66525000D02*
X89865000Y-66525000D01*
X90125000Y-69250000D02*
X90125000Y-66525000D01*
X84675000Y-69250000D02*
X84675000Y-66525000D01*
X84675000Y-69250000D02*
X84675000Y-71975000D01*
%TO.C,D33*%
X220500000Y-96150000D02*
X218500000Y-96150000D01*
X220500000Y-96150000D02*
X220500000Y-92250000D01*
X218500000Y-96150000D02*
X218500000Y-92250000D01*
%TO.C,D36*%
X235168750Y-77100000D02*
X235168750Y-73200000D01*
X237168750Y-77100000D02*
X235168750Y-77100000D01*
X237168750Y-77100000D02*
X237168750Y-73200000D01*
%TO.C,D7*%
X87150000Y-96150000D02*
X85150000Y-96150000D01*
X87150000Y-96150000D02*
X87150000Y-92250000D01*
X85150000Y-96150000D02*
X85150000Y-92250000D01*
%TO.C,D12*%
X101818750Y-115200000D02*
X101818750Y-111300000D01*
X103818750Y-115200000D02*
X103818750Y-111300000D01*
X103818750Y-115200000D02*
X101818750Y-115200000D01*
%TO.C,C_1V-Decoup1*%
X68160000Y-75037836D02*
X68160000Y-74822164D01*
X67440000Y-75037836D02*
X67440000Y-74822164D01*
%TO.C,C_3V-Decoup3*%
X71260000Y-72357836D02*
X71260000Y-72142164D01*
X70540000Y-72357836D02*
X70540000Y-72142164D01*
%TO.C,D22*%
X163350000Y-96150000D02*
X161350000Y-96150000D01*
X161350000Y-96150000D02*
X161350000Y-92250000D01*
X163350000Y-96150000D02*
X163350000Y-92250000D01*
%TO.C,U1*%
X67990000Y-79990000D02*
X67340000Y-79990000D01*
X67340000Y-87210000D02*
X67340000Y-86560000D01*
X67990000Y-87210000D02*
X67340000Y-87210000D01*
X74560000Y-87210000D02*
X74560000Y-86560000D01*
X73910000Y-87210000D02*
X74560000Y-87210000D01*
X67340000Y-79990000D02*
X67340000Y-80640000D01*
X73910000Y-79990000D02*
X74560000Y-79990000D01*
%TO.C,J2*%
X48130000Y-74695000D02*
X46800000Y-74695000D01*
X48130000Y-76025000D02*
X48130000Y-74695000D01*
X48130000Y-77295000D02*
X48130000Y-87515000D01*
X48130000Y-77295000D02*
X45470000Y-77295000D01*
X45470000Y-77295000D02*
X45470000Y-87515000D01*
X48130000Y-87515000D02*
X45470000Y-87515000D01*
%TO.C,D27*%
X191925000Y-58050000D02*
X191925000Y-54150000D01*
X191925000Y-58050000D02*
X189925000Y-58050000D01*
X189925000Y-58050000D02*
X189925000Y-54150000D01*
%TO.C,C_Crystal2*%
X68560000Y-94157836D02*
X68560000Y-93942164D01*
X67840000Y-94157836D02*
X67840000Y-93942164D01*
%TO.C,D9*%
X96675000Y-58050000D02*
X96675000Y-54150000D01*
X94675000Y-58050000D02*
X94675000Y-54150000D01*
X96675000Y-58050000D02*
X94675000Y-58050000D01*
%TO.C,D24*%
X172875000Y-58050000D02*
X170875000Y-58050000D01*
X172875000Y-58050000D02*
X172875000Y-54150000D01*
X170875000Y-58050000D02*
X170875000Y-54150000D01*
%TO.C,C_3V-Decoup5*%
X64157836Y-80360000D02*
X63942164Y-80360000D01*
X64157836Y-79640000D02*
X63942164Y-79640000D01*
%TO.C,R_DATA2*%
X68520000Y-74046359D02*
X68520000Y-74353641D01*
X69280000Y-74046359D02*
X69280000Y-74353641D01*
%TO.C,C_LD2*%
X59107836Y-62840000D02*
X58892164Y-62840000D01*
X59107836Y-63560000D02*
X58892164Y-63560000D01*
%TO.C,J1*%
X65415000Y-61690000D02*
X65415000Y-62740000D01*
X67915000Y-61690000D02*
X65415000Y-61690000D01*
X67915000Y-67910000D02*
X65415000Y-67910000D01*
X65415000Y-67910000D02*
X65415000Y-66860000D01*
X69885000Y-62860000D02*
X69885000Y-66740000D01*
X65415000Y-62740000D02*
X64425000Y-62740000D01*
%TO.C,D21*%
X156587500Y-77100000D02*
X156587500Y-73200000D01*
X158587500Y-77100000D02*
X156587500Y-77100000D01*
X158587500Y-77100000D02*
X158587500Y-73200000D01*
%TO.C,Y1*%
X69200000Y-95700000D02*
X69200000Y-92400000D01*
X69200000Y-92400000D02*
X73200000Y-92400000D01*
%TO.C,D5*%
X77625000Y-58150000D02*
X75625000Y-58150000D01*
X75625000Y-58150000D02*
X75625000Y-54250000D01*
X77625000Y-58150000D02*
X77625000Y-54250000D01*
%TD*%
%LPC*%
D12*
%TO.C,MX35*%
X235767500Y-55300000D03*
X225607500Y-55300000D03*
D13*
X230687500Y-55300000D03*
D14*
X226877500Y-52760000D03*
X233227500Y-50220000D03*
%TD*%
D13*
%TO.C,MX4*%
X54475000Y-112450000D03*
D12*
X59555000Y-112450000D03*
X49395000Y-112450000D03*
D14*
X50665000Y-109910000D03*
X57015000Y-107370000D03*
%TD*%
D13*
%TO.C,MX1*%
X54475000Y-55300000D03*
D12*
X49395000Y-55300000D03*
X59555000Y-55300000D03*
D14*
X50665000Y-52760000D03*
X57015000Y-50220000D03*
%TD*%
D12*
%TO.C,MX22*%
X154170000Y-93400000D03*
X164330000Y-93400000D03*
D13*
X159250000Y-93400000D03*
D14*
X155440000Y-90860000D03*
X161790000Y-88320000D03*
%TD*%
D13*
%TO.C,MX17*%
X135437500Y-74350000D03*
D12*
X140517500Y-74350000D03*
X130357500Y-74350000D03*
D14*
X131627500Y-71810000D03*
X137977500Y-69270000D03*
%TD*%
D13*
%TO.C,MX2*%
X56856250Y-74350000D03*
D12*
X61936250Y-74350000D03*
X51776250Y-74350000D03*
D14*
X53046250Y-71810000D03*
X59396250Y-69270000D03*
%TD*%
D12*
%TO.C,MX11*%
X107180000Y-93400000D03*
X97020000Y-93400000D03*
D13*
X102100000Y-93400000D03*
D14*
X98290000Y-90860000D03*
X104640000Y-88320000D03*
%TD*%
D13*
%TO.C,MX23*%
X154487500Y-117212500D03*
X135437500Y-108957500D03*
D15*
X173537500Y-124197500D03*
D12*
X149407500Y-117212500D03*
D15*
X135437500Y-124197500D03*
D12*
X159567500Y-117212500D03*
D13*
X173537500Y-108957500D03*
D14*
X150677500Y-114672500D03*
X157027500Y-112132500D03*
%TD*%
D13*
%TO.C,MX10*%
X97337500Y-74350000D03*
D12*
X92257500Y-74350000D03*
X102417500Y-74350000D03*
D14*
X93527500Y-71810000D03*
X99877500Y-69270000D03*
%TD*%
D12*
%TO.C,MX18*%
X135120000Y-93400000D03*
D13*
X140200000Y-93400000D03*
D12*
X145280000Y-93400000D03*
D14*
X136390000Y-90860000D03*
X142740000Y-88320000D03*
%TD*%
D12*
%TO.C,MX30*%
X202430000Y-112450000D03*
D13*
X197350000Y-112450000D03*
D12*
X192270000Y-112450000D03*
D14*
X193540000Y-109910000D03*
X199890000Y-107370000D03*
%TD*%
D13*
%TO.C,MX12*%
X99718750Y-112450000D03*
D12*
X94638750Y-112450000D03*
X104798750Y-112450000D03*
D14*
X95908750Y-109910000D03*
X102258750Y-107370000D03*
%TD*%
D13*
%TO.C,MX19*%
X111625000Y-112450000D03*
D12*
X106545000Y-112450000D03*
X116705000Y-112450000D03*
D14*
X115435000Y-114990000D03*
X109085000Y-117530000D03*
%TD*%
D13*
%TO.C,MX4*%
X56856250Y-112450000D03*
D12*
X61936250Y-112450000D03*
X51776250Y-112450000D03*
D14*
X53046250Y-109910000D03*
X59396250Y-107370000D03*
%TD*%
D13*
%TO.C,MX33*%
X216400000Y-93400000D03*
D12*
X221480000Y-93400000D03*
X211320000Y-93400000D03*
D14*
X212590000Y-90860000D03*
X218940000Y-88320000D03*
%TD*%
D13*
%TO.C,MX13*%
X111625000Y-55300000D03*
D12*
X106545000Y-55300000D03*
X116705000Y-55300000D03*
D14*
X107815000Y-52760000D03*
X114165000Y-50220000D03*
%TD*%
D12*
%TO.C,MX29*%
X202430000Y-93400000D03*
X192270000Y-93400000D03*
D13*
X197350000Y-93400000D03*
D14*
X193540000Y-90860000D03*
X199890000Y-88320000D03*
%TD*%
D12*
%TO.C,MX15*%
X126230000Y-93400000D03*
X116070000Y-93400000D03*
D13*
X121150000Y-93400000D03*
D14*
X117340000Y-90860000D03*
X123690000Y-88320000D03*
%TD*%
D12*
%TO.C,MX14*%
X111307500Y-74350000D03*
D13*
X116387500Y-74350000D03*
D12*
X121467500Y-74350000D03*
D14*
X112577500Y-71810000D03*
X118927500Y-69270000D03*
%TD*%
D13*
%TO.C,MX16*%
X130675000Y-55300000D03*
D12*
X125595000Y-55300000D03*
X135755000Y-55300000D03*
D14*
X126865000Y-52760000D03*
X133215000Y-50220000D03*
%TD*%
D12*
%TO.C,MX5*%
X68445000Y-55300000D03*
X78605000Y-55300000D03*
D13*
X73525000Y-55300000D03*
D14*
X69715000Y-52760000D03*
X76065000Y-50220000D03*
%TD*%
D13*
%TO.C,MX24*%
X168775000Y-55300000D03*
D12*
X173855000Y-55300000D03*
X163695000Y-55300000D03*
D14*
X164965000Y-52760000D03*
X171315000Y-50220000D03*
%TD*%
D12*
%TO.C,MX21*%
X149407500Y-74350000D03*
X159567500Y-74350000D03*
D13*
X154487500Y-74350000D03*
D14*
X150677500Y-71810000D03*
X157027500Y-69270000D03*
%TD*%
D12*
%TO.C,MX32*%
X206557500Y-74350000D03*
D13*
X211637500Y-74350000D03*
D12*
X216717500Y-74350000D03*
D14*
X207827500Y-71810000D03*
X214177500Y-69270000D03*
%TD*%
D12*
%TO.C,MX38*%
X230370000Y-112450000D03*
D13*
X235450000Y-112450000D03*
D12*
X240530000Y-112450000D03*
D14*
X231640000Y-109910000D03*
X237990000Y-107370000D03*
%TD*%
D12*
%TO.C,MX20*%
X154805000Y-55300000D03*
D13*
X149725000Y-55300000D03*
D12*
X144645000Y-55300000D03*
D14*
X145915000Y-52760000D03*
X152265000Y-50220000D03*
%TD*%
D13*
%TO.C,MX8*%
X78287500Y-112450000D03*
D12*
X83367500Y-112450000D03*
X73207500Y-112450000D03*
D14*
X82097500Y-114990000D03*
X75747500Y-117530000D03*
%TD*%
D12*
%TO.C,MX6*%
X73207500Y-74350000D03*
X83367500Y-74350000D03*
D13*
X78287500Y-74350000D03*
D14*
X74477500Y-71810000D03*
X80827500Y-69270000D03*
%TD*%
D12*
%TO.C,MX36*%
X238148750Y-74350000D03*
X227988750Y-74350000D03*
D13*
X233068750Y-74350000D03*
D14*
X229258750Y-71810000D03*
X235608750Y-69270000D03*
%TD*%
D12*
%TO.C,MX37*%
X230370000Y-93400000D03*
D13*
X235450000Y-93400000D03*
D12*
X240530000Y-93400000D03*
D14*
X231640000Y-90860000D03*
X237990000Y-88320000D03*
%TD*%
D13*
%TO.C,MX8*%
X73525000Y-112450000D03*
D12*
X68445000Y-112450000D03*
X78605000Y-112450000D03*
D14*
X69715000Y-109910000D03*
X76065000Y-107370000D03*
%TD*%
D12*
%TO.C,MX26*%
X173220000Y-93400000D03*
X183380000Y-93400000D03*
D13*
X178300000Y-93400000D03*
D14*
X174490000Y-90860000D03*
X180840000Y-88320000D03*
%TD*%
D13*
%TO.C,MX19*%
X144962500Y-117212500D03*
D15*
X116387500Y-124197500D03*
D13*
X173537500Y-108957500D03*
X116387500Y-108957500D03*
D15*
X173537500Y-124197500D03*
D12*
X150042500Y-117212500D03*
X139882500Y-117212500D03*
D14*
X141152500Y-114672500D03*
X147502500Y-112132500D03*
%TD*%
D12*
%TO.C,MX9*%
X87495000Y-55300000D03*
X97655000Y-55300000D03*
D13*
X92575000Y-55300000D03*
D14*
X88765000Y-52760000D03*
X95115000Y-50220000D03*
%TD*%
D13*
%TO.C,MX19*%
X133056250Y-117212500D03*
D12*
X138136250Y-117212500D03*
X127976250Y-117212500D03*
D14*
X129246250Y-114672500D03*
X135596250Y-112132500D03*
%TD*%
D12*
%TO.C,MX23*%
X171473750Y-117212500D03*
D13*
X166393750Y-117212500D03*
D12*
X161313750Y-117212500D03*
D14*
X162583750Y-114672500D03*
X168933750Y-112132500D03*
%TD*%
D12*
%TO.C,MX35*%
X227988750Y-64825000D03*
D15*
X240053750Y-52887000D03*
D12*
X238148750Y-64825000D03*
D13*
X224813750Y-52887000D03*
X224813750Y-76763000D03*
X233068750Y-64825000D03*
D15*
X240053750Y-76763000D03*
D14*
X229258750Y-62285000D03*
X235608750Y-59745000D03*
%TD*%
D12*
%TO.C,MX7*%
X88130000Y-93400000D03*
X77970000Y-93400000D03*
D13*
X83050000Y-93400000D03*
D14*
X79240000Y-90860000D03*
X85590000Y-88320000D03*
%TD*%
D12*
%TO.C,MX12*%
X87495000Y-112450000D03*
X97655000Y-112450000D03*
D13*
X92575000Y-112450000D03*
D14*
X88765000Y-109910000D03*
X95115000Y-107370000D03*
%TD*%
D12*
%TO.C,MX3*%
X64317500Y-93400000D03*
D13*
X59237500Y-93400000D03*
D12*
X54157500Y-93400000D03*
D14*
X55427500Y-90860000D03*
X61777500Y-88320000D03*
%TD*%
D12*
%TO.C,MX27*%
X192905000Y-55300000D03*
X182745000Y-55300000D03*
D13*
X187825000Y-55300000D03*
D14*
X184015000Y-52760000D03*
X190365000Y-50220000D03*
%TD*%
D12*
%TO.C,MX28*%
X187507500Y-74350000D03*
X197667500Y-74350000D03*
D13*
X192587500Y-74350000D03*
D14*
X188777500Y-71810000D03*
X195127500Y-69270000D03*
%TD*%
D12*
%TO.C,MX25*%
X178617500Y-74350000D03*
X168457500Y-74350000D03*
D13*
X173537500Y-74350000D03*
D14*
X169727500Y-71810000D03*
X176077500Y-69270000D03*
%TD*%
D12*
%TO.C,MX34*%
X211320000Y-112450000D03*
X221480000Y-112450000D03*
D13*
X216400000Y-112450000D03*
D14*
X212590000Y-109910000D03*
X218940000Y-107370000D03*
%TD*%
D13*
%TO.C,MX31*%
X206875000Y-55300000D03*
D12*
X211955000Y-55300000D03*
X201795000Y-55300000D03*
D14*
X203065000Y-52760000D03*
X209415000Y-50220000D03*
%TD*%
D16*
%TO.C,C_1V-Decoup2*%
X71900000Y-72730000D03*
X71900000Y-71770000D03*
%TD*%
D17*
%TO.C,D6*%
X81387500Y-76000000D03*
X81387500Y-72700000D03*
%TD*%
%TO.C,D14*%
X119487500Y-76500000D03*
X119487500Y-73200000D03*
%TD*%
D18*
%TO.C,C_Crystal1*%
X74200000Y-93570000D03*
X74200000Y-94530000D03*
%TD*%
D17*
%TO.C,D37*%
X238550000Y-95550000D03*
X238550000Y-92250000D03*
%TD*%
D19*
%TO.C,R_Crystal1*%
X70100000Y-91260000D03*
X70100000Y-90240000D03*
%TD*%
D17*
%TO.C,D17*%
X138537500Y-76500000D03*
X138537500Y-73200000D03*
%TD*%
D20*
%TO.C,R_Flash1*%
X85500000Y-62990000D03*
X85500000Y-64010000D03*
%TD*%
D21*
%TO.C,SW1*%
X86050000Y-61250000D03*
D22*
X84780000Y-61250000D03*
%TD*%
D17*
%TO.C,D8*%
X85500000Y-114550000D03*
X85500000Y-111250000D03*
%TD*%
%TO.C,D20*%
X152825000Y-57450000D03*
X152825000Y-54150000D03*
%TD*%
%TO.C,D15*%
X124250000Y-95550000D03*
X124250000Y-92250000D03*
%TD*%
%TO.C,D31*%
X209975000Y-57450000D03*
X209975000Y-54150000D03*
%TD*%
D16*
%TO.C,C_3V-Decoup2*%
X66200000Y-76480000D03*
X66200000Y-75520000D03*
%TD*%
D17*
%TO.C,D13*%
X114725000Y-57450000D03*
X114725000Y-54150000D03*
%TD*%
%TO.C,D23*%
X169493750Y-119362500D03*
X169493750Y-116062500D03*
%TD*%
D23*
%TO.C,C_3V-Decoup7*%
X64530000Y-78950000D03*
X63570000Y-78950000D03*
%TD*%
D17*
%TO.C,D32*%
X214737500Y-76500000D03*
X214737500Y-73200000D03*
%TD*%
%TO.C,D4*%
X64900000Y-114550000D03*
X64900000Y-111250000D03*
%TD*%
D16*
%TO.C,C_3V-Decoup9*%
X75700000Y-80080000D03*
X75700000Y-79120000D03*
%TD*%
D23*
%TO.C,C_3V-Decoup4*%
X65280000Y-84600000D03*
X64320000Y-84600000D03*
%TD*%
D17*
%TO.C,D26*%
X181400000Y-95550000D03*
X181400000Y-92250000D03*
%TD*%
%TO.C,D28*%
X195687500Y-76500000D03*
X195687500Y-73200000D03*
%TD*%
D20*
%TO.C,R_DATA1*%
X70000000Y-73690000D03*
X70000000Y-74710000D03*
%TD*%
D18*
%TO.C,C_3V-Decoup8*%
X68950000Y-90270000D03*
X68950000Y-91230000D03*
%TD*%
D16*
%TO.C,C_Flash1*%
X83650000Y-72880000D03*
X83650000Y-71920000D03*
%TD*%
D17*
%TO.C,D10*%
X100437500Y-76500000D03*
X100437500Y-73200000D03*
%TD*%
%TO.C,D35*%
X221800000Y-57450000D03*
X221800000Y-54150000D03*
%TD*%
%TO.C,D38*%
X238550000Y-114600000D03*
X238550000Y-111300000D03*
%TD*%
%TO.C,D19*%
X136156250Y-119362500D03*
X136156250Y-116062500D03*
%TD*%
D24*
%TO.C,U3*%
X61400000Y-61487500D03*
X59500000Y-61487500D03*
X60450000Y-59612500D03*
%TD*%
D17*
%TO.C,D25*%
X176637500Y-76500000D03*
X176637500Y-73200000D03*
%TD*%
%TO.C,D11*%
X105200000Y-95550000D03*
X105200000Y-92250000D03*
%TD*%
D18*
%TO.C,C_1V-Decoup3*%
X67450000Y-90270000D03*
X67450000Y-91230000D03*
%TD*%
D17*
%TO.C,D18*%
X143300000Y-95550000D03*
X143300000Y-92250000D03*
%TD*%
%TO.C,D34*%
X219500000Y-114600000D03*
X219500000Y-111300000D03*
%TD*%
%TO.C,D2*%
X59956250Y-76000000D03*
X59956250Y-72700000D03*
%TD*%
%TO.C,D3*%
X62337500Y-95550000D03*
X62337500Y-92250000D03*
%TD*%
%TO.C,D29*%
X200450000Y-95550000D03*
X200450000Y-92250000D03*
%TD*%
%TO.C,D16*%
X133775000Y-57450000D03*
X133775000Y-54150000D03*
%TD*%
D18*
%TO.C,C_3V-Decoup6*%
X77100000Y-85970000D03*
X77100000Y-86930000D03*
%TD*%
D17*
%TO.C,D30*%
X200450000Y-114600000D03*
X200450000Y-111300000D03*
%TD*%
%TO.C,D1*%
X57575000Y-57450000D03*
X57575000Y-54150000D03*
%TD*%
D23*
%TO.C,C_3V-Decoup1*%
X59480000Y-64250000D03*
X58520000Y-64250000D03*
%TD*%
%TO.C,C_LD1*%
X60430000Y-58100000D03*
X59470000Y-58100000D03*
%TD*%
D19*
%TO.C,R_RST1*%
X49350000Y-77560000D03*
X49350000Y-76540000D03*
%TD*%
D25*
%TO.C,U2*%
X85495000Y-65650000D03*
X86765000Y-65650000D03*
X88035000Y-65650000D03*
X89305000Y-65650000D03*
X89305000Y-72850000D03*
X88035000Y-72850000D03*
X86765000Y-72850000D03*
X85495000Y-72850000D03*
%TD*%
D17*
%TO.C,D33*%
X219500000Y-95550000D03*
X219500000Y-92250000D03*
%TD*%
%TO.C,D36*%
X236168750Y-76500000D03*
X236168750Y-73200000D03*
%TD*%
%TO.C,D7*%
X86150000Y-95550000D03*
X86150000Y-92250000D03*
%TD*%
%TO.C,D12*%
X102818750Y-114600000D03*
X102818750Y-111300000D03*
%TD*%
D16*
%TO.C,C_1V-Decoup1*%
X67800000Y-75410000D03*
X67800000Y-74450000D03*
%TD*%
%TO.C,C_3V-Decoup3*%
X70900000Y-72730000D03*
X70900000Y-71770000D03*
%TD*%
D17*
%TO.C,D22*%
X162350000Y-95550000D03*
X162350000Y-92250000D03*
%TD*%
D26*
%TO.C,U1*%
X74387500Y-81000000D03*
X74387500Y-81400000D03*
X74387500Y-81800000D03*
X74387500Y-82200000D03*
X74387500Y-82600000D03*
X74387500Y-83000000D03*
X74387500Y-83400000D03*
X74387500Y-83800000D03*
X74387500Y-84200000D03*
X74387500Y-84600000D03*
X74387500Y-85000000D03*
X74387500Y-85400000D03*
X74387500Y-85800000D03*
X74387500Y-86200000D03*
D27*
X73550000Y-87037500D03*
X73150000Y-87037500D03*
X72750000Y-87037500D03*
X72350000Y-87037500D03*
X71950000Y-87037500D03*
X71550000Y-87037500D03*
X71150000Y-87037500D03*
X70750000Y-87037500D03*
X70350000Y-87037500D03*
X69950000Y-87037500D03*
X69550000Y-87037500D03*
X69150000Y-87037500D03*
X68750000Y-87037500D03*
X68350000Y-87037500D03*
D26*
X67512500Y-86200000D03*
X67512500Y-85800000D03*
X67512500Y-85400000D03*
X67512500Y-85000000D03*
X67512500Y-84600000D03*
X67512500Y-84200000D03*
X67512500Y-83800000D03*
X67512500Y-83400000D03*
X67512500Y-83000000D03*
X67512500Y-82600000D03*
X67512500Y-82200000D03*
X67512500Y-81800000D03*
X67512500Y-81400000D03*
X67512500Y-81000000D03*
D27*
X68350000Y-80162500D03*
X68750000Y-80162500D03*
X69150000Y-80162500D03*
X69550000Y-80162500D03*
X69950000Y-80162500D03*
X70350000Y-80162500D03*
X70750000Y-80162500D03*
X71150000Y-80162500D03*
X71550000Y-80162500D03*
X71950000Y-80162500D03*
X72350000Y-80162500D03*
X72750000Y-80162500D03*
X73150000Y-80162500D03*
X73550000Y-80162500D03*
D28*
X70950000Y-83600000D03*
%TD*%
D29*
%TO.C,J2*%
X46800000Y-76025000D03*
D30*
X46800000Y-78565000D03*
X46800000Y-81105000D03*
X46800000Y-83645000D03*
X46800000Y-86185000D03*
%TD*%
D17*
%TO.C,D27*%
X190925000Y-57450000D03*
X190925000Y-54150000D03*
%TD*%
D16*
%TO.C,C_Crystal2*%
X68200000Y-94530000D03*
X68200000Y-93570000D03*
%TD*%
D17*
%TO.C,D9*%
X95675000Y-57450000D03*
X95675000Y-54150000D03*
%TD*%
%TO.C,D24*%
X171875000Y-57450000D03*
X171875000Y-54150000D03*
%TD*%
D23*
%TO.C,C_3V-Decoup5*%
X64530000Y-80000000D03*
X63570000Y-80000000D03*
%TD*%
D20*
%TO.C,R_DATA2*%
X68900000Y-73690000D03*
X68900000Y-74710000D03*
%TD*%
D23*
%TO.C,C_LD2*%
X59480000Y-63200000D03*
X58520000Y-63200000D03*
%TD*%
D31*
%TO.C,J1*%
X65200000Y-63300000D03*
X65200000Y-64300000D03*
X65200000Y-65300000D03*
X65200000Y-66300000D03*
D32*
X69075000Y-62000000D03*
X69075000Y-67600000D03*
%TD*%
D17*
%TO.C,D21*%
X157587500Y-76500000D03*
X157587500Y-73200000D03*
%TD*%
D33*
%TO.C,Y1*%
X70100000Y-93200000D03*
X72300000Y-93200000D03*
X72300000Y-94900000D03*
X70100000Y-94900000D03*
%TD*%
D17*
%TO.C,D5*%
X76625000Y-57550000D03*
X76625000Y-54250000D03*
%TD*%
D34*
X71500000Y-76650000D03*
X70400000Y-81350000D03*
X66600000Y-89950000D03*
X70350000Y-85800000D03*
X61900000Y-63100000D03*
X89300000Y-67150000D03*
X76950000Y-79550000D03*
X68200000Y-95950000D03*
X76500000Y-87700000D03*
X74200000Y-92550000D03*
X71250000Y-91650000D03*
X64300000Y-83800000D03*
X62400000Y-78250000D03*
X84550000Y-72850000D03*
X70700000Y-75850000D03*
X73650000Y-75800000D03*
X75400000Y-73800000D03*
X63050000Y-73330000D03*
X62700000Y-58950000D03*
X62700000Y-62250000D03*
X60150000Y-56950000D03*
X60655750Y-77146910D03*
X54750000Y-72800000D03*
X75250000Y-57800000D03*
X51150000Y-81650000D03*
X56150000Y-97850000D03*
X80100000Y-93250000D03*
X83750000Y-76000000D03*
X59956250Y-79225140D03*
X92600000Y-75950000D03*
X77150000Y-97950000D03*
X62500000Y-98650000D03*
X77450000Y-100000000D03*
X77100000Y-96700000D03*
X77079720Y-103520279D03*
X63400000Y-65850000D03*
X67900000Y-65950000D03*
X49450000Y-79300000D03*
X66103818Y-87435488D03*
X65849500Y-88402094D03*
X65355000Y-89745000D03*
X53000000Y-88600000D03*
X53000000Y-77800000D03*
X69950000Y-56050000D03*
X71950000Y-61600000D03*
M02*
