M48
; DRILL file {KiCad (6.0.11-0)} date Monday, February 06, 2023 at 11:57:07 PM
; FORMAT={-:-/ absolute / inch / decimal}
; #@! TF.CreationDate,2023-02-06T23:57:07-05:00
; #@! TF.GenerationSoftware,Kicad,Pcbnew,(6.0.11-0)
; #@! TF.FileFunction,Plated,1,2,PTH
FMAT,2
INCH
; #@! TA.AperFunction,Plated,PTH,ComponentDrill
T1C0.0138
; #@! TA.AperFunction,Plated,PTH,ViaDrill
T2C0.0157
; #@! TA.AperFunction,Plated,PTH,ComponentDrill
T3C0.0256
; #@! TA.AperFunction,Plated,PTH,ComponentDrill
T4C0.0394
; #@! TA.AperFunction,Plated,PTH,ComponentDrill
T5C0.0579
%
G90
G05
T1
X2.7431Y-3.2411
X2.7431Y-3.2913
X2.7431Y-3.3415
X2.7933Y-3.2411
X2.7933Y-3.2913
X2.7933Y-3.3415
X2.8435Y-3.2411
X2.8435Y-3.2913
X2.8435Y-3.3415
T2
X1.9469Y-3.122
X2.0138Y-3.2146
X2.0866Y-3.063
X2.0866Y-3.4882
X2.1555Y-2.8661
X2.2106Y-3.8524
X2.3605Y-3.1191
X2.3681Y-2.2421
X2.388Y-3.0373
X2.437Y-2.4843
X2.4567Y-3.0807
X2.4606Y-3.8839
X2.4685Y-2.3209
X2.4685Y-2.4508
X2.4823Y-2.887
X2.4961Y-2.5925
X2.5315Y-3.2992
X2.573Y-3.5333
X2.5925Y-3.4804
X2.6025Y-3.4423
X2.622Y-3.5413
X2.6732Y-2.5965
X2.685Y-3.7776
X2.7539Y-2.2067
X2.7697Y-3.378
X2.7717Y-3.2028
X2.7835Y-2.9862
X2.8051Y-3.6083
X2.815Y-3.0177
X2.8327Y-2.4252
X2.8996Y-2.9843
X2.9213Y-3.6437
X2.9626Y-2.2756
X2.9685Y-2.9055
X3.0118Y-3.4528
X3.0295Y-3.1319
X3.0346Y-4.0756
X3.0354Y-3.8071
X3.0374Y-3.8563
X3.0492Y-3.937
X3.1535Y-3.6713
X3.2972Y-2.9921
X3.3287Y-2.8681
X3.5157Y-2.6437
X3.6457Y-2.9902
T3
X3.3378Y-2.4114
X3.3878Y-2.4114
T4
X1.8425Y-2.9931
X1.8425Y-3.0931
X1.8425Y-3.1931
X1.8425Y-3.2931
X1.8425Y-3.3931
T5
X1.9947Y-2.0772
X1.9947Y-4.3272
X2.0884Y-2.8272
X2.0884Y-4.3272
X2.1822Y-3.5772
X2.2447Y-1.9772
X2.2447Y-4.2272
X2.3384Y-2.7272
X2.3384Y-4.2272
X2.4322Y-3.4772
X2.7447Y-2.0772
X2.7447Y-4.3272
X2.9322Y-2.8272
X2.9822Y-4.6272
X2.9947Y-1.9772
X2.9947Y-4.2272
X3.1197Y-3.5772
X3.1822Y-2.7272
X3.2322Y-4.5272
X3.3697Y-3.4772
X3.4947Y-2.0772
X3.4947Y-4.3272
X3.6822Y-2.8272
X3.7447Y-1.9772
X3.7447Y-4.2272
X3.7759Y-4.3272
X3.8697Y-3.5772
X3.9322Y-2.7272
X4.0259Y-4.2272
X4.1197Y-3.4772
X4.2447Y-2.0772
X4.2947Y-4.6272
X4.4322Y-2.8272
X4.4947Y-1.9772
X4.5447Y-4.5272
X4.6197Y-3.5772
X4.6822Y-2.7272
X4.8697Y-3.4772
X4.9947Y-2.0772
X5.0884Y-4.5147
X5.1822Y-2.8272
X5.2447Y-1.9772
X5.3384Y-4.4147
X5.3697Y-3.5772
X5.4322Y-2.7272
X5.5572Y-4.5147
X5.6197Y-3.4772
X5.7447Y-2.0772
X5.8072Y-4.4147
X5.9322Y-2.8272
X5.9322Y-4.5147
X5.9947Y-1.9772
X6.1197Y-3.5772
X6.1822Y-2.7272
X6.1822Y-4.4147
X6.3697Y-3.4772
X6.4009Y-4.5147
X6.4947Y-2.0772
X6.6509Y-4.4147
X6.6822Y-2.8272
X6.7447Y-1.9772
X6.8697Y-3.5772
X6.9322Y-2.7272
X7.1197Y-3.4772
X7.2447Y-2.0772
X7.4322Y-2.8272
X7.4947Y-1.9772
X7.6197Y-3.5772
X7.6197Y-4.3272
X7.6822Y-2.7272
X7.8697Y-3.4772
X7.8697Y-4.2272
X7.9947Y-2.0772
X8.1822Y-2.8272
X8.2447Y-1.9772
X8.3697Y-3.5772
X8.3697Y-4.3272
X8.4322Y-2.7272
X8.6197Y-3.4772
X8.6197Y-4.2272
X8.9322Y-2.0772
X9.0259Y-2.4522
X9.0259Y-2.8272
X9.1197Y-3.5772
X9.1197Y-4.3272
X9.1822Y-1.9772
X9.2759Y-2.3522
X9.2759Y-2.7272
X9.3697Y-3.4772
X9.3697Y-4.2272
T0
M30
