%TF.GenerationSoftware,KiCad,Pcbnew,(6.0.7-1)-1*%
%TF.CreationDate,2022-08-08T11:53:52-04:00*%
%TF.ProjectId,shortiepie2040,73686f72-7469-4657-9069-65323034302e,rev?*%
%TF.SameCoordinates,Original*%
%TF.FileFunction,Legend,Top*%
%TF.FilePolarity,Positive*%
%FSLAX46Y46*%
G04 Gerber Fmt 4.6, Leading zero omitted, Abs format (unit mm)*
G04 Created by KiCad (PCBNEW (6.0.7-1)-1) date 2022-08-08 11:53:52*
%MOMM*%
%LPD*%
G01*
G04 APERTURE LIST*
%ADD10C,1.750000*%
%ADD11C,3.987800*%
%ADD12R,1.000000X1.000000*%
%ADD13O,1.000000X1.000000*%
%ADD14R,1.700000X1.700000*%
%ADD15O,1.700000X1.700000*%
%ADD16C,0.800000*%
G04 APERTURE END LIST*
%LPC*%
D10*
%TO.C,MX2*%
X61936250Y-74350000D03*
X51776250Y-74350000D03*
D11*
X56856250Y-74350000D03*
%TD*%
D10*
%TO.C,MX36*%
X238148750Y-74350000D03*
X227988750Y-74350000D03*
D11*
X233068750Y-74350000D03*
%TD*%
D12*
%TO.C,SW1*%
X86050000Y-61250000D03*
D13*
X84780000Y-61250000D03*
%TD*%
D10*
%TO.C,MX38*%
X240530000Y-112450000D03*
X230370000Y-112450000D03*
D11*
X235450000Y-112450000D03*
%TD*%
D10*
%TO.C,MX37*%
X240530000Y-93400000D03*
X230370000Y-93400000D03*
D11*
X235450000Y-93400000D03*
%TD*%
D10*
%TO.C,MX35*%
X235767500Y-55300000D03*
X225607500Y-55300000D03*
D11*
X230687500Y-55300000D03*
%TD*%
D10*
%TO.C,MX34*%
X221480000Y-112450000D03*
X211320000Y-112450000D03*
D11*
X216400000Y-112450000D03*
%TD*%
D10*
%TO.C,MX33*%
X221480000Y-93400000D03*
X211320000Y-93400000D03*
D11*
X216400000Y-93400000D03*
%TD*%
D10*
%TO.C,MX32*%
X216717500Y-74350000D03*
X206557500Y-74350000D03*
D11*
X211637500Y-74350000D03*
%TD*%
D10*
%TO.C,MX31*%
X211955000Y-55300000D03*
X201795000Y-55300000D03*
D11*
X206875000Y-55300000D03*
%TD*%
D10*
%TO.C,MX30*%
X202430000Y-112450000D03*
X192270000Y-112450000D03*
D11*
X197350000Y-112450000D03*
%TD*%
D10*
%TO.C,MX29*%
X202430000Y-93400000D03*
X192270000Y-93400000D03*
D11*
X197350000Y-93400000D03*
%TD*%
D10*
%TO.C,MX28*%
X197667500Y-74350000D03*
X187507500Y-74350000D03*
D11*
X192587500Y-74350000D03*
%TD*%
D10*
%TO.C,MX27*%
X192905000Y-55300000D03*
X182745000Y-55300000D03*
D11*
X187825000Y-55300000D03*
%TD*%
D10*
%TO.C,MX26*%
X183380000Y-93400000D03*
X173220000Y-93400000D03*
D11*
X178300000Y-93400000D03*
%TD*%
D10*
%TO.C,MX25*%
X178617500Y-74350000D03*
X168457500Y-74350000D03*
D11*
X173537500Y-74350000D03*
%TD*%
D10*
%TO.C,MX24*%
X173855000Y-55300000D03*
X163695000Y-55300000D03*
D11*
X168775000Y-55300000D03*
%TD*%
D10*
%TO.C,MX23*%
X171473750Y-117212500D03*
X161313750Y-117212500D03*
D11*
X166393750Y-117212500D03*
%TD*%
D10*
%TO.C,MX22*%
X164330000Y-93400000D03*
X154170000Y-93400000D03*
D11*
X159250000Y-93400000D03*
%TD*%
D10*
%TO.C,MX21*%
X159567500Y-74350000D03*
X149407500Y-74350000D03*
D11*
X154487500Y-74350000D03*
%TD*%
D10*
%TO.C,MX20*%
X154805000Y-55300000D03*
X144645000Y-55300000D03*
D11*
X149725000Y-55300000D03*
%TD*%
D10*
%TO.C,MX19*%
X138136250Y-117212500D03*
X127976250Y-117212500D03*
D11*
X133056250Y-117212500D03*
%TD*%
%TO.C,MX18*%
X140200000Y-93400000D03*
D10*
X135120000Y-93400000D03*
X145280000Y-93400000D03*
%TD*%
%TO.C,MX17*%
X140517500Y-74350000D03*
X130357500Y-74350000D03*
D11*
X135437500Y-74350000D03*
%TD*%
D10*
%TO.C,MX16*%
X135755000Y-55300000D03*
X125595000Y-55300000D03*
D11*
X130675000Y-55300000D03*
%TD*%
D10*
%TO.C,MX15*%
X126230000Y-93400000D03*
X116070000Y-93400000D03*
D11*
X121150000Y-93400000D03*
%TD*%
D10*
%TO.C,MX14*%
X121467500Y-74350000D03*
X111307500Y-74350000D03*
D11*
X116387500Y-74350000D03*
%TD*%
D10*
%TO.C,MX13*%
X116705000Y-55300000D03*
X106545000Y-55300000D03*
D11*
X111625000Y-55300000D03*
%TD*%
D10*
%TO.C,MX12*%
X104798750Y-112450000D03*
X94638750Y-112450000D03*
D11*
X99718750Y-112450000D03*
%TD*%
D10*
%TO.C,MX11*%
X107180000Y-93400000D03*
X97020000Y-93400000D03*
D11*
X102100000Y-93400000D03*
%TD*%
D10*
%TO.C,MX10*%
X102417500Y-74350000D03*
X92257500Y-74350000D03*
D11*
X97337500Y-74350000D03*
%TD*%
D10*
%TO.C,MX9*%
X97655000Y-55300000D03*
X87495000Y-55300000D03*
D11*
X92575000Y-55300000D03*
%TD*%
D10*
%TO.C,MX8*%
X83367500Y-112450000D03*
X73207500Y-112450000D03*
D11*
X78287500Y-112450000D03*
%TD*%
D10*
%TO.C,MX7*%
X88130000Y-93400000D03*
X77970000Y-93400000D03*
D11*
X83050000Y-93400000D03*
%TD*%
D10*
%TO.C,MX6*%
X83367500Y-74350000D03*
X73207500Y-74350000D03*
D11*
X78287500Y-74350000D03*
%TD*%
D10*
%TO.C,MX5*%
X78605000Y-55300000D03*
X68445000Y-55300000D03*
D11*
X73525000Y-55300000D03*
%TD*%
D10*
%TO.C,MX4*%
X61936250Y-112450000D03*
X51776250Y-112450000D03*
D11*
X56856250Y-112450000D03*
%TD*%
D10*
%TO.C,MX3*%
X64317500Y-93400000D03*
X54157500Y-93400000D03*
D11*
X59237500Y-93400000D03*
%TD*%
%TO.C,MX1*%
X54475000Y-55300000D03*
D10*
X49395000Y-55300000D03*
X59555000Y-55300000D03*
%TD*%
D14*
%TO.C,J2*%
X46800000Y-76025000D03*
D15*
X46800000Y-78565000D03*
X46800000Y-81105000D03*
X46800000Y-83645000D03*
X46800000Y-86185000D03*
%TD*%
D16*
X73650000Y-75800000D03*
X65355000Y-89745000D03*
X77100000Y-96700000D03*
X62750000Y-114600000D03*
X62500000Y-98650000D03*
X77450000Y-100000000D03*
X54750000Y-72800000D03*
X60655750Y-77146910D03*
X92600000Y-75950000D03*
X77150000Y-97950000D03*
X56150000Y-97850000D03*
X51150000Y-81650000D03*
X59956250Y-79225140D03*
X80100000Y-93250000D03*
X83750000Y-76000000D03*
X71950000Y-61600000D03*
X69950000Y-56050000D03*
X53000000Y-88600000D03*
X53000000Y-77800000D03*
X65849500Y-88402094D03*
X75400000Y-73800000D03*
X84550000Y-72850000D03*
X89300000Y-67150000D03*
X75250000Y-57800000D03*
X60150000Y-56950000D03*
X66600000Y-89950000D03*
X71250000Y-91650000D03*
X74200000Y-92550000D03*
X68200000Y-95950000D03*
X64300000Y-83800000D03*
X63050000Y-73330000D03*
X70700000Y-75850000D03*
X71500000Y-76650000D03*
X63400000Y-65850000D03*
X67900000Y-65950000D03*
X62700000Y-62250000D03*
X62700000Y-58950000D03*
X61900000Y-63100000D03*
X62400000Y-78250000D03*
X76950000Y-79550000D03*
X70350000Y-85800000D03*
X70400000Y-81350000D03*
X76500000Y-87700000D03*
M02*
