%TF.GenerationSoftware,KiCad,Pcbnew,(6.0.7-1)-1*%
%TF.CreationDate,2022-08-08T11:53:52-04:00*%
%TF.ProjectId,shortiepie2040,73686f72-7469-4657-9069-65323034302e,rev?*%
%TF.SameCoordinates,Original*%
%TF.FileFunction,Legend,Bot*%
%TF.FilePolarity,Positive*%
%FSLAX46Y46*%
G04 Gerber Fmt 4.6, Leading zero omitted, Abs format (unit mm)*
G04 Created by KiCad (PCBNEW (6.0.7-1)-1) date 2022-08-08 11:53:52*
%MOMM*%
%LPD*%
G01*
G04 APERTURE LIST*
G04 Aperture macros list*
%AMRoundRect*
0 Rectangle with rounded corners*
0 $1 Rounding radius*
0 $2 $3 $4 $5 $6 $7 $8 $9 X,Y pos of 4 corners*
0 Add a 4 corners polygon primitive as box body*
4,1,4,$2,$3,$4,$5,$6,$7,$8,$9,$2,$3,0*
0 Add four circle primitives for the rounded corners*
1,1,$1+$1,$2,$3*
1,1,$1+$1,$4,$5*
1,1,$1+$1,$6,$7*
1,1,$1+$1,$8,$9*
0 Add four rect primitives between the rounded corners*
20,1,$1+$1,$2,$3,$4,$5,0*
20,1,$1+$1,$4,$5,$6,$7,0*
20,1,$1+$1,$6,$7,$8,$9,0*
20,1,$1+$1,$8,$9,$2,$3,0*%
G04 Aperture macros list end*
%ADD10C,0.150000*%
%ADD11C,0.120000*%
%ADD12C,1.750000*%
%ADD13C,2.250000*%
%ADD14C,3.987800*%
%ADD15RoundRect,0.050000X0.387500X0.050000X-0.387500X0.050000X-0.387500X-0.050000X0.387500X-0.050000X0*%
%ADD16RoundRect,0.050000X0.050000X0.387500X-0.050000X0.387500X-0.050000X-0.387500X0.050000X-0.387500X0*%
%ADD17RoundRect,0.144000X1.456000X1.456000X-1.456000X1.456000X-1.456000X-1.456000X1.456000X-1.456000X0*%
%ADD18R,1.400000X1.200000*%
%ADD19RoundRect,0.150000X0.150000X-0.587500X0.150000X0.587500X-0.150000X0.587500X-0.150000X-0.587500X0*%
%ADD20RoundRect,0.150000X-0.150000X0.650000X-0.150000X-0.650000X0.150000X-0.650000X0.150000X0.650000X0*%
%ADD21R,1.000000X1.000000*%
%ADD22O,1.000000X1.000000*%
%ADD23RoundRect,0.135000X0.185000X-0.135000X0.185000X0.135000X-0.185000X0.135000X-0.185000X-0.135000X0*%
%ADD24RoundRect,0.135000X-0.185000X0.135000X-0.185000X-0.135000X0.185000X-0.135000X0.185000X0.135000X0*%
%ADD25R,1.700000X1.700000*%
%ADD26O,1.700000X1.700000*%
%ADD27RoundRect,0.150000X-0.625000X0.150000X-0.625000X-0.150000X0.625000X-0.150000X0.625000X0.150000X0*%
%ADD28RoundRect,0.250000X-0.650000X0.350000X-0.650000X-0.350000X0.650000X-0.350000X0.650000X0.350000X0*%
%ADD29R,1.200000X0.900000*%
%ADD30RoundRect,0.140000X0.140000X0.170000X-0.140000X0.170000X-0.140000X-0.170000X0.140000X-0.170000X0*%
%ADD31RoundRect,0.140000X0.170000X-0.140000X0.170000X0.140000X-0.170000X0.140000X-0.170000X-0.140000X0*%
%ADD32RoundRect,0.140000X-0.170000X0.140000X-0.170000X-0.140000X0.170000X-0.140000X0.170000X0.140000X0*%
%ADD33C,0.800000*%
G04 APERTURE END LIST*
D10*
%TO.C,U1*%
X71711904Y-78232380D02*
X71711904Y-79041904D01*
X71664285Y-79137142D01*
X71616666Y-79184761D01*
X71521428Y-79232380D01*
X71330952Y-79232380D01*
X71235714Y-79184761D01*
X71188095Y-79137142D01*
X71140476Y-79041904D01*
X71140476Y-78232380D01*
X70140476Y-79232380D02*
X70711904Y-79232380D01*
X70426190Y-79232380D02*
X70426190Y-78232380D01*
X70521428Y-78375238D01*
X70616666Y-78470476D01*
X70711904Y-78518095D01*
D11*
X67340000Y-87210000D02*
X67340000Y-86560000D01*
X67990000Y-79990000D02*
X67340000Y-79990000D01*
X73910000Y-79990000D02*
X74560000Y-79990000D01*
X74560000Y-87210000D02*
X74560000Y-86560000D01*
X67340000Y-79990000D02*
X67340000Y-80640000D01*
X67990000Y-87210000D02*
X67340000Y-87210000D01*
X73910000Y-87210000D02*
X74560000Y-87210000D01*
%TO.C,Y1*%
X69200000Y-95700000D02*
X69200000Y-92400000D01*
X69200000Y-92400000D02*
X73200000Y-92400000D01*
%TO.C,U3*%
X62010000Y-60550000D02*
X62010000Y-59900000D01*
X58890000Y-60550000D02*
X58890000Y-59900000D01*
X62010000Y-60550000D02*
X62010000Y-62225000D01*
X58890000Y-60550000D02*
X58890000Y-61200000D01*
%TO.C,U2*%
X90125000Y-66525000D02*
X89865000Y-66525000D01*
X84935000Y-66525000D02*
X84935000Y-64850000D01*
X84675000Y-69250000D02*
X84675000Y-66525000D01*
X84675000Y-66525000D02*
X84935000Y-66525000D01*
X90125000Y-71975000D02*
X89865000Y-71975000D01*
X90125000Y-69250000D02*
X90125000Y-71975000D01*
X90125000Y-69250000D02*
X90125000Y-66525000D01*
X84675000Y-71975000D02*
X84935000Y-71975000D01*
X84675000Y-69250000D02*
X84675000Y-71975000D01*
%TO.C,SW1*%
X85290000Y-60686529D02*
X85290000Y-60140000D01*
X85290000Y-62360000D02*
X85290000Y-61813471D01*
X86810000Y-62360000D02*
X86810000Y-61250000D01*
X85290000Y-62360000D02*
X84085000Y-62360000D01*
X84085000Y-62360000D02*
X84085000Y-61557530D01*
X86050000Y-62360000D02*
X86810000Y-62360000D01*
X85290000Y-60140000D02*
X84085000Y-60140000D01*
X84085000Y-60942470D02*
X84085000Y-60140000D01*
%TO.C,R_RST1*%
X48970000Y-77203641D02*
X48970000Y-76896359D01*
X49730000Y-77203641D02*
X49730000Y-76896359D01*
%TO.C,R_Flash1*%
X85120000Y-63346359D02*
X85120000Y-63653641D01*
X85880000Y-63346359D02*
X85880000Y-63653641D01*
%TO.C,R_DATA2*%
X68520000Y-74046359D02*
X68520000Y-74353641D01*
X69280000Y-74046359D02*
X69280000Y-74353641D01*
%TO.C,R_DATA1*%
X69620000Y-74046359D02*
X69620000Y-74353641D01*
X70380000Y-74046359D02*
X70380000Y-74353641D01*
%TO.C,R_Crystal1*%
X70480000Y-90903641D02*
X70480000Y-90596359D01*
X69720000Y-90903641D02*
X69720000Y-90596359D01*
%TO.C,J2*%
X45470000Y-77295000D02*
X45470000Y-87515000D01*
X48130000Y-74695000D02*
X46800000Y-74695000D01*
X48130000Y-77295000D02*
X48130000Y-87515000D01*
X48130000Y-87515000D02*
X45470000Y-87515000D01*
X48130000Y-77295000D02*
X45470000Y-77295000D01*
X48130000Y-76025000D02*
X48130000Y-74695000D01*
%TO.C,J1*%
X69885000Y-62860000D02*
X69885000Y-66740000D01*
X67915000Y-61690000D02*
X65415000Y-61690000D01*
X67915000Y-67910000D02*
X65415000Y-67910000D01*
X65415000Y-61690000D02*
X65415000Y-62740000D01*
X65415000Y-67910000D02*
X65415000Y-66860000D01*
X65415000Y-62740000D02*
X64425000Y-62740000D01*
%TO.C,D38*%
X239550000Y-115200000D02*
X239550000Y-111300000D01*
X239550000Y-115200000D02*
X237550000Y-115200000D01*
X237550000Y-115200000D02*
X237550000Y-111300000D01*
%TO.C,D37*%
X239550000Y-96150000D02*
X239550000Y-92250000D01*
X239550000Y-96150000D02*
X237550000Y-96150000D01*
X237550000Y-96150000D02*
X237550000Y-92250000D01*
%TO.C,D36*%
X237168750Y-77100000D02*
X237168750Y-73200000D01*
X237168750Y-77100000D02*
X235168750Y-77100000D01*
X235168750Y-77100000D02*
X235168750Y-73200000D01*
%TO.C,D35*%
X234787500Y-58050000D02*
X234787500Y-54150000D01*
X234787500Y-58050000D02*
X232787500Y-58050000D01*
X232787500Y-58050000D02*
X232787500Y-54150000D01*
%TO.C,D34*%
X220500000Y-115200000D02*
X220500000Y-111300000D01*
X220500000Y-115200000D02*
X218500000Y-115200000D01*
X218500000Y-115200000D02*
X218500000Y-111300000D01*
%TO.C,D33*%
X220500000Y-96150000D02*
X220500000Y-92250000D01*
X220500000Y-96150000D02*
X218500000Y-96150000D01*
X218500000Y-96150000D02*
X218500000Y-92250000D01*
%TO.C,D32*%
X215737500Y-77100000D02*
X215737500Y-73200000D01*
X215737500Y-77100000D02*
X213737500Y-77100000D01*
X213737500Y-77100000D02*
X213737500Y-73200000D01*
%TO.C,D31*%
X210975000Y-58050000D02*
X210975000Y-54150000D01*
X210975000Y-58050000D02*
X208975000Y-58050000D01*
X208975000Y-58050000D02*
X208975000Y-54150000D01*
%TO.C,D30*%
X201450000Y-115200000D02*
X201450000Y-111300000D01*
X201450000Y-115200000D02*
X199450000Y-115200000D01*
X199450000Y-115200000D02*
X199450000Y-111300000D01*
%TO.C,D29*%
X201450000Y-96150000D02*
X201450000Y-92250000D01*
X201450000Y-96150000D02*
X199450000Y-96150000D01*
X199450000Y-96150000D02*
X199450000Y-92250000D01*
%TO.C,D28*%
X196687500Y-77100000D02*
X196687500Y-73200000D01*
X196687500Y-77100000D02*
X194687500Y-77100000D01*
X194687500Y-77100000D02*
X194687500Y-73200000D01*
%TO.C,D27*%
X191925000Y-58050000D02*
X191925000Y-54150000D01*
X191925000Y-58050000D02*
X189925000Y-58050000D01*
X189925000Y-58050000D02*
X189925000Y-54150000D01*
%TO.C,D26*%
X182400000Y-96150000D02*
X182400000Y-92250000D01*
X182400000Y-96150000D02*
X180400000Y-96150000D01*
X180400000Y-96150000D02*
X180400000Y-92250000D01*
%TO.C,D25*%
X177637500Y-77100000D02*
X177637500Y-73200000D01*
X177637500Y-77100000D02*
X175637500Y-77100000D01*
X175637500Y-77100000D02*
X175637500Y-73200000D01*
%TO.C,D24*%
X172875000Y-58050000D02*
X172875000Y-54150000D01*
X172875000Y-58050000D02*
X170875000Y-58050000D01*
X170875000Y-58050000D02*
X170875000Y-54150000D01*
%TO.C,D23*%
X170493750Y-119962500D02*
X170493750Y-116062500D01*
X170493750Y-119962500D02*
X168493750Y-119962500D01*
X168493750Y-119962500D02*
X168493750Y-116062500D01*
%TO.C,D22*%
X163350000Y-96150000D02*
X163350000Y-92250000D01*
X163350000Y-96150000D02*
X161350000Y-96150000D01*
X161350000Y-96150000D02*
X161350000Y-92250000D01*
%TO.C,D21*%
X158587500Y-77100000D02*
X158587500Y-73200000D01*
X158587500Y-77100000D02*
X156587500Y-77100000D01*
X156587500Y-77100000D02*
X156587500Y-73200000D01*
%TO.C,D20*%
X153825000Y-58050000D02*
X153825000Y-54150000D01*
X153825000Y-58050000D02*
X151825000Y-58050000D01*
X151825000Y-58050000D02*
X151825000Y-54150000D01*
%TO.C,D19*%
X137156250Y-119962500D02*
X137156250Y-116062500D01*
X137156250Y-119962500D02*
X135156250Y-119962500D01*
X135156250Y-119962500D02*
X135156250Y-116062500D01*
%TO.C,D18*%
X144300000Y-96150000D02*
X144300000Y-92250000D01*
X144300000Y-96150000D02*
X142300000Y-96150000D01*
X142300000Y-96150000D02*
X142300000Y-92250000D01*
%TO.C,D17*%
X139537500Y-77100000D02*
X139537500Y-73200000D01*
X139537500Y-77100000D02*
X137537500Y-77100000D01*
X137537500Y-77100000D02*
X137537500Y-73200000D01*
%TO.C,D16*%
X134775000Y-58050000D02*
X134775000Y-54150000D01*
X134775000Y-58050000D02*
X132775000Y-58050000D01*
X132775000Y-58050000D02*
X132775000Y-54150000D01*
%TO.C,D15*%
X125250000Y-96150000D02*
X125250000Y-92250000D01*
X125250000Y-96150000D02*
X123250000Y-96150000D01*
X123250000Y-96150000D02*
X123250000Y-92250000D01*
%TO.C,D14*%
X120487500Y-77100000D02*
X120487500Y-73200000D01*
X120487500Y-77100000D02*
X118487500Y-77100000D01*
X118487500Y-77100000D02*
X118487500Y-73200000D01*
%TO.C,D13*%
X115725000Y-58050000D02*
X115725000Y-54150000D01*
X115725000Y-58050000D02*
X113725000Y-58050000D01*
X113725000Y-58050000D02*
X113725000Y-54150000D01*
%TO.C,D12*%
X103818750Y-115200000D02*
X103818750Y-111300000D01*
X103818750Y-115200000D02*
X101818750Y-115200000D01*
X101818750Y-115200000D02*
X101818750Y-111300000D01*
%TO.C,D11*%
X106200000Y-96150000D02*
X106200000Y-92250000D01*
X106200000Y-96150000D02*
X104200000Y-96150000D01*
X104200000Y-96150000D02*
X104200000Y-92250000D01*
%TO.C,D10*%
X101437500Y-77100000D02*
X101437500Y-73200000D01*
X101437500Y-77100000D02*
X99437500Y-77100000D01*
X99437500Y-77100000D02*
X99437500Y-73200000D01*
%TO.C,D9*%
X96675000Y-58050000D02*
X96675000Y-54150000D01*
X96675000Y-58050000D02*
X94675000Y-58050000D01*
X94675000Y-58050000D02*
X94675000Y-54150000D01*
%TO.C,D8*%
X82387500Y-115200000D02*
X82387500Y-111300000D01*
X82387500Y-115200000D02*
X80387500Y-115200000D01*
X80387500Y-115200000D02*
X80387500Y-111300000D01*
%TO.C,D7*%
X87150000Y-96150000D02*
X87150000Y-92250000D01*
X87150000Y-96150000D02*
X85150000Y-96150000D01*
X85150000Y-96150000D02*
X85150000Y-92250000D01*
%TO.C,D6*%
X82387500Y-76600000D02*
X82387500Y-72700000D01*
X82387500Y-76600000D02*
X80387500Y-76600000D01*
X80387500Y-76600000D02*
X80387500Y-72700000D01*
%TO.C,D5*%
X77625000Y-58150000D02*
X77625000Y-54250000D01*
X77625000Y-58150000D02*
X75625000Y-58150000D01*
X75625000Y-58150000D02*
X75625000Y-54250000D01*
%TO.C,D4*%
X60956250Y-115200000D02*
X60956250Y-111300000D01*
X60956250Y-115200000D02*
X58956250Y-115200000D01*
X58956250Y-115200000D02*
X58956250Y-111300000D01*
%TO.C,D3*%
X63337500Y-96150000D02*
X63337500Y-92250000D01*
X63337500Y-96150000D02*
X61337500Y-96150000D01*
X61337500Y-96150000D02*
X61337500Y-92250000D01*
%TO.C,D2*%
X60956250Y-76600000D02*
X60956250Y-72700000D01*
X60956250Y-76600000D02*
X58956250Y-76600000D01*
X58956250Y-76600000D02*
X58956250Y-72700000D01*
%TO.C,D1*%
X58575000Y-58050000D02*
X58575000Y-54150000D01*
X58575000Y-58050000D02*
X56575000Y-58050000D01*
X56575000Y-58050000D02*
X56575000Y-54150000D01*
%TO.C,C_LD2*%
X59107836Y-63560000D02*
X58892164Y-63560000D01*
X59107836Y-62840000D02*
X58892164Y-62840000D01*
%TO.C,C_LD1*%
X60057836Y-58460000D02*
X59842164Y-58460000D01*
X60057836Y-57740000D02*
X59842164Y-57740000D01*
%TO.C,C_Flash1*%
X83290000Y-72507836D02*
X83290000Y-72292164D01*
X84010000Y-72507836D02*
X84010000Y-72292164D01*
%TO.C,C_Crystal2*%
X67840000Y-94157836D02*
X67840000Y-93942164D01*
X68560000Y-94157836D02*
X68560000Y-93942164D01*
%TO.C,C_Crystal1*%
X74560000Y-93942164D02*
X74560000Y-94157836D01*
X73840000Y-93942164D02*
X73840000Y-94157836D01*
%TO.C,C_3V-Decoup9*%
X75340000Y-79707836D02*
X75340000Y-79492164D01*
X76060000Y-79707836D02*
X76060000Y-79492164D01*
%TO.C,C_3V-Decoup8*%
X69310000Y-90642164D02*
X69310000Y-90857836D01*
X68590000Y-90642164D02*
X68590000Y-90857836D01*
%TO.C,C_3V-Decoup7*%
X64157836Y-79310000D02*
X63942164Y-79310000D01*
X64157836Y-78590000D02*
X63942164Y-78590000D01*
%TO.C,C_3V-Decoup6*%
X77460000Y-86342164D02*
X77460000Y-86557836D01*
X76740000Y-86342164D02*
X76740000Y-86557836D01*
%TO.C,C_3V-Decoup5*%
X64157836Y-80360000D02*
X63942164Y-80360000D01*
X64157836Y-79640000D02*
X63942164Y-79640000D01*
%TO.C,C_3V-Decoup4*%
X64907836Y-84960000D02*
X64692164Y-84960000D01*
X64907836Y-84240000D02*
X64692164Y-84240000D01*
%TO.C,C_3V-Decoup3*%
X70540000Y-72357836D02*
X70540000Y-72142164D01*
X71260000Y-72357836D02*
X71260000Y-72142164D01*
%TO.C,C_3V-Decoup2*%
X65840000Y-76107836D02*
X65840000Y-75892164D01*
X66560000Y-76107836D02*
X66560000Y-75892164D01*
%TO.C,C_3V-Decoup1*%
X59107836Y-64610000D02*
X58892164Y-64610000D01*
X59107836Y-63890000D02*
X58892164Y-63890000D01*
%TO.C,C_1V-Decoup3*%
X67810000Y-90642164D02*
X67810000Y-90857836D01*
X67090000Y-90642164D02*
X67090000Y-90857836D01*
%TO.C,C_1V-Decoup2*%
X72260000Y-72357836D02*
X72260000Y-72142164D01*
X71540000Y-72357836D02*
X71540000Y-72142164D01*
%TO.C,C_1V-Decoup1*%
X67440000Y-75037836D02*
X67440000Y-74822164D01*
X68160000Y-75037836D02*
X68160000Y-74822164D01*
%TD*%
%LPC*%
D12*
%TO.C,MX2*%
X61936250Y-74350000D03*
X51776250Y-74350000D03*
D13*
X53046250Y-71810000D03*
D14*
X56856250Y-74350000D03*
D13*
X59396250Y-69270000D03*
%TD*%
D15*
%TO.C,U1*%
X74387500Y-81000000D03*
X74387500Y-81400000D03*
X74387500Y-81800000D03*
X74387500Y-82200000D03*
X74387500Y-82600000D03*
X74387500Y-83000000D03*
X74387500Y-83400000D03*
X74387500Y-83800000D03*
X74387500Y-84200000D03*
X74387500Y-84600000D03*
X74387500Y-85000000D03*
X74387500Y-85400000D03*
X74387500Y-85800000D03*
X74387500Y-86200000D03*
D16*
X73550000Y-87037500D03*
X73150000Y-87037500D03*
X72750000Y-87037500D03*
X72350000Y-87037500D03*
X71950000Y-87037500D03*
X71550000Y-87037500D03*
X71150000Y-87037500D03*
X70750000Y-87037500D03*
X70350000Y-87037500D03*
X69950000Y-87037500D03*
X69550000Y-87037500D03*
X69150000Y-87037500D03*
X68750000Y-87037500D03*
X68350000Y-87037500D03*
D15*
X67512500Y-86200000D03*
X67512500Y-85800000D03*
X67512500Y-85400000D03*
X67512500Y-85000000D03*
X67512500Y-84600000D03*
X67512500Y-84200000D03*
X67512500Y-83800000D03*
X67512500Y-83400000D03*
X67512500Y-83000000D03*
X67512500Y-82600000D03*
X67512500Y-82200000D03*
X67512500Y-81800000D03*
X67512500Y-81400000D03*
X67512500Y-81000000D03*
D16*
X68350000Y-80162500D03*
X68750000Y-80162500D03*
X69150000Y-80162500D03*
X69550000Y-80162500D03*
X69950000Y-80162500D03*
X70350000Y-80162500D03*
X70750000Y-80162500D03*
X71150000Y-80162500D03*
X71550000Y-80162500D03*
X71950000Y-80162500D03*
X72350000Y-80162500D03*
X72750000Y-80162500D03*
X73150000Y-80162500D03*
X73550000Y-80162500D03*
D17*
X70950000Y-83600000D03*
%TD*%
D12*
%TO.C,MX36*%
X238148750Y-74350000D03*
X227988750Y-74350000D03*
D13*
X229258750Y-71810000D03*
D14*
X233068750Y-74350000D03*
D13*
X235608750Y-69270000D03*
%TD*%
D18*
%TO.C,Y1*%
X70100000Y-93200000D03*
X72300000Y-93200000D03*
X72300000Y-94900000D03*
X70100000Y-94900000D03*
%TD*%
D19*
%TO.C,U3*%
X61400000Y-61487500D03*
X59500000Y-61487500D03*
X60450000Y-59612500D03*
%TD*%
D20*
%TO.C,U2*%
X85495000Y-65650000D03*
X86765000Y-65650000D03*
X88035000Y-65650000D03*
X89305000Y-65650000D03*
X89305000Y-72850000D03*
X88035000Y-72850000D03*
X86765000Y-72850000D03*
X85495000Y-72850000D03*
%TD*%
D21*
%TO.C,SW1*%
X86050000Y-61250000D03*
D22*
X84780000Y-61250000D03*
%TD*%
D23*
%TO.C,R_RST1*%
X49350000Y-76540000D03*
X49350000Y-77560000D03*
%TD*%
D24*
%TO.C,R_Flash1*%
X85500000Y-62990000D03*
X85500000Y-64010000D03*
%TD*%
%TO.C,R_DATA2*%
X68900000Y-73690000D03*
X68900000Y-74710000D03*
%TD*%
%TO.C,R_DATA1*%
X70000000Y-73690000D03*
X70000000Y-74710000D03*
%TD*%
D23*
%TO.C,R_Crystal1*%
X70100000Y-91260000D03*
X70100000Y-90240000D03*
%TD*%
D12*
%TO.C,MX38*%
X240530000Y-112450000D03*
X230370000Y-112450000D03*
D13*
X231640000Y-109910000D03*
D14*
X235450000Y-112450000D03*
D13*
X237990000Y-107370000D03*
%TD*%
D12*
%TO.C,MX37*%
X240530000Y-93400000D03*
X230370000Y-93400000D03*
D13*
X231640000Y-90860000D03*
D14*
X235450000Y-93400000D03*
D13*
X237990000Y-88320000D03*
%TD*%
D12*
%TO.C,MX35*%
X235767500Y-55300000D03*
X225607500Y-55300000D03*
D13*
X226877500Y-52760000D03*
D14*
X230687500Y-55300000D03*
D13*
X233227500Y-50220000D03*
%TD*%
D12*
%TO.C,MX34*%
X221480000Y-112450000D03*
X211320000Y-112450000D03*
D13*
X212590000Y-109910000D03*
D14*
X216400000Y-112450000D03*
D13*
X218940000Y-107370000D03*
%TD*%
D12*
%TO.C,MX33*%
X221480000Y-93400000D03*
X211320000Y-93400000D03*
D13*
X212590000Y-90860000D03*
D14*
X216400000Y-93400000D03*
D13*
X218940000Y-88320000D03*
%TD*%
D12*
%TO.C,MX32*%
X216717500Y-74350000D03*
X206557500Y-74350000D03*
D13*
X207827500Y-71810000D03*
D14*
X211637500Y-74350000D03*
D13*
X214177500Y-69270000D03*
%TD*%
D12*
%TO.C,MX31*%
X211955000Y-55300000D03*
X201795000Y-55300000D03*
D13*
X203065000Y-52760000D03*
D14*
X206875000Y-55300000D03*
D13*
X209415000Y-50220000D03*
%TD*%
D12*
%TO.C,MX30*%
X202430000Y-112450000D03*
X192270000Y-112450000D03*
D13*
X193540000Y-109910000D03*
D14*
X197350000Y-112450000D03*
D13*
X199890000Y-107370000D03*
%TD*%
D12*
%TO.C,MX29*%
X202430000Y-93400000D03*
X192270000Y-93400000D03*
D13*
X193540000Y-90860000D03*
D14*
X197350000Y-93400000D03*
D13*
X199890000Y-88320000D03*
%TD*%
D12*
%TO.C,MX28*%
X197667500Y-74350000D03*
X187507500Y-74350000D03*
D13*
X188777500Y-71810000D03*
D14*
X192587500Y-74350000D03*
D13*
X195127500Y-69270000D03*
%TD*%
D12*
%TO.C,MX27*%
X192905000Y-55300000D03*
X182745000Y-55300000D03*
D13*
X184015000Y-52760000D03*
D14*
X187825000Y-55300000D03*
D13*
X190365000Y-50220000D03*
%TD*%
D12*
%TO.C,MX26*%
X183380000Y-93400000D03*
X173220000Y-93400000D03*
D13*
X174490000Y-90860000D03*
D14*
X178300000Y-93400000D03*
D13*
X180840000Y-88320000D03*
%TD*%
D12*
%TO.C,MX25*%
X178617500Y-74350000D03*
X168457500Y-74350000D03*
D13*
X169727500Y-71810000D03*
D14*
X173537500Y-74350000D03*
D13*
X176077500Y-69270000D03*
%TD*%
D12*
%TO.C,MX24*%
X173855000Y-55300000D03*
X163695000Y-55300000D03*
D13*
X164965000Y-52760000D03*
D14*
X168775000Y-55300000D03*
D13*
X171315000Y-50220000D03*
%TD*%
D12*
%TO.C,MX23*%
X171473750Y-117212500D03*
X161313750Y-117212500D03*
D13*
X162583750Y-114672500D03*
D14*
X166393750Y-117212500D03*
D13*
X168933750Y-112132500D03*
%TD*%
D12*
%TO.C,MX22*%
X164330000Y-93400000D03*
X154170000Y-93400000D03*
D13*
X155440000Y-90860000D03*
D14*
X159250000Y-93400000D03*
D13*
X161790000Y-88320000D03*
%TD*%
D12*
%TO.C,MX21*%
X159567500Y-74350000D03*
X149407500Y-74350000D03*
D13*
X150677500Y-71810000D03*
D14*
X154487500Y-74350000D03*
D13*
X157027500Y-69270000D03*
%TD*%
D12*
%TO.C,MX20*%
X154805000Y-55300000D03*
X144645000Y-55300000D03*
D13*
X145915000Y-52760000D03*
D14*
X149725000Y-55300000D03*
D13*
X152265000Y-50220000D03*
%TD*%
D12*
%TO.C,MX19*%
X138136250Y-117212500D03*
X127976250Y-117212500D03*
D13*
X129246250Y-114672500D03*
D14*
X133056250Y-117212500D03*
D13*
X135596250Y-112132500D03*
%TD*%
%TO.C,MX18*%
X142740000Y-88320000D03*
D14*
X140200000Y-93400000D03*
D13*
X136390000Y-90860000D03*
D12*
X135120000Y-93400000D03*
X145280000Y-93400000D03*
%TD*%
%TO.C,MX17*%
X140517500Y-74350000D03*
X130357500Y-74350000D03*
D13*
X131627500Y-71810000D03*
D14*
X135437500Y-74350000D03*
D13*
X137977500Y-69270000D03*
%TD*%
D12*
%TO.C,MX16*%
X135755000Y-55300000D03*
X125595000Y-55300000D03*
D13*
X126865000Y-52760000D03*
D14*
X130675000Y-55300000D03*
D13*
X133215000Y-50220000D03*
%TD*%
D12*
%TO.C,MX15*%
X126230000Y-93400000D03*
X116070000Y-93400000D03*
D13*
X117340000Y-90860000D03*
D14*
X121150000Y-93400000D03*
D13*
X123690000Y-88320000D03*
%TD*%
D12*
%TO.C,MX14*%
X121467500Y-74350000D03*
X111307500Y-74350000D03*
D13*
X112577500Y-71810000D03*
D14*
X116387500Y-74350000D03*
D13*
X118927500Y-69270000D03*
%TD*%
D12*
%TO.C,MX13*%
X116705000Y-55300000D03*
X106545000Y-55300000D03*
D13*
X107815000Y-52760000D03*
D14*
X111625000Y-55300000D03*
D13*
X114165000Y-50220000D03*
%TD*%
D12*
%TO.C,MX12*%
X104798750Y-112450000D03*
X94638750Y-112450000D03*
D13*
X95908750Y-109910000D03*
D14*
X99718750Y-112450000D03*
D13*
X102258750Y-107370000D03*
%TD*%
D12*
%TO.C,MX11*%
X107180000Y-93400000D03*
X97020000Y-93400000D03*
D13*
X98290000Y-90860000D03*
D14*
X102100000Y-93400000D03*
D13*
X104640000Y-88320000D03*
%TD*%
D12*
%TO.C,MX10*%
X102417500Y-74350000D03*
X92257500Y-74350000D03*
D13*
X93527500Y-71810000D03*
D14*
X97337500Y-74350000D03*
D13*
X99877500Y-69270000D03*
%TD*%
D12*
%TO.C,MX9*%
X97655000Y-55300000D03*
X87495000Y-55300000D03*
D13*
X88765000Y-52760000D03*
D14*
X92575000Y-55300000D03*
D13*
X95115000Y-50220000D03*
%TD*%
D12*
%TO.C,MX8*%
X83367500Y-112450000D03*
X73207500Y-112450000D03*
D13*
X74477500Y-109910000D03*
D14*
X78287500Y-112450000D03*
D13*
X80827500Y-107370000D03*
%TD*%
D12*
%TO.C,MX7*%
X88130000Y-93400000D03*
X77970000Y-93400000D03*
D13*
X79240000Y-90860000D03*
D14*
X83050000Y-93400000D03*
D13*
X85590000Y-88320000D03*
%TD*%
D12*
%TO.C,MX6*%
X83367500Y-74350000D03*
X73207500Y-74350000D03*
D13*
X74477500Y-71810000D03*
D14*
X78287500Y-74350000D03*
D13*
X80827500Y-69270000D03*
%TD*%
D12*
%TO.C,MX5*%
X78605000Y-55300000D03*
X68445000Y-55300000D03*
D13*
X69715000Y-52760000D03*
D14*
X73525000Y-55300000D03*
D13*
X76065000Y-50220000D03*
%TD*%
D12*
%TO.C,MX4*%
X61936250Y-112450000D03*
X51776250Y-112450000D03*
D13*
X53046250Y-109910000D03*
D14*
X56856250Y-112450000D03*
D13*
X59396250Y-107370000D03*
%TD*%
D12*
%TO.C,MX3*%
X64317500Y-93400000D03*
X54157500Y-93400000D03*
D13*
X55427500Y-90860000D03*
D14*
X59237500Y-93400000D03*
D13*
X61777500Y-88320000D03*
%TD*%
%TO.C,MX1*%
X57015000Y-50220000D03*
D14*
X54475000Y-55300000D03*
D13*
X50665000Y-52760000D03*
D12*
X49395000Y-55300000D03*
X59555000Y-55300000D03*
%TD*%
D25*
%TO.C,J2*%
X46800000Y-76025000D03*
D26*
X46800000Y-78565000D03*
X46800000Y-81105000D03*
X46800000Y-83645000D03*
X46800000Y-86185000D03*
%TD*%
D27*
%TO.C,J1*%
X65200000Y-63300000D03*
X65200000Y-64300000D03*
X65200000Y-65300000D03*
X65200000Y-66300000D03*
D28*
X69075000Y-67600000D03*
X69075000Y-62000000D03*
%TD*%
D29*
%TO.C,D38*%
X238550000Y-114600000D03*
X238550000Y-111300000D03*
%TD*%
%TO.C,D37*%
X238550000Y-95550000D03*
X238550000Y-92250000D03*
%TD*%
%TO.C,D36*%
X236168750Y-76500000D03*
X236168750Y-73200000D03*
%TD*%
%TO.C,D35*%
X233787500Y-57450000D03*
X233787500Y-54150000D03*
%TD*%
%TO.C,D34*%
X219500000Y-114600000D03*
X219500000Y-111300000D03*
%TD*%
%TO.C,D33*%
X219500000Y-95550000D03*
X219500000Y-92250000D03*
%TD*%
%TO.C,D32*%
X214737500Y-76500000D03*
X214737500Y-73200000D03*
%TD*%
%TO.C,D31*%
X209975000Y-57450000D03*
X209975000Y-54150000D03*
%TD*%
%TO.C,D30*%
X200450000Y-114600000D03*
X200450000Y-111300000D03*
%TD*%
%TO.C,D29*%
X200450000Y-95550000D03*
X200450000Y-92250000D03*
%TD*%
%TO.C,D28*%
X195687500Y-76500000D03*
X195687500Y-73200000D03*
%TD*%
%TO.C,D27*%
X190925000Y-57450000D03*
X190925000Y-54150000D03*
%TD*%
%TO.C,D26*%
X181400000Y-95550000D03*
X181400000Y-92250000D03*
%TD*%
%TO.C,D25*%
X176637500Y-76500000D03*
X176637500Y-73200000D03*
%TD*%
%TO.C,D24*%
X171875000Y-57450000D03*
X171875000Y-54150000D03*
%TD*%
%TO.C,D23*%
X169493750Y-119362500D03*
X169493750Y-116062500D03*
%TD*%
%TO.C,D22*%
X162350000Y-95550000D03*
X162350000Y-92250000D03*
%TD*%
%TO.C,D21*%
X157587500Y-76500000D03*
X157587500Y-73200000D03*
%TD*%
%TO.C,D20*%
X152825000Y-57450000D03*
X152825000Y-54150000D03*
%TD*%
%TO.C,D19*%
X136156250Y-119362500D03*
X136156250Y-116062500D03*
%TD*%
%TO.C,D18*%
X143300000Y-95550000D03*
X143300000Y-92250000D03*
%TD*%
%TO.C,D17*%
X138537500Y-76500000D03*
X138537500Y-73200000D03*
%TD*%
%TO.C,D16*%
X133775000Y-57450000D03*
X133775000Y-54150000D03*
%TD*%
%TO.C,D15*%
X124250000Y-95550000D03*
X124250000Y-92250000D03*
%TD*%
%TO.C,D14*%
X119487500Y-76500000D03*
X119487500Y-73200000D03*
%TD*%
%TO.C,D13*%
X114725000Y-57450000D03*
X114725000Y-54150000D03*
%TD*%
%TO.C,D12*%
X102818750Y-114600000D03*
X102818750Y-111300000D03*
%TD*%
%TO.C,D11*%
X105200000Y-95550000D03*
X105200000Y-92250000D03*
%TD*%
%TO.C,D10*%
X100437500Y-76500000D03*
X100437500Y-73200000D03*
%TD*%
%TO.C,D9*%
X95675000Y-57450000D03*
X95675000Y-54150000D03*
%TD*%
%TO.C,D8*%
X81387500Y-114600000D03*
X81387500Y-111300000D03*
%TD*%
%TO.C,D7*%
X86150000Y-95550000D03*
X86150000Y-92250000D03*
%TD*%
%TO.C,D6*%
X81387500Y-76000000D03*
X81387500Y-72700000D03*
%TD*%
%TO.C,D5*%
X76625000Y-57550000D03*
X76625000Y-54250000D03*
%TD*%
%TO.C,D4*%
X59956250Y-114600000D03*
X59956250Y-111300000D03*
%TD*%
%TO.C,D3*%
X62337500Y-95550000D03*
X62337500Y-92250000D03*
%TD*%
%TO.C,D2*%
X59956250Y-76000000D03*
X59956250Y-72700000D03*
%TD*%
%TO.C,D1*%
X57575000Y-57450000D03*
X57575000Y-54150000D03*
%TD*%
D30*
%TO.C,C_LD2*%
X59480000Y-63200000D03*
X58520000Y-63200000D03*
%TD*%
%TO.C,C_LD1*%
X60430000Y-58100000D03*
X59470000Y-58100000D03*
%TD*%
D31*
%TO.C,C_Flash1*%
X83650000Y-72880000D03*
X83650000Y-71920000D03*
%TD*%
%TO.C,C_Crystal2*%
X68200000Y-94530000D03*
X68200000Y-93570000D03*
%TD*%
D32*
%TO.C,C_Crystal1*%
X74200000Y-93570000D03*
X74200000Y-94530000D03*
%TD*%
D31*
%TO.C,C_3V-Decoup9*%
X75700000Y-80080000D03*
X75700000Y-79120000D03*
%TD*%
D32*
%TO.C,C_3V-Decoup8*%
X68950000Y-90270000D03*
X68950000Y-91230000D03*
%TD*%
D30*
%TO.C,C_3V-Decoup7*%
X64530000Y-78950000D03*
X63570000Y-78950000D03*
%TD*%
D32*
%TO.C,C_3V-Decoup6*%
X77100000Y-85970000D03*
X77100000Y-86930000D03*
%TD*%
D30*
%TO.C,C_3V-Decoup5*%
X64530000Y-80000000D03*
X63570000Y-80000000D03*
%TD*%
%TO.C,C_3V-Decoup4*%
X65280000Y-84600000D03*
X64320000Y-84600000D03*
%TD*%
D31*
%TO.C,C_3V-Decoup3*%
X70900000Y-72730000D03*
X70900000Y-71770000D03*
%TD*%
%TO.C,C_3V-Decoup2*%
X66200000Y-76480000D03*
X66200000Y-75520000D03*
%TD*%
D30*
%TO.C,C_3V-Decoup1*%
X59480000Y-64250000D03*
X58520000Y-64250000D03*
%TD*%
D32*
%TO.C,C_1V-Decoup3*%
X67450000Y-90270000D03*
X67450000Y-91230000D03*
%TD*%
D31*
%TO.C,C_1V-Decoup2*%
X71900000Y-71770000D03*
X71900000Y-72730000D03*
%TD*%
%TO.C,C_1V-Decoup1*%
X67800000Y-75410000D03*
X67800000Y-74450000D03*
%TD*%
D33*
X73650000Y-75800000D03*
X65355000Y-89745000D03*
X77100000Y-96700000D03*
X62750000Y-114600000D03*
X62500000Y-98650000D03*
X77450000Y-100000000D03*
X54750000Y-72800000D03*
X60655750Y-77146910D03*
X92600000Y-75950000D03*
X77150000Y-97950000D03*
X56150000Y-97850000D03*
X51150000Y-81650000D03*
X59956250Y-79225140D03*
X80100000Y-93250000D03*
X83750000Y-76000000D03*
X71950000Y-61600000D03*
X69950000Y-56050000D03*
X53000000Y-88600000D03*
X53000000Y-77800000D03*
X65849500Y-88402094D03*
X75400000Y-73800000D03*
X84550000Y-72850000D03*
X89300000Y-67150000D03*
X75250000Y-57800000D03*
X60150000Y-56950000D03*
X66600000Y-89950000D03*
X71250000Y-91650000D03*
X74200000Y-92550000D03*
X68200000Y-95950000D03*
X64300000Y-83800000D03*
X63050000Y-73330000D03*
X70700000Y-75850000D03*
X71500000Y-76650000D03*
X63400000Y-65850000D03*
X67900000Y-65950000D03*
X62700000Y-62250000D03*
X62700000Y-58950000D03*
X61900000Y-63100000D03*
X62400000Y-78250000D03*
X76950000Y-79550000D03*
X70350000Y-85800000D03*
X70400000Y-81350000D03*
X76500000Y-87700000D03*
M02*
