%TF.GenerationSoftware,KiCad,Pcbnew,(7.0.0-0)*%
%TF.CreationDate,2023-07-17T12:18:46-04:00*%
%TF.ProjectId,cutiepie2040_ortho,63757469-6570-4696-9532-3034305f6f72,rev?*%
%TF.SameCoordinates,Original*%
%TF.FileFunction,Legend,Bot*%
%TF.FilePolarity,Positive*%
%FSLAX46Y46*%
G04 Gerber Fmt 4.6, Leading zero omitted, Abs format (unit mm)*
G04 Created by KiCad (PCBNEW (7.0.0-0)) date 2023-07-17 12:18:46*
%MOMM*%
%LPD*%
G01*
G04 APERTURE LIST*
G04 Aperture macros list*
%AMRoundRect*
0 Rectangle with rounded corners*
0 $1 Rounding radius*
0 $2 $3 $4 $5 $6 $7 $8 $9 X,Y pos of 4 corners*
0 Add a 4 corners polygon primitive as box body*
4,1,4,$2,$3,$4,$5,$6,$7,$8,$9,$2,$3,0*
0 Add four circle primitives for the rounded corners*
1,1,$1+$1,$2,$3*
1,1,$1+$1,$4,$5*
1,1,$1+$1,$6,$7*
1,1,$1+$1,$8,$9*
0 Add four rect primitives between the rounded corners*
20,1,$1+$1,$2,$3,$4,$5,0*
20,1,$1+$1,$4,$5,$6,$7,0*
20,1,$1+$1,$6,$7,$8,$9,0*
20,1,$1+$1,$8,$9,$2,$3,0*%
G04 Aperture macros list end*
%ADD10C,0.150000*%
%ADD11C,0.120000*%
%ADD12C,1.750000*%
%ADD13C,3.987800*%
%ADD14C,2.250000*%
%ADD15C,3.048000*%
%ADD16RoundRect,0.140000X0.170000X-0.140000X0.170000X0.140000X-0.170000X0.140000X-0.170000X-0.140000X0*%
%ADD17R,0.900000X1.200000*%
%ADD18R,1.200000X0.900000*%
%ADD19RoundRect,0.140000X-0.140000X-0.170000X0.140000X-0.170000X0.140000X0.170000X-0.140000X0.170000X0*%
%ADD20RoundRect,0.135000X0.185000X-0.135000X0.185000X0.135000X-0.185000X0.135000X-0.185000X-0.135000X0*%
%ADD21RoundRect,0.135000X-0.185000X0.135000X-0.185000X-0.135000X0.185000X-0.135000X0.185000X0.135000X0*%
%ADD22R,1.000000X1.000000*%
%ADD23O,1.000000X1.000000*%
%ADD24RoundRect,0.140000X0.140000X0.170000X-0.140000X0.170000X-0.140000X-0.170000X0.140000X-0.170000X0*%
%ADD25RoundRect,0.140000X-0.170000X0.140000X-0.170000X-0.140000X0.170000X-0.140000X0.170000X0.140000X0*%
%ADD26RoundRect,0.150000X0.150000X-0.587500X0.150000X0.587500X-0.150000X0.587500X-0.150000X-0.587500X0*%
%ADD27RoundRect,0.150000X-0.150000X0.650000X-0.150000X-0.650000X0.150000X-0.650000X0.150000X0.650000X0*%
%ADD28RoundRect,0.050000X0.387500X0.050000X-0.387500X0.050000X-0.387500X-0.050000X0.387500X-0.050000X0*%
%ADD29RoundRect,0.050000X0.050000X0.387500X-0.050000X0.387500X-0.050000X-0.387500X0.050000X-0.387500X0*%
%ADD30RoundRect,0.144000X1.456000X1.456000X-1.456000X1.456000X-1.456000X-1.456000X1.456000X-1.456000X0*%
%ADD31R,1.700000X1.700000*%
%ADD32O,1.700000X1.700000*%
%ADD33RoundRect,0.150000X-0.625000X0.150000X-0.625000X-0.150000X0.625000X-0.150000X0.625000X0.150000X0*%
%ADD34RoundRect,0.250000X-0.650000X0.350000X-0.650000X-0.350000X0.650000X-0.350000X0.650000X0.350000X0*%
%ADD35R,1.200000X1.400000*%
G04 APERTURE END LIST*
D10*
X167657142Y-114467380D02*
X168228570Y-114467380D01*
X167942856Y-114467380D02*
X167942856Y-113467380D01*
X167942856Y-113467380D02*
X168038094Y-113610238D01*
X168038094Y-113610238D02*
X168133332Y-113705476D01*
X168133332Y-113705476D02*
X168228570Y-113753095D01*
X167228570Y-114372142D02*
X167180951Y-114419761D01*
X167180951Y-114419761D02*
X167228570Y-114467380D01*
X167228570Y-114467380D02*
X167276189Y-114419761D01*
X167276189Y-114419761D02*
X167228570Y-114372142D01*
X167228570Y-114372142D02*
X167228570Y-114467380D01*
X166847618Y-113467380D02*
X166180952Y-113467380D01*
X166180952Y-113467380D02*
X166609523Y-114467380D01*
X165323809Y-113467380D02*
X165799999Y-113467380D01*
X165799999Y-113467380D02*
X165847618Y-113943571D01*
X165847618Y-113943571D02*
X165799999Y-113895952D01*
X165799999Y-113895952D02*
X165704761Y-113848333D01*
X165704761Y-113848333D02*
X165466666Y-113848333D01*
X165466666Y-113848333D02*
X165371428Y-113895952D01*
X165371428Y-113895952D02*
X165323809Y-113943571D01*
X165323809Y-113943571D02*
X165276190Y-114038809D01*
X165276190Y-114038809D02*
X165276190Y-114276904D01*
X165276190Y-114276904D02*
X165323809Y-114372142D01*
X165323809Y-114372142D02*
X165371428Y-114419761D01*
X165371428Y-114419761D02*
X165466666Y-114467380D01*
X165466666Y-114467380D02*
X165704761Y-114467380D01*
X165704761Y-114467380D02*
X165799999Y-114419761D01*
X165799999Y-114419761D02*
X165847618Y-114372142D01*
X164419047Y-113800714D02*
X164419047Y-114467380D01*
X164847618Y-113800714D02*
X164847618Y-114324523D01*
X164847618Y-114324523D02*
X164799999Y-114419761D01*
X164799999Y-114419761D02*
X164704761Y-114467380D01*
X164704761Y-114467380D02*
X164561904Y-114467380D01*
X164561904Y-114467380D02*
X164466666Y-114419761D01*
X164466666Y-114419761D02*
X164419047Y-114372142D01*
X50938094Y-78167380D02*
X50319047Y-78167380D01*
X50319047Y-78167380D02*
X50652380Y-78548333D01*
X50652380Y-78548333D02*
X50509523Y-78548333D01*
X50509523Y-78548333D02*
X50414285Y-78595952D01*
X50414285Y-78595952D02*
X50366666Y-78643571D01*
X50366666Y-78643571D02*
X50319047Y-78738809D01*
X50319047Y-78738809D02*
X50319047Y-78976904D01*
X50319047Y-78976904D02*
X50366666Y-79072142D01*
X50366666Y-79072142D02*
X50414285Y-79119761D01*
X50414285Y-79119761D02*
X50509523Y-79167380D01*
X50509523Y-79167380D02*
X50795237Y-79167380D01*
X50795237Y-79167380D02*
X50890475Y-79119761D01*
X50890475Y-79119761D02*
X50938094Y-79072142D01*
X50033332Y-78167380D02*
X49699999Y-79167380D01*
X49699999Y-79167380D02*
X49366666Y-78167380D01*
X49128570Y-78167380D02*
X48509523Y-78167380D01*
X48509523Y-78167380D02*
X48842856Y-78548333D01*
X48842856Y-78548333D02*
X48699999Y-78548333D01*
X48699999Y-78548333D02*
X48604761Y-78595952D01*
X48604761Y-78595952D02*
X48557142Y-78643571D01*
X48557142Y-78643571D02*
X48509523Y-78738809D01*
X48509523Y-78738809D02*
X48509523Y-78976904D01*
X48509523Y-78976904D02*
X48557142Y-79072142D01*
X48557142Y-79072142D02*
X48604761Y-79119761D01*
X48604761Y-79119761D02*
X48699999Y-79167380D01*
X48699999Y-79167380D02*
X48985713Y-79167380D01*
X48985713Y-79167380D02*
X49080951Y-79119761D01*
X49080951Y-79119761D02*
X49128570Y-79072142D01*
X173661904Y-104100714D02*
X173661904Y-104767380D01*
X173899999Y-103719761D02*
X174138094Y-104434047D01*
X174138094Y-104434047D02*
X173519047Y-104434047D01*
X172709523Y-104100714D02*
X172709523Y-104767380D01*
X173138094Y-104100714D02*
X173138094Y-104624523D01*
X173138094Y-104624523D02*
X173090475Y-104719761D01*
X173090475Y-104719761D02*
X172995237Y-104767380D01*
X172995237Y-104767380D02*
X172852380Y-104767380D01*
X172852380Y-104767380D02*
X172757142Y-104719761D01*
X172757142Y-104719761D02*
X172709523Y-104672142D01*
X117138094Y-103562619D02*
X117090475Y-103515000D01*
X117090475Y-103515000D02*
X116995237Y-103467380D01*
X116995237Y-103467380D02*
X116757142Y-103467380D01*
X116757142Y-103467380D02*
X116661904Y-103515000D01*
X116661904Y-103515000D02*
X116614285Y-103562619D01*
X116614285Y-103562619D02*
X116566666Y-103657857D01*
X116566666Y-103657857D02*
X116566666Y-103753095D01*
X116566666Y-103753095D02*
X116614285Y-103895952D01*
X116614285Y-103895952D02*
X117185713Y-104467380D01*
X117185713Y-104467380D02*
X116566666Y-104467380D01*
X115709523Y-103800714D02*
X115709523Y-104467380D01*
X116138094Y-103800714D02*
X116138094Y-104324523D01*
X116138094Y-104324523D02*
X116090475Y-104419761D01*
X116090475Y-104419761D02*
X115995237Y-104467380D01*
X115995237Y-104467380D02*
X115852380Y-104467380D01*
X115852380Y-104467380D02*
X115757142Y-104419761D01*
X115757142Y-104419761D02*
X115709523Y-104372142D01*
X74285713Y-114857380D02*
X73666666Y-114857380D01*
X73666666Y-114857380D02*
X73999999Y-115238333D01*
X73999999Y-115238333D02*
X73857142Y-115238333D01*
X73857142Y-115238333D02*
X73761904Y-115285952D01*
X73761904Y-115285952D02*
X73714285Y-115333571D01*
X73714285Y-115333571D02*
X73666666Y-115428809D01*
X73666666Y-115428809D02*
X73666666Y-115666904D01*
X73666666Y-115666904D02*
X73714285Y-115762142D01*
X73714285Y-115762142D02*
X73761904Y-115809761D01*
X73761904Y-115809761D02*
X73857142Y-115857380D01*
X73857142Y-115857380D02*
X74142856Y-115857380D01*
X74142856Y-115857380D02*
X74238094Y-115809761D01*
X74238094Y-115809761D02*
X74285713Y-115762142D01*
X72809523Y-115190714D02*
X72809523Y-115857380D01*
X73238094Y-115190714D02*
X73238094Y-115714523D01*
X73238094Y-115714523D02*
X73190475Y-115809761D01*
X73190475Y-115809761D02*
X73095237Y-115857380D01*
X73095237Y-115857380D02*
X72952380Y-115857380D01*
X72952380Y-115857380D02*
X72857142Y-115809761D01*
X72857142Y-115809761D02*
X72809523Y-115762142D01*
X73761904Y-116810714D02*
X73761904Y-117477380D01*
X73999999Y-116429761D02*
X74238094Y-117144047D01*
X74238094Y-117144047D02*
X73619047Y-117144047D01*
X72809523Y-116810714D02*
X72809523Y-117477380D01*
X73238094Y-116810714D02*
X73238094Y-117334523D01*
X73238094Y-117334523D02*
X73190475Y-117429761D01*
X73190475Y-117429761D02*
X73095237Y-117477380D01*
X73095237Y-117477380D02*
X72952380Y-117477380D01*
X72952380Y-117477380D02*
X72857142Y-117429761D01*
X72857142Y-117429761D02*
X72809523Y-117382142D01*
X155285713Y-113367380D02*
X154666666Y-113367380D01*
X154666666Y-113367380D02*
X154999999Y-113748333D01*
X154999999Y-113748333D02*
X154857142Y-113748333D01*
X154857142Y-113748333D02*
X154761904Y-113795952D01*
X154761904Y-113795952D02*
X154714285Y-113843571D01*
X154714285Y-113843571D02*
X154666666Y-113938809D01*
X154666666Y-113938809D02*
X154666666Y-114176904D01*
X154666666Y-114176904D02*
X154714285Y-114272142D01*
X154714285Y-114272142D02*
X154761904Y-114319761D01*
X154761904Y-114319761D02*
X154857142Y-114367380D01*
X154857142Y-114367380D02*
X155142856Y-114367380D01*
X155142856Y-114367380D02*
X155238094Y-114319761D01*
X155238094Y-114319761D02*
X155285713Y-114272142D01*
X153809523Y-113700714D02*
X153809523Y-114367380D01*
X154238094Y-113700714D02*
X154238094Y-114224523D01*
X154238094Y-114224523D02*
X154190475Y-114319761D01*
X154190475Y-114319761D02*
X154095237Y-114367380D01*
X154095237Y-114367380D02*
X153952380Y-114367380D01*
X153952380Y-114367380D02*
X153857142Y-114319761D01*
X153857142Y-114319761D02*
X153809523Y-114272142D01*
X55085713Y-114957380D02*
X54466666Y-114957380D01*
X54466666Y-114957380D02*
X54799999Y-115338333D01*
X54799999Y-115338333D02*
X54657142Y-115338333D01*
X54657142Y-115338333D02*
X54561904Y-115385952D01*
X54561904Y-115385952D02*
X54514285Y-115433571D01*
X54514285Y-115433571D02*
X54466666Y-115528809D01*
X54466666Y-115528809D02*
X54466666Y-115766904D01*
X54466666Y-115766904D02*
X54514285Y-115862142D01*
X54514285Y-115862142D02*
X54561904Y-115909761D01*
X54561904Y-115909761D02*
X54657142Y-115957380D01*
X54657142Y-115957380D02*
X54942856Y-115957380D01*
X54942856Y-115957380D02*
X55038094Y-115909761D01*
X55038094Y-115909761D02*
X55085713Y-115862142D01*
X53609523Y-115290714D02*
X53609523Y-115957380D01*
X54038094Y-115290714D02*
X54038094Y-115814523D01*
X54038094Y-115814523D02*
X53990475Y-115909761D01*
X53990475Y-115909761D02*
X53895237Y-115957380D01*
X53895237Y-115957380D02*
X53752380Y-115957380D01*
X53752380Y-115957380D02*
X53657142Y-115909761D01*
X53657142Y-115909761D02*
X53609523Y-115862142D01*
X54561904Y-116910714D02*
X54561904Y-117577380D01*
X54799999Y-116529761D02*
X55038094Y-117244047D01*
X55038094Y-117244047D02*
X54419047Y-117244047D01*
X53609523Y-116910714D02*
X53609523Y-117577380D01*
X54038094Y-116910714D02*
X54038094Y-117434523D01*
X54038094Y-117434523D02*
X53990475Y-117529761D01*
X53990475Y-117529761D02*
X53895237Y-117577380D01*
X53895237Y-117577380D02*
X53752380Y-117577380D01*
X53752380Y-117577380D02*
X53657142Y-117529761D01*
X53657142Y-117529761D02*
X53609523Y-117482142D01*
X49052381Y-74367380D02*
X49385714Y-73891190D01*
X49623809Y-74367380D02*
X49623809Y-73367380D01*
X49623809Y-73367380D02*
X49242857Y-73367380D01*
X49242857Y-73367380D02*
X49147619Y-73415000D01*
X49147619Y-73415000D02*
X49100000Y-73462619D01*
X49100000Y-73462619D02*
X49052381Y-73557857D01*
X49052381Y-73557857D02*
X49052381Y-73700714D01*
X49052381Y-73700714D02*
X49100000Y-73795952D01*
X49100000Y-73795952D02*
X49147619Y-73843571D01*
X49147619Y-73843571D02*
X49242857Y-73891190D01*
X49242857Y-73891190D02*
X49623809Y-73891190D01*
X48623809Y-73843571D02*
X48290476Y-73843571D01*
X48147619Y-74367380D02*
X48623809Y-74367380D01*
X48623809Y-74367380D02*
X48623809Y-73367380D01*
X48623809Y-73367380D02*
X48147619Y-73367380D01*
X47766666Y-74319761D02*
X47623809Y-74367380D01*
X47623809Y-74367380D02*
X47385714Y-74367380D01*
X47385714Y-74367380D02*
X47290476Y-74319761D01*
X47290476Y-74319761D02*
X47242857Y-74272142D01*
X47242857Y-74272142D02*
X47195238Y-74176904D01*
X47195238Y-74176904D02*
X47195238Y-74081666D01*
X47195238Y-74081666D02*
X47242857Y-73986428D01*
X47242857Y-73986428D02*
X47290476Y-73938809D01*
X47290476Y-73938809D02*
X47385714Y-73891190D01*
X47385714Y-73891190D02*
X47576190Y-73843571D01*
X47576190Y-73843571D02*
X47671428Y-73795952D01*
X47671428Y-73795952D02*
X47719047Y-73748333D01*
X47719047Y-73748333D02*
X47766666Y-73653095D01*
X47766666Y-73653095D02*
X47766666Y-73557857D01*
X47766666Y-73557857D02*
X47719047Y-73462619D01*
X47719047Y-73462619D02*
X47671428Y-73415000D01*
X47671428Y-73415000D02*
X47576190Y-73367380D01*
X47576190Y-73367380D02*
X47338095Y-73367380D01*
X47338095Y-73367380D02*
X47195238Y-73415000D01*
X46766666Y-73843571D02*
X46433333Y-73843571D01*
X46290476Y-74367380D02*
X46766666Y-74367380D01*
X46766666Y-74367380D02*
X46766666Y-73367380D01*
X46766666Y-73367380D02*
X46290476Y-73367380D01*
X46004761Y-73367380D02*
X45433333Y-73367380D01*
X45719047Y-74367380D02*
X45719047Y-73367380D01*
X50561904Y-80615000D02*
X50657142Y-80567380D01*
X50657142Y-80567380D02*
X50799999Y-80567380D01*
X50799999Y-80567380D02*
X50942856Y-80615000D01*
X50942856Y-80615000D02*
X51038094Y-80710238D01*
X51038094Y-80710238D02*
X51085713Y-80805476D01*
X51085713Y-80805476D02*
X51133332Y-80995952D01*
X51133332Y-80995952D02*
X51133332Y-81138809D01*
X51133332Y-81138809D02*
X51085713Y-81329285D01*
X51085713Y-81329285D02*
X51038094Y-81424523D01*
X51038094Y-81424523D02*
X50942856Y-81519761D01*
X50942856Y-81519761D02*
X50799999Y-81567380D01*
X50799999Y-81567380D02*
X50704761Y-81567380D01*
X50704761Y-81567380D02*
X50561904Y-81519761D01*
X50561904Y-81519761D02*
X50514285Y-81472142D01*
X50514285Y-81472142D02*
X50514285Y-81138809D01*
X50514285Y-81138809D02*
X50704761Y-81138809D01*
X50085713Y-81567380D02*
X50085713Y-80567380D01*
X50085713Y-80567380D02*
X49514285Y-81567380D01*
X49514285Y-81567380D02*
X49514285Y-80567380D01*
X49038094Y-81567380D02*
X49038094Y-80567380D01*
X49038094Y-80567380D02*
X48799999Y-80567380D01*
X48799999Y-80567380D02*
X48657142Y-80615000D01*
X48657142Y-80615000D02*
X48561904Y-80710238D01*
X48561904Y-80710238D02*
X48514285Y-80805476D01*
X48514285Y-80805476D02*
X48466666Y-80995952D01*
X48466666Y-80995952D02*
X48466666Y-81138809D01*
X48466666Y-81138809D02*
X48514285Y-81329285D01*
X48514285Y-81329285D02*
X48561904Y-81424523D01*
X48561904Y-81424523D02*
X48657142Y-81519761D01*
X48657142Y-81519761D02*
X48799999Y-81567380D01*
X48799999Y-81567380D02*
X49038094Y-81567380D01*
X164538094Y-119862619D02*
X164490475Y-119815000D01*
X164490475Y-119815000D02*
X164395237Y-119767380D01*
X164395237Y-119767380D02*
X164157142Y-119767380D01*
X164157142Y-119767380D02*
X164061904Y-119815000D01*
X164061904Y-119815000D02*
X164014285Y-119862619D01*
X164014285Y-119862619D02*
X163966666Y-119957857D01*
X163966666Y-119957857D02*
X163966666Y-120053095D01*
X163966666Y-120053095D02*
X164014285Y-120195952D01*
X164014285Y-120195952D02*
X164585713Y-120767380D01*
X164585713Y-120767380D02*
X163966666Y-120767380D01*
X163109523Y-120100714D02*
X163109523Y-120767380D01*
X163538094Y-120100714D02*
X163538094Y-120624523D01*
X163538094Y-120624523D02*
X163490475Y-120719761D01*
X163490475Y-120719761D02*
X163395237Y-120767380D01*
X163395237Y-120767380D02*
X163252380Y-120767380D01*
X163252380Y-120767380D02*
X163157142Y-120719761D01*
X163157142Y-120719761D02*
X163109523Y-120672142D01*
X136285713Y-105167380D02*
X135666666Y-105167380D01*
X135666666Y-105167380D02*
X135999999Y-105548333D01*
X135999999Y-105548333D02*
X135857142Y-105548333D01*
X135857142Y-105548333D02*
X135761904Y-105595952D01*
X135761904Y-105595952D02*
X135714285Y-105643571D01*
X135714285Y-105643571D02*
X135666666Y-105738809D01*
X135666666Y-105738809D02*
X135666666Y-105976904D01*
X135666666Y-105976904D02*
X135714285Y-106072142D01*
X135714285Y-106072142D02*
X135761904Y-106119761D01*
X135761904Y-106119761D02*
X135857142Y-106167380D01*
X135857142Y-106167380D02*
X136142856Y-106167380D01*
X136142856Y-106167380D02*
X136238094Y-106119761D01*
X136238094Y-106119761D02*
X136285713Y-106072142D01*
X134809523Y-105500714D02*
X134809523Y-106167380D01*
X135238094Y-105500714D02*
X135238094Y-106024523D01*
X135238094Y-106024523D02*
X135190475Y-106119761D01*
X135190475Y-106119761D02*
X135095237Y-106167380D01*
X135095237Y-106167380D02*
X134952380Y-106167380D01*
X134952380Y-106167380D02*
X134857142Y-106119761D01*
X134857142Y-106119761D02*
X134809523Y-106072142D01*
X116661904Y-105400714D02*
X116661904Y-106067380D01*
X116899999Y-105019761D02*
X117138094Y-105734047D01*
X117138094Y-105734047D02*
X116519047Y-105734047D01*
X115709523Y-105400714D02*
X115709523Y-106067380D01*
X116138094Y-105400714D02*
X116138094Y-105924523D01*
X116138094Y-105924523D02*
X116090475Y-106019761D01*
X116090475Y-106019761D02*
X115995237Y-106067380D01*
X115995237Y-106067380D02*
X115852380Y-106067380D01*
X115852380Y-106067380D02*
X115757142Y-106019761D01*
X115757142Y-106019761D02*
X115709523Y-105972142D01*
X74238094Y-118162619D02*
X74190475Y-118115000D01*
X74190475Y-118115000D02*
X74095237Y-118067380D01*
X74095237Y-118067380D02*
X73857142Y-118067380D01*
X73857142Y-118067380D02*
X73761904Y-118115000D01*
X73761904Y-118115000D02*
X73714285Y-118162619D01*
X73714285Y-118162619D02*
X73666666Y-118257857D01*
X73666666Y-118257857D02*
X73666666Y-118353095D01*
X73666666Y-118353095D02*
X73714285Y-118495952D01*
X73714285Y-118495952D02*
X74285713Y-119067380D01*
X74285713Y-119067380D02*
X73666666Y-119067380D01*
X72809523Y-118400714D02*
X72809523Y-119067380D01*
X73238094Y-118400714D02*
X73238094Y-118924523D01*
X73238094Y-118924523D02*
X73190475Y-119019761D01*
X73190475Y-119019761D02*
X73095237Y-119067380D01*
X73095237Y-119067380D02*
X72952380Y-119067380D01*
X72952380Y-119067380D02*
X72857142Y-119019761D01*
X72857142Y-119019761D02*
X72809523Y-118972142D01*
X53061904Y-86519761D02*
X52919047Y-86567380D01*
X52919047Y-86567380D02*
X52680952Y-86567380D01*
X52680952Y-86567380D02*
X52585714Y-86519761D01*
X52585714Y-86519761D02*
X52538095Y-86472142D01*
X52538095Y-86472142D02*
X52490476Y-86376904D01*
X52490476Y-86376904D02*
X52490476Y-86281666D01*
X52490476Y-86281666D02*
X52538095Y-86186428D01*
X52538095Y-86186428D02*
X52585714Y-86138809D01*
X52585714Y-86138809D02*
X52680952Y-86091190D01*
X52680952Y-86091190D02*
X52871428Y-86043571D01*
X52871428Y-86043571D02*
X52966666Y-85995952D01*
X52966666Y-85995952D02*
X53014285Y-85948333D01*
X53014285Y-85948333D02*
X53061904Y-85853095D01*
X53061904Y-85853095D02*
X53061904Y-85757857D01*
X53061904Y-85757857D02*
X53014285Y-85662619D01*
X53014285Y-85662619D02*
X52966666Y-85615000D01*
X52966666Y-85615000D02*
X52871428Y-85567380D01*
X52871428Y-85567380D02*
X52633333Y-85567380D01*
X52633333Y-85567380D02*
X52490476Y-85615000D01*
X52157142Y-85567380D02*
X51919047Y-86567380D01*
X51919047Y-86567380D02*
X51728571Y-85853095D01*
X51728571Y-85853095D02*
X51538095Y-86567380D01*
X51538095Y-86567380D02*
X51300000Y-85567380D01*
X50347619Y-86472142D02*
X50395238Y-86519761D01*
X50395238Y-86519761D02*
X50538095Y-86567380D01*
X50538095Y-86567380D02*
X50633333Y-86567380D01*
X50633333Y-86567380D02*
X50776190Y-86519761D01*
X50776190Y-86519761D02*
X50871428Y-86424523D01*
X50871428Y-86424523D02*
X50919047Y-86329285D01*
X50919047Y-86329285D02*
X50966666Y-86138809D01*
X50966666Y-86138809D02*
X50966666Y-85995952D01*
X50966666Y-85995952D02*
X50919047Y-85805476D01*
X50919047Y-85805476D02*
X50871428Y-85710238D01*
X50871428Y-85710238D02*
X50776190Y-85615000D01*
X50776190Y-85615000D02*
X50633333Y-85567380D01*
X50633333Y-85567380D02*
X50538095Y-85567380D01*
X50538095Y-85567380D02*
X50395238Y-85615000D01*
X50395238Y-85615000D02*
X50347619Y-85662619D01*
X49442857Y-86567380D02*
X49919047Y-86567380D01*
X49919047Y-86567380D02*
X49919047Y-85567380D01*
X49109523Y-86567380D02*
X49109523Y-85567380D01*
X48538095Y-86567380D02*
X48966666Y-85995952D01*
X48538095Y-85567380D02*
X49109523Y-86138809D01*
X101057142Y-109967380D02*
X101628570Y-109967380D01*
X101342856Y-109967380D02*
X101342856Y-108967380D01*
X101342856Y-108967380D02*
X101438094Y-109110238D01*
X101438094Y-109110238D02*
X101533332Y-109205476D01*
X101533332Y-109205476D02*
X101628570Y-109253095D01*
X100628570Y-109872142D02*
X100580951Y-109919761D01*
X100580951Y-109919761D02*
X100628570Y-109967380D01*
X100628570Y-109967380D02*
X100676189Y-109919761D01*
X100676189Y-109919761D02*
X100628570Y-109872142D01*
X100628570Y-109872142D02*
X100628570Y-109967380D01*
X100247618Y-108967380D02*
X99580952Y-108967380D01*
X99580952Y-108967380D02*
X100009523Y-109967380D01*
X98723809Y-108967380D02*
X99199999Y-108967380D01*
X99199999Y-108967380D02*
X99247618Y-109443571D01*
X99247618Y-109443571D02*
X99199999Y-109395952D01*
X99199999Y-109395952D02*
X99104761Y-109348333D01*
X99104761Y-109348333D02*
X98866666Y-109348333D01*
X98866666Y-109348333D02*
X98771428Y-109395952D01*
X98771428Y-109395952D02*
X98723809Y-109443571D01*
X98723809Y-109443571D02*
X98676190Y-109538809D01*
X98676190Y-109538809D02*
X98676190Y-109776904D01*
X98676190Y-109776904D02*
X98723809Y-109872142D01*
X98723809Y-109872142D02*
X98771428Y-109919761D01*
X98771428Y-109919761D02*
X98866666Y-109967380D01*
X98866666Y-109967380D02*
X99104761Y-109967380D01*
X99104761Y-109967380D02*
X99199999Y-109919761D01*
X99199999Y-109919761D02*
X99247618Y-109872142D01*
X97819047Y-109300714D02*
X97819047Y-109967380D01*
X98247618Y-109300714D02*
X98247618Y-109824523D01*
X98247618Y-109824523D02*
X98199999Y-109919761D01*
X98199999Y-109919761D02*
X98104761Y-109967380D01*
X98104761Y-109967380D02*
X97961904Y-109967380D01*
X97961904Y-109967380D02*
X97866666Y-109919761D01*
X97866666Y-109919761D02*
X97819047Y-109872142D01*
X145261904Y-113700714D02*
X145261904Y-114367380D01*
X145499999Y-113319761D02*
X145738094Y-114034047D01*
X145738094Y-114034047D02*
X145119047Y-114034047D01*
X144309523Y-113700714D02*
X144309523Y-114367380D01*
X144738094Y-113700714D02*
X144738094Y-114224523D01*
X144738094Y-114224523D02*
X144690475Y-114319761D01*
X144690475Y-114319761D02*
X144595237Y-114367380D01*
X144595237Y-114367380D02*
X144452380Y-114367380D01*
X144452380Y-114367380D02*
X144357142Y-114319761D01*
X144357142Y-114319761D02*
X144309523Y-114272142D01*
X52719046Y-84019761D02*
X52576189Y-84067380D01*
X52576189Y-84067380D02*
X52338094Y-84067380D01*
X52338094Y-84067380D02*
X52242856Y-84019761D01*
X52242856Y-84019761D02*
X52195237Y-83972142D01*
X52195237Y-83972142D02*
X52147618Y-83876904D01*
X52147618Y-83876904D02*
X52147618Y-83781666D01*
X52147618Y-83781666D02*
X52195237Y-83686428D01*
X52195237Y-83686428D02*
X52242856Y-83638809D01*
X52242856Y-83638809D02*
X52338094Y-83591190D01*
X52338094Y-83591190D02*
X52528570Y-83543571D01*
X52528570Y-83543571D02*
X52623808Y-83495952D01*
X52623808Y-83495952D02*
X52671427Y-83448333D01*
X52671427Y-83448333D02*
X52719046Y-83353095D01*
X52719046Y-83353095D02*
X52719046Y-83257857D01*
X52719046Y-83257857D02*
X52671427Y-83162619D01*
X52671427Y-83162619D02*
X52623808Y-83115000D01*
X52623808Y-83115000D02*
X52528570Y-83067380D01*
X52528570Y-83067380D02*
X52290475Y-83067380D01*
X52290475Y-83067380D02*
X52147618Y-83115000D01*
X51814284Y-83067380D02*
X51576189Y-84067380D01*
X51576189Y-84067380D02*
X51385713Y-83353095D01*
X51385713Y-83353095D02*
X51195237Y-84067380D01*
X51195237Y-84067380D02*
X50957142Y-83067380D01*
X50576189Y-84067380D02*
X50576189Y-83067380D01*
X50576189Y-83067380D02*
X50338094Y-83067380D01*
X50338094Y-83067380D02*
X50195237Y-83115000D01*
X50195237Y-83115000D02*
X50099999Y-83210238D01*
X50099999Y-83210238D02*
X50052380Y-83305476D01*
X50052380Y-83305476D02*
X50004761Y-83495952D01*
X50004761Y-83495952D02*
X50004761Y-83638809D01*
X50004761Y-83638809D02*
X50052380Y-83829285D01*
X50052380Y-83829285D02*
X50099999Y-83924523D01*
X50099999Y-83924523D02*
X50195237Y-84019761D01*
X50195237Y-84019761D02*
X50338094Y-84067380D01*
X50338094Y-84067380D02*
X50576189Y-84067380D01*
X49576189Y-84067380D02*
X49576189Y-83067380D01*
X48909523Y-83067380D02*
X48719047Y-83067380D01*
X48719047Y-83067380D02*
X48623809Y-83115000D01*
X48623809Y-83115000D02*
X48528571Y-83210238D01*
X48528571Y-83210238D02*
X48480952Y-83400714D01*
X48480952Y-83400714D02*
X48480952Y-83734047D01*
X48480952Y-83734047D02*
X48528571Y-83924523D01*
X48528571Y-83924523D02*
X48623809Y-84019761D01*
X48623809Y-84019761D02*
X48719047Y-84067380D01*
X48719047Y-84067380D02*
X48909523Y-84067380D01*
X48909523Y-84067380D02*
X49004761Y-84019761D01*
X49004761Y-84019761D02*
X49099999Y-83924523D01*
X49099999Y-83924523D02*
X49147618Y-83734047D01*
X49147618Y-83734047D02*
X49147618Y-83400714D01*
X49147618Y-83400714D02*
X49099999Y-83210238D01*
X49099999Y-83210238D02*
X49004761Y-83115000D01*
X49004761Y-83115000D02*
X48909523Y-83067380D01*
X58357142Y-109867380D02*
X58928570Y-109867380D01*
X58642856Y-109867380D02*
X58642856Y-108867380D01*
X58642856Y-108867380D02*
X58738094Y-109010238D01*
X58738094Y-109010238D02*
X58833332Y-109105476D01*
X58833332Y-109105476D02*
X58928570Y-109153095D01*
X57928570Y-109772142D02*
X57880951Y-109819761D01*
X57880951Y-109819761D02*
X57928570Y-109867380D01*
X57928570Y-109867380D02*
X57976189Y-109819761D01*
X57976189Y-109819761D02*
X57928570Y-109772142D01*
X57928570Y-109772142D02*
X57928570Y-109867380D01*
X57547618Y-108867380D02*
X56880952Y-108867380D01*
X56880952Y-108867380D02*
X57309523Y-109867380D01*
X56023809Y-108867380D02*
X56499999Y-108867380D01*
X56499999Y-108867380D02*
X56547618Y-109343571D01*
X56547618Y-109343571D02*
X56499999Y-109295952D01*
X56499999Y-109295952D02*
X56404761Y-109248333D01*
X56404761Y-109248333D02*
X56166666Y-109248333D01*
X56166666Y-109248333D02*
X56071428Y-109295952D01*
X56071428Y-109295952D02*
X56023809Y-109343571D01*
X56023809Y-109343571D02*
X55976190Y-109438809D01*
X55976190Y-109438809D02*
X55976190Y-109676904D01*
X55976190Y-109676904D02*
X56023809Y-109772142D01*
X56023809Y-109772142D02*
X56071428Y-109819761D01*
X56071428Y-109819761D02*
X56166666Y-109867380D01*
X56166666Y-109867380D02*
X56404761Y-109867380D01*
X56404761Y-109867380D02*
X56499999Y-109819761D01*
X56499999Y-109819761D02*
X56547618Y-109772142D01*
X55119047Y-109200714D02*
X55119047Y-109867380D01*
X55547618Y-109200714D02*
X55547618Y-109724523D01*
X55547618Y-109724523D02*
X55499999Y-109819761D01*
X55499999Y-109819761D02*
X55404761Y-109867380D01*
X55404761Y-109867380D02*
X55261904Y-109867380D01*
X55261904Y-109867380D02*
X55166666Y-109819761D01*
X55166666Y-109819761D02*
X55119047Y-109772142D01*
X55038094Y-118262619D02*
X54990475Y-118215000D01*
X54990475Y-118215000D02*
X54895237Y-118167380D01*
X54895237Y-118167380D02*
X54657142Y-118167380D01*
X54657142Y-118167380D02*
X54561904Y-118215000D01*
X54561904Y-118215000D02*
X54514285Y-118262619D01*
X54514285Y-118262619D02*
X54466666Y-118357857D01*
X54466666Y-118357857D02*
X54466666Y-118453095D01*
X54466666Y-118453095D02*
X54514285Y-118595952D01*
X54514285Y-118595952D02*
X55085713Y-119167380D01*
X55085713Y-119167380D02*
X54466666Y-119167380D01*
X53609523Y-118500714D02*
X53609523Y-119167380D01*
X54038094Y-118500714D02*
X54038094Y-119024523D01*
X54038094Y-119024523D02*
X53990475Y-119119761D01*
X53990475Y-119119761D02*
X53895237Y-119167380D01*
X53895237Y-119167380D02*
X53752380Y-119167380D01*
X53752380Y-119167380D02*
X53657142Y-119119761D01*
X53657142Y-119119761D02*
X53609523Y-119072142D01*
X134457142Y-114467380D02*
X135028570Y-114467380D01*
X134742856Y-114467380D02*
X134742856Y-113467380D01*
X134742856Y-113467380D02*
X134838094Y-113610238D01*
X134838094Y-113610238D02*
X134933332Y-113705476D01*
X134933332Y-113705476D02*
X135028570Y-113753095D01*
X134028570Y-114372142D02*
X133980951Y-114419761D01*
X133980951Y-114419761D02*
X134028570Y-114467380D01*
X134028570Y-114467380D02*
X134076189Y-114419761D01*
X134076189Y-114419761D02*
X134028570Y-114372142D01*
X134028570Y-114372142D02*
X134028570Y-114467380D01*
X133647618Y-113467380D02*
X132980952Y-113467380D01*
X132980952Y-113467380D02*
X133409523Y-114467380D01*
X132123809Y-113467380D02*
X132599999Y-113467380D01*
X132599999Y-113467380D02*
X132647618Y-113943571D01*
X132647618Y-113943571D02*
X132599999Y-113895952D01*
X132599999Y-113895952D02*
X132504761Y-113848333D01*
X132504761Y-113848333D02*
X132266666Y-113848333D01*
X132266666Y-113848333D02*
X132171428Y-113895952D01*
X132171428Y-113895952D02*
X132123809Y-113943571D01*
X132123809Y-113943571D02*
X132076190Y-114038809D01*
X132076190Y-114038809D02*
X132076190Y-114276904D01*
X132076190Y-114276904D02*
X132123809Y-114372142D01*
X132123809Y-114372142D02*
X132171428Y-114419761D01*
X132171428Y-114419761D02*
X132266666Y-114467380D01*
X132266666Y-114467380D02*
X132504761Y-114467380D01*
X132504761Y-114467380D02*
X132599999Y-114419761D01*
X132599999Y-114419761D02*
X132647618Y-114372142D01*
X131219047Y-113800714D02*
X131219047Y-114467380D01*
X131647618Y-113800714D02*
X131647618Y-114324523D01*
X131647618Y-114324523D02*
X131599999Y-114419761D01*
X131599999Y-114419761D02*
X131504761Y-114467380D01*
X131504761Y-114467380D02*
X131361904Y-114467380D01*
X131361904Y-114467380D02*
X131266666Y-114419761D01*
X131266666Y-114419761D02*
X131219047Y-114372142D01*
X112485713Y-115667380D02*
X111866666Y-115667380D01*
X111866666Y-115667380D02*
X112199999Y-116048333D01*
X112199999Y-116048333D02*
X112057142Y-116048333D01*
X112057142Y-116048333D02*
X111961904Y-116095952D01*
X111961904Y-116095952D02*
X111914285Y-116143571D01*
X111914285Y-116143571D02*
X111866666Y-116238809D01*
X111866666Y-116238809D02*
X111866666Y-116476904D01*
X111866666Y-116476904D02*
X111914285Y-116572142D01*
X111914285Y-116572142D02*
X111961904Y-116619761D01*
X111961904Y-116619761D02*
X112057142Y-116667380D01*
X112057142Y-116667380D02*
X112342856Y-116667380D01*
X112342856Y-116667380D02*
X112438094Y-116619761D01*
X112438094Y-116619761D02*
X112485713Y-116572142D01*
X111009523Y-116000714D02*
X111009523Y-116667380D01*
X111438094Y-116000714D02*
X111438094Y-116524523D01*
X111438094Y-116524523D02*
X111390475Y-116619761D01*
X111390475Y-116619761D02*
X111295237Y-116667380D01*
X111295237Y-116667380D02*
X111152380Y-116667380D01*
X111152380Y-116667380D02*
X111057142Y-116619761D01*
X111057142Y-116619761D02*
X111009523Y-116572142D01*
X79857142Y-109767380D02*
X80428570Y-109767380D01*
X80142856Y-109767380D02*
X80142856Y-108767380D01*
X80142856Y-108767380D02*
X80238094Y-108910238D01*
X80238094Y-108910238D02*
X80333332Y-109005476D01*
X80333332Y-109005476D02*
X80428570Y-109053095D01*
X79428570Y-109672142D02*
X79380951Y-109719761D01*
X79380951Y-109719761D02*
X79428570Y-109767380D01*
X79428570Y-109767380D02*
X79476189Y-109719761D01*
X79476189Y-109719761D02*
X79428570Y-109672142D01*
X79428570Y-109672142D02*
X79428570Y-109767380D01*
X79047618Y-108767380D02*
X78380952Y-108767380D01*
X78380952Y-108767380D02*
X78809523Y-109767380D01*
X77523809Y-108767380D02*
X77999999Y-108767380D01*
X77999999Y-108767380D02*
X78047618Y-109243571D01*
X78047618Y-109243571D02*
X77999999Y-109195952D01*
X77999999Y-109195952D02*
X77904761Y-109148333D01*
X77904761Y-109148333D02*
X77666666Y-109148333D01*
X77666666Y-109148333D02*
X77571428Y-109195952D01*
X77571428Y-109195952D02*
X77523809Y-109243571D01*
X77523809Y-109243571D02*
X77476190Y-109338809D01*
X77476190Y-109338809D02*
X77476190Y-109576904D01*
X77476190Y-109576904D02*
X77523809Y-109672142D01*
X77523809Y-109672142D02*
X77571428Y-109719761D01*
X77571428Y-109719761D02*
X77666666Y-109767380D01*
X77666666Y-109767380D02*
X77904761Y-109767380D01*
X77904761Y-109767380D02*
X77999999Y-109719761D01*
X77999999Y-109719761D02*
X78047618Y-109672142D01*
X76619047Y-109100714D02*
X76619047Y-109767380D01*
X77047618Y-109100714D02*
X77047618Y-109624523D01*
X77047618Y-109624523D02*
X76999999Y-109719761D01*
X76999999Y-109719761D02*
X76904761Y-109767380D01*
X76904761Y-109767380D02*
X76761904Y-109767380D01*
X76761904Y-109767380D02*
X76666666Y-109719761D01*
X76666666Y-109719761D02*
X76619047Y-109672142D01*
X126638094Y-113862619D02*
X126590475Y-113815000D01*
X126590475Y-113815000D02*
X126495237Y-113767380D01*
X126495237Y-113767380D02*
X126257142Y-113767380D01*
X126257142Y-113767380D02*
X126161904Y-113815000D01*
X126161904Y-113815000D02*
X126114285Y-113862619D01*
X126114285Y-113862619D02*
X126066666Y-113957857D01*
X126066666Y-113957857D02*
X126066666Y-114053095D01*
X126066666Y-114053095D02*
X126114285Y-114195952D01*
X126114285Y-114195952D02*
X126685713Y-114767380D01*
X126685713Y-114767380D02*
X126066666Y-114767380D01*
X125209523Y-114100714D02*
X125209523Y-114767380D01*
X125638094Y-114100714D02*
X125638094Y-114624523D01*
X125638094Y-114624523D02*
X125590475Y-114719761D01*
X125590475Y-114719761D02*
X125495237Y-114767380D01*
X125495237Y-114767380D02*
X125352380Y-114767380D01*
X125352380Y-114767380D02*
X125257142Y-114719761D01*
X125257142Y-114719761D02*
X125209523Y-114672142D01*
X93338094Y-118262619D02*
X93290475Y-118215000D01*
X93290475Y-118215000D02*
X93195237Y-118167380D01*
X93195237Y-118167380D02*
X92957142Y-118167380D01*
X92957142Y-118167380D02*
X92861904Y-118215000D01*
X92861904Y-118215000D02*
X92814285Y-118262619D01*
X92814285Y-118262619D02*
X92766666Y-118357857D01*
X92766666Y-118357857D02*
X92766666Y-118453095D01*
X92766666Y-118453095D02*
X92814285Y-118595952D01*
X92814285Y-118595952D02*
X93385713Y-119167380D01*
X93385713Y-119167380D02*
X92766666Y-119167380D01*
X91909523Y-118500714D02*
X91909523Y-119167380D01*
X92338094Y-118500714D02*
X92338094Y-119024523D01*
X92338094Y-119024523D02*
X92290475Y-119119761D01*
X92290475Y-119119761D02*
X92195237Y-119167380D01*
X92195237Y-119167380D02*
X92052380Y-119167380D01*
X92052380Y-119167380D02*
X91957142Y-119119761D01*
X91957142Y-119119761D02*
X91909523Y-119072142D01*
X93385713Y-114957380D02*
X92766666Y-114957380D01*
X92766666Y-114957380D02*
X93099999Y-115338333D01*
X93099999Y-115338333D02*
X92957142Y-115338333D01*
X92957142Y-115338333D02*
X92861904Y-115385952D01*
X92861904Y-115385952D02*
X92814285Y-115433571D01*
X92814285Y-115433571D02*
X92766666Y-115528809D01*
X92766666Y-115528809D02*
X92766666Y-115766904D01*
X92766666Y-115766904D02*
X92814285Y-115862142D01*
X92814285Y-115862142D02*
X92861904Y-115909761D01*
X92861904Y-115909761D02*
X92957142Y-115957380D01*
X92957142Y-115957380D02*
X93242856Y-115957380D01*
X93242856Y-115957380D02*
X93338094Y-115909761D01*
X93338094Y-115909761D02*
X93385713Y-115862142D01*
X91909523Y-115290714D02*
X91909523Y-115957380D01*
X92338094Y-115290714D02*
X92338094Y-115814523D01*
X92338094Y-115814523D02*
X92290475Y-115909761D01*
X92290475Y-115909761D02*
X92195237Y-115957380D01*
X92195237Y-115957380D02*
X92052380Y-115957380D01*
X92052380Y-115957380D02*
X91957142Y-115909761D01*
X91957142Y-115909761D02*
X91909523Y-115862142D01*
X92861904Y-116910714D02*
X92861904Y-117577380D01*
X93099999Y-116529761D02*
X93338094Y-117244047D01*
X93338094Y-117244047D02*
X92719047Y-117244047D01*
X91909523Y-116910714D02*
X91909523Y-117577380D01*
X92338094Y-116910714D02*
X92338094Y-117434523D01*
X92338094Y-117434523D02*
X92290475Y-117529761D01*
X92290475Y-117529761D02*
X92195237Y-117577380D01*
X92195237Y-117577380D02*
X92052380Y-117577380D01*
X92052380Y-117577380D02*
X91957142Y-117529761D01*
X91957142Y-117529761D02*
X91909523Y-117482142D01*
X174185713Y-105267380D02*
X173566666Y-105267380D01*
X173566666Y-105267380D02*
X173899999Y-105648333D01*
X173899999Y-105648333D02*
X173757142Y-105648333D01*
X173757142Y-105648333D02*
X173661904Y-105695952D01*
X173661904Y-105695952D02*
X173614285Y-105743571D01*
X173614285Y-105743571D02*
X173566666Y-105838809D01*
X173566666Y-105838809D02*
X173566666Y-106076904D01*
X173566666Y-106076904D02*
X173614285Y-106172142D01*
X173614285Y-106172142D02*
X173661904Y-106219761D01*
X173661904Y-106219761D02*
X173757142Y-106267380D01*
X173757142Y-106267380D02*
X174042856Y-106267380D01*
X174042856Y-106267380D02*
X174138094Y-106219761D01*
X174138094Y-106219761D02*
X174185713Y-106172142D01*
X172709523Y-105600714D02*
X172709523Y-106267380D01*
X173138094Y-105600714D02*
X173138094Y-106124523D01*
X173138094Y-106124523D02*
X173090475Y-106219761D01*
X173090475Y-106219761D02*
X172995237Y-106267380D01*
X172995237Y-106267380D02*
X172852380Y-106267380D01*
X172852380Y-106267380D02*
X172757142Y-106219761D01*
X172757142Y-106219761D02*
X172709523Y-106172142D01*
%TO.C,U1*%
X71711904Y-78147380D02*
X71711904Y-78956904D01*
X71711904Y-78956904D02*
X71664285Y-79052142D01*
X71664285Y-79052142D02*
X71616666Y-79099761D01*
X71616666Y-79099761D02*
X71521428Y-79147380D01*
X71521428Y-79147380D02*
X71330952Y-79147380D01*
X71330952Y-79147380D02*
X71235714Y-79099761D01*
X71235714Y-79099761D02*
X71188095Y-79052142D01*
X71188095Y-79052142D02*
X71140476Y-78956904D01*
X71140476Y-78956904D02*
X71140476Y-78147380D01*
X70140476Y-79147380D02*
X70711904Y-79147380D01*
X70426190Y-79147380D02*
X70426190Y-78147380D01*
X70426190Y-78147380D02*
X70521428Y-78290238D01*
X70521428Y-78290238D02*
X70616666Y-78385476D01*
X70616666Y-78385476D02*
X70711904Y-78433095D01*
D11*
%TO.C,C_1V-Decoup2*%
X72290000Y-70687836D02*
X72290000Y-70472164D01*
X73010000Y-70687836D02*
X73010000Y-70472164D01*
%TO.C,D6*%
X80150000Y-73450000D02*
X84050000Y-73450000D01*
X80150000Y-75450000D02*
X80150000Y-73450000D01*
X80150000Y-75450000D02*
X84050000Y-75450000D01*
%TO.C,D14*%
X113725000Y-77100000D02*
X113725000Y-73200000D01*
X115725000Y-77100000D02*
X113725000Y-77100000D01*
X115725000Y-77100000D02*
X115725000Y-73200000D01*
%TO.C,C_Crystal1*%
X70122164Y-91990000D02*
X70337836Y-91990000D01*
X70122164Y-92710000D02*
X70337836Y-92710000D01*
%TO.C,D37*%
X237550000Y-96150000D02*
X237550000Y-92250000D01*
X239550000Y-96150000D02*
X237550000Y-96150000D01*
X239550000Y-96150000D02*
X239550000Y-92250000D01*
%TO.C,R_Crystal1*%
X70220000Y-91003641D02*
X70220000Y-90696359D01*
X70980000Y-91003641D02*
X70980000Y-90696359D01*
%TO.C,D17*%
X132775000Y-77100000D02*
X132775000Y-73200000D01*
X134775000Y-77100000D02*
X132775000Y-77100000D01*
X134775000Y-77100000D02*
X134775000Y-73200000D01*
%TO.C,R_Flash1*%
X81480000Y-61746359D02*
X81480000Y-62053641D01*
X80720000Y-61746359D02*
X80720000Y-62053641D01*
%TO.C,SW1*%
X82935000Y-60360000D02*
X82935000Y-59557530D01*
X84140000Y-60360000D02*
X82935000Y-60360000D01*
X84140000Y-60360000D02*
X84140000Y-59813471D01*
X84900000Y-60360000D02*
X85660000Y-60360000D01*
X85660000Y-60360000D02*
X85660000Y-59250000D01*
X82935000Y-58942470D02*
X82935000Y-58140000D01*
X84140000Y-58686529D02*
X84140000Y-58140000D01*
X84140000Y-58140000D02*
X82935000Y-58140000D01*
%TO.C,D8*%
X84500000Y-115150000D02*
X84500000Y-111250000D01*
X86500000Y-115150000D02*
X84500000Y-115150000D01*
X86500000Y-115150000D02*
X86500000Y-111250000D01*
%TO.C,D20*%
X161350000Y-58050000D02*
X161350000Y-54150000D01*
X163350000Y-58050000D02*
X161350000Y-58050000D01*
X163350000Y-58050000D02*
X163350000Y-54150000D01*
%TO.C,D15*%
X113725000Y-96150000D02*
X113725000Y-92250000D01*
X115725000Y-96150000D02*
X113725000Y-96150000D01*
X115725000Y-96150000D02*
X115725000Y-92250000D01*
%TO.C,D31*%
X218500000Y-58050000D02*
X218500000Y-54150000D01*
X220500000Y-58050000D02*
X218500000Y-58050000D01*
X220500000Y-58050000D02*
X220500000Y-54150000D01*
%TO.C,C_3V-Decoup2*%
X65840000Y-76107836D02*
X65840000Y-75892164D01*
X66560000Y-76107836D02*
X66560000Y-75892164D01*
%TO.C,D13*%
X113725000Y-58050000D02*
X113725000Y-54150000D01*
X115725000Y-58050000D02*
X113725000Y-58050000D01*
X115725000Y-58050000D02*
X115725000Y-54150000D01*
%TO.C,D23*%
X173493750Y-119962500D02*
X173493750Y-116062500D01*
X175493750Y-119962500D02*
X173493750Y-119962500D01*
X175493750Y-119962500D02*
X175493750Y-116062500D01*
%TO.C,C_3V-Decoup7*%
X64157836Y-79310000D02*
X63942164Y-79310000D01*
X64157836Y-78590000D02*
X63942164Y-78590000D01*
%TO.C,D32*%
X218500000Y-77100000D02*
X218500000Y-73200000D01*
X220500000Y-77100000D02*
X218500000Y-77100000D01*
X220500000Y-77100000D02*
X220500000Y-73200000D01*
%TO.C,D4*%
X63900000Y-115150000D02*
X63900000Y-111250000D01*
X65900000Y-115150000D02*
X63900000Y-115150000D01*
X65900000Y-115150000D02*
X65900000Y-111250000D01*
%TO.C,C_3V-Decoup9*%
X75340000Y-79707836D02*
X75340000Y-79492164D01*
X76060000Y-79707836D02*
X76060000Y-79492164D01*
%TO.C,C_3V-Decoup4*%
X64907836Y-84960000D02*
X64692164Y-84960000D01*
X64907836Y-84240000D02*
X64692164Y-84240000D01*
%TO.C,D26*%
X180400000Y-96150000D02*
X180400000Y-92250000D01*
X182400000Y-96150000D02*
X180400000Y-96150000D01*
X182400000Y-96150000D02*
X182400000Y-92250000D01*
%TO.C,D28*%
X199450000Y-77100000D02*
X199450000Y-73200000D01*
X201450000Y-77100000D02*
X199450000Y-77100000D01*
X201450000Y-77100000D02*
X201450000Y-73200000D01*
%TO.C,R_DATA1*%
X68080000Y-72006359D02*
X68080000Y-72313641D01*
X67320000Y-72006359D02*
X67320000Y-72313641D01*
%TO.C,C_3V-Decoup8*%
X69160000Y-90762164D02*
X69160000Y-90977836D01*
X68440000Y-90762164D02*
X68440000Y-90977836D01*
%TO.C,C_Flash1*%
X85290000Y-72427836D02*
X85290000Y-72212164D01*
X86010000Y-72427836D02*
X86010000Y-72212164D01*
%TO.C,D10*%
X94675000Y-77100000D02*
X94675000Y-73200000D01*
X96675000Y-77100000D02*
X94675000Y-77100000D01*
X96675000Y-77100000D02*
X96675000Y-73200000D01*
%TO.C,D35*%
X237468750Y-58050000D02*
X237468750Y-54150000D01*
X239468750Y-58050000D02*
X237468750Y-58050000D01*
X239468750Y-58050000D02*
X239468750Y-54150000D01*
%TO.C,D38*%
X237550000Y-115200000D02*
X237550000Y-111300000D01*
X239550000Y-115200000D02*
X237550000Y-115200000D01*
X239550000Y-115200000D02*
X239550000Y-111300000D01*
%TO.C,D19*%
X135156250Y-119962500D02*
X135156250Y-116062500D01*
X137156250Y-119962500D02*
X135156250Y-119962500D01*
X137156250Y-119962500D02*
X137156250Y-116062500D01*
%TO.C,U3*%
X58890000Y-60550000D02*
X58890000Y-61200000D01*
X58890000Y-60550000D02*
X58890000Y-59900000D01*
X62010000Y-60550000D02*
X62010000Y-62225000D01*
X62010000Y-60550000D02*
X62010000Y-59900000D01*
%TO.C,D25*%
X180400000Y-77100000D02*
X180400000Y-73200000D01*
X182400000Y-77100000D02*
X180400000Y-77100000D01*
X182400000Y-77100000D02*
X182400000Y-73200000D01*
%TO.C,D11*%
X94675000Y-96150000D02*
X94675000Y-92250000D01*
X96675000Y-96150000D02*
X94675000Y-96150000D01*
X96675000Y-96150000D02*
X96675000Y-92250000D01*
%TO.C,C_1V-Decoup3*%
X67810000Y-90642164D02*
X67810000Y-90857836D01*
X67090000Y-90642164D02*
X67090000Y-90857836D01*
%TO.C,D18*%
X132775000Y-96150000D02*
X132775000Y-92250000D01*
X134775000Y-96150000D02*
X132775000Y-96150000D01*
X134775000Y-96150000D02*
X134775000Y-92250000D01*
%TO.C,D34*%
X218500000Y-115200000D02*
X218500000Y-111300000D01*
X220500000Y-115200000D02*
X218500000Y-115200000D01*
X220500000Y-115200000D02*
X220500000Y-111300000D01*
%TO.C,D2*%
X56575000Y-76600000D02*
X56575000Y-72700000D01*
X58575000Y-76600000D02*
X56575000Y-76600000D01*
X58575000Y-76600000D02*
X58575000Y-72700000D01*
%TO.C,D3*%
X56575000Y-96150000D02*
X56575000Y-92250000D01*
X58575000Y-96150000D02*
X56575000Y-96150000D01*
X58575000Y-96150000D02*
X58575000Y-92250000D01*
%TO.C,D29*%
X199450000Y-96150000D02*
X199450000Y-92250000D01*
X201450000Y-96150000D02*
X199450000Y-96150000D01*
X201450000Y-96150000D02*
X201450000Y-92250000D01*
%TO.C,D16*%
X132775000Y-58050000D02*
X132775000Y-54150000D01*
X134775000Y-58050000D02*
X132775000Y-58050000D01*
X134775000Y-58050000D02*
X134775000Y-54150000D01*
%TO.C,C_3V-Decoup6*%
X77460000Y-86342164D02*
X77460000Y-86557836D01*
X76740000Y-86342164D02*
X76740000Y-86557836D01*
%TO.C,D30*%
X199450000Y-115200000D02*
X199450000Y-111300000D01*
X201450000Y-115200000D02*
X199450000Y-115200000D01*
X201450000Y-115200000D02*
X201450000Y-111300000D01*
%TO.C,D1*%
X56575000Y-58050000D02*
X56575000Y-54150000D01*
X58575000Y-58050000D02*
X56575000Y-58050000D01*
X58575000Y-58050000D02*
X58575000Y-54150000D01*
%TO.C,C_3V-Decoup1*%
X59107836Y-64610000D02*
X58892164Y-64610000D01*
X59107836Y-63890000D02*
X58892164Y-63890000D01*
%TO.C,C_LD1*%
X60057836Y-58460000D02*
X59842164Y-58460000D01*
X60057836Y-57740000D02*
X59842164Y-57740000D01*
%TO.C,R_RST1*%
X48970000Y-77203641D02*
X48970000Y-76896359D01*
X49730000Y-77203641D02*
X49730000Y-76896359D01*
%TO.C,U2*%
X78675000Y-70975000D02*
X78935000Y-70975000D01*
X84125000Y-70975000D02*
X83865000Y-70975000D01*
X78675000Y-68250000D02*
X78675000Y-70975000D01*
X78675000Y-68250000D02*
X78675000Y-65525000D01*
X84125000Y-68250000D02*
X84125000Y-70975000D01*
X84125000Y-68250000D02*
X84125000Y-65525000D01*
X78675000Y-65525000D02*
X78935000Y-65525000D01*
X78935000Y-65525000D02*
X78935000Y-63850000D01*
X84125000Y-65525000D02*
X83865000Y-65525000D01*
%TO.C,D33*%
X218500000Y-96150000D02*
X218500000Y-92250000D01*
X220500000Y-96150000D02*
X218500000Y-96150000D01*
X220500000Y-96150000D02*
X220500000Y-92250000D01*
%TO.C,D36*%
X237550000Y-77100000D02*
X237550000Y-73200000D01*
X239550000Y-77100000D02*
X237550000Y-77100000D01*
X239550000Y-77100000D02*
X239550000Y-73200000D01*
%TO.C,D7*%
X80375000Y-96150000D02*
X80375000Y-92250000D01*
X82375000Y-96150000D02*
X80375000Y-96150000D01*
X82375000Y-96150000D02*
X82375000Y-92250000D01*
%TO.C,D12*%
X101818750Y-115200000D02*
X101818750Y-111300000D01*
X103818750Y-115200000D02*
X101818750Y-115200000D01*
X103818750Y-115200000D02*
X103818750Y-111300000D01*
%TO.C,C_1V-Decoup1*%
X65140000Y-72997836D02*
X65140000Y-72782164D01*
X65860000Y-72997836D02*
X65860000Y-72782164D01*
%TO.C,C_3V-Decoup3*%
X71290000Y-70687836D02*
X71290000Y-70472164D01*
X72010000Y-70687836D02*
X72010000Y-70472164D01*
%TO.C,D22*%
X161350000Y-96150000D02*
X161350000Y-92250000D01*
X163350000Y-96150000D02*
X161350000Y-96150000D01*
X163350000Y-96150000D02*
X163350000Y-92250000D01*
%TO.C,U1*%
X74560000Y-87210000D02*
X74560000Y-86560000D01*
X73910000Y-87210000D02*
X74560000Y-87210000D01*
X73910000Y-79990000D02*
X74560000Y-79990000D01*
X67990000Y-87210000D02*
X67340000Y-87210000D01*
X67990000Y-79990000D02*
X67340000Y-79990000D01*
X67340000Y-87210000D02*
X67340000Y-86560000D01*
X67340000Y-79990000D02*
X67340000Y-80640000D01*
%TO.C,J2*%
X48130000Y-87515000D02*
X45470000Y-87515000D01*
X48130000Y-77295000D02*
X48130000Y-87515000D01*
X48130000Y-77295000D02*
X45470000Y-77295000D01*
X48130000Y-76025000D02*
X48130000Y-74695000D01*
X48130000Y-74695000D02*
X46800000Y-74695000D01*
X45470000Y-77295000D02*
X45470000Y-87515000D01*
%TO.C,D27*%
X199450000Y-58050000D02*
X199450000Y-54150000D01*
X201450000Y-58050000D02*
X199450000Y-58050000D01*
X201450000Y-58050000D02*
X201450000Y-54150000D01*
%TO.C,C_Crystal2*%
X65440000Y-92727836D02*
X65440000Y-92512164D01*
X66160000Y-92727836D02*
X66160000Y-92512164D01*
%TO.C,D9*%
X94675000Y-58050000D02*
X94675000Y-54150000D01*
X96675000Y-58050000D02*
X94675000Y-58050000D01*
X96675000Y-58050000D02*
X96675000Y-54150000D01*
%TO.C,D24*%
X180400000Y-58050000D02*
X180400000Y-54150000D01*
X182400000Y-58050000D02*
X180400000Y-58050000D01*
X182400000Y-58050000D02*
X182400000Y-54150000D01*
%TO.C,C_3V-Decoup5*%
X64157836Y-80360000D02*
X63942164Y-80360000D01*
X64157836Y-79640000D02*
X63942164Y-79640000D01*
%TO.C,R_DATA2*%
X66980000Y-72006359D02*
X66980000Y-72313641D01*
X66220000Y-72006359D02*
X66220000Y-72313641D01*
%TO.C,C_LD2*%
X59107836Y-63560000D02*
X58892164Y-63560000D01*
X59107836Y-62840000D02*
X58892164Y-62840000D01*
%TO.C,J1*%
X67915000Y-61690000D02*
X65415000Y-61690000D01*
X65415000Y-61690000D02*
X65415000Y-62740000D01*
X65415000Y-62740000D02*
X64425000Y-62740000D01*
X69885000Y-62860000D02*
X69885000Y-66740000D01*
X67915000Y-67910000D02*
X65415000Y-67910000D01*
X65415000Y-67910000D02*
X65415000Y-66860000D01*
%TO.C,D21*%
X161350000Y-77100000D02*
X161350000Y-73200000D01*
X163350000Y-77100000D02*
X161350000Y-77100000D01*
X163350000Y-77100000D02*
X163350000Y-73200000D01*
%TO.C,Y1*%
X64850000Y-90700000D02*
X64850000Y-94700000D01*
X61550000Y-90700000D02*
X64850000Y-90700000D01*
%TO.C,D5*%
X75625000Y-58150000D02*
X75625000Y-54250000D01*
X77625000Y-58150000D02*
X75625000Y-58150000D01*
X77625000Y-58150000D02*
X77625000Y-54250000D01*
%TD*%
%LPC*%
D12*
%TO.C,MX35*%
X230370000Y-55300000D03*
D13*
X235450000Y-55300000D03*
D12*
X240530000Y-55300000D03*
D14*
X231640000Y-52760000D03*
X237990000Y-50220000D03*
%TD*%
D12*
%TO.C,MX22*%
X154170000Y-93400000D03*
D13*
X159250000Y-93400000D03*
D12*
X164330000Y-93400000D03*
D14*
X155440000Y-90860000D03*
X161790000Y-88320000D03*
%TD*%
D12*
%TO.C,MX18*%
X125595000Y-93400000D03*
D13*
X130675000Y-93400000D03*
D12*
X135755000Y-93400000D03*
D14*
X126865000Y-90860000D03*
X133215000Y-88320000D03*
%TD*%
D12*
%TO.C,MX7*%
X78605000Y-93400000D03*
D13*
X73525000Y-93400000D03*
D12*
X68445000Y-93400000D03*
D14*
X77335000Y-95940000D03*
X70985000Y-98480000D03*
%TD*%
D12*
%TO.C,MX9*%
X87495000Y-55300000D03*
D13*
X92575000Y-55300000D03*
D12*
X97655000Y-55300000D03*
D14*
X88765000Y-52760000D03*
X95115000Y-50220000D03*
%TD*%
D12*
%TO.C,MX4*%
X49395000Y-112450000D03*
D13*
X54475000Y-112450000D03*
D12*
X59555000Y-112450000D03*
D14*
X50665000Y-109910000D03*
X57015000Y-107370000D03*
%TD*%
D12*
%TO.C,MX1*%
X49395000Y-55300000D03*
D13*
X54475000Y-55300000D03*
D12*
X59555000Y-55300000D03*
D14*
X50665000Y-52760000D03*
X57015000Y-50220000D03*
%TD*%
D12*
%TO.C,MX17*%
X125595000Y-74350000D03*
D13*
X130675000Y-74350000D03*
D12*
X135755000Y-74350000D03*
D14*
X126865000Y-71810000D03*
X133215000Y-69270000D03*
%TD*%
D12*
%TO.C,MX2*%
X49395000Y-74350000D03*
D13*
X54475000Y-74350000D03*
D12*
X59555000Y-74350000D03*
D14*
X50665000Y-71810000D03*
X57015000Y-69270000D03*
%TD*%
D12*
%TO.C,MX11*%
X87495000Y-93400000D03*
D13*
X92575000Y-93400000D03*
D12*
X97655000Y-93400000D03*
D14*
X88765000Y-90860000D03*
X95115000Y-88320000D03*
%TD*%
D13*
%TO.C,MX23*%
X135437500Y-108957500D03*
D15*
X135437500Y-124197500D03*
D12*
X149407500Y-117212500D03*
D13*
X154487500Y-117212500D03*
D12*
X159567500Y-117212500D03*
D13*
X173537500Y-108957500D03*
D15*
X173537500Y-124197500D03*
D14*
X150677500Y-114672500D03*
X157027500Y-112132500D03*
%TD*%
D12*
%TO.C,MX10*%
X87495000Y-74350000D03*
D13*
X92575000Y-74350000D03*
D12*
X97655000Y-74350000D03*
D14*
X88765000Y-71810000D03*
X95115000Y-69270000D03*
%TD*%
D12*
%TO.C,MX30*%
X192270000Y-112450000D03*
D13*
X197350000Y-112450000D03*
D12*
X202430000Y-112450000D03*
D14*
X193540000Y-109910000D03*
X199890000Y-107370000D03*
%TD*%
D12*
%TO.C,MX12*%
X94638750Y-112450000D03*
D13*
X99718750Y-112450000D03*
D12*
X104798750Y-112450000D03*
D14*
X95908750Y-109910000D03*
X102258750Y-107370000D03*
%TD*%
D12*
%TO.C,MX23*%
X158932500Y-117212500D03*
D13*
X164012500Y-117212500D03*
D12*
X169092500Y-117212500D03*
D14*
X160202500Y-114672500D03*
X166552500Y-112132500D03*
%TD*%
D12*
%TO.C,MX19*%
X116705000Y-112450000D03*
D13*
X111625000Y-112450000D03*
D12*
X106545000Y-112450000D03*
D14*
X115435000Y-114990000D03*
X109085000Y-117530000D03*
%TD*%
D12*
%TO.C,MX4*%
X51776250Y-112450000D03*
D13*
X56856250Y-112450000D03*
D12*
X61936250Y-112450000D03*
D14*
X53046250Y-109910000D03*
X59396250Y-107370000D03*
%TD*%
D12*
%TO.C,MX33*%
X211320000Y-93400000D03*
D13*
X216400000Y-93400000D03*
D12*
X221480000Y-93400000D03*
D14*
X212590000Y-90860000D03*
X218940000Y-88320000D03*
%TD*%
D12*
%TO.C,MX13*%
X106545000Y-55300000D03*
D13*
X111625000Y-55300000D03*
D12*
X116705000Y-55300000D03*
D14*
X107815000Y-52760000D03*
X114165000Y-50220000D03*
%TD*%
D12*
%TO.C,MX29*%
X192270000Y-93400000D03*
D13*
X197350000Y-93400000D03*
D12*
X202430000Y-93400000D03*
D14*
X193540000Y-90860000D03*
X199890000Y-88320000D03*
%TD*%
D12*
%TO.C,MX15*%
X106545000Y-93400000D03*
D13*
X111625000Y-93400000D03*
D12*
X116705000Y-93400000D03*
D14*
X107815000Y-90860000D03*
X114165000Y-88320000D03*
%TD*%
D12*
%TO.C,MX14*%
X106545000Y-74350000D03*
D13*
X111625000Y-74350000D03*
D12*
X116705000Y-74350000D03*
D14*
X107815000Y-71810000D03*
X114165000Y-69270000D03*
%TD*%
D12*
%TO.C,MX16*%
X125595000Y-55300000D03*
D13*
X130675000Y-55300000D03*
D12*
X135755000Y-55300000D03*
D14*
X126865000Y-52760000D03*
X133215000Y-50220000D03*
%TD*%
D12*
%TO.C,MX5*%
X68445000Y-55300000D03*
D13*
X73525000Y-55300000D03*
D12*
X78605000Y-55300000D03*
D14*
X69715000Y-52760000D03*
X76065000Y-50220000D03*
%TD*%
D12*
%TO.C,MX24*%
X173220000Y-55300000D03*
D13*
X178300000Y-55300000D03*
D12*
X183380000Y-55300000D03*
D14*
X174490000Y-52760000D03*
X180840000Y-50220000D03*
%TD*%
D12*
%TO.C,MX21*%
X154170000Y-74350000D03*
D13*
X159250000Y-74350000D03*
D12*
X164330000Y-74350000D03*
D14*
X155440000Y-71810000D03*
X161790000Y-69270000D03*
%TD*%
D12*
%TO.C,MX32*%
X211320000Y-74350000D03*
D13*
X216400000Y-74350000D03*
D12*
X221480000Y-74350000D03*
D14*
X212590000Y-71810000D03*
X218940000Y-69270000D03*
%TD*%
D12*
%TO.C,MX38*%
X230370000Y-112450000D03*
D13*
X235450000Y-112450000D03*
D12*
X240530000Y-112450000D03*
D14*
X231640000Y-109910000D03*
X237990000Y-107370000D03*
%TD*%
D12*
%TO.C,MX20*%
X154170000Y-55300000D03*
D13*
X159250000Y-55300000D03*
D12*
X164330000Y-55300000D03*
D14*
X155440000Y-52760000D03*
X161790000Y-50220000D03*
%TD*%
D12*
%TO.C,MX8*%
X83367500Y-112450000D03*
D13*
X78287500Y-112450000D03*
D12*
X73207500Y-112450000D03*
D14*
X82097500Y-114990000D03*
X75747500Y-117530000D03*
%TD*%
D12*
%TO.C,MX6*%
X68445000Y-74350000D03*
D13*
X73525000Y-74350000D03*
D12*
X78605000Y-74350000D03*
D14*
X69715000Y-71810000D03*
X76065000Y-69270000D03*
%TD*%
D12*
%TO.C,MX36*%
X230370000Y-74350000D03*
D13*
X235450000Y-74350000D03*
D12*
X240530000Y-74350000D03*
D14*
X231640000Y-71810000D03*
X237990000Y-69270000D03*
%TD*%
D12*
%TO.C,MX37*%
X230370000Y-93400000D03*
D13*
X235450000Y-93400000D03*
D12*
X240530000Y-93400000D03*
D14*
X231640000Y-90860000D03*
X237990000Y-88320000D03*
%TD*%
D12*
%TO.C,MX8*%
X68445000Y-112450000D03*
D13*
X73525000Y-112450000D03*
D12*
X78605000Y-112450000D03*
D14*
X69715000Y-109910000D03*
X76065000Y-107370000D03*
%TD*%
D12*
%TO.C,MX26*%
X173220000Y-93400000D03*
D13*
X178300000Y-93400000D03*
D12*
X183380000Y-93400000D03*
D14*
X174490000Y-90860000D03*
X180840000Y-88320000D03*
%TD*%
D13*
%TO.C,MX19*%
X116387500Y-108957500D03*
D15*
X116387500Y-124197500D03*
D12*
X139882500Y-117212500D03*
D13*
X144962500Y-117212500D03*
D12*
X150042500Y-117212500D03*
D13*
X173537500Y-108957500D03*
D15*
X173537500Y-124197500D03*
D14*
X141152500Y-114672500D03*
X147502500Y-112132500D03*
%TD*%
D12*
%TO.C,MX19*%
X127976250Y-117212500D03*
D13*
X133056250Y-117212500D03*
D12*
X138136250Y-117212500D03*
D14*
X129246250Y-114672500D03*
X135596250Y-112132500D03*
%TD*%
D12*
%TO.C,MX23*%
X161313750Y-117212500D03*
D13*
X166393750Y-117212500D03*
D12*
X171473750Y-117212500D03*
D14*
X162583750Y-114672500D03*
X168933750Y-112132500D03*
%TD*%
D12*
%TO.C,MX12*%
X87495000Y-112450000D03*
D13*
X92575000Y-112450000D03*
D12*
X97655000Y-112450000D03*
D14*
X88765000Y-109910000D03*
X95115000Y-107370000D03*
%TD*%
D12*
%TO.C,MX3*%
X49395000Y-93400000D03*
D13*
X54475000Y-93400000D03*
D12*
X59555000Y-93400000D03*
D14*
X50665000Y-90860000D03*
X57015000Y-88320000D03*
%TD*%
D12*
%TO.C,MX27*%
X192270000Y-55300000D03*
D13*
X197350000Y-55300000D03*
D12*
X202430000Y-55300000D03*
D14*
X193540000Y-52760000D03*
X199890000Y-50220000D03*
%TD*%
D12*
%TO.C,MX28*%
X192270000Y-74350000D03*
D13*
X197350000Y-74350000D03*
D12*
X202430000Y-74350000D03*
D14*
X193540000Y-71810000D03*
X199890000Y-69270000D03*
%TD*%
D12*
%TO.C,MX25*%
X173220000Y-74350000D03*
D13*
X178300000Y-74350000D03*
D12*
X183380000Y-74350000D03*
D14*
X174490000Y-71810000D03*
X180840000Y-69270000D03*
%TD*%
D12*
%TO.C,MX34*%
X211320000Y-112450000D03*
D13*
X216400000Y-112450000D03*
D12*
X221480000Y-112450000D03*
D14*
X212590000Y-109910000D03*
X218940000Y-107370000D03*
%TD*%
D12*
%TO.C,MX19*%
X120832500Y-117212500D03*
D13*
X125912500Y-117212500D03*
D12*
X130992500Y-117212500D03*
D14*
X122102500Y-114672500D03*
X128452500Y-112132500D03*
%TD*%
D12*
%TO.C,MX31*%
X211320000Y-55300000D03*
D13*
X216400000Y-55300000D03*
D12*
X221480000Y-55300000D03*
D14*
X212590000Y-52760000D03*
X218940000Y-50220000D03*
%TD*%
D16*
%TO.C,C_1V-Decoup2*%
X72650000Y-71060000D03*
X72650000Y-70100000D03*
%TD*%
D17*
%TO.C,D6*%
X80749999Y-74449999D03*
X84049999Y-74449999D03*
%TD*%
D18*
%TO.C,D14*%
X114724999Y-76499999D03*
X114724999Y-73199999D03*
%TD*%
D19*
%TO.C,C_Crystal1*%
X69750000Y-92350000D03*
X70710000Y-92350000D03*
%TD*%
D18*
%TO.C,D37*%
X238549999Y-95549999D03*
X238549999Y-92249999D03*
%TD*%
D20*
%TO.C,R_Crystal1*%
X70600000Y-91360000D03*
X70600000Y-90340000D03*
%TD*%
D18*
%TO.C,D17*%
X133774999Y-76499999D03*
X133774999Y-73199999D03*
%TD*%
D21*
%TO.C,R_Flash1*%
X81100000Y-61390000D03*
X81100000Y-62410000D03*
%TD*%
D22*
%TO.C,SW1*%
X84899999Y-59249999D03*
D23*
X83629999Y-59249999D03*
%TD*%
D18*
%TO.C,D8*%
X85499999Y-114549999D03*
X85499999Y-111249999D03*
%TD*%
%TO.C,D20*%
X162349999Y-57449999D03*
X162349999Y-54149999D03*
%TD*%
%TO.C,D15*%
X114724999Y-95549999D03*
X114724999Y-92249999D03*
%TD*%
%TO.C,D31*%
X219499999Y-57449999D03*
X219499999Y-54149999D03*
%TD*%
D16*
%TO.C,C_3V-Decoup2*%
X66200000Y-76480000D03*
X66200000Y-75520000D03*
%TD*%
D18*
%TO.C,D13*%
X114724999Y-57449999D03*
X114724999Y-54149999D03*
%TD*%
%TO.C,D23*%
X174493749Y-119362499D03*
X174493749Y-116062499D03*
%TD*%
D24*
%TO.C,C_3V-Decoup7*%
X64530000Y-78950000D03*
X63570000Y-78950000D03*
%TD*%
D18*
%TO.C,D32*%
X219499999Y-76499999D03*
X219499999Y-73199999D03*
%TD*%
%TO.C,D4*%
X64899999Y-114549999D03*
X64899999Y-111249999D03*
%TD*%
D16*
%TO.C,C_3V-Decoup9*%
X75700000Y-80080000D03*
X75700000Y-79120000D03*
%TD*%
D24*
%TO.C,C_3V-Decoup4*%
X65280000Y-84600000D03*
X64320000Y-84600000D03*
%TD*%
D18*
%TO.C,D26*%
X181399999Y-95549999D03*
X181399999Y-92249999D03*
%TD*%
%TO.C,D28*%
X200449999Y-76499999D03*
X200449999Y-73199999D03*
%TD*%
D21*
%TO.C,R_DATA1*%
X67700000Y-71650000D03*
X67700000Y-72670000D03*
%TD*%
D25*
%TO.C,C_3V-Decoup8*%
X68800000Y-90390000D03*
X68800000Y-91350000D03*
%TD*%
D16*
%TO.C,C_Flash1*%
X85650000Y-72800000D03*
X85650000Y-71840000D03*
%TD*%
D18*
%TO.C,D10*%
X95674999Y-76499999D03*
X95674999Y-73199999D03*
%TD*%
%TO.C,D35*%
X238468749Y-57449999D03*
X238468749Y-54149999D03*
%TD*%
%TO.C,D38*%
X238549999Y-114599999D03*
X238549999Y-111299999D03*
%TD*%
%TO.C,D19*%
X136156249Y-119362499D03*
X136156249Y-116062499D03*
%TD*%
D26*
%TO.C,U3*%
X61400000Y-61487500D03*
X59500000Y-61487500D03*
X60450000Y-59612500D03*
%TD*%
D18*
%TO.C,D25*%
X181399999Y-76499999D03*
X181399999Y-73199999D03*
%TD*%
%TO.C,D11*%
X95674999Y-95549999D03*
X95674999Y-92249999D03*
%TD*%
D25*
%TO.C,C_1V-Decoup3*%
X67450000Y-90270000D03*
X67450000Y-91230000D03*
%TD*%
D18*
%TO.C,D18*%
X133774999Y-95549999D03*
X133774999Y-92249999D03*
%TD*%
%TO.C,D34*%
X219499999Y-114599999D03*
X219499999Y-111299999D03*
%TD*%
%TO.C,D2*%
X57574999Y-75999999D03*
X57574999Y-72699999D03*
%TD*%
%TO.C,D3*%
X57574999Y-95549999D03*
X57574999Y-92249999D03*
%TD*%
%TO.C,D29*%
X200449999Y-95549999D03*
X200449999Y-92249999D03*
%TD*%
%TO.C,D16*%
X133774999Y-57449999D03*
X133774999Y-54149999D03*
%TD*%
D25*
%TO.C,C_3V-Decoup6*%
X77100000Y-85970000D03*
X77100000Y-86930000D03*
%TD*%
D18*
%TO.C,D30*%
X200449999Y-114599999D03*
X200449999Y-111299999D03*
%TD*%
%TO.C,D1*%
X57574999Y-57449999D03*
X57574999Y-54149999D03*
%TD*%
D24*
%TO.C,C_3V-Decoup1*%
X59480000Y-64250000D03*
X58520000Y-64250000D03*
%TD*%
%TO.C,C_LD1*%
X60430000Y-58100000D03*
X59470000Y-58100000D03*
%TD*%
D20*
%TO.C,R_RST1*%
X49350000Y-77560000D03*
X49350000Y-76540000D03*
%TD*%
D27*
%TO.C,U2*%
X79495000Y-71850000D03*
X80765000Y-71850000D03*
X82035000Y-71850000D03*
X83305000Y-71850000D03*
X83305000Y-64650000D03*
X82035000Y-64650000D03*
X80765000Y-64650000D03*
X79495000Y-64650000D03*
%TD*%
D18*
%TO.C,D33*%
X219499999Y-95549999D03*
X219499999Y-92249999D03*
%TD*%
%TO.C,D36*%
X238549999Y-76499999D03*
X238549999Y-73199999D03*
%TD*%
%TO.C,D7*%
X81374999Y-95549999D03*
X81374999Y-92249999D03*
%TD*%
%TO.C,D12*%
X102818749Y-114599999D03*
X102818749Y-111299999D03*
%TD*%
D16*
%TO.C,C_1V-Decoup1*%
X65500000Y-73370000D03*
X65500000Y-72410000D03*
%TD*%
%TO.C,C_3V-Decoup3*%
X71650000Y-71060000D03*
X71650000Y-70100000D03*
%TD*%
D18*
%TO.C,D22*%
X162349999Y-95549999D03*
X162349999Y-92249999D03*
%TD*%
D28*
%TO.C,U1*%
X74387500Y-81000000D03*
X74387500Y-81400000D03*
X74387500Y-81800000D03*
X74387500Y-82200000D03*
X74387500Y-82600000D03*
X74387500Y-83000000D03*
X74387500Y-83400000D03*
X74387500Y-83800000D03*
X74387500Y-84200000D03*
X74387500Y-84600000D03*
X74387500Y-85000000D03*
X74387500Y-85400000D03*
X74387500Y-85800000D03*
X74387500Y-86200000D03*
D29*
X73550000Y-87037500D03*
X73150000Y-87037500D03*
X72750000Y-87037500D03*
X72350000Y-87037500D03*
X71950000Y-87037500D03*
X71550000Y-87037500D03*
X71150000Y-87037500D03*
X70750000Y-87037500D03*
X70350000Y-87037500D03*
X69950000Y-87037500D03*
X69550000Y-87037500D03*
X69150000Y-87037500D03*
X68750000Y-87037500D03*
X68350000Y-87037500D03*
D28*
X67512500Y-86200000D03*
X67512500Y-85800000D03*
X67512500Y-85400000D03*
X67512500Y-85000000D03*
X67512500Y-84600000D03*
X67512500Y-84200000D03*
X67512500Y-83800000D03*
X67512500Y-83400000D03*
X67512500Y-83000000D03*
X67512500Y-82600000D03*
X67512500Y-82200000D03*
X67512500Y-81800000D03*
X67512500Y-81400000D03*
X67512500Y-81000000D03*
D29*
X68350000Y-80162500D03*
X68750000Y-80162500D03*
X69150000Y-80162500D03*
X69550000Y-80162500D03*
X69950000Y-80162500D03*
X70350000Y-80162500D03*
X70750000Y-80162500D03*
X71150000Y-80162500D03*
X71550000Y-80162500D03*
X71950000Y-80162500D03*
X72350000Y-80162500D03*
X72750000Y-80162500D03*
X73150000Y-80162500D03*
X73550000Y-80162500D03*
D30*
X70950000Y-83600000D03*
%TD*%
D31*
%TO.C,J2*%
X46799999Y-76024999D03*
D32*
X46799999Y-78564999D03*
X46799999Y-81104999D03*
X46799999Y-83644999D03*
X46799999Y-86184999D03*
%TD*%
D18*
%TO.C,D27*%
X200449999Y-57449999D03*
X200449999Y-54149999D03*
%TD*%
D16*
%TO.C,C_Crystal2*%
X65800000Y-93100000D03*
X65800000Y-92140000D03*
%TD*%
D18*
%TO.C,D9*%
X95674999Y-57449999D03*
X95674999Y-54149999D03*
%TD*%
%TO.C,D24*%
X181399999Y-57449999D03*
X181399999Y-54149999D03*
%TD*%
D24*
%TO.C,C_3V-Decoup5*%
X64530000Y-80000000D03*
X63570000Y-80000000D03*
%TD*%
D21*
%TO.C,R_DATA2*%
X66600000Y-71650000D03*
X66600000Y-72670000D03*
%TD*%
D24*
%TO.C,C_LD2*%
X59480000Y-63200000D03*
X58520000Y-63200000D03*
%TD*%
D33*
%TO.C,J1*%
X65200000Y-63300000D03*
X65200000Y-64300000D03*
X65200000Y-65300000D03*
X65200000Y-66300000D03*
D34*
X69075000Y-62000000D03*
X69075000Y-67600000D03*
%TD*%
D18*
%TO.C,D21*%
X162349999Y-76499999D03*
X162349999Y-73199999D03*
%TD*%
D35*
%TO.C,Y1*%
X64049999Y-91599999D03*
X64049999Y-93799999D03*
X62349999Y-93799999D03*
X62349999Y-91599999D03*
%TD*%
D18*
%TO.C,D5*%
X76624999Y-57549999D03*
X76624999Y-54249999D03*
%TD*%
M02*
