%TF.GenerationSoftware,KiCad,Pcbnew,(7.0.0-0)*%
%TF.CreationDate,2023-07-17T12:18:46-04:00*%
%TF.ProjectId,cutiepie2040_ortho,63757469-6570-4696-9532-3034305f6f72,rev?*%
%TF.SameCoordinates,Original*%
%TF.FileFunction,Legend,Top*%
%TF.FilePolarity,Positive*%
%FSLAX46Y46*%
G04 Gerber Fmt 4.6, Leading zero omitted, Abs format (unit mm)*
G04 Created by KiCad (PCBNEW (7.0.0-0)) date 2023-07-17 12:18:46*
%MOMM*%
%LPD*%
G01*
G04 APERTURE LIST*
%ADD10C,0.150000*%
%ADD11C,1.750000*%
%ADD12C,3.987800*%
%ADD13C,3.048000*%
%ADD14R,1.000000X1.000000*%
%ADD15O,1.000000X1.000000*%
%ADD16R,1.700000X1.700000*%
%ADD17O,1.700000X1.700000*%
G04 APERTURE END LIST*
D10*
X148882380Y-84761904D02*
X147882380Y-84761904D01*
X148263333Y-84761904D02*
X148215714Y-84666666D01*
X148215714Y-84666666D02*
X148215714Y-84476190D01*
X148215714Y-84476190D02*
X148263333Y-84380952D01*
X148263333Y-84380952D02*
X148310952Y-84333333D01*
X148310952Y-84333333D02*
X148406190Y-84285714D01*
X148406190Y-84285714D02*
X148691904Y-84285714D01*
X148691904Y-84285714D02*
X148787142Y-84333333D01*
X148787142Y-84333333D02*
X148834761Y-84380952D01*
X148834761Y-84380952D02*
X148882380Y-84476190D01*
X148882380Y-84476190D02*
X148882380Y-84666666D01*
X148882380Y-84666666D02*
X148834761Y-84761904D01*
X148215714Y-83428571D02*
X148882380Y-83428571D01*
X148215714Y-83857142D02*
X148739523Y-83857142D01*
X148739523Y-83857142D02*
X148834761Y-83809523D01*
X148834761Y-83809523D02*
X148882380Y-83714285D01*
X148882380Y-83714285D02*
X148882380Y-83571428D01*
X148882380Y-83571428D02*
X148834761Y-83476190D01*
X148834761Y-83476190D02*
X148787142Y-83428571D01*
X148215714Y-83095237D02*
X148215714Y-82714285D01*
X147882380Y-82952380D02*
X148739523Y-82952380D01*
X148739523Y-82952380D02*
X148834761Y-82904761D01*
X148834761Y-82904761D02*
X148882380Y-82809523D01*
X148882380Y-82809523D02*
X148882380Y-82714285D01*
X148882380Y-81780951D02*
X148215714Y-81780951D01*
X147882380Y-81780951D02*
X147930000Y-81828570D01*
X147930000Y-81828570D02*
X147977619Y-81780951D01*
X147977619Y-81780951D02*
X147930000Y-81733332D01*
X147930000Y-81733332D02*
X147882380Y-81780951D01*
X147882380Y-81780951D02*
X147977619Y-81780951D01*
X148215714Y-80276190D02*
X149025238Y-80276190D01*
X149025238Y-80276190D02*
X149120476Y-80323809D01*
X149120476Y-80323809D02*
X149168095Y-80371428D01*
X149168095Y-80371428D02*
X149215714Y-80466666D01*
X149215714Y-80466666D02*
X149215714Y-80609523D01*
X149215714Y-80609523D02*
X149168095Y-80704761D01*
X148834761Y-80276190D02*
X148882380Y-80371428D01*
X148882380Y-80371428D02*
X148882380Y-80561904D01*
X148882380Y-80561904D02*
X148834761Y-80657142D01*
X148834761Y-80657142D02*
X148787142Y-80704761D01*
X148787142Y-80704761D02*
X148691904Y-80752380D01*
X148691904Y-80752380D02*
X148406190Y-80752380D01*
X148406190Y-80752380D02*
X148310952Y-80704761D01*
X148310952Y-80704761D02*
X148263333Y-80657142D01*
X148263333Y-80657142D02*
X148215714Y-80561904D01*
X148215714Y-80561904D02*
X148215714Y-80371428D01*
X148215714Y-80371428D02*
X148263333Y-80276190D01*
X148215714Y-79371428D02*
X148882380Y-79371428D01*
X148215714Y-79799999D02*
X148739523Y-79799999D01*
X148739523Y-79799999D02*
X148834761Y-79752380D01*
X148834761Y-79752380D02*
X148882380Y-79657142D01*
X148882380Y-79657142D02*
X148882380Y-79514285D01*
X148882380Y-79514285D02*
X148834761Y-79419047D01*
X148834761Y-79419047D02*
X148787142Y-79371428D01*
X148834761Y-78514285D02*
X148882380Y-78609523D01*
X148882380Y-78609523D02*
X148882380Y-78799999D01*
X148882380Y-78799999D02*
X148834761Y-78895237D01*
X148834761Y-78895237D02*
X148739523Y-78942856D01*
X148739523Y-78942856D02*
X148358571Y-78942856D01*
X148358571Y-78942856D02*
X148263333Y-78895237D01*
X148263333Y-78895237D02*
X148215714Y-78799999D01*
X148215714Y-78799999D02*
X148215714Y-78609523D01*
X148215714Y-78609523D02*
X148263333Y-78514285D01*
X148263333Y-78514285D02*
X148358571Y-78466666D01*
X148358571Y-78466666D02*
X148453809Y-78466666D01*
X148453809Y-78466666D02*
X148549047Y-78942856D01*
X148834761Y-78085713D02*
X148882380Y-77990475D01*
X148882380Y-77990475D02*
X148882380Y-77799999D01*
X148882380Y-77799999D02*
X148834761Y-77704761D01*
X148834761Y-77704761D02*
X148739523Y-77657142D01*
X148739523Y-77657142D02*
X148691904Y-77657142D01*
X148691904Y-77657142D02*
X148596666Y-77704761D01*
X148596666Y-77704761D02*
X148549047Y-77799999D01*
X148549047Y-77799999D02*
X148549047Y-77942856D01*
X148549047Y-77942856D02*
X148501428Y-78038094D01*
X148501428Y-78038094D02*
X148406190Y-78085713D01*
X148406190Y-78085713D02*
X148358571Y-78085713D01*
X148358571Y-78085713D02*
X148263333Y-78038094D01*
X148263333Y-78038094D02*
X148215714Y-77942856D01*
X148215714Y-77942856D02*
X148215714Y-77799999D01*
X148215714Y-77799999D02*
X148263333Y-77704761D01*
X148834761Y-77276189D02*
X148882380Y-77180951D01*
X148882380Y-77180951D02*
X148882380Y-76990475D01*
X148882380Y-76990475D02*
X148834761Y-76895237D01*
X148834761Y-76895237D02*
X148739523Y-76847618D01*
X148739523Y-76847618D02*
X148691904Y-76847618D01*
X148691904Y-76847618D02*
X148596666Y-76895237D01*
X148596666Y-76895237D02*
X148549047Y-76990475D01*
X148549047Y-76990475D02*
X148549047Y-77133332D01*
X148549047Y-77133332D02*
X148501428Y-77228570D01*
X148501428Y-77228570D02*
X148406190Y-77276189D01*
X148406190Y-77276189D02*
X148358571Y-77276189D01*
X148358571Y-77276189D02*
X148263333Y-77228570D01*
X148263333Y-77228570D02*
X148215714Y-77133332D01*
X148215714Y-77133332D02*
X148215714Y-76990475D01*
X148215714Y-76990475D02*
X148263333Y-76895237D01*
X148882380Y-75819046D02*
X148215714Y-75819046D01*
X147882380Y-75819046D02*
X147930000Y-75866665D01*
X147930000Y-75866665D02*
X147977619Y-75819046D01*
X147977619Y-75819046D02*
X147930000Y-75771427D01*
X147930000Y-75771427D02*
X147882380Y-75819046D01*
X147882380Y-75819046D02*
X147977619Y-75819046D01*
X148215714Y-75485713D02*
X148215714Y-75104761D01*
X147882380Y-75342856D02*
X148739523Y-75342856D01*
X148739523Y-75342856D02*
X148834761Y-75295237D01*
X148834761Y-75295237D02*
X148882380Y-75199999D01*
X148882380Y-75199999D02*
X148882380Y-75104761D01*
X147882380Y-74723808D02*
X148072857Y-74819046D01*
X148834761Y-74342856D02*
X148882380Y-74247618D01*
X148882380Y-74247618D02*
X148882380Y-74057142D01*
X148882380Y-74057142D02*
X148834761Y-73961904D01*
X148834761Y-73961904D02*
X148739523Y-73914285D01*
X148739523Y-73914285D02*
X148691904Y-73914285D01*
X148691904Y-73914285D02*
X148596666Y-73961904D01*
X148596666Y-73961904D02*
X148549047Y-74057142D01*
X148549047Y-74057142D02*
X148549047Y-74199999D01*
X148549047Y-74199999D02*
X148501428Y-74295237D01*
X148501428Y-74295237D02*
X148406190Y-74342856D01*
X148406190Y-74342856D02*
X148358571Y-74342856D01*
X148358571Y-74342856D02*
X148263333Y-74295237D01*
X148263333Y-74295237D02*
X148215714Y-74199999D01*
X148215714Y-74199999D02*
X148215714Y-74057142D01*
X148215714Y-74057142D02*
X148263333Y-73961904D01*
X148882380Y-72885713D02*
X147882380Y-72885713D01*
X148501428Y-72790475D02*
X148882380Y-72504761D01*
X148215714Y-72504761D02*
X148596666Y-72885713D01*
X148882380Y-72076189D02*
X148215714Y-72076189D01*
X147882380Y-72076189D02*
X147930000Y-72123808D01*
X147930000Y-72123808D02*
X147977619Y-72076189D01*
X147977619Y-72076189D02*
X147930000Y-72028570D01*
X147930000Y-72028570D02*
X147882380Y-72076189D01*
X147882380Y-72076189D02*
X147977619Y-72076189D01*
X148215714Y-71599999D02*
X148882380Y-71599999D01*
X148310952Y-71599999D02*
X148263333Y-71552380D01*
X148263333Y-71552380D02*
X148215714Y-71457142D01*
X148215714Y-71457142D02*
X148215714Y-71314285D01*
X148215714Y-71314285D02*
X148263333Y-71219047D01*
X148263333Y-71219047D02*
X148358571Y-71171428D01*
X148358571Y-71171428D02*
X148882380Y-71171428D01*
X148882380Y-70266666D02*
X147882380Y-70266666D01*
X148834761Y-70266666D02*
X148882380Y-70361904D01*
X148882380Y-70361904D02*
X148882380Y-70552380D01*
X148882380Y-70552380D02*
X148834761Y-70647618D01*
X148834761Y-70647618D02*
X148787142Y-70695237D01*
X148787142Y-70695237D02*
X148691904Y-70742856D01*
X148691904Y-70742856D02*
X148406190Y-70742856D01*
X148406190Y-70742856D02*
X148310952Y-70695237D01*
X148310952Y-70695237D02*
X148263333Y-70647618D01*
X148263333Y-70647618D02*
X148215714Y-70552380D01*
X148215714Y-70552380D02*
X148215714Y-70361904D01*
X148215714Y-70361904D02*
X148263333Y-70266666D01*
X148882380Y-69361904D02*
X148358571Y-69361904D01*
X148358571Y-69361904D02*
X148263333Y-69409523D01*
X148263333Y-69409523D02*
X148215714Y-69504761D01*
X148215714Y-69504761D02*
X148215714Y-69695237D01*
X148215714Y-69695237D02*
X148263333Y-69790475D01*
X148834761Y-69361904D02*
X148882380Y-69457142D01*
X148882380Y-69457142D02*
X148882380Y-69695237D01*
X148882380Y-69695237D02*
X148834761Y-69790475D01*
X148834761Y-69790475D02*
X148739523Y-69838094D01*
X148739523Y-69838094D02*
X148644285Y-69838094D01*
X148644285Y-69838094D02*
X148549047Y-69790475D01*
X148549047Y-69790475D02*
X148501428Y-69695237D01*
X148501428Y-69695237D02*
X148501428Y-69457142D01*
X148501428Y-69457142D02*
X148453809Y-69361904D01*
X148834761Y-67857142D02*
X148882380Y-67952380D01*
X148882380Y-67952380D02*
X148882380Y-68142856D01*
X148882380Y-68142856D02*
X148834761Y-68238094D01*
X148834761Y-68238094D02*
X148787142Y-68285713D01*
X148787142Y-68285713D02*
X148691904Y-68333332D01*
X148691904Y-68333332D02*
X148406190Y-68333332D01*
X148406190Y-68333332D02*
X148310952Y-68285713D01*
X148310952Y-68285713D02*
X148263333Y-68238094D01*
X148263333Y-68238094D02*
X148215714Y-68142856D01*
X148215714Y-68142856D02*
X148215714Y-67952380D01*
X148215714Y-67952380D02*
X148263333Y-67857142D01*
X148215714Y-66999999D02*
X148882380Y-66999999D01*
X148215714Y-67428570D02*
X148739523Y-67428570D01*
X148739523Y-67428570D02*
X148834761Y-67380951D01*
X148834761Y-67380951D02*
X148882380Y-67285713D01*
X148882380Y-67285713D02*
X148882380Y-67142856D01*
X148882380Y-67142856D02*
X148834761Y-67047618D01*
X148834761Y-67047618D02*
X148787142Y-66999999D01*
X148215714Y-66666665D02*
X148215714Y-66285713D01*
X147882380Y-66523808D02*
X148739523Y-66523808D01*
X148739523Y-66523808D02*
X148834761Y-66476189D01*
X148834761Y-66476189D02*
X148882380Y-66380951D01*
X148882380Y-66380951D02*
X148882380Y-66285713D01*
X148834761Y-65571427D02*
X148882380Y-65666665D01*
X148882380Y-65666665D02*
X148882380Y-65857141D01*
X148882380Y-65857141D02*
X148834761Y-65952379D01*
X148834761Y-65952379D02*
X148739523Y-65999998D01*
X148739523Y-65999998D02*
X148358571Y-65999998D01*
X148358571Y-65999998D02*
X148263333Y-65952379D01*
X148263333Y-65952379D02*
X148215714Y-65857141D01*
X148215714Y-65857141D02*
X148215714Y-65666665D01*
X148215714Y-65666665D02*
X148263333Y-65571427D01*
X148263333Y-65571427D02*
X148358571Y-65523808D01*
X148358571Y-65523808D02*
X148453809Y-65523808D01*
X148453809Y-65523808D02*
X148549047Y-65999998D01*
X142132380Y-78919047D02*
X142084761Y-79014285D01*
X142084761Y-79014285D02*
X142037142Y-79061904D01*
X142037142Y-79061904D02*
X141941904Y-79109523D01*
X141941904Y-79109523D02*
X141656190Y-79109523D01*
X141656190Y-79109523D02*
X141560952Y-79061904D01*
X141560952Y-79061904D02*
X141513333Y-79014285D01*
X141513333Y-79014285D02*
X141465714Y-78919047D01*
X141465714Y-78919047D02*
X141465714Y-78776190D01*
X141465714Y-78776190D02*
X141513333Y-78680952D01*
X141513333Y-78680952D02*
X141560952Y-78633333D01*
X141560952Y-78633333D02*
X141656190Y-78585714D01*
X141656190Y-78585714D02*
X141941904Y-78585714D01*
X141941904Y-78585714D02*
X142037142Y-78633333D01*
X142037142Y-78633333D02*
X142084761Y-78680952D01*
X142084761Y-78680952D02*
X142132380Y-78776190D01*
X142132380Y-78776190D02*
X142132380Y-78919047D01*
X142132380Y-78157142D02*
X141465714Y-78157142D01*
X141656190Y-78157142D02*
X141560952Y-78109523D01*
X141560952Y-78109523D02*
X141513333Y-78061904D01*
X141513333Y-78061904D02*
X141465714Y-77966666D01*
X141465714Y-77966666D02*
X141465714Y-77871428D01*
X141465714Y-77680951D02*
X141465714Y-77299999D01*
X141132380Y-77538094D02*
X141989523Y-77538094D01*
X141989523Y-77538094D02*
X142084761Y-77490475D01*
X142084761Y-77490475D02*
X142132380Y-77395237D01*
X142132380Y-77395237D02*
X142132380Y-77299999D01*
X142132380Y-76966665D02*
X141132380Y-76966665D01*
X142132380Y-76538094D02*
X141608571Y-76538094D01*
X141608571Y-76538094D02*
X141513333Y-76585713D01*
X141513333Y-76585713D02*
X141465714Y-76680951D01*
X141465714Y-76680951D02*
X141465714Y-76823808D01*
X141465714Y-76823808D02*
X141513333Y-76919046D01*
X141513333Y-76919046D02*
X141560952Y-76966665D01*
X142132380Y-75919046D02*
X142084761Y-76014284D01*
X142084761Y-76014284D02*
X142037142Y-76061903D01*
X142037142Y-76061903D02*
X141941904Y-76109522D01*
X141941904Y-76109522D02*
X141656190Y-76109522D01*
X141656190Y-76109522D02*
X141560952Y-76061903D01*
X141560952Y-76061903D02*
X141513333Y-76014284D01*
X141513333Y-76014284D02*
X141465714Y-75919046D01*
X141465714Y-75919046D02*
X141465714Y-75776189D01*
X141465714Y-75776189D02*
X141513333Y-75680951D01*
X141513333Y-75680951D02*
X141560952Y-75633332D01*
X141560952Y-75633332D02*
X141656190Y-75585713D01*
X141656190Y-75585713D02*
X141941904Y-75585713D01*
X141941904Y-75585713D02*
X142037142Y-75633332D01*
X142037142Y-75633332D02*
X142084761Y-75680951D01*
X142084761Y-75680951D02*
X142132380Y-75776189D01*
X142132380Y-75776189D02*
X142132380Y-75919046D01*
X142132380Y-74557141D02*
X141132380Y-74557141D01*
X141513333Y-74557141D02*
X141465714Y-74461903D01*
X141465714Y-74461903D02*
X141465714Y-74271427D01*
X141465714Y-74271427D02*
X141513333Y-74176189D01*
X141513333Y-74176189D02*
X141560952Y-74128570D01*
X141560952Y-74128570D02*
X141656190Y-74080951D01*
X141656190Y-74080951D02*
X141941904Y-74080951D01*
X141941904Y-74080951D02*
X142037142Y-74128570D01*
X142037142Y-74128570D02*
X142084761Y-74176189D01*
X142084761Y-74176189D02*
X142132380Y-74271427D01*
X142132380Y-74271427D02*
X142132380Y-74461903D01*
X142132380Y-74461903D02*
X142084761Y-74557141D01*
X142132380Y-73223808D02*
X141608571Y-73223808D01*
X141608571Y-73223808D02*
X141513333Y-73271427D01*
X141513333Y-73271427D02*
X141465714Y-73366665D01*
X141465714Y-73366665D02*
X141465714Y-73557141D01*
X141465714Y-73557141D02*
X141513333Y-73652379D01*
X142084761Y-73223808D02*
X142132380Y-73319046D01*
X142132380Y-73319046D02*
X142132380Y-73557141D01*
X142132380Y-73557141D02*
X142084761Y-73652379D01*
X142084761Y-73652379D02*
X141989523Y-73699998D01*
X141989523Y-73699998D02*
X141894285Y-73699998D01*
X141894285Y-73699998D02*
X141799047Y-73652379D01*
X141799047Y-73652379D02*
X141751428Y-73557141D01*
X141751428Y-73557141D02*
X141751428Y-73319046D01*
X141751428Y-73319046D02*
X141703809Y-73223808D01*
X142132380Y-72319046D02*
X141132380Y-72319046D01*
X142084761Y-72319046D02*
X142132380Y-72414284D01*
X142132380Y-72414284D02*
X142132380Y-72604760D01*
X142132380Y-72604760D02*
X142084761Y-72699998D01*
X142084761Y-72699998D02*
X142037142Y-72747617D01*
X142037142Y-72747617D02*
X141941904Y-72795236D01*
X141941904Y-72795236D02*
X141656190Y-72795236D01*
X141656190Y-72795236D02*
X141560952Y-72747617D01*
X141560952Y-72747617D02*
X141513333Y-72699998D01*
X141513333Y-72699998D02*
X141465714Y-72604760D01*
X141465714Y-72604760D02*
X141465714Y-72414284D01*
X141465714Y-72414284D02*
X141513333Y-72319046D01*
%LPC*%
D11*
%TO.C,MX35*%
X230370000Y-55300000D03*
D12*
X235450000Y-55300000D03*
D11*
X240530000Y-55300000D03*
%TD*%
%TO.C,MX22*%
X154170000Y-93400000D03*
D12*
X159250000Y-93400000D03*
D11*
X164330000Y-93400000D03*
%TD*%
%TO.C,MX18*%
X125595000Y-93400000D03*
D12*
X130675000Y-93400000D03*
D11*
X135755000Y-93400000D03*
%TD*%
%TO.C,MX7*%
X78605000Y-93400000D03*
D12*
X73525000Y-93400000D03*
D11*
X68445000Y-93400000D03*
%TD*%
%TO.C,MX9*%
X87495000Y-55300000D03*
D12*
X92575000Y-55300000D03*
D11*
X97655000Y-55300000D03*
%TD*%
%TO.C,MX4*%
X49395000Y-112450000D03*
D12*
X54475000Y-112450000D03*
D11*
X59555000Y-112450000D03*
%TD*%
%TO.C,MX1*%
X49395000Y-55300000D03*
D12*
X54475000Y-55300000D03*
D11*
X59555000Y-55300000D03*
%TD*%
%TO.C,MX17*%
X125595000Y-74350000D03*
D12*
X130675000Y-74350000D03*
D11*
X135755000Y-74350000D03*
%TD*%
%TO.C,MX2*%
X49395000Y-74350000D03*
D12*
X54475000Y-74350000D03*
D11*
X59555000Y-74350000D03*
%TD*%
%TO.C,MX11*%
X87495000Y-93400000D03*
D12*
X92575000Y-93400000D03*
D11*
X97655000Y-93400000D03*
%TD*%
D12*
%TO.C,MX23*%
X135437500Y-108957500D03*
D13*
X135437500Y-124197500D03*
D11*
X149407500Y-117212500D03*
D12*
X154487500Y-117212500D03*
D11*
X159567500Y-117212500D03*
D12*
X173537500Y-108957500D03*
D13*
X173537500Y-124197500D03*
%TD*%
D11*
%TO.C,MX10*%
X87495000Y-74350000D03*
D12*
X92575000Y-74350000D03*
D11*
X97655000Y-74350000D03*
%TD*%
%TO.C,MX30*%
X192270000Y-112450000D03*
D12*
X197350000Y-112450000D03*
D11*
X202430000Y-112450000D03*
%TD*%
%TO.C,MX12*%
X94638750Y-112450000D03*
D12*
X99718750Y-112450000D03*
D11*
X104798750Y-112450000D03*
%TD*%
%TO.C,MX23*%
X158932500Y-117212500D03*
D12*
X164012500Y-117212500D03*
D11*
X169092500Y-117212500D03*
%TD*%
%TO.C,MX19*%
X116705000Y-112450000D03*
D12*
X111625000Y-112450000D03*
D11*
X106545000Y-112450000D03*
%TD*%
%TO.C,MX4*%
X51776250Y-112450000D03*
D12*
X56856250Y-112450000D03*
D11*
X61936250Y-112450000D03*
%TD*%
%TO.C,MX33*%
X211320000Y-93400000D03*
D12*
X216400000Y-93400000D03*
D11*
X221480000Y-93400000D03*
%TD*%
%TO.C,MX13*%
X106545000Y-55300000D03*
D12*
X111625000Y-55300000D03*
D11*
X116705000Y-55300000D03*
%TD*%
%TO.C,MX29*%
X192270000Y-93400000D03*
D12*
X197350000Y-93400000D03*
D11*
X202430000Y-93400000D03*
%TD*%
%TO.C,MX15*%
X106545000Y-93400000D03*
D12*
X111625000Y-93400000D03*
D11*
X116705000Y-93400000D03*
%TD*%
%TO.C,MX14*%
X106545000Y-74350000D03*
D12*
X111625000Y-74350000D03*
D11*
X116705000Y-74350000D03*
%TD*%
%TO.C,MX16*%
X125595000Y-55300000D03*
D12*
X130675000Y-55300000D03*
D11*
X135755000Y-55300000D03*
%TD*%
%TO.C,MX5*%
X68445000Y-55300000D03*
D12*
X73525000Y-55300000D03*
D11*
X78605000Y-55300000D03*
%TD*%
%TO.C,MX24*%
X173220000Y-55300000D03*
D12*
X178300000Y-55300000D03*
D11*
X183380000Y-55300000D03*
%TD*%
%TO.C,MX21*%
X154170000Y-74350000D03*
D12*
X159250000Y-74350000D03*
D11*
X164330000Y-74350000D03*
%TD*%
%TO.C,MX32*%
X211320000Y-74350000D03*
D12*
X216400000Y-74350000D03*
D11*
X221480000Y-74350000D03*
%TD*%
%TO.C,MX38*%
X230370000Y-112450000D03*
D12*
X235450000Y-112450000D03*
D11*
X240530000Y-112450000D03*
%TD*%
%TO.C,MX20*%
X154170000Y-55300000D03*
D12*
X159250000Y-55300000D03*
D11*
X164330000Y-55300000D03*
%TD*%
%TO.C,MX8*%
X83367500Y-112450000D03*
D12*
X78287500Y-112450000D03*
D11*
X73207500Y-112450000D03*
%TD*%
%TO.C,MX6*%
X68445000Y-74350000D03*
D12*
X73525000Y-74350000D03*
D11*
X78605000Y-74350000D03*
%TD*%
%TO.C,MX36*%
X230370000Y-74350000D03*
D12*
X235450000Y-74350000D03*
D11*
X240530000Y-74350000D03*
%TD*%
%TO.C,MX37*%
X230370000Y-93400000D03*
D12*
X235450000Y-93400000D03*
D11*
X240530000Y-93400000D03*
%TD*%
%TO.C,MX8*%
X68445000Y-112450000D03*
D12*
X73525000Y-112450000D03*
D11*
X78605000Y-112450000D03*
%TD*%
%TO.C,MX26*%
X173220000Y-93400000D03*
D12*
X178300000Y-93400000D03*
D11*
X183380000Y-93400000D03*
%TD*%
D12*
%TO.C,MX19*%
X116387500Y-108957500D03*
D13*
X116387500Y-124197500D03*
D11*
X139882500Y-117212500D03*
D12*
X144962500Y-117212500D03*
D11*
X150042500Y-117212500D03*
D12*
X173537500Y-108957500D03*
D13*
X173537500Y-124197500D03*
%TD*%
D11*
%TO.C,MX19*%
X127976250Y-117212500D03*
D12*
X133056250Y-117212500D03*
D11*
X138136250Y-117212500D03*
%TD*%
%TO.C,MX23*%
X161313750Y-117212500D03*
D12*
X166393750Y-117212500D03*
D11*
X171473750Y-117212500D03*
%TD*%
%TO.C,MX12*%
X87495000Y-112450000D03*
D12*
X92575000Y-112450000D03*
D11*
X97655000Y-112450000D03*
%TD*%
%TO.C,MX3*%
X49395000Y-93400000D03*
D12*
X54475000Y-93400000D03*
D11*
X59555000Y-93400000D03*
%TD*%
%TO.C,MX27*%
X192270000Y-55300000D03*
D12*
X197350000Y-55300000D03*
D11*
X202430000Y-55300000D03*
%TD*%
%TO.C,MX28*%
X192270000Y-74350000D03*
D12*
X197350000Y-74350000D03*
D11*
X202430000Y-74350000D03*
%TD*%
%TO.C,MX25*%
X173220000Y-74350000D03*
D12*
X178300000Y-74350000D03*
D11*
X183380000Y-74350000D03*
%TD*%
%TO.C,MX34*%
X211320000Y-112450000D03*
D12*
X216400000Y-112450000D03*
D11*
X221480000Y-112450000D03*
%TD*%
%TO.C,MX19*%
X120832500Y-117212500D03*
D12*
X125912500Y-117212500D03*
D11*
X130992500Y-117212500D03*
%TD*%
%TO.C,MX31*%
X211320000Y-55300000D03*
D12*
X216400000Y-55300000D03*
D11*
X221480000Y-55300000D03*
%TD*%
D14*
%TO.C,SW1*%
X84899999Y-59249999D03*
D15*
X83629999Y-59249999D03*
%TD*%
D16*
%TO.C,J2*%
X46799999Y-76024999D03*
D17*
X46799999Y-78564999D03*
X46799999Y-81104999D03*
X46799999Y-83644999D03*
X46799999Y-86184999D03*
%TD*%
M02*
