%TF.GenerationSoftware,KiCad,Pcbnew,(7.0.0-0)*%
%TF.CreationDate,2023-07-17T12:18:46-04:00*%
%TF.ProjectId,cutiepie2040_ortho,63757469-6570-4696-9532-3034305f6f72,rev?*%
%TF.SameCoordinates,Original*%
%TF.FileFunction,Soldermask,Top*%
%TF.FilePolarity,Negative*%
%FSLAX46Y46*%
G04 Gerber Fmt 4.6, Leading zero omitted, Abs format (unit mm)*
G04 Created by KiCad (PCBNEW (7.0.0-0)) date 2023-07-17 12:18:46*
%MOMM*%
%LPD*%
G01*
G04 APERTURE LIST*
%ADD10C,1.750000*%
%ADD11C,3.987800*%
%ADD12C,3.048000*%
%ADD13R,1.000000X1.000000*%
%ADD14O,1.000000X1.000000*%
%ADD15R,1.700000X1.700000*%
%ADD16O,1.700000X1.700000*%
G04 APERTURE END LIST*
D10*
%TO.C,MX35*%
X230370000Y-55300000D03*
D11*
X235450000Y-55300000D03*
D10*
X240530000Y-55300000D03*
%TD*%
%TO.C,MX22*%
X154170000Y-93400000D03*
D11*
X159250000Y-93400000D03*
D10*
X164330000Y-93400000D03*
%TD*%
%TO.C,MX18*%
X125595000Y-93400000D03*
D11*
X130675000Y-93400000D03*
D10*
X135755000Y-93400000D03*
%TD*%
%TO.C,MX7*%
X78605000Y-93400000D03*
D11*
X73525000Y-93400000D03*
D10*
X68445000Y-93400000D03*
%TD*%
%TO.C,MX9*%
X87495000Y-55300000D03*
D11*
X92575000Y-55300000D03*
D10*
X97655000Y-55300000D03*
%TD*%
%TO.C,MX4*%
X49395000Y-112450000D03*
D11*
X54475000Y-112450000D03*
D10*
X59555000Y-112450000D03*
%TD*%
%TO.C,MX1*%
X49395000Y-55300000D03*
D11*
X54475000Y-55300000D03*
D10*
X59555000Y-55300000D03*
%TD*%
%TO.C,MX17*%
X125595000Y-74350000D03*
D11*
X130675000Y-74350000D03*
D10*
X135755000Y-74350000D03*
%TD*%
%TO.C,MX2*%
X49395000Y-74350000D03*
D11*
X54475000Y-74350000D03*
D10*
X59555000Y-74350000D03*
%TD*%
%TO.C,MX11*%
X87495000Y-93400000D03*
D11*
X92575000Y-93400000D03*
D10*
X97655000Y-93400000D03*
%TD*%
D11*
%TO.C,MX23*%
X135437500Y-108957500D03*
D12*
X135437500Y-124197500D03*
D10*
X149407500Y-117212500D03*
D11*
X154487500Y-117212500D03*
D10*
X159567500Y-117212500D03*
D11*
X173537500Y-108957500D03*
D12*
X173537500Y-124197500D03*
%TD*%
D10*
%TO.C,MX10*%
X87495000Y-74350000D03*
D11*
X92575000Y-74350000D03*
D10*
X97655000Y-74350000D03*
%TD*%
%TO.C,MX30*%
X192270000Y-112450000D03*
D11*
X197350000Y-112450000D03*
D10*
X202430000Y-112450000D03*
%TD*%
%TO.C,MX12*%
X94638750Y-112450000D03*
D11*
X99718750Y-112450000D03*
D10*
X104798750Y-112450000D03*
%TD*%
%TO.C,MX23*%
X158932500Y-117212500D03*
D11*
X164012500Y-117212500D03*
D10*
X169092500Y-117212500D03*
%TD*%
%TO.C,MX19*%
X116705000Y-112450000D03*
D11*
X111625000Y-112450000D03*
D10*
X106545000Y-112450000D03*
%TD*%
%TO.C,MX4*%
X51776250Y-112450000D03*
D11*
X56856250Y-112450000D03*
D10*
X61936250Y-112450000D03*
%TD*%
%TO.C,MX33*%
X211320000Y-93400000D03*
D11*
X216400000Y-93400000D03*
D10*
X221480000Y-93400000D03*
%TD*%
%TO.C,MX13*%
X106545000Y-55300000D03*
D11*
X111625000Y-55300000D03*
D10*
X116705000Y-55300000D03*
%TD*%
%TO.C,MX29*%
X192270000Y-93400000D03*
D11*
X197350000Y-93400000D03*
D10*
X202430000Y-93400000D03*
%TD*%
%TO.C,MX15*%
X106545000Y-93400000D03*
D11*
X111625000Y-93400000D03*
D10*
X116705000Y-93400000D03*
%TD*%
%TO.C,MX14*%
X106545000Y-74350000D03*
D11*
X111625000Y-74350000D03*
D10*
X116705000Y-74350000D03*
%TD*%
%TO.C,MX16*%
X125595000Y-55300000D03*
D11*
X130675000Y-55300000D03*
D10*
X135755000Y-55300000D03*
%TD*%
%TO.C,MX5*%
X68445000Y-55300000D03*
D11*
X73525000Y-55300000D03*
D10*
X78605000Y-55300000D03*
%TD*%
%TO.C,MX24*%
X173220000Y-55300000D03*
D11*
X178300000Y-55300000D03*
D10*
X183380000Y-55300000D03*
%TD*%
%TO.C,MX21*%
X154170000Y-74350000D03*
D11*
X159250000Y-74350000D03*
D10*
X164330000Y-74350000D03*
%TD*%
%TO.C,MX32*%
X211320000Y-74350000D03*
D11*
X216400000Y-74350000D03*
D10*
X221480000Y-74350000D03*
%TD*%
%TO.C,MX38*%
X230370000Y-112450000D03*
D11*
X235450000Y-112450000D03*
D10*
X240530000Y-112450000D03*
%TD*%
%TO.C,MX20*%
X154170000Y-55300000D03*
D11*
X159250000Y-55300000D03*
D10*
X164330000Y-55300000D03*
%TD*%
%TO.C,MX8*%
X83367500Y-112450000D03*
D11*
X78287500Y-112450000D03*
D10*
X73207500Y-112450000D03*
%TD*%
%TO.C,MX6*%
X68445000Y-74350000D03*
D11*
X73525000Y-74350000D03*
D10*
X78605000Y-74350000D03*
%TD*%
%TO.C,MX36*%
X230370000Y-74350000D03*
D11*
X235450000Y-74350000D03*
D10*
X240530000Y-74350000D03*
%TD*%
%TO.C,MX37*%
X230370000Y-93400000D03*
D11*
X235450000Y-93400000D03*
D10*
X240530000Y-93400000D03*
%TD*%
%TO.C,MX8*%
X68445000Y-112450000D03*
D11*
X73525000Y-112450000D03*
D10*
X78605000Y-112450000D03*
%TD*%
%TO.C,MX26*%
X173220000Y-93400000D03*
D11*
X178300000Y-93400000D03*
D10*
X183380000Y-93400000D03*
%TD*%
D11*
%TO.C,MX19*%
X116387500Y-108957500D03*
D12*
X116387500Y-124197500D03*
D10*
X139882500Y-117212500D03*
D11*
X144962500Y-117212500D03*
D10*
X150042500Y-117212500D03*
D11*
X173537500Y-108957500D03*
D12*
X173537500Y-124197500D03*
%TD*%
D10*
%TO.C,MX19*%
X127976250Y-117212500D03*
D11*
X133056250Y-117212500D03*
D10*
X138136250Y-117212500D03*
%TD*%
%TO.C,MX23*%
X161313750Y-117212500D03*
D11*
X166393750Y-117212500D03*
D10*
X171473750Y-117212500D03*
%TD*%
%TO.C,MX12*%
X87495000Y-112450000D03*
D11*
X92575000Y-112450000D03*
D10*
X97655000Y-112450000D03*
%TD*%
%TO.C,MX3*%
X49395000Y-93400000D03*
D11*
X54475000Y-93400000D03*
D10*
X59555000Y-93400000D03*
%TD*%
%TO.C,MX27*%
X192270000Y-55300000D03*
D11*
X197350000Y-55300000D03*
D10*
X202430000Y-55300000D03*
%TD*%
%TO.C,MX28*%
X192270000Y-74350000D03*
D11*
X197350000Y-74350000D03*
D10*
X202430000Y-74350000D03*
%TD*%
%TO.C,MX25*%
X173220000Y-74350000D03*
D11*
X178300000Y-74350000D03*
D10*
X183380000Y-74350000D03*
%TD*%
%TO.C,MX34*%
X211320000Y-112450000D03*
D11*
X216400000Y-112450000D03*
D10*
X221480000Y-112450000D03*
%TD*%
%TO.C,MX19*%
X120832500Y-117212500D03*
D11*
X125912500Y-117212500D03*
D10*
X130992500Y-117212500D03*
%TD*%
%TO.C,MX31*%
X211320000Y-55300000D03*
D11*
X216400000Y-55300000D03*
D10*
X221480000Y-55300000D03*
%TD*%
D13*
%TO.C,SW1*%
X84899999Y-59249999D03*
D14*
X83629999Y-59249999D03*
%TD*%
D15*
%TO.C,J2*%
X46799999Y-76024999D03*
D16*
X46799999Y-78564999D03*
X46799999Y-81104999D03*
X46799999Y-83644999D03*
X46799999Y-86184999D03*
%TD*%
M02*
