M48
; DRILL file {KiCad 7.0.6} date Sun Jul 16 16:10:12 2023
; FORMAT={-:-/ absolute / metric / decimal}
; #@! TF.CreationDate,2023-07-16T16:10:12-04:00
; #@! TF.GenerationSoftware,Kicad,Pcbnew,7.0.6
; #@! TF.FileFunction,Plated,1,2,PTH
FMAT,2
METRIC
; #@! TA.AperFunction,Plated,PTH,ComponentDrill
T1C0.300
; #@! TA.AperFunction,Plated,PTH,ViaDrill
T2C0.400
; #@! TA.AperFunction,Plated,PTH,ComponentDrill
T3C1.000
%
G90
G05
T1
X25.003Y44.138
X25.003Y42.863
X25.003Y41.588
X26.278Y44.138
X26.278Y42.863
X26.278Y41.588
X27.553Y44.138
X27.553Y42.863
X27.553Y41.588
T2
X2.381Y73.819
X2.381Y16.669
X4.762Y54.769
X5.953Y48.173
X7.144Y35.719
X14.518Y50.304
X16.428Y60.127
X18.455Y44.649
X18.667Y29.17
X20.471Y47.923
X21.431Y73.819
X21.431Y16.669
X21.431Y45.463
X21.431Y42.863
X22.92Y51.792
X22.92Y48.518
X23.515Y30.956
X24.11Y48.518
X24.11Y33.635
X24.408Y30.063
X25.301Y29.17
X25.599Y36.909
X26.078Y48.518
X26.194Y54.769
X27.087Y31.849
X27.384Y49.113
X27.384Y34.528
X30.063Y51.792
X30.063Y46.732
X30.956Y35.719
X30.956Y41.863
X31.849Y38.993
X32.032Y45.839
X33.338Y24.706
X33.635Y46.137
X34.231Y39.886
X34.528Y45.542
X35.421Y44.946
X35.719Y39.291
X36.314Y44.351
X37.207Y43.756
X38.993Y41.374
X39.291Y49.113
X39.76Y45.542
X40.481Y73.819
X40.481Y16.669
X41.672Y42.267
X42.267Y43.16
X42.863Y44.053
X43.458Y44.946
X45.244Y54.769
X50.006Y35.719
X59.531Y73.819
X64.294Y54.769
X69.056Y35.719
X73.819Y11.907
X78.581Y73.819
X83.344Y54.769
X88.106Y35.719
X92.869Y11.907
X97.631Y73.819
X102.394Y54.769
X107.156Y35.719
X111.919Y11.907
X116.681Y73.819
X121.444Y54.769
X126.206Y35.719
X135.731Y73.819
X140.494Y54.769
X145.256Y35.719
X145.256Y16.669
X154.781Y73.819
X159.544Y54.769
X164.306Y35.719
X164.306Y16.669
X178.594Y73.819
X180.975Y54.769
X183.356Y35.719
X183.357Y16.669
T3
X1.85Y50.713
X1.85Y48.173
X1.85Y45.633
X1.85Y43.093
X1.85Y40.553
T0
M30
