%TF.GenerationSoftware,KiCad,Pcbnew,7.0.6*%
%TF.CreationDate,2023-07-18T23:26:02-04:00*%
%TF.ProjectId,cutiepie2040-hotswap,63757469-6570-4696-9532-3034302d686f,rev?*%
%TF.SameCoordinates,PX2d6b3a0PY6f46b48*%
%TF.FileFunction,Drillmap*%
%TF.FilePolarity,Positive*%
%FSLAX45Y45*%
G04 Gerber Fmt 4.5, Leading zero omitted, Abs format (unit mm)*
G04 Created by KiCad (PCBNEW 7.0.6) date 2023-07-18 23:26:02*
%MOMM*%
%LPD*%
G01*
G04 APERTURE LIST*
%ADD10C,0.200000*%
%ADD11C,0.175000*%
%ADD12C,0.300000*%
%ADD13C,0.304800*%
%ADD14C,0.398780*%
G04 APERTURE END LIST*
D10*
X239988Y8096281D02*
G75*
G03*
X-12Y7886485I-10890J-229716D01*
G01*
X239988Y8096279D02*
X19794988Y8096279D01*
X5914393Y219057D02*
G75*
G03*
X5683967Y476279I-243825J13398D01*
G01*
X-7Y718779D02*
G75*
G03*
X209988Y476279I231175J-11985D01*
G01*
X6161467Y29D02*
X13809988Y29D01*
X19761467Y476277D02*
G75*
G03*
X20002488Y687593I10532J231097D01*
G01*
X5914394Y219057D02*
G75*
G03*
X6161467Y29I233054J14028D01*
G01*
X14287488Y476282D02*
G75*
G03*
X14057061Y221978I11930J-242358D01*
G01*
X14287488Y476279D02*
X19761467Y476279D01*
X-12Y718779D02*
X-12Y7886485D01*
X209988Y476279D02*
X5683967Y476279D01*
X20002489Y7857758D02*
G75*
G03*
X19794988Y8096279I-227901J11256D01*
G01*
X20002488Y7857758D02*
X20002488Y687593D01*
X13809988Y22D02*
G75*
G03*
X14057061Y221978I12560J234512D01*
G01*
D11*
X356988Y7231279D02*
X531988Y7056279D01*
X531988Y7231279D02*
X356988Y7056279D01*
X356988Y1516279D02*
X531988Y1341279D01*
X531988Y1516279D02*
X356988Y1341279D01*
X595113Y5326279D02*
X770113Y5151279D01*
X770113Y5326279D02*
X595113Y5151279D01*
X833238Y3421279D02*
X1008238Y3246279D01*
X1008238Y3421279D02*
X833238Y3246279D01*
X1372988Y7231279D02*
X1547988Y7056279D01*
X1547988Y7231279D02*
X1372988Y7056279D01*
X1372988Y1516279D02*
X1547988Y1341279D01*
X1547988Y1516279D02*
X1372988Y1341279D01*
X1611113Y5326279D02*
X1786113Y5151279D01*
X1786113Y5326279D02*
X1611113Y5151279D01*
X1849238Y3421279D02*
X2024238Y3246279D01*
X2024238Y3421279D02*
X1849238Y3246279D01*
X2261988Y7231279D02*
X2436988Y7056279D01*
X2436988Y7231279D02*
X2261988Y7056279D01*
X2261988Y1516279D02*
X2436988Y1341279D01*
X2436988Y1516279D02*
X2261988Y1341279D01*
X2738238Y5326279D02*
X2913238Y5151279D01*
X2913238Y5326279D02*
X2738238Y5151279D01*
X3214488Y3421279D02*
X3389488Y3246279D01*
X3389488Y3421279D02*
X3214488Y3246279D01*
X3277988Y7231279D02*
X3452988Y7056279D01*
X3452988Y7231279D02*
X3277988Y7056279D01*
X3277988Y1516279D02*
X3452988Y1341279D01*
X3452988Y1516279D02*
X3277988Y1341279D01*
X3754238Y5326279D02*
X3929238Y5151279D01*
X3929238Y5326279D02*
X3754238Y5151279D01*
X4166988Y7231279D02*
X4341988Y7056279D01*
X4341988Y7231279D02*
X4166988Y7056279D01*
X4166988Y1516279D02*
X4341988Y1341279D01*
X4341988Y1516279D02*
X4166988Y1341279D01*
X4230488Y3421279D02*
X4405488Y3246279D01*
X4405488Y3421279D02*
X4230488Y3246279D01*
X4643238Y5326279D02*
X4818238Y5151279D01*
X4818238Y5326279D02*
X4643238Y5151279D01*
X5119488Y3421279D02*
X5294488Y3246279D01*
X5294488Y3421279D02*
X5119488Y3246279D01*
X5182988Y7231279D02*
X5357988Y7056279D01*
X5357988Y7231279D02*
X5182988Y7056279D01*
X5182988Y1516279D02*
X5357988Y1341279D01*
X5357988Y1516279D02*
X5182988Y1341279D01*
X5659238Y5326279D02*
X5834238Y5151279D01*
X5834238Y5326279D02*
X5659238Y5151279D01*
X6071988Y7231279D02*
X6246988Y7056279D01*
X6246988Y7231279D02*
X6071988Y7056279D01*
X6135488Y3421279D02*
X6310488Y3246279D01*
X6310488Y3421279D02*
X6135488Y3246279D01*
X6548238Y5326279D02*
X6723238Y5151279D01*
X6723238Y5326279D02*
X6548238Y5151279D01*
X7024488Y3421279D02*
X7199488Y3246279D01*
X7199488Y3421279D02*
X7024488Y3246279D01*
X7087988Y7231279D02*
X7262988Y7056279D01*
X7262988Y7231279D02*
X7087988Y7056279D01*
X7500738Y1040029D02*
X7675738Y865029D01*
X7675738Y1040029D02*
X7500738Y865029D01*
X7564238Y5326279D02*
X7739238Y5151279D01*
X7739238Y5326279D02*
X7564238Y5151279D01*
X7976988Y7231279D02*
X8151988Y7056279D01*
X8151988Y7231279D02*
X7976988Y7056279D01*
X8040488Y3421279D02*
X8215488Y3246279D01*
X8215488Y3421279D02*
X8040488Y3246279D01*
X8453238Y5326279D02*
X8628238Y5151279D01*
X8628238Y5326279D02*
X8453238Y5151279D01*
X8516738Y1040029D02*
X8691738Y865029D01*
X8691738Y1040029D02*
X8516738Y865029D01*
X8929488Y3421279D02*
X9104488Y3246279D01*
X9104488Y3421279D02*
X8929488Y3246279D01*
X8992988Y7231279D02*
X9167988Y7056279D01*
X9167988Y7231279D02*
X8992988Y7056279D01*
X9405738Y1040002D02*
X9580738Y865002D01*
X9580738Y1040002D02*
X9405738Y865002D01*
X9469238Y5326279D02*
X9644238Y5151279D01*
X9644238Y5326279D02*
X9469238Y5151279D01*
X9881988Y7231279D02*
X10056988Y7056279D01*
X10056988Y7231279D02*
X9881988Y7056279D01*
X9945488Y3421279D02*
X10120488Y3246279D01*
X10120488Y3421279D02*
X9945488Y3246279D01*
X10358238Y5326279D02*
X10533238Y5151279D01*
X10533238Y5326279D02*
X10358238Y5151279D01*
X10421738Y1040002D02*
X10596738Y865002D01*
X10596738Y1040002D02*
X10421738Y865002D01*
X10834488Y3421279D02*
X11009488Y3246279D01*
X11009488Y3421279D02*
X10834488Y3246279D01*
X10897988Y7231279D02*
X11072988Y7056279D01*
X11072988Y7231279D02*
X10897988Y7056279D01*
X11310738Y1040002D02*
X11485738Y865002D01*
X11485738Y1040002D02*
X11310738Y865002D01*
X11374238Y5326279D02*
X11549238Y5151279D01*
X11549238Y5326279D02*
X11374238Y5151279D01*
X11786988Y7231279D02*
X11961988Y7056279D01*
X11961988Y7231279D02*
X11786988Y7056279D01*
X11850488Y3421279D02*
X12025488Y3246279D01*
X12025488Y3421279D02*
X11850488Y3246279D01*
X12263238Y5326279D02*
X12438238Y5151279D01*
X12438238Y5326279D02*
X12263238Y5151279D01*
X12326738Y1040002D02*
X12501738Y865002D01*
X12501738Y1040002D02*
X12326738Y865002D01*
X12739488Y3421279D02*
X12914488Y3246279D01*
X12914488Y3421279D02*
X12739488Y3246279D01*
X12802988Y7231279D02*
X12977988Y7056279D01*
X12977988Y7231279D02*
X12802988Y7056279D01*
X13279238Y5326279D02*
X13454238Y5151279D01*
X13454238Y5326279D02*
X13279238Y5151279D01*
X13691988Y7231279D02*
X13866988Y7056279D01*
X13866988Y7231279D02*
X13691988Y7056279D01*
X13755488Y3421279D02*
X13930488Y3246279D01*
X13930488Y3421279D02*
X13755488Y3246279D01*
X14168238Y5326279D02*
X14343238Y5151279D01*
X14343238Y5326279D02*
X14168238Y5151279D01*
X14644488Y3421279D02*
X14819488Y3246279D01*
X14819488Y3421279D02*
X14644488Y3246279D01*
X14644488Y1516279D02*
X14819488Y1341279D01*
X14819488Y1516279D02*
X14644488Y1341279D01*
X14707988Y7231279D02*
X14882988Y7056279D01*
X14882988Y7231279D02*
X14707988Y7056279D01*
X15184238Y5326279D02*
X15359238Y5151279D01*
X15359238Y5326279D02*
X15184238Y5151279D01*
X15596988Y7231279D02*
X15771988Y7056279D01*
X15771988Y7231279D02*
X15596988Y7056279D01*
X15660488Y3421279D02*
X15835488Y3246279D01*
X15835488Y3421279D02*
X15660488Y3246279D01*
X15660488Y1516279D02*
X15835488Y1341279D01*
X15835488Y1516279D02*
X15660488Y1341279D01*
X16073238Y5326279D02*
X16248238Y5151279D01*
X16248238Y5326279D02*
X16073238Y5151279D01*
X16549488Y3421279D02*
X16724488Y3246279D01*
X16724488Y3421279D02*
X16549488Y3246279D01*
X16549488Y1516279D02*
X16724488Y1341279D01*
X16724488Y1516279D02*
X16549488Y1341279D01*
X16612988Y7231279D02*
X16787988Y7056279D01*
X16787988Y7231279D02*
X16612988Y7056279D01*
X17089238Y5326279D02*
X17264238Y5151279D01*
X17264238Y5326279D02*
X17089238Y5151279D01*
X17565488Y3421279D02*
X17740488Y3246279D01*
X17740488Y3421279D02*
X17565488Y3246279D01*
X17565488Y1516279D02*
X17740488Y1341279D01*
X17740488Y1516279D02*
X17565488Y1341279D01*
X17978238Y7231279D02*
X18153238Y7056279D01*
X18153238Y7231279D02*
X17978238Y7056279D01*
X18216363Y5326279D02*
X18391363Y5151279D01*
X18391363Y5326279D02*
X18216363Y5151279D01*
X18454488Y3421279D02*
X18629488Y3246279D01*
X18629488Y3421279D02*
X18454488Y3246279D01*
X18454488Y1516279D02*
X18629488Y1341279D01*
X18629488Y1516279D02*
X18454488Y1341279D01*
X18994238Y7231279D02*
X19169238Y7056279D01*
X19169238Y7231279D02*
X18994238Y7056279D01*
X19232363Y5326279D02*
X19407363Y5151279D01*
X19407363Y5326279D02*
X19232363Y5151279D01*
X19470488Y3421279D02*
X19645488Y3246279D01*
X19645488Y3421279D02*
X19470488Y3246279D01*
X19470488Y1516279D02*
X19645488Y1341279D01*
X19645488Y1516279D02*
X19470488Y1341279D01*
D12*
X721488Y7397779D02*
G75*
G03*
X721488Y7397779I-150000J0D01*
G01*
X721488Y1682779D02*
G75*
G03*
X721488Y1682779I-150000J0D01*
G01*
X959613Y5492779D02*
G75*
G03*
X959613Y5492779I-150000J0D01*
G01*
X1197738Y3587779D02*
G75*
G03*
X1197738Y3587779I-150000J0D01*
G01*
X1356488Y7651779D02*
G75*
G03*
X1356488Y7651779I-150000J0D01*
G01*
X1356488Y1936779D02*
G75*
G03*
X1356488Y1936779I-150000J0D01*
G01*
X1594613Y5746779D02*
G75*
G03*
X1594613Y5746779I-150000J0D01*
G01*
X1832738Y3841779D02*
G75*
G03*
X1832738Y3841779I-150000J0D01*
G01*
X2626488Y7397779D02*
G75*
G03*
X2626488Y7397779I-150000J0D01*
G01*
X2626488Y1682779D02*
G75*
G03*
X2626488Y1682779I-150000J0D01*
G01*
X3102738Y5492779D02*
G75*
G03*
X3102738Y5492779I-150000J0D01*
G01*
X3261488Y7651779D02*
G75*
G03*
X3261488Y7651779I-150000J0D01*
G01*
X3261488Y1936779D02*
G75*
G03*
X3261488Y1936779I-150000J0D01*
G01*
X3578988Y3587779D02*
G75*
G03*
X3578988Y3587779I-150000J0D01*
G01*
X3737738Y5746779D02*
G75*
G03*
X3737738Y5746779I-150000J0D01*
G01*
X4213988Y3841779D02*
G75*
G03*
X4213988Y3841779I-150000J0D01*
G01*
X4531488Y7397779D02*
G75*
G03*
X4531488Y7397779I-150000J0D01*
G01*
X4531488Y1682779D02*
G75*
G03*
X4531488Y1682779I-150000J0D01*
G01*
X5007738Y5492779D02*
G75*
G03*
X5007738Y5492779I-150000J0D01*
G01*
X5166488Y7651779D02*
G75*
G03*
X5166488Y7651779I-150000J0D01*
G01*
X5166488Y1936779D02*
G75*
G03*
X5166488Y1936779I-150000J0D01*
G01*
X5483988Y3587779D02*
G75*
G03*
X5483988Y3587779I-150000J0D01*
G01*
X5642738Y5746779D02*
G75*
G03*
X5642738Y5746779I-150000J0D01*
G01*
X6118988Y3841779D02*
G75*
G03*
X6118988Y3841779I-150000J0D01*
G01*
X6436488Y7397779D02*
G75*
G03*
X6436488Y7397779I-150000J0D01*
G01*
X6912738Y5492779D02*
G75*
G03*
X6912738Y5492779I-150000J0D01*
G01*
X7071488Y7651779D02*
G75*
G03*
X7071488Y7651779I-150000J0D01*
G01*
X7388988Y3587779D02*
G75*
G03*
X7388988Y3587779I-150000J0D01*
G01*
X7547738Y5746779D02*
G75*
G03*
X7547738Y5746779I-150000J0D01*
G01*
X7865238Y1206529D02*
G75*
G03*
X7865238Y1206529I-150000J0D01*
G01*
X8023988Y3841779D02*
G75*
G03*
X8023988Y3841779I-150000J0D01*
G01*
X8341488Y7397779D02*
G75*
G03*
X8341488Y7397779I-150000J0D01*
G01*
X8500238Y1460529D02*
G75*
G03*
X8500238Y1460529I-150000J0D01*
G01*
X8817738Y5492779D02*
G75*
G03*
X8817738Y5492779I-150000J0D01*
G01*
X8976488Y7651779D02*
G75*
G03*
X8976488Y7651779I-150000J0D01*
G01*
X9293988Y3587779D02*
G75*
G03*
X9293988Y3587779I-150000J0D01*
G01*
X9452738Y5746779D02*
G75*
G03*
X9452738Y5746779I-150000J0D01*
G01*
X9770238Y1206502D02*
G75*
G03*
X9770238Y1206502I-150000J0D01*
G01*
X9928988Y3841779D02*
G75*
G03*
X9928988Y3841779I-150000J0D01*
G01*
X10246488Y7397779D02*
G75*
G03*
X10246488Y7397779I-150000J0D01*
G01*
X10405238Y1460502D02*
G75*
G03*
X10405238Y1460502I-150000J0D01*
G01*
X10722738Y5492779D02*
G75*
G03*
X10722738Y5492779I-150000J0D01*
G01*
X10881488Y7651779D02*
G75*
G03*
X10881488Y7651779I-150000J0D01*
G01*
X11198988Y3587779D02*
G75*
G03*
X11198988Y3587779I-150000J0D01*
G01*
X11357738Y5746779D02*
G75*
G03*
X11357738Y5746779I-150000J0D01*
G01*
X11675238Y1206502D02*
G75*
G03*
X11675238Y1206502I-150000J0D01*
G01*
X11833988Y3841779D02*
G75*
G03*
X11833988Y3841779I-150000J0D01*
G01*
X12151488Y7397779D02*
G75*
G03*
X12151488Y7397779I-150000J0D01*
G01*
X12310238Y1460502D02*
G75*
G03*
X12310238Y1460502I-150000J0D01*
G01*
X12627738Y5492779D02*
G75*
G03*
X12627738Y5492779I-150000J0D01*
G01*
X12786488Y7651779D02*
G75*
G03*
X12786488Y7651779I-150000J0D01*
G01*
X13103988Y3587779D02*
G75*
G03*
X13103988Y3587779I-150000J0D01*
G01*
X13262738Y5746779D02*
G75*
G03*
X13262738Y5746779I-150000J0D01*
G01*
X13738988Y3841779D02*
G75*
G03*
X13738988Y3841779I-150000J0D01*
G01*
X14056488Y7397779D02*
G75*
G03*
X14056488Y7397779I-150000J0D01*
G01*
X14532738Y5492779D02*
G75*
G03*
X14532738Y5492779I-150000J0D01*
G01*
X14691488Y7651779D02*
G75*
G03*
X14691488Y7651779I-150000J0D01*
G01*
X15008988Y3587779D02*
G75*
G03*
X15008988Y3587779I-150000J0D01*
G01*
X15008988Y1682779D02*
G75*
G03*
X15008988Y1682779I-150000J0D01*
G01*
X15167738Y5746779D02*
G75*
G03*
X15167738Y5746779I-150000J0D01*
G01*
X15643988Y3841779D02*
G75*
G03*
X15643988Y3841779I-150000J0D01*
G01*
X15643988Y1936779D02*
G75*
G03*
X15643988Y1936779I-150000J0D01*
G01*
X15961488Y7397779D02*
G75*
G03*
X15961488Y7397779I-150000J0D01*
G01*
X16437738Y5492779D02*
G75*
G03*
X16437738Y5492779I-150000J0D01*
G01*
X16596488Y7651779D02*
G75*
G03*
X16596488Y7651779I-150000J0D01*
G01*
X16913988Y3587779D02*
G75*
G03*
X16913988Y3587779I-150000J0D01*
G01*
X16913988Y1682779D02*
G75*
G03*
X16913988Y1682779I-150000J0D01*
G01*
X17072738Y5746779D02*
G75*
G03*
X17072738Y5746779I-150000J0D01*
G01*
X17548988Y3841779D02*
G75*
G03*
X17548988Y3841779I-150000J0D01*
G01*
X17548988Y1936779D02*
G75*
G03*
X17548988Y1936779I-150000J0D01*
G01*
X18342738Y7397779D02*
G75*
G03*
X18342738Y7397779I-150000J0D01*
G01*
X18580863Y5492779D02*
G75*
G03*
X18580863Y5492779I-150000J0D01*
G01*
X18818988Y3587779D02*
G75*
G03*
X18818988Y3587779I-150000J0D01*
G01*
X18818988Y1682779D02*
G75*
G03*
X18818988Y1682779I-150000J0D01*
G01*
X18977738Y7651779D02*
G75*
G03*
X18977738Y7651779I-150000J0D01*
G01*
X19215863Y5746779D02*
G75*
G03*
X19215863Y5746779I-150000J0D01*
G01*
X19453988Y3841779D02*
G75*
G03*
X19453988Y3841779I-150000J0D01*
G01*
X19453988Y1936779D02*
G75*
G03*
X19453988Y1936779I-150000J0D01*
G01*
D13*
X6902438Y406429D02*
X6902438Y101629D01*
X6750038Y254029D02*
X7054838Y254029D01*
X7143738Y406402D02*
X7143738Y101602D01*
X6991338Y254002D02*
X7296138Y254002D01*
X9290038Y406429D02*
X9290038Y101629D01*
X9137638Y254029D02*
X9442438Y254029D01*
X10712438Y406402D02*
X10712438Y101602D01*
X10560038Y254002D02*
X10864838Y254002D01*
X12858738Y406402D02*
X12858738Y101602D01*
X12706338Y254002D02*
X13011138Y254002D01*
X13100038Y406402D02*
X13100038Y101602D01*
X12947638Y254002D02*
X13252438Y254002D01*
D14*
X1093479Y7002788D02*
X1093479Y7284771D01*
X811497Y7284771D01*
X811497Y7002788D01*
X1093479Y7002788D01*
X1093479Y1287788D02*
X1093479Y1569771D01*
X811497Y1569771D01*
X811497Y1287788D01*
X1093479Y1287788D01*
X1331604Y5097788D02*
X1331604Y5379771D01*
X1049622Y5379771D01*
X1049622Y5097788D01*
X1331604Y5097788D01*
X1569729Y3192788D02*
X1569729Y3474771D01*
X1287747Y3474771D01*
X1287747Y3192788D01*
X1569729Y3192788D01*
X2998479Y7002788D02*
X2998479Y7284771D01*
X2716497Y7284771D01*
X2716497Y7002788D01*
X2998479Y7002788D01*
X2998479Y1287788D02*
X2998479Y1569771D01*
X2716497Y1569771D01*
X2716497Y1287788D01*
X2998479Y1287788D01*
X3474729Y5097788D02*
X3474729Y5379771D01*
X3192747Y5379771D01*
X3192747Y5097788D01*
X3474729Y5097788D01*
X3950979Y3192788D02*
X3950979Y3474771D01*
X3668997Y3474771D01*
X3668997Y3192788D01*
X3950979Y3192788D01*
X4903479Y7002788D02*
X4903479Y7284771D01*
X4621497Y7284771D01*
X4621497Y7002788D01*
X4903479Y7002788D01*
X4903479Y1287788D02*
X4903479Y1569771D01*
X4621497Y1569771D01*
X4621497Y1287788D01*
X4903479Y1287788D01*
X5379729Y5097788D02*
X5379729Y5379771D01*
X5097747Y5379771D01*
X5097747Y5097788D01*
X5379729Y5097788D01*
X5855979Y3192788D02*
X5855979Y3474771D01*
X5573997Y3474771D01*
X5573997Y3192788D01*
X5855979Y3192788D01*
X6808479Y7002788D02*
X6808479Y7284771D01*
X6526497Y7284771D01*
X6526497Y7002788D01*
X6808479Y7002788D01*
X7043429Y1637038D02*
X7043429Y1919021D01*
X6761447Y1919021D01*
X6761447Y1637038D01*
X7043429Y1637038D01*
X7284729Y5097788D02*
X7284729Y5379771D01*
X7002747Y5379771D01*
X7002747Y5097788D01*
X7284729Y5097788D01*
X7284729Y1637011D02*
X7284729Y1918994D01*
X7002747Y1918994D01*
X7002747Y1637011D01*
X7284729Y1637011D01*
X7760979Y3192788D02*
X7760979Y3474771D01*
X7478997Y3474771D01*
X7478997Y3192788D01*
X7760979Y3192788D01*
X8237229Y811538D02*
X8237229Y1093521D01*
X7955247Y1093521D01*
X7955247Y811538D01*
X8237229Y811538D01*
X8713479Y7002788D02*
X8713479Y7284771D01*
X8431497Y7284771D01*
X8431497Y7002788D01*
X8713479Y7002788D01*
X9189729Y5097788D02*
X9189729Y5379771D01*
X8907747Y5379771D01*
X8907747Y5097788D01*
X9189729Y5097788D01*
X9431029Y1637038D02*
X9431029Y1919021D01*
X9149047Y1919021D01*
X9149047Y1637038D01*
X9431029Y1637038D01*
X9665979Y3192788D02*
X9665979Y3474771D01*
X9383997Y3474771D01*
X9383997Y3192788D01*
X9665979Y3192788D01*
X10142229Y811511D02*
X10142229Y1093494D01*
X9860247Y1093494D01*
X9860247Y811511D01*
X10142229Y811511D01*
X10618479Y7002788D02*
X10618479Y7284771D01*
X10336497Y7284771D01*
X10336497Y7002788D01*
X10618479Y7002788D01*
X10853429Y1637011D02*
X10853429Y1918994D01*
X10571447Y1918994D01*
X10571447Y1637011D01*
X10853429Y1637011D01*
X11094729Y5097788D02*
X11094729Y5379771D01*
X10812747Y5379771D01*
X10812747Y5097788D01*
X11094729Y5097788D01*
X11570979Y3192788D02*
X11570979Y3474771D01*
X11288997Y3474771D01*
X11288997Y3192788D01*
X11570979Y3192788D01*
X12047229Y811511D02*
X12047229Y1093494D01*
X11765247Y1093494D01*
X11765247Y811511D01*
X12047229Y811511D01*
X12523479Y7002788D02*
X12523479Y7284771D01*
X12241497Y7284771D01*
X12241497Y7002788D01*
X12523479Y7002788D01*
X12999729Y5097788D02*
X12999729Y5379771D01*
X12717747Y5379771D01*
X12717747Y5097788D01*
X12999729Y5097788D01*
X12999729Y1637011D02*
X12999729Y1918994D01*
X12717747Y1918994D01*
X12717747Y1637011D01*
X12999729Y1637011D01*
X13241029Y1637011D02*
X13241029Y1918994D01*
X12959047Y1918994D01*
X12959047Y1637011D01*
X13241029Y1637011D01*
X13475979Y3192788D02*
X13475979Y3474771D01*
X13193997Y3474771D01*
X13193997Y3192788D01*
X13475979Y3192788D01*
X14428479Y7002788D02*
X14428479Y7284771D01*
X14146497Y7284771D01*
X14146497Y7002788D01*
X14428479Y7002788D01*
X14904729Y5097788D02*
X14904729Y5379771D01*
X14622747Y5379771D01*
X14622747Y5097788D01*
X14904729Y5097788D01*
X15380979Y3192788D02*
X15380979Y3474771D01*
X15098997Y3474771D01*
X15098997Y3192788D01*
X15380979Y3192788D01*
X15380979Y1287788D02*
X15380979Y1569771D01*
X15098997Y1569771D01*
X15098997Y1287788D01*
X15380979Y1287788D01*
X16333479Y7002788D02*
X16333479Y7284771D01*
X16051497Y7284771D01*
X16051497Y7002788D01*
X16333479Y7002788D01*
X16809729Y5097788D02*
X16809729Y5379771D01*
X16527747Y5379771D01*
X16527747Y5097788D01*
X16809729Y5097788D01*
X17285979Y3192788D02*
X17285979Y3474771D01*
X17003997Y3474771D01*
X17003997Y3192788D01*
X17285979Y3192788D01*
X17285979Y1287788D02*
X17285979Y1569771D01*
X17003997Y1569771D01*
X17003997Y1287788D01*
X17285979Y1287788D01*
X18714729Y7002788D02*
X18714729Y7284771D01*
X18432747Y7284771D01*
X18432747Y7002788D01*
X18714729Y7002788D01*
X18952854Y5097788D02*
X18952854Y5379771D01*
X18670872Y5379771D01*
X18670872Y5097788D01*
X18952854Y5097788D01*
X19190979Y3192788D02*
X19190979Y3474771D01*
X18908997Y3474771D01*
X18908997Y3192788D01*
X19190979Y3192788D01*
X19190979Y1287788D02*
X19190979Y1569771D01*
X18908997Y1569771D01*
X18908997Y1287788D01*
X19190979Y1287788D01*
D10*
X250459Y-321876D02*
X250459Y-121876D01*
X250459Y-121876D02*
X298078Y-121876D01*
X298078Y-121876D02*
X326649Y-131399D01*
X326649Y-131399D02*
X345697Y-150447D01*
X345697Y-150447D02*
X355221Y-169495D01*
X355221Y-169495D02*
X364744Y-207590D01*
X364744Y-207590D02*
X364744Y-236161D01*
X364744Y-236161D02*
X355221Y-274257D01*
X355221Y-274257D02*
X345697Y-293304D01*
X345697Y-293304D02*
X326649Y-312352D01*
X326649Y-312352D02*
X298078Y-321876D01*
X298078Y-321876D02*
X250459Y-321876D01*
X450459Y-321876D02*
X450459Y-188542D01*
X450459Y-226637D02*
X459983Y-207590D01*
X459983Y-207590D02*
X469506Y-198066D01*
X469506Y-198066D02*
X488554Y-188542D01*
X488554Y-188542D02*
X507602Y-188542D01*
X574268Y-321876D02*
X574268Y-188542D01*
X574268Y-121876D02*
X564745Y-131399D01*
X564745Y-131399D02*
X574268Y-140923D01*
X574268Y-140923D02*
X583792Y-131399D01*
X583792Y-131399D02*
X574268Y-121876D01*
X574268Y-121876D02*
X574268Y-140923D01*
X698078Y-321876D02*
X679030Y-312352D01*
X679030Y-312352D02*
X669506Y-293304D01*
X669506Y-293304D02*
X669506Y-121876D01*
X802840Y-321876D02*
X783792Y-312352D01*
X783792Y-312352D02*
X774268Y-293304D01*
X774268Y-293304D02*
X774268Y-121876D01*
X1031411Y-321876D02*
X1031411Y-121876D01*
X1031411Y-121876D02*
X1098078Y-264733D01*
X1098078Y-264733D02*
X1164745Y-121876D01*
X1164745Y-121876D02*
X1164745Y-321876D01*
X1345697Y-321876D02*
X1345697Y-217114D01*
X1345697Y-217114D02*
X1336173Y-198066D01*
X1336173Y-198066D02*
X1317126Y-188542D01*
X1317126Y-188542D02*
X1279030Y-188542D01*
X1279030Y-188542D02*
X1259983Y-198066D01*
X1345697Y-312352D02*
X1326649Y-321876D01*
X1326649Y-321876D02*
X1279030Y-321876D01*
X1279030Y-321876D02*
X1259983Y-312352D01*
X1259983Y-312352D02*
X1250459Y-293304D01*
X1250459Y-293304D02*
X1250459Y-274257D01*
X1250459Y-274257D02*
X1259983Y-255209D01*
X1259983Y-255209D02*
X1279030Y-245685D01*
X1279030Y-245685D02*
X1326649Y-245685D01*
X1326649Y-245685D02*
X1345697Y-236161D01*
X1440935Y-188542D02*
X1440935Y-388542D01*
X1440935Y-198066D02*
X1459983Y-188542D01*
X1459983Y-188542D02*
X1498078Y-188542D01*
X1498078Y-188542D02*
X1517125Y-198066D01*
X1517125Y-198066D02*
X1526649Y-207590D01*
X1526649Y-207590D02*
X1536173Y-226637D01*
X1536173Y-226637D02*
X1536173Y-283780D01*
X1536173Y-283780D02*
X1526649Y-302828D01*
X1526649Y-302828D02*
X1517125Y-312352D01*
X1517125Y-312352D02*
X1498078Y-321876D01*
X1498078Y-321876D02*
X1459983Y-321876D01*
X1459983Y-321876D02*
X1440935Y-312352D01*
X1621887Y-302828D02*
X1631411Y-312352D01*
X1631411Y-312352D02*
X1621887Y-321876D01*
X1621887Y-321876D02*
X1612364Y-312352D01*
X1612364Y-312352D02*
X1621887Y-302828D01*
X1621887Y-302828D02*
X1621887Y-321876D01*
X1621887Y-198066D02*
X1631411Y-207590D01*
X1631411Y-207590D02*
X1621887Y-217114D01*
X1621887Y-217114D02*
X1612364Y-207590D01*
X1612364Y-207590D02*
X1621887Y-198066D01*
X1621887Y-198066D02*
X1621887Y-217114D01*
D11*
X-185318Y-562892D02*
X-10318Y-737892D01*
X-10318Y-562892D02*
X-185318Y-737892D01*
D10*
X355221Y-741876D02*
X240935Y-741876D01*
X298078Y-741876D02*
X298078Y-541876D01*
X298078Y-541876D02*
X279030Y-570447D01*
X279030Y-570447D02*
X259983Y-589495D01*
X259983Y-589495D02*
X240935Y-599018D01*
X440935Y-722828D02*
X450459Y-732352D01*
X450459Y-732352D02*
X440935Y-741876D01*
X440935Y-741876D02*
X431411Y-732352D01*
X431411Y-732352D02*
X440935Y-722828D01*
X440935Y-722828D02*
X440935Y-741876D01*
X517125Y-541876D02*
X650459Y-541876D01*
X650459Y-541876D02*
X564745Y-741876D01*
X821887Y-541876D02*
X726649Y-541876D01*
X726649Y-541876D02*
X717125Y-637114D01*
X717125Y-637114D02*
X726649Y-627590D01*
X726649Y-627590D02*
X745697Y-618066D01*
X745697Y-618066D02*
X793316Y-618066D01*
X793316Y-618066D02*
X812364Y-627590D01*
X812364Y-627590D02*
X821887Y-637114D01*
X821887Y-637114D02*
X831411Y-656161D01*
X831411Y-656161D02*
X831411Y-703780D01*
X831411Y-703780D02*
X821887Y-722828D01*
X821887Y-722828D02*
X812364Y-732352D01*
X812364Y-732352D02*
X793316Y-741876D01*
X793316Y-741876D02*
X745697Y-741876D01*
X745697Y-741876D02*
X726649Y-732352D01*
X726649Y-732352D02*
X717125Y-722828D01*
X955221Y-541876D02*
X974268Y-541876D01*
X974268Y-541876D02*
X993316Y-551399D01*
X993316Y-551399D02*
X1002840Y-560923D01*
X1002840Y-560923D02*
X1012364Y-579971D01*
X1012364Y-579971D02*
X1021887Y-618066D01*
X1021887Y-618066D02*
X1021887Y-665685D01*
X1021887Y-665685D02*
X1012364Y-703780D01*
X1012364Y-703780D02*
X1002840Y-722828D01*
X1002840Y-722828D02*
X993316Y-732352D01*
X993316Y-732352D02*
X974268Y-741876D01*
X974268Y-741876D02*
X955221Y-741876D01*
X955221Y-741876D02*
X936173Y-732352D01*
X936173Y-732352D02*
X926649Y-722828D01*
X926649Y-722828D02*
X917125Y-703780D01*
X917125Y-703780D02*
X907602Y-665685D01*
X907602Y-665685D02*
X907602Y-618066D01*
X907602Y-618066D02*
X917125Y-579971D01*
X917125Y-579971D02*
X926649Y-560923D01*
X926649Y-560923D02*
X936173Y-551399D01*
X936173Y-551399D02*
X955221Y-541876D01*
X1107602Y-741876D02*
X1107602Y-608542D01*
X1107602Y-627590D02*
X1117126Y-618066D01*
X1117126Y-618066D02*
X1136173Y-608542D01*
X1136173Y-608542D02*
X1164745Y-608542D01*
X1164745Y-608542D02*
X1183792Y-618066D01*
X1183792Y-618066D02*
X1193316Y-637114D01*
X1193316Y-637114D02*
X1193316Y-741876D01*
X1193316Y-637114D02*
X1202840Y-618066D01*
X1202840Y-618066D02*
X1221887Y-608542D01*
X1221887Y-608542D02*
X1250459Y-608542D01*
X1250459Y-608542D02*
X1269507Y-618066D01*
X1269507Y-618066D02*
X1279030Y-637114D01*
X1279030Y-637114D02*
X1279030Y-741876D01*
X1374268Y-741876D02*
X1374268Y-608542D01*
X1374268Y-627590D02*
X1383792Y-618066D01*
X1383792Y-618066D02*
X1402840Y-608542D01*
X1402840Y-608542D02*
X1431411Y-608542D01*
X1431411Y-608542D02*
X1450459Y-618066D01*
X1450459Y-618066D02*
X1459983Y-637114D01*
X1459983Y-637114D02*
X1459983Y-741876D01*
X1459983Y-637114D02*
X1469506Y-618066D01*
X1469506Y-618066D02*
X1488554Y-608542D01*
X1488554Y-608542D02*
X1517125Y-608542D01*
X1517125Y-608542D02*
X1536173Y-618066D01*
X1536173Y-618066D02*
X1545697Y-637114D01*
X1545697Y-637114D02*
X1545697Y-741876D01*
X1936173Y-532352D02*
X1764745Y-789495D01*
X2193316Y-541876D02*
X2212364Y-541876D01*
X2212364Y-541876D02*
X2231411Y-551399D01*
X2231411Y-551399D02*
X2240935Y-560923D01*
X2240935Y-560923D02*
X2250459Y-579971D01*
X2250459Y-579971D02*
X2259983Y-618066D01*
X2259983Y-618066D02*
X2259983Y-665685D01*
X2259983Y-665685D02*
X2250459Y-703780D01*
X2250459Y-703780D02*
X2240935Y-722828D01*
X2240935Y-722828D02*
X2231411Y-732352D01*
X2231411Y-732352D02*
X2212364Y-741876D01*
X2212364Y-741876D02*
X2193316Y-741876D01*
X2193316Y-741876D02*
X2174269Y-732352D01*
X2174269Y-732352D02*
X2164745Y-722828D01*
X2164745Y-722828D02*
X2155221Y-703780D01*
X2155221Y-703780D02*
X2145697Y-665685D01*
X2145697Y-665685D02*
X2145697Y-618066D01*
X2145697Y-618066D02*
X2155221Y-579971D01*
X2155221Y-579971D02*
X2164745Y-560923D01*
X2164745Y-560923D02*
X2174269Y-551399D01*
X2174269Y-551399D02*
X2193316Y-541876D01*
X2345697Y-722828D02*
X2355221Y-732352D01*
X2355221Y-732352D02*
X2345697Y-741876D01*
X2345697Y-741876D02*
X2336173Y-732352D01*
X2336173Y-732352D02*
X2345697Y-722828D01*
X2345697Y-722828D02*
X2345697Y-741876D01*
X2479030Y-541876D02*
X2498078Y-541876D01*
X2498078Y-541876D02*
X2517126Y-551399D01*
X2517126Y-551399D02*
X2526650Y-560923D01*
X2526650Y-560923D02*
X2536173Y-579971D01*
X2536173Y-579971D02*
X2545697Y-618066D01*
X2545697Y-618066D02*
X2545697Y-665685D01*
X2545697Y-665685D02*
X2536173Y-703780D01*
X2536173Y-703780D02*
X2526650Y-722828D01*
X2526650Y-722828D02*
X2517126Y-732352D01*
X2517126Y-732352D02*
X2498078Y-741876D01*
X2498078Y-741876D02*
X2479030Y-741876D01*
X2479030Y-741876D02*
X2459983Y-732352D01*
X2459983Y-732352D02*
X2450459Y-722828D01*
X2450459Y-722828D02*
X2440935Y-703780D01*
X2440935Y-703780D02*
X2431411Y-665685D01*
X2431411Y-665685D02*
X2431411Y-618066D01*
X2431411Y-618066D02*
X2440935Y-579971D01*
X2440935Y-579971D02*
X2450459Y-560923D01*
X2450459Y-560923D02*
X2459983Y-551399D01*
X2459983Y-551399D02*
X2479030Y-541876D01*
X2717126Y-541876D02*
X2679030Y-541876D01*
X2679030Y-541876D02*
X2659983Y-551399D01*
X2659983Y-551399D02*
X2650459Y-560923D01*
X2650459Y-560923D02*
X2631411Y-589495D01*
X2631411Y-589495D02*
X2621888Y-627590D01*
X2621888Y-627590D02*
X2621888Y-703780D01*
X2621888Y-703780D02*
X2631411Y-722828D01*
X2631411Y-722828D02*
X2640935Y-732352D01*
X2640935Y-732352D02*
X2659983Y-741876D01*
X2659983Y-741876D02*
X2698078Y-741876D01*
X2698078Y-741876D02*
X2717126Y-732352D01*
X2717126Y-732352D02*
X2726650Y-722828D01*
X2726650Y-722828D02*
X2736173Y-703780D01*
X2736173Y-703780D02*
X2736173Y-656161D01*
X2736173Y-656161D02*
X2726650Y-637114D01*
X2726650Y-637114D02*
X2717126Y-627590D01*
X2717126Y-627590D02*
X2698078Y-618066D01*
X2698078Y-618066D02*
X2659983Y-618066D01*
X2659983Y-618066D02*
X2640935Y-627590D01*
X2640935Y-627590D02*
X2631411Y-637114D01*
X2631411Y-637114D02*
X2621888Y-656161D01*
X2850459Y-627590D02*
X2831411Y-618066D01*
X2831411Y-618066D02*
X2821888Y-608542D01*
X2821888Y-608542D02*
X2812364Y-589495D01*
X2812364Y-589495D02*
X2812364Y-579971D01*
X2812364Y-579971D02*
X2821888Y-560923D01*
X2821888Y-560923D02*
X2831411Y-551399D01*
X2831411Y-551399D02*
X2850459Y-541876D01*
X2850459Y-541876D02*
X2888554Y-541876D01*
X2888554Y-541876D02*
X2907602Y-551399D01*
X2907602Y-551399D02*
X2917126Y-560923D01*
X2917126Y-560923D02*
X2926649Y-579971D01*
X2926649Y-579971D02*
X2926649Y-589495D01*
X2926649Y-589495D02*
X2917126Y-608542D01*
X2917126Y-608542D02*
X2907602Y-618066D01*
X2907602Y-618066D02*
X2888554Y-627590D01*
X2888554Y-627590D02*
X2850459Y-627590D01*
X2850459Y-627590D02*
X2831411Y-637114D01*
X2831411Y-637114D02*
X2821888Y-646638D01*
X2821888Y-646638D02*
X2812364Y-665685D01*
X2812364Y-665685D02*
X2812364Y-703780D01*
X2812364Y-703780D02*
X2821888Y-722828D01*
X2821888Y-722828D02*
X2831411Y-732352D01*
X2831411Y-732352D02*
X2850459Y-741876D01*
X2850459Y-741876D02*
X2888554Y-741876D01*
X2888554Y-741876D02*
X2907602Y-732352D01*
X2907602Y-732352D02*
X2917126Y-722828D01*
X2917126Y-722828D02*
X2926649Y-703780D01*
X2926649Y-703780D02*
X2926649Y-665685D01*
X2926649Y-665685D02*
X2917126Y-646638D01*
X2917126Y-646638D02*
X2907602Y-637114D01*
X2907602Y-637114D02*
X2888554Y-627590D01*
X3021888Y-741876D02*
X3059983Y-741876D01*
X3059983Y-741876D02*
X3079030Y-732352D01*
X3079030Y-732352D02*
X3088554Y-722828D01*
X3088554Y-722828D02*
X3107602Y-694257D01*
X3107602Y-694257D02*
X3117126Y-656161D01*
X3117126Y-656161D02*
X3117126Y-579971D01*
X3117126Y-579971D02*
X3107602Y-560923D01*
X3107602Y-560923D02*
X3098078Y-551399D01*
X3098078Y-551399D02*
X3079030Y-541876D01*
X3079030Y-541876D02*
X3040935Y-541876D01*
X3040935Y-541876D02*
X3021888Y-551399D01*
X3021888Y-551399D02*
X3012364Y-560923D01*
X3012364Y-560923D02*
X3002840Y-579971D01*
X3002840Y-579971D02*
X3002840Y-627590D01*
X3002840Y-627590D02*
X3012364Y-646638D01*
X3012364Y-646638D02*
X3021888Y-656161D01*
X3021888Y-656161D02*
X3040935Y-665685D01*
X3040935Y-665685D02*
X3079030Y-665685D01*
X3079030Y-665685D02*
X3098078Y-656161D01*
X3098078Y-656161D02*
X3107602Y-646638D01*
X3107602Y-646638D02*
X3117126Y-627590D01*
X3193316Y-541876D02*
X3193316Y-579971D01*
X3269507Y-541876D02*
X3269507Y-579971D01*
X3564745Y-818066D02*
X3555221Y-808542D01*
X3555221Y-808542D02*
X3536173Y-779971D01*
X3536173Y-779971D02*
X3526650Y-760923D01*
X3526650Y-760923D02*
X3517126Y-732352D01*
X3517126Y-732352D02*
X3507602Y-684733D01*
X3507602Y-684733D02*
X3507602Y-646638D01*
X3507602Y-646638D02*
X3517126Y-599018D01*
X3517126Y-599018D02*
X3526650Y-570447D01*
X3526650Y-570447D02*
X3536173Y-551399D01*
X3536173Y-551399D02*
X3555221Y-522828D01*
X3555221Y-522828D02*
X3564745Y-513304D01*
X3621888Y-541876D02*
X3755221Y-541876D01*
X3755221Y-541876D02*
X3669507Y-741876D01*
X3859983Y-627590D02*
X3840935Y-618066D01*
X3840935Y-618066D02*
X3831411Y-608542D01*
X3831411Y-608542D02*
X3821888Y-589495D01*
X3821888Y-589495D02*
X3821888Y-579971D01*
X3821888Y-579971D02*
X3831411Y-560923D01*
X3831411Y-560923D02*
X3840935Y-551399D01*
X3840935Y-551399D02*
X3859983Y-541876D01*
X3859983Y-541876D02*
X3898078Y-541876D01*
X3898078Y-541876D02*
X3917126Y-551399D01*
X3917126Y-551399D02*
X3926650Y-560923D01*
X3926650Y-560923D02*
X3936173Y-579971D01*
X3936173Y-579971D02*
X3936173Y-589495D01*
X3936173Y-589495D02*
X3926650Y-608542D01*
X3926650Y-608542D02*
X3917126Y-618066D01*
X3917126Y-618066D02*
X3898078Y-627590D01*
X3898078Y-627590D02*
X3859983Y-627590D01*
X3859983Y-627590D02*
X3840935Y-637114D01*
X3840935Y-637114D02*
X3831411Y-646638D01*
X3831411Y-646638D02*
X3821888Y-665685D01*
X3821888Y-665685D02*
X3821888Y-703780D01*
X3821888Y-703780D02*
X3831411Y-722828D01*
X3831411Y-722828D02*
X3840935Y-732352D01*
X3840935Y-732352D02*
X3859983Y-741876D01*
X3859983Y-741876D02*
X3898078Y-741876D01*
X3898078Y-741876D02*
X3917126Y-732352D01*
X3917126Y-732352D02*
X3926650Y-722828D01*
X3926650Y-722828D02*
X3936173Y-703780D01*
X3936173Y-703780D02*
X3936173Y-665685D01*
X3936173Y-665685D02*
X3926650Y-646638D01*
X3926650Y-646638D02*
X3917126Y-637114D01*
X3917126Y-637114D02*
X3898078Y-627590D01*
X4174269Y-741876D02*
X4174269Y-541876D01*
X4259983Y-741876D02*
X4259983Y-637114D01*
X4259983Y-637114D02*
X4250459Y-618066D01*
X4250459Y-618066D02*
X4231412Y-608542D01*
X4231412Y-608542D02*
X4202840Y-608542D01*
X4202840Y-608542D02*
X4183792Y-618066D01*
X4183792Y-618066D02*
X4174269Y-627590D01*
X4383793Y-741876D02*
X4364745Y-732352D01*
X4364745Y-732352D02*
X4355221Y-722828D01*
X4355221Y-722828D02*
X4345697Y-703780D01*
X4345697Y-703780D02*
X4345697Y-646638D01*
X4345697Y-646638D02*
X4355221Y-627590D01*
X4355221Y-627590D02*
X4364745Y-618066D01*
X4364745Y-618066D02*
X4383793Y-608542D01*
X4383793Y-608542D02*
X4412364Y-608542D01*
X4412364Y-608542D02*
X4431412Y-618066D01*
X4431412Y-618066D02*
X4440935Y-627590D01*
X4440935Y-627590D02*
X4450459Y-646638D01*
X4450459Y-646638D02*
X4450459Y-703780D01*
X4450459Y-703780D02*
X4440935Y-722828D01*
X4440935Y-722828D02*
X4431412Y-732352D01*
X4431412Y-732352D02*
X4412364Y-741876D01*
X4412364Y-741876D02*
X4383793Y-741876D01*
X4564745Y-741876D02*
X4545697Y-732352D01*
X4545697Y-732352D02*
X4536174Y-713304D01*
X4536174Y-713304D02*
X4536174Y-541876D01*
X4717126Y-732352D02*
X4698078Y-741876D01*
X4698078Y-741876D02*
X4659983Y-741876D01*
X4659983Y-741876D02*
X4640935Y-732352D01*
X4640935Y-732352D02*
X4631412Y-713304D01*
X4631412Y-713304D02*
X4631412Y-637114D01*
X4631412Y-637114D02*
X4640935Y-618066D01*
X4640935Y-618066D02*
X4659983Y-608542D01*
X4659983Y-608542D02*
X4698078Y-608542D01*
X4698078Y-608542D02*
X4717126Y-618066D01*
X4717126Y-618066D02*
X4726650Y-637114D01*
X4726650Y-637114D02*
X4726650Y-656161D01*
X4726650Y-656161D02*
X4631412Y-675209D01*
X4802840Y-732352D02*
X4821888Y-741876D01*
X4821888Y-741876D02*
X4859983Y-741876D01*
X4859983Y-741876D02*
X4879031Y-732352D01*
X4879031Y-732352D02*
X4888555Y-713304D01*
X4888555Y-713304D02*
X4888555Y-703780D01*
X4888555Y-703780D02*
X4879031Y-684733D01*
X4879031Y-684733D02*
X4859983Y-675209D01*
X4859983Y-675209D02*
X4831412Y-675209D01*
X4831412Y-675209D02*
X4812364Y-665685D01*
X4812364Y-665685D02*
X4802840Y-646638D01*
X4802840Y-646638D02*
X4802840Y-637114D01*
X4802840Y-637114D02*
X4812364Y-618066D01*
X4812364Y-618066D02*
X4831412Y-608542D01*
X4831412Y-608542D02*
X4859983Y-608542D01*
X4859983Y-608542D02*
X4879031Y-618066D01*
X4955221Y-818066D02*
X4964745Y-808542D01*
X4964745Y-808542D02*
X4983793Y-779971D01*
X4983793Y-779971D02*
X4993316Y-760923D01*
X4993316Y-760923D02*
X5002840Y-732352D01*
X5002840Y-732352D02*
X5012364Y-684733D01*
X5012364Y-684733D02*
X5012364Y-646638D01*
X5012364Y-646638D02*
X5002840Y-599018D01*
X5002840Y-599018D02*
X4993316Y-570447D01*
X4993316Y-570447D02*
X4983793Y-551399D01*
X4983793Y-551399D02*
X4964745Y-522828D01*
X4964745Y-522828D02*
X4955221Y-513304D01*
X5317126Y-818066D02*
X5307602Y-808542D01*
X5307602Y-808542D02*
X5288555Y-779971D01*
X5288555Y-779971D02*
X5279031Y-760923D01*
X5279031Y-760923D02*
X5269507Y-732352D01*
X5269507Y-732352D02*
X5259983Y-684733D01*
X5259983Y-684733D02*
X5259983Y-646638D01*
X5259983Y-646638D02*
X5269507Y-599018D01*
X5269507Y-599018D02*
X5279031Y-570447D01*
X5279031Y-570447D02*
X5288555Y-551399D01*
X5288555Y-551399D02*
X5307602Y-522828D01*
X5307602Y-522828D02*
X5317126Y-513304D01*
X5393316Y-608542D02*
X5393316Y-741876D01*
X5393316Y-627590D02*
X5402840Y-618066D01*
X5402840Y-618066D02*
X5421888Y-608542D01*
X5421888Y-608542D02*
X5450459Y-608542D01*
X5450459Y-608542D02*
X5469507Y-618066D01*
X5469507Y-618066D02*
X5479031Y-637114D01*
X5479031Y-637114D02*
X5479031Y-741876D01*
X5602840Y-741876D02*
X5583793Y-732352D01*
X5583793Y-732352D02*
X5574269Y-722828D01*
X5574269Y-722828D02*
X5564745Y-703780D01*
X5564745Y-703780D02*
X5564745Y-646638D01*
X5564745Y-646638D02*
X5574269Y-627590D01*
X5574269Y-627590D02*
X5583793Y-618066D01*
X5583793Y-618066D02*
X5602840Y-608542D01*
X5602840Y-608542D02*
X5631412Y-608542D01*
X5631412Y-608542D02*
X5650459Y-618066D01*
X5650459Y-618066D02*
X5659983Y-627590D01*
X5659983Y-627590D02*
X5669507Y-646638D01*
X5669507Y-646638D02*
X5669507Y-703780D01*
X5669507Y-703780D02*
X5659983Y-722828D01*
X5659983Y-722828D02*
X5650459Y-732352D01*
X5650459Y-732352D02*
X5631412Y-741876D01*
X5631412Y-741876D02*
X5602840Y-741876D01*
X5726650Y-608542D02*
X5802840Y-608542D01*
X5755221Y-541876D02*
X5755221Y-713304D01*
X5755221Y-713304D02*
X5764745Y-732352D01*
X5764745Y-732352D02*
X5783793Y-741876D01*
X5783793Y-741876D02*
X5802840Y-741876D01*
X6021888Y-608542D02*
X6021888Y-808542D01*
X6021888Y-618066D02*
X6040935Y-608542D01*
X6040935Y-608542D02*
X6079031Y-608542D01*
X6079031Y-608542D02*
X6098078Y-618066D01*
X6098078Y-618066D02*
X6107602Y-627590D01*
X6107602Y-627590D02*
X6117126Y-646638D01*
X6117126Y-646638D02*
X6117126Y-703780D01*
X6117126Y-703780D02*
X6107602Y-722828D01*
X6107602Y-722828D02*
X6098078Y-732352D01*
X6098078Y-732352D02*
X6079031Y-741876D01*
X6079031Y-741876D02*
X6040935Y-741876D01*
X6040935Y-741876D02*
X6021888Y-732352D01*
X6231412Y-741876D02*
X6212364Y-732352D01*
X6212364Y-732352D02*
X6202840Y-713304D01*
X6202840Y-713304D02*
X6202840Y-541876D01*
X6393316Y-741876D02*
X6393316Y-637114D01*
X6393316Y-637114D02*
X6383793Y-618066D01*
X6383793Y-618066D02*
X6364745Y-608542D01*
X6364745Y-608542D02*
X6326650Y-608542D01*
X6326650Y-608542D02*
X6307602Y-618066D01*
X6393316Y-732352D02*
X6374269Y-741876D01*
X6374269Y-741876D02*
X6326650Y-741876D01*
X6326650Y-741876D02*
X6307602Y-732352D01*
X6307602Y-732352D02*
X6298078Y-713304D01*
X6298078Y-713304D02*
X6298078Y-694257D01*
X6298078Y-694257D02*
X6307602Y-675209D01*
X6307602Y-675209D02*
X6326650Y-665685D01*
X6326650Y-665685D02*
X6374269Y-665685D01*
X6374269Y-665685D02*
X6393316Y-656161D01*
X6459983Y-608542D02*
X6536174Y-608542D01*
X6488555Y-541876D02*
X6488555Y-713304D01*
X6488555Y-713304D02*
X6498078Y-732352D01*
X6498078Y-732352D02*
X6517126Y-741876D01*
X6517126Y-741876D02*
X6536174Y-741876D01*
X6679031Y-732352D02*
X6659983Y-741876D01*
X6659983Y-741876D02*
X6621888Y-741876D01*
X6621888Y-741876D02*
X6602840Y-732352D01*
X6602840Y-732352D02*
X6593316Y-713304D01*
X6593316Y-713304D02*
X6593316Y-637114D01*
X6593316Y-637114D02*
X6602840Y-618066D01*
X6602840Y-618066D02*
X6621888Y-608542D01*
X6621888Y-608542D02*
X6659983Y-608542D01*
X6659983Y-608542D02*
X6679031Y-618066D01*
X6679031Y-618066D02*
X6688555Y-637114D01*
X6688555Y-637114D02*
X6688555Y-656161D01*
X6688555Y-656161D02*
X6593316Y-675209D01*
X6859983Y-741876D02*
X6859983Y-541876D01*
X6859983Y-732352D02*
X6840936Y-741876D01*
X6840936Y-741876D02*
X6802840Y-741876D01*
X6802840Y-741876D02*
X6783793Y-732352D01*
X6783793Y-732352D02*
X6774269Y-722828D01*
X6774269Y-722828D02*
X6764745Y-703780D01*
X6764745Y-703780D02*
X6764745Y-646638D01*
X6764745Y-646638D02*
X6774269Y-627590D01*
X6774269Y-627590D02*
X6783793Y-618066D01*
X6783793Y-618066D02*
X6802840Y-608542D01*
X6802840Y-608542D02*
X6840936Y-608542D01*
X6840936Y-608542D02*
X6859983Y-618066D01*
X6936174Y-818066D02*
X6945697Y-808542D01*
X6945697Y-808542D02*
X6964745Y-779971D01*
X6964745Y-779971D02*
X6974269Y-760923D01*
X6974269Y-760923D02*
X6983793Y-732352D01*
X6983793Y-732352D02*
X6993316Y-684733D01*
X6993316Y-684733D02*
X6993316Y-646638D01*
X6993316Y-646638D02*
X6983793Y-599018D01*
X6983793Y-599018D02*
X6974269Y-570447D01*
X6974269Y-570447D02*
X6964745Y-551399D01*
X6964745Y-551399D02*
X6945697Y-522828D01*
X6945697Y-522828D02*
X6936174Y-513304D01*
X-10318Y-945392D02*
G75*
G03*
X-10318Y-945392I-100000J0D01*
G01*
X231411Y-836876D02*
X355221Y-836876D01*
X355221Y-836876D02*
X288554Y-913066D01*
X288554Y-913066D02*
X317126Y-913066D01*
X317126Y-913066D02*
X336173Y-922590D01*
X336173Y-922590D02*
X345697Y-932114D01*
X345697Y-932114D02*
X355221Y-951161D01*
X355221Y-951161D02*
X355221Y-998780D01*
X355221Y-998780D02*
X345697Y-1017828D01*
X345697Y-1017828D02*
X336173Y-1027352D01*
X336173Y-1027352D02*
X317126Y-1036876D01*
X317126Y-1036876D02*
X259983Y-1036876D01*
X259983Y-1036876D02*
X240935Y-1027352D01*
X240935Y-1027352D02*
X231411Y-1017828D01*
X440935Y-1017828D02*
X450459Y-1027352D01*
X450459Y-1027352D02*
X440935Y-1036876D01*
X440935Y-1036876D02*
X431411Y-1027352D01*
X431411Y-1027352D02*
X440935Y-1017828D01*
X440935Y-1017828D02*
X440935Y-1036876D01*
X574268Y-836876D02*
X593316Y-836876D01*
X593316Y-836876D02*
X612364Y-846399D01*
X612364Y-846399D02*
X621887Y-855923D01*
X621887Y-855923D02*
X631411Y-874971D01*
X631411Y-874971D02*
X640935Y-913066D01*
X640935Y-913066D02*
X640935Y-960685D01*
X640935Y-960685D02*
X631411Y-998780D01*
X631411Y-998780D02*
X621887Y-1017828D01*
X621887Y-1017828D02*
X612364Y-1027352D01*
X612364Y-1027352D02*
X593316Y-1036876D01*
X593316Y-1036876D02*
X574268Y-1036876D01*
X574268Y-1036876D02*
X555221Y-1027352D01*
X555221Y-1027352D02*
X545697Y-1017828D01*
X545697Y-1017828D02*
X536173Y-998780D01*
X536173Y-998780D02*
X526649Y-960685D01*
X526649Y-960685D02*
X526649Y-913066D01*
X526649Y-913066D02*
X536173Y-874971D01*
X536173Y-874971D02*
X545697Y-855923D01*
X545697Y-855923D02*
X555221Y-846399D01*
X555221Y-846399D02*
X574268Y-836876D01*
X764744Y-836876D02*
X783792Y-836876D01*
X783792Y-836876D02*
X802840Y-846399D01*
X802840Y-846399D02*
X812364Y-855923D01*
X812364Y-855923D02*
X821887Y-874971D01*
X821887Y-874971D02*
X831411Y-913066D01*
X831411Y-913066D02*
X831411Y-960685D01*
X831411Y-960685D02*
X821887Y-998780D01*
X821887Y-998780D02*
X812364Y-1017828D01*
X812364Y-1017828D02*
X802840Y-1027352D01*
X802840Y-1027352D02*
X783792Y-1036876D01*
X783792Y-1036876D02*
X764744Y-1036876D01*
X764744Y-1036876D02*
X745697Y-1027352D01*
X745697Y-1027352D02*
X736173Y-1017828D01*
X736173Y-1017828D02*
X726649Y-998780D01*
X726649Y-998780D02*
X717125Y-960685D01*
X717125Y-960685D02*
X717125Y-913066D01*
X717125Y-913066D02*
X726649Y-874971D01*
X726649Y-874971D02*
X736173Y-855923D01*
X736173Y-855923D02*
X745697Y-846399D01*
X745697Y-846399D02*
X764744Y-836876D01*
X955221Y-836876D02*
X974268Y-836876D01*
X974268Y-836876D02*
X993316Y-846399D01*
X993316Y-846399D02*
X1002840Y-855923D01*
X1002840Y-855923D02*
X1012364Y-874971D01*
X1012364Y-874971D02*
X1021887Y-913066D01*
X1021887Y-913066D02*
X1021887Y-960685D01*
X1021887Y-960685D02*
X1012364Y-998780D01*
X1012364Y-998780D02*
X1002840Y-1017828D01*
X1002840Y-1017828D02*
X993316Y-1027352D01*
X993316Y-1027352D02*
X974268Y-1036876D01*
X974268Y-1036876D02*
X955221Y-1036876D01*
X955221Y-1036876D02*
X936173Y-1027352D01*
X936173Y-1027352D02*
X926649Y-1017828D01*
X926649Y-1017828D02*
X917125Y-998780D01*
X917125Y-998780D02*
X907602Y-960685D01*
X907602Y-960685D02*
X907602Y-913066D01*
X907602Y-913066D02*
X917125Y-874971D01*
X917125Y-874971D02*
X926649Y-855923D01*
X926649Y-855923D02*
X936173Y-846399D01*
X936173Y-846399D02*
X955221Y-836876D01*
X1107602Y-1036876D02*
X1107602Y-903542D01*
X1107602Y-922590D02*
X1117126Y-913066D01*
X1117126Y-913066D02*
X1136173Y-903542D01*
X1136173Y-903542D02*
X1164745Y-903542D01*
X1164745Y-903542D02*
X1183792Y-913066D01*
X1183792Y-913066D02*
X1193316Y-932114D01*
X1193316Y-932114D02*
X1193316Y-1036876D01*
X1193316Y-932114D02*
X1202840Y-913066D01*
X1202840Y-913066D02*
X1221887Y-903542D01*
X1221887Y-903542D02*
X1250459Y-903542D01*
X1250459Y-903542D02*
X1269507Y-913066D01*
X1269507Y-913066D02*
X1279030Y-932114D01*
X1279030Y-932114D02*
X1279030Y-1036876D01*
X1374268Y-1036876D02*
X1374268Y-903542D01*
X1374268Y-922590D02*
X1383792Y-913066D01*
X1383792Y-913066D02*
X1402840Y-903542D01*
X1402840Y-903542D02*
X1431411Y-903542D01*
X1431411Y-903542D02*
X1450459Y-913066D01*
X1450459Y-913066D02*
X1459983Y-932114D01*
X1459983Y-932114D02*
X1459983Y-1036876D01*
X1459983Y-932114D02*
X1469506Y-913066D01*
X1469506Y-913066D02*
X1488554Y-903542D01*
X1488554Y-903542D02*
X1517125Y-903542D01*
X1517125Y-903542D02*
X1536173Y-913066D01*
X1536173Y-913066D02*
X1545697Y-932114D01*
X1545697Y-932114D02*
X1545697Y-1036876D01*
X1936173Y-827352D02*
X1764745Y-1084495D01*
X2193316Y-836876D02*
X2212364Y-836876D01*
X2212364Y-836876D02*
X2231411Y-846399D01*
X2231411Y-846399D02*
X2240935Y-855923D01*
X2240935Y-855923D02*
X2250459Y-874971D01*
X2250459Y-874971D02*
X2259983Y-913066D01*
X2259983Y-913066D02*
X2259983Y-960685D01*
X2259983Y-960685D02*
X2250459Y-998780D01*
X2250459Y-998780D02*
X2240935Y-1017828D01*
X2240935Y-1017828D02*
X2231411Y-1027352D01*
X2231411Y-1027352D02*
X2212364Y-1036876D01*
X2212364Y-1036876D02*
X2193316Y-1036876D01*
X2193316Y-1036876D02*
X2174269Y-1027352D01*
X2174269Y-1027352D02*
X2164745Y-1017828D01*
X2164745Y-1017828D02*
X2155221Y-998780D01*
X2155221Y-998780D02*
X2145697Y-960685D01*
X2145697Y-960685D02*
X2145697Y-913066D01*
X2145697Y-913066D02*
X2155221Y-874971D01*
X2155221Y-874971D02*
X2164745Y-855923D01*
X2164745Y-855923D02*
X2174269Y-846399D01*
X2174269Y-846399D02*
X2193316Y-836876D01*
X2345697Y-1017828D02*
X2355221Y-1027352D01*
X2355221Y-1027352D02*
X2345697Y-1036876D01*
X2345697Y-1036876D02*
X2336173Y-1027352D01*
X2336173Y-1027352D02*
X2345697Y-1017828D01*
X2345697Y-1017828D02*
X2345697Y-1036876D01*
X2545697Y-1036876D02*
X2431411Y-1036876D01*
X2488554Y-1036876D02*
X2488554Y-836876D01*
X2488554Y-836876D02*
X2469507Y-865447D01*
X2469507Y-865447D02*
X2450459Y-884495D01*
X2450459Y-884495D02*
X2431411Y-894018D01*
X2736173Y-1036876D02*
X2621888Y-1036876D01*
X2679030Y-1036876D02*
X2679030Y-836876D01*
X2679030Y-836876D02*
X2659983Y-865447D01*
X2659983Y-865447D02*
X2640935Y-884495D01*
X2640935Y-884495D02*
X2621888Y-894018D01*
X2850459Y-922590D02*
X2831411Y-913066D01*
X2831411Y-913066D02*
X2821888Y-903542D01*
X2821888Y-903542D02*
X2812364Y-884495D01*
X2812364Y-884495D02*
X2812364Y-874971D01*
X2812364Y-874971D02*
X2821888Y-855923D01*
X2821888Y-855923D02*
X2831411Y-846399D01*
X2831411Y-846399D02*
X2850459Y-836876D01*
X2850459Y-836876D02*
X2888554Y-836876D01*
X2888554Y-836876D02*
X2907602Y-846399D01*
X2907602Y-846399D02*
X2917126Y-855923D01*
X2917126Y-855923D02*
X2926649Y-874971D01*
X2926649Y-874971D02*
X2926649Y-884495D01*
X2926649Y-884495D02*
X2917126Y-903542D01*
X2917126Y-903542D02*
X2907602Y-913066D01*
X2907602Y-913066D02*
X2888554Y-922590D01*
X2888554Y-922590D02*
X2850459Y-922590D01*
X2850459Y-922590D02*
X2831411Y-932114D01*
X2831411Y-932114D02*
X2821888Y-941637D01*
X2821888Y-941637D02*
X2812364Y-960685D01*
X2812364Y-960685D02*
X2812364Y-998780D01*
X2812364Y-998780D02*
X2821888Y-1017828D01*
X2821888Y-1017828D02*
X2831411Y-1027352D01*
X2831411Y-1027352D02*
X2850459Y-1036876D01*
X2850459Y-1036876D02*
X2888554Y-1036876D01*
X2888554Y-1036876D02*
X2907602Y-1027352D01*
X2907602Y-1027352D02*
X2917126Y-1017828D01*
X2917126Y-1017828D02*
X2926649Y-998780D01*
X2926649Y-998780D02*
X2926649Y-960685D01*
X2926649Y-960685D02*
X2917126Y-941637D01*
X2917126Y-941637D02*
X2907602Y-932114D01*
X2907602Y-932114D02*
X2888554Y-922590D01*
X3117126Y-1036876D02*
X3002840Y-1036876D01*
X3059983Y-1036876D02*
X3059983Y-836876D01*
X3059983Y-836876D02*
X3040935Y-865447D01*
X3040935Y-865447D02*
X3021888Y-884495D01*
X3021888Y-884495D02*
X3002840Y-894018D01*
X3193316Y-836876D02*
X3193316Y-874971D01*
X3269507Y-836876D02*
X3269507Y-874971D01*
X3564745Y-1113066D02*
X3555221Y-1103542D01*
X3555221Y-1103542D02*
X3536173Y-1074971D01*
X3536173Y-1074971D02*
X3526650Y-1055923D01*
X3526650Y-1055923D02*
X3517126Y-1027352D01*
X3517126Y-1027352D02*
X3507602Y-979733D01*
X3507602Y-979733D02*
X3507602Y-941637D01*
X3507602Y-941637D02*
X3517126Y-894018D01*
X3517126Y-894018D02*
X3526650Y-865447D01*
X3526650Y-865447D02*
X3536173Y-846399D01*
X3536173Y-846399D02*
X3555221Y-817828D01*
X3555221Y-817828D02*
X3564745Y-808304D01*
X3621888Y-836876D02*
X3755221Y-836876D01*
X3755221Y-836876D02*
X3669507Y-1036876D01*
X3859983Y-922590D02*
X3840935Y-913066D01*
X3840935Y-913066D02*
X3831411Y-903542D01*
X3831411Y-903542D02*
X3821888Y-884495D01*
X3821888Y-884495D02*
X3821888Y-874971D01*
X3821888Y-874971D02*
X3831411Y-855923D01*
X3831411Y-855923D02*
X3840935Y-846399D01*
X3840935Y-846399D02*
X3859983Y-836876D01*
X3859983Y-836876D02*
X3898078Y-836876D01*
X3898078Y-836876D02*
X3917126Y-846399D01*
X3917126Y-846399D02*
X3926650Y-855923D01*
X3926650Y-855923D02*
X3936173Y-874971D01*
X3936173Y-874971D02*
X3936173Y-884495D01*
X3936173Y-884495D02*
X3926650Y-903542D01*
X3926650Y-903542D02*
X3917126Y-913066D01*
X3917126Y-913066D02*
X3898078Y-922590D01*
X3898078Y-922590D02*
X3859983Y-922590D01*
X3859983Y-922590D02*
X3840935Y-932114D01*
X3840935Y-932114D02*
X3831411Y-941637D01*
X3831411Y-941637D02*
X3821888Y-960685D01*
X3821888Y-960685D02*
X3821888Y-998780D01*
X3821888Y-998780D02*
X3831411Y-1017828D01*
X3831411Y-1017828D02*
X3840935Y-1027352D01*
X3840935Y-1027352D02*
X3859983Y-1036876D01*
X3859983Y-1036876D02*
X3898078Y-1036876D01*
X3898078Y-1036876D02*
X3917126Y-1027352D01*
X3917126Y-1027352D02*
X3926650Y-1017828D01*
X3926650Y-1017828D02*
X3936173Y-998780D01*
X3936173Y-998780D02*
X3936173Y-960685D01*
X3936173Y-960685D02*
X3926650Y-941637D01*
X3926650Y-941637D02*
X3917126Y-932114D01*
X3917126Y-932114D02*
X3898078Y-922590D01*
X4174269Y-1036876D02*
X4174269Y-836876D01*
X4259983Y-1036876D02*
X4259983Y-932114D01*
X4259983Y-932114D02*
X4250459Y-913066D01*
X4250459Y-913066D02*
X4231412Y-903542D01*
X4231412Y-903542D02*
X4202840Y-903542D01*
X4202840Y-903542D02*
X4183792Y-913066D01*
X4183792Y-913066D02*
X4174269Y-922590D01*
X4383793Y-1036876D02*
X4364745Y-1027352D01*
X4364745Y-1027352D02*
X4355221Y-1017828D01*
X4355221Y-1017828D02*
X4345697Y-998780D01*
X4345697Y-998780D02*
X4345697Y-941637D01*
X4345697Y-941637D02*
X4355221Y-922590D01*
X4355221Y-922590D02*
X4364745Y-913066D01*
X4364745Y-913066D02*
X4383793Y-903542D01*
X4383793Y-903542D02*
X4412364Y-903542D01*
X4412364Y-903542D02*
X4431412Y-913066D01*
X4431412Y-913066D02*
X4440935Y-922590D01*
X4440935Y-922590D02*
X4450459Y-941637D01*
X4450459Y-941637D02*
X4450459Y-998780D01*
X4450459Y-998780D02*
X4440935Y-1017828D01*
X4440935Y-1017828D02*
X4431412Y-1027352D01*
X4431412Y-1027352D02*
X4412364Y-1036876D01*
X4412364Y-1036876D02*
X4383793Y-1036876D01*
X4564745Y-1036876D02*
X4545697Y-1027352D01*
X4545697Y-1027352D02*
X4536174Y-1008304D01*
X4536174Y-1008304D02*
X4536174Y-836876D01*
X4717126Y-1027352D02*
X4698078Y-1036876D01*
X4698078Y-1036876D02*
X4659983Y-1036876D01*
X4659983Y-1036876D02*
X4640935Y-1027352D01*
X4640935Y-1027352D02*
X4631412Y-1008304D01*
X4631412Y-1008304D02*
X4631412Y-932114D01*
X4631412Y-932114D02*
X4640935Y-913066D01*
X4640935Y-913066D02*
X4659983Y-903542D01*
X4659983Y-903542D02*
X4698078Y-903542D01*
X4698078Y-903542D02*
X4717126Y-913066D01*
X4717126Y-913066D02*
X4726650Y-932114D01*
X4726650Y-932114D02*
X4726650Y-951161D01*
X4726650Y-951161D02*
X4631412Y-970209D01*
X4802840Y-1027352D02*
X4821888Y-1036876D01*
X4821888Y-1036876D02*
X4859983Y-1036876D01*
X4859983Y-1036876D02*
X4879031Y-1027352D01*
X4879031Y-1027352D02*
X4888555Y-1008304D01*
X4888555Y-1008304D02*
X4888555Y-998780D01*
X4888555Y-998780D02*
X4879031Y-979733D01*
X4879031Y-979733D02*
X4859983Y-970209D01*
X4859983Y-970209D02*
X4831412Y-970209D01*
X4831412Y-970209D02*
X4812364Y-960685D01*
X4812364Y-960685D02*
X4802840Y-941637D01*
X4802840Y-941637D02*
X4802840Y-932114D01*
X4802840Y-932114D02*
X4812364Y-913066D01*
X4812364Y-913066D02*
X4831412Y-903542D01*
X4831412Y-903542D02*
X4859983Y-903542D01*
X4859983Y-903542D02*
X4879031Y-913066D01*
X4955221Y-1113066D02*
X4964745Y-1103542D01*
X4964745Y-1103542D02*
X4983793Y-1074971D01*
X4983793Y-1074971D02*
X4993316Y-1055923D01*
X4993316Y-1055923D02*
X5002840Y-1027352D01*
X5002840Y-1027352D02*
X5012364Y-979733D01*
X5012364Y-979733D02*
X5012364Y-941637D01*
X5012364Y-941637D02*
X5002840Y-894018D01*
X5002840Y-894018D02*
X4993316Y-865447D01*
X4993316Y-865447D02*
X4983793Y-846399D01*
X4983793Y-846399D02*
X4964745Y-817828D01*
X4964745Y-817828D02*
X4955221Y-808304D01*
X5317126Y-1113066D02*
X5307602Y-1103542D01*
X5307602Y-1103542D02*
X5288555Y-1074971D01*
X5288555Y-1074971D02*
X5279031Y-1055923D01*
X5279031Y-1055923D02*
X5269507Y-1027352D01*
X5269507Y-1027352D02*
X5259983Y-979733D01*
X5259983Y-979733D02*
X5259983Y-941637D01*
X5259983Y-941637D02*
X5269507Y-894018D01*
X5269507Y-894018D02*
X5279031Y-865447D01*
X5279031Y-865447D02*
X5288555Y-846399D01*
X5288555Y-846399D02*
X5307602Y-817828D01*
X5307602Y-817828D02*
X5317126Y-808304D01*
X5393316Y-903542D02*
X5393316Y-1036876D01*
X5393316Y-922590D02*
X5402840Y-913066D01*
X5402840Y-913066D02*
X5421888Y-903542D01*
X5421888Y-903542D02*
X5450459Y-903542D01*
X5450459Y-903542D02*
X5469507Y-913066D01*
X5469507Y-913066D02*
X5479031Y-932114D01*
X5479031Y-932114D02*
X5479031Y-1036876D01*
X5602840Y-1036876D02*
X5583793Y-1027352D01*
X5583793Y-1027352D02*
X5574269Y-1017828D01*
X5574269Y-1017828D02*
X5564745Y-998780D01*
X5564745Y-998780D02*
X5564745Y-941637D01*
X5564745Y-941637D02*
X5574269Y-922590D01*
X5574269Y-922590D02*
X5583793Y-913066D01*
X5583793Y-913066D02*
X5602840Y-903542D01*
X5602840Y-903542D02*
X5631412Y-903542D01*
X5631412Y-903542D02*
X5650459Y-913066D01*
X5650459Y-913066D02*
X5659983Y-922590D01*
X5659983Y-922590D02*
X5669507Y-941637D01*
X5669507Y-941637D02*
X5669507Y-998780D01*
X5669507Y-998780D02*
X5659983Y-1017828D01*
X5659983Y-1017828D02*
X5650459Y-1027352D01*
X5650459Y-1027352D02*
X5631412Y-1036876D01*
X5631412Y-1036876D02*
X5602840Y-1036876D01*
X5726650Y-903542D02*
X5802840Y-903542D01*
X5755221Y-836876D02*
X5755221Y-1008304D01*
X5755221Y-1008304D02*
X5764745Y-1027352D01*
X5764745Y-1027352D02*
X5783793Y-1036876D01*
X5783793Y-1036876D02*
X5802840Y-1036876D01*
X6021888Y-903542D02*
X6021888Y-1103542D01*
X6021888Y-913066D02*
X6040935Y-903542D01*
X6040935Y-903542D02*
X6079031Y-903542D01*
X6079031Y-903542D02*
X6098078Y-913066D01*
X6098078Y-913066D02*
X6107602Y-922590D01*
X6107602Y-922590D02*
X6117126Y-941637D01*
X6117126Y-941637D02*
X6117126Y-998780D01*
X6117126Y-998780D02*
X6107602Y-1017828D01*
X6107602Y-1017828D02*
X6098078Y-1027352D01*
X6098078Y-1027352D02*
X6079031Y-1036876D01*
X6079031Y-1036876D02*
X6040935Y-1036876D01*
X6040935Y-1036876D02*
X6021888Y-1027352D01*
X6231412Y-1036876D02*
X6212364Y-1027352D01*
X6212364Y-1027352D02*
X6202840Y-1008304D01*
X6202840Y-1008304D02*
X6202840Y-836876D01*
X6393316Y-1036876D02*
X6393316Y-932114D01*
X6393316Y-932114D02*
X6383793Y-913066D01*
X6383793Y-913066D02*
X6364745Y-903542D01*
X6364745Y-903542D02*
X6326650Y-903542D01*
X6326650Y-903542D02*
X6307602Y-913066D01*
X6393316Y-1027352D02*
X6374269Y-1036876D01*
X6374269Y-1036876D02*
X6326650Y-1036876D01*
X6326650Y-1036876D02*
X6307602Y-1027352D01*
X6307602Y-1027352D02*
X6298078Y-1008304D01*
X6298078Y-1008304D02*
X6298078Y-989256D01*
X6298078Y-989256D02*
X6307602Y-970209D01*
X6307602Y-970209D02*
X6326650Y-960685D01*
X6326650Y-960685D02*
X6374269Y-960685D01*
X6374269Y-960685D02*
X6393316Y-951161D01*
X6459983Y-903542D02*
X6536174Y-903542D01*
X6488555Y-836876D02*
X6488555Y-1008304D01*
X6488555Y-1008304D02*
X6498078Y-1027352D01*
X6498078Y-1027352D02*
X6517126Y-1036876D01*
X6517126Y-1036876D02*
X6536174Y-1036876D01*
X6679031Y-1027352D02*
X6659983Y-1036876D01*
X6659983Y-1036876D02*
X6621888Y-1036876D01*
X6621888Y-1036876D02*
X6602840Y-1027352D01*
X6602840Y-1027352D02*
X6593316Y-1008304D01*
X6593316Y-1008304D02*
X6593316Y-932114D01*
X6593316Y-932114D02*
X6602840Y-913066D01*
X6602840Y-913066D02*
X6621888Y-903542D01*
X6621888Y-903542D02*
X6659983Y-903542D01*
X6659983Y-903542D02*
X6679031Y-913066D01*
X6679031Y-913066D02*
X6688555Y-932114D01*
X6688555Y-932114D02*
X6688555Y-951161D01*
X6688555Y-951161D02*
X6593316Y-970209D01*
X6859983Y-1036876D02*
X6859983Y-836876D01*
X6859983Y-1027352D02*
X6840936Y-1036876D01*
X6840936Y-1036876D02*
X6802840Y-1036876D01*
X6802840Y-1036876D02*
X6783793Y-1027352D01*
X6783793Y-1027352D02*
X6774269Y-1017828D01*
X6774269Y-1017828D02*
X6764745Y-998780D01*
X6764745Y-998780D02*
X6764745Y-941637D01*
X6764745Y-941637D02*
X6774269Y-922590D01*
X6774269Y-922590D02*
X6783793Y-913066D01*
X6783793Y-913066D02*
X6802840Y-903542D01*
X6802840Y-903542D02*
X6840936Y-903542D01*
X6840936Y-903542D02*
X6859983Y-913066D01*
X6936174Y-1113066D02*
X6945697Y-1103542D01*
X6945697Y-1103542D02*
X6964745Y-1074971D01*
X6964745Y-1074971D02*
X6974269Y-1055923D01*
X6974269Y-1055923D02*
X6983793Y-1027352D01*
X6983793Y-1027352D02*
X6993316Y-979733D01*
X6993316Y-979733D02*
X6993316Y-941637D01*
X6993316Y-941637D02*
X6983793Y-894018D01*
X6983793Y-894018D02*
X6974269Y-865447D01*
X6974269Y-865447D02*
X6964745Y-846399D01*
X6964745Y-846399D02*
X6945697Y-817828D01*
X6945697Y-817828D02*
X6936174Y-808304D01*
X-110318Y-1165392D02*
X-110318Y-1365392D01*
X-210318Y-1265392D02*
X-10318Y-1265392D01*
X231411Y-1156876D02*
X355221Y-1156876D01*
X355221Y-1156876D02*
X288554Y-1233066D01*
X288554Y-1233066D02*
X317126Y-1233066D01*
X317126Y-1233066D02*
X336173Y-1242590D01*
X336173Y-1242590D02*
X345697Y-1252114D01*
X345697Y-1252114D02*
X355221Y-1271161D01*
X355221Y-1271161D02*
X355221Y-1318780D01*
X355221Y-1318780D02*
X345697Y-1337828D01*
X345697Y-1337828D02*
X336173Y-1347352D01*
X336173Y-1347352D02*
X317126Y-1356876D01*
X317126Y-1356876D02*
X259983Y-1356876D01*
X259983Y-1356876D02*
X240935Y-1347352D01*
X240935Y-1347352D02*
X231411Y-1337828D01*
X440935Y-1337828D02*
X450459Y-1347352D01*
X450459Y-1347352D02*
X440935Y-1356876D01*
X440935Y-1356876D02*
X431411Y-1347352D01*
X431411Y-1347352D02*
X440935Y-1337828D01*
X440935Y-1337828D02*
X440935Y-1356876D01*
X574268Y-1156876D02*
X593316Y-1156876D01*
X593316Y-1156876D02*
X612364Y-1166399D01*
X612364Y-1166399D02*
X621887Y-1175923D01*
X621887Y-1175923D02*
X631411Y-1194971D01*
X631411Y-1194971D02*
X640935Y-1233066D01*
X640935Y-1233066D02*
X640935Y-1280685D01*
X640935Y-1280685D02*
X631411Y-1318780D01*
X631411Y-1318780D02*
X621887Y-1337828D01*
X621887Y-1337828D02*
X612364Y-1347352D01*
X612364Y-1347352D02*
X593316Y-1356876D01*
X593316Y-1356876D02*
X574268Y-1356876D01*
X574268Y-1356876D02*
X555221Y-1347352D01*
X555221Y-1347352D02*
X545697Y-1337828D01*
X545697Y-1337828D02*
X536173Y-1318780D01*
X536173Y-1318780D02*
X526649Y-1280685D01*
X526649Y-1280685D02*
X526649Y-1233066D01*
X526649Y-1233066D02*
X536173Y-1194971D01*
X536173Y-1194971D02*
X545697Y-1175923D01*
X545697Y-1175923D02*
X555221Y-1166399D01*
X555221Y-1166399D02*
X574268Y-1156876D01*
X812364Y-1223542D02*
X812364Y-1356876D01*
X764744Y-1147352D02*
X717125Y-1290209D01*
X717125Y-1290209D02*
X840935Y-1290209D01*
X945697Y-1242590D02*
X926649Y-1233066D01*
X926649Y-1233066D02*
X917125Y-1223542D01*
X917125Y-1223542D02*
X907602Y-1204495D01*
X907602Y-1204495D02*
X907602Y-1194971D01*
X907602Y-1194971D02*
X917125Y-1175923D01*
X917125Y-1175923D02*
X926649Y-1166399D01*
X926649Y-1166399D02*
X945697Y-1156876D01*
X945697Y-1156876D02*
X983792Y-1156876D01*
X983792Y-1156876D02*
X1002840Y-1166399D01*
X1002840Y-1166399D02*
X1012364Y-1175923D01*
X1012364Y-1175923D02*
X1021887Y-1194971D01*
X1021887Y-1194971D02*
X1021887Y-1204495D01*
X1021887Y-1204495D02*
X1012364Y-1223542D01*
X1012364Y-1223542D02*
X1002840Y-1233066D01*
X1002840Y-1233066D02*
X983792Y-1242590D01*
X983792Y-1242590D02*
X945697Y-1242590D01*
X945697Y-1242590D02*
X926649Y-1252114D01*
X926649Y-1252114D02*
X917125Y-1261638D01*
X917125Y-1261638D02*
X907602Y-1280685D01*
X907602Y-1280685D02*
X907602Y-1318780D01*
X907602Y-1318780D02*
X917125Y-1337828D01*
X917125Y-1337828D02*
X926649Y-1347352D01*
X926649Y-1347352D02*
X945697Y-1356876D01*
X945697Y-1356876D02*
X983792Y-1356876D01*
X983792Y-1356876D02*
X1002840Y-1347352D01*
X1002840Y-1347352D02*
X1012364Y-1337828D01*
X1012364Y-1337828D02*
X1021887Y-1318780D01*
X1021887Y-1318780D02*
X1021887Y-1280685D01*
X1021887Y-1280685D02*
X1012364Y-1261638D01*
X1012364Y-1261638D02*
X1002840Y-1252114D01*
X1002840Y-1252114D02*
X983792Y-1242590D01*
X1107602Y-1356876D02*
X1107602Y-1223542D01*
X1107602Y-1242590D02*
X1117126Y-1233066D01*
X1117126Y-1233066D02*
X1136173Y-1223542D01*
X1136173Y-1223542D02*
X1164745Y-1223542D01*
X1164745Y-1223542D02*
X1183792Y-1233066D01*
X1183792Y-1233066D02*
X1193316Y-1252114D01*
X1193316Y-1252114D02*
X1193316Y-1356876D01*
X1193316Y-1252114D02*
X1202840Y-1233066D01*
X1202840Y-1233066D02*
X1221887Y-1223542D01*
X1221887Y-1223542D02*
X1250459Y-1223542D01*
X1250459Y-1223542D02*
X1269507Y-1233066D01*
X1269507Y-1233066D02*
X1279030Y-1252114D01*
X1279030Y-1252114D02*
X1279030Y-1356876D01*
X1374268Y-1356876D02*
X1374268Y-1223542D01*
X1374268Y-1242590D02*
X1383792Y-1233066D01*
X1383792Y-1233066D02*
X1402840Y-1223542D01*
X1402840Y-1223542D02*
X1431411Y-1223542D01*
X1431411Y-1223542D02*
X1450459Y-1233066D01*
X1450459Y-1233066D02*
X1459983Y-1252114D01*
X1459983Y-1252114D02*
X1459983Y-1356876D01*
X1459983Y-1252114D02*
X1469506Y-1233066D01*
X1469506Y-1233066D02*
X1488554Y-1223542D01*
X1488554Y-1223542D02*
X1517125Y-1223542D01*
X1517125Y-1223542D02*
X1536173Y-1233066D01*
X1536173Y-1233066D02*
X1545697Y-1252114D01*
X1545697Y-1252114D02*
X1545697Y-1356876D01*
X1936173Y-1147352D02*
X1764745Y-1404495D01*
X2193316Y-1156876D02*
X2212364Y-1156876D01*
X2212364Y-1156876D02*
X2231411Y-1166399D01*
X2231411Y-1166399D02*
X2240935Y-1175923D01*
X2240935Y-1175923D02*
X2250459Y-1194971D01*
X2250459Y-1194971D02*
X2259983Y-1233066D01*
X2259983Y-1233066D02*
X2259983Y-1280685D01*
X2259983Y-1280685D02*
X2250459Y-1318780D01*
X2250459Y-1318780D02*
X2240935Y-1337828D01*
X2240935Y-1337828D02*
X2231411Y-1347352D01*
X2231411Y-1347352D02*
X2212364Y-1356876D01*
X2212364Y-1356876D02*
X2193316Y-1356876D01*
X2193316Y-1356876D02*
X2174269Y-1347352D01*
X2174269Y-1347352D02*
X2164745Y-1337828D01*
X2164745Y-1337828D02*
X2155221Y-1318780D01*
X2155221Y-1318780D02*
X2145697Y-1280685D01*
X2145697Y-1280685D02*
X2145697Y-1233066D01*
X2145697Y-1233066D02*
X2155221Y-1194971D01*
X2155221Y-1194971D02*
X2164745Y-1175923D01*
X2164745Y-1175923D02*
X2174269Y-1166399D01*
X2174269Y-1166399D02*
X2193316Y-1156876D01*
X2345697Y-1337828D02*
X2355221Y-1347352D01*
X2355221Y-1347352D02*
X2345697Y-1356876D01*
X2345697Y-1356876D02*
X2336173Y-1347352D01*
X2336173Y-1347352D02*
X2345697Y-1337828D01*
X2345697Y-1337828D02*
X2345697Y-1356876D01*
X2545697Y-1356876D02*
X2431411Y-1356876D01*
X2488554Y-1356876D02*
X2488554Y-1156876D01*
X2488554Y-1156876D02*
X2469507Y-1185447D01*
X2469507Y-1185447D02*
X2450459Y-1204495D01*
X2450459Y-1204495D02*
X2431411Y-1214018D01*
X2621888Y-1175923D02*
X2631411Y-1166399D01*
X2631411Y-1166399D02*
X2650459Y-1156876D01*
X2650459Y-1156876D02*
X2698078Y-1156876D01*
X2698078Y-1156876D02*
X2717126Y-1166399D01*
X2717126Y-1166399D02*
X2726650Y-1175923D01*
X2726650Y-1175923D02*
X2736173Y-1194971D01*
X2736173Y-1194971D02*
X2736173Y-1214018D01*
X2736173Y-1214018D02*
X2726650Y-1242590D01*
X2726650Y-1242590D02*
X2612364Y-1356876D01*
X2612364Y-1356876D02*
X2736173Y-1356876D01*
X2859983Y-1156876D02*
X2879030Y-1156876D01*
X2879030Y-1156876D02*
X2898078Y-1166399D01*
X2898078Y-1166399D02*
X2907602Y-1175923D01*
X2907602Y-1175923D02*
X2917126Y-1194971D01*
X2917126Y-1194971D02*
X2926649Y-1233066D01*
X2926649Y-1233066D02*
X2926649Y-1280685D01*
X2926649Y-1280685D02*
X2917126Y-1318780D01*
X2917126Y-1318780D02*
X2907602Y-1337828D01*
X2907602Y-1337828D02*
X2898078Y-1347352D01*
X2898078Y-1347352D02*
X2879030Y-1356876D01*
X2879030Y-1356876D02*
X2859983Y-1356876D01*
X2859983Y-1356876D02*
X2840935Y-1347352D01*
X2840935Y-1347352D02*
X2831411Y-1337828D01*
X2831411Y-1337828D02*
X2821888Y-1318780D01*
X2821888Y-1318780D02*
X2812364Y-1280685D01*
X2812364Y-1280685D02*
X2812364Y-1233066D01*
X2812364Y-1233066D02*
X2821888Y-1194971D01*
X2821888Y-1194971D02*
X2831411Y-1175923D01*
X2831411Y-1175923D02*
X2840935Y-1166399D01*
X2840935Y-1166399D02*
X2859983Y-1156876D01*
X3050459Y-1156876D02*
X3069507Y-1156876D01*
X3069507Y-1156876D02*
X3088554Y-1166399D01*
X3088554Y-1166399D02*
X3098078Y-1175923D01*
X3098078Y-1175923D02*
X3107602Y-1194971D01*
X3107602Y-1194971D02*
X3117126Y-1233066D01*
X3117126Y-1233066D02*
X3117126Y-1280685D01*
X3117126Y-1280685D02*
X3107602Y-1318780D01*
X3107602Y-1318780D02*
X3098078Y-1337828D01*
X3098078Y-1337828D02*
X3088554Y-1347352D01*
X3088554Y-1347352D02*
X3069507Y-1356876D01*
X3069507Y-1356876D02*
X3050459Y-1356876D01*
X3050459Y-1356876D02*
X3031411Y-1347352D01*
X3031411Y-1347352D02*
X3021888Y-1337828D01*
X3021888Y-1337828D02*
X3012364Y-1318780D01*
X3012364Y-1318780D02*
X3002840Y-1280685D01*
X3002840Y-1280685D02*
X3002840Y-1233066D01*
X3002840Y-1233066D02*
X3012364Y-1194971D01*
X3012364Y-1194971D02*
X3021888Y-1175923D01*
X3021888Y-1175923D02*
X3031411Y-1166399D01*
X3031411Y-1166399D02*
X3050459Y-1156876D01*
X3193316Y-1156876D02*
X3193316Y-1194971D01*
X3269507Y-1156876D02*
X3269507Y-1194971D01*
X3564745Y-1433066D02*
X3555221Y-1423542D01*
X3555221Y-1423542D02*
X3536173Y-1394971D01*
X3536173Y-1394971D02*
X3526650Y-1375923D01*
X3526650Y-1375923D02*
X3517126Y-1347352D01*
X3517126Y-1347352D02*
X3507602Y-1299733D01*
X3507602Y-1299733D02*
X3507602Y-1261638D01*
X3507602Y-1261638D02*
X3517126Y-1214018D01*
X3517126Y-1214018D02*
X3526650Y-1185447D01*
X3526650Y-1185447D02*
X3536173Y-1166399D01*
X3536173Y-1166399D02*
X3555221Y-1137828D01*
X3555221Y-1137828D02*
X3564745Y-1128304D01*
X3726650Y-1156876D02*
X3688554Y-1156876D01*
X3688554Y-1156876D02*
X3669507Y-1166399D01*
X3669507Y-1166399D02*
X3659983Y-1175923D01*
X3659983Y-1175923D02*
X3640935Y-1204495D01*
X3640935Y-1204495D02*
X3631411Y-1242590D01*
X3631411Y-1242590D02*
X3631411Y-1318780D01*
X3631411Y-1318780D02*
X3640935Y-1337828D01*
X3640935Y-1337828D02*
X3650459Y-1347352D01*
X3650459Y-1347352D02*
X3669507Y-1356876D01*
X3669507Y-1356876D02*
X3707602Y-1356876D01*
X3707602Y-1356876D02*
X3726650Y-1347352D01*
X3726650Y-1347352D02*
X3736173Y-1337828D01*
X3736173Y-1337828D02*
X3745697Y-1318780D01*
X3745697Y-1318780D02*
X3745697Y-1271161D01*
X3745697Y-1271161D02*
X3736173Y-1252114D01*
X3736173Y-1252114D02*
X3726650Y-1242590D01*
X3726650Y-1242590D02*
X3707602Y-1233066D01*
X3707602Y-1233066D02*
X3669507Y-1233066D01*
X3669507Y-1233066D02*
X3650459Y-1242590D01*
X3650459Y-1242590D02*
X3640935Y-1252114D01*
X3640935Y-1252114D02*
X3631411Y-1271161D01*
X3983792Y-1356876D02*
X3983792Y-1156876D01*
X4069507Y-1356876D02*
X4069507Y-1252114D01*
X4069507Y-1252114D02*
X4059983Y-1233066D01*
X4059983Y-1233066D02*
X4040935Y-1223542D01*
X4040935Y-1223542D02*
X4012364Y-1223542D01*
X4012364Y-1223542D02*
X3993316Y-1233066D01*
X3993316Y-1233066D02*
X3983792Y-1242590D01*
X4193316Y-1356876D02*
X4174269Y-1347352D01*
X4174269Y-1347352D02*
X4164745Y-1337828D01*
X4164745Y-1337828D02*
X4155221Y-1318780D01*
X4155221Y-1318780D02*
X4155221Y-1261638D01*
X4155221Y-1261638D02*
X4164745Y-1242590D01*
X4164745Y-1242590D02*
X4174269Y-1233066D01*
X4174269Y-1233066D02*
X4193316Y-1223542D01*
X4193316Y-1223542D02*
X4221888Y-1223542D01*
X4221888Y-1223542D02*
X4240935Y-1233066D01*
X4240935Y-1233066D02*
X4250459Y-1242590D01*
X4250459Y-1242590D02*
X4259983Y-1261638D01*
X4259983Y-1261638D02*
X4259983Y-1318780D01*
X4259983Y-1318780D02*
X4250459Y-1337828D01*
X4250459Y-1337828D02*
X4240935Y-1347352D01*
X4240935Y-1347352D02*
X4221888Y-1356876D01*
X4221888Y-1356876D02*
X4193316Y-1356876D01*
X4374269Y-1356876D02*
X4355221Y-1347352D01*
X4355221Y-1347352D02*
X4345697Y-1328304D01*
X4345697Y-1328304D02*
X4345697Y-1156876D01*
X4526650Y-1347352D02*
X4507602Y-1356876D01*
X4507602Y-1356876D02*
X4469507Y-1356876D01*
X4469507Y-1356876D02*
X4450459Y-1347352D01*
X4450459Y-1347352D02*
X4440935Y-1328304D01*
X4440935Y-1328304D02*
X4440935Y-1252114D01*
X4440935Y-1252114D02*
X4450459Y-1233066D01*
X4450459Y-1233066D02*
X4469507Y-1223542D01*
X4469507Y-1223542D02*
X4507602Y-1223542D01*
X4507602Y-1223542D02*
X4526650Y-1233066D01*
X4526650Y-1233066D02*
X4536174Y-1252114D01*
X4536174Y-1252114D02*
X4536174Y-1271161D01*
X4536174Y-1271161D02*
X4440935Y-1290209D01*
X4612364Y-1347352D02*
X4631412Y-1356876D01*
X4631412Y-1356876D02*
X4669507Y-1356876D01*
X4669507Y-1356876D02*
X4688555Y-1347352D01*
X4688555Y-1347352D02*
X4698078Y-1328304D01*
X4698078Y-1328304D02*
X4698078Y-1318780D01*
X4698078Y-1318780D02*
X4688555Y-1299733D01*
X4688555Y-1299733D02*
X4669507Y-1290209D01*
X4669507Y-1290209D02*
X4640935Y-1290209D01*
X4640935Y-1290209D02*
X4621888Y-1280685D01*
X4621888Y-1280685D02*
X4612364Y-1261638D01*
X4612364Y-1261638D02*
X4612364Y-1252114D01*
X4612364Y-1252114D02*
X4621888Y-1233066D01*
X4621888Y-1233066D02*
X4640935Y-1223542D01*
X4640935Y-1223542D02*
X4669507Y-1223542D01*
X4669507Y-1223542D02*
X4688555Y-1233066D01*
X4764745Y-1433066D02*
X4774269Y-1423542D01*
X4774269Y-1423542D02*
X4793316Y-1394971D01*
X4793316Y-1394971D02*
X4802840Y-1375923D01*
X4802840Y-1375923D02*
X4812364Y-1347352D01*
X4812364Y-1347352D02*
X4821888Y-1299733D01*
X4821888Y-1299733D02*
X4821888Y-1261638D01*
X4821888Y-1261638D02*
X4812364Y-1214018D01*
X4812364Y-1214018D02*
X4802840Y-1185447D01*
X4802840Y-1185447D02*
X4793316Y-1166399D01*
X4793316Y-1166399D02*
X4774269Y-1137828D01*
X4774269Y-1137828D02*
X4764745Y-1128304D01*
X5126650Y-1433066D02*
X5117126Y-1423542D01*
X5117126Y-1423542D02*
X5098078Y-1394971D01*
X5098078Y-1394971D02*
X5088555Y-1375923D01*
X5088555Y-1375923D02*
X5079031Y-1347352D01*
X5079031Y-1347352D02*
X5069507Y-1299733D01*
X5069507Y-1299733D02*
X5069507Y-1261638D01*
X5069507Y-1261638D02*
X5079031Y-1214018D01*
X5079031Y-1214018D02*
X5088555Y-1185447D01*
X5088555Y-1185447D02*
X5098078Y-1166399D01*
X5098078Y-1166399D02*
X5117126Y-1137828D01*
X5117126Y-1137828D02*
X5126650Y-1128304D01*
X5202840Y-1223542D02*
X5202840Y-1356876D01*
X5202840Y-1242590D02*
X5212364Y-1233066D01*
X5212364Y-1233066D02*
X5231412Y-1223542D01*
X5231412Y-1223542D02*
X5259983Y-1223542D01*
X5259983Y-1223542D02*
X5279031Y-1233066D01*
X5279031Y-1233066D02*
X5288555Y-1252114D01*
X5288555Y-1252114D02*
X5288555Y-1356876D01*
X5412364Y-1356876D02*
X5393316Y-1347352D01*
X5393316Y-1347352D02*
X5383793Y-1337828D01*
X5383793Y-1337828D02*
X5374269Y-1318780D01*
X5374269Y-1318780D02*
X5374269Y-1261638D01*
X5374269Y-1261638D02*
X5383793Y-1242590D01*
X5383793Y-1242590D02*
X5393316Y-1233066D01*
X5393316Y-1233066D02*
X5412364Y-1223542D01*
X5412364Y-1223542D02*
X5440936Y-1223542D01*
X5440936Y-1223542D02*
X5459983Y-1233066D01*
X5459983Y-1233066D02*
X5469507Y-1242590D01*
X5469507Y-1242590D02*
X5479031Y-1261638D01*
X5479031Y-1261638D02*
X5479031Y-1318780D01*
X5479031Y-1318780D02*
X5469507Y-1337828D01*
X5469507Y-1337828D02*
X5459983Y-1347352D01*
X5459983Y-1347352D02*
X5440936Y-1356876D01*
X5440936Y-1356876D02*
X5412364Y-1356876D01*
X5536174Y-1223542D02*
X5612364Y-1223542D01*
X5564745Y-1156876D02*
X5564745Y-1328304D01*
X5564745Y-1328304D02*
X5574269Y-1347352D01*
X5574269Y-1347352D02*
X5593316Y-1356876D01*
X5593316Y-1356876D02*
X5612364Y-1356876D01*
X5831412Y-1223542D02*
X5831412Y-1423542D01*
X5831412Y-1233066D02*
X5850459Y-1223542D01*
X5850459Y-1223542D02*
X5888555Y-1223542D01*
X5888555Y-1223542D02*
X5907602Y-1233066D01*
X5907602Y-1233066D02*
X5917126Y-1242590D01*
X5917126Y-1242590D02*
X5926650Y-1261638D01*
X5926650Y-1261638D02*
X5926650Y-1318780D01*
X5926650Y-1318780D02*
X5917126Y-1337828D01*
X5917126Y-1337828D02*
X5907602Y-1347352D01*
X5907602Y-1347352D02*
X5888555Y-1356876D01*
X5888555Y-1356876D02*
X5850459Y-1356876D01*
X5850459Y-1356876D02*
X5831412Y-1347352D01*
X6040935Y-1356876D02*
X6021888Y-1347352D01*
X6021888Y-1347352D02*
X6012364Y-1328304D01*
X6012364Y-1328304D02*
X6012364Y-1156876D01*
X6202840Y-1356876D02*
X6202840Y-1252114D01*
X6202840Y-1252114D02*
X6193316Y-1233066D01*
X6193316Y-1233066D02*
X6174269Y-1223542D01*
X6174269Y-1223542D02*
X6136174Y-1223542D01*
X6136174Y-1223542D02*
X6117126Y-1233066D01*
X6202840Y-1347352D02*
X6183793Y-1356876D01*
X6183793Y-1356876D02*
X6136174Y-1356876D01*
X6136174Y-1356876D02*
X6117126Y-1347352D01*
X6117126Y-1347352D02*
X6107602Y-1328304D01*
X6107602Y-1328304D02*
X6107602Y-1309257D01*
X6107602Y-1309257D02*
X6117126Y-1290209D01*
X6117126Y-1290209D02*
X6136174Y-1280685D01*
X6136174Y-1280685D02*
X6183793Y-1280685D01*
X6183793Y-1280685D02*
X6202840Y-1271161D01*
X6269507Y-1223542D02*
X6345697Y-1223542D01*
X6298078Y-1156876D02*
X6298078Y-1328304D01*
X6298078Y-1328304D02*
X6307602Y-1347352D01*
X6307602Y-1347352D02*
X6326650Y-1356876D01*
X6326650Y-1356876D02*
X6345697Y-1356876D01*
X6488555Y-1347352D02*
X6469507Y-1356876D01*
X6469507Y-1356876D02*
X6431412Y-1356876D01*
X6431412Y-1356876D02*
X6412364Y-1347352D01*
X6412364Y-1347352D02*
X6402840Y-1328304D01*
X6402840Y-1328304D02*
X6402840Y-1252114D01*
X6402840Y-1252114D02*
X6412364Y-1233066D01*
X6412364Y-1233066D02*
X6431412Y-1223542D01*
X6431412Y-1223542D02*
X6469507Y-1223542D01*
X6469507Y-1223542D02*
X6488555Y-1233066D01*
X6488555Y-1233066D02*
X6498078Y-1252114D01*
X6498078Y-1252114D02*
X6498078Y-1271161D01*
X6498078Y-1271161D02*
X6402840Y-1290209D01*
X6669507Y-1356876D02*
X6669507Y-1156876D01*
X6669507Y-1347352D02*
X6650459Y-1356876D01*
X6650459Y-1356876D02*
X6612364Y-1356876D01*
X6612364Y-1356876D02*
X6593316Y-1347352D01*
X6593316Y-1347352D02*
X6583793Y-1337828D01*
X6583793Y-1337828D02*
X6574269Y-1318780D01*
X6574269Y-1318780D02*
X6574269Y-1261638D01*
X6574269Y-1261638D02*
X6583793Y-1242590D01*
X6583793Y-1242590D02*
X6593316Y-1233066D01*
X6593316Y-1233066D02*
X6612364Y-1223542D01*
X6612364Y-1223542D02*
X6650459Y-1223542D01*
X6650459Y-1223542D02*
X6669507Y-1233066D01*
X6745697Y-1433066D02*
X6755221Y-1423542D01*
X6755221Y-1423542D02*
X6774269Y-1394971D01*
X6774269Y-1394971D02*
X6783793Y-1375923D01*
X6783793Y-1375923D02*
X6793316Y-1347352D01*
X6793316Y-1347352D02*
X6802840Y-1299733D01*
X6802840Y-1299733D02*
X6802840Y-1261638D01*
X6802840Y-1261638D02*
X6793316Y-1214018D01*
X6793316Y-1214018D02*
X6783793Y-1185447D01*
X6783793Y-1185447D02*
X6774269Y-1166399D01*
X6774269Y-1166399D02*
X6755221Y-1137828D01*
X6755221Y-1137828D02*
X6745697Y-1128304D01*
X-39607Y-1656103D02*
X-39607Y-1514680D01*
X-181029Y-1514680D01*
X-181029Y-1656103D01*
X-39607Y-1656103D01*
X231411Y-1476876D02*
X355221Y-1476876D01*
X355221Y-1476876D02*
X288554Y-1553066D01*
X288554Y-1553066D02*
X317126Y-1553066D01*
X317126Y-1553066D02*
X336173Y-1562590D01*
X336173Y-1562590D02*
X345697Y-1572114D01*
X345697Y-1572114D02*
X355221Y-1591161D01*
X355221Y-1591161D02*
X355221Y-1638780D01*
X355221Y-1638780D02*
X345697Y-1657828D01*
X345697Y-1657828D02*
X336173Y-1667352D01*
X336173Y-1667352D02*
X317126Y-1676876D01*
X317126Y-1676876D02*
X259983Y-1676876D01*
X259983Y-1676876D02*
X240935Y-1667352D01*
X240935Y-1667352D02*
X231411Y-1657828D01*
X440935Y-1657828D02*
X450459Y-1667352D01*
X450459Y-1667352D02*
X440935Y-1676876D01*
X440935Y-1676876D02*
X431411Y-1667352D01*
X431411Y-1667352D02*
X440935Y-1657828D01*
X440935Y-1657828D02*
X440935Y-1676876D01*
X545697Y-1676876D02*
X583792Y-1676876D01*
X583792Y-1676876D02*
X602840Y-1667352D01*
X602840Y-1667352D02*
X612364Y-1657828D01*
X612364Y-1657828D02*
X631411Y-1629256D01*
X631411Y-1629256D02*
X640935Y-1591161D01*
X640935Y-1591161D02*
X640935Y-1514971D01*
X640935Y-1514971D02*
X631411Y-1495923D01*
X631411Y-1495923D02*
X621887Y-1486399D01*
X621887Y-1486399D02*
X602840Y-1476876D01*
X602840Y-1476876D02*
X564745Y-1476876D01*
X564745Y-1476876D02*
X545697Y-1486399D01*
X545697Y-1486399D02*
X536173Y-1495923D01*
X536173Y-1495923D02*
X526649Y-1514971D01*
X526649Y-1514971D02*
X526649Y-1562590D01*
X526649Y-1562590D02*
X536173Y-1581637D01*
X536173Y-1581637D02*
X545697Y-1591161D01*
X545697Y-1591161D02*
X564745Y-1600685D01*
X564745Y-1600685D02*
X602840Y-1600685D01*
X602840Y-1600685D02*
X621887Y-1591161D01*
X621887Y-1591161D02*
X631411Y-1581637D01*
X631411Y-1581637D02*
X640935Y-1562590D01*
X755221Y-1562590D02*
X736173Y-1553066D01*
X736173Y-1553066D02*
X726649Y-1543542D01*
X726649Y-1543542D02*
X717125Y-1524495D01*
X717125Y-1524495D02*
X717125Y-1514971D01*
X717125Y-1514971D02*
X726649Y-1495923D01*
X726649Y-1495923D02*
X736173Y-1486399D01*
X736173Y-1486399D02*
X755221Y-1476876D01*
X755221Y-1476876D02*
X793316Y-1476876D01*
X793316Y-1476876D02*
X812364Y-1486399D01*
X812364Y-1486399D02*
X821887Y-1495923D01*
X821887Y-1495923D02*
X831411Y-1514971D01*
X831411Y-1514971D02*
X831411Y-1524495D01*
X831411Y-1524495D02*
X821887Y-1543542D01*
X821887Y-1543542D02*
X812364Y-1553066D01*
X812364Y-1553066D02*
X793316Y-1562590D01*
X793316Y-1562590D02*
X755221Y-1562590D01*
X755221Y-1562590D02*
X736173Y-1572114D01*
X736173Y-1572114D02*
X726649Y-1581637D01*
X726649Y-1581637D02*
X717125Y-1600685D01*
X717125Y-1600685D02*
X717125Y-1638780D01*
X717125Y-1638780D02*
X726649Y-1657828D01*
X726649Y-1657828D02*
X736173Y-1667352D01*
X736173Y-1667352D02*
X755221Y-1676876D01*
X755221Y-1676876D02*
X793316Y-1676876D01*
X793316Y-1676876D02*
X812364Y-1667352D01*
X812364Y-1667352D02*
X821887Y-1657828D01*
X821887Y-1657828D02*
X831411Y-1638780D01*
X831411Y-1638780D02*
X831411Y-1600685D01*
X831411Y-1600685D02*
X821887Y-1581637D01*
X821887Y-1581637D02*
X812364Y-1572114D01*
X812364Y-1572114D02*
X793316Y-1562590D01*
X945697Y-1562590D02*
X926649Y-1553066D01*
X926649Y-1553066D02*
X917125Y-1543542D01*
X917125Y-1543542D02*
X907602Y-1524495D01*
X907602Y-1524495D02*
X907602Y-1514971D01*
X907602Y-1514971D02*
X917125Y-1495923D01*
X917125Y-1495923D02*
X926649Y-1486399D01*
X926649Y-1486399D02*
X945697Y-1476876D01*
X945697Y-1476876D02*
X983792Y-1476876D01*
X983792Y-1476876D02*
X1002840Y-1486399D01*
X1002840Y-1486399D02*
X1012364Y-1495923D01*
X1012364Y-1495923D02*
X1021887Y-1514971D01*
X1021887Y-1514971D02*
X1021887Y-1524495D01*
X1021887Y-1524495D02*
X1012364Y-1543542D01*
X1012364Y-1543542D02*
X1002840Y-1553066D01*
X1002840Y-1553066D02*
X983792Y-1562590D01*
X983792Y-1562590D02*
X945697Y-1562590D01*
X945697Y-1562590D02*
X926649Y-1572114D01*
X926649Y-1572114D02*
X917125Y-1581637D01*
X917125Y-1581637D02*
X907602Y-1600685D01*
X907602Y-1600685D02*
X907602Y-1638780D01*
X907602Y-1638780D02*
X917125Y-1657828D01*
X917125Y-1657828D02*
X926649Y-1667352D01*
X926649Y-1667352D02*
X945697Y-1676876D01*
X945697Y-1676876D02*
X983792Y-1676876D01*
X983792Y-1676876D02*
X1002840Y-1667352D01*
X1002840Y-1667352D02*
X1012364Y-1657828D01*
X1012364Y-1657828D02*
X1021887Y-1638780D01*
X1021887Y-1638780D02*
X1021887Y-1600685D01*
X1021887Y-1600685D02*
X1012364Y-1581637D01*
X1012364Y-1581637D02*
X1002840Y-1572114D01*
X1002840Y-1572114D02*
X983792Y-1562590D01*
X1107602Y-1676876D02*
X1107602Y-1543542D01*
X1107602Y-1562590D02*
X1117126Y-1553066D01*
X1117126Y-1553066D02*
X1136173Y-1543542D01*
X1136173Y-1543542D02*
X1164745Y-1543542D01*
X1164745Y-1543542D02*
X1183792Y-1553066D01*
X1183792Y-1553066D02*
X1193316Y-1572114D01*
X1193316Y-1572114D02*
X1193316Y-1676876D01*
X1193316Y-1572114D02*
X1202840Y-1553066D01*
X1202840Y-1553066D02*
X1221887Y-1543542D01*
X1221887Y-1543542D02*
X1250459Y-1543542D01*
X1250459Y-1543542D02*
X1269507Y-1553066D01*
X1269507Y-1553066D02*
X1279030Y-1572114D01*
X1279030Y-1572114D02*
X1279030Y-1676876D01*
X1374268Y-1676876D02*
X1374268Y-1543542D01*
X1374268Y-1562590D02*
X1383792Y-1553066D01*
X1383792Y-1553066D02*
X1402840Y-1543542D01*
X1402840Y-1543542D02*
X1431411Y-1543542D01*
X1431411Y-1543542D02*
X1450459Y-1553066D01*
X1450459Y-1553066D02*
X1459983Y-1572114D01*
X1459983Y-1572114D02*
X1459983Y-1676876D01*
X1459983Y-1572114D02*
X1469506Y-1553066D01*
X1469506Y-1553066D02*
X1488554Y-1543542D01*
X1488554Y-1543542D02*
X1517125Y-1543542D01*
X1517125Y-1543542D02*
X1536173Y-1553066D01*
X1536173Y-1553066D02*
X1545697Y-1572114D01*
X1545697Y-1572114D02*
X1545697Y-1676876D01*
X1936173Y-1467352D02*
X1764745Y-1724495D01*
X2193316Y-1476876D02*
X2212364Y-1476876D01*
X2212364Y-1476876D02*
X2231411Y-1486399D01*
X2231411Y-1486399D02*
X2240935Y-1495923D01*
X2240935Y-1495923D02*
X2250459Y-1514971D01*
X2250459Y-1514971D02*
X2259983Y-1553066D01*
X2259983Y-1553066D02*
X2259983Y-1600685D01*
X2259983Y-1600685D02*
X2250459Y-1638780D01*
X2250459Y-1638780D02*
X2240935Y-1657828D01*
X2240935Y-1657828D02*
X2231411Y-1667352D01*
X2231411Y-1667352D02*
X2212364Y-1676876D01*
X2212364Y-1676876D02*
X2193316Y-1676876D01*
X2193316Y-1676876D02*
X2174269Y-1667352D01*
X2174269Y-1667352D02*
X2164745Y-1657828D01*
X2164745Y-1657828D02*
X2155221Y-1638780D01*
X2155221Y-1638780D02*
X2145697Y-1600685D01*
X2145697Y-1600685D02*
X2145697Y-1553066D01*
X2145697Y-1553066D02*
X2155221Y-1514971D01*
X2155221Y-1514971D02*
X2164745Y-1495923D01*
X2164745Y-1495923D02*
X2174269Y-1486399D01*
X2174269Y-1486399D02*
X2193316Y-1476876D01*
X2345697Y-1657828D02*
X2355221Y-1667352D01*
X2355221Y-1667352D02*
X2345697Y-1676876D01*
X2345697Y-1676876D02*
X2336173Y-1667352D01*
X2336173Y-1667352D02*
X2345697Y-1657828D01*
X2345697Y-1657828D02*
X2345697Y-1676876D01*
X2545697Y-1676876D02*
X2431411Y-1676876D01*
X2488554Y-1676876D02*
X2488554Y-1476876D01*
X2488554Y-1476876D02*
X2469507Y-1505447D01*
X2469507Y-1505447D02*
X2450459Y-1524495D01*
X2450459Y-1524495D02*
X2431411Y-1534018D01*
X2726650Y-1476876D02*
X2631411Y-1476876D01*
X2631411Y-1476876D02*
X2621888Y-1572114D01*
X2621888Y-1572114D02*
X2631411Y-1562590D01*
X2631411Y-1562590D02*
X2650459Y-1553066D01*
X2650459Y-1553066D02*
X2698078Y-1553066D01*
X2698078Y-1553066D02*
X2717126Y-1562590D01*
X2717126Y-1562590D02*
X2726650Y-1572114D01*
X2726650Y-1572114D02*
X2736173Y-1591161D01*
X2736173Y-1591161D02*
X2736173Y-1638780D01*
X2736173Y-1638780D02*
X2726650Y-1657828D01*
X2726650Y-1657828D02*
X2717126Y-1667352D01*
X2717126Y-1667352D02*
X2698078Y-1676876D01*
X2698078Y-1676876D02*
X2650459Y-1676876D01*
X2650459Y-1676876D02*
X2631411Y-1667352D01*
X2631411Y-1667352D02*
X2621888Y-1657828D01*
X2802840Y-1476876D02*
X2936173Y-1476876D01*
X2936173Y-1476876D02*
X2850459Y-1676876D01*
X3050459Y-1476876D02*
X3069507Y-1476876D01*
X3069507Y-1476876D02*
X3088554Y-1486399D01*
X3088554Y-1486399D02*
X3098078Y-1495923D01*
X3098078Y-1495923D02*
X3107602Y-1514971D01*
X3107602Y-1514971D02*
X3117126Y-1553066D01*
X3117126Y-1553066D02*
X3117126Y-1600685D01*
X3117126Y-1600685D02*
X3107602Y-1638780D01*
X3107602Y-1638780D02*
X3098078Y-1657828D01*
X3098078Y-1657828D02*
X3088554Y-1667352D01*
X3088554Y-1667352D02*
X3069507Y-1676876D01*
X3069507Y-1676876D02*
X3050459Y-1676876D01*
X3050459Y-1676876D02*
X3031411Y-1667352D01*
X3031411Y-1667352D02*
X3021888Y-1657828D01*
X3021888Y-1657828D02*
X3012364Y-1638780D01*
X3012364Y-1638780D02*
X3002840Y-1600685D01*
X3002840Y-1600685D02*
X3002840Y-1553066D01*
X3002840Y-1553066D02*
X3012364Y-1514971D01*
X3012364Y-1514971D02*
X3021888Y-1495923D01*
X3021888Y-1495923D02*
X3031411Y-1486399D01*
X3031411Y-1486399D02*
X3050459Y-1476876D01*
X3193316Y-1476876D02*
X3193316Y-1514971D01*
X3269507Y-1476876D02*
X3269507Y-1514971D01*
X3564745Y-1753066D02*
X3555221Y-1743542D01*
X3555221Y-1743542D02*
X3536173Y-1714971D01*
X3536173Y-1714971D02*
X3526650Y-1695923D01*
X3526650Y-1695923D02*
X3517126Y-1667352D01*
X3517126Y-1667352D02*
X3507602Y-1619733D01*
X3507602Y-1619733D02*
X3507602Y-1581637D01*
X3507602Y-1581637D02*
X3517126Y-1534018D01*
X3517126Y-1534018D02*
X3526650Y-1505447D01*
X3526650Y-1505447D02*
X3536173Y-1486399D01*
X3536173Y-1486399D02*
X3555221Y-1457828D01*
X3555221Y-1457828D02*
X3564745Y-1448304D01*
X3726650Y-1543542D02*
X3726650Y-1676876D01*
X3679030Y-1467352D02*
X3631411Y-1610209D01*
X3631411Y-1610209D02*
X3755221Y-1610209D01*
X3926650Y-1476876D02*
X3831411Y-1476876D01*
X3831411Y-1476876D02*
X3821888Y-1572114D01*
X3821888Y-1572114D02*
X3831411Y-1562590D01*
X3831411Y-1562590D02*
X3850459Y-1553066D01*
X3850459Y-1553066D02*
X3898078Y-1553066D01*
X3898078Y-1553066D02*
X3917126Y-1562590D01*
X3917126Y-1562590D02*
X3926650Y-1572114D01*
X3926650Y-1572114D02*
X3936173Y-1591161D01*
X3936173Y-1591161D02*
X3936173Y-1638780D01*
X3936173Y-1638780D02*
X3926650Y-1657828D01*
X3926650Y-1657828D02*
X3917126Y-1667352D01*
X3917126Y-1667352D02*
X3898078Y-1676876D01*
X3898078Y-1676876D02*
X3850459Y-1676876D01*
X3850459Y-1676876D02*
X3831411Y-1667352D01*
X3831411Y-1667352D02*
X3821888Y-1657828D01*
X4174269Y-1676876D02*
X4174269Y-1476876D01*
X4259983Y-1676876D02*
X4259983Y-1572114D01*
X4259983Y-1572114D02*
X4250459Y-1553066D01*
X4250459Y-1553066D02*
X4231412Y-1543542D01*
X4231412Y-1543542D02*
X4202840Y-1543542D01*
X4202840Y-1543542D02*
X4183792Y-1553066D01*
X4183792Y-1553066D02*
X4174269Y-1562590D01*
X4383793Y-1676876D02*
X4364745Y-1667352D01*
X4364745Y-1667352D02*
X4355221Y-1657828D01*
X4355221Y-1657828D02*
X4345697Y-1638780D01*
X4345697Y-1638780D02*
X4345697Y-1581637D01*
X4345697Y-1581637D02*
X4355221Y-1562590D01*
X4355221Y-1562590D02*
X4364745Y-1553066D01*
X4364745Y-1553066D02*
X4383793Y-1543542D01*
X4383793Y-1543542D02*
X4412364Y-1543542D01*
X4412364Y-1543542D02*
X4431412Y-1553066D01*
X4431412Y-1553066D02*
X4440935Y-1562590D01*
X4440935Y-1562590D02*
X4450459Y-1581637D01*
X4450459Y-1581637D02*
X4450459Y-1638780D01*
X4450459Y-1638780D02*
X4440935Y-1657828D01*
X4440935Y-1657828D02*
X4431412Y-1667352D01*
X4431412Y-1667352D02*
X4412364Y-1676876D01*
X4412364Y-1676876D02*
X4383793Y-1676876D01*
X4564745Y-1676876D02*
X4545697Y-1667352D01*
X4545697Y-1667352D02*
X4536174Y-1648304D01*
X4536174Y-1648304D02*
X4536174Y-1476876D01*
X4717126Y-1667352D02*
X4698078Y-1676876D01*
X4698078Y-1676876D02*
X4659983Y-1676876D01*
X4659983Y-1676876D02*
X4640935Y-1667352D01*
X4640935Y-1667352D02*
X4631412Y-1648304D01*
X4631412Y-1648304D02*
X4631412Y-1572114D01*
X4631412Y-1572114D02*
X4640935Y-1553066D01*
X4640935Y-1553066D02*
X4659983Y-1543542D01*
X4659983Y-1543542D02*
X4698078Y-1543542D01*
X4698078Y-1543542D02*
X4717126Y-1553066D01*
X4717126Y-1553066D02*
X4726650Y-1572114D01*
X4726650Y-1572114D02*
X4726650Y-1591161D01*
X4726650Y-1591161D02*
X4631412Y-1610209D01*
X4802840Y-1667352D02*
X4821888Y-1676876D01*
X4821888Y-1676876D02*
X4859983Y-1676876D01*
X4859983Y-1676876D02*
X4879031Y-1667352D01*
X4879031Y-1667352D02*
X4888555Y-1648304D01*
X4888555Y-1648304D02*
X4888555Y-1638780D01*
X4888555Y-1638780D02*
X4879031Y-1619733D01*
X4879031Y-1619733D02*
X4859983Y-1610209D01*
X4859983Y-1610209D02*
X4831412Y-1610209D01*
X4831412Y-1610209D02*
X4812364Y-1600685D01*
X4812364Y-1600685D02*
X4802840Y-1581637D01*
X4802840Y-1581637D02*
X4802840Y-1572114D01*
X4802840Y-1572114D02*
X4812364Y-1553066D01*
X4812364Y-1553066D02*
X4831412Y-1543542D01*
X4831412Y-1543542D02*
X4859983Y-1543542D01*
X4859983Y-1543542D02*
X4879031Y-1553066D01*
X4955221Y-1753066D02*
X4964745Y-1743542D01*
X4964745Y-1743542D02*
X4983793Y-1714971D01*
X4983793Y-1714971D02*
X4993316Y-1695923D01*
X4993316Y-1695923D02*
X5002840Y-1667352D01*
X5002840Y-1667352D02*
X5012364Y-1619733D01*
X5012364Y-1619733D02*
X5012364Y-1581637D01*
X5012364Y-1581637D02*
X5002840Y-1534018D01*
X5002840Y-1534018D02*
X4993316Y-1505447D01*
X4993316Y-1505447D02*
X4983793Y-1486399D01*
X4983793Y-1486399D02*
X4964745Y-1457828D01*
X4964745Y-1457828D02*
X4955221Y-1448304D01*
X5317126Y-1753066D02*
X5307602Y-1743542D01*
X5307602Y-1743542D02*
X5288555Y-1714971D01*
X5288555Y-1714971D02*
X5279031Y-1695923D01*
X5279031Y-1695923D02*
X5269507Y-1667352D01*
X5269507Y-1667352D02*
X5259983Y-1619733D01*
X5259983Y-1619733D02*
X5259983Y-1581637D01*
X5259983Y-1581637D02*
X5269507Y-1534018D01*
X5269507Y-1534018D02*
X5279031Y-1505447D01*
X5279031Y-1505447D02*
X5288555Y-1486399D01*
X5288555Y-1486399D02*
X5307602Y-1457828D01*
X5307602Y-1457828D02*
X5317126Y-1448304D01*
X5393316Y-1543542D02*
X5393316Y-1676876D01*
X5393316Y-1562590D02*
X5402840Y-1553066D01*
X5402840Y-1553066D02*
X5421888Y-1543542D01*
X5421888Y-1543542D02*
X5450459Y-1543542D01*
X5450459Y-1543542D02*
X5469507Y-1553066D01*
X5469507Y-1553066D02*
X5479031Y-1572114D01*
X5479031Y-1572114D02*
X5479031Y-1676876D01*
X5602840Y-1676876D02*
X5583793Y-1667352D01*
X5583793Y-1667352D02*
X5574269Y-1657828D01*
X5574269Y-1657828D02*
X5564745Y-1638780D01*
X5564745Y-1638780D02*
X5564745Y-1581637D01*
X5564745Y-1581637D02*
X5574269Y-1562590D01*
X5574269Y-1562590D02*
X5583793Y-1553066D01*
X5583793Y-1553066D02*
X5602840Y-1543542D01*
X5602840Y-1543542D02*
X5631412Y-1543542D01*
X5631412Y-1543542D02*
X5650459Y-1553066D01*
X5650459Y-1553066D02*
X5659983Y-1562590D01*
X5659983Y-1562590D02*
X5669507Y-1581637D01*
X5669507Y-1581637D02*
X5669507Y-1638780D01*
X5669507Y-1638780D02*
X5659983Y-1657828D01*
X5659983Y-1657828D02*
X5650459Y-1667352D01*
X5650459Y-1667352D02*
X5631412Y-1676876D01*
X5631412Y-1676876D02*
X5602840Y-1676876D01*
X5726650Y-1543542D02*
X5802840Y-1543542D01*
X5755221Y-1476876D02*
X5755221Y-1648304D01*
X5755221Y-1648304D02*
X5764745Y-1667352D01*
X5764745Y-1667352D02*
X5783793Y-1676876D01*
X5783793Y-1676876D02*
X5802840Y-1676876D01*
X6021888Y-1543542D02*
X6021888Y-1743542D01*
X6021888Y-1553066D02*
X6040935Y-1543542D01*
X6040935Y-1543542D02*
X6079031Y-1543542D01*
X6079031Y-1543542D02*
X6098078Y-1553066D01*
X6098078Y-1553066D02*
X6107602Y-1562590D01*
X6107602Y-1562590D02*
X6117126Y-1581637D01*
X6117126Y-1581637D02*
X6117126Y-1638780D01*
X6117126Y-1638780D02*
X6107602Y-1657828D01*
X6107602Y-1657828D02*
X6098078Y-1667352D01*
X6098078Y-1667352D02*
X6079031Y-1676876D01*
X6079031Y-1676876D02*
X6040935Y-1676876D01*
X6040935Y-1676876D02*
X6021888Y-1667352D01*
X6231412Y-1676876D02*
X6212364Y-1667352D01*
X6212364Y-1667352D02*
X6202840Y-1648304D01*
X6202840Y-1648304D02*
X6202840Y-1476876D01*
X6393316Y-1676876D02*
X6393316Y-1572114D01*
X6393316Y-1572114D02*
X6383793Y-1553066D01*
X6383793Y-1553066D02*
X6364745Y-1543542D01*
X6364745Y-1543542D02*
X6326650Y-1543542D01*
X6326650Y-1543542D02*
X6307602Y-1553066D01*
X6393316Y-1667352D02*
X6374269Y-1676876D01*
X6374269Y-1676876D02*
X6326650Y-1676876D01*
X6326650Y-1676876D02*
X6307602Y-1667352D01*
X6307602Y-1667352D02*
X6298078Y-1648304D01*
X6298078Y-1648304D02*
X6298078Y-1629256D01*
X6298078Y-1629256D02*
X6307602Y-1610209D01*
X6307602Y-1610209D02*
X6326650Y-1600685D01*
X6326650Y-1600685D02*
X6374269Y-1600685D01*
X6374269Y-1600685D02*
X6393316Y-1591161D01*
X6459983Y-1543542D02*
X6536174Y-1543542D01*
X6488555Y-1476876D02*
X6488555Y-1648304D01*
X6488555Y-1648304D02*
X6498078Y-1667352D01*
X6498078Y-1667352D02*
X6517126Y-1676876D01*
X6517126Y-1676876D02*
X6536174Y-1676876D01*
X6679031Y-1667352D02*
X6659983Y-1676876D01*
X6659983Y-1676876D02*
X6621888Y-1676876D01*
X6621888Y-1676876D02*
X6602840Y-1667352D01*
X6602840Y-1667352D02*
X6593316Y-1648304D01*
X6593316Y-1648304D02*
X6593316Y-1572114D01*
X6593316Y-1572114D02*
X6602840Y-1553066D01*
X6602840Y-1553066D02*
X6621888Y-1543542D01*
X6621888Y-1543542D02*
X6659983Y-1543542D01*
X6659983Y-1543542D02*
X6679031Y-1553066D01*
X6679031Y-1553066D02*
X6688555Y-1572114D01*
X6688555Y-1572114D02*
X6688555Y-1591161D01*
X6688555Y-1591161D02*
X6593316Y-1610209D01*
X6859983Y-1676876D02*
X6859983Y-1476876D01*
X6859983Y-1667352D02*
X6840936Y-1676876D01*
X6840936Y-1676876D02*
X6802840Y-1676876D01*
X6802840Y-1676876D02*
X6783793Y-1667352D01*
X6783793Y-1667352D02*
X6774269Y-1657828D01*
X6774269Y-1657828D02*
X6764745Y-1638780D01*
X6764745Y-1638780D02*
X6764745Y-1581637D01*
X6764745Y-1581637D02*
X6774269Y-1562590D01*
X6774269Y-1562590D02*
X6783793Y-1553066D01*
X6783793Y-1553066D02*
X6802840Y-1543542D01*
X6802840Y-1543542D02*
X6840936Y-1543542D01*
X6840936Y-1543542D02*
X6859983Y-1553066D01*
X6936174Y-1753066D02*
X6945697Y-1743542D01*
X6945697Y-1743542D02*
X6964745Y-1714971D01*
X6964745Y-1714971D02*
X6974269Y-1695923D01*
X6974269Y-1695923D02*
X6983793Y-1667352D01*
X6983793Y-1667352D02*
X6993316Y-1619733D01*
X6993316Y-1619733D02*
X6993316Y-1581637D01*
X6993316Y-1581637D02*
X6983793Y-1534018D01*
X6983793Y-1534018D02*
X6974269Y-1505447D01*
X6974269Y-1505447D02*
X6964745Y-1486399D01*
X6964745Y-1486399D02*
X6945697Y-1457828D01*
X6945697Y-1457828D02*
X6936174Y-1448304D01*
M02*
