%TF.GenerationSoftware,KiCad,Pcbnew,7.0.6*%
%TF.CreationDate,2023-07-18T23:25:52-04:00*%
%TF.ProjectId,cutiepie2040-hotswap,63757469-6570-4696-9532-3034302d686f,rev?*%
%TF.SameCoordinates,PX2d6b3a0PY6f46b48*%
%TF.FileFunction,Legend,Top*%
%TF.FilePolarity,Positive*%
%FSLAX46Y46*%
G04 Gerber Fmt 4.6, Leading zero omitted, Abs format (unit mm)*
G04 Created by KiCad (PCBNEW 7.0.6) date 2023-07-18 23:25:52*
%MOMM*%
%LPD*%
G01*
G04 APERTURE LIST*
%ADD10C,0.150000*%
%ADD11C,1.750000*%
%ADD12C,3.000000*%
%ADD13C,3.987800*%
%ADD14C,3.048000*%
%ADD15R,1.700000X1.700000*%
%ADD16O,1.700000X1.700000*%
G04 APERTURE END LIST*
D10*
X128325623Y14499556D02*
X128325623Y13832889D01*
X128087528Y14880508D02*
X127849433Y14166223D01*
X127849433Y14166223D02*
X128468480Y14166223D01*
X129278004Y14499556D02*
X129278004Y13832889D01*
X128849433Y14499556D02*
X128849433Y13975747D01*
X128849433Y13975747D02*
X128897052Y13880508D01*
X128897052Y13880508D02*
X128992290Y13832889D01*
X128992290Y13832889D02*
X129135147Y13832889D01*
X129135147Y13832889D02*
X129230385Y13880508D01*
X129230385Y13880508D02*
X129278004Y13928128D01*
X68318133Y14737651D02*
X68365752Y14785270D01*
X68365752Y14785270D02*
X68460990Y14832889D01*
X68460990Y14832889D02*
X68699085Y14832889D01*
X68699085Y14832889D02*
X68794323Y14785270D01*
X68794323Y14785270D02*
X68841942Y14737651D01*
X68841942Y14737651D02*
X68889561Y14642413D01*
X68889561Y14642413D02*
X68889561Y14547175D01*
X68889561Y14547175D02*
X68841942Y14404318D01*
X68841942Y14404318D02*
X68270514Y13832889D01*
X68270514Y13832889D02*
X68889561Y13832889D01*
X69746704Y14499556D02*
X69746704Y13832889D01*
X69318133Y14499556D02*
X69318133Y13975747D01*
X69318133Y13975747D02*
X69365752Y13880508D01*
X69365752Y13880508D02*
X69460990Y13832889D01*
X69460990Y13832889D02*
X69603847Y13832889D01*
X69603847Y13832889D02*
X69699085Y13880508D01*
X69699085Y13880508D02*
X69746704Y13928128D01*
X71187975Y14499556D02*
X71187975Y13832889D01*
X70949880Y14880508D02*
X70711785Y14166223D01*
X70711785Y14166223D02*
X71330832Y14166223D01*
X72140356Y14499556D02*
X72140356Y13832889D01*
X71711785Y14499556D02*
X71711785Y13975747D01*
X71711785Y13975747D02*
X71759404Y13880508D01*
X71759404Y13880508D02*
X71854642Y13832889D01*
X71854642Y13832889D02*
X71997499Y13832889D01*
X71997499Y13832889D02*
X72092737Y13880508D01*
X72092737Y13880508D02*
X72140356Y13928128D01*
X130230685Y14737651D02*
X130278304Y14785270D01*
X130278304Y14785270D02*
X130373542Y14832889D01*
X130373542Y14832889D02*
X130611637Y14832889D01*
X130611637Y14832889D02*
X130706875Y14785270D01*
X130706875Y14785270D02*
X130754494Y14737651D01*
X130754494Y14737651D02*
X130802113Y14642413D01*
X130802113Y14642413D02*
X130802113Y14547175D01*
X130802113Y14547175D02*
X130754494Y14404318D01*
X130754494Y14404318D02*
X130183066Y13832889D01*
X130183066Y13832889D02*
X130802113Y13832889D01*
X131659256Y14499556D02*
X131659256Y13832889D01*
X131230685Y14499556D02*
X131230685Y13975747D01*
X131230685Y13975747D02*
X131278304Y13880508D01*
X131278304Y13880508D02*
X131373542Y13832889D01*
X131373542Y13832889D02*
X131516399Y13832889D01*
X131516399Y13832889D02*
X131611637Y13880508D01*
X131611637Y13880508D02*
X131659256Y13928128D01*
%LPC*%
D11*
%TO.C,MX35*%
X190817380Y71437794D03*
D12*
X188277380Y76517794D03*
D13*
X185737380Y71437794D03*
D12*
X181927380Y73977794D03*
D11*
X180657380Y71437794D03*
%TD*%
%TO.C,MX4*%
X14604880Y14287794D03*
D12*
X12064880Y19367794D03*
D13*
X9524880Y14287794D03*
D12*
X5714880Y16827794D03*
D11*
X4444880Y14287794D03*
%TD*%
%TO.C,MX1*%
X14604880Y71437794D03*
D12*
X12064880Y76517794D03*
D13*
X9524880Y71437794D03*
D12*
X5714880Y73977794D03*
D11*
X4444880Y71437794D03*
%TD*%
%TO.C,MX22*%
X119379880Y33337794D03*
D12*
X116839880Y38417794D03*
D13*
X114299880Y33337794D03*
D12*
X110489880Y35877794D03*
D11*
X109219880Y33337794D03*
%TD*%
%TO.C,MX17*%
X95567380Y52387794D03*
D12*
X93027380Y57467794D03*
D13*
X90487380Y52387794D03*
D12*
X86677380Y54927794D03*
D11*
X85407380Y52387794D03*
%TD*%
%TO.C,MX2*%
X16986130Y52387794D03*
D12*
X14446130Y57467794D03*
D13*
X11906130Y52387794D03*
D12*
X8096130Y54927794D03*
D11*
X6826130Y52387794D03*
%TD*%
%TO.C,MX11*%
X62229880Y33337794D03*
D12*
X59689880Y38417794D03*
D13*
X57149880Y33337794D03*
D12*
X53339880Y35877794D03*
D11*
X52069880Y33337794D03*
%TD*%
%TO.C,MX10*%
X57467380Y52387794D03*
D12*
X54927380Y57467794D03*
D13*
X52387380Y52387794D03*
D12*
X48577380Y54927794D03*
D11*
X47307380Y52387794D03*
%TD*%
%TO.C,MX18*%
X100329880Y33337794D03*
D12*
X97789880Y38417794D03*
D13*
X95249880Y33337794D03*
D12*
X91439880Y35877794D03*
D11*
X90169880Y33337794D03*
%TD*%
%TO.C,MX30*%
X157479880Y14287794D03*
D12*
X154939880Y19367794D03*
D13*
X152399880Y14287794D03*
D12*
X148589880Y16827794D03*
D11*
X147319880Y14287794D03*
%TD*%
D14*
%TO.C,MX23*%
X131000380Y2540024D03*
D13*
X131000380Y17780024D03*
D11*
X124142380Y9525024D03*
D12*
X121602380Y14605024D03*
D13*
X119062380Y9525024D03*
D12*
X115252380Y12065024D03*
D11*
X113982380Y9525024D03*
D14*
X107124380Y2540024D03*
D13*
X107124380Y17780024D03*
%TD*%
D11*
%TO.C,MX33*%
X176529880Y33337794D03*
D12*
X173989880Y38417794D03*
D13*
X171449880Y33337794D03*
D12*
X167639880Y35877794D03*
D11*
X166369880Y33337794D03*
%TD*%
%TO.C,MX13*%
X71754880Y71437794D03*
D12*
X69214880Y76517794D03*
D13*
X66674880Y71437794D03*
D12*
X62864880Y73977794D03*
D11*
X61594880Y71437794D03*
%TD*%
%TO.C,MX29*%
X157479880Y33337794D03*
D12*
X154939880Y38417794D03*
D13*
X152399880Y33337794D03*
D12*
X148589880Y35877794D03*
D11*
X147319880Y33337794D03*
%TD*%
%TO.C,MX15*%
X81279880Y33337794D03*
D12*
X78739880Y38417794D03*
D13*
X76199880Y33337794D03*
D12*
X72389880Y35877794D03*
D11*
X71119880Y33337794D03*
%TD*%
D14*
%TO.C,MX39*%
X128587380Y2540024D03*
D13*
X128587380Y17780024D03*
D11*
X105092380Y9525024D03*
D12*
X102552380Y14605024D03*
D13*
X100012380Y9525024D03*
D12*
X96202380Y12065024D03*
D11*
X94932380Y9525024D03*
D14*
X71437380Y2540024D03*
D13*
X71437380Y17780024D03*
%TD*%
D11*
%TO.C,MX14*%
X76517380Y52387794D03*
D12*
X73977380Y57467794D03*
D13*
X71437380Y52387794D03*
D12*
X67627380Y54927794D03*
D11*
X66357380Y52387794D03*
%TD*%
%TO.C,MX16*%
X90804880Y71437794D03*
D12*
X88264880Y76517794D03*
D13*
X85724880Y71437794D03*
D12*
X81914880Y73977794D03*
D11*
X80644880Y71437794D03*
%TD*%
%TO.C,MX5*%
X33654880Y71437794D03*
D12*
X31114880Y76517794D03*
D13*
X28574880Y71437794D03*
D12*
X24764880Y73977794D03*
D11*
X23494880Y71437794D03*
%TD*%
%TO.C,MX24*%
X128904880Y71437794D03*
D12*
X126364880Y76517794D03*
D13*
X123824880Y71437794D03*
D12*
X120014880Y73977794D03*
D11*
X118744880Y71437794D03*
%TD*%
%TO.C,MX21*%
X114617380Y52387794D03*
D12*
X112077380Y57467794D03*
D13*
X109537380Y52387794D03*
D12*
X105727380Y54927794D03*
D11*
X104457380Y52387794D03*
%TD*%
%TO.C,MX32*%
X171767380Y52387794D03*
D12*
X169227380Y57467794D03*
D13*
X166687380Y52387794D03*
D12*
X162877380Y54927794D03*
D11*
X161607380Y52387794D03*
%TD*%
%TO.C,MX38*%
X195579880Y14287794D03*
D12*
X193039880Y19367794D03*
D13*
X190499880Y14287794D03*
D12*
X186689880Y16827794D03*
D11*
X185419880Y14287794D03*
%TD*%
%TO.C,MX20*%
X109854880Y71437794D03*
D12*
X107314880Y76517794D03*
D13*
X104774880Y71437794D03*
D12*
X100964880Y73977794D03*
D11*
X99694880Y71437794D03*
%TD*%
%TO.C,MX6*%
X38417380Y52387794D03*
D12*
X35877380Y57467794D03*
D13*
X33337380Y52387794D03*
D12*
X29527380Y54927794D03*
D11*
X28257380Y52387794D03*
%TD*%
%TO.C,MX36*%
X193198630Y52387794D03*
D12*
X190658630Y57467794D03*
D13*
X188118630Y52387794D03*
D12*
X184308630Y54927794D03*
D11*
X183038630Y52387794D03*
%TD*%
%TO.C,MX37*%
X195579880Y33337794D03*
D12*
X193039880Y38417794D03*
D13*
X190499880Y33337794D03*
D12*
X186689880Y35877794D03*
D11*
X185419880Y33337794D03*
%TD*%
%TO.C,MX8*%
X33654880Y14287794D03*
D12*
X31114880Y19367794D03*
D13*
X28574880Y14287794D03*
D12*
X24764880Y16827794D03*
D11*
X23494880Y14287794D03*
%TD*%
%TO.C,MX26*%
X138429880Y33337794D03*
D12*
X135889880Y38417794D03*
D13*
X133349880Y33337794D03*
D12*
X129539880Y35877794D03*
D11*
X128269880Y33337794D03*
%TD*%
%TO.C,MX9*%
X52704880Y71437794D03*
D12*
X50164880Y76517794D03*
D13*
X47624880Y71437794D03*
D12*
X43814880Y73977794D03*
D11*
X42544880Y71437794D03*
%TD*%
%TO.C,MX7*%
X43179880Y33337794D03*
D12*
X40639880Y38417794D03*
D13*
X38099880Y33337794D03*
D12*
X34289880Y35877794D03*
D11*
X33019880Y33337794D03*
%TD*%
%TO.C,MX12*%
X52704880Y14287794D03*
D12*
X50164880Y19367794D03*
D13*
X47624880Y14287794D03*
D12*
X43814880Y16827794D03*
D11*
X42544880Y14287794D03*
%TD*%
%TO.C,MX3*%
X19367380Y33337794D03*
D12*
X16827380Y38417794D03*
D13*
X14287380Y33337794D03*
D12*
X10477380Y35877794D03*
D11*
X9207380Y33337794D03*
%TD*%
%TO.C,MX27*%
X147954880Y71437794D03*
D12*
X145414880Y76517794D03*
D13*
X142874880Y71437794D03*
D12*
X139064880Y73977794D03*
D11*
X137794880Y71437794D03*
%TD*%
D15*
%TO.C,J2*%
X1849880Y50712794D03*
D16*
X1849880Y48172794D03*
X1849880Y45632794D03*
X1849880Y43092794D03*
X1849880Y40552794D03*
%TD*%
D11*
%TO.C,MX28*%
X152717380Y52387794D03*
D12*
X150177380Y57467794D03*
D13*
X147637380Y52387794D03*
D12*
X143827380Y54927794D03*
D11*
X142557380Y52387794D03*
%TD*%
%TO.C,MX25*%
X133667380Y52387794D03*
D12*
X131127380Y57467794D03*
D13*
X128587380Y52387794D03*
D12*
X124777380Y54927794D03*
D11*
X123507380Y52387794D03*
%TD*%
%TO.C,MX34*%
X176529880Y14287794D03*
D12*
X173989880Y19367794D03*
D13*
X171449880Y14287794D03*
D12*
X167639880Y16827794D03*
D11*
X166369880Y14287794D03*
%TD*%
D14*
%TO.C,MX19*%
X92900380Y2540294D03*
D13*
X92900380Y17780294D03*
D11*
X86042380Y9525294D03*
D12*
X83502380Y14605294D03*
D13*
X80962380Y9525294D03*
D12*
X77152380Y12065294D03*
D11*
X75882380Y9525294D03*
D14*
X69024380Y2540294D03*
D13*
X69024380Y17780294D03*
%TD*%
D11*
%TO.C,MX31*%
X167004880Y71437794D03*
D12*
X164464880Y76517794D03*
D13*
X161924880Y71437794D03*
D12*
X158114880Y73977794D03*
D11*
X156844880Y71437794D03*
%TD*%
%LPD*%
M02*
