%TF.GenerationSoftware,KiCad,Pcbnew,7.0.6*%
%TF.CreationDate,2023-07-16T16:10:07-04:00*%
%TF.ProjectId,cutiepie2040-hotswap,63757469-6570-4696-9532-3034302d686f,rev?*%
%TF.SameCoordinates,PX2d6b3a0PY6f46b48*%
%TF.FileFunction,Soldermask,Top*%
%TF.FilePolarity,Negative*%
%FSLAX46Y46*%
G04 Gerber Fmt 4.6, Leading zero omitted, Abs format (unit mm)*
G04 Created by KiCad (PCBNEW 7.0.6) date 2023-07-16 16:10:07*
%MOMM*%
%LPD*%
G01*
G04 APERTURE LIST*
%ADD10C,1.750000*%
%ADD11C,3.000000*%
%ADD12C,3.987800*%
%ADD13C,3.048000*%
%ADD14R,1.700000X1.700000*%
%ADD15O,1.700000X1.700000*%
G04 APERTURE END LIST*
D10*
%TO.C,MX35*%
X190817380Y71437794D03*
D11*
X188277380Y76517794D03*
D12*
X185737380Y71437794D03*
D11*
X181927380Y73977794D03*
D10*
X180657380Y71437794D03*
%TD*%
%TO.C,MX4*%
X14604880Y14287794D03*
D11*
X12064880Y19367794D03*
D12*
X9524880Y14287794D03*
D11*
X5714880Y16827794D03*
D10*
X4444880Y14287794D03*
%TD*%
%TO.C,MX1*%
X14604880Y71437794D03*
D11*
X12064880Y76517794D03*
D12*
X9524880Y71437794D03*
D11*
X5714880Y73977794D03*
D10*
X4444880Y71437794D03*
%TD*%
%TO.C,MX22*%
X119379880Y33337794D03*
D11*
X116839880Y38417794D03*
D12*
X114299880Y33337794D03*
D11*
X110489880Y35877794D03*
D10*
X109219880Y33337794D03*
%TD*%
%TO.C,MX17*%
X95567380Y52387794D03*
D11*
X93027380Y57467794D03*
D12*
X90487380Y52387794D03*
D11*
X86677380Y54927794D03*
D10*
X85407380Y52387794D03*
%TD*%
%TO.C,MX2*%
X16986130Y52387794D03*
D11*
X14446130Y57467794D03*
D12*
X11906130Y52387794D03*
D11*
X8096130Y54927794D03*
D10*
X6826130Y52387794D03*
%TD*%
%TO.C,MX11*%
X62229880Y33337794D03*
D11*
X59689880Y38417794D03*
D12*
X57149880Y33337794D03*
D11*
X53339880Y35877794D03*
D10*
X52069880Y33337794D03*
%TD*%
%TO.C,MX10*%
X57467380Y52387794D03*
D11*
X54927380Y57467794D03*
D12*
X52387380Y52387794D03*
D11*
X48577380Y54927794D03*
D10*
X47307380Y52387794D03*
%TD*%
%TO.C,MX18*%
X100329880Y33337794D03*
D11*
X97789880Y38417794D03*
D12*
X95249880Y33337794D03*
D11*
X91439880Y35877794D03*
D10*
X90169880Y33337794D03*
%TD*%
%TO.C,MX30*%
X157479880Y14287794D03*
D11*
X154939880Y19367794D03*
D12*
X152399880Y14287794D03*
D11*
X148589880Y16827794D03*
D10*
X147319880Y14287794D03*
%TD*%
D13*
%TO.C,MX23*%
X131000380Y2540024D03*
D12*
X131000380Y17780024D03*
D10*
X124142380Y9525024D03*
D11*
X121602380Y14605024D03*
D12*
X119062380Y9525024D03*
D11*
X115252380Y12065024D03*
D10*
X113982380Y9525024D03*
D13*
X107124380Y2540024D03*
D12*
X107124380Y17780024D03*
%TD*%
D10*
%TO.C,MX33*%
X176529880Y33337794D03*
D11*
X173989880Y38417794D03*
D12*
X171449880Y33337794D03*
D11*
X167639880Y35877794D03*
D10*
X166369880Y33337794D03*
%TD*%
%TO.C,MX13*%
X71754880Y71437794D03*
D11*
X69214880Y76517794D03*
D12*
X66674880Y71437794D03*
D11*
X62864880Y73977794D03*
D10*
X61594880Y71437794D03*
%TD*%
%TO.C,MX29*%
X157479880Y33337794D03*
D11*
X154939880Y38417794D03*
D12*
X152399880Y33337794D03*
D11*
X148589880Y35877794D03*
D10*
X147319880Y33337794D03*
%TD*%
%TO.C,MX15*%
X81279880Y33337794D03*
D11*
X78739880Y38417794D03*
D12*
X76199880Y33337794D03*
D11*
X72389880Y35877794D03*
D10*
X71119880Y33337794D03*
%TD*%
D13*
%TO.C,MX39*%
X128587380Y2540024D03*
D12*
X128587380Y17780024D03*
D10*
X105092380Y9525024D03*
D11*
X102552380Y14605024D03*
D12*
X100012380Y9525024D03*
D11*
X96202380Y12065024D03*
D10*
X94932380Y9525024D03*
D13*
X71437380Y2540024D03*
D12*
X71437380Y17780024D03*
%TD*%
D10*
%TO.C,MX14*%
X76517380Y52387794D03*
D11*
X73977380Y57467794D03*
D12*
X71437380Y52387794D03*
D11*
X67627380Y54927794D03*
D10*
X66357380Y52387794D03*
%TD*%
%TO.C,MX16*%
X90804880Y71437794D03*
D11*
X88264880Y76517794D03*
D12*
X85724880Y71437794D03*
D11*
X81914880Y73977794D03*
D10*
X80644880Y71437794D03*
%TD*%
%TO.C,MX5*%
X33654880Y71437794D03*
D11*
X31114880Y76517794D03*
D12*
X28574880Y71437794D03*
D11*
X24764880Y73977794D03*
D10*
X23494880Y71437794D03*
%TD*%
%TO.C,MX24*%
X128904880Y71437794D03*
D11*
X126364880Y76517794D03*
D12*
X123824880Y71437794D03*
D11*
X120014880Y73977794D03*
D10*
X118744880Y71437794D03*
%TD*%
%TO.C,MX21*%
X114617380Y52387794D03*
D11*
X112077380Y57467794D03*
D12*
X109537380Y52387794D03*
D11*
X105727380Y54927794D03*
D10*
X104457380Y52387794D03*
%TD*%
%TO.C,MX32*%
X171767380Y52387794D03*
D11*
X169227380Y57467794D03*
D12*
X166687380Y52387794D03*
D11*
X162877380Y54927794D03*
D10*
X161607380Y52387794D03*
%TD*%
%TO.C,MX38*%
X195579880Y14287794D03*
D11*
X193039880Y19367794D03*
D12*
X190499880Y14287794D03*
D11*
X186689880Y16827794D03*
D10*
X185419880Y14287794D03*
%TD*%
%TO.C,MX20*%
X109854880Y71437794D03*
D11*
X107314880Y76517794D03*
D12*
X104774880Y71437794D03*
D11*
X100964880Y73977794D03*
D10*
X99694880Y71437794D03*
%TD*%
%TO.C,MX6*%
X38417380Y52387794D03*
D11*
X35877380Y57467794D03*
D12*
X33337380Y52387794D03*
D11*
X29527380Y54927794D03*
D10*
X28257380Y52387794D03*
%TD*%
%TO.C,MX36*%
X193198630Y52387794D03*
D11*
X190658630Y57467794D03*
D12*
X188118630Y52387794D03*
D11*
X184308630Y54927794D03*
D10*
X183038630Y52387794D03*
%TD*%
%TO.C,MX37*%
X195579880Y33337794D03*
D11*
X193039880Y38417794D03*
D12*
X190499880Y33337794D03*
D11*
X186689880Y35877794D03*
D10*
X185419880Y33337794D03*
%TD*%
%TO.C,MX8*%
X33654880Y14287794D03*
D11*
X31114880Y19367794D03*
D12*
X28574880Y14287794D03*
D11*
X24764880Y16827794D03*
D10*
X23494880Y14287794D03*
%TD*%
%TO.C,MX26*%
X138429880Y33337794D03*
D11*
X135889880Y38417794D03*
D12*
X133349880Y33337794D03*
D11*
X129539880Y35877794D03*
D10*
X128269880Y33337794D03*
%TD*%
%TO.C,MX9*%
X52704880Y71437794D03*
D11*
X50164880Y76517794D03*
D12*
X47624880Y71437794D03*
D11*
X43814880Y73977794D03*
D10*
X42544880Y71437794D03*
%TD*%
%TO.C,MX7*%
X43179880Y33337794D03*
D11*
X40639880Y38417794D03*
D12*
X38099880Y33337794D03*
D11*
X34289880Y35877794D03*
D10*
X33019880Y33337794D03*
%TD*%
%TO.C,MX12*%
X52704880Y14287794D03*
D11*
X50164880Y19367794D03*
D12*
X47624880Y14287794D03*
D11*
X43814880Y16827794D03*
D10*
X42544880Y14287794D03*
%TD*%
%TO.C,MX3*%
X19367380Y33337794D03*
D11*
X16827380Y38417794D03*
D12*
X14287380Y33337794D03*
D11*
X10477380Y35877794D03*
D10*
X9207380Y33337794D03*
%TD*%
%TO.C,MX27*%
X147954880Y71437794D03*
D11*
X145414880Y76517794D03*
D12*
X142874880Y71437794D03*
D11*
X139064880Y73977794D03*
D10*
X137794880Y71437794D03*
%TD*%
D14*
%TO.C,J2*%
X1849880Y50712794D03*
D15*
X1849880Y48172794D03*
X1849880Y45632794D03*
X1849880Y43092794D03*
X1849880Y40552794D03*
%TD*%
D10*
%TO.C,MX28*%
X152717380Y52387794D03*
D11*
X150177380Y57467794D03*
D12*
X147637380Y52387794D03*
D11*
X143827380Y54927794D03*
D10*
X142557380Y52387794D03*
%TD*%
%TO.C,MX25*%
X133667380Y52387794D03*
D11*
X131127380Y57467794D03*
D12*
X128587380Y52387794D03*
D11*
X124777380Y54927794D03*
D10*
X123507380Y52387794D03*
%TD*%
%TO.C,MX34*%
X176529880Y14287794D03*
D11*
X173989880Y19367794D03*
D12*
X171449880Y14287794D03*
D11*
X167639880Y16827794D03*
D10*
X166369880Y14287794D03*
%TD*%
D13*
%TO.C,MX19*%
X92900380Y2540294D03*
D12*
X92900380Y17780294D03*
D10*
X86042380Y9525294D03*
D11*
X83502380Y14605294D03*
D12*
X80962380Y9525294D03*
D11*
X77152380Y12065294D03*
D10*
X75882380Y9525294D03*
D13*
X69024380Y2540294D03*
D12*
X69024380Y17780294D03*
%TD*%
D10*
%TO.C,MX31*%
X167004880Y71437794D03*
D11*
X164464880Y76517794D03*
D12*
X161924880Y71437794D03*
D11*
X158114880Y73977794D03*
D10*
X156844880Y71437794D03*
%TD*%
M02*
