%TF.GenerationSoftware,KiCad,Pcbnew,7.0.6*%
%TF.CreationDate,2023-07-18T23:25:52-04:00*%
%TF.ProjectId,cutiepie2040-hotswap,63757469-6570-4696-9532-3034302d686f,rev?*%
%TF.SameCoordinates,PX2d6b3a0PY6f46b48*%
%TF.FileFunction,Other,User*%
%FSLAX46Y46*%
G04 Gerber Fmt 4.6, Leading zero omitted, Abs format (unit mm)*
G04 Created by KiCad (PCBNEW 7.0.6) date 2023-07-18 23:25:52*
%MOMM*%
%LPD*%
G01*
G04 APERTURE LIST*
%ADD10C,0.150000*%
%ADD11C,0.127000*%
%ADD12C,0.050000*%
G04 APERTURE END LIST*
D10*
%TO.C,MX35*%
X192849380Y75247794D02*
X190309380Y75247794D01*
X192849380Y77787794D02*
X192849380Y75247794D01*
D11*
X191037380Y78437794D02*
X191037380Y74037794D01*
X191037380Y78437794D02*
X181737380Y78437794D01*
D10*
X190309380Y75247794D02*
X190309380Y77787794D01*
X190309380Y77787794D02*
X192849380Y77787794D01*
D11*
X185337380Y74037794D02*
X191037380Y74037794D01*
D10*
X179895380Y72707794D02*
X177355380Y72707794D01*
X179895380Y75247794D02*
X179895380Y72707794D01*
D11*
X179237380Y72037794D02*
X183337380Y72037794D01*
X179237380Y75937794D02*
X179237380Y72037794D01*
D10*
X177355380Y72707794D02*
X177355380Y75247794D01*
X177355380Y75247794D02*
X179895380Y75247794D01*
D11*
X185337380Y74037794D02*
G75*
G03*
X183337380Y72037794I-1J-1999999D01*
G01*
X181737380Y78437794D02*
G75*
G03*
X179237380Y75937794I0J-2500000D01*
G01*
D10*
X189801380Y76517794D02*
G75*
G03*
X189801380Y76517794I-1524000J0D01*
G01*
X183451380Y73977794D02*
G75*
G03*
X183451380Y73977794I-1524000J0D01*
G01*
D12*
%TO.C,C_1V-Decoup2*%
X27606336Y49985835D02*
X28256874Y49335297D01*
X28256874Y49335297D02*
X29543808Y50622231D01*
X28893270Y51272769D02*
X27606336Y49985835D01*
X29543808Y50622231D02*
X28893270Y51272769D01*
D10*
%TO.C,MX4*%
X16636880Y18097794D02*
X14096880Y18097794D01*
X16636880Y20637794D02*
X16636880Y18097794D01*
D11*
X14824880Y21287794D02*
X14824880Y16887794D01*
X14824880Y21287794D02*
X5524880Y21287794D01*
D10*
X14096880Y18097794D02*
X14096880Y20637794D01*
X14096880Y20637794D02*
X16636880Y20637794D01*
D11*
X9124880Y16887794D02*
X14824880Y16887794D01*
D10*
X3682880Y15557794D02*
X3682880Y18097794D01*
X3682880Y18097794D02*
X1142880Y18097794D01*
D11*
X3024880Y14887794D02*
X7124880Y14887794D01*
X3024880Y18787794D02*
X3024880Y14887794D01*
D10*
X1142880Y15557794D02*
X3682880Y15557794D01*
X1142880Y18097794D02*
X1142880Y15557794D01*
D11*
X9124880Y16887794D02*
G75*
G03*
X7124880Y14887794I-1J-1999999D01*
G01*
X5524880Y21287794D02*
G75*
G03*
X3024880Y18787794I0J-2500000D01*
G01*
D10*
X13588880Y19367794D02*
G75*
G03*
X13588880Y19367794I-1524000J0D01*
G01*
X7238880Y16827794D02*
G75*
G03*
X7238880Y16827794I-1524000J0D01*
G01*
%TO.C,MX1*%
X16636880Y75247794D02*
X14096880Y75247794D01*
X16636880Y77787794D02*
X16636880Y75247794D01*
D11*
X14824880Y78437794D02*
X14824880Y74037794D01*
X14824880Y78437794D02*
X5524880Y78437794D01*
D10*
X14096880Y75247794D02*
X14096880Y77787794D01*
X14096880Y77787794D02*
X16636880Y77787794D01*
D11*
X9124880Y74037794D02*
X14824880Y74037794D01*
D10*
X3682880Y72707794D02*
X3682880Y75247794D01*
X3682880Y75247794D02*
X1142880Y75247794D01*
D11*
X3024880Y72037794D02*
X7124880Y72037794D01*
X3024880Y75937794D02*
X3024880Y72037794D01*
D10*
X1142880Y72707794D02*
X3682880Y72707794D01*
X1142880Y75247794D02*
X1142880Y72707794D01*
D11*
X9124880Y74037794D02*
G75*
G03*
X7124880Y72037794I-1J-1999999D01*
G01*
X5524880Y78437794D02*
G75*
G03*
X3024880Y75937794I0J-2500000D01*
G01*
D10*
X13588880Y76517794D02*
G75*
G03*
X13588880Y76517794I-1524000J0D01*
G01*
X7238880Y73977794D02*
G75*
G03*
X7238880Y73977794I-1524000J0D01*
G01*
D12*
%TO.C,D6*%
X41035891Y46465862D02*
X38735891Y46465862D01*
X41035891Y46465862D02*
X41035891Y51165862D01*
X38735891Y51165862D02*
X38735891Y46465862D01*
X41035891Y51165862D02*
X38735891Y51165862D01*
%TO.C,D14*%
X79135923Y46465862D02*
X76835923Y46465862D01*
X79135923Y46465862D02*
X79135923Y51165862D01*
X76835923Y51165862D02*
X76835923Y46465862D01*
X79135923Y51165862D02*
X76835923Y51165862D01*
%TO.C,C_Crystal1*%
X27862239Y31191690D02*
X28512777Y30541152D01*
X28512777Y30541152D02*
X29799711Y31828086D01*
X29149173Y32478624D02*
X27862239Y31191690D01*
X29799711Y31828086D02*
X29149173Y32478624D01*
%TO.C,SW2*%
X21943816Y27407874D02*
X21943816Y21407874D01*
X21943816Y21407874D02*
X30443816Y21407874D01*
X30443816Y27407874D02*
X21943816Y27407874D01*
X30443816Y21407874D02*
X30443816Y27407874D01*
D10*
%TO.C,MX22*%
X121411880Y37147794D02*
X118871880Y37147794D01*
X121411880Y39687794D02*
X121411880Y37147794D01*
D11*
X119599880Y40337794D02*
X119599880Y35937794D01*
X119599880Y40337794D02*
X110299880Y40337794D01*
D10*
X118871880Y37147794D02*
X118871880Y39687794D01*
X118871880Y39687794D02*
X121411880Y39687794D01*
D11*
X113899880Y35937794D02*
X119599880Y35937794D01*
D10*
X108457880Y34607794D02*
X108457880Y37147794D01*
X108457880Y37147794D02*
X105917880Y37147794D01*
D11*
X107799880Y33937794D02*
X111899880Y33937794D01*
X107799880Y37837794D02*
X107799880Y33937794D01*
D10*
X105917880Y34607794D02*
X108457880Y34607794D01*
X105917880Y37147794D02*
X105917880Y34607794D01*
D11*
X113899880Y35937794D02*
G75*
G03*
X111899880Y33937794I-1J-1999999D01*
G01*
X110299880Y40337794D02*
G75*
G03*
X107799880Y37837794I0J-2500000D01*
G01*
D10*
X118363880Y38417794D02*
G75*
G03*
X118363880Y38417794I-1524000J0D01*
G01*
X112013880Y35877794D02*
G75*
G03*
X112013880Y35877794I-1524000J0D01*
G01*
D12*
%TO.C,D37*%
X195817271Y27415846D02*
X193517271Y27415846D01*
X195817271Y27415846D02*
X195817271Y32115846D01*
X193517271Y32115846D02*
X193517271Y27415846D01*
X195817271Y32115846D02*
X193517271Y32115846D01*
%TO.C,R_Crystal1*%
X24683896Y34341749D02*
X25348576Y33677069D01*
X25348576Y33677069D02*
X26663794Y34992287D01*
X25999114Y35656967D02*
X24683896Y34341749D01*
X26663794Y34992287D02*
X25999114Y35656967D01*
D10*
%TO.C,MX17*%
X97599380Y56197794D02*
X95059380Y56197794D01*
X97599380Y58737794D02*
X97599380Y56197794D01*
D11*
X95787380Y59387794D02*
X95787380Y54987794D01*
X95787380Y59387794D02*
X86487380Y59387794D01*
D10*
X95059380Y56197794D02*
X95059380Y58737794D01*
X95059380Y58737794D02*
X97599380Y58737794D01*
D11*
X90087380Y54987794D02*
X95787380Y54987794D01*
D10*
X84645380Y53657794D02*
X84645380Y56197794D01*
X84645380Y56197794D02*
X82105380Y56197794D01*
D11*
X83987380Y52987794D02*
X88087380Y52987794D01*
X83987380Y56887794D02*
X83987380Y52987794D01*
D10*
X82105380Y53657794D02*
X84645380Y53657794D01*
X82105380Y56197794D02*
X82105380Y53657794D01*
D11*
X90087380Y54987794D02*
G75*
G03*
X88087380Y52987794I-1J-1999999D01*
G01*
X86487380Y59387794D02*
G75*
G03*
X83987380Y56887794I0J-2500000D01*
G01*
D10*
X94551380Y57467794D02*
G75*
G03*
X94551380Y57467794I-1524000J0D01*
G01*
X88201380Y54927794D02*
G75*
G03*
X88201380Y54927794I-1524000J0D01*
G01*
%TO.C,MX2*%
X19018130Y56197794D02*
X16478130Y56197794D01*
X19018130Y58737794D02*
X19018130Y56197794D01*
D11*
X17206130Y59387794D02*
X17206130Y54987794D01*
X17206130Y59387794D02*
X7906130Y59387794D01*
D10*
X16478130Y56197794D02*
X16478130Y58737794D01*
X16478130Y58737794D02*
X19018130Y58737794D01*
D11*
X11506130Y54987794D02*
X17206130Y54987794D01*
D10*
X6064130Y53657794D02*
X3524130Y53657794D01*
X6064130Y56197794D02*
X6064130Y53657794D01*
D11*
X5406130Y52987794D02*
X9506130Y52987794D01*
X5406130Y56887794D02*
X5406130Y52987794D01*
D10*
X3524130Y53657794D02*
X3524130Y56197794D01*
X3524130Y56197794D02*
X6064130Y56197794D01*
D11*
X11506130Y54987794D02*
G75*
G03*
X9506130Y52987794I-1J-1999999D01*
G01*
X7906130Y59387794D02*
G75*
G03*
X5406130Y56887794I0J-2500000D01*
G01*
D10*
X15970130Y57467794D02*
G75*
G03*
X15970130Y57467794I-1524000J0D01*
G01*
X9620130Y54927794D02*
G75*
G03*
X9620130Y54927794I-1524000J0D01*
G01*
%TO.C,MX11*%
X64261880Y37147794D02*
X61721880Y37147794D01*
X64261880Y39687794D02*
X64261880Y37147794D01*
D11*
X62449880Y40337794D02*
X62449880Y35937794D01*
X62449880Y40337794D02*
X53149880Y40337794D01*
D10*
X61721880Y37147794D02*
X61721880Y39687794D01*
X61721880Y39687794D02*
X64261880Y39687794D01*
D11*
X56749880Y35937794D02*
X62449880Y35937794D01*
D10*
X51307880Y34607794D02*
X51307880Y37147794D01*
X51307880Y37147794D02*
X48767880Y37147794D01*
D11*
X50649880Y33937794D02*
X54749880Y33937794D01*
X50649880Y37837794D02*
X50649880Y33937794D01*
D10*
X48767880Y34607794D02*
X51307880Y34607794D01*
X48767880Y37147794D02*
X48767880Y34607794D01*
D11*
X56749880Y35937794D02*
G75*
G03*
X54749880Y33937794I-1J-1999999D01*
G01*
X53149880Y40337794D02*
G75*
G03*
X50649880Y37837794I0J-2500000D01*
G01*
D10*
X61213880Y38417794D02*
G75*
G03*
X61213880Y38417794I-1524000J0D01*
G01*
X54863880Y35877794D02*
G75*
G03*
X54863880Y35877794I-1524000J0D01*
G01*
D12*
%TO.C,R_Flash2*%
X17227076Y25175531D02*
X17227076Y24235531D01*
X17227076Y24235531D02*
X19087076Y24235531D01*
X19087076Y25175531D02*
X17227076Y25175531D01*
X19087076Y24235531D02*
X19087076Y25175531D01*
D10*
%TO.C,MX10*%
X59499380Y56197794D02*
X56959380Y56197794D01*
X59499380Y58737794D02*
X59499380Y56197794D01*
D11*
X57687380Y59387794D02*
X57687380Y54987794D01*
X57687380Y59387794D02*
X48387380Y59387794D01*
D10*
X56959380Y56197794D02*
X56959380Y58737794D01*
X56959380Y58737794D02*
X59499380Y58737794D01*
D11*
X51987380Y54987794D02*
X57687380Y54987794D01*
D10*
X46545380Y53657794D02*
X46545380Y56197794D01*
X46545380Y56197794D02*
X44005380Y56197794D01*
D11*
X45887380Y52987794D02*
X49987380Y52987794D01*
X45887380Y56887794D02*
X45887380Y52987794D01*
D10*
X44005380Y53657794D02*
X46545380Y53657794D01*
X44005380Y56197794D02*
X44005380Y53657794D01*
D11*
X51987380Y54987794D02*
G75*
G03*
X49987380Y52987794I-1J-1999999D01*
G01*
X48387380Y59387794D02*
G75*
G03*
X45887380Y56887794I0J-2500000D01*
G01*
D10*
X56451380Y57467794D02*
G75*
G03*
X56451380Y57467794I-1524000J0D01*
G01*
X50101380Y54927794D02*
G75*
G03*
X50101380Y54927794I-1524000J0D01*
G01*
%TO.C,MX18*%
X102361880Y37147794D02*
X99821880Y37147794D01*
X102361880Y39687794D02*
X102361880Y37147794D01*
D11*
X100549880Y40337794D02*
X100549880Y35937794D01*
X100549880Y40337794D02*
X91249880Y40337794D01*
D10*
X99821880Y37147794D02*
X99821880Y39687794D01*
X99821880Y39687794D02*
X102361880Y39687794D01*
D11*
X94849880Y35937794D02*
X100549880Y35937794D01*
D10*
X89407880Y34607794D02*
X89407880Y37147794D01*
X89407880Y37147794D02*
X86867880Y37147794D01*
D11*
X88749880Y33937794D02*
X92849880Y33937794D01*
X88749880Y37837794D02*
X88749880Y33937794D01*
D10*
X86867880Y34607794D02*
X89407880Y34607794D01*
X86867880Y37147794D02*
X86867880Y34607794D01*
D11*
X94849880Y35937794D02*
G75*
G03*
X92849880Y33937794I-1J-1999999D01*
G01*
X91249880Y40337794D02*
G75*
G03*
X88749880Y37837794I0J-2500000D01*
G01*
D10*
X99313880Y38417794D02*
G75*
G03*
X99313880Y38417794I-1524000J0D01*
G01*
X92963880Y35877794D02*
G75*
G03*
X92963880Y35877794I-1524000J0D01*
G01*
D12*
%TO.C,D17*%
X98185939Y46601801D02*
X95885939Y46601801D01*
X98185939Y46601801D02*
X98185939Y51301801D01*
X95885939Y51301801D02*
X95885939Y46601801D01*
X98185939Y51301801D02*
X95885939Y51301801D01*
D10*
%TO.C,MX30*%
X159511880Y18097794D02*
X156971880Y18097794D01*
X159511880Y20637794D02*
X159511880Y18097794D01*
D11*
X157699880Y21287794D02*
X157699880Y16887794D01*
X157699880Y21287794D02*
X148399880Y21287794D01*
D10*
X156971880Y18097794D02*
X156971880Y20637794D01*
X156971880Y20637794D02*
X159511880Y20637794D01*
D11*
X151999880Y16887794D02*
X157699880Y16887794D01*
D10*
X146557880Y15557794D02*
X146557880Y18097794D01*
X146557880Y18097794D02*
X144017880Y18097794D01*
D11*
X145899880Y14887794D02*
X149999880Y14887794D01*
X145899880Y18787794D02*
X145899880Y14887794D01*
D10*
X144017880Y15557794D02*
X146557880Y15557794D01*
X144017880Y18097794D02*
X144017880Y15557794D01*
D11*
X151999880Y16887794D02*
G75*
G03*
X149999880Y14887794I-1J-1999999D01*
G01*
X148399880Y21287794D02*
G75*
G03*
X145899880Y18787794I0J-2500000D01*
G01*
D10*
X156463880Y19367794D02*
G75*
G03*
X156463880Y19367794I-1524000J0D01*
G01*
X150113880Y16827794D02*
G75*
G03*
X150113880Y16827794I-1524000J0D01*
G01*
D12*
%TO.C,R_Flash1*%
X38820724Y42230265D02*
X39760724Y42230265D01*
X39760724Y42230265D02*
X39760724Y44090265D01*
X38820724Y44090265D02*
X38820724Y42230265D01*
X39760724Y44090265D02*
X38820724Y44090265D01*
%TO.C,SW1*%
X33850096Y27407874D02*
X33850096Y21407874D01*
X33850096Y21407874D02*
X42350096Y21407874D01*
X42350096Y27407874D02*
X33850096Y27407874D01*
X42350096Y21407874D02*
X42350096Y27407874D01*
%TO.C,R_Flash3*%
X19310676Y25175531D02*
X19310676Y24235531D01*
X19310676Y24235531D02*
X21170676Y24235531D01*
X21170676Y25175531D02*
X19310676Y25175531D01*
X21170676Y24235531D02*
X21170676Y25175531D01*
%TO.C,D8*%
X36273387Y5984578D02*
X33973387Y5984578D01*
X36273387Y5984578D02*
X36273387Y10684578D01*
X33973387Y10684578D02*
X33973387Y5984578D01*
X36273387Y10684578D02*
X33973387Y10684578D01*
%TO.C,D20*%
X112473718Y65813453D02*
X110173718Y65813453D01*
X112473718Y65813453D02*
X112473718Y70513453D01*
X110173718Y70513453D02*
X110173718Y65813453D01*
X112473718Y70513453D02*
X110173718Y70513453D01*
%TO.C,D15*%
X83898427Y27415846D02*
X81598427Y27415846D01*
X83898427Y27415846D02*
X83898427Y32115846D01*
X81598427Y32115846D02*
X81598427Y27415846D01*
X83898427Y32115846D02*
X81598427Y32115846D01*
%TO.C,D31*%
X169623499Y65813453D02*
X167323499Y65813453D01*
X169623499Y65813453D02*
X169623499Y70513453D01*
X167323499Y70513453D02*
X167323499Y65813453D01*
X169623499Y70513453D02*
X167323499Y70513453D01*
%TO.C,C_3V-Decoup2*%
X20971304Y49096376D02*
X21891304Y49096376D01*
X21891304Y49096376D02*
X21891304Y50916376D01*
X20971304Y50916376D02*
X20971304Y49096376D01*
X21891304Y50916376D02*
X20971304Y50916376D01*
D10*
%TO.C,MX23*%
X126174380Y13335024D02*
X123634380Y13335024D01*
X126174380Y15875024D02*
X126174380Y13335024D01*
D11*
X124362380Y16525024D02*
X124362380Y12125024D01*
X124362380Y16525024D02*
X115062380Y16525024D01*
D10*
X123634380Y13335024D02*
X123634380Y15875024D01*
X123634380Y15875024D02*
X126174380Y15875024D01*
D11*
X118662380Y12125024D02*
X124362380Y12125024D01*
D10*
X113220380Y10795024D02*
X110680380Y10795024D01*
X113220380Y13335024D02*
X113220380Y10795024D01*
D11*
X112562380Y10125024D02*
X116662380Y10125024D01*
X112562380Y14025024D02*
X112562380Y10125024D01*
D10*
X110680380Y10795024D02*
X110680380Y13335024D01*
X110680380Y13335024D02*
X113220380Y13335024D01*
D11*
X118662380Y12125024D02*
G75*
G03*
X116662380Y10125024I-1J-1999999D01*
G01*
X115062380Y16525024D02*
G75*
G03*
X112562380Y14025024I0J-2500000D01*
G01*
D10*
X123126380Y14605024D02*
G75*
G03*
X123126380Y14605024I-1524000J0D01*
G01*
X116776380Y12065024D02*
G75*
G03*
X116776380Y12065024I-1524000J0D01*
G01*
D12*
%TO.C,D13*%
X74373622Y65813453D02*
X72073622Y65813453D01*
X74373622Y65813453D02*
X74373622Y70513453D01*
X72073622Y70513453D02*
X72073622Y65813453D01*
X74373622Y70513453D02*
X72073622Y70513453D01*
%TO.C,D23*%
X127951589Y5984578D02*
X125651589Y5984578D01*
X127951589Y5984578D02*
X127951589Y10684578D01*
X125651589Y10684578D02*
X125651589Y5984578D01*
X127951589Y10684578D02*
X125651589Y10684578D01*
D10*
%TO.C,MX33*%
X178561880Y37147794D02*
X176021880Y37147794D01*
X178561880Y39687794D02*
X178561880Y37147794D01*
D11*
X176749880Y40337794D02*
X176749880Y35937794D01*
X176749880Y40337794D02*
X167449880Y40337794D01*
D10*
X176021880Y37147794D02*
X176021880Y39687794D01*
X176021880Y39687794D02*
X178561880Y39687794D01*
D11*
X171049880Y35937794D02*
X176749880Y35937794D01*
D10*
X165607880Y34607794D02*
X165607880Y37147794D01*
X165607880Y37147794D02*
X163067880Y37147794D01*
D11*
X164949880Y33937794D02*
X169049880Y33937794D01*
X164949880Y37837794D02*
X164949880Y33937794D01*
D10*
X163067880Y34607794D02*
X165607880Y34607794D01*
X163067880Y37147794D02*
X163067880Y34607794D01*
D11*
X171049880Y35937794D02*
G75*
G03*
X169049880Y33937794I-1J-1999999D01*
G01*
X167449880Y40337794D02*
G75*
G03*
X164949880Y37837794I0J-2500000D01*
G01*
D10*
X175513880Y38417794D02*
G75*
G03*
X175513880Y38417794I-1524000J0D01*
G01*
X169163880Y35877794D02*
G75*
G03*
X169163880Y35877794I-1524000J0D01*
G01*
D12*
%TO.C,C_3V-Decoup7*%
X22459589Y49096376D02*
X23379589Y49096376D01*
X23379589Y49096376D02*
X23379589Y50916376D01*
X22459589Y50916376D02*
X22459589Y49096376D01*
X23379589Y50916376D02*
X22459589Y50916376D01*
%TO.C,D32*%
X174386003Y46465862D02*
X172086003Y46465862D01*
X174386003Y46465862D02*
X174386003Y51165862D01*
X172086003Y51165862D02*
X172086003Y46465862D01*
X174386003Y51165862D02*
X172086003Y51165862D01*
%TO.C,D4*%
X17223371Y5984578D02*
X14923371Y5984578D01*
X17223371Y5984578D02*
X17223371Y10684578D01*
X14923371Y10684578D02*
X14923371Y5984578D01*
X17223371Y10684578D02*
X14923371Y10684578D01*
D10*
%TO.C,MX13*%
X73786880Y75247794D02*
X71246880Y75247794D01*
X73786880Y77787794D02*
X73786880Y75247794D01*
D11*
X71974880Y78437794D02*
X71974880Y74037794D01*
X71974880Y78437794D02*
X62674880Y78437794D01*
D10*
X71246880Y75247794D02*
X71246880Y77787794D01*
X71246880Y77787794D02*
X73786880Y77787794D01*
D11*
X66274880Y74037794D02*
X71974880Y74037794D01*
D10*
X60832880Y72707794D02*
X60832880Y75247794D01*
X60832880Y75247794D02*
X58292880Y75247794D01*
D11*
X60174880Y72037794D02*
X64274880Y72037794D01*
X60174880Y75937794D02*
X60174880Y72037794D01*
D10*
X58292880Y72707794D02*
X60832880Y72707794D01*
X58292880Y75247794D02*
X58292880Y72707794D01*
D11*
X66274880Y74037794D02*
G75*
G03*
X64274880Y72037794I-1J-1999999D01*
G01*
X62674880Y78437794D02*
G75*
G03*
X60174880Y75937794I0J-2500000D01*
G01*
D10*
X70738880Y76517794D02*
G75*
G03*
X70738880Y76517794I-1524000J0D01*
G01*
X64388880Y73977794D02*
G75*
G03*
X64388880Y73977794I-1524000J0D01*
G01*
D12*
%TO.C,C_3V-Decoup9*%
X32309299Y42284323D02*
X31389299Y42284323D01*
X31389299Y42284323D02*
X31389299Y40464323D01*
X32309299Y40464323D02*
X32309299Y42284323D01*
X31389299Y40464323D02*
X32309299Y40464323D01*
%TO.C,C_3V-Decoup4*%
X20853019Y42402608D02*
X20853019Y43322608D01*
X20853019Y43322608D02*
X19033019Y43322608D01*
X19033019Y42402608D02*
X20853019Y42402608D01*
X19033019Y43322608D02*
X19033019Y42402608D01*
%TO.C,D26*%
X141048475Y27415846D02*
X138748475Y27415846D01*
X141048475Y27415846D02*
X141048475Y32115846D01*
X138748475Y32115846D02*
X138748475Y27415846D01*
X141048475Y32115846D02*
X138748475Y32115846D01*
D10*
%TO.C,MX29*%
X159511880Y37147794D02*
X156971880Y37147794D01*
X159511880Y39687794D02*
X159511880Y37147794D01*
D11*
X157699880Y40337794D02*
X157699880Y35937794D01*
X157699880Y40337794D02*
X148399880Y40337794D01*
D10*
X156971880Y37147794D02*
X156971880Y39687794D01*
X156971880Y39687794D02*
X159511880Y39687794D01*
D11*
X151999880Y35937794D02*
X157699880Y35937794D01*
D10*
X146557880Y34607794D02*
X146557880Y37147794D01*
X146557880Y37147794D02*
X144017880Y37147794D01*
D11*
X145899880Y33937794D02*
X149999880Y33937794D01*
X145899880Y37837794D02*
X145899880Y33937794D01*
D10*
X144017880Y34607794D02*
X146557880Y34607794D01*
X144017880Y37147794D02*
X144017880Y34607794D01*
D11*
X151999880Y35937794D02*
G75*
G03*
X149999880Y33937794I-1J-1999999D01*
G01*
X148399880Y40337794D02*
G75*
G03*
X145899880Y37837794I0J-2500000D01*
G01*
D10*
X156463880Y38417794D02*
G75*
G03*
X156463880Y38417794I-1524000J0D01*
G01*
X150113880Y35877794D02*
G75*
G03*
X150113880Y35877794I-1524000J0D01*
G01*
D12*
%TO.C,D28*%
X155335987Y46465862D02*
X153035987Y46465862D01*
X155335987Y46465862D02*
X155335987Y51165862D01*
X153035987Y51165862D02*
X153035987Y46465862D01*
X155335987Y51165862D02*
X153035987Y51165862D01*
D10*
%TO.C,MX15*%
X83311880Y37147794D02*
X80771880Y37147794D01*
X83311880Y39687794D02*
X83311880Y37147794D01*
D11*
X81499880Y40337794D02*
X81499880Y35937794D01*
X81499880Y40337794D02*
X72199880Y40337794D01*
D10*
X80771880Y37147794D02*
X80771880Y39687794D01*
X80771880Y39687794D02*
X83311880Y39687794D01*
D11*
X75799880Y35937794D02*
X81499880Y35937794D01*
D10*
X70357880Y34607794D02*
X70357880Y37147794D01*
X70357880Y37147794D02*
X67817880Y37147794D01*
D11*
X69699880Y33937794D02*
X73799880Y33937794D01*
X69699880Y37837794D02*
X69699880Y33937794D01*
D10*
X67817880Y34607794D02*
X70357880Y34607794D01*
X67817880Y37147794D02*
X67817880Y34607794D01*
D11*
X75799880Y35937794D02*
G75*
G03*
X73799880Y33937794I-1J-1999999D01*
G01*
X72199880Y40337794D02*
G75*
G03*
X69699880Y37837794I0J-2500000D01*
G01*
D10*
X80263880Y38417794D02*
G75*
G03*
X80263880Y38417794I-1524000J0D01*
G01*
X73913880Y35877794D02*
G75*
G03*
X73913880Y35877794I-1524000J0D01*
G01*
D12*
%TO.C,R_DATA1*%
X22891977Y55163523D02*
X22227297Y54498843D01*
X22227297Y54498843D02*
X23542515Y53183625D01*
X24207195Y53848305D02*
X22891977Y55163523D01*
X23542515Y53183625D02*
X24207195Y53848305D01*
D10*
%TO.C,MX39*%
X107124380Y13335024D02*
X104584380Y13335024D01*
X107124380Y15875024D02*
X107124380Y13335024D01*
D11*
X105312380Y16525024D02*
X105312380Y12125024D01*
X105312380Y16525024D02*
X96012380Y16525024D01*
D10*
X104584380Y13335024D02*
X104584380Y15875024D01*
X104584380Y15875024D02*
X107124380Y15875024D01*
D11*
X99612380Y12125024D02*
X105312380Y12125024D01*
D10*
X94170380Y10795024D02*
X91630380Y10795024D01*
X94170380Y13335024D02*
X94170380Y10795024D01*
D11*
X93512380Y10125024D02*
X97612380Y10125024D01*
X93512380Y14025024D02*
X93512380Y10125024D01*
D10*
X91630380Y10795024D02*
X91630380Y13335024D01*
X91630380Y13335024D02*
X94170380Y13335024D01*
D11*
X99612380Y12125024D02*
G75*
G03*
X97612380Y10125024I-1J-1999999D01*
G01*
X96012380Y16525024D02*
G75*
G03*
X93512380Y14025024I0J-2500000D01*
G01*
D10*
X104076380Y14605024D02*
G75*
G03*
X104076380Y14605024I-1524000J0D01*
G01*
X97726380Y12065024D02*
G75*
G03*
X97726380Y12065024I-1524000J0D01*
G01*
%TO.C,MX14*%
X78549380Y56197794D02*
X76009380Y56197794D01*
X78549380Y58737794D02*
X78549380Y56197794D01*
D11*
X76737380Y59387794D02*
X76737380Y54987794D01*
X76737380Y59387794D02*
X67437380Y59387794D01*
D10*
X76009380Y56197794D02*
X76009380Y58737794D01*
X76009380Y58737794D02*
X78549380Y58737794D01*
D11*
X71037380Y54987794D02*
X76737380Y54987794D01*
D10*
X65595380Y53657794D02*
X65595380Y56197794D01*
X65595380Y56197794D02*
X63055380Y56197794D01*
D11*
X64937380Y52987794D02*
X69037380Y52987794D01*
X64937380Y56887794D02*
X64937380Y52987794D01*
D10*
X63055380Y53657794D02*
X65595380Y53657794D01*
X63055380Y56197794D02*
X63055380Y53657794D01*
D11*
X71037380Y54987794D02*
G75*
G03*
X69037380Y52987794I-1J-1999999D01*
G01*
X67437380Y59387794D02*
G75*
G03*
X64937380Y56887794I0J-2500000D01*
G01*
D10*
X75501380Y57467794D02*
G75*
G03*
X75501380Y57467794I-1524000J0D01*
G01*
X69151380Y54927794D02*
G75*
G03*
X69151380Y54927794I-1524000J0D01*
G01*
%TO.C,MX16*%
X92836880Y75247794D02*
X90296880Y75247794D01*
X92836880Y77787794D02*
X92836880Y75247794D01*
D11*
X91024880Y78437794D02*
X91024880Y74037794D01*
X91024880Y78437794D02*
X81724880Y78437794D01*
D10*
X90296880Y75247794D02*
X90296880Y77787794D01*
X90296880Y77787794D02*
X92836880Y77787794D01*
D11*
X85324880Y74037794D02*
X91024880Y74037794D01*
D10*
X79882880Y72707794D02*
X79882880Y75247794D01*
X79882880Y75247794D02*
X77342880Y75247794D01*
D11*
X79224880Y72037794D02*
X83324880Y72037794D01*
X79224880Y75937794D02*
X79224880Y72037794D01*
D10*
X77342880Y72707794D02*
X79882880Y72707794D01*
X77342880Y75247794D02*
X77342880Y72707794D01*
D11*
X85324880Y74037794D02*
G75*
G03*
X83324880Y72037794I-1J-1999999D01*
G01*
X81724880Y78437794D02*
G75*
G03*
X79224880Y75937794I0J-2500000D01*
G01*
D10*
X89788880Y76517794D02*
G75*
G03*
X89788880Y76517794I-1524000J0D01*
G01*
X83438880Y73977794D02*
G75*
G03*
X83438880Y73977794I-1524000J0D01*
G01*
%TO.C,MX5*%
X35686880Y75247794D02*
X33146880Y75247794D01*
X35686880Y77787794D02*
X35686880Y75247794D01*
D11*
X33874880Y78437794D02*
X33874880Y74037794D01*
X33874880Y78437794D02*
X24574880Y78437794D01*
D10*
X33146880Y75247794D02*
X33146880Y77787794D01*
X33146880Y77787794D02*
X35686880Y77787794D01*
D11*
X28174880Y74037794D02*
X33874880Y74037794D01*
D10*
X22732880Y72707794D02*
X22732880Y75247794D01*
X22732880Y75247794D02*
X20192880Y75247794D01*
D11*
X22074880Y72037794D02*
X26174880Y72037794D01*
X22074880Y75937794D02*
X22074880Y72037794D01*
D10*
X20192880Y72707794D02*
X22732880Y72707794D01*
X20192880Y75247794D02*
X20192880Y72707794D01*
D11*
X28174880Y74037794D02*
G75*
G03*
X26174880Y72037794I-1J-1999999D01*
G01*
X24574880Y78437794D02*
G75*
G03*
X22074880Y75937794I0J-2500000D01*
G01*
D10*
X32638880Y76517794D02*
G75*
G03*
X32638880Y76517794I-1524000J0D01*
G01*
X26288880Y73977794D02*
G75*
G03*
X26288880Y73977794I-1524000J0D01*
G01*
D12*
%TO.C,C_3V-Decoup8*%
X25749611Y35878186D02*
X25099073Y36528724D01*
X25099073Y36528724D02*
X23812139Y35241790D01*
X24462677Y34591252D02*
X25749611Y35878186D01*
X23812139Y35241790D02*
X24462677Y34591252D01*
D10*
%TO.C,MX24*%
X130936880Y75247794D02*
X128396880Y75247794D01*
X130936880Y77787794D02*
X130936880Y75247794D01*
D11*
X129124880Y78437794D02*
X129124880Y74037794D01*
X129124880Y78437794D02*
X119824880Y78437794D01*
D10*
X128396880Y75247794D02*
X128396880Y77787794D01*
X128396880Y77787794D02*
X130936880Y77787794D01*
D11*
X123424880Y74037794D02*
X129124880Y74037794D01*
D10*
X117982880Y72707794D02*
X117982880Y75247794D01*
X117982880Y75247794D02*
X115442880Y75247794D01*
D11*
X117324880Y72037794D02*
X121424880Y72037794D01*
X117324880Y75937794D02*
X117324880Y72037794D01*
D10*
X115442880Y72707794D02*
X117982880Y72707794D01*
X115442880Y75247794D02*
X115442880Y72707794D01*
D11*
X123424880Y74037794D02*
G75*
G03*
X121424880Y72037794I-1J-1999999D01*
G01*
X119824880Y78437794D02*
G75*
G03*
X117324880Y75937794I0J-2500000D01*
G01*
D10*
X127888880Y76517794D02*
G75*
G03*
X127888880Y76517794I-1524000J0D01*
G01*
X121538880Y73977794D02*
G75*
G03*
X121538880Y73977794I-1524000J0D01*
G01*
D12*
%TO.C,C_Flash1*%
X40464323Y46001521D02*
X40464323Y45081521D01*
X40464323Y45081521D02*
X42284323Y45081521D01*
X42284323Y46001521D02*
X40464323Y46001521D01*
X42284323Y45081521D02*
X42284323Y46001521D01*
D10*
%TO.C,MX21*%
X116649380Y56197794D02*
X114109380Y56197794D01*
X116649380Y58737794D02*
X116649380Y56197794D01*
D11*
X114837380Y59387794D02*
X114837380Y54987794D01*
X114837380Y59387794D02*
X105537380Y59387794D01*
D10*
X114109380Y56197794D02*
X114109380Y58737794D01*
X114109380Y58737794D02*
X116649380Y58737794D01*
D11*
X109137380Y54987794D02*
X114837380Y54987794D01*
D10*
X103695380Y53657794D02*
X103695380Y56197794D01*
X103695380Y56197794D02*
X101155380Y56197794D01*
D11*
X103037380Y52987794D02*
X107137380Y52987794D01*
X103037380Y56887794D02*
X103037380Y52987794D01*
D10*
X101155380Y53657794D02*
X103695380Y53657794D01*
X101155380Y56197794D02*
X101155380Y53657794D01*
D11*
X109137380Y54987794D02*
G75*
G03*
X107137380Y52987794I-1J-1999999D01*
G01*
X105537380Y59387794D02*
G75*
G03*
X103037380Y56887794I0J-2500000D01*
G01*
D10*
X113601380Y57467794D02*
G75*
G03*
X113601380Y57467794I-1524000J0D01*
G01*
X107251380Y54927794D02*
G75*
G03*
X107251380Y54927794I-1524000J0D01*
G01*
%TO.C,MX32*%
X173799380Y56197794D02*
X171259380Y56197794D01*
X173799380Y58737794D02*
X173799380Y56197794D01*
D11*
X171987380Y59387794D02*
X171987380Y54987794D01*
X171987380Y59387794D02*
X162687380Y59387794D01*
D10*
X171259380Y56197794D02*
X171259380Y58737794D01*
X171259380Y58737794D02*
X173799380Y58737794D01*
D11*
X166287380Y54987794D02*
X171987380Y54987794D01*
D10*
X160845380Y53657794D02*
X160845380Y56197794D01*
X160845380Y56197794D02*
X158305380Y56197794D01*
D11*
X160187380Y52987794D02*
X164287380Y52987794D01*
X160187380Y56887794D02*
X160187380Y52987794D01*
D10*
X158305380Y53657794D02*
X160845380Y53657794D01*
X158305380Y56197794D02*
X158305380Y53657794D01*
D11*
X166287380Y54987794D02*
G75*
G03*
X164287380Y52987794I-1J-1999999D01*
G01*
X162687380Y59387794D02*
G75*
G03*
X160187380Y56887794I0J-2500000D01*
G01*
D10*
X170751380Y57467794D02*
G75*
G03*
X170751380Y57467794I-1524000J0D01*
G01*
X164401380Y54927794D02*
G75*
G03*
X164401380Y54927794I-1524000J0D01*
G01*
%TO.C,MX38*%
X197611880Y18097794D02*
X195071880Y18097794D01*
X197611880Y20637794D02*
X197611880Y18097794D01*
D11*
X195799880Y21287794D02*
X195799880Y16887794D01*
X195799880Y21287794D02*
X186499880Y21287794D01*
D10*
X195071880Y18097794D02*
X195071880Y20637794D01*
X195071880Y20637794D02*
X197611880Y20637794D01*
D11*
X190099880Y16887794D02*
X195799880Y16887794D01*
D10*
X184657880Y15557794D02*
X184657880Y18097794D01*
X184657880Y18097794D02*
X182117880Y18097794D01*
D11*
X183999880Y14887794D02*
X188099880Y14887794D01*
X183999880Y18787794D02*
X183999880Y14887794D01*
D10*
X182117880Y15557794D02*
X184657880Y15557794D01*
X182117880Y18097794D02*
X182117880Y15557794D01*
D11*
X190099880Y16887794D02*
G75*
G03*
X188099880Y14887794I-1J-1999999D01*
G01*
X186499880Y21287794D02*
G75*
G03*
X183999880Y18787794I0J-2500000D01*
G01*
D10*
X194563880Y19367794D02*
G75*
G03*
X194563880Y19367794I-1524000J0D01*
G01*
X188213880Y16827794D02*
G75*
G03*
X188213880Y16827794I-1524000J0D01*
G01*
D12*
%TO.C,D10*%
X60085907Y46465862D02*
X57785907Y46465862D01*
X60085907Y46465862D02*
X60085907Y51165862D01*
X57785907Y51165862D02*
X57785907Y46465862D01*
X60085907Y51165862D02*
X57785907Y51165862D01*
D10*
%TO.C,MX20*%
X111886880Y75247794D02*
X109346880Y75247794D01*
X111886880Y77787794D02*
X111886880Y75247794D01*
D11*
X110074880Y78437794D02*
X110074880Y74037794D01*
X110074880Y78437794D02*
X100774880Y78437794D01*
D10*
X109346880Y75247794D02*
X109346880Y77787794D01*
X109346880Y77787794D02*
X111886880Y77787794D01*
D11*
X104374880Y74037794D02*
X110074880Y74037794D01*
D10*
X98932880Y72707794D02*
X98932880Y75247794D01*
X98932880Y75247794D02*
X96392880Y75247794D01*
D11*
X98274880Y72037794D02*
X102374880Y72037794D01*
X98274880Y75937794D02*
X98274880Y72037794D01*
D10*
X96392880Y72707794D02*
X98932880Y72707794D01*
X96392880Y75247794D02*
X96392880Y72707794D01*
D11*
X104374880Y74037794D02*
G75*
G03*
X102374880Y72037794I-1J-1999999D01*
G01*
X100774880Y78437794D02*
G75*
G03*
X98274880Y75937794I0J-2500000D01*
G01*
D10*
X108838880Y76517794D02*
G75*
G03*
X108838880Y76517794I-1524000J0D01*
G01*
X102488880Y73977794D02*
G75*
G03*
X102488880Y73977794I-1524000J0D01*
G01*
D12*
%TO.C,D35*%
X193436019Y65813453D02*
X191136019Y65813453D01*
X193436019Y65813453D02*
X193436019Y70513453D01*
X191136019Y70513453D02*
X191136019Y65813453D01*
X193436019Y70513453D02*
X191136019Y70513453D01*
D10*
%TO.C,MX6*%
X40449380Y56197794D02*
X37909380Y56197794D01*
X40449380Y58737794D02*
X40449380Y56197794D01*
D11*
X38637380Y59387794D02*
X38637380Y54987794D01*
X38637380Y59387794D02*
X29337380Y59387794D01*
D10*
X37909380Y56197794D02*
X37909380Y58737794D01*
X37909380Y58737794D02*
X40449380Y58737794D01*
D11*
X32937380Y54987794D02*
X38637380Y54987794D01*
D10*
X27495380Y53657794D02*
X27495380Y56197794D01*
X27495380Y56197794D02*
X24955380Y56197794D01*
D11*
X26837380Y52987794D02*
X30937380Y52987794D01*
X26837380Y56887794D02*
X26837380Y52987794D01*
D10*
X24955380Y53657794D02*
X27495380Y53657794D01*
X24955380Y56197794D02*
X24955380Y53657794D01*
D11*
X32937380Y54987794D02*
G75*
G03*
X30937380Y52987794I-1J-1999999D01*
G01*
X29337380Y59387794D02*
G75*
G03*
X26837380Y56887794I0J-2500000D01*
G01*
D10*
X37401380Y57467794D02*
G75*
G03*
X37401380Y57467794I-1524000J0D01*
G01*
X31051380Y54927794D02*
G75*
G03*
X31051380Y54927794I-1524000J0D01*
G01*
D12*
%TO.C,D38*%
X195817271Y5984578D02*
X193517271Y5984578D01*
X195817271Y5984578D02*
X195817271Y10684578D01*
X193517271Y10684578D02*
X193517271Y5984578D01*
X195817271Y10684578D02*
X193517271Y10684578D01*
%TO.C,D19*%
X89851557Y5984578D02*
X87551557Y5984578D01*
X89851557Y5984578D02*
X89851557Y10684578D01*
X87551557Y10684578D02*
X87551557Y5984578D01*
X89851557Y10684578D02*
X87551557Y10684578D01*
%TO.C,U3*%
X13778164Y60885627D02*
X13778164Y64725627D01*
X17178164Y60885627D02*
X13778164Y60885627D01*
X13778164Y64725627D02*
X17178164Y64725627D01*
X17178164Y64725627D02*
X17178164Y60885627D01*
D10*
%TO.C,MX36*%
X195230630Y56197794D02*
X192690630Y56197794D01*
X195230630Y58737794D02*
X195230630Y56197794D01*
D11*
X193418630Y59387794D02*
X193418630Y54987794D01*
X193418630Y59387794D02*
X184118630Y59387794D01*
D10*
X192690630Y56197794D02*
X192690630Y58737794D01*
X192690630Y58737794D02*
X195230630Y58737794D01*
D11*
X187718630Y54987794D02*
X193418630Y54987794D01*
D10*
X182276630Y53657794D02*
X179736630Y53657794D01*
X182276630Y56197794D02*
X182276630Y53657794D01*
D11*
X181618630Y52987794D02*
X185718630Y52987794D01*
X181618630Y56887794D02*
X181618630Y52987794D01*
D10*
X179736630Y53657794D02*
X179736630Y56197794D01*
X179736630Y56197794D02*
X182276630Y56197794D01*
D11*
X187718630Y54987794D02*
G75*
G03*
X185718630Y52987794I-1J-1999999D01*
G01*
X184118630Y59387794D02*
G75*
G03*
X181618630Y56887794I0J-2500000D01*
G01*
D10*
X192182630Y57467794D02*
G75*
G03*
X192182630Y57467794I-1524000J0D01*
G01*
X185832630Y54927794D02*
G75*
G03*
X185832630Y54927794I-1524000J0D01*
G01*
D12*
%TO.C,D25*%
X136285971Y46465862D02*
X133985971Y46465862D01*
X136285971Y46465862D02*
X136285971Y51165862D01*
X133985971Y51165862D02*
X133985971Y46465862D01*
X136285971Y51165862D02*
X133985971Y51165862D01*
D10*
%TO.C,MX37*%
X197611880Y37147794D02*
X195071880Y37147794D01*
X197611880Y39687794D02*
X197611880Y37147794D01*
D11*
X195799880Y40337794D02*
X195799880Y35937794D01*
X195799880Y40337794D02*
X186499880Y40337794D01*
D10*
X195071880Y37147794D02*
X195071880Y39687794D01*
X195071880Y39687794D02*
X197611880Y39687794D01*
D11*
X190099880Y35937794D02*
X195799880Y35937794D01*
D10*
X184657880Y34607794D02*
X184657880Y37147794D01*
X184657880Y37147794D02*
X182117880Y37147794D01*
D11*
X183999880Y33937794D02*
X188099880Y33937794D01*
X183999880Y37837794D02*
X183999880Y33937794D01*
D10*
X182117880Y34607794D02*
X184657880Y34607794D01*
X182117880Y37147794D02*
X182117880Y34607794D01*
D11*
X190099880Y35937794D02*
G75*
G03*
X188099880Y33937794I-1J-1999999D01*
G01*
X186499880Y40337794D02*
G75*
G03*
X183999880Y37837794I0J-2500000D01*
G01*
D10*
X194563880Y38417794D02*
G75*
G03*
X194563880Y38417794I-1524000J0D01*
G01*
X188213880Y35877794D02*
G75*
G03*
X188213880Y35877794I-1524000J0D01*
G01*
%TO.C,MX8*%
X35686880Y18097794D02*
X33146880Y18097794D01*
X35686880Y20637794D02*
X35686880Y18097794D01*
D11*
X33874880Y21287794D02*
X33874880Y16887794D01*
X33874880Y21287794D02*
X24574880Y21287794D01*
D10*
X33146880Y18097794D02*
X33146880Y20637794D01*
X33146880Y20637794D02*
X35686880Y20637794D01*
D11*
X28174880Y16887794D02*
X33874880Y16887794D01*
D10*
X22732880Y15557794D02*
X22732880Y18097794D01*
X22732880Y18097794D02*
X20192880Y18097794D01*
D11*
X22074880Y14887794D02*
X26174880Y14887794D01*
X22074880Y18787794D02*
X22074880Y14887794D01*
D10*
X20192880Y15557794D02*
X22732880Y15557794D01*
X20192880Y18097794D02*
X20192880Y15557794D01*
D11*
X28174880Y16887794D02*
G75*
G03*
X26174880Y14887794I-1J-1999999D01*
G01*
X24574880Y21287794D02*
G75*
G03*
X22074880Y18787794I0J-2500000D01*
G01*
D10*
X32638880Y19367794D02*
G75*
G03*
X32638880Y19367794I-1524000J0D01*
G01*
X26288880Y16827794D02*
G75*
G03*
X26288880Y16827794I-1524000J0D01*
G01*
D12*
%TO.C,D11*%
X64848411Y27415846D02*
X62548411Y27415846D01*
X64848411Y27415846D02*
X64848411Y32115846D01*
X62548411Y32115846D02*
X62548411Y27415846D01*
X64848411Y32115846D02*
X62548411Y32115846D01*
%TO.C,C_1V-Decoup3*%
X24907710Y36720087D02*
X24257172Y37370625D01*
X24257172Y37370625D02*
X22970238Y36083691D01*
X23620776Y35433153D02*
X24907710Y36720087D01*
X22970238Y36083691D02*
X23620776Y35433153D01*
D10*
%TO.C,MX26*%
X140461880Y37147794D02*
X137921880Y37147794D01*
X140461880Y39687794D02*
X140461880Y37147794D01*
D11*
X138649880Y40337794D02*
X138649880Y35937794D01*
X138649880Y40337794D02*
X129349880Y40337794D01*
D10*
X137921880Y37147794D02*
X137921880Y39687794D01*
X137921880Y39687794D02*
X140461880Y39687794D01*
D11*
X132949880Y35937794D02*
X138649880Y35937794D01*
D10*
X127507880Y34607794D02*
X127507880Y37147794D01*
X127507880Y37147794D02*
X124967880Y37147794D01*
D11*
X126849880Y33937794D02*
X130949880Y33937794D01*
X126849880Y37837794D02*
X126849880Y33937794D01*
D10*
X124967880Y34607794D02*
X127507880Y34607794D01*
X124967880Y37147794D02*
X124967880Y34607794D01*
D11*
X132949880Y35937794D02*
G75*
G03*
X130949880Y33937794I-1J-1999999D01*
G01*
X129349880Y40337794D02*
G75*
G03*
X126849880Y37837794I0J-2500000D01*
G01*
D10*
X137413880Y38417794D02*
G75*
G03*
X137413880Y38417794I-1524000J0D01*
G01*
X131063880Y35877794D02*
G75*
G03*
X131063880Y35877794I-1524000J0D01*
G01*
D12*
%TO.C,D18*%
X102948443Y27415846D02*
X100648443Y27415846D01*
X102948443Y27415846D02*
X102948443Y32115846D01*
X100648443Y32115846D02*
X100648443Y27415846D01*
X102948443Y32115846D02*
X100648443Y32115846D01*
D10*
%TO.C,MX9*%
X54736880Y75247794D02*
X52196880Y75247794D01*
X54736880Y77787794D02*
X54736880Y75247794D01*
D11*
X52924880Y78437794D02*
X52924880Y74037794D01*
X52924880Y78437794D02*
X43624880Y78437794D01*
D10*
X52196880Y75247794D02*
X52196880Y77787794D01*
X52196880Y77787794D02*
X54736880Y77787794D01*
D11*
X47224880Y74037794D02*
X52924880Y74037794D01*
D10*
X41782880Y72707794D02*
X41782880Y75247794D01*
X41782880Y75247794D02*
X39242880Y75247794D01*
D11*
X41124880Y72037794D02*
X45224880Y72037794D01*
X41124880Y75937794D02*
X41124880Y72037794D01*
D10*
X39242880Y72707794D02*
X41782880Y72707794D01*
X39242880Y75247794D02*
X39242880Y72707794D01*
D11*
X47224880Y74037794D02*
G75*
G03*
X45224880Y72037794I-1J-1999999D01*
G01*
X43624880Y78437794D02*
G75*
G03*
X41124880Y75937794I0J-2500000D01*
G01*
D10*
X51688880Y76517794D02*
G75*
G03*
X51688880Y76517794I-1524000J0D01*
G01*
X45338880Y73977794D02*
G75*
G03*
X45338880Y73977794I-1524000J0D01*
G01*
D12*
%TO.C,D34*%
X179148507Y5984578D02*
X176848507Y5984578D01*
X179148507Y5984578D02*
X179148507Y10684578D01*
X176848507Y10684578D02*
X176848507Y5984578D01*
X179148507Y10684578D02*
X176848507Y10684578D01*
%TO.C,D2*%
X19604623Y46465862D02*
X17304623Y46465862D01*
X19604623Y46465862D02*
X19604623Y51165862D01*
X17304623Y51165862D02*
X17304623Y46465862D01*
X19604623Y51165862D02*
X17304623Y51165862D01*
%TO.C,D3*%
X21985875Y27415846D02*
X19685875Y27415846D01*
X21985875Y27415846D02*
X21985875Y32115846D01*
X19685875Y32115846D02*
X19685875Y27415846D01*
X21985875Y32115846D02*
X19685875Y32115846D01*
%TO.C,D29*%
X160098491Y27415846D02*
X157798491Y27415846D01*
X160098491Y27415846D02*
X160098491Y32115846D01*
X157798491Y32115846D02*
X157798491Y27415846D01*
X160098491Y32115846D02*
X157798491Y32115846D01*
%TO.C,D16*%
X93423670Y65813453D02*
X91123670Y65813453D01*
X93423670Y65813453D02*
X93423670Y70513453D01*
X91123670Y70513453D02*
X91123670Y65813453D01*
X93423670Y70513453D02*
X91123670Y70513453D01*
%TO.C,C_3V-Decoup6*%
X30641642Y47192149D02*
X30641642Y46272149D01*
X30641642Y46272149D02*
X32461642Y46272149D01*
X32461642Y47192149D02*
X30641642Y47192149D01*
X32461642Y46272149D02*
X32461642Y47192149D01*
%TO.C,D30*%
X160098491Y5984578D02*
X157798491Y5984578D01*
X160098491Y5984578D02*
X160098491Y10684578D01*
X157798491Y10684578D02*
X157798491Y5984578D01*
X160098491Y10684578D02*
X157798491Y10684578D01*
%TO.C,D1*%
X17223478Y65813453D02*
X14923478Y65813453D01*
X17223478Y65813453D02*
X17223478Y70513453D01*
X14923478Y70513453D02*
X14923478Y65813453D01*
X17223478Y70513453D02*
X14923478Y70513453D01*
%TO.C,C_3V-Decoup1*%
X15908164Y49066376D02*
X15908164Y49986376D01*
X15908164Y49986376D02*
X14088164Y49986376D01*
X14088164Y49066376D02*
X15908164Y49066376D01*
X14088164Y49986376D02*
X14088164Y49066376D01*
%TO.C,C_LD1*%
X17697077Y63875627D02*
X18617077Y63875627D01*
X18617077Y63875627D02*
X18617077Y65695627D01*
X17697077Y65695627D02*
X17697077Y63875627D01*
X18617077Y65695627D02*
X17697077Y65695627D01*
D10*
%TO.C,MX7*%
X45211880Y37147794D02*
X42671880Y37147794D01*
X45211880Y39687794D02*
X45211880Y37147794D01*
D11*
X43399880Y40337794D02*
X43399880Y35937794D01*
X43399880Y40337794D02*
X34099880Y40337794D01*
D10*
X42671880Y37147794D02*
X42671880Y39687794D01*
X42671880Y39687794D02*
X45211880Y39687794D01*
D11*
X37699880Y35937794D02*
X43399880Y35937794D01*
D10*
X32257880Y34607794D02*
X32257880Y37147794D01*
X32257880Y37147794D02*
X29717880Y37147794D01*
D11*
X31599880Y33937794D02*
X35699880Y33937794D01*
X31599880Y37837794D02*
X31599880Y33937794D01*
D10*
X29717880Y34607794D02*
X32257880Y34607794D01*
X29717880Y37147794D02*
X29717880Y34607794D01*
D11*
X37699880Y35937794D02*
G75*
G03*
X35699880Y33937794I-1J-1999999D01*
G01*
X34099880Y40337794D02*
G75*
G03*
X31599880Y37837794I0J-2500000D01*
G01*
D10*
X42163880Y38417794D02*
G75*
G03*
X42163880Y38417794I-1524000J0D01*
G01*
X35813880Y35877794D02*
G75*
G03*
X35813880Y35877794I-1524000J0D01*
G01*
D12*
%TO.C,R_RST1*%
X17227077Y26777874D02*
X17227077Y25837874D01*
X17227077Y25837874D02*
X19087077Y25837874D01*
X19087077Y26777874D02*
X17227077Y26777874D01*
X19087077Y25837874D02*
X19087077Y26777874D01*
D10*
%TO.C,MX12*%
X54736880Y18097794D02*
X52196880Y18097794D01*
X54736880Y20637794D02*
X54736880Y18097794D01*
D11*
X52924880Y21287794D02*
X52924880Y16887794D01*
X52924880Y21287794D02*
X43624880Y21287794D01*
D10*
X52196880Y18097794D02*
X52196880Y20637794D01*
X52196880Y20637794D02*
X54736880Y20637794D01*
D11*
X47224880Y16887794D02*
X52924880Y16887794D01*
D10*
X41782880Y15557794D02*
X41782880Y18097794D01*
X41782880Y18097794D02*
X39242880Y18097794D01*
D11*
X41124880Y14887794D02*
X45224880Y14887794D01*
X41124880Y18787794D02*
X41124880Y14887794D01*
D10*
X39242880Y15557794D02*
X41782880Y15557794D01*
X39242880Y18097794D02*
X39242880Y15557794D01*
D11*
X47224880Y16887794D02*
G75*
G03*
X45224880Y14887794I-1J-1999999D01*
G01*
X43624880Y21287794D02*
G75*
G03*
X41124880Y18787794I0J-2500000D01*
G01*
D10*
X51688880Y19367794D02*
G75*
G03*
X51688880Y19367794I-1524000J0D01*
G01*
X45338880Y16827794D02*
G75*
G03*
X45338880Y16827794I-1524000J0D01*
G01*
%TO.C,MX3*%
X21399380Y37147794D02*
X18859380Y37147794D01*
X21399380Y39687794D02*
X21399380Y37147794D01*
D11*
X19587380Y40337794D02*
X19587380Y35937794D01*
X19587380Y40337794D02*
X10287380Y40337794D01*
D10*
X18859380Y37147794D02*
X18859380Y39687794D01*
X18859380Y39687794D02*
X21399380Y39687794D01*
D11*
X13887380Y35937794D02*
X19587380Y35937794D01*
D10*
X8445380Y34607794D02*
X5905380Y34607794D01*
X8445380Y37147794D02*
X8445380Y34607794D01*
D11*
X7787380Y33937794D02*
X11887380Y33937794D01*
X7787380Y37837794D02*
X7787380Y33937794D01*
D10*
X5905380Y34607794D02*
X5905380Y37147794D01*
X5905380Y37147794D02*
X8445380Y37147794D01*
D11*
X13887380Y35937794D02*
G75*
G03*
X11887380Y33937794I-1J-1999999D01*
G01*
X10287380Y40337794D02*
G75*
G03*
X7787380Y37837794I0J-2500000D01*
G01*
D10*
X18351380Y38417794D02*
G75*
G03*
X18351380Y38417794I-1524000J0D01*
G01*
X12001380Y35877794D02*
G75*
G03*
X12001380Y35877794I-1524000J0D01*
G01*
D12*
%TO.C,U2*%
X32858700Y40593984D02*
X32858700Y49893984D01*
X38578700Y40593984D02*
X32858700Y40593984D01*
X32858700Y49893984D02*
X38578700Y49893984D01*
X38578700Y49893984D02*
X38578700Y40593984D01*
%TO.C,D33*%
X179148507Y27415846D02*
X176848507Y27415846D01*
X179148507Y27415846D02*
X179148507Y32115846D01*
X176848507Y32115846D02*
X176848507Y27415846D01*
X179148507Y32115846D02*
X176848507Y32115846D01*
%TO.C,D36*%
X195817271Y46465862D02*
X193517271Y46465862D01*
X195817271Y46465862D02*
X195817271Y51165862D01*
X193517271Y51165862D02*
X193517271Y46465862D01*
X195817271Y51165862D02*
X193517271Y51165862D01*
%TO.C,D7*%
X45798395Y27415846D02*
X43498395Y27415846D01*
X45798395Y27415846D02*
X45798395Y32115846D01*
X43498395Y32115846D02*
X43498395Y27415846D01*
X45798395Y32115846D02*
X43498395Y32115846D01*
%TO.C,D12*%
X55323403Y5984578D02*
X53023403Y5984578D01*
X55323403Y5984578D02*
X55323403Y10684578D01*
X53023403Y10684578D02*
X53023403Y5984578D01*
X55323403Y10684578D02*
X53023403Y10684578D01*
%TO.C,C_1V-Decoup1*%
X23650217Y49096376D02*
X24570217Y49096376D01*
X24570217Y49096376D02*
X24570217Y50916376D01*
X23650217Y50916376D02*
X23650217Y49096376D01*
X24570217Y50916376D02*
X23650217Y50916376D01*
%TO.C,C_3V-Decoup3*%
X25448864Y49985835D02*
X26099402Y49335297D01*
X26099402Y49335297D02*
X27386336Y50622231D01*
X26735798Y51272769D02*
X25448864Y49985835D01*
X27386336Y50622231D02*
X26735798Y51272769D01*
D10*
%TO.C,MX27*%
X149986880Y75247794D02*
X147446880Y75247794D01*
X149986880Y77787794D02*
X149986880Y75247794D01*
D11*
X148174880Y78437794D02*
X148174880Y74037794D01*
X148174880Y78437794D02*
X138874880Y78437794D01*
D10*
X147446880Y75247794D02*
X147446880Y77787794D01*
X147446880Y77787794D02*
X149986880Y77787794D01*
D11*
X142474880Y74037794D02*
X148174880Y74037794D01*
D10*
X137032880Y72707794D02*
X137032880Y75247794D01*
X137032880Y75247794D02*
X134492880Y75247794D01*
D11*
X136374880Y72037794D02*
X140474880Y72037794D01*
X136374880Y75937794D02*
X136374880Y72037794D01*
D10*
X134492880Y72707794D02*
X137032880Y72707794D01*
X134492880Y75247794D02*
X134492880Y72707794D01*
D11*
X142474880Y74037794D02*
G75*
G03*
X140474880Y72037794I-1J-1999999D01*
G01*
X138874880Y78437794D02*
G75*
G03*
X136374880Y75937794I0J-2500000D01*
G01*
D10*
X146938880Y76517794D02*
G75*
G03*
X146938880Y76517794I-1524000J0D01*
G01*
X140588880Y73977794D02*
G75*
G03*
X140588880Y73977794I-1524000J0D01*
G01*
D12*
%TO.C,D22*%
X121998459Y27415846D02*
X119698459Y27415846D01*
X121998459Y27415846D02*
X121998459Y32115846D01*
X119698459Y32115846D02*
X119698459Y27415846D01*
X121998459Y32115846D02*
X119698459Y32115846D01*
%TO.C,U1*%
X30398188Y38742608D02*
X22158188Y38742608D01*
X30398188Y46982608D02*
X30398188Y38742608D01*
X22158188Y38742608D02*
X22158188Y46982608D01*
X22158188Y46982608D02*
X30398188Y46982608D01*
%TO.C,J2*%
X3649880Y38762794D02*
X49880Y38762794D01*
X3649880Y52512794D02*
X3649880Y38762794D01*
X49880Y38762794D02*
X49880Y52512794D01*
X49880Y52512794D02*
X3649880Y52512794D01*
%TO.C,D27*%
X150573483Y65813453D02*
X148273483Y65813453D01*
X150573483Y65813453D02*
X150573483Y70513453D01*
X148273483Y70513453D02*
X148273483Y65813453D01*
X150573483Y70513453D02*
X148273483Y70513453D01*
%TO.C,C_Crystal2*%
X25652632Y30249138D02*
X26303170Y30899676D01*
X26303170Y30899676D02*
X25016236Y32186610D01*
X24365698Y31536072D02*
X25652632Y30249138D01*
X25016236Y32186610D02*
X24365698Y31536072D01*
D10*
%TO.C,MX28*%
X154749380Y56197794D02*
X152209380Y56197794D01*
X154749380Y58737794D02*
X154749380Y56197794D01*
D11*
X152937380Y59387794D02*
X152937380Y54987794D01*
X152937380Y59387794D02*
X143637380Y59387794D01*
D10*
X152209380Y56197794D02*
X152209380Y58737794D01*
X152209380Y58737794D02*
X154749380Y58737794D01*
D11*
X147237380Y54987794D02*
X152937380Y54987794D01*
D10*
X141795380Y53657794D02*
X141795380Y56197794D01*
X141795380Y56197794D02*
X139255380Y56197794D01*
D11*
X141137380Y52987794D02*
X145237380Y52987794D01*
X141137380Y56887794D02*
X141137380Y52987794D01*
D10*
X139255380Y53657794D02*
X141795380Y53657794D01*
X139255380Y56197794D02*
X139255380Y53657794D01*
D11*
X147237380Y54987794D02*
G75*
G03*
X145237380Y52987794I-1J-1999999D01*
G01*
X143637380Y59387794D02*
G75*
G03*
X141137380Y56887794I0J-2500000D01*
G01*
D10*
X151701380Y57467794D02*
G75*
G03*
X151701380Y57467794I-1524000J0D01*
G01*
X145351380Y54927794D02*
G75*
G03*
X145351380Y54927794I-1524000J0D01*
G01*
%TO.C,MX25*%
X135699380Y56197794D02*
X133159380Y56197794D01*
X135699380Y58737794D02*
X135699380Y56197794D01*
D11*
X133887380Y59387794D02*
X133887380Y54987794D01*
X133887380Y59387794D02*
X124587380Y59387794D01*
D10*
X133159380Y56197794D02*
X133159380Y58737794D01*
X133159380Y58737794D02*
X135699380Y58737794D01*
D11*
X128187380Y54987794D02*
X133887380Y54987794D01*
D10*
X122745380Y53657794D02*
X122745380Y56197794D01*
X122745380Y56197794D02*
X120205380Y56197794D01*
D11*
X122087380Y52987794D02*
X126187380Y52987794D01*
X122087380Y56887794D02*
X122087380Y52987794D01*
D10*
X120205380Y53657794D02*
X122745380Y53657794D01*
X120205380Y56197794D02*
X120205380Y53657794D01*
D11*
X128187380Y54987794D02*
G75*
G03*
X126187380Y52987794I-1J-1999999D01*
G01*
X124587380Y59387794D02*
G75*
G03*
X122087380Y56887794I0J-2500000D01*
G01*
D10*
X132651380Y57467794D02*
G75*
G03*
X132651380Y57467794I-1524000J0D01*
G01*
X126301380Y54927794D02*
G75*
G03*
X126301380Y54927794I-1524000J0D01*
G01*
D12*
%TO.C,D9*%
X55323574Y65813453D02*
X53023574Y65813453D01*
X55323574Y65813453D02*
X55323574Y70513453D01*
X53023574Y70513453D02*
X53023574Y65813453D01*
X55323574Y70513453D02*
X53023574Y70513453D01*
%TO.C,D24*%
X131523467Y65813453D02*
X129223467Y65813453D01*
X131523467Y65813453D02*
X131523467Y70513453D01*
X129223467Y70513453D02*
X129223467Y65813453D01*
X131523467Y70513453D02*
X129223467Y70513453D01*
%TO.C,C_3V-Decoup5*%
X21861304Y46272149D02*
X21861304Y47192149D01*
X21861304Y47192149D02*
X20041304Y47192149D01*
X20041304Y46272149D02*
X21861304Y46272149D01*
X20041304Y47192149D02*
X20041304Y46272149D01*
%TO.C,R_DATA2*%
X21999006Y54270552D02*
X21334326Y53605872D01*
X21334326Y53605872D02*
X22649544Y52290654D01*
X23314224Y52955334D02*
X21999006Y54270552D01*
X22649544Y52290654D02*
X23314224Y52955334D01*
D10*
%TO.C,MX34*%
X178561880Y18097794D02*
X176021880Y18097794D01*
X178561880Y20637794D02*
X178561880Y18097794D01*
D11*
X176749880Y21287794D02*
X176749880Y16887794D01*
X176749880Y21287794D02*
X167449880Y21287794D01*
D10*
X176021880Y18097794D02*
X176021880Y20637794D01*
X176021880Y20637794D02*
X178561880Y20637794D01*
D11*
X171049880Y16887794D02*
X176749880Y16887794D01*
D10*
X165607880Y15557794D02*
X165607880Y18097794D01*
X165607880Y18097794D02*
X163067880Y18097794D01*
D11*
X164949880Y14887794D02*
X169049880Y14887794D01*
X164949880Y18787794D02*
X164949880Y14887794D01*
D10*
X163067880Y15557794D02*
X165607880Y15557794D01*
X163067880Y18097794D02*
X163067880Y15557794D01*
D11*
X171049880Y16887794D02*
G75*
G03*
X169049880Y14887794I-1J-1999999D01*
G01*
X167449880Y21287794D02*
G75*
G03*
X164949880Y18787794I0J-2500000D01*
G01*
D10*
X175513880Y19367794D02*
G75*
G03*
X175513880Y19367794I-1524000J0D01*
G01*
X169163880Y16827794D02*
G75*
G03*
X169163880Y16827794I-1524000J0D01*
G01*
D12*
%TO.C,C_LD2*%
X12339251Y63875627D02*
X13259251Y63875627D01*
X13259251Y63875627D02*
X13259251Y65695627D01*
X12339251Y65695627D02*
X12339251Y63875627D01*
X13259251Y65695627D02*
X12339251Y65695627D01*
%TO.C,J1*%
X25529880Y66705627D02*
X25529880Y58905627D01*
X18969880Y66705627D02*
X25529880Y66705627D01*
X25529880Y58905627D02*
X18969880Y58905627D01*
X18969880Y58905627D02*
X18969880Y66705627D01*
D10*
%TO.C,MX19*%
X88074380Y13335294D02*
X85534380Y13335294D01*
X88074380Y15875294D02*
X88074380Y13335294D01*
D11*
X86262380Y16525294D02*
X86262380Y12125294D01*
X86262380Y16525294D02*
X76962380Y16525294D01*
D10*
X85534380Y13335294D02*
X85534380Y15875294D01*
X85534380Y15875294D02*
X88074380Y15875294D01*
D11*
X80562380Y12125294D02*
X86262380Y12125294D01*
D10*
X75120380Y10795294D02*
X72580380Y10795294D01*
X75120380Y13335294D02*
X75120380Y10795294D01*
D11*
X74462380Y10125294D02*
X78562380Y10125294D01*
X74462380Y14025294D02*
X74462380Y10125294D01*
D10*
X72580380Y10795294D02*
X72580380Y13335294D01*
X72580380Y13335294D02*
X75120380Y13335294D01*
D11*
X80562380Y12125294D02*
G75*
G03*
X78562380Y10125294I-1J-1999999D01*
G01*
X76962380Y16525294D02*
G75*
G03*
X74462380Y14025294I0J-2500000D01*
G01*
D10*
X85026380Y14605294D02*
G75*
G03*
X85026380Y14605294I-1524000J0D01*
G01*
X78676380Y12065294D02*
G75*
G03*
X78676380Y12065294I-1524000J0D01*
G01*
D12*
%TO.C,D21*%
X117235955Y46465862D02*
X114935955Y46465862D01*
X117235955Y46465862D02*
X117235955Y51165862D01*
X114935955Y51165862D02*
X114935955Y46465862D01*
X117235955Y51165862D02*
X114935955Y51165862D01*
%TO.C,Y1*%
X24541706Y32829308D02*
X27511555Y35799157D01*
X26945869Y30425145D02*
X24541706Y32829308D01*
X27511555Y35799157D02*
X29915718Y33394994D01*
X29915718Y33394994D02*
X26945869Y30425145D01*
%TO.C,D5*%
X36273526Y65813453D02*
X33973526Y65813453D01*
X36273526Y65813453D02*
X36273526Y70513453D01*
X33973526Y70513453D02*
X33973526Y65813453D01*
X36273526Y70513453D02*
X33973526Y70513453D01*
D10*
%TO.C,MX31*%
X169036880Y75247794D02*
X166496880Y75247794D01*
X169036880Y77787794D02*
X169036880Y75247794D01*
D11*
X167224880Y78437794D02*
X167224880Y74037794D01*
X167224880Y78437794D02*
X157924880Y78437794D01*
D10*
X166496880Y75247794D02*
X166496880Y77787794D01*
X166496880Y77787794D02*
X169036880Y77787794D01*
D11*
X161524880Y74037794D02*
X167224880Y74037794D01*
D10*
X156082880Y72707794D02*
X156082880Y75247794D01*
X156082880Y75247794D02*
X153542880Y75247794D01*
D11*
X155424880Y72037794D02*
X159524880Y72037794D01*
X155424880Y75937794D02*
X155424880Y72037794D01*
D10*
X153542880Y72707794D02*
X156082880Y72707794D01*
X153542880Y75247794D02*
X153542880Y72707794D01*
D11*
X161524880Y74037794D02*
G75*
G03*
X159524880Y72037794I-1J-1999999D01*
G01*
X157924880Y78437794D02*
G75*
G03*
X155424880Y75937794I0J-2500000D01*
G01*
D10*
X165988880Y76517794D02*
G75*
G03*
X165988880Y76517794I-1524000J0D01*
G01*
X159638880Y73977794D02*
G75*
G03*
X159638880Y73977794I-1524000J0D01*
G01*
%TD*%
M02*
