M48
; DRILL file {KiCad 7.0.6} date Mon Jul 31 23:13:44 2023
; FORMAT={-:-/ absolute / metric / decimal}
; #@! TF.CreationDate,2023-07-31T23:13:44-04:00
; #@! TF.GenerationSoftware,Kicad,Pcbnew,7.0.6
; #@! TF.FileFunction,NonPlated,1,2,NPTH
FMAT,2
METRIC
; #@! TA.AperFunction,NonPlated,NPTH,ComponentDrill
T1C1.750
; #@! TA.AperFunction,NonPlated,NPTH,ComponentDrill
T2C3.000
; #@! TA.AperFunction,NonPlated,NPTH,ComponentDrill
T3C3.048
; #@! TA.AperFunction,NonPlated,NPTH,ComponentDrill
T4C3.988
%
G90
G05
T1
X4.445Y71.438
X4.445Y14.288
X6.826Y52.388
X11.589Y33.338
X14.605Y71.438
X14.605Y14.288
X16.986Y52.388
X21.749Y33.338
X23.495Y71.438
X23.495Y14.288
X28.257Y52.388
X33.655Y71.438
X33.655Y14.288
X37.782Y33.338
X38.417Y52.388
X42.545Y71.438
X42.545Y14.288
X47.307Y52.388
X47.942Y33.338
X52.705Y71.438
X52.705Y14.288
X56.832Y33.338
X57.467Y52.388
X61.595Y71.438
X66.357Y52.388
X66.992Y33.338
X71.755Y71.438
X75.882Y33.338
X75.882Y9.525
X76.517Y52.388
X80.645Y71.438
X85.407Y52.388
X86.042Y33.338
X86.042Y9.525
X90.805Y71.438
X94.932Y33.338
X94.932Y9.525
X95.567Y52.388
X99.695Y71.438
X104.457Y52.388
X105.092Y33.338
X105.092Y9.525
X109.855Y71.438
X113.982Y33.338
X113.982Y9.525
X114.617Y52.388
X118.745Y71.438
X123.507Y52.388
X124.142Y33.338
X124.142Y9.525
X128.905Y71.438
X133.032Y33.338
X133.667Y52.388
X137.795Y71.438
X142.557Y52.388
X143.192Y33.338
X147.32Y14.288
X147.955Y71.438
X152.082Y33.338
X152.717Y52.388
X156.845Y71.438
X157.48Y14.288
X161.607Y52.388
X162.242Y33.338
X166.37Y14.288
X167.005Y71.438
X171.767Y52.388
X176.53Y14.288
X178.276Y33.338
X180.657Y71.438
X183.039Y52.388
X185.42Y14.288
X188.436Y33.338
X190.817Y71.438
X193.199Y52.388
X195.58Y14.288
T2
X5.715Y73.978
X5.715Y16.828
X8.096Y54.928
X12.065Y76.518
X12.065Y19.368
X12.859Y35.878
X14.446Y57.468
X19.209Y38.418
X24.765Y73.978
X24.765Y16.828
X29.527Y54.928
X31.115Y76.518
X31.115Y19.368
X35.877Y57.468
X39.052Y35.878
X43.815Y73.978
X43.815Y16.828
X45.402Y38.418
X48.577Y54.928
X50.165Y76.518
X50.165Y19.368
X54.927Y57.468
X58.102Y35.878
X62.865Y73.978
X64.452Y38.418
X67.627Y54.928
X69.215Y76.518
X73.977Y57.468
X77.152Y35.878
X77.152Y12.065
X81.915Y73.978
X83.502Y38.418
X83.502Y14.605
X86.677Y54.928
X88.265Y76.518
X93.027Y57.468
X96.202Y35.878
X96.202Y12.065
X100.965Y73.978
X102.552Y38.418
X102.552Y14.605
X105.727Y54.928
X107.315Y76.518
X112.077Y57.468
X115.252Y35.878
X115.252Y12.065
X120.015Y73.978
X121.602Y38.418
X121.602Y14.605
X124.777Y54.928
X126.365Y76.518
X131.127Y57.468
X134.302Y35.878
X139.065Y73.978
X140.652Y38.418
X143.827Y54.928
X145.415Y76.518
X148.59Y16.828
X150.177Y57.468
X153.352Y35.878
X154.94Y19.368
X158.115Y73.978
X159.702Y38.418
X162.877Y54.928
X164.465Y76.518
X167.64Y16.828
X169.227Y57.468
X173.99Y19.368
X179.546Y35.878
X181.927Y73.978
X184.309Y54.928
X185.896Y38.418
X186.69Y16.828
X188.277Y76.518
X190.659Y57.468
X193.04Y19.368
T3
X69.024Y2.54
X71.437Y2.54
X92.9Y2.54
X107.124Y2.54
X128.587Y2.54
X131.0Y2.54
T4
X9.525Y71.438
X9.525Y14.288
X11.906Y52.388
X16.669Y33.338
X28.575Y71.438
X28.575Y14.288
X33.337Y52.388
X42.862Y33.338
X47.625Y71.438
X47.625Y14.288
X52.387Y52.388
X61.932Y33.338
X66.675Y71.438
X69.024Y17.78
X71.437Y52.388
X71.437Y17.78
X80.962Y33.338
X80.962Y9.525
X85.725Y71.438
X90.487Y52.388
X92.9Y17.78
X100.012Y33.338
X100.012Y9.525
X104.775Y71.438
X107.124Y17.78
X109.537Y52.388
X119.062Y33.338
X119.062Y9.525
X123.825Y71.438
X128.587Y52.388
X128.587Y17.78
X131.0Y17.78
X138.112Y33.338
X142.875Y71.438
X147.637Y52.388
X152.4Y14.288
X157.162Y33.338
X161.925Y71.438
X166.687Y52.388
X171.45Y14.288
X183.356Y33.338
X185.737Y71.438
X188.119Y52.388
X190.5Y14.288
T0
M30
