%TF.GenerationSoftware,KiCad,Pcbnew,7.0.6*%
%TF.CreationDate,2023-07-31T23:13:48-04:00*%
%TF.ProjectId,cutiepie2040-standard-stagger,63757469-6570-4696-9532-3034302d7374,rev?*%
%TF.SameCoordinates,PX2d6b3a0PY7aa1830*%
%TF.FileFunction,Drillmap*%
%TF.FilePolarity,Positive*%
%FSLAX45Y45*%
G04 Gerber Fmt 4.5, Leading zero omitted, Abs format (unit mm)*
G04 Created by KiCad (PCBNEW 7.0.6) date 2023-07-31 23:13:48*
%MOMM*%
%LPD*%
G01*
G04 APERTURE LIST*
%ADD10C,0.200000*%
%ADD11C,0.175000*%
%ADD12C,0.300000*%
%ADD13C,0.304800*%
%ADD14C,0.398780*%
G04 APERTURE END LIST*
D10*
X5914395Y219057D02*
G75*
G03*
X6161467Y29I233053J14026D01*
G01*
X-16Y718780D02*
G75*
G03*
X209988Y476279I231184J-11977D01*
G01*
X20002488Y7857758D02*
X20002488Y687593D01*
X209988Y476279D02*
X5683967Y476279D01*
X20002491Y7857758D02*
G75*
G03*
X19794988Y8096279I-227903J11255D01*
G01*
X14287488Y476279D02*
X19761467Y476279D01*
X-12Y718779D02*
X-12Y7886485D01*
X14287488Y476271D02*
G75*
G03*
X14057061Y221978I11920J-242348D01*
G01*
X13809988Y30D02*
G75*
G03*
X14057061Y221978I12570J234502D01*
G01*
X6161467Y29D02*
X13809988Y29D01*
X5914395Y219057D02*
G75*
G03*
X5683967Y476279I-243827J13396D01*
G01*
X239988Y8096279D02*
G75*
G03*
X-12Y7886485I-10890J-229717D01*
G01*
X239988Y8096279D02*
X19794988Y8096279D01*
X19761466Y476275D02*
G75*
G03*
X20002488Y687593I10532J231097D01*
G01*
D11*
X356988Y7231279D02*
X531988Y7056279D01*
X531988Y7231279D02*
X356988Y7056279D01*
X356988Y1516279D02*
X531988Y1341279D01*
X531988Y1516279D02*
X356988Y1341279D01*
X595113Y5326279D02*
X770113Y5151279D01*
X770113Y5326279D02*
X595113Y5151279D01*
X1071363Y3421279D02*
X1246363Y3246279D01*
X1246363Y3421279D02*
X1071363Y3246279D01*
X1372988Y7231279D02*
X1547988Y7056279D01*
X1547988Y7231279D02*
X1372988Y7056279D01*
X1372988Y1516279D02*
X1547988Y1341279D01*
X1547988Y1516279D02*
X1372988Y1341279D01*
X1611113Y5326279D02*
X1786113Y5151279D01*
X1786113Y5326279D02*
X1611113Y5151279D01*
X2087363Y3421279D02*
X2262363Y3246279D01*
X2262363Y3421279D02*
X2087363Y3246279D01*
X2261988Y7231279D02*
X2436988Y7056279D01*
X2436988Y7231279D02*
X2261988Y7056279D01*
X2261988Y1516279D02*
X2436988Y1341279D01*
X2436988Y1516279D02*
X2261988Y1341279D01*
X2738238Y5326279D02*
X2913238Y5151279D01*
X2913238Y5326279D02*
X2738238Y5151279D01*
X3277988Y7231279D02*
X3452988Y7056279D01*
X3452988Y7231279D02*
X3277988Y7056279D01*
X3277988Y1516279D02*
X3452988Y1341279D01*
X3452988Y1516279D02*
X3277988Y1341279D01*
X3690738Y3421279D02*
X3865738Y3246279D01*
X3865738Y3421279D02*
X3690738Y3246279D01*
X3754238Y5326279D02*
X3929238Y5151279D01*
X3929238Y5326279D02*
X3754238Y5151279D01*
X4166988Y7231279D02*
X4341988Y7056279D01*
X4341988Y7231279D02*
X4166988Y7056279D01*
X4166988Y1516279D02*
X4341988Y1341279D01*
X4341988Y1516279D02*
X4166988Y1341279D01*
X4643238Y5326279D02*
X4818238Y5151279D01*
X4818238Y5326279D02*
X4643238Y5151279D01*
X4706738Y3421279D02*
X4881738Y3246279D01*
X4881738Y3421279D02*
X4706738Y3246279D01*
X5182988Y7231279D02*
X5357988Y7056279D01*
X5357988Y7231279D02*
X5182988Y7056279D01*
X5182988Y1516279D02*
X5357988Y1341279D01*
X5357988Y1516279D02*
X5182988Y1341279D01*
X5595738Y3421274D02*
X5770738Y3246274D01*
X5770738Y3421274D02*
X5595738Y3246274D01*
X5659238Y5326279D02*
X5834238Y5151279D01*
X5834238Y5326279D02*
X5659238Y5151279D01*
X6071988Y7231279D02*
X6246988Y7056279D01*
X6246988Y7231279D02*
X6071988Y7056279D01*
X6548238Y5326279D02*
X6723238Y5151279D01*
X6723238Y5326279D02*
X6548238Y5151279D01*
X6611738Y3421274D02*
X6786738Y3246274D01*
X6786738Y3421274D02*
X6611738Y3246274D01*
X7087988Y7231279D02*
X7262988Y7056279D01*
X7262988Y7231279D02*
X7087988Y7056279D01*
X7500738Y3421274D02*
X7675738Y3246274D01*
X7675738Y3421274D02*
X7500738Y3246274D01*
X7500738Y1040029D02*
X7675738Y865029D01*
X7675738Y1040029D02*
X7500738Y865029D01*
X7564238Y5326279D02*
X7739238Y5151279D01*
X7739238Y5326279D02*
X7564238Y5151279D01*
X7976988Y7231279D02*
X8151988Y7056279D01*
X8151988Y7231279D02*
X7976988Y7056279D01*
X8453238Y5326279D02*
X8628238Y5151279D01*
X8628238Y5326279D02*
X8453238Y5151279D01*
X8516738Y3421274D02*
X8691738Y3246274D01*
X8691738Y3421274D02*
X8516738Y3246274D01*
X8516738Y1040029D02*
X8691738Y865029D01*
X8691738Y1040029D02*
X8516738Y865029D01*
X8992988Y7231279D02*
X9167988Y7056279D01*
X9167988Y7231279D02*
X8992988Y7056279D01*
X9405738Y3421279D02*
X9580738Y3246279D01*
X9580738Y3421279D02*
X9405738Y3246279D01*
X9405738Y1040002D02*
X9580738Y865002D01*
X9580738Y1040002D02*
X9405738Y865002D01*
X9469238Y5326279D02*
X9644238Y5151279D01*
X9644238Y5326279D02*
X9469238Y5151279D01*
X9881988Y7231279D02*
X10056988Y7056279D01*
X10056988Y7231279D02*
X9881988Y7056279D01*
X10358238Y5326279D02*
X10533238Y5151279D01*
X10533238Y5326279D02*
X10358238Y5151279D01*
X10421738Y3421279D02*
X10596738Y3246279D01*
X10596738Y3421279D02*
X10421738Y3246279D01*
X10421738Y1040002D02*
X10596738Y865002D01*
X10596738Y1040002D02*
X10421738Y865002D01*
X10897988Y7231279D02*
X11072988Y7056279D01*
X11072988Y7231279D02*
X10897988Y7056279D01*
X11310738Y3421274D02*
X11485738Y3246274D01*
X11485738Y3421274D02*
X11310738Y3246274D01*
X11310738Y1040002D02*
X11485738Y865002D01*
X11485738Y1040002D02*
X11310738Y865002D01*
X11374238Y5326279D02*
X11549238Y5151279D01*
X11549238Y5326279D02*
X11374238Y5151279D01*
X11786988Y7231279D02*
X11961988Y7056279D01*
X11961988Y7231279D02*
X11786988Y7056279D01*
X12263238Y5326279D02*
X12438238Y5151279D01*
X12438238Y5326279D02*
X12263238Y5151279D01*
X12326738Y3421274D02*
X12501738Y3246274D01*
X12501738Y3421274D02*
X12326738Y3246274D01*
X12326738Y1040002D02*
X12501738Y865002D01*
X12501738Y1040002D02*
X12326738Y865002D01*
X12802988Y7231279D02*
X12977988Y7056279D01*
X12977988Y7231279D02*
X12802988Y7056279D01*
X13215738Y3421279D02*
X13390738Y3246279D01*
X13390738Y3421279D02*
X13215738Y3246279D01*
X13279238Y5326279D02*
X13454238Y5151279D01*
X13454238Y5326279D02*
X13279238Y5151279D01*
X13691988Y7231279D02*
X13866988Y7056279D01*
X13866988Y7231279D02*
X13691988Y7056279D01*
X14168238Y5326279D02*
X14343238Y5151279D01*
X14343238Y5326279D02*
X14168238Y5151279D01*
X14231738Y3421279D02*
X14406738Y3246279D01*
X14406738Y3421279D02*
X14231738Y3246279D01*
X14644488Y1516279D02*
X14819488Y1341279D01*
X14819488Y1516279D02*
X14644488Y1341279D01*
X14707988Y7231279D02*
X14882988Y7056279D01*
X14882988Y7231279D02*
X14707988Y7056279D01*
X15120738Y3421279D02*
X15295738Y3246279D01*
X15295738Y3421279D02*
X15120738Y3246279D01*
X15184238Y5326279D02*
X15359238Y5151279D01*
X15359238Y5326279D02*
X15184238Y5151279D01*
X15596988Y7231279D02*
X15771988Y7056279D01*
X15771988Y7231279D02*
X15596988Y7056279D01*
X15660488Y1516279D02*
X15835488Y1341279D01*
X15835488Y1516279D02*
X15660488Y1341279D01*
X16073238Y5326279D02*
X16248238Y5151279D01*
X16248238Y5326279D02*
X16073238Y5151279D01*
X16136738Y3421279D02*
X16311738Y3246279D01*
X16311738Y3421279D02*
X16136738Y3246279D01*
X16549488Y1516279D02*
X16724488Y1341279D01*
X16724488Y1516279D02*
X16549488Y1341279D01*
X16612988Y7231279D02*
X16787988Y7056279D01*
X16787988Y7231279D02*
X16612988Y7056279D01*
X17089238Y5326279D02*
X17264238Y5151279D01*
X17264238Y5326279D02*
X17089238Y5151279D01*
X17565488Y1516279D02*
X17740488Y1341279D01*
X17740488Y1516279D02*
X17565488Y1341279D01*
X17740113Y3421258D02*
X17915113Y3246258D01*
X17915113Y3421258D02*
X17740113Y3246258D01*
X17978238Y7231279D02*
X18153238Y7056279D01*
X18153238Y7231279D02*
X17978238Y7056279D01*
X18216363Y5326279D02*
X18391363Y5151279D01*
X18391363Y5326279D02*
X18216363Y5151279D01*
X18454488Y1516279D02*
X18629488Y1341279D01*
X18629488Y1516279D02*
X18454488Y1341279D01*
X18756113Y3421258D02*
X18931113Y3246258D01*
X18931113Y3421258D02*
X18756113Y3246258D01*
X18994238Y7231279D02*
X19169238Y7056279D01*
X19169238Y7231279D02*
X18994238Y7056279D01*
X19232363Y5326279D02*
X19407363Y5151279D01*
X19407363Y5326279D02*
X19232363Y5151279D01*
X19470488Y1516279D02*
X19645488Y1341279D01*
X19645488Y1516279D02*
X19470488Y1341279D01*
D12*
X721488Y7397779D02*
G75*
G03*
X721488Y7397779I-150000J0D01*
G01*
X721488Y1682779D02*
G75*
G03*
X721488Y1682779I-150000J0D01*
G01*
X959613Y5492779D02*
G75*
G03*
X959613Y5492779I-150000J0D01*
G01*
X1356488Y7651779D02*
G75*
G03*
X1356488Y7651779I-150000J0D01*
G01*
X1356488Y1936779D02*
G75*
G03*
X1356488Y1936779I-150000J0D01*
G01*
X1435863Y3587779D02*
G75*
G03*
X1435863Y3587779I-150000J0D01*
G01*
X1594613Y5746779D02*
G75*
G03*
X1594613Y5746779I-150000J0D01*
G01*
X2070863Y3841779D02*
G75*
G03*
X2070863Y3841779I-150000J0D01*
G01*
X2626488Y7397779D02*
G75*
G03*
X2626488Y7397779I-150000J0D01*
G01*
X2626488Y1682779D02*
G75*
G03*
X2626488Y1682779I-150000J0D01*
G01*
X3102738Y5492779D02*
G75*
G03*
X3102738Y5492779I-150000J0D01*
G01*
X3261488Y7651779D02*
G75*
G03*
X3261488Y7651779I-150000J0D01*
G01*
X3261488Y1936779D02*
G75*
G03*
X3261488Y1936779I-150000J0D01*
G01*
X3737738Y5746779D02*
G75*
G03*
X3737738Y5746779I-150000J0D01*
G01*
X4055238Y3587779D02*
G75*
G03*
X4055238Y3587779I-150000J0D01*
G01*
X4531488Y7397779D02*
G75*
G03*
X4531488Y7397779I-150000J0D01*
G01*
X4531488Y1682779D02*
G75*
G03*
X4531488Y1682779I-150000J0D01*
G01*
X4690238Y3841779D02*
G75*
G03*
X4690238Y3841779I-150000J0D01*
G01*
X5007738Y5492779D02*
G75*
G03*
X5007738Y5492779I-150000J0D01*
G01*
X5166488Y7651779D02*
G75*
G03*
X5166488Y7651779I-150000J0D01*
G01*
X5166488Y1936779D02*
G75*
G03*
X5166488Y1936779I-150000J0D01*
G01*
X5642738Y5746779D02*
G75*
G03*
X5642738Y5746779I-150000J0D01*
G01*
X5960238Y3587774D02*
G75*
G03*
X5960238Y3587774I-150000J0D01*
G01*
X6436488Y7397779D02*
G75*
G03*
X6436488Y7397779I-150000J0D01*
G01*
X6595238Y3841774D02*
G75*
G03*
X6595238Y3841774I-150000J0D01*
G01*
X6912738Y5492779D02*
G75*
G03*
X6912738Y5492779I-150000J0D01*
G01*
X7071488Y7651779D02*
G75*
G03*
X7071488Y7651779I-150000J0D01*
G01*
X7547738Y5746779D02*
G75*
G03*
X7547738Y5746779I-150000J0D01*
G01*
X7865238Y3587774D02*
G75*
G03*
X7865238Y3587774I-150000J0D01*
G01*
X7865238Y1206529D02*
G75*
G03*
X7865238Y1206529I-150000J0D01*
G01*
X8341488Y7397779D02*
G75*
G03*
X8341488Y7397779I-150000J0D01*
G01*
X8500238Y3841774D02*
G75*
G03*
X8500238Y3841774I-150000J0D01*
G01*
X8500238Y1460529D02*
G75*
G03*
X8500238Y1460529I-150000J0D01*
G01*
X8817738Y5492779D02*
G75*
G03*
X8817738Y5492779I-150000J0D01*
G01*
X8976488Y7651779D02*
G75*
G03*
X8976488Y7651779I-150000J0D01*
G01*
X9452738Y5746779D02*
G75*
G03*
X9452738Y5746779I-150000J0D01*
G01*
X9770238Y3587779D02*
G75*
G03*
X9770238Y3587779I-150000J0D01*
G01*
X9770238Y1206502D02*
G75*
G03*
X9770238Y1206502I-150000J0D01*
G01*
X10246488Y7397779D02*
G75*
G03*
X10246488Y7397779I-150000J0D01*
G01*
X10405238Y3841779D02*
G75*
G03*
X10405238Y3841779I-150000J0D01*
G01*
X10405238Y1460502D02*
G75*
G03*
X10405238Y1460502I-150000J0D01*
G01*
X10722738Y5492779D02*
G75*
G03*
X10722738Y5492779I-150000J0D01*
G01*
X10881488Y7651779D02*
G75*
G03*
X10881488Y7651779I-150000J0D01*
G01*
X11357738Y5746779D02*
G75*
G03*
X11357738Y5746779I-150000J0D01*
G01*
X11675238Y3587774D02*
G75*
G03*
X11675238Y3587774I-150000J0D01*
G01*
X11675238Y1206502D02*
G75*
G03*
X11675238Y1206502I-150000J0D01*
G01*
X12151488Y7397779D02*
G75*
G03*
X12151488Y7397779I-150000J0D01*
G01*
X12310238Y3841774D02*
G75*
G03*
X12310238Y3841774I-150000J0D01*
G01*
X12310238Y1460502D02*
G75*
G03*
X12310238Y1460502I-150000J0D01*
G01*
X12627738Y5492779D02*
G75*
G03*
X12627738Y5492779I-150000J0D01*
G01*
X12786488Y7651779D02*
G75*
G03*
X12786488Y7651779I-150000J0D01*
G01*
X13262738Y5746779D02*
G75*
G03*
X13262738Y5746779I-150000J0D01*
G01*
X13580238Y3587779D02*
G75*
G03*
X13580238Y3587779I-150000J0D01*
G01*
X14056488Y7397779D02*
G75*
G03*
X14056488Y7397779I-150000J0D01*
G01*
X14215238Y3841779D02*
G75*
G03*
X14215238Y3841779I-150000J0D01*
G01*
X14532738Y5492779D02*
G75*
G03*
X14532738Y5492779I-150000J0D01*
G01*
X14691488Y7651779D02*
G75*
G03*
X14691488Y7651779I-150000J0D01*
G01*
X15008988Y1682779D02*
G75*
G03*
X15008988Y1682779I-150000J0D01*
G01*
X15167738Y5746779D02*
G75*
G03*
X15167738Y5746779I-150000J0D01*
G01*
X15485238Y3587779D02*
G75*
G03*
X15485238Y3587779I-150000J0D01*
G01*
X15643988Y1936779D02*
G75*
G03*
X15643988Y1936779I-150000J0D01*
G01*
X15961488Y7397779D02*
G75*
G03*
X15961488Y7397779I-150000J0D01*
G01*
X16120238Y3841779D02*
G75*
G03*
X16120238Y3841779I-150000J0D01*
G01*
X16437738Y5492779D02*
G75*
G03*
X16437738Y5492779I-150000J0D01*
G01*
X16596488Y7651779D02*
G75*
G03*
X16596488Y7651779I-150000J0D01*
G01*
X16913988Y1682779D02*
G75*
G03*
X16913988Y1682779I-150000J0D01*
G01*
X17072738Y5746779D02*
G75*
G03*
X17072738Y5746779I-150000J0D01*
G01*
X17548988Y1936779D02*
G75*
G03*
X17548988Y1936779I-150000J0D01*
G01*
X18104613Y3587758D02*
G75*
G03*
X18104613Y3587758I-150000J0D01*
G01*
X18342738Y7397779D02*
G75*
G03*
X18342738Y7397779I-150000J0D01*
G01*
X18580863Y5492779D02*
G75*
G03*
X18580863Y5492779I-150000J0D01*
G01*
X18739613Y3841758D02*
G75*
G03*
X18739613Y3841758I-150000J0D01*
G01*
X18818988Y1682779D02*
G75*
G03*
X18818988Y1682779I-150000J0D01*
G01*
X18977738Y7651779D02*
G75*
G03*
X18977738Y7651779I-150000J0D01*
G01*
X19215863Y5746779D02*
G75*
G03*
X19215863Y5746779I-150000J0D01*
G01*
X19453988Y1936779D02*
G75*
G03*
X19453988Y1936779I-150000J0D01*
G01*
D13*
X6902438Y406429D02*
X6902438Y101629D01*
X6750038Y254029D02*
X7054838Y254029D01*
X7143738Y406402D02*
X7143738Y101602D01*
X6991338Y254002D02*
X7296138Y254002D01*
X9290038Y406429D02*
X9290038Y101629D01*
X9137638Y254029D02*
X9442438Y254029D01*
X10712438Y406402D02*
X10712438Y101602D01*
X10560038Y254002D02*
X10864838Y254002D01*
X12858738Y406402D02*
X12858738Y101602D01*
X12706338Y254002D02*
X13011138Y254002D01*
X13100038Y406402D02*
X13100038Y101602D01*
X12947638Y254002D02*
X13252438Y254002D01*
D14*
X1093479Y7002788D02*
X1093479Y7284771D01*
X811497Y7284771D01*
X811497Y7002788D01*
X1093479Y7002788D01*
X1093479Y1287788D02*
X1093479Y1569771D01*
X811497Y1569771D01*
X811497Y1287788D01*
X1093479Y1287788D01*
X1331604Y5097788D02*
X1331604Y5379771D01*
X1049622Y5379771D01*
X1049622Y5097788D01*
X1331604Y5097788D01*
X1807854Y3192788D02*
X1807854Y3474771D01*
X1525872Y3474771D01*
X1525872Y3192788D01*
X1807854Y3192788D01*
X2998479Y7002788D02*
X2998479Y7284771D01*
X2716497Y7284771D01*
X2716497Y7002788D01*
X2998479Y7002788D01*
X2998479Y1287788D02*
X2998479Y1569771D01*
X2716497Y1569771D01*
X2716497Y1287788D01*
X2998479Y1287788D01*
X3474729Y5097788D02*
X3474729Y5379771D01*
X3192747Y5379771D01*
X3192747Y5097788D01*
X3474729Y5097788D01*
X4427229Y3192788D02*
X4427229Y3474771D01*
X4145247Y3474771D01*
X4145247Y3192788D01*
X4427229Y3192788D01*
X4903479Y7002788D02*
X4903479Y7284771D01*
X4621497Y7284771D01*
X4621497Y7002788D01*
X4903479Y7002788D01*
X4903479Y1287788D02*
X4903479Y1569771D01*
X4621497Y1569771D01*
X4621497Y1287788D01*
X4903479Y1287788D01*
X5379729Y5097788D02*
X5379729Y5379771D01*
X5097747Y5379771D01*
X5097747Y5097788D01*
X5379729Y5097788D01*
X6334208Y3192783D02*
X6334208Y3474766D01*
X6052225Y3474766D01*
X6052225Y3192783D01*
X6334208Y3192783D01*
X6808479Y7002788D02*
X6808479Y7284771D01*
X6526497Y7284771D01*
X6526497Y7002788D01*
X6808479Y7002788D01*
X7043429Y1637038D02*
X7043429Y1919021D01*
X6761447Y1919021D01*
X6761447Y1637038D01*
X7043429Y1637038D01*
X7284729Y5097788D02*
X7284729Y5379771D01*
X7002747Y5379771D01*
X7002747Y5097788D01*
X7284729Y5097788D01*
X7284729Y1637011D02*
X7284729Y1918994D01*
X7002747Y1918994D01*
X7002747Y1637011D01*
X7284729Y1637011D01*
X8237229Y3192783D02*
X8237229Y3474766D01*
X7955247Y3474766D01*
X7955247Y3192783D01*
X8237229Y3192783D01*
X8237229Y811538D02*
X8237229Y1093521D01*
X7955247Y1093521D01*
X7955247Y811538D01*
X8237229Y811538D01*
X8713479Y7002788D02*
X8713479Y7284771D01*
X8431497Y7284771D01*
X8431497Y7002788D01*
X8713479Y7002788D01*
X9189729Y5097788D02*
X9189729Y5379771D01*
X8907747Y5379771D01*
X8907747Y5097788D01*
X9189729Y5097788D01*
X9431029Y1637038D02*
X9431029Y1919021D01*
X9149047Y1919021D01*
X9149047Y1637038D01*
X9431029Y1637038D01*
X10142229Y3192788D02*
X10142229Y3474771D01*
X9860247Y3474771D01*
X9860247Y3192788D01*
X10142229Y3192788D01*
X10142229Y811511D02*
X10142229Y1093494D01*
X9860247Y1093494D01*
X9860247Y811511D01*
X10142229Y811511D01*
X10618479Y7002788D02*
X10618479Y7284771D01*
X10336497Y7284771D01*
X10336497Y7002788D01*
X10618479Y7002788D01*
X10853429Y1637011D02*
X10853429Y1918994D01*
X10571447Y1918994D01*
X10571447Y1637011D01*
X10853429Y1637011D01*
X11094729Y5097788D02*
X11094729Y5379771D01*
X10812747Y5379771D01*
X10812747Y5097788D01*
X11094729Y5097788D01*
X12047229Y3192783D02*
X12047229Y3474766D01*
X11765247Y3474766D01*
X11765247Y3192783D01*
X12047229Y3192783D01*
X12047229Y811511D02*
X12047229Y1093494D01*
X11765247Y1093494D01*
X11765247Y811511D01*
X12047229Y811511D01*
X12523479Y7002788D02*
X12523479Y7284771D01*
X12241497Y7284771D01*
X12241497Y7002788D01*
X12523479Y7002788D01*
X12999729Y5097788D02*
X12999729Y5379771D01*
X12717747Y5379771D01*
X12717747Y5097788D01*
X12999729Y5097788D01*
X12999729Y1637011D02*
X12999729Y1918994D01*
X12717747Y1918994D01*
X12717747Y1637011D01*
X12999729Y1637011D01*
X13241029Y1637011D02*
X13241029Y1918994D01*
X12959047Y1918994D01*
X12959047Y1637011D01*
X13241029Y1637011D01*
X13952229Y3192788D02*
X13952229Y3474771D01*
X13670247Y3474771D01*
X13670247Y3192788D01*
X13952229Y3192788D01*
X14428479Y7002788D02*
X14428479Y7284771D01*
X14146497Y7284771D01*
X14146497Y7002788D01*
X14428479Y7002788D01*
X14904729Y5097788D02*
X14904729Y5379771D01*
X14622747Y5379771D01*
X14622747Y5097788D01*
X14904729Y5097788D01*
X15380979Y1287788D02*
X15380979Y1569771D01*
X15098997Y1569771D01*
X15098997Y1287788D01*
X15380979Y1287788D01*
X15857229Y3192788D02*
X15857229Y3474771D01*
X15575247Y3474771D01*
X15575247Y3192788D01*
X15857229Y3192788D01*
X16333479Y7002788D02*
X16333479Y7284771D01*
X16051497Y7284771D01*
X16051497Y7002788D01*
X16333479Y7002788D01*
X16809729Y5097788D02*
X16809729Y5379771D01*
X16527747Y5379771D01*
X16527747Y5097788D01*
X16809729Y5097788D01*
X17285979Y1287788D02*
X17285979Y1569771D01*
X17003997Y1569771D01*
X17003997Y1287788D01*
X17285979Y1287788D01*
X18476604Y3192767D02*
X18476604Y3474750D01*
X18194622Y3474750D01*
X18194622Y3192767D01*
X18476604Y3192767D01*
X18714729Y7002788D02*
X18714729Y7284771D01*
X18432747Y7284771D01*
X18432747Y7002788D01*
X18714729Y7002788D01*
X18952854Y5097788D02*
X18952854Y5379771D01*
X18670872Y5379771D01*
X18670872Y5097788D01*
X18952854Y5097788D01*
X19190979Y1287788D02*
X19190979Y1569771D01*
X18908997Y1569771D01*
X18908997Y1287788D01*
X19190979Y1287788D01*
D10*
X250451Y-321876D02*
X250451Y-121876D01*
X250451Y-121876D02*
X298070Y-121876D01*
X298070Y-121876D02*
X326641Y-131399D01*
X326641Y-131399D02*
X345689Y-150447D01*
X345689Y-150447D02*
X355213Y-169495D01*
X355213Y-169495D02*
X364737Y-207590D01*
X364737Y-207590D02*
X364737Y-236161D01*
X364737Y-236161D02*
X355213Y-274257D01*
X355213Y-274257D02*
X345689Y-293304D01*
X345689Y-293304D02*
X326641Y-312352D01*
X326641Y-312352D02*
X298070Y-321876D01*
X298070Y-321876D02*
X250451Y-321876D01*
X450451Y-321876D02*
X450451Y-188542D01*
X450451Y-226637D02*
X459975Y-207590D01*
X459975Y-207590D02*
X469498Y-198066D01*
X469498Y-198066D02*
X488546Y-188542D01*
X488546Y-188542D02*
X507594Y-188542D01*
X574260Y-321876D02*
X574260Y-188542D01*
X574260Y-121876D02*
X564737Y-131399D01*
X564737Y-131399D02*
X574260Y-140923D01*
X574260Y-140923D02*
X583784Y-131399D01*
X583784Y-131399D02*
X574260Y-121876D01*
X574260Y-121876D02*
X574260Y-140923D01*
X698070Y-321876D02*
X679022Y-312352D01*
X679022Y-312352D02*
X669499Y-293304D01*
X669499Y-293304D02*
X669499Y-121876D01*
X802832Y-321876D02*
X783784Y-312352D01*
X783784Y-312352D02*
X774260Y-293304D01*
X774260Y-293304D02*
X774260Y-121876D01*
X1031403Y-321876D02*
X1031403Y-121876D01*
X1031403Y-121876D02*
X1098070Y-264733D01*
X1098070Y-264733D02*
X1164737Y-121876D01*
X1164737Y-121876D02*
X1164737Y-321876D01*
X1345689Y-321876D02*
X1345689Y-217114D01*
X1345689Y-217114D02*
X1336165Y-198066D01*
X1336165Y-198066D02*
X1317118Y-188542D01*
X1317118Y-188542D02*
X1279022Y-188542D01*
X1279022Y-188542D02*
X1259975Y-198066D01*
X1345689Y-312352D02*
X1326641Y-321876D01*
X1326641Y-321876D02*
X1279022Y-321876D01*
X1279022Y-321876D02*
X1259975Y-312352D01*
X1259975Y-312352D02*
X1250451Y-293304D01*
X1250451Y-293304D02*
X1250451Y-274257D01*
X1250451Y-274257D02*
X1259975Y-255209D01*
X1259975Y-255209D02*
X1279022Y-245685D01*
X1279022Y-245685D02*
X1326641Y-245685D01*
X1326641Y-245685D02*
X1345689Y-236161D01*
X1440927Y-188542D02*
X1440927Y-388542D01*
X1440927Y-198066D02*
X1459975Y-188542D01*
X1459975Y-188542D02*
X1498070Y-188542D01*
X1498070Y-188542D02*
X1517118Y-198066D01*
X1517118Y-198066D02*
X1526641Y-207590D01*
X1526641Y-207590D02*
X1536165Y-226637D01*
X1536165Y-226637D02*
X1536165Y-283780D01*
X1536165Y-283780D02*
X1526641Y-302828D01*
X1526641Y-302828D02*
X1517118Y-312352D01*
X1517118Y-312352D02*
X1498070Y-321876D01*
X1498070Y-321876D02*
X1459975Y-321876D01*
X1459975Y-321876D02*
X1440927Y-312352D01*
X1621879Y-302828D02*
X1631403Y-312352D01*
X1631403Y-312352D02*
X1621879Y-321876D01*
X1621879Y-321876D02*
X1612356Y-312352D01*
X1612356Y-312352D02*
X1621879Y-302828D01*
X1621879Y-302828D02*
X1621879Y-321876D01*
X1621879Y-198066D02*
X1631403Y-207590D01*
X1631403Y-207590D02*
X1621879Y-217114D01*
X1621879Y-217114D02*
X1612356Y-207590D01*
X1612356Y-207590D02*
X1621879Y-198066D01*
X1621879Y-198066D02*
X1621879Y-217114D01*
D11*
X-185326Y-562892D02*
X-10326Y-737892D01*
X-10326Y-562892D02*
X-185326Y-737892D01*
D10*
X355213Y-741876D02*
X240927Y-741876D01*
X298070Y-741876D02*
X298070Y-541876D01*
X298070Y-541876D02*
X279022Y-570447D01*
X279022Y-570447D02*
X259975Y-589495D01*
X259975Y-589495D02*
X240927Y-599018D01*
X440927Y-722828D02*
X450451Y-732352D01*
X450451Y-732352D02*
X440927Y-741876D01*
X440927Y-741876D02*
X431403Y-732352D01*
X431403Y-732352D02*
X440927Y-722828D01*
X440927Y-722828D02*
X440927Y-741876D01*
X517118Y-541876D02*
X650451Y-541876D01*
X650451Y-541876D02*
X564737Y-741876D01*
X821879Y-541876D02*
X726641Y-541876D01*
X726641Y-541876D02*
X717118Y-637114D01*
X717118Y-637114D02*
X726641Y-627590D01*
X726641Y-627590D02*
X745689Y-618066D01*
X745689Y-618066D02*
X793308Y-618066D01*
X793308Y-618066D02*
X812356Y-627590D01*
X812356Y-627590D02*
X821879Y-637114D01*
X821879Y-637114D02*
X831403Y-656161D01*
X831403Y-656161D02*
X831403Y-703780D01*
X831403Y-703780D02*
X821879Y-722828D01*
X821879Y-722828D02*
X812356Y-732352D01*
X812356Y-732352D02*
X793308Y-741876D01*
X793308Y-741876D02*
X745689Y-741876D01*
X745689Y-741876D02*
X726641Y-732352D01*
X726641Y-732352D02*
X717118Y-722828D01*
X955213Y-541876D02*
X974260Y-541876D01*
X974260Y-541876D02*
X993308Y-551399D01*
X993308Y-551399D02*
X1002832Y-560923D01*
X1002832Y-560923D02*
X1012356Y-579971D01*
X1012356Y-579971D02*
X1021879Y-618066D01*
X1021879Y-618066D02*
X1021879Y-665685D01*
X1021879Y-665685D02*
X1012356Y-703780D01*
X1012356Y-703780D02*
X1002832Y-722828D01*
X1002832Y-722828D02*
X993308Y-732352D01*
X993308Y-732352D02*
X974260Y-741876D01*
X974260Y-741876D02*
X955213Y-741876D01*
X955213Y-741876D02*
X936165Y-732352D01*
X936165Y-732352D02*
X926641Y-722828D01*
X926641Y-722828D02*
X917118Y-703780D01*
X917118Y-703780D02*
X907594Y-665685D01*
X907594Y-665685D02*
X907594Y-618066D01*
X907594Y-618066D02*
X917118Y-579971D01*
X917118Y-579971D02*
X926641Y-560923D01*
X926641Y-560923D02*
X936165Y-551399D01*
X936165Y-551399D02*
X955213Y-541876D01*
X1107594Y-741876D02*
X1107594Y-608542D01*
X1107594Y-627590D02*
X1117118Y-618066D01*
X1117118Y-618066D02*
X1136165Y-608542D01*
X1136165Y-608542D02*
X1164737Y-608542D01*
X1164737Y-608542D02*
X1183784Y-618066D01*
X1183784Y-618066D02*
X1193308Y-637114D01*
X1193308Y-637114D02*
X1193308Y-741876D01*
X1193308Y-637114D02*
X1202832Y-618066D01*
X1202832Y-618066D02*
X1221880Y-608542D01*
X1221880Y-608542D02*
X1250451Y-608542D01*
X1250451Y-608542D02*
X1269499Y-618066D01*
X1269499Y-618066D02*
X1279022Y-637114D01*
X1279022Y-637114D02*
X1279022Y-741876D01*
X1374261Y-741876D02*
X1374261Y-608542D01*
X1374261Y-627590D02*
X1383784Y-618066D01*
X1383784Y-618066D02*
X1402832Y-608542D01*
X1402832Y-608542D02*
X1431403Y-608542D01*
X1431403Y-608542D02*
X1450451Y-618066D01*
X1450451Y-618066D02*
X1459975Y-637114D01*
X1459975Y-637114D02*
X1459975Y-741876D01*
X1459975Y-637114D02*
X1469499Y-618066D01*
X1469499Y-618066D02*
X1488546Y-608542D01*
X1488546Y-608542D02*
X1517118Y-608542D01*
X1517118Y-608542D02*
X1536165Y-618066D01*
X1536165Y-618066D02*
X1545689Y-637114D01*
X1545689Y-637114D02*
X1545689Y-741876D01*
X1936165Y-532352D02*
X1764737Y-789495D01*
X2193308Y-541876D02*
X2212356Y-541876D01*
X2212356Y-541876D02*
X2231404Y-551399D01*
X2231404Y-551399D02*
X2240927Y-560923D01*
X2240927Y-560923D02*
X2250451Y-579971D01*
X2250451Y-579971D02*
X2259975Y-618066D01*
X2259975Y-618066D02*
X2259975Y-665685D01*
X2259975Y-665685D02*
X2250451Y-703780D01*
X2250451Y-703780D02*
X2240927Y-722828D01*
X2240927Y-722828D02*
X2231404Y-732352D01*
X2231404Y-732352D02*
X2212356Y-741876D01*
X2212356Y-741876D02*
X2193308Y-741876D01*
X2193308Y-741876D02*
X2174261Y-732352D01*
X2174261Y-732352D02*
X2164737Y-722828D01*
X2164737Y-722828D02*
X2155213Y-703780D01*
X2155213Y-703780D02*
X2145689Y-665685D01*
X2145689Y-665685D02*
X2145689Y-618066D01*
X2145689Y-618066D02*
X2155213Y-579971D01*
X2155213Y-579971D02*
X2164737Y-560923D01*
X2164737Y-560923D02*
X2174261Y-551399D01*
X2174261Y-551399D02*
X2193308Y-541876D01*
X2345689Y-722828D02*
X2355213Y-732352D01*
X2355213Y-732352D02*
X2345689Y-741876D01*
X2345689Y-741876D02*
X2336165Y-732352D01*
X2336165Y-732352D02*
X2345689Y-722828D01*
X2345689Y-722828D02*
X2345689Y-741876D01*
X2479023Y-541876D02*
X2498070Y-541876D01*
X2498070Y-541876D02*
X2517118Y-551399D01*
X2517118Y-551399D02*
X2526642Y-560923D01*
X2526642Y-560923D02*
X2536165Y-579971D01*
X2536165Y-579971D02*
X2545689Y-618066D01*
X2545689Y-618066D02*
X2545689Y-665685D01*
X2545689Y-665685D02*
X2536165Y-703780D01*
X2536165Y-703780D02*
X2526642Y-722828D01*
X2526642Y-722828D02*
X2517118Y-732352D01*
X2517118Y-732352D02*
X2498070Y-741876D01*
X2498070Y-741876D02*
X2479023Y-741876D01*
X2479023Y-741876D02*
X2459975Y-732352D01*
X2459975Y-732352D02*
X2450451Y-722828D01*
X2450451Y-722828D02*
X2440927Y-703780D01*
X2440927Y-703780D02*
X2431404Y-665685D01*
X2431404Y-665685D02*
X2431404Y-618066D01*
X2431404Y-618066D02*
X2440927Y-579971D01*
X2440927Y-579971D02*
X2450451Y-560923D01*
X2450451Y-560923D02*
X2459975Y-551399D01*
X2459975Y-551399D02*
X2479023Y-541876D01*
X2717118Y-541876D02*
X2679023Y-541876D01*
X2679023Y-541876D02*
X2659975Y-551399D01*
X2659975Y-551399D02*
X2650451Y-560923D01*
X2650451Y-560923D02*
X2631404Y-589495D01*
X2631404Y-589495D02*
X2621880Y-627590D01*
X2621880Y-627590D02*
X2621880Y-703780D01*
X2621880Y-703780D02*
X2631404Y-722828D01*
X2631404Y-722828D02*
X2640927Y-732352D01*
X2640927Y-732352D02*
X2659975Y-741876D01*
X2659975Y-741876D02*
X2698070Y-741876D01*
X2698070Y-741876D02*
X2717118Y-732352D01*
X2717118Y-732352D02*
X2726642Y-722828D01*
X2726642Y-722828D02*
X2736165Y-703780D01*
X2736165Y-703780D02*
X2736165Y-656161D01*
X2736165Y-656161D02*
X2726642Y-637114D01*
X2726642Y-637114D02*
X2717118Y-627590D01*
X2717118Y-627590D02*
X2698070Y-618066D01*
X2698070Y-618066D02*
X2659975Y-618066D01*
X2659975Y-618066D02*
X2640927Y-627590D01*
X2640927Y-627590D02*
X2631404Y-637114D01*
X2631404Y-637114D02*
X2621880Y-656161D01*
X2850451Y-627590D02*
X2831403Y-618066D01*
X2831403Y-618066D02*
X2821880Y-608542D01*
X2821880Y-608542D02*
X2812356Y-589495D01*
X2812356Y-589495D02*
X2812356Y-579971D01*
X2812356Y-579971D02*
X2821880Y-560923D01*
X2821880Y-560923D02*
X2831403Y-551399D01*
X2831403Y-551399D02*
X2850451Y-541876D01*
X2850451Y-541876D02*
X2888546Y-541876D01*
X2888546Y-541876D02*
X2907594Y-551399D01*
X2907594Y-551399D02*
X2917118Y-560923D01*
X2917118Y-560923D02*
X2926642Y-579971D01*
X2926642Y-579971D02*
X2926642Y-589495D01*
X2926642Y-589495D02*
X2917118Y-608542D01*
X2917118Y-608542D02*
X2907594Y-618066D01*
X2907594Y-618066D02*
X2888546Y-627590D01*
X2888546Y-627590D02*
X2850451Y-627590D01*
X2850451Y-627590D02*
X2831403Y-637114D01*
X2831403Y-637114D02*
X2821880Y-646638D01*
X2821880Y-646638D02*
X2812356Y-665685D01*
X2812356Y-665685D02*
X2812356Y-703780D01*
X2812356Y-703780D02*
X2821880Y-722828D01*
X2821880Y-722828D02*
X2831403Y-732352D01*
X2831403Y-732352D02*
X2850451Y-741876D01*
X2850451Y-741876D02*
X2888546Y-741876D01*
X2888546Y-741876D02*
X2907594Y-732352D01*
X2907594Y-732352D02*
X2917118Y-722828D01*
X2917118Y-722828D02*
X2926642Y-703780D01*
X2926642Y-703780D02*
X2926642Y-665685D01*
X2926642Y-665685D02*
X2917118Y-646638D01*
X2917118Y-646638D02*
X2907594Y-637114D01*
X2907594Y-637114D02*
X2888546Y-627590D01*
X3021880Y-741876D02*
X3059975Y-741876D01*
X3059975Y-741876D02*
X3079023Y-732352D01*
X3079023Y-732352D02*
X3088546Y-722828D01*
X3088546Y-722828D02*
X3107594Y-694257D01*
X3107594Y-694257D02*
X3117118Y-656161D01*
X3117118Y-656161D02*
X3117118Y-579971D01*
X3117118Y-579971D02*
X3107594Y-560923D01*
X3107594Y-560923D02*
X3098070Y-551399D01*
X3098070Y-551399D02*
X3079023Y-541876D01*
X3079023Y-541876D02*
X3040927Y-541876D01*
X3040927Y-541876D02*
X3021880Y-551399D01*
X3021880Y-551399D02*
X3012356Y-560923D01*
X3012356Y-560923D02*
X3002832Y-579971D01*
X3002832Y-579971D02*
X3002832Y-627590D01*
X3002832Y-627590D02*
X3012356Y-646638D01*
X3012356Y-646638D02*
X3021880Y-656161D01*
X3021880Y-656161D02*
X3040927Y-665685D01*
X3040927Y-665685D02*
X3079023Y-665685D01*
X3079023Y-665685D02*
X3098070Y-656161D01*
X3098070Y-656161D02*
X3107594Y-646638D01*
X3107594Y-646638D02*
X3117118Y-627590D01*
X3193308Y-541876D02*
X3193308Y-579971D01*
X3269499Y-541876D02*
X3269499Y-579971D01*
X3564737Y-818066D02*
X3555213Y-808542D01*
X3555213Y-808542D02*
X3536165Y-779971D01*
X3536165Y-779971D02*
X3526642Y-760923D01*
X3526642Y-760923D02*
X3517118Y-732352D01*
X3517118Y-732352D02*
X3507594Y-684733D01*
X3507594Y-684733D02*
X3507594Y-646638D01*
X3507594Y-646638D02*
X3517118Y-599018D01*
X3517118Y-599018D02*
X3526642Y-570447D01*
X3526642Y-570447D02*
X3536165Y-551399D01*
X3536165Y-551399D02*
X3555213Y-522828D01*
X3555213Y-522828D02*
X3564737Y-513304D01*
X3621880Y-541876D02*
X3755213Y-541876D01*
X3755213Y-541876D02*
X3669499Y-741876D01*
X3917118Y-541876D02*
X3879023Y-541876D01*
X3879023Y-541876D02*
X3859975Y-551399D01*
X3859975Y-551399D02*
X3850451Y-560923D01*
X3850451Y-560923D02*
X3831404Y-589495D01*
X3831404Y-589495D02*
X3821880Y-627590D01*
X3821880Y-627590D02*
X3821880Y-703780D01*
X3821880Y-703780D02*
X3831404Y-722828D01*
X3831404Y-722828D02*
X3840927Y-732352D01*
X3840927Y-732352D02*
X3859975Y-741876D01*
X3859975Y-741876D02*
X3898070Y-741876D01*
X3898070Y-741876D02*
X3917118Y-732352D01*
X3917118Y-732352D02*
X3926642Y-722828D01*
X3926642Y-722828D02*
X3936165Y-703780D01*
X3936165Y-703780D02*
X3936165Y-656161D01*
X3936165Y-656161D02*
X3926642Y-637114D01*
X3926642Y-637114D02*
X3917118Y-627590D01*
X3917118Y-627590D02*
X3898070Y-618066D01*
X3898070Y-618066D02*
X3859975Y-618066D01*
X3859975Y-618066D02*
X3840927Y-627590D01*
X3840927Y-627590D02*
X3831404Y-637114D01*
X3831404Y-637114D02*
X3821880Y-656161D01*
X4174261Y-741876D02*
X4174261Y-541876D01*
X4259975Y-741876D02*
X4259975Y-637114D01*
X4259975Y-637114D02*
X4250451Y-618066D01*
X4250451Y-618066D02*
X4231404Y-608542D01*
X4231404Y-608542D02*
X4202832Y-608542D01*
X4202832Y-608542D02*
X4183785Y-618066D01*
X4183785Y-618066D02*
X4174261Y-627590D01*
X4383785Y-741876D02*
X4364737Y-732352D01*
X4364737Y-732352D02*
X4355213Y-722828D01*
X4355213Y-722828D02*
X4345689Y-703780D01*
X4345689Y-703780D02*
X4345689Y-646638D01*
X4345689Y-646638D02*
X4355213Y-627590D01*
X4355213Y-627590D02*
X4364737Y-618066D01*
X4364737Y-618066D02*
X4383785Y-608542D01*
X4383785Y-608542D02*
X4412356Y-608542D01*
X4412356Y-608542D02*
X4431404Y-618066D01*
X4431404Y-618066D02*
X4440928Y-627590D01*
X4440928Y-627590D02*
X4450451Y-646638D01*
X4450451Y-646638D02*
X4450451Y-703780D01*
X4450451Y-703780D02*
X4440928Y-722828D01*
X4440928Y-722828D02*
X4431404Y-732352D01*
X4431404Y-732352D02*
X4412356Y-741876D01*
X4412356Y-741876D02*
X4383785Y-741876D01*
X4564737Y-741876D02*
X4545689Y-732352D01*
X4545689Y-732352D02*
X4536166Y-713304D01*
X4536166Y-713304D02*
X4536166Y-541876D01*
X4717118Y-732352D02*
X4698070Y-741876D01*
X4698070Y-741876D02*
X4659975Y-741876D01*
X4659975Y-741876D02*
X4640928Y-732352D01*
X4640928Y-732352D02*
X4631404Y-713304D01*
X4631404Y-713304D02*
X4631404Y-637114D01*
X4631404Y-637114D02*
X4640928Y-618066D01*
X4640928Y-618066D02*
X4659975Y-608542D01*
X4659975Y-608542D02*
X4698070Y-608542D01*
X4698070Y-608542D02*
X4717118Y-618066D01*
X4717118Y-618066D02*
X4726642Y-637114D01*
X4726642Y-637114D02*
X4726642Y-656161D01*
X4726642Y-656161D02*
X4631404Y-675209D01*
X4802832Y-732352D02*
X4821880Y-741876D01*
X4821880Y-741876D02*
X4859975Y-741876D01*
X4859975Y-741876D02*
X4879023Y-732352D01*
X4879023Y-732352D02*
X4888547Y-713304D01*
X4888547Y-713304D02*
X4888547Y-703780D01*
X4888547Y-703780D02*
X4879023Y-684733D01*
X4879023Y-684733D02*
X4859975Y-675209D01*
X4859975Y-675209D02*
X4831404Y-675209D01*
X4831404Y-675209D02*
X4812356Y-665685D01*
X4812356Y-665685D02*
X4802832Y-646638D01*
X4802832Y-646638D02*
X4802832Y-637114D01*
X4802832Y-637114D02*
X4812356Y-618066D01*
X4812356Y-618066D02*
X4831404Y-608542D01*
X4831404Y-608542D02*
X4859975Y-608542D01*
X4859975Y-608542D02*
X4879023Y-618066D01*
X4955213Y-818066D02*
X4964737Y-808542D01*
X4964737Y-808542D02*
X4983785Y-779971D01*
X4983785Y-779971D02*
X4993309Y-760923D01*
X4993309Y-760923D02*
X5002832Y-732352D01*
X5002832Y-732352D02*
X5012356Y-684733D01*
X5012356Y-684733D02*
X5012356Y-646638D01*
X5012356Y-646638D02*
X5002832Y-599018D01*
X5002832Y-599018D02*
X4993309Y-570447D01*
X4993309Y-570447D02*
X4983785Y-551399D01*
X4983785Y-551399D02*
X4964737Y-522828D01*
X4964737Y-522828D02*
X4955213Y-513304D01*
X5317118Y-818066D02*
X5307594Y-808542D01*
X5307594Y-808542D02*
X5288547Y-779971D01*
X5288547Y-779971D02*
X5279023Y-760923D01*
X5279023Y-760923D02*
X5269499Y-732352D01*
X5269499Y-732352D02*
X5259975Y-684733D01*
X5259975Y-684733D02*
X5259975Y-646638D01*
X5259975Y-646638D02*
X5269499Y-599018D01*
X5269499Y-599018D02*
X5279023Y-570447D01*
X5279023Y-570447D02*
X5288547Y-551399D01*
X5288547Y-551399D02*
X5307594Y-522828D01*
X5307594Y-522828D02*
X5317118Y-513304D01*
X5393309Y-608542D02*
X5393309Y-741876D01*
X5393309Y-627590D02*
X5402832Y-618066D01*
X5402832Y-618066D02*
X5421880Y-608542D01*
X5421880Y-608542D02*
X5450451Y-608542D01*
X5450451Y-608542D02*
X5469499Y-618066D01*
X5469499Y-618066D02*
X5479023Y-637114D01*
X5479023Y-637114D02*
X5479023Y-741876D01*
X5602832Y-741876D02*
X5583785Y-732352D01*
X5583785Y-732352D02*
X5574261Y-722828D01*
X5574261Y-722828D02*
X5564737Y-703780D01*
X5564737Y-703780D02*
X5564737Y-646638D01*
X5564737Y-646638D02*
X5574261Y-627590D01*
X5574261Y-627590D02*
X5583785Y-618066D01*
X5583785Y-618066D02*
X5602832Y-608542D01*
X5602832Y-608542D02*
X5631404Y-608542D01*
X5631404Y-608542D02*
X5650451Y-618066D01*
X5650451Y-618066D02*
X5659975Y-627590D01*
X5659975Y-627590D02*
X5669499Y-646638D01*
X5669499Y-646638D02*
X5669499Y-703780D01*
X5669499Y-703780D02*
X5659975Y-722828D01*
X5659975Y-722828D02*
X5650451Y-732352D01*
X5650451Y-732352D02*
X5631404Y-741876D01*
X5631404Y-741876D02*
X5602832Y-741876D01*
X5726642Y-608542D02*
X5802832Y-608542D01*
X5755213Y-541876D02*
X5755213Y-713304D01*
X5755213Y-713304D02*
X5764737Y-732352D01*
X5764737Y-732352D02*
X5783785Y-741876D01*
X5783785Y-741876D02*
X5802832Y-741876D01*
X6021880Y-608542D02*
X6021880Y-808542D01*
X6021880Y-618066D02*
X6040928Y-608542D01*
X6040928Y-608542D02*
X6079023Y-608542D01*
X6079023Y-608542D02*
X6098070Y-618066D01*
X6098070Y-618066D02*
X6107594Y-627590D01*
X6107594Y-627590D02*
X6117118Y-646638D01*
X6117118Y-646638D02*
X6117118Y-703780D01*
X6117118Y-703780D02*
X6107594Y-722828D01*
X6107594Y-722828D02*
X6098070Y-732352D01*
X6098070Y-732352D02*
X6079023Y-741876D01*
X6079023Y-741876D02*
X6040928Y-741876D01*
X6040928Y-741876D02*
X6021880Y-732352D01*
X6231404Y-741876D02*
X6212356Y-732352D01*
X6212356Y-732352D02*
X6202832Y-713304D01*
X6202832Y-713304D02*
X6202832Y-541876D01*
X6393309Y-741876D02*
X6393309Y-637114D01*
X6393309Y-637114D02*
X6383785Y-618066D01*
X6383785Y-618066D02*
X6364737Y-608542D01*
X6364737Y-608542D02*
X6326642Y-608542D01*
X6326642Y-608542D02*
X6307594Y-618066D01*
X6393309Y-732352D02*
X6374261Y-741876D01*
X6374261Y-741876D02*
X6326642Y-741876D01*
X6326642Y-741876D02*
X6307594Y-732352D01*
X6307594Y-732352D02*
X6298070Y-713304D01*
X6298070Y-713304D02*
X6298070Y-694257D01*
X6298070Y-694257D02*
X6307594Y-675209D01*
X6307594Y-675209D02*
X6326642Y-665685D01*
X6326642Y-665685D02*
X6374261Y-665685D01*
X6374261Y-665685D02*
X6393309Y-656161D01*
X6459975Y-608542D02*
X6536166Y-608542D01*
X6488547Y-541876D02*
X6488547Y-713304D01*
X6488547Y-713304D02*
X6498070Y-732352D01*
X6498070Y-732352D02*
X6517118Y-741876D01*
X6517118Y-741876D02*
X6536166Y-741876D01*
X6679023Y-732352D02*
X6659975Y-741876D01*
X6659975Y-741876D02*
X6621880Y-741876D01*
X6621880Y-741876D02*
X6602832Y-732352D01*
X6602832Y-732352D02*
X6593309Y-713304D01*
X6593309Y-713304D02*
X6593309Y-637114D01*
X6593309Y-637114D02*
X6602832Y-618066D01*
X6602832Y-618066D02*
X6621880Y-608542D01*
X6621880Y-608542D02*
X6659975Y-608542D01*
X6659975Y-608542D02*
X6679023Y-618066D01*
X6679023Y-618066D02*
X6688547Y-637114D01*
X6688547Y-637114D02*
X6688547Y-656161D01*
X6688547Y-656161D02*
X6593309Y-675209D01*
X6859975Y-741876D02*
X6859975Y-541876D01*
X6859975Y-732352D02*
X6840928Y-741876D01*
X6840928Y-741876D02*
X6802832Y-741876D01*
X6802832Y-741876D02*
X6783785Y-732352D01*
X6783785Y-732352D02*
X6774261Y-722828D01*
X6774261Y-722828D02*
X6764737Y-703780D01*
X6764737Y-703780D02*
X6764737Y-646638D01*
X6764737Y-646638D02*
X6774261Y-627590D01*
X6774261Y-627590D02*
X6783785Y-618066D01*
X6783785Y-618066D02*
X6802832Y-608542D01*
X6802832Y-608542D02*
X6840928Y-608542D01*
X6840928Y-608542D02*
X6859975Y-618066D01*
X6936166Y-818066D02*
X6945690Y-808542D01*
X6945690Y-808542D02*
X6964737Y-779971D01*
X6964737Y-779971D02*
X6974261Y-760923D01*
X6974261Y-760923D02*
X6983785Y-732352D01*
X6983785Y-732352D02*
X6993309Y-684733D01*
X6993309Y-684733D02*
X6993309Y-646638D01*
X6993309Y-646638D02*
X6983785Y-599018D01*
X6983785Y-599018D02*
X6974261Y-570447D01*
X6974261Y-570447D02*
X6964737Y-551399D01*
X6964737Y-551399D02*
X6945690Y-522828D01*
X6945690Y-522828D02*
X6936166Y-513304D01*
X-10326Y-945392D02*
G75*
G03*
X-10326Y-945392I-100000J0D01*
G01*
X231403Y-836876D02*
X355213Y-836876D01*
X355213Y-836876D02*
X288546Y-913066D01*
X288546Y-913066D02*
X317118Y-913066D01*
X317118Y-913066D02*
X336165Y-922590D01*
X336165Y-922590D02*
X345689Y-932114D01*
X345689Y-932114D02*
X355213Y-951161D01*
X355213Y-951161D02*
X355213Y-998780D01*
X355213Y-998780D02*
X345689Y-1017828D01*
X345689Y-1017828D02*
X336165Y-1027352D01*
X336165Y-1027352D02*
X317118Y-1036876D01*
X317118Y-1036876D02*
X259975Y-1036876D01*
X259975Y-1036876D02*
X240927Y-1027352D01*
X240927Y-1027352D02*
X231403Y-1017828D01*
X440927Y-1017828D02*
X450451Y-1027352D01*
X450451Y-1027352D02*
X440927Y-1036876D01*
X440927Y-1036876D02*
X431403Y-1027352D01*
X431403Y-1027352D02*
X440927Y-1017828D01*
X440927Y-1017828D02*
X440927Y-1036876D01*
X574260Y-836876D02*
X593308Y-836876D01*
X593308Y-836876D02*
X612356Y-846399D01*
X612356Y-846399D02*
X621880Y-855923D01*
X621880Y-855923D02*
X631403Y-874971D01*
X631403Y-874971D02*
X640927Y-913066D01*
X640927Y-913066D02*
X640927Y-960685D01*
X640927Y-960685D02*
X631403Y-998780D01*
X631403Y-998780D02*
X621880Y-1017828D01*
X621880Y-1017828D02*
X612356Y-1027352D01*
X612356Y-1027352D02*
X593308Y-1036876D01*
X593308Y-1036876D02*
X574260Y-1036876D01*
X574260Y-1036876D02*
X555213Y-1027352D01*
X555213Y-1027352D02*
X545689Y-1017828D01*
X545689Y-1017828D02*
X536165Y-998780D01*
X536165Y-998780D02*
X526641Y-960685D01*
X526641Y-960685D02*
X526641Y-913066D01*
X526641Y-913066D02*
X536165Y-874971D01*
X536165Y-874971D02*
X545689Y-855923D01*
X545689Y-855923D02*
X555213Y-846399D01*
X555213Y-846399D02*
X574260Y-836876D01*
X764737Y-836876D02*
X783784Y-836876D01*
X783784Y-836876D02*
X802832Y-846399D01*
X802832Y-846399D02*
X812356Y-855923D01*
X812356Y-855923D02*
X821879Y-874971D01*
X821879Y-874971D02*
X831403Y-913066D01*
X831403Y-913066D02*
X831403Y-960685D01*
X831403Y-960685D02*
X821879Y-998780D01*
X821879Y-998780D02*
X812356Y-1017828D01*
X812356Y-1017828D02*
X802832Y-1027352D01*
X802832Y-1027352D02*
X783784Y-1036876D01*
X783784Y-1036876D02*
X764737Y-1036876D01*
X764737Y-1036876D02*
X745689Y-1027352D01*
X745689Y-1027352D02*
X736165Y-1017828D01*
X736165Y-1017828D02*
X726641Y-998780D01*
X726641Y-998780D02*
X717118Y-960685D01*
X717118Y-960685D02*
X717118Y-913066D01*
X717118Y-913066D02*
X726641Y-874971D01*
X726641Y-874971D02*
X736165Y-855923D01*
X736165Y-855923D02*
X745689Y-846399D01*
X745689Y-846399D02*
X764737Y-836876D01*
X955213Y-836876D02*
X974260Y-836876D01*
X974260Y-836876D02*
X993308Y-846399D01*
X993308Y-846399D02*
X1002832Y-855923D01*
X1002832Y-855923D02*
X1012356Y-874971D01*
X1012356Y-874971D02*
X1021879Y-913066D01*
X1021879Y-913066D02*
X1021879Y-960685D01*
X1021879Y-960685D02*
X1012356Y-998780D01*
X1012356Y-998780D02*
X1002832Y-1017828D01*
X1002832Y-1017828D02*
X993308Y-1027352D01*
X993308Y-1027352D02*
X974260Y-1036876D01*
X974260Y-1036876D02*
X955213Y-1036876D01*
X955213Y-1036876D02*
X936165Y-1027352D01*
X936165Y-1027352D02*
X926641Y-1017828D01*
X926641Y-1017828D02*
X917118Y-998780D01*
X917118Y-998780D02*
X907594Y-960685D01*
X907594Y-960685D02*
X907594Y-913066D01*
X907594Y-913066D02*
X917118Y-874971D01*
X917118Y-874971D02*
X926641Y-855923D01*
X926641Y-855923D02*
X936165Y-846399D01*
X936165Y-846399D02*
X955213Y-836876D01*
X1107594Y-1036876D02*
X1107594Y-903542D01*
X1107594Y-922590D02*
X1117118Y-913066D01*
X1117118Y-913066D02*
X1136165Y-903542D01*
X1136165Y-903542D02*
X1164737Y-903542D01*
X1164737Y-903542D02*
X1183784Y-913066D01*
X1183784Y-913066D02*
X1193308Y-932114D01*
X1193308Y-932114D02*
X1193308Y-1036876D01*
X1193308Y-932114D02*
X1202832Y-913066D01*
X1202832Y-913066D02*
X1221880Y-903542D01*
X1221880Y-903542D02*
X1250451Y-903542D01*
X1250451Y-903542D02*
X1269499Y-913066D01*
X1269499Y-913066D02*
X1279022Y-932114D01*
X1279022Y-932114D02*
X1279022Y-1036876D01*
X1374261Y-1036876D02*
X1374261Y-903542D01*
X1374261Y-922590D02*
X1383784Y-913066D01*
X1383784Y-913066D02*
X1402832Y-903542D01*
X1402832Y-903542D02*
X1431403Y-903542D01*
X1431403Y-903542D02*
X1450451Y-913066D01*
X1450451Y-913066D02*
X1459975Y-932114D01*
X1459975Y-932114D02*
X1459975Y-1036876D01*
X1459975Y-932114D02*
X1469499Y-913066D01*
X1469499Y-913066D02*
X1488546Y-903542D01*
X1488546Y-903542D02*
X1517118Y-903542D01*
X1517118Y-903542D02*
X1536165Y-913066D01*
X1536165Y-913066D02*
X1545689Y-932114D01*
X1545689Y-932114D02*
X1545689Y-1036876D01*
X1936165Y-827352D02*
X1764737Y-1084495D01*
X2193308Y-836876D02*
X2212356Y-836876D01*
X2212356Y-836876D02*
X2231404Y-846399D01*
X2231404Y-846399D02*
X2240927Y-855923D01*
X2240927Y-855923D02*
X2250451Y-874971D01*
X2250451Y-874971D02*
X2259975Y-913066D01*
X2259975Y-913066D02*
X2259975Y-960685D01*
X2259975Y-960685D02*
X2250451Y-998780D01*
X2250451Y-998780D02*
X2240927Y-1017828D01*
X2240927Y-1017828D02*
X2231404Y-1027352D01*
X2231404Y-1027352D02*
X2212356Y-1036876D01*
X2212356Y-1036876D02*
X2193308Y-1036876D01*
X2193308Y-1036876D02*
X2174261Y-1027352D01*
X2174261Y-1027352D02*
X2164737Y-1017828D01*
X2164737Y-1017828D02*
X2155213Y-998780D01*
X2155213Y-998780D02*
X2145689Y-960685D01*
X2145689Y-960685D02*
X2145689Y-913066D01*
X2145689Y-913066D02*
X2155213Y-874971D01*
X2155213Y-874971D02*
X2164737Y-855923D01*
X2164737Y-855923D02*
X2174261Y-846399D01*
X2174261Y-846399D02*
X2193308Y-836876D01*
X2345689Y-1017828D02*
X2355213Y-1027352D01*
X2355213Y-1027352D02*
X2345689Y-1036876D01*
X2345689Y-1036876D02*
X2336165Y-1027352D01*
X2336165Y-1027352D02*
X2345689Y-1017828D01*
X2345689Y-1017828D02*
X2345689Y-1036876D01*
X2545689Y-1036876D02*
X2431404Y-1036876D01*
X2488546Y-1036876D02*
X2488546Y-836876D01*
X2488546Y-836876D02*
X2469499Y-865447D01*
X2469499Y-865447D02*
X2450451Y-884495D01*
X2450451Y-884495D02*
X2431404Y-894018D01*
X2736165Y-1036876D02*
X2621880Y-1036876D01*
X2679023Y-1036876D02*
X2679023Y-836876D01*
X2679023Y-836876D02*
X2659975Y-865447D01*
X2659975Y-865447D02*
X2640927Y-884495D01*
X2640927Y-884495D02*
X2621880Y-894018D01*
X2850451Y-922590D02*
X2831403Y-913066D01*
X2831403Y-913066D02*
X2821880Y-903542D01*
X2821880Y-903542D02*
X2812356Y-884495D01*
X2812356Y-884495D02*
X2812356Y-874971D01*
X2812356Y-874971D02*
X2821880Y-855923D01*
X2821880Y-855923D02*
X2831403Y-846399D01*
X2831403Y-846399D02*
X2850451Y-836876D01*
X2850451Y-836876D02*
X2888546Y-836876D01*
X2888546Y-836876D02*
X2907594Y-846399D01*
X2907594Y-846399D02*
X2917118Y-855923D01*
X2917118Y-855923D02*
X2926642Y-874971D01*
X2926642Y-874971D02*
X2926642Y-884495D01*
X2926642Y-884495D02*
X2917118Y-903542D01*
X2917118Y-903542D02*
X2907594Y-913066D01*
X2907594Y-913066D02*
X2888546Y-922590D01*
X2888546Y-922590D02*
X2850451Y-922590D01*
X2850451Y-922590D02*
X2831403Y-932114D01*
X2831403Y-932114D02*
X2821880Y-941637D01*
X2821880Y-941637D02*
X2812356Y-960685D01*
X2812356Y-960685D02*
X2812356Y-998780D01*
X2812356Y-998780D02*
X2821880Y-1017828D01*
X2821880Y-1017828D02*
X2831403Y-1027352D01*
X2831403Y-1027352D02*
X2850451Y-1036876D01*
X2850451Y-1036876D02*
X2888546Y-1036876D01*
X2888546Y-1036876D02*
X2907594Y-1027352D01*
X2907594Y-1027352D02*
X2917118Y-1017828D01*
X2917118Y-1017828D02*
X2926642Y-998780D01*
X2926642Y-998780D02*
X2926642Y-960685D01*
X2926642Y-960685D02*
X2917118Y-941637D01*
X2917118Y-941637D02*
X2907594Y-932114D01*
X2907594Y-932114D02*
X2888546Y-922590D01*
X3117118Y-1036876D02*
X3002832Y-1036876D01*
X3059975Y-1036876D02*
X3059975Y-836876D01*
X3059975Y-836876D02*
X3040927Y-865447D01*
X3040927Y-865447D02*
X3021880Y-884495D01*
X3021880Y-884495D02*
X3002832Y-894018D01*
X3193308Y-836876D02*
X3193308Y-874971D01*
X3269499Y-836876D02*
X3269499Y-874971D01*
X3564737Y-1113066D02*
X3555213Y-1103542D01*
X3555213Y-1103542D02*
X3536165Y-1074971D01*
X3536165Y-1074971D02*
X3526642Y-1055923D01*
X3526642Y-1055923D02*
X3517118Y-1027352D01*
X3517118Y-1027352D02*
X3507594Y-979733D01*
X3507594Y-979733D02*
X3507594Y-941637D01*
X3507594Y-941637D02*
X3517118Y-894018D01*
X3517118Y-894018D02*
X3526642Y-865447D01*
X3526642Y-865447D02*
X3536165Y-846399D01*
X3536165Y-846399D02*
X3555213Y-817828D01*
X3555213Y-817828D02*
X3564737Y-808304D01*
X3621880Y-836876D02*
X3755213Y-836876D01*
X3755213Y-836876D02*
X3669499Y-1036876D01*
X3917118Y-836876D02*
X3879023Y-836876D01*
X3879023Y-836876D02*
X3859975Y-846399D01*
X3859975Y-846399D02*
X3850451Y-855923D01*
X3850451Y-855923D02*
X3831404Y-884495D01*
X3831404Y-884495D02*
X3821880Y-922590D01*
X3821880Y-922590D02*
X3821880Y-998780D01*
X3821880Y-998780D02*
X3831404Y-1017828D01*
X3831404Y-1017828D02*
X3840927Y-1027352D01*
X3840927Y-1027352D02*
X3859975Y-1036876D01*
X3859975Y-1036876D02*
X3898070Y-1036876D01*
X3898070Y-1036876D02*
X3917118Y-1027352D01*
X3917118Y-1027352D02*
X3926642Y-1017828D01*
X3926642Y-1017828D02*
X3936165Y-998780D01*
X3936165Y-998780D02*
X3936165Y-951161D01*
X3936165Y-951161D02*
X3926642Y-932114D01*
X3926642Y-932114D02*
X3917118Y-922590D01*
X3917118Y-922590D02*
X3898070Y-913066D01*
X3898070Y-913066D02*
X3859975Y-913066D01*
X3859975Y-913066D02*
X3840927Y-922590D01*
X3840927Y-922590D02*
X3831404Y-932114D01*
X3831404Y-932114D02*
X3821880Y-951161D01*
X4174261Y-1036876D02*
X4174261Y-836876D01*
X4259975Y-1036876D02*
X4259975Y-932114D01*
X4259975Y-932114D02*
X4250451Y-913066D01*
X4250451Y-913066D02*
X4231404Y-903542D01*
X4231404Y-903542D02*
X4202832Y-903542D01*
X4202832Y-903542D02*
X4183785Y-913066D01*
X4183785Y-913066D02*
X4174261Y-922590D01*
X4383785Y-1036876D02*
X4364737Y-1027352D01*
X4364737Y-1027352D02*
X4355213Y-1017828D01*
X4355213Y-1017828D02*
X4345689Y-998780D01*
X4345689Y-998780D02*
X4345689Y-941637D01*
X4345689Y-941637D02*
X4355213Y-922590D01*
X4355213Y-922590D02*
X4364737Y-913066D01*
X4364737Y-913066D02*
X4383785Y-903542D01*
X4383785Y-903542D02*
X4412356Y-903542D01*
X4412356Y-903542D02*
X4431404Y-913066D01*
X4431404Y-913066D02*
X4440928Y-922590D01*
X4440928Y-922590D02*
X4450451Y-941637D01*
X4450451Y-941637D02*
X4450451Y-998780D01*
X4450451Y-998780D02*
X4440928Y-1017828D01*
X4440928Y-1017828D02*
X4431404Y-1027352D01*
X4431404Y-1027352D02*
X4412356Y-1036876D01*
X4412356Y-1036876D02*
X4383785Y-1036876D01*
X4564737Y-1036876D02*
X4545689Y-1027352D01*
X4545689Y-1027352D02*
X4536166Y-1008304D01*
X4536166Y-1008304D02*
X4536166Y-836876D01*
X4717118Y-1027352D02*
X4698070Y-1036876D01*
X4698070Y-1036876D02*
X4659975Y-1036876D01*
X4659975Y-1036876D02*
X4640928Y-1027352D01*
X4640928Y-1027352D02*
X4631404Y-1008304D01*
X4631404Y-1008304D02*
X4631404Y-932114D01*
X4631404Y-932114D02*
X4640928Y-913066D01*
X4640928Y-913066D02*
X4659975Y-903542D01*
X4659975Y-903542D02*
X4698070Y-903542D01*
X4698070Y-903542D02*
X4717118Y-913066D01*
X4717118Y-913066D02*
X4726642Y-932114D01*
X4726642Y-932114D02*
X4726642Y-951161D01*
X4726642Y-951161D02*
X4631404Y-970209D01*
X4802832Y-1027352D02*
X4821880Y-1036876D01*
X4821880Y-1036876D02*
X4859975Y-1036876D01*
X4859975Y-1036876D02*
X4879023Y-1027352D01*
X4879023Y-1027352D02*
X4888547Y-1008304D01*
X4888547Y-1008304D02*
X4888547Y-998780D01*
X4888547Y-998780D02*
X4879023Y-979733D01*
X4879023Y-979733D02*
X4859975Y-970209D01*
X4859975Y-970209D02*
X4831404Y-970209D01*
X4831404Y-970209D02*
X4812356Y-960685D01*
X4812356Y-960685D02*
X4802832Y-941637D01*
X4802832Y-941637D02*
X4802832Y-932114D01*
X4802832Y-932114D02*
X4812356Y-913066D01*
X4812356Y-913066D02*
X4831404Y-903542D01*
X4831404Y-903542D02*
X4859975Y-903542D01*
X4859975Y-903542D02*
X4879023Y-913066D01*
X4955213Y-1113066D02*
X4964737Y-1103542D01*
X4964737Y-1103542D02*
X4983785Y-1074971D01*
X4983785Y-1074971D02*
X4993309Y-1055923D01*
X4993309Y-1055923D02*
X5002832Y-1027352D01*
X5002832Y-1027352D02*
X5012356Y-979733D01*
X5012356Y-979733D02*
X5012356Y-941637D01*
X5012356Y-941637D02*
X5002832Y-894018D01*
X5002832Y-894018D02*
X4993309Y-865447D01*
X4993309Y-865447D02*
X4983785Y-846399D01*
X4983785Y-846399D02*
X4964737Y-817828D01*
X4964737Y-817828D02*
X4955213Y-808304D01*
X5317118Y-1113066D02*
X5307594Y-1103542D01*
X5307594Y-1103542D02*
X5288547Y-1074971D01*
X5288547Y-1074971D02*
X5279023Y-1055923D01*
X5279023Y-1055923D02*
X5269499Y-1027352D01*
X5269499Y-1027352D02*
X5259975Y-979733D01*
X5259975Y-979733D02*
X5259975Y-941637D01*
X5259975Y-941637D02*
X5269499Y-894018D01*
X5269499Y-894018D02*
X5279023Y-865447D01*
X5279023Y-865447D02*
X5288547Y-846399D01*
X5288547Y-846399D02*
X5307594Y-817828D01*
X5307594Y-817828D02*
X5317118Y-808304D01*
X5393309Y-903542D02*
X5393309Y-1036876D01*
X5393309Y-922590D02*
X5402832Y-913066D01*
X5402832Y-913066D02*
X5421880Y-903542D01*
X5421880Y-903542D02*
X5450451Y-903542D01*
X5450451Y-903542D02*
X5469499Y-913066D01*
X5469499Y-913066D02*
X5479023Y-932114D01*
X5479023Y-932114D02*
X5479023Y-1036876D01*
X5602832Y-1036876D02*
X5583785Y-1027352D01*
X5583785Y-1027352D02*
X5574261Y-1017828D01*
X5574261Y-1017828D02*
X5564737Y-998780D01*
X5564737Y-998780D02*
X5564737Y-941637D01*
X5564737Y-941637D02*
X5574261Y-922590D01*
X5574261Y-922590D02*
X5583785Y-913066D01*
X5583785Y-913066D02*
X5602832Y-903542D01*
X5602832Y-903542D02*
X5631404Y-903542D01*
X5631404Y-903542D02*
X5650451Y-913066D01*
X5650451Y-913066D02*
X5659975Y-922590D01*
X5659975Y-922590D02*
X5669499Y-941637D01*
X5669499Y-941637D02*
X5669499Y-998780D01*
X5669499Y-998780D02*
X5659975Y-1017828D01*
X5659975Y-1017828D02*
X5650451Y-1027352D01*
X5650451Y-1027352D02*
X5631404Y-1036876D01*
X5631404Y-1036876D02*
X5602832Y-1036876D01*
X5726642Y-903542D02*
X5802832Y-903542D01*
X5755213Y-836876D02*
X5755213Y-1008304D01*
X5755213Y-1008304D02*
X5764737Y-1027352D01*
X5764737Y-1027352D02*
X5783785Y-1036876D01*
X5783785Y-1036876D02*
X5802832Y-1036876D01*
X6021880Y-903542D02*
X6021880Y-1103542D01*
X6021880Y-913066D02*
X6040928Y-903542D01*
X6040928Y-903542D02*
X6079023Y-903542D01*
X6079023Y-903542D02*
X6098070Y-913066D01*
X6098070Y-913066D02*
X6107594Y-922590D01*
X6107594Y-922590D02*
X6117118Y-941637D01*
X6117118Y-941637D02*
X6117118Y-998780D01*
X6117118Y-998780D02*
X6107594Y-1017828D01*
X6107594Y-1017828D02*
X6098070Y-1027352D01*
X6098070Y-1027352D02*
X6079023Y-1036876D01*
X6079023Y-1036876D02*
X6040928Y-1036876D01*
X6040928Y-1036876D02*
X6021880Y-1027352D01*
X6231404Y-1036876D02*
X6212356Y-1027352D01*
X6212356Y-1027352D02*
X6202832Y-1008304D01*
X6202832Y-1008304D02*
X6202832Y-836876D01*
X6393309Y-1036876D02*
X6393309Y-932114D01*
X6393309Y-932114D02*
X6383785Y-913066D01*
X6383785Y-913066D02*
X6364737Y-903542D01*
X6364737Y-903542D02*
X6326642Y-903542D01*
X6326642Y-903542D02*
X6307594Y-913066D01*
X6393309Y-1027352D02*
X6374261Y-1036876D01*
X6374261Y-1036876D02*
X6326642Y-1036876D01*
X6326642Y-1036876D02*
X6307594Y-1027352D01*
X6307594Y-1027352D02*
X6298070Y-1008304D01*
X6298070Y-1008304D02*
X6298070Y-989256D01*
X6298070Y-989256D02*
X6307594Y-970209D01*
X6307594Y-970209D02*
X6326642Y-960685D01*
X6326642Y-960685D02*
X6374261Y-960685D01*
X6374261Y-960685D02*
X6393309Y-951161D01*
X6459975Y-903542D02*
X6536166Y-903542D01*
X6488547Y-836876D02*
X6488547Y-1008304D01*
X6488547Y-1008304D02*
X6498070Y-1027352D01*
X6498070Y-1027352D02*
X6517118Y-1036876D01*
X6517118Y-1036876D02*
X6536166Y-1036876D01*
X6679023Y-1027352D02*
X6659975Y-1036876D01*
X6659975Y-1036876D02*
X6621880Y-1036876D01*
X6621880Y-1036876D02*
X6602832Y-1027352D01*
X6602832Y-1027352D02*
X6593309Y-1008304D01*
X6593309Y-1008304D02*
X6593309Y-932114D01*
X6593309Y-932114D02*
X6602832Y-913066D01*
X6602832Y-913066D02*
X6621880Y-903542D01*
X6621880Y-903542D02*
X6659975Y-903542D01*
X6659975Y-903542D02*
X6679023Y-913066D01*
X6679023Y-913066D02*
X6688547Y-932114D01*
X6688547Y-932114D02*
X6688547Y-951161D01*
X6688547Y-951161D02*
X6593309Y-970209D01*
X6859975Y-1036876D02*
X6859975Y-836876D01*
X6859975Y-1027352D02*
X6840928Y-1036876D01*
X6840928Y-1036876D02*
X6802832Y-1036876D01*
X6802832Y-1036876D02*
X6783785Y-1027352D01*
X6783785Y-1027352D02*
X6774261Y-1017828D01*
X6774261Y-1017828D02*
X6764737Y-998780D01*
X6764737Y-998780D02*
X6764737Y-941637D01*
X6764737Y-941637D02*
X6774261Y-922590D01*
X6774261Y-922590D02*
X6783785Y-913066D01*
X6783785Y-913066D02*
X6802832Y-903542D01*
X6802832Y-903542D02*
X6840928Y-903542D01*
X6840928Y-903542D02*
X6859975Y-913066D01*
X6936166Y-1113066D02*
X6945690Y-1103542D01*
X6945690Y-1103542D02*
X6964737Y-1074971D01*
X6964737Y-1074971D02*
X6974261Y-1055923D01*
X6974261Y-1055923D02*
X6983785Y-1027352D01*
X6983785Y-1027352D02*
X6993309Y-979733D01*
X6993309Y-979733D02*
X6993309Y-941637D01*
X6993309Y-941637D02*
X6983785Y-894018D01*
X6983785Y-894018D02*
X6974261Y-865447D01*
X6974261Y-865447D02*
X6964737Y-846399D01*
X6964737Y-846399D02*
X6945690Y-817828D01*
X6945690Y-817828D02*
X6936166Y-808304D01*
X-110326Y-1165392D02*
X-110326Y-1365392D01*
X-210326Y-1265392D02*
X-10326Y-1265392D01*
X231403Y-1156876D02*
X355213Y-1156876D01*
X355213Y-1156876D02*
X288546Y-1233066D01*
X288546Y-1233066D02*
X317118Y-1233066D01*
X317118Y-1233066D02*
X336165Y-1242590D01*
X336165Y-1242590D02*
X345689Y-1252114D01*
X345689Y-1252114D02*
X355213Y-1271161D01*
X355213Y-1271161D02*
X355213Y-1318780D01*
X355213Y-1318780D02*
X345689Y-1337828D01*
X345689Y-1337828D02*
X336165Y-1347352D01*
X336165Y-1347352D02*
X317118Y-1356876D01*
X317118Y-1356876D02*
X259975Y-1356876D01*
X259975Y-1356876D02*
X240927Y-1347352D01*
X240927Y-1347352D02*
X231403Y-1337828D01*
X440927Y-1337828D02*
X450451Y-1347352D01*
X450451Y-1347352D02*
X440927Y-1356876D01*
X440927Y-1356876D02*
X431403Y-1347352D01*
X431403Y-1347352D02*
X440927Y-1337828D01*
X440927Y-1337828D02*
X440927Y-1356876D01*
X574260Y-1156876D02*
X593308Y-1156876D01*
X593308Y-1156876D02*
X612356Y-1166399D01*
X612356Y-1166399D02*
X621880Y-1175923D01*
X621880Y-1175923D02*
X631403Y-1194971D01*
X631403Y-1194971D02*
X640927Y-1233066D01*
X640927Y-1233066D02*
X640927Y-1280685D01*
X640927Y-1280685D02*
X631403Y-1318780D01*
X631403Y-1318780D02*
X621880Y-1337828D01*
X621880Y-1337828D02*
X612356Y-1347352D01*
X612356Y-1347352D02*
X593308Y-1356876D01*
X593308Y-1356876D02*
X574260Y-1356876D01*
X574260Y-1356876D02*
X555213Y-1347352D01*
X555213Y-1347352D02*
X545689Y-1337828D01*
X545689Y-1337828D02*
X536165Y-1318780D01*
X536165Y-1318780D02*
X526641Y-1280685D01*
X526641Y-1280685D02*
X526641Y-1233066D01*
X526641Y-1233066D02*
X536165Y-1194971D01*
X536165Y-1194971D02*
X545689Y-1175923D01*
X545689Y-1175923D02*
X555213Y-1166399D01*
X555213Y-1166399D02*
X574260Y-1156876D01*
X812356Y-1223542D02*
X812356Y-1356876D01*
X764737Y-1147352D02*
X717118Y-1290209D01*
X717118Y-1290209D02*
X840927Y-1290209D01*
X945689Y-1242590D02*
X926641Y-1233066D01*
X926641Y-1233066D02*
X917118Y-1223542D01*
X917118Y-1223542D02*
X907594Y-1204495D01*
X907594Y-1204495D02*
X907594Y-1194971D01*
X907594Y-1194971D02*
X917118Y-1175923D01*
X917118Y-1175923D02*
X926641Y-1166399D01*
X926641Y-1166399D02*
X945689Y-1156876D01*
X945689Y-1156876D02*
X983784Y-1156876D01*
X983784Y-1156876D02*
X1002832Y-1166399D01*
X1002832Y-1166399D02*
X1012356Y-1175923D01*
X1012356Y-1175923D02*
X1021879Y-1194971D01*
X1021879Y-1194971D02*
X1021879Y-1204495D01*
X1021879Y-1204495D02*
X1012356Y-1223542D01*
X1012356Y-1223542D02*
X1002832Y-1233066D01*
X1002832Y-1233066D02*
X983784Y-1242590D01*
X983784Y-1242590D02*
X945689Y-1242590D01*
X945689Y-1242590D02*
X926641Y-1252114D01*
X926641Y-1252114D02*
X917118Y-1261638D01*
X917118Y-1261638D02*
X907594Y-1280685D01*
X907594Y-1280685D02*
X907594Y-1318780D01*
X907594Y-1318780D02*
X917118Y-1337828D01*
X917118Y-1337828D02*
X926641Y-1347352D01*
X926641Y-1347352D02*
X945689Y-1356876D01*
X945689Y-1356876D02*
X983784Y-1356876D01*
X983784Y-1356876D02*
X1002832Y-1347352D01*
X1002832Y-1347352D02*
X1012356Y-1337828D01*
X1012356Y-1337828D02*
X1021879Y-1318780D01*
X1021879Y-1318780D02*
X1021879Y-1280685D01*
X1021879Y-1280685D02*
X1012356Y-1261638D01*
X1012356Y-1261638D02*
X1002832Y-1252114D01*
X1002832Y-1252114D02*
X983784Y-1242590D01*
X1107594Y-1356876D02*
X1107594Y-1223542D01*
X1107594Y-1242590D02*
X1117118Y-1233066D01*
X1117118Y-1233066D02*
X1136165Y-1223542D01*
X1136165Y-1223542D02*
X1164737Y-1223542D01*
X1164737Y-1223542D02*
X1183784Y-1233066D01*
X1183784Y-1233066D02*
X1193308Y-1252114D01*
X1193308Y-1252114D02*
X1193308Y-1356876D01*
X1193308Y-1252114D02*
X1202832Y-1233066D01*
X1202832Y-1233066D02*
X1221880Y-1223542D01*
X1221880Y-1223542D02*
X1250451Y-1223542D01*
X1250451Y-1223542D02*
X1269499Y-1233066D01*
X1269499Y-1233066D02*
X1279022Y-1252114D01*
X1279022Y-1252114D02*
X1279022Y-1356876D01*
X1374261Y-1356876D02*
X1374261Y-1223542D01*
X1374261Y-1242590D02*
X1383784Y-1233066D01*
X1383784Y-1233066D02*
X1402832Y-1223542D01*
X1402832Y-1223542D02*
X1431403Y-1223542D01*
X1431403Y-1223542D02*
X1450451Y-1233066D01*
X1450451Y-1233066D02*
X1459975Y-1252114D01*
X1459975Y-1252114D02*
X1459975Y-1356876D01*
X1459975Y-1252114D02*
X1469499Y-1233066D01*
X1469499Y-1233066D02*
X1488546Y-1223542D01*
X1488546Y-1223542D02*
X1517118Y-1223542D01*
X1517118Y-1223542D02*
X1536165Y-1233066D01*
X1536165Y-1233066D02*
X1545689Y-1252114D01*
X1545689Y-1252114D02*
X1545689Y-1356876D01*
X1936165Y-1147352D02*
X1764737Y-1404495D01*
X2193308Y-1156876D02*
X2212356Y-1156876D01*
X2212356Y-1156876D02*
X2231404Y-1166399D01*
X2231404Y-1166399D02*
X2240927Y-1175923D01*
X2240927Y-1175923D02*
X2250451Y-1194971D01*
X2250451Y-1194971D02*
X2259975Y-1233066D01*
X2259975Y-1233066D02*
X2259975Y-1280685D01*
X2259975Y-1280685D02*
X2250451Y-1318780D01*
X2250451Y-1318780D02*
X2240927Y-1337828D01*
X2240927Y-1337828D02*
X2231404Y-1347352D01*
X2231404Y-1347352D02*
X2212356Y-1356876D01*
X2212356Y-1356876D02*
X2193308Y-1356876D01*
X2193308Y-1356876D02*
X2174261Y-1347352D01*
X2174261Y-1347352D02*
X2164737Y-1337828D01*
X2164737Y-1337828D02*
X2155213Y-1318780D01*
X2155213Y-1318780D02*
X2145689Y-1280685D01*
X2145689Y-1280685D02*
X2145689Y-1233066D01*
X2145689Y-1233066D02*
X2155213Y-1194971D01*
X2155213Y-1194971D02*
X2164737Y-1175923D01*
X2164737Y-1175923D02*
X2174261Y-1166399D01*
X2174261Y-1166399D02*
X2193308Y-1156876D01*
X2345689Y-1337828D02*
X2355213Y-1347352D01*
X2355213Y-1347352D02*
X2345689Y-1356876D01*
X2345689Y-1356876D02*
X2336165Y-1347352D01*
X2336165Y-1347352D02*
X2345689Y-1337828D01*
X2345689Y-1337828D02*
X2345689Y-1356876D01*
X2545689Y-1356876D02*
X2431404Y-1356876D01*
X2488546Y-1356876D02*
X2488546Y-1156876D01*
X2488546Y-1156876D02*
X2469499Y-1185447D01*
X2469499Y-1185447D02*
X2450451Y-1204495D01*
X2450451Y-1204495D02*
X2431404Y-1214018D01*
X2621880Y-1175923D02*
X2631404Y-1166399D01*
X2631404Y-1166399D02*
X2650451Y-1156876D01*
X2650451Y-1156876D02*
X2698070Y-1156876D01*
X2698070Y-1156876D02*
X2717118Y-1166399D01*
X2717118Y-1166399D02*
X2726642Y-1175923D01*
X2726642Y-1175923D02*
X2736165Y-1194971D01*
X2736165Y-1194971D02*
X2736165Y-1214018D01*
X2736165Y-1214018D02*
X2726642Y-1242590D01*
X2726642Y-1242590D02*
X2612356Y-1356876D01*
X2612356Y-1356876D02*
X2736165Y-1356876D01*
X2859975Y-1156876D02*
X2879023Y-1156876D01*
X2879023Y-1156876D02*
X2898070Y-1166399D01*
X2898070Y-1166399D02*
X2907594Y-1175923D01*
X2907594Y-1175923D02*
X2917118Y-1194971D01*
X2917118Y-1194971D02*
X2926642Y-1233066D01*
X2926642Y-1233066D02*
X2926642Y-1280685D01*
X2926642Y-1280685D02*
X2917118Y-1318780D01*
X2917118Y-1318780D02*
X2907594Y-1337828D01*
X2907594Y-1337828D02*
X2898070Y-1347352D01*
X2898070Y-1347352D02*
X2879023Y-1356876D01*
X2879023Y-1356876D02*
X2859975Y-1356876D01*
X2859975Y-1356876D02*
X2840927Y-1347352D01*
X2840927Y-1347352D02*
X2831403Y-1337828D01*
X2831403Y-1337828D02*
X2821880Y-1318780D01*
X2821880Y-1318780D02*
X2812356Y-1280685D01*
X2812356Y-1280685D02*
X2812356Y-1233066D01*
X2812356Y-1233066D02*
X2821880Y-1194971D01*
X2821880Y-1194971D02*
X2831403Y-1175923D01*
X2831403Y-1175923D02*
X2840927Y-1166399D01*
X2840927Y-1166399D02*
X2859975Y-1156876D01*
X3050451Y-1156876D02*
X3069499Y-1156876D01*
X3069499Y-1156876D02*
X3088546Y-1166399D01*
X3088546Y-1166399D02*
X3098070Y-1175923D01*
X3098070Y-1175923D02*
X3107594Y-1194971D01*
X3107594Y-1194971D02*
X3117118Y-1233066D01*
X3117118Y-1233066D02*
X3117118Y-1280685D01*
X3117118Y-1280685D02*
X3107594Y-1318780D01*
X3107594Y-1318780D02*
X3098070Y-1337828D01*
X3098070Y-1337828D02*
X3088546Y-1347352D01*
X3088546Y-1347352D02*
X3069499Y-1356876D01*
X3069499Y-1356876D02*
X3050451Y-1356876D01*
X3050451Y-1356876D02*
X3031403Y-1347352D01*
X3031403Y-1347352D02*
X3021880Y-1337828D01*
X3021880Y-1337828D02*
X3012356Y-1318780D01*
X3012356Y-1318780D02*
X3002832Y-1280685D01*
X3002832Y-1280685D02*
X3002832Y-1233066D01*
X3002832Y-1233066D02*
X3012356Y-1194971D01*
X3012356Y-1194971D02*
X3021880Y-1175923D01*
X3021880Y-1175923D02*
X3031403Y-1166399D01*
X3031403Y-1166399D02*
X3050451Y-1156876D01*
X3193308Y-1156876D02*
X3193308Y-1194971D01*
X3269499Y-1156876D02*
X3269499Y-1194971D01*
X3564737Y-1433066D02*
X3555213Y-1423542D01*
X3555213Y-1423542D02*
X3536165Y-1394971D01*
X3536165Y-1394971D02*
X3526642Y-1375923D01*
X3526642Y-1375923D02*
X3517118Y-1347352D01*
X3517118Y-1347352D02*
X3507594Y-1299733D01*
X3507594Y-1299733D02*
X3507594Y-1261638D01*
X3507594Y-1261638D02*
X3517118Y-1214018D01*
X3517118Y-1214018D02*
X3526642Y-1185447D01*
X3526642Y-1185447D02*
X3536165Y-1166399D01*
X3536165Y-1166399D02*
X3555213Y-1137828D01*
X3555213Y-1137828D02*
X3564737Y-1128304D01*
X3726642Y-1156876D02*
X3688546Y-1156876D01*
X3688546Y-1156876D02*
X3669499Y-1166399D01*
X3669499Y-1166399D02*
X3659975Y-1175923D01*
X3659975Y-1175923D02*
X3640927Y-1204495D01*
X3640927Y-1204495D02*
X3631404Y-1242590D01*
X3631404Y-1242590D02*
X3631404Y-1318780D01*
X3631404Y-1318780D02*
X3640927Y-1337828D01*
X3640927Y-1337828D02*
X3650451Y-1347352D01*
X3650451Y-1347352D02*
X3669499Y-1356876D01*
X3669499Y-1356876D02*
X3707594Y-1356876D01*
X3707594Y-1356876D02*
X3726642Y-1347352D01*
X3726642Y-1347352D02*
X3736165Y-1337828D01*
X3736165Y-1337828D02*
X3745689Y-1318780D01*
X3745689Y-1318780D02*
X3745689Y-1271161D01*
X3745689Y-1271161D02*
X3736165Y-1252114D01*
X3736165Y-1252114D02*
X3726642Y-1242590D01*
X3726642Y-1242590D02*
X3707594Y-1233066D01*
X3707594Y-1233066D02*
X3669499Y-1233066D01*
X3669499Y-1233066D02*
X3650451Y-1242590D01*
X3650451Y-1242590D02*
X3640927Y-1252114D01*
X3640927Y-1252114D02*
X3631404Y-1271161D01*
X3983785Y-1356876D02*
X3983785Y-1156876D01*
X4069499Y-1356876D02*
X4069499Y-1252114D01*
X4069499Y-1252114D02*
X4059975Y-1233066D01*
X4059975Y-1233066D02*
X4040927Y-1223542D01*
X4040927Y-1223542D02*
X4012356Y-1223542D01*
X4012356Y-1223542D02*
X3993308Y-1233066D01*
X3993308Y-1233066D02*
X3983785Y-1242590D01*
X4193308Y-1356876D02*
X4174261Y-1347352D01*
X4174261Y-1347352D02*
X4164737Y-1337828D01*
X4164737Y-1337828D02*
X4155213Y-1318780D01*
X4155213Y-1318780D02*
X4155213Y-1261638D01*
X4155213Y-1261638D02*
X4164737Y-1242590D01*
X4164737Y-1242590D02*
X4174261Y-1233066D01*
X4174261Y-1233066D02*
X4193308Y-1223542D01*
X4193308Y-1223542D02*
X4221880Y-1223542D01*
X4221880Y-1223542D02*
X4240928Y-1233066D01*
X4240928Y-1233066D02*
X4250451Y-1242590D01*
X4250451Y-1242590D02*
X4259975Y-1261638D01*
X4259975Y-1261638D02*
X4259975Y-1318780D01*
X4259975Y-1318780D02*
X4250451Y-1337828D01*
X4250451Y-1337828D02*
X4240928Y-1347352D01*
X4240928Y-1347352D02*
X4221880Y-1356876D01*
X4221880Y-1356876D02*
X4193308Y-1356876D01*
X4374261Y-1356876D02*
X4355213Y-1347352D01*
X4355213Y-1347352D02*
X4345689Y-1328304D01*
X4345689Y-1328304D02*
X4345689Y-1156876D01*
X4526642Y-1347352D02*
X4507594Y-1356876D01*
X4507594Y-1356876D02*
X4469499Y-1356876D01*
X4469499Y-1356876D02*
X4450451Y-1347352D01*
X4450451Y-1347352D02*
X4440928Y-1328304D01*
X4440928Y-1328304D02*
X4440928Y-1252114D01*
X4440928Y-1252114D02*
X4450451Y-1233066D01*
X4450451Y-1233066D02*
X4469499Y-1223542D01*
X4469499Y-1223542D02*
X4507594Y-1223542D01*
X4507594Y-1223542D02*
X4526642Y-1233066D01*
X4526642Y-1233066D02*
X4536166Y-1252114D01*
X4536166Y-1252114D02*
X4536166Y-1271161D01*
X4536166Y-1271161D02*
X4440928Y-1290209D01*
X4612356Y-1347352D02*
X4631404Y-1356876D01*
X4631404Y-1356876D02*
X4669499Y-1356876D01*
X4669499Y-1356876D02*
X4688547Y-1347352D01*
X4688547Y-1347352D02*
X4698070Y-1328304D01*
X4698070Y-1328304D02*
X4698070Y-1318780D01*
X4698070Y-1318780D02*
X4688547Y-1299733D01*
X4688547Y-1299733D02*
X4669499Y-1290209D01*
X4669499Y-1290209D02*
X4640928Y-1290209D01*
X4640928Y-1290209D02*
X4621880Y-1280685D01*
X4621880Y-1280685D02*
X4612356Y-1261638D01*
X4612356Y-1261638D02*
X4612356Y-1252114D01*
X4612356Y-1252114D02*
X4621880Y-1233066D01*
X4621880Y-1233066D02*
X4640928Y-1223542D01*
X4640928Y-1223542D02*
X4669499Y-1223542D01*
X4669499Y-1223542D02*
X4688547Y-1233066D01*
X4764737Y-1433066D02*
X4774261Y-1423542D01*
X4774261Y-1423542D02*
X4793309Y-1394971D01*
X4793309Y-1394971D02*
X4802832Y-1375923D01*
X4802832Y-1375923D02*
X4812356Y-1347352D01*
X4812356Y-1347352D02*
X4821880Y-1299733D01*
X4821880Y-1299733D02*
X4821880Y-1261638D01*
X4821880Y-1261638D02*
X4812356Y-1214018D01*
X4812356Y-1214018D02*
X4802832Y-1185447D01*
X4802832Y-1185447D02*
X4793309Y-1166399D01*
X4793309Y-1166399D02*
X4774261Y-1137828D01*
X4774261Y-1137828D02*
X4764737Y-1128304D01*
X5126642Y-1433066D02*
X5117118Y-1423542D01*
X5117118Y-1423542D02*
X5098070Y-1394971D01*
X5098070Y-1394971D02*
X5088547Y-1375923D01*
X5088547Y-1375923D02*
X5079023Y-1347352D01*
X5079023Y-1347352D02*
X5069499Y-1299733D01*
X5069499Y-1299733D02*
X5069499Y-1261638D01*
X5069499Y-1261638D02*
X5079023Y-1214018D01*
X5079023Y-1214018D02*
X5088547Y-1185447D01*
X5088547Y-1185447D02*
X5098070Y-1166399D01*
X5098070Y-1166399D02*
X5117118Y-1137828D01*
X5117118Y-1137828D02*
X5126642Y-1128304D01*
X5202832Y-1223542D02*
X5202832Y-1356876D01*
X5202832Y-1242590D02*
X5212356Y-1233066D01*
X5212356Y-1233066D02*
X5231404Y-1223542D01*
X5231404Y-1223542D02*
X5259975Y-1223542D01*
X5259975Y-1223542D02*
X5279023Y-1233066D01*
X5279023Y-1233066D02*
X5288547Y-1252114D01*
X5288547Y-1252114D02*
X5288547Y-1356876D01*
X5412356Y-1356876D02*
X5393309Y-1347352D01*
X5393309Y-1347352D02*
X5383785Y-1337828D01*
X5383785Y-1337828D02*
X5374261Y-1318780D01*
X5374261Y-1318780D02*
X5374261Y-1261638D01*
X5374261Y-1261638D02*
X5383785Y-1242590D01*
X5383785Y-1242590D02*
X5393309Y-1233066D01*
X5393309Y-1233066D02*
X5412356Y-1223542D01*
X5412356Y-1223542D02*
X5440928Y-1223542D01*
X5440928Y-1223542D02*
X5459975Y-1233066D01*
X5459975Y-1233066D02*
X5469499Y-1242590D01*
X5469499Y-1242590D02*
X5479023Y-1261638D01*
X5479023Y-1261638D02*
X5479023Y-1318780D01*
X5479023Y-1318780D02*
X5469499Y-1337828D01*
X5469499Y-1337828D02*
X5459975Y-1347352D01*
X5459975Y-1347352D02*
X5440928Y-1356876D01*
X5440928Y-1356876D02*
X5412356Y-1356876D01*
X5536166Y-1223542D02*
X5612356Y-1223542D01*
X5564737Y-1156876D02*
X5564737Y-1328304D01*
X5564737Y-1328304D02*
X5574261Y-1347352D01*
X5574261Y-1347352D02*
X5593308Y-1356876D01*
X5593308Y-1356876D02*
X5612356Y-1356876D01*
X5831404Y-1223542D02*
X5831404Y-1423542D01*
X5831404Y-1233066D02*
X5850451Y-1223542D01*
X5850451Y-1223542D02*
X5888547Y-1223542D01*
X5888547Y-1223542D02*
X5907594Y-1233066D01*
X5907594Y-1233066D02*
X5917118Y-1242590D01*
X5917118Y-1242590D02*
X5926642Y-1261638D01*
X5926642Y-1261638D02*
X5926642Y-1318780D01*
X5926642Y-1318780D02*
X5917118Y-1337828D01*
X5917118Y-1337828D02*
X5907594Y-1347352D01*
X5907594Y-1347352D02*
X5888547Y-1356876D01*
X5888547Y-1356876D02*
X5850451Y-1356876D01*
X5850451Y-1356876D02*
X5831404Y-1347352D01*
X6040928Y-1356876D02*
X6021880Y-1347352D01*
X6021880Y-1347352D02*
X6012356Y-1328304D01*
X6012356Y-1328304D02*
X6012356Y-1156876D01*
X6202832Y-1356876D02*
X6202832Y-1252114D01*
X6202832Y-1252114D02*
X6193309Y-1233066D01*
X6193309Y-1233066D02*
X6174261Y-1223542D01*
X6174261Y-1223542D02*
X6136166Y-1223542D01*
X6136166Y-1223542D02*
X6117118Y-1233066D01*
X6202832Y-1347352D02*
X6183785Y-1356876D01*
X6183785Y-1356876D02*
X6136166Y-1356876D01*
X6136166Y-1356876D02*
X6117118Y-1347352D01*
X6117118Y-1347352D02*
X6107594Y-1328304D01*
X6107594Y-1328304D02*
X6107594Y-1309257D01*
X6107594Y-1309257D02*
X6117118Y-1290209D01*
X6117118Y-1290209D02*
X6136166Y-1280685D01*
X6136166Y-1280685D02*
X6183785Y-1280685D01*
X6183785Y-1280685D02*
X6202832Y-1271161D01*
X6269499Y-1223542D02*
X6345689Y-1223542D01*
X6298070Y-1156876D02*
X6298070Y-1328304D01*
X6298070Y-1328304D02*
X6307594Y-1347352D01*
X6307594Y-1347352D02*
X6326642Y-1356876D01*
X6326642Y-1356876D02*
X6345689Y-1356876D01*
X6488547Y-1347352D02*
X6469499Y-1356876D01*
X6469499Y-1356876D02*
X6431404Y-1356876D01*
X6431404Y-1356876D02*
X6412356Y-1347352D01*
X6412356Y-1347352D02*
X6402832Y-1328304D01*
X6402832Y-1328304D02*
X6402832Y-1252114D01*
X6402832Y-1252114D02*
X6412356Y-1233066D01*
X6412356Y-1233066D02*
X6431404Y-1223542D01*
X6431404Y-1223542D02*
X6469499Y-1223542D01*
X6469499Y-1223542D02*
X6488547Y-1233066D01*
X6488547Y-1233066D02*
X6498070Y-1252114D01*
X6498070Y-1252114D02*
X6498070Y-1271161D01*
X6498070Y-1271161D02*
X6402832Y-1290209D01*
X6669499Y-1356876D02*
X6669499Y-1156876D01*
X6669499Y-1347352D02*
X6650451Y-1356876D01*
X6650451Y-1356876D02*
X6612356Y-1356876D01*
X6612356Y-1356876D02*
X6593309Y-1347352D01*
X6593309Y-1347352D02*
X6583785Y-1337828D01*
X6583785Y-1337828D02*
X6574261Y-1318780D01*
X6574261Y-1318780D02*
X6574261Y-1261638D01*
X6574261Y-1261638D02*
X6583785Y-1242590D01*
X6583785Y-1242590D02*
X6593309Y-1233066D01*
X6593309Y-1233066D02*
X6612356Y-1223542D01*
X6612356Y-1223542D02*
X6650451Y-1223542D01*
X6650451Y-1223542D02*
X6669499Y-1233066D01*
X6745690Y-1433066D02*
X6755213Y-1423542D01*
X6755213Y-1423542D02*
X6774261Y-1394971D01*
X6774261Y-1394971D02*
X6783785Y-1375923D01*
X6783785Y-1375923D02*
X6793309Y-1347352D01*
X6793309Y-1347352D02*
X6802832Y-1299733D01*
X6802832Y-1299733D02*
X6802832Y-1261638D01*
X6802832Y-1261638D02*
X6793309Y-1214018D01*
X6793309Y-1214018D02*
X6783785Y-1185447D01*
X6783785Y-1185447D02*
X6774261Y-1166399D01*
X6774261Y-1166399D02*
X6755213Y-1137828D01*
X6755213Y-1137828D02*
X6745690Y-1128304D01*
X-39615Y-1656103D02*
X-39615Y-1514680D01*
X-181037Y-1514680D01*
X-181037Y-1656103D01*
X-39615Y-1656103D01*
X231403Y-1476876D02*
X355213Y-1476876D01*
X355213Y-1476876D02*
X288546Y-1553066D01*
X288546Y-1553066D02*
X317118Y-1553066D01*
X317118Y-1553066D02*
X336165Y-1562590D01*
X336165Y-1562590D02*
X345689Y-1572114D01*
X345689Y-1572114D02*
X355213Y-1591161D01*
X355213Y-1591161D02*
X355213Y-1638780D01*
X355213Y-1638780D02*
X345689Y-1657828D01*
X345689Y-1657828D02*
X336165Y-1667352D01*
X336165Y-1667352D02*
X317118Y-1676876D01*
X317118Y-1676876D02*
X259975Y-1676876D01*
X259975Y-1676876D02*
X240927Y-1667352D01*
X240927Y-1667352D02*
X231403Y-1657828D01*
X440927Y-1657828D02*
X450451Y-1667352D01*
X450451Y-1667352D02*
X440927Y-1676876D01*
X440927Y-1676876D02*
X431403Y-1667352D01*
X431403Y-1667352D02*
X440927Y-1657828D01*
X440927Y-1657828D02*
X440927Y-1676876D01*
X545689Y-1676876D02*
X583784Y-1676876D01*
X583784Y-1676876D02*
X602832Y-1667352D01*
X602832Y-1667352D02*
X612356Y-1657828D01*
X612356Y-1657828D02*
X631403Y-1629256D01*
X631403Y-1629256D02*
X640927Y-1591161D01*
X640927Y-1591161D02*
X640927Y-1514971D01*
X640927Y-1514971D02*
X631403Y-1495923D01*
X631403Y-1495923D02*
X621880Y-1486399D01*
X621880Y-1486399D02*
X602832Y-1476876D01*
X602832Y-1476876D02*
X564737Y-1476876D01*
X564737Y-1476876D02*
X545689Y-1486399D01*
X545689Y-1486399D02*
X536165Y-1495923D01*
X536165Y-1495923D02*
X526641Y-1514971D01*
X526641Y-1514971D02*
X526641Y-1562590D01*
X526641Y-1562590D02*
X536165Y-1581637D01*
X536165Y-1581637D02*
X545689Y-1591161D01*
X545689Y-1591161D02*
X564737Y-1600685D01*
X564737Y-1600685D02*
X602832Y-1600685D01*
X602832Y-1600685D02*
X621880Y-1591161D01*
X621880Y-1591161D02*
X631403Y-1581637D01*
X631403Y-1581637D02*
X640927Y-1562590D01*
X755213Y-1562590D02*
X736165Y-1553066D01*
X736165Y-1553066D02*
X726641Y-1543542D01*
X726641Y-1543542D02*
X717118Y-1524495D01*
X717118Y-1524495D02*
X717118Y-1514971D01*
X717118Y-1514971D02*
X726641Y-1495923D01*
X726641Y-1495923D02*
X736165Y-1486399D01*
X736165Y-1486399D02*
X755213Y-1476876D01*
X755213Y-1476876D02*
X793308Y-1476876D01*
X793308Y-1476876D02*
X812356Y-1486399D01*
X812356Y-1486399D02*
X821879Y-1495923D01*
X821879Y-1495923D02*
X831403Y-1514971D01*
X831403Y-1514971D02*
X831403Y-1524495D01*
X831403Y-1524495D02*
X821879Y-1543542D01*
X821879Y-1543542D02*
X812356Y-1553066D01*
X812356Y-1553066D02*
X793308Y-1562590D01*
X793308Y-1562590D02*
X755213Y-1562590D01*
X755213Y-1562590D02*
X736165Y-1572114D01*
X736165Y-1572114D02*
X726641Y-1581637D01*
X726641Y-1581637D02*
X717118Y-1600685D01*
X717118Y-1600685D02*
X717118Y-1638780D01*
X717118Y-1638780D02*
X726641Y-1657828D01*
X726641Y-1657828D02*
X736165Y-1667352D01*
X736165Y-1667352D02*
X755213Y-1676876D01*
X755213Y-1676876D02*
X793308Y-1676876D01*
X793308Y-1676876D02*
X812356Y-1667352D01*
X812356Y-1667352D02*
X821879Y-1657828D01*
X821879Y-1657828D02*
X831403Y-1638780D01*
X831403Y-1638780D02*
X831403Y-1600685D01*
X831403Y-1600685D02*
X821879Y-1581637D01*
X821879Y-1581637D02*
X812356Y-1572114D01*
X812356Y-1572114D02*
X793308Y-1562590D01*
X945689Y-1562590D02*
X926641Y-1553066D01*
X926641Y-1553066D02*
X917118Y-1543542D01*
X917118Y-1543542D02*
X907594Y-1524495D01*
X907594Y-1524495D02*
X907594Y-1514971D01*
X907594Y-1514971D02*
X917118Y-1495923D01*
X917118Y-1495923D02*
X926641Y-1486399D01*
X926641Y-1486399D02*
X945689Y-1476876D01*
X945689Y-1476876D02*
X983784Y-1476876D01*
X983784Y-1476876D02*
X1002832Y-1486399D01*
X1002832Y-1486399D02*
X1012356Y-1495923D01*
X1012356Y-1495923D02*
X1021879Y-1514971D01*
X1021879Y-1514971D02*
X1021879Y-1524495D01*
X1021879Y-1524495D02*
X1012356Y-1543542D01*
X1012356Y-1543542D02*
X1002832Y-1553066D01*
X1002832Y-1553066D02*
X983784Y-1562590D01*
X983784Y-1562590D02*
X945689Y-1562590D01*
X945689Y-1562590D02*
X926641Y-1572114D01*
X926641Y-1572114D02*
X917118Y-1581637D01*
X917118Y-1581637D02*
X907594Y-1600685D01*
X907594Y-1600685D02*
X907594Y-1638780D01*
X907594Y-1638780D02*
X917118Y-1657828D01*
X917118Y-1657828D02*
X926641Y-1667352D01*
X926641Y-1667352D02*
X945689Y-1676876D01*
X945689Y-1676876D02*
X983784Y-1676876D01*
X983784Y-1676876D02*
X1002832Y-1667352D01*
X1002832Y-1667352D02*
X1012356Y-1657828D01*
X1012356Y-1657828D02*
X1021879Y-1638780D01*
X1021879Y-1638780D02*
X1021879Y-1600685D01*
X1021879Y-1600685D02*
X1012356Y-1581637D01*
X1012356Y-1581637D02*
X1002832Y-1572114D01*
X1002832Y-1572114D02*
X983784Y-1562590D01*
X1107594Y-1676876D02*
X1107594Y-1543542D01*
X1107594Y-1562590D02*
X1117118Y-1553066D01*
X1117118Y-1553066D02*
X1136165Y-1543542D01*
X1136165Y-1543542D02*
X1164737Y-1543542D01*
X1164737Y-1543542D02*
X1183784Y-1553066D01*
X1183784Y-1553066D02*
X1193308Y-1572114D01*
X1193308Y-1572114D02*
X1193308Y-1676876D01*
X1193308Y-1572114D02*
X1202832Y-1553066D01*
X1202832Y-1553066D02*
X1221880Y-1543542D01*
X1221880Y-1543542D02*
X1250451Y-1543542D01*
X1250451Y-1543542D02*
X1269499Y-1553066D01*
X1269499Y-1553066D02*
X1279022Y-1572114D01*
X1279022Y-1572114D02*
X1279022Y-1676876D01*
X1374261Y-1676876D02*
X1374261Y-1543542D01*
X1374261Y-1562590D02*
X1383784Y-1553066D01*
X1383784Y-1553066D02*
X1402832Y-1543542D01*
X1402832Y-1543542D02*
X1431403Y-1543542D01*
X1431403Y-1543542D02*
X1450451Y-1553066D01*
X1450451Y-1553066D02*
X1459975Y-1572114D01*
X1459975Y-1572114D02*
X1459975Y-1676876D01*
X1459975Y-1572114D02*
X1469499Y-1553066D01*
X1469499Y-1553066D02*
X1488546Y-1543542D01*
X1488546Y-1543542D02*
X1517118Y-1543542D01*
X1517118Y-1543542D02*
X1536165Y-1553066D01*
X1536165Y-1553066D02*
X1545689Y-1572114D01*
X1545689Y-1572114D02*
X1545689Y-1676876D01*
X1936165Y-1467352D02*
X1764737Y-1724495D01*
X2193308Y-1476876D02*
X2212356Y-1476876D01*
X2212356Y-1476876D02*
X2231404Y-1486399D01*
X2231404Y-1486399D02*
X2240927Y-1495923D01*
X2240927Y-1495923D02*
X2250451Y-1514971D01*
X2250451Y-1514971D02*
X2259975Y-1553066D01*
X2259975Y-1553066D02*
X2259975Y-1600685D01*
X2259975Y-1600685D02*
X2250451Y-1638780D01*
X2250451Y-1638780D02*
X2240927Y-1657828D01*
X2240927Y-1657828D02*
X2231404Y-1667352D01*
X2231404Y-1667352D02*
X2212356Y-1676876D01*
X2212356Y-1676876D02*
X2193308Y-1676876D01*
X2193308Y-1676876D02*
X2174261Y-1667352D01*
X2174261Y-1667352D02*
X2164737Y-1657828D01*
X2164737Y-1657828D02*
X2155213Y-1638780D01*
X2155213Y-1638780D02*
X2145689Y-1600685D01*
X2145689Y-1600685D02*
X2145689Y-1553066D01*
X2145689Y-1553066D02*
X2155213Y-1514971D01*
X2155213Y-1514971D02*
X2164737Y-1495923D01*
X2164737Y-1495923D02*
X2174261Y-1486399D01*
X2174261Y-1486399D02*
X2193308Y-1476876D01*
X2345689Y-1657828D02*
X2355213Y-1667352D01*
X2355213Y-1667352D02*
X2345689Y-1676876D01*
X2345689Y-1676876D02*
X2336165Y-1667352D01*
X2336165Y-1667352D02*
X2345689Y-1657828D01*
X2345689Y-1657828D02*
X2345689Y-1676876D01*
X2545689Y-1676876D02*
X2431404Y-1676876D01*
X2488546Y-1676876D02*
X2488546Y-1476876D01*
X2488546Y-1476876D02*
X2469499Y-1505447D01*
X2469499Y-1505447D02*
X2450451Y-1524495D01*
X2450451Y-1524495D02*
X2431404Y-1534018D01*
X2726642Y-1476876D02*
X2631404Y-1476876D01*
X2631404Y-1476876D02*
X2621880Y-1572114D01*
X2621880Y-1572114D02*
X2631404Y-1562590D01*
X2631404Y-1562590D02*
X2650451Y-1553066D01*
X2650451Y-1553066D02*
X2698070Y-1553066D01*
X2698070Y-1553066D02*
X2717118Y-1562590D01*
X2717118Y-1562590D02*
X2726642Y-1572114D01*
X2726642Y-1572114D02*
X2736165Y-1591161D01*
X2736165Y-1591161D02*
X2736165Y-1638780D01*
X2736165Y-1638780D02*
X2726642Y-1657828D01*
X2726642Y-1657828D02*
X2717118Y-1667352D01*
X2717118Y-1667352D02*
X2698070Y-1676876D01*
X2698070Y-1676876D02*
X2650451Y-1676876D01*
X2650451Y-1676876D02*
X2631404Y-1667352D01*
X2631404Y-1667352D02*
X2621880Y-1657828D01*
X2802832Y-1476876D02*
X2936165Y-1476876D01*
X2936165Y-1476876D02*
X2850451Y-1676876D01*
X3050451Y-1476876D02*
X3069499Y-1476876D01*
X3069499Y-1476876D02*
X3088546Y-1486399D01*
X3088546Y-1486399D02*
X3098070Y-1495923D01*
X3098070Y-1495923D02*
X3107594Y-1514971D01*
X3107594Y-1514971D02*
X3117118Y-1553066D01*
X3117118Y-1553066D02*
X3117118Y-1600685D01*
X3117118Y-1600685D02*
X3107594Y-1638780D01*
X3107594Y-1638780D02*
X3098070Y-1657828D01*
X3098070Y-1657828D02*
X3088546Y-1667352D01*
X3088546Y-1667352D02*
X3069499Y-1676876D01*
X3069499Y-1676876D02*
X3050451Y-1676876D01*
X3050451Y-1676876D02*
X3031403Y-1667352D01*
X3031403Y-1667352D02*
X3021880Y-1657828D01*
X3021880Y-1657828D02*
X3012356Y-1638780D01*
X3012356Y-1638780D02*
X3002832Y-1600685D01*
X3002832Y-1600685D02*
X3002832Y-1553066D01*
X3002832Y-1553066D02*
X3012356Y-1514971D01*
X3012356Y-1514971D02*
X3021880Y-1495923D01*
X3021880Y-1495923D02*
X3031403Y-1486399D01*
X3031403Y-1486399D02*
X3050451Y-1476876D01*
X3193308Y-1476876D02*
X3193308Y-1514971D01*
X3269499Y-1476876D02*
X3269499Y-1514971D01*
X3564737Y-1753066D02*
X3555213Y-1743542D01*
X3555213Y-1743542D02*
X3536165Y-1714971D01*
X3536165Y-1714971D02*
X3526642Y-1695923D01*
X3526642Y-1695923D02*
X3517118Y-1667352D01*
X3517118Y-1667352D02*
X3507594Y-1619733D01*
X3507594Y-1619733D02*
X3507594Y-1581637D01*
X3507594Y-1581637D02*
X3517118Y-1534018D01*
X3517118Y-1534018D02*
X3526642Y-1505447D01*
X3526642Y-1505447D02*
X3536165Y-1486399D01*
X3536165Y-1486399D02*
X3555213Y-1457828D01*
X3555213Y-1457828D02*
X3564737Y-1448304D01*
X3726642Y-1543542D02*
X3726642Y-1676876D01*
X3679023Y-1467352D02*
X3631404Y-1610209D01*
X3631404Y-1610209D02*
X3755213Y-1610209D01*
X3917118Y-1543542D02*
X3917118Y-1676876D01*
X3869499Y-1467352D02*
X3821880Y-1610209D01*
X3821880Y-1610209D02*
X3945689Y-1610209D01*
X4174261Y-1676876D02*
X4174261Y-1476876D01*
X4259975Y-1676876D02*
X4259975Y-1572114D01*
X4259975Y-1572114D02*
X4250451Y-1553066D01*
X4250451Y-1553066D02*
X4231404Y-1543542D01*
X4231404Y-1543542D02*
X4202832Y-1543542D01*
X4202832Y-1543542D02*
X4183785Y-1553066D01*
X4183785Y-1553066D02*
X4174261Y-1562590D01*
X4383785Y-1676876D02*
X4364737Y-1667352D01*
X4364737Y-1667352D02*
X4355213Y-1657828D01*
X4355213Y-1657828D02*
X4345689Y-1638780D01*
X4345689Y-1638780D02*
X4345689Y-1581637D01*
X4345689Y-1581637D02*
X4355213Y-1562590D01*
X4355213Y-1562590D02*
X4364737Y-1553066D01*
X4364737Y-1553066D02*
X4383785Y-1543542D01*
X4383785Y-1543542D02*
X4412356Y-1543542D01*
X4412356Y-1543542D02*
X4431404Y-1553066D01*
X4431404Y-1553066D02*
X4440928Y-1562590D01*
X4440928Y-1562590D02*
X4450451Y-1581637D01*
X4450451Y-1581637D02*
X4450451Y-1638780D01*
X4450451Y-1638780D02*
X4440928Y-1657828D01*
X4440928Y-1657828D02*
X4431404Y-1667352D01*
X4431404Y-1667352D02*
X4412356Y-1676876D01*
X4412356Y-1676876D02*
X4383785Y-1676876D01*
X4564737Y-1676876D02*
X4545689Y-1667352D01*
X4545689Y-1667352D02*
X4536166Y-1648304D01*
X4536166Y-1648304D02*
X4536166Y-1476876D01*
X4717118Y-1667352D02*
X4698070Y-1676876D01*
X4698070Y-1676876D02*
X4659975Y-1676876D01*
X4659975Y-1676876D02*
X4640928Y-1667352D01*
X4640928Y-1667352D02*
X4631404Y-1648304D01*
X4631404Y-1648304D02*
X4631404Y-1572114D01*
X4631404Y-1572114D02*
X4640928Y-1553066D01*
X4640928Y-1553066D02*
X4659975Y-1543542D01*
X4659975Y-1543542D02*
X4698070Y-1543542D01*
X4698070Y-1543542D02*
X4717118Y-1553066D01*
X4717118Y-1553066D02*
X4726642Y-1572114D01*
X4726642Y-1572114D02*
X4726642Y-1591161D01*
X4726642Y-1591161D02*
X4631404Y-1610209D01*
X4802832Y-1667352D02*
X4821880Y-1676876D01*
X4821880Y-1676876D02*
X4859975Y-1676876D01*
X4859975Y-1676876D02*
X4879023Y-1667352D01*
X4879023Y-1667352D02*
X4888547Y-1648304D01*
X4888547Y-1648304D02*
X4888547Y-1638780D01*
X4888547Y-1638780D02*
X4879023Y-1619733D01*
X4879023Y-1619733D02*
X4859975Y-1610209D01*
X4859975Y-1610209D02*
X4831404Y-1610209D01*
X4831404Y-1610209D02*
X4812356Y-1600685D01*
X4812356Y-1600685D02*
X4802832Y-1581637D01*
X4802832Y-1581637D02*
X4802832Y-1572114D01*
X4802832Y-1572114D02*
X4812356Y-1553066D01*
X4812356Y-1553066D02*
X4831404Y-1543542D01*
X4831404Y-1543542D02*
X4859975Y-1543542D01*
X4859975Y-1543542D02*
X4879023Y-1553066D01*
X4955213Y-1753066D02*
X4964737Y-1743542D01*
X4964737Y-1743542D02*
X4983785Y-1714971D01*
X4983785Y-1714971D02*
X4993309Y-1695923D01*
X4993309Y-1695923D02*
X5002832Y-1667352D01*
X5002832Y-1667352D02*
X5012356Y-1619733D01*
X5012356Y-1619733D02*
X5012356Y-1581637D01*
X5012356Y-1581637D02*
X5002832Y-1534018D01*
X5002832Y-1534018D02*
X4993309Y-1505447D01*
X4993309Y-1505447D02*
X4983785Y-1486399D01*
X4983785Y-1486399D02*
X4964737Y-1457828D01*
X4964737Y-1457828D02*
X4955213Y-1448304D01*
X5317118Y-1753066D02*
X5307594Y-1743542D01*
X5307594Y-1743542D02*
X5288547Y-1714971D01*
X5288547Y-1714971D02*
X5279023Y-1695923D01*
X5279023Y-1695923D02*
X5269499Y-1667352D01*
X5269499Y-1667352D02*
X5259975Y-1619733D01*
X5259975Y-1619733D02*
X5259975Y-1581637D01*
X5259975Y-1581637D02*
X5269499Y-1534018D01*
X5269499Y-1534018D02*
X5279023Y-1505447D01*
X5279023Y-1505447D02*
X5288547Y-1486399D01*
X5288547Y-1486399D02*
X5307594Y-1457828D01*
X5307594Y-1457828D02*
X5317118Y-1448304D01*
X5393309Y-1543542D02*
X5393309Y-1676876D01*
X5393309Y-1562590D02*
X5402832Y-1553066D01*
X5402832Y-1553066D02*
X5421880Y-1543542D01*
X5421880Y-1543542D02*
X5450451Y-1543542D01*
X5450451Y-1543542D02*
X5469499Y-1553066D01*
X5469499Y-1553066D02*
X5479023Y-1572114D01*
X5479023Y-1572114D02*
X5479023Y-1676876D01*
X5602832Y-1676876D02*
X5583785Y-1667352D01*
X5583785Y-1667352D02*
X5574261Y-1657828D01*
X5574261Y-1657828D02*
X5564737Y-1638780D01*
X5564737Y-1638780D02*
X5564737Y-1581637D01*
X5564737Y-1581637D02*
X5574261Y-1562590D01*
X5574261Y-1562590D02*
X5583785Y-1553066D01*
X5583785Y-1553066D02*
X5602832Y-1543542D01*
X5602832Y-1543542D02*
X5631404Y-1543542D01*
X5631404Y-1543542D02*
X5650451Y-1553066D01*
X5650451Y-1553066D02*
X5659975Y-1562590D01*
X5659975Y-1562590D02*
X5669499Y-1581637D01*
X5669499Y-1581637D02*
X5669499Y-1638780D01*
X5669499Y-1638780D02*
X5659975Y-1657828D01*
X5659975Y-1657828D02*
X5650451Y-1667352D01*
X5650451Y-1667352D02*
X5631404Y-1676876D01*
X5631404Y-1676876D02*
X5602832Y-1676876D01*
X5726642Y-1543542D02*
X5802832Y-1543542D01*
X5755213Y-1476876D02*
X5755213Y-1648304D01*
X5755213Y-1648304D02*
X5764737Y-1667352D01*
X5764737Y-1667352D02*
X5783785Y-1676876D01*
X5783785Y-1676876D02*
X5802832Y-1676876D01*
X6021880Y-1543542D02*
X6021880Y-1743542D01*
X6021880Y-1553066D02*
X6040928Y-1543542D01*
X6040928Y-1543542D02*
X6079023Y-1543542D01*
X6079023Y-1543542D02*
X6098070Y-1553066D01*
X6098070Y-1553066D02*
X6107594Y-1562590D01*
X6107594Y-1562590D02*
X6117118Y-1581637D01*
X6117118Y-1581637D02*
X6117118Y-1638780D01*
X6117118Y-1638780D02*
X6107594Y-1657828D01*
X6107594Y-1657828D02*
X6098070Y-1667352D01*
X6098070Y-1667352D02*
X6079023Y-1676876D01*
X6079023Y-1676876D02*
X6040928Y-1676876D01*
X6040928Y-1676876D02*
X6021880Y-1667352D01*
X6231404Y-1676876D02*
X6212356Y-1667352D01*
X6212356Y-1667352D02*
X6202832Y-1648304D01*
X6202832Y-1648304D02*
X6202832Y-1476876D01*
X6393309Y-1676876D02*
X6393309Y-1572114D01*
X6393309Y-1572114D02*
X6383785Y-1553066D01*
X6383785Y-1553066D02*
X6364737Y-1543542D01*
X6364737Y-1543542D02*
X6326642Y-1543542D01*
X6326642Y-1543542D02*
X6307594Y-1553066D01*
X6393309Y-1667352D02*
X6374261Y-1676876D01*
X6374261Y-1676876D02*
X6326642Y-1676876D01*
X6326642Y-1676876D02*
X6307594Y-1667352D01*
X6307594Y-1667352D02*
X6298070Y-1648304D01*
X6298070Y-1648304D02*
X6298070Y-1629256D01*
X6298070Y-1629256D02*
X6307594Y-1610209D01*
X6307594Y-1610209D02*
X6326642Y-1600685D01*
X6326642Y-1600685D02*
X6374261Y-1600685D01*
X6374261Y-1600685D02*
X6393309Y-1591161D01*
X6459975Y-1543542D02*
X6536166Y-1543542D01*
X6488547Y-1476876D02*
X6488547Y-1648304D01*
X6488547Y-1648304D02*
X6498070Y-1667352D01*
X6498070Y-1667352D02*
X6517118Y-1676876D01*
X6517118Y-1676876D02*
X6536166Y-1676876D01*
X6679023Y-1667352D02*
X6659975Y-1676876D01*
X6659975Y-1676876D02*
X6621880Y-1676876D01*
X6621880Y-1676876D02*
X6602832Y-1667352D01*
X6602832Y-1667352D02*
X6593309Y-1648304D01*
X6593309Y-1648304D02*
X6593309Y-1572114D01*
X6593309Y-1572114D02*
X6602832Y-1553066D01*
X6602832Y-1553066D02*
X6621880Y-1543542D01*
X6621880Y-1543542D02*
X6659975Y-1543542D01*
X6659975Y-1543542D02*
X6679023Y-1553066D01*
X6679023Y-1553066D02*
X6688547Y-1572114D01*
X6688547Y-1572114D02*
X6688547Y-1591161D01*
X6688547Y-1591161D02*
X6593309Y-1610209D01*
X6859975Y-1676876D02*
X6859975Y-1476876D01*
X6859975Y-1667352D02*
X6840928Y-1676876D01*
X6840928Y-1676876D02*
X6802832Y-1676876D01*
X6802832Y-1676876D02*
X6783785Y-1667352D01*
X6783785Y-1667352D02*
X6774261Y-1657828D01*
X6774261Y-1657828D02*
X6764737Y-1638780D01*
X6764737Y-1638780D02*
X6764737Y-1581637D01*
X6764737Y-1581637D02*
X6774261Y-1562590D01*
X6774261Y-1562590D02*
X6783785Y-1553066D01*
X6783785Y-1553066D02*
X6802832Y-1543542D01*
X6802832Y-1543542D02*
X6840928Y-1543542D01*
X6840928Y-1543542D02*
X6859975Y-1553066D01*
X6936166Y-1753066D02*
X6945690Y-1743542D01*
X6945690Y-1743542D02*
X6964737Y-1714971D01*
X6964737Y-1714971D02*
X6974261Y-1695923D01*
X6974261Y-1695923D02*
X6983785Y-1667352D01*
X6983785Y-1667352D02*
X6993309Y-1619733D01*
X6993309Y-1619733D02*
X6993309Y-1581637D01*
X6993309Y-1581637D02*
X6983785Y-1534018D01*
X6983785Y-1534018D02*
X6974261Y-1505447D01*
X6974261Y-1505447D02*
X6964737Y-1486399D01*
X6964737Y-1486399D02*
X6945690Y-1457828D01*
X6945690Y-1457828D02*
X6936166Y-1448304D01*
M02*
