%TF.GenerationSoftware,KiCad,Pcbnew,7.0.6*%
%TF.CreationDate,2023-07-31T23:13:40-04:00*%
%TF.ProjectId,cutiepie2040-standard-stagger,63757469-6570-4696-9532-3034302d7374,rev?*%
%TF.SameCoordinates,PX2d6b3a0PY7aa1830*%
%TF.FileFunction,Legend,Bot*%
%TF.FilePolarity,Positive*%
%FSLAX46Y46*%
G04 Gerber Fmt 4.6, Leading zero omitted, Abs format (unit mm)*
G04 Created by KiCad (PCBNEW 7.0.6) date 2023-07-31 23:13:40*
%MOMM*%
%LPD*%
G01*
G04 APERTURE LIST*
G04 Aperture macros list*
%AMRoundRect*
0 Rectangle with rounded corners*
0 $1 Rounding radius*
0 $2 $3 $4 $5 $6 $7 $8 $9 X,Y pos of 4 corners*
0 Add a 4 corners polygon primitive as box body*
4,1,4,$2,$3,$4,$5,$6,$7,$8,$9,$2,$3,0*
0 Add four circle primitives for the rounded corners*
1,1,$1+$1,$2,$3*
1,1,$1+$1,$4,$5*
1,1,$1+$1,$6,$7*
1,1,$1+$1,$8,$9*
0 Add four rect primitives between the rounded corners*
20,1,$1+$1,$2,$3,$4,$5,0*
20,1,$1+$1,$4,$5,$6,$7,0*
20,1,$1+$1,$6,$7,$8,$9,0*
20,1,$1+$1,$8,$9,$2,$3,0*%
%AMRotRect*
0 Rectangle, with rotation*
0 The origin of the aperture is its center*
0 $1 length*
0 $2 width*
0 $3 Rotation angle, in degrees counterclockwise*
0 Add horizontal line*
21,1,$1,$2,0,0,$3*%
G04 Aperture macros list end*
%ADD10C,0.150000*%
%ADD11C,0.153000*%
%ADD12C,0.120000*%
%ADD13R,1.200000X0.900000*%
%ADD14C,1.750000*%
%ADD15C,3.000000*%
%ADD16C,3.987800*%
%ADD17R,2.550000X2.500000*%
%ADD18RoundRect,0.135000X-0.185000X0.135000X-0.185000X-0.135000X0.185000X-0.135000X0.185000X0.135000X0*%
%ADD19RoundRect,0.135000X0.135000X0.185000X-0.135000X0.185000X-0.135000X-0.185000X0.135000X-0.185000X0*%
%ADD20RoundRect,0.140000X0.170000X-0.140000X0.170000X0.140000X-0.170000X0.140000X-0.170000X-0.140000X0*%
%ADD21RoundRect,0.140000X-0.021213X0.219203X-0.219203X0.021213X0.021213X-0.219203X0.219203X-0.021213X0*%
%ADD22R,1.700000X1.700000*%
%ADD23O,1.700000X1.700000*%
%ADD24R,1.700000X1.000000*%
%ADD25RotRect,1.400000X1.200000X45.000000*%
%ADD26RoundRect,0.135000X0.035355X-0.226274X0.226274X-0.035355X-0.035355X0.226274X-0.226274X0.035355X0*%
%ADD27RoundRect,0.140000X0.140000X0.170000X-0.140000X0.170000X-0.140000X-0.170000X0.140000X-0.170000X0*%
%ADD28RoundRect,0.140000X-0.170000X0.140000X-0.170000X-0.140000X0.170000X-0.140000X0.170000X0.140000X0*%
%ADD29RoundRect,0.150000X-0.625000X0.150000X-0.625000X-0.150000X0.625000X-0.150000X0.625000X0.150000X0*%
%ADD30RoundRect,0.229167X-0.670833X0.320833X-0.670833X-0.320833X0.670833X-0.320833X0.670833X0.320833X0*%
%ADD31RoundRect,0.140000X0.021213X-0.219203X0.219203X-0.021213X-0.021213X0.219203X-0.219203X0.021213X0*%
%ADD32C,3.048000*%
%ADD33R,2.550000X2.000000*%
%ADD34RoundRect,0.140000X0.219203X0.021213X0.021213X0.219203X-0.219203X-0.021213X-0.021213X-0.219203X0*%
%ADD35RoundRect,0.050000X0.387500X0.050000X-0.387500X0.050000X-0.387500X-0.050000X0.387500X-0.050000X0*%
%ADD36RoundRect,0.050000X0.050000X0.387500X-0.050000X0.387500X-0.050000X-0.387500X0.050000X-0.387500X0*%
%ADD37RoundRect,0.144000X1.456000X1.456000X-1.456000X1.456000X-1.456000X-1.456000X1.456000X-1.456000X0*%
%ADD38RoundRect,0.150000X0.150000X-0.587500X0.150000X0.587500X-0.150000X0.587500X-0.150000X-0.587500X0*%
%ADD39RoundRect,0.135000X0.185000X-0.135000X0.185000X0.135000X-0.185000X0.135000X-0.185000X-0.135000X0*%
%ADD40RoundRect,0.150000X0.650000X0.150000X-0.650000X0.150000X-0.650000X-0.150000X0.650000X-0.150000X0*%
G04 APERTURE END LIST*
D10*
X8012853Y11090774D02*
X8084282Y11126488D01*
X8084282Y11126488D02*
X8191424Y11126488D01*
X8191424Y11126488D02*
X8298567Y11090774D01*
X8298567Y11090774D02*
X8369996Y11019345D01*
X8369996Y11019345D02*
X8405710Y10947917D01*
X8405710Y10947917D02*
X8441424Y10805060D01*
X8441424Y10805060D02*
X8441424Y10697917D01*
X8441424Y10697917D02*
X8405710Y10555060D01*
X8405710Y10555060D02*
X8369996Y10483631D01*
X8369996Y10483631D02*
X8298567Y10412202D01*
X8298567Y10412202D02*
X8191424Y10376488D01*
X8191424Y10376488D02*
X8119996Y10376488D01*
X8119996Y10376488D02*
X8012853Y10412202D01*
X8012853Y10412202D02*
X7977139Y10447917D01*
X7977139Y10447917D02*
X7977139Y10697917D01*
X7977139Y10697917D02*
X8119996Y10697917D01*
X7655710Y10376488D02*
X7655710Y11126488D01*
X7655710Y11126488D02*
X7227139Y10376488D01*
X7227139Y10376488D02*
X7227139Y11126488D01*
X6869996Y10376488D02*
X6869996Y11126488D01*
X6869996Y11126488D02*
X6691425Y11126488D01*
X6691425Y11126488D02*
X6584282Y11090774D01*
X6584282Y11090774D02*
X6512853Y11019345D01*
X6512853Y11019345D02*
X6477139Y10947917D01*
X6477139Y10947917D02*
X6441425Y10805060D01*
X6441425Y10805060D02*
X6441425Y10697917D01*
X6441425Y10697917D02*
X6477139Y10555060D01*
X6477139Y10555060D02*
X6512853Y10483631D01*
X6512853Y10483631D02*
X6584282Y10412202D01*
X6584282Y10412202D02*
X6691425Y10376488D01*
X6691425Y10376488D02*
X6869996Y10376488D01*
X13817107Y10412400D02*
X13709965Y10376686D01*
X13709965Y10376686D02*
X13531393Y10376686D01*
X13531393Y10376686D02*
X13459965Y10412400D01*
X13459965Y10412400D02*
X13424250Y10448115D01*
X13424250Y10448115D02*
X13388536Y10519543D01*
X13388536Y10519543D02*
X13388536Y10590972D01*
X13388536Y10590972D02*
X13424250Y10662400D01*
X13424250Y10662400D02*
X13459965Y10698115D01*
X13459965Y10698115D02*
X13531393Y10733829D01*
X13531393Y10733829D02*
X13674250Y10769543D01*
X13674250Y10769543D02*
X13745679Y10805258D01*
X13745679Y10805258D02*
X13781393Y10840972D01*
X13781393Y10840972D02*
X13817107Y10912400D01*
X13817107Y10912400D02*
X13817107Y10983829D01*
X13817107Y10983829D02*
X13781393Y11055258D01*
X13781393Y11055258D02*
X13745679Y11090972D01*
X13745679Y11090972D02*
X13674250Y11126686D01*
X13674250Y11126686D02*
X13495679Y11126686D01*
X13495679Y11126686D02*
X13388536Y11090972D01*
X13138536Y11126686D02*
X12959964Y10376686D01*
X12959964Y10376686D02*
X12817107Y10912400D01*
X12817107Y10912400D02*
X12674250Y10376686D01*
X12674250Y10376686D02*
X12495679Y11126686D01*
X11781393Y10448115D02*
X11817107Y10412400D01*
X11817107Y10412400D02*
X11924250Y10376686D01*
X11924250Y10376686D02*
X11995678Y10376686D01*
X11995678Y10376686D02*
X12102821Y10412400D01*
X12102821Y10412400D02*
X12174250Y10483829D01*
X12174250Y10483829D02*
X12209964Y10555258D01*
X12209964Y10555258D02*
X12245678Y10698115D01*
X12245678Y10698115D02*
X12245678Y10805258D01*
X12245678Y10805258D02*
X12209964Y10948115D01*
X12209964Y10948115D02*
X12174250Y11019543D01*
X12174250Y11019543D02*
X12102821Y11090972D01*
X12102821Y11090972D02*
X11995678Y11126686D01*
X11995678Y11126686D02*
X11924250Y11126686D01*
X11924250Y11126686D02*
X11817107Y11090972D01*
X11817107Y11090972D02*
X11781393Y11055258D01*
X11138097Y10412400D02*
X11030955Y10376686D01*
X11030955Y10376686D02*
X10852383Y10376686D01*
X10852383Y10376686D02*
X10780955Y10412400D01*
X10780955Y10412400D02*
X10745240Y10448115D01*
X10745240Y10448115D02*
X10709526Y10519543D01*
X10709526Y10519543D02*
X10709526Y10590972D01*
X10709526Y10590972D02*
X10745240Y10662400D01*
X10745240Y10662400D02*
X10780955Y10698115D01*
X10780955Y10698115D02*
X10852383Y10733829D01*
X10852383Y10733829D02*
X10995240Y10769543D01*
X10995240Y10769543D02*
X11066669Y10805258D01*
X11066669Y10805258D02*
X11102383Y10840972D01*
X11102383Y10840972D02*
X11138097Y10912400D01*
X11138097Y10912400D02*
X11138097Y10983829D01*
X11138097Y10983829D02*
X11102383Y11055258D01*
X11102383Y11055258D02*
X11066669Y11090972D01*
X11066669Y11090972D02*
X10995240Y11126686D01*
X10995240Y11126686D02*
X10816669Y11126686D01*
X10816669Y11126686D02*
X10709526Y11090972D01*
X10459526Y11126686D02*
X10280954Y10376686D01*
X10280954Y10376686D02*
X10138097Y10912400D01*
X10138097Y10912400D02*
X9995240Y10376686D01*
X9995240Y10376686D02*
X9816669Y11126686D01*
X9530954Y10376686D02*
X9530954Y11126686D01*
X9530954Y11126686D02*
X9352383Y11126686D01*
X9352383Y11126686D02*
X9245240Y11090972D01*
X9245240Y11090972D02*
X9173811Y11019543D01*
X9173811Y11019543D02*
X9138097Y10948115D01*
X9138097Y10948115D02*
X9102383Y10805258D01*
X9102383Y10805258D02*
X9102383Y10698115D01*
X9102383Y10698115D02*
X9138097Y10555258D01*
X9138097Y10555258D02*
X9173811Y10483829D01*
X9173811Y10483829D02*
X9245240Y10412400D01*
X9245240Y10412400D02*
X9352383Y10376686D01*
X9352383Y10376686D02*
X9530954Y10376686D01*
X5988740Y11126686D02*
X5524454Y11126686D01*
X5524454Y11126686D02*
X5774454Y10840972D01*
X5774454Y10840972D02*
X5667311Y10840972D01*
X5667311Y10840972D02*
X5595883Y10805258D01*
X5595883Y10805258D02*
X5560168Y10769543D01*
X5560168Y10769543D02*
X5524454Y10698115D01*
X5524454Y10698115D02*
X5524454Y10519543D01*
X5524454Y10519543D02*
X5560168Y10448115D01*
X5560168Y10448115D02*
X5595883Y10412400D01*
X5595883Y10412400D02*
X5667311Y10376686D01*
X5667311Y10376686D02*
X5881597Y10376686D01*
X5881597Y10376686D02*
X5953025Y10412400D01*
X5953025Y10412400D02*
X5988740Y10448115D01*
X5310168Y11126686D02*
X5060168Y10376686D01*
X5060168Y10376686D02*
X4810168Y11126686D01*
X4631597Y11126686D02*
X4167311Y11126686D01*
X4167311Y11126686D02*
X4417311Y10840972D01*
X4417311Y10840972D02*
X4310168Y10840972D01*
X4310168Y10840972D02*
X4238740Y10805258D01*
X4238740Y10805258D02*
X4203025Y10769543D01*
X4203025Y10769543D02*
X4167311Y10698115D01*
X4167311Y10698115D02*
X4167311Y10519543D01*
X4167311Y10519543D02*
X4203025Y10448115D01*
X4203025Y10448115D02*
X4238740Y10412400D01*
X4238740Y10412400D02*
X4310168Y10376686D01*
X4310168Y10376686D02*
X4524454Y10376686D01*
X4524454Y10376686D02*
X4595882Y10412400D01*
X4595882Y10412400D02*
X4631597Y10448115D01*
X2791886Y10376686D02*
X3041886Y10733829D01*
X3220457Y10376686D02*
X3220457Y11126686D01*
X3220457Y11126686D02*
X2934743Y11126686D01*
X2934743Y11126686D02*
X2863314Y11090972D01*
X2863314Y11090972D02*
X2827600Y11055258D01*
X2827600Y11055258D02*
X2791886Y10983829D01*
X2791886Y10983829D02*
X2791886Y10876686D01*
X2791886Y10876686D02*
X2827600Y10805258D01*
X2827600Y10805258D02*
X2863314Y10769543D01*
X2863314Y10769543D02*
X2934743Y10733829D01*
X2934743Y10733829D02*
X3220457Y10733829D01*
X2506171Y10412400D02*
X2399029Y10376686D01*
X2399029Y10376686D02*
X2220457Y10376686D01*
X2220457Y10376686D02*
X2149029Y10412400D01*
X2149029Y10412400D02*
X2113314Y10448115D01*
X2113314Y10448115D02*
X2077600Y10519543D01*
X2077600Y10519543D02*
X2077600Y10590972D01*
X2077600Y10590972D02*
X2113314Y10662400D01*
X2113314Y10662400D02*
X2149029Y10698115D01*
X2149029Y10698115D02*
X2220457Y10733829D01*
X2220457Y10733829D02*
X2363314Y10769543D01*
X2363314Y10769543D02*
X2434743Y10805258D01*
X2434743Y10805258D02*
X2470457Y10840972D01*
X2470457Y10840972D02*
X2506171Y10912400D01*
X2506171Y10912400D02*
X2506171Y10983829D01*
X2506171Y10983829D02*
X2470457Y11055258D01*
X2470457Y11055258D02*
X2434743Y11090972D01*
X2434743Y11090972D02*
X2363314Y11126686D01*
X2363314Y11126686D02*
X2184743Y11126686D01*
X2184743Y11126686D02*
X2077600Y11090972D01*
X1863314Y11126686D02*
X1434743Y11126686D01*
X1649028Y10376686D02*
X1649028Y11126686D01*
D11*
X28241386Y27703211D02*
X28574719Y28179402D01*
X28812814Y27703211D02*
X28812814Y28703211D01*
X28812814Y28703211D02*
X28431862Y28703211D01*
X28431862Y28703211D02*
X28336624Y28655592D01*
X28336624Y28655592D02*
X28289005Y28607973D01*
X28289005Y28607973D02*
X28241386Y28512735D01*
X28241386Y28512735D02*
X28241386Y28369878D01*
X28241386Y28369878D02*
X28289005Y28274640D01*
X28289005Y28274640D02*
X28336624Y28227021D01*
X28336624Y28227021D02*
X28431862Y28179402D01*
X28431862Y28179402D02*
X28812814Y28179402D01*
X27812814Y28227021D02*
X27479481Y28227021D01*
X27336624Y27703211D02*
X27812814Y27703211D01*
X27812814Y27703211D02*
X27812814Y28703211D01*
X27812814Y28703211D02*
X27336624Y28703211D01*
X26955671Y27750830D02*
X26812814Y27703211D01*
X26812814Y27703211D02*
X26574719Y27703211D01*
X26574719Y27703211D02*
X26479481Y27750830D01*
X26479481Y27750830D02*
X26431862Y27798450D01*
X26431862Y27798450D02*
X26384243Y27893688D01*
X26384243Y27893688D02*
X26384243Y27988926D01*
X26384243Y27988926D02*
X26431862Y28084164D01*
X26431862Y28084164D02*
X26479481Y28131783D01*
X26479481Y28131783D02*
X26574719Y28179402D01*
X26574719Y28179402D02*
X26765195Y28227021D01*
X26765195Y28227021D02*
X26860433Y28274640D01*
X26860433Y28274640D02*
X26908052Y28322259D01*
X26908052Y28322259D02*
X26955671Y28417497D01*
X26955671Y28417497D02*
X26955671Y28512735D01*
X26955671Y28512735D02*
X26908052Y28607973D01*
X26908052Y28607973D02*
X26860433Y28655592D01*
X26860433Y28655592D02*
X26765195Y28703211D01*
X26765195Y28703211D02*
X26527100Y28703211D01*
X26527100Y28703211D02*
X26384243Y28655592D01*
X25955671Y28227021D02*
X25622338Y28227021D01*
X25479481Y27703211D02*
X25955671Y27703211D01*
X25955671Y27703211D02*
X25955671Y28703211D01*
X25955671Y28703211D02*
X25479481Y28703211D01*
X25193766Y28703211D02*
X24622338Y28703211D01*
X24908052Y27703211D02*
X24908052Y28703211D01*
X40790572Y28227021D02*
X40647715Y28179402D01*
X40647715Y28179402D02*
X40600096Y28131783D01*
X40600096Y28131783D02*
X40552477Y28036545D01*
X40552477Y28036545D02*
X40552477Y27893688D01*
X40552477Y27893688D02*
X40600096Y27798450D01*
X40600096Y27798450D02*
X40647715Y27750830D01*
X40647715Y27750830D02*
X40742953Y27703211D01*
X40742953Y27703211D02*
X41123905Y27703211D01*
X41123905Y27703211D02*
X41123905Y28703211D01*
X41123905Y28703211D02*
X40790572Y28703211D01*
X40790572Y28703211D02*
X40695334Y28655592D01*
X40695334Y28655592D02*
X40647715Y28607973D01*
X40647715Y28607973D02*
X40600096Y28512735D01*
X40600096Y28512735D02*
X40600096Y28417497D01*
X40600096Y28417497D02*
X40647715Y28322259D01*
X40647715Y28322259D02*
X40695334Y28274640D01*
X40695334Y28274640D02*
X40790572Y28227021D01*
X40790572Y28227021D02*
X41123905Y28227021D01*
X39933429Y28703211D02*
X39742953Y28703211D01*
X39742953Y28703211D02*
X39647715Y28655592D01*
X39647715Y28655592D02*
X39552477Y28560354D01*
X39552477Y28560354D02*
X39504858Y28369878D01*
X39504858Y28369878D02*
X39504858Y28036545D01*
X39504858Y28036545D02*
X39552477Y27846069D01*
X39552477Y27846069D02*
X39647715Y27750830D01*
X39647715Y27750830D02*
X39742953Y27703211D01*
X39742953Y27703211D02*
X39933429Y27703211D01*
X39933429Y27703211D02*
X40028667Y27750830D01*
X40028667Y27750830D02*
X40123905Y27846069D01*
X40123905Y27846069D02*
X40171524Y28036545D01*
X40171524Y28036545D02*
X40171524Y28369878D01*
X40171524Y28369878D02*
X40123905Y28560354D01*
X40123905Y28560354D02*
X40028667Y28655592D01*
X40028667Y28655592D02*
X39933429Y28703211D01*
X38885810Y28703211D02*
X38695334Y28703211D01*
X38695334Y28703211D02*
X38600096Y28655592D01*
X38600096Y28655592D02*
X38504858Y28560354D01*
X38504858Y28560354D02*
X38457239Y28369878D01*
X38457239Y28369878D02*
X38457239Y28036545D01*
X38457239Y28036545D02*
X38504858Y27846069D01*
X38504858Y27846069D02*
X38600096Y27750830D01*
X38600096Y27750830D02*
X38695334Y27703211D01*
X38695334Y27703211D02*
X38885810Y27703211D01*
X38885810Y27703211D02*
X38981048Y27750830D01*
X38981048Y27750830D02*
X39076286Y27846069D01*
X39076286Y27846069D02*
X39123905Y28036545D01*
X39123905Y28036545D02*
X39123905Y28369878D01*
X39123905Y28369878D02*
X39076286Y28560354D01*
X39076286Y28560354D02*
X38981048Y28655592D01*
X38981048Y28655592D02*
X38885810Y28703211D01*
X38171524Y28703211D02*
X37600096Y28703211D01*
X37885810Y27703211D02*
X37885810Y28703211D01*
X37314381Y27750830D02*
X37171524Y27703211D01*
X37171524Y27703211D02*
X36933429Y27703211D01*
X36933429Y27703211D02*
X36838191Y27750830D01*
X36838191Y27750830D02*
X36790572Y27798450D01*
X36790572Y27798450D02*
X36742953Y27893688D01*
X36742953Y27893688D02*
X36742953Y27988926D01*
X36742953Y27988926D02*
X36790572Y28084164D01*
X36790572Y28084164D02*
X36838191Y28131783D01*
X36838191Y28131783D02*
X36933429Y28179402D01*
X36933429Y28179402D02*
X37123905Y28227021D01*
X37123905Y28227021D02*
X37219143Y28274640D01*
X37219143Y28274640D02*
X37266762Y28322259D01*
X37266762Y28322259D02*
X37314381Y28417497D01*
X37314381Y28417497D02*
X37314381Y28512735D01*
X37314381Y28512735D02*
X37266762Y28607973D01*
X37266762Y28607973D02*
X37219143Y28655592D01*
X37219143Y28655592D02*
X37123905Y28703211D01*
X37123905Y28703211D02*
X36885810Y28703211D01*
X36885810Y28703211D02*
X36742953Y28655592D01*
X36314381Y28227021D02*
X35981048Y28227021D01*
X35838191Y27703211D02*
X36314381Y27703211D01*
X36314381Y27703211D02*
X36314381Y28703211D01*
X36314381Y28703211D02*
X35838191Y28703211D01*
X34933429Y27703211D02*
X35409619Y27703211D01*
X35409619Y27703211D02*
X35409619Y28703211D01*
D12*
X115085955Y46565862D02*
X115085955Y50465862D01*
X117085955Y46565862D02*
X115085955Y46565862D01*
X117085955Y46565862D02*
X117085955Y50465862D01*
X129373467Y65913453D02*
X129373467Y69813453D01*
X131373467Y65913453D02*
X129373467Y65913453D01*
X131373467Y65913453D02*
X131373467Y69813453D01*
X124630802Y27515846D02*
X124630802Y31415846D01*
X126630802Y27515846D02*
X124630802Y27515846D01*
X126630802Y27515846D02*
X126630802Y31415846D01*
X39670726Y64096409D02*
X39670726Y63789127D01*
X38910726Y64096409D02*
X38910726Y63789127D01*
X4564813Y9145224D02*
X4257531Y9145224D01*
X4564813Y9905224D02*
X4257531Y9905224D01*
X26727038Y48707644D02*
X26727038Y48923316D01*
X27447038Y48707644D02*
X27447038Y48923316D01*
X72223622Y65913453D02*
X72223622Y69813453D01*
X74223622Y65913453D02*
X72223622Y65913453D01*
X74223622Y65913453D02*
X74223622Y69813453D01*
X17797077Y64677791D02*
X17797077Y64893463D01*
X18517077Y64677791D02*
X18517077Y64893463D01*
X176998507Y6084578D02*
X176998507Y9984578D01*
X178998507Y6084578D02*
X176998507Y6084578D01*
X178998507Y6084578D02*
X178998507Y9984578D01*
X125801589Y6084578D02*
X125801589Y9984578D01*
X127801589Y6084578D02*
X125801589Y6084578D01*
X127801589Y6084578D02*
X127801589Y9984578D01*
X27459226Y35284787D02*
X27306723Y35132284D01*
X26950109Y35793904D02*
X26797606Y35641401D01*
X29405960Y49005302D02*
X29405960Y49220974D01*
X30125960Y49005302D02*
X30125960Y49220974D01*
X96035939Y46701801D02*
X96035939Y50601801D01*
X98035939Y46701801D02*
X96035939Y46701801D01*
X98035939Y46701801D02*
X98035939Y50601801D01*
X157948491Y6084578D02*
X157948491Y9984578D01*
X159948491Y6084578D02*
X157948491Y6084578D01*
X159948491Y6084578D02*
X159948491Y9984578D01*
X53173574Y65913453D02*
X53173574Y69813453D01*
X55173574Y65913453D02*
X53173574Y65913453D01*
X55173574Y65913453D02*
X55173574Y69813453D01*
X134135971Y46565862D02*
X134135971Y50465862D01*
X136135971Y46565862D02*
X134135971Y46565862D01*
X136135971Y46565862D02*
X136135971Y50465862D01*
X22406501Y55071110D02*
X22406501Y54763828D01*
X21646501Y55071110D02*
X21646501Y54763828D01*
X167473499Y65913453D02*
X167473499Y69813453D01*
X169473499Y65913453D02*
X167473499Y65913453D01*
X169473499Y65913453D02*
X169473499Y69813453D01*
X13871172Y8473972D02*
X13871172Y5813972D01*
X3651172Y8473972D02*
X13871172Y8473972D01*
X3651172Y8473972D02*
X3651172Y5813972D01*
X2381172Y8473972D02*
X1051172Y8473972D01*
X1051172Y8473972D02*
X1051172Y7143972D01*
X3651172Y5813972D02*
X13871172Y5813972D01*
X191286019Y65913453D02*
X191286019Y69813453D01*
X193286019Y65913453D02*
X191286019Y65913453D01*
X193286019Y65913453D02*
X193286019Y69813453D01*
X91273670Y65913453D02*
X91273670Y69813453D01*
X93273670Y65913453D02*
X91273670Y65913453D01*
X93273670Y65913453D02*
X93273670Y69813453D01*
X23443816Y23407874D02*
X23443816Y25407874D01*
X24493816Y26707874D02*
X24943816Y27157874D01*
X24493816Y22107874D02*
X24943816Y21657874D01*
X24943816Y27157874D02*
X27443816Y27157874D01*
X24943816Y21657874D02*
X27443816Y21657874D01*
X27893816Y26707874D02*
X27443816Y27157874D01*
X27893816Y22107874D02*
X27443816Y21657874D01*
X28943816Y23407874D02*
X28943816Y25407874D01*
X87701557Y6084578D02*
X87701557Y9984578D01*
X89701557Y6084578D02*
X87701557Y6084578D01*
X89701557Y6084578D02*
X89701557Y9984578D01*
X148423483Y65913453D02*
X148423483Y69813453D01*
X150423483Y65913453D02*
X148423483Y65913453D01*
X150423483Y65913453D02*
X150423483Y69813453D01*
X26185091Y35796591D02*
X26032588Y35644088D01*
X25675974Y36305708D02*
X25523471Y36153205D01*
X17454623Y46565862D02*
X17454623Y50465862D01*
X19454623Y46565862D02*
X17454623Y46565862D01*
X19454623Y46565862D02*
X19454623Y50465862D01*
X27666096Y33501732D02*
X30494523Y36330159D01*
X29999549Y31168279D02*
X27666096Y33501732D01*
X105580786Y27515846D02*
X105580786Y31415846D01*
X107580786Y27515846D02*
X105580786Y27515846D01*
X107580786Y27515846D02*
X107580786Y31415846D01*
X189202823Y27515700D02*
X189202823Y31415700D01*
X191202823Y27515700D02*
X189202823Y27515700D01*
X191202823Y27515700D02*
X191202823Y31415700D01*
X193667271Y6084578D02*
X193667271Y9984578D01*
X195667271Y6084578D02*
X193667271Y6084578D01*
X195667271Y6084578D02*
X195667271Y9984578D01*
X33424343Y46028722D02*
X33424343Y46244394D01*
X34144343Y46028722D02*
X34144343Y46244394D01*
X35350096Y23407874D02*
X35350096Y25407874D01*
X36400096Y26707874D02*
X36850096Y27157874D01*
X36400096Y22107874D02*
X36850096Y21657874D01*
X36850096Y27157874D02*
X39350096Y27157874D01*
X36850096Y21657874D02*
X39350096Y21657874D01*
X39800096Y26707874D02*
X39350096Y27157874D01*
X39800096Y22107874D02*
X39350096Y21657874D01*
X40850096Y23407874D02*
X40850096Y25407874D01*
X57935907Y46565862D02*
X57935907Y50465862D01*
X59935907Y46565862D02*
X57935907Y46565862D01*
X59935907Y46565862D02*
X59935907Y50465862D01*
X15073371Y6084578D02*
X15073371Y9984578D01*
X17073371Y6084578D02*
X15073371Y6084578D01*
X17073371Y6084578D02*
X17073371Y9984578D01*
X28314828Y35464146D02*
X28532109Y35681427D01*
X28852229Y34926745D02*
X29069510Y35144026D01*
X23291807Y45102608D02*
X23076135Y45102608D01*
X23291807Y45822608D02*
X23076135Y45822608D01*
X40841352Y64080604D02*
X40841352Y63864932D01*
X40121352Y64080604D02*
X40121352Y63864932D01*
X25784064Y48707644D02*
X25784064Y48923316D01*
X26504064Y48707644D02*
X26504064Y48923316D01*
X23303971Y48707644D02*
X23303971Y48923316D01*
X24023971Y48707644D02*
X24023971Y48923316D01*
X38885891Y46565862D02*
X38885891Y50465862D01*
X40885891Y46565862D02*
X38885891Y46565862D01*
X40885891Y46565862D02*
X40885891Y50465862D01*
X172236003Y46565862D02*
X172236003Y50465862D01*
X174236003Y46565862D02*
X172236003Y46565862D01*
X174236003Y46565862D02*
X174236003Y50465862D01*
X24196945Y42554772D02*
X24196945Y42770444D01*
X24916945Y42554772D02*
X24916945Y42770444D01*
X22964880Y65915627D02*
X20464880Y65915627D01*
X20464880Y65915627D02*
X20464880Y64865627D01*
X20464880Y64865627D02*
X19474880Y64865627D01*
X24934880Y64745627D02*
X24934880Y60865627D01*
X22964880Y59695627D02*
X20464880Y59695627D01*
X20464880Y59695627D02*
X20464880Y60745627D01*
X31518489Y32325263D02*
X31670992Y32477766D01*
X32027606Y31816146D02*
X32180109Y31968649D01*
X193667271Y46565862D02*
X193667271Y50465862D01*
X195667271Y46565862D02*
X193667271Y46565862D01*
X195667271Y46565862D02*
X195667271Y50465862D01*
X143680818Y27515846D02*
X143680818Y31415846D01*
X145680818Y27515846D02*
X143680818Y27515846D01*
X145680818Y27515846D02*
X145680818Y31415846D01*
X23746313Y55071110D02*
X23746313Y54763828D01*
X22986313Y55071110D02*
X22986313Y54763828D01*
X86530770Y27515846D02*
X86530770Y31415846D01*
X88530770Y27515846D02*
X86530770Y27515846D01*
X88530770Y27515846D02*
X88530770Y31415846D01*
X76985923Y46565862D02*
X76985923Y50465862D01*
X78985923Y46565862D02*
X76985923Y46565862D01*
X78985923Y46565862D02*
X78985923Y50465862D01*
X28174451Y31524132D02*
X28021948Y31676635D01*
X28683568Y32033249D02*
X28531065Y32185752D01*
X37289474Y64096409D02*
X37289474Y63789127D01*
X36529474Y64096409D02*
X36529474Y63789127D01*
X67480754Y27515846D02*
X67480754Y31415846D01*
X69480754Y27515846D02*
X67480754Y27515846D01*
X69480754Y27515846D02*
X69480754Y31415846D01*
X153185987Y46565862D02*
X153185987Y50465862D01*
X155185987Y46565862D02*
X153185987Y46565862D01*
X155185987Y46565862D02*
X155185987Y50465862D01*
X24841090Y48707644D02*
X24841090Y48923316D01*
X25561090Y48707644D02*
X25561090Y48923316D01*
X12439251Y64677791D02*
X12439251Y64893463D01*
X13159251Y64677791D02*
X13159251Y64893463D01*
X48430738Y27515846D02*
X48430738Y31415846D01*
X50430738Y27515846D02*
X48430738Y27515846D01*
X50430738Y27515846D02*
X50430738Y31415846D01*
X34144343Y41333037D02*
X34144343Y41117365D01*
X33424343Y41333037D02*
X33424343Y41117365D01*
X162730834Y27515846D02*
X162730834Y31415846D01*
X164730834Y27515846D02*
X162730834Y27515846D01*
X164730834Y27515846D02*
X164730834Y31415846D01*
X32780386Y39252608D02*
X32780386Y39902608D01*
X32130386Y39252608D02*
X32780386Y39252608D01*
X32130386Y46472608D02*
X32780386Y46472608D01*
X26210386Y39252608D02*
X25560386Y39252608D01*
X26210386Y46472608D02*
X25560386Y46472608D01*
X25560386Y39252608D02*
X25560386Y39902608D01*
X25560386Y46472608D02*
X25560386Y45822608D01*
X34123387Y6084578D02*
X34123387Y9984578D01*
X36123387Y6084578D02*
X34123387Y6084578D01*
X36123387Y6084578D02*
X36123387Y9984578D01*
X13918164Y62805627D02*
X13918164Y62155627D01*
X13918164Y62805627D02*
X13918164Y63455627D01*
X17038164Y62805627D02*
X17038164Y61130627D01*
X17038164Y62805627D02*
X17038164Y63455627D01*
X22217484Y27528249D02*
X22217484Y31428249D01*
X24217484Y27528249D02*
X22217484Y27528249D01*
X24217484Y27528249D02*
X24217484Y31428249D01*
X34123526Y65913453D02*
X34123526Y69813453D01*
X36123526Y65913453D02*
X34123526Y65913453D01*
X36123526Y65913453D02*
X36123526Y69813453D01*
X37720100Y63789127D02*
X37720100Y64096409D01*
X38480100Y63789127D02*
X38480100Y64096409D01*
X49159492Y59822768D02*
X49159492Y60082768D01*
X49159492Y65012768D02*
X50834492Y65012768D01*
X49159492Y65272768D02*
X49159492Y65012768D01*
X46434492Y59822768D02*
X49159492Y59822768D01*
X46434492Y59822768D02*
X43709492Y59822768D01*
X46434492Y65272768D02*
X49159492Y65272768D01*
X46434492Y65272768D02*
X43709492Y65272768D01*
X43709492Y59822768D02*
X43709492Y60082768D01*
X43709492Y65272768D02*
X43709492Y65012768D01*
X28462986Y49005302D02*
X28462986Y49220974D01*
X29182986Y49005302D02*
X29182986Y49220974D01*
X15073478Y65913453D02*
X15073478Y69813453D01*
X17073478Y65913453D02*
X15073478Y65913453D01*
X17073478Y65913453D02*
X17073478Y69813453D01*
X110323718Y65913453D02*
X110323718Y69813453D01*
X112323718Y65913453D02*
X110323718Y65913453D01*
X112323718Y65913453D02*
X112323718Y69813453D01*
X53173403Y6084578D02*
X53173403Y9984578D01*
X55173403Y6084578D02*
X53173403Y6084578D01*
X55173403Y6084578D02*
X55173403Y9984578D01*
%LPC*%
D13*
X116085955Y47165862D03*
X116085955Y50465862D03*
X130373467Y66513453D03*
X130373467Y69813453D03*
D14*
X167004880Y71437794D03*
D15*
X164464880Y76517794D03*
D16*
X161924880Y71437794D03*
D15*
X158114880Y73977794D03*
D14*
X156844880Y71437794D03*
D17*
X154839880Y73977794D03*
X167766880Y76517794D03*
D14*
X188436130Y33337584D03*
D15*
X185896130Y38417584D03*
D16*
X183356130Y33337584D03*
D15*
X179546130Y35877584D03*
D14*
X178276130Y33337584D03*
D17*
X176271130Y35877584D03*
X189198130Y38417584D03*
D13*
X125630802Y28115846D03*
X125630802Y31415846D03*
D18*
X39290726Y64452768D03*
X39290726Y63432768D03*
D19*
X4921172Y9525224D03*
X3901172Y9525224D03*
D20*
X27087038Y48335480D03*
X27087038Y49295480D03*
D13*
X73223622Y66513453D03*
X73223622Y69813453D03*
D20*
X18157077Y64305627D03*
X18157077Y65265627D03*
D13*
X177998507Y6684578D03*
X177998507Y9984578D03*
D14*
X14604880Y14287794D03*
D15*
X12064880Y19367794D03*
D16*
X9524880Y14287794D03*
D15*
X5714880Y16827794D03*
D14*
X4444880Y14287794D03*
D17*
X2439880Y16827794D03*
X15366880Y19367794D03*
D14*
X76517380Y52387794D03*
D15*
X73977380Y57467794D03*
D16*
X71437380Y52387794D03*
D15*
X67627380Y54927794D03*
D14*
X66357380Y52387794D03*
D17*
X64352380Y54927794D03*
X77279380Y57467794D03*
D14*
X57467380Y52387794D03*
D15*
X54927380Y57467794D03*
D16*
X52387380Y52387794D03*
D15*
X48577380Y54927794D03*
D14*
X47307380Y52387794D03*
D17*
X45302380Y54927794D03*
X58229380Y57467794D03*
D13*
X126801589Y6684578D03*
X126801589Y9984578D03*
D21*
X27467827Y35802505D03*
X26789005Y35123683D03*
D20*
X29765960Y48633138D03*
X29765960Y49593138D03*
D14*
X71754880Y71437794D03*
D15*
X69214880Y76517794D03*
D16*
X66674880Y71437794D03*
D15*
X62864880Y73977794D03*
D14*
X61594880Y71437794D03*
D17*
X59589880Y73977794D03*
X72516880Y76517794D03*
D13*
X97035939Y47301801D03*
X97035939Y50601801D03*
X158948491Y6684578D03*
X158948491Y9984578D03*
X54173574Y66513453D03*
X54173574Y69813453D03*
D14*
X128904880Y71437794D03*
D15*
X126364880Y76517794D03*
D16*
X123824880Y71437794D03*
D15*
X120014880Y73977794D03*
D14*
X118744880Y71437794D03*
D17*
X116739880Y73977794D03*
X129666880Y76517794D03*
D13*
X135135971Y47165862D03*
X135135971Y50465862D03*
D18*
X22026501Y55427469D03*
X22026501Y54407470D03*
D14*
X124142380Y33337744D03*
D15*
X121602380Y38417744D03*
D16*
X119062380Y33337744D03*
D15*
X115252380Y35877744D03*
D14*
X113982380Y33337744D03*
D17*
X111977380Y35877744D03*
X124904380Y38417744D03*
D13*
X168473499Y66513453D03*
X168473499Y69813453D03*
D14*
X90804880Y71437794D03*
D15*
X88264880Y76517794D03*
D16*
X85724880Y71437794D03*
D15*
X81914880Y73977794D03*
D14*
X80644880Y71437794D03*
D17*
X78639880Y73977794D03*
X91566880Y76517794D03*
D22*
X2381172Y7143972D03*
D23*
X4921172Y7143972D03*
X7461172Y7143972D03*
X10001172Y7143972D03*
X12541172Y7143972D03*
D14*
X105092380Y33337794D03*
D15*
X102552380Y38417794D03*
D16*
X100012380Y33337794D03*
D15*
X96202380Y35877794D03*
D14*
X94932380Y33337794D03*
D17*
X92927380Y35877794D03*
X105854380Y38417794D03*
D13*
X192286019Y66513453D03*
X192286019Y69813453D03*
X92273670Y66513453D03*
X92273670Y69813453D03*
D24*
X23043816Y22507874D03*
X29343816Y22507874D03*
X23043816Y26307874D03*
X29343816Y26307874D03*
D13*
X88701557Y6684578D03*
X88701557Y9984578D03*
D14*
X86042380Y33337744D03*
D15*
X83502380Y38417744D03*
D16*
X80962380Y33337744D03*
D15*
X77152380Y35877744D03*
D14*
X75882380Y33337744D03*
D17*
X73877380Y35877744D03*
X86804380Y38417744D03*
D13*
X149423483Y66513453D03*
X149423483Y69813453D03*
D14*
X171767380Y52387794D03*
D15*
X169227380Y57467794D03*
D16*
X166687380Y52387794D03*
D15*
X162877380Y54927794D03*
D14*
X161607380Y52387794D03*
D17*
X159602380Y54927794D03*
X172529380Y57467794D03*
D21*
X26193692Y36314309D03*
X25514870Y35635487D03*
D13*
X18454623Y47165862D03*
X18454623Y50465862D03*
D25*
X28868178Y33572442D03*
X30423813Y35128077D03*
X31625894Y33925996D03*
X30070259Y32370361D03*
D13*
X106580786Y28115846D03*
X106580786Y31415846D03*
X190202823Y28115700D03*
X190202823Y31415700D03*
D14*
X14604880Y71437794D03*
D15*
X12064880Y76517794D03*
D16*
X9524880Y71437794D03*
D15*
X5714880Y73977794D03*
D14*
X4444880Y71437794D03*
D17*
X2439880Y73977794D03*
X15366880Y76517794D03*
D13*
X194667271Y6684578D03*
X194667271Y9984578D03*
D20*
X33784343Y45656558D03*
X33784343Y46616558D03*
D24*
X34950096Y22507874D03*
X41250096Y22507874D03*
X34950096Y26307874D03*
X41250096Y26307874D03*
D14*
X95567380Y52387794D03*
D15*
X93027380Y57467794D03*
D16*
X90487380Y52387794D03*
D15*
X86677380Y54927794D03*
D14*
X85407380Y52387794D03*
D17*
X83402380Y54927794D03*
X96329380Y57467794D03*
D13*
X58935907Y47165862D03*
X58935907Y50465862D03*
D14*
X47942380Y33337794D03*
D15*
X45402380Y38417794D03*
D16*
X42862380Y33337794D03*
D15*
X39052380Y35877794D03*
D14*
X37782380Y33337794D03*
D17*
X35777380Y35877794D03*
X48704380Y38417794D03*
D13*
X16073371Y6684578D03*
X16073371Y9984578D03*
D14*
X190817380Y71437794D03*
D15*
X188277380Y76517794D03*
D16*
X185737380Y71437794D03*
D15*
X181927380Y73977794D03*
D14*
X180657380Y71437794D03*
D17*
X178652380Y73977794D03*
X191579380Y76517794D03*
D26*
X28331545Y34943462D03*
X29052793Y35664710D03*
D27*
X23663971Y45462608D03*
X22703971Y45462608D03*
D14*
X143192380Y33337794D03*
D15*
X140652380Y38417794D03*
D16*
X138112380Y33337794D03*
D15*
X134302380Y35877794D03*
D14*
X133032380Y33337794D03*
D17*
X131027380Y35877794D03*
X143954380Y38417794D03*
D14*
X52704880Y14287794D03*
D15*
X50164880Y19367794D03*
D16*
X47624880Y14287794D03*
D15*
X43814880Y16827794D03*
D14*
X42544880Y14287794D03*
D17*
X40539880Y16827794D03*
X53466880Y19367794D03*
D28*
X40481352Y64452768D03*
X40481352Y63492768D03*
D14*
X193198630Y52387794D03*
D15*
X190658630Y57467794D03*
D16*
X188118630Y52387794D03*
D15*
X184308630Y54927794D03*
D14*
X183038630Y52387794D03*
D17*
X181033630Y54927794D03*
X193960630Y57467794D03*
D20*
X26144064Y48335480D03*
X26144064Y49295480D03*
X23663971Y48335480D03*
X23663971Y49295480D03*
D13*
X39885891Y47165862D03*
X39885891Y50465862D03*
X173236003Y47165862D03*
X173236003Y50465862D03*
D20*
X24556945Y42182608D03*
X24556945Y43142608D03*
D29*
X20249880Y64305627D03*
X20249880Y63305627D03*
X20249880Y62305627D03*
X20249880Y61305627D03*
D30*
X24124880Y65605627D03*
X24124880Y60005627D03*
D31*
X31509888Y31807545D03*
X32188710Y32486367D03*
D14*
X157479880Y14287794D03*
D15*
X154939880Y19367794D03*
D16*
X152399880Y14287794D03*
D15*
X148589880Y16827794D03*
D14*
X147319880Y14287794D03*
D17*
X145314880Y16827794D03*
X158241880Y19367794D03*
D14*
X52704880Y71437794D03*
D15*
X50164880Y76517794D03*
D16*
X47624880Y71437794D03*
D15*
X43814880Y73977794D03*
D14*
X42544880Y71437794D03*
D17*
X40539880Y73977794D03*
X53466880Y76517794D03*
D14*
X147954880Y71437794D03*
D15*
X145414880Y76517794D03*
D16*
X142874880Y71437794D03*
D15*
X139064880Y73977794D03*
D14*
X137794880Y71437794D03*
D17*
X135789880Y73977794D03*
X148716880Y76517794D03*
D13*
X194667271Y47165862D03*
X194667271Y50465862D03*
X144680818Y28115846D03*
X144680818Y31415846D03*
D14*
X66992380Y33337744D03*
D15*
X64452380Y38417744D03*
D16*
X61932163Y33337744D03*
D15*
X58102380Y35877744D03*
D14*
X56832380Y33337744D03*
D17*
X54827380Y35877744D03*
X67754380Y38417744D03*
D18*
X23366313Y55427469D03*
X23366313Y54407470D03*
D32*
X128587380Y2540024D03*
D16*
X128587380Y17780024D03*
D14*
X105092380Y9525024D03*
D15*
X102552380Y14605024D03*
D16*
X100012380Y9525024D03*
D15*
X96202380Y12065024D03*
D14*
X94932380Y9525024D03*
D32*
X71437380Y2540024D03*
D16*
X71437380Y17780024D03*
D17*
X92927380Y12065024D03*
D33*
X105854380Y14605024D03*
D13*
X87530770Y28115846D03*
X87530770Y31415846D03*
X77985923Y47165862D03*
X77985923Y50465862D03*
D34*
X28692169Y31515531D03*
X28013347Y32194353D03*
D14*
X33654880Y71437794D03*
D15*
X31114880Y76517794D03*
D16*
X28574880Y71437794D03*
D15*
X24764880Y73977794D03*
D14*
X23494880Y71437794D03*
D17*
X21489880Y73977794D03*
X34416880Y76517794D03*
D18*
X36909474Y64452768D03*
X36909474Y63432768D03*
D14*
X33654880Y14287794D03*
D15*
X31114880Y19367794D03*
D16*
X28574880Y14287794D03*
D15*
X24764880Y16827794D03*
D14*
X23494880Y14287794D03*
D17*
X21489880Y16827794D03*
X34416880Y19367794D03*
D13*
X68480754Y28115846D03*
X68480754Y31415846D03*
X154185987Y47165862D03*
X154185987Y50465862D03*
D14*
X133667380Y52387794D03*
D15*
X131127380Y57467794D03*
D16*
X128587380Y52387794D03*
D15*
X124777380Y54927794D03*
D14*
X123507380Y52387794D03*
D17*
X121502380Y54927794D03*
X134429380Y57467794D03*
D20*
X25201090Y48335480D03*
X25201090Y49295480D03*
D14*
X152717380Y52387794D03*
D15*
X150177380Y57467794D03*
D16*
X147637380Y52387794D03*
D15*
X143827380Y54927794D03*
D14*
X142557380Y52387794D03*
D17*
X140552380Y54927794D03*
X153479380Y57467794D03*
D32*
X131000380Y2540024D03*
D16*
X131000380Y17780024D03*
D14*
X124142380Y9525024D03*
D15*
X121602380Y14605024D03*
D16*
X119062380Y9525024D03*
D15*
X115252380Y12065024D03*
D14*
X113982380Y9525024D03*
D32*
X107124380Y2540024D03*
D16*
X107124380Y17780024D03*
D17*
X111977380Y12065024D03*
X124904380Y14605024D03*
D20*
X12799251Y64305627D03*
X12799251Y65265627D03*
D32*
X92900380Y2540294D03*
D16*
X92900380Y17780294D03*
D14*
X86042380Y9525294D03*
D15*
X83502380Y14605294D03*
D16*
X80962380Y9525294D03*
D15*
X77152380Y12065294D03*
D14*
X75882380Y9525294D03*
D32*
X69024380Y2540294D03*
D16*
X69024380Y17780294D03*
D17*
X73877380Y12065294D03*
X86804380Y14605294D03*
D13*
X49430738Y28115846D03*
X49430738Y31415846D03*
D14*
X162242380Y33337794D03*
D15*
X159702380Y38417794D03*
D16*
X157162380Y33337794D03*
D15*
X153352380Y35877794D03*
D14*
X152082380Y33337794D03*
D17*
X150077380Y35877794D03*
X163004380Y38417794D03*
D28*
X33784343Y41705201D03*
X33784343Y40745201D03*
D14*
X195579880Y14287794D03*
D15*
X193039880Y19367794D03*
D16*
X190499880Y14287794D03*
D15*
X186689880Y16827794D03*
D14*
X185419880Y14287794D03*
D17*
X183414880Y16827794D03*
X196341880Y19367794D03*
D14*
X16986130Y52387794D03*
D15*
X14446130Y57467794D03*
D16*
X11906130Y52387794D03*
D15*
X8096130Y54927794D03*
D14*
X6826130Y52387794D03*
D17*
X4821130Y54927794D03*
X17748130Y57467794D03*
D13*
X163730834Y28115846D03*
X163730834Y31415846D03*
D35*
X32607886Y45462608D03*
X32607886Y45062608D03*
X32607886Y44662608D03*
X32607886Y44262608D03*
X32607886Y43862608D03*
X32607886Y43462608D03*
X32607886Y43062608D03*
X32607886Y42662608D03*
X32607886Y42262608D03*
X32607886Y41862608D03*
X32607886Y41462608D03*
X32607886Y41062608D03*
X32607886Y40662608D03*
X32607886Y40262608D03*
D36*
X31770386Y39425108D03*
X31370386Y39425108D03*
X30970386Y39425108D03*
X30570386Y39425108D03*
X30170386Y39425108D03*
X29770386Y39425108D03*
X29370386Y39425108D03*
X28970386Y39425108D03*
X28570386Y39425108D03*
X28170386Y39425108D03*
X27770386Y39425108D03*
X27370386Y39425108D03*
X26970386Y39425108D03*
X26570386Y39425108D03*
D35*
X25732886Y40262608D03*
X25732886Y40662608D03*
X25732886Y41062608D03*
X25732886Y41462608D03*
X25732886Y41862608D03*
X25732886Y42262608D03*
X25732886Y42662608D03*
X25732886Y43062608D03*
X25732886Y43462608D03*
X25732886Y43862608D03*
X25732886Y44262608D03*
X25732886Y44662608D03*
X25732886Y45062608D03*
X25732886Y45462608D03*
D36*
X26570386Y46300108D03*
X26970386Y46300108D03*
X27370386Y46300108D03*
X27770386Y46300108D03*
X28170386Y46300108D03*
X28570386Y46300108D03*
X28970386Y46300108D03*
X29370386Y46300108D03*
X29770386Y46300108D03*
X30170386Y46300108D03*
X30570386Y46300108D03*
X30970386Y46300108D03*
X31370386Y46300108D03*
X31770386Y46300108D03*
D37*
X29170386Y42862608D03*
D14*
X109854880Y71437794D03*
D15*
X107314880Y76517794D03*
D16*
X104774880Y71437794D03*
D15*
X100964880Y73977794D03*
D14*
X99694880Y71437794D03*
D17*
X97689880Y73977794D03*
X110616880Y76517794D03*
D13*
X35123387Y6684578D03*
X35123387Y9984578D03*
D38*
X16428164Y61868127D03*
X14528164Y61868127D03*
X15478164Y63743127D03*
D13*
X23217484Y28128249D03*
X23217484Y31428249D03*
D14*
X38417380Y52387794D03*
D15*
X35877380Y57467794D03*
D16*
X33337380Y52387794D03*
D15*
X29527380Y54927794D03*
D14*
X28257380Y52387794D03*
D17*
X26252380Y54927794D03*
X39179380Y57467794D03*
D13*
X35123526Y66513453D03*
X35123526Y69813453D03*
D39*
X38100100Y63432768D03*
X38100100Y64452768D03*
D14*
X114617380Y52387794D03*
D15*
X112077380Y57467794D03*
D16*
X109537380Y52387794D03*
D15*
X105727380Y54927794D03*
D14*
X104457380Y52387794D03*
D17*
X102452380Y54927794D03*
X115379380Y57467794D03*
D40*
X50034492Y64452768D03*
X50034492Y63182768D03*
X50034492Y61912768D03*
X50034492Y60642768D03*
X42834492Y60642768D03*
X42834492Y61912768D03*
X42834492Y63182768D03*
X42834492Y64452768D03*
D20*
X28822986Y48633138D03*
X28822986Y49593138D03*
D13*
X16073478Y66513453D03*
X16073478Y69813453D03*
X111323718Y66513453D03*
X111323718Y69813453D03*
D14*
X176529880Y14287794D03*
D15*
X173989880Y19367794D03*
D16*
X171449880Y14287794D03*
D15*
X167639880Y16827794D03*
D14*
X166369880Y14287794D03*
D17*
X164364880Y16827794D03*
X177291880Y19367794D03*
D14*
X21748630Y33337794D03*
D15*
X19208630Y38417794D03*
D16*
X16668630Y33337794D03*
D15*
X12858630Y35877794D03*
D14*
X11588630Y33337794D03*
D17*
X9583630Y35877794D03*
X22510630Y38417794D03*
D13*
X54173403Y6684578D03*
X54173403Y9984578D03*
%LPD*%
M02*
