M48
; DRILL file {KiCad 7.0.6} date Mon Jul 31 23:13:44 2023
; FORMAT={-:-/ absolute / metric / decimal}
; #@! TF.CreationDate,2023-07-31T23:13:44-04:00
; #@! TF.GenerationSoftware,Kicad,Pcbnew,7.0.6
; #@! TF.FileFunction,Plated,1,2,PTH
FMAT,2
METRIC
; #@! TA.AperFunction,Plated,PTH,ComponentDrill
T1C0.300
; #@! TA.AperFunction,Plated,PTH,ViaDrill
T2C0.400
; #@! TA.AperFunction,Plated,PTH,ComponentDrill
T3C1.000
%
G90
G05
T1
X27.895Y44.138
X27.895Y42.863
X27.895Y41.588
X29.17Y44.138
X29.17Y42.863
X29.17Y41.588
X30.445Y44.138
X30.445Y42.863
X30.445Y41.588
T2
X2.439Y71.438
X2.439Y14.288
X4.821Y52.388
X9.584Y33.338
X11.311Y67.866
X11.311Y64.306
X11.311Y61.913
X16.669Y47.166
X21.431Y47.03
X21.431Y51.197
X21.489Y71.438
X21.489Y14.288
X22.622Y51.197
X22.622Y47.03
X22.704Y42.183
X24.408Y29.766
X25.201Y47.03
X26.252Y57.15
X26.789Y36.91
X26.789Y29.766
X27.98Y29.766
X28.575Y36.91
X29.766Y29.766
X30.956Y50.602
X30.956Y29.766
X34.528Y38.1
X35.123Y41.705
X35.123Y38.696
X35.719Y64.453
X35.777Y33.338
X36.314Y46.137
X37.505Y47.166
X39.886Y41.705
X40.539Y71.438
X40.539Y14.288
X43.458Y26.308
X45.302Y52.388
X46.434Y67.866
X46.434Y64.453
X46.434Y60.643
X54.827Y33.338
X59.589Y71.438
X64.352Y52.388
X73.877Y33.338
X78.639Y71.438
X83.402Y52.388
X92.927Y33.338
X92.927Y9.525
X97.689Y71.438
X102.452Y52.388
X111.977Y33.338
X111.977Y9.525
X116.739Y71.438
X121.502Y52.388
X131.008Y33.338
X135.789Y71.438
X140.552Y52.388
X145.314Y14.288
X150.077Y33.338
X154.839Y71.438
X159.602Y52.388
X164.364Y14.288
X176.271Y33.338
X178.652Y71.438
X181.033Y52.388
X183.415Y14.288
T3
X2.381Y7.144
X4.921Y7.144
X7.461Y7.144
X10.001Y7.144
X12.541Y7.144
T0
M30
