%TF.GenerationSoftware,KiCad,Pcbnew,7.0.6*%
%TF.CreationDate,2023-07-31T23:13:40-04:00*%
%TF.ProjectId,cutiepie2040-standard-stagger,63757469-6570-4696-9532-3034302d7374,rev?*%
%TF.SameCoordinates,PX2d6b3a0PY7aa1830*%
%TF.FileFunction,Soldermask,Bot*%
%TF.FilePolarity,Negative*%
%FSLAX46Y46*%
G04 Gerber Fmt 4.6, Leading zero omitted, Abs format (unit mm)*
G04 Created by KiCad (PCBNEW 7.0.6) date 2023-07-31 23:13:40*
%MOMM*%
%LPD*%
G01*
G04 APERTURE LIST*
G04 Aperture macros list*
%AMRoundRect*
0 Rectangle with rounded corners*
0 $1 Rounding radius*
0 $2 $3 $4 $5 $6 $7 $8 $9 X,Y pos of 4 corners*
0 Add a 4 corners polygon primitive as box body*
4,1,4,$2,$3,$4,$5,$6,$7,$8,$9,$2,$3,0*
0 Add four circle primitives for the rounded corners*
1,1,$1+$1,$2,$3*
1,1,$1+$1,$4,$5*
1,1,$1+$1,$6,$7*
1,1,$1+$1,$8,$9*
0 Add four rect primitives between the rounded corners*
20,1,$1+$1,$2,$3,$4,$5,0*
20,1,$1+$1,$4,$5,$6,$7,0*
20,1,$1+$1,$6,$7,$8,$9,0*
20,1,$1+$1,$8,$9,$2,$3,0*%
%AMRotRect*
0 Rectangle, with rotation*
0 The origin of the aperture is its center*
0 $1 length*
0 $2 width*
0 $3 Rotation angle, in degrees counterclockwise*
0 Add horizontal line*
21,1,$1,$2,0,0,$3*%
G04 Aperture macros list end*
%ADD10R,1.200000X0.900000*%
%ADD11C,1.750000*%
%ADD12C,3.000000*%
%ADD13C,3.987800*%
%ADD14R,2.550000X2.500000*%
%ADD15RoundRect,0.135000X-0.185000X0.135000X-0.185000X-0.135000X0.185000X-0.135000X0.185000X0.135000X0*%
%ADD16RoundRect,0.135000X0.135000X0.185000X-0.135000X0.185000X-0.135000X-0.185000X0.135000X-0.185000X0*%
%ADD17RoundRect,0.140000X0.170000X-0.140000X0.170000X0.140000X-0.170000X0.140000X-0.170000X-0.140000X0*%
%ADD18RoundRect,0.140000X-0.021213X0.219203X-0.219203X0.021213X0.021213X-0.219203X0.219203X-0.021213X0*%
%ADD19R,1.700000X1.700000*%
%ADD20O,1.700000X1.700000*%
%ADD21R,1.700000X1.000000*%
%ADD22RotRect,1.400000X1.200000X45.000000*%
%ADD23RoundRect,0.135000X0.035355X-0.226274X0.226274X-0.035355X-0.035355X0.226274X-0.226274X0.035355X0*%
%ADD24RoundRect,0.140000X0.140000X0.170000X-0.140000X0.170000X-0.140000X-0.170000X0.140000X-0.170000X0*%
%ADD25RoundRect,0.140000X-0.170000X0.140000X-0.170000X-0.140000X0.170000X-0.140000X0.170000X0.140000X0*%
%ADD26RoundRect,0.150000X-0.625000X0.150000X-0.625000X-0.150000X0.625000X-0.150000X0.625000X0.150000X0*%
%ADD27RoundRect,0.229167X-0.670833X0.320833X-0.670833X-0.320833X0.670833X-0.320833X0.670833X0.320833X0*%
%ADD28RoundRect,0.140000X0.021213X-0.219203X0.219203X-0.021213X-0.021213X0.219203X-0.219203X0.021213X0*%
%ADD29C,3.048000*%
%ADD30R,2.550000X2.000000*%
%ADD31RoundRect,0.140000X0.219203X0.021213X0.021213X0.219203X-0.219203X-0.021213X-0.021213X-0.219203X0*%
%ADD32RoundRect,0.050000X0.387500X0.050000X-0.387500X0.050000X-0.387500X-0.050000X0.387500X-0.050000X0*%
%ADD33RoundRect,0.050000X0.050000X0.387500X-0.050000X0.387500X-0.050000X-0.387500X0.050000X-0.387500X0*%
%ADD34RoundRect,0.144000X1.456000X1.456000X-1.456000X1.456000X-1.456000X-1.456000X1.456000X-1.456000X0*%
%ADD35RoundRect,0.150000X0.150000X-0.587500X0.150000X0.587500X-0.150000X0.587500X-0.150000X-0.587500X0*%
%ADD36RoundRect,0.135000X0.185000X-0.135000X0.185000X0.135000X-0.185000X0.135000X-0.185000X-0.135000X0*%
%ADD37RoundRect,0.150000X0.650000X0.150000X-0.650000X0.150000X-0.650000X-0.150000X0.650000X-0.150000X0*%
G04 APERTURE END LIST*
D10*
X116085955Y47165862D03*
X116085955Y50465862D03*
X130373467Y66513453D03*
X130373467Y69813453D03*
D11*
X167004880Y71437794D03*
D12*
X164464880Y76517794D03*
D13*
X161924880Y71437794D03*
D12*
X158114880Y73977794D03*
D11*
X156844880Y71437794D03*
D14*
X154839880Y73977794D03*
X167766880Y76517794D03*
D11*
X188436130Y33337584D03*
D12*
X185896130Y38417584D03*
D13*
X183356130Y33337584D03*
D12*
X179546130Y35877584D03*
D11*
X178276130Y33337584D03*
D14*
X176271130Y35877584D03*
X189198130Y38417584D03*
D10*
X125630802Y28115846D03*
X125630802Y31415846D03*
D15*
X39290726Y64452768D03*
X39290726Y63432768D03*
D16*
X4921172Y9525224D03*
X3901172Y9525224D03*
D17*
X27087038Y48335480D03*
X27087038Y49295480D03*
D10*
X73223622Y66513453D03*
X73223622Y69813453D03*
D17*
X18157077Y64305627D03*
X18157077Y65265627D03*
D10*
X177998507Y6684578D03*
X177998507Y9984578D03*
D11*
X14604880Y14287794D03*
D12*
X12064880Y19367794D03*
D13*
X9524880Y14287794D03*
D12*
X5714880Y16827794D03*
D11*
X4444880Y14287794D03*
D14*
X2439880Y16827794D03*
X15366880Y19367794D03*
D11*
X76517380Y52387794D03*
D12*
X73977380Y57467794D03*
D13*
X71437380Y52387794D03*
D12*
X67627380Y54927794D03*
D11*
X66357380Y52387794D03*
D14*
X64352380Y54927794D03*
X77279380Y57467794D03*
D11*
X57467380Y52387794D03*
D12*
X54927380Y57467794D03*
D13*
X52387380Y52387794D03*
D12*
X48577380Y54927794D03*
D11*
X47307380Y52387794D03*
D14*
X45302380Y54927794D03*
X58229380Y57467794D03*
D10*
X126801589Y6684578D03*
X126801589Y9984578D03*
D18*
X27467827Y35802505D03*
X26789005Y35123683D03*
D17*
X29765960Y48633138D03*
X29765960Y49593138D03*
D11*
X71754880Y71437794D03*
D12*
X69214880Y76517794D03*
D13*
X66674880Y71437794D03*
D12*
X62864880Y73977794D03*
D11*
X61594880Y71437794D03*
D14*
X59589880Y73977794D03*
X72516880Y76517794D03*
D10*
X97035939Y47301801D03*
X97035939Y50601801D03*
X158948491Y6684578D03*
X158948491Y9984578D03*
X54173574Y66513453D03*
X54173574Y69813453D03*
D11*
X128904880Y71437794D03*
D12*
X126364880Y76517794D03*
D13*
X123824880Y71437794D03*
D12*
X120014880Y73977794D03*
D11*
X118744880Y71437794D03*
D14*
X116739880Y73977794D03*
X129666880Y76517794D03*
D10*
X135135971Y47165862D03*
X135135971Y50465862D03*
D15*
X22026501Y55427469D03*
X22026501Y54407470D03*
D11*
X124142380Y33337744D03*
D12*
X121602380Y38417744D03*
D13*
X119062380Y33337744D03*
D12*
X115252380Y35877744D03*
D11*
X113982380Y33337744D03*
D14*
X111977380Y35877744D03*
X124904380Y38417744D03*
D10*
X168473499Y66513453D03*
X168473499Y69813453D03*
D11*
X90804880Y71437794D03*
D12*
X88264880Y76517794D03*
D13*
X85724880Y71437794D03*
D12*
X81914880Y73977794D03*
D11*
X80644880Y71437794D03*
D14*
X78639880Y73977794D03*
X91566880Y76517794D03*
D19*
X2381172Y7143972D03*
D20*
X4921172Y7143972D03*
X7461172Y7143972D03*
X10001172Y7143972D03*
X12541172Y7143972D03*
D11*
X105092380Y33337794D03*
D12*
X102552380Y38417794D03*
D13*
X100012380Y33337794D03*
D12*
X96202380Y35877794D03*
D11*
X94932380Y33337794D03*
D14*
X92927380Y35877794D03*
X105854380Y38417794D03*
D10*
X192286019Y66513453D03*
X192286019Y69813453D03*
X92273670Y66513453D03*
X92273670Y69813453D03*
D21*
X23043816Y22507874D03*
X29343816Y22507874D03*
X23043816Y26307874D03*
X29343816Y26307874D03*
D10*
X88701557Y6684578D03*
X88701557Y9984578D03*
D11*
X86042380Y33337744D03*
D12*
X83502380Y38417744D03*
D13*
X80962380Y33337744D03*
D12*
X77152380Y35877744D03*
D11*
X75882380Y33337744D03*
D14*
X73877380Y35877744D03*
X86804380Y38417744D03*
D10*
X149423483Y66513453D03*
X149423483Y69813453D03*
D11*
X171767380Y52387794D03*
D12*
X169227380Y57467794D03*
D13*
X166687380Y52387794D03*
D12*
X162877380Y54927794D03*
D11*
X161607380Y52387794D03*
D14*
X159602380Y54927794D03*
X172529380Y57467794D03*
D18*
X26193692Y36314309D03*
X25514870Y35635487D03*
D10*
X18454623Y47165862D03*
X18454623Y50465862D03*
D22*
X28868178Y33572442D03*
X30423813Y35128077D03*
X31625894Y33925996D03*
X30070259Y32370361D03*
D10*
X106580786Y28115846D03*
X106580786Y31415846D03*
X190202823Y28115700D03*
X190202823Y31415700D03*
D11*
X14604880Y71437794D03*
D12*
X12064880Y76517794D03*
D13*
X9524880Y71437794D03*
D12*
X5714880Y73977794D03*
D11*
X4444880Y71437794D03*
D14*
X2439880Y73977794D03*
X15366880Y76517794D03*
D10*
X194667271Y6684578D03*
X194667271Y9984578D03*
D17*
X33784343Y45656558D03*
X33784343Y46616558D03*
D21*
X34950096Y22507874D03*
X41250096Y22507874D03*
X34950096Y26307874D03*
X41250096Y26307874D03*
D11*
X95567380Y52387794D03*
D12*
X93027380Y57467794D03*
D13*
X90487380Y52387794D03*
D12*
X86677380Y54927794D03*
D11*
X85407380Y52387794D03*
D14*
X83402380Y54927794D03*
X96329380Y57467794D03*
D10*
X58935907Y47165862D03*
X58935907Y50465862D03*
D11*
X47942380Y33337794D03*
D12*
X45402380Y38417794D03*
D13*
X42862380Y33337794D03*
D12*
X39052380Y35877794D03*
D11*
X37782380Y33337794D03*
D14*
X35777380Y35877794D03*
X48704380Y38417794D03*
D10*
X16073371Y6684578D03*
X16073371Y9984578D03*
D11*
X190817380Y71437794D03*
D12*
X188277380Y76517794D03*
D13*
X185737380Y71437794D03*
D12*
X181927380Y73977794D03*
D11*
X180657380Y71437794D03*
D14*
X178652380Y73977794D03*
X191579380Y76517794D03*
D23*
X28331545Y34943462D03*
X29052793Y35664710D03*
D24*
X23663971Y45462608D03*
X22703971Y45462608D03*
D11*
X143192380Y33337794D03*
D12*
X140652380Y38417794D03*
D13*
X138112380Y33337794D03*
D12*
X134302380Y35877794D03*
D11*
X133032380Y33337794D03*
D14*
X131027380Y35877794D03*
X143954380Y38417794D03*
D11*
X52704880Y14287794D03*
D12*
X50164880Y19367794D03*
D13*
X47624880Y14287794D03*
D12*
X43814880Y16827794D03*
D11*
X42544880Y14287794D03*
D14*
X40539880Y16827794D03*
X53466880Y19367794D03*
D25*
X40481352Y64452768D03*
X40481352Y63492768D03*
D11*
X193198630Y52387794D03*
D12*
X190658630Y57467794D03*
D13*
X188118630Y52387794D03*
D12*
X184308630Y54927794D03*
D11*
X183038630Y52387794D03*
D14*
X181033630Y54927794D03*
X193960630Y57467794D03*
D17*
X26144064Y48335480D03*
X26144064Y49295480D03*
X23663971Y48335480D03*
X23663971Y49295480D03*
D10*
X39885891Y47165862D03*
X39885891Y50465862D03*
X173236003Y47165862D03*
X173236003Y50465862D03*
D17*
X24556945Y42182608D03*
X24556945Y43142608D03*
D26*
X20249880Y64305627D03*
X20249880Y63305627D03*
X20249880Y62305627D03*
X20249880Y61305627D03*
D27*
X24124880Y65605627D03*
X24124880Y60005627D03*
D28*
X31509888Y31807545D03*
X32188710Y32486367D03*
D11*
X157479880Y14287794D03*
D12*
X154939880Y19367794D03*
D13*
X152399880Y14287794D03*
D12*
X148589880Y16827794D03*
D11*
X147319880Y14287794D03*
D14*
X145314880Y16827794D03*
X158241880Y19367794D03*
D11*
X52704880Y71437794D03*
D12*
X50164880Y76517794D03*
D13*
X47624880Y71437794D03*
D12*
X43814880Y73977794D03*
D11*
X42544880Y71437794D03*
D14*
X40539880Y73977794D03*
X53466880Y76517794D03*
D11*
X147954880Y71437794D03*
D12*
X145414880Y76517794D03*
D13*
X142874880Y71437794D03*
D12*
X139064880Y73977794D03*
D11*
X137794880Y71437794D03*
D14*
X135789880Y73977794D03*
X148716880Y76517794D03*
D10*
X194667271Y47165862D03*
X194667271Y50465862D03*
X144680818Y28115846D03*
X144680818Y31415846D03*
D11*
X66992380Y33337744D03*
D12*
X64452380Y38417744D03*
D13*
X61932163Y33337744D03*
D12*
X58102380Y35877744D03*
D11*
X56832380Y33337744D03*
D14*
X54827380Y35877744D03*
X67754380Y38417744D03*
D15*
X23366313Y55427469D03*
X23366313Y54407470D03*
D29*
X128587380Y2540024D03*
D13*
X128587380Y17780024D03*
D11*
X105092380Y9525024D03*
D12*
X102552380Y14605024D03*
D13*
X100012380Y9525024D03*
D12*
X96202380Y12065024D03*
D11*
X94932380Y9525024D03*
D29*
X71437380Y2540024D03*
D13*
X71437380Y17780024D03*
D14*
X92927380Y12065024D03*
D30*
X105854380Y14605024D03*
D10*
X87530770Y28115846D03*
X87530770Y31415846D03*
X77985923Y47165862D03*
X77985923Y50465862D03*
D31*
X28692169Y31515531D03*
X28013347Y32194353D03*
D11*
X33654880Y71437794D03*
D12*
X31114880Y76517794D03*
D13*
X28574880Y71437794D03*
D12*
X24764880Y73977794D03*
D11*
X23494880Y71437794D03*
D14*
X21489880Y73977794D03*
X34416880Y76517794D03*
D15*
X36909474Y64452768D03*
X36909474Y63432768D03*
D11*
X33654880Y14287794D03*
D12*
X31114880Y19367794D03*
D13*
X28574880Y14287794D03*
D12*
X24764880Y16827794D03*
D11*
X23494880Y14287794D03*
D14*
X21489880Y16827794D03*
X34416880Y19367794D03*
D10*
X68480754Y28115846D03*
X68480754Y31415846D03*
X154185987Y47165862D03*
X154185987Y50465862D03*
D11*
X133667380Y52387794D03*
D12*
X131127380Y57467794D03*
D13*
X128587380Y52387794D03*
D12*
X124777380Y54927794D03*
D11*
X123507380Y52387794D03*
D14*
X121502380Y54927794D03*
X134429380Y57467794D03*
D17*
X25201090Y48335480D03*
X25201090Y49295480D03*
D11*
X152717380Y52387794D03*
D12*
X150177380Y57467794D03*
D13*
X147637380Y52387794D03*
D12*
X143827380Y54927794D03*
D11*
X142557380Y52387794D03*
D14*
X140552380Y54927794D03*
X153479380Y57467794D03*
D29*
X131000380Y2540024D03*
D13*
X131000380Y17780024D03*
D11*
X124142380Y9525024D03*
D12*
X121602380Y14605024D03*
D13*
X119062380Y9525024D03*
D12*
X115252380Y12065024D03*
D11*
X113982380Y9525024D03*
D29*
X107124380Y2540024D03*
D13*
X107124380Y17780024D03*
D14*
X111977380Y12065024D03*
X124904380Y14605024D03*
D17*
X12799251Y64305627D03*
X12799251Y65265627D03*
D29*
X92900380Y2540294D03*
D13*
X92900380Y17780294D03*
D11*
X86042380Y9525294D03*
D12*
X83502380Y14605294D03*
D13*
X80962380Y9525294D03*
D12*
X77152380Y12065294D03*
D11*
X75882380Y9525294D03*
D29*
X69024380Y2540294D03*
D13*
X69024380Y17780294D03*
D14*
X73877380Y12065294D03*
X86804380Y14605294D03*
D10*
X49430738Y28115846D03*
X49430738Y31415846D03*
D11*
X162242380Y33337794D03*
D12*
X159702380Y38417794D03*
D13*
X157162380Y33337794D03*
D12*
X153352380Y35877794D03*
D11*
X152082380Y33337794D03*
D14*
X150077380Y35877794D03*
X163004380Y38417794D03*
D25*
X33784343Y41705201D03*
X33784343Y40745201D03*
D11*
X195579880Y14287794D03*
D12*
X193039880Y19367794D03*
D13*
X190499880Y14287794D03*
D12*
X186689880Y16827794D03*
D11*
X185419880Y14287794D03*
D14*
X183414880Y16827794D03*
X196341880Y19367794D03*
D11*
X16986130Y52387794D03*
D12*
X14446130Y57467794D03*
D13*
X11906130Y52387794D03*
D12*
X8096130Y54927794D03*
D11*
X6826130Y52387794D03*
D14*
X4821130Y54927794D03*
X17748130Y57467794D03*
D10*
X163730834Y28115846D03*
X163730834Y31415846D03*
D32*
X32607886Y45462608D03*
X32607886Y45062608D03*
X32607886Y44662608D03*
X32607886Y44262608D03*
X32607886Y43862608D03*
X32607886Y43462608D03*
X32607886Y43062608D03*
X32607886Y42662608D03*
X32607886Y42262608D03*
X32607886Y41862608D03*
X32607886Y41462608D03*
X32607886Y41062608D03*
X32607886Y40662608D03*
X32607886Y40262608D03*
D33*
X31770386Y39425108D03*
X31370386Y39425108D03*
X30970386Y39425108D03*
X30570386Y39425108D03*
X30170386Y39425108D03*
X29770386Y39425108D03*
X29370386Y39425108D03*
X28970386Y39425108D03*
X28570386Y39425108D03*
X28170386Y39425108D03*
X27770386Y39425108D03*
X27370386Y39425108D03*
X26970386Y39425108D03*
X26570386Y39425108D03*
D32*
X25732886Y40262608D03*
X25732886Y40662608D03*
X25732886Y41062608D03*
X25732886Y41462608D03*
X25732886Y41862608D03*
X25732886Y42262608D03*
X25732886Y42662608D03*
X25732886Y43062608D03*
X25732886Y43462608D03*
X25732886Y43862608D03*
X25732886Y44262608D03*
X25732886Y44662608D03*
X25732886Y45062608D03*
X25732886Y45462608D03*
D33*
X26570386Y46300108D03*
X26970386Y46300108D03*
X27370386Y46300108D03*
X27770386Y46300108D03*
X28170386Y46300108D03*
X28570386Y46300108D03*
X28970386Y46300108D03*
X29370386Y46300108D03*
X29770386Y46300108D03*
X30170386Y46300108D03*
X30570386Y46300108D03*
X30970386Y46300108D03*
X31370386Y46300108D03*
X31770386Y46300108D03*
D34*
X29170386Y42862608D03*
D11*
X109854880Y71437794D03*
D12*
X107314880Y76517794D03*
D13*
X104774880Y71437794D03*
D12*
X100964880Y73977794D03*
D11*
X99694880Y71437794D03*
D14*
X97689880Y73977794D03*
X110616880Y76517794D03*
D10*
X35123387Y6684578D03*
X35123387Y9984578D03*
D35*
X16428164Y61868127D03*
X14528164Y61868127D03*
X15478164Y63743127D03*
D10*
X23217484Y28128249D03*
X23217484Y31428249D03*
D11*
X38417380Y52387794D03*
D12*
X35877380Y57467794D03*
D13*
X33337380Y52387794D03*
D12*
X29527380Y54927794D03*
D11*
X28257380Y52387794D03*
D14*
X26252380Y54927794D03*
X39179380Y57467794D03*
D10*
X35123526Y66513453D03*
X35123526Y69813453D03*
D36*
X38100100Y63432768D03*
X38100100Y64452768D03*
D11*
X114617380Y52387794D03*
D12*
X112077380Y57467794D03*
D13*
X109537380Y52387794D03*
D12*
X105727380Y54927794D03*
D11*
X104457380Y52387794D03*
D14*
X102452380Y54927794D03*
X115379380Y57467794D03*
D37*
X50034492Y64452768D03*
X50034492Y63182768D03*
X50034492Y61912768D03*
X50034492Y60642768D03*
X42834492Y60642768D03*
X42834492Y61912768D03*
X42834492Y63182768D03*
X42834492Y64452768D03*
D17*
X28822986Y48633138D03*
X28822986Y49593138D03*
D10*
X16073478Y66513453D03*
X16073478Y69813453D03*
X111323718Y66513453D03*
X111323718Y69813453D03*
D11*
X176529880Y14287794D03*
D12*
X173989880Y19367794D03*
D13*
X171449880Y14287794D03*
D12*
X167639880Y16827794D03*
D11*
X166369880Y14287794D03*
D14*
X164364880Y16827794D03*
X177291880Y19367794D03*
D11*
X21748630Y33337794D03*
D12*
X19208630Y38417794D03*
D13*
X16668630Y33337794D03*
D12*
X12858630Y35877794D03*
D11*
X11588630Y33337794D03*
D14*
X9583630Y35877794D03*
X22510630Y38417794D03*
D10*
X54173403Y6684578D03*
X54173403Y9984578D03*
M02*
