  0
SECTION
  2
HEADER
  9
$ACADVER
  1
AC1032
  9
$ACADMAINTVER
 90
      228
  9
$DWGCODEPAGE
  3
ANSI_1252
  9
$REQUIREDVERSIONS
160
                 0
  9
$INSBASE
 10
0.0
 20
0.0
 30
0.0
  9
$EXTMIN
 10
1.000000000000000E+20
 20
1.000000000000000E+20
 30
1.000000000000000E+20
  9
$EXTMAX
 10
-1.000000000000000E+20
 20
-1.000000000000000E+20
 30
-1.000000000000000E+20
  9
$LIMMIN
 10
0.0
 20
0.0
  9
$LIMMAX
 10
12.0
 20
9.0
  9
$ORTHOMODE
 70
     0
  9
$REGENMODE
 70
     1
  9
$FILLMODE
 70
     1
  9
$QTEXTMODE
 70
     0
  9
$MIRRTEXT
 70
     0
  9
$LTSCALE
 40
1.0
  9
$ATTMODE
 70
     1
  9
$TEXTSIZE
 40
0.2
  9
$TRACEWID
 40
0.05
  9
$TEXTSTYLE
  7
Standard
  9
$CLAYER
  8
0
  9
$CELTYPE
  6
ByLayer
  9
$CECOLOR
 62
   256
  9
$CELTSCALE
 40
1.0
  9
$DISPSILH
 70
     0
  9
$DIMSCALE
 40
1.0
  9
$DIMASZ
 40
0.18
  9
$DIMEXO
 40
0.0625
  9
$DIMDLI
 40
0.38
  9
$DIMRND
 40
0.0
  9
$DIMDLE
 40
0.0
  9
$DIMEXE
 40
0.18
  9
$DIMTP
 40
0.0
  9
$DIMTM
 40
0.0
  9
$DIMTXT
 40
0.18
  9
$DIMCEN
 40
0.09
  9
$DIMTSZ
 40
0.0
  9
$DIMTOL
 70
     0
  9
$DIMLIM
 70
     0
  9
$DIMTIH
 70
     1
  9
$DIMTOH
 70
     1
  9
$DIMSE1
 70
     0
  9
$DIMSE2
 70
     0
  9
$DIMTAD
 70
     0
  9
$DIMZIN
 70
     0
  9
$DIMBLK
  1

  9
$DIMASO
 70
     1
  9
$DIMSHO
 70
     1
  9
$DIMPOST
  1

  9
$DIMAPOST
  1

  9
$DIMALT
 70
     0
  9
$DIMALTD
 70
     2
  9
$DIMALTF
 40
25.4
  9
$DIMLFAC
 40
1.0
  9
$DIMTOFL
 70
     0
  9
$DIMTVP
 40
0.0
  9
$DIMTIX
 70
     0
  9
$DIMSOXD
 70
     0
  9
$DIMSAH
 70
     0
  9
$DIMBLK1
  1

  9
$DIMBLK2
  1

  9
$DIMSTYLE
  2
Standard
  9
$DIMCLRD
 70
     0
  9
$DIMCLRE
 70
     0
  9
$DIMCLRT
 70
     0
  9
$DIMTFAC
 40
1.0
  9
$DIMGAP
 40
0.09
  9
$DIMJUST
 70
     0
  9
$DIMSD1
 70
     0
  9
$DIMSD2
 70
     0
  9
$DIMTOLJ
 70
     1
  9
$DIMTZIN
 70
     0
  9
$DIMALTZ
 70
     0
  9
$DIMALTTZ
 70
     0
  9
$DIMUPT
 70
     0
  9
$DIMDEC
 70
     4
  9
$DIMTDEC
 70
     4
  9
$DIMALTU
 70
     2
  9
$DIMALTTD
 70
     2
  9
$DIMTXSTY
  7
Standard
  9
$DIMAUNIT
 70
     0
  9
$DIMADEC
 70
     0
  9
$DIMALTRND
 40
0.0
  9
$DIMAZIN
 70
     0
  9
$DIMDSEP
 70
    46
  9
$DIMATFIT
 70
     3
  9
$DIMFRAC
 70
     0
  9
$DIMLDRBLK
  1

  9
$DIMLUNIT
 70
     2
  9
$DIMLWD
 70
    -2
  9
$DIMLWE
 70
    -2
  9
$DIMTMOVE
 70
     0
  9
$DIMFXL
 40
1.0
  9
$DIMFXLON
 70
     0
  9
$DIMJOGANG
 40
0.7853981633974483
  9
$DIMTFILL
 70
     0
  9
$DIMTFILLCLR
 70
     0
  9
$DIMARCSYM
 70
     0
  9
$DIMLTYPE
  6

  9
$DIMLTEX1
  6

  9
$DIMLTEX2
  6

  9
$DIMTXTDIRECTION
 70
     0
  9
$LUNITS
 70
     2
  9
$LUPREC
 70
     4
  9
$SKETCHINC
 40
0.1
  9
$FILLETRAD
 40
0.0
  9
$AUNITS
 70
     0
  9
$AUPREC
 70
     0
  9
$MENU
  1
.
  9
$ELEVATION
 40
0.0
  9
$PELEVATION
 40
0.0
  9
$THICKNESS
 40
0.0
  9
$LIMCHECK
 70
     0
  9
$CHAMFERA
 40
0.0
  9
$CHAMFERB
 40
0.0
  9
$CHAMFERC
 40
0.0
  9
$CHAMFERD
 40
0.0
  9
$SKPOLY
 70
     0
  9
$TDCREATE
 40
2460158.860868055
  9
$TDUCREATE
 40
2460159.027534722
  9
$TDUPDATE
 40
2460158.860868055
  9
$TDUUPDATE
 40
2460159.027534722
  9
$TDINDWG
 40
0.0000000000
  9
$TDUSRTIMER
 40
0.0000000000
  9
$USRTIMER
 70
     1
  9
$ANGBASE
 50
0.0
  9
$ANGDIR
 70
     0
  9
$PDMODE
 70
     0
  9
$PDSIZE
 40
0.0
  9
$PLINEWID
 40
0.0
  9
$SPLFRAME
 70
     0
  9
$SPLINETYPE
 70
     6
  9
$SPLINESEGS
 70
     8
  9
$HANDSEED
  5
A4
  9
$SURFTAB1
 70
     6
  9
$SURFTAB2
 70
     6
  9
$SURFTYPE
 70
     6
  9
$SURFU
 70
     6
  9
$SURFV
 70
     6
  9
$UCSBASE
  2

  9
$UCSNAME
  2

  9
$UCSORG
 10
0.0
 20
0.0
 30
0.0
  9
$UCSXDIR
 10
1.0
 20
0.0
 30
0.0
  9
$UCSYDIR
 10
0.0
 20
1.0
 30
0.0
  9
$UCSORTHOREF
  2

  9
$UCSORTHOVIEW
 70
     0
  9
$UCSORGTOP
 10
0.0
 20
0.0
 30
0.0
  9
$UCSORGBOTTOM
 10
0.0
 20
0.0
 30
0.0
  9
$UCSORGLEFT
 10
0.0
 20
0.0
 30
0.0
  9
$UCSORGRIGHT
 10
0.0
 20
0.0
 30
0.0
  9
$UCSORGFRONT
 10
0.0
 20
0.0
 30
0.0
  9
$UCSORGBACK
 10
0.0
 20
0.0
 30
0.0
  9
$PUCSBASE
  2

  9
$PUCSNAME
  2

  9
$PUCSORG
 10
0.0
 20
0.0
 30
0.0
  9
$PUCSXDIR
 10
1.0
 20
0.0
 30
0.0
  9
$PUCSYDIR
 10
0.0
 20
1.0
 30
0.0
  9
$PUCSORTHOREF
  2

  9
$PUCSORTHOVIEW
 70
     0
  9
$PUCSORGTOP
 10
0.0
 20
0.0
 30
0.0
  9
$PUCSORGBOTTOM
 10
0.0
 20
0.0
 30
0.0
  9
$PUCSORGLEFT
 10
0.0
 20
0.0
 30
0.0
  9
$PUCSORGRIGHT
 10
0.0
 20
0.0
 30
0.0
  9
$PUCSORGFRONT
 10
0.0
 20
0.0
 30
0.0
  9
$PUCSORGBACK
 10
0.0
 20
0.0
 30
0.0
  9
$USERI1
 70
     0
  9
$USERI2
 70
     0
  9
$USERI3
 70
     0
  9
$USERI4
 70
     0
  9
$USERI5
 70
     0
  9
$USERR1
 40
0.0
  9
$USERR2
 40
0.0
  9
$USERR3
 40
0.0
  9
$USERR4
 40
0.0
  9
$USERR5
 40
0.0
  9
$WORLDVIEW
 70
     1
  9
$SHADEDGE
 70
     3
  9
$SHADEDIF
 70
    70
  9
$TILEMODE
 70
     1
  9
$MAXACTVP
 70
    64
  9
$PINSBASE
 10
0.0
 20
0.0
 30
0.0
  9
$PLIMCHECK
 70
     0
  9
$PEXTMIN
 10
1.000000000000000E+20
 20
1.000000000000000E+20
 30
1.000000000000000E+20
  9
$PEXTMAX
 10
-1.000000000000000E+20
 20
-1.000000000000000E+20
 30
-1.000000000000000E+20
  9
$PLIMMIN
 10
0.0
 20
0.0
  9
$PLIMMAX
 10
12.0
 20
9.0
  9
$UNITMODE
 70
     0
  9
$VISRETAIN
 70
     1
  9
$PLINEGEN
 70
     0
  9
$PSLTSCALE
 70
     1
  9
$TREEDEPTH
 70
  3020
  9
$CMLSTYLE
  2
Standard
  9
$CMLJUST
 70
     0
  9
$CMLSCALE
 40
1.0
  9
$PROXYGRAPHICS
 70
     1
  9
$MEASUREMENT
 70
     0
  9
$CELWEIGHT
370
    -1
  9
$ENDCAPS
280
     0
  9
$JOINSTYLE
280
     0
  9
$LWDISPLAY
290
     1
  9
$INSUNITS
 70
     4
  9
$HYPERLINKBASE
  1

  9
$STYLESHEET
  1

  9
$XEDIT
290
     1
  9
$CEPSNTYPE
380
     0
  9
$PSTYLEMODE
290
     1
  9
$FINGERPRINTGUID
  2
{4D76B9FA-ADF4-194C-9112-037FCFD2DBD8}
  9
$VERSIONGUID
  2
{0E950C7B-658D-E446-8648-A8B946A1D913}
  9
$EXTNAMES
290
     1
  9
$PSVPSCALE
 40
0.0
  9
$OLESTARTUP
290
     0
  9
$SORTENTS
280
   127
  9
$INDEXCTL
280
     0
  9
$HIDETEXT
280
     1
  9
$XCLIPFRAME
280
     2
  9
$HALOGAP
280
     0
  9
$OBSCOLOR
 70
   257
  9
$OBSLTYPE
280
     0
  9
$INTERSECTIONDISPLAY
280
     0
  9
$INTERSECTIONCOLOR
 70
   257
  9
$DIMASSOC
280
     2
  9
$PROJECTNAME
  1

  9
$CAMERADISPLAY
290
     0
  9
$LENSLENGTH
 40
50.0
  9
$CAMERAHEIGHT
 40
0.0
  9
$STEPSPERSEC
 40
2.0
  9
$STEPSIZE
 40
6.0
  9
$3DDWFPREC
 40
2.0
  9
$PSOLWIDTH
 40
0.25
  9
$PSOLHEIGHT
 40
4.0
  9
$LOFTANG1
 40
1.570796326794896
  9
$LOFTANG2
 40
1.570796326794896
  9
$LOFTMAG1
 40
0.0
  9
$LOFTMAG2
 40
0.0
  9
$LOFTPARAM
 70
     7
  9
$LOFTNORMALS
280
     1
  9
$LATITUDE
 40
37.795
  9
$LONGITUDE
 40
-122.394
  9
$NORTHDIRECTION
 40
0.0
  9
$TIMEZONE
 70
 -8000
  9
$LIGHTGLYPHDISPLAY
280
     1
  9
$TILEMODELIGHTSYNCH
280
     1
  9
$CMATERIAL
347
11
  9
$SOLIDHIST
280
     0
  9
$SHOWHIST
280
     1
  9
$DWFFRAME
280
     2
  9
$DGNFRAME
280
     0
  9
$REALWORLDSCALE
290
     1
  9
$INTERFERECOLOR
 62
     1
  9
$INTERFEREOBJVS
345
33
  9
$INTERFEREVPVS
346
30
  9
$CSHADOW
280
     0
  9
$SHADOWPLANELOCATION
 40
0.0
  0
ENDSEC
  0
SECTION
  2
CLASSES
  0
CLASS
  1
ACDBDICTIONARYWDFLT
  2
AcDbDictionaryWithDefault
  3
ObjectDBX Classes
 90
        0
 91
        1
280
     0
281
     0
  0
CLASS
  1
MATERIAL
  2
AcDbMaterial
  3
ObjectDBX Classes
 90
     1153
 91
        3
280
     0
281
     0
  0
CLASS
  1
VISUALSTYLE
  2
AcDbVisualStyle
  3
ObjectDBX Classes
 90
     4095
 91
       24
280
     0
281
     0
  0
CLASS
  1
SCALE
  2
AcDbScale
  3
ObjectDBX Classes
 90
     1153
 91
       17
280
     0
281
     0
  0
CLASS
  1
TABLESTYLE
  2
AcDbTableStyle
  3
ObjectDBX Classes
 90
     4095
 91
        1
280
     0
281
     0
  0
CLASS
  1
MLEADERSTYLE
  2
AcDbMLeaderStyle
  3
ACDB_MLEADERSTYLE_CLASS
 90
     4095
 91
        1
280
     0
281
     0
  0
CLASS
  1
ACDBSECTIONVIEWSTYLE
  2
AcDbSectionViewStyle
  3
ObjectDBX Classes
 90
     1025
 91
        1
280
     0
281
     0
  0
CLASS
  1
ACDBDETAILVIEWSTYLE
  2
AcDbDetailViewStyle
  3
ObjectDBX Classes
 90
     1025
 91
        1
280
     0
281
     0
  0
CLASS
  1
DICTIONARYVAR
  2
AcDbDictionaryVar
  3
ObjectDBX Classes
 90
        0
 91
        5
280
     0
281
     0
  0
CLASS
  1
CELLSTYLEMAP
  2
AcDbCellStyleMap
  3
ObjectDBX Classes
 90
     1152
 91
        1
280
     0
281
     0
  0
ENDSEC
  0
SECTION
  2
TABLES
  0
TABLE
  2
VPORT
  5
8
330
0
100
AcDbSymbolTable
 70
     1
  0
VPORT
  5
57
330
8
100
AcDbSymbolTableRecord
100
AcDbViewportTableRecord
  2
*Active
 70
     0
 10
0.0
 20
0.0
 11
1.0
 21
1.0
 12
0.0
 22
0.0
 13
0.0
 23
0.0
 14
1.0
 24
1.0
 15
0.0
 25
0.0
 16
0.0
 26
0.0
 36
1.0
 17
210.9999999472421
 27
67.4999999831196
 37
0.0
 40
137.699999965564
 41
3.125925925926059
 42
50.0
 43
0.0
 44
0.0
 50
0.0
 51
0.0
 71
     0
 72
   100
 73
     1
 74
     1
 75
     0
 76
     0
 77
     0
 78
     0
281
     0
 65
     1
110
0.0
120
0.0
130
0.0
111
1.0
121
0.0
131
0.0
112
0.0
122
1.0
132
0.0
 79
     0
146
0.0
 60
     3
 61
     5
292
     1
282
     1
141
0.0
142
0.0
 63
   250
421
  3355443
  0
ENDTAB
  0
TABLE
  2
LTYPE
  5
5
330
0
100
AcDbSymbolTable
 70
     1
  0
LTYPE
  5
5B
330
5
100
AcDbSymbolTableRecord
100
AcDbLinetypeTableRecord
  2
ByBlock
 70
     0
  3

 72
    65
 73
     0
 40
0.0
  0
LTYPE
  5
5C
330
5
100
AcDbSymbolTableRecord
100
AcDbLinetypeTableRecord
  2
ByLayer
 70
     0
  3

 72
    65
 73
     0
 40
0.0
  0
LTYPE
  5
5D
330
5
100
AcDbSymbolTableRecord
100
AcDbLinetypeTableRecord
  2
Continuous
 70
     0
  3
Solid line
 72
    65
 73
     0
 40
0.0
  0
ENDTAB
  0
TABLE
  2
LAYER
  5
2
330
0
100
AcDbSymbolTable
 70
     1
  0
LAYER
  5
54
330
2
100
AcDbSymbolTableRecord
100
AcDbLayerTableRecord
  2
0
 70
     0
 62
     7
  6
Continuous
370
     0
390
F
347
21
348
0
  0
ENDTAB
  0
TABLE
  2
STYLE
  5
3
330
0
100
AcDbSymbolTable
 70
     2
  0
STYLE
  5
55
330
3
100
AcDbSymbolTableRecord
100
AcDbTextStyleTableRecord
  2
Standard
 70
     0
 40
0.0
 41
1.0
 50
0.0
 71
     0
 42
0.2
  3
txt
  4

  0
STYLE
  5
5A
330
3
100
AcDbSymbolTableRecord
100
AcDbTextStyleTableRecord
  2
Annotative
 70
     0
 40
0.0
 41
1.0
 50
0.0
 71
     0
 42
0.2
  3
txt
  4

1001
AcadAnnotative
1000
AnnotativeData
1002
{
1070
     1
1070
     1
1002
}
  0
ENDTAB
  0
TABLE
  2
VIEW
  5
6
330
0
100
AcDbSymbolTable
 70
     0
  0
ENDTAB
  0
TABLE
  2
UCS
  5
7
330
0
100
AcDbSymbolTable
 70
     0
  0
ENDTAB
  0
TABLE
  2
APPID
  5
9
330
0
100
AcDbSymbolTable
 70
     2
  0
APPID
  5
56
330
9
100
AcDbSymbolTableRecord
100
AcDbRegAppTableRecord
  2
ACAD
 70
     0
  0
APPID
  5
5E
330
9
100
AcDbSymbolTableRecord
100
AcDbRegAppTableRecord
  2
AcadAnnotative
 70
     0
  0
ENDTAB
  0
TABLE
  2
DIMSTYLE
  5
A
330
0
100
AcDbSymbolTable
 70
     2
100
AcDbDimStyleTable
 71
     0
  0
DIMSTYLE
105
58
330
A
100
AcDbSymbolTableRecord
100
AcDbDimStyleTableRecord
  2
Standard
 70
     0
340
55
  0
DIMSTYLE
105
59
330
A
100
AcDbSymbolTableRecord
100
AcDbDimStyleTableRecord
  2
Annotative
 70
     0
340
55
1001
AcadAnnotative
1000
AnnotativeData
1002
{
1070
     1
1070
     1
1002
}
  0
ENDTAB
  0
TABLE
  2
BLOCK_RECORD
  5
1
330
0
100
AcDbSymbolTable
 70
     1
  0
BLOCK_RECORD
  5
70
330
1
100
AcDbSymbolTableRecord
100
AcDbBlockTableRecord
  2
*Model_Space
340
73
 70
     0
280
     1
281
     0
  0
BLOCK_RECORD
  5
6C
330
1
100
AcDbSymbolTableRecord
100
AcDbBlockTableRecord
  2
*Paper_Space
340
6F
 70
     0
280
     1
281
     0
  0
BLOCK_RECORD
  5
74
330
1
100
AcDbSymbolTableRecord
100
AcDbBlockTableRecord
  2
*Paper_Space0
340
77
 70
     0
280
     1
281
     0
  0
ENDTAB
  0
ENDSEC
  0
SECTION
  2
BLOCKS
  0
BLOCK
  5
71
330
70
100
AcDbEntity
  8
0
100
AcDbBlockBegin
  2
*Model_Space
 70
     0
 10
0.0
 20
0.0
 30
0.0
  3
*Model_Space
  1

  0
ENDBLK
  5
72
330
70
100
AcDbEntity
  8
0
100
AcDbBlockEnd
  0
BLOCK
  5
6D
330
6C
100
AcDbEntity
 67
     1
  8
0
100
AcDbBlockBegin
  2
*Paper_Space
 70
     0
 10
0.0
 20
0.0
 30
0.0
  3
*Paper_Space
  1

  0
ENDBLK
  5
6E
330
6C
100
AcDbEntity
 67
     1
  8
0
100
AcDbBlockEnd
  0
BLOCK
  5
75
330
74
100
AcDbEntity
 67
     1
  8
0
100
AcDbBlockBegin
  2
*Paper_Space0
 70
     0
 10
0.0
 20
0.0
 30
0.0
  3
*Paper_Space0
  1

  0
ENDBLK
  5
76
330
74
100
AcDbEntity
 67
     1
  8
0
100
AcDbBlockEnd
  0
ENDSEC
  0
SECTION
  2
ENTITIES
  0
SPLINE
  5
78
330
70
100
AcDbEntity
  8
0
 62
    18
420
        0
370
    25
100
AcDbSpline
210
0.0
220
0.0
230
1.0
 70
     9
 71
     3
 72
    53
 73
    49
 74
     0
 42
0.0000000001
 43
0.0000000001
 40
0.0
 40
0.0
 40
0.0
 40
0.0
 40
1.0
 40
1.0
 40
1.0
 40
2.0
 40
2.0
 40
2.0
 40
3.0
 40
3.0
 40
3.0
 40
4.0
 40
4.0
 40
4.0
 40
5.0
 40
5.0
 40
5.0
 40
6.0
 40
6.0
 40
6.0
 40
7.0
 40
7.0
 40
7.0
 40
8.0
 40
8.0
 40
8.0
 40
9.0
 40
9.0
 40
9.0
 40
10.0
 40
10.0
 40
10.0
 40
11.0
 40
11.0
 40
11.0
 40
12.0
 40
12.0
 40
12.0
 40
13.0
 40
13.0
 40
13.0
 40
14.0
 40
14.0
 40
14.0
 40
15.0
 40
15.0
 40
15.0
 40
16.0
 40
16.0
 40
16.0
 40
16.0
 10
214.0731148715615
 20
41.21524130672151
 30
0.0
 10
214.3492572464766
 20
41.21524130669648
 30
0.0
 10
214.573114871581
 20
41.43909893176113
 30
0.0
 10
214.5731148716067
 20
41.71524130667628
 30
0.0
 10
214.5731148716067
 20
41.71524130667628
 30
0.0
 10
214.5731148716965
 20
42.72024130667634
 30
0.0
 10
214.5731148716965
 20
42.72024130667634
 30
0.0
 10
214.573114871721
 20
42.9963836815915
 30
0.0
 10
214.796972496826
 20
43.22024130665614
 30
0.0
 10
215.0731148717418
 20
43.22024130663112
 30
0.0
 10
215.0731148717418
 20
43.22024130663112
 30
0.0
 10
221.0731148717414
 20
43.22024130609208
 30
0.0
 10
221.0731148717414
 20
43.22024130609208
 30
0.0
 10
221.3492572466572
 20
43.2202413060677
 30
0.0
 10
221.5731148717212
 20
42.99638368096263
 30
0.0
 10
221.5731148716962
 20
42.72024130604747
 30
0.0
 10
221.5731148716962
 20
42.72024130604747
 30
0.0
 10
221.5731148703499
 20
27.72024130604759
 30
0.0
 10
221.5731148703499
 20
27.72024130604759
 30
0.0
 10
221.5731148703248
 20
27.44409893113179
 30
0.0
 10
221.3492572452198
 20
27.22024130606778
 30
0.0
 10
221.0731148703046
 20
27.22024130609281
 30
0.0
 10
221.0731148703046
 20
27.22024130609281
 30
0.0
 10
200.8491148703048
 20
27.22024130790881
 30
0.0
 10
200.8491148703048
 20
27.22024130790881
 30
0.0
 10
200.5729724953897
 20
27.2202413079332
 30
0.0
 10
200.349114870325
 20
27.44409893303763
 30
0.0
 10
200.34911487035
 20
27.72024130795343
 30
0.0
 10
200.34911487035
 20
27.72024130795343
 30
0.0
 10
200.3491148716963
 20
42.72024130795331
 30
0.0
 10
200.3491148716963
 20
42.72024130795331
 30
0.0
 10
200.3491148717214
 20
42.99638368286847
 30
0.0
 10
200.5729724968258
 20
43.22024130793375
 30
0.0
 10
200.849114871741
 20
43.2202413079081
 30
0.0
 10
200.849114871741
 20
43.2202413079081
 30
0.0
 10
206.8491148717412
 20
43.22024130736971
 30
0.0
 10
206.8491148717412
 20
43.22024130736971
 30
0.0
 10
207.1252572466563
 20
43.22024130734468
 30
0.0
 10
207.349114871721
 20
42.99638368224025
 30
0.0
 10
207.349114871696
 20
42.7202413073251
 30
0.0
 10
207.349114871696
 20
42.7202413073251
 30
0.0
 10
207.3491148716061
 20
41.71524130732504
 30
0.0
 10
207.3491148716061
 20
41.71524130732504
 30
0.0
 10
207.3491148715811
 20
41.43909893240988
 30
0.0
 10
207.5729724966464
 20
41.21524130730481
 30
0.0
 10
207.8491148715615
 20
41.21524130727978
 30
0.0
 10
207.8491148715615
 20
41.21524130727978
 30
0.0
 10
214.0731148715615
 20
41.21524130672151
 30
0.0
 10
214.0731148715615
 20
41.21524130672151
 30
0.0
  0
SPLINE
  5
79
330
70
100
AcDbEntity
  8
0
 62
    18
420
        0
370
    25
100
AcDbSpline
210
0.0
220
0.0
230
1.0
 70
     9
 71
     3
 72
    44
 73
    40
 74
     0
 42
0.0000000001
 43
0.0000000001
 40
0.0
 40
0.0
 40
0.0
 40
0.0
 40
1.0
 40
1.0
 40
1.0
 40
2.0
 40
2.0
 40
2.0
 40
3.0
 40
3.0
 40
3.0
 40
4.0
 40
4.0
 40
4.0
 40
5.0
 40
5.0
 40
5.0
 40
6.0
 40
6.0
 40
6.0
 40
7.0
 40
7.0
 40
7.0
 40
8.0
 40
8.0
 40
8.0
 40
9.0
 40
9.0
 40
9.0
 40
10.0
 40
10.0
 40
10.0
 40
11.0
 40
11.0
 40
11.0
 40
12.0
 40
12.0
 40
12.0
 40
13.0
 40
13.0
 40
13.0
 40
13.0
 10
235.5361148715616
 20
41.22024130479386
 30
0.0
 10
235.8122572464768
 20
41.22024130476883
 30
0.0
 10
236.0361148715819
 20
41.44409892983348
 30
0.0
 10
236.0361148716069
 20
41.72024130474864
 30
0.0
 10
236.0361148716069
 20
41.72024130474864
 30
0.0
 10
236.0361148716961
 20
42.71524130474865
 30
0.0
 10
236.0361148716961
 20
42.71524130474865
 30
0.0
 10
236.0361148717212
 20
42.99138367966381
 30
0.0
 10
236.2599724968255
 20
43.21524130472846
 30
0.0
 10
236.5361148717407
 20
43.21524130470407
 30
0.0
 10
236.5361148717407
 20
43.21524130470407
 30
0.0
 10
244.949114871741
 20
43.21524130394815
 30
0.0
 10
244.949114871741
 20
43.21524130394815
 30
0.0
 10
244.949114871741
 20
43.21524130394815
 30
0.0
 10
244.9491148717422
 20
43.22024130394881
 30
0.0
 10
244.9491148717422
 20
43.22024130394881
 30
0.0
 10
245.2252572466574
 20
43.22024130392378
 30
0.0
 10
245.4491148717214
 20
42.99638367881871
 30
0.0
 10
245.4491148716964
 20
42.72024130390355
 30
0.0
 10
245.4491148716964
 20
42.72024130390355
 30
0.0
 10
245.4491148703501
 20
27.72024130390367
 30
0.0
 10
245.4491148703501
 20
27.72024130390367
 30
0.0
 10
245.4491148703251
 20
27.44409892898851
 30
0.0
 10
245.2252572452199
 20
27.22024130392386
 30
0.0
 10
244.9491148703048
 20
27.22024130394825
 30
0.0
 10
244.9491148703048
 20
27.22024130394825
 30
0.0
 10
223.5111148703047
 20
27.22024130587334
 30
0.0
 10
223.5111148703047
 20
27.22024130587334
 30
0.0
 10
223.2349724953889
 20
27.22024130589837
 30
0.0
 10
223.0111148703249
 20
27.44409893100281
 30
0.0
 10
223.0111148703499
 20
27.7202413059186
 30
0.0
 10
223.0111148703499
 20
27.7202413059186
 30
0.0
 10
223.0111148715172
 20
40.72024130591842
 30
0.0
 10
223.0111148715172
 20
40.72024130591842
 30
0.0
 10
223.0111148715422
 20
40.99638368083357
 30
0.0
 10
223.2349724966466
 20
41.22024130589823
 30
0.0
 10
223.5111148715618
 20
41.22024130587319
 30
0.0
 10
223.5111148715618
 20
41.22024130587319
 30
0.0
 10
235.5361148715616
 20
41.22024130479386
 30
0.0
 10
235.5361148715616
 20
41.22024130479386
 30
0.0
  0
SPLINE
  5
7A
330
70
100
AcDbEntity
  8
0
 62
    18
420
        0
370
    25
100
AcDbSpline
210
0.0
220
0.0
230
1.0
 70
    11
 71
     3
 72
   107
 73
   103
 74
     0
 42
0.0000000001
 43
0.0000000001
 40
0.0
 40
0.0
 40
0.0
 40
0.0
 40
1.0
 40
1.0
 40
1.0
 40
2.0
 40
2.0
 40
2.0
 40
3.0
 40
3.0
 40
3.0
 40
4.0
 40
4.0
 40
4.0
 40
5.0
 40
5.0
 40
5.0
 40
6.0
 40
6.0
 40
6.0
 40
7.0
 40
7.0
 40
7.0
 40
8.0
 40
8.0
 40
8.0
 40
9.0
 40
9.0
 40
9.0
 40
10.0
 40
10.0
 40
10.0
 40
11.0
 40
11.0
 40
11.0
 40
12.0
 40
12.0
 40
12.0
 40
13.0
 40
13.0
 40
13.0
 40
14.0
 40
14.0
 40
14.0
 40
15.0
 40
15.0
 40
15.0
 40
16.0
 40
16.0
 40
16.0
 40
17.0
 40
17.0
 40
17.0
 40
18.0
 40
18.0
 40
18.0
 40
19.0
 40
19.0
 40
19.0
 40
20.0
 40
20.0
 40
20.0
 40
21.0
 40
21.0
 40
21.0
 40
22.0
 40
22.0
 40
22.0
 40
23.0
 40
23.0
 40
23.0
 40
24.0
 40
24.0
 40
24.0
 40
25.0
 40
25.0
 40
25.0
 40
26.0
 40
26.0
 40
26.0
 40
27.0
 40
27.0
 40
27.0
 40
28.0
 40
28.0
 40
28.0
 40
29.0
 40
29.0
 40
29.0
 40
30.0
 40
30.0
 40
30.0
 40
31.0
 40
31.0
 40
31.0
 40
32.0
 40
32.0
 40
32.0
 40
33.0
 40
33.0
 40
33.0
 40
34.0
 40
34.0
 40
34.0
 40
34.0
 10
291.5673648748789
 20
78.1647412997626
 30
0.0
 10
291.2912224999637
 20
78.16474129978762
 30
0.0
 10
291.0673648748593
 20
77.94088367472297
 30
0.0
 10
291.0673648748343
 20
77.66474129980782
 30
0.0
 10
291.0673648748343
 20
77.66474129980782
 30
0.0
 10
291.0673648742959
 20
71.6647412998076
 30
0.0
 10
291.0673648742959
 20
71.6647412998076
 30
0.0
 10
291.0673648742709
 20
71.38859892489245
 30
0.0
 10
291.2912224993349
 20
71.16474129978801
 30
0.0
 10
291.56736487425
 20
71.16474129976298
 30
0.0
 10
291.8435072491665
 20
71.16474129973795
 30
0.0
 10
292.0673648742312
 20
70.94088367463353
 30
0.0
 10
292.0673648742054
 20
70.66474129971773
 30
0.0
 10
292.0673648742054
 20
70.66474129971773
 30
0.0
 10
292.0673648741978
 20
70.57774129971796
 30
0.0
 10
292.0673648741978
 20
70.57774129971796
 30
0.0
 10
292.0673648741734
 20
70.30159892480217
 30
0.0
 10
292.291222499238
 20
70.07774129969772
 30
0.0
 10
292.5673648741532
 20
70.0777412996727
 30
0.0
 10
292.5673648741532
 20
70.0777412996727
 30
0.0
 10
305.567364874153
 20
70.07774129850544
 30
0.0
 10
305.567364874153
 20
70.07774129850544
 30
0.0
 10
305.8435072490681
 20
70.07774129848042
 30
0.0
 10
306.0673648741732
 20
70.30159892354507
 30
0.0
 10
306.0673648741982
 20
70.57774129846086
 30
0.0
 10
306.0673648741982
 20
70.57774129846086
 30
0.0
 10
306.067364874206
 20
70.66474129846064
 30
0.0
 10
306.067364874206
 20
70.66474129846064
 30
0.0
 10
306.0673648742303
 20
70.94088367337644
 30
0.0
 10
306.2912224993348
 20
71.16474129844108
 30
0.0
 10
306.5673648742506
 20
71.16474129841606
 30
0.0
 10
306.5673648742506
 20
71.16474129841606
 30
0.0
 10
307.5673648742506
 20
71.16474129832622
 30
0.0
 10
307.5673648742506
 20
71.16474129832622
 30
0.0
 10
307.8435072491658
 20
71.1647412983012
 30
0.0
 10
308.0673648742708
 20
71.38859892336585
 30
0.0
 10
308.0673648742959
 20
71.664741298281
 30
0.0
 10
308.0673648742959
 20
71.664741298281
 30
0.0
 10
308.0673648748349
 20
77.66474129828122
 30
0.0
 10
308.0673648748349
 20
77.66474129828122
 30
0.0
 10
308.0673648748593
 20
77.94088367319637
 30
0.0
 10
307.8435072497947
 20
78.1647412983008
 30
0.0
 10
307.5673648748794
 20
78.16474129832582
 30
0.0
 10
307.5673648748794
 20
78.16474129832582
 30
0.0
 10
306.5673648748788
 20
78.16474129841566
 30
0.0
 10
306.5673648748788
 20
78.16474129841566
 30
0.0
 10
306.2912224999636
 20
78.16474129844069
 30
0.0
 10
306.067364874899
 20
78.38859892354512
 30
0.0
 10
306.067364874924
 20
78.66474129846093
 30
0.0
 10
306.067364874924
 20
78.66474129846093
 30
0.0
 10
306.0673648763493
 20
94.54074129846082
 30
0.0
 10
306.0673648763493
 20
94.54074129846082
 30
0.0
 10
306.0673648763749
 20
94.81688367337598
 30
0.0
 10
306.2912225014794
 20
95.04074129844063
 30
0.0
 10
306.5673648763945
 20
95.0407412984156
 30
0.0
 10
306.5673648763945
 20
95.0407412984156
 30
0.0
 10
307.5673648763946
 20
95.04074129832641
 30
0.0
 10
307.5673648763946
 20
95.04074129832641
 30
0.0
 10
307.8435072513097
 20
95.04074129830074
 30
0.0
 10
308.0673648764147
 20
95.26459892336601
 30
0.0
 10
308.0673648764391
 20
95.54074129828119
 30
0.0
 10
308.0673648764391
 20
95.54074129828119
 30
0.0
 10
308.0673648769782
 20
101.5407412982814
 30
0.0
 10
308.0673648769782
 20
101.5407412982814
 30
0.0
 10
308.0673648770032
 20
101.8168836731965
 30
0.0
 10
307.8435072519385
 20
102.040741298301
 30
0.0
 10
307.5673648770227
 20
102.040741298326
 30
0.0
 10
307.5673648770227
 20
102.040741298326
 30
0.0
 10
304.1861148770232
 20
102.0407412986295
 30
0.0
 10
304.1861148770232
 20
102.0407412986295
 30
0.0
 10
303.909972502108
 20
102.0407412986545
 30
0.0
 10
303.6861148770433
 20
102.264598923759
 30
0.0
 10
303.6861148770677
 20
102.5407412986741
 30
0.0
 10
303.6861148770677
 20
102.5407412986741
 30
0.0
 10
303.6861148770767
 20
102.6327412986745
 30
0.0
 10
303.6861148770767
 20
102.6327412986745
 30
0.0
 10
303.6861148771011
 20
102.9088836735897
 30
0.0
 10
303.4622572520365
 20
103.1327412986941
 30
0.0
 10
303.1861148771213
 20
103.1327412987192
 30
0.0
 10
303.1861148771213
 20
103.1327412987192
 30
0.0
 10
290.1861148771215
 20
103.1327412998864
 30
0.0
 10
290.1861148771215
 20
103.1327412998864
 30
0.0
 10
289.9099725022057
 20
103.1327412999115
 30
0.0
 10
289.6861148771007
 20
102.9088836748468
 30
0.0
 10
289.6861148770763
 20
102.6327412999316
 30
0.0
 10
289.6861148770763
 20
102.6327412999316
 30
0.0
 10
289.6861148759084
 20
89.62774129993183
 30
0.0
 10
289.6861148759084
 20
89.62774129993183
 30
0.0
 10
289.686114875884
 20
89.35159892501603
 30
0.0
 10
289.9099725009486
 20
89.12774129991161
 30
0.0
 10
290.1861148758638
 20
89.12774129988658
 30
0.0
 10
290.1861148758638
 20
89.12774129988658
 30
0.0
 10
291.5673648758633
 20
89.12774129976273
 30
0.0
 10
291.5673648758633
 20
89.12774129976273
 30
0.0
 10
291.8435072507797
 20
89.12774129973771
 30
0.0
 10
292.0673648758437
 20
88.90388367463328
 30
0.0
 10
292.0673648758187
 20
88.62774129971811
 30
0.0
 10
292.0673648758187
 20
88.62774129971811
 30
0.0
 10
292.0673648749242
 20
78.664741299718
 30
0.0
 10
292.0673648749242
 20
78.664741299718
 30
0.0
 10
292.0673648748991
 20
78.38859892480221
 30
0.0
 10
291.8435072497941
 20
78.16474129973755
 30
0.0
 10
291.5673648748789
 20
78.1647412997626
 30
0.0
  0
SPLINE
  5
7B
330
70
100
AcDbEntity
  8
0
 62
    18
420
        0
370
    25
100
AcDbSpline
210
0.0
220
0.0
230
1.0
 70
    11
 71
     3
 72
   125
 73
   121
 74
     0
 42
0.0000000001
 43
0.0000000001
 40
0.0
 40
0.0
 40
0.0
 40
0.0
 40
1.0
 40
1.0
 40
1.0
 40
2.0
 40
2.0
 40
2.0
 40
3.0
 40
3.0
 40
3.0
 40
4.0
 40
4.0
 40
4.0
 40
5.0
 40
5.0
 40
5.0
 40
6.0
 40
6.0
 40
6.0
 40
7.0
 40
7.0
 40
7.0
 40
8.0
 40
8.0
 40
8.0
 40
9.0
 40
9.0
 40
9.0
 40
10.0
 40
10.0
 40
10.0
 40
11.0
 40
11.0
 40
11.0
 40
12.0
 40
12.0
 40
12.0
 40
13.0
 40
13.0
 40
13.0
 40
14.0
 40
14.0
 40
14.0
 40
15.0
 40
15.0
 40
15.0
 40
16.0
 40
16.0
 40
16.0
 40
17.0
 40
17.0
 40
17.0
 40
18.0
 40
18.0
 40
18.0
 40
19.0
 40
19.0
 40
19.0
 40
20.0
 40
20.0
 40
20.0
 40
21.0
 40
21.0
 40
21.0
 40
22.0
 40
22.0
 40
22.0
 40
23.0
 40
23.0
 40
23.0
 40
24.0
 40
24.0
 40
24.0
 40
25.0
 40
25.0
 40
25.0
 40
26.0
 40
26.0
 40
26.0
 40
27.0
 40
27.0
 40
27.0
 40
28.0
 40
28.0
 40
28.0
 40
29.0
 40
29.0
 40
29.0
 40
30.0
 40
30.0
 40
30.0
 40
31.0
 40
31.0
 40
31.0
 40
32.0
 40
32.0
 40
32.0
 40
33.0
 40
33.0
 40
33.0
 40
34.0
 40
34.0
 40
34.0
 40
35.0
 40
35.0
 40
35.0
 40
36.0
 40
36.0
 40
36.0
 40
37.0
 40
37.0
 40
37.0
 40
38.0
 40
38.0
 40
38.0
 40
39.0
 40
39.0
 40
39.0
 40
40.0
 40
40.0
 40
40.0
 40
40.0
 10
110.9486148739377
 20
67.67901410479549
 30
0.0
 10
110.9486148739377
 20
67.67901410479549
 30
0.0
 10
110.9482242247266
 20
30.28655056144311
 30
0.0
 10
110.9482242247266
 20
30.28655056144311
 30
0.0
 10
110.9482186831485
 20
29.75611759788533
 30
0.0
 10
111.1589270365099
 20
29.24740758480826
 30
0.0
 10
111.5339958548104
 20
28.87233091211602
 30
0.0
 10
111.5339958548104
 20
28.87233091211602
 30
0.0
 10
116.3623723867967
 20
24.04385326812287
 30
0.0
 10
116.3623723867967
 20
24.04385326812287
 30
0.0
 10
116.7374412164764
 20
23.66877658405138
 30
0.0
 10
117.2461468359704
 20
23.45805757691179
 30
0.0
 10
117.7765798156201
 20
23.45805202301751
 30
0.0
 10
117.7765798156201
 20
23.45805202301751
 30
0.0
 10
126.5197282263308
 20
23.45796047795854
 30
0.0
 10
126.5197282263308
 20
23.45796047795854
 30
0.0
 10
127.0501612059811
 20
23.45795492406491
 30
0.0
 10
127.5588712380274
 20
23.66866327836324
 30
0.0
 10
127.9339479220989
 20
24.04373210804233
 30
0.0
 10
127.9339479220989
 20
24.04373210804233
 30
0.0
 10
132.7624342766207
 20
28.87211735037504
 30
0.0
 10
132.7624342766207
 20
28.87211735037504
 30
0.0
 10
133.1315542416075
 20
29.24122958570936
 30
0.0
 10
133.6303593914755
 20
29.45139807288443
 30
0.0
 10
134.1523298447762
 20
29.45774131389767
 30
0.0
 10
134.1523298447762
 20
29.45774131389767
 30
0.0
 10
168.2013838447761
 20
29.45774131084062
 30
0.0
 10
168.2013838447761
 20
29.45774131084062
 30
0.0
 10
169.5820957193525
 20
29.45774131071741
 30
0.0
 10
170.7013838446752
 20
28.33845318519332
 30
0.0
 10
170.7013838445513
 20
26.9577413106169
 30
0.0
 10
170.701383844439
 20
25.70862612182076
 30
0.0
 10
171.71399177787
 20
24.69601818820748
 30
0.0
 10
172.9631069666655
 20
24.69601818809647
 30
0.0
 10
172.9631069666655
 20
24.69601818809647
 30
0.0
 10
249.2576115408711
 20
24.69601818105767
 30
0.0
 10
249.2576115408711
 20
24.69601818105767
 30
0.0
 10
250.5067151822885
 20
24.69601818094602
 30
0.0
 10
251.5193182683584
 20
25.70860821473998
 30
0.0
 10
251.5193343690762
 20
26.95771185605346
 30
0.0
 10
251.5193343689485
 20
26.95772282709852
 30
0.0
 10
251.5193343688927
 20
26.95773379812753
 30
0.0
 10
251.5193343689088
 20
26.95774476917323
 30
0.0
 10
251.5193364456926
 20
28.33845664374773
 30
0.0
 10
252.6386262546795
 20
29.45774308560369
 30
0.0
 10
254.0193381292553
 20
29.45774100882047
 30
0.0
 10
254.0193381292553
 20
29.45774100882047
 30
0.0
 10
288.0683921788592
 20
29.45768979428175
 30
0.0
 10
288.0683921788592
 20
29.45768979428175
 30
0.0
 10
288.5988313726177
 20
29.45768899642653
 30
0.0
 10
289.1075443167347
 20
29.24696962720377
 30
0.0
 10
289.4826175403864
 20
28.87188854906859
 30
0.0
 10
289.4826175403864
 20
28.87188854906859
 30
0.0
 10
294.3124149039306
 20
24.04199004376266
 30
0.0
 10
294.3124149039306
 20
24.04199004376266
 30
0.0
 10
294.6874837336103
 20
23.66691335969117
 30
0.0
 10
295.1961893531049
 20
23.45619435255094
 30
0.0
 10
295.7266223327552
 20
23.4561887986573
 30
0.0
 10
295.7266223327552
 20
23.4561887986573
 30
0.0
 10
304.1450683083843
 20
23.45610065339235
 30
0.0
 10
304.1450683083843
 20
23.45610065339235
 30
0.0
 10
304.675501288034
 20
23.45609509949808
 30
0.0
 10
305.1842113200804
 20
23.66680345379705
 30
0.0
 10
305.5592880041518
 20
24.04187228347615
 30
0.0
 10
305.5592880041518
 20
24.04187228347615
 30
0.0
 10
310.3877982328862
 20
28.87028139952216
 30
0.0
 10
310.3877982328862
 20
28.87028139952216
 30
0.0
 10
310.762874916957
 20
29.24535022920126
 30
0.0
 10
310.9735939240973
 20
29.75405584869527
 30
0.0
 10
310.9735994779915
 20
30.28448882834493
 30
0.0
 10
310.9735994779915
 20
30.28448882834493
 30
0.0
 10
310.9739978921254
 20
104.8293285117825
 30
0.0
 10
310.9739978921254
 20
104.8293285117825
 30
0.0
 10
310.9739952829283
 20
105.3597625722657
 30
0.0
 10
310.7632786705127
 20
105.8684703981007
 30
0.0
 10
310.3882033043833
 20
106.2435420742508
 30
0.0
 10
310.3882033043833
 20
106.2435420742508
 30
0.0
 10
305.5597436321618
 20
111.0720017473392
 30
0.0
 10
305.5597436321618
 20
111.0720017473392
 30
0.0
 10
305.1846708753
 20
111.447074504269
 30
0.0
 10
304.6759630495208
 20
111.6577881850461
 30
0.0
 10
304.1455300698416
 20
111.6577881850935
 30
0.0
 10
304.1455300698416
 20
111.6577881850935
 30
0.0
 10
295.7270840937519
 20
111.6577881858495
 30
0.0
 10
295.7270840937519
 20
111.6577881858495
 30
0.0
 10
295.1966511140714
 20
111.657788185897
 30
0.0
 10
294.6879432882537
 20
111.447074505211
 30
0.0
 10
294.3128705313245
 20
111.0720017483486
 30
0.0
 10
294.3128705313245
 20
111.0720017483486
 30
0.0
 10
289.4844015136575
 20
106.2435327315479
 30
0.0
 10
289.4844015136575
 20
106.2435327315479
 30
0.0
 10
289.1093286392287
 20
105.8684598571865
 30
0.0
 10
288.6006206175466
 20
105.6577461668205
 30
0.0
 10
288.0701874716982
 20
105.6577462940483
 30
0.0
 10
288.0701874716982
 20
105.6577462940483
 30
0.0
 10
134.1770442270044
 20
105.6577882003555
 30
0.0
 10
134.1770442270044
 20
105.6577882003555
 30
0.0
 10
133.6466112473258
 20
105.6577882004036
 30
0.0
 10
133.137903421548
 20
105.86850188118
 30
0.0
 10
132.7628306646855
 20
106.2435746381092
 30
0.0
 10
132.7628306646855
 20
106.2435746381092
 30
0.0
 10
127.934403540373
 20
111.0720017632886
 30
0.0
 10
127.934403540373
 20
111.0720017632886
 30
0.0
 10
127.5593307835099
 20
111.4470745202191
 30
0.0
 10
127.0506229577314
 20
111.6577882009955
 30
0.0
 10
126.5201899780522
 20
111.657788201043
 30
0.0
 10
126.5201899780522
 20
111.657788201043
 30
0.0
 10
117.7770415668629
 20
111.6577882018278
 30
0.0
 10
117.7770415668629
 20
111.6577882018278
 30
0.0
 10
117.2466085871837
 20
111.6577882018759
 30
0.0
 10
116.7379007613667
 20
111.4470745211906
 30
0.0
 10
116.3628280044368
 20
111.0720017643275
 30
0.0
 10
116.3628280044368
 20
111.0720017643275
 30
0.0
 10
111.5344009157489
 20
106.2435746765072
 30
0.0
 10
111.5344009157489
 20
106.2435746765072
 30
0.0
 10
111.1593281701984
 20
105.8685019310233
 30
0.0
 10
110.9486144903595
 20
105.3597941242135
 30
0.0
 10
110.9486144779952
 20
104.8293611606268
 30
0.0
 10
110.9486144779952
 20
104.8293611606268
 30
0.0
 10
110.9486148739377
 20
67.67901410479549
 30
0.0
 10
110.9486148739377
 20
67.67901410479549
 30
0.0
  0
SPLINE
  5
7C
330
70
100
AcDbEntity
  8
0
 62
    18
420
        0
370
    25
100
AcDbSpline
210
0.0
220
0.0
230
1.0
 70
     9
 71
     3
 72
    44
 73
    40
 74
     0
 42
0.0000000001
 43
0.0000000001
 40
0.0
 40
0.0
 40
0.0
 40
0.0
 40
1.0
 40
1.0
 40
1.0
 40
2.0
 40
2.0
 40
2.0
 40
3.0
 40
3.0
 40
3.0
 40
4.0
 40
4.0
 40
4.0
 40
5.0
 40
5.0
 40
5.0
 40
6.0
 40
6.0
 40
6.0
 40
7.0
 40
7.0
 40
7.0
 40
8.0
 40
8.0
 40
8.0
 40
9.0
 40
9.0
 40
9.0
 40
10.0
 40
10.0
 40
10.0
 40
11.0
 40
11.0
 40
11.0
 40
12.0
 40
12.0
 40
12.0
 40
13.0
 40
13.0
 40
13.0
 40
13.0
 10
185.8862221729803
 20
41.72024130925207
 30
0.0
 10
185.8862221729553
 20
41.44409893433692
 30
0.0
 10
186.1100797980199
 20
41.22024130923185
 30
0.0
 10
186.3862221729351
 20
41.22024130920682
 30
0.0
 10
186.3862221729351
 20
41.22024130920682
 30
0.0
 10
198.4112221729349
 20
41.22024130812748
 30
0.0
 10
198.4112221729349
 20
41.22024130812748
 30
0.0
 10
198.6873645478508
 20
41.22024130810245
 30
0.0
 10
198.9112221729148
 20
40.99638368299802
 30
0.0
 10
198.9112221728904
 20
40.72024130808222
 30
0.0
 10
198.9112221728904
 20
40.72024130808222
 30
0.0
 10
198.9112221717231
 20
27.72024130808241
 30
0.0
 10
198.9112221717231
 20
27.72024130808241
 30
0.0
 10
198.9112221716981
 20
27.44409893316726
 30
0.0
 10
198.6873645465937
 20
27.22024130810261
 30
0.0
 10
198.4112221716779
 20
27.22024130812763
 30
0.0
 10
198.4112221716779
 20
27.22024130812763
 30
0.0
 10
176.9732221716784
 20
27.22024131005209
 30
0.0
 10
176.9732221716784
 20
27.22024131005209
 30
0.0
 10
176.6970797967626
 20
27.22024131007776
 30
0.0
 10
176.473222171698
 20
27.44409893518155
 30
0.0
 10
176.473222171723
 20
27.72024131009735
 30
0.0
 10
176.473222171723
 20
27.72024131009735
 30
0.0
 10
176.4732221730693
 20
42.72024131009724
 30
0.0
 10
176.4732221730693
 20
42.72024131009724
 30
0.0
 10
176.4732221730943
 20
42.99638368501239
 30
0.0
 10
176.6970797981987
 20
43.22024131007704
 30
0.0
 10
176.9732221731145
 20
43.22024131005266
 30
0.0
 10
176.9732221731145
 20
43.22024131005266
 30
0.0
 10
185.3862221731141
 20
43.22024130929673
 30
0.0
 10
185.3862221731141
 20
43.22024130929673
 30
0.0
 10
185.3862221731141
 20
43.22024130929673
 30
0.0
 10
185.3862221731141
 20
43.21524130929736
 30
0.0
 10
185.3862221731141
 20
43.21524130929736
 30
0.0
 10
185.6623645480299
 20
43.21524130927232
 30
0.0
 10
185.8862221730939
 20
42.99138368416726
 30
0.0
 10
185.8862221730695
 20
42.7152413092521
 30
0.0
 10
185.8862221730695
 20
42.7152413092521
 30
0.0
 10
185.8862221729803
 20
41.72024130925207
 30
0.0
 10
185.8862221729803
 20
41.72024130925207
 30
0.0
  0
CIRCLE
  5
7D
330
70
100
AcDbEntity
  8
0
 62
    18
420
        0
370
    25
100
AcDbCircle
 10
299.8548444020623
 20
108.6577695257149
 30
0.0
 40
1.349999999662353
  0
CIRCLE
  5
7E
330
70
100
AcDbEntity
  8
0
 62
    18
420
        0
370
    25
100
AcDbCircle
 10
122.0671554924576
 20
108.6577882153675
 30
0.0
 40
1.349999999662433
  0
CIRCLE
  5
7F
330
70
100
AcDbEntity
  8
0
 62
    18
420
        0
370
    25
100
AcDbCircle
 10
122.0671554972323
 20
26.45588889026073
 30
0.0
 40
1.349999999662674
  0
CIRCLE
  5
80
330
70
100
AcDbEntity
  8
0
 62
    18
420
        0
370
    25
100
AcDbCircle
 10
299.8548443972874
 20
26.45616338564158
 30
0.0
 40
1.349999999662353
  0
SPLINE
  5
81
330
70
100
AcDbEntity
  8
0
 62
    18
420
        0
370
    25
100
AcDbSpline
210
0.0
220
0.0
230
1.0
 70
     9
 71
     3
 72
    29
 73
    25
 74
     0
 42
0.0000000001
 43
0.0000000001
 40
0.0
 40
0.0
 40
0.0
 40
0.0
 40
1.0
 40
1.0
 40
1.0
 40
2.0
 40
2.0
 40
2.0
 40
3.0
 40
3.0
 40
3.0
 40
4.0
 40
4.0
 40
4.0
 40
5.0
 40
5.0
 40
5.0
 40
6.0
 40
6.0
 40
6.0
 40
7.0
 40
7.0
 40
7.0
 40
8.0
 40
8.0
 40
8.0
 40
8.0
 10
142.5482221863585
 20
65.03288887878472
 30
0.0
 10
142.5482221863585
 20
65.03288887878472
 30
0.0
 10
307.9482221450095
 20
65.0328888639326
 30
0.0
 10
307.9482221450095
 20
65.0328888639326
 30
0.0
 10
308.2243645198553
 20
65.03288886390755
 30
0.0
 10
308.4482221448642
 20
64.8090312388596
 30
0.0
 10
308.4482221448391
 20
64.5328888640131
 30
0.0
 10
308.4482221448391
 20
64.5328888640131
 30
0.0
 10
308.4482221436719
 20
51.53288886726286
 30
0.0
 10
308.4482221436719
 20
51.53288886726286
 30
0.0
 10
308.4482221436468
 20
51.25674649241636
 30
0.0
 10
308.2243645185982
 20
51.03288886740818
 30
0.0
 10
307.9482221437518
 20
51.03288886743257
 30
0.0
 10
307.9482221437518
 20
51.03288886743257
 30
0.0
 10
142.5482221851015
 20
51.03288888228405
 30
0.0
 10
142.5482221851015
 20
51.03288888228405
 30
0.0
 10
142.2720798102556
 20
51.03288888230971
 30
0.0
 10
142.0482221852468
 20
51.25674650735767
 30
0.0
 10
142.0482221852718
 20
51.53288888220353
 30
0.0
 10
142.0482221852718
 20
51.53288888220353
 30
0.0
 10
142.0482221864391
 20
64.53288887895507
 30
0.0
 10
142.0482221864391
 20
64.53288887895507
 30
0.0
 10
142.0482221864634
 20
64.80903125380092
 30
0.0
 10
142.2720798115127
 20
65.0328888788091
 30
0.0
 10
142.5482221863585
 20
65.03288887878472
 30
0.0
  0
SPLINE
  5
82
330
70
100
AcDbEntity
  8
0
 62
    18
420
        0
370
    25
100
AcDbSpline
210
0.0
220
0.0
230
1.0
 70
     9
 71
     3
 72
    29
 73
    25
 74
     0
 42
0.0000000001
 43
0.0000000001
 40
0.0
 40
0.0
 40
0.0
 40
0.0
 40
1.0
 40
1.0
 40
1.0
 40
2.0
 40
2.0
 40
2.0
 40
3.0
 40
3.0
 40
3.0
 40
4.0
 40
4.0
 40
4.0
 40
5.0
 40
5.0
 40
5.0
 40
6.0
 40
6.0
 40
6.0
 40
7.0
 40
7.0
 40
7.0
 40
8.0
 40
8.0
 40
8.0
 40
8.0
 10
294.9482221465485
 20
45.98288886986234
 30
0.0
 10
294.9482221465485
 20
45.98288886986234
 30
0.0
 10
307.9482221432987
 20
45.98288886869509
 30
0.0
 10
307.9482221432987
 20
45.98288886869509
 30
0.0
 10
308.2243645181446
 20
45.98288886867006
 30
0.0
 10
308.4482221431534
 20
45.7590312436221
 30
0.0
 10
308.4482221431283
 20
45.4828888687756
 30
0.0
 10
308.4482221431283
 20
45.4828888687756
 30
0.0
 10
308.4482221419617
 20
32.48288887202536
 30
0.0
 10
308.4482221419617
 20
32.48288887202536
 30
0.0
 10
308.4482221419367
 20
32.20674649717885
 30
0.0
 10
308.2243645168881
 20
31.98288887217068
 30
0.0
 10
307.9482221420416
 20
31.98288887219506
 30
0.0
 10
307.9482221420416
 20
31.98288887219506
 30
0.0
 10
294.9482221452914
 20
31.98288887336296
 30
0.0
 10
294.9482221452914
 20
31.98288887336296
 30
0.0
 10
294.6720797704448
 20
31.98288887338734
 30
0.0
 10
294.4482221454367
 20
32.20674649843595
 30
0.0
 10
294.448222145461
 20
32.48288887328244
 30
0.0
 10
294.448222145461
 20
32.48288887328244
 30
0.0
 10
294.4482221466289
 20
45.48288887003269
 30
0.0
 10
294.4482221466289
 20
45.48288887003269
 30
0.0
 10
294.4482221466533
 20
45.75903124487854
 30
0.0
 10
294.6720797717026
 20
45.98288886988736
 30
0.0
 10
294.9482221465485
 20
45.98288886986234
 30
0.0
  0
SPLINE
  5
83
330
70
100
AcDbEntity
  8
0
 62
    18
420
        0
370
    25
100
AcDbSpline
210
0.0
220
0.0
230
1.0
 70
     9
 71
     3
 72
    29
 73
    25
 74
     0
 42
0.0000000001
 43
0.0000000001
 40
0.0
 40
0.0
 40
0.0
 40
0.0
 40
1.0
 40
1.0
 40
1.0
 40
2.0
 40
2.0
 40
2.0
 40
3.0
 40
3.0
 40
3.0
 40
4.0
 40
4.0
 40
4.0
 40
5.0
 40
5.0
 40
5.0
 40
6.0
 40
6.0
 40
6.0
 40
7.0
 40
7.0
 40
7.0
 40
8.0
 40
8.0
 40
8.0
 40
8.0
 10
275.8986148736141
 20
45.98288887157311
 30
0.0
 10
275.8986148736141
 20
45.98288887157311
 30
0.0
 10
288.8986148703644
 20
45.98288887040586
 30
0.0
 10
288.8986148703644
 20
45.98288887040586
 30
0.0
 10
289.1747572452109
 20
45.98288887038083
 30
0.0
 10
289.3986148702197
 20
45.75903124533223
 30
0.0
 10
289.3986148701947
 20
45.48288887048573
 30
0.0
 10
289.3986148701947
 20
45.48288887048573
 30
0.0
 10
289.3986148690274
 20
32.48288887373548
 30
0.0
 10
289.3986148690274
 20
32.48288887373548
 30
0.0
 10
289.398614869003
 20
32.20674649888963
 30
0.0
 10
289.1747572439538
 20
31.98288887388081
 30
0.0
 10
288.8986148691073
 20
31.98288887390584
 30
0.0
 10
288.8986148691073
 20
31.98288887390584
 30
0.0
 10
275.898614872357
 20
31.98288887507308
 30
0.0
 10
275.898614872357
 20
31.98288887507308
 30
0.0
 10
275.6224724975112
 20
31.98288887509811
 30
0.0
 10
275.3986148725024
 20
32.20674650014608
 30
0.0
 10
275.3986148725274
 20
32.48288887499321
 30
0.0
 10
275.3986148725274
 20
32.48288887499321
 30
0.0
 10
275.3986148736947
 20
45.48288887174346
 30
0.0
 10
275.3986148736947
 20
45.48288887174346
 30
0.0
 10
275.398614873719
 20
45.75903124658931
 30
0.0
 10
275.6224724987683
 20
45.98288887159749
 30
0.0
 10
275.8986148736141
 20
45.98288887157311
 30
0.0
  0
SPLINE
  5
84
330
70
100
AcDbEntity
  8
0
 62
    18
420
        0
370
    25
100
AcDbSpline
210
0.0
220
0.0
230
1.0
 70
     9
 71
     3
 72
    29
 73
    25
 74
     0
 42
0.0000000001
 43
0.0000000001
 40
0.0
 40
0.0
 40
0.0
 40
0.0
 40
1.0
 40
1.0
 40
1.0
 40
2.0
 40
2.0
 40
2.0
 40
3.0
 40
3.0
 40
3.0
 40
4.0
 40
4.0
 40
4.0
 40
5.0
 40
5.0
 40
5.0
 40
6.0
 40
6.0
 40
6.0
 40
7.0
 40
7.0
 40
7.0
 40
8.0
 40
8.0
 40
8.0
 40
8.0
 10
256.8486148736139
 20
45.98288887328388
 30
0.0
 10
256.8486148736139
 20
45.98288887328388
 30
0.0
 10
269.8486148703642
 20
45.98288887211598
 30
0.0
 10
269.8486148703642
 20
45.98288887211598
 30
0.0
 10
270.1247572452107
 20
45.9828888720916
 30
0.0
 10
270.3486148702195
 20
45.75903124704235
 30
0.0
 10
270.3486148701945
 20
45.4828888721965
 30
0.0
 10
270.3486148701945
 20
45.4828888721965
 30
0.0
 10
270.3486148690272
 20
32.48288887544625
 30
0.0
 10
270.3486148690272
 20
32.48288887544625
 30
0.0
 10
270.3486148690029
 20
32.20674650059976
 30
0.0
 10
270.1247572439537
 20
31.98288887559158
 30
0.0
 10
269.8486148691078
 20
31.9828888756166
 30
0.0
 10
269.8486148691078
 20
31.9828888756166
 30
0.0
 10
256.8486148723575
 20
31.98288887678322
 30
0.0
 10
256.8486148723575
 20
31.98288887678322
 30
0.0
 10
256.572472497511
 20
31.98288887680888
 30
0.0
 10
256.3486148725022
 20
32.20674650185684
 30
0.0
 10
256.3486148725272
 20
32.48288887670334
 30
0.0
 10
256.3486148725272
 20
32.48288887670334
 30
0.0
 10
256.3486148736945
 20
45.48288887345359
 30
0.0
 10
256.3486148736945
 20
45.48288887345359
 30
0.0
 10
256.3486148737189
 20
45.75903124830008
 30
0.0
 10
256.5724724987681
 20
45.98288887330826
 30
0.0
 10
256.8486148736139
 20
45.98288887328388
 30
0.0
  0
SPLINE
  5
85
330
70
100
AcDbEntity
  8
0
 62
    18
420
        0
370
    25
100
AcDbSpline
210
0.0
220
0.0
230
1.0
 70
     9
 71
     3
 72
    29
 73
    25
 74
     0
 42
0.0000000001
 43
0.0000000001
 40
0.0
 40
0.0
 40
0.0
 40
0.0
 40
1.0
 40
1.0
 40
1.0
 40
2.0
 40
2.0
 40
2.0
 40
3.0
 40
3.0
 40
3.0
 40
4.0
 40
4.0
 40
4.0
 40
5.0
 40
5.0
 40
5.0
 40
6.0
 40
6.0
 40
6.0
 40
7.0
 40
7.0
 40
7.0
 40
8.0
 40
8.0
 40
8.0
 40
8.0
 10
152.0734185100806
 20
45.98288888269183
 30
0.0
 10
152.0734185100806
 20
45.98288888269183
 30
0.0
 10
165.0734185068308
 20
45.98288888152458
 30
0.0
 10
165.0734185068308
 20
45.98288888152458
 30
0.0
 10
165.3495608816773
 20
45.98288888149955
 30
0.0
 10
165.5734185066861
 20
45.75903125645094
 30
0.0
 10
165.5734185066611
 20
45.48288888160509
 30
0.0
 10
165.5734185066611
 20
45.48288888160509
 30
0.0
 10
165.5734185054939
 20
32.48288888485485
 30
0.0
 10
165.5734185054939
 20
32.48288888485485
 30
0.0
 10
165.5734185054688
 20
32.2067465100077
 30
0.0
 10
165.3495608804202
 20
31.98288888499953
 30
0.0
 10
165.0734185055737
 20
31.98288888502455
 30
0.0
 10
165.0734185055737
 20
31.98288888502455
 30
0.0
 10
152.0734185088235
 20
31.98288888619181
 30
0.0
 10
152.0734185088235
 20
31.98288888619181
 30
0.0
 10
151.7972761339776
 20
31.98288888621619
 30
0.0
 10
151.5734185089688
 20
32.20674651126544
 30
0.0
 10
151.5734185089938
 20
32.48288888611129
 30
0.0
 10
151.5734185089938
 20
32.48288888611129
 30
0.0
 10
151.5734185101611
 20
45.48288888286154
 30
0.0
 10
151.5734185101611
 20
45.48288888286154
 30
0.0
 10
151.5734185101861
 20
45.75903125770803
 30
0.0
 10
151.7972761352347
 20
45.98288888271685
 30
0.0
 10
152.0734185100806
 20
45.98288888269183
 30
0.0
  0
SPLINE
  5
86
330
70
100
AcDbEntity
  8
0
 62
    18
420
        0
370
    25
100
AcDbSpline
210
0.0
220
0.0
230
1.0
 70
     9
 71
     3
 72
    29
 73
    25
 74
     0
 42
0.0000000001
 43
0.0000000001
 40
0.0
 40
0.0
 40
0.0
 40
0.0
 40
1.0
 40
1.0
 40
1.0
 40
2.0
 40
2.0
 40
2.0
 40
3.0
 40
3.0
 40
3.0
 40
4.0
 40
4.0
 40
4.0
 40
5.0
 40
5.0
 40
5.0
 40
6.0
 40
6.0
 40
6.0
 40
7.0
 40
7.0
 40
7.0
 40
8.0
 40
8.0
 40
8.0
 40
8.0
 10
133.0238112371463
 20
45.98288888440196
 30
0.0
 10
133.0238112371463
 20
45.98288888440196
 30
0.0
 10
146.0238112338965
 20
45.98288888323534
 30
0.0
 10
146.0238112338965
 20
45.98288888323534
 30
0.0
 10
146.2999536087437
 20
45.98288888320968
 30
0.0
 10
146.5238112337525
 20
45.75903125816171
 30
0.0
 10
146.5238112337275
 20
45.48288888331522
 30
0.0
 10
146.5238112337275
 20
45.48288888331522
 30
0.0
 10
146.5238112325602
 20
32.48288888656497
 30
0.0
 10
146.5238112325602
 20
32.48288888656497
 30
0.0
 10
146.5238112325352
 20
32.20674651171847
 30
0.0
 10
146.2999536074866
 20
31.9828888867103
 30
0.0
 10
146.0238112326394
 20
31.98288888673468
 30
0.0
 10
146.0238112326394
 20
31.98288888673468
 30
0.0
 10
133.0238112358892
 20
31.98288888790257
 30
0.0
 10
133.0238112358892
 20
31.98288888790257
 30
0.0
 10
132.7476688610433
 20
31.98288888792696
 30
0.0
 10
132.5238112360345
 20
32.20674651297557
 30
0.0
 10
132.5238112360596
 20
32.48288888782206
 30
0.0
 10
132.5238112360596
 20
32.48288888782206
 30
0.0
 10
132.5238112372268
 20
45.48288888457231
 30
0.0
 10
132.5238112372268
 20
45.48288888457231
 30
0.0
 10
132.5238112372518
 20
45.75903125941816
 30
0.0
 10
132.7476688623004
 20
45.98288888442698
 30
0.0
 10
133.0238112371463
 20
45.98288888440196
 30
0.0
  0
SPLINE
  5
87
330
70
100
AcDbEntity
  8
0
 62
    18
420
        0
370
    25
100
AcDbSpline
210
0.0
220
0.0
230
1.0
 70
     9
 71
     3
 72
    29
 73
    25
 74
     0
 42
0.0000000001
 43
0.0000000001
 40
0.0
 40
0.0
 40
0.0
 40
0.0
 40
1.0
 40
1.0
 40
1.0
 40
2.0
 40
2.0
 40
2.0
 40
3.0
 40
3.0
 40
3.0
 40
4.0
 40
4.0
 40
4.0
 40
5.0
 40
5.0
 40
5.0
 40
6.0
 40
6.0
 40
6.0
 40
7.0
 40
7.0
 40
7.0
 40
8.0
 40
8.0
 40
8.0
 40
8.0
 10
113.9738112371467
 20
45.98288888611272
 30
0.0
 10
113.9738112371467
 20
45.98288888611272
 30
0.0
 10
126.973811233897
 20
45.98288888494547
 30
0.0
 10
126.973811233897
 20
45.98288888494547
 30
0.0
 10
127.2499536087435
 20
45.98288888492045
 30
0.0
 10
127.4738112337523
 20
45.75903125987184
 30
0.0
 10
127.4738112337273
 20
45.48288888502535
 30
0.0
 10
127.4738112337273
 20
45.48288888502535
 30
0.0
 10
127.47381123256
 20
32.4828888882751
 30
0.0
 10
127.47381123256
 20
32.4828888882751
 30
0.0
 10
127.473811232535
 20
32.20674651342925
 30
0.0
 10
127.2499536074864
 20
31.98288888842107
 30
0.0
 10
126.9738112326399
 20
31.98288888844545
 30
0.0
 10
126.9738112326399
 20
31.98288888844545
 30
0.0
 10
113.9738112358896
 20
31.98288888961271
 30
0.0
 10
113.9738112358896
 20
31.98288888961271
 30
0.0
 10
113.6976688610431
 20
31.98288888963773
 30
0.0
 10
113.4738112360343
 20
32.20674651468569
 30
0.0
 10
113.4738112360593
 20
32.48288888953283
 30
0.0
 10
113.4738112360593
 20
32.48288888953283
 30
0.0
 10
113.4738112372266
 20
45.48288888628308
 30
0.0
 10
113.4738112372266
 20
45.48288888628308
 30
0.0
 10
113.4738112372516
 20
45.75903126112893
 30
0.0
 10
113.6976688623002
 20
45.98288888613775
 30
0.0
 10
113.9738112371467
 20
45.98288888611272
 30
0.0
  0
SPLINE
  5
88
330
70
100
AcDbEntity
  8
0
 62
    18
420
        0
370
    25
100
AcDbSpline
210
0.0
220
0.0
230
1.0
 70
     9
 71
     3
 72
    29
 73
    25
 74
     0
 42
0.0000000001
 43
0.0000000001
 40
0.0
 40
0.0
 40
0.0
 40
0.0
 40
1.0
 40
1.0
 40
1.0
 40
2.0
 40
2.0
 40
2.0
 40
3.0
 40
3.0
 40
3.0
 40
4.0
 40
4.0
 40
4.0
 40
5.0
 40
5.0
 40
5.0
 40
6.0
 40
6.0
 40
6.0
 40
7.0
 40
7.0
 40
7.0
 40
8.0
 40
8.0
 40
8.0
 40
8.0
 10
271.1359185135024
 20
84.08288886247612
 30
0.0
 10
271.1359185135024
 20
84.08288886247612
 30
0.0
 10
284.1359185102526
 20
84.08288886130888
 30
0.0
 10
284.1359185102526
 20
84.08288886130888
 30
0.0
 10
284.4120608850991
 20
84.08288886128385
 30
0.0
 10
284.6359185101073
 20
83.85903123623524
 30
0.0
 10
284.6359185100823
 20
83.58288886138875
 30
0.0
 10
284.6359185100823
 20
83.58288886138875
 30
0.0
 10
284.6359185089156
 20
70.58288886463849
 30
0.0
 10
284.6359185089156
 20
70.58288886463849
 30
0.0
 10
284.63591850889
 20
70.306746489792
 30
0.0
 10
284.412060883842
 20
70.08288886478318
 30
0.0
 10
284.1359185089962
 20
70.08288886480821
 30
0.0
 10
284.1359185089962
 20
70.08288886480821
 30
0.0
 10
271.1359185122459
 20
70.08288886597546
 30
0.0
 10
271.1359185122459
 20
70.08288886597546
 30
0.0
 10
270.8597761373994
 20
70.08288886600048
 30
0.0
 10
270.6359185123906
 20
70.30674649104908
 30
0.0
 10
270.6359185124156
 20
70.58288886589558
 30
0.0
 10
270.6359185124156
 20
70.58288886589558
 30
0.0
 10
270.6359185135829
 20
83.58288886264583
 30
0.0
 10
270.6359185135829
 20
83.58288886264583
 30
0.0
 10
270.6359185136073
 20
83.85903123749233
 30
0.0
 10
270.8597761386565
 20
84.08288886250115
 30
0.0
 10
271.1359185135024
 20
84.08288886247612
 30
0.0
  0
SPLINE
  5
89
330
70
100
AcDbEntity
  8
0
 62
    18
420
        0
370
    25
100
AcDbSpline
210
0.0
220
0.0
230
1.0
 70
     9
 71
     3
 72
    29
 73
    25
 74
     0
 42
0.0000000001
 43
0.0000000001
 40
0.0
 40
0.0
 40
0.0
 40
0.0
 40
1.0
 40
1.0
 40
1.0
 40
2.0
 40
2.0
 40
2.0
 40
3.0
 40
3.0
 40
3.0
 40
4.0
 40
4.0
 40
4.0
 40
5.0
 40
5.0
 40
5.0
 40
6.0
 40
6.0
 40
6.0
 40
7.0
 40
7.0
 40
7.0
 40
8.0
 40
8.0
 40
8.0
 40
8.0
 10
252.0863112405681
 20
84.0828888641869
 30
0.0
 10
252.0863112405681
 20
84.0828888641869
 30
0.0
 10
265.0863112373183
 20
84.08288886301901
 30
0.0
 10
265.0863112373183
 20
84.08288886301901
 30
0.0
 10
265.3624536121648
 20
84.08288886299462
 30
0.0
 10
265.5863112371736
 20
83.85903123794538
 30
0.0
 10
265.5863112371492
 20
83.58288886309887
 30
0.0
 10
265.5863112371492
 20
83.58288886309887
 30
0.0
 10
265.5863112359814
 20
70.58288886634862
 30
0.0
 10
265.5863112359814
 20
70.58288886634862
 30
0.0
 10
265.586311235957
 20
70.30674649150213
 30
0.0
 10
265.3624536109077
 20
70.08288886649395
 30
0.0
 10
265.0863112360619
 20
70.08288886651833
 30
0.0
 10
265.0863112360619
 20
70.08288886651833
 30
0.0
 10
252.0863112393116
 20
70.08288886768622
 30
0.0
 10
252.0863112393116
 20
70.08288886768622
 30
0.0
 10
251.8101688644658
 20
70.08288886771061
 30
0.0
 10
251.5863112394563
 20
70.30674649275922
 30
0.0
 10
251.586311239482
 20
70.58288886760571
 30
0.0
 10
251.586311239482
 20
70.58288886760571
 30
0.0
 10
251.5863112406486
 20
83.58288886435596
 30
0.0
 10
251.5863112406486
 20
83.58288886435596
 30
0.0
 10
251.5863112406736
 20
83.85903123920247
 30
0.0
 10
251.8101688657222
 20
84.08288886421129
 30
0.0
 10
252.0863112405681
 20
84.0828888641869
 30
0.0
  0
SPLINE
  5
8A
330
70
100
AcDbEntity
  8
0
 62
    18
420
        0
370
    25
100
AcDbSpline
210
0.0
220
0.0
230
1.0
 70
     9
 71
     3
 72
    29
 73
    25
 74
     0
 42
0.0000000001
 43
0.0000000001
 40
0.0
 40
0.0
 40
0.0
 40
0.0
 40
1.0
 40
1.0
 40
1.0
 40
2.0
 40
2.0
 40
2.0
 40
3.0
 40
3.0
 40
3.0
 40
4.0
 40
4.0
 40
4.0
 40
5.0
 40
5.0
 40
5.0
 40
6.0
 40
6.0
 40
6.0
 40
7.0
 40
7.0
 40
7.0
 40
8.0
 40
8.0
 40
8.0
 40
8.0
 10
233.0363112405679
 20
84.08288886589701
 30
0.0
 10
233.0363112405679
 20
84.08288886589701
 30
0.0
 10
246.0363112373181
 20
84.08288886472977
 30
0.0
 10
246.0363112373181
 20
84.08288886472977
 30
0.0
 10
246.3124536121652
 20
84.08288886470474
 30
0.0
 10
246.5363112371734
 20
83.85903123965615
 30
0.0
 10
246.5363112371491
 20
83.58288886480965
 30
0.0
 10
246.5363112371491
 20
83.58288886480965
 30
0.0
 10
246.5363112359812
 20
70.58288886805939
 30
0.0
 10
246.5363112359812
 20
70.58288886805939
 30
0.0
 10
246.5363112359568
 20
70.3067464932129
 30
0.0
 10
246.3124536109075
 20
70.08288886820408
 30
0.0
 10
246.0363112360617
 20
70.0828888682291
 30
0.0
 10
246.0363112360617
 20
70.0828888682291
 30
0.0
 10
233.0363112393114
 20
70.08288886939635
 30
0.0
 10
233.0363112393114
 20
70.08288886939635
 30
0.0
 10
232.7601688644656
 20
70.08288886942138
 30
0.0
 10
232.5363112394561
 20
70.30674649446999
 30
0.0
 10
232.5363112394818
 20
70.58288886931648
 30
0.0
 10
232.5363112394818
 20
70.58288886931648
 30
0.0
 10
232.5363112406484
 20
83.58288886606674
 30
0.0
 10
232.5363112406484
 20
83.58288886606674
 30
0.0
 10
232.5363112406734
 20
83.85903124091322
 30
0.0
 10
232.760168865722
 20
84.08288886592204
 30
0.0
 10
233.0363112405679
 20
84.08288886589701
 30
0.0
  0
SPLINE
  5
8B
330
70
100
AcDbEntity
  8
0
 62
    18
420
        0
370
    25
100
AcDbSpline
210
0.0
220
0.0
230
1.0
 70
     9
 71
     3
 72
    29
 73
    25
 74
     0
 42
0.0000000001
 43
0.0000000001
 40
0.0
 40
0.0
 40
0.0
 40
0.0
 40
1.0
 40
1.0
 40
1.0
 40
2.0
 40
2.0
 40
2.0
 40
3.0
 40
3.0
 40
3.0
 40
4.0
 40
4.0
 40
4.0
 40
5.0
 40
5.0
 40
5.0
 40
6.0
 40
6.0
 40
6.0
 40
7.0
 40
7.0
 40
7.0
 40
8.0
 40
8.0
 40
8.0
 40
8.0
 10
213.9859185135031
 20
84.08288886760779
 30
0.0
 10
213.9859185135031
 20
84.08288886760779
 30
0.0
 10
226.9859185102533
 20
84.08288886644054
 30
0.0
 10
226.9859185102533
 20
84.08288886644054
 30
0.0
 10
227.2620608850992
 20
84.08288886641551
 30
0.0
 10
227.4859185101074
 20
83.85903124136691
 30
0.0
 10
227.4859185100829
 20
83.58288886652042
 30
0.0
 10
227.4859185100829
 20
83.58288886652042
 30
0.0
 10
227.4859185089157
 20
70.58288886977016
 30
0.0
 10
227.4859185089157
 20
70.58288886977016
 30
0.0
 10
227.4859185088907
 20
70.30674649492367
 30
0.0
 10
227.2620608838415
 20
70.08288886991485
 30
0.0
 10
226.9859185089956
 20
70.08288886993987
 30
0.0
 10
226.9859185089956
 20
70.08288886993987
 30
0.0
 10
213.9859185122453
 20
70.08288887110713
 30
0.0
 10
213.9859185122453
 20
70.08288887110713
 30
0.0
 10
213.7097761373995
 20
70.08288887113216
 30
0.0
 10
213.4859185123907
 20
70.30674649618075
 30
0.0
 10
213.4859185124157
 20
70.58288887102725
 30
0.0
 10
213.4859185124157
 20
70.58288887102725
 30
0.0
 10
213.485918513583
 20
83.58288886777749
 30
0.0
 10
213.485918513583
 20
83.58288886777749
 30
0.0
 10
213.485918513608
 20
83.859031242624
 30
0.0
 10
213.7097761386566
 20
84.08288886763282
 30
0.0
 10
213.9859185135031
 20
84.08288886760779
 30
0.0
  0
SPLINE
  5
8C
330
70
100
AcDbEntity
  8
0
 62
    18
420
        0
370
    25
100
AcDbSpline
210
0.0
220
0.0
230
1.0
 70
     9
 71
     3
 72
    29
 73
    25
 74
     0
 42
0.0000000001
 43
0.0000000001
 40
0.0
 40
0.0
 40
0.0
 40
0.0
 40
1.0
 40
1.0
 40
1.0
 40
2.0
 40
2.0
 40
2.0
 40
3.0
 40
3.0
 40
3.0
 40
4.0
 40
4.0
 40
4.0
 40
5.0
 40
5.0
 40
5.0
 40
6.0
 40
6.0
 40
6.0
 40
7.0
 40
7.0
 40
7.0
 40
8.0
 40
8.0
 40
8.0
 40
8.0
 10
194.9363112405681
 20
84.08288886931856
 30
0.0
 10
194.9363112405681
 20
84.08288886931856
 30
0.0
 10
207.9363112373184
 20
84.08288886815068
 30
0.0
 10
207.9363112373184
 20
84.08288886815068
 30
0.0
 10
208.2124536121649
 20
84.08288886812629
 30
0.0
 10
208.4363112371737
 20
83.85903124307704
 30
0.0
 10
208.4363112371487
 20
83.58288886823054
 30
0.0
 10
208.4363112371487
 20
83.58288886823054
 30
0.0
 10
208.4363112359814
 20
70.58288887148029
 30
0.0
 10
208.4363112359814
 20
70.58288887148029
 30
0.0
 10
208.4363112359571
 20
70.30674649663379
 30
0.0
 10
208.2124536109078
 20
70.08288887162561
 30
0.0
 10
207.9363112360613
 20
70.08288887165
 30
0.0
 10
207.9363112360613
 20
70.08288887165
 30
0.0
 10
194.936311239311
 20
70.08288887281789
 30
0.0
 10
194.936311239311
 20
70.08288887281789
 30
0.0
 10
194.6601688644652
 20
70.08288887284227
 30
0.0
 10
194.436311239457
 20
70.30674649789152
 30
0.0
 10
194.4363112394814
 20
70.58288887273802
 30
0.0
 10
194.4363112394814
 20
70.58288887273802
 30
0.0
 10
194.4363112406486
 20
83.58288886948827
 30
0.0
 10
194.4363112406486
 20
83.58288886948827
 30
0.0
 10
194.4363112406737
 20
83.85903124433477
 30
0.0
 10
194.6601688657223
 20
84.08288886934295
 30
0.0
 10
194.9363112405681
 20
84.08288886931856
 30
0.0
  0
SPLINE
  5
8D
330
70
100
AcDbEntity
  8
0
 62
    18
420
        0
370
    25
100
AcDbSpline
210
0.0
220
0.0
230
1.0
 70
     9
 71
     3
 72
    29
 73
    25
 74
     0
 42
0.0000000001
 43
0.0000000001
 40
0.0
 40
0.0
 40
0.0
 40
0.0
 40
1.0
 40
1.0
 40
1.0
 40
2.0
 40
2.0
 40
2.0
 40
3.0
 40
3.0
 40
3.0
 40
4.0
 40
4.0
 40
4.0
 40
5.0
 40
5.0
 40
5.0
 40
6.0
 40
6.0
 40
6.0
 40
7.0
 40
7.0
 40
7.0
 40
8.0
 40
8.0
 40
8.0
 40
8.0
 10
175.8863112405679
 20
84.08288887102868
 30
0.0
 10
175.8863112405679
 20
84.08288887102868
 30
0.0
 10
188.8863112373182
 20
84.08288886986143
 30
0.0
 10
188.8863112373182
 20
84.08288886986143
 30
0.0
 10
189.1624536121647
 20
84.0828888698364
 30
0.0
 10
189.3863112371735
 20
83.85903124478781
 30
0.0
 10
189.3863112371485
 20
83.58288886994131
 30
0.0
 10
189.3863112371485
 20
83.58288886994131
 30
0.0
 10
189.3863112359812
 20
70.58288887319107
 30
0.0
 10
189.3863112359812
 20
70.58288887319107
 30
0.0
 10
189.3863112359568
 20
70.30674649834456
 30
0.0
 10
189.1624536109076
 20
70.08288887333574
 30
0.0
 10
188.8863112360611
 20
70.08288887336077
 30
0.0
 10
188.8863112360611
 20
70.08288887336077
 30
0.0
 10
175.8863112393108
 20
70.08288887452803
 30
0.0
 10
175.8863112393108
 20
70.08288887452803
 30
0.0
 10
175.610168864465
 20
70.08288887455305
 30
0.0
 10
175.3863112394568
 20
70.30674649960166
 30
0.0
 10
175.3863112394812
 20
70.58288887444814
 30
0.0
 10
175.3863112394812
 20
70.58288887444814
 30
0.0
 10
175.3863112406484
 20
83.5828888711984
 30
0.0
 10
175.3863112406484
 20
83.5828888711984
 30
0.0
 10
175.3863112406734
 20
83.85903124604489
 30
0.0
 10
175.6101688657221
 20
84.08288887105371
 30
0.0
 10
175.8863112405679
 20
84.08288887102868
 30
0.0
  0
SPLINE
  5
8E
330
70
100
AcDbEntity
  8
0
 62
    18
420
        0
370
    25
100
AcDbSpline
210
0.0
220
0.0
230
1.0
 70
     9
 71
     3
 72
    29
 73
    25
 74
     0
 42
0.0000000001
 43
0.0000000001
 40
0.0
 40
0.0
 40
0.0
 40
0.0
 40
1.0
 40
1.0
 40
1.0
 40
2.0
 40
2.0
 40
2.0
 40
3.0
 40
3.0
 40
3.0
 40
4.0
 40
4.0
 40
4.0
 40
5.0
 40
5.0
 40
5.0
 40
6.0
 40
6.0
 40
6.0
 40
7.0
 40
7.0
 40
7.0
 40
8.0
 40
8.0
 40
8.0
 40
8.0
 10
156.8359185135025
 20
84.08288887273945
 30
0.0
 10
156.8359185135025
 20
84.08288887273945
 30
0.0
 10
169.8359185102527
 20
84.08288887157221
 30
0.0
 10
169.8359185102527
 20
84.08288887157221
 30
0.0
 10
170.1120608850992
 20
84.08288887154718
 30
0.0
 10
170.3359185101081
 20
83.85903124649857
 30
0.0
 10
170.335918510083
 20
83.58288887165208
 30
0.0
 10
170.335918510083
 20
83.58288887165208
 30
0.0
 10
170.3359185089158
 20
70.58288887490182
 30
0.0
 10
170.3359185089158
 20
70.58288887490182
 30
0.0
 10
170.3359185088914
 20
70.30674650005534
 30
0.0
 10
170.1120608838421
 20
70.08288887504652
 30
0.0
 10
169.8359185089956
 20
70.08288887507155
 30
0.0
 10
169.8359185089956
 20
70.08288887507155
 30
0.0
 10
156.8359185122454
 20
70.0828888762388
 30
0.0
 10
156.8359185122454
 20
70.0828888762388
 30
0.0
 10
156.5597761373989
 20
70.08288887626382
 30
0.0
 10
156.3359185123907
 20
70.30674650131242
 30
0.0
 10
156.3359185124151
 20
70.58288887615892
 30
0.0
 10
156.3359185124151
 20
70.58288887615892
 30
0.0
 10
156.3359185135824
 20
83.58288887290916
 30
0.0
 10
156.3359185135824
 20
83.58288887290916
 30
0.0
 10
156.3359185136074
 20
83.85903124775566
 30
0.0
 10
156.559776138656
 20
84.08288887276448
 30
0.0
 10
156.8359185135025
 20
84.08288887273945
 30
0.0
  0
SPLINE
  5
8F
330
70
100
AcDbEntity
  8
0
 62
    18
420
        0
370
    25
100
AcDbSpline
210
0.0
220
0.0
230
1.0
 70
     9
 71
     3
 72
    29
 73
    25
 74
     0
 42
0.0000000001
 43
0.0000000001
 40
0.0
 40
0.0
 40
0.0
 40
0.0
 40
1.0
 40
1.0
 40
1.0
 40
2.0
 40
2.0
 40
2.0
 40
3.0
 40
3.0
 40
3.0
 40
4.0
 40
4.0
 40
4.0
 40
5.0
 40
5.0
 40
5.0
 40
6.0
 40
6.0
 40
6.0
 40
7.0
 40
7.0
 40
7.0
 40
8.0
 40
8.0
 40
8.0
 40
8.0
 10
137.7863112405682
 20
84.08288887445023
 30
0.0
 10
137.7863112405682
 20
84.08288887445023
 30
0.0
 10
150.7863112373184
 20
84.08288887328234
 30
0.0
 10
150.7863112373184
 20
84.08288887328234
 30
0.0
 10
151.0624536121649
 20
84.08288887325795
 30
0.0
 10
151.2863112371737
 20
83.85903124820934
 30
0.0
 10
151.2863112371487
 20
83.58288887336284
 30
0.0
 10
151.2863112371487
 20
83.58288887336284
 30
0.0
 10
151.2863112359815
 20
70.5828888766126
 30
0.0
 10
151.2863112359815
 20
70.5828888766126
 30
0.0
 10
151.2863112359571
 20
70.3067465017661
 30
0.0
 10
151.0624536109079
 20
70.08288887675728
 30
0.0
 10
150.7863112360614
 20
70.08288887678166
 30
0.0
 10
150.7863112360614
 20
70.08288887678166
 30
0.0
 10
137.7863112393111
 20
70.08288887794956
 30
0.0
 10
137.7863112393111
 20
70.08288887794956
 30
0.0
 10
137.5101688644652
 20
70.08288887797395
 30
0.0
 10
137.2863112394571
 20
70.30674650302319
 30
0.0
 10
137.2863112394814
 20
70.58288887786969
 30
0.0
 10
137.2863112394814
 20
70.58288887786969
 30
0.0
 10
137.2863112406487
 20
83.58288887461993
 30
0.0
 10
137.2863112406487
 20
83.58288887461993
 30
0.0
 10
137.2863112406737
 20
83.85903124946644
 30
0.0
 10
137.5101688657223
 20
84.08288887447461
 30
0.0
 10
137.7863112405682
 20
84.08288887445023
 30
0.0
  0
SPLINE
  5
90
330
70
100
AcDbEntity
  8
0
 62
    18
420
        0
370
    25
100
AcDbSpline
210
0.0
220
0.0
230
1.0
 70
     9
 71
     3
 72
    29
 73
    25
 74
     0
 42
0.0000000001
 43
0.0000000001
 40
0.0
 40
0.0
 40
0.0
 40
0.0
 40
1.0
 40
1.0
 40
1.0
 40
2.0
 40
2.0
 40
2.0
 40
3.0
 40
3.0
 40
3.0
 40
4.0
 40
4.0
 40
4.0
 40
5.0
 40
5.0
 40
5.0
 40
6.0
 40
6.0
 40
6.0
 40
7.0
 40
7.0
 40
7.0
 40
8.0
 40
8.0
 40
8.0
 40
8.0
 10
116.3547499715394
 20
84.08288887616036
 30
0.0
 10
116.3547499715394
 20
84.08288887616036
 30
0.0
 10
129.3547499682896
 20
84.0828888749931
 30
0.0
 10
129.3547499682896
 20
84.0828888749931
 30
0.0
 10
129.6308923431361
 20
84.08288887496871
 30
0.0
 10
129.8547499681449
 20
83.85903124991948
 30
0.0
 10
129.8547499681199
 20
83.58288887507297
 30
0.0
 10
129.8547499681199
 20
83.58288887507297
 30
0.0
 10
129.8547499669526
 20
70.58288887832273
 30
0.0
 10
129.8547499669526
 20
70.58288887832273
 30
0.0
 10
129.8547499669283
 20
70.30674650347624
 30
0.0
 10
129.630892341879
 20
70.08288887846806
 30
0.0
 10
129.3547499670325
 20
70.08288887849244
 30
0.0
 10
129.3547499670325
 20
70.08288887849244
 30
0.0
 10
116.3547499702823
 20
70.08288887965969
 30
0.0
 10
116.3547499702823
 20
70.08288887965969
 30
0.0
 10
116.0786075954364
 20
70.08288887968472
 30
0.0
 10
115.8547499704282
 20
70.30674650473333
 30
0.0
 10
115.8547499704526
 20
70.58288887957981
 30
0.0
 10
115.8547499704526
 20
70.58288887957981
 30
0.0
 10
115.8547499716199
 20
83.58288887633007
 30
0.0
 10
115.8547499716199
 20
83.58288887633007
 30
0.0
 10
115.8547499716449
 20
83.85903125117655
 30
0.0
 10
116.0786075966935
 20
84.08288887618537
 30
0.0
 10
116.3547499715394
 20
84.08288887616036
 30
0.0
  0
SPLINE
  5
91
330
70
100
AcDbEntity
  8
0
 62
    18
420
        0
370
    25
100
AcDbSpline
210
0.0
220
0.0
230
1.0
 70
     9
 71
     3
 72
    29
 73
    25
 74
     0
 42
0.0000000001
 43
0.0000000001
 40
0.0
 40
0.0
 40
0.0
 40
0.0
 40
1.0
 40
1.0
 40
1.0
 40
2.0
 40
2.0
 40
2.0
 40
3.0
 40
3.0
 40
3.0
 40
4.0
 40
4.0
 40
4.0
 40
5.0
 40
5.0
 40
5.0
 40
6.0
 40
6.0
 40
6.0
 40
7.0
 40
7.0
 40
7.0
 40
8.0
 40
8.0
 40
8.0
 40
8.0
 10
266.3734185152128
 20
103.132888858141
 30
0.0
 10
266.3734185152128
 20
103.132888858141
 30
0.0
 10
279.373418511963
 20
103.1328888569737
 30
0.0
 10
279.373418511963
 20
103.1328888569737
 30
0.0
 10
279.6495608868089
 20
103.1328888569493
 30
0.0
 10
279.8734185118177
 20
102.9090312319001
 30
0.0
 10
279.8734185117927
 20
102.6328888570536
 30
0.0
 10
279.8734185117927
 20
102.6328888570536
 30
0.0
 10
279.8734185106261
 20
89.63288886030337
 30
0.0
 10
279.8734185106261
 20
89.63288886030337
 30
0.0
 10
279.873418510601
 20
89.35674648545687
 30
0.0
 10
279.6495608855524
 20
89.1328888604487
 30
0.0
 10
279.373418510706
 20
89.13288886047308
 30
0.0
 10
279.373418510706
 20
89.13288886047308
 30
0.0
 10
266.3734185139557
 20
89.13288886164032
 30
0.0
 10
266.3734185139557
 20
89.13288886164032
 30
0.0
 10
266.0972761391092
 20
89.13288886166535
 30
0.0
 10
265.873418514101
 20
89.35674648671396
 30
0.0
 10
265.8734185141254
 20
89.63288886156046
 30
0.0
 10
265.8734185141254
 20
89.63288886156046
 30
0.0
 10
265.8734185152933
 20
102.6328888583107
 30
0.0
 10
265.8734185152933
 20
102.6328888583107
 30
0.0
 10
265.8734185153177
 20
102.9090312331572
 30
0.0
 10
266.097276140367
 20
103.132888858166
 30
0.0
 10
266.3734185152128
 20
103.132888858141
 30
0.0
  0
SPLINE
  5
92
330
70
100
AcDbEntity
  8
0
 62
    18
420
        0
370
    25
100
AcDbSpline
210
0.0
220
0.0
230
1.0
 70
     9
 71
     3
 72
    29
 73
    25
 74
     0
 42
0.0000000001
 43
0.0000000001
 40
0.0
 40
0.0
 40
0.0
 40
0.0
 40
1.0
 40
1.0
 40
1.0
 40
2.0
 40
2.0
 40
2.0
 40
3.0
 40
3.0
 40
3.0
 40
4.0
 40
4.0
 40
4.0
 40
5.0
 40
5.0
 40
5.0
 40
6.0
 40
6.0
 40
6.0
 40
7.0
 40
7.0
 40
7.0
 40
8.0
 40
8.0
 40
8.0
 40
8.0
 10
247.3238112422785
 20
103.1328888598517
 30
0.0
 10
247.3238112422785
 20
103.1328888598517
 30
0.0
 10
260.3238112390287
 20
103.1328888586845
 30
0.0
 10
260.3238112390287
 20
103.1328888586845
 30
0.0
 10
260.5999536138753
 20
103.1328888586594
 30
0.0
 10
260.823811238884
 20
102.9090312336109
 30
0.0
 10
260.823811238859
 20
102.6328888587644
 30
0.0
 10
260.823811238859
 20
102.6328888587644
 30
0.0
 10
260.8238112376918
 20
89.63288886201414
 30
0.0
 10
260.8238112376918
 20
89.63288886201414
 30
0.0
 10
260.8238112376674
 20
89.35674648716764
 30
0.0
 10
260.5999536126181
 20
89.13288886215882
 30
0.0
 10
260.3238112377716
 20
89.13288886218385
 30
0.0
 10
260.3238112377716
 20
89.13288886218385
 30
0.0
 10
247.3238112410214
 20
89.13288886335109
 30
0.0
 10
247.3238112410214
 20
89.13288886335109
 30
0.0
 10
247.0476688661755
 20
89.13288886337612
 30
0.0
 10
246.8238112411667
 20
89.35674648842473
 30
0.0
 10
246.8238112411917
 20
89.63288886327122
 30
0.0
 10
246.8238112411917
 20
89.63288886327122
 30
0.0
 10
246.823811242359
 20
102.6328888600215
 30
0.0
 10
246.823811242359
 20
102.6328888600215
 30
0.0
 10
246.8238112423834
 20
102.9090312348679
 30
0.0
 10
247.0476688674326
 20
103.1328888598768
 30
0.0
 10
247.3238112422785
 20
103.1328888598517
 30
0.0
  0
SPLINE
  5
93
330
70
100
AcDbEntity
  8
0
 62
    18
420
        0
370
    25
100
AcDbSpline
210
0.0
220
0.0
230
1.0
 70
     9
 71
     3
 72
    29
 73
    25
 74
     0
 42
0.0000000001
 43
0.0000000001
 40
0.0
 40
0.0
 40
0.0
 40
0.0
 40
1.0
 40
1.0
 40
1.0
 40
2.0
 40
2.0
 40
2.0
 40
3.0
 40
3.0
 40
3.0
 40
4.0
 40
4.0
 40
4.0
 40
5.0
 40
5.0
 40
5.0
 40
6.0
 40
6.0
 40
6.0
 40
7.0
 40
7.0
 40
7.0
 40
8.0
 40
8.0
 40
8.0
 40
8.0
 10
228.2738112422783
 20
103.1328888615625
 30
0.0
 10
228.2738112422783
 20
103.1328888615625
 30
0.0
 10
241.2738112390286
 20
103.1328888603953
 30
0.0
 10
241.2738112390286
 20
103.1328888603953
 30
0.0
 10
241.549953613875
 20
103.1328888603702
 30
0.0
 10
241.7738112388839
 20
102.9090312353216
 30
0.0
 10
241.7738112388588
 20
102.6328888604751
 30
0.0
 10
241.7738112388588
 20
102.6328888604751
 30
0.0
 10
241.7738112376916
 20
89.6328888637249
 30
0.0
 10
241.7738112376916
 20
89.6328888637249
 30
0.0
 10
241.7738112376672
 20
89.35674648887841
 30
0.0
 10
241.5499536126179
 20
89.13288886386959
 30
0.0
 10
241.2738112377714
 20
89.13288886389462
 30
0.0
 10
241.2738112377714
 20
89.13288886389462
 30
0.0
 10
228.2738112410212
 20
89.13288886506187
 30
0.0
 10
228.2738112410212
 20
89.13288886506187
 30
0.0
 10
227.9976688661753
 20
89.13288886508626
 30
0.0
 10
227.7738112411665
 20
89.35674649013551
 30
0.0
 10
227.7738112411916
 20
89.63288886498199
 30
0.0
 10
227.7738112411916
 20
89.63288886498199
 30
0.0
 10
227.7738112423588
 20
102.6328888617322
 30
0.0
 10
227.7738112423588
 20
102.6328888617322
 30
0.0
 10
227.7738112423832
 20
102.9090312365787
 30
0.0
 10
227.9976688674324
 20
103.1328888615869
 30
0.0
 10
228.2738112422783
 20
103.1328888615625
 30
0.0
  0
SPLINE
  5
94
330
70
100
AcDbEntity
  8
0
 62
    18
420
        0
370
    25
100
AcDbSpline
210
0.0
220
0.0
230
1.0
 70
     9
 71
     3
 72
    29
 73
    25
 74
     0
 42
0.0000000001
 43
0.0000000001
 40
0.0
 40
0.0
 40
0.0
 40
0.0
 40
1.0
 40
1.0
 40
1.0
 40
2.0
 40
2.0
 40
2.0
 40
3.0
 40
3.0
 40
3.0
 40
4.0
 40
4.0
 40
4.0
 40
5.0
 40
5.0
 40
5.0
 40
6.0
 40
6.0
 40
6.0
 40
7.0
 40
7.0
 40
7.0
 40
8.0
 40
8.0
 40
8.0
 40
8.0
 10
209.2234185152129
 20
103.1328888632726
 30
0.0
 10
209.2234185152129
 20
103.1328888632726
 30
0.0
 10
222.2234185119631
 20
103.1328888621054
 30
0.0
 10
222.2234185119631
 20
103.1328888621054
 30
0.0
 10
222.499560886809
 20
103.132888862081
 30
0.0
 10
222.7234185118177
 20
102.9090312370318
 30
0.0
 10
222.7234185117934
 20
102.6328888621853
 30
0.0
 10
222.7234185117934
 20
102.6328888621853
 30
0.0
 10
222.7234185106261
 20
89.63288886543503
 30
0.0
 10
222.7234185106261
 20
89.63288886543503
 30
0.0
 10
222.7234185106011
 20
89.35674649058853
 30
0.0
 10
222.4995608855519
 20
89.13288886558037
 30
0.0
 10
222.223418510706
 20
89.13288886560474
 30
0.0
 10
222.223418510706
 20
89.13288886560474
 30
0.0
 10
209.2234185139557
 20
89.13288886677198
 30
0.0
 10
209.2234185139557
 20
89.13288886677198
 30
0.0
 10
208.9472761391099
 20
89.13288886679701
 30
0.0
 10
208.7234185141011
 20
89.35674649184562
 30
0.0
 10
208.7234185141261
 20
89.63288886669213
 30
0.0
 10
208.7234185141261
 20
89.63288886669213
 30
0.0
 10
208.7234185152933
 20
102.6328888634423
 30
0.0
 10
208.7234185152933
 20
102.6328888634423
 30
0.0
 10
208.7234185153184
 20
102.9090312382888
 30
0.0
 10
208.947276140367
 20
103.1328888632977
 30
0.0
 10
209.2234185152129
 20
103.1328888632726
 30
0.0
  0
SPLINE
  5
95
330
70
100
AcDbEntity
  8
0
 62
    18
420
        0
370
    25
100
AcDbSpline
210
0.0
220
0.0
230
1.0
 70
     9
 71
     3
 72
    29
 73
    25
 74
     0
 42
0.0000000001
 43
0.0000000001
 40
0.0
 40
0.0
 40
0.0
 40
0.0
 40
1.0
 40
1.0
 40
1.0
 40
2.0
 40
2.0
 40
2.0
 40
3.0
 40
3.0
 40
3.0
 40
4.0
 40
4.0
 40
4.0
 40
5.0
 40
5.0
 40
5.0
 40
6.0
 40
6.0
 40
6.0
 40
7.0
 40
7.0
 40
7.0
 40
8.0
 40
8.0
 40
8.0
 40
8.0
 10
190.1738112422785
 20
103.1328888649834
 30
0.0
 10
190.1738112422785
 20
103.1328888649834
 30
0.0
 10
203.1738112390288
 20
103.1328888638161
 30
0.0
 10
203.1738112390288
 20
103.1328888638161
 30
0.0
 10
203.4499536138753
 20
103.1328888637911
 30
0.0
 10
203.6738112388841
 20
102.9090312387425
 30
0.0
 10
203.6738112388591
 20
102.632888863896
 30
0.0
 10
203.6738112388591
 20
102.632888863896
 30
0.0
 10
203.6738112376919
 20
89.63288886714581
 30
0.0
 10
203.6738112376919
 20
89.63288886714581
 30
0.0
 10
203.6738112376668
 20
89.3567464922993
 30
0.0
 10
203.4499536126182
 20
89.13288886729048
 30
0.0
 10
203.1738112377717
 20
89.13288886731551
 30
0.0
 10
203.1738112377717
 20
89.13288886731551
 30
0.0
 10
190.1738112410214
 20
89.13288886848276
 30
0.0
 10
190.1738112410214
 20
89.13288886848276
 30
0.0
 10
189.8976688661756
 20
89.13288886850779
 30
0.0
 10
189.6738112411668
 20
89.3567464935564
 30
0.0
 10
189.6738112411918
 20
89.63288886840288
 30
0.0
 10
189.6738112411918
 20
89.63288886840288
 30
0.0
 10
189.673811242359
 20
102.6328888651531
 30
0.0
 10
189.673811242359
 20
102.6328888651531
 30
0.0
 10
189.6738112423841
 20
102.9090312399996
 30
0.0
 10
189.8976688674327
 20
103.1328888650084
 30
0.0
 10
190.1738112422785
 20
103.1328888649834
 30
0.0
  0
SPLINE
  5
96
330
70
100
AcDbEntity
  8
0
 62
    18
420
        0
370
    25
100
AcDbSpline
210
0.0
220
0.0
230
1.0
 70
     9
 71
     3
 72
    29
 73
    25
 74
     0
 42
0.0000000001
 43
0.0000000001
 40
0.0
 40
0.0
 40
0.0
 40
0.0
 40
1.0
 40
1.0
 40
1.0
 40
2.0
 40
2.0
 40
2.0
 40
3.0
 40
3.0
 40
3.0
 40
4.0
 40
4.0
 40
4.0
 40
5.0
 40
5.0
 40
5.0
 40
6.0
 40
6.0
 40
6.0
 40
7.0
 40
7.0
 40
7.0
 40
8.0
 40
8.0
 40
8.0
 40
8.0
 10
171.1238112422783
 20
103.1328888666942
 30
0.0
 10
171.1238112422783
 20
103.1328888666942
 30
0.0
 10
184.1238112390286
 20
103.1328888655269
 30
0.0
 10
184.1238112390286
 20
103.1328888655269
 30
0.0
 10
184.3999536138751
 20
103.1328888655019
 30
0.0
 10
184.6238112388839
 20
102.9090312404533
 30
0.0
 10
184.6238112388588
 20
102.6328888656068
 30
0.0
 10
184.6238112388588
 20
102.6328888656068
 30
0.0
 10
184.6238112376916
 20
89.63288886885656
 30
0.0
 10
184.6238112376916
 20
89.63288886885656
 30
0.0
 10
184.6238112376666
 20
89.35674649401008
 30
0.0
 10
184.399953612618
 20
89.13288886900126
 30
0.0
 10
184.1238112377715
 20
89.13288886902629
 30
0.0
 10
184.1238112377715
 20
89.13288886902629
 30
0.0
 10
171.1238112410212
 20
89.13288887019353
 30
0.0
 10
171.1238112410212
 20
89.13288887019353
 30
0.0
 10
170.8476688661754
 20
89.13288887021792
 30
0.0
 10
170.6238112411666
 20
89.35674649526717
 30
0.0
 10
170.6238112411916
 20
89.63288887011366
 30
0.0
 10
170.6238112411916
 20
89.63288887011366
 30
0.0
 10
170.6238112423589
 20
102.6328888668639
 30
0.0
 10
170.6238112423589
 20
102.6328888668639
 30
0.0
 10
170.6238112423839
 20
102.9090312417104
 30
0.0
 10
170.8476688674325
 20
103.1328888667186
 30
0.0
 10
171.1238112422783
 20
103.1328888666942
 30
0.0
  0
SPLINE
  5
97
330
70
100
AcDbEntity
  8
0
 62
    18
420
        0
370
    25
100
AcDbSpline
210
0.0
220
0.0
230
1.0
 70
     9
 71
     3
 72
    29
 73
    25
 74
     0
 42
0.0000000001
 43
0.0000000001
 40
0.0
 40
0.0
 40
0.0
 40
0.0
 40
1.0
 40
1.0
 40
1.0
 40
2.0
 40
2.0
 40
2.0
 40
3.0
 40
3.0
 40
3.0
 40
4.0
 40
4.0
 40
4.0
 40
5.0
 40
5.0
 40
5.0
 40
6.0
 40
6.0
 40
6.0
 40
7.0
 40
7.0
 40
7.0
 40
8.0
 40
8.0
 40
8.0
 40
8.0
 10
152.0734185152129
 20
103.1328888684043
 30
0.0
 10
152.0734185152129
 20
103.1328888684043
 30
0.0
 10
165.0734185119631
 20
103.1328888672371
 30
0.0
 10
165.0734185119631
 20
103.1328888672371
 30
0.0
 10
165.3495608868096
 20
103.1328888672127
 30
0.0
 10
165.5734185118185
 20
102.9090312421634
 30
0.0
 10
165.5734185117934
 20
102.6328888673169
 30
0.0
 10
165.5734185117934
 20
102.6328888673169
 30
0.0
 10
165.5734185106262
 20
89.6328888705667
 30
0.0
 10
165.5734185106262
 20
89.6328888705667
 30
0.0
 10
165.5734185106011
 20
89.35674649572019
 30
0.0
 10
165.3495608855525
 20
89.13288887071201
 30
0.0
 10
165.073418510706
 20
89.1328888707364
 30
0.0
 10
165.073418510706
 20
89.1328888707364
 30
0.0
 10
152.0734185139558
 20
89.13288887190367
 30
0.0
 10
152.0734185139558
 20
89.13288887190367
 30
0.0
 10
151.7972761391093
 20
89.13288887192868
 30
0.0
 10
151.5734185141005
 20
89.35674649697729
 30
0.0
 10
151.5734185141255
 20
89.63288887182379
 30
0.0
 10
151.5734185141255
 20
89.63288887182379
 30
0.0
 10
151.5734185152927
 20
102.632888868574
 30
0.0
 10
151.5734185152927
 20
102.632888868574
 30
0.0
 10
151.5734185153178
 20
102.9090312434205
 30
0.0
 10
151.7972761403664
 20
103.1328888684293
 30
0.0
 10
152.0734185152129
 20
103.1328888684043
 30
0.0
  0
SPLINE
  5
98
330
70
100
AcDbEntity
  8
0
 62
    18
420
        0
370
    25
100
AcDbSpline
210
0.0
220
0.0
230
1.0
 70
     9
 71
     3
 72
    29
 73
    25
 74
     0
 42
0.0000000001
 43
0.0000000001
 40
0.0
 40
0.0
 40
0.0
 40
0.0
 40
1.0
 40
1.0
 40
1.0
 40
2.0
 40
2.0
 40
2.0
 40
3.0
 40
3.0
 40
3.0
 40
4.0
 40
4.0
 40
4.0
 40
5.0
 40
5.0
 40
5.0
 40
6.0
 40
6.0
 40
6.0
 40
7.0
 40
7.0
 40
7.0
 40
8.0
 40
8.0
 40
8.0
 40
8.0
 10
133.0238112422786
 20
103.1328888701151
 30
0.0
 10
133.0238112422786
 20
103.1328888701151
 30
0.0
 10
146.0238112390289
 20
103.1328888689478
 30
0.0
 10
146.0238112390289
 20
103.1328888689478
 30
0.0
 10
146.2999536138753
 20
103.1328888689228
 30
0.0
 10
146.5238112388842
 20
102.9090312438742
 30
0.0
 10
146.5238112388591
 20
102.6328888690277
 30
0.0
 10
146.5238112388591
 20
102.6328888690277
 30
0.0
 10
146.5238112376919
 20
89.63288887227747
 30
0.0
 10
146.5238112376919
 20
89.63288887227747
 30
0.0
 10
146.5238112376669
 20
89.35674649743097
 30
0.0
 10
146.2999536126183
 20
89.13288887242215
 30
0.0
 10
146.0238112377718
 20
89.13288887244718
 30
0.0
 10
146.0238112377718
 20
89.13288887244718
 30
0.0
 10
133.0238112410215
 20
89.13288887361444
 30
0.0
 10
133.0238112410215
 20
89.13288887361444
 30
0.0
 10
132.7476688661757
 20
89.13288887363945
 30
0.0
 10
132.5238112411668
 20
89.35674649868806
 30
0.0
 10
132.5238112411919
 20
89.63288887353455
 30
0.0
 10
132.5238112411919
 20
89.63288887353455
 30
0.0
 10
132.5238112423591
 20
102.6328888702848
 30
0.0
 10
132.5238112423591
 20
102.6328888702848
 30
0.0
 10
132.5238112423841
 20
102.9090312451313
 30
0.0
 10
132.7476688674327
 20
103.1328888701401
 30
0.0
 10
133.0238112422786
 20
103.1328888701151
 30
0.0
  0
SPLINE
  5
99
330
70
100
AcDbEntity
  8
0
 62
    18
420
        0
370
    25
100
AcDbSpline
210
0.0
220
0.0
230
1.0
 70
     9
 71
     3
 72
    29
 73
    25
 74
     0
 42
0.0000000001
 43
0.0000000001
 40
0.0
 40
0.0
 40
0.0
 40
0.0
 40
1.0
 40
1.0
 40
1.0
 40
2.0
 40
2.0
 40
2.0
 40
3.0
 40
3.0
 40
3.0
 40
4.0
 40
4.0
 40
4.0
 40
5.0
 40
5.0
 40
5.0
 40
6.0
 40
6.0
 40
6.0
 40
7.0
 40
7.0
 40
7.0
 40
8.0
 40
8.0
 40
8.0
 40
8.0
 10
113.9738112422784
 20
103.1328888718259
 30
0.0
 10
113.9738112422784
 20
103.1328888718259
 30
0.0
 10
126.9738112390287
 20
103.1328888706586
 30
0.0
 10
126.9738112390287
 20
103.1328888706586
 30
0.0
 10
127.2499536138751
 20
103.1328888706336
 30
0.0
 10
127.473811238884
 20
102.909031245585
 30
0.0
 10
127.4738112388589
 20
102.6328888707385
 30
0.0
 10
127.4738112388589
 20
102.6328888707385
 30
0.0
 10
127.4738112376917
 20
89.63288887398823
 30
0.0
 10
127.4738112376917
 20
89.63288887398823
 30
0.0
 10
127.4738112376667
 20
89.35674649914174
 30
0.0
 10
127.2499536126181
 20
89.13288887413292
 30
0.0
 10
126.9738112377716
 20
89.13288887415795
 30
0.0
 10
126.9738112377716
 20
89.13288887415795
 30
0.0
 10
113.9738112410213
 20
89.13288887532521
 30
0.0
 10
113.9738112410213
 20
89.13288887532521
 30
0.0
 10
113.6976688661754
 20
89.13288887534958
 30
0.0
 10
113.4738112411666
 20
89.35674650039883
 30
0.0
 10
113.4738112411917
 20
89.63288887524532
 30
0.0
 10
113.4738112411917
 20
89.63288887524532
 30
0.0
 10
113.4738112423589
 20
102.6328888719956
 30
0.0
 10
113.4738112423589
 20
102.6328888719956
 30
0.0
 10
113.4738112423839
 20
102.909031246842
 30
0.0
 10
113.6976688674325
 20
103.1328888718502
 30
0.0
 10
113.9738112422784
 20
103.1328888718259
 30
0.0
  0
SPLINE
  5
9A
330
70
100
AcDbEntity
  8
0
 62
    18
420
        0
370
    25
100
AcDbSpline
210
0.0
220
0.0
230
1.0
 70
     9
 71
     3
 72
    29
 73
    25
 74
     0
 42
0.0000000001
 43
0.0000000001
 40
0.0
 40
0.0
 40
0.0
 40
0.0
 40
1.0
 40
1.0
 40
1.0
 40
2.0
 40
2.0
 40
2.0
 40
3.0
 40
3.0
 40
3.0
 40
4.0
 40
4.0
 40
4.0
 40
5.0
 40
5.0
 40
5.0
 40
6.0
 40
6.0
 40
6.0
 40
7.0
 40
7.0
 40
7.0
 40
8.0
 40
8.0
 40
8.0
 40
8.0
 10
118.7367221923121
 20
65.03288888092285
 30
0.0
 10
118.7367221923121
 20
65.03288888092285
 30
0.0
 10
134.1177221884666
 20
65.03288887954191
 30
0.0
 10
134.1177221884666
 20
65.03288887954191
 30
0.0
 10
134.3938645633131
 20
65.03288887951689
 30
0.0
 10
134.6177221883212
 20
64.80903125446829
 30
0.0
 10
134.6177221882969
 20
64.53288887962179
 30
0.0
 10
134.6177221882969
 20
64.53288887962179
 30
0.0
 10
134.6177221871296
 20
51.53288888287153
 30
0.0
 10
134.6177221871296
 20
51.53288888287153
 30
0.0
 10
134.6177221871046
 20
51.25674650802505
 30
0.0
 10
134.393864562056
 20
51.03288888301687
 30
0.0
 10
134.1177221872095
 20
51.03288888304125
 30
0.0
 10
134.1177221872095
 20
51.03288888304125
 30
0.0
 10
118.736722191055
 20
51.03288888442219
 30
0.0
 10
118.736722191055
 20
51.03288888442219
 30
0.0
 10
118.4605798162085
 20
51.03288888444786
 30
0.0
 10
118.2367221911996
 20
51.25674650949582
 30
0.0
 10
118.2367221912247
 20
51.53288888434231
 30
0.0
 10
118.2367221912247
 20
51.53288888434231
 30
0.0
 10
118.2367221923919
 20
64.53288888109257
 30
0.0
 10
118.2367221923919
 20
64.53288888109257
 30
0.0
 10
118.2367221924163
 20
64.80903125593906
 30
0.0
 10
118.4605798174656
 20
65.03288888094724
 30
0.0
 10
118.7367221923121
 20
65.03288888092285
 30
0.0
  0
ENDSEC
  0
SECTION
  2
OBJECTS
  0
DICTIONARY
  5
C
330
0
100
AcDbDictionary
281
     1
  3
ACAD_COLOR
350
63
  3
ACAD_DETAILVIEWSTYLE
350
6A
  3
ACAD_GROUP
350
D
  3
ACAD_LAYOUT
350
62
  3
ACAD_MATERIAL
350
10
  3
ACAD_MLEADERSTYLE
350
66
  3
ACAD_MLINESTYLE
350
5F
  3
ACAD_PLOTSETTINGS
350
61
  3
ACAD_PLOTSTYLENAME
350
E
  3
ACAD_SCALELIST
350
42
  3
ACAD_SECTIONVIEWSTYLE
350
68
  3
ACAD_TABLESTYLE
350
64
  3
ACAD_VISUALSTYLE
350
29
  3
ACDB_RECOMPOSE_DATA
350
A3
  3
AcDbVariableDictionary
350
9B
  0
DICTIONARY
  5
63
102
{ACAD_REACTORS
330
C
102
}
330
C
100
AcDbDictionary
281
     1
  0
DICTIONARY
  5
6A
102
{ACAD_REACTORS
330
C
102
}
330
C
100
AcDbDictionary
281
     1
  3
Imperial24
350
6B
  0
DICTIONARY
  5
D
102
{ACAD_REACTORS
330
C
102
}
330
C
100
AcDbDictionary
281
     1
  0
DICTIONARY
  5
62
102
{ACAD_REACTORS
330
C
102
}
330
C
100
AcDbDictionary
281
     1
  3
Layout1
350
6F
  3
Layout2
350
77
  3
Model
350
73
  0
DICTIONARY
  5
10
102
{ACAD_REACTORS
330
C
102
}
330
C
100
AcDbDictionary
281
     1
  3
ByBlock
350
19
  3
ByLayer
350
11
  3
Global
350
21
  0
DICTIONARY
  5
66
102
{ACAD_REACTORS
330
C
102
}
330
C
100
AcDbDictionary
281
     1
  3
Standard
350
67
  0
DICTIONARY
  5
5F
102
{ACAD_REACTORS
330
C
102
}
330
C
100
AcDbDictionary
281
     1
  3
Standard
350
60
  0
DICTIONARY
  5
61
102
{ACAD_REACTORS
330
C
102
}
330
C
100
AcDbDictionary
281
     1
  0
ACDBDICTIONARYWDFLT
  5
E
102
{ACAD_REACTORS
330
C
102
}
330
C
100
AcDbDictionary
281
     1
  3
Normal
350
F
100
AcDbDictionaryWithDefault
340
F
  0
DICTIONARY
  5
42
102
{ACAD_REACTORS
330
C
102
}
330
C
100
AcDbDictionary
281
     1
  3
A0
350
43
  3
A1
350
44
  3
A2
350
45
  3
A3
350
46
  3
A4
350
47
  3
A5
350
48
  3
A6
350
49
  3
A7
350
4A
  3
A8
350
4B
  3
A9
350
4C
  3
B0
350
4D
  3
B1
350
4E
  3
B2
350
4F
  3
B3
350
50
  3
B4
350
51
  3
B5
350
52
  3
B6
350
53
  0
DICTIONARY
  5
68
102
{ACAD_REACTORS
330
C
102
}
330
C
100
AcDbDictionary
281
     1
  3
Imperial24
350
69
  0
DICTIONARY
  5
64
102
{ACAD_REACTORS
330
C
102
}
330
C
100
AcDbDictionary
281
     1
  3
Standard
350
65
  0
DICTIONARY
  5
29
102
{ACAD_REACTORS
330
C
102
}
330
C
100
AcDbDictionary
281
     1
  3
2dWireframe
350
2F
  3
Basic
350
2E
  3
Brighten
350
35
  3
ColorChange
350
39
  3
Conceptual
350
32
  3
Dim
350
34
  3
EdgeColorOff
350
41
  3
Facepattern
350
38
  3
Flat
350
2A
  3
FlatWithEdges
350
2B
  3
Gouraud
350
2C
  3
GouraudWithEdges
350
2D
  3
Hidden
350
31
  3
JitterOff
350
3F
  3
Linepattern
350
37
  3
OverhangOff
350
40
  3
Realistic
350
33
  3
Shaded
350
3E
  3
Shaded with edges
350
3D
  3
Shades of Gray
350
3A
  3
Sketchy
350
3B
  3
Thicken
350
36
  3
Wireframe
350
30
  3
X-Ray
350
3C
  0
XRECORD
  5
A3
102
{ACAD_REACTORS
330
C
102
}
330
C
100
AcDbXrecord
280
     1
 90
        1
330
65
  0
DICTIONARY
  5
9B
102
{ACAD_REACTORS
330
C
102
}
330
C
100
AcDbDictionary
281
     1
  3
CANNOSCALE
350
A0
  3
CMLEADERSTYLE
350
9D
  3
CTABLESTYLE
350
9C
  3
CVIEWDETAILSTYLE
350
9E
  3
CVIEWSECTIONSTYLE
350
9F
  0
ACDBDETAILVIEWSTYLE
  5
6B
102
{ACAD_REACTORS
330
6A
102
}
330
6A
100
AcDbModelDocViewStyle
 70
     0
  3
Imperial24
290
     1
300
Imperial24
 90
        0
100
AcDbDetailViewStyle
 70
     0
 71
     0
 90
        3
 71
     1
340
55
 62
   256
 40
0.24
340
0
 62
   256
 40
0.24
300

 40
0.36
280
     3
 71
     2
340
5D
 90
       25
 62
   256
 71
     3
340
55
 62
   256
 40
0.24
 90
        1
 40
0.75
 90
        1
300
%<\AcVar ViewType \f "%tc1">% %<\AcVar ViewDetailId>%\PSCALE %<\AcVar ViewScale \f "%sn">%
 71
     4
340
5D
 90
       25
 62
   256
340
5D
 90
       25
 62
   256
280
     0
  0
LAYOUT
  5
6F
102
{ACAD_REACTORS
330
62
102
}
330
62
100
AcDbPlotSettings
  1

  2

  4

  6

 40
0.0
 41
0.0
 42
0.0
 43
0.0
 44
0.0
 45
0.0
 46
0.0
 47
0.0
 48
0.0
 49
0.0
140
0.0
141
0.0
142
1.0
143
1.0
 70
   688
 72
     0
 73
     0
 74
     5
  7

 75
    16
147
1.0
 76
     0
 77
     2
 78
   300
148
0.0
149
0.0
100
AcDbLayout
  1
Layout1
 70
     1
 71
     1
 10
0.0
 20
0.0
 11
12.0
 21
9.0
 12
0.0
 22
0.0
 32
0.0
 14
0.0
 24
0.0
 34
0.0
 15
0.0
 25
0.0
 35
0.0
146
0.0
 13
0.0
 23
0.0
 33
0.0
 16
1.0
 26
0.0
 36
0.0
 17
0.0
 27
1.0
 37
0.0
 76
     0
330
6C
  0
LAYOUT
  5
77
102
{ACAD_REACTORS
330
62
102
}
330
62
100
AcDbPlotSettings
  1

  2

  4

  6

 40
0.0
 41
0.0
 42
0.0
 43
0.0
 44
0.0
 45
0.0
 46
0.0
 47
0.0
 48
0.0
 49
0.0
140
0.0
141
0.0
142
1.0
143
1.0
 70
   688
 72
     0
 73
     0
 74
     5
  7

 75
    16
147
1.0
 76
     0
 77
     2
 78
   300
148
0.0
149
0.0
100
AcDbLayout
  1
Layout2
 70
     1
 71
     2
 10
0.0
 20
0.0
 11
12.0
 21
9.0
 12
0.0
 22
0.0
 32
0.0
 14
0.0
 24
0.0
 34
0.0
 15
0.0
 25
0.0
 35
0.0
146
0.0
 13
0.0
 23
0.0
 33
0.0
 16
1.0
 26
0.0
 36
0.0
 17
0.0
 27
1.0
 37
0.0
 76
     0
330
74
  0
LAYOUT
  5
73
102
{ACAD_REACTORS
330
62
102
}
330
62
100
AcDbPlotSettings
  1

  2

  4

  6

 40
0.0
 41
0.0
 42
0.0
 43
0.0
 44
0.0
 45
0.0
 46
0.0
 47
0.0
 48
0.0
 49
0.0
140
0.0
141
0.0
142
1.0
143
1.0
 70
  1712
 72
     0
 73
     0
 74
     0
  7

 75
     0
147
1.0
 76
     0
 77
     2
 78
   300
148
0.0
149
0.0
100
AcDbLayout
  1
Model
 70
     1
 71
     0
 10
0.0
 20
0.0
 11
12.0
 21
9.0
 12
0.0
 22
0.0
 32
0.0
 14
0.0
 24
0.0
 34
0.0
 15
0.0
 25
0.0
 35
0.0
146
0.0
 13
0.0
 23
0.0
 33
0.0
 16
1.0
 26
0.0
 36
0.0
 17
0.0
 27
1.0
 37
0.0
 76
     0
330
70
  0
MATERIAL
  5
19
102
{ACAD_XDICTIONARY
360
1A
102
}
102
{ACAD_REACTORS
330
10
102
}
330
10
100
AcDbMaterial
  1
ByBlock
 72
     0
 43
0.0208333333333333
 43
0.0
 43
0.0
 43
0.0
 43
0.0
 43
0.0208333333333333
 43
0.0
 43
0.0
 43
0.0
 43
0.0
 43
1.0
 43
0.0
 43
0.0
 43
0.0
 43
0.0
 43
1.0
 77
     0
 47
0.0208333333333333
 47
0.0
 47
0.0
 47
0.0
 47
0.0
 47
0.0208333333333333
 47
0.0
 47
0.0
 47
0.0
 47
0.0
 47
1.0
 47
0.0
 47
0.0
 47
0.0
 47
0.0
 47
1.0
171
     0
 49
0.0208333333333333
 49
0.0
 49
0.0
 49
0.0
 49
0.0
 49
0.0208333333333333
 49
0.0
 49
0.0
 49
0.0
 49
0.0
 49
1.0
 49
0.0
 49
0.0
 49
0.0
 49
0.0
 49
1.0
175
     0
142
0.0208333333333333
142
0.0
142
0.0
142
0.0
142
0.0
142
0.0208333333333333
142
0.0
142
0.0
142
0.0
142
0.0
142
1.0
142
0.0
142
0.0
142
0.0
142
0.0
142
1.0
179
     0
144
0.0208333333333333
144
0.0
144
0.0
144
0.0
144
0.0
144
0.0208333333333333
144
0.0
144
0.0
144
0.0
144
0.0
144
1.0
144
0.0
144
0.0
144
0.0
144
0.0
144
1.0
147
0.0208333333333333
147
0.0
147
0.0
147
0.0
147
0.0
147
0.0208333333333333
147
0.0
147
0.0
147
0.0
147
0.0
147
1.0
147
0.0
147
0.0
147
0.0
147
0.0
147
1.0
  0
MATERIAL
  5
11
102
{ACAD_XDICTIONARY
360
12
102
}
102
{ACAD_REACTORS
330
10
102
}
330
10
100
AcDbMaterial
  1
ByLayer
 72
     0
 43
0.0208333333333333
 43
0.0
 43
0.0
 43
0.0
 43
0.0
 43
0.0208333333333333
 43
0.0
 43
0.0
 43
0.0
 43
0.0
 43
1.0
 43
0.0
 43
0.0
 43
0.0
 43
0.0
 43
1.0
 77
     0
 47
0.0208333333333333
 47
0.0
 47
0.0
 47
0.0
 47
0.0
 47
0.0208333333333333
 47
0.0
 47
0.0
 47
0.0
 47
0.0
 47
1.0
 47
0.0
 47
0.0
 47
0.0
 47
0.0
 47
1.0
171
     0
 49
0.0208333333333333
 49
0.0
 49
0.0
 49
0.0
 49
0.0
 49
0.0208333333333333
 49
0.0
 49
0.0
 49
0.0
 49
0.0
 49
1.0
 49
0.0
 49
0.0
 49
0.0
 49
0.0
 49
1.0
175
     0
142
0.0208333333333333
142
0.0
142
0.0
142
0.0
142
0.0
142
0.0208333333333333
142
0.0
142
0.0
142
0.0
142
0.0
142
1.0
142
0.0
142
0.0
142
0.0
142
0.0
142
1.0
179
     0
144
0.0208333333333333
144
0.0
144
0.0
144
0.0
144
0.0
144
0.0208333333333333
144
0.0
144
0.0
144
0.0
144
0.0
144
1.0
144
0.0
144
0.0
144
0.0
144
0.0
144
1.0
147
0.0208333333333333
147
0.0
147
0.0
147
0.0
147
0.0
147
0.0208333333333333
147
0.0
147
0.0
147
0.0
147
0.0
147
1.0
147
0.0
147
0.0
147
0.0
147
0.0
147
1.0
  0
MATERIAL
  5
21
102
{ACAD_XDICTIONARY
360
22
102
}
102
{ACAD_REACTORS
330
10
102
}
330
10
100
AcDbMaterial
  1
Global
 72
     0
 43
0.0208333333333333
 43
0.0
 43
0.0
 43
0.0
 43
0.0
 43
0.0208333333333333
 43
0.0
 43
0.0
 43
0.0
 43
0.0
 43
1.0
 43
0.0
 43
0.0
 43
0.0
 43
0.0
 43
1.0
 77
     0
 47
0.0208333333333333
 47
0.0
 47
0.0
 47
0.0
 47
0.0
 47
0.0208333333333333
 47
0.0
 47
0.0
 47
0.0
 47
0.0
 47
1.0
 47
0.0
 47
0.0
 47
0.0
 47
0.0
 47
1.0
171
     0
 49
0.0208333333333333
 49
0.0
 49
0.0
 49
0.0
 49
0.0
 49
0.0208333333333333
 49
0.0
 49
0.0
 49
0.0
 49
0.0
 49
1.0
 49
0.0
 49
0.0
 49
0.0
 49
0.0
 49
1.0
175
     0
142
0.0208333333333333
142
0.0
142
0.0
142
0.0
142
0.0
142
0.0208333333333333
142
0.0
142
0.0
142
0.0
142
0.0
142
1.0
142
0.0
142
0.0
142
0.0
142
0.0
142
1.0
179
     0
144
0.0208333333333333
144
0.0
144
0.0
144
0.0
144
0.0
144
0.0208333333333333
144
0.0
144
0.0
144
0.0
144
0.0
144
1.0
144
0.0
144
0.0
144
0.0
144
0.0
144
1.0
147
0.0208333333333333
147
0.0
147
0.0
147
0.0
147
0.0
147
0.0208333333333333
147
0.0
147
0.0
147
0.0
147
0.0
147
1.0
147
0.0
147
0.0
147
0.0
147
0.0
147
1.0
  0
MLEADERSTYLE
  5
67
102
{ACAD_REACTORS
330
66
102
}
330
66
100
AcDbMLeaderStyle
179
     2
170
     2
171
     1
172
     0
 90
        2
 40
0.0
 41
0.0
173
     1
 91
-1056964608
340
5B
 92
       -2
290
     1
 42
0.09
291
     1
 43
0.36
  3
Standard
 44
0.18
300

342
55
174
     1
178
     6
175
     1
176
     0
 93
-1056964608
 45
0.18
292
     0
297
     0
 46
0.18
 94
-1056964608
 47
1.0
 49
1.0
140
1.0
293
     1
141
0.0
294
     1
177
     0
142
1.0
295
     1
296
     0
143
0.125
271
     0
272
     9
273
     9
298
     1
  0
MLINESTYLE
  5
60
102
{ACAD_REACTORS
330
5F
102
}
330
5F
100
AcDbMlineStyle
  2
STANDARD
 70
     0
  3

 62
   256
 51
90.0
 52
90.0
 71
     2
 49
0.5
 62
   256
  6
BYLAYER
 49
-0.5
 62
   256
  6
BYLAYER
  0
ACDBPLACEHOLDER
  5
F
102
{ACAD_REACTORS
330
E
102
}
330
E
  0
SCALE
  5
43
102
{ACAD_REACTORS
330
42
102
}
330
42
100
AcDbScale
 70
     0
300
1:1
140
1.0
141
1.0
290
     1
  0
SCALE
  5
44
102
{ACAD_REACTORS
330
42
102
}
330
42
100
AcDbScale
 70
     0
300
1/128" = 1'-0"
140
0.0078125
141
12.0
290
     0
  0
SCALE
  5
45
102
{ACAD_REACTORS
330
42
102
}
330
42
100
AcDbScale
 70
     0
300
1/64" = 1'-0"
140
0.015625
141
12.0
290
     0
  0
SCALE
  5
46
102
{ACAD_REACTORS
330
42
102
}
330
42
100
AcDbScale
 70
     0
300
1/32" = 1'-0"
140
0.03125
141
12.0
290
     0
  0
SCALE
  5
47
102
{ACAD_REACTORS
330
42
102
}
330
42
100
AcDbScale
 70
     0
300
1/16" = 1'-0"
140
0.0625
141
12.0
290
     0
  0
SCALE
  5
48
102
{ACAD_REACTORS
330
42
102
}
330
42
100
AcDbScale
 70
     0
300
3/32" = 1'-0"
140
0.09375
141
12.0
290
     0
  0
SCALE
  5
49
102
{ACAD_REACTORS
330
42
102
}
330
42
100
AcDbScale
 70
     0
300
1/8" = 1'-0"
140
0.125
141
12.0
290
     0
  0
SCALE
  5
4A
102
{ACAD_REACTORS
330
42
102
}
330
42
100
AcDbScale
 70
     0
300
3/16" = 1'-0"
140
0.1875
141
12.0
290
     0
  0
SCALE
  5
4B
102
{ACAD_REACTORS
330
42
102
}
330
42
100
AcDbScale
 70
     0
300
1/4" = 1'-0"
140
0.25
141
12.0
290
     0
  0
SCALE
  5
4C
102
{ACAD_REACTORS
330
42
102
}
330
42
100
AcDbScale
 70
     0
300
3/8" = 1'-0"
140
0.375
141
12.0
290
     0
  0
SCALE
  5
4D
102
{ACAD_REACTORS
330
42
102
}
330
42
100
AcDbScale
 70
     0
300
1/2" = 1'-0"
140
0.5
141
12.0
290
     0
  0
SCALE
  5
4E
102
{ACAD_REACTORS
330
42
102
}
330
42
100
AcDbScale
 70
     0
300
3/4" = 1'-0"
140
0.75
141
12.0
290
     0
  0
SCALE
  5
4F
102
{ACAD_REACTORS
330
42
102
}
330
42
100
AcDbScale
 70
     0
300
1" = 1'-0"
140
1.0
141
12.0
290
     0
  0
SCALE
  5
50
102
{ACAD_REACTORS
330
42
102
}
330
42
100
AcDbScale
 70
     0
300
1-1/2" = 1'-0"
140
1.5
141
12.0
290
     0
  0
SCALE
  5
51
102
{ACAD_REACTORS
330
42
102
}
330
42
100
AcDbScale
 70
     0
300
3" = 1'-0"
140
3.0
141
12.0
290
     0
  0
SCALE
  5
52
102
{ACAD_REACTORS
330
42
102
}
330
42
100
AcDbScale
 70
     0
300
6" = 1'-0"
140
6.0
141
12.0
290
     0
  0
SCALE
  5
53
102
{ACAD_REACTORS
330
42
102
}
330
42
100
AcDbScale
 70
     0
300
1'-0" = 1'-0"
140
12.0
141
12.0
290
     0
  0
ACDBSECTIONVIEWSTYLE
  5
69
102
{ACAD_REACTORS
330
68
102
}
330
68
100
AcDbModelDocViewStyle
 70
     0
  3
Imperial24
290
     1
300
Imperial24
 90
        0
100
AcDbSectionViewStyle
 70
     0
 71
     0
 90
       78
 71
     1
340
55
 62
   256
 40
0.24
340
0
340
0
 62
   256
 40
0.24
300
I, O, Q, S, X, Z
 40
0.48
 90
        3
 40
0.18
 90
        1
 71
     2
340
5D
 90
       25
 62
   256
340
5D
 90
       50
 62
   256
 40
0.24
 40
0.0
 40
0.24
 71
     3
340
55
 62
   256
 40
0.24
 90
        1
 40
0.75
 90
        1
300
%<\AcVar ViewType \f "%tc1">% %<\AcVar ViewSectionStartId>%-%<\AcVar ViewSectionEndId>%\PSCALE %<\AcVar ViewScale \f "%sn">%
 71
     4
 62
   256
 62
   257
300
ANSI31
 40
1.0
 90
        0
290
     0
290
     0
 90
        6
 40
0.0
 40
1.570796326794896
 40
0.2617993877991494
 40
1.308996938995747
 40
-0.2617993877991494
 40
1.832595714594046
  0
TABLESTYLE
  5
65
102
{ACAD_XDICTIONARY
360
A1
102
}
102
{ACAD_REACTORS
330
64
102
}
330
64
100
AcDbTableStyle
280
     0
  3
Standard
 70
     0
 71
     0
 40
0.06
 41
0.06
280
     0
281
     0
  7
Standard
140
0.18
170
     2
 62
     0
 63
     7
283
     0
 90
      512
 91
        0
  1

274
    -2
284
     1
 64
     0
275
    -2
285
     1
 65
     0
276
    -2
286
     1
 66
     0
277
    -2
287
     1
 67
     0
278
    -2
288
     1
 68
     0
279
    -2
289
     1
 69
     0
  7
Standard
140
0.25
170
     5
 62
     0
 63
     7
283
     0
 90
      512
 91
        0
  1

274
    -2
284
     1
 64
     0
275
    -2
285
     1
 65
     0
276
    -2
286
     1
 66
     0
277
    -2
287
     1
 67
     0
278
    -2
288
     1
 68
     0
279
    -2
289
     1
 69
     0
  7
Standard
140
0.18
170
     5
 62
     0
 63
     7
283
     0
 90
      512
 91
        0
  1

274
    -2
284
     1
 64
     0
275
    -2
285
     1
 65
     0
276
    -2
286
     1
 66
     0
277
    -2
287
     1
 67
     0
278
    -2
288
     1
 68
     0
279
    -2
289
     1
 69
     0
  0
VISUALSTYLE
  5
2F
102
{ACAD_REACTORS
330
29
102
}
330
29
100
AcDbVisualStyle
  2
2dWireframe
 70
     4
177
     3
291
     0
 70
    58
 90
        0
176
     1
 90
        2
176
     1
 90
        0
176
     1
 90
        0
176
     1
 40
0.6
176
     1
 40
30.0
176
     1
 62
     7
420
 16777215
176
     1
 90
        1
176
     1
 90
        4
176
     1
 62
     7
176
     1
 62
   257
176
     1
 90
        1
176
     1
 90
        1
176
     1
 40
1.0
176
     1
 90
        0
176
     1
 62
   257
176
     1
 40
1.0
176
     1
 90
        1
176
     1
 90
        6
176
     1
 90
        2
176
     1
 62
     7
176
     1
 90
        5
176
     1
 90
        0
176
     1
 90
        0
176
     1
290
     0
176
     1
 90
        1
176
     1
 40
0.0
176
     1
 90
        0
176
     1
290
     1
176
     1
290
     1
176
     1
290
     0
176
     1
290
     0
176
     1
290
     0
176
     1
290
     0
176
     1
290
     0
176
     1
290
     0
176
     1
290
     0
176
     1
 90
       50
176
     1
 40
0.0
176
     1
 40
1.0
176
     1
 90
        0
176
     1
 62
    18
420
        0
176
     1
 90
       50
176
     1
 90
        3
176
     1
 62
     5
420
      255
176
     1
290
     0
176
     1
 90
       50
176
     1
 90
       50
176
     1
 90
       50
176
     1
290
     0
176
     1
 90
       50
176
     1
 62
   256
176
     0
 40
1.0
176
     0
 90
        2
176
     1
  1
strokes_ogs.tif
176
     1
290
     0
176
     1
 40
1.0
176
     1
 40
1.0
176
     1
  0
VISUALSTYLE
  5
2E
102
{ACAD_REACTORS
330
29
102
}
330
29
100
AcDbVisualStyle
  2
Basic
 70
     7
177
     3
291
     1
 70
    58
 90
        1
176
     1
 90
        0
176
     1
 90
        1
176
     1
 90
        0
176
     1
 40
0.6
176
     1
 40
30.0
176
     1
 62
     7
420
 16777215
176
     1
 90
        0
176
     1
 90
        4
176
     1
 62
     7
176
     1
 62
   257
176
     1
 90
        1
176
     1
 90
        1
176
     1
 40
1.0
176
     1
 90
        8
176
     1
 62
     7
176
     1
 40
1.0
176
     1
 90
        1
176
     1
 90
        6
176
     1
 90
        2
176
     1
 62
     7
176
     1
 90
        5
176
     1
 90
        0
176
     1
 90
        0
176
     1
290
     0
176
     1
 90
        1
176
     1
 40
0.0
176
     1
 90
        0
176
     1
290
     0
176
     1
290
     1
176
     1
290
     1
176
     1
290
     0
176
     1
290
     0
176
     1
290
     0
176
     1
290
     0
176
     1
290
     0
176
     1
290
     0
176
     1
 90
       50
176
     1
 40
0.0
176
     1
 40
1.0
176
     1
 90
        0
176
     1
 62
    18
420
        0
176
     1
 90
       50
176
     1
 90
        3
176
     1
 62
     5
420
      255
176
     1
290
     0
176
     1
 90
       50
176
     1
 90
       50
176
     1
 90
       50
176
     1
290
     0
176
     1
 90
       50
176
     1
 62
   256
176
     0
 40
1.0
176
     0
 90
        2
176
     1
  1
strokes_ogs.tif
176
     1
290
     0
176
     1
 40
1.0
176
     1
 40
1.0
176
     1
  0
VISUALSTYLE
  5
35
102
{ACAD_REACTORS
330
29
102
}
330
29
100
AcDbVisualStyle
  2
Brighten
 70
    12
177
     3
291
     1
 70
    58
 90
        2
176
     1
 90
        2
176
     1
 90
        0
176
     1
 90
        0
176
     1
 40
0.6
176
     1
 40
30.0
176
     1
 62
     7
420
 16777215
176
     1
 90
        1
176
     1
 90
        4
176
     1
 62
     7
176
     1
 62
   257
176
     1
 90
        1
176
     1
 90
        1
176
     1
 40
1.0
176
     1
 90
        8
176
     1
 62
     7
176
     1
 40
1.0
176
     1
 90
        1
176
     1
 90
        6
176
     1
 90
        2
176
     1
 62
     7
176
     1
 90
        5
176
     1
 90
        0
176
     1
 90
        0
176
     1
290
     0
176
     1
 90
        1
176
     1
 40
50.0
176
     1
 90
        0
176
     1
290
     0
176
     1
290
     1
176
     1
290
     1
176
     1
290
     0
176
     1
290
     0
176
     1
290
     0
176
     1
290
     0
176
     1
290
     0
176
     1
290
     0
176
     1
 90
       50
176
     1
 40
0.0
176
     1
 40
1.0
176
     1
 90
        0
176
     1
 62
    18
420
        0
176
     1
 90
       50
176
     1
 90
        3
176
     1
 62
     5
420
      255
176
     1
290
     0
176
     1
 90
       50
176
     1
 90
       50
176
     1
 90
       50
176
     1
290
     0
176
     1
 90
       50
176
     1
 62
   256
176
     0
 40
1.0
176
     0
 90
        2
176
     1
  1
strokes_ogs.tif
176
     1
290
     0
176
     1
 40
1.0
176
     1
 40
1.0
176
     1
  0
VISUALSTYLE
  5
39
102
{ACAD_REACTORS
330
29
102
}
330
29
100
AcDbVisualStyle
  2
ColorChange
 70
    16
177
     3
291
     1
 70
    58
 90
        2
176
     1
 90
        2
176
     1
 90
        3
176
     1
 90
        0
176
     1
 40
0.6
176
     1
 40
30.0
176
     1
 62
     8
420
  8421504
176
     1
 90
        1
176
     1
 90
        4
176
     1
 62
     7
176
     1
 62
   257
176
     1
 90
        1
176
     1
 90
        1
176
     1
 40
1.0
176
     1
 90
        8
176
     1
 62
     8
420
  8421504
176
     1
 40
1.0
176
     1
 90
        1
176
     1
 90
        6
176
     1
 90
        2
176
     1
 62
     7
176
     1
 90
        5
176
     1
 90
        0
176
     1
 90
        0
176
     1
290
     0
176
     1
 90
        1
176
     1
 40
0.0
176
     1
 90
        0
176
     1
290
     0
176
     1
290
     1
176
     1
290
     1
176
     1
290
     0
176
     1
290
     0
176
     1
290
     0
176
     1
290
     0
176
     1
290
     0
176
     1
290
     0
176
     1
 90
       50
176
     1
 40
0.0
176
     1
 40
1.0
176
     1
 90
        0
176
     1
 62
    18
420
        0
176
     1
 90
       50
176
     1
 90
        3
176
     1
 62
     5
420
      255
176
     1
290
     0
176
     1
 90
       50
176
     1
 90
       50
176
     1
 90
       50
176
     1
290
     0
176
     1
 90
       50
176
     1
 62
   256
176
     0
 40
1.0
176
     0
 90
        2
176
     1
  1
strokes_ogs.tif
176
     1
290
     0
176
     1
 40
1.0
176
     1
 40
1.0
176
     1
  0
VISUALSTYLE
  5
32
102
{ACAD_REACTORS
330
29
102
}
330
29
100
AcDbVisualStyle
  2
Conceptual
 70
     9
177
     3
291
     0
 70
    58
 90
        3
176
     1
 90
        2
176
     1
 90
        0
176
     1
 90
        0
176
     1
 40
0.6
176
     1
 40
30.0
176
     1
 62
     7
420
 16777215
176
     1
 90
        2
176
     1
 90
        2
176
     1
 62
     7
176
     1
 62
   257
176
     1
 90
        1
176
     1
 90
        1
176
     1
 40
179.0
176
     1
 90
        8
176
     1
 62
     7
176
     1
 40
1.0
176
     1
 90
        1
176
     1
 90
        6
176
     1
 90
        2
176
     1
 62
     7
176
     1
 90
        3
176
     1
 90
        0
176
     1
 90
        0
176
     1
290
     0
176
     1
 90
        1
176
     1
 40
0.0
176
     1
 90
        0
176
     1
290
     0
176
     1
290
     1
176
     1
290
     1
176
     1
290
     0
176
     1
290
     0
176
     1
290
     0
176
     1
290
     0
176
     1
290
     0
176
     1
290
     0
176
     1
 90
       50
176
     1
 40
0.0
176
     1
 40
1.0
176
     1
 90
        0
176
     1
 62
    18
420
        0
176
     1
 90
       50
176
     1
 90
        3
176
     1
 62
     5
420
      255
176
     1
290
     0
176
     1
 90
       50
176
     1
 90
       50
176
     1
 90
       50
176
     1
290
     0
176
     1
 90
       50
176
     1
 62
   256
176
     0
 40
1.0
176
     0
 90
        2
176
     1
  1
strokes_ogs.tif
176
     1
290
     0
176
     1
 40
1.0
176
     1
 40
1.0
176
     1
  0
VISUALSTYLE
  5
34
102
{ACAD_REACTORS
330
29
102
}
330
29
100
AcDbVisualStyle
  2
Dim
 70
    11
177
     3
291
     1
 70
    58
 90
        2
176
     1
 90
        2
176
     1
 90
        0
176
     1
 90
        0
176
     1
 40
0.6
176
     1
 40
30.0
176
     1
 62
     7
420
 16777215
176
     1
 90
        1
176
     1
 90
        4
176
     1
 62
     7
176
     1
 62
   257
176
     1
 90
        1
176
     1
 90
        1
176
     1
 40
1.0
176
     1
 90
        8
176
     1
 62
     7
176
     1
 40
1.0
176
     1
 90
        1
176
     1
 90
        6
176
     1
 90
        2
176
     1
 62
     7
176
     1
 90
        5
176
     1
 90
        0
176
     1
 90
        0
176
     1
290
     0
176
     1
 90
        1
176
     1
 40
-50.0
176
     1
 90
        0
176
     1
290
     0
176
     1
290
     1
176
     1
290
     1
176
     1
290
     0
176
     1
290
     0
176
     1
290
     0
176
     1
290
     0
176
     1
290
     0
176
     1
290
     0
176
     1
 90
       50
176
     1
 40
0.0
176
     1
 40
1.0
176
     1
 90
        0
176
     1
 62
    18
420
        0
176
     1
 90
       50
176
     1
 90
        3
176
     1
 62
     5
420
      255
176
     1
290
     0
176
     1
 90
       50
176
     1
 90
       50
176
     1
 90
       50
176
     1
290
     0
176
     1
 90
       50
176
     1
 62
   256
176
     0
 40
1.0
176
     0
 90
        2
176
     1
  1
strokes_ogs.tif
176
     1
290
     0
176
     1
 40
1.0
176
     1
 40
1.0
176
     1
  0
VISUALSTYLE
  5
41
102
{ACAD_REACTORS
330
29
102
}
330
29
100
AcDbVisualStyle
  2
EdgeColorOff
 70
    22
177
     3
291
     1
 70
    58
 90
        2
176
     0
 90
        2
176
     0
 90
        0
176
     0
 90
        0
176
     0
 40
0.6
176
     0
 40
30.0
176
     0
 62
     7
420
 16777215
176
     0
 90
        1
176
     0
 90
        4
176
     0
 62
     7
176
     0
 62
   257
176
     0
 90
        1
176
     0
 90
        1
176
     0
 40
1.0
176
     0
 90
        8
176
     2
 62
     7
176
     0
 40
1.0
176
     0
 90
        1
176
     0
 90
        6
176
     0
 90
        2
176
     0
 62
     7
176
     0
 90
        5
176
     0
 90
        0
176
     0
 90
        0
176
     0
290
     0
176
     0
 90
        1
176
     0
 40
0.0
176
     0
 90
        0
176
     0
290
     0
176
     0
290
     1
176
     0
290
     1
176
     0
290
     0
176
     0
290
     0
176
     0
290
     0
176
     0
290
     0
176
     0
290
     0
176
     0
290
     0
176
     0
 90
       50
176
     0
 40
0.0
176
     0
 40
1.0
176
     0
 90
        0
176
     0
 62
    18
420
        0
176
     0
 90
       50
176
     0
 90
        3
176
     0
 62
     5
420
      255
176
     0
290
     0
176
     0
 90
       50
176
     0
 90
       50
176
     0
 90
       50
176
     0
290
     0
176
     0
 90
       50
176
     0
 62
   256
176
     0
 40
1.0
176
     0
 90
        2
176
     0
  1
strokes_ogs.tif
176
     0
290
     0
176
     0
 40
1.0
176
     0
 40
1.0
176
     0
  0
VISUALSTYLE
  5
38
102
{ACAD_REACTORS
330
29
102
}
330
29
100
AcDbVisualStyle
  2
Facepattern
 70
    15
177
     3
291
     1
 70
    58
 90
        2
176
     1
 90
        2
176
     1
 90
        0
176
     1
 90
        0
176
     1
 40
0.6
176
     1
 40
30.0
176
     1
 62
     7
420
 16777215
176
     1
 90
        1
176
     1
 90
        4
176
     1
 62
     7
176
     1
 62
   257
176
     1
 90
        1
176
     1
 90
        1
176
     1
 40
1.0
176
     1
 90
        8
176
     1
 62
     7
176
     1
 40
1.0
176
     1
 90
        1
176
     1
 90
        6
176
     1
 90
        2
176
     1
 62
     7
176
     1
 90
        5
176
     1
 90
        0
176
     1
 90
        0
176
     1
290
     0
176
     1
 90
        1
176
     1
 40
0.0
176
     1
 90
        0
176
     1
290
     0
176
     1
290
     1
176
     1
290
     1
176
     1
290
     0
176
     1
290
     0
176
     1
290
     0
176
     1
290
     0
176
     1
290
     0
176
     1
290
     0
176
     1
 90
       50
176
     1
 40
0.0
176
     1
 40
1.0
176
     1
 90
        0
176
     1
 62
    18
420
        0
176
     1
 90
       50
176
     1
 90
        3
176
     1
 62
     5
420
      255
176
     1
290
     0
176
     1
 90
       50
176
     1
 90
       50
176
     1
 90
       50
176
     1
290
     0
176
     1
 90
       50
176
     1
 62
   256
176
     0
 40
1.0
176
     0
 90
        2
176
     1
  1
strokes_ogs.tif
176
     1
290
     0
176
     1
 40
1.0
176
     1
 40
1.0
176
     1
  0
VISUALSTYLE
  5
2A
102
{ACAD_REACTORS
330
29
102
}
330
29
100
AcDbVisualStyle
  2
Flat
 70
     0
177
     3
291
     1
 70
    58
 90
        2
176
     1
 90
        1
176
     1
 90
        1
176
     1
 90
        2
176
     1
 40
0.6
176
     1
 40
30.0
176
     1
 62
     7
420
 16777215
176
     1
 90
        0
176
     1
 90
        0
176
     1
 62
     7
176
     1
 62
   257
176
     1
 90
        1
176
     1
 90
        1
176
     1
 40
1.0
176
     1
 90
        8
176
     1
 62
     7
176
     1
 40
1.0
176
     1
 90
        1
176
     1
 90
        6
176
     1
 90
        2
176
     1
 62
     7
176
     1
 90
        5
176
     1
 90
        0
176
     1
 90
        0
176
     1
290
     0
176
     1
 90
       13
176
     1
 40
0.0
176
     1
 90
        0
176
     1
290
     0
176
     1
290
     1
176
     1
290
     1
176
     1
290
     0
176
     1
290
     0
176
     1
290
     0
176
     1
290
     0
176
     1
290
     0
176
     1
290
     0
176
     1
 90
       50
176
     1
 40
0.0
176
     1
 40
1.0
176
     1
 90
        0
176
     1
 62
    18
420
        0
176
     1
 90
       50
176
     1
 90
        3
176
     1
 62
     5
420
      255
176
     1
290
     0
176
     1
 90
       50
176
     1
 90
       50
176
     1
 90
       50
176
     1
290
     0
176
     1
 90
       50
176
     1
 62
   256
176
     0
 40
1.0
176
     0
 90
        2
176
     1
  1
strokes_ogs.tif
176
     1
290
     0
176
     1
 40
1.0
176
     1
 40
1.0
176
     1
  0
VISUALSTYLE
  5
2B
102
{ACAD_REACTORS
330
29
102
}
330
29
100
AcDbVisualStyle
  2
FlatWithEdges
 70
     1
177
     3
291
     1
 70
    58
 90
        2
176
     1
 90
        1
176
     1
 90
        1
176
     1
 90
        2
176
     1
 40
0.6
176
     1
 40
30.0
176
     1
 62
     7
420
 16777215
176
     1
 90
        1
176
     1
 90
        0
176
     1
 62
     7
176
     1
 62
   257
176
     1
 90
        1
176
     1
 90
        1
176
     1
 40
1.0
176
     1
 90
        0
176
     1
 62
   257
176
     1
 40
1.0
176
     1
 90
        1
176
     1
 90
        6
176
     1
 90
        2
176
     1
 62
     7
176
     1
 90
        5
176
     1
 90
        0
176
     1
 90
        0
176
     1
290
     0
176
     1
 90
       13
176
     1
 40
0.0
176
     1
 90
        0
176
     1
290
     0
176
     1
290
     1
176
     1
290
     1
176
     1
290
     0
176
     1
290
     0
176
     1
290
     0
176
     1
290
     0
176
     1
290
     0
176
     1
290
     0
176
     1
 90
       50
176
     1
 40
0.0
176
     1
 40
1.0
176
     1
 90
        0
176
     1
 62
    18
420
        0
176
     1
 90
       50
176
     1
 90
        3
176
     1
 62
     5
420
      255
176
     1
290
     0
176
     1
 90
       50
176
     1
 90
       50
176
     1
 90
       50
176
     1
290
     0
176
     1
 90
       50
176
     1
 62
   256
176
     0
 40
1.0
176
     0
 90
        2
176
     1
  1
strokes_ogs.tif
176
     1
290
     0
176
     1
 40
1.0
176
     1
 40
1.0
176
     1
  0
VISUALSTYLE
  5
2C
102
{ACAD_REACTORS
330
29
102
}
330
29
100
AcDbVisualStyle
  2
Gouraud
 70
     2
177
     3
291
     1
 70
    58
 90
        2
176
     1
 90
        2
176
     1
 90
        1
176
     1
 90
        2
176
     1
 40
0.6
176
     1
 40
30.0
176
     1
 62
     7
420
 16777215
176
     1
 90
        0
176
     1
 90
        0
176
     1
 62
     7
176
     1
 62
   257
176
     1
 90
        1
176
     1
 90
        1
176
     1
 40
1.0
176
     1
 90
        0
176
     1
 62
     7
176
     1
 40
1.0
176
     1
 90
        1
176
     1
 90
        6
176
     1
 90
        2
176
     1
 62
     7
176
     1
 90
        5
176
     1
 90
        0
176
     1
 90
        0
176
     1
290
     0
176
     1
 90
       13
176
     1
 40
0.0
176
     1
 90
        0
176
     1
290
     0
176
     1
290
     1
176
     1
290
     1
176
     1
290
     0
176
     1
290
     0
176
     1
290
     0
176
     1
290
     0
176
     1
290
     0
176
     1
290
     0
176
     1
 90
       50
176
     1
 40
0.0
176
     1
 40
1.0
176
     1
 90
        0
176
     1
 62
    18
420
        0
176
     1
 90
       50
176
     1
 90
        3
176
     1
 62
     5
420
      255
176
     1
290
     0
176
     1
 90
       50
176
     1
 90
       50
176
     1
 90
       50
176
     1
290
     0
176
     1
 90
       50
176
     1
 62
   256
176
     0
 40
1.0
176
     0
 90
        2
176
     1
  1
strokes_ogs.tif
176
     1
290
     0
176
     1
 40
1.0
176
     1
 40
1.0
176
     1
  0
VISUALSTYLE
  5
2D
102
{ACAD_REACTORS
330
29
102
}
330
29
100
AcDbVisualStyle
  2
GouraudWithEdges
 70
     3
177
     3
291
     1
 70
    58
 90
        2
176
     1
 90
        2
176
     1
 90
        1
176
     1
 90
        2
176
     1
 40
0.6
176
     1
 40
30.0
176
     1
 62
     7
420
 16777215
176
     1
 90
        1
176
     1
 90
        0
176
     1
 62
     7
176
     1
 62
   257
176
     1
 90
        1
176
     1
 90
        1
176
     1
 40
1.0
176
     1
 90
        0
176
     1
 62
   257
176
     1
 40
1.0
176
     1
 90
        1
176
     1
 90
        6
176
     1
 90
        2
176
     1
 62
     7
176
     1
 90
        5
176
     1
 90
        0
176
     1
 90
        0
176
     1
290
     0
176
     1
 90
       13
176
     1
 40
0.0
176
     1
 90
        0
176
     1
290
     0
176
     1
290
     1
176
     1
290
     1
176
     1
290
     0
176
     1
290
     0
176
     1
290
     0
176
     1
290
     0
176
     1
290
     0
176
     1
290
     0
176
     1
 90
       50
176
     1
 40
0.0
176
     1
 40
1.0
176
     1
 90
        0
176
     1
 62
    18
420
        0
176
     1
 90
       50
176
     1
 90
        3
176
     1
 62
     5
420
      255
176
     1
290
     0
176
     1
 90
       50
176
     1
 90
       50
176
     1
 90
       50
176
     1
290
     0
176
     1
 90
       50
176
     1
 62
   256
176
     0
 40
1.0
176
     0
 90
        2
176
     1
  1
strokes_ogs.tif
176
     1
290
     0
176
     1
 40
1.0
176
     1
 40
1.0
176
     1
  0
VISUALSTYLE
  5
31
102
{ACAD_REACTORS
330
29
102
}
330
29
100
AcDbVisualStyle
  2
Hidden
 70
     6
177
     3
291
     0
 70
    58
 90
        1
176
     1
 90
        2
176
     1
 90
        2
176
     1
 90
        0
176
     1
 40
0.6
176
     1
 40
30.0
176
     1
 62
     7
420
 16777215
176
     1
 90
        2
176
     1
 90
        2
176
     1
 62
     7
176
     1
 62
   257
176
     1
 90
        2
176
     1
 90
        1
176
     1
 40
40.0
176
     1
 90
        0
176
     1
 62
   257
176
     1
 40
1.0
176
     1
 90
        1
176
     1
 90
        6
176
     1
 90
        2
176
     1
 62
     7
176
     1
 90
        3
176
     1
 90
        0
176
     1
 90
        0
176
     1
290
     0
176
     1
 90
        1
176
     1
 40
0.0
176
     1
 90
        0
176
     1
290
     0
176
     1
290
     1
176
     1
290
     1
176
     1
290
     0
176
     1
290
     0
176
     1
290
     0
176
     1
290
     0
176
     1
290
     0
176
     1
290
     0
176
     1
 90
       50
176
     1
 40
0.0
176
     1
 40
1.0
176
     1
 90
        0
176
     1
 62
    18
420
        0
176
     1
 90
       50
176
     1
 90
        3
176
     1
 62
     5
420
      255
176
     1
290
     0
176
     1
 90
       50
176
     1
 90
       50
176
     1
 90
       50
176
     1
290
     0
176
     1
 90
       50
176
     1
 62
   256
176
     0
 40
1.0
176
     0
 90
        2
176
     1
  1
strokes_ogs.tif
176
     1
290
     0
176
     1
 40
1.0
176
     1
 40
1.0
176
     1
  0
VISUALSTYLE
  5
3F
102
{ACAD_REACTORS
330
29
102
}
330
29
100
AcDbVisualStyle
  2
JitterOff
 70
    20
177
     3
291
     1
 70
    58
 90
        2
176
     0
 90
        2
176
     0
 90
        0
176
     0
 90
        0
176
     0
 40
0.6
176
     0
 40
30.0
176
     0
 62
     7
420
 16777215
176
     0
 90
        1
176
     0
 90
        4
176
     0
 62
     7
176
     0
 62
   257
176
     0
 90
        1
176
     0
 90
        1
176
     0
 40
1.0
176
     0
 90
       10
176
     2
 62
     7
176
     0
 40
1.0
176
     0
 90
        1
176
     0
 90
        6
176
     0
 90
        2
176
     0
 62
     7
176
     0
 90
        5
176
     0
 90
        0
176
     0
 90
        0
176
     0
290
     0
176
     0
 90
        1
176
     0
 40
0.0
176
     0
 90
        0
176
     0
290
     0
176
     0
290
     1
176
     0
290
     1
176
     0
290
     0
176
     0
290
     0
176
     0
290
     0
176
     0
290
     0
176
     0
290
     0
176
     0
290
     0
176
     0
 90
       50
176
     0
 40
0.0
176
     0
 40
1.0
176
     0
 90
        0
176
     0
 62
    18
420
        0
176
     0
 90
       50
176
     0
 90
        3
176
     0
 62
     5
420
      255
176
     0
290
     0
176
     0
 90
       50
176
     0
 90
       50
176
     0
 90
       50
176
     0
290
     0
176
     0
 90
       50
176
     0
 62
   256
176
     0
 40
1.0
176
     0
 90
        2
176
     0
  1
strokes_ogs.tif
176
     0
290
     0
176
     0
 40
1.0
176
     0
 40
1.0
176
     0
  0
VISUALSTYLE
  5
37
102
{ACAD_REACTORS
330
29
102
}
330
29
100
AcDbVisualStyle
  2
Linepattern
 70
    14
177
     3
291
     1
 70
    58
 90
        2
176
     1
 90
        2
176
     1
 90
        0
176
     1
 90
        0
176
     1
 40
0.6
176
     1
 40
30.0
176
     1
 62
     7
420
 16777215
176
     1
 90
        1
176
     1
 90
        4
176
     1
 62
     7
176
     1
 62
   257
176
     1
 90
        7
176
     1
 90
        7
176
     1
 40
1.0
176
     1
 90
        8
176
     1
 62
     7
176
     1
 40
1.0
176
     1
 90
        1
176
     1
 90
        6
176
     1
 90
        2
176
     1
 62
     7
176
     1
 90
        5
176
     1
 90
        0
176
     1
 90
        0
176
     1
290
     0
176
     1
 90
        1
176
     1
 40
0.0
176
     1
 90
        0
176
     1
290
     0
176
     1
290
     1
176
     1
290
     1
176
     1
290
     0
176
     1
290
     0
176
     1
290
     0
176
     1
290
     0
176
     1
290
     0
176
     1
290
     0
176
     1
 90
       50
176
     1
 40
0.0
176
     1
 40
1.0
176
     1
 90
        0
176
     1
 62
    18
420
        0
176
     1
 90
       50
176
     1
 90
        3
176
     1
 62
     5
420
      255
176
     1
290
     0
176
     1
 90
       50
176
     1
 90
       50
176
     1
 90
       50
176
     1
290
     0
176
     1
 90
       50
176
     1
 62
   256
176
     0
 40
1.0
176
     0
 90
        2
176
     1
  1
strokes_ogs.tif
176
     1
290
     0
176
     1
 40
1.0
176
     1
 40
1.0
176
     1
  0
VISUALSTYLE
  5
40
102
{ACAD_REACTORS
330
29
102
}
330
29
100
AcDbVisualStyle
  2
OverhangOff
 70
    21
177
     3
291
     1
 70
    58
 90
        2
176
     0
 90
        2
176
     0
 90
        0
176
     0
 90
        0
176
     0
 40
0.6
176
     0
 40
30.0
176
     0
 62
     7
420
 16777215
176
     0
 90
        1
176
     0
 90
        4
176
     0
 62
     7
176
     0
 62
   257
176
     0
 90
        1
176
     0
 90
        1
176
     0
 40
1.0
176
     0
 90
        9
176
     2
 62
     7
176
     0
 40
1.0
176
     0
 90
        1
176
     0
 90
        6
176
     0
 90
        2
176
     0
 62
     7
176
     0
 90
        5
176
     0
 90
        0
176
     0
 90
        0
176
     0
290
     0
176
     0
 90
        1
176
     0
 40
0.0
176
     0
 90
        0
176
     0
290
     0
176
     0
290
     1
176
     0
290
     1
176
     0
290
     0
176
     0
290
     0
176
     0
290
     0
176
     0
290
     0
176
     0
290
     0
176
     0
290
     0
176
     0
 90
       50
176
     0
 40
0.0
176
     0
 40
1.0
176
     0
 90
        0
176
     0
 62
    18
420
        0
176
     0
 90
       50
176
     0
 90
        3
176
     0
 62
     5
420
      255
176
     0
290
     0
176
     0
 90
       50
176
     0
 90
       50
176
     0
 90
       50
176
     0
290
     0
176
     0
 90
       50
176
     0
 62
   256
176
     0
 40
1.0
176
     0
 90
        2
176
     0
  1
strokes_ogs.tif
176
     0
290
     0
176
     0
 40
1.0
176
     0
 40
1.0
176
     0
  0
VISUALSTYLE
  5
33
102
{ACAD_REACTORS
330
29
102
}
330
29
100
AcDbVisualStyle
  2
Realistic
 70
     8
177
     3
291
     0
 70
    58
 90
        2
176
     1
 90
        3
176
     1
 90
        0
176
     1
 90
        2
176
     1
 40
0.6
176
     1
 40
30.0
176
     1
 62
     7
420
 16777215
176
     1
 90
        0
176
     1
 90
        0
176
     1
 62
     7
176
     1
 62
   257
176
     1
 90
        1
176
     1
 90
        1
176
     1
 40
1.0
176
     1
 90
        8
176
     1
 62
   257
176
     1
 40
1.0
176
     1
 90
        1
176
     1
 90
        6
176
     1
 90
        2
176
     1
 62
     7
176
     1
 90
        3
176
     1
 90
        0
176
     1
 90
        0
176
     1
290
     0
176
     1
 90
       13
176
     1
 40
0.0
176
     1
 90
        0
176
     1
290
     0
176
     1
290
     1
176
     1
290
     1
176
     1
290
     0
176
     1
290
     0
176
     1
290
     0
176
     1
290
     0
176
     1
290
     0
176
     1
290
     0
176
     1
 90
       50
176
     1
 40
0.0
176
     1
 40
1.0
176
     1
 90
        0
176
     1
 62
    18
420
        0
176
     1
 90
       50
176
     1
 90
        3
176
     1
 62
     5
420
      255
176
     1
290
     0
176
     1
 90
       50
176
     1
 90
       50
176
     1
 90
       50
176
     1
290
     0
176
     1
 90
       50
176
     1
 62
   256
176
     0
 40
1.0
176
     0
 90
        2
176
     1
  1
strokes_ogs.tif
176
     1
290
     0
176
     1
 40
1.0
176
     1
 40
1.0
176
     1
  0
VISUALSTYLE
  5
3E
102
{ACAD_REACTORS
330
29
102
}
330
29
100
AcDbVisualStyle
  2
Shaded
 70
    27
177
     3
291
     0
 70
    58
 90
        2
176
     1
 90
        2
176
     1
 90
        1
176
     1
 90
        2
176
     1
 40
0.6
176
     1
 40
30.0
176
     1
 62
     7
420
 16777215
176
     1
 90
        0
176
     1
 90
        4
176
     1
 62
     7
176
     1
 62
   257
176
     1
 90
        1
176
     1
 90
        1
176
     1
 40
1.0
176
     1
 90
        8
176
     1
 62
   257
176
     1
 40
1.0
176
     1
 90
        1
176
     1
 90
        6
176
     1
 90
        2
176
     1
 62
     8
420
  7895160
176
     1
 90
        3
176
     1
 90
        0
176
     1
 90
        0
176
     1
290
     0
176
     1
 90
        5
176
     1
 40
0.0
176
     1
 90
        0
176
     1
290
     0
176
     1
290
     1
176
     1
290
     1
176
     1
290
     0
176
     1
290
     0
176
     1
290
     0
176
     1
290
     0
176
     1
290
     0
176
     1
290
     0
176
     1
 90
       50
176
     1
 40
0.0
176
     1
 40
1.0
176
     1
 90
        0
176
     1
 62
    18
420
        0
176
     1
 90
       50
176
     1
 90
        3
176
     1
 62
     5
420
      255
176
     1
290
     0
176
     1
 90
       50
176
     1
 90
       50
176
     1
 90
       50
176
     1
290
     0
176
     1
 90
       50
176
     1
 62
   256
176
     0
 40
1.0
176
     0
 90
        2
176
     1
  1
strokes_ogs.tif
176
     1
290
     0
176
     1
 40
1.0
176
     1
 40
1.0
176
     1
  0
VISUALSTYLE
  5
3D
102
{ACAD_REACTORS
330
29
102
}
330
29
100
AcDbVisualStyle
  2
Shaded with edges
 70
    26
177
     3
291
     0
 70
    58
 90
        2
176
     1
 90
        2
176
     1
 90
        1
176
     1
 90
        2
176
     1
 40
0.6
176
     1
 40
30.0
176
     1
 62
     7
420
 16777215
176
     1
 90
        1
176
     1
 90
        2
176
     1
 62
     7
176
     1
 62
   257
176
     1
 90
        2
176
     1
 90
        1
176
     1
 40
1.0
176
     1
 90
        8
176
     1
 62
   257
176
     1
 40
1.0
176
     1
 90
        1
176
     1
 90
        6
176
     1
 90
        2
176
     1
 62
     7
176
     1
 90
        3
176
     1
 90
        0
176
     1
 90
        0
176
     1
290
     0
176
     1
 90
        5
176
     1
 40
0.0
176
     1
 90
        0
176
     1
290
     0
176
     1
290
     1
176
     1
290
     1
176
     1
290
     0
176
     1
290
     0
176
     1
290
     0
176
     1
290
     0
176
     1
290
     0
176
     1
290
     0
176
     1
 90
       50
176
     1
 40
0.0
176
     1
 40
1.0
176
     1
 90
        0
176
     1
 62
    18
420
        0
176
     1
 90
       50
176
     1
 90
        3
176
     1
 62
     5
420
      255
176
     1
290
     0
176
     1
 90
       50
176
     1
 90
       50
176
     1
 90
       50
176
     1
290
     0
176
     1
 90
       50
176
     1
 62
   256
176
     0
 40
1.0
176
     0
 90
        2
176
     1
  1
strokes_ogs.tif
176
     1
290
     0
176
     1
 40
1.0
176
     1
 40
1.0
176
     1
  0
VISUALSTYLE
  5
3A
102
{ACAD_REACTORS
330
29
102
}
330
29
100
AcDbVisualStyle
  2
Shades of Gray
 70
    23
177
     3
291
     0
 70
    58
 90
        2
176
     1
 90
        2
176
     1
 90
        3
176
     1
 90
        0
176
     1
 40
0.6
176
     1
 40
30.0
176
     1
 62
     7
420
 16777215
176
     1
 90
        2
176
     1
 90
        2
176
     1
 62
     7
176
     1
 62
     7
176
     1
 90
        1
176
     1
 90
        1
176
     1
 40
40.0
176
     1
 90
        8
176
     1
 62
     7
176
     1
 40
1.0
176
     1
 90
        1
176
     1
 90
        6
176
     1
 90
        2
176
     1
 62
     7
176
     1
 90
        3
176
     1
 90
        0
176
     1
 90
        0
176
     1
290
     0
176
     1
 90
        1
176
     1
 40
0.0
176
     1
 90
        0
176
     1
290
     0
176
     1
290
     1
176
     1
290
     1
176
     1
290
     0
176
     1
290
     0
176
     1
290
     0
176
     1
290
     0
176
     1
290
     0
176
     1
290
     0
176
     1
 90
       50
176
     1
 40
0.0
176
     1
 40
1.0
176
     1
 90
        0
176
     1
 62
    18
420
        0
176
     1
 90
       50
176
     1
 90
        3
176
     1
 62
     5
420
      255
176
     1
290
     0
176
     1
 90
       50
176
     1
 90
       50
176
     1
 90
       50
176
     1
290
     0
176
     1
 90
       50
176
     1
 62
   256
176
     0
 40
1.0
176
     0
 90
        2
176
     1
  1
strokes_ogs.tif
176
     1
290
     0
176
     1
 40
1.0
176
     1
 40
1.0
176
     1
  0
VISUALSTYLE
  5
3B
102
{ACAD_REACTORS
330
29
102
}
330
29
100
AcDbVisualStyle
  2
Sketchy
 70
    24
177
     3
291
     0
 70
    58
 90
        1
176
     1
 90
        2
176
     1
 90
        2
176
     1
 90
        0
176
     1
 40
0.6
176
     1
 40
30.0
176
     1
 62
     7
420
 16777215
176
     1
 90
        2
176
     1
 90
        2
176
     1
 62
     7
176
     1
 62
     7
176
     1
 90
        1
176
     1
 90
        1
176
     1
 40
40.0
176
     1
 90
       11
176
     1
 62
     7
176
     1
 40
1.0
176
     1
 90
        1
176
     1
 90
        6
176
     1
 90
        2
176
     1
 62
     7
176
     1
 90
        6
176
     1
 90
        0
176
     1
 90
        0
176
     1
290
     0
176
     1
 90
        1
176
     1
 40
0.0
176
     1
 90
        0
176
     1
290
     0
176
     1
290
     1
176
     1
290
     1
176
     1
290
     0
176
     1
290
     0
176
     1
290
     0
176
     1
290
     0
176
     1
290
     0
176
     1
290
     0
176
     1
 90
       50
176
     1
 40
0.0
176
     1
 40
1.0
176
     1
 90
        0
176
     1
 62
    18
420
        0
176
     1
 90
       50
176
     1
 90
        3
176
     1
 62
     5
420
      255
176
     1
290
     0
176
     1
 90
       50
176
     1
 90
       50
176
     1
 90
       50
176
     1
290
     0
176
     1
 90
       50
176
     1
 62
   256
176
     0
 40
1.0
176
     0
 90
        2
176
     1
  1
strokes_ogs.tif
176
     1
290
     0
176
     1
 40
1.0
176
     1
 40
1.0
176
     1
  0
VISUALSTYLE
  5
36
102
{ACAD_REACTORS
330
29
102
}
330
29
100
AcDbVisualStyle
  2
Thicken
 70
    13
177
     3
291
     1
 70
    58
 90
        2
176
     1
 90
        2
176
     1
 90
        0
176
     1
 90
        0
176
     1
 40
0.6
176
     1
 40
30.0
176
     1
 62
     7
420
 16777215
176
     1
 90
        1
176
     1
 90
        4
176
     1
 62
     7
176
     1
 62
   257
176
     1
 90
        1
176
     1
 90
        1
176
     1
 40
1.0
176
     1
 90
       12
176
     1
 62
     7
176
     1
 40
1.0
176
     1
 90
        1
176
     1
 90
        6
176
     1
 90
        2
176
     1
 62
     7
176
     1
 90
        5
176
     1
 90
        0
176
     1
 90
        0
176
     1
290
     0
176
     1
 90
        1
176
     1
 40
0.0
176
     1
 90
        0
176
     1
290
     0
176
     1
290
     1
176
     1
290
     1
176
     1
290
     0
176
     1
290
     0
176
     1
290
     0
176
     1
290
     0
176
     1
290
     0
176
     1
290
     0
176
     1
 90
       50
176
     1
 40
0.0
176
     1
 40
1.0
176
     1
 90
        0
176
     1
 62
    18
420
        0
176
     1
 90
       50
176
     1
 90
        3
176
     1
 62
     5
420
      255
176
     1
290
     0
176
     1
 90
       50
176
     1
 90
       50
176
     1
 90
       50
176
     1
290
     0
176
     1
 90
       50
176
     1
 62
   256
176
     0
 40
1.0
176
     0
 90
        2
176
     1
  1
strokes_ogs.tif
176
     1
290
     0
176
     1
 40
1.0
176
     1
 40
1.0
176
     1
  0
VISUALSTYLE
  5
30
102
{ACAD_REACTORS
330
29
102
}
330
29
100
AcDbVisualStyle
  2
Wireframe
 70
     5
177
     3
291
     0
 70
    58
 90
        0
176
     1
 90
        2
176
     1
 90
        0
176
     1
 90
        0
176
     1
 40
0.6
176
     1
 40
30.0
176
     1
 62
     7
420
 16777215
176
     1
 90
        1
176
     1
 90
        4
176
     1
 62
     7
176
     1
 62
   257
176
     1
 90
        1
176
     1
 90
        1
176
     1
 40
1.0
176
     1
 90
        0
176
     1
 62
   257
176
     1
 40
1.0
176
     1
 90
        1
176
     1
 90
        6
176
     1
 90
        2
176
     1
 62
     7
176
     1
 90
        3
176
     1
 90
        0
176
     1
 90
        0
176
     1
290
     0
176
     1
 90
        1
176
     1
 40
0.0
176
     1
 90
        0
176
     1
290
     0
176
     1
290
     1
176
     1
290
     1
176
     1
290
     0
176
     1
290
     0
176
     1
290
     0
176
     1
290
     0
176
     1
290
     0
176
     1
290
     0
176
     1
 90
       50
176
     1
 40
0.0
176
     1
 40
1.0
176
     1
 90
        0
176
     1
 62
    18
420
        0
176
     1
 90
       50
176
     1
 90
        3
176
     1
 62
     5
420
      255
176
     1
290
     0
176
     1
 90
       50
176
     1
 90
       50
176
     1
 90
       50
176
     1
290
     0
176
     1
 90
       50
176
     1
 62
   256
176
     0
 40
1.0
176
     0
 90
        2
176
     1
  1
strokes_ogs.tif
176
     1
290
     0
176
     1
 40
1.0
176
     1
 40
1.0
176
     1
  0
VISUALSTYLE
  5
3C
102
{ACAD_REACTORS
330
29
102
}
330
29
100
AcDbVisualStyle
  2
X-Ray
 70
    25
177
     3
291
     0
 70
    58
 90
        2
176
     1
 90
        2
176
     1
 90
        1
176
     1
 90
        1
176
     1
 40
0.5
176
     1
 40
30.0
176
     1
 62
     7
420
 16777215
176
     1
 90
        1
176
     1
 90
        0
176
     1
 62
     7
176
     1
 62
   257
176
     1
 90
        1
176
     1
 90
        1
176
     1
 40
1.0
176
     1
 90
        8
176
     1
 62
     7
176
     1
 40
1.0
176
     1
 90
        1
176
     1
 90
        6
176
     1
 90
        2
176
     1
 62
     7
176
     1
 90
        3
176
     1
 90
        0
176
     1
 90
        0
176
     1
290
     0
176
     1
 90
       13
176
     1
 40
0.0
176
     1
 90
        0
176
     1
290
     0
176
     1
290
     1
176
     1
290
     1
176
     1
290
     0
176
     1
290
     0
176
     1
290
     0
176
     1
290
     0
176
     1
290
     0
176
     1
290
     0
176
     1
 90
       50
176
     1
 40
0.0
176
     1
 40
1.0
176
     1
 90
        0
176
     1
 62
    18
420
        0
176
     1
 90
       50
176
     1
 90
        3
176
     1
 62
     5
420
      255
176
     1
290
     0
176
     1
 90
       50
176
     1
 90
       50
176
     1
 90
       50
176
     1
290
     0
176
     1
 90
       50
176
     1
 62
   256
176
     0
 40
1.0
176
     0
 90
        2
176
     1
  1
strokes_ogs.tif
176
     1
290
     0
176
     1
 40
1.0
176
     1
 40
1.0
176
     1
  0
DICTIONARYVAR
  5
A0
102
{ACAD_REACTORS
330
9B
102
}
330
9B
100
DictionaryVariables
280
     0
  1
1:1
  0
DICTIONARYVAR
  5
9D
102
{ACAD_REACTORS
330
9B
102
}
330
9B
100
DictionaryVariables
280
     0
  1
STANDARD
  0
DICTIONARYVAR
  5
9C
102
{ACAD_REACTORS
330
9B
102
}
330
9B
100
DictionaryVariables
280
     0
  1
STANDARD
  0
DICTIONARYVAR
  5
9E
102
{ACAD_REACTORS
330
9B
102
}
330
9B
100
DictionaryVariables
280
     0
  1
Imperial24
  0
DICTIONARYVAR
  5
9F
102
{ACAD_REACTORS
330
9B
102
}
330
9B
100
DictionaryVariables
280
     0
  1
Imperial24
  0
DICTIONARY
  5
1A
330
19
100
AcDbDictionary
280
     1
281
     1
  3
BUMPTILE
360
1C
  3
DIFFUSETILE
360
1B
  3
OPACITYTILE
360
1F
  3
REFLECTIONTILE
360
1E
  3
REFRACTIONTILE
360
20
  3
SPECULARTILE
360
1D
  0
DICTIONARY
  5
12
330
11
100
AcDbDictionary
280
     1
281
     1
  3
BUMPTILE
360
14
  3
DIFFUSETILE
360
13
  3
OPACITYTILE
360
17
  3
REFLECTIONTILE
360
16
  3
REFRACTIONTILE
360
18
  3
SPECULARTILE
360
15
  0
DICTIONARY
  5
22
330
21
100
AcDbDictionary
280
     1
281
     1
  3
BUMPTILE
360
24
  3
DIFFUSETILE
360
23
  3
OPACITYTILE
360
27
  3
REFLECTIONTILE
360
26
  3
REFRACTIONTILE
360
28
  3
SPECULARTILE
360
25
  0
DICTIONARY
  5
A1
330
65
100
AcDbDictionary
280
     1
281
     1
  3
ACAD_ROUNDTRIP_2008_TABLESTYLE_CELLSTYLEMAP
360
A2
  0
XRECORD
  5
1C
102
{ACAD_REACTORS
330
1A
102
}
330
1A
100
AcDbXrecord
280
     1
270
     1
271
     1
  0
XRECORD
  5
1B
102
{ACAD_REACTORS
330
1A
102
}
330
1A
100
AcDbXrecord
280
     1
270
     1
271
     1
  0
XRECORD
  5
1F
102
{ACAD_REACTORS
330
1A
102
}
330
1A
100
AcDbXrecord
280
     1
270
     1
271
     1
  0
XRECORD
  5
1E
102
{ACAD_REACTORS
330
1A
102
}
330
1A
100
AcDbXrecord
280
     1
270
     1
271
     1
  0
XRECORD
  5
20
102
{ACAD_REACTORS
330
1A
102
}
330
1A
100
AcDbXrecord
280
     1
270
     1
271
     1
  0
XRECORD
  5
1D
102
{ACAD_REACTORS
330
1A
102
}
330
1A
100
AcDbXrecord
280
     1
270
     1
271
     1
  0
XRECORD
  5
14
102
{ACAD_REACTORS
330
12
102
}
330
12
100
AcDbXrecord
280
     1
270
     1
271
     1
  0
XRECORD
  5
13
102
{ACAD_REACTORS
330
12
102
}
330
12
100
AcDbXrecord
280
     1
270
     1
271
     1
  0
XRECORD
  5
17
102
{ACAD_REACTORS
330
12
102
}
330
12
100
AcDbXrecord
280
     1
270
     1
271
     1
  0
XRECORD
  5
16
102
{ACAD_REACTORS
330
12
102
}
330
12
100
AcDbXrecord
280
     1
270
     1
271
     1
  0
XRECORD
  5
18
102
{ACAD_REACTORS
330
12
102
}
330
12
100
AcDbXrecord
280
     1
270
     1
271
     1
  0
XRECORD
  5
15
102
{ACAD_REACTORS
330
12
102
}
330
12
100
AcDbXrecord
280
     1
270
     1
271
     1
  0
XRECORD
  5
24
102
{ACAD_REACTORS
330
22
102
}
330
22
100
AcDbXrecord
280
     1
270
     1
271
     1
  0
XRECORD
  5
23
102
{ACAD_REACTORS
330
22
102
}
330
22
100
AcDbXrecord
280
     1
270
     1
271
     1
  0
XRECORD
  5
27
102
{ACAD_REACTORS
330
22
102
}
330
22
100
AcDbXrecord
280
     1
270
     1
271
     1
  0
XRECORD
  5
26
102
{ACAD_REACTORS
330
22
102
}
330
22
100
AcDbXrecord
280
     1
270
     1
271
     1
  0
XRECORD
  5
28
102
{ACAD_REACTORS
330
22
102
}
330
22
100
AcDbXrecord
280
     1
270
     1
271
     1
  0
XRECORD
  5
25
102
{ACAD_REACTORS
330
22
102
}
330
22
100
AcDbXrecord
280
     1
270
     1
271
     1
  0
CELLSTYLEMAP
  5
A2
102
{ACAD_REACTORS
330
A1
102
}
330
A1
100
AcDbCellStyleMap
 90
        3
300
CELLSTYLE
  1
TABLEFORMAT_BEGIN
 90
        5
170
     1
 91
        0
 92
    32768
 62
   257
 93
        1
300
CONTENTFORMAT
  1
CONTENTFORMAT_BEGIN
 90
        0
 91
        0
 92
      512
 93
        0
300

 40
0.0
140
1.0
 94
        5
 62
     0
340
55
144
0.25
309
CONTENTFORMAT_END
171
     0
 94
        0
309
TABLEFORMAT_END
  1
CELLSTYLE_BEGIN
 90
        1
 91
        1
300
_TITLE
309
CELLSTYLE_END
300
CELLSTYLE
  1
TABLEFORMAT_BEGIN
 90
        5
170
     1
 91
        0
 92
        0
 62
   257
 93
        1
300
CONTENTFORMAT
  1
CONTENTFORMAT_BEGIN
 90
        0
 91
        0
 92
      512
 93
        0
300

 40
0.0
140
1.0
 94
        5
 62
     0
340
55
144
0.18
309
CONTENTFORMAT_END
171
     0
 94
        0
309
TABLEFORMAT_END
  1
CELLSTYLE_BEGIN
 90
        2
 91
        1
300
_HEADER
309
CELLSTYLE_END
300
CELLSTYLE
  1
TABLEFORMAT_BEGIN
 90
        5
170
     1
 91
        0
 92
        0
 62
   257
 93
        1
300
CONTENTFORMAT
  1
CONTENTFORMAT_BEGIN
 90
        0
 91
        0
 92
      512
 93
        0
300

 40
0.0
140
1.0
 94
        2
 62
     0
340
55
144
0.18
309
CONTENTFORMAT_END
171
     0
 94
        0
309
TABLEFORMAT_END
  1
CELLSTYLE_BEGIN
 90
        3
 91
        2
300
_DATA
309
CELLSTYLE_END
  0
ENDSEC
  0
EOF
