%TF.GenerationSoftware,KiCad,Pcbnew,7.0.6*%
%TF.CreationDate,2023-12-03T00:16:16-05:00*%
%TF.ProjectId,dual-stagger-cutiepie-plate,6475616c-2d73-4746-9167-6765722d6375,rev?*%
%TF.SameCoordinates,PX2fb0968PY80063eb*%
%TF.FileFunction,Legend,Bot*%
%TF.FilePolarity,Positive*%
%FSLAX46Y46*%
G04 Gerber Fmt 4.6, Leading zero omitted, Abs format (unit mm)*
G04 Created by KiCad (PCBNEW 7.0.6) date 2023-12-03 00:16:16*
%MOMM*%
%LPD*%
G01*
G04 APERTURE LIST*
%ADD10C,0.150000*%
G04 APERTURE END LIST*
D10*
X195235812Y7976292D02*
X195235812Y7262007D01*
X195235812Y7262007D02*
X195283431Y7119150D01*
X195283431Y7119150D02*
X195378669Y7023911D01*
X195378669Y7023911D02*
X195521526Y6976292D01*
X195521526Y6976292D02*
X195616764Y6976292D01*
X194283431Y6976292D02*
X194759621Y6976292D01*
X194759621Y6976292D02*
X194759621Y7976292D01*
X193378669Y7071531D02*
X193426288Y7023911D01*
X193426288Y7023911D02*
X193569145Y6976292D01*
X193569145Y6976292D02*
X193664383Y6976292D01*
X193664383Y6976292D02*
X193807240Y7023911D01*
X193807240Y7023911D02*
X193902478Y7119150D01*
X193902478Y7119150D02*
X193950097Y7214388D01*
X193950097Y7214388D02*
X193997716Y7404864D01*
X193997716Y7404864D02*
X193997716Y7547721D01*
X193997716Y7547721D02*
X193950097Y7738197D01*
X193950097Y7738197D02*
X193902478Y7833435D01*
X193902478Y7833435D02*
X193807240Y7928673D01*
X193807240Y7928673D02*
X193664383Y7976292D01*
X193664383Y7976292D02*
X193569145Y7976292D01*
X193569145Y7976292D02*
X193426288Y7928673D01*
X193426288Y7928673D02*
X193378669Y7881054D01*
X192664383Y7976292D02*
X192664383Y7262007D01*
X192664383Y7262007D02*
X192712002Y7119150D01*
X192712002Y7119150D02*
X192807240Y7023911D01*
X192807240Y7023911D02*
X192950097Y6976292D01*
X192950097Y6976292D02*
X193045335Y6976292D01*
X191712002Y6976292D02*
X192188192Y6976292D01*
X192188192Y6976292D02*
X192188192Y7976292D01*
X190807240Y7071531D02*
X190854859Y7023911D01*
X190854859Y7023911D02*
X190997716Y6976292D01*
X190997716Y6976292D02*
X191092954Y6976292D01*
X191092954Y6976292D02*
X191235811Y7023911D01*
X191235811Y7023911D02*
X191331049Y7119150D01*
X191331049Y7119150D02*
X191378668Y7214388D01*
X191378668Y7214388D02*
X191426287Y7404864D01*
X191426287Y7404864D02*
X191426287Y7547721D01*
X191426287Y7547721D02*
X191378668Y7738197D01*
X191378668Y7738197D02*
X191331049Y7833435D01*
X191331049Y7833435D02*
X191235811Y7928673D01*
X191235811Y7928673D02*
X191092954Y7976292D01*
X191092954Y7976292D02*
X190997716Y7976292D01*
X190997716Y7976292D02*
X190854859Y7928673D01*
X190854859Y7928673D02*
X190807240Y7881054D01*
X190092954Y7976292D02*
X190092954Y7262007D01*
X190092954Y7262007D02*
X190140573Y7119150D01*
X190140573Y7119150D02*
X190235811Y7023911D01*
X190235811Y7023911D02*
X190378668Y6976292D01*
X190378668Y6976292D02*
X190473906Y6976292D01*
X189140573Y6976292D02*
X189616763Y6976292D01*
X189616763Y6976292D02*
X189616763Y7976292D01*
X188235811Y7071531D02*
X188283430Y7023911D01*
X188283430Y7023911D02*
X188426287Y6976292D01*
X188426287Y6976292D02*
X188521525Y6976292D01*
X188521525Y6976292D02*
X188664382Y7023911D01*
X188664382Y7023911D02*
X188759620Y7119150D01*
X188759620Y7119150D02*
X188807239Y7214388D01*
X188807239Y7214388D02*
X188854858Y7404864D01*
X188854858Y7404864D02*
X188854858Y7547721D01*
X188854858Y7547721D02*
X188807239Y7738197D01*
X188807239Y7738197D02*
X188759620Y7833435D01*
X188759620Y7833435D02*
X188664382Y7928673D01*
X188664382Y7928673D02*
X188521525Y7976292D01*
X188521525Y7976292D02*
X188426287Y7976292D01*
X188426287Y7976292D02*
X188283430Y7928673D01*
X188283430Y7928673D02*
X188235811Y7881054D01*
X187521525Y7976292D02*
X187521525Y7262007D01*
X187521525Y7262007D02*
X187569144Y7119150D01*
X187569144Y7119150D02*
X187664382Y7023911D01*
X187664382Y7023911D02*
X187807239Y6976292D01*
X187807239Y6976292D02*
X187902477Y6976292D01*
X186569144Y6976292D02*
X187045334Y6976292D01*
X187045334Y6976292D02*
X187045334Y7976292D01*
X185664382Y7071531D02*
X185712001Y7023911D01*
X185712001Y7023911D02*
X185854858Y6976292D01*
X185854858Y6976292D02*
X185950096Y6976292D01*
X185950096Y6976292D02*
X186092953Y7023911D01*
X186092953Y7023911D02*
X186188191Y7119150D01*
X186188191Y7119150D02*
X186235810Y7214388D01*
X186235810Y7214388D02*
X186283429Y7404864D01*
X186283429Y7404864D02*
X186283429Y7547721D01*
X186283429Y7547721D02*
X186235810Y7738197D01*
X186235810Y7738197D02*
X186188191Y7833435D01*
X186188191Y7833435D02*
X186092953Y7928673D01*
X186092953Y7928673D02*
X185950096Y7976292D01*
X185950096Y7976292D02*
X185854858Y7976292D01*
X185854858Y7976292D02*
X185712001Y7928673D01*
X185712001Y7928673D02*
X185664382Y7881054D01*
M02*
