%TF.GenerationSoftware,KiCad,Pcbnew,7.0.6*%
%TF.CreationDate,2023-12-03T00:16:22-05:00*%
%TF.ProjectId,dual-stagger-cutiepie-plate,6475616c-2d73-4746-9167-6765722d6375,rev?*%
%TF.SameCoordinates,PX2fb0968PY80063eb*%
%TF.FileFunction,Drillmap*%
%TF.FilePolarity,Positive*%
%FSLAX45Y45*%
G04 Gerber Fmt 4.5, Leading zero omitted, Abs format (unit mm)*
G04 Created by KiCad (PCBNEW 7.0.6) date 2023-12-03 00:16:22*
%MOMM*%
%LPD*%
G01*
G04 APERTURE LIST*
%ADD10C,0.250000*%
%ADD11C,0.200000*%
G04 APERTURE END LIST*
D10*
X18111914Y4722430D02*
X18104675Y4748357D01*
X18085747Y4766395D01*
X18061914Y4772430D01*
X18111914Y4713730D02*
X18111914Y4722430D01*
X18161914Y4663730D02*
X18135987Y4670969D01*
X18117949Y4689897D01*
X18111914Y4713730D01*
X19461914Y4663730D02*
X18161914Y4663730D01*
X19511914Y4713730D02*
X19504675Y4687803D01*
X19485747Y4669765D01*
X19461914Y4663730D01*
X19511914Y4722430D02*
X19511914Y4713730D01*
X19561914Y4772430D02*
X19535987Y4765192D01*
X19517949Y4746263D01*
X19511914Y4722430D01*
X19661914Y4772430D02*
X19561914Y4772430D01*
X19711914Y4822430D02*
X19704675Y4796503D01*
X19685747Y4778465D01*
X19661914Y4772430D01*
X19711914Y5422430D02*
X19711914Y4822430D01*
X19661914Y5472430D02*
X19687841Y5465192D01*
X19705879Y5446263D01*
X19711914Y5422430D01*
X19561914Y5472430D02*
X19661914Y5472430D01*
X19511914Y5522430D02*
X19519153Y5496503D01*
X19538081Y5478465D01*
X19561914Y5472430D01*
X19511914Y7110030D02*
X19511914Y5522430D01*
X19561914Y7160030D02*
X19535987Y7152791D01*
X19517949Y7133863D01*
X19511914Y7110030D01*
X19661914Y7160030D02*
X19561914Y7160030D01*
X19711914Y7210030D02*
X19704675Y7184103D01*
X19685747Y7166065D01*
X19661914Y7160030D01*
X19711914Y7810030D02*
X19711914Y7210030D01*
X19661914Y7860030D02*
X19687841Y7852791D01*
X19705879Y7833863D01*
X19711914Y7810030D01*
X19323789Y7860030D02*
X19661914Y7860030D01*
X19273789Y7910030D02*
X19281028Y7884103D01*
X19299956Y7866065D01*
X19323789Y7860030D01*
X19273789Y7919230D02*
X19273789Y7910030D01*
X19223789Y7969230D02*
X19249716Y7961991D01*
X19267754Y7943063D01*
X19273789Y7919230D01*
X17923789Y7969230D02*
X19223789Y7969230D01*
X17873789Y7919230D02*
X17881028Y7945157D01*
X17899956Y7963195D01*
X17923789Y7969230D01*
X17873789Y6618730D02*
X17873789Y7919230D01*
X17923789Y6568730D02*
X17897862Y6575969D01*
X17879824Y6594897D01*
X17873789Y6618730D01*
X18061914Y6568730D02*
X17923789Y6568730D01*
X18111914Y6518730D02*
X18104675Y6544657D01*
X18085747Y6562695D01*
X18061914Y6568730D01*
X18111890Y5522726D02*
X18111914Y6518730D01*
X18061890Y5472726D02*
X18087817Y5479965D01*
X18105856Y5498893D01*
X18111890Y5522726D01*
X17961914Y5472680D02*
X18061890Y5472726D01*
X17911914Y5422680D02*
X17919153Y5448607D01*
X17938081Y5466646D01*
X17961914Y5472680D01*
X17961914Y4772680D02*
X18061914Y4772680D01*
X17911914Y4822680D02*
X17919153Y4796754D01*
X17938081Y4778715D01*
X17961914Y4772680D01*
X17911914Y5422680D02*
X17911914Y4822680D01*
X728850Y4109245D02*
X736088Y4135172D01*
X755017Y4153210D01*
X778850Y4159245D01*
X728850Y2809245D02*
X728850Y4109245D01*
X778850Y2759245D02*
X752923Y2766484D01*
X734884Y2785412D01*
X728850Y2809245D01*
X2316950Y2759245D02*
X778850Y2759245D01*
X2366950Y2809245D02*
X2359711Y2783318D01*
X2340783Y2765280D01*
X2316950Y2759245D01*
X2366950Y4109245D02*
X2366950Y2809245D01*
X2316950Y4159245D02*
X2342877Y4152006D01*
X2360915Y4133078D01*
X2366950Y4109245D01*
X778850Y4159245D02*
X2316950Y4159245D01*
X252559Y7919245D02*
X259797Y7945172D01*
X278726Y7963210D01*
X302559Y7969245D01*
X252559Y6619245D02*
X252559Y7919245D01*
X302559Y6569245D02*
X276632Y6576484D01*
X258593Y6595412D01*
X252559Y6619245D01*
X1602559Y6569245D02*
X302559Y6569245D01*
X1652559Y6619245D02*
X1645320Y6593318D01*
X1626392Y6575280D01*
X1602559Y6569245D01*
X1652559Y7919245D02*
X1652559Y6619245D01*
X1602559Y7969245D02*
X1628485Y7962006D01*
X1646524Y7943078D01*
X1652559Y7919245D01*
X302559Y7969245D02*
X1602559Y7969245D01*
X2157559Y7919245D02*
X2164797Y7945172D01*
X2183726Y7963210D01*
X2207559Y7969245D01*
X2157559Y6619245D02*
X2157559Y7919245D01*
X2207559Y6569245D02*
X2181632Y6576484D01*
X2163593Y6595412D01*
X2157559Y6619245D01*
X3507559Y6569245D02*
X2207559Y6569245D01*
X3557559Y6619245D02*
X3550320Y6593318D01*
X3531392Y6575280D01*
X3507559Y6569245D01*
X3557559Y7919245D02*
X3557559Y6619245D01*
X3507559Y7969245D02*
X3533485Y7962006D01*
X3551524Y7943078D01*
X3557559Y7919245D01*
X2207559Y7969245D02*
X3507559Y7969245D01*
X4062519Y7919245D02*
X4069758Y7945172D01*
X4088686Y7963210D01*
X4112519Y7969245D01*
X4062519Y6619245D02*
X4062519Y7919245D01*
X4112519Y6569245D02*
X4086593Y6576484D01*
X4068554Y6595412D01*
X4062519Y6619245D01*
X5412520Y6569245D02*
X4112519Y6569245D01*
X5462520Y6619245D02*
X5455281Y6593318D01*
X5436352Y6575280D01*
X5412520Y6569245D01*
X5462520Y7919245D02*
X5462520Y6619245D01*
X5412520Y7969245D02*
X5438446Y7962006D01*
X5456485Y7943078D01*
X5462520Y7919245D01*
X4112519Y7969245D02*
X5412520Y7969245D01*
X5967559Y7919245D02*
X5974797Y7945172D01*
X5993726Y7963210D01*
X6017559Y7969245D01*
X5967559Y6619245D02*
X5967559Y7919245D01*
X6017559Y6569245D02*
X5991632Y6576484D01*
X5973593Y6595412D01*
X5967559Y6619245D01*
X7317559Y6569245D02*
X6017559Y6569245D01*
X7367559Y6619245D02*
X7360320Y6593318D01*
X7341392Y6575280D01*
X7317559Y6569245D01*
X7367559Y7919245D02*
X7367559Y6619245D01*
X7317559Y7969245D02*
X7343485Y7962006D01*
X7361524Y7943078D01*
X7367559Y7919245D01*
X6017559Y7969245D02*
X7317559Y7969245D01*
X7872559Y7919245D02*
X7879797Y7945172D01*
X7898726Y7963210D01*
X7922559Y7969245D01*
X7872559Y6619245D02*
X7872559Y7919245D01*
X7922559Y6569245D02*
X7896632Y6576484D01*
X7878593Y6595412D01*
X7872559Y6619245D01*
X9222559Y6569245D02*
X7922559Y6569245D01*
X9272559Y6619245D02*
X9265320Y6593318D01*
X9246392Y6575280D01*
X9222559Y6569245D01*
X9272559Y7919245D02*
X9272559Y6619245D01*
X9222559Y7969245D02*
X9248486Y7962006D01*
X9266524Y7943078D01*
X9272559Y7919245D01*
X7922559Y7969245D02*
X9222559Y7969245D01*
X9777520Y7919245D02*
X9784758Y7945172D01*
X9803687Y7963210D01*
X9827520Y7969245D01*
X9777520Y6619245D02*
X9777520Y7919245D01*
X9827520Y6569245D02*
X9801593Y6576484D01*
X9783554Y6595412D01*
X9777520Y6619245D01*
X11127520Y6569245D02*
X9827520Y6569245D01*
X11177520Y6619245D02*
X11170281Y6593318D01*
X11151352Y6575280D01*
X11127520Y6569245D01*
X11177520Y7919245D02*
X11177520Y6619245D01*
X11127520Y7969245D02*
X11153446Y7962006D01*
X11171485Y7943078D01*
X11177520Y7919245D01*
X9827520Y7969245D02*
X11127520Y7969245D01*
X11682559Y7919245D02*
X11689797Y7945172D01*
X11708726Y7963210D01*
X11732559Y7969245D01*
X11682559Y6619245D02*
X11682559Y7919245D01*
X11732559Y6569245D02*
X11706632Y6576484D01*
X11688593Y6595412D01*
X11682559Y6619245D01*
X13032559Y6569245D02*
X11732559Y6569245D01*
X13082559Y6619245D02*
X13075320Y6593318D01*
X13056392Y6575280D01*
X13032559Y6569245D01*
X13082559Y7919245D02*
X13082559Y6619245D01*
X13032559Y7969245D02*
X13058485Y7962006D01*
X13076524Y7943078D01*
X13082559Y7919245D01*
X11732559Y7969245D02*
X13032559Y7969245D01*
X13587559Y7919245D02*
X13594797Y7945172D01*
X13613726Y7963210D01*
X13637559Y7969245D01*
X13587559Y6619245D02*
X13587559Y7919245D01*
X13637559Y6569245D02*
X13611632Y6576484D01*
X13593593Y6595412D01*
X13587559Y6619245D01*
X14937559Y6569245D02*
X13637559Y6569245D01*
X14987559Y6619245D02*
X14980320Y6593318D01*
X14961392Y6575280D01*
X14937559Y6569245D01*
X14987559Y7919245D02*
X14987559Y6619245D01*
X14937559Y7969245D02*
X14963485Y7962006D01*
X14981524Y7943078D01*
X14987559Y7919245D01*
X13637559Y7969245D02*
X14937559Y7969245D01*
X15492519Y7919245D02*
X15499758Y7945172D01*
X15518686Y7963210D01*
X15542519Y7969245D01*
X15492519Y6619245D02*
X15492519Y7919245D01*
X15542519Y6569245D02*
X15516593Y6576484D01*
X15498554Y6595412D01*
X15492519Y6619245D01*
X16842520Y6569245D02*
X15542519Y6569245D01*
X16892520Y6619245D02*
X16885281Y6593318D01*
X16866352Y6575280D01*
X16842520Y6569245D01*
X16892520Y7919245D02*
X16892520Y6619245D01*
X16842520Y7969245D02*
X16868446Y7962006D01*
X16886485Y7943078D01*
X16892520Y7919245D01*
X15542519Y7969245D02*
X16842520Y7969245D01*
X490653Y6014245D02*
X497891Y6040172D01*
X516820Y6058210D01*
X540653Y6064245D01*
X490653Y4714245D02*
X490653Y6014245D01*
X540653Y4664245D02*
X514726Y4671484D01*
X496687Y4690412D01*
X490653Y4714245D01*
X1840653Y4664245D02*
X540653Y4664245D01*
X1890653Y4714245D02*
X1883414Y4688318D01*
X1864485Y4670280D01*
X1840653Y4664245D01*
X1890653Y6014245D02*
X1890653Y4714245D01*
X1840653Y6064245D02*
X1866579Y6057006D01*
X1884618Y6038078D01*
X1890653Y6014245D01*
X540653Y6064245D02*
X1840653Y6064245D01*
X2633809Y6014245D02*
X2641047Y6040172D01*
X2659976Y6058210D01*
X2683809Y6064245D01*
X2633809Y4714245D02*
X2633809Y6014245D01*
X2683809Y4664245D02*
X2657882Y4671484D01*
X2639843Y4690412D01*
X2633809Y4714245D01*
X3983809Y4664245D02*
X2683809Y4664245D01*
X4033809Y4714245D02*
X4026570Y4688318D01*
X4007642Y4670280D01*
X3983809Y4664245D01*
X4033809Y6014245D02*
X4033809Y4714245D01*
X3983809Y6064245D02*
X4009735Y6057006D01*
X4027774Y6038078D01*
X4033809Y6014245D01*
X2683809Y6064245D02*
X3983809Y6064245D01*
X4538770Y6014245D02*
X4546008Y6040172D01*
X4564937Y6058210D01*
X4588770Y6064245D01*
X4538770Y4714245D02*
X4538770Y6014245D01*
X4588770Y4664245D02*
X4562843Y4671484D01*
X4544804Y4690412D01*
X4538770Y4714245D01*
X5888769Y4664245D02*
X4588770Y4664245D01*
X5938769Y4714245D02*
X5931531Y4688318D01*
X5912602Y4670280D01*
X5888769Y4664245D01*
X5938769Y6014245D02*
X5938769Y4714245D01*
X5888769Y6064245D02*
X5914696Y6057006D01*
X5932735Y6038078D01*
X5938769Y6014245D01*
X4588770Y6064245D02*
X5888769Y6064245D01*
X6443809Y6014245D02*
X6451047Y6040172D01*
X6469976Y6058210D01*
X6493809Y6064245D01*
X6443809Y4714245D02*
X6443809Y6014245D01*
X6493809Y4664245D02*
X6467882Y4671484D01*
X6449843Y4690412D01*
X6443809Y4714245D01*
X7793809Y4664245D02*
X6493809Y4664245D01*
X7843809Y4714245D02*
X7836570Y4688318D01*
X7817642Y4670280D01*
X7793809Y4664245D01*
X7843809Y6014245D02*
X7843809Y4714245D01*
X7793809Y6064245D02*
X7819735Y6057006D01*
X7837774Y6038078D01*
X7843809Y6014245D01*
X6493809Y6064245D02*
X7793809Y6064245D01*
X8348809Y6014245D02*
X8356047Y6040172D01*
X8374976Y6058210D01*
X8398809Y6064245D01*
X8348809Y4714245D02*
X8348809Y6014245D01*
X8398809Y4664245D02*
X8372882Y4671484D01*
X8354843Y4690412D01*
X8348809Y4714245D01*
X9698809Y4664245D02*
X8398809Y4664245D01*
X9748809Y4714245D02*
X9741570Y4688318D01*
X9722642Y4670280D01*
X9698809Y4664245D01*
X9748809Y6014245D02*
X9748809Y4714245D01*
X9698809Y6064245D02*
X9724736Y6057006D01*
X9742774Y6038078D01*
X9748809Y6014245D01*
X8398809Y6064245D02*
X9698809Y6064245D01*
X10253770Y6014245D02*
X10261008Y6040172D01*
X10279937Y6058210D01*
X10303770Y6064245D01*
X10253770Y4714245D02*
X10253770Y6014245D01*
X10303770Y4664245D02*
X10277843Y4671484D01*
X10259804Y4690412D01*
X10253770Y4714245D01*
X11603769Y4664245D02*
X10303770Y4664245D01*
X11653769Y4714245D02*
X11646531Y4688318D01*
X11627602Y4670280D01*
X11603769Y4664245D01*
X11653769Y6014245D02*
X11653769Y4714245D01*
X11603769Y6064245D02*
X11629696Y6057006D01*
X11647735Y6038078D01*
X11653769Y6014245D01*
X10303770Y6064245D02*
X11603769Y6064245D01*
X12158809Y6014245D02*
X12166047Y6040172D01*
X12184976Y6058210D01*
X12208809Y6064245D01*
X12158809Y4714245D02*
X12158809Y6014245D01*
X12208809Y4664245D02*
X12182882Y4671484D01*
X12164843Y4690412D01*
X12158809Y4714245D01*
X13508809Y4664245D02*
X12208809Y4664245D01*
X13558809Y4714245D02*
X13551570Y4688318D01*
X13532642Y4670280D01*
X13508809Y4664245D01*
X13558809Y6014245D02*
X13558809Y4714245D01*
X13508809Y6064245D02*
X13534735Y6057006D01*
X13552774Y6038078D01*
X13558809Y6014245D01*
X12208809Y6064245D02*
X13508809Y6064245D01*
X14063809Y6014245D02*
X14071047Y6040172D01*
X14089976Y6058210D01*
X14113809Y6064245D01*
X14063809Y4714245D02*
X14063809Y6014245D01*
X14113809Y4664245D02*
X14087882Y4671484D01*
X14069843Y4690412D01*
X14063809Y4714245D01*
X15413809Y4664245D02*
X14113809Y4664245D01*
X15463809Y4714245D02*
X15456570Y4688318D01*
X15437642Y4670280D01*
X15413809Y4664245D01*
X15463809Y6014245D02*
X15463809Y4714245D01*
X15413809Y6064245D02*
X15439735Y6057006D01*
X15457774Y6038078D01*
X15463809Y6014245D01*
X14113809Y6064245D02*
X15413809Y6064245D01*
X15968769Y6014245D02*
X15976008Y6040172D01*
X15994936Y6058210D01*
X16018769Y6064245D01*
X15968769Y4714245D02*
X15968769Y6014245D01*
X16018769Y4664245D02*
X15992843Y4671484D01*
X15974804Y4690412D01*
X15968769Y4714245D01*
X17318770Y4664245D02*
X16018769Y4664245D01*
X17368770Y4714245D02*
X17361531Y4688318D01*
X17342602Y4670280D01*
X17318770Y4664245D01*
X17368770Y6014245D02*
X17368770Y4714245D01*
X17318770Y6064245D02*
X17344696Y6057006D01*
X17362735Y6038078D01*
X17368770Y6014245D01*
X16018769Y6064245D02*
X17318770Y6064245D01*
X252559Y2204245D02*
X259797Y2230172D01*
X278726Y2248210D01*
X302559Y2254245D01*
X252559Y904245D02*
X252559Y2204245D01*
X302559Y854245D02*
X276632Y861484D01*
X258593Y880412D01*
X252559Y904245D01*
X1602559Y854245D02*
X302559Y854245D01*
X1652559Y904245D02*
X1645320Y878318D01*
X1626392Y860280D01*
X1602559Y854245D01*
X1652559Y2204245D02*
X1652559Y904245D01*
X1602559Y2254245D02*
X1628485Y2247006D01*
X1646524Y2228078D01*
X1652559Y2204245D01*
X302559Y2254245D02*
X1602559Y2254245D01*
X2157559Y2204245D02*
X2164797Y2230172D01*
X2183726Y2248210D01*
X2207559Y2254245D01*
X2157559Y904245D02*
X2157559Y2204245D01*
X2207559Y854245D02*
X2181632Y861484D01*
X2163593Y880412D01*
X2157559Y904245D01*
X3507559Y854245D02*
X2207559Y854245D01*
X3557559Y904245D02*
X3550320Y878318D01*
X3531392Y860280D01*
X3507559Y854245D01*
X3557559Y2204245D02*
X3557559Y904245D01*
X3507559Y2254245D02*
X3533485Y2247006D01*
X3551524Y2228078D01*
X3557559Y2204245D01*
X2207559Y2254245D02*
X3507559Y2254245D01*
X4062519Y2204245D02*
X4069758Y2230172D01*
X4088686Y2248210D01*
X4112519Y2254245D01*
X4062519Y904245D02*
X4062519Y2204245D01*
X4112519Y854245D02*
X4086593Y861484D01*
X4068554Y880412D01*
X4062519Y904245D01*
X5412520Y854245D02*
X4112519Y854245D01*
X5462520Y904245D02*
X5455281Y878318D01*
X5436352Y860280D01*
X5412520Y854245D01*
X5462520Y2204245D02*
X5462520Y904245D01*
X5412520Y2254245D02*
X5438446Y2247006D01*
X5456485Y2228078D01*
X5462520Y2204245D01*
X4112519Y2254245D02*
X5412520Y2254245D01*
X14540039Y2204245D02*
X14547278Y2230172D01*
X14566206Y2248210D01*
X14590039Y2254245D01*
X14540039Y904245D02*
X14540039Y2204245D01*
X14590039Y854245D02*
X14564112Y861484D01*
X14546074Y880412D01*
X14540039Y904245D01*
X15890039Y854245D02*
X14590039Y854245D01*
X15940039Y904245D02*
X15932800Y878318D01*
X15913872Y860280D01*
X15890039Y854245D01*
X15940039Y2204245D02*
X15940039Y904245D01*
X15890039Y2254245D02*
X15915966Y2247006D01*
X15934004Y2228078D01*
X15940039Y2204245D01*
X14590039Y2254245D02*
X15890039Y2254245D01*
X16445039Y2204245D02*
X16452278Y2230172D01*
X16471206Y2248210D01*
X16495039Y2254245D01*
X16445039Y904245D02*
X16445039Y2204245D01*
X16495039Y854245D02*
X16469112Y861484D01*
X16451074Y880412D01*
X16445039Y904245D01*
X17795039Y854245D02*
X16495039Y854245D01*
X17845039Y904245D02*
X17837800Y878318D01*
X17818872Y860280D01*
X17795039Y854245D01*
X17845039Y2204245D02*
X17845039Y904245D01*
X17795039Y2254245D02*
X17820966Y2247006D01*
X17839004Y2228078D01*
X17845039Y2204245D01*
X16495039Y2254245D02*
X17795039Y2254245D01*
X18350000Y2204245D02*
X18357238Y2230172D01*
X18376167Y2248210D01*
X18400000Y2254245D01*
X18350000Y904245D02*
X18350000Y2204245D01*
X18400000Y854245D02*
X18374073Y861484D01*
X18356035Y880412D01*
X18350000Y904245D01*
X19700000Y854245D02*
X18400000Y854245D01*
X19750000Y904245D02*
X19742761Y878318D01*
X19723833Y860280D01*
X19700000Y854245D01*
X19750000Y2204245D02*
X19750000Y904245D01*
X19700000Y2254245D02*
X19725927Y2247006D01*
X19743965Y2228078D01*
X19750000Y2204245D01*
X18400000Y2254245D02*
X19700000Y2254245D01*
X3110000Y4109245D02*
X3117238Y4135172D01*
X3136167Y4153210D01*
X3160000Y4159245D01*
X3110000Y2809245D02*
X3110000Y4109245D01*
X3160000Y2759245D02*
X3134073Y2766484D01*
X3116034Y2785412D01*
X3110000Y2809245D01*
X19700000Y2759245D02*
X3160000Y2759245D01*
X19750000Y2809245D02*
X19742761Y2783318D01*
X19723833Y2765280D01*
X19700000Y2759245D01*
X19750000Y4109245D02*
X19750000Y2809245D01*
X19700000Y4159245D02*
X19725927Y4152006D01*
X19743965Y4133078D01*
X19750000Y4109245D01*
X3160000Y4159245D02*
X19700000Y4159245D01*
X19025662Y301572D02*
G75*
G03*
X19025662Y301572I-135000J0D01*
G01*
X1246893Y301545D02*
G75*
G03*
X1246893Y301545I-135000J0D01*
G01*
X1246893Y8521735D02*
G75*
G03*
X1246893Y8521735I-135000J0D01*
G01*
X19025662Y8521733D02*
G75*
G03*
X19025662Y8521733I-135000J0D01*
G01*
X7493800Y1927480D02*
X7493800Y1827980D01*
X7443800Y1977480D02*
X7469727Y1970241D01*
X7487765Y1951313D01*
X7493800Y1927480D01*
X7443800Y1977980D02*
X7443800Y1977480D01*
X6602500Y1977980D02*
X7443800Y1977980D01*
X6552500Y1927980D02*
X6559738Y1953907D01*
X6578667Y1971945D01*
X6602500Y1977980D01*
X6552500Y427980D02*
X6552500Y1927980D01*
X6602500Y377980D02*
X6576573Y385219D01*
X6558534Y404147D01*
X6552500Y427980D01*
X8746300Y377980D02*
X6602500Y377980D01*
X8796300Y427980D02*
X8789061Y402053D01*
X8770133Y384015D01*
X8746300Y377980D01*
X8796300Y1727980D02*
X8796300Y427980D01*
X8746300Y1777980D02*
X8772227Y1770741D01*
X8790265Y1751813D01*
X8796300Y1727980D01*
X7543800Y1777980D02*
X8746300Y1777980D01*
X7493800Y1827980D02*
X7501038Y1802053D01*
X7519967Y1784015D01*
X7543800Y1777980D01*
X39Y8138892D02*
X39Y4423857D01*
X58618Y8280313D02*
X39284Y8257880D01*
X23600Y8233070D01*
X11750Y8206327D01*
X3917Y8178092D01*
X285Y8148810D01*
X39Y8138892D01*
X541460Y8763156D02*
X58618Y8280313D01*
X682882Y8821735D02*
X653348Y8819543D01*
X624715Y8813090D01*
X597425Y8802559D01*
X571922Y8788133D01*
X548647Y8769995D01*
X541460Y8763156D01*
X1557197Y8821735D02*
X682882Y8821735D01*
X1698618Y8763156D02*
X1676184Y8782490D01*
X1651375Y8798174D01*
X1624631Y8810023D01*
X1596397Y8817856D01*
X1567114Y8821489D01*
X1557197Y8821735D01*
X2181461Y8280313D02*
X1698618Y8763156D01*
X2322882Y8221735D02*
X2293348Y8223927D01*
X2264715Y8230380D01*
X2237425Y8240911D01*
X2211922Y8255337D01*
X2188647Y8273475D01*
X2181461Y8280313D01*
X17712196Y8221731D02*
X2322882Y8221735D01*
X17853618Y8280309D02*
X17831184Y8260975D01*
X17806375Y8245292D01*
X17779631Y8233442D01*
X17751397Y8225609D01*
X17722114Y8221976D01*
X17712196Y8221731D01*
X18336465Y8763156D02*
X17853618Y8280309D01*
X18477886Y8821735D02*
X18448352Y8819543D01*
X18419719Y8813090D01*
X18392429Y8802559D01*
X18366926Y8788133D01*
X18343651Y8769995D01*
X18336465Y8763156D01*
X19319731Y8821735D02*
X18477886Y8821735D01*
X19461152Y8763156D02*
X19438718Y8782490D01*
X19413909Y8798174D01*
X19387165Y8810023D01*
X19358931Y8817856D01*
X19329648Y8821489D01*
X19319731Y8821735D01*
X19943998Y8280310D02*
X19461152Y8763156D01*
X20002577Y8138889D02*
X20000385Y8168423D01*
X19993932Y8197056D01*
X19983401Y8224346D01*
X19968974Y8249849D01*
X19950837Y8273124D01*
X19943998Y8280310D01*
X20002538Y684405D02*
X20002577Y8138889D01*
X19943957Y542984D02*
X19963291Y565418D01*
X19978975Y590227D01*
X19990825Y616970D01*
X19998659Y645205D01*
X20002292Y674488D01*
X20002538Y684405D01*
X19461106Y60143D02*
X19943957Y542984D01*
X19319684Y1566D02*
X19349218Y3758D01*
X19377852Y10211D01*
X19405141Y20742D01*
X19430645Y35167D01*
X19453920Y53304D01*
X19461106Y60143D01*
X18477840Y1575D02*
X19319684Y1566D01*
X18336419Y60155D02*
X18358852Y40821D01*
X18383662Y25137D01*
X18410405Y13287D01*
X18438640Y5454D01*
X18467922Y1821D01*
X18477840Y1575D01*
X17853439Y543145D02*
X18336419Y60155D01*
X17712017Y601725D02*
X17741551Y599533D01*
X17770184Y593080D01*
X17797474Y582548D01*
X17822978Y568122D01*
X17846253Y549984D01*
X17853439Y543145D01*
X14307111Y601730D02*
X17712017Y601725D01*
X14057111Y351730D02*
X14058402Y377292D01*
X14062190Y402114D01*
X14072281Y437689D01*
X14087285Y470895D01*
X14106777Y501309D01*
X14130335Y528507D01*
X14157532Y552064D01*
X14187946Y571557D01*
X14221153Y586560D01*
X14256728Y596651D01*
X14281550Y600440D01*
X14307111Y601730D01*
X14057111Y351727D02*
X14057111Y351730D01*
X13830939Y125558D02*
X13865382Y128164D01*
X13898195Y135726D01*
X13928993Y147861D01*
X13957393Y164184D01*
X13983011Y184312D01*
X14005463Y207862D01*
X14024366Y234450D01*
X14039336Y263692D01*
X14049990Y295204D01*
X14055943Y328603D01*
X14057111Y351727D01*
X6201488Y125558D02*
X13830939Y125558D01*
X5975316Y351730D02*
X5977922Y317286D01*
X5985484Y284473D01*
X5997619Y253675D01*
X6013943Y225275D01*
X6034071Y199657D01*
X6057622Y177205D01*
X6084210Y158302D01*
X6113452Y143332D01*
X6144964Y132678D01*
X6178363Y126726D01*
X6201488Y125558D01*
X5725316Y601730D02*
X5750877Y600439D01*
X5775700Y596651D01*
X5811274Y586560D01*
X5844481Y571557D01*
X5874895Y552064D01*
X5902093Y528507D01*
X5925650Y501309D01*
X5945142Y470895D01*
X5960146Y437688D01*
X5970237Y402114D01*
X5974025Y377291D01*
X5975316Y351730D01*
X2320411Y601730D02*
X5725316Y601730D01*
X2181421Y543168D02*
X2203482Y562224D01*
X2227856Y577751D01*
X2254124Y589569D01*
X2281864Y597503D01*
X2310653Y601374D01*
X2320411Y601730D01*
X1698572Y60329D02*
X2181421Y543168D01*
X1557150Y1752D02*
X1586684Y3944D01*
X1615317Y10397D01*
X1642607Y20928D01*
X1668111Y35353D01*
X1691386Y53490D01*
X1698572Y60329D01*
X682836Y1761D02*
X1557150Y1752D01*
X541415Y60341D02*
X563848Y41007D01*
X588658Y25324D01*
X615401Y13473D01*
X643635Y5640D01*
X672918Y2007D01*
X682836Y1761D01*
X58577Y543189D02*
X541415Y60341D01*
X0Y684611D02*
X2192Y655077D01*
X8644Y626444D01*
X19175Y599154D01*
X33601Y573651D01*
X51738Y550376D01*
X58577Y543189D01*
X39Y4423857D02*
X0Y684611D01*
X11256289Y1777980D02*
X12458789Y1777980D01*
X11206289Y1727980D02*
X11213528Y1753907D01*
X11232456Y1771945D01*
X11256289Y1777980D01*
X11206289Y427980D02*
X11206289Y1727980D01*
X11256289Y377980D02*
X11230362Y385219D01*
X11212324Y404147D01*
X11206289Y427980D01*
X13400089Y377980D02*
X11256289Y377980D01*
X13450089Y427980D02*
X13442850Y402053D01*
X13423922Y384015D01*
X13400089Y377980D01*
X13450089Y1927980D02*
X13450089Y427980D01*
X13400089Y1977980D02*
X13426016Y1970741D01*
X13444054Y1951813D01*
X13450089Y1927980D01*
X13400089Y1977480D02*
X13400089Y1977980D01*
X12558789Y1977480D02*
X13400089Y1977480D01*
X12508789Y1927480D02*
X12516028Y1953407D01*
X12534956Y1971445D01*
X12558789Y1977480D01*
X12508789Y1827980D02*
X12508789Y1927480D01*
X12458789Y1777980D02*
X12484716Y1785219D01*
X12502754Y1804147D01*
X12508789Y1827980D01*
X9690089Y1777480D02*
X10312489Y1777480D01*
X9640089Y1827480D02*
X9647328Y1801553D01*
X9666256Y1783515D01*
X9690089Y1777480D01*
X9640089Y1927980D02*
X9640089Y1827480D01*
X9590089Y1977980D02*
X9616016Y1970741D01*
X9634054Y1951813D01*
X9640089Y1927980D01*
X8990089Y1977980D02*
X9590089Y1977980D01*
X8940089Y1927980D02*
X8947328Y1953907D01*
X8966256Y1971945D01*
X8990089Y1977980D01*
X8940089Y427980D02*
X8940089Y1927980D01*
X8990089Y377980D02*
X8964162Y385219D01*
X8946124Y404147D01*
X8940089Y427980D01*
X11012489Y377980D02*
X8990089Y377980D01*
X11062489Y427980D02*
X11055250Y402053D01*
X11036322Y384015D01*
X11012489Y377980D01*
X11062489Y1927980D02*
X11062489Y427980D01*
X11012489Y1977980D02*
X11038416Y1970741D01*
X11056454Y1951813D01*
X11062489Y1927980D01*
X10412489Y1977980D02*
X11012489Y1977980D01*
X10362489Y1927980D02*
X10369728Y1953907D01*
X10388656Y1971945D01*
X10412489Y1977980D01*
X10362489Y1827480D02*
X10362489Y1927980D01*
X10312489Y1777480D02*
X10338416Y1784719D01*
X10356454Y1803647D01*
X10362489Y1827480D01*
D11*
X248276Y-322418D02*
X248276Y-122418D01*
X248276Y-122418D02*
X295895Y-122418D01*
X295895Y-122418D02*
X324467Y-131942D01*
X324467Y-131942D02*
X343514Y-150990D01*
X343514Y-150990D02*
X353038Y-170037D01*
X353038Y-170037D02*
X362562Y-208132D01*
X362562Y-208132D02*
X362562Y-236704D01*
X362562Y-236704D02*
X353038Y-274799D01*
X353038Y-274799D02*
X343514Y-293847D01*
X343514Y-293847D02*
X324467Y-312895D01*
X324467Y-312895D02*
X295895Y-322418D01*
X295895Y-322418D02*
X248276Y-322418D01*
X448276Y-322418D02*
X448276Y-189085D01*
X448276Y-227180D02*
X457800Y-208132D01*
X457800Y-208132D02*
X467324Y-198609D01*
X467324Y-198609D02*
X486371Y-189085D01*
X486371Y-189085D02*
X505419Y-189085D01*
X572086Y-322418D02*
X572086Y-189085D01*
X572086Y-122418D02*
X562562Y-131942D01*
X562562Y-131942D02*
X572086Y-141466D01*
X572086Y-141466D02*
X581610Y-131942D01*
X581610Y-131942D02*
X572086Y-122418D01*
X572086Y-122418D02*
X572086Y-141466D01*
X695895Y-322418D02*
X676848Y-312895D01*
X676848Y-312895D02*
X667324Y-293847D01*
X667324Y-293847D02*
X667324Y-122418D01*
X800657Y-322418D02*
X781610Y-312895D01*
X781610Y-312895D02*
X772086Y-293847D01*
X772086Y-293847D02*
X772086Y-122418D01*
X1029229Y-322418D02*
X1029229Y-122418D01*
X1029229Y-122418D02*
X1095895Y-265275D01*
X1095895Y-265275D02*
X1162562Y-122418D01*
X1162562Y-122418D02*
X1162562Y-322418D01*
X1343514Y-322418D02*
X1343514Y-217656D01*
X1343514Y-217656D02*
X1333991Y-198609D01*
X1333991Y-198609D02*
X1314943Y-189085D01*
X1314943Y-189085D02*
X1276848Y-189085D01*
X1276848Y-189085D02*
X1257800Y-198609D01*
X1343514Y-312895D02*
X1324467Y-322418D01*
X1324467Y-322418D02*
X1276848Y-322418D01*
X1276848Y-322418D02*
X1257800Y-312895D01*
X1257800Y-312895D02*
X1248276Y-293847D01*
X1248276Y-293847D02*
X1248276Y-274799D01*
X1248276Y-274799D02*
X1257800Y-255752D01*
X1257800Y-255752D02*
X1276848Y-246228D01*
X1276848Y-246228D02*
X1324467Y-246228D01*
X1324467Y-246228D02*
X1343514Y-236704D01*
X1438752Y-189085D02*
X1438752Y-389085D01*
X1438752Y-198609D02*
X1457800Y-189085D01*
X1457800Y-189085D02*
X1495895Y-189085D01*
X1495895Y-189085D02*
X1514943Y-198609D01*
X1514943Y-198609D02*
X1524467Y-208132D01*
X1524467Y-208132D02*
X1533991Y-227180D01*
X1533991Y-227180D02*
X1533991Y-284323D01*
X1533991Y-284323D02*
X1524467Y-303371D01*
X1524467Y-303371D02*
X1514943Y-312895D01*
X1514943Y-312895D02*
X1495895Y-322418D01*
X1495895Y-322418D02*
X1457800Y-322418D01*
X1457800Y-322418D02*
X1438752Y-312895D01*
X1619705Y-303371D02*
X1629229Y-312895D01*
X1629229Y-312895D02*
X1619705Y-322418D01*
X1619705Y-322418D02*
X1610181Y-312895D01*
X1610181Y-312895D02*
X1619705Y-303371D01*
X1619705Y-303371D02*
X1619705Y-322418D01*
X1619705Y-198609D02*
X1629229Y-208132D01*
X1629229Y-208132D02*
X1619705Y-217656D01*
X1619705Y-217656D02*
X1610181Y-208132D01*
X1610181Y-208132D02*
X1619705Y-198609D01*
X1619705Y-198609D02*
X1619705Y-217656D01*
M02*
