%TF.GenerationSoftware,KiCad,Pcbnew,7.0.6*%
%TF.CreationDate,2023-12-03T00:16:16-05:00*%
%TF.ProjectId,dual-stagger-cutiepie-plate,6475616c-2d73-4746-9167-6765722d6375,rev?*%
%TF.SameCoordinates,PX2fb0968PY80063eb*%
%TF.FileFunction,Copper,L1,Top*%
%TF.FilePolarity,Positive*%
%FSLAX46Y46*%
G04 Gerber Fmt 4.6, Leading zero omitted, Abs format (unit mm)*
G04 Created by KiCad (PCBNEW 7.0.6) date 2023-12-03 00:16:16*
%MOMM*%
%LPD*%
G01*
G04 APERTURE LIST*
G04 APERTURE END LIST*
%TA.AperFunction,NonConductor*%
G36*
X15668034Y88214469D02*
G01*
X15674135Y88214016D01*
X15771723Y88201910D01*
X15954807Y88179198D01*
X15972672Y88175631D01*
X16237385Y88102193D01*
X16254451Y88096082D01*
X16505182Y87984984D01*
X16521198Y87976433D01*
X16670913Y87881791D01*
X16753801Y87829393D01*
X16768494Y87818509D01*
X16984101Y87632694D01*
X16987457Y87629577D01*
X21807668Y82809366D01*
X21809196Y82807593D01*
X21814235Y82802799D01*
X21820880Y82796153D01*
X21822829Y82794621D01*
X21884035Y82736375D01*
X21886112Y82734211D01*
X21886313Y82734039D01*
X21888787Y82732308D01*
X22118728Y82553121D01*
X22119055Y82552844D01*
X22120504Y82552072D01*
X22214823Y82498720D01*
X22372411Y82409580D01*
X22374052Y82408594D01*
X22375891Y82407945D01*
X22576665Y82330464D01*
X22646746Y82303419D01*
X22646940Y82303335D01*
X22646942Y82303333D01*
X22646944Y82303333D01*
X22647131Y82303251D01*
X22648704Y82302936D01*
X22931798Y82239133D01*
X22933423Y82238728D01*
X22935169Y82238641D01*
X23224496Y82217169D01*
X23226823Y82216837D01*
X23230438Y82216704D01*
X23232774Y82216848D01*
X177108611Y82216808D01*
X177112069Y82216437D01*
X177120513Y82216753D01*
X177123427Y82216794D01*
X177131470Y82216718D01*
X177134648Y82217121D01*
X177218152Y82219191D01*
X177221394Y82219120D01*
X177224593Y82219690D01*
X177229212Y82220263D01*
X177512399Y82255394D01*
X177514094Y82255565D01*
X177515743Y82256067D01*
X177794578Y82333423D01*
X177796433Y82333881D01*
X177798075Y82334657D01*
X178062321Y82451743D01*
X178063996Y82452434D01*
X178065493Y82453435D01*
X178310517Y82608328D01*
X178312163Y82609305D01*
X178313598Y82610611D01*
X178533302Y82799957D01*
X178535523Y82801627D01*
X178537638Y82803584D01*
X178539495Y82805704D01*
X180951117Y85217326D01*
X187550962Y85217326D01*
X187558951Y85126002D01*
X187559187Y85120609D01*
X187559189Y85113247D01*
X187557528Y85107587D01*
X187558667Y85094572D01*
X187561580Y85085878D01*
X187562860Y85078620D01*
X187563566Y85073257D01*
X187571557Y84981926D01*
X187571559Y84981916D01*
X187595281Y84893382D01*
X187596453Y84888099D01*
X187597735Y84880823D01*
X187597082Y84874972D01*
X187600456Y84862380D01*
X187604841Y84854312D01*
X187607359Y84847391D01*
X187608985Y84842233D01*
X187632718Y84753666D01*
X187671466Y84670570D01*
X187673537Y84665571D01*
X187676053Y84658659D01*
X187676426Y84652778D01*
X187681945Y84640942D01*
X187687672Y84633748D01*
X187691347Y84627380D01*
X187693837Y84622594D01*
X187719557Y84567440D01*
X187732586Y84539499D01*
X187785163Y84464412D01*
X187785183Y84464383D01*
X187788094Y84459813D01*
X187791767Y84453450D01*
X187793154Y84447728D01*
X187800635Y84437044D01*
X187807508Y84430970D01*
X187812235Y84425337D01*
X187815524Y84421050D01*
X187847906Y84374805D01*
X187868126Y84345928D01*
X187868128Y84345926D01*
X187932962Y84281092D01*
X187936618Y84277102D01*
X187941341Y84271475D01*
X187943704Y84266075D01*
X187952933Y84256846D01*
X187960761Y84252054D01*
X187966394Y84247327D01*
X187970369Y84243685D01*
X188035220Y84178834D01*
X188110340Y84126234D01*
X188114620Y84122951D01*
X188120256Y84118221D01*
X188123520Y84113316D01*
X188134208Y84105831D01*
X188142748Y84102472D01*
X188149117Y84098795D01*
X188153656Y84095904D01*
X188228791Y84043294D01*
X188311895Y84004542D01*
X188316683Y84002050D01*
X188319938Y84000171D01*
X188323053Y83998373D01*
X188327123Y83994106D01*
X188338957Y83988587D01*
X188347952Y83986761D01*
X188354861Y83984246D01*
X188359859Y83982176D01*
X188442958Y83943426D01*
X188442960Y83943425D01*
X188483086Y83932674D01*
X188531530Y83919694D01*
X188536677Y83918071D01*
X188543614Y83915546D01*
X188548355Y83912055D01*
X188560945Y83908682D01*
X188570113Y83908447D01*
X188573709Y83907812D01*
X188577379Y83907165D01*
X188582649Y83905997D01*
X188671213Y83882266D01*
X188762589Y83874272D01*
X188767881Y83873575D01*
X188775188Y83872286D01*
X188780458Y83869674D01*
X188793440Y83868538D01*
X188802512Y83869897D01*
X188809881Y83869897D01*
X188815284Y83869662D01*
X188869634Y83864906D01*
X188906620Y83861670D01*
X188906621Y83861670D01*
X188906622Y83861670D01*
X188943607Y83864906D01*
X188997957Y83869662D01*
X189003361Y83869897D01*
X189010728Y83869897D01*
X189016378Y83868238D01*
X189029364Y83869375D01*
X189038053Y83872286D01*
X189045373Y83873577D01*
X189050655Y83874272D01*
X189142029Y83882266D01*
X189230611Y83906002D01*
X189235846Y83907163D01*
X189243127Y83908446D01*
X189248980Y83907793D01*
X189261569Y83911167D01*
X189269628Y83915546D01*
X189276585Y83918078D01*
X189281698Y83919690D01*
X189354431Y83939179D01*
X189370281Y83943425D01*
X189370282Y83943426D01*
X189370284Y83943426D01*
X189453415Y83982192D01*
X189458378Y83984246D01*
X189465299Y83986766D01*
X189471175Y83987139D01*
X189483432Y83992854D01*
X189491044Y83998864D01*
X189490761Y83998704D01*
X189496552Y84002047D01*
X189501326Y84004533D01*
X189584451Y84043294D01*
X189659575Y84095897D01*
X189664104Y84098783D01*
X189670475Y84102462D01*
X189676204Y84103853D01*
X189686905Y84111346D01*
X189692977Y84118214D01*
X189698643Y84122969D01*
X189702876Y84126217D01*
X189778022Y84178834D01*
X189842883Y84243696D01*
X189846823Y84247307D01*
X189852472Y84252047D01*
X189857873Y84254411D01*
X189867104Y84263642D01*
X189871897Y84271471D01*
X189876639Y84277121D01*
X189880252Y84281065D01*
X189945116Y84345928D01*
X189997733Y84421074D01*
X190000981Y84425307D01*
X190005734Y84430972D01*
X190010635Y84434232D01*
X190018124Y84444927D01*
X190021485Y84453470D01*
X190025173Y84459855D01*
X190028059Y84464383D01*
X190080656Y84539499D01*
X190119414Y84622615D01*
X190121897Y84627386D01*
X190122613Y84628628D01*
X190125574Y84633757D01*
X190129840Y84637826D01*
X190135359Y84649661D01*
X190137185Y84658652D01*
X190137192Y84658671D01*
X190139711Y84665590D01*
X190141758Y84670535D01*
X190180524Y84753666D01*
X190204260Y84842252D01*
X190205872Y84847365D01*
X190208402Y84854317D01*
X190211893Y84859059D01*
X190215267Y84871649D01*
X190215504Y84880823D01*
X190216791Y84888118D01*
X190217948Y84893339D01*
X190241684Y84981921D01*
X190249678Y85073295D01*
X190250373Y85078580D01*
X190254053Y85099444D01*
X190254053Y85099457D01*
X190254301Y85100861D01*
X190254308Y85100910D01*
X190255527Y85107824D01*
X190254410Y85115869D01*
X190254701Y85129228D01*
X190254918Y85133189D01*
X190262280Y85217329D01*
X190254918Y85301466D01*
X190254701Y85305435D01*
X190254410Y85318790D01*
X190255945Y85324470D01*
X190254400Y85333234D01*
X190254392Y85333290D01*
X190254053Y85335214D01*
X190250373Y85356079D01*
X190249678Y85361367D01*
X190241684Y85452737D01*
X190217953Y85541305D01*
X190216785Y85546571D01*
X190215504Y85553836D01*
X190216156Y85559689D01*
X190212785Y85572274D01*
X190208404Y85580336D01*
X190205882Y85587265D01*
X190204254Y85592428D01*
X190181089Y85678885D01*
X190180527Y85680983D01*
X190180525Y85680987D01*
X190180524Y85680992D01*
X190141772Y85764095D01*
X190139704Y85769089D01*
X190137189Y85775998D01*
X190136814Y85781880D01*
X190131301Y85793704D01*
X190125581Y85800890D01*
X190121903Y85807262D01*
X190119410Y85812051D01*
X190080656Y85895158D01*
X190028054Y85970281D01*
X190025151Y85974840D01*
X190021479Y85981200D01*
X190021477Y85981203D01*
X190020088Y85986928D01*
X190012610Y85997609D01*
X190005731Y86003691D01*
X190000990Y86009341D01*
X189997710Y86013617D01*
X189945116Y86088730D01*
X189880265Y86153581D01*
X189876627Y86157552D01*
X189871896Y86163189D01*
X189869534Y86168587D01*
X189860311Y86177810D01*
X189852476Y86182608D01*
X189850753Y86184054D01*
X189846848Y86187332D01*
X189842858Y86190988D01*
X189778024Y86255822D01*
X189778024Y86255823D01*
X189778022Y86255824D01*
X189749145Y86276044D01*
X189702900Y86308426D01*
X189698613Y86311715D01*
X189692980Y86316442D01*
X189689718Y86321346D01*
X189679039Y86328823D01*
X189670500Y86332183D01*
X189666996Y86334206D01*
X189664131Y86335860D01*
X189659567Y86338767D01*
X189584451Y86391364D01*
X189556510Y86404393D01*
X189501356Y86430113D01*
X189496570Y86432603D01*
X189490202Y86436278D01*
X189486126Y86440551D01*
X189474290Y86446070D01*
X189465291Y86447897D01*
X189458379Y86450413D01*
X189453380Y86452484D01*
X189370284Y86491232D01*
X189281717Y86514965D01*
X189276559Y86516591D01*
X189269638Y86519109D01*
X189264890Y86522605D01*
X189252301Y86525978D01*
X189243127Y86526215D01*
X189235851Y86527497D01*
X189230568Y86528669D01*
X189142034Y86552391D01*
X189142024Y86552393D01*
X189050693Y86560384D01*
X189045330Y86561090D01*
X189038072Y86562370D01*
X189032798Y86564984D01*
X189019802Y86566121D01*
X189010731Y86564761D01*
X189003361Y86564761D01*
X188997957Y86564997D01*
X188943607Y86569753D01*
X188906622Y86572988D01*
X188906620Y86572988D01*
X188869634Y86569753D01*
X188815284Y86564997D01*
X188809881Y86564761D01*
X188802510Y86564761D01*
X188796859Y86566421D01*
X188783873Y86565284D01*
X188775178Y86562371D01*
X188767920Y86561091D01*
X188762552Y86560384D01*
X188671210Y86552392D01*
X188582670Y86528668D01*
X188577388Y86527497D01*
X188570112Y86526215D01*
X188564263Y86526868D01*
X188551675Y86523495D01*
X188543607Y86519111D01*
X188536692Y86516594D01*
X188531532Y86514967D01*
X188442957Y86491232D01*
X188359855Y86452482D01*
X188354859Y86450413D01*
X188347950Y86447898D01*
X188342069Y86447525D01*
X188330254Y86442015D01*
X188323075Y86436299D01*
X188316709Y86432623D01*
X188311905Y86430122D01*
X188228795Y86391367D01*
X188153679Y86338771D01*
X188149115Y86335863D01*
X188142750Y86332189D01*
X188137026Y86330801D01*
X188126330Y86323312D01*
X188120244Y86316427D01*
X188114618Y86311709D01*
X188110333Y86308420D01*
X188035219Y86255825D01*
X187970371Y86190977D01*
X187966370Y86187311D01*
X187960739Y86182589D01*
X187955351Y86180233D01*
X187946143Y86171025D01*
X187941361Y86163211D01*
X187936639Y86157580D01*
X187932973Y86153579D01*
X187868125Y86088730D01*
X187815529Y86013617D01*
X187812242Y86009333D01*
X187807525Y86003709D01*
X187802613Y86000441D01*
X187795121Y85989740D01*
X187791761Y85981200D01*
X187788087Y85974835D01*
X187785179Y85970271D01*
X187732583Y85895155D01*
X187693828Y85812045D01*
X187691327Y85807241D01*
X187687651Y85800875D01*
X187683387Y85796812D01*
X187677878Y85784997D01*
X187676052Y85776000D01*
X187673537Y85769091D01*
X187671468Y85764095D01*
X187632718Y85680993D01*
X187608986Y85592428D01*
X187607366Y85587289D01*
X187605166Y85581238D01*
X187604787Y85580199D01*
X187601319Y85575502D01*
X187597971Y85563004D01*
X187597735Y85553838D01*
X187596453Y85546562D01*
X187595282Y85541280D01*
X187571558Y85452740D01*
X187571558Y85452739D01*
X187563566Y85361404D01*
X187562861Y85356046D01*
X187561584Y85348794D01*
X187558966Y85343512D01*
X187557829Y85330506D01*
X187559188Y85321440D01*
X187559188Y85314071D01*
X187558952Y85308665D01*
X187550962Y85217333D01*
X187550962Y85217326D01*
X180951117Y85217326D01*
X183365002Y87631211D01*
X183434627Y87697470D01*
X183439227Y87701436D01*
X183662331Y87875295D01*
X183677492Y87885410D01*
X183916598Y88020659D01*
X183932987Y88028405D01*
X184188842Y88127142D01*
X184206212Y88132420D01*
X184474658Y88192922D01*
X184492730Y88195614D01*
X184776584Y88216679D01*
X184781173Y88216848D01*
X193197316Y88216848D01*
X193293374Y88214469D01*
X193299475Y88214016D01*
X193397063Y88201910D01*
X193580147Y88179198D01*
X193598012Y88175631D01*
X193862725Y88102193D01*
X193879791Y88096082D01*
X194130522Y87984984D01*
X194146538Y87976433D01*
X194296253Y87881791D01*
X194379141Y87829393D01*
X194393834Y87818509D01*
X194609441Y87632694D01*
X194612796Y87629577D01*
X199439622Y82802752D01*
X199505883Y82733124D01*
X199509862Y82728507D01*
X199647362Y82552063D01*
X199683703Y82505429D01*
X199693825Y82490260D01*
X199829076Y82251154D01*
X199836828Y82234753D01*
X199843794Y82216704D01*
X199935558Y81978919D01*
X199940839Y81961539D01*
X200001342Y81693099D01*
X200004036Y81675013D01*
X200025102Y81391166D01*
X200025272Y81386575D01*
X200024876Y6844040D01*
X200022492Y6747980D01*
X200022039Y6741881D01*
X199987220Y6461219D01*
X199983650Y6443336D01*
X199910214Y6178643D01*
X199904096Y6161558D01*
X199792999Y5910836D01*
X199784443Y5894812D01*
X199637405Y5662217D01*
X199626521Y5647524D01*
X199440713Y5431929D01*
X199437587Y5428563D01*
X194610687Y601764D01*
X194541095Y535541D01*
X194536461Y531547D01*
X194313376Y357708D01*
X194298208Y347588D01*
X194059119Y212349D01*
X194042711Y204594D01*
X193786862Y105863D01*
X193769481Y100582D01*
X193501052Y40088D01*
X193482966Y37394D01*
X193199120Y16333D01*
X193194530Y16163D01*
X184778388Y16249D01*
X184682327Y18632D01*
X184676227Y19085D01*
X184395566Y53905D01*
X184377683Y57475D01*
X184112989Y130910D01*
X184095904Y137028D01*
X183845183Y248125D01*
X183829159Y256681D01*
X183596564Y403719D01*
X183581871Y414603D01*
X183579712Y416464D01*
X183366268Y600420D01*
X183362912Y603536D01*
X180950780Y3015720D01*
X187550962Y3015720D01*
X187558951Y2924396D01*
X187559187Y2919003D01*
X187559189Y2911641D01*
X187557528Y2905981D01*
X187558667Y2892966D01*
X187561580Y2884272D01*
X187562860Y2877014D01*
X187563566Y2871651D01*
X187571557Y2780320D01*
X187571559Y2780310D01*
X187595281Y2691776D01*
X187596453Y2686493D01*
X187597735Y2679217D01*
X187597082Y2673366D01*
X187600456Y2660774D01*
X187604841Y2652706D01*
X187607359Y2645785D01*
X187608985Y2640627D01*
X187632718Y2552060D01*
X187671466Y2468964D01*
X187673537Y2463965D01*
X187676053Y2457053D01*
X187676426Y2451172D01*
X187681945Y2439336D01*
X187687672Y2432142D01*
X187691347Y2425774D01*
X187693837Y2420988D01*
X187719557Y2365834D01*
X187732586Y2337893D01*
X187732913Y2337426D01*
X187785183Y2262777D01*
X187788094Y2258207D01*
X187791767Y2251844D01*
X187793154Y2246122D01*
X187800635Y2235438D01*
X187807508Y2229364D01*
X187812235Y2223731D01*
X187815524Y2219444D01*
X187847906Y2173199D01*
X187868126Y2144322D01*
X187868128Y2144321D01*
X187868128Y2144320D01*
X187932962Y2079486D01*
X187936618Y2075496D01*
X187941341Y2069869D01*
X187943704Y2064469D01*
X187952933Y2055240D01*
X187960761Y2050448D01*
X187966394Y2045721D01*
X187970369Y2042079D01*
X188008547Y2003901D01*
X188035221Y1977227D01*
X188035618Y1976949D01*
X188110340Y1924628D01*
X188114620Y1921345D01*
X188120256Y1916615D01*
X188123520Y1911710D01*
X188134208Y1904225D01*
X188142747Y1900867D01*
X188143222Y1900592D01*
X188149117Y1897189D01*
X188153660Y1894295D01*
X188228791Y1841688D01*
X188311895Y1802936D01*
X188316683Y1800444D01*
X188319938Y1798565D01*
X188323053Y1796767D01*
X188327123Y1792500D01*
X188338957Y1786981D01*
X188347952Y1785155D01*
X188354861Y1782640D01*
X188359855Y1780572D01*
X188388372Y1767274D01*
X188442958Y1741820D01*
X188442960Y1741819D01*
X188483086Y1731068D01*
X188531530Y1718088D01*
X188536677Y1716465D01*
X188543614Y1713940D01*
X188548355Y1710449D01*
X188560945Y1707076D01*
X188570113Y1706841D01*
X188570329Y1706802D01*
X188577379Y1705559D01*
X188582649Y1704391D01*
X188671213Y1680660D01*
X188762589Y1672666D01*
X188767881Y1671969D01*
X188775188Y1670680D01*
X188780458Y1668068D01*
X188793440Y1666932D01*
X188802512Y1668291D01*
X188809881Y1668291D01*
X188815284Y1668056D01*
X188839357Y1665949D01*
X188906620Y1660064D01*
X188906621Y1660064D01*
X188906622Y1660064D01*
X188973885Y1665949D01*
X188997957Y1668056D01*
X189003361Y1668291D01*
X189010728Y1668291D01*
X189016378Y1666632D01*
X189029364Y1667769D01*
X189038053Y1670680D01*
X189045373Y1671971D01*
X189050655Y1672666D01*
X189142029Y1680660D01*
X189230611Y1704396D01*
X189235846Y1705557D01*
X189243127Y1706840D01*
X189248980Y1706187D01*
X189261569Y1709561D01*
X189269628Y1713940D01*
X189276585Y1716472D01*
X189281698Y1718084D01*
X189369258Y1741545D01*
X189370281Y1741819D01*
X189370282Y1741820D01*
X189370284Y1741820D01*
X189453415Y1780586D01*
X189458378Y1782640D01*
X189465299Y1785160D01*
X189471175Y1785533D01*
X189483005Y1791049D01*
X189490189Y1796767D01*
X189495322Y1799731D01*
X189496564Y1800447D01*
X189501337Y1802932D01*
X189584451Y1841688D01*
X189659575Y1894291D01*
X189664104Y1897177D01*
X189670475Y1900856D01*
X189676204Y1902247D01*
X189686905Y1909740D01*
X189692977Y1916608D01*
X189698643Y1921363D01*
X189702876Y1924611D01*
X189778022Y1977228D01*
X189842883Y2042090D01*
X189846823Y2045701D01*
X189852472Y2050441D01*
X189857873Y2052805D01*
X189867104Y2062036D01*
X189871897Y2069865D01*
X189876638Y2075514D01*
X189880252Y2079459D01*
X189945116Y2144322D01*
X189997733Y2219468D01*
X190000981Y2223701D01*
X190005734Y2229366D01*
X190010635Y2232626D01*
X190018124Y2243321D01*
X190021485Y2251864D01*
X190025167Y2258240D01*
X190028059Y2262777D01*
X190080656Y2337893D01*
X190119412Y2421007D01*
X190121897Y2425780D01*
X190122613Y2427022D01*
X190125574Y2432151D01*
X190129840Y2436220D01*
X190135359Y2448055D01*
X190137185Y2457046D01*
X190137188Y2457053D01*
X190139706Y2463972D01*
X190141758Y2468929D01*
X190180524Y2552060D01*
X190204259Y2640645D01*
X190205877Y2645773D01*
X190208402Y2652711D01*
X190211893Y2657453D01*
X190215267Y2670043D01*
X190215504Y2679217D01*
X190216787Y2686498D01*
X190217948Y2691733D01*
X190241684Y2780315D01*
X190249678Y2871689D01*
X190250373Y2876974D01*
X190254053Y2897838D01*
X190254053Y2897851D01*
X190254301Y2899255D01*
X190254308Y2899304D01*
X190255527Y2906218D01*
X190254410Y2914263D01*
X190254701Y2927622D01*
X190254918Y2931583D01*
X190262280Y3015723D01*
X190254918Y3099860D01*
X190254701Y3103829D01*
X190254410Y3117184D01*
X190255945Y3122864D01*
X190254400Y3131628D01*
X190254392Y3131684D01*
X190254053Y3133608D01*
X190250373Y3154473D01*
X190249678Y3159761D01*
X190241684Y3251131D01*
X190217953Y3339695D01*
X190216785Y3344965D01*
X190215504Y3352230D01*
X190216156Y3358083D01*
X190212785Y3370668D01*
X190208404Y3378730D01*
X190205879Y3385667D01*
X190204256Y3390814D01*
X190192682Y3434011D01*
X190180527Y3479377D01*
X190180525Y3479381D01*
X190180524Y3479386D01*
X190141772Y3562489D01*
X190139704Y3567483D01*
X190137189Y3574392D01*
X190136814Y3580274D01*
X190131301Y3592098D01*
X190125581Y3599284D01*
X190121903Y3605656D01*
X190119410Y3610445D01*
X190080656Y3693552D01*
X190028054Y3768675D01*
X190025151Y3773234D01*
X190023772Y3775623D01*
X190021477Y3779597D01*
X190020088Y3785322D01*
X190012605Y3796009D01*
X190005721Y3802098D01*
X190000989Y3807736D01*
X189997710Y3812011D01*
X189945116Y3887124D01*
X189880265Y3951975D01*
X189876627Y3955946D01*
X189871896Y3961583D01*
X189869534Y3966981D01*
X189860311Y3976204D01*
X189852476Y3981002D01*
X189850753Y3982448D01*
X189846848Y3985726D01*
X189842858Y3989382D01*
X189778022Y4054218D01*
X189772929Y4057784D01*
X189702886Y4106829D01*
X189698612Y4110110D01*
X189694573Y4113499D01*
X189693140Y4114702D01*
X189693048Y4114779D01*
X189692946Y4114865D01*
X189689694Y4119757D01*
X189679039Y4127217D01*
X189670500Y4130577D01*
X189664600Y4133983D01*
X189664131Y4134254D01*
X189659567Y4137161D01*
X189584451Y4189758D01*
X189556510Y4202787D01*
X189501356Y4228507D01*
X189496570Y4230997D01*
X189490202Y4234672D01*
X189486126Y4238945D01*
X189474290Y4244464D01*
X189465291Y4246291D01*
X189458379Y4248807D01*
X189453380Y4250878D01*
X189370284Y4289626D01*
X189281717Y4313359D01*
X189276559Y4314985D01*
X189269638Y4317503D01*
X189264890Y4320999D01*
X189252301Y4324372D01*
X189243127Y4324609D01*
X189235851Y4325891D01*
X189230568Y4327063D01*
X189142034Y4350785D01*
X189142024Y4350787D01*
X189050693Y4358778D01*
X189045330Y4359484D01*
X189038072Y4360764D01*
X189032798Y4363378D01*
X189019802Y4364515D01*
X189010731Y4363155D01*
X189003361Y4363155D01*
X188997957Y4363391D01*
X188943607Y4368147D01*
X188906622Y4371382D01*
X188906620Y4371382D01*
X188869634Y4368147D01*
X188815284Y4363391D01*
X188809881Y4363155D01*
X188802510Y4363155D01*
X188796859Y4364815D01*
X188783873Y4363678D01*
X188775178Y4360765D01*
X188767920Y4359485D01*
X188762552Y4358778D01*
X188671210Y4350786D01*
X188582670Y4327062D01*
X188577388Y4325891D01*
X188570112Y4324609D01*
X188564263Y4325262D01*
X188551675Y4321889D01*
X188543607Y4317505D01*
X188536692Y4314988D01*
X188531532Y4313361D01*
X188442957Y4289626D01*
X188359855Y4250876D01*
X188354859Y4248807D01*
X188347950Y4246292D01*
X188342069Y4245919D01*
X188330254Y4240409D01*
X188323075Y4234693D01*
X188316709Y4231017D01*
X188311905Y4228516D01*
X188228795Y4189761D01*
X188153679Y4137165D01*
X188149115Y4134257D01*
X188142750Y4130583D01*
X188137026Y4129195D01*
X188126330Y4121706D01*
X188120244Y4114821D01*
X188114618Y4110103D01*
X188110333Y4106814D01*
X188035219Y4054219D01*
X187970371Y3989371D01*
X187966370Y3985705D01*
X187960739Y3980983D01*
X187955351Y3978627D01*
X187946143Y3969419D01*
X187941361Y3961605D01*
X187936639Y3955974D01*
X187932973Y3951973D01*
X187868125Y3887124D01*
X187815529Y3812011D01*
X187812242Y3807727D01*
X187807525Y3802103D01*
X187802613Y3798835D01*
X187795121Y3788134D01*
X187791761Y3779594D01*
X187788087Y3773229D01*
X187785179Y3768665D01*
X187732583Y3693549D01*
X187693828Y3610439D01*
X187691327Y3605635D01*
X187687651Y3599269D01*
X187683387Y3595206D01*
X187677878Y3583391D01*
X187676052Y3574394D01*
X187673537Y3567485D01*
X187671468Y3562489D01*
X187632718Y3479387D01*
X187608989Y3390834D01*
X187607377Y3385717D01*
X187606109Y3382225D01*
X187604831Y3378714D01*
X187601340Y3373976D01*
X187597971Y3361398D01*
X187597735Y3352232D01*
X187596453Y3344956D01*
X187595282Y3339674D01*
X187571558Y3251134D01*
X187571558Y3251133D01*
X187563566Y3159798D01*
X187562861Y3154440D01*
X187561584Y3147188D01*
X187558966Y3141906D01*
X187557829Y3128900D01*
X187559188Y3119834D01*
X187559188Y3112465D01*
X187558952Y3107059D01*
X187550962Y3015727D01*
X187550962Y3015720D01*
X180950780Y3015720D01*
X178544480Y5422071D01*
X178542914Y5424025D01*
X178534768Y5431783D01*
X178529369Y5437182D01*
X178527515Y5438685D01*
X178465145Y5498041D01*
X178463004Y5500286D01*
X178460466Y5502080D01*
X178231360Y5680620D01*
X178230171Y5681591D01*
X178229815Y5681772D01*
X177976682Y5824960D01*
X177975032Y5825957D01*
X177973309Y5826573D01*
X177703689Y5930622D01*
X177702158Y5931259D01*
X177701725Y5931338D01*
X177435803Y5991271D01*
X177417230Y5995457D01*
X177415718Y5995836D01*
X177415294Y5995850D01*
X177144352Y6015957D01*
X177124256Y6017449D01*
X177122249Y6017727D01*
X177121731Y6017733D01*
X177118842Y6017841D01*
X177117022Y6017752D01*
X143080497Y6017801D01*
X143076735Y6018083D01*
X143072664Y6017879D01*
X143069564Y6017801D01*
X143068978Y6017801D01*
X143067219Y6017606D01*
X143066862Y6017587D01*
X142818562Y6005051D01*
X142815694Y6005043D01*
X142815578Y6005032D01*
X142812796Y6004489D01*
X142569270Y5967323D01*
X142567126Y5967064D01*
X142565051Y5966401D01*
X142211591Y5866142D01*
X142211207Y5866051D01*
X142209760Y5865354D01*
X141880735Y5716691D01*
X141879202Y5716041D01*
X141877800Y5715095D01*
X141575225Y5521175D01*
X141575011Y5521051D01*
X141574832Y5520882D01*
X141304447Y5286688D01*
X141302997Y5285501D01*
X141301851Y5284110D01*
X141068576Y5014788D01*
X141067308Y5013399D01*
X141066308Y5011737D01*
X140873378Y4710705D01*
X140872386Y4709240D01*
X140871733Y4707701D01*
X140723089Y4378721D01*
X140722364Y4377219D01*
X140722271Y4376827D01*
X140621926Y4023067D01*
X140621342Y4021205D01*
X140621098Y4019201D01*
X140583924Y3775623D01*
X140583381Y3772841D01*
X140583370Y3772725D01*
X140583362Y3769856D01*
X140570807Y3521200D01*
X140570611Y3519441D01*
X140570611Y3518849D01*
X140570532Y3515721D01*
X140559130Y3289997D01*
X140558246Y3282238D01*
X140501043Y2961314D01*
X140496436Y2943360D01*
X140395829Y2645773D01*
X140388737Y2628980D01*
X140247334Y2352771D01*
X140238018Y2337426D01*
X140059414Y2086213D01*
X140048101Y2072499D01*
X139835908Y1849934D01*
X139822770Y1837996D01*
X139580696Y1647793D01*
X139565878Y1637789D01*
X139297592Y1483587D01*
X139281256Y1475726D01*
X138990400Y1361127D01*
X138972791Y1355662D01*
X138662885Y1284241D01*
X138644394Y1281427D01*
X138311702Y1256255D01*
X138307022Y1256078D01*
X62016449Y1256078D01*
X62013326Y1256157D01*
X61951416Y1259284D01*
X61787602Y1267557D01*
X61779842Y1268441D01*
X61458915Y1325641D01*
X61440961Y1330248D01*
X61143371Y1430852D01*
X61126578Y1437944D01*
X60850373Y1579341D01*
X60835027Y1588656D01*
X60583792Y1767274D01*
X60570086Y1778582D01*
X60347525Y1990767D01*
X60335590Y2003901D01*
X60163102Y2223427D01*
X60145374Y2245990D01*
X60135372Y2260806D01*
X60134233Y2262787D01*
X59981167Y2529094D01*
X59973308Y2545427D01*
X59970801Y2551789D01*
X59858708Y2836284D01*
X59853243Y2853893D01*
X59847924Y2876974D01*
X59781820Y3163806D01*
X59779007Y3182292D01*
X59773819Y3250860D01*
X59753657Y3517362D01*
X59740924Y3769498D01*
X59740935Y3772748D01*
X59740295Y3775938D01*
X59713431Y3951963D01*
X59703208Y4018949D01*
X59702946Y4021174D01*
X59702299Y4023214D01*
X59637800Y4250602D01*
X59628126Y4284709D01*
X65524217Y4284709D01*
X65524405Y4281306D01*
X65524450Y4279651D01*
X65524834Y4277937D01*
X65524883Y4277677D01*
X65525506Y4275752D01*
X65568282Y4106822D01*
X65580699Y4057784D01*
X65581635Y4049603D01*
X65583431Y4045000D01*
X65584058Y4043033D01*
X65584953Y4041104D01*
X65584983Y4041031D01*
X65585702Y4039976D01*
X65585730Y4039932D01*
X65587026Y4038384D01*
X65590531Y4033689D01*
X65596920Y4028600D01*
X65754969Y3862753D01*
X65760510Y3855346D01*
X65761119Y3854794D01*
X65764236Y3852612D01*
X65765436Y3851724D01*
X65766738Y3851114D01*
X65771178Y3848895D01*
X65771197Y3848889D01*
X65780793Y3847464D01*
X66021040Y3780388D01*
X66023200Y3779634D01*
X66024991Y3779207D01*
X66026239Y3779159D01*
X66028664Y3779301D01*
X87454011Y3779301D01*
X87457793Y3779029D01*
X87461644Y3779222D01*
X87463050Y3779258D01*
X87464417Y3779564D01*
X87468187Y3780314D01*
X87471833Y3781523D01*
X87684390Y3835346D01*
X87692903Y3836275D01*
X87693032Y3836326D01*
X87697152Y3837620D01*
X87699448Y3838702D01*
X87701725Y3839670D01*
X87702823Y3840431D01*
X87704815Y3842109D01*
X87709002Y3845206D01*
X87714187Y3851715D01*
X87879608Y4009359D01*
X87887489Y4015194D01*
X87889910Y4018648D01*
X87891110Y4020243D01*
X87891946Y4022041D01*
X87893792Y4025684D01*
X87895243Y4035266D01*
X87896886Y4041152D01*
X87962350Y4275627D01*
X87963109Y4277776D01*
X87963604Y4279790D01*
X87963648Y4280897D01*
X87963498Y4283472D01*
X87963498Y4284709D01*
X89400110Y4284709D01*
X89400298Y4281306D01*
X89400343Y4279651D01*
X89400727Y4277937D01*
X89400776Y4277677D01*
X89401399Y4275752D01*
X89444175Y4106822D01*
X89456592Y4057784D01*
X89457528Y4049603D01*
X89459324Y4045000D01*
X89459951Y4043033D01*
X89460846Y4041104D01*
X89460876Y4041031D01*
X89461595Y4039976D01*
X89461623Y4039932D01*
X89462919Y4038384D01*
X89466424Y4033689D01*
X89472813Y4028600D01*
X89630862Y3862753D01*
X89636403Y3855346D01*
X89637012Y3854794D01*
X89640129Y3852612D01*
X89641329Y3851724D01*
X89642631Y3851114D01*
X89647071Y3848895D01*
X89647090Y3848889D01*
X89656686Y3847464D01*
X89896933Y3780388D01*
X89899093Y3779634D01*
X89900884Y3779207D01*
X89902132Y3779159D01*
X89904557Y3779301D01*
X110115904Y3779301D01*
X110119686Y3779029D01*
X110123537Y3779222D01*
X110124943Y3779258D01*
X110126310Y3779564D01*
X110130080Y3780314D01*
X110133726Y3781523D01*
X110346283Y3835346D01*
X110354796Y3836275D01*
X110354925Y3836326D01*
X110359045Y3837620D01*
X110361341Y3838702D01*
X110363618Y3839670D01*
X110364716Y3840431D01*
X110366708Y3842109D01*
X110370895Y3845206D01*
X110376080Y3851715D01*
X110541501Y4009359D01*
X110549382Y4015194D01*
X110551803Y4018648D01*
X110553003Y4020243D01*
X110553839Y4022041D01*
X110555685Y4025684D01*
X110557136Y4035266D01*
X110558779Y4041152D01*
X110624243Y4275627D01*
X110625002Y4277776D01*
X110625497Y4279790D01*
X110625541Y4280897D01*
X110625391Y4283472D01*
X110625391Y4284712D01*
X112062110Y4284712D01*
X112062298Y4281306D01*
X112062343Y4279651D01*
X112062727Y4277937D01*
X112062776Y4277677D01*
X112063399Y4275752D01*
X112106175Y4106822D01*
X112118592Y4057784D01*
X112119528Y4049603D01*
X112121324Y4045000D01*
X112121951Y4043033D01*
X112122846Y4041104D01*
X112122876Y4041031D01*
X112123595Y4039976D01*
X112123623Y4039932D01*
X112124919Y4038384D01*
X112128424Y4033689D01*
X112134813Y4028600D01*
X112292862Y3862753D01*
X112298403Y3855346D01*
X112299012Y3854794D01*
X112302129Y3852612D01*
X112303329Y3851724D01*
X112304631Y3851114D01*
X112309071Y3848895D01*
X112309090Y3848889D01*
X112318686Y3847464D01*
X112558933Y3780388D01*
X112561093Y3779634D01*
X112562884Y3779207D01*
X112564132Y3779159D01*
X112566557Y3779301D01*
X133991904Y3779301D01*
X133995686Y3779029D01*
X133999537Y3779222D01*
X134000943Y3779258D01*
X134002310Y3779564D01*
X134006080Y3780314D01*
X134009726Y3781523D01*
X134222283Y3835346D01*
X134230796Y3836275D01*
X134230925Y3836326D01*
X134235045Y3837620D01*
X134237341Y3838702D01*
X134239618Y3839670D01*
X134240716Y3840431D01*
X134242708Y3842109D01*
X134246895Y3845206D01*
X134252080Y3851715D01*
X134417501Y4009359D01*
X134425382Y4015194D01*
X134427803Y4018648D01*
X134429003Y4020243D01*
X134429839Y4022041D01*
X134431685Y4025684D01*
X134433136Y4035266D01*
X134434779Y4041152D01*
X134500243Y4275627D01*
X134501002Y4277776D01*
X134501497Y4279790D01*
X134501541Y4280897D01*
X134501391Y4283472D01*
X134501391Y9047360D01*
X145399610Y9047360D01*
X145399798Y9043954D01*
X145399843Y9042299D01*
X145400227Y9040585D01*
X145400276Y9040325D01*
X145400899Y9038400D01*
X145456092Y8820432D01*
X145457028Y8812251D01*
X145458824Y8807648D01*
X145459451Y8805681D01*
X145460346Y8803752D01*
X145460376Y8803679D01*
X145461095Y8802624D01*
X145461123Y8802580D01*
X145462419Y8801032D01*
X145465924Y8796337D01*
X145472313Y8791248D01*
X145630362Y8625401D01*
X145635903Y8617994D01*
X145636512Y8617442D01*
X145639629Y8615260D01*
X145640829Y8614372D01*
X145642131Y8613762D01*
X145646571Y8611543D01*
X145646590Y8611537D01*
X145656186Y8610112D01*
X145896433Y8543036D01*
X145898593Y8542282D01*
X145900384Y8541855D01*
X145901632Y8541807D01*
X145904057Y8541949D01*
X158891404Y8541949D01*
X158895186Y8541677D01*
X158899037Y8541870D01*
X158900443Y8541906D01*
X158901810Y8542212D01*
X158905580Y8542962D01*
X158909226Y8544171D01*
X159121783Y8597994D01*
X159130296Y8598923D01*
X159130425Y8598974D01*
X159134545Y8600268D01*
X159136841Y8601350D01*
X159139118Y8602318D01*
X159140216Y8603079D01*
X159142208Y8604757D01*
X159146395Y8607854D01*
X159151580Y8614363D01*
X159317001Y8772007D01*
X159324882Y8777842D01*
X159327303Y8781296D01*
X159328503Y8782891D01*
X159329339Y8784689D01*
X159331185Y8788332D01*
X159332636Y8797914D01*
X159334279Y8803800D01*
X159399743Y9038275D01*
X159400500Y9040420D01*
X159400976Y9042355D01*
X159401044Y9044216D01*
X159400890Y9046569D01*
X159400890Y9047360D01*
X164449610Y9047360D01*
X164449798Y9043954D01*
X164449843Y9042299D01*
X164450227Y9040585D01*
X164450276Y9040325D01*
X164450899Y9038400D01*
X164506092Y8820432D01*
X164507028Y8812251D01*
X164508824Y8807648D01*
X164509451Y8805681D01*
X164510346Y8803752D01*
X164510376Y8803679D01*
X164511095Y8802624D01*
X164511123Y8802580D01*
X164512419Y8801032D01*
X164515924Y8796337D01*
X164522313Y8791248D01*
X164680362Y8625401D01*
X164685903Y8617994D01*
X164686512Y8617442D01*
X164689629Y8615260D01*
X164690829Y8614372D01*
X164692131Y8613762D01*
X164696571Y8611543D01*
X164696590Y8611537D01*
X164706186Y8610112D01*
X164946433Y8543036D01*
X164948593Y8542282D01*
X164950384Y8541855D01*
X164951632Y8541807D01*
X164954057Y8541949D01*
X177941404Y8541949D01*
X177945186Y8541677D01*
X177949037Y8541870D01*
X177950443Y8541906D01*
X177951810Y8542212D01*
X177955580Y8542962D01*
X177959226Y8544171D01*
X178171783Y8597994D01*
X178180296Y8598923D01*
X178180425Y8598974D01*
X178184545Y8600268D01*
X178186841Y8601350D01*
X178189118Y8602318D01*
X178190216Y8603079D01*
X178192208Y8604757D01*
X178196395Y8607854D01*
X178201580Y8614363D01*
X178367001Y8772007D01*
X178374882Y8777842D01*
X178377303Y8781296D01*
X178378503Y8782891D01*
X178379339Y8784689D01*
X178381185Y8788332D01*
X178382636Y8797914D01*
X178384279Y8803800D01*
X178449743Y9038275D01*
X178450500Y9040420D01*
X178450976Y9042355D01*
X178451044Y9044216D01*
X178450890Y9046569D01*
X178450890Y9047357D01*
X183499217Y9047357D01*
X183499405Y9043954D01*
X183499450Y9042299D01*
X183499834Y9040585D01*
X183499883Y9040325D01*
X183500506Y9038400D01*
X183555699Y8820432D01*
X183556635Y8812251D01*
X183558431Y8807648D01*
X183559058Y8805681D01*
X183559953Y8803752D01*
X183559983Y8803679D01*
X183560702Y8802624D01*
X183560730Y8802580D01*
X183562026Y8801032D01*
X183565531Y8796337D01*
X183571920Y8791248D01*
X183729969Y8625401D01*
X183735510Y8617994D01*
X183736119Y8617442D01*
X183739236Y8615260D01*
X183740436Y8614372D01*
X183741738Y8613762D01*
X183746178Y8611543D01*
X183746197Y8611537D01*
X183755793Y8610112D01*
X183996040Y8543036D01*
X183998200Y8542282D01*
X183999991Y8541855D01*
X184001239Y8541807D01*
X184003664Y8541949D01*
X196991011Y8541949D01*
X196994793Y8541677D01*
X196998644Y8541870D01*
X197000050Y8541906D01*
X197001417Y8542212D01*
X197005187Y8542962D01*
X197008833Y8544171D01*
X197221390Y8597994D01*
X197229903Y8598923D01*
X197230032Y8598974D01*
X197234152Y8600268D01*
X197236448Y8601350D01*
X197238725Y8602318D01*
X197239823Y8603079D01*
X197241815Y8604757D01*
X197246002Y8607854D01*
X197251187Y8614363D01*
X197416608Y8772007D01*
X197424489Y8777842D01*
X197426910Y8781296D01*
X197428110Y8782891D01*
X197428946Y8784689D01*
X197430792Y8788332D01*
X197432243Y8797914D01*
X197433886Y8803800D01*
X197499350Y9038275D01*
X197500109Y9040424D01*
X197500604Y9042438D01*
X197500648Y9043545D01*
X197500498Y9046120D01*
X197500498Y22033462D01*
X197500770Y22037243D01*
X197500577Y22041094D01*
X197500541Y22042495D01*
X197500244Y22043816D01*
X197499445Y22047811D01*
X197498236Y22051441D01*
X197444596Y22263278D01*
X197443715Y22271711D01*
X197441587Y22277179D01*
X197440758Y22279798D01*
X197440203Y22281117D01*
X197439814Y22281683D01*
X197437893Y22283970D01*
X197434532Y22288473D01*
X197428167Y22293553D01*
X197270898Y22458582D01*
X197265513Y22465935D01*
X197263745Y22467537D01*
X197260748Y22469645D01*
X197259567Y22470524D01*
X197258236Y22471156D01*
X197254873Y22472860D01*
X197254020Y22473166D01*
X197244997Y22474567D01*
X197003798Y22541908D01*
X197001560Y22542682D01*
X197000040Y22543043D01*
X196998755Y22543092D01*
X196996331Y22542949D01*
X184008985Y22542949D01*
X184005202Y22543222D01*
X184001352Y22543028D01*
X183999849Y22542990D01*
X183998242Y22542638D01*
X183998039Y22542600D01*
X183996106Y22541981D01*
X183778522Y22486886D01*
X183770430Y22485997D01*
X183764714Y22483806D01*
X183762664Y22483148D01*
X183761385Y22482591D01*
X183760550Y22482028D01*
X183758850Y22480607D01*
X183753861Y22476848D01*
X183748887Y22470615D01*
X183583388Y22312898D01*
X183576607Y22307877D01*
X183574481Y22305183D01*
X183573168Y22303724D01*
X183571945Y22301983D01*
X183570820Y22299727D01*
X183570184Y22297957D01*
X183569047Y22295372D01*
X183567790Y22287129D01*
X183500494Y22046089D01*
X183499702Y22043780D01*
X183499407Y22042533D01*
X183499355Y22041130D01*
X183499498Y22038731D01*
X183499498Y9051299D01*
X183499217Y9047357D01*
X178450890Y9047357D01*
X178450890Y9051299D01*
X178450890Y22033476D01*
X178451163Y22037248D01*
X178450970Y22041094D01*
X178450934Y22042495D01*
X178450637Y22043816D01*
X178449838Y22047811D01*
X178448629Y22051441D01*
X178394989Y22263278D01*
X178394108Y22271711D01*
X178391980Y22277179D01*
X178391151Y22279798D01*
X178390596Y22281117D01*
X178390207Y22281683D01*
X178388286Y22283970D01*
X178384925Y22288473D01*
X178378560Y22293553D01*
X178221291Y22458582D01*
X178215906Y22465935D01*
X178214138Y22467537D01*
X178211141Y22469645D01*
X178209960Y22470524D01*
X178208629Y22471156D01*
X178205266Y22472860D01*
X178204413Y22473166D01*
X178195390Y22474567D01*
X177954191Y22541908D01*
X177951953Y22542682D01*
X177950433Y22543043D01*
X177949148Y22543092D01*
X177946724Y22542949D01*
X164959378Y22542949D01*
X164955595Y22543222D01*
X164951745Y22543028D01*
X164950242Y22542990D01*
X164948635Y22542638D01*
X164948432Y22542600D01*
X164946499Y22541981D01*
X164728915Y22486886D01*
X164720823Y22485997D01*
X164715107Y22483806D01*
X164713057Y22483148D01*
X164711778Y22482591D01*
X164710943Y22482028D01*
X164709243Y22480607D01*
X164704254Y22476848D01*
X164699280Y22470615D01*
X164533781Y22312898D01*
X164527000Y22307877D01*
X164524874Y22305183D01*
X164523561Y22303724D01*
X164522338Y22301983D01*
X164521213Y22299727D01*
X164520577Y22297957D01*
X164519440Y22295372D01*
X164518183Y22287129D01*
X164450887Y22046089D01*
X164450096Y22043784D01*
X164449779Y22042437D01*
X164449753Y22041811D01*
X164449890Y22039186D01*
X164449890Y9051299D01*
X164449610Y9047360D01*
X159400890Y9047360D01*
X159400890Y9051299D01*
X159400890Y22033476D01*
X159401163Y22037248D01*
X159400970Y22041094D01*
X159400934Y22042495D01*
X159400637Y22043816D01*
X159399838Y22047811D01*
X159398629Y22051441D01*
X159344989Y22263278D01*
X159344108Y22271711D01*
X159341980Y22277179D01*
X159341151Y22279798D01*
X159340596Y22281117D01*
X159340207Y22281683D01*
X159338286Y22283970D01*
X159334925Y22288473D01*
X159328560Y22293553D01*
X159171291Y22458582D01*
X159165906Y22465935D01*
X159164138Y22467537D01*
X159161141Y22469645D01*
X159159960Y22470524D01*
X159158629Y22471156D01*
X159155266Y22472860D01*
X159154413Y22473166D01*
X159145390Y22474567D01*
X158904191Y22541908D01*
X158901953Y22542682D01*
X158900433Y22543043D01*
X158899148Y22543092D01*
X158896724Y22542949D01*
X145909378Y22542949D01*
X145905595Y22543222D01*
X145901745Y22543028D01*
X145900242Y22542990D01*
X145898635Y22542638D01*
X145898432Y22542600D01*
X145896499Y22541981D01*
X145678915Y22486886D01*
X145670823Y22485997D01*
X145665107Y22483806D01*
X145663057Y22483148D01*
X145661778Y22482591D01*
X145660943Y22482028D01*
X145659243Y22480607D01*
X145654254Y22476848D01*
X145649280Y22470615D01*
X145483781Y22312898D01*
X145477000Y22307877D01*
X145474874Y22305183D01*
X145473561Y22303724D01*
X145472338Y22301983D01*
X145471213Y22299727D01*
X145470577Y22297957D01*
X145469440Y22295372D01*
X145468183Y22287129D01*
X145400887Y22046089D01*
X145400096Y22043784D01*
X145399779Y22042437D01*
X145399753Y22041811D01*
X145399890Y22039186D01*
X145399890Y9051299D01*
X145399610Y9047360D01*
X134501391Y9047360D01*
X134501391Y19270814D01*
X134501663Y19274595D01*
X134501470Y19278446D01*
X134501434Y19279847D01*
X134501137Y19281168D01*
X134500338Y19285163D01*
X134499129Y19288793D01*
X134445489Y19500630D01*
X134444608Y19509063D01*
X134442480Y19514531D01*
X134441651Y19517150D01*
X134441096Y19518469D01*
X134440707Y19519035D01*
X134438786Y19521322D01*
X134435425Y19525825D01*
X134429060Y19530905D01*
X134271791Y19695934D01*
X134266406Y19703287D01*
X134264638Y19704889D01*
X134261641Y19706997D01*
X134260460Y19707876D01*
X134259129Y19708508D01*
X134255766Y19710212D01*
X134254912Y19710518D01*
X134245890Y19711919D01*
X134004604Y19779284D01*
X134001537Y19780340D01*
X134000891Y19780342D01*
X134000890Y19780342D01*
X133992474Y19780363D01*
X133984475Y19778284D01*
X133976208Y19777265D01*
X133975908Y19779693D01*
X133959210Y19775301D01*
X125596878Y19775301D01*
X125593095Y19775574D01*
X125589245Y19775380D01*
X125587742Y19775342D01*
X125586135Y19774990D01*
X125585932Y19774952D01*
X125583999Y19774333D01*
X125366415Y19719238D01*
X125358323Y19718349D01*
X125352607Y19716158D01*
X125350557Y19715500D01*
X125349278Y19714943D01*
X125348443Y19714380D01*
X125346743Y19712959D01*
X125341754Y19709200D01*
X125336780Y19702967D01*
X125171281Y19545250D01*
X125164500Y19540229D01*
X125162374Y19537535D01*
X125161061Y19536076D01*
X125159838Y19534335D01*
X125158713Y19532079D01*
X125158077Y19530309D01*
X125156940Y19527724D01*
X125155683Y19519481D01*
X125088387Y19278441D01*
X125087595Y19276132D01*
X125087300Y19274885D01*
X125087247Y19273472D01*
X125087390Y19271077D01*
X125087390Y18295318D01*
X125083596Y18264880D01*
X125035078Y18073270D01*
X125004638Y18018163D01*
X125001913Y18015303D01*
X124870438Y17877341D01*
X124814018Y17843455D01*
X124687562Y17808149D01*
X124604182Y17784869D01*
X124570838Y17780301D01*
X112571878Y17780301D01*
X112568095Y17780574D01*
X112564245Y17780380D01*
X112562742Y17780342D01*
X112561135Y17779990D01*
X112560932Y17779952D01*
X112558999Y17779333D01*
X112341415Y17724238D01*
X112333323Y17723349D01*
X112327607Y17721158D01*
X112325557Y17720500D01*
X112324278Y17719943D01*
X112323443Y17719380D01*
X112321743Y17717959D01*
X112316754Y17714200D01*
X112311780Y17707967D01*
X112146281Y17550250D01*
X112139500Y17545229D01*
X112137374Y17542535D01*
X112136061Y17541076D01*
X112134838Y17539335D01*
X112133713Y17537079D01*
X112133077Y17535309D01*
X112131940Y17532724D01*
X112130683Y17524481D01*
X112063387Y17283441D01*
X112062596Y17281136D01*
X112062279Y17279789D01*
X112062253Y17279163D01*
X112062390Y17276538D01*
X112062390Y4288651D01*
X112062110Y4284712D01*
X110625391Y4284712D01*
X110625391Y19270814D01*
X110625663Y19274595D01*
X110625470Y19278446D01*
X110625434Y19279847D01*
X110625137Y19281168D01*
X110624338Y19285163D01*
X110623129Y19288793D01*
X110569489Y19500630D01*
X110568608Y19509063D01*
X110566480Y19514531D01*
X110565651Y19517150D01*
X110565096Y19518469D01*
X110564707Y19519035D01*
X110562786Y19521322D01*
X110559425Y19525825D01*
X110553060Y19530905D01*
X110395791Y19695934D01*
X110390406Y19703287D01*
X110388638Y19704889D01*
X110385641Y19706997D01*
X110384460Y19707876D01*
X110383129Y19708508D01*
X110379766Y19710212D01*
X110378913Y19710518D01*
X110369890Y19711919D01*
X110128691Y19779260D01*
X110126453Y19780034D01*
X110124933Y19780395D01*
X110123648Y19780444D01*
X110121224Y19780301D01*
X104133878Y19780301D01*
X104130095Y19780574D01*
X104126245Y19780380D01*
X104124742Y19780342D01*
X104123135Y19779990D01*
X104122932Y19779952D01*
X104120999Y19779333D01*
X103903415Y19724238D01*
X103895323Y19723349D01*
X103889607Y19721158D01*
X103887557Y19720500D01*
X103886278Y19719943D01*
X103885443Y19719380D01*
X103883743Y19717959D01*
X103878754Y19714200D01*
X103873780Y19707967D01*
X103708281Y19550250D01*
X103701500Y19545229D01*
X103699374Y19542535D01*
X103698061Y19541076D01*
X103696838Y19539335D01*
X103695713Y19537079D01*
X103695077Y19535309D01*
X103693940Y19532724D01*
X103692683Y19524481D01*
X103625387Y19283441D01*
X103624595Y19281132D01*
X103624300Y19279885D01*
X103624248Y19278482D01*
X103624391Y19276083D01*
X103624391Y18290318D01*
X103620597Y18259880D01*
X103572078Y18068270D01*
X103541638Y18013162D01*
X103407438Y17872341D01*
X103351018Y17838455D01*
X103224562Y17803149D01*
X103141182Y17779869D01*
X103107838Y17775301D01*
X96916407Y17775301D01*
X96885969Y17779095D01*
X96694357Y17827614D01*
X96639250Y17858054D01*
X96498428Y17992254D01*
X96464543Y18048672D01*
X96405958Y18258513D01*
X96401391Y18291857D01*
X96401391Y19270814D01*
X96401663Y19274595D01*
X96401470Y19278446D01*
X96401434Y19279847D01*
X96401137Y19281168D01*
X96400338Y19285163D01*
X96399129Y19288793D01*
X96345489Y19500630D01*
X96344608Y19509063D01*
X96342480Y19514531D01*
X96341651Y19517150D01*
X96341096Y19518469D01*
X96340707Y19519035D01*
X96338786Y19521322D01*
X96335425Y19525825D01*
X96329060Y19530905D01*
X96171791Y19695934D01*
X96166406Y19703287D01*
X96164638Y19704889D01*
X96161641Y19706997D01*
X96160460Y19707876D01*
X96159129Y19708508D01*
X96155766Y19710212D01*
X96154913Y19710518D01*
X96145890Y19711919D01*
X95904691Y19779260D01*
X95902453Y19780034D01*
X95900933Y19780395D01*
X95899648Y19780444D01*
X95897224Y19780301D01*
X89909878Y19780301D01*
X89906095Y19780574D01*
X89902245Y19780380D01*
X89900742Y19780342D01*
X89899135Y19779990D01*
X89898932Y19779952D01*
X89896999Y19779333D01*
X89679415Y19724238D01*
X89671323Y19723349D01*
X89665607Y19721158D01*
X89663557Y19720500D01*
X89662278Y19719943D01*
X89661443Y19719380D01*
X89659743Y19717959D01*
X89654754Y19714200D01*
X89649780Y19707967D01*
X89484281Y19550250D01*
X89477500Y19545229D01*
X89475374Y19542535D01*
X89474061Y19541076D01*
X89472838Y19539335D01*
X89471713Y19537079D01*
X89471077Y19535309D01*
X89469940Y19532724D01*
X89468683Y19524481D01*
X89401387Y19283441D01*
X89400595Y19281132D01*
X89400300Y19279885D01*
X89400248Y19278482D01*
X89400391Y19276083D01*
X89400391Y4288651D01*
X89400110Y4284709D01*
X87963498Y4284709D01*
X87963498Y17270814D01*
X87963770Y17274595D01*
X87963577Y17278446D01*
X87963541Y17279847D01*
X87963244Y17281168D01*
X87962445Y17285163D01*
X87961236Y17288793D01*
X87907596Y17500630D01*
X87906715Y17509063D01*
X87904587Y17514531D01*
X87903758Y17517150D01*
X87903203Y17518469D01*
X87902814Y17519035D01*
X87900893Y17521322D01*
X87897532Y17525825D01*
X87891167Y17530905D01*
X87733898Y17695934D01*
X87728513Y17703287D01*
X87726745Y17704889D01*
X87723748Y17706997D01*
X87722567Y17707876D01*
X87721236Y17708508D01*
X87717873Y17710212D01*
X87717020Y17710518D01*
X87707997Y17711919D01*
X87466798Y17779260D01*
X87464560Y17780034D01*
X87463040Y17780395D01*
X87461755Y17780444D01*
X87459331Y17780301D01*
X75453514Y17780301D01*
X75423076Y17784095D01*
X75231464Y17832614D01*
X75176357Y17863054D01*
X75161365Y17877341D01*
X75035535Y17997254D01*
X75001650Y18053672D01*
X74943065Y18263513D01*
X74938498Y18296857D01*
X74938498Y19265814D01*
X74938770Y19269595D01*
X74938577Y19273446D01*
X74938541Y19274847D01*
X74938244Y19276168D01*
X74937445Y19280163D01*
X74936236Y19283793D01*
X74882596Y19495630D01*
X74881715Y19504063D01*
X74879587Y19509531D01*
X74878758Y19512150D01*
X74878203Y19513469D01*
X74877814Y19514035D01*
X74875893Y19516322D01*
X74872532Y19520825D01*
X74866167Y19525905D01*
X74708898Y19690934D01*
X74703513Y19698287D01*
X74701745Y19699889D01*
X74698748Y19701997D01*
X74697567Y19702876D01*
X74696236Y19703508D01*
X74692873Y19705212D01*
X74692018Y19705518D01*
X74682999Y19706919D01*
X74476598Y19764544D01*
X74462196Y19772960D01*
X74461285Y19770748D01*
X74438097Y19780301D01*
X74437998Y19780342D01*
X74413444Y19780342D01*
X74413238Y19780301D01*
X66033985Y19780301D01*
X66030202Y19780574D01*
X66026352Y19780380D01*
X66024849Y19780342D01*
X66023242Y19779990D01*
X66023039Y19779952D01*
X66021106Y19779333D01*
X65803522Y19724238D01*
X65795430Y19723349D01*
X65789714Y19721158D01*
X65787664Y19720500D01*
X65786385Y19719943D01*
X65785550Y19719380D01*
X65783850Y19717959D01*
X65778861Y19714200D01*
X65773887Y19707967D01*
X65608388Y19550250D01*
X65601607Y19545229D01*
X65599481Y19542535D01*
X65598168Y19541076D01*
X65596945Y19539335D01*
X65595820Y19537079D01*
X65595184Y19535309D01*
X65594047Y19532724D01*
X65592790Y19524481D01*
X65525494Y19283441D01*
X65524702Y19281132D01*
X65524407Y19279885D01*
X65524354Y19278472D01*
X65524497Y19276077D01*
X65524498Y4288651D01*
X65524217Y4284709D01*
X59628126Y4284709D01*
X59602416Y4375349D01*
X59601975Y4377060D01*
X59601217Y4378638D01*
X59452631Y4707490D01*
X59451920Y4709180D01*
X59450919Y4710662D01*
X59450891Y4710705D01*
X59410826Y4773220D01*
X59257887Y5011852D01*
X59257023Y5013278D01*
X59256721Y5013598D01*
X59022563Y5283943D01*
X59021357Y5285417D01*
X59019943Y5286582D01*
X58771391Y5501864D01*
X58750800Y5519699D01*
X58749312Y5521067D01*
X58747604Y5522096D01*
X58590712Y5622648D01*
X58446714Y5714937D01*
X58445094Y5716040D01*
X58443357Y5716770D01*
X58114661Y5865285D01*
X58113102Y5866041D01*
X58112664Y5866146D01*
X57759117Y5966430D01*
X57757162Y5967051D01*
X57755142Y5967300D01*
X57511715Y6004452D01*
X57508844Y6005023D01*
X57508820Y6005026D01*
X57505870Y6005041D01*
X57480797Y6006308D01*
X57257431Y6017587D01*
X57255608Y6017801D01*
X57254726Y6017801D01*
X57251591Y6017880D01*
X57247580Y6018084D01*
X57243802Y6017801D01*
X23214218Y6017801D01*
X23211062Y6018056D01*
X23204187Y6017804D01*
X23204105Y6017801D01*
X23201988Y6017801D01*
X23200595Y6017674D01*
X23149977Y6015824D01*
X23109454Y6014343D01*
X23106732Y6014367D01*
X23106480Y6014346D01*
X23103818Y6013876D01*
X22820436Y5975775D01*
X22818540Y5975573D01*
X22816757Y5975011D01*
X22541304Y5896234D01*
X22540925Y5896144D01*
X22539489Y5895456D01*
X22280132Y5778763D01*
X22278301Y5778001D01*
X22276684Y5776905D01*
X22034720Y5622778D01*
X22034504Y5622653D01*
X22034316Y5622476D01*
X21816407Y5434239D01*
X21814884Y5433057D01*
X21812776Y5431096D01*
X21811479Y5429656D01*
X17964388Y1582645D01*
X16985347Y603624D01*
X16915755Y537401D01*
X16911121Y533407D01*
X16688036Y359568D01*
X16672868Y349448D01*
X16433779Y214209D01*
X16417371Y206454D01*
X16161522Y107723D01*
X16144141Y102442D01*
X15875712Y41948D01*
X15857627Y39254D01*
X15573780Y18192D01*
X15569190Y18022D01*
X6828439Y18112D01*
X6828347Y18112D01*
X6825122Y18192D01*
X6732284Y20496D01*
X6726185Y20949D01*
X6445523Y55768D01*
X6427640Y59338D01*
X6162947Y132774D01*
X6145862Y138892D01*
X5895140Y249989D01*
X5879116Y258545D01*
X5646525Y405580D01*
X5631838Y416459D01*
X5472135Y554098D01*
X5416236Y602274D01*
X5412870Y605400D01*
X3002873Y3015447D01*
X9763273Y3015447D01*
X9771263Y2924116D01*
X9771499Y2918711D01*
X9771499Y2911340D01*
X9769840Y2905692D01*
X9770978Y2892692D01*
X9773891Y2883998D01*
X9775171Y2876740D01*
X9775877Y2871377D01*
X9783868Y2780046D01*
X9783870Y2780036D01*
X9807592Y2691502D01*
X9808764Y2686219D01*
X9810046Y2678943D01*
X9809393Y2673092D01*
X9812767Y2660500D01*
X9817152Y2652432D01*
X9819670Y2645511D01*
X9821296Y2640353D01*
X9845029Y2551786D01*
X9883777Y2468690D01*
X9885848Y2463691D01*
X9888364Y2456779D01*
X9888737Y2450898D01*
X9894256Y2439062D01*
X9899983Y2431868D01*
X9903658Y2425500D01*
X9906148Y2420714D01*
X9931868Y2365560D01*
X9944897Y2337619D01*
X9945032Y2337426D01*
X9997494Y2262503D01*
X10000405Y2257933D01*
X10004078Y2251570D01*
X10005465Y2245848D01*
X10012946Y2235164D01*
X10019819Y2229090D01*
X10024546Y2223457D01*
X10027835Y2219170D01*
X10060217Y2172925D01*
X10080437Y2144048D01*
X10080438Y2144046D01*
X10080439Y2144046D01*
X10145273Y2079212D01*
X10148929Y2075222D01*
X10153652Y2069595D01*
X10156015Y2064195D01*
X10165244Y2054966D01*
X10173072Y2050174D01*
X10178705Y2045447D01*
X10182680Y2041805D01*
X10247531Y1976954D01*
X10322651Y1924354D01*
X10326931Y1921071D01*
X10332567Y1916341D01*
X10335831Y1911436D01*
X10346519Y1903951D01*
X10355058Y1900593D01*
X10360963Y1897183D01*
X10361428Y1896915D01*
X10365971Y1894021D01*
X10441102Y1841414D01*
X10524206Y1802662D01*
X10528994Y1800170D01*
X10532249Y1798291D01*
X10535364Y1796493D01*
X10539434Y1792226D01*
X10551268Y1786707D01*
X10560263Y1784881D01*
X10567172Y1782366D01*
X10572166Y1780298D01*
X10642269Y1747608D01*
X10655269Y1741546D01*
X10655271Y1741545D01*
X10695397Y1730794D01*
X10743841Y1717814D01*
X10748988Y1716191D01*
X10755925Y1713666D01*
X10760666Y1710175D01*
X10773256Y1706802D01*
X10782425Y1706566D01*
X10789690Y1705285D01*
X10794960Y1704117D01*
X10883524Y1680386D01*
X10974900Y1672392D01*
X10980192Y1671695D01*
X10987499Y1670406D01*
X10992769Y1667794D01*
X11005751Y1666658D01*
X11014823Y1668017D01*
X11022192Y1668017D01*
X11027595Y1667782D01*
X11081945Y1663026D01*
X11118931Y1659790D01*
X11118932Y1659790D01*
X11118933Y1659790D01*
X11155918Y1663026D01*
X11210268Y1667782D01*
X11215672Y1668017D01*
X11223039Y1668017D01*
X11228689Y1666358D01*
X11241675Y1667495D01*
X11250364Y1670406D01*
X11257684Y1671697D01*
X11262966Y1672392D01*
X11354340Y1680386D01*
X11442922Y1704122D01*
X11448157Y1705283D01*
X11455438Y1706566D01*
X11461291Y1705913D01*
X11473880Y1709287D01*
X11481939Y1713666D01*
X11488896Y1716198D01*
X11494009Y1717810D01*
X11566742Y1737299D01*
X11582592Y1741545D01*
X11582593Y1741546D01*
X11582595Y1741546D01*
X11665726Y1780312D01*
X11670689Y1782366D01*
X11677610Y1784886D01*
X11683486Y1785259D01*
X11695316Y1790775D01*
X11702500Y1796493D01*
X11707633Y1799457D01*
X11708875Y1800173D01*
X11713648Y1802658D01*
X11796762Y1841414D01*
X11871886Y1894017D01*
X11876415Y1896903D01*
X11882786Y1900582D01*
X11888515Y1901973D01*
X11899216Y1909466D01*
X11905288Y1916334D01*
X11910954Y1921089D01*
X11915187Y1924337D01*
X11990333Y1976954D01*
X12055194Y2041816D01*
X12059134Y2045427D01*
X12064783Y2050167D01*
X12070184Y2052531D01*
X12079415Y2061762D01*
X12084208Y2069591D01*
X12088949Y2075240D01*
X12092563Y2079185D01*
X12157427Y2144048D01*
X12157618Y2144320D01*
X12160391Y2148281D01*
X12210044Y2219194D01*
X12213292Y2223427D01*
X12218045Y2229092D01*
X12222946Y2232352D01*
X12230435Y2243047D01*
X12233796Y2251590D01*
X12237478Y2257966D01*
X12240370Y2262503D01*
X12292967Y2337619D01*
X12331723Y2420733D01*
X12334208Y2425506D01*
X12334924Y2426748D01*
X12337885Y2431877D01*
X12342151Y2435946D01*
X12347670Y2447781D01*
X12349496Y2456772D01*
X12349596Y2457046D01*
X12352017Y2463698D01*
X12354069Y2468655D01*
X12392835Y2551786D01*
X12392908Y2552056D01*
X12397082Y2567639D01*
X12416571Y2640372D01*
X12418183Y2645485D01*
X12420713Y2652437D01*
X12424204Y2657179D01*
X12427578Y2669769D01*
X12427815Y2678943D01*
X12429098Y2686224D01*
X12430259Y2691459D01*
X12453995Y2780041D01*
X12461989Y2871415D01*
X12462684Y2876700D01*
X12466364Y2897564D01*
X12466364Y2897577D01*
X12466612Y2898981D01*
X12466619Y2899030D01*
X12467838Y2905944D01*
X12466721Y2913989D01*
X12467012Y2927348D01*
X12467229Y2931309D01*
X12474591Y3015449D01*
X12467229Y3099586D01*
X12467012Y3103555D01*
X12466721Y3116910D01*
X12468256Y3122590D01*
X12466711Y3131354D01*
X12466703Y3131410D01*
X12466364Y3133334D01*
X12462684Y3154199D01*
X12461989Y3159487D01*
X12453995Y3250857D01*
X12430264Y3339421D01*
X12429096Y3344691D01*
X12427815Y3351956D01*
X12428467Y3357809D01*
X12425096Y3370394D01*
X12420715Y3378456D01*
X12420621Y3378714D01*
X12418185Y3385409D01*
X12416565Y3390548D01*
X12393400Y3477005D01*
X12392838Y3479103D01*
X12392836Y3479107D01*
X12392835Y3479112D01*
X12354083Y3562215D01*
X12352015Y3567209D01*
X12349500Y3574118D01*
X12349125Y3580000D01*
X12343612Y3591824D01*
X12337892Y3599010D01*
X12334214Y3605382D01*
X12331721Y3610171D01*
X12292967Y3693278D01*
X12240365Y3768401D01*
X12237462Y3772960D01*
X12237304Y3773234D01*
X12233788Y3779323D01*
X12232399Y3785048D01*
X12224921Y3795729D01*
X12218042Y3801811D01*
X12213301Y3807461D01*
X12210021Y3811737D01*
X12157427Y3886850D01*
X12092576Y3951701D01*
X12088938Y3955672D01*
X12084207Y3961309D01*
X12081845Y3966707D01*
X12072622Y3975930D01*
X12064787Y3980728D01*
X12063064Y3982174D01*
X12059159Y3985452D01*
X12055169Y3989108D01*
X11990335Y4053942D01*
X11990333Y4053944D01*
X11961456Y4074164D01*
X11915211Y4106546D01*
X11910924Y4109835D01*
X11905291Y4114562D01*
X11902029Y4119466D01*
X11891350Y4126943D01*
X11882811Y4130303D01*
X11879307Y4132326D01*
X11876442Y4133980D01*
X11871878Y4136887D01*
X11796762Y4189484D01*
X11768821Y4202513D01*
X11713667Y4228233D01*
X11708881Y4230723D01*
X11702513Y4234398D01*
X11698437Y4238671D01*
X11686601Y4244190D01*
X11677602Y4246017D01*
X11670690Y4248533D01*
X11665691Y4250604D01*
X11582595Y4289352D01*
X11494028Y4313085D01*
X11488870Y4314711D01*
X11481949Y4317229D01*
X11477201Y4320725D01*
X11464612Y4324098D01*
X11455438Y4324335D01*
X11448162Y4325617D01*
X11442879Y4326789D01*
X11354345Y4350511D01*
X11354335Y4350513D01*
X11263004Y4358504D01*
X11257641Y4359210D01*
X11250383Y4360490D01*
X11245109Y4363104D01*
X11232113Y4364241D01*
X11223042Y4362881D01*
X11215672Y4362881D01*
X11210268Y4363117D01*
X11155918Y4367873D01*
X11118933Y4371108D01*
X11118931Y4371108D01*
X11081945Y4367873D01*
X11027595Y4363117D01*
X11022192Y4362881D01*
X11014821Y4362881D01*
X11009170Y4364541D01*
X10996184Y4363404D01*
X10987489Y4360491D01*
X10980231Y4359211D01*
X10974863Y4358504D01*
X10883521Y4350512D01*
X10794981Y4326788D01*
X10789699Y4325617D01*
X10782423Y4324335D01*
X10776574Y4324988D01*
X10763986Y4321615D01*
X10755918Y4317231D01*
X10749003Y4314714D01*
X10743843Y4313087D01*
X10655268Y4289352D01*
X10572166Y4250602D01*
X10567170Y4248533D01*
X10560261Y4246018D01*
X10554380Y4245645D01*
X10542565Y4240135D01*
X10535386Y4234419D01*
X10529020Y4230743D01*
X10524216Y4228242D01*
X10441106Y4189487D01*
X10365990Y4136891D01*
X10361426Y4133983D01*
X10355061Y4130309D01*
X10349337Y4128921D01*
X10338641Y4121432D01*
X10332555Y4114547D01*
X10326929Y4109829D01*
X10322644Y4106540D01*
X10247530Y4053945D01*
X10182682Y3989097D01*
X10178681Y3985431D01*
X10173050Y3980709D01*
X10167662Y3978353D01*
X10158454Y3969145D01*
X10153672Y3961331D01*
X10148950Y3955700D01*
X10145284Y3951699D01*
X10080436Y3886850D01*
X10027840Y3811737D01*
X10024553Y3807453D01*
X10019836Y3801829D01*
X10014924Y3798561D01*
X10007432Y3787860D01*
X10004072Y3779320D01*
X10000398Y3772955D01*
X9997490Y3768391D01*
X9944894Y3693275D01*
X9906139Y3610165D01*
X9903638Y3605361D01*
X9899962Y3598995D01*
X9895698Y3594932D01*
X9890189Y3583117D01*
X9888363Y3574120D01*
X9885848Y3567211D01*
X9883779Y3562215D01*
X9845029Y3479113D01*
X9821297Y3390548D01*
X9819677Y3385409D01*
X9817576Y3379630D01*
X9817111Y3378357D01*
X9813637Y3373649D01*
X9810282Y3361124D01*
X9810046Y3351958D01*
X9808764Y3344682D01*
X9807593Y3339400D01*
X9783869Y3250860D01*
X9775877Y3159519D01*
X9775170Y3154151D01*
X9773890Y3146893D01*
X9771276Y3141622D01*
X9770140Y3128626D01*
X9771499Y3119560D01*
X9771499Y3112190D01*
X9771263Y3106784D01*
X9763273Y3015452D01*
X9763273Y3015447D01*
X3002873Y3015447D01*
X586124Y5432247D01*
X579997Y5438685D01*
X519868Y5501871D01*
X515880Y5506499D01*
X342045Y5729579D01*
X331925Y5744747D01*
X263321Y5866032D01*
X196682Y5983844D01*
X188935Y6000236D01*
X90197Y6256101D01*
X84921Y6273466D01*
X24423Y6541912D01*
X21732Y6559981D01*
X670Y6843835D01*
X500Y6848425D01*
X519Y8617442D01*
X523Y9047357D01*
X2524806Y9047357D01*
X2524994Y9043954D01*
X2525039Y9042299D01*
X2525423Y9040585D01*
X2525472Y9040325D01*
X2526095Y9038400D01*
X2581288Y8820432D01*
X2582224Y8812251D01*
X2584020Y8807648D01*
X2584647Y8805681D01*
X2585542Y8803752D01*
X2585572Y8803679D01*
X2586291Y8802624D01*
X2586319Y8802580D01*
X2587615Y8801032D01*
X2591120Y8796337D01*
X2597509Y8791248D01*
X2755558Y8625401D01*
X2761099Y8617994D01*
X2761708Y8617442D01*
X2764825Y8615260D01*
X2766025Y8614372D01*
X2767327Y8613762D01*
X2771767Y8611543D01*
X2771786Y8611537D01*
X2781382Y8610112D01*
X3021629Y8543036D01*
X3023789Y8542282D01*
X3025580Y8541855D01*
X3026828Y8541807D01*
X3029253Y8541949D01*
X16016600Y8541949D01*
X16020382Y8541677D01*
X16024233Y8541870D01*
X16025639Y8541906D01*
X16027006Y8542212D01*
X16030776Y8542962D01*
X16034422Y8544171D01*
X16246979Y8597994D01*
X16255492Y8598923D01*
X16255621Y8598974D01*
X16259741Y8600268D01*
X16262037Y8601350D01*
X16264314Y8602318D01*
X16265412Y8603079D01*
X16267404Y8604757D01*
X16271591Y8607854D01*
X16276776Y8614363D01*
X16442197Y8772007D01*
X16450078Y8777842D01*
X16452499Y8781296D01*
X16453699Y8782891D01*
X16454535Y8784689D01*
X16456381Y8788332D01*
X16457832Y8797914D01*
X16459475Y8803800D01*
X16524939Y9038275D01*
X16525698Y9040424D01*
X16526193Y9042438D01*
X16526237Y9043545D01*
X16526087Y9046120D01*
X16526087Y9047357D01*
X21574806Y9047357D01*
X21574994Y9043954D01*
X21575039Y9042299D01*
X21575423Y9040585D01*
X21575472Y9040325D01*
X21576095Y9038400D01*
X21631288Y8820432D01*
X21632224Y8812251D01*
X21634020Y8807648D01*
X21634647Y8805681D01*
X21635542Y8803752D01*
X21635572Y8803679D01*
X21636291Y8802624D01*
X21636319Y8802580D01*
X21637615Y8801032D01*
X21641120Y8796337D01*
X21647509Y8791248D01*
X21805558Y8625401D01*
X21811099Y8617994D01*
X21811708Y8617442D01*
X21814825Y8615260D01*
X21816025Y8614372D01*
X21817327Y8613762D01*
X21821767Y8611543D01*
X21821786Y8611537D01*
X21831382Y8610112D01*
X22071629Y8543036D01*
X22073789Y8542282D01*
X22075580Y8541855D01*
X22076828Y8541807D01*
X22079253Y8541949D01*
X35066600Y8541949D01*
X35070382Y8541677D01*
X35074233Y8541870D01*
X35075639Y8541906D01*
X35077006Y8542212D01*
X35080776Y8542962D01*
X35084422Y8544171D01*
X35296979Y8597994D01*
X35305492Y8598923D01*
X35305621Y8598974D01*
X35309741Y8600268D01*
X35312037Y8601350D01*
X35314314Y8602318D01*
X35315412Y8603079D01*
X35317404Y8604757D01*
X35321591Y8607854D01*
X35326776Y8614363D01*
X35492197Y8772007D01*
X35500078Y8777842D01*
X35502499Y8781296D01*
X35503699Y8782891D01*
X35504535Y8784689D01*
X35506381Y8788332D01*
X35507832Y8797914D01*
X35509475Y8803800D01*
X35574939Y9038275D01*
X35575698Y9040424D01*
X35576193Y9042438D01*
X35576237Y9043545D01*
X35576087Y9046120D01*
X35576087Y9047357D01*
X40624414Y9047357D01*
X40624602Y9043954D01*
X40624647Y9042299D01*
X40625031Y9040585D01*
X40625080Y9040325D01*
X40625703Y9038400D01*
X40680896Y8820432D01*
X40681832Y8812251D01*
X40683628Y8807648D01*
X40684255Y8805681D01*
X40685150Y8803752D01*
X40685180Y8803679D01*
X40685899Y8802624D01*
X40685927Y8802580D01*
X40687223Y8801032D01*
X40690728Y8796337D01*
X40697117Y8791248D01*
X40855166Y8625401D01*
X40860707Y8617994D01*
X40861316Y8617442D01*
X40864433Y8615260D01*
X40865633Y8614372D01*
X40866935Y8613762D01*
X40871375Y8611543D01*
X40871394Y8611537D01*
X40880990Y8610112D01*
X41121237Y8543036D01*
X41123397Y8542282D01*
X41125188Y8541855D01*
X41126436Y8541807D01*
X41128861Y8541949D01*
X54116208Y8541949D01*
X54119990Y8541677D01*
X54123841Y8541870D01*
X54125247Y8541906D01*
X54126614Y8542212D01*
X54130384Y8542962D01*
X54134030Y8544171D01*
X54346587Y8597994D01*
X54355100Y8598923D01*
X54355229Y8598974D01*
X54359349Y8600268D01*
X54361645Y8601350D01*
X54363922Y8602318D01*
X54365020Y8603079D01*
X54367012Y8604757D01*
X54371199Y8607854D01*
X54376384Y8614363D01*
X54541805Y8772007D01*
X54549686Y8777842D01*
X54552107Y8781296D01*
X54553307Y8782891D01*
X54554143Y8784689D01*
X54555989Y8788332D01*
X54557440Y8797914D01*
X54559083Y8803800D01*
X54624547Y9038275D01*
X54625306Y9040424D01*
X54625801Y9042438D01*
X54625845Y9043545D01*
X54625695Y9046120D01*
X54625695Y22033462D01*
X54625967Y22037243D01*
X54625774Y22041094D01*
X54625738Y22042495D01*
X54625441Y22043816D01*
X54624642Y22047811D01*
X54623433Y22051441D01*
X54569793Y22263278D01*
X54568912Y22271711D01*
X54566784Y22277179D01*
X54565955Y22279798D01*
X54565400Y22281117D01*
X54565011Y22281683D01*
X54563090Y22283970D01*
X54559729Y22288473D01*
X54553364Y22293553D01*
X54396095Y22458582D01*
X54390710Y22465935D01*
X54388942Y22467537D01*
X54385945Y22469645D01*
X54384764Y22470524D01*
X54383433Y22471156D01*
X54380070Y22472860D01*
X54379217Y22473166D01*
X54370194Y22474567D01*
X54128995Y22541908D01*
X54126757Y22542682D01*
X54125237Y22543043D01*
X54123952Y22543092D01*
X54121528Y22542949D01*
X41134182Y22542949D01*
X41130399Y22543222D01*
X41126549Y22543028D01*
X41125046Y22542990D01*
X41123439Y22542638D01*
X41123236Y22542600D01*
X41121303Y22541981D01*
X40903719Y22486886D01*
X40895627Y22485997D01*
X40889911Y22483806D01*
X40887861Y22483148D01*
X40886582Y22482591D01*
X40885747Y22482028D01*
X40884047Y22480607D01*
X40879058Y22476848D01*
X40874084Y22470615D01*
X40708585Y22312898D01*
X40701804Y22307877D01*
X40699678Y22305183D01*
X40698365Y22303724D01*
X40697142Y22301983D01*
X40696017Y22299727D01*
X40695381Y22297957D01*
X40694244Y22295372D01*
X40692987Y22287129D01*
X40625691Y22046089D01*
X40624899Y22043780D01*
X40624604Y22042533D01*
X40624552Y22041130D01*
X40624695Y22038731D01*
X40624695Y9051299D01*
X40624414Y9047357D01*
X35576087Y9047357D01*
X35576087Y22033462D01*
X35576359Y22037243D01*
X35576166Y22041094D01*
X35576130Y22042495D01*
X35575833Y22043816D01*
X35575034Y22047811D01*
X35573825Y22051441D01*
X35520185Y22263278D01*
X35519304Y22271711D01*
X35517176Y22277179D01*
X35516347Y22279798D01*
X35515792Y22281117D01*
X35515403Y22281683D01*
X35513482Y22283970D01*
X35510121Y22288473D01*
X35503756Y22293553D01*
X35346487Y22458582D01*
X35341102Y22465935D01*
X35339334Y22467537D01*
X35336337Y22469645D01*
X35335156Y22470524D01*
X35333825Y22471156D01*
X35330462Y22472860D01*
X35329609Y22473166D01*
X35320586Y22474567D01*
X35079387Y22541908D01*
X35077149Y22542682D01*
X35075629Y22543043D01*
X35074344Y22543092D01*
X35071920Y22542949D01*
X22084574Y22542949D01*
X22080791Y22543222D01*
X22076941Y22543028D01*
X22075438Y22542990D01*
X22073831Y22542638D01*
X22073628Y22542600D01*
X22071695Y22541981D01*
X21854111Y22486886D01*
X21846019Y22485997D01*
X21840303Y22483806D01*
X21838253Y22483148D01*
X21836974Y22482591D01*
X21836139Y22482028D01*
X21834439Y22480607D01*
X21829450Y22476848D01*
X21824476Y22470615D01*
X21658977Y22312898D01*
X21652196Y22307877D01*
X21650070Y22305183D01*
X21648757Y22303724D01*
X21647534Y22301983D01*
X21646409Y22299727D01*
X21645773Y22297957D01*
X21644636Y22295372D01*
X21643379Y22287129D01*
X21576083Y22046089D01*
X21575291Y22043780D01*
X21574996Y22042533D01*
X21574944Y22041130D01*
X21575087Y22038731D01*
X21575087Y9051299D01*
X21574806Y9047357D01*
X16526087Y9047357D01*
X16526087Y9051299D01*
X16526087Y22033476D01*
X16526359Y22037248D01*
X16526166Y22041094D01*
X16526130Y22042495D01*
X16525833Y22043816D01*
X16525034Y22047811D01*
X16523825Y22051441D01*
X16470185Y22263278D01*
X16469304Y22271711D01*
X16467176Y22277179D01*
X16466347Y22279798D01*
X16465792Y22281117D01*
X16465403Y22281683D01*
X16463482Y22283970D01*
X16460121Y22288473D01*
X16453756Y22293553D01*
X16296487Y22458582D01*
X16291102Y22465935D01*
X16289334Y22467537D01*
X16286337Y22469645D01*
X16285156Y22470524D01*
X16283825Y22471156D01*
X16280462Y22472860D01*
X16279609Y22473166D01*
X16270586Y22474567D01*
X16029387Y22541908D01*
X16027149Y22542682D01*
X16025629Y22543043D01*
X16024344Y22543092D01*
X16021920Y22542949D01*
X3034574Y22542949D01*
X3030791Y22543222D01*
X3026941Y22543028D01*
X3025438Y22542990D01*
X3023831Y22542638D01*
X3023628Y22542600D01*
X3021695Y22541981D01*
X2804111Y22486886D01*
X2796019Y22485997D01*
X2790303Y22483806D01*
X2788253Y22483148D01*
X2786974Y22482591D01*
X2786139Y22482028D01*
X2784439Y22480607D01*
X2779450Y22476848D01*
X2774476Y22470615D01*
X2608977Y22312898D01*
X2602196Y22307877D01*
X2600070Y22305183D01*
X2598757Y22303724D01*
X2597534Y22301983D01*
X2596409Y22299727D01*
X2595773Y22297957D01*
X2594636Y22295372D01*
X2593379Y22287129D01*
X2526083Y22046089D01*
X2525291Y22043780D01*
X2524996Y22042533D01*
X2524944Y22041130D01*
X2525087Y22038731D01*
X2525087Y9051299D01*
X2524806Y9047357D01*
X523Y9047357D01*
X722Y28097357D01*
X7287717Y28097357D01*
X7287905Y28093954D01*
X7287950Y28092299D01*
X7288334Y28090585D01*
X7288383Y28090325D01*
X7289006Y28088400D01*
X7344199Y27870432D01*
X7345135Y27862251D01*
X7346931Y27857648D01*
X7347558Y27855681D01*
X7348453Y27853752D01*
X7348483Y27853679D01*
X7349202Y27852624D01*
X7349230Y27852580D01*
X7350526Y27851032D01*
X7354031Y27846337D01*
X7360420Y27841248D01*
X7518469Y27675401D01*
X7524010Y27667994D01*
X7524619Y27667442D01*
X7527736Y27665260D01*
X7528936Y27664372D01*
X7530238Y27663762D01*
X7534678Y27661543D01*
X7534697Y27661537D01*
X7544293Y27660112D01*
X7784540Y27593036D01*
X7786700Y27592282D01*
X7788491Y27591855D01*
X7789739Y27591807D01*
X7792164Y27591949D01*
X23160511Y27591949D01*
X23164293Y27591677D01*
X23168144Y27591870D01*
X23169550Y27591906D01*
X23170917Y27592212D01*
X23174687Y27592962D01*
X23178333Y27594171D01*
X23390890Y27647994D01*
X23399403Y27648923D01*
X23399532Y27648974D01*
X23403652Y27650268D01*
X23405948Y27651350D01*
X23408225Y27652318D01*
X23409323Y27653079D01*
X23411315Y27654757D01*
X23415502Y27657854D01*
X23420687Y27664363D01*
X23586108Y27822007D01*
X23593989Y27827842D01*
X23596410Y27831296D01*
X23597610Y27832891D01*
X23598446Y27834689D01*
X23600292Y27838332D01*
X23601743Y27847914D01*
X23603386Y27853800D01*
X23668850Y28088275D01*
X23669609Y28090424D01*
X23670104Y28092438D01*
X23670148Y28093545D01*
X23669998Y28096120D01*
X23669998Y28097357D01*
X31099217Y28097357D01*
X31099405Y28093954D01*
X31099450Y28092299D01*
X31099834Y28090585D01*
X31099883Y28090325D01*
X31100506Y28088400D01*
X31155699Y27870432D01*
X31156635Y27862251D01*
X31158431Y27857648D01*
X31159058Y27855681D01*
X31159953Y27853752D01*
X31159983Y27853679D01*
X31160702Y27852624D01*
X31160730Y27852580D01*
X31162026Y27851032D01*
X31165531Y27846337D01*
X31171920Y27841248D01*
X31329969Y27675401D01*
X31335510Y27667994D01*
X31336119Y27667442D01*
X31339236Y27665260D01*
X31340436Y27664372D01*
X31341738Y27663762D01*
X31346178Y27661543D01*
X31346197Y27661537D01*
X31355793Y27660112D01*
X31596040Y27593036D01*
X31598200Y27592282D01*
X31599991Y27591855D01*
X31601239Y27591807D01*
X31603664Y27591949D01*
X196991011Y27591949D01*
X196994793Y27591677D01*
X196998644Y27591870D01*
X197000050Y27591906D01*
X197001417Y27592212D01*
X197005187Y27592962D01*
X197008833Y27594171D01*
X197221390Y27647994D01*
X197229903Y27648923D01*
X197230032Y27648974D01*
X197234152Y27650268D01*
X197236448Y27651350D01*
X197238725Y27652318D01*
X197239823Y27653079D01*
X197241815Y27654757D01*
X197246002Y27657854D01*
X197251187Y27664363D01*
X197416608Y27822007D01*
X197424489Y27827842D01*
X197426910Y27831296D01*
X197428110Y27832891D01*
X197428946Y27834689D01*
X197430792Y27838332D01*
X197432243Y27847914D01*
X197433886Y27853800D01*
X197499350Y28088275D01*
X197500109Y28090424D01*
X197500604Y28092438D01*
X197500648Y28093545D01*
X197500498Y28096120D01*
X197500498Y41083462D01*
X197500770Y41087243D01*
X197500577Y41091094D01*
X197500541Y41092495D01*
X197500244Y41093816D01*
X197499445Y41097811D01*
X197498236Y41101441D01*
X197444596Y41313278D01*
X197443715Y41321711D01*
X197441587Y41327179D01*
X197440758Y41329798D01*
X197440203Y41331117D01*
X197439814Y41331683D01*
X197437893Y41333970D01*
X197434532Y41338473D01*
X197428167Y41343553D01*
X197270898Y41508582D01*
X197265513Y41515935D01*
X197263745Y41517537D01*
X197260748Y41519645D01*
X197259567Y41520524D01*
X197258236Y41521156D01*
X197254873Y41522860D01*
X197254020Y41523166D01*
X197244997Y41524567D01*
X197003798Y41591908D01*
X197001560Y41592682D01*
X197000040Y41593043D01*
X196998755Y41593092D01*
X196996331Y41592949D01*
X31608985Y41592949D01*
X31605202Y41593222D01*
X31601352Y41593028D01*
X31599849Y41592990D01*
X31598242Y41592638D01*
X31598039Y41592600D01*
X31596106Y41591981D01*
X31378522Y41536886D01*
X31370430Y41535997D01*
X31364714Y41533806D01*
X31362664Y41533148D01*
X31361385Y41532591D01*
X31360550Y41532028D01*
X31358850Y41530607D01*
X31353861Y41526848D01*
X31348887Y41520615D01*
X31183388Y41362898D01*
X31176607Y41357877D01*
X31174481Y41355183D01*
X31173168Y41353724D01*
X31171945Y41351983D01*
X31170820Y41349727D01*
X31170184Y41347957D01*
X31169047Y41345372D01*
X31167790Y41337129D01*
X31100494Y41096089D01*
X31099702Y41093780D01*
X31099407Y41092533D01*
X31099355Y41091130D01*
X31099498Y41088731D01*
X31099498Y28101299D01*
X31099217Y28097357D01*
X23669998Y28097357D01*
X23669998Y41083462D01*
X23670270Y41087243D01*
X23670077Y41091094D01*
X23670041Y41092495D01*
X23669744Y41093816D01*
X23668945Y41097811D01*
X23667736Y41101441D01*
X23614096Y41313278D01*
X23613215Y41321711D01*
X23611087Y41327179D01*
X23610258Y41329798D01*
X23609703Y41331117D01*
X23609314Y41331683D01*
X23607393Y41333970D01*
X23604032Y41338473D01*
X23597667Y41343553D01*
X23440398Y41508582D01*
X23435013Y41515935D01*
X23433245Y41517537D01*
X23430248Y41519645D01*
X23429067Y41520524D01*
X23427736Y41521156D01*
X23424373Y41522860D01*
X23423520Y41523166D01*
X23414497Y41524567D01*
X23173298Y41591908D01*
X23171060Y41592682D01*
X23169540Y41593043D01*
X23168255Y41593092D01*
X23165831Y41592949D01*
X7797485Y41592949D01*
X7793702Y41593222D01*
X7789852Y41593028D01*
X7788349Y41592990D01*
X7786742Y41592638D01*
X7786539Y41592600D01*
X7784606Y41591981D01*
X7567022Y41536886D01*
X7558930Y41535997D01*
X7553214Y41533806D01*
X7551164Y41533148D01*
X7549885Y41532591D01*
X7549050Y41532028D01*
X7547350Y41530607D01*
X7542361Y41526848D01*
X7537387Y41520615D01*
X7371888Y41362898D01*
X7365107Y41357877D01*
X7362981Y41355183D01*
X7361668Y41353724D01*
X7360445Y41351983D01*
X7359320Y41349727D01*
X7358684Y41347957D01*
X7357547Y41345372D01*
X7356290Y41337129D01*
X7288994Y41096089D01*
X7288202Y41093780D01*
X7287907Y41092533D01*
X7287855Y41091130D01*
X7287998Y41088731D01*
X7287998Y28101299D01*
X7287717Y28097357D01*
X722Y28097357D01*
X891Y44238673D01*
X891Y47147357D01*
X4905745Y47147357D01*
X4905933Y47143954D01*
X4905978Y47142299D01*
X4906362Y47140585D01*
X4906411Y47140325D01*
X4907034Y47138400D01*
X4962227Y46920432D01*
X4963163Y46912251D01*
X4964959Y46907648D01*
X4965586Y46905681D01*
X4966481Y46903752D01*
X4966511Y46903679D01*
X4967230Y46902624D01*
X4967258Y46902580D01*
X4968554Y46901032D01*
X4972059Y46896337D01*
X4978448Y46891248D01*
X5136497Y46725401D01*
X5142038Y46717994D01*
X5142647Y46717442D01*
X5145764Y46715260D01*
X5146964Y46714372D01*
X5148266Y46713762D01*
X5152706Y46711543D01*
X5152725Y46711537D01*
X5162321Y46710112D01*
X5402568Y46643036D01*
X5404728Y46642282D01*
X5406519Y46641855D01*
X5407767Y46641807D01*
X5410192Y46641949D01*
X18397539Y46641949D01*
X18401321Y46641677D01*
X18405172Y46641870D01*
X18406578Y46641906D01*
X18407945Y46642212D01*
X18411715Y46642962D01*
X18415361Y46644171D01*
X18627918Y46697994D01*
X18636431Y46698923D01*
X18636560Y46698974D01*
X18640680Y46700268D01*
X18642976Y46701350D01*
X18645253Y46702318D01*
X18646351Y46703079D01*
X18648343Y46704757D01*
X18652530Y46707854D01*
X18657715Y46714363D01*
X18823136Y46872007D01*
X18831017Y46877842D01*
X18833438Y46881296D01*
X18834638Y46882891D01*
X18835474Y46884689D01*
X18837320Y46888332D01*
X18838771Y46897914D01*
X18840414Y46903800D01*
X18905878Y47138275D01*
X18906637Y47140424D01*
X18907132Y47142438D01*
X18907176Y47143545D01*
X18907026Y47146120D01*
X18907026Y47147357D01*
X26337306Y47147357D01*
X26337494Y47143954D01*
X26337539Y47142299D01*
X26337923Y47140585D01*
X26337972Y47140325D01*
X26338595Y47138400D01*
X26393788Y46920432D01*
X26394724Y46912251D01*
X26396520Y46907648D01*
X26397147Y46905681D01*
X26398042Y46903752D01*
X26398072Y46903679D01*
X26398791Y46902624D01*
X26398819Y46902580D01*
X26400115Y46901032D01*
X26403620Y46896337D01*
X26410009Y46891248D01*
X26568058Y46725401D01*
X26573599Y46717994D01*
X26574208Y46717442D01*
X26577325Y46715260D01*
X26578525Y46714372D01*
X26579827Y46713762D01*
X26584267Y46711543D01*
X26584286Y46711537D01*
X26593882Y46710112D01*
X26834129Y46643036D01*
X26836289Y46642282D01*
X26838080Y46641855D01*
X26839328Y46641807D01*
X26841753Y46641949D01*
X39829100Y46641949D01*
X39832882Y46641677D01*
X39836733Y46641870D01*
X39838139Y46641906D01*
X39839506Y46642212D01*
X39843276Y46642962D01*
X39846922Y46644171D01*
X40059479Y46697994D01*
X40067992Y46698923D01*
X40068121Y46698974D01*
X40072241Y46700268D01*
X40074537Y46701350D01*
X40076814Y46702318D01*
X40077912Y46703079D01*
X40079904Y46704757D01*
X40084091Y46707854D01*
X40089276Y46714363D01*
X40254697Y46872007D01*
X40262578Y46877842D01*
X40264999Y46881296D01*
X40266199Y46882891D01*
X40267035Y46884689D01*
X40268881Y46888332D01*
X40270332Y46897914D01*
X40271975Y46903800D01*
X40337439Y47138275D01*
X40338198Y47140424D01*
X40338693Y47142438D01*
X40338737Y47143545D01*
X40338587Y47146120D01*
X40338587Y47147357D01*
X45386914Y47147357D01*
X45387102Y47143954D01*
X45387147Y47142299D01*
X45387531Y47140585D01*
X45387580Y47140325D01*
X45388203Y47138400D01*
X45443396Y46920432D01*
X45444332Y46912251D01*
X45446128Y46907648D01*
X45446755Y46905681D01*
X45447650Y46903752D01*
X45447680Y46903679D01*
X45448399Y46902624D01*
X45448427Y46902580D01*
X45449723Y46901032D01*
X45453228Y46896337D01*
X45459617Y46891248D01*
X45617666Y46725401D01*
X45623207Y46717994D01*
X45623816Y46717442D01*
X45626933Y46715260D01*
X45628133Y46714372D01*
X45629435Y46713762D01*
X45633875Y46711543D01*
X45633894Y46711537D01*
X45643490Y46710112D01*
X45883737Y46643036D01*
X45885897Y46642282D01*
X45887688Y46641855D01*
X45888936Y46641807D01*
X45891361Y46641949D01*
X58878708Y46641949D01*
X58882490Y46641677D01*
X58886341Y46641870D01*
X58887747Y46641906D01*
X58889114Y46642212D01*
X58892884Y46642962D01*
X58896530Y46644171D01*
X59109087Y46697994D01*
X59117600Y46698923D01*
X59117729Y46698974D01*
X59121849Y46700268D01*
X59124145Y46701350D01*
X59126422Y46702318D01*
X59127520Y46703079D01*
X59129512Y46704757D01*
X59133699Y46707854D01*
X59138884Y46714363D01*
X59304305Y46872007D01*
X59312186Y46877842D01*
X59314607Y46881296D01*
X59315807Y46882891D01*
X59316643Y46884689D01*
X59318489Y46888332D01*
X59319940Y46897914D01*
X59321583Y46903800D01*
X59387047Y47138275D01*
X59387806Y47140424D01*
X59388301Y47142438D01*
X59388345Y47143545D01*
X59388195Y47146120D01*
X59388195Y47147357D01*
X64437306Y47147357D01*
X64437494Y47143954D01*
X64437539Y47142299D01*
X64437923Y47140585D01*
X64437972Y47140325D01*
X64438595Y47138400D01*
X64493788Y46920432D01*
X64494724Y46912251D01*
X64496520Y46907648D01*
X64497147Y46905681D01*
X64498042Y46903752D01*
X64498072Y46903679D01*
X64498791Y46902624D01*
X64498819Y46902580D01*
X64500115Y46901032D01*
X64503620Y46896337D01*
X64510009Y46891248D01*
X64668058Y46725401D01*
X64673599Y46717994D01*
X64674208Y46717442D01*
X64677325Y46715260D01*
X64678525Y46714372D01*
X64679827Y46713762D01*
X64684267Y46711543D01*
X64684286Y46711537D01*
X64693882Y46710112D01*
X64934129Y46643036D01*
X64936289Y46642282D01*
X64938080Y46641855D01*
X64939328Y46641807D01*
X64941753Y46641949D01*
X77929100Y46641949D01*
X77932882Y46641677D01*
X77936733Y46641870D01*
X77938139Y46641906D01*
X77939506Y46642212D01*
X77943276Y46642962D01*
X77946922Y46644171D01*
X78159479Y46697994D01*
X78167992Y46698923D01*
X78168121Y46698974D01*
X78172241Y46700268D01*
X78174537Y46701350D01*
X78176814Y46702318D01*
X78177912Y46703079D01*
X78179904Y46704757D01*
X78184091Y46707854D01*
X78189276Y46714363D01*
X78354697Y46872007D01*
X78362578Y46877842D01*
X78364999Y46881296D01*
X78366199Y46882891D01*
X78367035Y46884689D01*
X78368881Y46888332D01*
X78370332Y46897914D01*
X78371975Y46903800D01*
X78437439Y47138275D01*
X78438198Y47140424D01*
X78438693Y47142438D01*
X78438737Y47143545D01*
X78438587Y47146120D01*
X78438587Y47147357D01*
X83487306Y47147357D01*
X83487494Y47143954D01*
X83487539Y47142299D01*
X83487923Y47140585D01*
X83487972Y47140325D01*
X83488595Y47138400D01*
X83543788Y46920432D01*
X83544724Y46912251D01*
X83546520Y46907648D01*
X83547147Y46905681D01*
X83548042Y46903752D01*
X83548072Y46903679D01*
X83548791Y46902624D01*
X83548819Y46902580D01*
X83550115Y46901032D01*
X83553620Y46896337D01*
X83560009Y46891248D01*
X83718058Y46725401D01*
X83723599Y46717994D01*
X83724208Y46717442D01*
X83727325Y46715260D01*
X83728525Y46714372D01*
X83729827Y46713762D01*
X83734267Y46711543D01*
X83734286Y46711537D01*
X83743882Y46710112D01*
X83984129Y46643036D01*
X83986289Y46642282D01*
X83988080Y46641855D01*
X83989328Y46641807D01*
X83991753Y46641949D01*
X96979100Y46641949D01*
X96982882Y46641677D01*
X96986733Y46641870D01*
X96988139Y46641906D01*
X96989506Y46642212D01*
X96993276Y46642962D01*
X96996922Y46644171D01*
X97209479Y46697994D01*
X97217992Y46698923D01*
X97218121Y46698974D01*
X97222241Y46700268D01*
X97224537Y46701350D01*
X97226814Y46702318D01*
X97227912Y46703079D01*
X97229904Y46704757D01*
X97234091Y46707854D01*
X97239276Y46714363D01*
X97404697Y46872007D01*
X97412578Y46877842D01*
X97414999Y46881296D01*
X97416199Y46882891D01*
X97417035Y46884689D01*
X97418881Y46888332D01*
X97420332Y46897914D01*
X97421975Y46903800D01*
X97487439Y47138275D01*
X97488198Y47140424D01*
X97488693Y47142438D01*
X97488737Y47143545D01*
X97488587Y47146120D01*
X97488587Y47147357D01*
X102536914Y47147357D01*
X102537102Y47143954D01*
X102537147Y47142299D01*
X102537531Y47140585D01*
X102537580Y47140325D01*
X102538203Y47138400D01*
X102593396Y46920432D01*
X102594332Y46912251D01*
X102596128Y46907648D01*
X102596755Y46905681D01*
X102597650Y46903752D01*
X102597680Y46903679D01*
X102598399Y46902624D01*
X102598427Y46902580D01*
X102599723Y46901032D01*
X102603228Y46896337D01*
X102609617Y46891248D01*
X102767666Y46725401D01*
X102773207Y46717994D01*
X102773816Y46717442D01*
X102776933Y46715260D01*
X102778133Y46714372D01*
X102779435Y46713762D01*
X102783875Y46711543D01*
X102783894Y46711537D01*
X102793490Y46710112D01*
X103033737Y46643036D01*
X103035897Y46642282D01*
X103037688Y46641855D01*
X103038936Y46641807D01*
X103041361Y46641949D01*
X116028708Y46641949D01*
X116032490Y46641677D01*
X116036341Y46641870D01*
X116037747Y46641906D01*
X116039114Y46642212D01*
X116042884Y46642962D01*
X116046530Y46644171D01*
X116259087Y46697994D01*
X116267600Y46698923D01*
X116267729Y46698974D01*
X116271849Y46700268D01*
X116274145Y46701350D01*
X116276422Y46702318D01*
X116277520Y46703079D01*
X116279512Y46704757D01*
X116283699Y46707854D01*
X116288884Y46714363D01*
X116454305Y46872007D01*
X116462186Y46877842D01*
X116464607Y46881296D01*
X116465807Y46882891D01*
X116466643Y46884689D01*
X116468489Y46888332D01*
X116469940Y46897914D01*
X116471583Y46903800D01*
X116537047Y47138275D01*
X116537804Y47140420D01*
X116538280Y47142355D01*
X116538348Y47144216D01*
X116538194Y47146569D01*
X116538194Y47147360D01*
X121587306Y47147360D01*
X121587494Y47143954D01*
X121587539Y47142299D01*
X121587923Y47140585D01*
X121587972Y47140325D01*
X121588595Y47138400D01*
X121643788Y46920432D01*
X121644724Y46912251D01*
X121646520Y46907648D01*
X121647147Y46905681D01*
X121648042Y46903752D01*
X121648072Y46903679D01*
X121648791Y46902624D01*
X121648819Y46902580D01*
X121650115Y46901032D01*
X121653620Y46896337D01*
X121660009Y46891248D01*
X121818058Y46725401D01*
X121823599Y46717994D01*
X121824208Y46717442D01*
X121827325Y46715260D01*
X121828525Y46714372D01*
X121829827Y46713762D01*
X121834267Y46711543D01*
X121834286Y46711537D01*
X121843882Y46710112D01*
X122084129Y46643036D01*
X122086289Y46642282D01*
X122088080Y46641855D01*
X122089328Y46641807D01*
X122091753Y46641949D01*
X135079100Y46641949D01*
X135082882Y46641677D01*
X135086733Y46641870D01*
X135088139Y46641906D01*
X135089506Y46642212D01*
X135093276Y46642962D01*
X135096922Y46644171D01*
X135309479Y46697994D01*
X135317992Y46698923D01*
X135318121Y46698974D01*
X135322241Y46700268D01*
X135324537Y46701350D01*
X135326814Y46702318D01*
X135327912Y46703079D01*
X135329904Y46704757D01*
X135334091Y46707854D01*
X135339276Y46714363D01*
X135504697Y46872007D01*
X135512578Y46877842D01*
X135514999Y46881296D01*
X135516199Y46882891D01*
X135517035Y46884689D01*
X135518881Y46888332D01*
X135520332Y46897914D01*
X135521975Y46903800D01*
X135587439Y47138275D01*
X135588196Y47140420D01*
X135588672Y47142355D01*
X135588740Y47144216D01*
X135588586Y47146569D01*
X135588586Y47147360D01*
X140637306Y47147360D01*
X140637494Y47143954D01*
X140637539Y47142299D01*
X140637923Y47140585D01*
X140637972Y47140325D01*
X140638595Y47138400D01*
X140693788Y46920432D01*
X140694724Y46912251D01*
X140696520Y46907648D01*
X140697147Y46905681D01*
X140698042Y46903752D01*
X140698072Y46903679D01*
X140698791Y46902624D01*
X140698819Y46902580D01*
X140700115Y46901032D01*
X140703620Y46896337D01*
X140710009Y46891248D01*
X140868058Y46725401D01*
X140873599Y46717994D01*
X140874208Y46717442D01*
X140877325Y46715260D01*
X140878525Y46714372D01*
X140879827Y46713762D01*
X140884267Y46711543D01*
X140884286Y46711537D01*
X140893882Y46710112D01*
X141134129Y46643036D01*
X141136289Y46642282D01*
X141138080Y46641855D01*
X141139328Y46641807D01*
X141141753Y46641949D01*
X154129100Y46641949D01*
X154132882Y46641677D01*
X154136733Y46641870D01*
X154138139Y46641906D01*
X154139506Y46642212D01*
X154143276Y46642962D01*
X154146922Y46644171D01*
X154359479Y46697994D01*
X154367992Y46698923D01*
X154368121Y46698974D01*
X154372241Y46700268D01*
X154374537Y46701350D01*
X154376814Y46702318D01*
X154377912Y46703079D01*
X154379904Y46704757D01*
X154384091Y46707854D01*
X154389276Y46714363D01*
X154554697Y46872007D01*
X154562578Y46877842D01*
X154564999Y46881296D01*
X154566199Y46882891D01*
X154567035Y46884689D01*
X154568881Y46888332D01*
X154570332Y46897914D01*
X154571975Y46903800D01*
X154637439Y47138275D01*
X154638196Y47140420D01*
X154638672Y47142355D01*
X154638740Y47144216D01*
X154638586Y47146569D01*
X154638586Y47147360D01*
X159686914Y47147360D01*
X159687102Y47143954D01*
X159687147Y47142299D01*
X159687531Y47140585D01*
X159687580Y47140325D01*
X159688203Y47138400D01*
X159743396Y46920432D01*
X159744332Y46912251D01*
X159746128Y46907648D01*
X159746755Y46905681D01*
X159747650Y46903752D01*
X159747680Y46903679D01*
X159748399Y46902624D01*
X159748427Y46902580D01*
X159749723Y46901032D01*
X159753228Y46896337D01*
X159759617Y46891248D01*
X159917666Y46725401D01*
X159923207Y46717994D01*
X159923816Y46717442D01*
X159926933Y46715260D01*
X159928133Y46714372D01*
X159929435Y46713762D01*
X159933875Y46711543D01*
X159933894Y46711537D01*
X159943490Y46710112D01*
X160183737Y46643036D01*
X160185897Y46642282D01*
X160187688Y46641855D01*
X160188936Y46641807D01*
X160191361Y46641949D01*
X173178708Y46641949D01*
X173182490Y46641677D01*
X173186341Y46641870D01*
X173187747Y46641906D01*
X173189114Y46642212D01*
X173192884Y46642962D01*
X173196530Y46644171D01*
X173409087Y46697994D01*
X173417600Y46698923D01*
X173417729Y46698974D01*
X173421849Y46700268D01*
X173424145Y46701350D01*
X173426422Y46702318D01*
X173427520Y46703079D01*
X173429512Y46704757D01*
X173433699Y46707854D01*
X173438884Y46714363D01*
X173604305Y46872007D01*
X173612186Y46877842D01*
X173614607Y46881296D01*
X173615807Y46882891D01*
X173616643Y46884689D01*
X173618489Y46888332D01*
X173619940Y46897914D01*
X173621583Y46903800D01*
X173687047Y47138275D01*
X173687804Y47140420D01*
X173688280Y47142355D01*
X173688348Y47144216D01*
X173688194Y47146569D01*
X173688194Y48230475D01*
X173688194Y60133474D01*
X173688503Y60137747D01*
X173688374Y60139791D01*
X173688324Y60142485D01*
X173687723Y60145083D01*
X173687308Y60147313D01*
X173685931Y60151450D01*
X173632293Y60363278D01*
X173631412Y60371711D01*
X173629284Y60377179D01*
X173628455Y60379798D01*
X173627900Y60381117D01*
X173627511Y60381683D01*
X173625590Y60383970D01*
X173622229Y60388473D01*
X173615864Y60393553D01*
X173458595Y60558582D01*
X173453210Y60565935D01*
X173451442Y60567537D01*
X173448445Y60569645D01*
X173447264Y60570524D01*
X173445933Y60571156D01*
X173442570Y60572860D01*
X173441717Y60573166D01*
X173432694Y60574567D01*
X173191495Y60641908D01*
X173189257Y60642682D01*
X173187737Y60643043D01*
X173186452Y60643092D01*
X173184028Y60642949D01*
X160196682Y60642949D01*
X160192899Y60643222D01*
X160189049Y60643028D01*
X160187546Y60642990D01*
X160185939Y60642638D01*
X160185736Y60642600D01*
X160183803Y60641981D01*
X159966219Y60586886D01*
X159958127Y60585997D01*
X159952411Y60583806D01*
X159950361Y60583148D01*
X159949082Y60582591D01*
X159948247Y60582028D01*
X159946547Y60580607D01*
X159941558Y60576848D01*
X159936584Y60570615D01*
X159771085Y60412898D01*
X159764304Y60407877D01*
X159762178Y60405183D01*
X159760865Y60403724D01*
X159759642Y60401983D01*
X159758517Y60399727D01*
X159757881Y60397957D01*
X159756744Y60395372D01*
X159755487Y60387129D01*
X159688191Y60146089D01*
X159687400Y60143784D01*
X159687083Y60142437D01*
X159687057Y60141811D01*
X159687194Y60139186D01*
X159687194Y47151299D01*
X159686914Y47147360D01*
X154638586Y47147360D01*
X154638586Y48230475D01*
X154638586Y60133476D01*
X154638859Y60137248D01*
X154638666Y60141094D01*
X154638630Y60142495D01*
X154638333Y60143816D01*
X154637534Y60147811D01*
X154636325Y60151441D01*
X154582685Y60363278D01*
X154581804Y60371711D01*
X154579676Y60377179D01*
X154578847Y60379798D01*
X154578292Y60381117D01*
X154577903Y60381683D01*
X154575982Y60383970D01*
X154572621Y60388473D01*
X154566256Y60393553D01*
X154408987Y60558582D01*
X154403602Y60565935D01*
X154401834Y60567537D01*
X154398837Y60569645D01*
X154397656Y60570524D01*
X154396325Y60571156D01*
X154392962Y60572860D01*
X154392109Y60573166D01*
X154383086Y60574567D01*
X154141887Y60641908D01*
X154139649Y60642682D01*
X154138129Y60643043D01*
X154136844Y60643092D01*
X154134420Y60642949D01*
X141147074Y60642949D01*
X141143291Y60643222D01*
X141139441Y60643028D01*
X141137938Y60642990D01*
X141136331Y60642638D01*
X141136128Y60642600D01*
X141134195Y60641981D01*
X140916611Y60586886D01*
X140908519Y60585997D01*
X140902803Y60583806D01*
X140900753Y60583148D01*
X140899474Y60582591D01*
X140898639Y60582028D01*
X140896939Y60580607D01*
X140891950Y60576848D01*
X140886976Y60570615D01*
X140721477Y60412898D01*
X140714696Y60407877D01*
X140712570Y60405183D01*
X140711257Y60403724D01*
X140710034Y60401983D01*
X140708909Y60399727D01*
X140708273Y60397957D01*
X140707136Y60395372D01*
X140705879Y60387129D01*
X140638583Y60146089D01*
X140637792Y60143784D01*
X140637475Y60142437D01*
X140637449Y60141811D01*
X140637586Y60139186D01*
X140637586Y47151299D01*
X140637306Y47147360D01*
X135588586Y47147360D01*
X135588586Y48230475D01*
X135588586Y60133476D01*
X135588859Y60137248D01*
X135588666Y60141094D01*
X135588630Y60142495D01*
X135588333Y60143816D01*
X135587534Y60147811D01*
X135586325Y60151441D01*
X135532685Y60363278D01*
X135531804Y60371711D01*
X135529676Y60377179D01*
X135528847Y60379798D01*
X135528292Y60381117D01*
X135527903Y60381683D01*
X135525982Y60383970D01*
X135522621Y60388473D01*
X135516256Y60393553D01*
X135358987Y60558582D01*
X135353602Y60565935D01*
X135351834Y60567537D01*
X135348837Y60569645D01*
X135347656Y60570524D01*
X135346325Y60571156D01*
X135342962Y60572860D01*
X135342109Y60573166D01*
X135333086Y60574567D01*
X135091887Y60641908D01*
X135089649Y60642682D01*
X135088129Y60643043D01*
X135086844Y60643092D01*
X135084420Y60642949D01*
X122097074Y60642949D01*
X122093291Y60643222D01*
X122089441Y60643028D01*
X122087938Y60642990D01*
X122086331Y60642638D01*
X122086128Y60642600D01*
X122084195Y60641981D01*
X121866611Y60586886D01*
X121858519Y60585997D01*
X121852803Y60583806D01*
X121850753Y60583148D01*
X121849474Y60582591D01*
X121848639Y60582028D01*
X121846939Y60580607D01*
X121841950Y60576848D01*
X121836976Y60570615D01*
X121671477Y60412898D01*
X121664696Y60407877D01*
X121662570Y60405183D01*
X121661257Y60403724D01*
X121660034Y60401983D01*
X121658909Y60399727D01*
X121658273Y60397957D01*
X121657136Y60395372D01*
X121655879Y60387129D01*
X121588583Y60146089D01*
X121587792Y60143784D01*
X121587475Y60142437D01*
X121587449Y60141811D01*
X121587586Y60139186D01*
X121587586Y47151299D01*
X121587306Y47147360D01*
X116538194Y47147360D01*
X116538194Y48230475D01*
X116538194Y60133476D01*
X116538467Y60137248D01*
X116538274Y60141094D01*
X116538238Y60142495D01*
X116537941Y60143816D01*
X116537142Y60147811D01*
X116535933Y60151441D01*
X116482293Y60363278D01*
X116481412Y60371711D01*
X116479284Y60377179D01*
X116478455Y60379798D01*
X116477900Y60381117D01*
X116477511Y60381683D01*
X116475590Y60383970D01*
X116472229Y60388473D01*
X116465864Y60393553D01*
X116308595Y60558582D01*
X116303210Y60565935D01*
X116301442Y60567537D01*
X116298445Y60569645D01*
X116297264Y60570524D01*
X116295933Y60571156D01*
X116292570Y60572860D01*
X116291717Y60573166D01*
X116282694Y60574567D01*
X116041495Y60641908D01*
X116039257Y60642682D01*
X116037737Y60643043D01*
X116036452Y60643092D01*
X116034028Y60642949D01*
X103046682Y60642949D01*
X103042899Y60643222D01*
X103039049Y60643028D01*
X103037546Y60642990D01*
X103035939Y60642638D01*
X103035736Y60642600D01*
X103033803Y60641981D01*
X102816219Y60586886D01*
X102808127Y60585997D01*
X102802411Y60583806D01*
X102800361Y60583148D01*
X102799082Y60582591D01*
X102798247Y60582028D01*
X102796547Y60580607D01*
X102791558Y60576848D01*
X102786584Y60570615D01*
X102621085Y60412898D01*
X102614304Y60407877D01*
X102612178Y60405183D01*
X102610865Y60403724D01*
X102609642Y60401983D01*
X102608517Y60399727D01*
X102607881Y60397957D01*
X102606744Y60395372D01*
X102605487Y60387129D01*
X102538191Y60146089D01*
X102537399Y60143780D01*
X102537104Y60142533D01*
X102537052Y60141130D01*
X102537195Y60138731D01*
X102537195Y47151299D01*
X102536914Y47147357D01*
X97488587Y47147357D01*
X97488587Y60133462D01*
X97488859Y60137243D01*
X97488666Y60141094D01*
X97488630Y60142495D01*
X97488333Y60143816D01*
X97487534Y60147811D01*
X97486325Y60151441D01*
X97432685Y60363278D01*
X97431804Y60371711D01*
X97429676Y60377179D01*
X97428847Y60379798D01*
X97428292Y60381117D01*
X97427903Y60381683D01*
X97425982Y60383970D01*
X97422621Y60388473D01*
X97416256Y60393553D01*
X97258987Y60558582D01*
X97253602Y60565935D01*
X97251834Y60567537D01*
X97248837Y60569645D01*
X97247656Y60570524D01*
X97246325Y60571156D01*
X97242962Y60572860D01*
X97242109Y60573166D01*
X97233086Y60574567D01*
X96991887Y60641908D01*
X96989649Y60642682D01*
X96988129Y60643043D01*
X96986844Y60643092D01*
X96984420Y60642949D01*
X83997074Y60642949D01*
X83993291Y60643222D01*
X83989441Y60643028D01*
X83987938Y60642990D01*
X83986331Y60642638D01*
X83986128Y60642600D01*
X83984195Y60641981D01*
X83766611Y60586886D01*
X83758519Y60585997D01*
X83752803Y60583806D01*
X83750753Y60583148D01*
X83749474Y60582591D01*
X83748639Y60582028D01*
X83746939Y60580607D01*
X83741950Y60576848D01*
X83736976Y60570615D01*
X83571477Y60412898D01*
X83564696Y60407877D01*
X83562570Y60405183D01*
X83561257Y60403724D01*
X83560034Y60401983D01*
X83558909Y60399727D01*
X83558273Y60397957D01*
X83557136Y60395372D01*
X83555879Y60387129D01*
X83488583Y60146089D01*
X83487791Y60143780D01*
X83487496Y60142533D01*
X83487443Y60141120D01*
X83487586Y60138725D01*
X83487587Y47151299D01*
X83487306Y47147357D01*
X78438587Y47147357D01*
X78438587Y60133462D01*
X78438859Y60137243D01*
X78438666Y60141094D01*
X78438630Y60142495D01*
X78438333Y60143816D01*
X78437534Y60147811D01*
X78436325Y60151441D01*
X78382685Y60363278D01*
X78381804Y60371711D01*
X78379676Y60377179D01*
X78378847Y60379798D01*
X78378292Y60381117D01*
X78377903Y60381683D01*
X78375982Y60383970D01*
X78372621Y60388473D01*
X78366256Y60393553D01*
X78208987Y60558582D01*
X78203602Y60565935D01*
X78201834Y60567537D01*
X78198837Y60569645D01*
X78197656Y60570524D01*
X78196325Y60571156D01*
X78192962Y60572860D01*
X78192109Y60573166D01*
X78183086Y60574567D01*
X77941887Y60641908D01*
X77939649Y60642682D01*
X77938129Y60643043D01*
X77936844Y60643092D01*
X77934420Y60642949D01*
X64947074Y60642949D01*
X64943291Y60643222D01*
X64939441Y60643028D01*
X64937938Y60642990D01*
X64936331Y60642638D01*
X64936128Y60642600D01*
X64934195Y60641981D01*
X64716611Y60586886D01*
X64708519Y60585997D01*
X64702803Y60583806D01*
X64700753Y60583148D01*
X64699474Y60582591D01*
X64698639Y60582028D01*
X64696939Y60580607D01*
X64691950Y60576848D01*
X64686976Y60570615D01*
X64521477Y60412898D01*
X64514696Y60407877D01*
X64512570Y60405183D01*
X64511257Y60403724D01*
X64510034Y60401983D01*
X64508909Y60399727D01*
X64508273Y60397957D01*
X64507136Y60395372D01*
X64505879Y60387129D01*
X64438583Y60146089D01*
X64437791Y60143780D01*
X64437496Y60142533D01*
X64437444Y60141130D01*
X64437587Y60138731D01*
X64437587Y47151299D01*
X64437306Y47147357D01*
X59388195Y47147357D01*
X59388195Y60133462D01*
X59388467Y60137243D01*
X59388274Y60141094D01*
X59388238Y60142495D01*
X59387941Y60143816D01*
X59387142Y60147811D01*
X59385933Y60151441D01*
X59332293Y60363278D01*
X59331412Y60371711D01*
X59329284Y60377179D01*
X59328455Y60379798D01*
X59327900Y60381117D01*
X59327511Y60381683D01*
X59325590Y60383970D01*
X59322229Y60388473D01*
X59315864Y60393553D01*
X59158595Y60558582D01*
X59153210Y60565935D01*
X59151442Y60567537D01*
X59148445Y60569645D01*
X59147264Y60570524D01*
X59145933Y60571156D01*
X59142570Y60572860D01*
X59141717Y60573166D01*
X59132694Y60574567D01*
X58891495Y60641908D01*
X58889257Y60642682D01*
X58887737Y60643043D01*
X58886452Y60643092D01*
X58884028Y60642949D01*
X45896682Y60642949D01*
X45892899Y60643222D01*
X45889049Y60643028D01*
X45887546Y60642990D01*
X45885939Y60642638D01*
X45885736Y60642600D01*
X45883803Y60641981D01*
X45666219Y60586886D01*
X45658127Y60585997D01*
X45652411Y60583806D01*
X45650361Y60583148D01*
X45649082Y60582591D01*
X45648247Y60582028D01*
X45646547Y60580607D01*
X45641558Y60576848D01*
X45636584Y60570615D01*
X45471085Y60412898D01*
X45464304Y60407877D01*
X45462178Y60405183D01*
X45460865Y60403724D01*
X45459642Y60401983D01*
X45458517Y60399727D01*
X45457881Y60397957D01*
X45456744Y60395372D01*
X45455487Y60387129D01*
X45388191Y60146089D01*
X45387399Y60143780D01*
X45387104Y60142533D01*
X45387052Y60141130D01*
X45387195Y60138731D01*
X45387195Y47151299D01*
X45386914Y47147357D01*
X40338587Y47147357D01*
X40338587Y60133462D01*
X40338859Y60137243D01*
X40338666Y60141094D01*
X40338630Y60142495D01*
X40338333Y60143816D01*
X40337534Y60147811D01*
X40336325Y60151441D01*
X40282685Y60363278D01*
X40281804Y60371711D01*
X40279676Y60377179D01*
X40278847Y60379798D01*
X40278292Y60381117D01*
X40277903Y60381683D01*
X40275982Y60383970D01*
X40272621Y60388473D01*
X40266256Y60393553D01*
X40108987Y60558582D01*
X40103602Y60565935D01*
X40101834Y60567537D01*
X40098837Y60569645D01*
X40097656Y60570524D01*
X40096325Y60571156D01*
X40092962Y60572860D01*
X40092109Y60573166D01*
X40083086Y60574567D01*
X39841887Y60641908D01*
X39839649Y60642682D01*
X39838129Y60643043D01*
X39836844Y60643092D01*
X39834420Y60642949D01*
X26847074Y60642949D01*
X26843291Y60643222D01*
X26839441Y60643028D01*
X26837938Y60642990D01*
X26836331Y60642638D01*
X26836128Y60642600D01*
X26834195Y60641981D01*
X26616611Y60586886D01*
X26608519Y60585997D01*
X26602803Y60583806D01*
X26600753Y60583148D01*
X26599474Y60582591D01*
X26598639Y60582028D01*
X26596939Y60580607D01*
X26591950Y60576848D01*
X26586976Y60570615D01*
X26421477Y60412898D01*
X26414696Y60407877D01*
X26412570Y60405183D01*
X26411257Y60403724D01*
X26410034Y60401983D01*
X26408909Y60399727D01*
X26408273Y60397957D01*
X26407136Y60395372D01*
X26405879Y60387129D01*
X26338583Y60146089D01*
X26337791Y60143780D01*
X26337496Y60142533D01*
X26337444Y60141130D01*
X26337587Y60138731D01*
X26337587Y47151299D01*
X26337306Y47147357D01*
X18907026Y47147357D01*
X18907026Y60133462D01*
X18907298Y60137243D01*
X18907105Y60141094D01*
X18907069Y60142495D01*
X18906772Y60143816D01*
X18905973Y60147811D01*
X18904764Y60151441D01*
X18851124Y60363278D01*
X18850243Y60371711D01*
X18848115Y60377179D01*
X18847286Y60379798D01*
X18846731Y60381117D01*
X18846342Y60381683D01*
X18844421Y60383970D01*
X18841060Y60388473D01*
X18834695Y60393553D01*
X18677426Y60558582D01*
X18672041Y60565935D01*
X18670273Y60567537D01*
X18667276Y60569645D01*
X18666095Y60570524D01*
X18664764Y60571156D01*
X18661401Y60572860D01*
X18660548Y60573166D01*
X18651525Y60574567D01*
X18410326Y60641908D01*
X18408088Y60642682D01*
X18406568Y60643043D01*
X18405283Y60643092D01*
X18402859Y60642949D01*
X5415513Y60642949D01*
X5411730Y60643222D01*
X5407880Y60643028D01*
X5406377Y60642990D01*
X5404770Y60642638D01*
X5404567Y60642600D01*
X5402634Y60641981D01*
X5185050Y60586886D01*
X5176958Y60585997D01*
X5171242Y60583806D01*
X5169192Y60583148D01*
X5167913Y60582591D01*
X5167078Y60582028D01*
X5165378Y60580607D01*
X5160389Y60576848D01*
X5155415Y60570615D01*
X4989916Y60412898D01*
X4983135Y60407877D01*
X4981009Y60405183D01*
X4979696Y60403724D01*
X4978473Y60401983D01*
X4977348Y60399727D01*
X4976712Y60397957D01*
X4975575Y60395372D01*
X4974318Y60387129D01*
X4907022Y60146089D01*
X4906230Y60143780D01*
X4905935Y60142533D01*
X4905883Y60141130D01*
X4906026Y60138731D01*
X4906026Y47151299D01*
X4905745Y47147357D01*
X891Y47147357D01*
X891Y66197357D01*
X2524806Y66197357D01*
X2524994Y66193954D01*
X2525039Y66192299D01*
X2525423Y66190585D01*
X2525472Y66190325D01*
X2526095Y66188400D01*
X2581288Y65970432D01*
X2582224Y65962251D01*
X2584020Y65957648D01*
X2584647Y65955681D01*
X2585542Y65953752D01*
X2585572Y65953679D01*
X2586291Y65952624D01*
X2586319Y65952580D01*
X2587615Y65951032D01*
X2591120Y65946337D01*
X2597509Y65941248D01*
X2755558Y65775401D01*
X2761099Y65767994D01*
X2761708Y65767442D01*
X2764825Y65765260D01*
X2766025Y65764372D01*
X2767327Y65763762D01*
X2771767Y65761543D01*
X2771786Y65761537D01*
X2781382Y65760112D01*
X3021629Y65693036D01*
X3023789Y65692282D01*
X3025580Y65691855D01*
X3026828Y65691807D01*
X3029253Y65691949D01*
X16016600Y65691949D01*
X16020382Y65691677D01*
X16024233Y65691870D01*
X16025639Y65691906D01*
X16027006Y65692212D01*
X16030776Y65692962D01*
X16034422Y65694171D01*
X16246979Y65747994D01*
X16255492Y65748923D01*
X16255621Y65748974D01*
X16259741Y65750268D01*
X16262037Y65751350D01*
X16264314Y65752318D01*
X16265412Y65753079D01*
X16267404Y65754757D01*
X16271591Y65757854D01*
X16276776Y65764363D01*
X16442197Y65922007D01*
X16450078Y65927842D01*
X16452499Y65931296D01*
X16453699Y65932891D01*
X16454535Y65934689D01*
X16456381Y65938332D01*
X16457832Y65947914D01*
X16459475Y65953800D01*
X16524939Y66188275D01*
X16525698Y66190424D01*
X16526193Y66192438D01*
X16526237Y66193545D01*
X16526087Y66196120D01*
X16526087Y66197357D01*
X21574806Y66197357D01*
X21574994Y66193954D01*
X21575039Y66192299D01*
X21575423Y66190585D01*
X21575472Y66190325D01*
X21576095Y66188400D01*
X21631288Y65970432D01*
X21632224Y65962251D01*
X21634020Y65957648D01*
X21634647Y65955681D01*
X21635542Y65953752D01*
X21635572Y65953679D01*
X21636291Y65952624D01*
X21636319Y65952580D01*
X21637615Y65951032D01*
X21641120Y65946337D01*
X21647509Y65941248D01*
X21805558Y65775401D01*
X21811099Y65767994D01*
X21811708Y65767442D01*
X21814825Y65765260D01*
X21816025Y65764372D01*
X21817327Y65763762D01*
X21821767Y65761543D01*
X21821786Y65761537D01*
X21831382Y65760112D01*
X22071629Y65693036D01*
X22073789Y65692282D01*
X22075580Y65691855D01*
X22076828Y65691807D01*
X22079253Y65691949D01*
X35066600Y65691949D01*
X35070382Y65691677D01*
X35074233Y65691870D01*
X35075639Y65691906D01*
X35077006Y65692212D01*
X35080776Y65692962D01*
X35084422Y65694171D01*
X35296979Y65747994D01*
X35305492Y65748923D01*
X35305621Y65748974D01*
X35309741Y65750268D01*
X35312037Y65751350D01*
X35314314Y65752318D01*
X35315412Y65753079D01*
X35317404Y65754757D01*
X35321591Y65757854D01*
X35326776Y65764363D01*
X35492197Y65922007D01*
X35500078Y65927842D01*
X35502499Y65931296D01*
X35503699Y65932891D01*
X35504535Y65934689D01*
X35506381Y65938332D01*
X35507832Y65947914D01*
X35509475Y65953800D01*
X35574939Y66188275D01*
X35575698Y66190424D01*
X35576193Y66192438D01*
X35576237Y66193545D01*
X35576087Y66196120D01*
X35576087Y66197357D01*
X40624414Y66197357D01*
X40624602Y66193954D01*
X40624647Y66192299D01*
X40625031Y66190585D01*
X40625080Y66190325D01*
X40625703Y66188400D01*
X40680896Y65970432D01*
X40681832Y65962251D01*
X40683628Y65957648D01*
X40684255Y65955681D01*
X40685150Y65953752D01*
X40685180Y65953679D01*
X40685899Y65952624D01*
X40685927Y65952580D01*
X40687223Y65951032D01*
X40690728Y65946337D01*
X40697117Y65941248D01*
X40855166Y65775401D01*
X40860707Y65767994D01*
X40861316Y65767442D01*
X40864433Y65765260D01*
X40865633Y65764372D01*
X40866935Y65763762D01*
X40871375Y65761543D01*
X40871394Y65761537D01*
X40880990Y65760112D01*
X41121237Y65693036D01*
X41123397Y65692282D01*
X41125188Y65691855D01*
X41126436Y65691807D01*
X41128861Y65691949D01*
X54116208Y65691949D01*
X54119990Y65691677D01*
X54123841Y65691870D01*
X54125247Y65691906D01*
X54126614Y65692212D01*
X54130384Y65692962D01*
X54134030Y65694171D01*
X54346587Y65747994D01*
X54355100Y65748923D01*
X54355229Y65748974D01*
X54359349Y65750268D01*
X54361645Y65751350D01*
X54363922Y65752318D01*
X54365020Y65753079D01*
X54367012Y65754757D01*
X54371199Y65757854D01*
X54376384Y65764363D01*
X54541805Y65922007D01*
X54549686Y65927842D01*
X54552107Y65931296D01*
X54553307Y65932891D01*
X54554143Y65934689D01*
X54555989Y65938332D01*
X54557440Y65947914D01*
X54559083Y65953800D01*
X54624547Y66188275D01*
X54625306Y66190424D01*
X54625801Y66192438D01*
X54625845Y66193545D01*
X54625695Y66196120D01*
X54625695Y66197357D01*
X59674806Y66197357D01*
X59674994Y66193954D01*
X59675039Y66192299D01*
X59675423Y66190585D01*
X59675472Y66190325D01*
X59676095Y66188400D01*
X59731288Y65970432D01*
X59732224Y65962251D01*
X59734020Y65957648D01*
X59734647Y65955681D01*
X59735542Y65953752D01*
X59735572Y65953679D01*
X59736291Y65952624D01*
X59736319Y65952580D01*
X59737615Y65951032D01*
X59741120Y65946337D01*
X59747509Y65941248D01*
X59905558Y65775401D01*
X59911099Y65767994D01*
X59911708Y65767442D01*
X59914825Y65765260D01*
X59916025Y65764372D01*
X59917327Y65763762D01*
X59921767Y65761543D01*
X59921786Y65761537D01*
X59931382Y65760112D01*
X60171629Y65693036D01*
X60173789Y65692282D01*
X60175580Y65691855D01*
X60176828Y65691807D01*
X60179253Y65691949D01*
X73166600Y65691949D01*
X73170382Y65691677D01*
X73174233Y65691870D01*
X73175639Y65691906D01*
X73177006Y65692212D01*
X73180776Y65692962D01*
X73184422Y65694171D01*
X73396979Y65747994D01*
X73405492Y65748923D01*
X73405621Y65748974D01*
X73409741Y65750268D01*
X73412037Y65751350D01*
X73414314Y65752318D01*
X73415412Y65753079D01*
X73417404Y65754757D01*
X73421591Y65757854D01*
X73426776Y65764363D01*
X73592197Y65922007D01*
X73600078Y65927842D01*
X73602499Y65931296D01*
X73603699Y65932891D01*
X73604535Y65934689D01*
X73606381Y65938332D01*
X73607832Y65947914D01*
X73609475Y65953800D01*
X73674939Y66188275D01*
X73675698Y66190424D01*
X73676193Y66192438D01*
X73676237Y66193545D01*
X73676087Y66196120D01*
X73676087Y66197357D01*
X78724806Y66197357D01*
X78724994Y66193954D01*
X78725039Y66192299D01*
X78725423Y66190585D01*
X78725472Y66190325D01*
X78726095Y66188400D01*
X78781288Y65970432D01*
X78782224Y65962251D01*
X78784020Y65957648D01*
X78784647Y65955681D01*
X78785542Y65953752D01*
X78785572Y65953679D01*
X78786291Y65952624D01*
X78786319Y65952580D01*
X78787615Y65951032D01*
X78791120Y65946337D01*
X78797509Y65941248D01*
X78955558Y65775401D01*
X78961099Y65767994D01*
X78961708Y65767442D01*
X78964825Y65765260D01*
X78966025Y65764372D01*
X78967327Y65763762D01*
X78971767Y65761543D01*
X78971786Y65761537D01*
X78981382Y65760112D01*
X79221629Y65693036D01*
X79223789Y65692282D01*
X79225580Y65691855D01*
X79226828Y65691807D01*
X79229253Y65691949D01*
X92216600Y65691949D01*
X92220382Y65691677D01*
X92224233Y65691870D01*
X92225639Y65691906D01*
X92227006Y65692212D01*
X92230776Y65692962D01*
X92234422Y65694171D01*
X92446979Y65747994D01*
X92455492Y65748923D01*
X92455621Y65748974D01*
X92459741Y65750268D01*
X92462037Y65751350D01*
X92464314Y65752318D01*
X92465412Y65753079D01*
X92467404Y65754757D01*
X92471591Y65757854D01*
X92476776Y65764363D01*
X92642197Y65922007D01*
X92650078Y65927842D01*
X92652499Y65931296D01*
X92653699Y65932891D01*
X92654535Y65934689D01*
X92656381Y65938332D01*
X92657832Y65947914D01*
X92659475Y65953800D01*
X92724939Y66188275D01*
X92725698Y66190424D01*
X92726193Y66192438D01*
X92726237Y66193545D01*
X92726087Y66196120D01*
X92726087Y66197357D01*
X97774414Y66197357D01*
X97774602Y66193954D01*
X97774647Y66192299D01*
X97775031Y66190585D01*
X97775080Y66190325D01*
X97775703Y66188400D01*
X97830896Y65970432D01*
X97831832Y65962251D01*
X97833628Y65957648D01*
X97834255Y65955681D01*
X97835150Y65953752D01*
X97835180Y65953679D01*
X97835899Y65952624D01*
X97835927Y65952580D01*
X97837223Y65951032D01*
X97840728Y65946337D01*
X97847117Y65941248D01*
X98005166Y65775401D01*
X98010707Y65767994D01*
X98011316Y65767442D01*
X98014433Y65765260D01*
X98015633Y65764372D01*
X98016935Y65763762D01*
X98021375Y65761543D01*
X98021394Y65761537D01*
X98030990Y65760112D01*
X98271237Y65693036D01*
X98273397Y65692282D01*
X98275188Y65691855D01*
X98276436Y65691807D01*
X98278861Y65691949D01*
X111266208Y65691949D01*
X111269990Y65691677D01*
X111273841Y65691870D01*
X111275247Y65691906D01*
X111276614Y65692212D01*
X111280384Y65692962D01*
X111284030Y65694171D01*
X111496587Y65747994D01*
X111505100Y65748923D01*
X111505229Y65748974D01*
X111509349Y65750268D01*
X111511645Y65751350D01*
X111513922Y65752318D01*
X111515020Y65753079D01*
X111517012Y65754757D01*
X111521199Y65757854D01*
X111526384Y65764363D01*
X111691805Y65922007D01*
X111699686Y65927842D01*
X111702107Y65931296D01*
X111703307Y65932891D01*
X111704143Y65934689D01*
X111705989Y65938332D01*
X111707440Y65947914D01*
X111709083Y65953800D01*
X111774547Y66188275D01*
X111775304Y66190420D01*
X111775780Y66192355D01*
X111775848Y66194216D01*
X111775694Y66196569D01*
X111775694Y66197360D01*
X116824806Y66197360D01*
X116824994Y66193954D01*
X116825039Y66192299D01*
X116825423Y66190585D01*
X116825472Y66190325D01*
X116826095Y66188400D01*
X116881288Y65970432D01*
X116882224Y65962251D01*
X116884020Y65957648D01*
X116884647Y65955681D01*
X116885542Y65953752D01*
X116885572Y65953679D01*
X116886291Y65952624D01*
X116886319Y65952580D01*
X116887615Y65951032D01*
X116891120Y65946337D01*
X116897509Y65941248D01*
X117055558Y65775401D01*
X117061099Y65767994D01*
X117061708Y65767442D01*
X117064825Y65765260D01*
X117066025Y65764372D01*
X117067327Y65763762D01*
X117071767Y65761543D01*
X117071786Y65761537D01*
X117081382Y65760112D01*
X117321629Y65693036D01*
X117323789Y65692282D01*
X117325580Y65691855D01*
X117326828Y65691807D01*
X117329253Y65691949D01*
X130316600Y65691949D01*
X130320382Y65691677D01*
X130324233Y65691870D01*
X130325639Y65691906D01*
X130327006Y65692212D01*
X130330776Y65692962D01*
X130334422Y65694171D01*
X130546979Y65747994D01*
X130555492Y65748923D01*
X130555621Y65748974D01*
X130559741Y65750268D01*
X130562037Y65751350D01*
X130564314Y65752318D01*
X130565412Y65753079D01*
X130567404Y65754757D01*
X130571591Y65757854D01*
X130576776Y65764363D01*
X130742197Y65922007D01*
X130750078Y65927842D01*
X130752499Y65931296D01*
X130753699Y65932891D01*
X130754535Y65934689D01*
X130756381Y65938332D01*
X130757832Y65947914D01*
X130759475Y65953800D01*
X130824939Y66188275D01*
X130825696Y66190420D01*
X130826172Y66192355D01*
X130826240Y66194216D01*
X130826086Y66196569D01*
X130826086Y66197360D01*
X135874806Y66197360D01*
X135874994Y66193954D01*
X135875039Y66192299D01*
X135875423Y66190585D01*
X135875472Y66190325D01*
X135876095Y66188400D01*
X135931288Y65970432D01*
X135932224Y65962251D01*
X135934020Y65957648D01*
X135934647Y65955681D01*
X135935542Y65953752D01*
X135935572Y65953679D01*
X135936291Y65952624D01*
X135936319Y65952580D01*
X135937615Y65951032D01*
X135941120Y65946337D01*
X135947509Y65941248D01*
X136105558Y65775401D01*
X136111099Y65767994D01*
X136111708Y65767442D01*
X136114825Y65765260D01*
X136116025Y65764372D01*
X136117327Y65763762D01*
X136121767Y65761543D01*
X136121786Y65761537D01*
X136131382Y65760112D01*
X136371629Y65693036D01*
X136373789Y65692282D01*
X136375580Y65691855D01*
X136376828Y65691807D01*
X136379253Y65691949D01*
X149366600Y65691949D01*
X149370382Y65691677D01*
X149374233Y65691870D01*
X149375639Y65691906D01*
X149377006Y65692212D01*
X149380776Y65692962D01*
X149384422Y65694171D01*
X149596979Y65747994D01*
X149605492Y65748923D01*
X149605621Y65748974D01*
X149609741Y65750268D01*
X149612037Y65751350D01*
X149614314Y65752318D01*
X149615412Y65753079D01*
X149617404Y65754757D01*
X149621591Y65757854D01*
X149626776Y65764363D01*
X149792197Y65922007D01*
X149800078Y65927842D01*
X149802499Y65931296D01*
X149803699Y65932891D01*
X149804535Y65934689D01*
X149806381Y65938332D01*
X149807832Y65947914D01*
X149809475Y65953800D01*
X149874939Y66188275D01*
X149875696Y66190420D01*
X149876172Y66192355D01*
X149876240Y66194216D01*
X149876086Y66196569D01*
X149876086Y66197360D01*
X154924414Y66197360D01*
X154924602Y66193954D01*
X154924647Y66192299D01*
X154925031Y66190585D01*
X154925080Y66190325D01*
X154925703Y66188400D01*
X154980896Y65970432D01*
X154981832Y65962251D01*
X154983628Y65957648D01*
X154984255Y65955681D01*
X154985150Y65953752D01*
X154985180Y65953679D01*
X154985899Y65952624D01*
X154985927Y65952580D01*
X154987223Y65951032D01*
X154990728Y65946337D01*
X154997117Y65941248D01*
X155155166Y65775401D01*
X155160707Y65767994D01*
X155161316Y65767442D01*
X155164433Y65765260D01*
X155165633Y65764372D01*
X155166935Y65763762D01*
X155171375Y65761543D01*
X155171394Y65761537D01*
X155180990Y65760112D01*
X155421237Y65693036D01*
X155423397Y65692282D01*
X155425188Y65691855D01*
X155426436Y65691807D01*
X155428861Y65691949D01*
X168416208Y65691949D01*
X168419990Y65691677D01*
X168423841Y65691870D01*
X168425247Y65691906D01*
X168426614Y65692212D01*
X168430384Y65692962D01*
X168434030Y65694171D01*
X168646587Y65747994D01*
X168655100Y65748923D01*
X168655229Y65748974D01*
X168659349Y65750268D01*
X168661645Y65751350D01*
X168663922Y65752318D01*
X168665020Y65753079D01*
X168667012Y65754757D01*
X168671199Y65757854D01*
X168676384Y65764363D01*
X168841805Y65922007D01*
X168849686Y65927842D01*
X168852107Y65931296D01*
X168853307Y65932891D01*
X168854143Y65934689D01*
X168855989Y65938332D01*
X168857440Y65947914D01*
X168859083Y65953800D01*
X168924547Y66188275D01*
X168925304Y66190420D01*
X168925745Y66192212D01*
X178737110Y66192212D01*
X178737298Y66188806D01*
X178737343Y66187151D01*
X178737727Y66185437D01*
X178737776Y66185177D01*
X178738399Y66183252D01*
X178792288Y65970432D01*
X178793592Y65965284D01*
X178794528Y65957103D01*
X178796324Y65952500D01*
X178796951Y65950533D01*
X178797846Y65948604D01*
X178797876Y65948531D01*
X178798595Y65947476D01*
X178798623Y65947432D01*
X178799919Y65945884D01*
X178803424Y65941189D01*
X178809813Y65936100D01*
X178967862Y65770253D01*
X178973403Y65762846D01*
X178974012Y65762294D01*
X178977129Y65760112D01*
X178978329Y65759224D01*
X178979631Y65758614D01*
X178984071Y65756395D01*
X178984090Y65756389D01*
X178993686Y65754964D01*
X179233933Y65687888D01*
X179236093Y65687134D01*
X179237884Y65686707D01*
X179239132Y65686659D01*
X179241557Y65686801D01*
X180603627Y65686801D01*
X180634055Y65683010D01*
X180825674Y65634491D01*
X180880774Y65604054D01*
X181021602Y65469849D01*
X181055487Y65413429D01*
X181114071Y65203597D01*
X181118639Y65170249D01*
X181118404Y55242776D01*
X181114610Y55212341D01*
X181066091Y55020729D01*
X181035651Y54965622D01*
X181034641Y54964561D01*
X180901451Y54824800D01*
X180845030Y54790914D01*
X180635167Y54732321D01*
X180601878Y54727753D01*
X179623243Y54727307D01*
X179621512Y54727420D01*
X179619083Y54727313D01*
X179616955Y54726882D01*
X179615247Y54726335D01*
X179397665Y54671241D01*
X179389573Y54670352D01*
X179383857Y54668161D01*
X179381807Y54667503D01*
X179380528Y54666946D01*
X179379693Y54666383D01*
X179377993Y54664962D01*
X179373004Y54661203D01*
X179368030Y54654970D01*
X179202531Y54497253D01*
X179195750Y54492232D01*
X179193624Y54489538D01*
X179192311Y54488079D01*
X179191088Y54486338D01*
X179189963Y54484082D01*
X179189327Y54482312D01*
X179188190Y54479727D01*
X179186933Y54471484D01*
X179119637Y54230444D01*
X179118845Y54228135D01*
X179118550Y54226888D01*
X179118498Y54225485D01*
X179118641Y54223086D01*
X179118641Y48230475D01*
X179118490Y48227900D01*
X179118538Y48226711D01*
X179118860Y48225382D01*
X179119682Y48223004D01*
X179187023Y47981805D01*
X179188424Y47972782D01*
X179188730Y47971929D01*
X179190434Y47968566D01*
X179191066Y47967235D01*
X179191945Y47966054D01*
X179194053Y47963057D01*
X179195655Y47961289D01*
X179203008Y47955904D01*
X179368037Y47798635D01*
X179373117Y47792270D01*
X179377620Y47788909D01*
X179379907Y47786988D01*
X179380473Y47786599D01*
X179381792Y47786044D01*
X179384411Y47785215D01*
X179389879Y47783087D01*
X179398312Y47782206D01*
X179610149Y47728566D01*
X179613779Y47727357D01*
X179617774Y47726558D01*
X179619095Y47726261D01*
X179620496Y47726225D01*
X179624346Y47726032D01*
X179628129Y47726304D01*
X180593740Y47726304D01*
X180624173Y47722512D01*
X180825672Y47671491D01*
X180880774Y47641054D01*
X181021602Y47506849D01*
X181055487Y47450429D01*
X181114072Y47240596D01*
X181118640Y47207253D01*
X181118641Y47146150D01*
X181118402Y47142796D01*
X181118632Y47137246D01*
X181119108Y47134923D01*
X181119653Y47133239D01*
X181174842Y46915284D01*
X181175778Y46907103D01*
X181177574Y46902500D01*
X181178201Y46900533D01*
X181179096Y46898604D01*
X181179126Y46898531D01*
X181179845Y46897476D01*
X181179873Y46897432D01*
X181181169Y46895884D01*
X181184674Y46891189D01*
X181191063Y46886100D01*
X181349112Y46720253D01*
X181354653Y46712846D01*
X181355262Y46712294D01*
X181358379Y46710112D01*
X181359579Y46709224D01*
X181360881Y46708614D01*
X181365321Y46706395D01*
X181365340Y46706389D01*
X181374936Y46704964D01*
X181615183Y46637888D01*
X181617343Y46637134D01*
X181619134Y46636707D01*
X181620382Y46636659D01*
X181622807Y46636801D01*
X194610154Y46636801D01*
X194613936Y46636529D01*
X194617787Y46636722D01*
X194619193Y46636758D01*
X194620560Y46637064D01*
X194624330Y46637814D01*
X194627976Y46639023D01*
X194840533Y46692846D01*
X194849046Y46693775D01*
X194849175Y46693826D01*
X194853295Y46695120D01*
X194855591Y46696202D01*
X194857868Y46697170D01*
X194858966Y46697931D01*
X194860958Y46699609D01*
X194865145Y46702706D01*
X194870330Y46709215D01*
X195035751Y46866859D01*
X195043632Y46872694D01*
X195046053Y46876148D01*
X195047253Y46877743D01*
X195048089Y46879541D01*
X195049935Y46883184D01*
X195051386Y46892766D01*
X195053029Y46898652D01*
X195118493Y47133127D01*
X195119252Y47135276D01*
X195119747Y47137290D01*
X195119791Y47138397D01*
X195119641Y47140972D01*
X195119641Y47208787D01*
X195123432Y47239216D01*
X195171953Y47430840D01*
X195202389Y47485938D01*
X195336594Y47626765D01*
X195393008Y47660648D01*
X195602851Y47719234D01*
X195636196Y47723801D01*
X196610154Y47723801D01*
X196613936Y47723529D01*
X196617787Y47723722D01*
X196619193Y47723758D01*
X196620560Y47724064D01*
X196624330Y47724814D01*
X196627976Y47726023D01*
X196840533Y47779846D01*
X196849046Y47780775D01*
X196849175Y47780826D01*
X196853295Y47782120D01*
X196855591Y47783202D01*
X196857868Y47784170D01*
X196858966Y47784931D01*
X196860958Y47786609D01*
X196865145Y47789706D01*
X196870330Y47796215D01*
X197035751Y47953859D01*
X197043632Y47959694D01*
X197046053Y47963148D01*
X197047253Y47964743D01*
X197048089Y47966541D01*
X197049935Y47970184D01*
X197051386Y47979766D01*
X197118491Y48220120D01*
X197119252Y48222276D01*
X197119747Y48224290D01*
X197119791Y48225397D01*
X197119641Y48227972D01*
X197119641Y54215314D01*
X197119913Y54219095D01*
X197119720Y54222946D01*
X197119684Y54224347D01*
X197119387Y54225668D01*
X197118588Y54229663D01*
X197117379Y54233293D01*
X197063739Y54445130D01*
X197062858Y54453563D01*
X197060730Y54459031D01*
X197059901Y54461650D01*
X197059346Y54462969D01*
X197058957Y54463535D01*
X197057036Y54465822D01*
X197053675Y54470325D01*
X197047310Y54475405D01*
X196890041Y54640434D01*
X196884656Y54647787D01*
X196882888Y54649389D01*
X196879891Y54651497D01*
X196878710Y54652376D01*
X196877379Y54653008D01*
X196874016Y54654712D01*
X196873163Y54655018D01*
X196864140Y54656419D01*
X196622941Y54723760D01*
X196620703Y54724534D01*
X196619183Y54724895D01*
X196617898Y54724944D01*
X196615474Y54724801D01*
X195634657Y54724801D01*
X195604219Y54728595D01*
X195412607Y54777114D01*
X195357500Y54807554D01*
X195339403Y54824800D01*
X195216678Y54941754D01*
X195182793Y54998172D01*
X195124208Y55208013D01*
X195119641Y55241357D01*
X195119641Y71084787D01*
X195123432Y71115216D01*
X195171953Y71306840D01*
X195202389Y71361938D01*
X195336594Y71502765D01*
X195393008Y71536648D01*
X195602851Y71595234D01*
X195636196Y71599801D01*
X196610154Y71599801D01*
X196613936Y71599529D01*
X196617787Y71599722D01*
X196619193Y71599758D01*
X196620560Y71600064D01*
X196624330Y71600814D01*
X196627976Y71602023D01*
X196840533Y71655846D01*
X196849046Y71656775D01*
X196849175Y71656826D01*
X196853295Y71658120D01*
X196855591Y71659202D01*
X196857868Y71660170D01*
X196858966Y71660931D01*
X196860958Y71662609D01*
X196865145Y71665706D01*
X196870330Y71672215D01*
X197035751Y71829859D01*
X197043632Y71835694D01*
X197046053Y71839148D01*
X197047253Y71840743D01*
X197048089Y71842541D01*
X197049935Y71846184D01*
X197051386Y71855766D01*
X197118491Y72096120D01*
X197119252Y72098276D01*
X197119747Y72100290D01*
X197119791Y72101397D01*
X197119641Y72103972D01*
X197119641Y78091314D01*
X197119913Y78095095D01*
X197119720Y78098946D01*
X197119684Y78100347D01*
X197119387Y78101668D01*
X197118588Y78105663D01*
X197117379Y78109293D01*
X197063739Y78321130D01*
X197062858Y78329563D01*
X197060730Y78335031D01*
X197059901Y78337650D01*
X197059346Y78338969D01*
X197058957Y78339535D01*
X197057036Y78341822D01*
X197053675Y78346325D01*
X197047310Y78351405D01*
X196890041Y78516434D01*
X196884656Y78523787D01*
X196882888Y78525389D01*
X196879891Y78527497D01*
X196878710Y78528376D01*
X196877379Y78529008D01*
X196874016Y78530712D01*
X196873163Y78531018D01*
X196864140Y78532419D01*
X196622941Y78599760D01*
X196620703Y78600534D01*
X196619183Y78600895D01*
X196617898Y78600944D01*
X196615474Y78600801D01*
X193253407Y78600801D01*
X193222969Y78604595D01*
X193031357Y78653114D01*
X192976250Y78683554D01*
X192835428Y78817754D01*
X192801543Y78874172D01*
X192742958Y79084013D01*
X192738391Y79117355D01*
X192738391Y79117356D01*
X192738391Y79183326D01*
X192738663Y79187099D01*
X192738470Y79190946D01*
X192738434Y79192347D01*
X192738137Y79193668D01*
X192737338Y79197663D01*
X192736129Y79201293D01*
X192682489Y79413130D01*
X192681608Y79421563D01*
X192679480Y79427031D01*
X192678651Y79429650D01*
X192678096Y79430969D01*
X192677707Y79431535D01*
X192675786Y79433822D01*
X192672425Y79438325D01*
X192666060Y79443405D01*
X192508791Y79608434D01*
X192503406Y79615787D01*
X192501638Y79617389D01*
X192498641Y79619497D01*
X192497460Y79620376D01*
X192496129Y79621008D01*
X192492766Y79622712D01*
X192491913Y79623018D01*
X192482890Y79624419D01*
X192241691Y79691760D01*
X192239453Y79692534D01*
X192237933Y79692895D01*
X192236648Y79692944D01*
X192234224Y79692801D01*
X179246878Y79692801D01*
X179243095Y79693074D01*
X179239245Y79692880D01*
X179237742Y79692842D01*
X179236135Y79692490D01*
X179235932Y79692452D01*
X179233999Y79691833D01*
X179016415Y79636738D01*
X179008323Y79635849D01*
X179002607Y79633658D01*
X179000557Y79633000D01*
X178999278Y79632443D01*
X178998443Y79631880D01*
X178996743Y79630459D01*
X178991754Y79626700D01*
X178986780Y79620467D01*
X178821281Y79462750D01*
X178814500Y79457729D01*
X178812374Y79455035D01*
X178811061Y79453576D01*
X178809838Y79451835D01*
X178808713Y79449579D01*
X178808077Y79447809D01*
X178806940Y79445224D01*
X178805683Y79436981D01*
X178738387Y79195941D01*
X178737596Y79193636D01*
X178737279Y79192289D01*
X178737253Y79191663D01*
X178737390Y79189038D01*
X178737390Y66196151D01*
X178737110Y66192212D01*
X168925745Y66192212D01*
X168925780Y66192355D01*
X168925848Y66194216D01*
X168925694Y66196569D01*
X168925694Y72103972D01*
X168925694Y79183476D01*
X168925967Y79187248D01*
X168925774Y79191094D01*
X168925738Y79192495D01*
X168925441Y79193816D01*
X168924642Y79197811D01*
X168923433Y79201441D01*
X168869793Y79413278D01*
X168868912Y79421711D01*
X168866784Y79427179D01*
X168865955Y79429798D01*
X168865400Y79431117D01*
X168865011Y79431683D01*
X168863090Y79433970D01*
X168859729Y79438473D01*
X168853364Y79443553D01*
X168696095Y79608582D01*
X168690710Y79615935D01*
X168688942Y79617537D01*
X168685945Y79619645D01*
X168684764Y79620524D01*
X168683433Y79621156D01*
X168680070Y79622860D01*
X168679217Y79623166D01*
X168670194Y79624567D01*
X168428995Y79691908D01*
X168426757Y79692682D01*
X168425237Y79693043D01*
X168423952Y79693092D01*
X168421528Y79692949D01*
X155434182Y79692949D01*
X155430399Y79693222D01*
X155426549Y79693028D01*
X155425046Y79692990D01*
X155423439Y79692638D01*
X155423236Y79692600D01*
X155421303Y79691981D01*
X155203719Y79636886D01*
X155195627Y79635997D01*
X155189911Y79633806D01*
X155187861Y79633148D01*
X155186582Y79632591D01*
X155185747Y79632028D01*
X155184047Y79630607D01*
X155179058Y79626848D01*
X155174084Y79620615D01*
X155008585Y79462898D01*
X155001804Y79457877D01*
X154999678Y79455183D01*
X154998365Y79453724D01*
X154997142Y79451983D01*
X154996017Y79449727D01*
X154995381Y79447957D01*
X154994244Y79445372D01*
X154992987Y79437129D01*
X154925691Y79196089D01*
X154924900Y79193784D01*
X154924583Y79192437D01*
X154924557Y79191811D01*
X154924694Y79189186D01*
X154924694Y66201299D01*
X154924414Y66197360D01*
X149876086Y66197360D01*
X149876086Y72103972D01*
X149876086Y79183476D01*
X149876359Y79187248D01*
X149876166Y79191094D01*
X149876130Y79192495D01*
X149875833Y79193816D01*
X149875034Y79197811D01*
X149873825Y79201441D01*
X149820185Y79413278D01*
X149819304Y79421711D01*
X149817176Y79427179D01*
X149816347Y79429798D01*
X149815792Y79431117D01*
X149815403Y79431683D01*
X149813482Y79433970D01*
X149810121Y79438473D01*
X149803756Y79443553D01*
X149646487Y79608582D01*
X149641102Y79615935D01*
X149639334Y79617537D01*
X149636337Y79619645D01*
X149635156Y79620524D01*
X149633825Y79621156D01*
X149630462Y79622860D01*
X149629609Y79623166D01*
X149620586Y79624567D01*
X149379387Y79691908D01*
X149377149Y79692682D01*
X149375629Y79693043D01*
X149374344Y79693092D01*
X149371920Y79692949D01*
X136384574Y79692949D01*
X136380791Y79693222D01*
X136376941Y79693028D01*
X136375438Y79692990D01*
X136373831Y79692638D01*
X136373628Y79692600D01*
X136371695Y79691981D01*
X136154111Y79636886D01*
X136146019Y79635997D01*
X136140303Y79633806D01*
X136138253Y79633148D01*
X136136974Y79632591D01*
X136136139Y79632028D01*
X136134439Y79630607D01*
X136129450Y79626848D01*
X136124476Y79620615D01*
X135958977Y79462898D01*
X135952196Y79457877D01*
X135950070Y79455183D01*
X135948757Y79453724D01*
X135947534Y79451983D01*
X135946409Y79449727D01*
X135945773Y79447957D01*
X135944636Y79445372D01*
X135943379Y79437129D01*
X135876083Y79196089D01*
X135875292Y79193784D01*
X135874975Y79192437D01*
X135874949Y79191811D01*
X135875086Y79189186D01*
X135875086Y66201299D01*
X135874806Y66197360D01*
X130826086Y66197360D01*
X130826086Y72103972D01*
X130826086Y79183476D01*
X130826359Y79187248D01*
X130826166Y79191094D01*
X130826130Y79192495D01*
X130825833Y79193816D01*
X130825034Y79197811D01*
X130823825Y79201441D01*
X130770185Y79413278D01*
X130769304Y79421711D01*
X130767176Y79427179D01*
X130766347Y79429798D01*
X130765792Y79431117D01*
X130765403Y79431683D01*
X130763482Y79433970D01*
X130760121Y79438473D01*
X130753756Y79443553D01*
X130596487Y79608582D01*
X130591102Y79615935D01*
X130589334Y79617537D01*
X130586337Y79619645D01*
X130585156Y79620524D01*
X130583825Y79621156D01*
X130580462Y79622860D01*
X130579609Y79623166D01*
X130570586Y79624567D01*
X130329387Y79691908D01*
X130327149Y79692682D01*
X130325629Y79693043D01*
X130324344Y79693092D01*
X130321920Y79692949D01*
X117334574Y79692949D01*
X117330791Y79693222D01*
X117326941Y79693028D01*
X117325438Y79692990D01*
X117323831Y79692638D01*
X117323628Y79692600D01*
X117321695Y79691981D01*
X117104111Y79636886D01*
X117096019Y79635997D01*
X117090303Y79633806D01*
X117088253Y79633148D01*
X117086974Y79632591D01*
X117086139Y79632028D01*
X117084439Y79630607D01*
X117079450Y79626848D01*
X117074476Y79620615D01*
X116908977Y79462898D01*
X116902196Y79457877D01*
X116900070Y79455183D01*
X116898757Y79453724D01*
X116897534Y79451983D01*
X116896409Y79449727D01*
X116895773Y79447957D01*
X116894636Y79445372D01*
X116893379Y79437129D01*
X116826083Y79196089D01*
X116825292Y79193784D01*
X116824975Y79192437D01*
X116824949Y79191811D01*
X116825086Y79189186D01*
X116825086Y66201299D01*
X116824806Y66197360D01*
X111775694Y66197360D01*
X111775694Y72103972D01*
X111775694Y79183476D01*
X111775967Y79187248D01*
X111775774Y79191094D01*
X111775738Y79192495D01*
X111775441Y79193816D01*
X111774642Y79197811D01*
X111773433Y79201441D01*
X111719793Y79413278D01*
X111718912Y79421711D01*
X111716784Y79427179D01*
X111715955Y79429798D01*
X111715400Y79431117D01*
X111715011Y79431683D01*
X111713090Y79433970D01*
X111709729Y79438473D01*
X111703364Y79443553D01*
X111546095Y79608582D01*
X111540710Y79615935D01*
X111538942Y79617537D01*
X111535945Y79619645D01*
X111534764Y79620524D01*
X111533433Y79621156D01*
X111530070Y79622860D01*
X111529217Y79623166D01*
X111520194Y79624567D01*
X111278995Y79691908D01*
X111276757Y79692682D01*
X111275237Y79693043D01*
X111273952Y79693092D01*
X111271528Y79692949D01*
X98284182Y79692949D01*
X98280399Y79693222D01*
X98276549Y79693028D01*
X98275046Y79692990D01*
X98273439Y79692638D01*
X98273236Y79692600D01*
X98271303Y79691981D01*
X98053719Y79636886D01*
X98045627Y79635997D01*
X98039911Y79633806D01*
X98037861Y79633148D01*
X98036582Y79632591D01*
X98035747Y79632028D01*
X98034047Y79630607D01*
X98029058Y79626848D01*
X98024084Y79620615D01*
X97858585Y79462898D01*
X97851804Y79457877D01*
X97849678Y79455183D01*
X97848365Y79453724D01*
X97847142Y79451983D01*
X97846017Y79449727D01*
X97845381Y79447957D01*
X97844244Y79445372D01*
X97842987Y79437129D01*
X97775691Y79196089D01*
X97774899Y79193780D01*
X97774604Y79192533D01*
X97774552Y79191130D01*
X97774695Y79188731D01*
X97774695Y66201299D01*
X97774414Y66197357D01*
X92726087Y66197357D01*
X92726087Y79183462D01*
X92726359Y79187243D01*
X92726166Y79191094D01*
X92726130Y79192495D01*
X92725833Y79193816D01*
X92725034Y79197811D01*
X92723825Y79201441D01*
X92670185Y79413278D01*
X92669304Y79421711D01*
X92667176Y79427179D01*
X92666347Y79429798D01*
X92665792Y79431117D01*
X92665403Y79431683D01*
X92663482Y79433970D01*
X92660121Y79438473D01*
X92653756Y79443553D01*
X92496487Y79608582D01*
X92491102Y79615935D01*
X92489334Y79617537D01*
X92486337Y79619645D01*
X92485156Y79620524D01*
X92483825Y79621156D01*
X92480462Y79622860D01*
X92479609Y79623166D01*
X92470586Y79624567D01*
X92229387Y79691908D01*
X92227149Y79692682D01*
X92225629Y79693043D01*
X92224344Y79693092D01*
X92221920Y79692949D01*
X79234574Y79692949D01*
X79230791Y79693222D01*
X79226941Y79693028D01*
X79225438Y79692990D01*
X79223831Y79692638D01*
X79223628Y79692600D01*
X79221695Y79691981D01*
X79004111Y79636886D01*
X78996019Y79635997D01*
X78990303Y79633806D01*
X78988253Y79633148D01*
X78986974Y79632591D01*
X78986139Y79632028D01*
X78984439Y79630607D01*
X78979450Y79626848D01*
X78974476Y79620615D01*
X78808977Y79462898D01*
X78802196Y79457877D01*
X78800070Y79455183D01*
X78798757Y79453724D01*
X78797534Y79451983D01*
X78796409Y79449727D01*
X78795773Y79447957D01*
X78794636Y79445372D01*
X78793379Y79437129D01*
X78726083Y79196089D01*
X78725291Y79193780D01*
X78724996Y79192533D01*
X78724943Y79191120D01*
X78725086Y79188725D01*
X78725087Y66201299D01*
X78724806Y66197357D01*
X73676087Y66197357D01*
X73676087Y72103972D01*
X73676087Y79183476D01*
X73676359Y79187248D01*
X73676166Y79191094D01*
X73676130Y79192495D01*
X73675833Y79193816D01*
X73675034Y79197811D01*
X73673825Y79201441D01*
X73620185Y79413278D01*
X73619304Y79421711D01*
X73617176Y79427179D01*
X73616347Y79429798D01*
X73615792Y79431117D01*
X73615403Y79431683D01*
X73613482Y79433970D01*
X73610121Y79438473D01*
X73603756Y79443553D01*
X73446487Y79608582D01*
X73441102Y79615935D01*
X73439334Y79617537D01*
X73436337Y79619645D01*
X73435156Y79620524D01*
X73433825Y79621156D01*
X73430462Y79622860D01*
X73429609Y79623166D01*
X73420586Y79624567D01*
X73179387Y79691908D01*
X73177149Y79692682D01*
X73175629Y79693043D01*
X73174344Y79693092D01*
X73171920Y79692949D01*
X60184574Y79692949D01*
X60180791Y79693222D01*
X60176941Y79693028D01*
X60175438Y79692990D01*
X60173831Y79692638D01*
X60173628Y79692600D01*
X60171695Y79691981D01*
X59954111Y79636886D01*
X59946019Y79635997D01*
X59940303Y79633806D01*
X59938253Y79633148D01*
X59936974Y79632591D01*
X59936139Y79632028D01*
X59934439Y79630607D01*
X59929450Y79626848D01*
X59924476Y79620615D01*
X59758977Y79462898D01*
X59752196Y79457877D01*
X59750070Y79455183D01*
X59748757Y79453724D01*
X59747534Y79451983D01*
X59746409Y79449727D01*
X59745773Y79447957D01*
X59744636Y79445372D01*
X59743379Y79437129D01*
X59676083Y79196089D01*
X59675291Y79193780D01*
X59674996Y79192533D01*
X59674944Y79191130D01*
X59675087Y79188731D01*
X59675087Y66201299D01*
X59674806Y66197357D01*
X54625695Y66197357D01*
X54625695Y79183462D01*
X54625967Y79187243D01*
X54625774Y79191094D01*
X54625738Y79192495D01*
X54625441Y79193816D01*
X54624642Y79197811D01*
X54623433Y79201441D01*
X54569793Y79413278D01*
X54568912Y79421711D01*
X54566784Y79427179D01*
X54565955Y79429798D01*
X54565400Y79431117D01*
X54565011Y79431683D01*
X54563090Y79433970D01*
X54559729Y79438473D01*
X54553364Y79443553D01*
X54396095Y79608582D01*
X54390710Y79615935D01*
X54388942Y79617537D01*
X54385945Y79619645D01*
X54384764Y79620524D01*
X54383433Y79621156D01*
X54380070Y79622860D01*
X54379217Y79623166D01*
X54370194Y79624567D01*
X54128995Y79691908D01*
X54126757Y79692682D01*
X54125237Y79693043D01*
X54123952Y79693092D01*
X54121528Y79692949D01*
X41134182Y79692949D01*
X41130399Y79693222D01*
X41126549Y79693028D01*
X41125046Y79692990D01*
X41123439Y79692638D01*
X41123236Y79692600D01*
X41121303Y79691981D01*
X40903719Y79636886D01*
X40895627Y79635997D01*
X40889911Y79633806D01*
X40887861Y79633148D01*
X40886582Y79632591D01*
X40885747Y79632028D01*
X40884047Y79630607D01*
X40879058Y79626848D01*
X40874084Y79620615D01*
X40708585Y79462898D01*
X40701804Y79457877D01*
X40699678Y79455183D01*
X40698365Y79453724D01*
X40697142Y79451983D01*
X40696017Y79449727D01*
X40695381Y79447957D01*
X40694244Y79445372D01*
X40692987Y79437129D01*
X40625691Y79196089D01*
X40624899Y79193780D01*
X40624604Y79192533D01*
X40624552Y79191130D01*
X40624695Y79188731D01*
X40624695Y66201299D01*
X40624414Y66197357D01*
X35576087Y66197357D01*
X35576087Y79183462D01*
X35576359Y79187243D01*
X35576166Y79191094D01*
X35576130Y79192495D01*
X35575833Y79193816D01*
X35575034Y79197811D01*
X35573825Y79201441D01*
X35520185Y79413278D01*
X35519304Y79421711D01*
X35517176Y79427179D01*
X35516347Y79429798D01*
X35515792Y79431117D01*
X35515403Y79431683D01*
X35513482Y79433970D01*
X35510121Y79438473D01*
X35503756Y79443553D01*
X35346487Y79608582D01*
X35341102Y79615935D01*
X35339334Y79617537D01*
X35336337Y79619645D01*
X35335156Y79620524D01*
X35333825Y79621156D01*
X35330462Y79622860D01*
X35329609Y79623166D01*
X35320586Y79624567D01*
X35079387Y79691908D01*
X35077149Y79692682D01*
X35075629Y79693043D01*
X35074344Y79693092D01*
X35071920Y79692949D01*
X22084574Y79692949D01*
X22080791Y79693222D01*
X22076941Y79693028D01*
X22075438Y79692990D01*
X22073831Y79692638D01*
X22073628Y79692600D01*
X22071695Y79691981D01*
X21854111Y79636886D01*
X21846019Y79635997D01*
X21840303Y79633806D01*
X21838253Y79633148D01*
X21836974Y79632591D01*
X21836139Y79632028D01*
X21834439Y79630607D01*
X21829450Y79626848D01*
X21824476Y79620615D01*
X21658977Y79462898D01*
X21652196Y79457877D01*
X21650070Y79455183D01*
X21648757Y79453724D01*
X21647534Y79451983D01*
X21646409Y79449727D01*
X21645773Y79447957D01*
X21644636Y79445372D01*
X21643379Y79437129D01*
X21576083Y79196089D01*
X21575291Y79193780D01*
X21574996Y79192533D01*
X21574944Y79191130D01*
X21575087Y79188731D01*
X21575087Y66201299D01*
X21574806Y66197357D01*
X16526087Y66197357D01*
X16526087Y72103972D01*
X16526087Y79183476D01*
X16526359Y79187248D01*
X16526166Y79191094D01*
X16526130Y79192495D01*
X16525833Y79193816D01*
X16525034Y79197811D01*
X16523825Y79201441D01*
X16470185Y79413278D01*
X16469304Y79421711D01*
X16467176Y79427179D01*
X16466347Y79429798D01*
X16465792Y79431117D01*
X16465403Y79431683D01*
X16463482Y79433970D01*
X16460121Y79438473D01*
X16453756Y79443553D01*
X16296487Y79608582D01*
X16291102Y79615935D01*
X16289334Y79617537D01*
X16286337Y79619645D01*
X16285156Y79620524D01*
X16283825Y79621156D01*
X16280462Y79622860D01*
X16279609Y79623166D01*
X16270586Y79624567D01*
X16029387Y79691908D01*
X16027149Y79692682D01*
X16025629Y79693043D01*
X16024344Y79693092D01*
X16021920Y79692949D01*
X3034574Y79692949D01*
X3030791Y79693222D01*
X3026941Y79693028D01*
X3025438Y79692990D01*
X3023831Y79692638D01*
X3023628Y79692600D01*
X3021695Y79691981D01*
X2804111Y79636886D01*
X2796019Y79635997D01*
X2790303Y79633806D01*
X2788253Y79633148D01*
X2786974Y79632591D01*
X2786139Y79632028D01*
X2784439Y79630607D01*
X2779450Y79626848D01*
X2774476Y79620615D01*
X2608977Y79462898D01*
X2602196Y79457877D01*
X2600070Y79455183D01*
X2598757Y79453724D01*
X2597534Y79451983D01*
X2596409Y79449727D01*
X2595773Y79447957D01*
X2594636Y79445372D01*
X2593379Y79437129D01*
X2526083Y79196089D01*
X2525291Y79193780D01*
X2524996Y79192533D01*
X2524944Y79191130D01*
X2525087Y79188731D01*
X2525087Y66201299D01*
X2524806Y66197357D01*
X891Y66197357D01*
X891Y81388932D01*
X3271Y81484997D01*
X3724Y81491096D01*
X26539Y81675013D01*
X38542Y81771770D01*
X42106Y81789622D01*
X115545Y82054344D01*
X121658Y82071413D01*
X232754Y82322140D01*
X241301Y82338151D01*
X388349Y82570766D01*
X399218Y82585439D01*
X585043Y82801054D01*
X588155Y82804407D01*
X3001094Y85217346D01*
X9763273Y85217346D01*
X9771263Y85126015D01*
X9771499Y85120610D01*
X9771499Y85113239D01*
X9769840Y85107591D01*
X9770978Y85094591D01*
X9773891Y85085897D01*
X9775171Y85078639D01*
X9775877Y85073276D01*
X9783868Y84981945D01*
X9783870Y84981935D01*
X9807592Y84893401D01*
X9808764Y84888118D01*
X9810046Y84880842D01*
X9809393Y84874991D01*
X9812767Y84862399D01*
X9817152Y84854331D01*
X9819670Y84847410D01*
X9821296Y84842252D01*
X9845029Y84753685D01*
X9883777Y84670589D01*
X9885848Y84665590D01*
X9888364Y84658678D01*
X9888737Y84652797D01*
X9894256Y84640961D01*
X9899983Y84633767D01*
X9903658Y84627399D01*
X9906148Y84622613D01*
X9931868Y84567459D01*
X9944897Y84539518D01*
X9944911Y84539498D01*
X9997494Y84464402D01*
X10000405Y84459832D01*
X10004078Y84453469D01*
X10005465Y84447747D01*
X10012946Y84437063D01*
X10019819Y84430989D01*
X10024546Y84425356D01*
X10027835Y84421069D01*
X10060217Y84374824D01*
X10080437Y84345947D01*
X10080439Y84345945D01*
X10145273Y84281111D01*
X10148929Y84277121D01*
X10153652Y84271494D01*
X10156015Y84266094D01*
X10165244Y84256865D01*
X10173072Y84252073D01*
X10178705Y84247346D01*
X10182680Y84243704D01*
X10242813Y84183571D01*
X10247532Y84178852D01*
X10247565Y84178829D01*
X10322651Y84126253D01*
X10326931Y84122970D01*
X10332567Y84118240D01*
X10335831Y84113335D01*
X10346519Y84105850D01*
X10355059Y84102491D01*
X10361428Y84098814D01*
X10365971Y84095920D01*
X10441102Y84043313D01*
X10524206Y84004561D01*
X10528994Y84002069D01*
X10532249Y84000190D01*
X10535364Y83998392D01*
X10539434Y83994125D01*
X10551268Y83988606D01*
X10560263Y83986780D01*
X10567172Y83984265D01*
X10572166Y83982197D01*
X10642857Y83949233D01*
X10655269Y83943445D01*
X10655271Y83943444D01*
X10695397Y83932693D01*
X10743841Y83919713D01*
X10748988Y83918090D01*
X10755925Y83915565D01*
X10760666Y83912074D01*
X10773256Y83908701D01*
X10782424Y83908466D01*
X10782532Y83908446D01*
X10789690Y83907184D01*
X10794960Y83906016D01*
X10883524Y83882285D01*
X10974900Y83874291D01*
X10980192Y83873594D01*
X10987499Y83872305D01*
X10992769Y83869693D01*
X11005751Y83868557D01*
X11014823Y83869916D01*
X11022192Y83869916D01*
X11027595Y83869681D01*
X11081945Y83864925D01*
X11118931Y83861689D01*
X11118932Y83861689D01*
X11118933Y83861689D01*
X11155918Y83864925D01*
X11210268Y83869681D01*
X11215672Y83869916D01*
X11223039Y83869916D01*
X11228689Y83868257D01*
X11241675Y83869394D01*
X11250364Y83872305D01*
X11257684Y83873596D01*
X11262966Y83874291D01*
X11354340Y83882285D01*
X11442922Y83906021D01*
X11448157Y83907182D01*
X11455438Y83908465D01*
X11461291Y83907812D01*
X11473880Y83911186D01*
X11481939Y83915565D01*
X11488896Y83918097D01*
X11494009Y83919709D01*
X11566742Y83939198D01*
X11582592Y83943444D01*
X11582593Y83943445D01*
X11582595Y83943445D01*
X11665726Y83982211D01*
X11670689Y83984265D01*
X11677610Y83986785D01*
X11683486Y83987158D01*
X11695967Y83992978D01*
X11703787Y83999126D01*
X11703254Y83998828D01*
X11708871Y84002071D01*
X11713637Y84004552D01*
X11796762Y84043313D01*
X11871886Y84095916D01*
X11876415Y84098802D01*
X11882786Y84102481D01*
X11888515Y84103872D01*
X11899216Y84111365D01*
X11905288Y84118233D01*
X11910954Y84122988D01*
X11915192Y84126239D01*
X11990299Y84178829D01*
X11990326Y84178848D01*
X11990326Y84178849D01*
X11990333Y84178853D01*
X12055193Y84243714D01*
X12059141Y84247331D01*
X12064783Y84252066D01*
X12070184Y84254430D01*
X12079415Y84263661D01*
X12084208Y84271490D01*
X12088949Y84277139D01*
X12092568Y84281088D01*
X12157427Y84345947D01*
X12210044Y84421093D01*
X12213292Y84425326D01*
X12218045Y84430991D01*
X12222946Y84434251D01*
X12230435Y84444946D01*
X12233796Y84453489D01*
X12237478Y84459865D01*
X12240370Y84464402D01*
X12292967Y84539518D01*
X12331723Y84622632D01*
X12334208Y84627405D01*
X12334924Y84628647D01*
X12337885Y84633776D01*
X12342151Y84637845D01*
X12347670Y84649680D01*
X12349496Y84658671D01*
X12349499Y84658678D01*
X12352017Y84665597D01*
X12354069Y84670554D01*
X12392835Y84753685D01*
X12393395Y84755773D01*
X12397082Y84769538D01*
X12416571Y84842271D01*
X12418183Y84847384D01*
X12420713Y84854336D01*
X12424204Y84859078D01*
X12427578Y84871668D01*
X12427815Y84880842D01*
X12429098Y84888123D01*
X12430259Y84893358D01*
X12453995Y84981940D01*
X12461989Y85073314D01*
X12462684Y85078599D01*
X12466364Y85099463D01*
X12466364Y85099476D01*
X12466612Y85100880D01*
X12466619Y85100929D01*
X12467838Y85107843D01*
X12466721Y85115888D01*
X12467012Y85129247D01*
X12467229Y85133208D01*
X12474591Y85217348D01*
X12467229Y85301485D01*
X12467012Y85305454D01*
X12466721Y85318809D01*
X12468256Y85324489D01*
X12466711Y85333253D01*
X12466703Y85333309D01*
X12466364Y85335233D01*
X12462684Y85356098D01*
X12461987Y85361404D01*
X12453995Y85452756D01*
X12430264Y85541320D01*
X12429096Y85546590D01*
X12427815Y85553855D01*
X12428467Y85559708D01*
X12425096Y85572293D01*
X12420715Y85580355D01*
X12418193Y85587284D01*
X12418191Y85587289D01*
X12418186Y85587305D01*
X12416567Y85592439D01*
X12392843Y85680983D01*
X12392838Y85681002D01*
X12392836Y85681006D01*
X12392835Y85681011D01*
X12354083Y85764114D01*
X12352015Y85769108D01*
X12349500Y85776017D01*
X12349125Y85781899D01*
X12343612Y85793723D01*
X12337892Y85800909D01*
X12334214Y85807281D01*
X12331721Y85812070D01*
X12292976Y85895158D01*
X12292969Y85895173D01*
X12292966Y85895178D01*
X12240365Y85970300D01*
X12237462Y85974859D01*
X12233801Y85981200D01*
X12233788Y85981222D01*
X12232399Y85986947D01*
X12224912Y85997641D01*
X12218021Y86003735D01*
X12213305Y86009355D01*
X12210031Y86013622D01*
X12157427Y86088749D01*
X12092576Y86153600D01*
X12088938Y86157571D01*
X12084207Y86163208D01*
X12081845Y86168606D01*
X12072622Y86177829D01*
X12064787Y86182627D01*
X12063064Y86184073D01*
X12059159Y86187351D01*
X12055169Y86191007D01*
X11990333Y86255843D01*
X11915206Y86308448D01*
X11910934Y86311726D01*
X11905279Y86316471D01*
X11902021Y86321371D01*
X11891350Y86328842D01*
X11882811Y86332202D01*
X11876469Y86335863D01*
X11876442Y86335879D01*
X11871878Y86338786D01*
X11796762Y86391383D01*
X11768821Y86404412D01*
X11713667Y86430132D01*
X11708881Y86432622D01*
X11702513Y86436297D01*
X11698437Y86440570D01*
X11686601Y86446089D01*
X11677602Y86447916D01*
X11670690Y86450432D01*
X11665691Y86452503D01*
X11582595Y86491251D01*
X11494028Y86514984D01*
X11488870Y86516610D01*
X11481949Y86519128D01*
X11477201Y86522624D01*
X11464612Y86525997D01*
X11455438Y86526234D01*
X11448162Y86527516D01*
X11442879Y86528688D01*
X11354345Y86552410D01*
X11354335Y86552412D01*
X11263004Y86560403D01*
X11257641Y86561109D01*
X11250383Y86562389D01*
X11245109Y86565003D01*
X11232113Y86566140D01*
X11223042Y86564780D01*
X11215672Y86564780D01*
X11210268Y86565016D01*
X11155918Y86569772D01*
X11118933Y86573007D01*
X11118931Y86573007D01*
X11081945Y86569772D01*
X11027595Y86565016D01*
X11022192Y86564780D01*
X11014821Y86564780D01*
X11009170Y86566440D01*
X10996184Y86565303D01*
X10987489Y86562390D01*
X10980231Y86561110D01*
X10974863Y86560403D01*
X10883521Y86552411D01*
X10794981Y86528687D01*
X10789699Y86527516D01*
X10782423Y86526234D01*
X10776574Y86526887D01*
X10763986Y86523514D01*
X10755918Y86519130D01*
X10749003Y86516613D01*
X10743843Y86514986D01*
X10655268Y86491251D01*
X10572166Y86452501D01*
X10567170Y86450432D01*
X10560261Y86447917D01*
X10554380Y86447544D01*
X10542565Y86442034D01*
X10535386Y86436318D01*
X10529020Y86432642D01*
X10524216Y86430141D01*
X10441106Y86391386D01*
X10365990Y86338790D01*
X10361426Y86335882D01*
X10355061Y86332208D01*
X10349337Y86330820D01*
X10338638Y86323329D01*
X10332552Y86316444D01*
X10326928Y86311727D01*
X10322644Y86308440D01*
X10247531Y86255844D01*
X10182682Y86190996D01*
X10178681Y86187330D01*
X10173050Y86182608D01*
X10167662Y86180252D01*
X10158454Y86171044D01*
X10153672Y86163230D01*
X10148950Y86157599D01*
X10145284Y86153598D01*
X10080436Y86088749D01*
X10027840Y86013636D01*
X10024553Y86009352D01*
X10019836Y86003728D01*
X10014924Y86000460D01*
X10007432Y85989759D01*
X10004072Y85981219D01*
X10000398Y85974854D01*
X9997490Y85970290D01*
X9944894Y85895174D01*
X9906139Y85812064D01*
X9903638Y85807260D01*
X9899962Y85800894D01*
X9895698Y85796831D01*
X9890189Y85785016D01*
X9888363Y85776019D01*
X9885848Y85769110D01*
X9883779Y85764114D01*
X9845029Y85681012D01*
X9821296Y85592446D01*
X9819676Y85587305D01*
X9817471Y85581240D01*
X9817100Y85580225D01*
X9813631Y85575527D01*
X9810282Y85563023D01*
X9810046Y85553857D01*
X9808764Y85546581D01*
X9807593Y85541299D01*
X9783869Y85452759D01*
X9775877Y85361418D01*
X9775170Y85356050D01*
X9773890Y85348792D01*
X9771276Y85343521D01*
X9770140Y85330525D01*
X9771499Y85321459D01*
X9771499Y85314089D01*
X9771263Y85308683D01*
X9763273Y85217351D01*
X9763273Y85217346D01*
X3001094Y85217346D01*
X5414980Y87631231D01*
X5484584Y87697469D01*
X5489184Y87701436D01*
X5712288Y87875295D01*
X5727449Y87885409D01*
X5966556Y88020659D01*
X5982945Y88028405D01*
X6238800Y88127142D01*
X6256170Y88132420D01*
X6524616Y88192922D01*
X6542688Y88195614D01*
X6826542Y88216679D01*
X6831131Y88216848D01*
X15571976Y88216848D01*
X15668034Y88214469D01*
G37*
%TD.AperFunction*%
M02*
