  0
SECTION
  2
HEADER
  9
$ACADVER
  1
AC1032
  9
$ACADMAINTVER
 90
      228
  9
$DWGCODEPAGE
  3
ANSI_1252
  9
$REQUIREDVERSIONS
160
                 0
  9
$INSBASE
 10
0.0
 20
0.0
 30
0.0
  9
$EXTMIN
 10
1.000000000000000E+20
 20
1.000000000000000E+20
 30
1.000000000000000E+20
  9
$EXTMAX
 10
-1.000000000000000E+20
 20
-1.000000000000000E+20
 30
-1.000000000000000E+20
  9
$LIMMIN
 10
0.0
 20
0.0
  9
$LIMMAX
 10
12.0
 20
9.0
  9
$ORTHOMODE
 70
     0
  9
$REGENMODE
 70
     1
  9
$FILLMODE
 70
     1
  9
$QTEXTMODE
 70
     0
  9
$MIRRTEXT
 70
     0
  9
$LTSCALE
 40
1.0
  9
$ATTMODE
 70
     1
  9
$TEXTSIZE
 40
0.2
  9
$TRACEWID
 40
0.05
  9
$TEXTSTYLE
  7
Standard
  9
$CLAYER
  8
0
  9
$CELTYPE
  6
ByLayer
  9
$CECOLOR
 62
   256
  9
$CELTSCALE
 40
1.0
  9
$DISPSILH
 70
     0
  9
$DIMSCALE
 40
1.0
  9
$DIMASZ
 40
0.18
  9
$DIMEXO
 40
0.0625
  9
$DIMDLI
 40
0.38
  9
$DIMRND
 40
0.0
  9
$DIMDLE
 40
0.0
  9
$DIMEXE
 40
0.18
  9
$DIMTP
 40
0.0
  9
$DIMTM
 40
0.0
  9
$DIMTXT
 40
0.18
  9
$DIMCEN
 40
0.09
  9
$DIMTSZ
 40
0.0
  9
$DIMTOL
 70
     0
  9
$DIMLIM
 70
     0
  9
$DIMTIH
 70
     1
  9
$DIMTOH
 70
     1
  9
$DIMSE1
 70
     0
  9
$DIMSE2
 70
     0
  9
$DIMTAD
 70
     0
  9
$DIMZIN
 70
     0
  9
$DIMBLK
  1

  9
$DIMASO
 70
     1
  9
$DIMSHO
 70
     1
  9
$DIMPOST
  1

  9
$DIMAPOST
  1

  9
$DIMALT
 70
     0
  9
$DIMALTD
 70
     2
  9
$DIMALTF
 40
25.4
  9
$DIMLFAC
 40
1.0
  9
$DIMTOFL
 70
     0
  9
$DIMTVP
 40
0.0
  9
$DIMTIX
 70
     0
  9
$DIMSOXD
 70
     0
  9
$DIMSAH
 70
     0
  9
$DIMBLK1
  1

  9
$DIMBLK2
  1

  9
$DIMSTYLE
  2
Standard
  9
$DIMCLRD
 70
     0
  9
$DIMCLRE
 70
     0
  9
$DIMCLRT
 70
     0
  9
$DIMTFAC
 40
1.0
  9
$DIMGAP
 40
0.09
  9
$DIMJUST
 70
     0
  9
$DIMSD1
 70
     0
  9
$DIMSD2
 70
     0
  9
$DIMTOLJ
 70
     1
  9
$DIMTZIN
 70
     0
  9
$DIMALTZ
 70
     0
  9
$DIMALTTZ
 70
     0
  9
$DIMUPT
 70
     0
  9
$DIMDEC
 70
     4
  9
$DIMTDEC
 70
     4
  9
$DIMALTU
 70
     2
  9
$DIMALTTD
 70
     2
  9
$DIMTXSTY
  7
Standard
  9
$DIMAUNIT
 70
     0
  9
$DIMADEC
 70
     0
  9
$DIMALTRND
 40
0.0
  9
$DIMAZIN
 70
     0
  9
$DIMDSEP
 70
    46
  9
$DIMATFIT
 70
     3
  9
$DIMFRAC
 70
     0
  9
$DIMLDRBLK
  1

  9
$DIMLUNIT
 70
     2
  9
$DIMLWD
 70
    -2
  9
$DIMLWE
 70
    -2
  9
$DIMTMOVE
 70
     0
  9
$DIMFXL
 40
1.0
  9
$DIMFXLON
 70
     0
  9
$DIMJOGANG
 40
0.7853981633974483
  9
$DIMTFILL
 70
     0
  9
$DIMTFILLCLR
 70
     0
  9
$DIMARCSYM
 70
     0
  9
$DIMLTYPE
  6

  9
$DIMLTEX1
  6

  9
$DIMLTEX2
  6

  9
$DIMTXTDIRECTION
 70
     0
  9
$LUNITS
 70
     2
  9
$LUPREC
 70
     4
  9
$SKETCHINC
 40
0.1
  9
$FILLETRAD
 40
0.0
  9
$AUNITS
 70
     0
  9
$AUPREC
 70
     0
  9
$MENU
  1
.
  9
$ELEVATION
 40
0.0
  9
$PELEVATION
 40
0.0
  9
$THICKNESS
 40
0.0
  9
$LIMCHECK
 70
     0
  9
$CHAMFERA
 40
0.0
  9
$CHAMFERB
 40
0.0
  9
$CHAMFERC
 40
0.0
  9
$CHAMFERD
 40
0.0
  9
$SKPOLY
 70
     0
  9
$TDCREATE
 40
2460162.579074074
  9
$TDUCREATE
 40
2460162.745740741
  9
$TDUPDATE
 40
2460162.579074074
  9
$TDUUPDATE
 40
2460162.745740741
  9
$TDINDWG
 40
0.0000000000
  9
$TDUSRTIMER
 40
0.0000000000
  9
$USRTIMER
 70
     1
  9
$ANGBASE
 50
0.0
  9
$ANGDIR
 70
     0
  9
$PDMODE
 70
     0
  9
$PDSIZE
 40
0.0
  9
$PLINEWID
 40
0.0
  9
$SPLFRAME
 70
     0
  9
$SPLINETYPE
 70
     6
  9
$SPLINESEGS
 70
     8
  9
$HANDSEED
  5
AB
  9
$SURFTAB1
 70
     6
  9
$SURFTAB2
 70
     6
  9
$SURFTYPE
 70
     6
  9
$SURFU
 70
     6
  9
$SURFV
 70
     6
  9
$UCSBASE
  2

  9
$UCSNAME
  2

  9
$UCSORG
 10
0.0
 20
0.0
 30
0.0
  9
$UCSXDIR
 10
1.0
 20
0.0
 30
0.0
  9
$UCSYDIR
 10
0.0
 20
1.0
 30
0.0
  9
$UCSORTHOREF
  2

  9
$UCSORTHOVIEW
 70
     0
  9
$UCSORGTOP
 10
0.0
 20
0.0
 30
0.0
  9
$UCSORGBOTTOM
 10
0.0
 20
0.0
 30
0.0
  9
$UCSORGLEFT
 10
0.0
 20
0.0
 30
0.0
  9
$UCSORGRIGHT
 10
0.0
 20
0.0
 30
0.0
  9
$UCSORGFRONT
 10
0.0
 20
0.0
 30
0.0
  9
$UCSORGBACK
 10
0.0
 20
0.0
 30
0.0
  9
$PUCSBASE
  2

  9
$PUCSNAME
  2

  9
$PUCSORG
 10
0.0
 20
0.0
 30
0.0
  9
$PUCSXDIR
 10
1.0
 20
0.0
 30
0.0
  9
$PUCSYDIR
 10
0.0
 20
1.0
 30
0.0
  9
$PUCSORTHOREF
  2

  9
$PUCSORTHOVIEW
 70
     0
  9
$PUCSORGTOP
 10
0.0
 20
0.0
 30
0.0
  9
$PUCSORGBOTTOM
 10
0.0
 20
0.0
 30
0.0
  9
$PUCSORGLEFT
 10
0.0
 20
0.0
 30
0.0
  9
$PUCSORGRIGHT
 10
0.0
 20
0.0
 30
0.0
  9
$PUCSORGFRONT
 10
0.0
 20
0.0
 30
0.0
  9
$PUCSORGBACK
 10
0.0
 20
0.0
 30
0.0
  9
$USERI1
 70
     0
  9
$USERI2
 70
     0
  9
$USERI3
 70
     0
  9
$USERI4
 70
     0
  9
$USERI5
 70
     0
  9
$USERR1
 40
0.0
  9
$USERR2
 40
0.0
  9
$USERR3
 40
0.0
  9
$USERR4
 40
0.0
  9
$USERR5
 40
0.0
  9
$WORLDVIEW
 70
     1
  9
$SHADEDGE
 70
     3
  9
$SHADEDIF
 70
    70
  9
$TILEMODE
 70
     1
  9
$MAXACTVP
 70
    64
  9
$PINSBASE
 10
0.0
 20
0.0
 30
0.0
  9
$PLIMCHECK
 70
     0
  9
$PEXTMIN
 10
1.000000000000000E+20
 20
1.000000000000000E+20
 30
1.000000000000000E+20
  9
$PEXTMAX
 10
-1.000000000000000E+20
 20
-1.000000000000000E+20
 30
-1.000000000000000E+20
  9
$PLIMMIN
 10
0.0
 20
0.0
  9
$PLIMMAX
 10
12.0
 20
9.0
  9
$UNITMODE
 70
     0
  9
$VISRETAIN
 70
     1
  9
$PLINEGEN
 70
     0
  9
$PSLTSCALE
 70
     1
  9
$TREEDEPTH
 70
  3020
  9
$CMLSTYLE
  2
Standard
  9
$CMLJUST
 70
     0
  9
$CMLSCALE
 40
1.0
  9
$PROXYGRAPHICS
 70
     1
  9
$MEASUREMENT
 70
     0
  9
$CELWEIGHT
370
    -1
  9
$ENDCAPS
280
     0
  9
$JOINSTYLE
280
     0
  9
$LWDISPLAY
290
     1
  9
$INSUNITS
 70
     4
  9
$HYPERLINKBASE
  1

  9
$STYLESHEET
  1

  9
$XEDIT
290
     1
  9
$CEPSNTYPE
380
     0
  9
$PSTYLEMODE
290
     1
  9
$FINGERPRINTGUID
  2
{90C83317-09DD-7743-B5AF-C978E95D76AA}
  9
$VERSIONGUID
  2
{E599EE37-BEEB-1C45-8AA8-9D1C72F1A768}
  9
$EXTNAMES
290
     1
  9
$PSVPSCALE
 40
0.0
  9
$OLESTARTUP
290
     0
  9
$SORTENTS
280
   127
  9
$INDEXCTL
280
     0
  9
$HIDETEXT
280
     1
  9
$XCLIPFRAME
280
     2
  9
$HALOGAP
280
     0
  9
$OBSCOLOR
 70
   257
  9
$OBSLTYPE
280
     0
  9
$INTERSECTIONDISPLAY
280
     0
  9
$INTERSECTIONCOLOR
 70
   257
  9
$DIMASSOC
280
     2
  9
$PROJECTNAME
  1

  9
$CAMERADISPLAY
290
     0
  9
$LENSLENGTH
 40
50.0
  9
$CAMERAHEIGHT
 40
0.0
  9
$STEPSPERSEC
 40
2.0
  9
$STEPSIZE
 40
6.0
  9
$3DDWFPREC
 40
2.0
  9
$PSOLWIDTH
 40
0.25
  9
$PSOLHEIGHT
 40
4.0
  9
$LOFTANG1
 40
1.570796326794896
  9
$LOFTANG2
 40
1.570796326794896
  9
$LOFTMAG1
 40
0.0
  9
$LOFTMAG2
 40
0.0
  9
$LOFTPARAM
 70
     7
  9
$LOFTNORMALS
280
     1
  9
$LATITUDE
 40
37.795
  9
$LONGITUDE
 40
-122.394
  9
$NORTHDIRECTION
 40
0.0
  9
$TIMEZONE
 70
 -8000
  9
$LIGHTGLYPHDISPLAY
280
     1
  9
$TILEMODELIGHTSYNCH
280
     1
  9
$CMATERIAL
347
11
  9
$SOLIDHIST
280
     0
  9
$SHOWHIST
280
     1
  9
$DWFFRAME
280
     2
  9
$DGNFRAME
280
     0
  9
$REALWORLDSCALE
290
     1
  9
$INTERFERECOLOR
 62
     1
  9
$INTERFEREOBJVS
345
33
  9
$INTERFEREVPVS
346
30
  9
$CSHADOW
280
     0
  9
$SHADOWPLANELOCATION
 40
0.0
  0
ENDSEC
  0
SECTION
  2
CLASSES
  0
CLASS
  1
ACDBDICTIONARYWDFLT
  2
AcDbDictionaryWithDefault
  3
ObjectDBX Classes
 90
        0
 91
        1
280
     0
281
     0
  0
CLASS
  1
MATERIAL
  2
AcDbMaterial
  3
ObjectDBX Classes
 90
     1153
 91
        3
280
     0
281
     0
  0
CLASS
  1
VISUALSTYLE
  2
AcDbVisualStyle
  3
ObjectDBX Classes
 90
     4095
 91
       24
280
     0
281
     0
  0
CLASS
  1
SCALE
  2
AcDbScale
  3
ObjectDBX Classes
 90
     1153
 91
       17
280
     0
281
     0
  0
CLASS
  1
TABLESTYLE
  2
AcDbTableStyle
  3
ObjectDBX Classes
 90
     4095
 91
        1
280
     0
281
     0
  0
CLASS
  1
MLEADERSTYLE
  2
AcDbMLeaderStyle
  3
ACDB_MLEADERSTYLE_CLASS
 90
     4095
 91
        1
280
     0
281
     0
  0
CLASS
  1
ACDBSECTIONVIEWSTYLE
  2
AcDbSectionViewStyle
  3
ObjectDBX Classes
 90
     1025
 91
        1
280
     0
281
     0
  0
CLASS
  1
ACDBDETAILVIEWSTYLE
  2
AcDbDetailViewStyle
  3
ObjectDBX Classes
 90
     1025
 91
        1
280
     0
281
     0
  0
CLASS
  1
DICTIONARYVAR
  2
AcDbDictionaryVar
  3
ObjectDBX Classes
 90
        0
 91
        5
280
     0
281
     0
  0
CLASS
  1
CELLSTYLEMAP
  2
AcDbCellStyleMap
  3
ObjectDBX Classes
 90
     1152
 91
        1
280
     0
281
     0
  0
ENDSEC
  0
SECTION
  2
TABLES
  0
TABLE
  2
VPORT
  5
8
330
0
100
AcDbSymbolTable
 70
     1
  0
VPORT
  5
57
330
8
100
AcDbSymbolTableRecord
100
AcDbViewportTableRecord
  2
*Active
 70
     0
 10
0.0
 20
0.0
 11
1.0
 21
1.0
 12
0.0
 22
0.0
 13
0.0
 23
0.0
 14
1.0
 24
1.0
 15
0.0
 25
0.0
 16
0.0
 26
0.0
 36
1.0
 17
210.9999999472421
 27
67.4999999831196
 37
0.0
 40
137.699999965564
 41
3.125925925926059
 42
50.0
 43
0.0
 44
0.0
 50
0.0
 51
0.0
 71
     0
 72
   100
 73
     1
 74
     1
 75
     0
 76
     0
 77
     0
 78
     0
281
     0
 65
     1
110
0.0
120
0.0
130
0.0
111
1.0
121
0.0
131
0.0
112
0.0
122
1.0
132
0.0
 79
     0
146
0.0
 60
     3
 61
     5
292
     1
282
     1
141
0.0
142
0.0
 63
   250
421
  3355443
  0
ENDTAB
  0
TABLE
  2
LTYPE
  5
5
330
0
100
AcDbSymbolTable
 70
     1
  0
LTYPE
  5
5B
330
5
100
AcDbSymbolTableRecord
100
AcDbLinetypeTableRecord
  2
ByBlock
 70
     0
  3

 72
    65
 73
     0
 40
0.0
  0
LTYPE
  5
5C
330
5
100
AcDbSymbolTableRecord
100
AcDbLinetypeTableRecord
  2
ByLayer
 70
     0
  3

 72
    65
 73
     0
 40
0.0
  0
LTYPE
  5
5D
330
5
100
AcDbSymbolTableRecord
100
AcDbLinetypeTableRecord
  2
Continuous
 70
     0
  3
Solid line
 72
    65
 73
     0
 40
0.0
  0
ENDTAB
  0
TABLE
  2
LAYER
  5
2
330
0
100
AcDbSymbolTable
 70
     1
  0
LAYER
  5
54
330
2
100
AcDbSymbolTableRecord
100
AcDbLayerTableRecord
  2
0
 70
     0
 62
     7
  6
Continuous
370
     0
390
F
347
21
348
0
  0
ENDTAB
  0
TABLE
  2
STYLE
  5
3
330
0
100
AcDbSymbolTable
 70
     2
  0
STYLE
  5
55
330
3
100
AcDbSymbolTableRecord
100
AcDbTextStyleTableRecord
  2
Standard
 70
     0
 40
0.0
 41
1.0
 50
0.0
 71
     0
 42
0.2
  3
txt
  4

  0
STYLE
  5
5A
330
3
100
AcDbSymbolTableRecord
100
AcDbTextStyleTableRecord
  2
Annotative
 70
     0
 40
0.0
 41
1.0
 50
0.0
 71
     0
 42
0.2
  3
txt
  4

1001
AcadAnnotative
1000
AnnotativeData
1002
{
1070
     1
1070
     1
1002
}
  0
ENDTAB
  0
TABLE
  2
VIEW
  5
6
330
0
100
AcDbSymbolTable
 70
     0
  0
ENDTAB
  0
TABLE
  2
UCS
  5
7
330
0
100
AcDbSymbolTable
 70
     0
  0
ENDTAB
  0
TABLE
  2
APPID
  5
9
330
0
100
AcDbSymbolTable
 70
     2
  0
APPID
  5
56
330
9
100
AcDbSymbolTableRecord
100
AcDbRegAppTableRecord
  2
ACAD
 70
     0
  0
APPID
  5
5E
330
9
100
AcDbSymbolTableRecord
100
AcDbRegAppTableRecord
  2
AcadAnnotative
 70
     0
  0
ENDTAB
  0
TABLE
  2
DIMSTYLE
  5
A
330
0
100
AcDbSymbolTable
 70
     2
100
AcDbDimStyleTable
 71
     0
  0
DIMSTYLE
105
58
330
A
100
AcDbSymbolTableRecord
100
AcDbDimStyleTableRecord
  2
Standard
 70
     0
340
55
  0
DIMSTYLE
105
59
330
A
100
AcDbSymbolTableRecord
100
AcDbDimStyleTableRecord
  2
Annotative
 70
     0
340
55
1001
AcadAnnotative
1000
AnnotativeData
1002
{
1070
     1
1070
     1
1002
}
  0
ENDTAB
  0
TABLE
  2
BLOCK_RECORD
  5
1
330
0
100
AcDbSymbolTable
 70
     1
  0
BLOCK_RECORD
  5
70
330
1
100
AcDbSymbolTableRecord
100
AcDbBlockTableRecord
  2
*Model_Space
340
73
 70
     0
280
     1
281
     0
  0
BLOCK_RECORD
  5
6C
330
1
100
AcDbSymbolTableRecord
100
AcDbBlockTableRecord
  2
*Paper_Space
340
6F
 70
     0
280
     1
281
     0
  0
BLOCK_RECORD
  5
74
330
1
100
AcDbSymbolTableRecord
100
AcDbBlockTableRecord
  2
*Paper_Space0
340
77
 70
     0
280
     1
281
     0
  0
ENDTAB
  0
ENDSEC
  0
SECTION
  2
BLOCKS
  0
BLOCK
  5
71
330
70
100
AcDbEntity
  8
0
100
AcDbBlockBegin
  2
*Model_Space
 70
     0
 10
0.0
 20
0.0
 30
0.0
  3
*Model_Space
  1

  0
ENDBLK
  5
72
330
70
100
AcDbEntity
  8
0
100
AcDbBlockEnd
  0
BLOCK
  5
6D
330
6C
100
AcDbEntity
 67
     1
  8
0
100
AcDbBlockBegin
  2
*Paper_Space
 70
     0
 10
0.0
 20
0.0
 30
0.0
  3
*Paper_Space
  1

  0
ENDBLK
  5
6E
330
6C
100
AcDbEntity
 67
     1
  8
0
100
AcDbBlockEnd
  0
BLOCK
  5
75
330
74
100
AcDbEntity
 67
     1
  8
0
100
AcDbBlockBegin
  2
*Paper_Space0
 70
     0
 10
0.0
 20
0.0
 30
0.0
  3
*Paper_Space0
  1

  0
ENDBLK
  5
76
330
74
100
AcDbEntity
 67
     1
  8
0
100
AcDbBlockEnd
  0
ENDSEC
  0
SECTION
  2
ENTITIES
  0
SPLINE
  5
78
330
70
100
AcDbEntity
  8
0
 62
    18
420
        0
370
    25
100
AcDbSpline
210
0.0
220
0.0
230
1.0
 70
     9
 71
     3
 72
    53
 73
    49
 74
     0
 42
0.0000000001
 43
0.0000000001
 40
0.0
 40
0.0
 40
0.0
 40
0.0
 40
1.0
 40
1.0
 40
1.0
 40
2.0
 40
2.0
 40
2.0
 40
3.0
 40
3.0
 40
3.0
 40
4.0
 40
4.0
 40
4.0
 40
5.0
 40
5.0
 40
5.0
 40
6.0
 40
6.0
 40
6.0
 40
7.0
 40
7.0
 40
7.0
 40
8.0
 40
8.0
 40
8.0
 40
9.0
 40
9.0
 40
9.0
 40
10.0
 40
10.0
 40
10.0
 40
11.0
 40
11.0
 40
11.0
 40
12.0
 40
12.0
 40
12.0
 40
13.0
 40
13.0
 40
13.0
 40
14.0
 40
14.0
 40
14.0
 40
15.0
 40
15.0
 40
15.0
 40
16.0
 40
16.0
 40
16.0
 40
16.0
 10
214.0727894550838
 20
41.03787461146241
 30
0.0
 10
214.3489318299996
 20
41.03787461143738
 30
0.0
 10
214.572789455104
 20
41.26173223650203
 30
0.0
 10
214.5727894551284
 20
41.53787461141718
 30
0.0
 10
214.5727894551284
 20
41.53787461141718
 30
0.0
 10
214.5727894552189
 20
42.54287461141724
 30
0.0
 10
214.5727894552189
 20
42.54287461141724
 30
0.0
 10
214.572789455244
 20
42.81901698633304
 30
0.0
 10
214.7966470803484
 20
43.04287461139704
 30
0.0
 10
215.0727894552635
 20
43.04287461137202
 30
0.0
 10
215.0727894552635
 20
43.04287461137202
 30
0.0
 10
221.0727894552637
 20
43.04287461083299
 30
0.0
 10
221.0727894552637
 20
43.04287461083299
 30
0.0
 10
221.3489318301789
 20
43.0428746108086
 30
0.0
 10
221.5727894552435
 20
42.81901698570417
 30
0.0
 10
221.5727894552192
 20
42.54287461078837
 30
0.0
 10
221.5727894552192
 20
42.54287461078837
 30
0.0
 10
221.5727894538716
 20
27.54287461078849
 30
0.0
 10
221.5727894538716
 20
27.54287461078849
 30
0.0
 10
221.5727894538472
 20
27.26673223587269
 30
0.0
 10
221.3489318287428
 20
27.04287461080868
 30
0.0
 10
221.072789453827
 20
27.04287461083371
 30
0.0
 10
221.072789453827
 20
27.04287461083371
 30
0.0
 10
200.8487894538272
 20
27.04287461264972
 30
0.0
 10
200.8487894538272
 20
27.04287461264972
 30
0.0
 10
200.572647078912
 20
27.0428746126741
 30
0.0
 10
200.3487894538474
 20
27.26673223777853
 30
0.0
 10
200.3487894538724
 20
27.54287461269433
 30
0.0
 10
200.3487894538724
 20
27.54287461269433
 30
0.0
 10
200.3487894552187
 20
42.54287461269422
 30
0.0
 10
200.3487894552187
 20
42.54287461269422
 30
0.0
 10
200.3487894552437
 20
42.81901698761002
 30
0.0
 10
200.5726470803482
 20
43.04287461267466
 30
0.0
 10
200.8487894552633
 20
43.042874612649
 30
0.0
 10
200.8487894552633
 20
43.042874612649
 30
0.0
 10
206.8487894552635
 20
43.04287461211061
 30
0.0
 10
206.8487894552635
 20
43.04287461211061
 30
0.0
 10
207.1249318301787
 20
43.04287461208558
 30
0.0
 10
207.3487894552433
 20
42.81901698698115
 30
0.0
 10
207.3487894552183
 20
42.542874612066
 30
0.0
 10
207.3487894552183
 20
42.542874612066
 30
0.0
 10
207.3487894551285
 20
41.53787461206595
 30
0.0
 10
207.3487894551285
 20
41.53787461206595
 30
0.0
 10
207.3487894551035
 20
41.26173223715078
 30
0.0
 10
207.5726470801687
 20
41.03787461204571
 30
0.0
 10
207.8487894550839
 20
41.03787461202069
 30
0.0
 10
207.8487894550839
 20
41.03787461202069
 30
0.0
 10
214.0727894550838
 20
41.03787461146241
 30
0.0
 10
214.0727894550838
 20
41.03787461146241
 30
0.0
  0
SPLINE
  5
79
330
70
100
AcDbEntity
  8
0
 62
    18
420
        0
370
    25
100
AcDbSpline
210
0.0
220
0.0
230
1.0
 70
     9
 71
     3
 72
    44
 73
    40
 74
     0
 42
0.0000000001
 43
0.0000000001
 40
0.0
 40
0.0
 40
0.0
 40
0.0
 40
1.0
 40
1.0
 40
1.0
 40
2.0
 40
2.0
 40
2.0
 40
3.0
 40
3.0
 40
3.0
 40
4.0
 40
4.0
 40
4.0
 40
5.0
 40
5.0
 40
5.0
 40
6.0
 40
6.0
 40
6.0
 40
7.0
 40
7.0
 40
7.0
 40
8.0
 40
8.0
 40
8.0
 40
9.0
 40
9.0
 40
9.0
 40
10.0
 40
10.0
 40
10.0
 40
11.0
 40
11.0
 40
11.0
 40
12.0
 40
12.0
 40
12.0
 40
13.0
 40
13.0
 40
13.0
 40
13.0
 10
235.535789455084
 20
41.04287460953476
 30
0.0
 10
235.8119318299998
 20
41.04287460950973
 30
0.0
 10
236.0357894551043
 20
41.26673223457438
 30
0.0
 10
236.0357894551286
 20
41.54287460948954
 30
0.0
 10
236.0357894551286
 20
41.54287460948954
 30
0.0
 10
236.0357894552184
 20
42.53787460948956
 30
0.0
 10
236.0357894552184
 20
42.53787460948956
 30
0.0
 10
236.0357894552428
 20
42.81401698440535
 30
0.0
 10
236.2596470803473
 20
43.03787460946936
 30
0.0
 10
236.5357894552631
 20
43.03787460944497
 30
0.0
 10
236.5357894552631
 20
43.03787460944497
 30
0.0
 10
244.9487894552633
 20
43.03787460868906
 30
0.0
 10
244.9487894552633
 20
43.03787460868906
 30
0.0
 10
244.9487894552633
 20
43.03787460868906
 30
0.0
 10
244.9487894552639
 20
43.04287460868971
 30
0.0
 10
244.9487894552639
 20
43.04287460868971
 30
0.0
 10
245.2249318301791
 20
43.04287460866468
 30
0.0
 10
245.4487894552437
 20
42.81901698356025
 30
0.0
 10
245.4487894552193
 20
42.54287460864445
 30
0.0
 10
245.4487894552193
 20
42.54287460864445
 30
0.0
 10
245.4487894538718
 20
27.54287460864457
 30
0.0
 10
245.4487894538718
 20
27.54287460864457
 30
0.0
 10
245.4487894538474
 20
27.26673223372941
 30
0.0
 10
245.2249318287429
 20
27.04287460866477
 30
0.0
 10
244.9487894538271
 20
27.04287460868915
 30
0.0
 10
244.9487894538271
 20
27.04287460868915
 30
0.0
 10
223.510789453827
 20
27.04287461061425
 30
0.0
 10
223.510789453827
 20
27.04287461061425
 30
0.0
 10
223.2346470789119
 20
27.04287461063927
 30
0.0
 10
223.0107894538472
 20
27.26673223574435
 30
0.0
 10
223.0107894538716
 20
27.54287461065951
 30
0.0
 10
223.0107894538716
 20
27.54287461065951
 30
0.0
 10
223.0107894550395
 20
40.54287461065932
 30
0.0
 10
223.0107894550395
 20
40.54287461065932
 30
0.0
 10
223.0107894550639
 20
40.81901698557447
 30
0.0
 10
223.234647080169
 20
41.04287461063912
 30
0.0
 10
223.5107894550842
 20
41.04287461061409
 30
0.0
 10
223.5107894550842
 20
41.04287461061409
 30
0.0
 10
235.535789455084
 20
41.04287460953476
 30
0.0
 10
235.535789455084
 20
41.04287460953476
 30
0.0
  0
SPLINE
  5
7A
330
70
100
AcDbEntity
  8
0
 62
    18
420
        0
370
    25
100
AcDbSpline
210
0.0
220
0.0
230
1.0
 70
     9
 71
     3
 72
   107
 73
   103
 74
     0
 42
0.0000000001
 43
0.0000000001
 40
0.0
 40
0.0
 40
0.0
 40
0.0
 40
1.0
 40
1.0
 40
1.0
 40
2.0
 40
2.0
 40
2.0
 40
3.0
 40
3.0
 40
3.0
 40
4.0
 40
4.0
 40
4.0
 40
5.0
 40
5.0
 40
5.0
 40
6.0
 40
6.0
 40
6.0
 40
7.0
 40
7.0
 40
7.0
 40
8.0
 40
8.0
 40
8.0
 40
9.0
 40
9.0
 40
9.0
 40
10.0
 40
10.0
 40
10.0
 40
11.0
 40
11.0
 40
11.0
 40
12.0
 40
12.0
 40
12.0
 40
13.0
 40
13.0
 40
13.0
 40
14.0
 40
14.0
 40
14.0
 40
15.0
 40
15.0
 40
15.0
 40
16.0
 40
16.0
 40
16.0
 40
17.0
 40
17.0
 40
17.0
 40
18.0
 40
18.0
 40
18.0
 40
19.0
 40
19.0
 40
19.0
 40
20.0
 40
20.0
 40
20.0
 40
21.0
 40
21.0
 40
21.0
 40
22.0
 40
22.0
 40
22.0
 40
23.0
 40
23.0
 40
23.0
 40
24.0
 40
24.0
 40
24.0
 40
25.0
 40
25.0
 40
25.0
 40
26.0
 40
26.0
 40
26.0
 40
27.0
 40
27.0
 40
27.0
 40
28.0
 40
28.0
 40
28.0
 40
29.0
 40
29.0
 40
29.0
 40
30.0
 40
30.0
 40
30.0
 40
31.0
 40
31.0
 40
31.0
 40
32.0
 40
32.0
 40
32.0
 40
33.0
 40
33.0
 40
33.0
 40
34.0
 40
34.0
 40
34.0
 40
34.0
 10
291.5670394584013
 20
77.98737460450348
 30
0.0
 10
291.2908970834861
 20
77.98737460452852
 30
0.0
 10
291.067039458381
 20
77.76351697946387
 30
0.0
 10
291.0670394583566
 20
77.48737460454872
 30
0.0
 10
291.0670394583566
 20
77.48737460454872
 30
0.0
 10
291.0670394578176
 20
71.4873746045485
 30
0.0
 10
291.0670394578176
 20
71.4873746045485
 30
0.0
 10
291.0670394577932
 20
71.21123222963335
 30
0.0
 10
291.2908970828578
 20
70.98737460452891
 30
0.0
 10
291.567039457773
 20
70.98737460450388
 30
0.0
 10
291.8431818326882
 20
70.98737460447885
 30
0.0
 10
292.0670394577529
 20
70.76351697937443
 30
0.0
 10
292.0670394577285
 20
70.48737460445863
 30
0.0
 10
292.0670394577285
 20
70.48737460445863
 30
0.0
 10
292.0670394577201
 20
70.40037460445886
 30
0.0
 10
292.0670394577201
 20
70.40037460445886
 30
0.0
 10
292.0670394576951
 20
70.12423222954307
 30
0.0
 10
292.2908970827597
 20
69.90037460443862
 30
0.0
 10
292.5670394576749
 20
69.9003746044136
 30
0.0
 10
292.5670394576749
 20
69.9003746044136
 30
0.0
 10
305.5670394576753
 20
69.90037460324635
 30
0.0
 10
305.5670394576753
 20
69.90037460324635
 30
0.0
 10
305.8431818325912
 20
69.90037460322132
 30
0.0
 10
306.0670394576955
 20
70.12423222828598
 30
0.0
 10
306.0670394577199
 20
70.40037460320146
 30
0.0
 10
306.0670394577199
 20
70.40037460320146
 30
0.0
 10
306.0670394577277
 20
70.48737460320154
 30
0.0
 10
306.0670394577277
 20
70.48737460320154
 30
0.0
 10
306.0670394577533
 20
70.76351697811734
 30
0.0
 10
306.2908970828578
 20
70.98737460318199
 30
0.0
 10
306.5670394577729
 20
70.98737460315696
 30
0.0
 10
306.5670394577729
 20
70.98737460315696
 30
0.0
 10
307.5670394577729
 20
70.98737460306712
 30
0.0
 10
307.5670394577729
 20
70.98737460306712
 30
0.0
 10
307.8431818326881
 20
70.9873746030421
 30
0.0
 10
308.0670394577932
 20
71.21123222810673
 30
0.0
 10
308.0670394578175
 20
71.4873746030219
 30
0.0
 10
308.0670394578175
 20
71.4873746030219
 30
0.0
 10
308.0670394583566
 20
77.48737460302212
 30
0.0
 10
308.0670394583566
 20
77.48737460302212
 30
0.0
 10
308.0670394583816
 20
77.76351697793727
 30
0.0
 10
307.8431818333164
 20
77.98737460304202
 30
0.0
 10
307.5670394584012
 20
77.98737460306641
 30
0.0
 10
307.5670394584012
 20
77.98737460306641
 30
0.0
 10
306.5670394584018
 20
77.98737460315656
 30
0.0
 10
306.5670394584018
 20
77.98737460315656
 30
0.0
 10
306.290897083486
 20
77.98737460318159
 30
0.0
 10
306.0670394584219
 20
78.21123222828602
 30
0.0
 10
306.0670394584463
 20
78.48737460320183
 30
0.0
 10
306.0670394584463
 20
78.48737460320183
 30
0.0
 10
306.0670394598722
 20
94.36337460320173
 30
0.0
 10
306.0670394598722
 20
94.36337460320173
 30
0.0
 10
306.0670394598966
 20
94.63951697811721
 30
0.0
 10
306.290897085001
 20
94.86337460318186
 30
0.0
 10
306.5670394599168
 20
94.86337460315651
 30
0.0
 10
306.5670394599168
 20
94.86337460315651
 30
0.0
 10
307.5670394599169
 20
94.86337460306732
 30
0.0
 10
307.5670394599169
 20
94.86337460306732
 30
0.0
 10
307.843181834832
 20
94.86337460304165
 30
0.0
 10
308.0670394599364
 20
95.08723222810662
 30
0.0
 10
308.0670394599621
 20
95.3633746030221
 30
0.0
 10
308.0670394599621
 20
95.3633746030221
 30
0.0
 10
308.0670394605005
 20
101.3633746030223
 30
0.0
 10
308.0670394605005
 20
101.3633746030223
 30
0.0
 10
308.0670394605255
 20
101.6395169779371
 30
0.0
 10
307.8431818354609
 20
101.8633746030419
 30
0.0
 10
307.5670394605457
 20
101.8633746030669
 30
0.0
 10
307.5670394605457
 20
101.8633746030669
 30
0.0
 10
304.1857894605449
 20
101.8633746033701
 30
0.0
 10
304.1857894605449
 20
101.8633746033701
 30
0.0
 10
303.9096470856297
 20
101.8633746033951
 30
0.0
 10
303.685789460565
 20
102.0872322284999
 30
0.0
 10
303.6857894605901
 20
102.363374603415
 30
0.0
 10
303.6857894605901
 20
102.363374603415
 30
0.0
 10
303.6857894605984
 20
102.4553746034151
 30
0.0
 10
303.6857894605984
 20
102.4553746034151
 30
0.0
 10
303.6857894606235
 20
102.7315169783306
 30
0.0
 10
303.4619318355588
 20
102.9553746034347
 30
0.0
 10
303.1857894606436
 20
102.9553746034601
 30
0.0
 10
303.1857894606436
 20
102.9553746034601
 30
0.0
 10
290.1857894606432
 20
102.955374604627
 30
0.0
 10
290.1857894606432
 20
102.955374604627
 30
0.0
 10
289.909647085728
 20
102.9553746046524
 30
0.0
 10
289.6857894606236
 20
102.7315169795877
 30
0.0
 10
289.6857894605986
 20
102.4553746046722
 30
0.0
 10
289.6857894605986
 20
102.4553746046722
 30
0.0
 10
289.6857894594307
 20
89.45037460467306
 30
0.0
 10
289.6857894594307
 20
89.45037460467306
 30
0.0
 10
289.6857894594057
 20
89.17423222975694
 30
0.0
 10
289.9096470844703
 20
88.95037460465252
 30
0.0
 10
290.1857894593861
 20
88.95037460462749
 30
0.0
 10
290.1857894593861
 20
88.95037460462749
 30
0.0
 10
291.5670394593862
 20
88.95037460450364
 30
0.0
 10
291.5670394593862
 20
88.95037460450364
 30
0.0
 10
291.8431818343014
 20
88.95037460447861
 30
0.0
 10
292.0670394593661
 20
88.72651697937385
 30
0.0
 10
292.0670394593411
 20
88.45037460445901
 30
0.0
 10
292.0670394593411
 20
88.45037460445901
 30
0.0
 10
292.0670394584459
 20
78.48737460445891
 30
0.0
 10
292.0670394584459
 20
78.48737460445891
 30
0.0
 10
292.0670394584215
 20
78.21123222954311
 30
0.0
 10
291.8431818333171
 20
77.98737460447815
 30
0.0
 10
291.5670394584013
 20
77.98737460450348
 30
0.0
  0
SPLINE
  5
7B
330
70
100
AcDbEntity
  8
0
 62
    18
420
        0
370
    25
100
AcDbSpline
210
0.0
220
0.0
230
1.0
 70
    11
 71
     3
 72
   125
 73
   121
 74
     0
 42
0.0000000001
 43
0.0000000001
 40
0.0
 40
0.0
 40
0.0
 40
0.0
 40
1.0
 40
1.0
 40
1.0
 40
2.0
 40
2.0
 40
2.0
 40
3.0
 40
3.0
 40
3.0
 40
4.0
 40
4.0
 40
4.0
 40
5.0
 40
5.0
 40
5.0
 40
6.0
 40
6.0
 40
6.0
 40
7.0
 40
7.0
 40
7.0
 40
8.0
 40
8.0
 40
8.0
 40
9.0
 40
9.0
 40
9.0
 40
10.0
 40
10.0
 40
10.0
 40
11.0
 40
11.0
 40
11.0
 40
12.0
 40
12.0
 40
12.0
 40
13.0
 40
13.0
 40
13.0
 40
14.0
 40
14.0
 40
14.0
 40
15.0
 40
15.0
 40
15.0
 40
16.0
 40
16.0
 40
16.0
 40
17.0
 40
17.0
 40
17.0
 40
18.0
 40
18.0
 40
18.0
 40
19.0
 40
19.0
 40
19.0
 40
20.0
 40
20.0
 40
20.0
 40
21.0
 40
21.0
 40
21.0
 40
22.0
 40
22.0
 40
22.0
 40
23.0
 40
23.0
 40
23.0
 40
24.0
 40
24.0
 40
24.0
 40
25.0
 40
25.0
 40
25.0
 40
26.0
 40
26.0
 40
26.0
 40
27.0
 40
27.0
 40
27.0
 40
28.0
 40
28.0
 40
28.0
 40
29.0
 40
29.0
 40
29.0
 40
30.0
 40
30.0
 40
30.0
 40
31.0
 40
31.0
 40
31.0
 40
32.0
 40
32.0
 40
32.0
 40
33.0
 40
33.0
 40
33.0
 40
34.0
 40
34.0
 40
34.0
 40
35.0
 40
35.0
 40
35.0
 40
36.0
 40
36.0
 40
36.0
 40
37.0
 40
37.0
 40
37.0
 40
38.0
 40
38.0
 40
38.0
 40
39.0
 40
39.0
 40
39.0
 40
40.0
 40
40.0
 40
40.0
 40
40.0
 10
110.94828945746
 20
67.50164740953639
 30
0.0
 10
110.94828945746
 20
67.50164740953639
 30
0.0
 10
110.947898808249
 20
30.10918386618401
 30
0.0
 10
110.947898808249
 20
30.10918386618401
 30
0.0
 10
110.9478932666708
 20
29.57875090262623
 30
0.0
 10
111.1586016200326
 20
29.07004088954917
 30
0.0
 10
111.5336704383331
 20
28.69496421685693
 30
0.0
 10
111.5336704383331
 20
28.69496421685693
 30
0.0
 10
116.3620469703191
 20
23.86648657286377
 30
0.0
 10
116.3620469703191
 20
23.86648657286377
 30
0.0
 10
116.7371157999988
 20
23.49140988879228
 30
0.0
 10
117.2458214194928
 20
23.28069088165269
 30
0.0
 10
117.7762543991425
 20
23.28068532775841
 30
0.0
 10
117.7762543991425
 20
23.28068532775841
 30
0.0
 10
126.5194028098531
 20
23.28059378269944
 30
0.0
 10
126.5194028098531
 20
23.28059378269944
 30
0.0
 10
127.0498357895037
 20
23.28058822880581
 30
0.0
 10
127.5585458215498
 20
23.49129658310414
 30
0.0
 10
127.9336225056213
 20
23.86636541278324
 30
0.0
 10
127.9336225056213
 20
23.86636541278324
 30
0.0
 10
132.762108860143
 20
28.69475065511594
 30
0.0
 10
132.762108860143
 20
28.69475065511594
 30
0.0
 10
133.1312288251299
 20
29.06386289045025
 30
0.0
 10
133.6300339749978
 20
29.27403137762533
 30
0.0
 10
134.1520044282985
 20
29.28037461863858
 30
0.0
 10
134.1520044282985
 20
29.28037461863858
 30
0.0
 10
168.2010584282985
 20
29.28037461558152
 30
0.0
 10
168.2010584282985
 20
29.28037461558152
 30
0.0
 10
169.5817703028749
 20
29.28037461545832
 30
0.0
 10
170.7010584281975
 20
28.16108648993422
 30
0.0
 10
170.701058428074
 20
26.7803746153578
 30
0.0
 10
170.7010584279613
 20
25.53125942656166
 30
0.0
 10
171.7136663613924
 20
24.51865149294903
 30
0.0
 10
172.9627815501882
 20
24.51865149283737
 30
0.0
 10
172.9627815501882
 20
24.51865149283737
 30
0.0
 10
249.2572861243934
 20
24.51865148579857
 30
0.0
 10
249.2572861243934
 20
24.51865148579857
 30
0.0
 10
250.5063897658115
 20
24.51865148568692
 30
0.0
 10
251.5189928518807
 20
25.53124151948088
 30
0.0
 10
251.5190089525986
 20
26.78034516079436
 30
0.0
 10
251.5190089524709
 20
26.78035613183942
 30
0.0
 10
251.519008952415
 20
26.78036710286907
 30
0.0
 10
251.5190089524317
 20
26.78037807391413
 30
0.0
 10
251.519011029215
 20
28.16108994848863
 30
0.0
 10
252.6383008382025
 20
29.2803763903446
 30
0.0
 10
254.0190127127782
 20
29.28037431356138
 30
0.0
 10
254.0190127127782
 20
29.28037431356138
 30
0.0
 10
288.0680667623821
 20
29.28032309902265
 30
0.0
 10
288.0680667623821
 20
29.28032309902265
 30
0.0
 10
288.5985059561401
 20
29.28032230116743
 30
0.0
 10
289.1072189002577
 20
29.06960293194467
 30
0.0
 10
289.4822921239087
 20
28.69452185380949
 30
0.0
 10
289.4822921239087
 20
28.69452185380949
 30
0.0
 10
294.3120894874529
 20
23.86462334850357
 30
0.0
 10
294.3120894874529
 20
23.86462334850357
 30
0.0
 10
294.6871583171326
 20
23.48954666443208
 30
0.0
 10
295.1958639366273
 20
23.27882765729184
 30
0.0
 10
295.726296916277
 20
23.2788221033982
 30
0.0
 10
295.726296916277
 20
23.2788221033982
 30
0.0
 10
304.144742891906
 20
23.27873395813326
 30
0.0
 10
304.144742891906
 20
23.27873395813326
 30
0.0
 10
304.6751758715564
 20
23.27872840423898
 30
0.0
 10
305.183885903602
 20
23.48943675853795
 30
0.0
 10
305.5589625876742
 20
23.86450558821705
 30
0.0
 10
305.5589625876742
 20
23.86450558821705
 30
0.0
 10
310.3874728164079
 20
28.69291470426306
 30
0.0
 10
310.3874728164079
 20
28.69291470426306
 30
0.0
 10
310.7625495004793
 20
29.06798353394216
 30
0.0
 10
310.9732685076196
 20
29.57668915343617
 30
0.0
 10
310.9732740615132
 20
30.10712213308583
 30
0.0
 10
310.9732740615132
 20
30.10712213308583
 30
0.0
 10
310.9736724756484
 20
104.6519618165234
 30
0.0
 10
310.9736724756484
 20
104.6519618165234
 30
0.0
 10
310.9736698664514
 20
105.1823958770066
 30
0.0
 10
310.7629532540351
 20
105.6911037028416
 30
0.0
 10
310.3878778879062
 20
106.0661753789914
 30
0.0
 10
310.3878778879062
 20
106.0661753789914
 30
0.0
 10
305.5594182156848
 20
110.8946350520801
 30
0.0
 10
305.5594182156848
 20
110.8946350520801
 30
0.0
 10
305.1843454588217
 20
111.2697078090096
 30
0.0
 10
304.6756376330431
 20
111.480421489787
 30
0.0
 10
304.145204653364
 20
111.4804214898341
 30
0.0
 10
304.145204653364
 20
111.4804214898341
 30
0.0
 10
295.7267586772742
 20
111.4804214905904
 30
0.0
 10
295.7267586772742
 20
111.4804214905904
 30
0.0
 10
295.1963256975937
 20
111.4804214906379
 30
0.0
 10
294.6876178717767
 20
111.2697078099516
 30
0.0
 10
294.3125451148469
 20
110.8946350530895
 30
0.0
 10
294.3125451148469
 20
110.8946350530895
 30
0.0
 10
289.4840760971799
 20
106.0661660362888
 30
0.0
 10
289.4840760971799
 20
106.0661660362888
 30
0.0
 10
289.1090032227511
 20
105.6910931619274
 30
0.0
 10
288.6002952010683
 20
105.4803794715611
 30
0.0
 10
288.0698620552205
 20
105.4803795987892
 30
0.0
 10
288.0698620552205
 20
105.4803795987892
 30
0.0
 10
134.1767188105267
 20
105.4804215050967
 30
0.0
 10
134.1767188105267
 20
105.4804215050967
 30
0.0
 10
133.6462858308482
 20
105.4804215051442
 30
0.0
 10
133.1375780050703
 20
105.6911351859209
 30
0.0
 10
132.7625052482078
 20
106.0662079428501
 30
0.0
 10
132.7625052482078
 20
106.0662079428501
 30
0.0
 10
127.9340781238954
 20
110.8946350680295
 30
0.0
 10
127.9340781238954
 20
110.8946350680295
 30
0.0
 10
127.5590053670323
 20
111.26970782496
 30
0.0
 10
127.0502975412538
 20
111.4804215057364
 30
0.0
 10
126.5198645615746
 20
111.4804215057839
 30
0.0
 10
126.5198645615746
 20
111.4804215057839
 30
0.0
 10
117.7767161503852
 20
111.4804215065687
 30
0.0
 10
117.7767161503852
 20
111.4804215065687
 30
0.0
 10
117.246283170706
 20
111.4804215066168
 30
0.0
 10
116.7375753448893
 20
111.2697078259312
 30
0.0
 10
116.3625025879592
 20
110.8946350690681
 30
0.0
 10
116.3625025879592
 20
110.8946350690681
 30
0.0
 10
111.5340754992716
 20
106.0662079812481
 30
0.0
 10
111.5340754992716
 20
106.0662079812481
 30
0.0
 10
111.159002753721
 20
105.6911352357639
 30
0.0
 10
110.9482890738821
 20
105.1824274289544
 30
0.0
 10
110.9482890615176
 20
104.6519944653674
 30
0.0
 10
110.9482890615176
 20
104.6519944653674
 30
0.0
 10
110.94828945746
 20
67.50164740953639
 30
0.0
 10
110.94828945746
 20
67.50164740953639
 30
0.0
  0
SPLINE
  5
7C
330
70
100
AcDbEntity
  8
0
 62
    18
420
        0
370
    25
100
AcDbSpline
210
0.0
220
0.0
230
1.0
 70
     9
 71
     3
 72
    44
 73
    40
 74
     0
 42
0.0000000001
 43
0.0000000001
 40
0.0
 40
0.0
 40
0.0
 40
0.0
 40
1.0
 40
1.0
 40
1.0
 40
2.0
 40
2.0
 40
2.0
 40
3.0
 40
3.0
 40
3.0
 40
4.0
 40
4.0
 40
4.0
 40
5.0
 40
5.0
 40
5.0
 40
6.0
 40
6.0
 40
6.0
 40
7.0
 40
7.0
 40
7.0
 40
8.0
 40
8.0
 40
8.0
 40
9.0
 40
9.0
 40
9.0
 40
10.0
 40
10.0
 40
10.0
 40
11.0
 40
11.0
 40
11.0
 40
12.0
 40
12.0
 40
12.0
 40
13.0
 40
13.0
 40
13.0
 40
13.0
 10
185.8857894551295
 20
41.54287461399298
 30
0.0
 10
185.8857894551045
 20
41.26673223907782
 30
0.0
 10
186.1096470801692
 20
41.04287461397276
 30
0.0
 10
186.3857894550843
 20
41.04287461394773
 30
0.0
 10
186.3857894550843
 20
41.04287461394773
 30
0.0
 10
198.4107894550842
 20
41.04287461286839
 30
0.0
 10
198.4107894550842
 20
41.04287461286839
 30
0.0
 10
198.68693183
 20
41.04287461284336
 30
0.0
 10
198.910789455064
 20
40.81901698773893
 30
0.0
 10
198.9107894550396
 20
40.54287461282313
 30
0.0
 10
198.9107894550396
 20
40.54287461282313
 30
0.0
 10
198.9107894538727
 20
27.54287461282332
 30
0.0
 10
198.9107894538727
 20
27.54287461282332
 30
0.0
 10
198.9107894538473
 20
27.26673223790816
 30
0.0
 10
198.6869318287429
 20
27.04287461284351
 30
0.0
 10
198.4107894538271
 20
27.04287461286854
 30
0.0
 10
198.4107894538271
 20
27.04287461286854
 30
0.0
 10
176.9727894538276
 20
27.04287461479299
 30
0.0
 10
176.9727894538276
 20
27.04287461479299
 30
0.0
 10
176.6966470789118
 20
27.04287461481866
 30
0.0
 10
176.4727894538472
 20
27.26673223992309
 30
0.0
 10
176.4727894538722
 20
27.54287461483825
 30
0.0
 10
176.4727894538722
 20
27.54287461483825
 30
0.0
 10
176.4727894552185
 20
42.54287461483814
 30
0.0
 10
176.4727894552185
 20
42.54287461483814
 30
0.0
 10
176.4727894552435
 20
42.81901698975329
 30
0.0
 10
176.6966470803483
 20
43.04287461481794
 30
0.0
 10
176.9727894552637
 20
43.04287461479355
 30
0.0
 10
176.9727894552637
 20
43.04287461479355
 30
0.0
 10
185.3857894552633
 20
43.04287461403763
 30
0.0
 10
185.3857894552633
 20
43.04287461403763
 30
0.0
 10
185.3857894552633
 20
43.04287461403763
 30
0.0
 10
185.3857894552633
 20
43.03787461403826
 30
0.0
 10
185.3857894552633
 20
43.03787461403826
 30
0.0
 10
185.6619318301791
 20
43.03787461401323
 30
0.0
 10
185.8857894552431
 20
42.81401698890816
 30
0.0
 10
185.8857894552187
 20
42.537874613993
 30
0.0
 10
185.8857894552187
 20
42.537874613993
 30
0.0
 10
185.8857894551295
 20
41.54287461399298
 30
0.0
 10
185.8857894551295
 20
41.54287461399298
 30
0.0
  0
CIRCLE
  5
7D
330
70
100
AcDbEntity
  8
0
 62
    18
420
        0
370
    25
100
AcDbCircle
 10
299.8545189855858
 20
108.4804028304557
 30
0.0
 40
1.249999999687496
  0
CIRCLE
  5
7E
330
70
100
AcDbEntity
  8
0
 62
    18
420
        0
370
    25
100
AcDbCircle
 10
122.0668300759807
 20
108.4804215201082
 30
0.0
 40
1.249999999687296
  0
CIRCLE
  5
7F
330
70
100
AcDbEntity
  8
0
 62
    18
420
        0
370
    25
100
AcDbCircle
 10
122.0668300807554
 20
26.28063954113236
 30
0.0
 40
1.249999999687376
  0
CIRCLE
  5
80
330
70
100
AcDbEntity
  8
0
 62
    18
420
        0
370
    25
100
AcDbCircle
 10
299.8545189808106
 20
26.27879669038232
 30
0.0
 40
1.249999999687215
  0
SPLINE
  5
81
330
70
100
AcDbEntity
  8
0
 62
    18
420
        0
370
    25
100
AcDbSpline
210
0.0
220
0.0
230
1.0
 70
     9
 71
     3
 72
    29
 73
    25
 74
     0
 42
0.0000000001
 43
0.0000000001
 40
0.0
 40
0.0
 40
0.0
 40
0.0
 40
1.0
 40
1.0
 40
1.0
 40
2.0
 40
2.0
 40
2.0
 40
3.0
 40
3.0
 40
3.0
 40
4.0
 40
4.0
 40
4.0
 40
5.0
 40
5.0
 40
5.0
 40
6.0
 40
6.0
 40
6.0
 40
7.0
 40
7.0
 40
7.0
 40
8.0
 40
8.0
 40
8.0
 40
8.0
 10
126.9736745517796
 20
88.9553746079316
 30
0.0
 10
126.9736745517796
 20
88.9553746079316
 30
0.0
 10
113.9736745550293
 20
88.9553746079316
 30
0.0
 10
113.9736745550293
 20
88.9553746079316
 30
0.0
 10
113.6975321801831
 20
88.9553746079316
 30
0.0
 10
113.4736745551544
 20
89.17923223296064
 30
0.0
 10
113.4736745551544
 20
89.45537460780712
 30
0.0
 10
113.4736745551544
 20
89.45537460780712
 30
0.0
 10
113.4736745551544
 20
102.4553746045567
 30
0.0
 10
113.4736745551544
 20
102.4553746045567
 30
0.0
 10
113.4736745551544
 20
102.7315169794029
 30
0.0
 10
113.6975321801831
 20
102.9553746044316
 30
0.0
 10
113.9736745550293
 20
102.9553746044316
 30
0.0
 10
113.9736745550293
 20
102.9553746044316
 30
0.0
 10
126.9736745517796
 20
102.9553746044316
 30
0.0
 10
126.9736745517796
 20
102.9553746044316
 30
0.0
 10
127.2498169266257
 20
102.9553746044316
 30
0.0
 10
127.4736745516548
 20
102.7315169794029
 30
0.0
 10
127.4736745516548
 20
102.4553746045567
 30
0.0
 10
127.4736745516548
 20
102.4553746045567
 30
0.0
 10
127.4736745516548
 20
89.45537460780712
 30
0.0
 10
127.4736745516548
 20
89.45537460780712
 30
0.0
 10
127.4736745516548
 20
89.17923223296064
 30
0.0
 10
127.2498169266257
 20
88.9553746079316
 30
0.0
 10
126.9736745517796
 20
88.9553746079316
 30
0.0
  0
SPLINE
  5
82
330
70
100
AcDbEntity
  8
0
 62
    18
420
        0
370
    25
100
AcDbSpline
210
0.0
220
0.0
230
1.0
 70
     9
 71
     3
 72
    29
 73
    25
 74
     0
 42
0.0000000001
 43
0.0000000001
 40
0.0
 40
0.0
 40
0.0
 40
0.0
 40
1.0
 40
1.0
 40
1.0
 40
2.0
 40
2.0
 40
2.0
 40
3.0
 40
3.0
 40
3.0
 40
4.0
 40
4.0
 40
4.0
 40
5.0
 40
5.0
 40
5.0
 40
6.0
 40
6.0
 40
6.0
 40
7.0
 40
7.0
 40
7.0
 40
8.0
 40
8.0
 40
8.0
 40
8.0
 10
129.3546745511841
 20
69.98976770549946
 30
0.0
 10
129.3546745511841
 20
69.98976770549946
 30
0.0
 10
116.3546745544339
 20
69.98976770549946
 30
0.0
 10
116.3546745544339
 20
69.98976770549946
 30
0.0
 10
116.0785321795884
 20
69.98976770549946
 30
0.0
 10
115.8546745545593
 20
70.21362533052817
 30
0.0
 10
115.8546745545593
 20
70.48976770537468
 30
0.0
 10
115.8546745545593
 20
70.48976770537468
 30
0.0
 10
115.8546745545593
 20
83.48976770212493
 30
0.0
 10
115.8546745545593
 20
83.48976770212493
 30
0.0
 10
115.8546745545593
 20
83.76591007697077
 30
0.0
 10
116.0785321795884
 20
83.98976770199949
 30
0.0
 10
116.3546745544339
 20
83.98976770199949
 30
0.0
 10
116.3546745544339
 20
83.98976770199949
 30
0.0
 10
129.3546745511841
 20
83.98976770199949
 30
0.0
 10
129.3546745511841
 20
83.98976770199949
 30
0.0
 10
129.630816926031
 20
83.98976770199949
 30
0.0
 10
129.8546745510594
 20
83.76591007697077
 30
0.0
 10
129.8546745510594
 20
83.48976770212493
 30
0.0
 10
129.8546745510594
 20
83.48976770212493
 30
0.0
 10
129.8546745510594
 20
70.48976770537468
 30
0.0
 10
129.8546745510594
 20
70.48976770537468
 30
0.0
 10
129.8546745510594
 20
70.21362533052817
 30
0.0
 10
129.630816926031
 20
69.98976770549946
 30
0.0
 10
129.3546745511841
 20
69.98976770549946
 30
0.0
  0
SPLINE
  5
83
330
70
100
AcDbEntity
  8
0
 62
    18
420
        0
370
    25
100
AcDbSpline
210
0.0
220
0.0
230
1.0
 70
     9
 71
     3
 72
    29
 73
    25
 74
     0
 42
0.0000000001
 43
0.0000000001
 40
0.0
 40
0.0
 40
0.0
 40
0.0
 40
1.0
 40
1.0
 40
1.0
 40
2.0
 40
2.0
 40
2.0
 40
3.0
 40
3.0
 40
3.0
 40
4.0
 40
4.0
 40
4.0
 40
5.0
 40
5.0
 40
5.0
 40
6.0
 40
6.0
 40
6.0
 40
7.0
 40
7.0
 40
7.0
 40
8.0
 40
8.0
 40
8.0
 40
8.0
 10
134.1159999664709
 20
50.85537460536571
 30
0.0
 10
134.1159999664709
 20
50.85537460536571
 30
0.0
 10
121.1159999697207
 20
50.85537460536571
 30
0.0
 10
121.1159999697207
 20
50.85537460536571
 30
0.0
 10
120.8398575948748
 20
50.85537460536571
 30
0.0
 10
120.6159999698461
 20
51.07923223039442
 30
0.0
 10
120.6159999698461
 20
51.35537460524091
 30
0.0
 10
120.6159999698461
 20
51.35537460524091
 30
0.0
 10
120.6159999698461
 20
64.35537460199117
 30
0.0
 10
120.6159999698461
 20
64.35537460199117
 30
0.0
 10
120.6159999698461
 20
64.63151697683766
 30
0.0
 10
120.8398575948748
 20
64.85537460186638
 30
0.0
 10
121.1159999697207
 20
64.85537460186638
 30
0.0
 10
121.1159999697207
 20
64.85537460186638
 30
0.0
 10
134.1159999664709
 20
64.85537460186638
 30
0.0
 10
134.1159999664709
 20
64.85537460186638
 30
0.0
 10
134.3921423413174
 20
64.85537460186638
 30
0.0
 10
134.6159999663461
 20
64.63151697683766
 30
0.0
 10
134.6159999663461
 20
64.35537460199117
 30
0.0
 10
134.6159999663461
 20
64.35537460199117
 30
0.0
 10
134.6159999663461
 20
51.35537460524091
 30
0.0
 10
134.6159999663461
 20
51.35537460524091
 30
0.0
 10
134.6159999663461
 20
51.07923223039442
 30
0.0
 10
134.3921423413174
 20
50.85537460536571
 30
0.0
 10
134.1159999664709
 20
50.85537460536571
 30
0.0
  0
SPLINE
  5
84
330
70
100
AcDbEntity
  8
0
 62
    18
420
        0
370
    25
100
AcDbSpline
210
0.0
220
0.0
230
1.0
 70
     9
 71
     3
 72
    29
 73
    25
 74
     0
 42
0.0000000001
 43
0.0000000001
 40
0.0
 40
0.0
 40
0.0
 40
0.0
 40
1.0
 40
1.0
 40
1.0
 40
2.0
 40
2.0
 40
2.0
 40
3.0
 40
3.0
 40
3.0
 40
4.0
 40
4.0
 40
4.0
 40
5.0
 40
5.0
 40
5.0
 40
6.0
 40
6.0
 40
6.0
 40
7.0
 40
7.0
 40
7.0
 40
8.0
 40
8.0
 40
8.0
 40
8.0
 10
146.02328945839
 20
88.95563328244627
 30
0.0
 10
146.02328945839
 20
88.95563328244627
 30
0.0
 10
133.0232894616391
 20
88.95563328244627
 30
0.0
 10
133.0232894616391
 20
88.95563328244627
 30
0.0
 10
132.7471470867936
 20
88.95563328244627
 30
0.0
 10
132.5232894617652
 20
89.17949090747466
 30
0.0
 10
132.5232894617652
 20
89.45563328232211
 30
0.0
 10
132.5232894617652
 20
89.45563328232211
 30
0.0
 10
132.5232894617652
 20
102.455633279072
 30
0.0
 10
132.5232894617652
 20
102.455633279072
 30
0.0
 10
132.5232894617652
 20
102.7317756539182
 30
0.0
 10
132.7471470867936
 20
102.9556332789469
 30
0.0
 10
133.0232894616391
 20
102.9556332789469
 30
0.0
 10
133.0232894616391
 20
102.9556332789469
 30
0.0
 10
146.02328945839
 20
102.9556332789469
 30
0.0
 10
146.02328945839
 20
102.9556332789469
 30
0.0
 10
146.2994318332362
 20
102.9556332789469
 30
0.0
 10
146.5232894582649
 20
102.7317756539182
 30
0.0
 10
146.5232894582649
 20
102.455633279072
 30
0.0
 10
146.5232894582649
 20
102.455633279072
 30
0.0
 10
146.5232894582649
 20
89.45563328232211
 30
0.0
 10
146.5232894582649
 20
89.45563328232211
 30
0.0
 10
146.5232894582649
 20
89.17949090747466
 30
0.0
 10
146.2994318332362
 20
88.95563328244627
 30
0.0
 10
146.02328945839
 20
88.95563328244627
 30
0.0
  0
SPLINE
  5
85
330
70
100
AcDbEntity
  8
0
 62
    18
420
        0
370
    25
100
AcDbSpline
210
0.0
220
0.0
230
1.0
 70
     9
 71
     3
 72
    29
 73
    25
 74
     0
 42
0.0000000001
 43
0.0000000001
 40
0.0
 40
0.0
 40
0.0
 40
0.0
 40
1.0
 40
1.0
 40
1.0
 40
2.0
 40
2.0
 40
2.0
 40
3.0
 40
3.0
 40
3.0
 40
4.0
 40
4.0
 40
4.0
 40
5.0
 40
5.0
 40
5.0
 40
6.0
 40
6.0
 40
6.0
 40
7.0
 40
7.0
 40
7.0
 40
8.0
 40
8.0
 40
8.0
 40
8.0
 10
165.0732894583902
 20
88.95563328244627
 30
0.0
 10
165.0732894583902
 20
88.95563328244627
 30
0.0
 10
152.0732894616393
 20
88.95563328244627
 30
0.0
 10
152.0732894616393
 20
88.95563328244627
 30
0.0
 10
151.7971470867938
 20
88.95563328244627
 30
0.0
 10
151.5732894617654
 20
89.17949090747466
 30
0.0
 10
151.5732894617654
 20
89.45563328232116
 30
0.0
 10
151.5732894617654
 20
89.45563328232116
 30
0.0
 10
151.5732894617654
 20
102.4556332790714
 30
0.0
 10
151.5732894617654
 20
102.4556332790714
 30
0.0
 10
151.5732894617654
 20
102.7317756539179
 30
0.0
 10
151.7971470867938
 20
102.9556332789466
 30
0.0
 10
152.0732894616393
 20
102.9556332789466
 30
0.0
 10
152.0732894616393
 20
102.9556332789466
 30
0.0
 10
165.0732894583902
 20
102.9556332789466
 30
0.0
 10
165.0732894583902
 20
102.9556332789466
 30
0.0
 10
165.3494318332364
 20
102.9556332789466
 30
0.0
 10
165.5732894582651
 20
102.7317756539179
 30
0.0
 10
165.5732894582651
 20
102.4556332790714
 30
0.0
 10
165.5732894582651
 20
102.4556332790714
 30
0.0
 10
165.5732894582651
 20
89.45563328232116
 30
0.0
 10
165.5732894582651
 20
89.45563328232116
 30
0.0
 10
165.5732894582651
 20
89.17949090747466
 30
0.0
 10
165.3494318332364
 20
88.95563328244627
 30
0.0
 10
165.0732894583902
 20
88.95563328244627
 30
0.0
  0
SPLINE
  5
86
330
70
100
AcDbEntity
  8
0
 62
    18
420
        0
370
    25
100
AcDbSpline
210
0.0
220
0.0
230
1.0
 70
     9
 71
     3
 72
    29
 73
    25
 74
     0
 42
0.0000000001
 43
0.0000000001
 40
0.0
 40
0.0
 40
0.0
 40
0.0
 40
1.0
 40
1.0
 40
1.0
 40
2.0
 40
2.0
 40
2.0
 40
3.0
 40
3.0
 40
3.0
 40
4.0
 40
4.0
 40
4.0
 40
5.0
 40
5.0
 40
5.0
 40
6.0
 40
6.0
 40
6.0
 40
7.0
 40
7.0
 40
7.0
 40
8.0
 40
8.0
 40
8.0
 40
8.0
 10
184.1232894583897
 20
88.95563328244627
 30
0.0
 10
184.1232894583897
 20
88.95563328244627
 30
0.0
 10
171.1232894616395
 20
88.95563328244627
 30
0.0
 10
171.1232894616395
 20
88.95563328244627
 30
0.0
 10
170.8471470867936
 20
88.95563328244627
 30
0.0
 10
170.6232894617649
 20
89.17949090747466
 30
0.0
 10
170.6232894617649
 20
89.45563328232116
 30
0.0
 10
170.6232894617649
 20
89.45563328232116
 30
0.0
 10
170.6232894617649
 20
102.4556332790714
 30
0.0
 10
170.6232894617649
 20
102.4556332790714
 30
0.0
 10
170.6232894617649
 20
102.7317756539179
 30
0.0
 10
170.8471470867936
 20
102.9556332789466
 30
0.0
 10
171.1232894616395
 20
102.9556332789466
 30
0.0
 10
171.1232894616395
 20
102.9556332789466
 30
0.0
 10
184.1232894583897
 20
102.9556332789466
 30
0.0
 10
184.1232894583897
 20
102.9556332789466
 30
0.0
 10
184.3994318332362
 20
102.9556332789466
 30
0.0
 10
184.623289458265
 20
102.7317756539179
 30
0.0
 10
184.623289458265
 20
102.4556332790714
 30
0.0
 10
184.623289458265
 20
102.4556332790714
 30
0.0
 10
184.623289458265
 20
89.45563328232116
 30
0.0
 10
184.623289458265
 20
89.45563328232116
 30
0.0
 10
184.623289458265
 20
89.17949090747466
 30
0.0
 10
184.3994318332362
 20
88.95563328244627
 30
0.0
 10
184.1232894583897
 20
88.95563328244627
 30
0.0
  0
SPLINE
  5
87
330
70
100
AcDbEntity
  8
0
 62
    18
420
        0
370
    25
100
AcDbSpline
210
0.0
220
0.0
230
1.0
 70
     9
 71
     3
 72
    29
 73
    25
 74
     0
 42
0.0000000001
 43
0.0000000001
 40
0.0
 40
0.0
 40
0.0
 40
0.0
 40
1.0
 40
1.0
 40
1.0
 40
2.0
 40
2.0
 40
2.0
 40
3.0
 40
3.0
 40
3.0
 40
4.0
 40
4.0
 40
4.0
 40
5.0
 40
5.0
 40
5.0
 40
6.0
 40
6.0
 40
6.0
 40
7.0
 40
7.0
 40
7.0
 40
8.0
 40
8.0
 40
8.0
 40
8.0
 10
203.1732894583896
 20
88.95563328244627
 30
0.0
 10
203.1732894583896
 20
88.95563328244627
 30
0.0
 10
190.1732894616394
 20
88.95563328244627
 30
0.0
 10
190.1732894616394
 20
88.95563328244627
 30
0.0
 10
189.8971470867935
 20
88.95563328244627
 30
0.0
 10
189.6732894617648
 20
89.17949090747466
 30
0.0
 10
189.6732894617648
 20
89.45563328232116
 30
0.0
 10
189.6732894617648
 20
89.45563328232116
 30
0.0
 10
189.6732894617648
 20
102.4556332790714
 30
0.0
 10
189.6732894617648
 20
102.4556332790714
 30
0.0
 10
189.6732894617648
 20
102.7317756539179
 30
0.0
 10
189.8971470867935
 20
102.9556332789466
 30
0.0
 10
190.1732894616394
 20
102.9556332789466
 30
0.0
 10
190.1732894616394
 20
102.9556332789466
 30
0.0
 10
203.1732894583896
 20
102.9556332789466
 30
0.0
 10
203.1732894583896
 20
102.9556332789466
 30
0.0
 10
203.4494318332365
 20
102.9556332789466
 30
0.0
 10
203.6732894582649
 20
102.7317756539179
 30
0.0
 10
203.6732894582649
 20
102.4556332790714
 30
0.0
 10
203.6732894582649
 20
102.4556332790714
 30
0.0
 10
203.6732894582649
 20
89.45563328232116
 30
0.0
 10
203.6732894582649
 20
89.45563328232116
 30
0.0
 10
203.6732894582649
 20
89.17949090747466
 30
0.0
 10
203.4494318332365
 20
88.95563328244627
 30
0.0
 10
203.1732894583896
 20
88.95563328244627
 30
0.0
  0
SPLINE
  5
88
330
70
100
AcDbEntity
  8
0
 62
    18
420
        0
370
    25
100
AcDbSpline
210
0.0
220
0.0
230
1.0
 70
     9
 71
     3
 72
    29
 73
    25
 74
     0
 42
0.0000000001
 43
0.0000000001
 40
0.0
 40
0.0
 40
0.0
 40
0.0
 40
1.0
 40
1.0
 40
1.0
 40
2.0
 40
2.0
 40
2.0
 40
3.0
 40
3.0
 40
3.0
 40
4.0
 40
4.0
 40
4.0
 40
5.0
 40
5.0
 40
5.0
 40
6.0
 40
6.0
 40
6.0
 40
7.0
 40
7.0
 40
7.0
 40
8.0
 40
8.0
 40
8.0
 40
8.0
 10
222.2232894583895
 20
88.95563328244627
 30
0.0
 10
222.2232894583895
 20
88.95563328244627
 30
0.0
 10
209.2232894616396
 20
88.95563328244627
 30
0.0
 10
209.2232894616396
 20
88.95563328244627
 30
0.0
 10
208.9471470867941
 20
88.95563328244627
 30
0.0
 10
208.723289461765
 20
89.17949090747466
 30
0.0
 10
208.723289461765
 20
89.45563328232116
 30
0.0
 10
208.723289461765
 20
89.45563328232116
 30
0.0
 10
208.723289461765
 20
102.4556332790714
 30
0.0
 10
208.723289461765
 20
102.4556332790714
 30
0.0
 10
208.723289461765
 20
102.7317756539179
 30
0.0
 10
208.9471470867941
 20
102.9556332789466
 30
0.0
 10
209.2232894616396
 20
102.9556332789466
 30
0.0
 10
209.2232894616396
 20
102.9556332789466
 30
0.0
 10
222.2232894583895
 20
102.9556332789466
 30
0.0
 10
222.2232894583895
 20
102.9556332789466
 30
0.0
 10
222.4994318332367
 20
102.9556332789466
 30
0.0
 10
222.7232894582654
 20
102.7317756539179
 30
0.0
 10
222.7232894582654
 20
102.4556332790714
 30
0.0
 10
222.7232894582654
 20
102.4556332790714
 30
0.0
 10
222.7232894582654
 20
89.45563328232116
 30
0.0
 10
222.7232894582654
 20
89.45563328232116
 30
0.0
 10
222.7232894582654
 20
89.17949090747466
 30
0.0
 10
222.4994318332367
 20
88.95563328244627
 30
0.0
 10
222.2232894583895
 20
88.95563328244627
 30
0.0
  0
SPLINE
  5
89
330
70
100
AcDbEntity
  8
0
 62
    18
420
        0
370
    25
100
AcDbSpline
210
0.0
220
0.0
230
1.0
 70
     9
 71
     3
 72
    29
 73
    25
 74
     0
 42
0.0000000001
 43
0.0000000001
 40
0.0
 40
0.0
 40
0.0
 40
0.0
 40
1.0
 40
1.0
 40
1.0
 40
2.0
 40
2.0
 40
2.0
 40
3.0
 40
3.0
 40
3.0
 40
4.0
 40
4.0
 40
4.0
 40
5.0
 40
5.0
 40
5.0
 40
6.0
 40
6.0
 40
6.0
 40
7.0
 40
7.0
 40
7.0
 40
8.0
 40
8.0
 40
8.0
 40
8.0
 10
241.2732894583897
 20
88.95563328244627
 30
0.0
 10
241.2732894583897
 20
88.95563328244627
 30
0.0
 10
228.2732894616394
 20
88.95563328244627
 30
0.0
 10
228.2732894616394
 20
88.95563328244627
 30
0.0
 10
227.9971470867936
 20
88.95563328244627
 30
0.0
 10
227.7732894617649
 20
89.17949090747466
 30
0.0
 10
227.7732894617649
 20
89.45563328232116
 30
0.0
 10
227.7732894617649
 20
89.45563328232116
 30
0.0
 10
227.7732894617649
 20
102.4556332790714
 30
0.0
 10
227.7732894617649
 20
102.4556332790714
 30
0.0
 10
227.7732894617649
 20
102.7317756539179
 30
0.0
 10
227.9971470867936
 20
102.9556332789466
 30
0.0
 10
228.2732894616394
 20
102.9556332789466
 30
0.0
 10
228.2732894616394
 20
102.9556332789466
 30
0.0
 10
241.2732894583897
 20
102.9556332789466
 30
0.0
 10
241.2732894583897
 20
102.9556332789466
 30
0.0
 10
241.5494318332368
 20
102.9556332789466
 30
0.0
 10
241.7732894582655
 20
102.7317756539179
 30
0.0
 10
241.7732894582655
 20
102.4556332790714
 30
0.0
 10
241.7732894582655
 20
102.4556332790714
 30
0.0
 10
241.7732894582655
 20
89.45563328232116
 30
0.0
 10
241.7732894582655
 20
89.45563328232116
 30
0.0
 10
241.7732894582655
 20
89.17949090747466
 30
0.0
 10
241.5494318332368
 20
88.95563328244627
 30
0.0
 10
241.2732894583897
 20
88.95563328244627
 30
0.0
  0
SPLINE
  5
8A
330
70
100
AcDbEntity
  8
0
 62
    18
420
        0
370
    25
100
AcDbSpline
210
0.0
220
0.0
230
1.0
 70
     9
 71
     3
 72
    29
 73
    25
 74
     0
 42
0.0000000001
 43
0.0000000001
 40
0.0
 40
0.0
 40
0.0
 40
0.0
 40
1.0
 40
1.0
 40
1.0
 40
2.0
 40
2.0
 40
2.0
 40
3.0
 40
3.0
 40
3.0
 40
4.0
 40
4.0
 40
4.0
 40
5.0
 40
5.0
 40
5.0
 40
6.0
 40
6.0
 40
6.0
 40
7.0
 40
7.0
 40
7.0
 40
8.0
 40
8.0
 40
8.0
 40
8.0
 10
260.3232894583899
 20
88.95563328244627
 30
0.0
 10
260.3232894583899
 20
88.95563328244627
 30
0.0
 10
247.3232894616396
 20
88.95563328244627
 30
0.0
 10
247.3232894616396
 20
88.95563328244627
 30
0.0
 10
247.0471470867938
 20
88.95563328244627
 30
0.0
 10
246.8232894617651
 20
89.17949090747466
 30
0.0
 10
246.8232894617651
 20
89.45563328232116
 30
0.0
 10
246.8232894617651
 20
89.45563328232116
 30
0.0
 10
246.8232894617651
 20
102.4556332790714
 30
0.0
 10
246.8232894617651
 20
102.4556332790714
 30
0.0
 10
246.8232894617651
 20
102.7317756539179
 30
0.0
 10
247.0471470867938
 20
102.9556332789466
 30
0.0
 10
247.3232894616396
 20
102.9556332789466
 30
0.0
 10
247.3232894616396
 20
102.9556332789466
 30
0.0
 10
260.3232894583899
 20
102.9556332789466
 30
0.0
 10
260.3232894583899
 20
102.9556332789466
 30
0.0
 10
260.599431833237
 20
102.9556332789466
 30
0.0
 10
260.8232894582657
 20
102.7317756539179
 30
0.0
 10
260.8232894582657
 20
102.4556332790714
 30
0.0
 10
260.8232894582657
 20
102.4556332790714
 30
0.0
 10
260.8232894582657
 20
89.45563328232116
 30
0.0
 10
260.8232894582657
 20
89.45563328232116
 30
0.0
 10
260.8232894582657
 20
89.17949090747466
 30
0.0
 10
260.599431833237
 20
88.95563328244627
 30
0.0
 10
260.3232894583899
 20
88.95563328244627
 30
0.0
  0
SPLINE
  5
8B
330
70
100
AcDbEntity
  8
0
 62
    18
420
        0
370
    25
100
AcDbSpline
210
0.0
220
0.0
230
1.0
 70
     9
 71
     3
 72
    29
 73
    25
 74
     0
 42
0.0000000001
 43
0.0000000001
 40
0.0
 40
0.0
 40
0.0
 40
0.0
 40
1.0
 40
1.0
 40
1.0
 40
2.0
 40
2.0
 40
2.0
 40
3.0
 40
3.0
 40
3.0
 40
4.0
 40
4.0
 40
4.0
 40
5.0
 40
5.0
 40
5.0
 40
6.0
 40
6.0
 40
6.0
 40
7.0
 40
7.0
 40
7.0
 40
8.0
 40
8.0
 40
8.0
 40
8.0
 10
279.3732894583894
 20
88.95563328244627
 30
0.0
 10
279.3732894583894
 20
88.95563328244627
 30
0.0
 10
266.3732894616392
 20
88.95563328244627
 30
0.0
 10
266.3732894616392
 20
88.95563328244627
 30
0.0
 10
266.0971470867933
 20
88.95563328244627
 30
0.0
 10
265.8732894617646
 20
89.17949090747466
 30
0.0
 10
265.8732894617646
 20
89.45563328232116
 30
0.0
 10
265.8732894617646
 20
89.45563328232116
 30
0.0
 10
265.8732894617646
 20
102.4556332790714
 30
0.0
 10
265.8732894617646
 20
102.4556332790714
 30
0.0
 10
265.8732894617646
 20
102.7317756539179
 30
0.0
 10
266.0971470867933
 20
102.9556332789466
 30
0.0
 10
266.3732894616392
 20
102.9556332789466
 30
0.0
 10
266.3732894616392
 20
102.9556332789466
 30
0.0
 10
279.3732894583894
 20
102.9556332789466
 30
0.0
 10
279.3732894583894
 20
102.9556332789466
 30
0.0
 10
279.6494318332366
 20
102.9556332789466
 30
0.0
 10
279.8732894582653
 20
102.7317756539179
 30
0.0
 10
279.8732894582653
 20
102.4556332790714
 30
0.0
 10
279.8732894582653
 20
102.4556332790714
 30
0.0
 10
279.8732894582653
 20
89.45563328232116
 30
0.0
 10
279.8732894582653
 20
89.45563328232116
 30
0.0
 10
279.8732894582653
 20
89.17949090747466
 30
0.0
 10
279.6494318332366
 20
88.95563328244627
 30
0.0
 10
279.3732894583894
 20
88.95563328244627
 30
0.0
  0
SPLINE
  5
8C
330
70
100
AcDbEntity
  8
0
 62
    18
420
        0
370
    25
100
AcDbSpline
210
0.0
220
0.0
230
1.0
 70
     9
 71
     3
 72
    29
 73
    25
 74
     0
 42
0.0000000001
 43
0.0000000001
 40
0.0
 40
0.0
 40
0.0
 40
0.0
 40
1.0
 40
1.0
 40
1.0
 40
2.0
 40
2.0
 40
2.0
 40
3.0
 40
3.0
 40
3.0
 40
4.0
 40
4.0
 40
4.0
 40
5.0
 40
5.0
 40
5.0
 40
6.0
 40
6.0
 40
6.0
 40
7.0
 40
7.0
 40
7.0
 40
8.0
 40
8.0
 40
8.0
 40
8.0
 10
150.7856745291575
 20
69.9896332871878
 30
0.0
 10
150.7856745291575
 20
69.9896332871878
 30
0.0
 10
137.7856745324072
 20
69.9896332871878
 30
0.0
 10
137.7856745324072
 20
69.9896332871878
 30
0.0
 10
137.5095321575614
 20
69.9896332871878
 30
0.0
 10
137.285674532533
 20
70.21349091221683
 30
0.0
 10
137.285674532533
 20
70.48963328706396
 30
0.0
 10
137.285674532533
 20
70.48963328706396
 30
0.0
 10
137.285674532533
 20
83.4896332838139
 30
0.0
 10
137.285674532533
 20
83.4896332838139
 30
0.0
 10
137.285674532533
 20
83.76577565866007
 30
0.0
 10
137.5095321575614
 20
83.98963328368846
 30
0.0
 10
137.7856745324072
 20
83.98963328368846
 30
0.0
 10
137.7856745324072
 20
83.98963328368846
 30
0.0
 10
150.7856745291575
 20
83.98963328368846
 30
0.0
 10
150.7856745291575
 20
83.98963328368846
 30
0.0
 10
151.061816904004
 20
83.98963328368846
 30
0.0
 10
151.2856745290327
 20
83.76577565866007
 30
0.0
 10
151.2856745290327
 20
83.4896332838139
 30
0.0
 10
151.2856745290327
 20
83.4896332838139
 30
0.0
 10
151.2856745290327
 20
70.48963328706396
 30
0.0
 10
151.2856745290327
 20
70.48963328706396
 30
0.0
 10
151.2856745290327
 20
70.21349091221683
 30
0.0
 10
151.061816904004
 20
69.9896332871878
 30
0.0
 10
150.7856745291575
 20
69.9896332871878
 30
0.0
  0
SPLINE
  5
8D
330
70
100
AcDbEntity
  8
0
 62
    18
420
        0
370
    25
100
AcDbSpline
210
0.0
220
0.0
230
1.0
 70
     9
 71
     3
 72
    29
 73
    25
 74
     0
 42
0.0000000001
 43
0.0000000001
 40
0.0
 40
0.0
 40
0.0
 40
0.0
 40
1.0
 40
1.0
 40
1.0
 40
2.0
 40
2.0
 40
2.0
 40
3.0
 40
3.0
 40
3.0
 40
4.0
 40
4.0
 40
4.0
 40
5.0
 40
5.0
 40
5.0
 40
6.0
 40
6.0
 40
6.0
 40
7.0
 40
7.0
 40
7.0
 40
8.0
 40
8.0
 40
8.0
 40
8.0
 10
169.8356745291576
 20
69.9896332871878
 30
0.0
 10
169.8356745291576
 20
69.9896332871878
 30
0.0
 10
156.8356745324077
 20
69.9896332871878
 30
0.0
 10
156.8356745324077
 20
69.9896332871878
 30
0.0
 10
156.5595321575615
 20
69.9896332871878
 30
0.0
 10
156.3356745325329
 20
70.21349091221683
 30
0.0
 10
156.3356745325329
 20
70.48963328706332
 30
0.0
 10
156.3356745325329
 20
70.48963328706332
 30
0.0
 10
156.3356745325329
 20
83.48963328381326
 30
0.0
 10
156.3356745325329
 20
83.48963328381326
 30
0.0
 10
156.3356745325329
 20
83.76577565866007
 30
0.0
 10
156.5595321575615
 20
83.98963328368846
 30
0.0
 10
156.8356745324077
 20
83.98963328368846
 30
0.0
 10
156.8356745324077
 20
83.98963328368846
 30
0.0
 10
169.8356745291576
 20
83.98963328368846
 30
0.0
 10
169.8356745291576
 20
83.98963328368846
 30
0.0
 10
170.1118169040041
 20
83.98963328368846
 30
0.0
 10
170.3356745290328
 20
83.76577565866007
 30
0.0
 10
170.3356745290328
 20
83.48963328381326
 30
0.0
 10
170.3356745290328
 20
83.48963328381326
 30
0.0
 10
170.3356745290328
 20
70.48963328706332
 30
0.0
 10
170.3356745290328
 20
70.48963328706332
 30
0.0
 10
170.3356745290328
 20
70.21349091221683
 30
0.0
 10
170.1118169040041
 20
69.9896332871878
 30
0.0
 10
169.8356745291576
 20
69.9896332871878
 30
0.0
  0
SPLINE
  5
8E
330
70
100
AcDbEntity
  8
0
 62
    18
420
        0
370
    25
100
AcDbSpline
210
0.0
220
0.0
230
1.0
 70
     9
 71
     3
 72
    29
 73
    25
 74
     0
 42
0.0000000001
 43
0.0000000001
 40
0.0
 40
0.0
 40
0.0
 40
0.0
 40
1.0
 40
1.0
 40
1.0
 40
2.0
 40
2.0
 40
2.0
 40
3.0
 40
3.0
 40
3.0
 40
4.0
 40
4.0
 40
4.0
 40
5.0
 40
5.0
 40
5.0
 40
6.0
 40
6.0
 40
6.0
 40
7.0
 40
7.0
 40
7.0
 40
8.0
 40
8.0
 40
8.0
 40
8.0
 10
188.8856745291575
 20
69.9896332871878
 30
0.0
 10
188.8856745291575
 20
69.9896332871878
 30
0.0
 10
175.8856745324073
 20
69.9896332871878
 30
0.0
 10
175.8856745324073
 20
69.9896332871878
 30
0.0
 10
175.6095321575614
 20
69.9896332871878
 30
0.0
 10
175.3856745325327
 20
70.21349091221683
 30
0.0
 10
175.3856745325327
 20
70.48963328706332
 30
0.0
 10
175.3856745325327
 20
70.48963328706332
 30
0.0
 10
175.3856745325327
 20
83.48963328381326
 30
0.0
 10
175.3856745325327
 20
83.48963328381326
 30
0.0
 10
175.3856745325327
 20
83.76577565866007
 30
0.0
 10
175.6095321575614
 20
83.98963328368846
 30
0.0
 10
175.8856745324073
 20
83.98963328368846
 30
0.0
 10
175.8856745324073
 20
83.98963328368846
 30
0.0
 10
188.8856745291575
 20
83.98963328368846
 30
0.0
 10
188.8856745291575
 20
83.98963328368846
 30
0.0
 10
189.161816904004
 20
83.98963328368846
 30
0.0
 10
189.3856745290331
 20
83.76577565866007
 30
0.0
 10
189.3856745290331
 20
83.48963328381326
 30
0.0
 10
189.3856745290331
 20
83.48963328381326
 30
0.0
 10
189.3856745290331
 20
70.48963328706332
 30
0.0
 10
189.3856745290331
 20
70.48963328706332
 30
0.0
 10
189.3856745290331
 20
70.21349091221683
 30
0.0
 10
189.161816904004
 20
69.9896332871878
 30
0.0
 10
188.8856745291575
 20
69.9896332871878
 30
0.0
  0
SPLINE
  5
8F
330
70
100
AcDbEntity
  8
0
 62
    18
420
        0
370
    25
100
AcDbSpline
210
0.0
220
0.0
230
1.0
 70
     9
 71
     3
 72
    29
 73
    25
 74
     0
 42
0.0000000001
 43
0.0000000001
 40
0.0
 40
0.0
 40
0.0
 40
0.0
 40
1.0
 40
1.0
 40
1.0
 40
2.0
 40
2.0
 40
2.0
 40
3.0
 40
3.0
 40
3.0
 40
4.0
 40
4.0
 40
4.0
 40
5.0
 40
5.0
 40
5.0
 40
6.0
 40
6.0
 40
6.0
 40
7.0
 40
7.0
 40
7.0
 40
8.0
 40
8.0
 40
8.0
 40
8.0
 10
207.9356745291577
 20
69.9896332871878
 30
0.0
 10
207.9356745291577
 20
69.9896332871878
 30
0.0
 10
194.9356745324072
 20
69.9896332871878
 30
0.0
 10
194.9356745324072
 20
69.9896332871878
 30
0.0
 10
194.6595321575613
 20
69.9896332871878
 30
0.0
 10
194.4356745325326
 20
70.21349091221683
 30
0.0
 10
194.4356745325326
 20
70.48963328706332
 30
0.0
 10
194.4356745325326
 20
70.48963328706332
 30
0.0
 10
194.4356745325326
 20
83.48963328381326
 30
0.0
 10
194.4356745325326
 20
83.48963328381326
 30
0.0
 10
194.4356745325326
 20
83.76577565866007
 30
0.0
 10
194.6595321575613
 20
83.98963328368846
 30
0.0
 10
194.9356745324072
 20
83.98963328368846
 30
0.0
 10
194.9356745324072
 20
83.98963328368846
 30
0.0
 10
207.9356745291577
 20
83.98963328368846
 30
0.0
 10
207.9356745291577
 20
83.98963328368846
 30
0.0
 10
208.2118169040039
 20
83.98963328368846
 30
0.0
 10
208.4356745290323
 20
83.76577565866007
 30
0.0
 10
208.4356745290323
 20
83.48963328381326
 30
0.0
 10
208.4356745290323
 20
83.48963328381326
 30
0.0
 10
208.4356745290323
 20
70.48963328706332
 30
0.0
 10
208.4356745290323
 20
70.48963328706332
 30
0.0
 10
208.4356745290323
 20
70.21349091221683
 30
0.0
 10
208.2118169040039
 20
69.9896332871878
 30
0.0
 10
207.9356745291577
 20
69.9896332871878
 30
0.0
  0
SPLINE
  5
90
330
70
100
AcDbEntity
  8
0
 62
    18
420
        0
370
    25
100
AcDbSpline
210
0.0
220
0.0
230
1.0
 70
     9
 71
     3
 72
    29
 73
    25
 74
     0
 42
0.0000000001
 43
0.0000000001
 40
0.0
 40
0.0
 40
0.0
 40
0.0
 40
1.0
 40
1.0
 40
1.0
 40
2.0
 40
2.0
 40
2.0
 40
3.0
 40
3.0
 40
3.0
 40
4.0
 40
4.0
 40
4.0
 40
5.0
 40
5.0
 40
5.0
 40
6.0
 40
6.0
 40
6.0
 40
7.0
 40
7.0
 40
7.0
 40
8.0
 40
8.0
 40
8.0
 40
8.0
 10
226.985674529157
 20
69.9896332871878
 30
0.0
 10
226.985674529157
 20
69.9896332871878
 30
0.0
 10
213.9856745324073
 20
69.9896332871878
 30
0.0
 10
213.9856745324073
 20
69.9896332871878
 30
0.0
 10
213.7095321575615
 20
69.9896332871878
 30
0.0
 10
213.4856745325328
 20
70.21349091221683
 30
0.0
 10
213.4856745325328
 20
70.48963328706332
 30
0.0
 10
213.4856745325328
 20
70.48963328706332
 30
0.0
 10
213.4856745325328
 20
83.48963328381326
 30
0.0
 10
213.4856745325328
 20
83.48963328381326
 30
0.0
 10
213.4856745325328
 20
83.76577565866007
 30
0.0
 10
213.7095321575615
 20
83.98963328368846
 30
0.0
 10
213.9856745324073
 20
83.98963328368846
 30
0.0
 10
213.9856745324073
 20
83.98963328368846
 30
0.0
 10
226.985674529157
 20
83.98963328368846
 30
0.0
 10
226.985674529157
 20
83.98963328368846
 30
0.0
 10
227.2618169040041
 20
83.98963328368846
 30
0.0
 10
227.4856745290328
 20
83.76577565866007
 30
0.0
 10
227.4856745290328
 20
83.48963328381326
 30
0.0
 10
227.4856745290328
 20
83.48963328381326
 30
0.0
 10
227.4856745290328
 20
70.48963328706332
 30
0.0
 10
227.4856745290328
 20
70.48963328706332
 30
0.0
 10
227.4856745290328
 20
70.21349091221683
 30
0.0
 10
227.2618169040041
 20
69.9896332871878
 30
0.0
 10
226.985674529157
 20
69.9896332871878
 30
0.0
  0
SPLINE
  5
91
330
70
100
AcDbEntity
  8
0
 62
    18
420
        0
370
    25
100
AcDbSpline
210
0.0
220
0.0
230
1.0
 70
     9
 71
     3
 72
    29
 73
    25
 74
     0
 42
0.0000000001
 43
0.0000000001
 40
0.0
 40
0.0
 40
0.0
 40
0.0
 40
1.0
 40
1.0
 40
1.0
 40
2.0
 40
2.0
 40
2.0
 40
3.0
 40
3.0
 40
3.0
 40
4.0
 40
4.0
 40
4.0
 40
5.0
 40
5.0
 40
5.0
 40
6.0
 40
6.0
 40
6.0
 40
7.0
 40
7.0
 40
7.0
 40
8.0
 40
8.0
 40
8.0
 40
8.0
 10
246.0356745291572
 20
69.9896332871878
 30
0.0
 10
246.0356745291572
 20
69.9896332871878
 30
0.0
 10
233.0356745324069
 20
69.9896332871878
 30
0.0
 10
233.0356745324069
 20
69.9896332871878
 30
0.0
 10
232.7595321575611
 20
69.9896332871878
 30
0.0
 10
232.5356745325323
 20
70.21349091221683
 30
0.0
 10
232.5356745325323
 20
70.48963328706332
 30
0.0
 10
232.5356745325323
 20
70.48963328706332
 30
0.0
 10
232.5356745325323
 20
83.48963328381326
 30
0.0
 10
232.5356745325323
 20
83.48963328381326
 30
0.0
 10
232.5356745325323
 20
83.76577565866007
 30
0.0
 10
232.7595321575611
 20
83.98963328368846
 30
0.0
 10
233.0356745324069
 20
83.98963328368846
 30
0.0
 10
233.0356745324069
 20
83.98963328368846
 30
0.0
 10
246.0356745291572
 20
83.98963328368846
 30
0.0
 10
246.0356745291572
 20
83.98963328368846
 30
0.0
 10
246.3118169040043
 20
83.98963328368846
 30
0.0
 10
246.535674529033
 20
83.76577565866007
 30
0.0
 10
246.535674529033
 20
83.48963328381326
 30
0.0
 10
246.535674529033
 20
83.48963328381326
 30
0.0
 10
246.535674529033
 20
70.48963328706332
 30
0.0
 10
246.535674529033
 20
70.48963328706332
 30
0.0
 10
246.535674529033
 20
70.21349091221683
 30
0.0
 10
246.3118169040043
 20
69.9896332871878
 30
0.0
 10
246.0356745291572
 20
69.9896332871878
 30
0.0
  0
SPLINE
  5
92
330
70
100
AcDbEntity
  8
0
 62
    18
420
        0
370
    25
100
AcDbSpline
210
0.0
220
0.0
230
1.0
 70
     9
 71
     3
 72
    29
 73
    25
 74
     0
 42
0.0000000001
 43
0.0000000001
 40
0.0
 40
0.0
 40
0.0
 40
0.0
 40
1.0
 40
1.0
 40
1.0
 40
2.0
 40
2.0
 40
2.0
 40
3.0
 40
3.0
 40
3.0
 40
4.0
 40
4.0
 40
4.0
 40
5.0
 40
5.0
 40
5.0
 40
6.0
 40
6.0
 40
6.0
 40
7.0
 40
7.0
 40
7.0
 40
8.0
 40
8.0
 40
8.0
 40
8.0
 10
265.0856745291573
 20
69.9896332871878
 30
0.0
 10
265.0856745291573
 20
69.9896332871878
 30
0.0
 10
252.0856745324071
 20
69.9896332871878
 30
0.0
 10
252.0856745324071
 20
69.9896332871878
 30
0.0
 10
251.8095321575612
 20
69.9896332871878
 30
0.0
 10
251.5856745325325
 20
70.21349091221683
 30
0.0
 10
251.5856745325325
 20
70.48963328706332
 30
0.0
 10
251.5856745325325
 20
70.48963328706332
 30
0.0
 10
251.5856745325325
 20
83.48963328381326
 30
0.0
 10
251.5856745325325
 20
83.48963328381326
 30
0.0
 10
251.5856745325325
 20
83.76577565866007
 30
0.0
 10
251.8095321575612
 20
83.98963328368846
 30
0.0
 10
252.0856745324071
 20
83.98963328368846
 30
0.0
 10
252.0856745324071
 20
83.98963328368846
 30
0.0
 10
265.0856745291573
 20
83.98963328368846
 30
0.0
 10
265.0856745291573
 20
83.98963328368846
 30
0.0
 10
265.3618169040045
 20
83.98963328368846
 30
0.0
 10
265.5856745290332
 20
83.76577565866007
 30
0.0
 10
265.5856745290332
 20
83.48963328381326
 30
0.0
 10
265.5856745290332
 20
83.48963328381326
 30
0.0
 10
265.5856745290332
 20
70.48963328706332
 30
0.0
 10
265.5856745290332
 20
70.48963328706332
 30
0.0
 10
265.5856745290332
 20
70.21349091221683
 30
0.0
 10
265.3618169040045
 20
69.9896332871878
 30
0.0
 10
265.0856745291573
 20
69.9896332871878
 30
0.0
  0
SPLINE
  5
93
330
70
100
AcDbEntity
  8
0
 62
    18
420
        0
370
    25
100
AcDbSpline
210
0.0
220
0.0
230
1.0
 70
     9
 71
     3
 72
    29
 73
    25
 74
     0
 42
0.0000000001
 43
0.0000000001
 40
0.0
 40
0.0
 40
0.0
 40
0.0
 40
1.0
 40
1.0
 40
1.0
 40
2.0
 40
2.0
 40
2.0
 40
3.0
 40
3.0
 40
3.0
 40
4.0
 40
4.0
 40
4.0
 40
5.0
 40
5.0
 40
5.0
 40
6.0
 40
6.0
 40
6.0
 40
7.0
 40
7.0
 40
7.0
 40
8.0
 40
8.0
 40
8.0
 40
8.0
 10
284.1356745291569
 20
69.9896332871878
 30
0.0
 10
284.1356745291569
 20
69.9896332871878
 30
0.0
 10
271.1356745324067
 20
69.9896332871878
 30
0.0
 10
271.1356745324067
 20
69.9896332871878
 30
0.0
 10
270.8595321575608
 20
69.9896332871878
 30
0.0
 10
270.6356745325321
 20
70.21349091221683
 30
0.0
 10
270.6356745325321
 20
70.48963328706332
 30
0.0
 10
270.6356745325321
 20
70.48963328706332
 30
0.0
 10
270.6356745325321
 20
83.48963328381326
 30
0.0
 10
270.6356745325321
 20
83.48963328381326
 30
0.0
 10
270.6356745325321
 20
83.76577565866007
 30
0.0
 10
270.8595321575608
 20
83.98963328368846
 30
0.0
 10
271.1356745324067
 20
83.98963328368846
 30
0.0
 10
271.1356745324067
 20
83.98963328368846
 30
0.0
 10
284.1356745291569
 20
83.98963328368846
 30
0.0
 10
284.1356745291569
 20
83.98963328368846
 30
0.0
 10
284.411816904004
 20
83.98963328368846
 30
0.0
 10
284.6356745290328
 20
83.76577565866007
 30
0.0
 10
284.6356745290328
 20
83.48963328381326
 30
0.0
 10
284.6356745290328
 20
83.48963328381326
 30
0.0
 10
284.6356745290328
 20
70.48963328706332
 30
0.0
 10
284.6356745290328
 20
70.48963328706332
 30
0.0
 10
284.6356745290328
 20
70.21349091221683
 30
0.0
 10
284.411816904004
 20
69.9896332871878
 30
0.0
 10
284.1356745291569
 20
69.9896332871878
 30
0.0
  0
SPLINE
  5
94
330
70
100
AcDbEntity
  8
0
 62
    18
420
        0
370
    25
100
AcDbSpline
210
0.0
220
0.0
230
1.0
 70
     9
 71
     3
 72
    29
 73
    25
 74
     0
 42
0.0000000001
 43
0.0000000001
 40
0.0
 40
0.0
 40
0.0
 40
0.0
 40
1.0
 40
1.0
 40
1.0
 40
2.0
 40
2.0
 40
2.0
 40
3.0
 40
3.0
 40
3.0
 40
4.0
 40
4.0
 40
4.0
 40
5.0
 40
5.0
 40
5.0
 40
6.0
 40
6.0
 40
6.0
 40
7.0
 40
7.0
 40
7.0
 40
8.0
 40
8.0
 40
8.0
 40
8.0
 10
160.3104999432533
 20
50.85563329197158
 30
0.0
 10
160.3104999432533
 20
50.85563329197158
 30
0.0
 10
147.3104999465031
 20
50.85563329197158
 30
0.0
 10
147.3104999465031
 20
50.85563329197158
 30
0.0
 10
147.0343575716572
 20
50.85563329197158
 30
0.0
 10
146.8104999466286
 20
51.0794909170003
 30
0.0
 10
146.8104999466286
 20
51.35563329184744
 30
0.0
 10
146.8104999466286
 20
51.35563329184744
 30
0.0
 10
146.8104999466286
 20
64.35563328859768
 30
0.0
 10
146.8104999466286
 20
64.35563328859768
 30
0.0
 10
146.8104999466286
 20
64.63177566344355
 30
0.0
 10
147.0343575716572
 20
64.85563328847226
 30
0.0
 10
147.3104999465031
 20
64.85563328847226
 30
0.0
 10
147.3104999465031
 20
64.85563328847226
 30
0.0
 10
160.3104999432533
 20
64.85563328847226
 30
0.0
 10
160.3104999432533
 20
64.85563328847226
 30
0.0
 10
160.5866423181002
 20
64.85563328847226
 30
0.0
 10
160.8104999431285
 20
64.63177566344355
 30
0.0
 10
160.8104999431285
 20
64.35563328859768
 30
0.0
 10
160.8104999431285
 20
64.35563328859768
 30
0.0
 10
160.8104999431285
 20
51.35563329184744
 30
0.0
 10
160.8104999431285
 20
51.35563329184744
 30
0.0
 10
160.8104999431285
 20
51.0794909170003
 30
0.0
 10
160.5866423181002
 20
50.85563329197158
 30
0.0
 10
160.3104999432533
 20
50.85563329197158
 30
0.0
  0
SPLINE
  5
95
330
70
100
AcDbEntity
  8
0
 62
    18
420
        0
370
    25
100
AcDbSpline
210
0.0
220
0.0
230
1.0
 70
     9
 71
     3
 72
    29
 73
    25
 74
     0
 42
0.0000000001
 43
0.0000000001
 40
0.0
 40
0.0
 40
0.0
 40
0.0
 40
1.0
 40
1.0
 40
1.0
 40
2.0
 40
2.0
 40
2.0
 40
3.0
 40
3.0
 40
3.0
 40
4.0
 40
4.0
 40
4.0
 40
5.0
 40
5.0
 40
5.0
 40
6.0
 40
6.0
 40
6.0
 40
7.0
 40
7.0
 40
7.0
 40
8.0
 40
8.0
 40
8.0
 40
8.0
 10
179.3604999432535
 20
50.85563329197158
 30
0.0
 10
179.3604999432535
 20
50.85563329197158
 30
0.0
 10
166.3604999465033
 20
50.85563329197158
 30
0.0
 10
166.3604999465033
 20
50.85563329197158
 30
0.0
 10
166.0843575716578
 20
50.85563329197158
 30
0.0
 10
165.8604999466287
 20
51.0794909170003
 30
0.0
 10
165.8604999466287
 20
51.35563329184679
 30
0.0
 10
165.8604999466287
 20
51.35563329184679
 30
0.0
 10
165.8604999466287
 20
64.35563328859704
 30
0.0
 10
165.8604999466287
 20
64.35563328859704
 30
0.0
 10
165.8604999466287
 20
64.63177566344355
 30
0.0
 10
166.0843575716578
 20
64.85563328847226
 30
0.0
 10
166.3604999465033
 20
64.85563328847226
 30
0.0
 10
166.3604999465033
 20
64.85563328847226
 30
0.0
 10
179.3604999432535
 20
64.85563328847226
 30
0.0
 10
179.3604999432535
 20
64.85563328847226
 30
0.0
 10
179.6366423181
 20
64.85563328847226
 30
0.0
 10
179.8604999431288
 20
64.63177566344355
 30
0.0
 10
179.8604999431288
 20
64.35563328859704
 30
0.0
 10
179.8604999431288
 20
64.35563328859704
 30
0.0
 10
179.8604999431288
 20
51.35563329184679
 30
0.0
 10
179.8604999431288
 20
51.35563329184679
 30
0.0
 10
179.8604999431288
 20
51.0794909170003
 30
0.0
 10
179.6366423181
 20
50.85563329197158
 30
0.0
 10
179.3604999432535
 20
50.85563329197158
 30
0.0
  0
SPLINE
  5
96
330
70
100
AcDbEntity
  8
0
 62
    18
420
        0
370
    25
100
AcDbSpline
210
0.0
220
0.0
230
1.0
 70
     9
 71
     3
 72
    29
 73
    25
 74
     0
 42
0.0000000001
 43
0.0000000001
 40
0.0
 40
0.0
 40
0.0
 40
0.0
 40
1.0
 40
1.0
 40
1.0
 40
2.0
 40
2.0
 40
2.0
 40
3.0
 40
3.0
 40
3.0
 40
4.0
 40
4.0
 40
4.0
 40
5.0
 40
5.0
 40
5.0
 40
6.0
 40
6.0
 40
6.0
 40
7.0
 40
7.0
 40
7.0
 40
8.0
 40
8.0
 40
8.0
 40
8.0
 10
198.4104999432534
 20
50.85563329197158
 30
0.0
 10
198.4104999432534
 20
50.85563329197158
 30
0.0
 10
185.4104999465035
 20
50.85563329197158
 30
0.0
 10
185.4104999465035
 20
50.85563329197158
 30
0.0
 10
185.1343575716573
 20
50.85563329197158
 30
0.0
 10
184.9104999466286
 20
51.0794909170003
 30
0.0
 10
184.9104999466286
 20
51.35563329184679
 30
0.0
 10
184.9104999466286
 20
51.35563329184679
 30
0.0
 10
184.9104999466286
 20
64.35563328859704
 30
0.0
 10
184.9104999466286
 20
64.35563328859704
 30
0.0
 10
184.9104999466286
 20
64.63177566344355
 30
0.0
 10
185.1343575716573
 20
64.85563328847226
 30
0.0
 10
185.4104999465035
 20
64.85563328847226
 30
0.0
 10
185.4104999465035
 20
64.85563328847226
 30
0.0
 10
198.4104999432534
 20
64.85563328847226
 30
0.0
 10
198.4104999432534
 20
64.85563328847226
 30
0.0
 10
198.6866423180999
 20
64.85563328847226
 30
0.0
 10
198.9104999431286
 20
64.63177566344355
 30
0.0
 10
198.9104999431286
 20
64.35563328859704
 30
0.0
 10
198.9104999431286
 20
64.35563328859704
 30
0.0
 10
198.9104999431286
 20
51.35563329184679
 30
0.0
 10
198.9104999431286
 20
51.35563329184679
 30
0.0
 10
198.9104999431286
 20
51.0794909170003
 30
0.0
 10
198.6866423180999
 20
50.85563329197158
 30
0.0
 10
198.4104999432534
 20
50.85563329197158
 30
0.0
  0
SPLINE
  5
97
330
70
100
AcDbEntity
  8
0
 62
    18
420
        0
370
    25
100
AcDbSpline
210
0.0
220
0.0
230
1.0
 70
     9
 71
     3
 72
    29
 73
    25
 74
     0
 42
0.0000000001
 43
0.0000000001
 40
0.0
 40
0.0
 40
0.0
 40
0.0
 40
1.0
 40
1.0
 40
1.0
 40
2.0
 40
2.0
 40
2.0
 40
3.0
 40
3.0
 40
3.0
 40
4.0
 40
4.0
 40
4.0
 40
5.0
 40
5.0
 40
5.0
 40
6.0
 40
6.0
 40
6.0
 40
7.0
 40
7.0
 40
7.0
 40
8.0
 40
8.0
 40
8.0
 40
8.0
 10
217.4604999432542
 20
50.85563329197158
 30
0.0
 10
217.4604999432542
 20
50.85563329197158
 30
0.0
 10
204.4604999465031
 20
50.85563329197158
 30
0.0
 10
204.4604999465031
 20
50.85563329197158
 30
0.0
 10
204.1843575716572
 20
50.85563329197158
 30
0.0
 10
203.9604999466285
 20
51.0794909170003
 30
0.0
 10
203.9604999466285
 20
51.35563329184679
 30
0.0
 10
203.9604999466285
 20
51.35563329184679
 30
0.0
 10
203.9604999466285
 20
64.35563328859704
 30
0.0
 10
203.9604999466285
 20
64.35563328859704
 30
0.0
 10
203.9604999466285
 20
64.63177566344355
 30
0.0
 10
204.1843575716572
 20
64.85563328847226
 30
0.0
 10
204.4604999465031
 20
64.85563328847226
 30
0.0
 10
204.4604999465031
 20
64.85563328847226
 30
0.0
 10
217.4604999432542
 20
64.85563328847226
 30
0.0
 10
217.4604999432542
 20
64.85563328847226
 30
0.0
 10
217.7366423181001
 20
64.85563328847226
 30
0.0
 10
217.9604999431288
 20
64.63177566344355
 30
0.0
 10
217.9604999431288
 20
64.35563328859704
 30
0.0
 10
217.9604999431288
 20
64.35563328859704
 30
0.0
 10
217.9604999431288
 20
51.35563329184679
 30
0.0
 10
217.9604999431288
 20
51.35563329184679
 30
0.0
 10
217.9604999431288
 20
51.0794909170003
 30
0.0
 10
217.7366423181001
 20
50.85563329197158
 30
0.0
 10
217.4604999432542
 20
50.85563329197158
 30
0.0
  0
SPLINE
  5
98
330
70
100
AcDbEntity
  8
0
 62
    18
420
        0
370
    25
100
AcDbSpline
210
0.0
220
0.0
230
1.0
 70
     9
 71
     3
 72
    29
 73
    25
 74
     0
 42
0.0000000001
 43
0.0000000001
 40
0.0
 40
0.0
 40
0.0
 40
0.0
 40
1.0
 40
1.0
 40
1.0
 40
2.0
 40
2.0
 40
2.0
 40
3.0
 40
3.0
 40
3.0
 40
4.0
 40
4.0
 40
4.0
 40
5.0
 40
5.0
 40
5.0
 40
6.0
 40
6.0
 40
6.0
 40
7.0
 40
7.0
 40
7.0
 40
8.0
 40
8.0
 40
8.0
 40
8.0
 10
236.5104999432532
 20
50.85563329197158
 30
0.0
 10
236.5104999432532
 20
50.85563329197158
 30
0.0
 10
223.5104999465036
 20
50.85563329197158
 30
0.0
 10
223.5104999465036
 20
50.85563329197158
 30
0.0
 10
223.2343575716577
 20
50.85563329197158
 30
0.0
 10
223.010499946629
 20
51.0794909170003
 30
0.0
 10
223.010499946629
 20
51.35563329184679
 30
0.0
 10
223.010499946629
 20
51.35563329184679
 30
0.0
 10
223.010499946629
 20
64.35563328859704
 30
0.0
 10
223.010499946629
 20
64.35563328859704
 30
0.0
 10
223.010499946629
 20
64.63177566344355
 30
0.0
 10
223.2343575716577
 20
64.85563328847226
 30
0.0
 10
223.5104999465036
 20
64.85563328847226
 30
0.0
 10
223.5104999465036
 20
64.85563328847226
 30
0.0
 10
236.5104999432532
 20
64.85563328847226
 30
0.0
 10
236.5104999432532
 20
64.85563328847226
 30
0.0
 10
236.7866423181003
 20
64.85563328847226
 30
0.0
 10
237.010499943129
 20
64.63177566344355
 30
0.0
 10
237.010499943129
 20
64.35563328859704
 30
0.0
 10
237.010499943129
 20
64.35563328859704
 30
0.0
 10
237.010499943129
 20
51.35563329184679
 30
0.0
 10
237.010499943129
 20
51.35563329184679
 30
0.0
 10
237.010499943129
 20
51.0794909170003
 30
0.0
 10
236.7866423181003
 20
50.85563329197158
 30
0.0
 10
236.5104999432532
 20
50.85563329197158
 30
0.0
  0
SPLINE
  5
99
330
70
100
AcDbEntity
  8
0
 62
    18
420
        0
370
    25
100
AcDbSpline
210
0.0
220
0.0
230
1.0
 70
     9
 71
     3
 72
    29
 73
    25
 74
     0
 42
0.0000000001
 43
0.0000000001
 40
0.0
 40
0.0
 40
0.0
 40
0.0
 40
1.0
 40
1.0
 40
1.0
 40
2.0
 40
2.0
 40
2.0
 40
3.0
 40
3.0
 40
3.0
 40
4.0
 40
4.0
 40
4.0
 40
5.0
 40
5.0
 40
5.0
 40
6.0
 40
6.0
 40
6.0
 40
7.0
 40
7.0
 40
7.0
 40
8.0
 40
8.0
 40
8.0
 40
8.0
 10
255.5604999432534
 20
50.85563329197158
 30
0.0
 10
255.5604999432534
 20
50.85563329197158
 30
0.0
 10
242.5604999465031
 20
50.85563329197158
 30
0.0
 10
242.5604999465031
 20
50.85563329197158
 30
0.0
 10
242.2843575716573
 20
50.85563329197158
 30
0.0
 10
242.0604999466286
 20
51.0794909170003
 30
0.0
 10
242.0604999466286
 20
51.35563329184679
 30
0.0
 10
242.0604999466286
 20
51.35563329184679
 30
0.0
 10
242.0604999466286
 20
64.35563328859704
 30
0.0
 10
242.0604999466286
 20
64.35563328859704
 30
0.0
 10
242.0604999466286
 20
64.63177566344355
 30
0.0
 10
242.2843575716573
 20
64.85563328847226
 30
0.0
 10
242.5604999465031
 20
64.85563328847226
 30
0.0
 10
242.5604999465031
 20
64.85563328847226
 30
0.0
 10
255.5604999432534
 20
64.85563328847226
 30
0.0
 10
255.5604999432534
 20
64.85563328847226
 30
0.0
 10
255.8366423181005
 20
64.85563328847226
 30
0.0
 10
256.0604999431292
 20
64.63177566344355
 30
0.0
 10
256.0604999431292
 20
64.35563328859704
 30
0.0
 10
256.0604999431292
 20
64.35563328859704
 30
0.0
 10
256.0604999431292
 20
51.35563329184679
 30
0.0
 10
256.0604999431292
 20
51.35563329184679
 30
0.0
 10
256.0604999431292
 20
51.0794909170003
 30
0.0
 10
255.8366423181005
 20
50.85563329197158
 30
0.0
 10
255.5604999432534
 20
50.85563329197158
 30
0.0
  0
SPLINE
  5
9A
330
70
100
AcDbEntity
  8
0
 62
    18
420
        0
370
    25
100
AcDbSpline
210
0.0
220
0.0
230
1.0
 70
     9
 71
     3
 72
    29
 73
    25
 74
     0
 42
0.0000000001
 43
0.0000000001
 40
0.0
 40
0.0
 40
0.0
 40
0.0
 40
1.0
 40
1.0
 40
1.0
 40
2.0
 40
2.0
 40
2.0
 40
3.0
 40
3.0
 40
3.0
 40
4.0
 40
4.0
 40
4.0
 40
5.0
 40
5.0
 40
5.0
 40
6.0
 40
6.0
 40
6.0
 40
7.0
 40
7.0
 40
7.0
 40
8.0
 40
8.0
 40
8.0
 40
8.0
 10
274.6104999432536
 20
50.85563329197158
 30
0.0
 10
274.6104999432536
 20
50.85563329197158
 30
0.0
 10
261.6104999465033
 20
50.85563329197158
 30
0.0
 10
261.6104999465033
 20
50.85563329197158
 30
0.0
 10
261.3343575716574
 20
50.85563329197158
 30
0.0
 10
261.1104999466288
 20
51.0794909170003
 30
0.0
 10
261.1104999466288
 20
51.35563329184679
 30
0.0
 10
261.1104999466288
 20
51.35563329184679
 30
0.0
 10
261.1104999466288
 20
64.35563328859704
 30
0.0
 10
261.1104999466288
 20
64.35563328859704
 30
0.0
 10
261.1104999466288
 20
64.63177566344355
 30
0.0
 10
261.3343575716574
 20
64.85563328847226
 30
0.0
 10
261.6104999465033
 20
64.85563328847226
 30
0.0
 10
261.6104999465033
 20
64.85563328847226
 30
0.0
 10
274.6104999432536
 20
64.85563328847226
 30
0.0
 10
274.6104999432536
 20
64.85563328847226
 30
0.0
 10
274.8866423181007
 20
64.85563328847226
 30
0.0
 10
275.1104999431294
 20
64.63177566344355
 30
0.0
 10
275.1104999431294
 20
64.35563328859704
 30
0.0
 10
275.1104999431294
 20
64.35563328859704
 30
0.0
 10
275.1104999431294
 20
51.35563329184679
 30
0.0
 10
275.1104999431294
 20
51.35563329184679
 30
0.0
 10
275.1104999431294
 20
51.0794909170003
 30
0.0
 10
274.8866423181007
 20
50.85563329197158
 30
0.0
 10
274.6104999432536
 20
50.85563329197158
 30
0.0
  0
SPLINE
  5
9B
330
70
100
AcDbEntity
  8
0
 62
    18
420
        0
370
    25
100
AcDbSpline
210
0.0
220
0.0
230
1.0
 70
     9
 71
     3
 72
    29
 73
    25
 74
     0
 42
0.0000000001
 43
0.0000000001
 40
0.0
 40
0.0
 40
0.0
 40
0.0
 40
1.0
 40
1.0
 40
1.0
 40
2.0
 40
2.0
 40
2.0
 40
3.0
 40
3.0
 40
3.0
 40
4.0
 40
4.0
 40
4.0
 40
5.0
 40
5.0
 40
5.0
 40
6.0
 40
6.0
 40
6.0
 40
7.0
 40
7.0
 40
7.0
 40
8.0
 40
8.0
 40
8.0
 40
8.0
 10
300.8047499247986
 20
50.85563329197158
 30
0.0
 10
300.8047499247986
 20
50.85563329197158
 30
0.0
 10
287.8047499280484
 20
50.85563329197158
 30
0.0
 10
287.8047499280484
 20
50.85563329197158
 30
0.0
 10
287.5286075532025
 20
50.85563329197158
 30
0.0
 10
287.3047499281738
 20
51.0794909170003
 30
0.0
 10
287.3047499281738
 20
51.35563329184679
 30
0.0
 10
287.3047499281738
 20
51.35563329184679
 30
0.0
 10
287.3047499281738
 20
64.35563328859704
 30
0.0
 10
287.3047499281738
 20
64.35563328859704
 30
0.0
 10
287.3047499281738
 20
64.63177566344355
 30
0.0
 10
287.5286075532025
 20
64.85563328847226
 30
0.0
 10
287.8047499280484
 20
64.85563328847226
 30
0.0
 10
287.8047499280484
 20
64.85563328847226
 30
0.0
 10
300.8047499247986
 20
64.85563328847226
 30
0.0
 10
300.8047499247986
 20
64.85563328847226
 30
0.0
 10
301.0808922996457
 20
64.85563328847226
 30
0.0
 10
301.3047499246745
 20
64.63177566344355
 30
0.0
 10
301.3047499246745
 20
64.35563328859704
 30
0.0
 10
301.3047499246745
 20
64.35563328859704
 30
0.0
 10
301.3047499246745
 20
51.35563329184679
 30
0.0
 10
301.3047499246745
 20
51.35563329184679
 30
0.0
 10
301.3047499246745
 20
51.0794909170003
 30
0.0
 10
301.0808922996457
 20
50.85563329197158
 30
0.0
 10
300.8047499247986
 20
50.85563329197158
 30
0.0
  0
SPLINE
  5
9C
330
70
100
AcDbEntity
  8
0
 62
    18
420
        0
370
    25
100
AcDbSpline
210
0.0
220
0.0
230
1.0
 70
     9
 71
     3
 72
    29
 73
    25
 74
     0
 42
0.0000000001
 43
0.0000000001
 40
0.0
 40
0.0
 40
0.0
 40
0.0
 40
1.0
 40
1.0
 40
1.0
 40
2.0
 40
2.0
 40
2.0
 40
3.0
 40
3.0
 40
3.0
 40
4.0
 40
4.0
 40
4.0
 40
5.0
 40
5.0
 40
5.0
 40
6.0
 40
6.0
 40
6.0
 40
7.0
 40
7.0
 40
7.0
 40
8.0
 40
8.0
 40
8.0
 40
8.0
 10
126.9732894532582
 20
31.80563329673409
 30
0.0
 10
126.9732894532582
 20
31.80563329673409
 30
0.0
 10
113.9732894565073
 20
31.80563329673409
 30
0.0
 10
113.9732894565073
 20
31.80563329673409
 30
0.0
 10
113.6971470816617
 20
31.80563329673409
 30
0.0
 10
113.4732894566333
 20
32.0294909217628
 30
0.0
 10
113.4732894566333
 20
32.30563329660994
 30
0.0
 10
113.4732894566333
 20
32.30563329660994
 30
0.0
 10
113.4732894566333
 20
45.30563329336018
 30
0.0
 10
113.4732894566333
 20
45.30563329336018
 30
0.0
 10
113.4732894566333
 20
45.58177566820604
 30
0.0
 10
113.6971470816617
 20
45.80563329323475
 30
0.0
 10
113.9732894565073
 20
45.80563329323475
 30
0.0
 10
113.9732894565073
 20
45.80563329323475
 30
0.0
 10
126.9732894532582
 20
45.80563329323475
 30
0.0
 10
126.9732894532582
 20
45.80563329323475
 30
0.0
 10
127.2494318281043
 20
45.80563329323475
 30
0.0
 10
127.473289453133
 20
45.58177566820604
 30
0.0
 10
127.473289453133
 20
45.30563329336018
 30
0.0
 10
127.473289453133
 20
45.30563329336018
 30
0.0
 10
127.473289453133
 20
32.30563329660994
 30
0.0
 10
127.473289453133
 20
32.30563329660994
 30
0.0
 10
127.473289453133
 20
32.0294909217628
 30
0.0
 10
127.2494318281043
 20
31.80563329673409
 30
0.0
 10
126.9732894532582
 20
31.80563329673409
 30
0.0
  0
SPLINE
  5
9D
330
70
100
AcDbEntity
  8
0
 62
    18
420
        0
370
    25
100
AcDbSpline
210
0.0
220
0.0
230
1.0
 70
     9
 71
     3
 72
    29
 73
    25
 74
     0
 42
0.0000000001
 43
0.0000000001
 40
0.0
 40
0.0
 40
0.0
 40
0.0
 40
1.0
 40
1.0
 40
1.0
 40
2.0
 40
2.0
 40
2.0
 40
3.0
 40
3.0
 40
3.0
 40
4.0
 40
4.0
 40
4.0
 40
5.0
 40
5.0
 40
5.0
 40
6.0
 40
6.0
 40
6.0
 40
7.0
 40
7.0
 40
7.0
 40
8.0
 40
8.0
 40
8.0
 40
8.0
 10
146.0232894532583
 20
31.80563329673409
 30
0.0
 10
146.0232894532583
 20
31.80563329673409
 30
0.0
 10
133.0232894565074
 20
31.80563329673409
 30
0.0
 10
133.0232894565074
 20
31.80563329673409
 30
0.0
 10
132.7471470816619
 20
31.80563329673409
 30
0.0
 10
132.5232894566335
 20
32.0294909217628
 30
0.0
 10
132.5232894566335
 20
32.3056332966093
 30
0.0
 10
132.5232894566335
 20
32.3056332966093
 30
0.0
 10
132.5232894566335
 20
45.30563329335954
 30
0.0
 10
132.5232894566335
 20
45.30563329335954
 30
0.0
 10
132.5232894566335
 20
45.58177566820604
 30
0.0
 10
132.7471470816619
 20
45.80563329323475
 30
0.0
 10
133.0232894565074
 20
45.80563329323475
 30
0.0
 10
133.0232894565074
 20
45.80563329323475
 30
0.0
 10
146.0232894532583
 20
45.80563329323475
 30
0.0
 10
146.0232894532583
 20
45.80563329323475
 30
0.0
 10
146.2994318281045
 20
45.80563329323475
 30
0.0
 10
146.5232894531332
 20
45.58177566820604
 30
0.0
 10
146.5232894531332
 20
45.30563329335954
 30
0.0
 10
146.5232894531332
 20
45.30563329335954
 30
0.0
 10
146.5232894531332
 20
32.3056332966093
 30
0.0
 10
146.5232894531332
 20
32.3056332966093
 30
0.0
 10
146.5232894531332
 20
32.0294909217628
 30
0.0
 10
146.2994318281045
 20
31.80563329673409
 30
0.0
 10
146.0232894532583
 20
31.80563329673409
 30
0.0
  0
SPLINE
  5
9E
330
70
100
AcDbEntity
  8
0
 62
    18
420
        0
370
    25
100
AcDbSpline
210
0.0
220
0.0
230
1.0
 70
     9
 71
     3
 72
    29
 73
    25
 74
     0
 42
0.0000000001
 43
0.0000000001
 40
0.0
 40
0.0
 40
0.0
 40
0.0
 40
1.0
 40
1.0
 40
1.0
 40
2.0
 40
2.0
 40
2.0
 40
3.0
 40
3.0
 40
3.0
 40
4.0
 40
4.0
 40
4.0
 40
5.0
 40
5.0
 40
5.0
 40
6.0
 40
6.0
 40
6.0
 40
7.0
 40
7.0
 40
7.0
 40
8.0
 40
8.0
 40
8.0
 40
8.0
 10
165.0732894532576
 20
31.80563329673409
 30
0.0
 10
165.0732894532576
 20
31.80563329673409
 30
0.0
 10
152.0732894565073
 20
31.80563329673409
 30
0.0
 10
152.0732894565073
 20
31.80563329673409
 30
0.0
 10
151.7971470816615
 20
31.80563329673409
 30
0.0
 10
151.5732894566327
 20
32.0294909217628
 30
0.0
 10
151.5732894566327
 20
32.3056332966093
 30
0.0
 10
151.5732894566327
 20
32.3056332966093
 30
0.0
 10
151.5732894566327
 20
45.30563329335954
 30
0.0
 10
151.5732894566327
 20
45.30563329335954
 30
0.0
 10
151.5732894566327
 20
45.58177566820604
 30
0.0
 10
151.7971470816615
 20
45.80563329323475
 30
0.0
 10
152.0732894565073
 20
45.80563329323475
 30
0.0
 10
152.0732894565073
 20
45.80563329323475
 30
0.0
 10
165.0732894532576
 20
45.80563329323475
 30
0.0
 10
165.0732894532576
 20
45.80563329323475
 30
0.0
 10
165.3494318281047
 20
45.80563329323475
 30
0.0
 10
165.5732894531334
 20
45.58177566820604
 30
0.0
 10
165.5732894531334
 20
45.30563329335954
 30
0.0
 10
165.5732894531334
 20
45.30563329335954
 30
0.0
 10
165.5732894531334
 20
32.3056332966093
 30
0.0
 10
165.5732894531334
 20
32.3056332966093
 30
0.0
 10
165.5732894531334
 20
32.0294909217628
 30
0.0
 10
165.3494318281047
 20
31.80563329673409
 30
0.0
 10
165.0732894532576
 20
31.80563329673409
 30
0.0
  0
SPLINE
  5
9F
330
70
100
AcDbEntity
  8
0
 62
    18
420
        0
370
    25
100
AcDbSpline
210
0.0
220
0.0
230
1.0
 70
     9
 71
     3
 72
    29
 73
    25
 74
     0
 42
0.0000000001
 43
0.0000000001
 40
0.0
 40
0.0
 40
0.0
 40
0.0
 40
1.0
 40
1.0
 40
1.0
 40
2.0
 40
2.0
 40
2.0
 40
3.0
 40
3.0
 40
3.0
 40
4.0
 40
4.0
 40
4.0
 40
5.0
 40
5.0
 40
5.0
 40
6.0
 40
6.0
 40
6.0
 40
7.0
 40
7.0
 40
7.0
 40
8.0
 40
8.0
 40
8.0
 40
8.0
 10
269.848289453257
 20
31.80563329673409
 30
0.0
 10
269.848289453257
 20
31.80563329673409
 30
0.0
 10
256.8482894565068
 20
31.80563329673409
 30
0.0
 10
256.8482894565068
 20
31.80563329673409
 30
0.0
 10
256.572147081661
 20
31.80563329673409
 30
0.0
 10
256.3482894566322
 20
32.0294909217628
 30
0.0
 10
256.3482894566322
 20
32.30563329660994
 30
0.0
 10
256.3482894566322
 20
32.30563329660994
 30
0.0
 10
256.3482894566322
 20
45.30563329336018
 30
0.0
 10
256.3482894566322
 20
45.30563329336018
 30
0.0
 10
256.3482894566322
 20
45.58177566820604
 30
0.0
 10
256.572147081661
 20
45.80563329323475
 30
0.0
 10
256.8482894565068
 20
45.80563329323475
 30
0.0
 10
256.8482894565068
 20
45.80563329323475
 30
0.0
 10
269.848289453257
 20
45.80563329323475
 30
0.0
 10
269.848289453257
 20
45.80563329323475
 30
0.0
 10
270.1244318281042
 20
45.80563329323475
 30
0.0
 10
270.3482894531329
 20
45.58177566820604
 30
0.0
 10
270.3482894531329
 20
45.30563329336018
 30
0.0
 10
270.3482894531329
 20
45.30563329336018
 30
0.0
 10
270.3482894531329
 20
32.30563329660994
 30
0.0
 10
270.3482894531329
 20
32.30563329660994
 30
0.0
 10
270.3482894531329
 20
32.0294909217628
 30
0.0
 10
270.1244318281042
 20
31.80563329673409
 30
0.0
 10
269.848289453257
 20
31.80563329673409
 30
0.0
  0
SPLINE
  5
A0
330
70
100
AcDbEntity
  8
0
 62
    18
420
        0
370
    25
100
AcDbSpline
210
0.0
220
0.0
230
1.0
 70
     9
 71
     3
 72
    29
 73
    25
 74
     0
 42
0.0000000001
 43
0.0000000001
 40
0.0
 40
0.0
 40
0.0
 40
0.0
 40
1.0
 40
1.0
 40
1.0
 40
2.0
 40
2.0
 40
2.0
 40
3.0
 40
3.0
 40
3.0
 40
4.0
 40
4.0
 40
4.0
 40
5.0
 40
5.0
 40
5.0
 40
6.0
 40
6.0
 40
6.0
 40
7.0
 40
7.0
 40
7.0
 40
8.0
 40
8.0
 40
8.0
 40
8.0
 10
288.8982894532572
 20
31.80563329673409
 30
0.0
 10
288.8982894532572
 20
31.80563329673409
 30
0.0
 10
275.898289456507
 20
31.80563329673409
 30
0.0
 10
275.898289456507
 20
31.80563329673409
 30
0.0
 10
275.6221470816611
 20
31.80563329673409
 30
0.0
 10
275.3982894566324
 20
32.0294909217628
 30
0.0
 10
275.3982894566324
 20
32.3056332966093
 30
0.0
 10
275.3982894566324
 20
32.3056332966093
 30
0.0
 10
275.3982894566324
 20
45.30563329335954
 30
0.0
 10
275.3982894566324
 20
45.30563329335954
 30
0.0
 10
275.3982894566324
 20
45.58177566820604
 30
0.0
 10
275.6221470816611
 20
45.80563329323475
 30
0.0
 10
275.898289456507
 20
45.80563329323475
 30
0.0
 10
275.898289456507
 20
45.80563329323475
 30
0.0
 10
288.8982894532572
 20
45.80563329323475
 30
0.0
 10
288.8982894532572
 20
45.80563329323475
 30
0.0
 10
289.1744318281044
 20
45.80563329323475
 30
0.0
 10
289.3982894531331
 20
45.58177566820604
 30
0.0
 10
289.3982894531331
 20
45.30563329335954
 30
0.0
 10
289.3982894531331
 20
45.30563329335954
 30
0.0
 10
289.3982894531331
 20
32.3056332966093
 30
0.0
 10
289.3982894531331
 20
32.3056332966093
 30
0.0
 10
289.3982894531331
 20
32.0294909217628
 30
0.0
 10
289.1744318281044
 20
31.80563329673409
 30
0.0
 10
288.8982894532572
 20
31.80563329673409
 30
0.0
  0
SPLINE
  5
A1
330
70
100
AcDbEntity
  8
0
 62
    18
420
        0
370
    25
100
AcDbSpline
210
0.0
220
0.0
230
1.0
 70
     9
 71
     3
 72
    29
 73
    25
 74
     0
 42
0.0000000001
 43
0.0000000001
 40
0.0
 40
0.0
 40
0.0
 40
0.0
 40
1.0
 40
1.0
 40
1.0
 40
2.0
 40
2.0
 40
2.0
 40
3.0
 40
3.0
 40
3.0
 40
4.0
 40
4.0
 40
4.0
 40
5.0
 40
5.0
 40
5.0
 40
6.0
 40
6.0
 40
6.0
 40
7.0
 40
7.0
 40
7.0
 40
8.0
 40
8.0
 40
8.0
 40
8.0
 10
307.9482894532574
 20
31.80563329673409
 30
0.0
 10
307.9482894532574
 20
31.80563329673409
 30
0.0
 10
294.9482894565072
 20
31.80563329673409
 30
0.0
 10
294.9482894565072
 20
31.80563329673409
 30
0.0
 10
294.6721470816613
 20
31.80563329673409
 30
0.0
 10
294.4482894566326
 20
32.0294909217628
 30
0.0
 10
294.4482894566326
 20
32.3056332966093
 30
0.0
 10
294.4482894566326
 20
32.3056332966093
 30
0.0
 10
294.4482894566326
 20
45.30563329335954
 30
0.0
 10
294.4482894566326
 20
45.30563329335954
 30
0.0
 10
294.4482894566326
 20
45.58177566820604
 30
0.0
 10
294.6721470816613
 20
45.80563329323475
 30
0.0
 10
294.9482894565072
 20
45.80563329323475
 30
0.0
 10
294.9482894565072
 20
45.80563329323475
 30
0.0
 10
307.9482894532574
 20
45.80563329323475
 30
0.0
 10
307.9482894532574
 20
45.80563329323475
 30
0.0
 10
308.2244318281046
 20
45.80563329323475
 30
0.0
 10
308.4482894531333
 20
45.58177566820604
 30
0.0
 10
308.4482894531333
 20
45.30563329335954
 30
0.0
 10
308.4482894531333
 20
45.30563329335954
 30
0.0
 10
308.4482894531333
 20
32.3056332966093
 30
0.0
 10
308.4482894531333
 20
32.3056332966093
 30
0.0
 10
308.4482894531333
 20
32.0294909217628
 30
0.0
 10
308.2244318281046
 20
31.80563329673409
 30
0.0
 10
307.9482894532574
 20
31.80563329673409
 30
0.0
  0
ENDSEC
  0
SECTION
  2
OBJECTS
  0
DICTIONARY
  5
C
330
0
100
AcDbDictionary
281
     1
  3
ACAD_COLOR
350
63
  3
ACAD_DETAILVIEWSTYLE
350
6A
  3
ACAD_GROUP
350
D
  3
ACAD_LAYOUT
350
62
  3
ACAD_MATERIAL
350
10
  3
ACAD_MLEADERSTYLE
350
66
  3
ACAD_MLINESTYLE
350
5F
  3
ACAD_PLOTSETTINGS
350
61
  3
ACAD_PLOTSTYLENAME
350
E
  3
ACAD_SCALELIST
350
42
  3
ACAD_SECTIONVIEWSTYLE
350
68
  3
ACAD_TABLESTYLE
350
64
  3
ACAD_VISUALSTYLE
350
29
  3
ACDB_RECOMPOSE_DATA
350
AA
  3
AcDbVariableDictionary
350
A2
  0
DICTIONARY
  5
63
102
{ACAD_REACTORS
330
C
102
}
330
C
100
AcDbDictionary
281
     1
  0
DICTIONARY
  5
6A
102
{ACAD_REACTORS
330
C
102
}
330
C
100
AcDbDictionary
281
     1
  3
Imperial24
350
6B
  0
DICTIONARY
  5
D
102
{ACAD_REACTORS
330
C
102
}
330
C
100
AcDbDictionary
281
     1
  0
DICTIONARY
  5
62
102
{ACAD_REACTORS
330
C
102
}
330
C
100
AcDbDictionary
281
     1
  3
Layout1
350
6F
  3
Layout2
350
77
  3
Model
350
73
  0
DICTIONARY
  5
10
102
{ACAD_REACTORS
330
C
102
}
330
C
100
AcDbDictionary
281
     1
  3
ByBlock
350
19
  3
ByLayer
350
11
  3
Global
350
21
  0
DICTIONARY
  5
66
102
{ACAD_REACTORS
330
C
102
}
330
C
100
AcDbDictionary
281
     1
  3
Standard
350
67
  0
DICTIONARY
  5
5F
102
{ACAD_REACTORS
330
C
102
}
330
C
100
AcDbDictionary
281
     1
  3
Standard
350
60
  0
DICTIONARY
  5
61
102
{ACAD_REACTORS
330
C
102
}
330
C
100
AcDbDictionary
281
     1
  0
ACDBDICTIONARYWDFLT
  5
E
102
{ACAD_REACTORS
330
C
102
}
330
C
100
AcDbDictionary
281
     1
  3
Normal
350
F
100
AcDbDictionaryWithDefault
340
F
  0
DICTIONARY
  5
42
102
{ACAD_REACTORS
330
C
102
}
330
C
100
AcDbDictionary
281
     1
  3
A0
350
43
  3
A1
350
44
  3
A2
350
45
  3
A3
350
46
  3
A4
350
47
  3
A5
350
48
  3
A6
350
49
  3
A7
350
4A
  3
A8
350
4B
  3
A9
350
4C
  3
B0
350
4D
  3
B1
350
4E
  3
B2
350
4F
  3
B3
350
50
  3
B4
350
51
  3
B5
350
52
  3
B6
350
53
  0
DICTIONARY
  5
68
102
{ACAD_REACTORS
330
C
102
}
330
C
100
AcDbDictionary
281
     1
  3
Imperial24
350
69
  0
DICTIONARY
  5
64
102
{ACAD_REACTORS
330
C
102
}
330
C
100
AcDbDictionary
281
     1
  3
Standard
350
65
  0
DICTIONARY
  5
29
102
{ACAD_REACTORS
330
C
102
}
330
C
100
AcDbDictionary
281
     1
  3
2dWireframe
350
2F
  3
Basic
350
2E
  3
Brighten
350
35
  3
ColorChange
350
39
  3
Conceptual
350
32
  3
Dim
350
34
  3
EdgeColorOff
350
41
  3
Facepattern
350
38
  3
Flat
350
2A
  3
FlatWithEdges
350
2B
  3
Gouraud
350
2C
  3
GouraudWithEdges
350
2D
  3
Hidden
350
31
  3
JitterOff
350
3F
  3
Linepattern
350
37
  3
OverhangOff
350
40
  3
Realistic
350
33
  3
Shaded
350
3E
  3
Shaded with edges
350
3D
  3
Shades of Gray
350
3A
  3
Sketchy
350
3B
  3
Thicken
350
36
  3
Wireframe
350
30
  3
X-Ray
350
3C
  0
XRECORD
  5
AA
102
{ACAD_REACTORS
330
C
102
}
330
C
100
AcDbXrecord
280
     1
 90
        1
330
65
  0
DICTIONARY
  5
A2
102
{ACAD_REACTORS
330
C
102
}
330
C
100
AcDbDictionary
281
     1
  3
CANNOSCALE
350
A7
  3
CMLEADERSTYLE
350
A4
  3
CTABLESTYLE
350
A3
  3
CVIEWDETAILSTYLE
350
A5
  3
CVIEWSECTIONSTYLE
350
A6
  0
ACDBDETAILVIEWSTYLE
  5
6B
102
{ACAD_REACTORS
330
6A
102
}
330
6A
100
AcDbModelDocViewStyle
 70
     0
  3
Imperial24
290
     1
300
Imperial24
 90
        0
100
AcDbDetailViewStyle
 70
     0
 71
     0
 90
        3
 71
     1
340
55
 62
   256
 40
0.24
340
0
 62
   256
 40
0.24
300

 40
0.36
280
     3
 71
     2
340
5D
 90
       25
 62
   256
 71
     3
340
55
 62
   256
 40
0.24
 90
        1
 40
0.75
 90
        1
300
%<\AcVar ViewType \f "%tc1">% %<\AcVar ViewDetailId>%\PSCALE %<\AcVar ViewScale \f "%sn">%
 71
     4
340
5D
 90
       25
 62
   256
340
5D
 90
       25
 62
   256
280
     0
  0
LAYOUT
  5
6F
102
{ACAD_REACTORS
330
62
102
}
330
62
100
AcDbPlotSettings
  1

  2

  4

  6

 40
0.0
 41
0.0
 42
0.0
 43
0.0
 44
0.0
 45
0.0
 46
0.0
 47
0.0
 48
0.0
 49
0.0
140
0.0
141
0.0
142
1.0
143
1.0
 70
   688
 72
     0
 73
     0
 74
     5
  7

 75
    16
147
1.0
 76
     0
 77
     2
 78
   300
148
0.0
149
0.0
100
AcDbLayout
  1
Layout1
 70
     1
 71
     1
 10
0.0
 20
0.0
 11
12.0
 21
9.0
 12
0.0
 22
0.0
 32
0.0
 14
0.0
 24
0.0
 34
0.0
 15
0.0
 25
0.0
 35
0.0
146
0.0
 13
0.0
 23
0.0
 33
0.0
 16
1.0
 26
0.0
 36
0.0
 17
0.0
 27
1.0
 37
0.0
 76
     0
330
6C
  0
LAYOUT
  5
77
102
{ACAD_REACTORS
330
62
102
}
330
62
100
AcDbPlotSettings
  1

  2

  4

  6

 40
0.0
 41
0.0
 42
0.0
 43
0.0
 44
0.0
 45
0.0
 46
0.0
 47
0.0
 48
0.0
 49
0.0
140
0.0
141
0.0
142
1.0
143
1.0
 70
   688
 72
     0
 73
     0
 74
     5
  7

 75
    16
147
1.0
 76
     0
 77
     2
 78
   300
148
0.0
149
0.0
100
AcDbLayout
  1
Layout2
 70
     1
 71
     2
 10
0.0
 20
0.0
 11
12.0
 21
9.0
 12
0.0
 22
0.0
 32
0.0
 14
0.0
 24
0.0
 34
0.0
 15
0.0
 25
0.0
 35
0.0
146
0.0
 13
0.0
 23
0.0
 33
0.0
 16
1.0
 26
0.0
 36
0.0
 17
0.0
 27
1.0
 37
0.0
 76
     0
330
74
  0
LAYOUT
  5
73
102
{ACAD_REACTORS
330
62
102
}
330
62
100
AcDbPlotSettings
  1

  2

  4

  6

 40
0.0
 41
0.0
 42
0.0
 43
0.0
 44
0.0
 45
0.0
 46
0.0
 47
0.0
 48
0.0
 49
0.0
140
0.0
141
0.0
142
1.0
143
1.0
 70
  1712
 72
     0
 73
     0
 74
     0
  7

 75
     0
147
1.0
 76
     0
 77
     2
 78
   300
148
0.0
149
0.0
100
AcDbLayout
  1
Model
 70
     1
 71
     0
 10
0.0
 20
0.0
 11
12.0
 21
9.0
 12
0.0
 22
0.0
 32
0.0
 14
0.0
 24
0.0
 34
0.0
 15
0.0
 25
0.0
 35
0.0
146
0.0
 13
0.0
 23
0.0
 33
0.0
 16
1.0
 26
0.0
 36
0.0
 17
0.0
 27
1.0
 37
0.0
 76
     0
330
70
  0
MATERIAL
  5
19
102
{ACAD_XDICTIONARY
360
1A
102
}
102
{ACAD_REACTORS
330
10
102
}
330
10
100
AcDbMaterial
  1
ByBlock
 72
     0
 43
0.0208333333333333
 43
0.0
 43
0.0
 43
0.0
 43
0.0
 43
0.0208333333333333
 43
0.0
 43
0.0
 43
0.0
 43
0.0
 43
1.0
 43
0.0
 43
0.0
 43
0.0
 43
0.0
 43
1.0
 77
     0
 47
0.0208333333333333
 47
0.0
 47
0.0
 47
0.0
 47
0.0
 47
0.0208333333333333
 47
0.0
 47
0.0
 47
0.0
 47
0.0
 47
1.0
 47
0.0
 47
0.0
 47
0.0
 47
0.0
 47
1.0
171
     0
 49
0.0208333333333333
 49
0.0
 49
0.0
 49
0.0
 49
0.0
 49
0.0208333333333333
 49
0.0
 49
0.0
 49
0.0
 49
0.0
 49
1.0
 49
0.0
 49
0.0
 49
0.0
 49
0.0
 49
1.0
175
     0
142
0.0208333333333333
142
0.0
142
0.0
142
0.0
142
0.0
142
0.0208333333333333
142
0.0
142
0.0
142
0.0
142
0.0
142
1.0
142
0.0
142
0.0
142
0.0
142
0.0
142
1.0
179
     0
144
0.0208333333333333
144
0.0
144
0.0
144
0.0
144
0.0
144
0.0208333333333333
144
0.0
144
0.0
144
0.0
144
0.0
144
1.0
144
0.0
144
0.0
144
0.0
144
0.0
144
1.0
147
0.0208333333333333
147
0.0
147
0.0
147
0.0
147
0.0
147
0.0208333333333333
147
0.0
147
0.0
147
0.0
147
0.0
147
1.0
147
0.0
147
0.0
147
0.0
147
0.0
147
1.0
  0
MATERIAL
  5
11
102
{ACAD_XDICTIONARY
360
12
102
}
102
{ACAD_REACTORS
330
10
102
}
330
10
100
AcDbMaterial
  1
ByLayer
 72
     0
 43
0.0208333333333333
 43
0.0
 43
0.0
 43
0.0
 43
0.0
 43
0.0208333333333333
 43
0.0
 43
0.0
 43
0.0
 43
0.0
 43
1.0
 43
0.0
 43
0.0
 43
0.0
 43
0.0
 43
1.0
 77
     0
 47
0.0208333333333333
 47
0.0
 47
0.0
 47
0.0
 47
0.0
 47
0.0208333333333333
 47
0.0
 47
0.0
 47
0.0
 47
0.0
 47
1.0
 47
0.0
 47
0.0
 47
0.0
 47
0.0
 47
1.0
171
     0
 49
0.0208333333333333
 49
0.0
 49
0.0
 49
0.0
 49
0.0
 49
0.0208333333333333
 49
0.0
 49
0.0
 49
0.0
 49
0.0
 49
1.0
 49
0.0
 49
0.0
 49
0.0
 49
0.0
 49
1.0
175
     0
142
0.0208333333333333
142
0.0
142
0.0
142
0.0
142
0.0
142
0.0208333333333333
142
0.0
142
0.0
142
0.0
142
0.0
142
1.0
142
0.0
142
0.0
142
0.0
142
0.0
142
1.0
179
     0
144
0.0208333333333333
144
0.0
144
0.0
144
0.0
144
0.0
144
0.0208333333333333
144
0.0
144
0.0
144
0.0
144
0.0
144
1.0
144
0.0
144
0.0
144
0.0
144
0.0
144
1.0
147
0.0208333333333333
147
0.0
147
0.0
147
0.0
147
0.0
147
0.0208333333333333
147
0.0
147
0.0
147
0.0
147
0.0
147
1.0
147
0.0
147
0.0
147
0.0
147
0.0
147
1.0
  0
MATERIAL
  5
21
102
{ACAD_XDICTIONARY
360
22
102
}
102
{ACAD_REACTORS
330
10
102
}
330
10
100
AcDbMaterial
  1
Global
 72
     0
 43
0.0208333333333333
 43
0.0
 43
0.0
 43
0.0
 43
0.0
 43
0.0208333333333333
 43
0.0
 43
0.0
 43
0.0
 43
0.0
 43
1.0
 43
0.0
 43
0.0
 43
0.0
 43
0.0
 43
1.0
 77
     0
 47
0.0208333333333333
 47
0.0
 47
0.0
 47
0.0
 47
0.0
 47
0.0208333333333333
 47
0.0
 47
0.0
 47
0.0
 47
0.0
 47
1.0
 47
0.0
 47
0.0
 47
0.0
 47
0.0
 47
1.0
171
     0
 49
0.0208333333333333
 49
0.0
 49
0.0
 49
0.0
 49
0.0
 49
0.0208333333333333
 49
0.0
 49
0.0
 49
0.0
 49
0.0
 49
1.0
 49
0.0
 49
0.0
 49
0.0
 49
0.0
 49
1.0
175
     0
142
0.0208333333333333
142
0.0
142
0.0
142
0.0
142
0.0
142
0.0208333333333333
142
0.0
142
0.0
142
0.0
142
0.0
142
1.0
142
0.0
142
0.0
142
0.0
142
0.0
142
1.0
179
     0
144
0.0208333333333333
144
0.0
144
0.0
144
0.0
144
0.0
144
0.0208333333333333
144
0.0
144
0.0
144
0.0
144
0.0
144
1.0
144
0.0
144
0.0
144
0.0
144
0.0
144
1.0
147
0.0208333333333333
147
0.0
147
0.0
147
0.0
147
0.0
147
0.0208333333333333
147
0.0
147
0.0
147
0.0
147
0.0
147
1.0
147
0.0
147
0.0
147
0.0
147
0.0
147
1.0
  0
MLEADERSTYLE
  5
67
102
{ACAD_REACTORS
330
66
102
}
330
66
100
AcDbMLeaderStyle
179
     2
170
     2
171
     1
172
     0
 90
        2
 40
0.0
 41
0.0
173
     1
 91
-1056964608
340
5B
 92
       -2
290
     1
 42
0.09
291
     1
 43
0.36
  3
Standard
 44
0.18
300

342
55
174
     1
178
     6
175
     1
176
     0
 93
-1056964608
 45
0.18
292
     0
297
     0
 46
0.18
 94
-1056964608
 47
1.0
 49
1.0
140
1.0
293
     1
141
0.0
294
     1
177
     0
142
1.0
295
     1
296
     0
143
0.125
271
     0
272
     9
273
     9
298
     1
  0
MLINESTYLE
  5
60
102
{ACAD_REACTORS
330
5F
102
}
330
5F
100
AcDbMlineStyle
  2
STANDARD
 70
     0
  3

 62
   256
 51
90.0
 52
90.0
 71
     2
 49
0.5
 62
   256
  6
BYLAYER
 49
-0.5
 62
   256
  6
BYLAYER
  0
ACDBPLACEHOLDER
  5
F
102
{ACAD_REACTORS
330
E
102
}
330
E
  0
SCALE
  5
43
102
{ACAD_REACTORS
330
42
102
}
330
42
100
AcDbScale
 70
     0
300
1:1
140
1.0
141
1.0
290
     1
  0
SCALE
  5
44
102
{ACAD_REACTORS
330
42
102
}
330
42
100
AcDbScale
 70
     0
300
1/128" = 1'-0"
140
0.0078125
141
12.0
290
     0
  0
SCALE
  5
45
102
{ACAD_REACTORS
330
42
102
}
330
42
100
AcDbScale
 70
     0
300
1/64" = 1'-0"
140
0.015625
141
12.0
290
     0
  0
SCALE
  5
46
102
{ACAD_REACTORS
330
42
102
}
330
42
100
AcDbScale
 70
     0
300
1/32" = 1'-0"
140
0.03125
141
12.0
290
     0
  0
SCALE
  5
47
102
{ACAD_REACTORS
330
42
102
}
330
42
100
AcDbScale
 70
     0
300
1/16" = 1'-0"
140
0.0625
141
12.0
290
     0
  0
SCALE
  5
48
102
{ACAD_REACTORS
330
42
102
}
330
42
100
AcDbScale
 70
     0
300
3/32" = 1'-0"
140
0.09375
141
12.0
290
     0
  0
SCALE
  5
49
102
{ACAD_REACTORS
330
42
102
}
330
42
100
AcDbScale
 70
     0
300
1/8" = 1'-0"
140
0.125
141
12.0
290
     0
  0
SCALE
  5
4A
102
{ACAD_REACTORS
330
42
102
}
330
42
100
AcDbScale
 70
     0
300
3/16" = 1'-0"
140
0.1875
141
12.0
290
     0
  0
SCALE
  5
4B
102
{ACAD_REACTORS
330
42
102
}
330
42
100
AcDbScale
 70
     0
300
1/4" = 1'-0"
140
0.25
141
12.0
290
     0
  0
SCALE
  5
4C
102
{ACAD_REACTORS
330
42
102
}
330
42
100
AcDbScale
 70
     0
300
3/8" = 1'-0"
140
0.375
141
12.0
290
     0
  0
SCALE
  5
4D
102
{ACAD_REACTORS
330
42
102
}
330
42
100
AcDbScale
 70
     0
300
1/2" = 1'-0"
140
0.5
141
12.0
290
     0
  0
SCALE
  5
4E
102
{ACAD_REACTORS
330
42
102
}
330
42
100
AcDbScale
 70
     0
300
3/4" = 1'-0"
140
0.75
141
12.0
290
     0
  0
SCALE
  5
4F
102
{ACAD_REACTORS
330
42
102
}
330
42
100
AcDbScale
 70
     0
300
1" = 1'-0"
140
1.0
141
12.0
290
     0
  0
SCALE
  5
50
102
{ACAD_REACTORS
330
42
102
}
330
42
100
AcDbScale
 70
     0
300
1-1/2" = 1'-0"
140
1.5
141
12.0
290
     0
  0
SCALE
  5
51
102
{ACAD_REACTORS
330
42
102
}
330
42
100
AcDbScale
 70
     0
300
3" = 1'-0"
140
3.0
141
12.0
290
     0
  0
SCALE
  5
52
102
{ACAD_REACTORS
330
42
102
}
330
42
100
AcDbScale
 70
     0
300
6" = 1'-0"
140
6.0
141
12.0
290
     0
  0
SCALE
  5
53
102
{ACAD_REACTORS
330
42
102
}
330
42
100
AcDbScale
 70
     0
300
1'-0" = 1'-0"
140
12.0
141
12.0
290
     0
  0
ACDBSECTIONVIEWSTYLE
  5
69
102
{ACAD_REACTORS
330
68
102
}
330
68
100
AcDbModelDocViewStyle
 70
     0
  3
Imperial24
290
     1
300
Imperial24
 90
        0
100
AcDbSectionViewStyle
 70
     0
 71
     0
 90
       78
 71
     1
340
55
 62
   256
 40
0.24
340
0
340
0
 62
   256
 40
0.24
300
I, O, Q, S, X, Z
 40
0.48
 90
        3
 40
0.18
 90
        1
 71
     2
340
5D
 90
       25
 62
   256
340
5D
 90
       50
 62
   256
 40
0.24
 40
0.0
 40
0.24
 71
     3
340
55
 62
   256
 40
0.24
 90
        1
 40
0.75
 90
        1
300
%<\AcVar ViewType \f "%tc1">% %<\AcVar ViewSectionStartId>%-%<\AcVar ViewSectionEndId>%\PSCALE %<\AcVar ViewScale \f "%sn">%
 71
     4
 62
   256
 62
   257
300
ANSI31
 40
1.0
 90
        0
290
     0
290
     0
 90
        6
 40
0.0
 40
1.570796326794896
 40
0.2617993877991494
 40
1.308996938995747
 40
-0.2617993877991494
 40
1.832595714594046
  0
TABLESTYLE
  5
65
102
{ACAD_XDICTIONARY
360
A8
102
}
102
{ACAD_REACTORS
330
64
102
}
330
64
100
AcDbTableStyle
280
     0
  3
Standard
 70
     0
 71
     0
 40
0.06
 41
0.06
280
     0
281
     0
  7
Standard
140
0.18
170
     2
 62
     0
 63
     7
283
     0
 90
      512
 91
        0
  1

274
    -2
284
     1
 64
     0
275
    -2
285
     1
 65
     0
276
    -2
286
     1
 66
     0
277
    -2
287
     1
 67
     0
278
    -2
288
     1
 68
     0
279
    -2
289
     1
 69
     0
  7
Standard
140
0.25
170
     5
 62
     0
 63
     7
283
     0
 90
      512
 91
        0
  1

274
    -2
284
     1
 64
     0
275
    -2
285
     1
 65
     0
276
    -2
286
     1
 66
     0
277
    -2
287
     1
 67
     0
278
    -2
288
     1
 68
     0
279
    -2
289
     1
 69
     0
  7
Standard
140
0.18
170
     5
 62
     0
 63
     7
283
     0
 90
      512
 91
        0
  1

274
    -2
284
     1
 64
     0
275
    -2
285
     1
 65
     0
276
    -2
286
     1
 66
     0
277
    -2
287
     1
 67
     0
278
    -2
288
     1
 68
     0
279
    -2
289
     1
 69
     0
  0
VISUALSTYLE
  5
2F
102
{ACAD_REACTORS
330
29
102
}
330
29
100
AcDbVisualStyle
  2
2dWireframe
 70
     4
177
     3
291
     0
 70
    58
 90
        0
176
     1
 90
        2
176
     1
 90
        0
176
     1
 90
        0
176
     1
 40
0.6
176
     1
 40
30.0
176
     1
 62
     7
420
 16777215
176
     1
 90
        1
176
     1
 90
        4
176
     1
 62
     7
176
     1
 62
   257
176
     1
 90
        1
176
     1
 90
        1
176
     1
 40
1.0
176
     1
 90
        0
176
     1
 62
   257
176
     1
 40
1.0
176
     1
 90
        1
176
     1
 90
        6
176
     1
 90
        2
176
     1
 62
     7
176
     1
 90
        5
176
     1
 90
        0
176
     1
 90
        0
176
     1
290
     0
176
     1
 90
        1
176
     1
 40
0.0
176
     1
 90
        0
176
     1
290
     1
176
     1
290
     1
176
     1
290
     0
176
     1
290
     0
176
     1
290
     0
176
     1
290
     0
176
     1
290
     0
176
     1
290
     0
176
     1
290
     0
176
     1
 90
       50
176
     1
 40
0.0
176
     1
 40
1.0
176
     1
 90
        0
176
     1
 62
    18
420
        0
176
     1
 90
       50
176
     1
 90
        3
176
     1
 62
     5
420
      255
176
     1
290
     0
176
     1
 90
       50
176
     1
 90
       50
176
     1
 90
       50
176
     1
290
     0
176
     1
 90
       50
176
     1
 62
   256
176
     0
 40
1.0
176
     0
 90
        2
176
     1
  1
strokes_ogs.tif
176
     1
290
     0
176
     1
 40
1.0
176
     1
 40
1.0
176
     1
  0
VISUALSTYLE
  5
2E
102
{ACAD_REACTORS
330
29
102
}
330
29
100
AcDbVisualStyle
  2
Basic
 70
     7
177
     3
291
     1
 70
    58
 90
        1
176
     1
 90
        0
176
     1
 90
        1
176
     1
 90
        0
176
     1
 40
0.6
176
     1
 40
30.0
176
     1
 62
     7
420
 16777215
176
     1
 90
        0
176
     1
 90
        4
176
     1
 62
     7
176
     1
 62
   257
176
     1
 90
        1
176
     1
 90
        1
176
     1
 40
1.0
176
     1
 90
        8
176
     1
 62
     7
176
     1
 40
1.0
176
     1
 90
        1
176
     1
 90
        6
176
     1
 90
        2
176
     1
 62
     7
176
     1
 90
        5
176
     1
 90
        0
176
     1
 90
        0
176
     1
290
     0
176
     1
 90
        1
176
     1
 40
0.0
176
     1
 90
        0
176
     1
290
     0
176
     1
290
     1
176
     1
290
     1
176
     1
290
     0
176
     1
290
     0
176
     1
290
     0
176
     1
290
     0
176
     1
290
     0
176
     1
290
     0
176
     1
 90
       50
176
     1
 40
0.0
176
     1
 40
1.0
176
     1
 90
        0
176
     1
 62
    18
420
        0
176
     1
 90
       50
176
     1
 90
        3
176
     1
 62
     5
420
      255
176
     1
290
     0
176
     1
 90
       50
176
     1
 90
       50
176
     1
 90
       50
176
     1
290
     0
176
     1
 90
       50
176
     1
 62
   256
176
     0
 40
1.0
176
     0
 90
        2
176
     1
  1
strokes_ogs.tif
176
     1
290
     0
176
     1
 40
1.0
176
     1
 40
1.0
176
     1
  0
VISUALSTYLE
  5
35
102
{ACAD_REACTORS
330
29
102
}
330
29
100
AcDbVisualStyle
  2
Brighten
 70
    12
177
     3
291
     1
 70
    58
 90
        2
176
     1
 90
        2
176
     1
 90
        0
176
     1
 90
        0
176
     1
 40
0.6
176
     1
 40
30.0
176
     1
 62
     7
420
 16777215
176
     1
 90
        1
176
     1
 90
        4
176
     1
 62
     7
176
     1
 62
   257
176
     1
 90
        1
176
     1
 90
        1
176
     1
 40
1.0
176
     1
 90
        8
176
     1
 62
     7
176
     1
 40
1.0
176
     1
 90
        1
176
     1
 90
        6
176
     1
 90
        2
176
     1
 62
     7
176
     1
 90
        5
176
     1
 90
        0
176
     1
 90
        0
176
     1
290
     0
176
     1
 90
        1
176
     1
 40
50.0
176
     1
 90
        0
176
     1
290
     0
176
     1
290
     1
176
     1
290
     1
176
     1
290
     0
176
     1
290
     0
176
     1
290
     0
176
     1
290
     0
176
     1
290
     0
176
     1
290
     0
176
     1
 90
       50
176
     1
 40
0.0
176
     1
 40
1.0
176
     1
 90
        0
176
     1
 62
    18
420
        0
176
     1
 90
       50
176
     1
 90
        3
176
     1
 62
     5
420
      255
176
     1
290
     0
176
     1
 90
       50
176
     1
 90
       50
176
     1
 90
       50
176
     1
290
     0
176
     1
 90
       50
176
     1
 62
   256
176
     0
 40
1.0
176
     0
 90
        2
176
     1
  1
strokes_ogs.tif
176
     1
290
     0
176
     1
 40
1.0
176
     1
 40
1.0
176
     1
  0
VISUALSTYLE
  5
39
102
{ACAD_REACTORS
330
29
102
}
330
29
100
AcDbVisualStyle
  2
ColorChange
 70
    16
177
     3
291
     1
 70
    58
 90
        2
176
     1
 90
        2
176
     1
 90
        3
176
     1
 90
        0
176
     1
 40
0.6
176
     1
 40
30.0
176
     1
 62
     8
420
  8421504
176
     1
 90
        1
176
     1
 90
        4
176
     1
 62
     7
176
     1
 62
   257
176
     1
 90
        1
176
     1
 90
        1
176
     1
 40
1.0
176
     1
 90
        8
176
     1
 62
     8
420
  8421504
176
     1
 40
1.0
176
     1
 90
        1
176
     1
 90
        6
176
     1
 90
        2
176
     1
 62
     7
176
     1
 90
        5
176
     1
 90
        0
176
     1
 90
        0
176
     1
290
     0
176
     1
 90
        1
176
     1
 40
0.0
176
     1
 90
        0
176
     1
290
     0
176
     1
290
     1
176
     1
290
     1
176
     1
290
     0
176
     1
290
     0
176
     1
290
     0
176
     1
290
     0
176
     1
290
     0
176
     1
290
     0
176
     1
 90
       50
176
     1
 40
0.0
176
     1
 40
1.0
176
     1
 90
        0
176
     1
 62
    18
420
        0
176
     1
 90
       50
176
     1
 90
        3
176
     1
 62
     5
420
      255
176
     1
290
     0
176
     1
 90
       50
176
     1
 90
       50
176
     1
 90
       50
176
     1
290
     0
176
     1
 90
       50
176
     1
 62
   256
176
     0
 40
1.0
176
     0
 90
        2
176
     1
  1
strokes_ogs.tif
176
     1
290
     0
176
     1
 40
1.0
176
     1
 40
1.0
176
     1
  0
VISUALSTYLE
  5
32
102
{ACAD_REACTORS
330
29
102
}
330
29
100
AcDbVisualStyle
  2
Conceptual
 70
     9
177
     3
291
     0
 70
    58
 90
        3
176
     1
 90
        2
176
     1
 90
        0
176
     1
 90
        0
176
     1
 40
0.6
176
     1
 40
30.0
176
     1
 62
     7
420
 16777215
176
     1
 90
        2
176
     1
 90
        2
176
     1
 62
     7
176
     1
 62
   257
176
     1
 90
        1
176
     1
 90
        1
176
     1
 40
179.0
176
     1
 90
        8
176
     1
 62
     7
176
     1
 40
1.0
176
     1
 90
        1
176
     1
 90
        6
176
     1
 90
        2
176
     1
 62
     7
176
     1
 90
        3
176
     1
 90
        0
176
     1
 90
        0
176
     1
290
     0
176
     1
 90
        1
176
     1
 40
0.0
176
     1
 90
        0
176
     1
290
     0
176
     1
290
     1
176
     1
290
     1
176
     1
290
     0
176
     1
290
     0
176
     1
290
     0
176
     1
290
     0
176
     1
290
     0
176
     1
290
     0
176
     1
 90
       50
176
     1
 40
0.0
176
     1
 40
1.0
176
     1
 90
        0
176
     1
 62
    18
420
        0
176
     1
 90
       50
176
     1
 90
        3
176
     1
 62
     5
420
      255
176
     1
290
     0
176
     1
 90
       50
176
     1
 90
       50
176
     1
 90
       50
176
     1
290
     0
176
     1
 90
       50
176
     1
 62
   256
176
     0
 40
1.0
176
     0
 90
        2
176
     1
  1
strokes_ogs.tif
176
     1
290
     0
176
     1
 40
1.0
176
     1
 40
1.0
176
     1
  0
VISUALSTYLE
  5
34
102
{ACAD_REACTORS
330
29
102
}
330
29
100
AcDbVisualStyle
  2
Dim
 70
    11
177
     3
291
     1
 70
    58
 90
        2
176
     1
 90
        2
176
     1
 90
        0
176
     1
 90
        0
176
     1
 40
0.6
176
     1
 40
30.0
176
     1
 62
     7
420
 16777215
176
     1
 90
        1
176
     1
 90
        4
176
     1
 62
     7
176
     1
 62
   257
176
     1
 90
        1
176
     1
 90
        1
176
     1
 40
1.0
176
     1
 90
        8
176
     1
 62
     7
176
     1
 40
1.0
176
     1
 90
        1
176
     1
 90
        6
176
     1
 90
        2
176
     1
 62
     7
176
     1
 90
        5
176
     1
 90
        0
176
     1
 90
        0
176
     1
290
     0
176
     1
 90
        1
176
     1
 40
-50.0
176
     1
 90
        0
176
     1
290
     0
176
     1
290
     1
176
     1
290
     1
176
     1
290
     0
176
     1
290
     0
176
     1
290
     0
176
     1
290
     0
176
     1
290
     0
176
     1
290
     0
176
     1
 90
       50
176
     1
 40
0.0
176
     1
 40
1.0
176
     1
 90
        0
176
     1
 62
    18
420
        0
176
     1
 90
       50
176
     1
 90
        3
176
     1
 62
     5
420
      255
176
     1
290
     0
176
     1
 90
       50
176
     1
 90
       50
176
     1
 90
       50
176
     1
290
     0
176
     1
 90
       50
176
     1
 62
   256
176
     0
 40
1.0
176
     0
 90
        2
176
     1
  1
strokes_ogs.tif
176
     1
290
     0
176
     1
 40
1.0
176
     1
 40
1.0
176
     1
  0
VISUALSTYLE
  5
41
102
{ACAD_REACTORS
330
29
102
}
330
29
100
AcDbVisualStyle
  2
EdgeColorOff
 70
    22
177
     3
291
     1
 70
    58
 90
        2
176
     0
 90
        2
176
     0
 90
        0
176
     0
 90
        0
176
     0
 40
0.6
176
     0
 40
30.0
176
     0
 62
     7
420
 16777215
176
     0
 90
        1
176
     0
 90
        4
176
     0
 62
     7
176
     0
 62
   257
176
     0
 90
        1
176
     0
 90
        1
176
     0
 40
1.0
176
     0
 90
        8
176
     2
 62
     7
176
     0
 40
1.0
176
     0
 90
        1
176
     0
 90
        6
176
     0
 90
        2
176
     0
 62
     7
176
     0
 90
        5
176
     0
 90
        0
176
     0
 90
        0
176
     0
290
     0
176
     0
 90
        1
176
     0
 40
0.0
176
     0
 90
        0
176
     0
290
     0
176
     0
290
     1
176
     0
290
     1
176
     0
290
     0
176
     0
290
     0
176
     0
290
     0
176
     0
290
     0
176
     0
290
     0
176
     0
290
     0
176
     0
 90
       50
176
     0
 40
0.0
176
     0
 40
1.0
176
     0
 90
        0
176
     0
 62
    18
420
        0
176
     0
 90
       50
176
     0
 90
        3
176
     0
 62
     5
420
      255
176
     0
290
     0
176
     0
 90
       50
176
     0
 90
       50
176
     0
 90
       50
176
     0
290
     0
176
     0
 90
       50
176
     0
 62
   256
176
     0
 40
1.0
176
     0
 90
        2
176
     0
  1
strokes_ogs.tif
176
     0
290
     0
176
     0
 40
1.0
176
     0
 40
1.0
176
     0
  0
VISUALSTYLE
  5
38
102
{ACAD_REACTORS
330
29
102
}
330
29
100
AcDbVisualStyle
  2
Facepattern
 70
    15
177
     3
291
     1
 70
    58
 90
        2
176
     1
 90
        2
176
     1
 90
        0
176
     1
 90
        0
176
     1
 40
0.6
176
     1
 40
30.0
176
     1
 62
     7
420
 16777215
176
     1
 90
        1
176
     1
 90
        4
176
     1
 62
     7
176
     1
 62
   257
176
     1
 90
        1
176
     1
 90
        1
176
     1
 40
1.0
176
     1
 90
        8
176
     1
 62
     7
176
     1
 40
1.0
176
     1
 90
        1
176
     1
 90
        6
176
     1
 90
        2
176
     1
 62
     7
176
     1
 90
        5
176
     1
 90
        0
176
     1
 90
        0
176
     1
290
     0
176
     1
 90
        1
176
     1
 40
0.0
176
     1
 90
        0
176
     1
290
     0
176
     1
290
     1
176
     1
290
     1
176
     1
290
     0
176
     1
290
     0
176
     1
290
     0
176
     1
290
     0
176
     1
290
     0
176
     1
290
     0
176
     1
 90
       50
176
     1
 40
0.0
176
     1
 40
1.0
176
     1
 90
        0
176
     1
 62
    18
420
        0
176
     1
 90
       50
176
     1
 90
        3
176
     1
 62
     5
420
      255
176
     1
290
     0
176
     1
 90
       50
176
     1
 90
       50
176
     1
 90
       50
176
     1
290
     0
176
     1
 90
       50
176
     1
 62
   256
176
     0
 40
1.0
176
     0
 90
        2
176
     1
  1
strokes_ogs.tif
176
     1
290
     0
176
     1
 40
1.0
176
     1
 40
1.0
176
     1
  0
VISUALSTYLE
  5
2A
102
{ACAD_REACTORS
330
29
102
}
330
29
100
AcDbVisualStyle
  2
Flat
 70
     0
177
     3
291
     1
 70
    58
 90
        2
176
     1
 90
        1
176
     1
 90
        1
176
     1
 90
        2
176
     1
 40
0.6
176
     1
 40
30.0
176
     1
 62
     7
420
 16777215
176
     1
 90
        0
176
     1
 90
        0
176
     1
 62
     7
176
     1
 62
   257
176
     1
 90
        1
176
     1
 90
        1
176
     1
 40
1.0
176
     1
 90
        8
176
     1
 62
     7
176
     1
 40
1.0
176
     1
 90
        1
176
     1
 90
        6
176
     1
 90
        2
176
     1
 62
     7
176
     1
 90
        5
176
     1
 90
        0
176
     1
 90
        0
176
     1
290
     0
176
     1
 90
       13
176
     1
 40
0.0
176
     1
 90
        0
176
     1
290
     0
176
     1
290
     1
176
     1
290
     1
176
     1
290
     0
176
     1
290
     0
176
     1
290
     0
176
     1
290
     0
176
     1
290
     0
176
     1
290
     0
176
     1
 90
       50
176
     1
 40
0.0
176
     1
 40
1.0
176
     1
 90
        0
176
     1
 62
    18
420
        0
176
     1
 90
       50
176
     1
 90
        3
176
     1
 62
     5
420
      255
176
     1
290
     0
176
     1
 90
       50
176
     1
 90
       50
176
     1
 90
       50
176
     1
290
     0
176
     1
 90
       50
176
     1
 62
   256
176
     0
 40
1.0
176
     0
 90
        2
176
     1
  1
strokes_ogs.tif
176
     1
290
     0
176
     1
 40
1.0
176
     1
 40
1.0
176
     1
  0
VISUALSTYLE
  5
2B
102
{ACAD_REACTORS
330
29
102
}
330
29
100
AcDbVisualStyle
  2
FlatWithEdges
 70
     1
177
     3
291
     1
 70
    58
 90
        2
176
     1
 90
        1
176
     1
 90
        1
176
     1
 90
        2
176
     1
 40
0.6
176
     1
 40
30.0
176
     1
 62
     7
420
 16777215
176
     1
 90
        1
176
     1
 90
        0
176
     1
 62
     7
176
     1
 62
   257
176
     1
 90
        1
176
     1
 90
        1
176
     1
 40
1.0
176
     1
 90
        0
176
     1
 62
   257
176
     1
 40
1.0
176
     1
 90
        1
176
     1
 90
        6
176
     1
 90
        2
176
     1
 62
     7
176
     1
 90
        5
176
     1
 90
        0
176
     1
 90
        0
176
     1
290
     0
176
     1
 90
       13
176
     1
 40
0.0
176
     1
 90
        0
176
     1
290
     0
176
     1
290
     1
176
     1
290
     1
176
     1
290
     0
176
     1
290
     0
176
     1
290
     0
176
     1
290
     0
176
     1
290
     0
176
     1
290
     0
176
     1
 90
       50
176
     1
 40
0.0
176
     1
 40
1.0
176
     1
 90
        0
176
     1
 62
    18
420
        0
176
     1
 90
       50
176
     1
 90
        3
176
     1
 62
     5
420
      255
176
     1
290
     0
176
     1
 90
       50
176
     1
 90
       50
176
     1
 90
       50
176
     1
290
     0
176
     1
 90
       50
176
     1
 62
   256
176
     0
 40
1.0
176
     0
 90
        2
176
     1
  1
strokes_ogs.tif
176
     1
290
     0
176
     1
 40
1.0
176
     1
 40
1.0
176
     1
  0
VISUALSTYLE
  5
2C
102
{ACAD_REACTORS
330
29
102
}
330
29
100
AcDbVisualStyle
  2
Gouraud
 70
     2
177
     3
291
     1
 70
    58
 90
        2
176
     1
 90
        2
176
     1
 90
        1
176
     1
 90
        2
176
     1
 40
0.6
176
     1
 40
30.0
176
     1
 62
     7
420
 16777215
176
     1
 90
        0
176
     1
 90
        0
176
     1
 62
     7
176
     1
 62
   257
176
     1
 90
        1
176
     1
 90
        1
176
     1
 40
1.0
176
     1
 90
        0
176
     1
 62
     7
176
     1
 40
1.0
176
     1
 90
        1
176
     1
 90
        6
176
     1
 90
        2
176
     1
 62
     7
176
     1
 90
        5
176
     1
 90
        0
176
     1
 90
        0
176
     1
290
     0
176
     1
 90
       13
176
     1
 40
0.0
176
     1
 90
        0
176
     1
290
     0
176
     1
290
     1
176
     1
290
     1
176
     1
290
     0
176
     1
290
     0
176
     1
290
     0
176
     1
290
     0
176
     1
290
     0
176
     1
290
     0
176
     1
 90
       50
176
     1
 40
0.0
176
     1
 40
1.0
176
     1
 90
        0
176
     1
 62
    18
420
        0
176
     1
 90
       50
176
     1
 90
        3
176
     1
 62
     5
420
      255
176
     1
290
     0
176
     1
 90
       50
176
     1
 90
       50
176
     1
 90
       50
176
     1
290
     0
176
     1
 90
       50
176
     1
 62
   256
176
     0
 40
1.0
176
     0
 90
        2
176
     1
  1
strokes_ogs.tif
176
     1
290
     0
176
     1
 40
1.0
176
     1
 40
1.0
176
     1
  0
VISUALSTYLE
  5
2D
102
{ACAD_REACTORS
330
29
102
}
330
29
100
AcDbVisualStyle
  2
GouraudWithEdges
 70
     3
177
     3
291
     1
 70
    58
 90
        2
176
     1
 90
        2
176
     1
 90
        1
176
     1
 90
        2
176
     1
 40
0.6
176
     1
 40
30.0
176
     1
 62
     7
420
 16777215
176
     1
 90
        1
176
     1
 90
        0
176
     1
 62
     7
176
     1
 62
   257
176
     1
 90
        1
176
     1
 90
        1
176
     1
 40
1.0
176
     1
 90
        0
176
     1
 62
   257
176
     1
 40
1.0
176
     1
 90
        1
176
     1
 90
        6
176
     1
 90
        2
176
     1
 62
     7
176
     1
 90
        5
176
     1
 90
        0
176
     1
 90
        0
176
     1
290
     0
176
     1
 90
       13
176
     1
 40
0.0
176
     1
 90
        0
176
     1
290
     0
176
     1
290
     1
176
     1
290
     1
176
     1
290
     0
176
     1
290
     0
176
     1
290
     0
176
     1
290
     0
176
     1
290
     0
176
     1
290
     0
176
     1
 90
       50
176
     1
 40
0.0
176
     1
 40
1.0
176
     1
 90
        0
176
     1
 62
    18
420
        0
176
     1
 90
       50
176
     1
 90
        3
176
     1
 62
     5
420
      255
176
     1
290
     0
176
     1
 90
       50
176
     1
 90
       50
176
     1
 90
       50
176
     1
290
     0
176
     1
 90
       50
176
     1
 62
   256
176
     0
 40
1.0
176
     0
 90
        2
176
     1
  1
strokes_ogs.tif
176
     1
290
     0
176
     1
 40
1.0
176
     1
 40
1.0
176
     1
  0
VISUALSTYLE
  5
31
102
{ACAD_REACTORS
330
29
102
}
330
29
100
AcDbVisualStyle
  2
Hidden
 70
     6
177
     3
291
     0
 70
    58
 90
        1
176
     1
 90
        2
176
     1
 90
        2
176
     1
 90
        0
176
     1
 40
0.6
176
     1
 40
30.0
176
     1
 62
     7
420
 16777215
176
     1
 90
        2
176
     1
 90
        2
176
     1
 62
     7
176
     1
 62
   257
176
     1
 90
        2
176
     1
 90
        1
176
     1
 40
40.0
176
     1
 90
        0
176
     1
 62
   257
176
     1
 40
1.0
176
     1
 90
        1
176
     1
 90
        6
176
     1
 90
        2
176
     1
 62
     7
176
     1
 90
        3
176
     1
 90
        0
176
     1
 90
        0
176
     1
290
     0
176
     1
 90
        1
176
     1
 40
0.0
176
     1
 90
        0
176
     1
290
     0
176
     1
290
     1
176
     1
290
     1
176
     1
290
     0
176
     1
290
     0
176
     1
290
     0
176
     1
290
     0
176
     1
290
     0
176
     1
290
     0
176
     1
 90
       50
176
     1
 40
0.0
176
     1
 40
1.0
176
     1
 90
        0
176
     1
 62
    18
420
        0
176
     1
 90
       50
176
     1
 90
        3
176
     1
 62
     5
420
      255
176
     1
290
     0
176
     1
 90
       50
176
     1
 90
       50
176
     1
 90
       50
176
     1
290
     0
176
     1
 90
       50
176
     1
 62
   256
176
     0
 40
1.0
176
     0
 90
        2
176
     1
  1
strokes_ogs.tif
176
     1
290
     0
176
     1
 40
1.0
176
     1
 40
1.0
176
     1
  0
VISUALSTYLE
  5
3F
102
{ACAD_REACTORS
330
29
102
}
330
29
100
AcDbVisualStyle
  2
JitterOff
 70
    20
177
     3
291
     1
 70
    58
 90
        2
176
     0
 90
        2
176
     0
 90
        0
176
     0
 90
        0
176
     0
 40
0.6
176
     0
 40
30.0
176
     0
 62
     7
420
 16777215
176
     0
 90
        1
176
     0
 90
        4
176
     0
 62
     7
176
     0
 62
   257
176
     0
 90
        1
176
     0
 90
        1
176
     0
 40
1.0
176
     0
 90
       10
176
     2
 62
     7
176
     0
 40
1.0
176
     0
 90
        1
176
     0
 90
        6
176
     0
 90
        2
176
     0
 62
     7
176
     0
 90
        5
176
     0
 90
        0
176
     0
 90
        0
176
     0
290
     0
176
     0
 90
        1
176
     0
 40
0.0
176
     0
 90
        0
176
     0
290
     0
176
     0
290
     1
176
     0
290
     1
176
     0
290
     0
176
     0
290
     0
176
     0
290
     0
176
     0
290
     0
176
     0
290
     0
176
     0
290
     0
176
     0
 90
       50
176
     0
 40
0.0
176
     0
 40
1.0
176
     0
 90
        0
176
     0
 62
    18
420
        0
176
     0
 90
       50
176
     0
 90
        3
176
     0
 62
     5
420
      255
176
     0
290
     0
176
     0
 90
       50
176
     0
 90
       50
176
     0
 90
       50
176
     0
290
     0
176
     0
 90
       50
176
     0
 62
   256
176
     0
 40
1.0
176
     0
 90
        2
176
     0
  1
strokes_ogs.tif
176
     0
290
     0
176
     0
 40
1.0
176
     0
 40
1.0
176
     0
  0
VISUALSTYLE
  5
37
102
{ACAD_REACTORS
330
29
102
}
330
29
100
AcDbVisualStyle
  2
Linepattern
 70
    14
177
     3
291
     1
 70
    58
 90
        2
176
     1
 90
        2
176
     1
 90
        0
176
     1
 90
        0
176
     1
 40
0.6
176
     1
 40
30.0
176
     1
 62
     7
420
 16777215
176
     1
 90
        1
176
     1
 90
        4
176
     1
 62
     7
176
     1
 62
   257
176
     1
 90
        7
176
     1
 90
        7
176
     1
 40
1.0
176
     1
 90
        8
176
     1
 62
     7
176
     1
 40
1.0
176
     1
 90
        1
176
     1
 90
        6
176
     1
 90
        2
176
     1
 62
     7
176
     1
 90
        5
176
     1
 90
        0
176
     1
 90
        0
176
     1
290
     0
176
     1
 90
        1
176
     1
 40
0.0
176
     1
 90
        0
176
     1
290
     0
176
     1
290
     1
176
     1
290
     1
176
     1
290
     0
176
     1
290
     0
176
     1
290
     0
176
     1
290
     0
176
     1
290
     0
176
     1
290
     0
176
     1
 90
       50
176
     1
 40
0.0
176
     1
 40
1.0
176
     1
 90
        0
176
     1
 62
    18
420
        0
176
     1
 90
       50
176
     1
 90
        3
176
     1
 62
     5
420
      255
176
     1
290
     0
176
     1
 90
       50
176
     1
 90
       50
176
     1
 90
       50
176
     1
290
     0
176
     1
 90
       50
176
     1
 62
   256
176
     0
 40
1.0
176
     0
 90
        2
176
     1
  1
strokes_ogs.tif
176
     1
290
     0
176
     1
 40
1.0
176
     1
 40
1.0
176
     1
  0
VISUALSTYLE
  5
40
102
{ACAD_REACTORS
330
29
102
}
330
29
100
AcDbVisualStyle
  2
OverhangOff
 70
    21
177
     3
291
     1
 70
    58
 90
        2
176
     0
 90
        2
176
     0
 90
        0
176
     0
 90
        0
176
     0
 40
0.6
176
     0
 40
30.0
176
     0
 62
     7
420
 16777215
176
     0
 90
        1
176
     0
 90
        4
176
     0
 62
     7
176
     0
 62
   257
176
     0
 90
        1
176
     0
 90
        1
176
     0
 40
1.0
176
     0
 90
        9
176
     2
 62
     7
176
     0
 40
1.0
176
     0
 90
        1
176
     0
 90
        6
176
     0
 90
        2
176
     0
 62
     7
176
     0
 90
        5
176
     0
 90
        0
176
     0
 90
        0
176
     0
290
     0
176
     0
 90
        1
176
     0
 40
0.0
176
     0
 90
        0
176
     0
290
     0
176
     0
290
     1
176
     0
290
     1
176
     0
290
     0
176
     0
290
     0
176
     0
290
     0
176
     0
290
     0
176
     0
290
     0
176
     0
290
     0
176
     0
 90
       50
176
     0
 40
0.0
176
     0
 40
1.0
176
     0
 90
        0
176
     0
 62
    18
420
        0
176
     0
 90
       50
176
     0
 90
        3
176
     0
 62
     5
420
      255
176
     0
290
     0
176
     0
 90
       50
176
     0
 90
       50
176
     0
 90
       50
176
     0
290
     0
176
     0
 90
       50
176
     0
 62
   256
176
     0
 40
1.0
176
     0
 90
        2
176
     0
  1
strokes_ogs.tif
176
     0
290
     0
176
     0
 40
1.0
176
     0
 40
1.0
176
     0
  0
VISUALSTYLE
  5
33
102
{ACAD_REACTORS
330
29
102
}
330
29
100
AcDbVisualStyle
  2
Realistic
 70
     8
177
     3
291
     0
 70
    58
 90
        2
176
     1
 90
        3
176
     1
 90
        0
176
     1
 90
        2
176
     1
 40
0.6
176
     1
 40
30.0
176
     1
 62
     7
420
 16777215
176
     1
 90
        0
176
     1
 90
        0
176
     1
 62
     7
176
     1
 62
   257
176
     1
 90
        1
176
     1
 90
        1
176
     1
 40
1.0
176
     1
 90
        8
176
     1
 62
   257
176
     1
 40
1.0
176
     1
 90
        1
176
     1
 90
        6
176
     1
 90
        2
176
     1
 62
     7
176
     1
 90
        3
176
     1
 90
        0
176
     1
 90
        0
176
     1
290
     0
176
     1
 90
       13
176
     1
 40
0.0
176
     1
 90
        0
176
     1
290
     0
176
     1
290
     1
176
     1
290
     1
176
     1
290
     0
176
     1
290
     0
176
     1
290
     0
176
     1
290
     0
176
     1
290
     0
176
     1
290
     0
176
     1
 90
       50
176
     1
 40
0.0
176
     1
 40
1.0
176
     1
 90
        0
176
     1
 62
    18
420
        0
176
     1
 90
       50
176
     1
 90
        3
176
     1
 62
     5
420
      255
176
     1
290
     0
176
     1
 90
       50
176
     1
 90
       50
176
     1
 90
       50
176
     1
290
     0
176
     1
 90
       50
176
     1
 62
   256
176
     0
 40
1.0
176
     0
 90
        2
176
     1
  1
strokes_ogs.tif
176
     1
290
     0
176
     1
 40
1.0
176
     1
 40
1.0
176
     1
  0
VISUALSTYLE
  5
3E
102
{ACAD_REACTORS
330
29
102
}
330
29
100
AcDbVisualStyle
  2
Shaded
 70
    27
177
     3
291
     0
 70
    58
 90
        2
176
     1
 90
        2
176
     1
 90
        1
176
     1
 90
        2
176
     1
 40
0.6
176
     1
 40
30.0
176
     1
 62
     7
420
 16777215
176
     1
 90
        0
176
     1
 90
        4
176
     1
 62
     7
176
     1
 62
   257
176
     1
 90
        1
176
     1
 90
        1
176
     1
 40
1.0
176
     1
 90
        8
176
     1
 62
   257
176
     1
 40
1.0
176
     1
 90
        1
176
     1
 90
        6
176
     1
 90
        2
176
     1
 62
     8
420
  7895160
176
     1
 90
        3
176
     1
 90
        0
176
     1
 90
        0
176
     1
290
     0
176
     1
 90
        5
176
     1
 40
0.0
176
     1
 90
        0
176
     1
290
     0
176
     1
290
     1
176
     1
290
     1
176
     1
290
     0
176
     1
290
     0
176
     1
290
     0
176
     1
290
     0
176
     1
290
     0
176
     1
290
     0
176
     1
 90
       50
176
     1
 40
0.0
176
     1
 40
1.0
176
     1
 90
        0
176
     1
 62
    18
420
        0
176
     1
 90
       50
176
     1
 90
        3
176
     1
 62
     5
420
      255
176
     1
290
     0
176
     1
 90
       50
176
     1
 90
       50
176
     1
 90
       50
176
     1
290
     0
176
     1
 90
       50
176
     1
 62
   256
176
     0
 40
1.0
176
     0
 90
        2
176
     1
  1
strokes_ogs.tif
176
     1
290
     0
176
     1
 40
1.0
176
     1
 40
1.0
176
     1
  0
VISUALSTYLE
  5
3D
102
{ACAD_REACTORS
330
29
102
}
330
29
100
AcDbVisualStyle
  2
Shaded with edges
 70
    26
177
     3
291
     0
 70
    58
 90
        2
176
     1
 90
        2
176
     1
 90
        1
176
     1
 90
        2
176
     1
 40
0.6
176
     1
 40
30.0
176
     1
 62
     7
420
 16777215
176
     1
 90
        1
176
     1
 90
        2
176
     1
 62
     7
176
     1
 62
   257
176
     1
 90
        2
176
     1
 90
        1
176
     1
 40
1.0
176
     1
 90
        8
176
     1
 62
   257
176
     1
 40
1.0
176
     1
 90
        1
176
     1
 90
        6
176
     1
 90
        2
176
     1
 62
     7
176
     1
 90
        3
176
     1
 90
        0
176
     1
 90
        0
176
     1
290
     0
176
     1
 90
        5
176
     1
 40
0.0
176
     1
 90
        0
176
     1
290
     0
176
     1
290
     1
176
     1
290
     1
176
     1
290
     0
176
     1
290
     0
176
     1
290
     0
176
     1
290
     0
176
     1
290
     0
176
     1
290
     0
176
     1
 90
       50
176
     1
 40
0.0
176
     1
 40
1.0
176
     1
 90
        0
176
     1
 62
    18
420
        0
176
     1
 90
       50
176
     1
 90
        3
176
     1
 62
     5
420
      255
176
     1
290
     0
176
     1
 90
       50
176
     1
 90
       50
176
     1
 90
       50
176
     1
290
     0
176
     1
 90
       50
176
     1
 62
   256
176
     0
 40
1.0
176
     0
 90
        2
176
     1
  1
strokes_ogs.tif
176
     1
290
     0
176
     1
 40
1.0
176
     1
 40
1.0
176
     1
  0
VISUALSTYLE
  5
3A
102
{ACAD_REACTORS
330
29
102
}
330
29
100
AcDbVisualStyle
  2
Shades of Gray
 70
    23
177
     3
291
     0
 70
    58
 90
        2
176
     1
 90
        2
176
     1
 90
        3
176
     1
 90
        0
176
     1
 40
0.6
176
     1
 40
30.0
176
     1
 62
     7
420
 16777215
176
     1
 90
        2
176
     1
 90
        2
176
     1
 62
     7
176
     1
 62
     7
176
     1
 90
        1
176
     1
 90
        1
176
     1
 40
40.0
176
     1
 90
        8
176
     1
 62
     7
176
     1
 40
1.0
176
     1
 90
        1
176
     1
 90
        6
176
     1
 90
        2
176
     1
 62
     7
176
     1
 90
        3
176
     1
 90
        0
176
     1
 90
        0
176
     1
290
     0
176
     1
 90
        1
176
     1
 40
0.0
176
     1
 90
        0
176
     1
290
     0
176
     1
290
     1
176
     1
290
     1
176
     1
290
     0
176
     1
290
     0
176
     1
290
     0
176
     1
290
     0
176
     1
290
     0
176
     1
290
     0
176
     1
 90
       50
176
     1
 40
0.0
176
     1
 40
1.0
176
     1
 90
        0
176
     1
 62
    18
420
        0
176
     1
 90
       50
176
     1
 90
        3
176
     1
 62
     5
420
      255
176
     1
290
     0
176
     1
 90
       50
176
     1
 90
       50
176
     1
 90
       50
176
     1
290
     0
176
     1
 90
       50
176
     1
 62
   256
176
     0
 40
1.0
176
     0
 90
        2
176
     1
  1
strokes_ogs.tif
176
     1
290
     0
176
     1
 40
1.0
176
     1
 40
1.0
176
     1
  0
VISUALSTYLE
  5
3B
102
{ACAD_REACTORS
330
29
102
}
330
29
100
AcDbVisualStyle
  2
Sketchy
 70
    24
177
     3
291
     0
 70
    58
 90
        1
176
     1
 90
        2
176
     1
 90
        2
176
     1
 90
        0
176
     1
 40
0.6
176
     1
 40
30.0
176
     1
 62
     7
420
 16777215
176
     1
 90
        2
176
     1
 90
        2
176
     1
 62
     7
176
     1
 62
     7
176
     1
 90
        1
176
     1
 90
        1
176
     1
 40
40.0
176
     1
 90
       11
176
     1
 62
     7
176
     1
 40
1.0
176
     1
 90
        1
176
     1
 90
        6
176
     1
 90
        2
176
     1
 62
     7
176
     1
 90
        6
176
     1
 90
        0
176
     1
 90
        0
176
     1
290
     0
176
     1
 90
        1
176
     1
 40
0.0
176
     1
 90
        0
176
     1
290
     0
176
     1
290
     1
176
     1
290
     1
176
     1
290
     0
176
     1
290
     0
176
     1
290
     0
176
     1
290
     0
176
     1
290
     0
176
     1
290
     0
176
     1
 90
       50
176
     1
 40
0.0
176
     1
 40
1.0
176
     1
 90
        0
176
     1
 62
    18
420
        0
176
     1
 90
       50
176
     1
 90
        3
176
     1
 62
     5
420
      255
176
     1
290
     0
176
     1
 90
       50
176
     1
 90
       50
176
     1
 90
       50
176
     1
290
     0
176
     1
 90
       50
176
     1
 62
   256
176
     0
 40
1.0
176
     0
 90
        2
176
     1
  1
strokes_ogs.tif
176
     1
290
     0
176
     1
 40
1.0
176
     1
 40
1.0
176
     1
  0
VISUALSTYLE
  5
36
102
{ACAD_REACTORS
330
29
102
}
330
29
100
AcDbVisualStyle
  2
Thicken
 70
    13
177
     3
291
     1
 70
    58
 90
        2
176
     1
 90
        2
176
     1
 90
        0
176
     1
 90
        0
176
     1
 40
0.6
176
     1
 40
30.0
176
     1
 62
     7
420
 16777215
176
     1
 90
        1
176
     1
 90
        4
176
     1
 62
     7
176
     1
 62
   257
176
     1
 90
        1
176
     1
 90
        1
176
     1
 40
1.0
176
     1
 90
       12
176
     1
 62
     7
176
     1
 40
1.0
176
     1
 90
        1
176
     1
 90
        6
176
     1
 90
        2
176
     1
 62
     7
176
     1
 90
        5
176
     1
 90
        0
176
     1
 90
        0
176
     1
290
     0
176
     1
 90
        1
176
     1
 40
0.0
176
     1
 90
        0
176
     1
290
     0
176
     1
290
     1
176
     1
290
     1
176
     1
290
     0
176
     1
290
     0
176
     1
290
     0
176
     1
290
     0
176
     1
290
     0
176
     1
290
     0
176
     1
 90
       50
176
     1
 40
0.0
176
     1
 40
1.0
176
     1
 90
        0
176
     1
 62
    18
420
        0
176
     1
 90
       50
176
     1
 90
        3
176
     1
 62
     5
420
      255
176
     1
290
     0
176
     1
 90
       50
176
     1
 90
       50
176
     1
 90
       50
176
     1
290
     0
176
     1
 90
       50
176
     1
 62
   256
176
     0
 40
1.0
176
     0
 90
        2
176
     1
  1
strokes_ogs.tif
176
     1
290
     0
176
     1
 40
1.0
176
     1
 40
1.0
176
     1
  0
VISUALSTYLE
  5
30
102
{ACAD_REACTORS
330
29
102
}
330
29
100
AcDbVisualStyle
  2
Wireframe
 70
     5
177
     3
291
     0
 70
    58
 90
        0
176
     1
 90
        2
176
     1
 90
        0
176
     1
 90
        0
176
     1
 40
0.6
176
     1
 40
30.0
176
     1
 62
     7
420
 16777215
176
     1
 90
        1
176
     1
 90
        4
176
     1
 62
     7
176
     1
 62
   257
176
     1
 90
        1
176
     1
 90
        1
176
     1
 40
1.0
176
     1
 90
        0
176
     1
 62
   257
176
     1
 40
1.0
176
     1
 90
        1
176
     1
 90
        6
176
     1
 90
        2
176
     1
 62
     7
176
     1
 90
        3
176
     1
 90
        0
176
     1
 90
        0
176
     1
290
     0
176
     1
 90
        1
176
     1
 40
0.0
176
     1
 90
        0
176
     1
290
     0
176
     1
290
     1
176
     1
290
     1
176
     1
290
     0
176
     1
290
     0
176
     1
290
     0
176
     1
290
     0
176
     1
290
     0
176
     1
290
     0
176
     1
 90
       50
176
     1
 40
0.0
176
     1
 40
1.0
176
     1
 90
        0
176
     1
 62
    18
420
        0
176
     1
 90
       50
176
     1
 90
        3
176
     1
 62
     5
420
      255
176
     1
290
     0
176
     1
 90
       50
176
     1
 90
       50
176
     1
 90
       50
176
     1
290
     0
176
     1
 90
       50
176
     1
 62
   256
176
     0
 40
1.0
176
     0
 90
        2
176
     1
  1
strokes_ogs.tif
176
     1
290
     0
176
     1
 40
1.0
176
     1
 40
1.0
176
     1
  0
VISUALSTYLE
  5
3C
102
{ACAD_REACTORS
330
29
102
}
330
29
100
AcDbVisualStyle
  2
X-Ray
 70
    25
177
     3
291
     0
 70
    58
 90
        2
176
     1
 90
        2
176
     1
 90
        1
176
     1
 90
        1
176
     1
 40
0.5
176
     1
 40
30.0
176
     1
 62
     7
420
 16777215
176
     1
 90
        1
176
     1
 90
        0
176
     1
 62
     7
176
     1
 62
   257
176
     1
 90
        1
176
     1
 90
        1
176
     1
 40
1.0
176
     1
 90
        8
176
     1
 62
     7
176
     1
 40
1.0
176
     1
 90
        1
176
     1
 90
        6
176
     1
 90
        2
176
     1
 62
     7
176
     1
 90
        3
176
     1
 90
        0
176
     1
 90
        0
176
     1
290
     0
176
     1
 90
       13
176
     1
 40
0.0
176
     1
 90
        0
176
     1
290
     0
176
     1
290
     1
176
     1
290
     1
176
     1
290
     0
176
     1
290
     0
176
     1
290
     0
176
     1
290
     0
176
     1
290
     0
176
     1
290
     0
176
     1
 90
       50
176
     1
 40
0.0
176
     1
 40
1.0
176
     1
 90
        0
176
     1
 62
    18
420
        0
176
     1
 90
       50
176
     1
 90
        3
176
     1
 62
     5
420
      255
176
     1
290
     0
176
     1
 90
       50
176
     1
 90
       50
176
     1
 90
       50
176
     1
290
     0
176
     1
 90
       50
176
     1
 62
   256
176
     0
 40
1.0
176
     0
 90
        2
176
     1
  1
strokes_ogs.tif
176
     1
290
     0
176
     1
 40
1.0
176
     1
 40
1.0
176
     1
  0
DICTIONARYVAR
  5
A7
102
{ACAD_REACTORS
330
A2
102
}
330
A2
100
DictionaryVariables
280
     0
  1
1:1
  0
DICTIONARYVAR
  5
A4
102
{ACAD_REACTORS
330
A2
102
}
330
A2
100
DictionaryVariables
280
     0
  1
STANDARD
  0
DICTIONARYVAR
  5
A3
102
{ACAD_REACTORS
330
A2
102
}
330
A2
100
DictionaryVariables
280
     0
  1
STANDARD
  0
DICTIONARYVAR
  5
A5
102
{ACAD_REACTORS
330
A2
102
}
330
A2
100
DictionaryVariables
280
     0
  1
Imperial24
  0
DICTIONARYVAR
  5
A6
102
{ACAD_REACTORS
330
A2
102
}
330
A2
100
DictionaryVariables
280
     0
  1
Imperial24
  0
DICTIONARY
  5
1A
330
19
100
AcDbDictionary
280
     1
281
     1
  3
BUMPTILE
360
1C
  3
DIFFUSETILE
360
1B
  3
OPACITYTILE
360
1F
  3
REFLECTIONTILE
360
1E
  3
REFRACTIONTILE
360
20
  3
SPECULARTILE
360
1D
  0
DICTIONARY
  5
12
330
11
100
AcDbDictionary
280
     1
281
     1
  3
BUMPTILE
360
14
  3
DIFFUSETILE
360
13
  3
OPACITYTILE
360
17
  3
REFLECTIONTILE
360
16
  3
REFRACTIONTILE
360
18
  3
SPECULARTILE
360
15
  0
DICTIONARY
  5
22
330
21
100
AcDbDictionary
280
     1
281
     1
  3
BUMPTILE
360
24
  3
DIFFUSETILE
360
23
  3
OPACITYTILE
360
27
  3
REFLECTIONTILE
360
26
  3
REFRACTIONTILE
360
28
  3
SPECULARTILE
360
25
  0
DICTIONARY
  5
A8
330
65
100
AcDbDictionary
280
     1
281
     1
  3
ACAD_ROUNDTRIP_2008_TABLESTYLE_CELLSTYLEMAP
360
A9
  0
XRECORD
  5
1C
102
{ACAD_REACTORS
330
1A
102
}
330
1A
100
AcDbXrecord
280
     1
270
     1
271
     1
  0
XRECORD
  5
1B
102
{ACAD_REACTORS
330
1A
102
}
330
1A
100
AcDbXrecord
280
     1
270
     1
271
     1
  0
XRECORD
  5
1F
102
{ACAD_REACTORS
330
1A
102
}
330
1A
100
AcDbXrecord
280
     1
270
     1
271
     1
  0
XRECORD
  5
1E
102
{ACAD_REACTORS
330
1A
102
}
330
1A
100
AcDbXrecord
280
     1
270
     1
271
     1
  0
XRECORD
  5
20
102
{ACAD_REACTORS
330
1A
102
}
330
1A
100
AcDbXrecord
280
     1
270
     1
271
     1
  0
XRECORD
  5
1D
102
{ACAD_REACTORS
330
1A
102
}
330
1A
100
AcDbXrecord
280
     1
270
     1
271
     1
  0
XRECORD
  5
14
102
{ACAD_REACTORS
330
12
102
}
330
12
100
AcDbXrecord
280
     1
270
     1
271
     1
  0
XRECORD
  5
13
102
{ACAD_REACTORS
330
12
102
}
330
12
100
AcDbXrecord
280
     1
270
     1
271
     1
  0
XRECORD
  5
17
102
{ACAD_REACTORS
330
12
102
}
330
12
100
AcDbXrecord
280
     1
270
     1
271
     1
  0
XRECORD
  5
16
102
{ACAD_REACTORS
330
12
102
}
330
12
100
AcDbXrecord
280
     1
270
     1
271
     1
  0
XRECORD
  5
18
102
{ACAD_REACTORS
330
12
102
}
330
12
100
AcDbXrecord
280
     1
270
     1
271
     1
  0
XRECORD
  5
15
102
{ACAD_REACTORS
330
12
102
}
330
12
100
AcDbXrecord
280
     1
270
     1
271
     1
  0
XRECORD
  5
24
102
{ACAD_REACTORS
330
22
102
}
330
22
100
AcDbXrecord
280
     1
270
     1
271
     1
  0
XRECORD
  5
23
102
{ACAD_REACTORS
330
22
102
}
330
22
100
AcDbXrecord
280
     1
270
     1
271
     1
  0
XRECORD
  5
27
102
{ACAD_REACTORS
330
22
102
}
330
22
100
AcDbXrecord
280
     1
270
     1
271
     1
  0
XRECORD
  5
26
102
{ACAD_REACTORS
330
22
102
}
330
22
100
AcDbXrecord
280
     1
270
     1
271
     1
  0
XRECORD
  5
28
102
{ACAD_REACTORS
330
22
102
}
330
22
100
AcDbXrecord
280
     1
270
     1
271
     1
  0
XRECORD
  5
25
102
{ACAD_REACTORS
330
22
102
}
330
22
100
AcDbXrecord
280
     1
270
     1
271
     1
  0
CELLSTYLEMAP
  5
A9
102
{ACAD_REACTORS
330
A8
102
}
330
A8
100
AcDbCellStyleMap
 90
        3
300
CELLSTYLE
  1
TABLEFORMAT_BEGIN
 90
        5
170
     1
 91
        0
 92
    32768
 62
   257
 93
        1
300
CONTENTFORMAT
  1
CONTENTFORMAT_BEGIN
 90
        0
 91
        0
 92
      512
 93
        0
300

 40
0.0
140
1.0
 94
        5
 62
     0
340
55
144
0.25
309
CONTENTFORMAT_END
171
     0
 94
        0
309
TABLEFORMAT_END
  1
CELLSTYLE_BEGIN
 90
        1
 91
        1
300
_TITLE
309
CELLSTYLE_END
300
CELLSTYLE
  1
TABLEFORMAT_BEGIN
 90
        5
170
     1
 91
        0
 92
        0
 62
   257
 93
        1
300
CONTENTFORMAT
  1
CONTENTFORMAT_BEGIN
 90
        0
 91
        0
 92
      512
 93
        0
300

 40
0.0
140
1.0
 94
        5
 62
     0
340
55
144
0.18
309
CONTENTFORMAT_END
171
     0
 94
        0
309
TABLEFORMAT_END
  1
CELLSTYLE_BEGIN
 90
        2
 91
        1
300
_HEADER
309
CELLSTYLE_END
300
CELLSTYLE
  1
TABLEFORMAT_BEGIN
 90
        5
170
     1
 91
        0
 92
        0
 62
   257
 93
        1
300
CONTENTFORMAT
  1
CONTENTFORMAT_BEGIN
 90
        0
 91
        0
 92
      512
 93
        0
300

 40
0.0
140
1.0
 94
        2
 62
     0
340
55
144
0.18
309
CONTENTFORMAT_END
171
     0
 94
        0
309
TABLEFORMAT_END
  1
CELLSTYLE_BEGIN
 90
        3
 91
        2
300
_DATA
309
CELLSTYLE_END
  0
ENDSEC
  0
EOF
