%TF.GenerationSoftware,KiCad,Pcbnew,7.0.6*%
%TF.CreationDate,2023-07-18T22:48:20-04:00*%
%TF.ProjectId,cutiepie2040-standard-stagger,63757469-6570-4696-9532-3034302d7374,rev?*%
%TF.SameCoordinates,PX2d6b3a0PY7aa1830*%
%TF.FileFunction,Paste,Bot*%
%TF.FilePolarity,Positive*%
%FSLAX46Y46*%
G04 Gerber Fmt 4.6, Leading zero omitted, Abs format (unit mm)*
G04 Created by KiCad (PCBNEW 7.0.6) date 2023-07-18 22:48:20*
%MOMM*%
%LPD*%
G01*
G04 APERTURE LIST*
G04 Aperture macros list*
%AMRoundRect*
0 Rectangle with rounded corners*
0 $1 Rounding radius*
0 $2 $3 $4 $5 $6 $7 $8 $9 X,Y pos of 4 corners*
0 Add a 4 corners polygon primitive as box body*
4,1,4,$2,$3,$4,$5,$6,$7,$8,$9,$2,$3,0*
0 Add four circle primitives for the rounded corners*
1,1,$1+$1,$2,$3*
1,1,$1+$1,$4,$5*
1,1,$1+$1,$6,$7*
1,1,$1+$1,$8,$9*
0 Add four rect primitives between the rounded corners*
20,1,$1+$1,$2,$3,$4,$5,0*
20,1,$1+$1,$4,$5,$6,$7,0*
20,1,$1+$1,$6,$7,$8,$9,0*
20,1,$1+$1,$8,$9,$2,$3,0*%
%AMRotRect*
0 Rectangle, with rotation*
0 The origin of the aperture is its center*
0 $1 length*
0 $2 width*
0 $3 Rotation angle, in degrees counterclockwise*
0 Add horizontal line*
21,1,$1,$2,0,0,$3*%
G04 Aperture macros list end*
%ADD10R,2.550000X2.500000*%
%ADD11R,1.200000X0.900000*%
%ADD12RoundRect,0.135000X-0.185000X0.135000X-0.185000X-0.135000X0.185000X-0.135000X0.185000X0.135000X0*%
%ADD13RoundRect,0.135000X0.135000X0.185000X-0.135000X0.185000X-0.135000X-0.185000X0.135000X-0.185000X0*%
%ADD14RoundRect,0.140000X0.170000X-0.140000X0.170000X0.140000X-0.170000X0.140000X-0.170000X-0.140000X0*%
%ADD15RoundRect,0.140000X-0.021213X0.219203X-0.219203X0.021213X0.021213X-0.219203X0.219203X-0.021213X0*%
%ADD16R,1.700000X1.000000*%
%ADD17RotRect,1.400000X1.200000X45.000000*%
%ADD18RoundRect,0.135000X0.035355X-0.226274X0.226274X-0.035355X-0.035355X0.226274X-0.226274X0.035355X0*%
%ADD19RoundRect,0.140000X0.140000X0.170000X-0.140000X0.170000X-0.140000X-0.170000X0.140000X-0.170000X0*%
%ADD20RoundRect,0.140000X-0.170000X0.140000X-0.170000X-0.140000X0.170000X-0.140000X0.170000X0.140000X0*%
%ADD21RoundRect,0.150000X-0.625000X0.150000X-0.625000X-0.150000X0.625000X-0.150000X0.625000X0.150000X0*%
%ADD22RoundRect,0.229167X-0.670833X0.320833X-0.670833X-0.320833X0.670833X-0.320833X0.670833X0.320833X0*%
%ADD23RoundRect,0.140000X0.021213X-0.219203X0.219203X-0.021213X-0.021213X0.219203X-0.219203X0.021213X0*%
%ADD24R,2.550000X2.000000*%
%ADD25RoundRect,0.140000X0.219203X0.021213X0.021213X0.219203X-0.219203X-0.021213X-0.021213X-0.219203X0*%
%ADD26RoundRect,0.250000X0.292217X0.292217X-0.292217X0.292217X-0.292217X-0.292217X0.292217X-0.292217X0*%
%ADD27RoundRect,0.050000X0.387500X0.050000X-0.387500X0.050000X-0.387500X-0.050000X0.387500X-0.050000X0*%
%ADD28RoundRect,0.050000X0.050000X0.387500X-0.050000X0.387500X-0.050000X-0.387500X0.050000X-0.387500X0*%
%ADD29RoundRect,0.150000X0.150000X-0.587500X0.150000X0.587500X-0.150000X0.587500X-0.150000X-0.587500X0*%
%ADD30RoundRect,0.135000X0.185000X-0.135000X0.185000X0.135000X-0.185000X0.135000X-0.185000X-0.135000X0*%
%ADD31RoundRect,0.150000X0.650000X0.150000X-0.650000X0.150000X-0.650000X-0.150000X0.650000X-0.150000X0*%
G04 APERTURE END LIST*
D10*
%TO.C,MX6*%
X39179380Y57467794D03*
X26252380Y54927794D03*
%TD*%
D11*
%TO.C,D21*%
X116085955Y47165862D03*
X116085955Y50465862D03*
%TD*%
%TO.C,D24*%
X130373467Y66513453D03*
X130373467Y69813453D03*
%TD*%
D10*
%TO.C,MX31*%
X154839880Y73977794D03*
X167766880Y76517794D03*
%TD*%
%TO.C,MX33*%
X176271130Y35877584D03*
X189198130Y38417584D03*
%TD*%
D11*
%TO.C,D22*%
X125630802Y28115846D03*
X125630802Y31415846D03*
%TD*%
D12*
%TO.C,R_Flash2*%
X39290726Y64452768D03*
X39290726Y63432768D03*
%TD*%
D13*
%TO.C,R_RST1*%
X3901172Y9525224D03*
X4921172Y9525224D03*
%TD*%
D14*
%TO.C,C_1V-Decoup1*%
X27087038Y48335480D03*
X27087038Y49295480D03*
%TD*%
D11*
%TO.C,D13*%
X73223622Y66513453D03*
X73223622Y69813453D03*
%TD*%
D14*
%TO.C,C_LD1*%
X18157077Y64305627D03*
X18157077Y65265627D03*
%TD*%
D11*
%TO.C,D34*%
X177998507Y6684578D03*
X177998507Y9984578D03*
%TD*%
D10*
%TO.C,MX4*%
X2439880Y16827794D03*
X15366880Y19367794D03*
%TD*%
%TO.C,MX14*%
X64352380Y54927794D03*
X77279380Y57467794D03*
%TD*%
%TO.C,MX10*%
X58229380Y57467794D03*
X45302380Y54927794D03*
%TD*%
D11*
%TO.C,D23*%
X126801589Y6684578D03*
X126801589Y9984578D03*
%TD*%
D15*
%TO.C,C_3V-Decoup8*%
X26789005Y35123683D03*
X27467827Y35802505D03*
%TD*%
D14*
%TO.C,C_1V-Decoup2*%
X29765960Y48633138D03*
X29765960Y49593138D03*
%TD*%
D10*
%TO.C,MX13*%
X59589880Y73977794D03*
X72516880Y76517794D03*
%TD*%
D11*
%TO.C,D17*%
X97035939Y47301801D03*
X97035939Y50601801D03*
%TD*%
%TO.C,D30*%
X158948491Y6684578D03*
X158948491Y9984578D03*
%TD*%
%TO.C,D9*%
X54173574Y66513453D03*
X54173574Y69813453D03*
%TD*%
D10*
%TO.C,MX24*%
X116739880Y73977794D03*
X129666880Y76517794D03*
%TD*%
D11*
%TO.C,D25*%
X135135971Y47165862D03*
X135135971Y50465862D03*
%TD*%
D12*
%TO.C,R_DATA2*%
X22026501Y55427469D03*
X22026501Y54407470D03*
%TD*%
D10*
%TO.C,MX22*%
X111977380Y35877744D03*
X124904380Y38417744D03*
%TD*%
D11*
%TO.C,D31*%
X168473499Y66513453D03*
X168473499Y69813453D03*
%TD*%
D10*
%TO.C,MX16*%
X78639880Y73977794D03*
X91566880Y76517794D03*
%TD*%
%TO.C,MX18*%
X92927380Y35877794D03*
X105854380Y38417794D03*
%TD*%
D11*
%TO.C,D35*%
X192286019Y66513453D03*
X192286019Y69813453D03*
%TD*%
%TO.C,D16*%
X92273670Y66513453D03*
X92273670Y69813453D03*
%TD*%
D16*
%TO.C,SW2*%
X23043816Y22507874D03*
X29343816Y22507874D03*
X23043816Y26307874D03*
X29343816Y26307874D03*
%TD*%
D11*
%TO.C,D19*%
X88701557Y6684578D03*
X88701557Y9984578D03*
%TD*%
D10*
%TO.C,MX15*%
X73877380Y35877744D03*
X86804380Y38417744D03*
%TD*%
D11*
%TO.C,D27*%
X149423483Y66513453D03*
X149423483Y69813453D03*
%TD*%
D10*
%TO.C,MX32*%
X159602380Y54927794D03*
X172529380Y57467794D03*
%TD*%
D15*
%TO.C,C_1V-Decoup3*%
X26193692Y36314309D03*
X25514870Y35635487D03*
%TD*%
D11*
%TO.C,D2*%
X18454623Y47165862D03*
X18454623Y50465862D03*
%TD*%
D17*
%TO.C,Y1*%
X28868178Y33572442D03*
X30423813Y35128077D03*
X31625894Y33925996D03*
X30070259Y32370361D03*
%TD*%
D11*
%TO.C,D18*%
X106580786Y28115846D03*
X106580786Y31415846D03*
%TD*%
%TO.C,D33*%
X190202823Y28115700D03*
X190202823Y31415700D03*
%TD*%
D10*
%TO.C,MX1*%
X2439880Y73977794D03*
X15366880Y76517794D03*
%TD*%
D11*
%TO.C,D37*%
X194667271Y6684578D03*
X194667271Y9984578D03*
%TD*%
D14*
%TO.C,C_3V-Decoup6*%
X33784343Y45656558D03*
X33784343Y46616558D03*
%TD*%
D16*
%TO.C,SW1*%
X34950096Y22507874D03*
X41250096Y22507874D03*
X34950096Y26307874D03*
X41250096Y26307874D03*
%TD*%
D10*
%TO.C,MX17*%
X83402380Y54927794D03*
X96329380Y57467794D03*
%TD*%
D11*
%TO.C,D10*%
X58935907Y47165862D03*
X58935907Y50465862D03*
%TD*%
D10*
%TO.C,MX7*%
X35777380Y35877794D03*
X48704380Y38417794D03*
%TD*%
D11*
%TO.C,D4*%
X16073371Y6684578D03*
X16073371Y9984578D03*
%TD*%
D10*
%TO.C,MX35*%
X178652380Y73977794D03*
X191579380Y76517794D03*
%TD*%
D18*
%TO.C,R_Crystal1*%
X28331545Y34943462D03*
X29052793Y35664710D03*
%TD*%
D19*
%TO.C,C_3V-Decoup5*%
X23663971Y45462608D03*
X22703971Y45462608D03*
%TD*%
D10*
%TO.C,MX26*%
X131027380Y35877794D03*
X143954380Y38417794D03*
%TD*%
%TO.C,MX12*%
X40539880Y16827794D03*
X53466880Y19367794D03*
%TD*%
D20*
%TO.C,C_Flash1*%
X40481352Y64452768D03*
X40481352Y63492768D03*
%TD*%
D10*
%TO.C,MX36*%
X181033630Y54927794D03*
X193960630Y57467794D03*
%TD*%
D14*
%TO.C,C_3V-Decoup7*%
X26144064Y49295480D03*
X26144064Y48335480D03*
%TD*%
%TO.C,C_3V-Decoup1*%
X23663971Y48335480D03*
X23663971Y49295480D03*
%TD*%
D11*
%TO.C,D6*%
X39885891Y47165862D03*
X39885891Y50465862D03*
%TD*%
%TO.C,D32*%
X173236003Y47165862D03*
X173236003Y50465862D03*
%TD*%
D14*
%TO.C,C_3V-Decoup4*%
X24556945Y42182608D03*
X24556945Y43142608D03*
%TD*%
D21*
%TO.C,J1*%
X20249880Y64305627D03*
X20249880Y63305627D03*
X20249880Y62305627D03*
X20249880Y61305627D03*
D22*
X24124880Y65605627D03*
X24124880Y60005627D03*
%TD*%
D23*
%TO.C,C_Crystal1*%
X31509888Y31807545D03*
X32188710Y32486367D03*
%TD*%
D10*
%TO.C,MX30*%
X145314880Y16827794D03*
X158241880Y19367794D03*
%TD*%
%TO.C,MX9*%
X40539880Y73977794D03*
X53466880Y76517794D03*
%TD*%
%TO.C,MX27*%
X135789880Y73977794D03*
X148716880Y76517794D03*
%TD*%
D11*
%TO.C,D36*%
X194667271Y47165862D03*
X194667271Y50465862D03*
%TD*%
%TO.C,D26*%
X144680818Y28115846D03*
X144680818Y31415846D03*
%TD*%
D10*
%TO.C,MX11*%
X54827380Y35877744D03*
X67754380Y38417744D03*
%TD*%
D12*
%TO.C,R_DATA1*%
X23366313Y55427469D03*
X23366313Y54407470D03*
%TD*%
D10*
%TO.C,MX38*%
X92927380Y12065024D03*
D24*
X105854380Y14605024D03*
%TD*%
D11*
%TO.C,D15*%
X87530770Y28115846D03*
X87530770Y31415846D03*
%TD*%
%TO.C,D14*%
X77985923Y47165862D03*
X77985923Y50465862D03*
%TD*%
D25*
%TO.C,C_Crystal2*%
X28692169Y31515531D03*
X28013347Y32194353D03*
%TD*%
D10*
%TO.C,MX5*%
X21489880Y73977794D03*
X34416880Y76517794D03*
%TD*%
D12*
%TO.C,R_Flash1*%
X36909474Y64452768D03*
X36909474Y63432768D03*
%TD*%
D10*
%TO.C,MX8*%
X21489880Y16827794D03*
X34416880Y19367794D03*
%TD*%
D11*
%TO.C,D11*%
X68480754Y28115846D03*
X68480754Y31415846D03*
%TD*%
%TO.C,D28*%
X154185987Y47165862D03*
X154185987Y50465862D03*
%TD*%
D10*
%TO.C,MX25*%
X121502380Y54927794D03*
X134429380Y57467794D03*
%TD*%
D14*
%TO.C,C_3V-Decoup2*%
X25201090Y48335480D03*
X25201090Y49295480D03*
%TD*%
D10*
%TO.C,MX28*%
X140552380Y54927794D03*
X153479380Y57467794D03*
%TD*%
%TO.C,MX23*%
X111977380Y12065024D03*
X124904380Y14605024D03*
%TD*%
D14*
%TO.C,C_LD2*%
X12799251Y64305627D03*
X12799251Y65265627D03*
%TD*%
D10*
%TO.C,MX19*%
X73877380Y12065294D03*
X86804380Y14605294D03*
%TD*%
D11*
%TO.C,D7*%
X49430738Y28115846D03*
X49430738Y31415846D03*
%TD*%
D10*
%TO.C,MX29*%
X150077380Y35877794D03*
X163004380Y38417794D03*
%TD*%
D20*
%TO.C,C_3V-Decoup9*%
X33784343Y41705201D03*
X33784343Y40745201D03*
%TD*%
D10*
%TO.C,MX37*%
X183414880Y16827794D03*
X196341880Y19367794D03*
%TD*%
%TO.C,MX2*%
X17748130Y57467794D03*
X4821130Y54927794D03*
%TD*%
D11*
%TO.C,D29*%
X163730834Y28115846D03*
X163730834Y31415846D03*
%TD*%
D26*
%TO.C,U1*%
X29807886Y42225108D03*
X29807886Y43500108D03*
X28532886Y42225108D03*
X28532886Y43500108D03*
D27*
X32607886Y45462608D03*
X32607886Y45062608D03*
X32607886Y44662608D03*
X32607886Y44262608D03*
X32607886Y43862608D03*
X32607886Y43462608D03*
X32607886Y43062608D03*
X32607886Y42662608D03*
X32607886Y42262608D03*
X32607886Y41862608D03*
X32607886Y41462608D03*
X32607886Y41062608D03*
X32607886Y40662608D03*
X32607886Y40262608D03*
D28*
X31770386Y39425108D03*
X31370386Y39425108D03*
X30970386Y39425108D03*
X30570386Y39425108D03*
X30170386Y39425108D03*
X29770386Y39425108D03*
X29370386Y39425108D03*
X28970386Y39425108D03*
X28570386Y39425108D03*
X28170386Y39425108D03*
X27770386Y39425108D03*
X27370386Y39425108D03*
X26970386Y39425108D03*
X26570386Y39425108D03*
D27*
X25732886Y40262608D03*
X25732886Y40662608D03*
X25732886Y41062608D03*
X25732886Y41462608D03*
X25732886Y41862608D03*
X25732886Y42262608D03*
X25732886Y42662608D03*
X25732886Y43062608D03*
X25732886Y43462608D03*
X25732886Y43862608D03*
X25732886Y44262608D03*
X25732886Y44662608D03*
X25732886Y45062608D03*
X25732886Y45462608D03*
D28*
X26570386Y46300108D03*
X26970386Y46300108D03*
X27370386Y46300108D03*
X27770386Y46300108D03*
X28170386Y46300108D03*
X28570386Y46300108D03*
X28970386Y46300108D03*
X29370386Y46300108D03*
X29770386Y46300108D03*
X30170386Y46300108D03*
X30570386Y46300108D03*
X30970386Y46300108D03*
X31370386Y46300108D03*
X31770386Y46300108D03*
%TD*%
D10*
%TO.C,MX20*%
X97689880Y73977794D03*
X110616880Y76517794D03*
%TD*%
D11*
%TO.C,D8*%
X35123387Y6684578D03*
X35123387Y9984578D03*
%TD*%
D29*
%TO.C,U3*%
X16428164Y61868127D03*
X14528164Y61868127D03*
X15478164Y63743127D03*
%TD*%
D11*
%TO.C,D3*%
X23217484Y28128249D03*
X23217484Y31428249D03*
%TD*%
%TO.C,D5*%
X35123526Y66513453D03*
X35123526Y69813453D03*
%TD*%
D30*
%TO.C,R_Flash3*%
X38100100Y63432768D03*
X38100100Y64452768D03*
%TD*%
D10*
%TO.C,MX21*%
X102452380Y54927794D03*
X115379380Y57467794D03*
%TD*%
D31*
%TO.C,U2*%
X50034492Y64452768D03*
X50034492Y63182768D03*
X50034492Y61912768D03*
X50034492Y60642768D03*
X42834492Y60642768D03*
X42834492Y61912768D03*
X42834492Y63182768D03*
X42834492Y64452768D03*
%TD*%
D14*
%TO.C,C_3V-Decoup3*%
X28822986Y48633138D03*
X28822986Y49593138D03*
%TD*%
D11*
%TO.C,D1*%
X16073478Y66513453D03*
X16073478Y69813453D03*
%TD*%
%TO.C,D20*%
X111323718Y66513453D03*
X111323718Y69813453D03*
%TD*%
D10*
%TO.C,MX34*%
X164364880Y16827794D03*
X177291880Y19367794D03*
%TD*%
%TO.C,MX3*%
X9583630Y35877794D03*
X22510630Y38417794D03*
%TD*%
D11*
%TO.C,D12*%
X54173403Y6684578D03*
X54173403Y9984578D03*
%TD*%
M02*
