%TF.GenerationSoftware,KiCad,Pcbnew,7.0.6*%
%TF.CreationDate,2023-07-18T22:48:20-04:00*%
%TF.ProjectId,cutiepie2040-standard-stagger,63757469-6570-4696-9532-3034302d7374,rev?*%
%TF.SameCoordinates,PX2d6b3a0PY7aa1830*%
%TF.FileFunction,Other,User*%
%FSLAX46Y46*%
G04 Gerber Fmt 4.6, Leading zero omitted, Abs format (unit mm)*
G04 Created by KiCad (PCBNEW 7.0.6) date 2023-07-18 22:48:20*
%MOMM*%
%LPD*%
G01*
G04 APERTURE LIST*
%ADD10C,0.150000*%
%ADD11C,0.127000*%
%ADD12C,0.050000*%
G04 APERTURE END LIST*
D10*
%TO.C,MX6*%
X31051380Y54927794D02*
G75*
G03*
X31051380Y54927794I-1524000J0D01*
G01*
X37401380Y57467794D02*
G75*
G03*
X37401380Y57467794I-1524000J0D01*
G01*
D11*
X29337380Y59387794D02*
G75*
G03*
X26837380Y56887794I0J-2500000D01*
G01*
X32937380Y54987794D02*
G75*
G03*
X30937380Y52987794I-1J-1999999D01*
G01*
D10*
X24955380Y56197794D02*
X24955380Y53657794D01*
X24955380Y53657794D02*
X27495380Y53657794D01*
D11*
X26837380Y56887794D02*
X26837380Y52987794D01*
X26837380Y52987794D02*
X30937380Y52987794D01*
D10*
X27495380Y56197794D02*
X24955380Y56197794D01*
X27495380Y53657794D02*
X27495380Y56197794D01*
D11*
X32937380Y54987794D02*
X38637380Y54987794D01*
D10*
X37909380Y58737794D02*
X40449380Y58737794D01*
X37909380Y56197794D02*
X37909380Y58737794D01*
D11*
X38637380Y59387794D02*
X29337380Y59387794D01*
X38637380Y59387794D02*
X38637380Y54987794D01*
D10*
X40449380Y58737794D02*
X40449380Y56197794D01*
X40449380Y56197794D02*
X37909380Y56197794D01*
D12*
%TO.C,D21*%
X117235955Y46465862D02*
X114935955Y46465862D01*
X117235955Y46465862D02*
X117235955Y51165862D01*
X114935955Y51165862D02*
X114935955Y46465862D01*
X117235955Y51165862D02*
X114935955Y51165862D01*
%TO.C,D24*%
X131523467Y65813453D02*
X129223467Y65813453D01*
X131523467Y65813453D02*
X131523467Y70513453D01*
X129223467Y70513453D02*
X129223467Y65813453D01*
X131523467Y70513453D02*
X129223467Y70513453D01*
D10*
%TO.C,MX31*%
X169036880Y75247794D02*
X166496880Y75247794D01*
X169036880Y77787794D02*
X169036880Y75247794D01*
D11*
X167224880Y78437794D02*
X167224880Y74037794D01*
X167224880Y78437794D02*
X157924880Y78437794D01*
D10*
X166496880Y75247794D02*
X166496880Y77787794D01*
X166496880Y77787794D02*
X169036880Y77787794D01*
D11*
X161524880Y74037794D02*
X167224880Y74037794D01*
D10*
X156082880Y72707794D02*
X156082880Y75247794D01*
X156082880Y75247794D02*
X153542880Y75247794D01*
D11*
X155424880Y72037794D02*
X159524880Y72037794D01*
X155424880Y75937794D02*
X155424880Y72037794D01*
D10*
X153542880Y72707794D02*
X156082880Y72707794D01*
X153542880Y75247794D02*
X153542880Y72707794D01*
D11*
X161524880Y74037794D02*
G75*
G03*
X159524880Y72037794I-1J-1999999D01*
G01*
X157924880Y78437794D02*
G75*
G03*
X155424880Y75937794I0J-2500000D01*
G01*
D10*
X165988880Y76517794D02*
G75*
G03*
X165988880Y76517794I-1524000J0D01*
G01*
X159638880Y73977794D02*
G75*
G03*
X159638880Y73977794I-1524000J0D01*
G01*
%TO.C,MX33*%
X190468130Y37147584D02*
X187928130Y37147584D01*
X190468130Y39687584D02*
X190468130Y37147584D01*
D11*
X188656130Y40337584D02*
X188656130Y35937584D01*
X188656130Y40337584D02*
X179356130Y40337584D01*
D10*
X187928130Y37147584D02*
X187928130Y39687584D01*
X187928130Y39687584D02*
X190468130Y39687584D01*
D11*
X182956130Y35937584D02*
X188656130Y35937584D01*
D10*
X177514130Y34607584D02*
X174974130Y34607584D01*
X177514130Y37147584D02*
X177514130Y34607584D01*
D11*
X176856130Y33937584D02*
X180956130Y33937584D01*
X176856130Y37837584D02*
X176856130Y33937584D01*
D10*
X174974130Y34607584D02*
X174974130Y37147584D01*
X174974130Y37147584D02*
X177514130Y37147584D01*
D11*
X182956130Y35937584D02*
G75*
G03*
X180956130Y33937584I-1J-1999999D01*
G01*
X179356130Y40337584D02*
G75*
G03*
X176856130Y37837584I0J-2500000D01*
G01*
D10*
X187420130Y38417584D02*
G75*
G03*
X187420130Y38417584I-1524000J0D01*
G01*
X181070130Y35877584D02*
G75*
G03*
X181070130Y35877584I-1524000J0D01*
G01*
D12*
%TO.C,D22*%
X126780802Y27415846D02*
X124480802Y27415846D01*
X126780802Y27415846D02*
X126780802Y32115846D01*
X124480802Y32115846D02*
X124480802Y27415846D01*
X126780802Y32115846D02*
X124480802Y32115846D01*
%TO.C,R_Flash2*%
X39760726Y64872768D02*
X38820726Y64872768D01*
X38820726Y64872768D02*
X38820726Y63012768D01*
X39760726Y63012768D02*
X39760726Y64872768D01*
X38820726Y63012768D02*
X39760726Y63012768D01*
%TO.C,R_RST1*%
X3481172Y9995224D02*
X3481172Y9055224D01*
X3481172Y9055224D02*
X5341172Y9055224D01*
X5341172Y9995224D02*
X3481172Y9995224D01*
X5341172Y9055224D02*
X5341172Y9995224D01*
%TO.C,C_1V-Decoup1*%
X26627038Y47905480D02*
X27547038Y47905480D01*
X27547038Y47905480D02*
X27547038Y49725480D01*
X26627038Y49725480D02*
X26627038Y47905480D01*
X27547038Y49725480D02*
X26627038Y49725480D01*
%TO.C,D13*%
X74373622Y65813453D02*
X72073622Y65813453D01*
X74373622Y65813453D02*
X74373622Y70513453D01*
X72073622Y70513453D02*
X72073622Y65813453D01*
X74373622Y70513453D02*
X72073622Y70513453D01*
%TO.C,C_LD1*%
X17697077Y63875627D02*
X18617077Y63875627D01*
X18617077Y63875627D02*
X18617077Y65695627D01*
X17697077Y65695627D02*
X17697077Y63875627D01*
X18617077Y65695627D02*
X17697077Y65695627D01*
%TO.C,D34*%
X179148507Y5984578D02*
X176848507Y5984578D01*
X179148507Y5984578D02*
X179148507Y10684578D01*
X176848507Y10684578D02*
X176848507Y5984578D01*
X179148507Y10684578D02*
X176848507Y10684578D01*
D10*
%TO.C,MX4*%
X16636880Y18097794D02*
X14096880Y18097794D01*
X16636880Y20637794D02*
X16636880Y18097794D01*
D11*
X14824880Y21287794D02*
X14824880Y16887794D01*
X14824880Y21287794D02*
X5524880Y21287794D01*
D10*
X14096880Y18097794D02*
X14096880Y20637794D01*
X14096880Y20637794D02*
X16636880Y20637794D01*
D11*
X9124880Y16887794D02*
X14824880Y16887794D01*
D10*
X3682880Y15557794D02*
X3682880Y18097794D01*
X3682880Y18097794D02*
X1142880Y18097794D01*
D11*
X3024880Y14887794D02*
X7124880Y14887794D01*
X3024880Y18787794D02*
X3024880Y14887794D01*
D10*
X1142880Y15557794D02*
X3682880Y15557794D01*
X1142880Y18097794D02*
X1142880Y15557794D01*
D11*
X9124880Y16887794D02*
G75*
G03*
X7124880Y14887794I-1J-1999999D01*
G01*
X5524880Y21287794D02*
G75*
G03*
X3024880Y18787794I0J-2500000D01*
G01*
D10*
X13588880Y19367794D02*
G75*
G03*
X13588880Y19367794I-1524000J0D01*
G01*
X7238880Y16827794D02*
G75*
G03*
X7238880Y16827794I-1524000J0D01*
G01*
%TO.C,MX14*%
X78549380Y56197794D02*
X76009380Y56197794D01*
X78549380Y58737794D02*
X78549380Y56197794D01*
D11*
X76737380Y59387794D02*
X76737380Y54987794D01*
X76737380Y59387794D02*
X67437380Y59387794D01*
D10*
X76009380Y56197794D02*
X76009380Y58737794D01*
X76009380Y58737794D02*
X78549380Y58737794D01*
D11*
X71037380Y54987794D02*
X76737380Y54987794D01*
D10*
X65595380Y53657794D02*
X65595380Y56197794D01*
X65595380Y56197794D02*
X63055380Y56197794D01*
D11*
X64937380Y52987794D02*
X69037380Y52987794D01*
X64937380Y56887794D02*
X64937380Y52987794D01*
D10*
X63055380Y53657794D02*
X65595380Y53657794D01*
X63055380Y56197794D02*
X63055380Y53657794D01*
D11*
X71037380Y54987794D02*
G75*
G03*
X69037380Y52987794I-1J-1999999D01*
G01*
X67437380Y59387794D02*
G75*
G03*
X64937380Y56887794I0J-2500000D01*
G01*
D10*
X75501380Y57467794D02*
G75*
G03*
X75501380Y57467794I-1524000J0D01*
G01*
X69151380Y54927794D02*
G75*
G03*
X69151380Y54927794I-1524000J0D01*
G01*
%TO.C,MX10*%
X50101380Y54927794D02*
G75*
G03*
X50101380Y54927794I-1524000J0D01*
G01*
X56451380Y57467794D02*
G75*
G03*
X56451380Y57467794I-1524000J0D01*
G01*
D11*
X48387380Y59387794D02*
G75*
G03*
X45887380Y56887794I0J-2500000D01*
G01*
X51987380Y54987794D02*
G75*
G03*
X49987380Y52987794I-1J-1999999D01*
G01*
D10*
X44005380Y56197794D02*
X44005380Y53657794D01*
X44005380Y53657794D02*
X46545380Y53657794D01*
D11*
X45887380Y56887794D02*
X45887380Y52987794D01*
X45887380Y52987794D02*
X49987380Y52987794D01*
D10*
X46545380Y56197794D02*
X44005380Y56197794D01*
X46545380Y53657794D02*
X46545380Y56197794D01*
D11*
X51987380Y54987794D02*
X57687380Y54987794D01*
D10*
X56959380Y58737794D02*
X59499380Y58737794D01*
X56959380Y56197794D02*
X56959380Y58737794D01*
D11*
X57687380Y59387794D02*
X48387380Y59387794D01*
X57687380Y59387794D02*
X57687380Y54987794D01*
D10*
X59499380Y58737794D02*
X59499380Y56197794D01*
X59499380Y56197794D02*
X56959380Y56197794D01*
D12*
%TO.C,D23*%
X127951589Y5984578D02*
X125651589Y5984578D01*
X127951589Y5984578D02*
X127951589Y10684578D01*
X125651589Y10684578D02*
X125651589Y5984578D01*
X127951589Y10684578D02*
X125651589Y10684578D01*
%TO.C,C_3V-Decoup8*%
X26159680Y35144896D02*
X26810218Y34494358D01*
X26810218Y34494358D02*
X28097152Y35781292D01*
X27446614Y36431830D02*
X26159680Y35144896D01*
X28097152Y35781292D02*
X27446614Y36431830D01*
%TO.C,C_1V-Decoup2*%
X29305960Y48203138D02*
X30225960Y48203138D01*
X30225960Y48203138D02*
X30225960Y50023138D01*
X29305960Y50023138D02*
X29305960Y48203138D01*
X30225960Y50023138D02*
X29305960Y50023138D01*
D10*
%TO.C,MX13*%
X73786880Y75247794D02*
X71246880Y75247794D01*
X73786880Y77787794D02*
X73786880Y75247794D01*
D11*
X71974880Y78437794D02*
X71974880Y74037794D01*
X71974880Y78437794D02*
X62674880Y78437794D01*
D10*
X71246880Y75247794D02*
X71246880Y77787794D01*
X71246880Y77787794D02*
X73786880Y77787794D01*
D11*
X66274880Y74037794D02*
X71974880Y74037794D01*
D10*
X60832880Y72707794D02*
X60832880Y75247794D01*
X60832880Y75247794D02*
X58292880Y75247794D01*
D11*
X60174880Y72037794D02*
X64274880Y72037794D01*
X60174880Y75937794D02*
X60174880Y72037794D01*
D10*
X58292880Y72707794D02*
X60832880Y72707794D01*
X58292880Y75247794D02*
X58292880Y72707794D01*
D11*
X66274880Y74037794D02*
G75*
G03*
X64274880Y72037794I-1J-1999999D01*
G01*
X62674880Y78437794D02*
G75*
G03*
X60174880Y75937794I0J-2500000D01*
G01*
D10*
X70738880Y76517794D02*
G75*
G03*
X70738880Y76517794I-1524000J0D01*
G01*
X64388880Y73977794D02*
G75*
G03*
X64388880Y73977794I-1524000J0D01*
G01*
D12*
%TO.C,D17*%
X98185939Y46601801D02*
X95885939Y46601801D01*
X98185939Y46601801D02*
X98185939Y51301801D01*
X95885939Y51301801D02*
X95885939Y46601801D01*
X98185939Y51301801D02*
X95885939Y51301801D01*
%TO.C,D30*%
X160098491Y5984578D02*
X157798491Y5984578D01*
X160098491Y5984578D02*
X160098491Y10684578D01*
X157798491Y10684578D02*
X157798491Y5984578D01*
X160098491Y10684578D02*
X157798491Y10684578D01*
%TO.C,D9*%
X55323574Y65813453D02*
X53023574Y65813453D01*
X55323574Y65813453D02*
X55323574Y70513453D01*
X53023574Y70513453D02*
X53023574Y65813453D01*
X55323574Y70513453D02*
X53023574Y70513453D01*
D10*
%TO.C,MX24*%
X130936880Y75247794D02*
X128396880Y75247794D01*
X130936880Y77787794D02*
X130936880Y75247794D01*
D11*
X129124880Y78437794D02*
X129124880Y74037794D01*
X129124880Y78437794D02*
X119824880Y78437794D01*
D10*
X128396880Y75247794D02*
X128396880Y77787794D01*
X128396880Y77787794D02*
X130936880Y77787794D01*
D11*
X123424880Y74037794D02*
X129124880Y74037794D01*
D10*
X117982880Y72707794D02*
X117982880Y75247794D01*
X117982880Y75247794D02*
X115442880Y75247794D01*
D11*
X117324880Y72037794D02*
X121424880Y72037794D01*
X117324880Y75937794D02*
X117324880Y72037794D01*
D10*
X115442880Y72707794D02*
X117982880Y72707794D01*
X115442880Y75247794D02*
X115442880Y72707794D01*
D11*
X123424880Y74037794D02*
G75*
G03*
X121424880Y72037794I-1J-1999999D01*
G01*
X119824880Y78437794D02*
G75*
G03*
X117324880Y75937794I0J-2500000D01*
G01*
D10*
X127888880Y76517794D02*
G75*
G03*
X127888880Y76517794I-1524000J0D01*
G01*
X121538880Y73977794D02*
G75*
G03*
X121538880Y73977794I-1524000J0D01*
G01*
D12*
%TO.C,D25*%
X136285971Y46465862D02*
X133985971Y46465862D01*
X136285971Y46465862D02*
X136285971Y51165862D01*
X133985971Y51165862D02*
X133985971Y46465862D01*
X136285971Y51165862D02*
X133985971Y51165862D01*
%TO.C,R_DATA2*%
X22496501Y55847469D02*
X21556501Y55847469D01*
X21556501Y55847469D02*
X21556501Y53987469D01*
X22496501Y53987469D02*
X22496501Y55847469D01*
X21556501Y53987469D02*
X22496501Y53987469D01*
D10*
%TO.C,MX22*%
X126174380Y37147744D02*
X123634380Y37147744D01*
X126174380Y39687744D02*
X126174380Y37147744D01*
D11*
X124362380Y40337744D02*
X124362380Y35937744D01*
X124362380Y40337744D02*
X115062380Y40337744D01*
D10*
X123634380Y37147744D02*
X123634380Y39687744D01*
X123634380Y39687744D02*
X126174380Y39687744D01*
D11*
X118662380Y35937744D02*
X124362380Y35937744D01*
D10*
X113220380Y34607744D02*
X113220380Y37147744D01*
X113220380Y37147744D02*
X110680380Y37147744D01*
D11*
X112562380Y33937744D02*
X116662380Y33937744D01*
X112562380Y37837744D02*
X112562380Y33937744D01*
D10*
X110680380Y34607744D02*
X113220380Y34607744D01*
X110680380Y37147744D02*
X110680380Y34607744D01*
D11*
X118662380Y35937744D02*
G75*
G03*
X116662380Y33937744I-1J-1999999D01*
G01*
X115062380Y40337744D02*
G75*
G03*
X112562380Y37837744I0J-2500000D01*
G01*
D10*
X123126380Y38417744D02*
G75*
G03*
X123126380Y38417744I-1524000J0D01*
G01*
X116776380Y35877744D02*
G75*
G03*
X116776380Y35877744I-1524000J0D01*
G01*
D12*
%TO.C,D31*%
X169623499Y65813453D02*
X167323499Y65813453D01*
X169623499Y65813453D02*
X169623499Y70513453D01*
X167323499Y70513453D02*
X167323499Y65813453D01*
X169623499Y70513453D02*
X167323499Y70513453D01*
D10*
%TO.C,MX16*%
X92836880Y75247794D02*
X90296880Y75247794D01*
X92836880Y77787794D02*
X92836880Y75247794D01*
D11*
X91024880Y78437794D02*
X91024880Y74037794D01*
X91024880Y78437794D02*
X81724880Y78437794D01*
D10*
X90296880Y75247794D02*
X90296880Y77787794D01*
X90296880Y77787794D02*
X92836880Y77787794D01*
D11*
X85324880Y74037794D02*
X91024880Y74037794D01*
D10*
X79882880Y72707794D02*
X79882880Y75247794D01*
X79882880Y75247794D02*
X77342880Y75247794D01*
D11*
X79224880Y72037794D02*
X83324880Y72037794D01*
X79224880Y75937794D02*
X79224880Y72037794D01*
D10*
X77342880Y72707794D02*
X79882880Y72707794D01*
X77342880Y75247794D02*
X77342880Y72707794D01*
D11*
X85324880Y74037794D02*
G75*
G03*
X83324880Y72037794I-1J-1999999D01*
G01*
X81724880Y78437794D02*
G75*
G03*
X79224880Y75937794I0J-2500000D01*
G01*
D10*
X89788880Y76517794D02*
G75*
G03*
X89788880Y76517794I-1524000J0D01*
G01*
X83438880Y73977794D02*
G75*
G03*
X83438880Y73977794I-1524000J0D01*
G01*
D12*
%TO.C,J2*%
X14331172Y8943972D02*
X14331172Y5343972D01*
X581172Y8943972D02*
X14331172Y8943972D01*
X14331172Y5343972D02*
X581172Y5343972D01*
X581172Y5343972D02*
X581172Y8943972D01*
D10*
%TO.C,MX18*%
X107124380Y37147794D02*
X104584380Y37147794D01*
X107124380Y39687794D02*
X107124380Y37147794D01*
D11*
X105312380Y40337794D02*
X105312380Y35937794D01*
X105312380Y40337794D02*
X96012380Y40337794D01*
D10*
X104584380Y37147794D02*
X104584380Y39687794D01*
X104584380Y39687794D02*
X107124380Y39687794D01*
D11*
X99612380Y35937794D02*
X105312380Y35937794D01*
D10*
X94170380Y34607794D02*
X94170380Y37147794D01*
X94170380Y37147794D02*
X91630380Y37147794D01*
D11*
X93512380Y33937794D02*
X97612380Y33937794D01*
X93512380Y37837794D02*
X93512380Y33937794D01*
D10*
X91630380Y34607794D02*
X94170380Y34607794D01*
X91630380Y37147794D02*
X91630380Y34607794D01*
D11*
X99612380Y35937794D02*
G75*
G03*
X97612380Y33937794I-1J-1999999D01*
G01*
X96012380Y40337794D02*
G75*
G03*
X93512380Y37837794I0J-2500000D01*
G01*
D10*
X104076380Y38417794D02*
G75*
G03*
X104076380Y38417794I-1524000J0D01*
G01*
X97726380Y35877794D02*
G75*
G03*
X97726380Y35877794I-1524000J0D01*
G01*
D12*
%TO.C,D35*%
X193436019Y65813453D02*
X191136019Y65813453D01*
X193436019Y65813453D02*
X193436019Y70513453D01*
X191136019Y70513453D02*
X191136019Y65813453D01*
X193436019Y70513453D02*
X191136019Y70513453D01*
%TO.C,D16*%
X93423670Y65813453D02*
X91123670Y65813453D01*
X93423670Y65813453D02*
X93423670Y70513453D01*
X91123670Y70513453D02*
X91123670Y65813453D01*
X93423670Y70513453D02*
X91123670Y70513453D01*
%TO.C,SW2*%
X21943816Y27407874D02*
X21943816Y21407874D01*
X21943816Y21407874D02*
X30443816Y21407874D01*
X30443816Y27407874D02*
X21943816Y27407874D01*
X30443816Y21407874D02*
X30443816Y27407874D01*
%TO.C,D19*%
X89851557Y5984578D02*
X87551557Y5984578D01*
X89851557Y5984578D02*
X89851557Y10684578D01*
X87551557Y10684578D02*
X87551557Y5984578D01*
X89851557Y10684578D02*
X87551557Y10684578D01*
D10*
%TO.C,MX15*%
X88074380Y37147744D02*
X85534380Y37147744D01*
X88074380Y39687744D02*
X88074380Y37147744D01*
D11*
X86262380Y40337744D02*
X86262380Y35937744D01*
X86262380Y40337744D02*
X76962380Y40337744D01*
D10*
X85534380Y37147744D02*
X85534380Y39687744D01*
X85534380Y39687744D02*
X88074380Y39687744D01*
D11*
X80562380Y35937744D02*
X86262380Y35937744D01*
D10*
X75120380Y34607744D02*
X75120380Y37147744D01*
X75120380Y37147744D02*
X72580380Y37147744D01*
D11*
X74462380Y33937744D02*
X78562380Y33937744D01*
X74462380Y37837744D02*
X74462380Y33937744D01*
D10*
X72580380Y34607744D02*
X75120380Y34607744D01*
X72580380Y37147744D02*
X72580380Y34607744D01*
D11*
X80562380Y35937744D02*
G75*
G03*
X78562380Y33937744I-1J-1999999D01*
G01*
X76962380Y40337744D02*
G75*
G03*
X74462380Y37837744I0J-2500000D01*
G01*
D10*
X85026380Y38417744D02*
G75*
G03*
X85026380Y38417744I-1524000J0D01*
G01*
X78676380Y35877744D02*
G75*
G03*
X78676380Y35877744I-1524000J0D01*
G01*
D12*
%TO.C,D27*%
X150573483Y65813453D02*
X148273483Y65813453D01*
X150573483Y65813453D02*
X150573483Y70513453D01*
X148273483Y70513453D02*
X148273483Y65813453D01*
X150573483Y70513453D02*
X148273483Y70513453D01*
D10*
%TO.C,MX32*%
X173799380Y56197794D02*
X171259380Y56197794D01*
X173799380Y58737794D02*
X173799380Y56197794D01*
D11*
X171987380Y59387794D02*
X171987380Y54987794D01*
X171987380Y59387794D02*
X162687380Y59387794D01*
D10*
X171259380Y56197794D02*
X171259380Y58737794D01*
X171259380Y58737794D02*
X173799380Y58737794D01*
D11*
X166287380Y54987794D02*
X171987380Y54987794D01*
D10*
X160845380Y53657794D02*
X160845380Y56197794D01*
X160845380Y56197794D02*
X158305380Y56197794D01*
D11*
X160187380Y52987794D02*
X164287380Y52987794D01*
X160187380Y56887794D02*
X160187380Y52987794D01*
D10*
X158305380Y53657794D02*
X160845380Y53657794D01*
X158305380Y56197794D02*
X158305380Y53657794D01*
D11*
X166287380Y54987794D02*
G75*
G03*
X164287380Y52987794I-1J-1999999D01*
G01*
X162687380Y59387794D02*
G75*
G03*
X160187380Y56887794I0J-2500000D01*
G01*
D10*
X170751380Y57467794D02*
G75*
G03*
X170751380Y57467794I-1524000J0D01*
G01*
X164401380Y54927794D02*
G75*
G03*
X164401380Y54927794I-1524000J0D01*
G01*
D12*
%TO.C,C_1V-Decoup3*%
X26823017Y36293096D02*
X26172479Y36943634D01*
X26172479Y36943634D02*
X24885545Y35656700D01*
X25536083Y35006162D02*
X26823017Y36293096D01*
X24885545Y35656700D02*
X25536083Y35006162D01*
%TO.C,D2*%
X19604623Y46465862D02*
X17304623Y46465862D01*
X19604623Y46465862D02*
X19604623Y51165862D01*
X17304623Y51165862D02*
X17304623Y46465862D01*
X19604623Y51165862D02*
X17304623Y51165862D01*
%TO.C,Y1*%
X27560030Y33466376D02*
X30529879Y36436225D01*
X29964193Y31062213D02*
X27560030Y33466376D01*
X30529879Y36436225D02*
X32934042Y34032062D01*
X32934042Y34032062D02*
X29964193Y31062213D01*
%TO.C,D18*%
X107730786Y27415846D02*
X105430786Y27415846D01*
X107730786Y27415846D02*
X107730786Y32115846D01*
X105430786Y32115846D02*
X105430786Y27415846D01*
X107730786Y32115846D02*
X105430786Y32115846D01*
%TO.C,D33*%
X191352823Y27415700D02*
X189052823Y27415700D01*
X191352823Y27415700D02*
X191352823Y32115700D01*
X189052823Y32115700D02*
X189052823Y27415700D01*
X191352823Y32115700D02*
X189052823Y32115700D01*
D10*
%TO.C,MX1*%
X16636880Y75247794D02*
X14096880Y75247794D01*
X16636880Y77787794D02*
X16636880Y75247794D01*
D11*
X14824880Y78437794D02*
X14824880Y74037794D01*
X14824880Y78437794D02*
X5524880Y78437794D01*
D10*
X14096880Y75247794D02*
X14096880Y77787794D01*
X14096880Y77787794D02*
X16636880Y77787794D01*
D11*
X9124880Y74037794D02*
X14824880Y74037794D01*
D10*
X3682880Y72707794D02*
X3682880Y75247794D01*
X3682880Y75247794D02*
X1142880Y75247794D01*
D11*
X3024880Y72037794D02*
X7124880Y72037794D01*
X3024880Y75937794D02*
X3024880Y72037794D01*
D10*
X1142880Y72707794D02*
X3682880Y72707794D01*
X1142880Y75247794D02*
X1142880Y72707794D01*
D11*
X9124880Y74037794D02*
G75*
G03*
X7124880Y72037794I-1J-1999999D01*
G01*
X5524880Y78437794D02*
G75*
G03*
X3024880Y75937794I0J-2500000D01*
G01*
D10*
X13588880Y76517794D02*
G75*
G03*
X13588880Y76517794I-1524000J0D01*
G01*
X7238880Y73977794D02*
G75*
G03*
X7238880Y73977794I-1524000J0D01*
G01*
D12*
%TO.C,D37*%
X195817271Y5984578D02*
X193517271Y5984578D01*
X195817271Y5984578D02*
X195817271Y10684578D01*
X193517271Y10684578D02*
X193517271Y5984578D01*
X195817271Y10684578D02*
X193517271Y10684578D01*
%TO.C,C_3V-Decoup6*%
X33324343Y45226558D02*
X34244343Y45226558D01*
X34244343Y45226558D02*
X34244343Y47046558D01*
X33324343Y47046558D02*
X33324343Y45226558D01*
X34244343Y47046558D02*
X33324343Y47046558D01*
%TO.C,SW1*%
X33850096Y27407874D02*
X33850096Y21407874D01*
X33850096Y21407874D02*
X42350096Y21407874D01*
X42350096Y27407874D02*
X33850096Y27407874D01*
X42350096Y21407874D02*
X42350096Y27407874D01*
D10*
%TO.C,MX17*%
X97599380Y56197794D02*
X95059380Y56197794D01*
X97599380Y58737794D02*
X97599380Y56197794D01*
D11*
X95787380Y59387794D02*
X95787380Y54987794D01*
X95787380Y59387794D02*
X86487380Y59387794D01*
D10*
X95059380Y56197794D02*
X95059380Y58737794D01*
X95059380Y58737794D02*
X97599380Y58737794D01*
D11*
X90087380Y54987794D02*
X95787380Y54987794D01*
D10*
X84645380Y53657794D02*
X84645380Y56197794D01*
X84645380Y56197794D02*
X82105380Y56197794D01*
D11*
X83987380Y52987794D02*
X88087380Y52987794D01*
X83987380Y56887794D02*
X83987380Y52987794D01*
D10*
X82105380Y53657794D02*
X84645380Y53657794D01*
X82105380Y56197794D02*
X82105380Y53657794D01*
D11*
X90087380Y54987794D02*
G75*
G03*
X88087380Y52987794I-1J-1999999D01*
G01*
X86487380Y59387794D02*
G75*
G03*
X83987380Y56887794I0J-2500000D01*
G01*
D10*
X94551380Y57467794D02*
G75*
G03*
X94551380Y57467794I-1524000J0D01*
G01*
X88201380Y54927794D02*
G75*
G03*
X88201380Y54927794I-1524000J0D01*
G01*
D12*
%TO.C,D10*%
X60085907Y46465862D02*
X57785907Y46465862D01*
X60085907Y46465862D02*
X60085907Y51165862D01*
X57785907Y51165862D02*
X57785907Y46465862D01*
X60085907Y51165862D02*
X57785907Y51165862D01*
D10*
%TO.C,MX7*%
X49974380Y37147794D02*
X47434380Y37147794D01*
X49974380Y39687794D02*
X49974380Y37147794D01*
D11*
X48162380Y40337794D02*
X48162380Y35937794D01*
X48162380Y40337794D02*
X38862380Y40337794D01*
D10*
X47434380Y37147794D02*
X47434380Y39687794D01*
X47434380Y39687794D02*
X49974380Y39687794D01*
D11*
X42462380Y35937794D02*
X48162380Y35937794D01*
D10*
X37020380Y34607794D02*
X37020380Y37147794D01*
X37020380Y37147794D02*
X34480380Y37147794D01*
D11*
X36362380Y33937794D02*
X40462380Y33937794D01*
X36362380Y37837794D02*
X36362380Y33937794D01*
D10*
X34480380Y34607794D02*
X37020380Y34607794D01*
X34480380Y37147794D02*
X34480380Y34607794D01*
D11*
X42462380Y35937794D02*
G75*
G03*
X40462380Y33937794I-1J-1999999D01*
G01*
X38862380Y40337794D02*
G75*
G03*
X36362380Y37837794I0J-2500000D01*
G01*
D10*
X46926380Y38417794D02*
G75*
G03*
X46926380Y38417794I-1524000J0D01*
G01*
X40576380Y35877794D02*
G75*
G03*
X40576380Y35877794I-1524000J0D01*
G01*
D12*
%TO.C,D4*%
X17223371Y5984578D02*
X14923371Y5984578D01*
X17223371Y5984578D02*
X17223371Y10684578D01*
X14923371Y10684578D02*
X14923371Y5984578D01*
X17223371Y10684578D02*
X14923371Y10684578D01*
D10*
%TO.C,MX35*%
X192849380Y75247794D02*
X190309380Y75247794D01*
X192849380Y77787794D02*
X192849380Y75247794D01*
D11*
X191037380Y78437794D02*
X191037380Y74037794D01*
X191037380Y78437794D02*
X181737380Y78437794D01*
D10*
X190309380Y75247794D02*
X190309380Y77787794D01*
X190309380Y77787794D02*
X192849380Y77787794D01*
D11*
X185337380Y74037794D02*
X191037380Y74037794D01*
D10*
X179895380Y72707794D02*
X177355380Y72707794D01*
X179895380Y75247794D02*
X179895380Y72707794D01*
D11*
X179237380Y72037794D02*
X183337380Y72037794D01*
X179237380Y75937794D02*
X179237380Y72037794D01*
D10*
X177355380Y72707794D02*
X177355380Y75247794D01*
X177355380Y75247794D02*
X179895380Y75247794D01*
D11*
X185337380Y74037794D02*
G75*
G03*
X183337380Y72037794I-1J-1999999D01*
G01*
X181737380Y78437794D02*
G75*
G03*
X179237380Y75937794I0J-2500000D01*
G01*
D10*
X189801380Y76517794D02*
G75*
G03*
X189801380Y76517794I-1524000J0D01*
G01*
X183451380Y73977794D02*
G75*
G03*
X183451380Y73977794I-1524000J0D01*
G01*
D12*
%TO.C,R_Crystal1*%
X27702220Y34978817D02*
X28366900Y34314137D01*
X28366900Y34314137D02*
X29682118Y35629355D01*
X29017438Y36294035D02*
X27702220Y34978817D01*
X29682118Y35629355D02*
X29017438Y36294035D01*
%TO.C,C_3V-Decoup5*%
X24093971Y45002608D02*
X24093971Y45922608D01*
X24093971Y45922608D02*
X22273971Y45922608D01*
X22273971Y45002608D02*
X24093971Y45002608D01*
X22273971Y45922608D02*
X22273971Y45002608D01*
D10*
%TO.C,MX26*%
X145224380Y37147794D02*
X142684380Y37147794D01*
X145224380Y39687794D02*
X145224380Y37147794D01*
D11*
X143412380Y40337794D02*
X143412380Y35937794D01*
X143412380Y40337794D02*
X134112380Y40337794D01*
D10*
X142684380Y37147794D02*
X142684380Y39687794D01*
X142684380Y39687794D02*
X145224380Y39687794D01*
D11*
X137712380Y35937794D02*
X143412380Y35937794D01*
D10*
X132270380Y34607794D02*
X132270380Y37147794D01*
X132270380Y37147794D02*
X129730380Y37147794D01*
D11*
X131612380Y33937794D02*
X135712380Y33937794D01*
X131612380Y37837794D02*
X131612380Y33937794D01*
D10*
X129730380Y34607794D02*
X132270380Y34607794D01*
X129730380Y37147794D02*
X129730380Y34607794D01*
D11*
X137712380Y35937794D02*
G75*
G03*
X135712380Y33937794I-1J-1999999D01*
G01*
X134112380Y40337794D02*
G75*
G03*
X131612380Y37837794I0J-2500000D01*
G01*
D10*
X142176380Y38417794D02*
G75*
G03*
X142176380Y38417794I-1524000J0D01*
G01*
X135826380Y35877794D02*
G75*
G03*
X135826380Y35877794I-1524000J0D01*
G01*
%TO.C,MX12*%
X54736880Y18097794D02*
X52196880Y18097794D01*
X54736880Y20637794D02*
X54736880Y18097794D01*
D11*
X52924880Y21287794D02*
X52924880Y16887794D01*
X52924880Y21287794D02*
X43624880Y21287794D01*
D10*
X52196880Y18097794D02*
X52196880Y20637794D01*
X52196880Y20637794D02*
X54736880Y20637794D01*
D11*
X47224880Y16887794D02*
X52924880Y16887794D01*
D10*
X41782880Y15557794D02*
X41782880Y18097794D01*
X41782880Y18097794D02*
X39242880Y18097794D01*
D11*
X41124880Y14887794D02*
X45224880Y14887794D01*
X41124880Y18787794D02*
X41124880Y14887794D01*
D10*
X39242880Y15557794D02*
X41782880Y15557794D01*
X39242880Y18097794D02*
X39242880Y15557794D01*
D11*
X47224880Y16887794D02*
G75*
G03*
X45224880Y14887794I-1J-1999999D01*
G01*
X43624880Y21287794D02*
G75*
G03*
X41124880Y18787794I0J-2500000D01*
G01*
D10*
X51688880Y19367794D02*
G75*
G03*
X51688880Y19367794I-1524000J0D01*
G01*
X45338880Y16827794D02*
G75*
G03*
X45338880Y16827794I-1524000J0D01*
G01*
D12*
%TO.C,C_Flash1*%
X40941352Y64882768D02*
X40021352Y64882768D01*
X40021352Y64882768D02*
X40021352Y63062768D01*
X40941352Y63062768D02*
X40941352Y64882768D01*
X40021352Y63062768D02*
X40941352Y63062768D01*
D10*
%TO.C,MX36*%
X195230630Y56197794D02*
X192690630Y56197794D01*
X195230630Y58737794D02*
X195230630Y56197794D01*
D11*
X193418630Y59387794D02*
X193418630Y54987794D01*
X193418630Y59387794D02*
X184118630Y59387794D01*
D10*
X192690630Y56197794D02*
X192690630Y58737794D01*
X192690630Y58737794D02*
X195230630Y58737794D01*
D11*
X187718630Y54987794D02*
X193418630Y54987794D01*
D10*
X182276630Y53657794D02*
X179736630Y53657794D01*
X182276630Y56197794D02*
X182276630Y53657794D01*
D11*
X181618630Y52987794D02*
X185718630Y52987794D01*
X181618630Y56887794D02*
X181618630Y52987794D01*
D10*
X179736630Y53657794D02*
X179736630Y56197794D01*
X179736630Y56197794D02*
X182276630Y56197794D01*
D11*
X187718630Y54987794D02*
G75*
G03*
X185718630Y52987794I-1J-1999999D01*
G01*
X184118630Y59387794D02*
G75*
G03*
X181618630Y56887794I0J-2500000D01*
G01*
D10*
X192182630Y57467794D02*
G75*
G03*
X192182630Y57467794I-1524000J0D01*
G01*
X185832630Y54927794D02*
G75*
G03*
X185832630Y54927794I-1524000J0D01*
G01*
D12*
%TO.C,C_3V-Decoup7*%
X26604064Y49725480D02*
X25684064Y49725480D01*
X25684064Y49725480D02*
X25684064Y47905480D01*
X26604064Y47905480D02*
X26604064Y49725480D01*
X25684064Y47905480D02*
X26604064Y47905480D01*
%TO.C,C_3V-Decoup1*%
X23203971Y47905480D02*
X24123971Y47905480D01*
X24123971Y47905480D02*
X24123971Y49725480D01*
X23203971Y49725480D02*
X23203971Y47905480D01*
X24123971Y49725480D02*
X23203971Y49725480D01*
%TO.C,D6*%
X41035891Y46465862D02*
X38735891Y46465862D01*
X41035891Y46465862D02*
X41035891Y51165862D01*
X38735891Y51165862D02*
X38735891Y46465862D01*
X41035891Y51165862D02*
X38735891Y51165862D01*
%TO.C,D32*%
X174386003Y46465862D02*
X172086003Y46465862D01*
X174386003Y46465862D02*
X174386003Y51165862D01*
X172086003Y51165862D02*
X172086003Y46465862D01*
X174386003Y51165862D02*
X172086003Y51165862D01*
%TO.C,C_3V-Decoup4*%
X24096945Y41752608D02*
X25016945Y41752608D01*
X25016945Y41752608D02*
X25016945Y43572608D01*
X24096945Y43572608D02*
X24096945Y41752608D01*
X25016945Y43572608D02*
X24096945Y43572608D01*
%TO.C,J1*%
X25529880Y66705627D02*
X25529880Y58905627D01*
X18969880Y66705627D02*
X25529880Y66705627D01*
X25529880Y58905627D02*
X18969880Y58905627D01*
X18969880Y58905627D02*
X18969880Y66705627D01*
%TO.C,C_Crystal1*%
X30880563Y31828758D02*
X31531101Y31178220D01*
X31531101Y31178220D02*
X32818035Y32465154D01*
X32167497Y33115692D02*
X30880563Y31828758D01*
X32818035Y32465154D02*
X32167497Y33115692D01*
D10*
%TO.C,MX30*%
X159511880Y18097794D02*
X156971880Y18097794D01*
X159511880Y20637794D02*
X159511880Y18097794D01*
D11*
X157699880Y21287794D02*
X157699880Y16887794D01*
X157699880Y21287794D02*
X148399880Y21287794D01*
D10*
X156971880Y18097794D02*
X156971880Y20637794D01*
X156971880Y20637794D02*
X159511880Y20637794D01*
D11*
X151999880Y16887794D02*
X157699880Y16887794D01*
D10*
X146557880Y15557794D02*
X146557880Y18097794D01*
X146557880Y18097794D02*
X144017880Y18097794D01*
D11*
X145899880Y14887794D02*
X149999880Y14887794D01*
X145899880Y18787794D02*
X145899880Y14887794D01*
D10*
X144017880Y15557794D02*
X146557880Y15557794D01*
X144017880Y18097794D02*
X144017880Y15557794D01*
D11*
X151999880Y16887794D02*
G75*
G03*
X149999880Y14887794I-1J-1999999D01*
G01*
X148399880Y21287794D02*
G75*
G03*
X145899880Y18787794I0J-2500000D01*
G01*
D10*
X156463880Y19367794D02*
G75*
G03*
X156463880Y19367794I-1524000J0D01*
G01*
X150113880Y16827794D02*
G75*
G03*
X150113880Y16827794I-1524000J0D01*
G01*
%TO.C,MX9*%
X54736880Y75247794D02*
X52196880Y75247794D01*
X54736880Y77787794D02*
X54736880Y75247794D01*
D11*
X52924880Y78437794D02*
X52924880Y74037794D01*
X52924880Y78437794D02*
X43624880Y78437794D01*
D10*
X52196880Y75247794D02*
X52196880Y77787794D01*
X52196880Y77787794D02*
X54736880Y77787794D01*
D11*
X47224880Y74037794D02*
X52924880Y74037794D01*
D10*
X41782880Y72707794D02*
X41782880Y75247794D01*
X41782880Y75247794D02*
X39242880Y75247794D01*
D11*
X41124880Y72037794D02*
X45224880Y72037794D01*
X41124880Y75937794D02*
X41124880Y72037794D01*
D10*
X39242880Y72707794D02*
X41782880Y72707794D01*
X39242880Y75247794D02*
X39242880Y72707794D01*
D11*
X47224880Y74037794D02*
G75*
G03*
X45224880Y72037794I-1J-1999999D01*
G01*
X43624880Y78437794D02*
G75*
G03*
X41124880Y75937794I0J-2500000D01*
G01*
D10*
X51688880Y76517794D02*
G75*
G03*
X51688880Y76517794I-1524000J0D01*
G01*
X45338880Y73977794D02*
G75*
G03*
X45338880Y73977794I-1524000J0D01*
G01*
%TO.C,MX27*%
X149986880Y75247794D02*
X147446880Y75247794D01*
X149986880Y77787794D02*
X149986880Y75247794D01*
D11*
X148174880Y78437794D02*
X148174880Y74037794D01*
X148174880Y78437794D02*
X138874880Y78437794D01*
D10*
X147446880Y75247794D02*
X147446880Y77787794D01*
X147446880Y77787794D02*
X149986880Y77787794D01*
D11*
X142474880Y74037794D02*
X148174880Y74037794D01*
D10*
X137032880Y72707794D02*
X137032880Y75247794D01*
X137032880Y75247794D02*
X134492880Y75247794D01*
D11*
X136374880Y72037794D02*
X140474880Y72037794D01*
X136374880Y75937794D02*
X136374880Y72037794D01*
D10*
X134492880Y72707794D02*
X137032880Y72707794D01*
X134492880Y75247794D02*
X134492880Y72707794D01*
D11*
X142474880Y74037794D02*
G75*
G03*
X140474880Y72037794I-1J-1999999D01*
G01*
X138874880Y78437794D02*
G75*
G03*
X136374880Y75937794I0J-2500000D01*
G01*
D10*
X146938880Y76517794D02*
G75*
G03*
X146938880Y76517794I-1524000J0D01*
G01*
X140588880Y73977794D02*
G75*
G03*
X140588880Y73977794I-1524000J0D01*
G01*
D12*
%TO.C,D36*%
X195817271Y46465862D02*
X193517271Y46465862D01*
X195817271Y46465862D02*
X195817271Y51165862D01*
X193517271Y51165862D02*
X193517271Y46465862D01*
X195817271Y51165862D02*
X193517271Y51165862D01*
%TO.C,D26*%
X145830818Y27415846D02*
X143530818Y27415846D01*
X145830818Y27415846D02*
X145830818Y32115846D01*
X143530818Y32115846D02*
X143530818Y27415846D01*
X145830818Y32115846D02*
X143530818Y32115846D01*
D10*
%TO.C,MX11*%
X69024380Y37147744D02*
X66484380Y37147744D01*
X69024380Y39687744D02*
X69024380Y37147744D01*
D11*
X67212380Y40337744D02*
X67212380Y35937744D01*
X67212380Y40337744D02*
X57912380Y40337744D01*
D10*
X66484380Y37147744D02*
X66484380Y39687744D01*
X66484380Y39687744D02*
X69024380Y39687744D01*
D11*
X61512380Y35937744D02*
X67212380Y35937744D01*
D10*
X56070380Y34607744D02*
X56070380Y37147744D01*
X56070380Y37147744D02*
X53530380Y37147744D01*
D11*
X55412380Y33937744D02*
X59512380Y33937744D01*
X55412380Y37837744D02*
X55412380Y33937744D01*
D10*
X53530380Y34607744D02*
X56070380Y34607744D01*
X53530380Y37147744D02*
X53530380Y34607744D01*
D11*
X61512380Y35937744D02*
G75*
G03*
X59512380Y33937744I-1J-1999999D01*
G01*
X57912380Y40337744D02*
G75*
G03*
X55412380Y37837744I0J-2500000D01*
G01*
D10*
X65976380Y38417744D02*
G75*
G03*
X65976380Y38417744I-1524000J0D01*
G01*
X59626380Y35877744D02*
G75*
G03*
X59626380Y35877744I-1524000J0D01*
G01*
D12*
%TO.C,R_DATA1*%
X23836313Y55847469D02*
X22896313Y55847469D01*
X22896313Y55847469D02*
X22896313Y53987469D01*
X23836313Y53987469D02*
X23836313Y55847469D01*
X22896313Y53987469D02*
X23836313Y53987469D01*
D10*
%TO.C,MX38*%
X107124380Y13335024D02*
X104584380Y13335024D01*
X107124380Y15875024D02*
X107124380Y13335024D01*
D11*
X105312380Y16525024D02*
X105312380Y12125024D01*
X105312380Y16525024D02*
X96012380Y16525024D01*
D10*
X104584380Y13335024D02*
X104584380Y15875024D01*
X104584380Y15875024D02*
X107124380Y15875024D01*
D11*
X99612380Y12125024D02*
X105312380Y12125024D01*
D10*
X94170380Y10795024D02*
X91630380Y10795024D01*
X94170380Y13335024D02*
X94170380Y10795024D01*
D11*
X93512380Y10125024D02*
X97612380Y10125024D01*
X93512380Y14025024D02*
X93512380Y10125024D01*
D10*
X91630380Y10795024D02*
X91630380Y13335024D01*
X91630380Y13335024D02*
X94170380Y13335024D01*
D11*
X99612380Y12125024D02*
G75*
G03*
X97612380Y10125024I-1J-1999999D01*
G01*
X96012380Y16525024D02*
G75*
G03*
X93512380Y14025024I0J-2500000D01*
G01*
D10*
X104076380Y14605024D02*
G75*
G03*
X104076380Y14605024I-1524000J0D01*
G01*
X97726380Y12065024D02*
G75*
G03*
X97726380Y12065024I-1524000J0D01*
G01*
D12*
%TO.C,D15*%
X88680770Y27415846D02*
X86380770Y27415846D01*
X88680770Y27415846D02*
X88680770Y32115846D01*
X86380770Y32115846D02*
X86380770Y27415846D01*
X88680770Y32115846D02*
X86380770Y32115846D01*
%TO.C,D14*%
X79135923Y46465862D02*
X76835923Y46465862D01*
X79135923Y46465862D02*
X79135923Y51165862D01*
X76835923Y51165862D02*
X76835923Y46465862D01*
X79135923Y51165862D02*
X76835923Y51165862D01*
%TO.C,C_Crystal2*%
X28670956Y30886206D02*
X29321494Y31536744D01*
X29321494Y31536744D02*
X28034560Y32823678D01*
X27384022Y32173140D02*
X28670956Y30886206D01*
X28034560Y32823678D02*
X27384022Y32173140D01*
D10*
%TO.C,MX5*%
X35686880Y75247794D02*
X33146880Y75247794D01*
X35686880Y77787794D02*
X35686880Y75247794D01*
D11*
X33874880Y78437794D02*
X33874880Y74037794D01*
X33874880Y78437794D02*
X24574880Y78437794D01*
D10*
X33146880Y75247794D02*
X33146880Y77787794D01*
X33146880Y77787794D02*
X35686880Y77787794D01*
D11*
X28174880Y74037794D02*
X33874880Y74037794D01*
D10*
X22732880Y72707794D02*
X22732880Y75247794D01*
X22732880Y75247794D02*
X20192880Y75247794D01*
D11*
X22074880Y72037794D02*
X26174880Y72037794D01*
X22074880Y75937794D02*
X22074880Y72037794D01*
D10*
X20192880Y72707794D02*
X22732880Y72707794D01*
X20192880Y75247794D02*
X20192880Y72707794D01*
D11*
X28174880Y74037794D02*
G75*
G03*
X26174880Y72037794I-1J-1999999D01*
G01*
X24574880Y78437794D02*
G75*
G03*
X22074880Y75937794I0J-2500000D01*
G01*
D10*
X32638880Y76517794D02*
G75*
G03*
X32638880Y76517794I-1524000J0D01*
G01*
X26288880Y73977794D02*
G75*
G03*
X26288880Y73977794I-1524000J0D01*
G01*
D12*
%TO.C,R_Flash1*%
X37379474Y64872768D02*
X36439474Y64872768D01*
X36439474Y64872768D02*
X36439474Y63012768D01*
X37379474Y63012768D02*
X37379474Y64872768D01*
X36439474Y63012768D02*
X37379474Y63012768D01*
D10*
%TO.C,MX8*%
X35686880Y18097794D02*
X33146880Y18097794D01*
X35686880Y20637794D02*
X35686880Y18097794D01*
D11*
X33874880Y21287794D02*
X33874880Y16887794D01*
X33874880Y21287794D02*
X24574880Y21287794D01*
D10*
X33146880Y18097794D02*
X33146880Y20637794D01*
X33146880Y20637794D02*
X35686880Y20637794D01*
D11*
X28174880Y16887794D02*
X33874880Y16887794D01*
D10*
X22732880Y15557794D02*
X22732880Y18097794D01*
X22732880Y18097794D02*
X20192880Y18097794D01*
D11*
X22074880Y14887794D02*
X26174880Y14887794D01*
X22074880Y18787794D02*
X22074880Y14887794D01*
D10*
X20192880Y15557794D02*
X22732880Y15557794D01*
X20192880Y18097794D02*
X20192880Y15557794D01*
D11*
X28174880Y16887794D02*
G75*
G03*
X26174880Y14887794I-1J-1999999D01*
G01*
X24574880Y21287794D02*
G75*
G03*
X22074880Y18787794I0J-2500000D01*
G01*
D10*
X32638880Y19367794D02*
G75*
G03*
X32638880Y19367794I-1524000J0D01*
G01*
X26288880Y16827794D02*
G75*
G03*
X26288880Y16827794I-1524000J0D01*
G01*
D12*
%TO.C,D11*%
X69630754Y27415846D02*
X67330754Y27415846D01*
X69630754Y27415846D02*
X69630754Y32115846D01*
X67330754Y32115846D02*
X67330754Y27415846D01*
X69630754Y32115846D02*
X67330754Y32115846D01*
%TO.C,D28*%
X155335987Y46465862D02*
X153035987Y46465862D01*
X155335987Y46465862D02*
X155335987Y51165862D01*
X153035987Y51165862D02*
X153035987Y46465862D01*
X155335987Y51165862D02*
X153035987Y51165862D01*
D10*
%TO.C,MX25*%
X135699380Y56197794D02*
X133159380Y56197794D01*
X135699380Y58737794D02*
X135699380Y56197794D01*
D11*
X133887380Y59387794D02*
X133887380Y54987794D01*
X133887380Y59387794D02*
X124587380Y59387794D01*
D10*
X133159380Y56197794D02*
X133159380Y58737794D01*
X133159380Y58737794D02*
X135699380Y58737794D01*
D11*
X128187380Y54987794D02*
X133887380Y54987794D01*
D10*
X122745380Y53657794D02*
X122745380Y56197794D01*
X122745380Y56197794D02*
X120205380Y56197794D01*
D11*
X122087380Y52987794D02*
X126187380Y52987794D01*
X122087380Y56887794D02*
X122087380Y52987794D01*
D10*
X120205380Y53657794D02*
X122745380Y53657794D01*
X120205380Y56197794D02*
X120205380Y53657794D01*
D11*
X128187380Y54987794D02*
G75*
G03*
X126187380Y52987794I-1J-1999999D01*
G01*
X124587380Y59387794D02*
G75*
G03*
X122087380Y56887794I0J-2500000D01*
G01*
D10*
X132651380Y57467794D02*
G75*
G03*
X132651380Y57467794I-1524000J0D01*
G01*
X126301380Y54927794D02*
G75*
G03*
X126301380Y54927794I-1524000J0D01*
G01*
D12*
%TO.C,C_3V-Decoup2*%
X24741090Y47905480D02*
X25661090Y47905480D01*
X25661090Y47905480D02*
X25661090Y49725480D01*
X24741090Y49725480D02*
X24741090Y47905480D01*
X25661090Y49725480D02*
X24741090Y49725480D01*
D10*
%TO.C,MX28*%
X154749380Y56197794D02*
X152209380Y56197794D01*
X154749380Y58737794D02*
X154749380Y56197794D01*
D11*
X152937380Y59387794D02*
X152937380Y54987794D01*
X152937380Y59387794D02*
X143637380Y59387794D01*
D10*
X152209380Y56197794D02*
X152209380Y58737794D01*
X152209380Y58737794D02*
X154749380Y58737794D01*
D11*
X147237380Y54987794D02*
X152937380Y54987794D01*
D10*
X141795380Y53657794D02*
X141795380Y56197794D01*
X141795380Y56197794D02*
X139255380Y56197794D01*
D11*
X141137380Y52987794D02*
X145237380Y52987794D01*
X141137380Y56887794D02*
X141137380Y52987794D01*
D10*
X139255380Y53657794D02*
X141795380Y53657794D01*
X139255380Y56197794D02*
X139255380Y53657794D01*
D11*
X147237380Y54987794D02*
G75*
G03*
X145237380Y52987794I-1J-1999999D01*
G01*
X143637380Y59387794D02*
G75*
G03*
X141137380Y56887794I0J-2500000D01*
G01*
D10*
X151701380Y57467794D02*
G75*
G03*
X151701380Y57467794I-1524000J0D01*
G01*
X145351380Y54927794D02*
G75*
G03*
X145351380Y54927794I-1524000J0D01*
G01*
%TO.C,MX23*%
X126174380Y13335024D02*
X123634380Y13335024D01*
X126174380Y15875024D02*
X126174380Y13335024D01*
D11*
X124362380Y16525024D02*
X124362380Y12125024D01*
X124362380Y16525024D02*
X115062380Y16525024D01*
D10*
X123634380Y13335024D02*
X123634380Y15875024D01*
X123634380Y15875024D02*
X126174380Y15875024D01*
D11*
X118662380Y12125024D02*
X124362380Y12125024D01*
D10*
X113220380Y10795024D02*
X110680380Y10795024D01*
X113220380Y13335024D02*
X113220380Y10795024D01*
D11*
X112562380Y10125024D02*
X116662380Y10125024D01*
X112562380Y14025024D02*
X112562380Y10125024D01*
D10*
X110680380Y10795024D02*
X110680380Y13335024D01*
X110680380Y13335024D02*
X113220380Y13335024D01*
D11*
X118662380Y12125024D02*
G75*
G03*
X116662380Y10125024I-1J-1999999D01*
G01*
X115062380Y16525024D02*
G75*
G03*
X112562380Y14025024I0J-2500000D01*
G01*
D10*
X123126380Y14605024D02*
G75*
G03*
X123126380Y14605024I-1524000J0D01*
G01*
X116776380Y12065024D02*
G75*
G03*
X116776380Y12065024I-1524000J0D01*
G01*
D12*
%TO.C,C_LD2*%
X12339251Y63875627D02*
X13259251Y63875627D01*
X13259251Y63875627D02*
X13259251Y65695627D01*
X12339251Y65695627D02*
X12339251Y63875627D01*
X13259251Y65695627D02*
X12339251Y65695627D01*
D10*
%TO.C,MX19*%
X88074380Y13335294D02*
X85534380Y13335294D01*
X88074380Y15875294D02*
X88074380Y13335294D01*
D11*
X86262380Y16525294D02*
X86262380Y12125294D01*
X86262380Y16525294D02*
X76962380Y16525294D01*
D10*
X85534380Y13335294D02*
X85534380Y15875294D01*
X85534380Y15875294D02*
X88074380Y15875294D01*
D11*
X80562380Y12125294D02*
X86262380Y12125294D01*
D10*
X75120380Y10795294D02*
X72580380Y10795294D01*
X75120380Y13335294D02*
X75120380Y10795294D01*
D11*
X74462380Y10125294D02*
X78562380Y10125294D01*
X74462380Y14025294D02*
X74462380Y10125294D01*
D10*
X72580380Y10795294D02*
X72580380Y13335294D01*
X72580380Y13335294D02*
X75120380Y13335294D01*
D11*
X80562380Y12125294D02*
G75*
G03*
X78562380Y10125294I-1J-1999999D01*
G01*
X76962380Y16525294D02*
G75*
G03*
X74462380Y14025294I0J-2500000D01*
G01*
D10*
X85026380Y14605294D02*
G75*
G03*
X85026380Y14605294I-1524000J0D01*
G01*
X78676380Y12065294D02*
G75*
G03*
X78676380Y12065294I-1524000J0D01*
G01*
D12*
%TO.C,D7*%
X50580738Y27415846D02*
X48280738Y27415846D01*
X50580738Y27415846D02*
X50580738Y32115846D01*
X48280738Y32115846D02*
X48280738Y27415846D01*
X50580738Y32115846D02*
X48280738Y32115846D01*
D10*
%TO.C,MX29*%
X164274380Y37147794D02*
X161734380Y37147794D01*
X164274380Y39687794D02*
X164274380Y37147794D01*
D11*
X162462380Y40337794D02*
X162462380Y35937794D01*
X162462380Y40337794D02*
X153162380Y40337794D01*
D10*
X161734380Y37147794D02*
X161734380Y39687794D01*
X161734380Y39687794D02*
X164274380Y39687794D01*
D11*
X156762380Y35937794D02*
X162462380Y35937794D01*
D10*
X151320380Y34607794D02*
X151320380Y37147794D01*
X151320380Y37147794D02*
X148780380Y37147794D01*
D11*
X150662380Y33937794D02*
X154762380Y33937794D01*
X150662380Y37837794D02*
X150662380Y33937794D01*
D10*
X148780380Y34607794D02*
X151320380Y34607794D01*
X148780380Y37147794D02*
X148780380Y34607794D01*
D11*
X156762380Y35937794D02*
G75*
G03*
X154762380Y33937794I-1J-1999999D01*
G01*
X153162380Y40337794D02*
G75*
G03*
X150662380Y37837794I0J-2500000D01*
G01*
D10*
X161226380Y38417794D02*
G75*
G03*
X161226380Y38417794I-1524000J0D01*
G01*
X154876380Y35877794D02*
G75*
G03*
X154876380Y35877794I-1524000J0D01*
G01*
D12*
%TO.C,C_3V-Decoup9*%
X34244343Y42135201D02*
X33324343Y42135201D01*
X33324343Y42135201D02*
X33324343Y40315201D01*
X34244343Y40315201D02*
X34244343Y42135201D01*
X33324343Y40315201D02*
X34244343Y40315201D01*
D10*
%TO.C,MX37*%
X197611880Y18097794D02*
X195071880Y18097794D01*
X197611880Y20637794D02*
X197611880Y18097794D01*
D11*
X195799880Y21287794D02*
X195799880Y16887794D01*
X195799880Y21287794D02*
X186499880Y21287794D01*
D10*
X195071880Y18097794D02*
X195071880Y20637794D01*
X195071880Y20637794D02*
X197611880Y20637794D01*
D11*
X190099880Y16887794D02*
X195799880Y16887794D01*
D10*
X184657880Y15557794D02*
X184657880Y18097794D01*
X184657880Y18097794D02*
X182117880Y18097794D01*
D11*
X183999880Y14887794D02*
X188099880Y14887794D01*
X183999880Y18787794D02*
X183999880Y14887794D01*
D10*
X182117880Y15557794D02*
X184657880Y15557794D01*
X182117880Y18097794D02*
X182117880Y15557794D01*
D11*
X190099880Y16887794D02*
G75*
G03*
X188099880Y14887794I-1J-1999999D01*
G01*
X186499880Y21287794D02*
G75*
G03*
X183999880Y18787794I0J-2500000D01*
G01*
D10*
X194563880Y19367794D02*
G75*
G03*
X194563880Y19367794I-1524000J0D01*
G01*
X188213880Y16827794D02*
G75*
G03*
X188213880Y16827794I-1524000J0D01*
G01*
%TO.C,MX2*%
X9620130Y54927794D02*
G75*
G03*
X9620130Y54927794I-1524000J0D01*
G01*
X15970130Y57467794D02*
G75*
G03*
X15970130Y57467794I-1524000J0D01*
G01*
D11*
X7906130Y59387794D02*
G75*
G03*
X5406130Y56887794I0J-2500000D01*
G01*
X11506130Y54987794D02*
G75*
G03*
X9506130Y52987794I-1J-1999999D01*
G01*
D10*
X3524130Y56197794D02*
X6064130Y56197794D01*
X3524130Y53657794D02*
X3524130Y56197794D01*
D11*
X5406130Y56887794D02*
X5406130Y52987794D01*
X5406130Y52987794D02*
X9506130Y52987794D01*
D10*
X6064130Y56197794D02*
X6064130Y53657794D01*
X6064130Y53657794D02*
X3524130Y53657794D01*
D11*
X11506130Y54987794D02*
X17206130Y54987794D01*
D10*
X16478130Y58737794D02*
X19018130Y58737794D01*
X16478130Y56197794D02*
X16478130Y58737794D01*
D11*
X17206130Y59387794D02*
X7906130Y59387794D01*
X17206130Y59387794D02*
X17206130Y54987794D01*
D10*
X19018130Y58737794D02*
X19018130Y56197794D01*
X19018130Y56197794D02*
X16478130Y56197794D01*
D12*
%TO.C,D29*%
X164880834Y27415846D02*
X162580834Y27415846D01*
X164880834Y27415846D02*
X164880834Y32115846D01*
X162580834Y32115846D02*
X162580834Y27415846D01*
X164880834Y32115846D02*
X162580834Y32115846D01*
%TO.C,U1*%
X33290386Y38742608D02*
X25050386Y38742608D01*
X33290386Y46982608D02*
X33290386Y38742608D01*
X25050386Y38742608D02*
X25050386Y46982608D01*
X25050386Y46982608D02*
X33290386Y46982608D01*
D10*
%TO.C,MX20*%
X111886880Y75247794D02*
X109346880Y75247794D01*
X111886880Y77787794D02*
X111886880Y75247794D01*
D11*
X110074880Y78437794D02*
X110074880Y74037794D01*
X110074880Y78437794D02*
X100774880Y78437794D01*
D10*
X109346880Y75247794D02*
X109346880Y77787794D01*
X109346880Y77787794D02*
X111886880Y77787794D01*
D11*
X104374880Y74037794D02*
X110074880Y74037794D01*
D10*
X98932880Y72707794D02*
X98932880Y75247794D01*
X98932880Y75247794D02*
X96392880Y75247794D01*
D11*
X98274880Y72037794D02*
X102374880Y72037794D01*
X98274880Y75937794D02*
X98274880Y72037794D01*
D10*
X96392880Y72707794D02*
X98932880Y72707794D01*
X96392880Y75247794D02*
X96392880Y72707794D01*
D11*
X104374880Y74037794D02*
G75*
G03*
X102374880Y72037794I-1J-1999999D01*
G01*
X100774880Y78437794D02*
G75*
G03*
X98274880Y75937794I0J-2500000D01*
G01*
D10*
X108838880Y76517794D02*
G75*
G03*
X108838880Y76517794I-1524000J0D01*
G01*
X102488880Y73977794D02*
G75*
G03*
X102488880Y73977794I-1524000J0D01*
G01*
D12*
%TO.C,D8*%
X36273387Y5984578D02*
X33973387Y5984578D01*
X36273387Y5984578D02*
X36273387Y10684578D01*
X33973387Y10684578D02*
X33973387Y5984578D01*
X36273387Y10684578D02*
X33973387Y10684578D01*
%TO.C,U3*%
X13778164Y60885627D02*
X13778164Y64725627D01*
X17178164Y60885627D02*
X13778164Y60885627D01*
X13778164Y64725627D02*
X17178164Y64725627D01*
X17178164Y64725627D02*
X17178164Y60885627D01*
%TO.C,D3*%
X24367484Y27428249D02*
X22067484Y27428249D01*
X24367484Y27428249D02*
X24367484Y32128249D01*
X22067484Y32128249D02*
X22067484Y27428249D01*
X24367484Y32128249D02*
X22067484Y32128249D01*
%TO.C,D5*%
X36273526Y65813453D02*
X33973526Y65813453D01*
X36273526Y65813453D02*
X36273526Y70513453D01*
X33973526Y70513453D02*
X33973526Y65813453D01*
X36273526Y70513453D02*
X33973526Y70513453D01*
%TO.C,R_Flash3*%
X37630100Y63012768D02*
X38570100Y63012768D01*
X38570100Y63012768D02*
X38570100Y64872768D01*
X37630100Y64872768D02*
X37630100Y63012768D01*
X38570100Y64872768D02*
X37630100Y64872768D01*
D10*
%TO.C,MX21*%
X116649380Y56197794D02*
X114109380Y56197794D01*
X116649380Y58737794D02*
X116649380Y56197794D01*
D11*
X114837380Y59387794D02*
X114837380Y54987794D01*
X114837380Y59387794D02*
X105537380Y59387794D01*
D10*
X114109380Y56197794D02*
X114109380Y58737794D01*
X114109380Y58737794D02*
X116649380Y58737794D01*
D11*
X109137380Y54987794D02*
X114837380Y54987794D01*
D10*
X103695380Y53657794D02*
X103695380Y56197794D01*
X103695380Y56197794D02*
X101155380Y56197794D01*
D11*
X103037380Y52987794D02*
X107137380Y52987794D01*
X103037380Y56887794D02*
X103037380Y52987794D01*
D10*
X101155380Y53657794D02*
X103695380Y53657794D01*
X101155380Y56197794D02*
X101155380Y53657794D01*
D11*
X109137380Y54987794D02*
G75*
G03*
X107137380Y52987794I-1J-1999999D01*
G01*
X105537380Y59387794D02*
G75*
G03*
X103037380Y56887794I0J-2500000D01*
G01*
D10*
X113601380Y57467794D02*
G75*
G03*
X113601380Y57467794I-1524000J0D01*
G01*
X107251380Y54927794D02*
G75*
G03*
X107251380Y54927794I-1524000J0D01*
G01*
D12*
%TO.C,U2*%
X51084492Y59687768D02*
X41784492Y59687768D01*
X51084492Y65407768D02*
X51084492Y59687768D01*
X41784492Y59687768D02*
X41784492Y65407768D01*
X41784492Y65407768D02*
X51084492Y65407768D01*
%TO.C,C_3V-Decoup3*%
X28362986Y48203138D02*
X29282986Y48203138D01*
X29282986Y48203138D02*
X29282986Y50023138D01*
X28362986Y50023138D02*
X28362986Y48203138D01*
X29282986Y50023138D02*
X28362986Y50023138D01*
%TO.C,D1*%
X17223478Y65813453D02*
X14923478Y65813453D01*
X17223478Y65813453D02*
X17223478Y70513453D01*
X14923478Y70513453D02*
X14923478Y65813453D01*
X17223478Y70513453D02*
X14923478Y70513453D01*
%TO.C,D20*%
X112473718Y65813453D02*
X110173718Y65813453D01*
X112473718Y65813453D02*
X112473718Y70513453D01*
X110173718Y70513453D02*
X110173718Y65813453D01*
X112473718Y70513453D02*
X110173718Y70513453D01*
D10*
%TO.C,MX34*%
X178561880Y18097794D02*
X176021880Y18097794D01*
X178561880Y20637794D02*
X178561880Y18097794D01*
D11*
X176749880Y21287794D02*
X176749880Y16887794D01*
X176749880Y21287794D02*
X167449880Y21287794D01*
D10*
X176021880Y18097794D02*
X176021880Y20637794D01*
X176021880Y20637794D02*
X178561880Y20637794D01*
D11*
X171049880Y16887794D02*
X176749880Y16887794D01*
D10*
X165607880Y15557794D02*
X165607880Y18097794D01*
X165607880Y18097794D02*
X163067880Y18097794D01*
D11*
X164949880Y14887794D02*
X169049880Y14887794D01*
X164949880Y18787794D02*
X164949880Y14887794D01*
D10*
X163067880Y15557794D02*
X165607880Y15557794D01*
X163067880Y18097794D02*
X163067880Y15557794D01*
D11*
X171049880Y16887794D02*
G75*
G03*
X169049880Y14887794I-1J-1999999D01*
G01*
X167449880Y21287794D02*
G75*
G03*
X164949880Y18787794I0J-2500000D01*
G01*
D10*
X175513880Y19367794D02*
G75*
G03*
X175513880Y19367794I-1524000J0D01*
G01*
X169163880Y16827794D02*
G75*
G03*
X169163880Y16827794I-1524000J0D01*
G01*
%TO.C,MX3*%
X23780630Y37147794D02*
X21240630Y37147794D01*
X23780630Y39687794D02*
X23780630Y37147794D01*
D11*
X21968630Y40337794D02*
X21968630Y35937794D01*
X21968630Y40337794D02*
X12668630Y40337794D01*
D10*
X21240630Y37147794D02*
X21240630Y39687794D01*
X21240630Y39687794D02*
X23780630Y39687794D01*
D11*
X16268630Y35937794D02*
X21968630Y35937794D01*
D10*
X10826630Y34607794D02*
X8286630Y34607794D01*
X10826630Y37147794D02*
X10826630Y34607794D01*
D11*
X10168630Y33937794D02*
X14268630Y33937794D01*
X10168630Y37837794D02*
X10168630Y33937794D01*
D10*
X8286630Y34607794D02*
X8286630Y37147794D01*
X8286630Y37147794D02*
X10826630Y37147794D01*
D11*
X16268630Y35937794D02*
G75*
G03*
X14268630Y33937794I-1J-1999999D01*
G01*
X12668630Y40337794D02*
G75*
G03*
X10168630Y37837794I0J-2500000D01*
G01*
D10*
X20732630Y38417794D02*
G75*
G03*
X20732630Y38417794I-1524000J0D01*
G01*
X14382630Y35877794D02*
G75*
G03*
X14382630Y35877794I-1524000J0D01*
G01*
D12*
%TO.C,D12*%
X55323403Y5984578D02*
X53023403Y5984578D01*
X55323403Y5984578D02*
X55323403Y10684578D01*
X53023403Y10684578D02*
X53023403Y5984578D01*
X55323403Y10684578D02*
X53023403Y10684578D01*
%TD*%
M02*
