%TF.GenerationSoftware,KiCad,Pcbnew,7.0.6*%
%TF.CreationDate,2023-09-25T15:03:34-04:00*%
%TF.ProjectId,ortho-dual-stagger-cutiepie-plate,6f727468-6f2d-4647-9561-6c2d73746167,rev?*%
%TF.SameCoordinates,PX3164967PY797ec76*%
%TF.FileFunction,Profile,NP*%
%FSLAX46Y46*%
G04 Gerber Fmt 4.6, Leading zero omitted, Abs format (unit mm)*
G04 Created by KiCad (PCBNEW 7.0.6) date 2023-09-25 15:03:34*
%MOMM*%
%LPD*%
G01*
G04 APERTURE LIST*
%TA.AperFunction,Profile*%
%ADD10C,0.250000*%
%TD*%
%ADD11C,0.250000*%
G04 APERTURE END LIST*
D10*
X92725587Y79174837D02*
X92725587Y66174837D01*
D11*
X177950391Y22524837D02*
X178209659Y22452451D01*
X178390043Y22263167D01*
X178450391Y22024837D01*
D10*
X97463668Y60124837D02*
X97463668Y47124837D01*
X6828356Y0D02*
X15571504Y-92D01*
D11*
X15571504Y-92D02*
X15866843Y21824D01*
X16153175Y86353D01*
X16426072Y191663D01*
X16681108Y335921D01*
X16913858Y517292D01*
X16985724Y585680D01*
D10*
X194611064Y583820D02*
X199439574Y5412229D01*
X54125195Y8524837D02*
X41125195Y8524837D01*
X181119141Y47206689D02*
X181119141Y47119689D01*
D11*
X2525793Y60124837D02*
X2598179Y60384106D01*
X2787463Y60564490D01*
X3025793Y60624837D01*
X196999793Y65674837D02*
X197259061Y65747224D01*
X197439445Y65936508D01*
X197499793Y66174837D01*
D10*
X96900891Y17757189D02*
X103124891Y17757189D01*
X21575587Y9024837D02*
X21575587Y22024837D01*
D11*
X184778860Y88199736D02*
X184483520Y88177818D01*
X184197189Y88113286D01*
X183924294Y88007973D01*
X183669259Y87863713D01*
X183436511Y87682339D01*
X183364647Y87613950D01*
D10*
X145400391Y9024837D02*
X145400391Y22024837D01*
D11*
X22050668Y46624837D02*
X21791399Y46697224D01*
X21611015Y46886508D01*
X21550668Y47124837D01*
D10*
X73175587Y65674837D02*
X60175588Y65674837D01*
X164950391Y22524837D02*
X177950391Y22524837D01*
X181119141Y65169689D02*
X181119141Y55206689D01*
D11*
X97463668Y47124837D02*
X97391281Y46865569D01*
X97201997Y46685185D01*
X96963668Y46624837D01*
D10*
X98299793Y65674837D02*
X180619142Y65674837D01*
D11*
X125087891Y19257189D02*
X125160277Y19516458D01*
X125349561Y19696842D01*
X125587891Y19757189D01*
D10*
X197499793Y41074759D02*
X197499793Y28074759D01*
X193197306Y88199736D02*
X184778860Y88199736D01*
X190256621Y85199717D02*
G75*
G03*
X190256621Y85199717I-1350000J0D01*
G01*
X74937998Y19257189D02*
X74937998Y18262189D01*
X190256621Y2998111D02*
G75*
G03*
X190256621Y2998111I-1350000J0D01*
G01*
X75437998Y17762189D02*
X87462998Y17762189D01*
X125587891Y19757189D02*
X134000891Y19757189D01*
D11*
X16525587Y9024837D02*
X16453200Y8765569D01*
X16263916Y8585185D01*
X16025587Y8524837D01*
X110624891Y4262189D02*
X110552504Y4002921D01*
X110363220Y3822537D01*
X110124891Y3762189D01*
D10*
X16525793Y79174837D02*
X16525793Y66174837D01*
D11*
X103037793Y46624759D02*
X102778524Y46697146D01*
X102598140Y46886430D01*
X102537793Y47124759D01*
D10*
X18906793Y60124837D02*
X18906793Y47124837D01*
D11*
X183364191Y583938D02*
X183588524Y390598D01*
X183836620Y233760D01*
X184104053Y115258D01*
X184386396Y36926D01*
X184679224Y596D01*
X184778399Y-1863D01*
X2525587Y22024837D02*
X2597973Y22284106D01*
X2787257Y22464490D01*
X3025587Y22524837D01*
X87462998Y17762189D02*
X87722266Y17689803D01*
X87902650Y17500519D01*
X87962998Y17262189D01*
D10*
X183364647Y87613950D02*
X178536178Y82785481D01*
D11*
X178450391Y9024837D02*
X178378004Y8765569D01*
X178188720Y8585185D01*
X177950391Y8524837D01*
D10*
X177950391Y8524837D02*
X164950391Y8524837D01*
D11*
X16986180Y87613950D02*
X16761844Y87807288D01*
X16513747Y87964123D01*
X16246313Y88082622D01*
X15963968Y88160952D01*
X15671140Y88197279D01*
X15571966Y88199736D01*
X103124891Y17757189D02*
X103384159Y17829576D01*
X103564543Y18018860D01*
X103624891Y18257189D01*
D10*
X2525793Y28074759D02*
X2525793Y41074759D01*
D11*
X89400891Y19262189D02*
X89473277Y19521458D01*
X89662561Y19701842D01*
X89900891Y19762189D01*
D10*
X16025793Y65674837D02*
X3025793Y65674837D01*
X40625195Y66174837D02*
X40625195Y79174837D01*
D11*
X54625195Y66174837D02*
X54552808Y65915569D01*
X54363524Y65735185D01*
X54125195Y65674837D01*
D10*
X184778399Y-1863D02*
X193196845Y-1951D01*
X21550668Y47124837D02*
X21550668Y60124837D01*
D11*
X40625195Y22024837D02*
X40697581Y22284106D01*
X40886865Y22464490D01*
X41125195Y22524837D01*
D10*
X96963668Y46624837D02*
X22050668Y46624837D01*
D11*
X41125195Y65674837D02*
X40865926Y65747224D01*
X40685542Y65936508D01*
X40625195Y66174837D01*
D10*
X35575587Y79174837D02*
X35575587Y66174837D01*
D11*
X197499793Y60124759D02*
X197427406Y60384028D01*
X197238122Y60564412D01*
X196999793Y60624759D01*
X16025793Y79674837D02*
X16285061Y79602451D01*
X16465445Y79413167D01*
X16525793Y79174837D01*
X73175587Y79674837D02*
X73434855Y79602451D01*
X73615239Y79413167D01*
X73675587Y79174837D01*
D10*
X125087891Y18262189D02*
X125087891Y19257189D01*
X87962998Y17262189D02*
X87962998Y4262189D01*
X103037793Y60624759D02*
X177949793Y60624759D01*
D11*
X35075587Y22524837D02*
X35334855Y22452451D01*
X35515239Y22263167D01*
X35575587Y22024837D01*
D10*
X391Y44220962D02*
X0Y6828498D01*
X92225587Y65674837D02*
X79225588Y65674837D01*
D11*
X89900891Y3762189D02*
X89641622Y3834576D01*
X89461238Y4023860D01*
X89400891Y4262189D01*
X57253160Y5999689D02*
X57508770Y5986782D01*
X57756997Y5948898D01*
X58112743Y5847990D01*
X58444808Y5697953D01*
X58748949Y5503028D01*
X59020927Y5267456D01*
X59256498Y4995479D01*
X59451423Y4691338D01*
X59601460Y4359273D01*
X59702368Y4003527D01*
X59740252Y3755300D01*
X59753160Y3499689D01*
D10*
X197499998Y22024837D02*
X197499998Y9024837D01*
X195619141Y65674759D02*
X196999793Y65674837D01*
D11*
X21550668Y60124837D02*
X21623054Y60384106D01*
X21812338Y60564490D01*
X22050668Y60624837D01*
X145900391Y8524837D02*
X145641122Y8597224D01*
X145460738Y8786508D01*
X145400391Y9024837D01*
X5414149Y585801D02*
X5638481Y392461D01*
X5886577Y235623D01*
X6154010Y117121D01*
X6436353Y38789D01*
X6729181Y2459D01*
X6828356Y0D01*
D10*
X15571966Y88199736D02*
X6828818Y88199736D01*
X22075588Y79674837D02*
X35075587Y79674837D01*
X78725588Y66174837D02*
X78725588Y79174837D01*
X66024998Y19762189D02*
X74437998Y19762189D01*
D11*
X6828818Y88199736D02*
X6533478Y88177818D01*
X6247147Y88113286D01*
X5974251Y88007973D01*
X5719216Y87863713D01*
X5486468Y87682339D01*
X5414604Y87613950D01*
X21575588Y79174837D02*
X21647974Y79434106D01*
X21837258Y79614490D01*
X22075588Y79674837D01*
D10*
X87462998Y3762189D02*
X66024998Y3762189D01*
D11*
X181119141Y55206689D02*
X181046754Y54947421D01*
X180857470Y54767037D01*
X180619141Y54706689D01*
D10*
X158900391Y8524837D02*
X145900391Y8524837D01*
D11*
X95900891Y19762189D02*
X96160159Y19689803D01*
X96340543Y19500519D01*
X96400891Y19262189D01*
X159400391Y9024837D02*
X159328004Y8765569D01*
X159138720Y8585185D01*
X158900391Y8524837D01*
D10*
X96400891Y19262189D02*
X96400891Y18257189D01*
X159400391Y22024837D02*
X159400391Y9024837D01*
X134500891Y19262189D02*
X134500891Y4262189D01*
X89900891Y19762189D02*
X95900891Y19762189D01*
X54625195Y79174837D02*
X54625195Y66174837D01*
D11*
X197499998Y9024837D02*
X197427611Y8765569D01*
X197238327Y8585185D01*
X196999998Y8524837D01*
D10*
X134000891Y19757189D02*
X134000891Y19762189D01*
D11*
X59753160Y3499689D02*
X59779220Y3155251D01*
X59854842Y2827122D01*
X59976190Y2519139D01*
X60139426Y2235139D01*
X60340714Y1978958D01*
X60576217Y1754434D01*
X60842097Y1565404D01*
X61134518Y1415704D01*
X61449643Y1309172D01*
X61783634Y1249644D01*
X62014883Y1237966D01*
X199439574Y5412229D02*
X199632914Y5636563D01*
X199789752Y5884659D01*
X199908254Y6152092D01*
X199986587Y6434435D01*
X200022916Y6727263D01*
X200025376Y6826437D01*
X41125195Y8524837D02*
X40865926Y8597224D01*
X40685542Y8786508D01*
X40625195Y9024837D01*
D10*
X110624891Y19262189D02*
X110624891Y4262189D01*
X164450391Y9024837D02*
X164450391Y22024837D01*
D11*
X586177Y82785523D02*
X392838Y82561188D01*
X236003Y82313091D01*
X117504Y82045657D01*
X39175Y81763312D01*
X2848Y81470484D01*
X391Y81371309D01*
D10*
X16025587Y8524837D02*
X3025587Y8524837D01*
X65524998Y4262189D02*
X65524998Y19262189D01*
D11*
X74937998Y18262189D02*
X75010384Y18002921D01*
X75199668Y17822537D01*
X75437998Y17762189D01*
X97799793Y66174837D02*
X97872179Y65915569D01*
X98061463Y65735185D01*
X98299793Y65674837D01*
D10*
X23204106Y5999689D02*
X57253160Y5999689D01*
X2525793Y47124837D02*
X2525793Y60124837D01*
D11*
X66024998Y3762189D02*
X65765729Y3834576D01*
X65585345Y4023860D01*
X65524998Y4262189D01*
X35075587Y79674837D02*
X35334855Y79602451D01*
X35515239Y79413167D01*
X35575587Y79174837D01*
X74437998Y19757189D02*
X74697266Y19684803D01*
X74877650Y19495519D01*
X74937998Y19257189D01*
D10*
X183499998Y9024837D02*
X183499998Y22024837D01*
D11*
X183499998Y22024837D02*
X183572384Y22284106D01*
X183761668Y22464490D01*
X183999998Y22524837D01*
X178536178Y82785481D02*
X178311842Y82592143D01*
X178063745Y82435308D01*
X177796311Y82316809D01*
X177513966Y82238479D01*
X177221138Y82202152D01*
X177121964Y82199694D01*
D10*
X54625195Y22024837D02*
X54625195Y9024837D01*
D11*
X180119141Y48206689D02*
X180191527Y47947421D01*
X180380811Y47767037D01*
X180619141Y47706689D01*
X193196845Y-1951D02*
X193492184Y19964D01*
X193778516Y84493D01*
X194051413Y189803D01*
X194306449Y334061D01*
X194539198Y515432D01*
X194611064Y583820D01*
X21814211Y5414065D02*
X22034816Y5604632D01*
X22278564Y5759896D01*
X22541242Y5878082D01*
X22818636Y5957416D01*
X23106534Y5996123D01*
X23204106Y5999689D01*
X181119141Y47119689D02*
X181191527Y46860421D01*
X181380811Y46680037D01*
X181619141Y46619689D01*
X200025774Y81371276D02*
X200003854Y81666617D01*
X199939320Y81952948D01*
X199834006Y82225844D01*
X199689744Y82480878D01*
X199508369Y82713626D01*
X199439980Y82785490D01*
X16025587Y22524837D02*
X16284855Y22452451D01*
X16465239Y22263167D01*
X16525587Y22024837D01*
X194611520Y87613950D02*
X194387184Y87807288D01*
X194139087Y87964123D01*
X193871653Y88082622D01*
X193589308Y88160952D01*
X193296480Y88197279D01*
X193197306Y88199736D01*
D10*
X196999793Y79674837D02*
X98299793Y79674837D01*
X21814607Y82785522D02*
X16986180Y87613950D01*
D11*
X180619141Y65669689D02*
X180878409Y65597303D01*
X181058793Y65408019D01*
X181119141Y65169689D01*
D10*
X35075587Y65674837D02*
X22075588Y65674837D01*
D11*
X60175588Y65674837D02*
X59916319Y65747224D01*
X59735935Y65936508D01*
X59675588Y66174837D01*
X22075587Y8524837D02*
X21816318Y8597224D01*
X21635934Y8786508D01*
X21575587Y9024837D01*
D10*
X16525587Y22024837D02*
X16525587Y9024837D01*
X54125195Y65674837D02*
X41125195Y65674837D01*
X134000891Y3762189D02*
X112562891Y3762189D01*
X197499793Y47124759D02*
X197499793Y60124759D01*
X585772Y5414279D02*
X5414149Y585801D01*
X183999998Y22524837D02*
X196999998Y22524837D01*
D11*
X54625195Y9024837D02*
X54552808Y8765569D01*
X54363524Y8585185D01*
X54125195Y8524837D01*
D10*
X12468932Y2997837D02*
G75*
G03*
X12468932Y2997837I-1350000J0D01*
G01*
D11*
X18906793Y47124837D02*
X18834406Y46865569D01*
X18645122Y46685185D01*
X18406793Y46624837D01*
D10*
X3025793Y79674837D02*
X16025793Y79674837D01*
D11*
X195119141Y65174759D02*
X195191527Y65434028D01*
X195380811Y65614412D01*
X195619141Y65674759D01*
X96400891Y18257189D02*
X96473277Y17997921D01*
X96662561Y17817537D01*
X96900891Y17757189D01*
D10*
X74437998Y19762189D02*
X74437998Y19757189D01*
X177949793Y46624759D02*
X103037793Y46624759D01*
D11*
X177120168Y5999638D02*
X177415511Y5977719D01*
X177701845Y5913185D01*
X177974743Y5807869D01*
X178229780Y5663605D01*
X178462529Y5482227D01*
X178534394Y5413836D01*
D10*
X197499793Y66174837D02*
X197499793Y79174837D01*
D11*
X110124891Y19762189D02*
X110384159Y19689803D01*
X110564543Y19500519D01*
X110624891Y19262189D01*
D10*
X180119141Y54206689D02*
X180119141Y48206689D01*
X200025376Y6826437D02*
X200025774Y81371276D01*
X41125195Y22524837D02*
X54125195Y22524837D01*
X22075587Y22524837D02*
X35075587Y22524837D01*
D11*
X59675588Y79174837D02*
X59747974Y79434106D01*
X59937258Y79614490D01*
X60175588Y79674837D01*
X87962998Y4262189D02*
X87890611Y4002921D01*
X87701327Y3822537D01*
X87462998Y3762189D01*
X145400391Y22024837D02*
X145472777Y22284106D01*
X145662061Y22464490D01*
X145900391Y22524837D01*
D10*
X181619141Y46619689D02*
X196999793Y46624759D01*
X89400891Y4262189D02*
X89400891Y19262189D01*
X104124891Y19762189D02*
X110124891Y19762189D01*
X16985724Y585680D02*
X21814211Y5414065D01*
X2525793Y66174837D02*
X2525793Y79174837D01*
D11*
X21575587Y22024837D02*
X21647973Y22284106D01*
X21837257Y22464490D01*
X22075587Y22524837D01*
X164950391Y8524837D02*
X164691122Y8597224D01*
X164510738Y8786508D01*
X164450391Y9024837D01*
D10*
X5414604Y87613950D02*
X586177Y82785523D01*
D11*
X40625195Y79174837D02*
X40697581Y79434106D01*
X40886865Y79614490D01*
X41125195Y79674837D01*
D10*
X59675588Y66174837D02*
X59675588Y79174837D01*
X195119141Y61124759D02*
X195119141Y65174759D01*
D11*
X197499793Y79174837D02*
X197427406Y79434106D01*
X197238122Y79614490D01*
X196999793Y79674837D01*
X140571111Y3499693D02*
X140584018Y3755304D01*
X140621902Y4003530D01*
X140722811Y4359277D01*
X140872849Y4691341D01*
X141067774Y4995482D01*
X141303346Y5267459D01*
X141575324Y5503030D01*
X141879465Y5697955D01*
X142211530Y5847991D01*
X142567277Y5948899D01*
X142815503Y5986783D01*
X143071114Y5999689D01*
X124587891Y17762189D02*
X124847159Y17834576D01*
X125027543Y18023860D01*
X125087891Y18262189D01*
X177949793Y60624759D02*
X178209061Y60552373D01*
X178389445Y60363089D01*
X178449793Y60124759D01*
X2525793Y79174837D02*
X2598179Y79434106D01*
X2787463Y79614490D01*
X3025793Y79674837D01*
D10*
X102537793Y47124759D02*
X102537793Y60124759D01*
X12468932Y85199736D02*
G75*
G03*
X12468932Y85199736I-1350000J0D01*
G01*
D11*
X3025587Y8524837D02*
X2766318Y8597224D01*
X2585934Y8786508D01*
X2525587Y9024837D01*
X65524998Y19262189D02*
X65597384Y19521458D01*
X65786668Y19701842D01*
X66024998Y19762189D01*
D10*
X60175588Y79674837D02*
X73175587Y79674837D01*
D11*
X112062891Y17262189D02*
X112135277Y17521458D01*
X112324561Y17701842D01*
X112562891Y17762189D01*
D10*
X391Y81371309D02*
X391Y44220962D01*
X178450391Y22024837D02*
X178450391Y9024837D01*
D11*
X134000891Y19762189D02*
X134260159Y19689803D01*
X134440543Y19500519D01*
X134500891Y19262189D01*
X183999998Y8524837D02*
X183740729Y8597224D01*
X183560345Y8786508D01*
X183499998Y9024837D01*
X102537793Y60124759D02*
X102610179Y60384028D01*
X102799463Y60564412D01*
X103037793Y60624759D01*
X180619141Y47706689D02*
X180878409Y47634303D01*
X181058793Y47445019D01*
X181119141Y47206689D01*
X35575587Y66174837D02*
X35503200Y65915569D01*
X35313916Y65735185D01*
X35075587Y65674837D01*
D10*
X178534394Y5413836D02*
X183364191Y583938D01*
D11*
X158900391Y22524837D02*
X159159659Y22452451D01*
X159340043Y22263167D01*
X159400391Y22024837D01*
X18406793Y60624837D02*
X18666061Y60552451D01*
X18846445Y60363167D01*
X18906793Y60124837D01*
D10*
X41125195Y79674837D02*
X54125195Y79674837D01*
X145900391Y22524837D02*
X158900391Y22524837D01*
D11*
X54125195Y22524837D02*
X54384463Y22452451D01*
X54564847Y22263167D01*
X54625195Y22024837D01*
D10*
X40625195Y9024837D02*
X40625195Y22024837D01*
D11*
X196999998Y22524837D02*
X197259266Y22452451D01*
X197439650Y22263167D01*
X197499998Y22024837D01*
D10*
X177121964Y82199694D02*
X23228820Y82199736D01*
D11*
X35575587Y9024837D02*
X35503200Y8765569D01*
X35313916Y8585185D01*
X35075587Y8524837D01*
X78725588Y79174837D02*
X78797974Y79434106D01*
X78987258Y79614490D01*
X79225588Y79674837D01*
X92225587Y79674837D02*
X92484855Y79602451D01*
X92665239Y79413167D01*
X92725587Y79174837D01*
D10*
X79225588Y79674837D02*
X92225587Y79674837D01*
D11*
X3025793Y65674837D02*
X2766524Y65747224D01*
X2586140Y65936508D01*
X2525793Y66174837D01*
D10*
X2525587Y9024837D02*
X2525587Y22024837D01*
D11*
X196999793Y41574759D02*
X197259061Y41502373D01*
X197439445Y41313089D01*
X197499793Y41074759D01*
X103624891Y19262189D02*
X103697277Y19521458D01*
X103886561Y19701842D01*
X104124891Y19762189D01*
D10*
X110124891Y3762189D02*
X89900891Y3762189D01*
D11*
X138309388Y1237966D02*
X138653822Y1264026D01*
X138981949Y1339647D01*
X139289930Y1460993D01*
X139573929Y1624227D01*
X139830109Y1825512D01*
X140054632Y2061011D01*
X140243663Y2326888D01*
X140393365Y2619305D01*
X140499899Y2934426D01*
X140559431Y3268415D01*
X140571111Y3499660D01*
X3025793Y27574759D02*
X2766524Y27647146D01*
X2586140Y27836430D01*
X2525793Y28074759D01*
D10*
X18406793Y46624837D02*
X3025793Y46624837D01*
D11*
X2525793Y41074759D02*
X2598179Y41334028D01*
X2787463Y41514412D01*
X3025793Y41574759D01*
X96963668Y60624837D02*
X97222936Y60552451D01*
X97403320Y60363167D01*
X97463668Y60124837D01*
D10*
X35575587Y22024837D02*
X35575587Y9024837D01*
D11*
X16525793Y66174837D02*
X16453406Y65915569D01*
X16264122Y65735185D01*
X16025793Y65674837D01*
X23228820Y82199736D02*
X22933480Y82221655D01*
X22647150Y82286187D01*
X22374254Y82391500D01*
X22119219Y82535760D01*
X21886471Y82717134D01*
X21814607Y82785522D01*
D10*
X73675587Y79174837D02*
X73675587Y66174837D01*
D11*
X178449793Y47124759D02*
X178377406Y46865491D01*
X178188122Y46685107D01*
X177949793Y46624759D01*
X180619141Y54706689D02*
X180359872Y54634303D01*
X180179488Y54445019D01*
X180119141Y54206689D01*
D10*
X178449793Y60124759D02*
X178449793Y47124759D01*
X143071114Y5999689D02*
X177120168Y5999638D01*
D11*
X195619141Y60624759D02*
X195359872Y60697146D01*
X195179488Y60886430D01*
X195119141Y61124759D01*
X140571111Y3499660D02*
X140571111Y3499693D01*
D10*
X199439980Y82785490D02*
X194611520Y87613950D01*
X97799793Y79174837D02*
X97799793Y66174837D01*
D11*
X79225588Y65674837D02*
X78966319Y65747224D01*
X78785935Y65936508D01*
X78725588Y66174837D01*
D10*
X62014883Y1237966D02*
X138309388Y1237966D01*
X112062891Y4262189D02*
X112062891Y17262189D01*
X35075587Y8524837D02*
X22075587Y8524837D01*
D11*
X196999793Y46624759D02*
X197259061Y46697146D01*
X197439445Y46886430D01*
X197499793Y47124759D01*
D10*
X3025793Y41574759D02*
X196999793Y41574759D01*
D11*
X92725587Y66174837D02*
X92653200Y65915569D01*
X92463916Y65735185D01*
X92225587Y65674837D01*
X98299793Y79674837D02*
X98040524Y79602451D01*
X97860140Y79413167D01*
X97799793Y79174837D01*
X3025793Y46624837D02*
X2766524Y46697224D01*
X2586140Y46886508D01*
X2525793Y47124837D01*
D10*
X22050668Y60624837D02*
X96963668Y60624837D01*
D11*
X134500891Y4262189D02*
X134428504Y4002921D01*
X134239220Y3822537D01*
X134000891Y3762189D01*
D10*
X196999793Y60624759D02*
X195619141Y60624759D01*
X21575588Y66174837D02*
X21575588Y79174837D01*
D11*
X22075588Y65674837D02*
X21816319Y65747224D01*
X21635935Y65936508D01*
X21575588Y66174837D01*
X54125195Y79674837D02*
X54384463Y79602451D01*
X54564847Y79413167D01*
X54625195Y79174837D01*
X73675587Y66174837D02*
X73603200Y65915569D01*
X73413916Y65735185D01*
X73175587Y65674837D01*
X197499793Y28074759D02*
X197427406Y27815491D01*
X197238122Y27635107D01*
X196999793Y27574759D01*
X164450391Y22024837D02*
X164522777Y22284106D01*
X164712061Y22464490D01*
X164950391Y22524837D01*
D10*
X3025587Y22524837D02*
X16025587Y22524837D01*
X196999793Y27574759D02*
X3025793Y27574759D01*
X3025793Y60624837D02*
X18406793Y60624837D01*
X103624891Y18257189D02*
X103624891Y19262189D01*
X112562891Y17762189D02*
X124587891Y17762189D01*
D11*
X0Y6828498D02*
X21915Y6533159D01*
X86444Y6246827D01*
X191754Y5973930D01*
X336012Y5718894D01*
X517383Y5486145D01*
X585772Y5414279D01*
X112562891Y3762189D02*
X112303622Y3834576D01*
X112123238Y4023860D01*
X112062891Y4262189D01*
D10*
X196999998Y8524837D02*
X183999998Y8524837D01*
M02*
