%TF.GenerationSoftware,KiCad,Pcbnew,7.0.6*%
%TF.CreationDate,2023-09-25T15:03:34-04:00*%
%TF.ProjectId,ortho-dual-stagger-cutiepie-plate,6f727468-6f2d-4647-9561-6c2d73746167,rev?*%
%TF.SameCoordinates,PX3164967PY797ec76*%
%TF.FileFunction,Legend,Bot*%
%TF.FilePolarity,Positive*%
%FSLAX46Y46*%
G04 Gerber Fmt 4.6, Leading zero omitted, Abs format (unit mm)*
G04 Created by KiCad (PCBNEW 7.0.6) date 2023-09-25 15:03:34*
%MOMM*%
%LPD*%
G01*
G04 APERTURE LIST*
%ADD10C,0.300000*%
G04 APERTURE END LIST*
D10*
X195613064Y25791747D02*
X195327350Y25791747D01*
X195327350Y25791747D02*
X195184493Y25720318D01*
X195184493Y25720318D02*
X195041636Y25577461D01*
X195041636Y25577461D02*
X194970207Y25291747D01*
X194970207Y25291747D02*
X194970207Y24791747D01*
X194970207Y24791747D02*
X195041636Y24506033D01*
X195041636Y24506033D02*
X195184493Y24363175D01*
X195184493Y24363175D02*
X195327350Y24291747D01*
X195327350Y24291747D02*
X195613064Y24291747D01*
X195613064Y24291747D02*
X195755922Y24363175D01*
X195755922Y24363175D02*
X195898779Y24506033D01*
X195898779Y24506033D02*
X195970207Y24791747D01*
X195970207Y24791747D02*
X195970207Y25291747D01*
X195970207Y25291747D02*
X195898779Y25577461D01*
X195898779Y25577461D02*
X195755922Y25720318D01*
X195755922Y25720318D02*
X195613064Y25791747D01*
X194327350Y24291747D02*
X194327350Y25291747D01*
X194327350Y25006033D02*
X194255921Y25148890D01*
X194255921Y25148890D02*
X194184493Y25220318D01*
X194184493Y25220318D02*
X194041635Y25291747D01*
X194041635Y25291747D02*
X193898778Y25291747D01*
X193613064Y25291747D02*
X193041636Y25291747D01*
X193398779Y25791747D02*
X193398779Y24506033D01*
X193398779Y24506033D02*
X193327350Y24363175D01*
X193327350Y24363175D02*
X193184493Y24291747D01*
X193184493Y24291747D02*
X193041636Y24291747D01*
X192541636Y24291747D02*
X192541636Y25791747D01*
X191898779Y24291747D02*
X191898779Y25077461D01*
X191898779Y25077461D02*
X191970207Y25220318D01*
X191970207Y25220318D02*
X192113064Y25291747D01*
X192113064Y25291747D02*
X192327350Y25291747D01*
X192327350Y25291747D02*
X192470207Y25220318D01*
X192470207Y25220318D02*
X192541636Y25148890D01*
X190970207Y24291747D02*
X191113064Y24363175D01*
X191113064Y24363175D02*
X191184493Y24434604D01*
X191184493Y24434604D02*
X191255921Y24577461D01*
X191255921Y24577461D02*
X191255921Y25006033D01*
X191255921Y25006033D02*
X191184493Y25148890D01*
X191184493Y25148890D02*
X191113064Y25220318D01*
X191113064Y25220318D02*
X190970207Y25291747D01*
X190970207Y25291747D02*
X190755921Y25291747D01*
X190755921Y25291747D02*
X190613064Y25220318D01*
X190613064Y25220318D02*
X190541636Y25148890D01*
X190541636Y25148890D02*
X190470207Y25006033D01*
X190470207Y25006033D02*
X190470207Y24577461D01*
X190470207Y24577461D02*
X190541636Y24434604D01*
X190541636Y24434604D02*
X190613064Y24363175D01*
X190613064Y24363175D02*
X190755921Y24291747D01*
X190755921Y24291747D02*
X190970207Y24291747D01*
X188041636Y24291747D02*
X188041636Y25077461D01*
X188041636Y25077461D02*
X188113064Y25220318D01*
X188113064Y25220318D02*
X188255921Y25291747D01*
X188255921Y25291747D02*
X188541636Y25291747D01*
X188541636Y25291747D02*
X188684493Y25220318D01*
X188041636Y24363175D02*
X188184493Y24291747D01*
X188184493Y24291747D02*
X188541636Y24291747D01*
X188541636Y24291747D02*
X188684493Y24363175D01*
X188684493Y24363175D02*
X188755921Y24506033D01*
X188755921Y24506033D02*
X188755921Y24648890D01*
X188755921Y24648890D02*
X188684493Y24791747D01*
X188684493Y24791747D02*
X188541636Y24863175D01*
X188541636Y24863175D02*
X188184493Y24863175D01*
X188184493Y24863175D02*
X188041636Y24934604D01*
X187327350Y25291747D02*
X187327350Y24291747D01*
X187327350Y25148890D02*
X187255921Y25220318D01*
X187255921Y25220318D02*
X187113064Y25291747D01*
X187113064Y25291747D02*
X186898778Y25291747D01*
X186898778Y25291747D02*
X186755921Y25220318D01*
X186755921Y25220318D02*
X186684493Y25077461D01*
X186684493Y25077461D02*
X186684493Y24291747D01*
X185327350Y24291747D02*
X185327350Y25791747D01*
X185327350Y24363175D02*
X185470207Y24291747D01*
X185470207Y24291747D02*
X185755921Y24291747D01*
X185755921Y24291747D02*
X185898778Y24363175D01*
X185898778Y24363175D02*
X185970207Y24434604D01*
X185970207Y24434604D02*
X186041635Y24577461D01*
X186041635Y24577461D02*
X186041635Y25006033D01*
X186041635Y25006033D02*
X185970207Y25148890D01*
X185970207Y25148890D02*
X185898778Y25220318D01*
X185898778Y25220318D02*
X185755921Y25291747D01*
X185755921Y25291747D02*
X185470207Y25291747D01*
X185470207Y25291747D02*
X185327350Y25220318D01*
X183470207Y24291747D02*
X183470207Y25791747D01*
X183470207Y25791747D02*
X183113064Y25791747D01*
X183113064Y25791747D02*
X182898778Y25720318D01*
X182898778Y25720318D02*
X182755921Y25577461D01*
X182755921Y25577461D02*
X182684492Y25434604D01*
X182684492Y25434604D02*
X182613064Y25148890D01*
X182613064Y25148890D02*
X182613064Y24934604D01*
X182613064Y24934604D02*
X182684492Y24648890D01*
X182684492Y24648890D02*
X182755921Y24506033D01*
X182755921Y24506033D02*
X182898778Y24363175D01*
X182898778Y24363175D02*
X183113064Y24291747D01*
X183113064Y24291747D02*
X183470207Y24291747D01*
X181327350Y25291747D02*
X181327350Y24291747D01*
X181970207Y25291747D02*
X181970207Y24506033D01*
X181970207Y24506033D02*
X181898778Y24363175D01*
X181898778Y24363175D02*
X181755921Y24291747D01*
X181755921Y24291747D02*
X181541635Y24291747D01*
X181541635Y24291747D02*
X181398778Y24363175D01*
X181398778Y24363175D02*
X181327350Y24434604D01*
X179970207Y24291747D02*
X179970207Y25077461D01*
X179970207Y25077461D02*
X180041635Y25220318D01*
X180041635Y25220318D02*
X180184492Y25291747D01*
X180184492Y25291747D02*
X180470207Y25291747D01*
X180470207Y25291747D02*
X180613064Y25220318D01*
X179970207Y24363175D02*
X180113064Y24291747D01*
X180113064Y24291747D02*
X180470207Y24291747D01*
X180470207Y24291747D02*
X180613064Y24363175D01*
X180613064Y24363175D02*
X180684492Y24506033D01*
X180684492Y24506033D02*
X180684492Y24648890D01*
X180684492Y24648890D02*
X180613064Y24791747D01*
X180613064Y24791747D02*
X180470207Y24863175D01*
X180470207Y24863175D02*
X180113064Y24863175D01*
X180113064Y24863175D02*
X179970207Y24934604D01*
X179041635Y24291747D02*
X179184492Y24363175D01*
X179184492Y24363175D02*
X179255921Y24506033D01*
X179255921Y24506033D02*
X179255921Y25791747D01*
X178470207Y24863175D02*
X177327350Y24863175D01*
X176684492Y24363175D02*
X176470207Y24291747D01*
X176470207Y24291747D02*
X176113064Y24291747D01*
X176113064Y24291747D02*
X175970207Y24363175D01*
X175970207Y24363175D02*
X175898778Y24434604D01*
X175898778Y24434604D02*
X175827349Y24577461D01*
X175827349Y24577461D02*
X175827349Y24720318D01*
X175827349Y24720318D02*
X175898778Y24863175D01*
X175898778Y24863175D02*
X175970207Y24934604D01*
X175970207Y24934604D02*
X176113064Y25006033D01*
X176113064Y25006033D02*
X176398778Y25077461D01*
X176398778Y25077461D02*
X176541635Y25148890D01*
X176541635Y25148890D02*
X176613064Y25220318D01*
X176613064Y25220318D02*
X176684492Y25363175D01*
X176684492Y25363175D02*
X176684492Y25506033D01*
X176684492Y25506033D02*
X176613064Y25648890D01*
X176613064Y25648890D02*
X176541635Y25720318D01*
X176541635Y25720318D02*
X176398778Y25791747D01*
X176398778Y25791747D02*
X176041635Y25791747D01*
X176041635Y25791747D02*
X175827349Y25720318D01*
X175398778Y25291747D02*
X174827350Y25291747D01*
X175184493Y25791747D02*
X175184493Y24506033D01*
X175184493Y24506033D02*
X175113064Y24363175D01*
X175113064Y24363175D02*
X174970207Y24291747D01*
X174970207Y24291747D02*
X174827350Y24291747D01*
X173684493Y24291747D02*
X173684493Y25077461D01*
X173684493Y25077461D02*
X173755921Y25220318D01*
X173755921Y25220318D02*
X173898778Y25291747D01*
X173898778Y25291747D02*
X174184493Y25291747D01*
X174184493Y25291747D02*
X174327350Y25220318D01*
X173684493Y24363175D02*
X173827350Y24291747D01*
X173827350Y24291747D02*
X174184493Y24291747D01*
X174184493Y24291747D02*
X174327350Y24363175D01*
X174327350Y24363175D02*
X174398778Y24506033D01*
X174398778Y24506033D02*
X174398778Y24648890D01*
X174398778Y24648890D02*
X174327350Y24791747D01*
X174327350Y24791747D02*
X174184493Y24863175D01*
X174184493Y24863175D02*
X173827350Y24863175D01*
X173827350Y24863175D02*
X173684493Y24934604D01*
X172327350Y25291747D02*
X172327350Y24077461D01*
X172327350Y24077461D02*
X172398778Y23934604D01*
X172398778Y23934604D02*
X172470207Y23863175D01*
X172470207Y23863175D02*
X172613064Y23791747D01*
X172613064Y23791747D02*
X172827350Y23791747D01*
X172827350Y23791747D02*
X172970207Y23863175D01*
X172327350Y24363175D02*
X172470207Y24291747D01*
X172470207Y24291747D02*
X172755921Y24291747D01*
X172755921Y24291747D02*
X172898778Y24363175D01*
X172898778Y24363175D02*
X172970207Y24434604D01*
X172970207Y24434604D02*
X173041635Y24577461D01*
X173041635Y24577461D02*
X173041635Y25006033D01*
X173041635Y25006033D02*
X172970207Y25148890D01*
X172970207Y25148890D02*
X172898778Y25220318D01*
X172898778Y25220318D02*
X172755921Y25291747D01*
X172755921Y25291747D02*
X172470207Y25291747D01*
X172470207Y25291747D02*
X172327350Y25220318D01*
X170970207Y25291747D02*
X170970207Y24077461D01*
X170970207Y24077461D02*
X171041635Y23934604D01*
X171041635Y23934604D02*
X171113064Y23863175D01*
X171113064Y23863175D02*
X171255921Y23791747D01*
X171255921Y23791747D02*
X171470207Y23791747D01*
X171470207Y23791747D02*
X171613064Y23863175D01*
X170970207Y24363175D02*
X171113064Y24291747D01*
X171113064Y24291747D02*
X171398778Y24291747D01*
X171398778Y24291747D02*
X171541635Y24363175D01*
X171541635Y24363175D02*
X171613064Y24434604D01*
X171613064Y24434604D02*
X171684492Y24577461D01*
X171684492Y24577461D02*
X171684492Y25006033D01*
X171684492Y25006033D02*
X171613064Y25148890D01*
X171613064Y25148890D02*
X171541635Y25220318D01*
X171541635Y25220318D02*
X171398778Y25291747D01*
X171398778Y25291747D02*
X171113064Y25291747D01*
X171113064Y25291747D02*
X170970207Y25220318D01*
X169684492Y24363175D02*
X169827349Y24291747D01*
X169827349Y24291747D02*
X170113064Y24291747D01*
X170113064Y24291747D02*
X170255921Y24363175D01*
X170255921Y24363175D02*
X170327349Y24506033D01*
X170327349Y24506033D02*
X170327349Y25077461D01*
X170327349Y25077461D02*
X170255921Y25220318D01*
X170255921Y25220318D02*
X170113064Y25291747D01*
X170113064Y25291747D02*
X169827349Y25291747D01*
X169827349Y25291747D02*
X169684492Y25220318D01*
X169684492Y25220318D02*
X169613064Y25077461D01*
X169613064Y25077461D02*
X169613064Y24934604D01*
X169613064Y24934604D02*
X170327349Y24791747D01*
X168970207Y24291747D02*
X168970207Y25291747D01*
X168970207Y25006033D02*
X168898778Y25148890D01*
X168898778Y25148890D02*
X168827350Y25220318D01*
X168827350Y25220318D02*
X168684492Y25291747D01*
X168684492Y25291747D02*
X168541635Y25291747D01*
X166898779Y24291747D02*
X166898779Y25791747D01*
X166898779Y25791747D02*
X166327350Y25791747D01*
X166327350Y25791747D02*
X166184493Y25720318D01*
X166184493Y25720318D02*
X166113064Y25648890D01*
X166113064Y25648890D02*
X166041636Y25506033D01*
X166041636Y25506033D02*
X166041636Y25291747D01*
X166041636Y25291747D02*
X166113064Y25148890D01*
X166113064Y25148890D02*
X166184493Y25077461D01*
X166184493Y25077461D02*
X166327350Y25006033D01*
X166327350Y25006033D02*
X166898779Y25006033D01*
X165184493Y24291747D02*
X165327350Y24363175D01*
X165327350Y24363175D02*
X165398779Y24506033D01*
X165398779Y24506033D02*
X165398779Y25791747D01*
X163970208Y24291747D02*
X163970208Y25077461D01*
X163970208Y25077461D02*
X164041636Y25220318D01*
X164041636Y25220318D02*
X164184493Y25291747D01*
X164184493Y25291747D02*
X164470208Y25291747D01*
X164470208Y25291747D02*
X164613065Y25220318D01*
X163970208Y24363175D02*
X164113065Y24291747D01*
X164113065Y24291747D02*
X164470208Y24291747D01*
X164470208Y24291747D02*
X164613065Y24363175D01*
X164613065Y24363175D02*
X164684493Y24506033D01*
X164684493Y24506033D02*
X164684493Y24648890D01*
X164684493Y24648890D02*
X164613065Y24791747D01*
X164613065Y24791747D02*
X164470208Y24863175D01*
X164470208Y24863175D02*
X164113065Y24863175D01*
X164113065Y24863175D02*
X163970208Y24934604D01*
X163470207Y25291747D02*
X162898779Y25291747D01*
X163255922Y25791747D02*
X163255922Y24506033D01*
X163255922Y24506033D02*
X163184493Y24363175D01*
X163184493Y24363175D02*
X163041636Y24291747D01*
X163041636Y24291747D02*
X162898779Y24291747D01*
X161827350Y24363175D02*
X161970207Y24291747D01*
X161970207Y24291747D02*
X162255922Y24291747D01*
X162255922Y24291747D02*
X162398779Y24363175D01*
X162398779Y24363175D02*
X162470207Y24506033D01*
X162470207Y24506033D02*
X162470207Y25077461D01*
X162470207Y25077461D02*
X162398779Y25220318D01*
X162398779Y25220318D02*
X162255922Y25291747D01*
X162255922Y25291747D02*
X161970207Y25291747D01*
X161970207Y25291747D02*
X161827350Y25220318D01*
X161827350Y25220318D02*
X161755922Y25077461D01*
X161755922Y25077461D02*
X161755922Y24934604D01*
X161755922Y24934604D02*
X162470207Y24791747D01*
X160184493Y25291747D02*
X159613065Y25291747D01*
X159970208Y24291747D02*
X159970208Y25577461D01*
X159970208Y25577461D02*
X159898779Y25720318D01*
X159898779Y25720318D02*
X159755922Y25791747D01*
X159755922Y25791747D02*
X159613065Y25791747D01*
X158898779Y24291747D02*
X159041636Y24363175D01*
X159041636Y24363175D02*
X159113065Y24434604D01*
X159113065Y24434604D02*
X159184493Y24577461D01*
X159184493Y24577461D02*
X159184493Y25006033D01*
X159184493Y25006033D02*
X159113065Y25148890D01*
X159113065Y25148890D02*
X159041636Y25220318D01*
X159041636Y25220318D02*
X158898779Y25291747D01*
X158898779Y25291747D02*
X158684493Y25291747D01*
X158684493Y25291747D02*
X158541636Y25220318D01*
X158541636Y25220318D02*
X158470208Y25148890D01*
X158470208Y25148890D02*
X158398779Y25006033D01*
X158398779Y25006033D02*
X158398779Y24577461D01*
X158398779Y24577461D02*
X158470208Y24434604D01*
X158470208Y24434604D02*
X158541636Y24363175D01*
X158541636Y24363175D02*
X158684493Y24291747D01*
X158684493Y24291747D02*
X158898779Y24291747D01*
X157755922Y24291747D02*
X157755922Y25291747D01*
X157755922Y25006033D02*
X157684493Y25148890D01*
X157684493Y25148890D02*
X157613065Y25220318D01*
X157613065Y25220318D02*
X157470207Y25291747D01*
X157470207Y25291747D02*
X157327350Y25291747D01*
X154827351Y24434604D02*
X154898779Y24363175D01*
X154898779Y24363175D02*
X155113065Y24291747D01*
X155113065Y24291747D02*
X155255922Y24291747D01*
X155255922Y24291747D02*
X155470208Y24363175D01*
X155470208Y24363175D02*
X155613065Y24506033D01*
X155613065Y24506033D02*
X155684494Y24648890D01*
X155684494Y24648890D02*
X155755922Y24934604D01*
X155755922Y24934604D02*
X155755922Y25148890D01*
X155755922Y25148890D02*
X155684494Y25434604D01*
X155684494Y25434604D02*
X155613065Y25577461D01*
X155613065Y25577461D02*
X155470208Y25720318D01*
X155470208Y25720318D02*
X155255922Y25791747D01*
X155255922Y25791747D02*
X155113065Y25791747D01*
X155113065Y25791747D02*
X154898779Y25720318D01*
X154898779Y25720318D02*
X154827351Y25648890D01*
X153541637Y25291747D02*
X153541637Y24291747D01*
X154184494Y25291747D02*
X154184494Y24506033D01*
X154184494Y24506033D02*
X154113065Y24363175D01*
X154113065Y24363175D02*
X153970208Y24291747D01*
X153970208Y24291747D02*
X153755922Y24291747D01*
X153755922Y24291747D02*
X153613065Y24363175D01*
X153613065Y24363175D02*
X153541637Y24434604D01*
X153041636Y25291747D02*
X152470208Y25291747D01*
X152827351Y25791747D02*
X152827351Y24506033D01*
X152827351Y24506033D02*
X152755922Y24363175D01*
X152755922Y24363175D02*
X152613065Y24291747D01*
X152613065Y24291747D02*
X152470208Y24291747D01*
X151970208Y24291747D02*
X151970208Y25291747D01*
X151970208Y25791747D02*
X152041636Y25720318D01*
X152041636Y25720318D02*
X151970208Y25648890D01*
X151970208Y25648890D02*
X151898779Y25720318D01*
X151898779Y25720318D02*
X151970208Y25791747D01*
X151970208Y25791747D02*
X151970208Y25648890D01*
X150684493Y24363175D02*
X150827350Y24291747D01*
X150827350Y24291747D02*
X151113065Y24291747D01*
X151113065Y24291747D02*
X151255922Y24363175D01*
X151255922Y24363175D02*
X151327350Y24506033D01*
X151327350Y24506033D02*
X151327350Y25077461D01*
X151327350Y25077461D02*
X151255922Y25220318D01*
X151255922Y25220318D02*
X151113065Y25291747D01*
X151113065Y25291747D02*
X150827350Y25291747D01*
X150827350Y25291747D02*
X150684493Y25220318D01*
X150684493Y25220318D02*
X150613065Y25077461D01*
X150613065Y25077461D02*
X150613065Y24934604D01*
X150613065Y24934604D02*
X151327350Y24791747D01*
X149970208Y25291747D02*
X149970208Y23791747D01*
X149970208Y25220318D02*
X149827351Y25291747D01*
X149827351Y25291747D02*
X149541636Y25291747D01*
X149541636Y25291747D02*
X149398779Y25220318D01*
X149398779Y25220318D02*
X149327351Y25148890D01*
X149327351Y25148890D02*
X149255922Y25006033D01*
X149255922Y25006033D02*
X149255922Y24577461D01*
X149255922Y24577461D02*
X149327351Y24434604D01*
X149327351Y24434604D02*
X149398779Y24363175D01*
X149398779Y24363175D02*
X149541636Y24291747D01*
X149541636Y24291747D02*
X149827351Y24291747D01*
X149827351Y24291747D02*
X149970208Y24363175D01*
X148613065Y24291747D02*
X148613065Y25291747D01*
X148613065Y25791747D02*
X148684493Y25720318D01*
X148684493Y25720318D02*
X148613065Y25648890D01*
X148613065Y25648890D02*
X148541636Y25720318D01*
X148541636Y25720318D02*
X148613065Y25791747D01*
X148613065Y25791747D02*
X148613065Y25648890D01*
X147327350Y24363175D02*
X147470207Y24291747D01*
X147470207Y24291747D02*
X147755922Y24291747D01*
X147755922Y24291747D02*
X147898779Y24363175D01*
X147898779Y24363175D02*
X147970207Y24506033D01*
X147970207Y24506033D02*
X147970207Y25077461D01*
X147970207Y25077461D02*
X147898779Y25220318D01*
X147898779Y25220318D02*
X147755922Y25291747D01*
X147755922Y25291747D02*
X147470207Y25291747D01*
X147470207Y25291747D02*
X147327350Y25220318D01*
X147327350Y25220318D02*
X147255922Y25077461D01*
X147255922Y25077461D02*
X147255922Y24934604D01*
X147255922Y24934604D02*
X147970207Y24791747D01*
X196065520Y7337044D02*
X196065520Y6265615D01*
X196065520Y6265615D02*
X196136949Y6051330D01*
X196136949Y6051330D02*
X196279806Y5908472D01*
X196279806Y5908472D02*
X196494092Y5837044D01*
X196494092Y5837044D02*
X196636949Y5837044D01*
X194636949Y5837044D02*
X195351235Y5837044D01*
X195351235Y5837044D02*
X195351235Y7337044D01*
X193279806Y5979901D02*
X193351234Y5908472D01*
X193351234Y5908472D02*
X193565520Y5837044D01*
X193565520Y5837044D02*
X193708377Y5837044D01*
X193708377Y5837044D02*
X193922663Y5908472D01*
X193922663Y5908472D02*
X194065520Y6051330D01*
X194065520Y6051330D02*
X194136949Y6194187D01*
X194136949Y6194187D02*
X194208377Y6479901D01*
X194208377Y6479901D02*
X194208377Y6694187D01*
X194208377Y6694187D02*
X194136949Y6979901D01*
X194136949Y6979901D02*
X194065520Y7122758D01*
X194065520Y7122758D02*
X193922663Y7265615D01*
X193922663Y7265615D02*
X193708377Y7337044D01*
X193708377Y7337044D02*
X193565520Y7337044D01*
X193565520Y7337044D02*
X193351234Y7265615D01*
X193351234Y7265615D02*
X193279806Y7194187D01*
X192208377Y7337044D02*
X192208377Y6265615D01*
X192208377Y6265615D02*
X192279806Y6051330D01*
X192279806Y6051330D02*
X192422663Y5908472D01*
X192422663Y5908472D02*
X192636949Y5837044D01*
X192636949Y5837044D02*
X192779806Y5837044D01*
X190779806Y5837044D02*
X191494092Y5837044D01*
X191494092Y5837044D02*
X191494092Y7337044D01*
X189422663Y5979901D02*
X189494091Y5908472D01*
X189494091Y5908472D02*
X189708377Y5837044D01*
X189708377Y5837044D02*
X189851234Y5837044D01*
X189851234Y5837044D02*
X190065520Y5908472D01*
X190065520Y5908472D02*
X190208377Y6051330D01*
X190208377Y6051330D02*
X190279806Y6194187D01*
X190279806Y6194187D02*
X190351234Y6479901D01*
X190351234Y6479901D02*
X190351234Y6694187D01*
X190351234Y6694187D02*
X190279806Y6979901D01*
X190279806Y6979901D02*
X190208377Y7122758D01*
X190208377Y7122758D02*
X190065520Y7265615D01*
X190065520Y7265615D02*
X189851234Y7337044D01*
X189851234Y7337044D02*
X189708377Y7337044D01*
X189708377Y7337044D02*
X189494091Y7265615D01*
X189494091Y7265615D02*
X189422663Y7194187D01*
X188351234Y7337044D02*
X188351234Y6265615D01*
X188351234Y6265615D02*
X188422663Y6051330D01*
X188422663Y6051330D02*
X188565520Y5908472D01*
X188565520Y5908472D02*
X188779806Y5837044D01*
X188779806Y5837044D02*
X188922663Y5837044D01*
X186922663Y5837044D02*
X187636949Y5837044D01*
X187636949Y5837044D02*
X187636949Y7337044D01*
X185565520Y5979901D02*
X185636948Y5908472D01*
X185636948Y5908472D02*
X185851234Y5837044D01*
X185851234Y5837044D02*
X185994091Y5837044D01*
X185994091Y5837044D02*
X186208377Y5908472D01*
X186208377Y5908472D02*
X186351234Y6051330D01*
X186351234Y6051330D02*
X186422663Y6194187D01*
X186422663Y6194187D02*
X186494091Y6479901D01*
X186494091Y6479901D02*
X186494091Y6694187D01*
X186494091Y6694187D02*
X186422663Y6979901D01*
X186422663Y6979901D02*
X186351234Y7122758D01*
X186351234Y7122758D02*
X186208377Y7265615D01*
X186208377Y7265615D02*
X185994091Y7337044D01*
X185994091Y7337044D02*
X185851234Y7337044D01*
X185851234Y7337044D02*
X185636948Y7265615D01*
X185636948Y7265615D02*
X185565520Y7194187D01*
X184494091Y7337044D02*
X184494091Y6265615D01*
X184494091Y6265615D02*
X184565520Y6051330D01*
X184565520Y6051330D02*
X184708377Y5908472D01*
X184708377Y5908472D02*
X184922663Y5837044D01*
X184922663Y5837044D02*
X185065520Y5837044D01*
X183065520Y5837044D02*
X183779806Y5837044D01*
X183779806Y5837044D02*
X183779806Y7337044D01*
X181708377Y5979901D02*
X181779805Y5908472D01*
X181779805Y5908472D02*
X181994091Y5837044D01*
X181994091Y5837044D02*
X182136948Y5837044D01*
X182136948Y5837044D02*
X182351234Y5908472D01*
X182351234Y5908472D02*
X182494091Y6051330D01*
X182494091Y6051330D02*
X182565520Y6194187D01*
X182565520Y6194187D02*
X182636948Y6479901D01*
X182636948Y6479901D02*
X182636948Y6694187D01*
X182636948Y6694187D02*
X182565520Y6979901D01*
X182565520Y6979901D02*
X182494091Y7122758D01*
X182494091Y7122758D02*
X182351234Y7265615D01*
X182351234Y7265615D02*
X182136948Y7337044D01*
X182136948Y7337044D02*
X181994091Y7337044D01*
X181994091Y7337044D02*
X181779805Y7265615D01*
X181779805Y7265615D02*
X181708377Y7194187D01*
M02*
