%TF.GenerationSoftware,KiCad,Pcbnew,7.0.6*%
%TF.CreationDate,2023-08-05T15:32:18-04:00*%
%TF.ProjectId,cutiepie-symmetrical-standard-stagger-plate,63757469-6570-4696-952d-73796d6d6574,rev?*%
%TF.SameCoordinates,Original*%
%TF.FileFunction,Drillmap*%
%TF.FilePolarity,Positive*%
%FSLAX45Y45*%
G04 Gerber Fmt 4.5, Leading zero omitted, Abs format (unit mm)*
G04 Created by KiCad (PCBNEW 7.0.6) date 2023-08-05 15:32:18*
%MOMM*%
%LPD*%
G01*
G04 APERTURE LIST*
%ADD10C,0.250000*%
%ADD11C,0.200000*%
G04 APERTURE END LIST*
D10*
X23291137Y-8166097D02*
X23291137Y-8174797D01*
X11196762Y-4919272D02*
X12496762Y-4919272D01*
X20245483Y-10129272D02*
X20219556Y-10122033D01*
X20201518Y-10103105D01*
X20195483Y-10079272D01*
X24929262Y-11984272D02*
X24922023Y-12010198D01*
X24903095Y-12028237D01*
X24879262Y-12034272D01*
X7386762Y-4919272D02*
X8686762Y-4919272D01*
X11118001Y-6865872D02*
X11118001Y-8165872D01*
X9718001Y-6865872D02*
X9725239Y-6839945D01*
X9744168Y-6821906D01*
X9768001Y-6815872D01*
X24691137Y-7366097D02*
X24691137Y-5778497D01*
X13578001Y-6815872D02*
X14878001Y-6815872D01*
X12625483Y-10129272D02*
X12599556Y-10122033D01*
X12581518Y-10103105D01*
X12575483Y-10079272D01*
X21119262Y-10684272D02*
X21119262Y-11984272D01*
X24929262Y-10684272D02*
X24929262Y-11984272D01*
X6877795Y-12828198D02*
X7360644Y-12345360D01*
X13101762Y-6319272D02*
X13075835Y-6312033D01*
X13057797Y-6293104D01*
X13051762Y-6269272D01*
X16191712Y-12510547D02*
X14169312Y-12510547D01*
X24691137Y-8166097D02*
X24698376Y-8140170D01*
X24717304Y-8122132D01*
X24741137Y-8116097D01*
X11196762Y-6319272D02*
X11170835Y-6312033D01*
X11152797Y-6293104D01*
X11146762Y-6269272D01*
X24641137Y-8224797D02*
X24667064Y-8217559D01*
X24685102Y-8198630D01*
X24691137Y-8174797D01*
X23241137Y-8116097D02*
X23267064Y-8123336D01*
X23285102Y-8142264D01*
X23291137Y-8166097D01*
X17338001Y-6865872D02*
X17345239Y-6839945D01*
X17364168Y-6821906D01*
X17388001Y-6815872D01*
X7336762Y-11984272D02*
X7336762Y-10684272D01*
X24453012Y-4969297D02*
X24445773Y-4943371D01*
X24426845Y-4925332D01*
X24403012Y-4919297D01*
X22814908Y-8779272D02*
X22822147Y-8753345D01*
X22841075Y-8735306D01*
X22864908Y-8729272D01*
X5431762Y-10684272D02*
X5439001Y-10658345D01*
X5457929Y-10640306D01*
X5481762Y-10634272D01*
X25181800Y-4749639D02*
X25179608Y-4720105D01*
X25173155Y-4691472D01*
X25162624Y-4664182D01*
X25148197Y-4638679D01*
X25130060Y-4615404D01*
X25123221Y-4608217D01*
X24164908Y-8729272D02*
X24190835Y-8736510D01*
X24208873Y-8755439D01*
X24214908Y-8779272D01*
X23529262Y-10684272D02*
X23536501Y-10658345D01*
X23555429Y-10640306D01*
X23579262Y-10634272D01*
X23291137Y-7366097D02*
X23283898Y-7392024D01*
X23264970Y-7410063D01*
X23241137Y-7416097D01*
X24891137Y-5078497D02*
X24883898Y-5052571D01*
X24864970Y-5034532D01*
X24841137Y-5028497D01*
X18579312Y-12510547D02*
X16435512Y-12510547D01*
X25123221Y-4608217D02*
X24640375Y-4125371D01*
X23103012Y-6319797D02*
X23241137Y-6319797D01*
X18766762Y-6269272D02*
X18766762Y-4969272D01*
X23657109Y-4066793D02*
X23627575Y-4068985D01*
X23598942Y-4075438D01*
X23571652Y-4085969D01*
X23546149Y-4100395D01*
X23522874Y-4118532D01*
X23515688Y-4125371D01*
X14169312Y-12510547D02*
X14143385Y-12503309D01*
X14125347Y-12484380D01*
X14119312Y-12460547D01*
X24741137Y-8116097D02*
X24841137Y-8116097D01*
X16783001Y-8215872D02*
X15483001Y-8215872D01*
X11380711Y-12762970D02*
X19010162Y-12762970D01*
X22548001Y-6865872D02*
X22548001Y-8165872D01*
X7496033Y-8729297D02*
X7521960Y-8736536D01*
X7539998Y-8755464D01*
X7546033Y-8779297D01*
X14769312Y-10910547D02*
X14795239Y-10917786D01*
X14813277Y-10936714D01*
X14819312Y-10960547D01*
X16833001Y-6865872D02*
X16833001Y-8165872D01*
X14928001Y-6865872D02*
X14928001Y-8165872D01*
X11731712Y-12460547D02*
X11731712Y-10960547D01*
X23053012Y-6269797D02*
X23060251Y-6295724D01*
X23079179Y-6313763D01*
X23103012Y-6319797D01*
X18688001Y-6815872D02*
X18713928Y-6823110D01*
X18731966Y-6842039D01*
X18738001Y-6865872D01*
X18579312Y-10910547D02*
X18605239Y-10917786D01*
X18623277Y-10936714D01*
X18629312Y-10960547D01*
X23024262Y-11984272D02*
X23017023Y-12010198D01*
X22998095Y-12028237D01*
X22974262Y-12034272D01*
X14819312Y-10960547D02*
X14819312Y-11061047D01*
X11068001Y-8215872D02*
X9768001Y-8215872D01*
X11731712Y-10960547D02*
X11738951Y-10934621D01*
X11757879Y-10916582D01*
X11781712Y-10910547D01*
X6781762Y-12034272D02*
X5481762Y-12034272D01*
X10591762Y-6319272D02*
X9291762Y-6319272D01*
X19293001Y-8215872D02*
X19267074Y-8208633D01*
X19249035Y-8189704D01*
X19243001Y-8165872D01*
X22498001Y-8215872D02*
X21198001Y-8215872D01*
X23191137Y-8066097D02*
X23198376Y-8092024D01*
X23217304Y-8110063D01*
X23241137Y-8116097D01*
X18211762Y-6319272D02*
X16911762Y-6319272D01*
X22864908Y-8729272D02*
X24164908Y-8729272D01*
X10641762Y-10684272D02*
X10641762Y-11984272D01*
X13975483Y-10079272D02*
X13968244Y-10105198D01*
X13949316Y-10123237D01*
X13925483Y-10129272D01*
X6196033Y-10129297D02*
X6170106Y-10122059D01*
X6152068Y-10103130D01*
X6146033Y-10079297D01*
X25123180Y-12345543D02*
X25142514Y-12323110D01*
X25158198Y-12298300D01*
X25170048Y-12271557D01*
X25177882Y-12243323D01*
X25181515Y-12214040D01*
X25181761Y-12204123D01*
X18816762Y-4919272D02*
X20116762Y-4919272D01*
X14169312Y-10910547D02*
X14769312Y-10910547D01*
X7496033Y-10129297D02*
X6196033Y-10129297D01*
X24879262Y-10634272D02*
X24905189Y-10641510D01*
X24923227Y-10660439D01*
X24929262Y-10684272D01*
X18629312Y-12460547D02*
X18622073Y-12486474D01*
X18603145Y-12504513D01*
X18579312Y-12510547D01*
X9213001Y-8165872D02*
X9205762Y-8191798D01*
X9186834Y-8209837D01*
X9163001Y-8215872D01*
X16435483Y-8729272D02*
X17735483Y-8729272D01*
X20195483Y-10079272D02*
X20195483Y-8779272D01*
X7360684Y-4608214D02*
X6877841Y-4125371D01*
X24841137Y-5728497D02*
X24867064Y-5721259D01*
X24885102Y-5702330D01*
X24891137Y-5678497D01*
X16385512Y-11160547D02*
X16392751Y-11134621D01*
X16411679Y-11116582D01*
X16435512Y-11110547D01*
X21148001Y-8165872D02*
X21148001Y-6865872D01*
X21069262Y-12034272D02*
X19769262Y-12034272D01*
X10591762Y-4919272D02*
X10617689Y-4926510D01*
X10635727Y-4945439D01*
X10641762Y-4969272D01*
X10165483Y-8779272D02*
X10165483Y-10079272D01*
X23241137Y-7416097D02*
X23215210Y-7423336D01*
X23197172Y-7442264D01*
X23191137Y-7466097D01*
X17638012Y-11110547D02*
X17663939Y-11103309D01*
X17681977Y-11084380D01*
X17688012Y-11060547D01*
X7069901Y-6865858D02*
X7069901Y-8165858D01*
X24194885Y-12586955D02*
G75*
G03*
X24194885Y-12586955I-125000J0D01*
G01*
X5179262Y-8464670D02*
X5179223Y-12203916D01*
X12070483Y-8779272D02*
X12070483Y-10079272D01*
X23291137Y-6369797D02*
X23291137Y-7366097D01*
X6416116Y-12586771D02*
G75*
G03*
X6416116Y-12586771I-125000J0D01*
G01*
X23515688Y-4125371D02*
X23032841Y-4608218D01*
X10720483Y-8729272D02*
X12020483Y-8729272D01*
X14530483Y-8729272D02*
X15830483Y-8729272D01*
X7813001Y-8165872D02*
X7813001Y-6865872D01*
X20166762Y-6269272D02*
X20159523Y-6295198D01*
X20140595Y-6313237D01*
X20116762Y-6319272D01*
X20721762Y-6319272D02*
X20695835Y-6312033D01*
X20677797Y-6293104D01*
X20671762Y-6269272D01*
X19486335Y-12286797D02*
X22891240Y-12286803D01*
X12496762Y-4919272D02*
X12522689Y-4926510D01*
X12540727Y-4945439D01*
X12546762Y-4969272D01*
X11781712Y-10910547D02*
X12623012Y-10910547D01*
X13101762Y-4919272D02*
X14401762Y-4919272D01*
X22071762Y-4969272D02*
X22071762Y-6269272D01*
X13975512Y-11160547D02*
X13975512Y-12460547D01*
X10165483Y-10079272D02*
X10158245Y-10105198D01*
X10139316Y-10123237D01*
X10115483Y-10129272D01*
X9241762Y-10684272D02*
X9249001Y-10658345D01*
X9267929Y-10640306D01*
X9291762Y-10634272D01*
X8736762Y-10684272D02*
X8736762Y-11984272D01*
X9291762Y-6319272D02*
X9265835Y-6312033D01*
X9247797Y-6293104D01*
X9241762Y-6269272D01*
X20721762Y-4919272D02*
X22021762Y-4919272D01*
X8686762Y-10634272D02*
X8712689Y-10641510D01*
X8730727Y-10660439D01*
X8736762Y-10684272D01*
X23191137Y-7466097D02*
X23191137Y-8066097D01*
X13925483Y-10129272D02*
X12625483Y-10129272D01*
X12070483Y-10079272D02*
X12063244Y-10105198D01*
X12044316Y-10123237D01*
X12020483Y-10129272D01*
X16435512Y-12510547D02*
X16409585Y-12503309D01*
X16391547Y-12484380D01*
X16385512Y-12460547D01*
X5481762Y-12034272D02*
X5455835Y-12027033D01*
X5437797Y-12008104D01*
X5431762Y-11984272D01*
X8736762Y-4969272D02*
X8736762Y-6269272D01*
X22021762Y-4919272D02*
X22047689Y-4926510D01*
X22065727Y-4945439D01*
X22071762Y-4969272D01*
X5179223Y-12203916D02*
X5181415Y-12233450D01*
X5187868Y-12262084D01*
X5198399Y-12289373D01*
X5212824Y-12314877D01*
X5230961Y-12338152D01*
X5237800Y-12345338D01*
X13528001Y-8165872D02*
X13528001Y-6865872D01*
X19640483Y-8729272D02*
X19666410Y-8736510D01*
X19684448Y-8755439D01*
X19690483Y-8779272D01*
X9718001Y-8165872D02*
X9718001Y-6865872D01*
X22891240Y-12286803D02*
X22920774Y-12288994D01*
X22949407Y-12295448D01*
X22976697Y-12305979D01*
X23002201Y-12320406D01*
X23025476Y-12338544D01*
X23032662Y-12345383D01*
X23103012Y-4919297D02*
X23077085Y-4926536D01*
X23059047Y-4945464D01*
X23053012Y-4969297D01*
X12723012Y-11110547D02*
X13925512Y-11110547D01*
X5719901Y-6815858D02*
X7019901Y-6815858D01*
X24891137Y-7466097D02*
X24883898Y-7440170D01*
X24864970Y-7422132D01*
X24841137Y-7416097D01*
X22071762Y-6269272D02*
X22064523Y-6295198D01*
X22045595Y-6313237D01*
X22021762Y-6319272D01*
X18766762Y-4969272D02*
X18774001Y-4943345D01*
X18792929Y-4925306D01*
X18816762Y-4919272D01*
X11673001Y-8215872D02*
X11647074Y-8208633D01*
X11629035Y-8189704D01*
X11623001Y-8165872D01*
X6736373Y-12886775D02*
X6765907Y-12884584D01*
X6794541Y-12878131D01*
X6821830Y-12867600D01*
X6847334Y-12853174D01*
X6870609Y-12835037D01*
X6877795Y-12828198D01*
X17388001Y-8215872D02*
X17362074Y-8208633D01*
X17344035Y-8189704D01*
X17338001Y-8165872D01*
X17735483Y-8729272D02*
X17761410Y-8736510D01*
X17779448Y-8755439D01*
X17785483Y-8779272D01*
X5179262Y-4749636D02*
X5179262Y-8464670D01*
X6781801Y-6319297D02*
X5481801Y-6319297D01*
X14878001Y-6815872D02*
X14903927Y-6823110D01*
X14921966Y-6842039D01*
X14928001Y-6865872D01*
X15433001Y-8165872D02*
X15433001Y-6865872D01*
X17735483Y-10129272D02*
X16435483Y-10129272D01*
X24891137Y-5678497D02*
X24891137Y-5078497D01*
X24164908Y-10129272D02*
X22864908Y-10129272D01*
X17688012Y-10961047D02*
X17695251Y-10935121D01*
X17714179Y-10917082D01*
X17738012Y-10911047D01*
X13975483Y-8779272D02*
X13975483Y-10079272D01*
X24841137Y-7416097D02*
X24741137Y-7416097D01*
X7499634Y-12286797D02*
X10904539Y-12286797D01*
X14480483Y-10079272D02*
X14480483Y-8779272D01*
X15880483Y-10079272D02*
X15873244Y-10105198D01*
X15854316Y-10123237D01*
X15830483Y-10129272D01*
X14956762Y-4969272D02*
X14964001Y-4943345D01*
X14982929Y-4925306D01*
X15006762Y-4919272D01*
X15830483Y-8729272D02*
X15856410Y-8736510D01*
X15874448Y-8755439D01*
X15880483Y-8779272D01*
X21674262Y-10634272D02*
X22974262Y-10634272D01*
X21545483Y-8729272D02*
X21571410Y-8736510D01*
X21589448Y-8755439D01*
X21595483Y-8779272D01*
X12020483Y-8729272D02*
X12046410Y-8736510D01*
X12064448Y-8755439D01*
X12070483Y-8779272D01*
X12575483Y-8779272D02*
X12582722Y-8753345D01*
X12601650Y-8735306D01*
X12625483Y-8729272D01*
X21595483Y-8779272D02*
X21595483Y-10079272D01*
X6831762Y-11984272D02*
X6824523Y-12010198D01*
X6805595Y-12028237D01*
X6781762Y-12034272D01*
X7546033Y-8779297D02*
X7546033Y-10079297D01*
X14956762Y-6269272D02*
X14956762Y-4969272D01*
X9163001Y-6815872D02*
X9188928Y-6823110D01*
X9206966Y-6842039D01*
X9213001Y-6865872D01*
X18261762Y-6269272D02*
X18254523Y-6295198D01*
X18235595Y-6313237D01*
X18211762Y-6319272D01*
X20643001Y-6865872D02*
X20643001Y-8165872D01*
X13023001Y-8165872D02*
X13015762Y-8191798D01*
X12996834Y-8209837D01*
X12973001Y-8215872D01*
X9241762Y-4969272D02*
X9249001Y-4943345D01*
X9267929Y-4925306D01*
X9291762Y-4919272D01*
X9291762Y-12034272D02*
X9265835Y-12027033D01*
X9247797Y-12008104D01*
X9241762Y-11984272D01*
X21595483Y-10079272D02*
X21588245Y-10105198D01*
X21569316Y-10123237D01*
X21545483Y-10129272D01*
X5237841Y-4608214D02*
X5218507Y-4630648D01*
X5202823Y-4655457D01*
X5190974Y-4682201D01*
X5183141Y-4710435D01*
X5179508Y-4739718D01*
X5179262Y-4749636D01*
X18290483Y-10079272D02*
X18290483Y-8779272D01*
X13975512Y-12460547D02*
X13968273Y-12486474D01*
X13949345Y-12504513D01*
X13925512Y-12510547D01*
X19769262Y-10634272D02*
X21069262Y-10634272D01*
X16356762Y-6269272D02*
X16349523Y-6295198D01*
X16330595Y-6313237D01*
X16306762Y-6319272D01*
X7336762Y-4969272D02*
X7344001Y-4943345D01*
X7362929Y-4925306D01*
X7386762Y-4919272D01*
X16861762Y-4969272D02*
X16869001Y-4943345D01*
X16887929Y-4925306D01*
X16911762Y-4919272D01*
X7502105Y-4666793D02*
X7472571Y-4664601D01*
X7443938Y-4658148D01*
X7416648Y-4647616D01*
X7391145Y-4633190D01*
X7367870Y-4615053D01*
X7360684Y-4608214D01*
X6416116Y-4366793D02*
G75*
G03*
X6416116Y-4366793I-125000J0D01*
G01*
X24453012Y-4978497D02*
X24453012Y-4969297D01*
X11118001Y-8165872D02*
X11110762Y-8191798D01*
X11091834Y-8209837D01*
X11068001Y-8215872D01*
X15483001Y-8215872D02*
X15457074Y-8208633D01*
X15439035Y-8189704D01*
X15433001Y-8165872D01*
X5720638Y-12828186D02*
X5743071Y-12847520D01*
X5767881Y-12863204D01*
X5794624Y-12875054D01*
X5822858Y-12882887D01*
X5852141Y-12886520D01*
X5862059Y-12886766D01*
X8815483Y-10129272D02*
X8789556Y-10122033D01*
X8771518Y-10103105D01*
X8765483Y-10079272D01*
X24194885Y-4366795D02*
G75*
G03*
X24194885Y-4366795I-125000J0D01*
G01*
X16385483Y-10079272D02*
X16385483Y-8779272D01*
X17688012Y-11060547D02*
X17688012Y-10961047D01*
X11623001Y-6865872D02*
X11630239Y-6839945D01*
X11649168Y-6821906D01*
X11673001Y-6815872D01*
X5431801Y-6269297D02*
X5431801Y-4969297D01*
X9768001Y-6815872D02*
X11068001Y-6815872D01*
X22498001Y-6815872D02*
X22523927Y-6823110D01*
X22541966Y-6842039D01*
X22548001Y-6865872D01*
X7386762Y-6319272D02*
X7360835Y-6312033D01*
X7342797Y-6293104D01*
X7336762Y-6269272D01*
X6877841Y-4125371D02*
X6855407Y-4106037D01*
X6830598Y-4090354D01*
X6803854Y-4078504D01*
X6775620Y-4070671D01*
X6746337Y-4067038D01*
X6736420Y-4066793D01*
X17388001Y-6815872D02*
X18688001Y-6815872D01*
X11781712Y-12510547D02*
X11755785Y-12503309D01*
X11737747Y-12484380D01*
X11731712Y-12460547D01*
X16861762Y-6269272D02*
X16861762Y-4969272D01*
X14119312Y-10960547D02*
X14126551Y-10934621D01*
X14145479Y-10916582D01*
X14169312Y-10910547D01*
X24741137Y-5728497D02*
X24841137Y-5728497D01*
X14451762Y-4969272D02*
X14451762Y-6269272D01*
X16385483Y-8779272D02*
X16392722Y-8753345D01*
X16411650Y-8735306D01*
X16435483Y-8729272D01*
X23529262Y-11984272D02*
X23529262Y-10684272D01*
X8736762Y-11984272D02*
X8729523Y-12010198D01*
X8710595Y-12028237D01*
X8686762Y-12034272D01*
X5481801Y-4919297D02*
X6781801Y-4919297D01*
X18629312Y-10960547D02*
X18629312Y-12460547D01*
X22974262Y-12034272D02*
X21674262Y-12034272D01*
X19293001Y-6815872D02*
X20593001Y-6815872D01*
X5237800Y-12345338D02*
X5720638Y-12828186D01*
X20245483Y-8729272D02*
X21545483Y-8729272D01*
X19719262Y-11984272D02*
X19719262Y-10684272D01*
X12020483Y-10129272D02*
X10720483Y-10129272D01*
X16911762Y-6319272D02*
X16885835Y-6312033D01*
X16867797Y-6293104D01*
X16861762Y-6269272D01*
X16241712Y-10960547D02*
X16241712Y-12460547D01*
X5481762Y-10634272D02*
X6781762Y-10634272D01*
X5431762Y-11984272D02*
X5431762Y-10684272D01*
X14119312Y-12460547D02*
X14119312Y-10960547D01*
X20643001Y-8165872D02*
X20635762Y-8191798D01*
X20616834Y-8209837D01*
X20593001Y-8215872D01*
X20116762Y-4919272D02*
X20142689Y-4926510D01*
X20160727Y-4945439D01*
X20166762Y-4969272D01*
X19719262Y-10684272D02*
X19726501Y-10658345D01*
X19745429Y-10640306D01*
X19769262Y-10634272D01*
X24498907Y-12886961D02*
X24528441Y-12884770D01*
X24557075Y-12878317D01*
X24584364Y-12867786D01*
X24609868Y-12853360D01*
X24633143Y-12835223D01*
X24640329Y-12828384D01*
X5862059Y-12886766D02*
X6736373Y-12886775D01*
X15880483Y-8779272D02*
X15880483Y-10079272D01*
X6831801Y-6269297D02*
X6824562Y-6295224D01*
X6805634Y-6313263D01*
X6781801Y-6319297D01*
X23515642Y-12828373D02*
X23538075Y-12847707D01*
X23562885Y-12863390D01*
X23589628Y-12875240D01*
X23617863Y-12883074D01*
X23647145Y-12886707D01*
X23657063Y-12886953D01*
X20593001Y-8215872D02*
X19293001Y-8215872D01*
X10115483Y-8729272D02*
X10141410Y-8736510D01*
X10159448Y-8755439D01*
X10165483Y-8779272D01*
X11623001Y-8165872D02*
X11623001Y-6865872D01*
X14451762Y-6269272D02*
X14444523Y-6295198D01*
X14425595Y-6313237D01*
X14401762Y-6319272D01*
X24879262Y-12034272D02*
X23579262Y-12034272D01*
X16833001Y-8165872D02*
X16825762Y-8191798D01*
X16806834Y-8209837D01*
X16783001Y-8215872D01*
X23032662Y-12345383D02*
X23515642Y-12828373D01*
X9768001Y-8215872D02*
X9742074Y-8208633D01*
X9724035Y-8189704D01*
X9718001Y-8165872D01*
X9291762Y-10634272D02*
X10591762Y-10634272D01*
X7360644Y-12345360D02*
X7382705Y-12326303D01*
X7407079Y-12310777D01*
X7433347Y-12298958D01*
X7461087Y-12291025D01*
X7489876Y-12287154D01*
X7499634Y-12286797D01*
X23053012Y-4969297D02*
X23053012Y-6269797D01*
X7336762Y-6269272D02*
X7336762Y-4969272D01*
X12575483Y-10079272D02*
X12575483Y-8779272D01*
X24498954Y-4066793D02*
X23657109Y-4066793D01*
X10591762Y-12034272D02*
X9291762Y-12034272D01*
X16241712Y-12460547D02*
X16234473Y-12486474D01*
X16215545Y-12504513D01*
X16191712Y-12510547D01*
X17338001Y-8165872D02*
X17338001Y-6865872D01*
X6146033Y-8779297D02*
X6153272Y-8753371D01*
X6172200Y-8735332D01*
X6196033Y-8729297D01*
X5720683Y-4125371D02*
X5237841Y-4608214D01*
X13528001Y-6865872D02*
X13535239Y-6839945D01*
X13554168Y-6821906D01*
X13578001Y-6815872D01*
X8765483Y-8779272D02*
X8772722Y-8753345D01*
X8791650Y-8735306D01*
X8815483Y-8729272D01*
X24640329Y-12828384D02*
X25123180Y-12345543D01*
X19236334Y-12536800D02*
X19236334Y-12536797D01*
X12673012Y-10961047D02*
X12673012Y-11060547D01*
X14401762Y-6319272D02*
X13101762Y-6319272D01*
X21119262Y-11984272D02*
X21112023Y-12010198D01*
X21093095Y-12028237D01*
X21069262Y-12034272D01*
X11068001Y-6815872D02*
X11093928Y-6823110D01*
X11111966Y-6842039D01*
X11118001Y-6865872D01*
X16911762Y-4919272D02*
X18211762Y-4919272D01*
X14928001Y-8165872D02*
X14920762Y-8191798D01*
X14901834Y-8209837D01*
X14878001Y-8215872D01*
X7019901Y-6815858D02*
X7045827Y-6823097D01*
X7063866Y-6842025D01*
X7069901Y-6865858D01*
X8686762Y-4919272D02*
X8712689Y-4926510D01*
X8730727Y-4945439D01*
X8736762Y-4969272D01*
X8815483Y-8729272D02*
X10115483Y-8729272D01*
X24403012Y-4919297D02*
X23103012Y-4919297D01*
X10641762Y-4969272D02*
X10641762Y-6269272D01*
X7863001Y-8215872D02*
X7837074Y-8208633D01*
X7819035Y-8189704D01*
X7813001Y-8165872D01*
X14878001Y-8215872D02*
X13578001Y-8215872D01*
X18211762Y-4919272D02*
X18237689Y-4926510D01*
X18255727Y-4945439D01*
X18261762Y-4969272D01*
X16435512Y-11110547D02*
X17638012Y-11110547D01*
X15830483Y-10129272D02*
X14530483Y-10129272D01*
X5862105Y-4066793D02*
X5832571Y-4068984D01*
X5803938Y-4075438D01*
X5776648Y-4085969D01*
X5751145Y-4100395D01*
X5727870Y-4118532D01*
X5720683Y-4125371D01*
X16191712Y-10910547D02*
X16217639Y-10917786D01*
X16235677Y-10936714D01*
X16241712Y-10960547D01*
X20116762Y-6319272D02*
X18816762Y-6319272D01*
X17785483Y-8779272D02*
X17785483Y-10079272D01*
X9213001Y-6865872D02*
X9213001Y-8165872D01*
X22814908Y-10079272D02*
X22814908Y-8779272D01*
X14530483Y-10129272D02*
X14504556Y-10122033D01*
X14486518Y-10103105D01*
X14480483Y-10079272D01*
X11154539Y-12536797D02*
X11157145Y-12571241D01*
X11164707Y-12604054D01*
X11176842Y-12634852D01*
X11193166Y-12663252D01*
X11213294Y-12688871D01*
X11236845Y-12711323D01*
X11263433Y-12730226D01*
X11292675Y-12745196D01*
X11324187Y-12755849D01*
X11357586Y-12761802D01*
X11380711Y-12762970D01*
X18340483Y-8729272D02*
X19640483Y-8729272D01*
X13578001Y-8215872D02*
X13552074Y-8208633D01*
X13534035Y-8189704D01*
X13528001Y-8165872D01*
X15491712Y-11111047D02*
X15517639Y-11103809D01*
X15535677Y-11084880D01*
X15541712Y-11061047D01*
X10641762Y-6269272D02*
X10634523Y-6295198D01*
X10615595Y-6313237D01*
X10591762Y-6319272D01*
X16356762Y-4969272D02*
X16356762Y-6269272D01*
X15006762Y-4919272D02*
X16306762Y-4919272D01*
X18738001Y-6865872D02*
X18738001Y-8165872D01*
X18290483Y-8779272D02*
X18297722Y-8753345D01*
X18316650Y-8735306D01*
X18340483Y-8729272D01*
X5669901Y-6865858D02*
X5677139Y-6839931D01*
X5696068Y-6821893D01*
X5719901Y-6815858D01*
X19640483Y-10129272D02*
X18340483Y-10129272D01*
X24741137Y-7416097D02*
X24715210Y-7408859D01*
X24697172Y-7389930D01*
X24691137Y-7366097D01*
X15433001Y-6865872D02*
X15440239Y-6839945D01*
X15459168Y-6821906D01*
X15483001Y-6815872D01*
X21198001Y-8215872D02*
X21172074Y-8208633D01*
X21154035Y-8189704D01*
X21148001Y-8165872D01*
X23241137Y-6319797D02*
X23267064Y-6327036D01*
X23285102Y-6345964D01*
X23291137Y-6369797D01*
X16306762Y-6319272D02*
X15006762Y-6319272D01*
X17785483Y-10079272D02*
X17778245Y-10105198D01*
X17759316Y-10123237D01*
X17735483Y-10129272D01*
X14401762Y-4919272D02*
X14427689Y-4926510D01*
X14445727Y-4945439D01*
X14451762Y-4969272D01*
X7336762Y-10684272D02*
X7344001Y-10658345D01*
X7362929Y-10640306D01*
X7386762Y-10634272D01*
X10670483Y-10079272D02*
X10670483Y-8779272D01*
X9241762Y-11984272D02*
X9241762Y-10684272D01*
X21069262Y-10634272D02*
X21095189Y-10641510D01*
X21113227Y-10660439D01*
X21119262Y-10684272D01*
X19243001Y-6865872D02*
X19250239Y-6839945D01*
X19269168Y-6821906D01*
X19293001Y-6815872D01*
X6781762Y-10634272D02*
X6807689Y-10641510D01*
X6825727Y-10660439D01*
X6831762Y-10684272D01*
X15006762Y-6319272D02*
X14980835Y-6312033D01*
X14962797Y-6293104D01*
X14956762Y-6269272D01*
X6736420Y-4066793D02*
X5862105Y-4066793D01*
X18688001Y-8215872D02*
X17388001Y-8215872D01*
X12546762Y-6269272D02*
X12539523Y-6295198D01*
X12520595Y-6313237D01*
X12496762Y-6319272D01*
X18340483Y-10129272D02*
X18314556Y-10122033D01*
X18296518Y-10103105D01*
X18290483Y-10079272D01*
X15483001Y-6815872D02*
X16783001Y-6815872D01*
X23657063Y-12886953D02*
X24498907Y-12886961D01*
X15591712Y-10910547D02*
X16191712Y-10910547D01*
X24214908Y-10079272D02*
X24207669Y-10105198D01*
X24188741Y-10123237D01*
X24164908Y-10129272D01*
X12496762Y-6319272D02*
X11196762Y-6319272D01*
X22021762Y-6319272D02*
X20721762Y-6319272D01*
X13023001Y-6865872D02*
X13023001Y-8165872D01*
X21624262Y-11984272D02*
X21624262Y-10684272D01*
X14480483Y-8779272D02*
X14487722Y-8753345D01*
X14506650Y-8735306D01*
X14530483Y-8729272D01*
X6146033Y-10079297D02*
X6146033Y-8779297D01*
X22974262Y-10634272D02*
X23000189Y-10641510D01*
X23018227Y-10660439D01*
X23024262Y-10684272D01*
X23341137Y-8224797D02*
X24641137Y-8224797D01*
X7863001Y-6815872D02*
X9163001Y-6815872D01*
X10670483Y-8779272D02*
X10677722Y-8753345D01*
X10696650Y-8735306D01*
X10720483Y-8729272D01*
X7813001Y-6865872D02*
X7820239Y-6839945D01*
X7839168Y-6821906D01*
X7863001Y-6815872D01*
X6831801Y-4969297D02*
X6831801Y-6269297D01*
X12625483Y-8729272D02*
X13925483Y-8729272D01*
X8686762Y-6319272D02*
X7386762Y-6319272D01*
X19010162Y-12762970D02*
X19044605Y-12760364D01*
X19077418Y-12752802D01*
X19108216Y-12740667D01*
X19136616Y-12724344D01*
X19162234Y-12704215D01*
X19184686Y-12680665D01*
X19203589Y-12654078D01*
X19218560Y-12624836D01*
X19229213Y-12593324D01*
X19235166Y-12559925D01*
X19236334Y-12536800D01*
X23024262Y-10684272D02*
X23024262Y-11984272D01*
X13925512Y-12510547D02*
X11781712Y-12510547D01*
X21674262Y-12034272D02*
X21648335Y-12027033D01*
X21630297Y-12008104D01*
X21624262Y-11984272D01*
X16435483Y-10129272D02*
X16409556Y-10122033D01*
X16391518Y-10103105D01*
X16385483Y-10079272D01*
X12673012Y-11060547D02*
X12680251Y-11086474D01*
X12699179Y-11104513D01*
X12723012Y-11110547D01*
X12546762Y-4969272D02*
X12546762Y-6269272D01*
X17738012Y-10911047D02*
X18579312Y-10911047D01*
X10591762Y-10634272D02*
X10617689Y-10641510D01*
X10635727Y-10660439D01*
X10641762Y-10684272D01*
X14819312Y-11061047D02*
X14826551Y-11086974D01*
X14845479Y-11105013D01*
X14869312Y-11111047D01*
X20671762Y-6269272D02*
X20671762Y-4969272D01*
X16783001Y-6815872D02*
X16808928Y-6823110D01*
X16826966Y-6842039D01*
X16833001Y-6865872D01*
X12623012Y-10910547D02*
X12623012Y-10911047D01*
X9241762Y-6269272D02*
X9241762Y-4969272D01*
X22891419Y-4666797D02*
X7502105Y-4666793D01*
X9291762Y-4919272D02*
X10591762Y-4919272D01*
X18816762Y-6319272D02*
X18790835Y-6312033D01*
X18772797Y-6293104D01*
X18766762Y-6269272D01*
X7069901Y-8165858D02*
X7062662Y-8191785D01*
X7043734Y-8209823D01*
X7019901Y-8215858D01*
X10720483Y-10129272D02*
X10694556Y-10122033D01*
X10676518Y-10103105D01*
X10670483Y-10079272D01*
X13051762Y-4969272D02*
X13059001Y-4943345D01*
X13077929Y-4925306D01*
X13101762Y-4919272D01*
X20195483Y-8779272D02*
X20202722Y-8753345D01*
X20221650Y-8735306D01*
X20245483Y-8729272D01*
X23291137Y-8174797D02*
X23298376Y-8200724D01*
X23317304Y-8218763D01*
X23341137Y-8224797D01*
X9163001Y-8215872D02*
X7863001Y-8215872D01*
X21545483Y-10129272D02*
X20245483Y-10129272D01*
X24841137Y-5028497D02*
X24503012Y-5028497D01*
X24691137Y-8174797D02*
X24691137Y-8166097D01*
X8686762Y-12034272D02*
X7386762Y-12034272D01*
X6831762Y-10684272D02*
X6831762Y-11984272D01*
X19236334Y-12536797D02*
X19237625Y-12511236D01*
X19241413Y-12486413D01*
X19251504Y-12450839D01*
X19266508Y-12417632D01*
X19286000Y-12387218D01*
X19309558Y-12360020D01*
X19336755Y-12336463D01*
X19367170Y-12316971D01*
X19400376Y-12301967D01*
X19435951Y-12291876D01*
X19460773Y-12288088D01*
X19486335Y-12286797D01*
X10904539Y-12286797D02*
X10930100Y-12288088D01*
X10954923Y-12291876D01*
X10990497Y-12301967D01*
X11023704Y-12316971D01*
X11054118Y-12336463D01*
X11081316Y-12360021D01*
X11104873Y-12387218D01*
X11124365Y-12417632D01*
X11139369Y-12450839D01*
X11149460Y-12486414D01*
X11153248Y-12511236D01*
X11154539Y-12536797D01*
X20671762Y-4969272D02*
X20679001Y-4943345D01*
X20697929Y-4925306D01*
X20721762Y-4919272D01*
X21624262Y-10684272D02*
X21631501Y-10658345D01*
X21650429Y-10640306D01*
X21674262Y-10634272D01*
X11673001Y-6815872D02*
X12973001Y-6815872D01*
X18579312Y-10911047D02*
X18579312Y-10910547D01*
X6781801Y-4919297D02*
X6807727Y-4926536D01*
X6825766Y-4945464D01*
X6831801Y-4969297D01*
X20593001Y-6815872D02*
X20618928Y-6823110D01*
X20636966Y-6842039D01*
X20643001Y-6865872D01*
X22548001Y-8165872D02*
X22540762Y-8191798D01*
X22521834Y-8209837D01*
X22498001Y-8215872D01*
X5719901Y-8215858D02*
X5693974Y-8208619D01*
X5675935Y-8189691D01*
X5669901Y-8165858D01*
X7386762Y-10634272D02*
X8686762Y-10634272D01*
X10115483Y-10129272D02*
X8815483Y-10129272D01*
X10641762Y-11984272D02*
X10634523Y-12010198D01*
X10615595Y-12028237D01*
X10591762Y-12034272D01*
X8765483Y-10079272D02*
X8765483Y-8779272D01*
X16385512Y-12460547D02*
X16385512Y-11160547D01*
X22864908Y-10129272D02*
X22838981Y-10122033D01*
X22820943Y-10103105D01*
X22814908Y-10079272D01*
X24691137Y-5778497D02*
X24698376Y-5752570D01*
X24717304Y-5734532D01*
X24741137Y-5728497D01*
X19690483Y-8779272D02*
X19690483Y-10079272D01*
X24214908Y-8779272D02*
X24214908Y-10079272D01*
X12973001Y-8215872D02*
X11673001Y-8215872D01*
X11146762Y-6269272D02*
X11146762Y-4969272D01*
X24841137Y-8116097D02*
X24867064Y-8108859D01*
X24885102Y-8089930D01*
X24891137Y-8066097D01*
X13051762Y-6269272D02*
X13051762Y-4969272D01*
X23579262Y-10634272D02*
X24879262Y-10634272D01*
X8736762Y-6269272D02*
X8729523Y-6295198D01*
X8710595Y-6313237D01*
X8686762Y-6319272D01*
X15541712Y-11061047D02*
X15541712Y-10960547D01*
X7386762Y-12034272D02*
X7360835Y-12027033D01*
X7342797Y-12008104D01*
X7336762Y-11984272D01*
X13925512Y-11110547D02*
X13951439Y-11117786D01*
X13969477Y-11136714D01*
X13975512Y-11160547D01*
X15541712Y-10960547D02*
X15548951Y-10934621D01*
X15567879Y-10916582D01*
X15591712Y-10910547D01*
X13925483Y-8729272D02*
X13951410Y-8736510D01*
X13969448Y-8755439D01*
X13975483Y-8779272D01*
X19243001Y-8165872D02*
X19243001Y-6865872D01*
X23032841Y-4608218D02*
X23010407Y-4627552D01*
X22985597Y-4643236D01*
X22958854Y-4655086D01*
X22930620Y-4662919D01*
X22901337Y-4666551D01*
X22891419Y-4666797D01*
X12623012Y-10911047D02*
X12648939Y-10918286D01*
X12666977Y-10937214D01*
X12673012Y-10961047D01*
X21198001Y-6815872D02*
X22498001Y-6815872D01*
X12973001Y-6815872D02*
X12998927Y-6823110D01*
X13016966Y-6842039D01*
X13023001Y-6865872D01*
X14869312Y-11111047D02*
X15491712Y-11111047D01*
X19769262Y-12034272D02*
X19743335Y-12027033D01*
X19725297Y-12008104D01*
X19719262Y-11984272D01*
X5481801Y-6319297D02*
X5455874Y-6312059D01*
X5437835Y-6293130D01*
X5431801Y-6269297D01*
X24891137Y-8066097D02*
X24891137Y-7466097D01*
X7019901Y-8215858D02*
X5719901Y-8215858D01*
X18261762Y-4969272D02*
X18261762Y-6269272D01*
X6196033Y-8729297D02*
X7496033Y-8729297D01*
X7546033Y-10079297D02*
X7538794Y-10105224D01*
X7519866Y-10123263D01*
X7496033Y-10129297D01*
X24503012Y-5028497D02*
X24477085Y-5021259D01*
X24459047Y-5002330D01*
X24453012Y-4978497D01*
X5669901Y-8165858D02*
X5669901Y-6865858D01*
X19690483Y-10079272D02*
X19683245Y-10105198D01*
X19664316Y-10123237D01*
X19640483Y-10129272D01*
X20166762Y-4969272D02*
X20166762Y-6269272D01*
X25181761Y-12204123D02*
X25181800Y-4749639D01*
X24640375Y-4125371D02*
X24617941Y-4106037D01*
X24593132Y-4090354D01*
X24566388Y-4078504D01*
X24538154Y-4070671D01*
X24508871Y-4067038D01*
X24498954Y-4066793D01*
X16306762Y-4919272D02*
X16332689Y-4926510D01*
X16350727Y-4945439D01*
X16356762Y-4969272D01*
X21148001Y-6865872D02*
X21155239Y-6839945D01*
X21174168Y-6821906D01*
X21198001Y-6815872D01*
X11146762Y-4969272D02*
X11154001Y-4943345D01*
X11172929Y-4925306D01*
X11196762Y-4919272D01*
X18738001Y-8165872D02*
X18730762Y-8191798D01*
X18711834Y-8209837D01*
X18688001Y-8215872D01*
X5431801Y-4969297D02*
X5439039Y-4943371D01*
X5457968Y-4925332D01*
X5481801Y-4919297D01*
X23579262Y-12034272D02*
X23553335Y-12027033D01*
X23535297Y-12008104D01*
X23529262Y-11984272D01*
D11*
X5427499Y-13210946D02*
X5427499Y-13010946D01*
X5427499Y-13010946D02*
X5475118Y-13010946D01*
X5475118Y-13010946D02*
X5503690Y-13020470D01*
X5503690Y-13020470D02*
X5522737Y-13039517D01*
X5522737Y-13039517D02*
X5532261Y-13058565D01*
X5532261Y-13058565D02*
X5541785Y-13096660D01*
X5541785Y-13096660D02*
X5541785Y-13125232D01*
X5541785Y-13125232D02*
X5532261Y-13163327D01*
X5532261Y-13163327D02*
X5522737Y-13182374D01*
X5522737Y-13182374D02*
X5503690Y-13201422D01*
X5503690Y-13201422D02*
X5475118Y-13210946D01*
X5475118Y-13210946D02*
X5427499Y-13210946D01*
X5627499Y-13210946D02*
X5627499Y-13077612D01*
X5627499Y-13115708D02*
X5637023Y-13096660D01*
X5637023Y-13096660D02*
X5646547Y-13087136D01*
X5646547Y-13087136D02*
X5665594Y-13077612D01*
X5665594Y-13077612D02*
X5684642Y-13077612D01*
X5751309Y-13210946D02*
X5751309Y-13077612D01*
X5751309Y-13010946D02*
X5741785Y-13020470D01*
X5741785Y-13020470D02*
X5751309Y-13029993D01*
X5751309Y-13029993D02*
X5760833Y-13020470D01*
X5760833Y-13020470D02*
X5751309Y-13010946D01*
X5751309Y-13010946D02*
X5751309Y-13029993D01*
X5875118Y-13210946D02*
X5856071Y-13201422D01*
X5856071Y-13201422D02*
X5846547Y-13182374D01*
X5846547Y-13182374D02*
X5846547Y-13010946D01*
X5979880Y-13210946D02*
X5960833Y-13201422D01*
X5960833Y-13201422D02*
X5951309Y-13182374D01*
X5951309Y-13182374D02*
X5951309Y-13010946D01*
X6208452Y-13210946D02*
X6208452Y-13010946D01*
X6208452Y-13010946D02*
X6275118Y-13153803D01*
X6275118Y-13153803D02*
X6341785Y-13010946D01*
X6341785Y-13010946D02*
X6341785Y-13210946D01*
X6522737Y-13210946D02*
X6522737Y-13106184D01*
X6522737Y-13106184D02*
X6513214Y-13087136D01*
X6513214Y-13087136D02*
X6494166Y-13077612D01*
X6494166Y-13077612D02*
X6456071Y-13077612D01*
X6456071Y-13077612D02*
X6437023Y-13087136D01*
X6522737Y-13201422D02*
X6503690Y-13210946D01*
X6503690Y-13210946D02*
X6456071Y-13210946D01*
X6456071Y-13210946D02*
X6437023Y-13201422D01*
X6437023Y-13201422D02*
X6427499Y-13182374D01*
X6427499Y-13182374D02*
X6427499Y-13163327D01*
X6427499Y-13163327D02*
X6437023Y-13144279D01*
X6437023Y-13144279D02*
X6456071Y-13134755D01*
X6456071Y-13134755D02*
X6503690Y-13134755D01*
X6503690Y-13134755D02*
X6522737Y-13125232D01*
X6617975Y-13077612D02*
X6617975Y-13277612D01*
X6617975Y-13087136D02*
X6637023Y-13077612D01*
X6637023Y-13077612D02*
X6675118Y-13077612D01*
X6675118Y-13077612D02*
X6694166Y-13087136D01*
X6694166Y-13087136D02*
X6703690Y-13096660D01*
X6703690Y-13096660D02*
X6713214Y-13115708D01*
X6713214Y-13115708D02*
X6713214Y-13172851D01*
X6713214Y-13172851D02*
X6703690Y-13191898D01*
X6703690Y-13191898D02*
X6694166Y-13201422D01*
X6694166Y-13201422D02*
X6675118Y-13210946D01*
X6675118Y-13210946D02*
X6637023Y-13210946D01*
X6637023Y-13210946D02*
X6617975Y-13201422D01*
X6798928Y-13191898D02*
X6808452Y-13201422D01*
X6808452Y-13201422D02*
X6798928Y-13210946D01*
X6798928Y-13210946D02*
X6789404Y-13201422D01*
X6789404Y-13201422D02*
X6798928Y-13191898D01*
X6798928Y-13191898D02*
X6798928Y-13210946D01*
X6798928Y-13087136D02*
X6808452Y-13096660D01*
X6808452Y-13096660D02*
X6798928Y-13106184D01*
X6798928Y-13106184D02*
X6789404Y-13096660D01*
X6789404Y-13096660D02*
X6798928Y-13087136D01*
X6798928Y-13087136D02*
X6798928Y-13106184D01*
M02*
