%TF.GenerationSoftware,KiCad,Pcbnew,7.0.6*%
%TF.CreationDate,2023-08-05T15:32:14-04:00*%
%TF.ProjectId,cutiepie-symmetrical-standard-stagger-plate,63757469-6570-4696-952d-73796d6d6574,rev?*%
%TF.SameCoordinates,Original*%
%TF.FileFunction,Copper,L2,Bot*%
%TF.FilePolarity,Positive*%
%FSLAX46Y46*%
G04 Gerber Fmt 4.6, Leading zero omitted, Abs format (unit mm)*
G04 Created by KiCad (PCBNEW 7.0.6) date 2023-08-05 15:32:14*
%MOMM*%
%LPD*%
G01*
G04 APERTURE LIST*
G04 APERTURE END LIST*
%TA.AperFunction,NonConductor*%
G36*
X67460265Y-40670806D02*
G01*
X67466366Y-40671259D01*
X67577044Y-40684989D01*
X67747035Y-40706077D01*
X67764905Y-40709644D01*
X68029615Y-40783082D01*
X68046681Y-40789193D01*
X68297412Y-40900291D01*
X68313428Y-40908842D01*
X68473430Y-41009987D01*
X68546031Y-41055882D01*
X68560724Y-41066766D01*
X68776323Y-41252574D01*
X68779679Y-41255691D01*
X73599898Y-46075910D01*
X73601426Y-46077683D01*
X73606465Y-46082477D01*
X73613110Y-46089123D01*
X73615059Y-46090655D01*
X73676265Y-46148901D01*
X73678342Y-46151065D01*
X73678543Y-46151237D01*
X73681017Y-46152968D01*
X73910958Y-46332154D01*
X73911115Y-46332287D01*
X73911117Y-46332289D01*
X73911118Y-46332289D01*
X73911289Y-46332434D01*
X73912742Y-46333209D01*
X74164649Y-46475701D01*
X74166283Y-46476682D01*
X74168121Y-46477331D01*
X74438973Y-46581855D01*
X74439168Y-46581938D01*
X74439173Y-46581942D01*
X74439178Y-46581943D01*
X74439360Y-46582021D01*
X74440880Y-46582326D01*
X74549191Y-46606737D01*
X74724029Y-46646142D01*
X74725654Y-46646547D01*
X74727400Y-46646634D01*
X75016727Y-46668106D01*
X75019054Y-46668438D01*
X75022669Y-46668571D01*
X75025005Y-46668427D01*
X228900841Y-46668467D01*
X228904299Y-46668838D01*
X228912743Y-46668522D01*
X228915657Y-46668481D01*
X228923700Y-46668557D01*
X228926878Y-46668154D01*
X229010382Y-46666084D01*
X229013619Y-46666155D01*
X229016797Y-46665588D01*
X229304638Y-46629881D01*
X229306325Y-46629710D01*
X229307973Y-46629209D01*
X229586808Y-46551853D01*
X229588663Y-46551395D01*
X229590305Y-46550619D01*
X229854551Y-46433533D01*
X229856226Y-46432842D01*
X229857723Y-46431841D01*
X230102747Y-46276948D01*
X230104393Y-46275971D01*
X230105828Y-46274665D01*
X230325532Y-46085319D01*
X230327753Y-46083649D01*
X230329868Y-46081692D01*
X230331725Y-46079572D01*
X232743351Y-43667946D01*
X239443574Y-43667946D01*
X239462642Y-43885905D01*
X239462644Y-43885921D01*
X239462644Y-43885925D01*
X239519273Y-44097268D01*
X239519275Y-44097272D01*
X239519276Y-44097276D01*
X239554087Y-44171929D01*
X239611748Y-44295584D01*
X239636849Y-44331432D01*
X239737253Y-44474823D01*
X239891974Y-44629544D01*
X240071212Y-44755048D01*
X240269521Y-44847521D01*
X240269526Y-44847522D01*
X240269530Y-44847524D01*
X240294600Y-44854241D01*
X240304626Y-44856927D01*
X240307733Y-44857848D01*
X240311795Y-44859167D01*
X240311799Y-44859169D01*
X240319828Y-44861000D01*
X240480874Y-44904153D01*
X240522058Y-44907756D01*
X240530445Y-44909074D01*
X240567518Y-44917537D01*
X240599686Y-44914547D01*
X240698851Y-44923223D01*
X240744142Y-44919260D01*
X240752312Y-44919088D01*
X240755045Y-44919211D01*
X240755047Y-44919210D01*
X240760600Y-44919461D01*
X240760614Y-44919460D01*
X240790499Y-44920802D01*
X240820330Y-44912595D01*
X240916828Y-44904153D01*
X240964766Y-44891307D01*
X240972494Y-44889756D01*
X240974207Y-44889523D01*
X240977564Y-44889069D01*
X240977566Y-44889068D01*
X240979670Y-44888783D01*
X240979691Y-44888780D01*
X241010460Y-44884612D01*
X241037133Y-44871917D01*
X241093156Y-44856906D01*
X241128171Y-44847524D01*
X241128174Y-44847522D01*
X241128181Y-44847521D01*
X241177033Y-44824740D01*
X241184044Y-44821978D01*
X241191125Y-44819678D01*
X241191128Y-44819676D01*
X241193103Y-44819035D01*
X241193114Y-44819031D01*
X241220504Y-44810131D01*
X241243368Y-44793808D01*
X241326490Y-44755048D01*
X241374179Y-44721655D01*
X241380353Y-44717850D01*
X241388864Y-44713271D01*
X241388866Y-44713268D01*
X241391323Y-44711947D01*
X241393764Y-44710634D01*
X241393770Y-44710630D01*
X241414003Y-44699742D01*
X241432624Y-44680731D01*
X241505728Y-44629544D01*
X241550036Y-44585236D01*
X241555187Y-44580631D01*
X241564425Y-44573265D01*
X241564429Y-44573259D01*
X241568319Y-44570158D01*
X241569717Y-44569586D01*
X241573150Y-44566305D01*
X241584890Y-44556942D01*
X241599031Y-44536240D01*
X241660449Y-44474823D01*
X241698997Y-44419770D01*
X241703057Y-44414587D01*
X241711307Y-44405144D01*
X241713873Y-44403510D01*
X241719505Y-44395759D01*
X241727796Y-44386268D01*
X241737447Y-44364858D01*
X241785953Y-44295585D01*
X241816313Y-44230477D01*
X241819267Y-44224906D01*
X241820497Y-44222845D01*
X241823628Y-44217605D01*
X241826927Y-44214552D01*
X241833056Y-44201827D01*
X241838246Y-44193140D01*
X241843603Y-44171952D01*
X241878426Y-44097276D01*
X241878956Y-44095300D01*
X241880032Y-44091279D01*
X241898259Y-44023256D01*
X241900090Y-44017550D01*
X241901730Y-44013179D01*
X241905253Y-44008493D01*
X241910159Y-43990718D01*
X241912812Y-43983648D01*
X241914263Y-43963529D01*
X241914269Y-43963510D01*
X241935058Y-43885923D01*
X241942167Y-43804654D01*
X241942924Y-43799016D01*
X241946335Y-43780222D01*
X241946335Y-43780220D01*
X241948702Y-43767178D01*
X241946918Y-43754180D01*
X241946989Y-43750993D01*
X241947203Y-43747095D01*
X241954128Y-43667946D01*
X241947207Y-43588846D01*
X241946991Y-43584909D01*
X241946964Y-43583773D01*
X241946921Y-43581830D01*
X241949405Y-43572587D01*
X241946335Y-43555670D01*
X241942923Y-43536867D01*
X241942167Y-43531234D01*
X241935058Y-43449969D01*
X241914262Y-43372357D01*
X241914626Y-43357069D01*
X241910159Y-43345168D01*
X241906195Y-43330807D01*
X241901730Y-43322710D01*
X241900095Y-43318355D01*
X241898256Y-43312623D01*
X241878426Y-43238616D01*
X241843603Y-43163940D01*
X241841114Y-43147551D01*
X241833055Y-43134063D01*
X241828119Y-43123815D01*
X241823634Y-43118294D01*
X241819269Y-43110989D01*
X241816306Y-43105401D01*
X241785953Y-43040308D01*
X241737448Y-42971035D01*
X241731754Y-42954151D01*
X241719506Y-42940132D01*
X241714983Y-42933907D01*
X241711304Y-42930743D01*
X241703074Y-42921323D01*
X241698975Y-42916089D01*
X241660450Y-42861070D01*
X241660428Y-42861048D01*
X241599031Y-42799651D01*
X241589912Y-42782951D01*
X241573150Y-42769584D01*
X241570408Y-42766963D01*
X241568319Y-42765732D01*
X241555204Y-42755273D01*
X241550017Y-42750637D01*
X241505729Y-42706349D01*
X241505720Y-42706342D01*
X241432623Y-42655158D01*
X241420013Y-42639382D01*
X241380356Y-42618042D01*
X241374169Y-42614229D01*
X241326494Y-42580846D01*
X241326453Y-42580827D01*
X241243369Y-42542084D01*
X241227359Y-42527986D01*
X241184067Y-42513920D01*
X241177018Y-42511143D01*
X241128183Y-42488372D01*
X241128181Y-42488371D01*
X241112544Y-42484181D01*
X241037124Y-42463971D01*
X241017970Y-42452295D01*
X240972491Y-42446134D01*
X240964760Y-42444582D01*
X240916836Y-42431740D01*
X240916822Y-42431738D01*
X240820323Y-42423296D01*
X240798426Y-42414730D01*
X240752314Y-42416802D01*
X240744122Y-42416628D01*
X240698857Y-42412669D01*
X240698848Y-42412669D01*
X240599671Y-42421345D01*
X240575600Y-42416507D01*
X240530444Y-42426816D01*
X240522042Y-42428136D01*
X240480871Y-42431739D01*
X240382030Y-42458223D01*
X240356474Y-42457614D01*
X240317881Y-42474115D01*
X240301232Y-42479873D01*
X240269518Y-42488371D01*
X240071212Y-42580844D01*
X240071208Y-42580846D01*
X239891972Y-42706348D01*
X239737253Y-42861067D01*
X239611751Y-43040303D01*
X239611749Y-43040307D01*
X239519277Y-43238614D01*
X239519273Y-43238623D01*
X239462644Y-43449966D01*
X239462644Y-43449970D01*
X239443576Y-43667927D01*
X239443574Y-43667946D01*
X232743351Y-43667946D01*
X235157232Y-41254065D01*
X235226857Y-41187807D01*
X235231469Y-41183831D01*
X235454561Y-41009981D01*
X235469716Y-40999870D01*
X235708827Y-40864616D01*
X235725213Y-40856871D01*
X235981082Y-40758130D01*
X235998433Y-40752858D01*
X236266889Y-40692354D01*
X236284961Y-40689662D01*
X236568815Y-40668597D01*
X236573404Y-40668428D01*
X244989547Y-40668428D01*
X245085605Y-40670807D01*
X245091706Y-40671260D01*
X245189294Y-40683366D01*
X245372378Y-40706078D01*
X245390243Y-40709645D01*
X245654956Y-40783082D01*
X245672021Y-40789193D01*
X245922752Y-40900291D01*
X245938768Y-40908842D01*
X246098770Y-41009987D01*
X246171371Y-41055882D01*
X246186064Y-41066766D01*
X246401663Y-41252574D01*
X246405019Y-41255691D01*
X251231853Y-46082524D01*
X251298114Y-46152152D01*
X251302093Y-46156769D01*
X251438934Y-46332368D01*
X251475933Y-46379846D01*
X251486055Y-46395015D01*
X251621306Y-46634122D01*
X251629060Y-46650528D01*
X251636004Y-46668522D01*
X251695207Y-46821932D01*
X251727788Y-46906355D01*
X251733070Y-46923736D01*
X251793572Y-47192176D01*
X251796266Y-47210262D01*
X251817332Y-47494109D01*
X251817502Y-47498700D01*
X251817106Y-122041236D01*
X251814723Y-122137295D01*
X251814270Y-122143395D01*
X251779450Y-122424057D01*
X251775880Y-122441940D01*
X251702445Y-122706633D01*
X251696327Y-122723718D01*
X251585230Y-122974440D01*
X251576674Y-122990464D01*
X251429636Y-123223058D01*
X251418752Y-123237751D01*
X251232944Y-123453346D01*
X251229818Y-123456712D01*
X246402918Y-128283511D01*
X246333326Y-128349734D01*
X246328692Y-128353728D01*
X246105607Y-128527567D01*
X246090439Y-128537687D01*
X245851350Y-128672926D01*
X245834942Y-128680681D01*
X245579094Y-128779411D01*
X245561714Y-128784692D01*
X245293282Y-128845188D01*
X245275195Y-128847882D01*
X244991351Y-128868943D01*
X244986761Y-128869113D01*
X236570708Y-128869027D01*
X236570620Y-128869027D01*
X236567234Y-128868943D01*
X236474557Y-128866643D01*
X236468458Y-128866190D01*
X236187796Y-128831371D01*
X236169913Y-128827801D01*
X235905220Y-128754365D01*
X235888135Y-128748247D01*
X235637413Y-128637150D01*
X235621389Y-128628594D01*
X235388794Y-128481557D01*
X235374101Y-128470673D01*
X235371938Y-128468809D01*
X235158498Y-128284856D01*
X235155142Y-128281740D01*
X232743006Y-125869552D01*
X239443574Y-125869552D01*
X239459272Y-126048991D01*
X239462644Y-126087527D01*
X239462644Y-126087531D01*
X239519273Y-126298874D01*
X239519275Y-126298878D01*
X239519276Y-126298882D01*
X239545999Y-126356190D01*
X239611748Y-126497190D01*
X239636476Y-126532505D01*
X239737253Y-126676429D01*
X239891974Y-126831150D01*
X240071212Y-126956654D01*
X240269521Y-127049127D01*
X240269526Y-127049128D01*
X240269530Y-127049130D01*
X240294600Y-127055847D01*
X240304626Y-127058533D01*
X240307733Y-127059454D01*
X240311795Y-127060773D01*
X240311799Y-127060775D01*
X240319828Y-127062606D01*
X240480874Y-127105759D01*
X240522058Y-127109362D01*
X240530445Y-127110680D01*
X240567518Y-127119143D01*
X240599686Y-127116153D01*
X240698851Y-127124829D01*
X240744142Y-127120866D01*
X240752312Y-127120694D01*
X240755045Y-127120817D01*
X240755047Y-127120816D01*
X240760600Y-127121067D01*
X240760614Y-127121066D01*
X240790499Y-127122408D01*
X240820330Y-127114201D01*
X240916828Y-127105759D01*
X240964766Y-127092913D01*
X240972494Y-127091362D01*
X240974207Y-127091129D01*
X240977564Y-127090675D01*
X240977566Y-127090674D01*
X240979670Y-127090389D01*
X240979691Y-127090386D01*
X241010460Y-127086218D01*
X241037133Y-127073523D01*
X241099963Y-127056688D01*
X241128171Y-127049130D01*
X241128174Y-127049128D01*
X241128181Y-127049127D01*
X241177033Y-127026346D01*
X241184044Y-127023584D01*
X241191125Y-127021284D01*
X241191128Y-127021282D01*
X241193103Y-127020641D01*
X241193114Y-127020637D01*
X241220504Y-127011737D01*
X241243368Y-126995414D01*
X241326490Y-126956654D01*
X241374180Y-126923260D01*
X241380346Y-126919461D01*
X241381637Y-126918765D01*
X241388864Y-126914877D01*
X241388869Y-126914872D01*
X241393764Y-126912240D01*
X241393770Y-126912236D01*
X241414003Y-126901348D01*
X241432624Y-126882337D01*
X241505728Y-126831150D01*
X241550033Y-126786844D01*
X241555187Y-126782237D01*
X241564425Y-126774871D01*
X241564429Y-126774865D01*
X241568319Y-126771764D01*
X241569717Y-126771192D01*
X241573150Y-126767911D01*
X241584890Y-126758548D01*
X241599031Y-126737846D01*
X241660449Y-126676429D01*
X241698997Y-126621376D01*
X241703057Y-126616193D01*
X241711307Y-126606750D01*
X241713873Y-126605116D01*
X241719505Y-126597365D01*
X241727796Y-126587874D01*
X241737447Y-126566464D01*
X241785953Y-126497191D01*
X241816313Y-126432083D01*
X241819267Y-126426512D01*
X241820497Y-126424451D01*
X241823628Y-126419211D01*
X241826927Y-126416158D01*
X241833056Y-126403433D01*
X241838246Y-126394746D01*
X241843603Y-126373558D01*
X241878426Y-126298882D01*
X241878956Y-126296906D01*
X241880032Y-126292885D01*
X241898259Y-126224862D01*
X241900090Y-126219156D01*
X241901730Y-126214785D01*
X241905253Y-126210099D01*
X241910159Y-126192324D01*
X241912812Y-126185254D01*
X241914263Y-126165135D01*
X241935056Y-126087535D01*
X241935057Y-126087531D01*
X241935058Y-126087529D01*
X241942167Y-126006260D01*
X241942924Y-126000622D01*
X241946335Y-125981828D01*
X241946335Y-125981826D01*
X241948702Y-125968784D01*
X241946918Y-125955786D01*
X241946989Y-125952599D01*
X241947203Y-125948701D01*
X241954128Y-125869552D01*
X241947207Y-125790452D01*
X241946991Y-125786515D01*
X241946964Y-125785379D01*
X241946921Y-125783436D01*
X241949405Y-125774193D01*
X241946335Y-125757276D01*
X241942925Y-125738487D01*
X241942167Y-125732840D01*
X241935058Y-125651575D01*
X241914262Y-125573963D01*
X241914626Y-125558675D01*
X241910159Y-125546774D01*
X241906195Y-125532413D01*
X241901730Y-125524316D01*
X241900095Y-125519961D01*
X241898256Y-125514229D01*
X241878426Y-125440222D01*
X241843603Y-125365546D01*
X241841114Y-125349157D01*
X241833055Y-125335669D01*
X241828119Y-125325421D01*
X241823634Y-125319900D01*
X241819269Y-125312595D01*
X241816306Y-125307007D01*
X241785953Y-125241914D01*
X241737448Y-125172641D01*
X241731754Y-125155757D01*
X241719506Y-125141738D01*
X241714983Y-125135513D01*
X241711304Y-125132349D01*
X241703074Y-125122929D01*
X241698975Y-125117695D01*
X241660450Y-125062676D01*
X241630416Y-125032642D01*
X241599031Y-125001257D01*
X241589912Y-124984557D01*
X241573150Y-124971190D01*
X241570408Y-124968569D01*
X241568319Y-124967338D01*
X241555204Y-124956879D01*
X241550017Y-124952243D01*
X241505729Y-124907955D01*
X241505720Y-124907948D01*
X241432623Y-124856764D01*
X241420013Y-124840988D01*
X241380356Y-124819648D01*
X241374169Y-124815835D01*
X241326494Y-124782452D01*
X241322537Y-124780607D01*
X241243369Y-124743690D01*
X241227359Y-124729592D01*
X241184067Y-124715526D01*
X241177018Y-124712749D01*
X241128183Y-124689978D01*
X241128181Y-124689977D01*
X241112544Y-124685787D01*
X241037124Y-124665577D01*
X241017970Y-124653901D01*
X240972491Y-124647740D01*
X240964760Y-124646188D01*
X240916836Y-124633346D01*
X240916822Y-124633344D01*
X240820323Y-124624902D01*
X240798426Y-124616336D01*
X240752314Y-124618408D01*
X240744122Y-124618234D01*
X240698857Y-124614275D01*
X240698848Y-124614275D01*
X240599671Y-124622951D01*
X240575600Y-124618113D01*
X240530444Y-124628422D01*
X240522042Y-124629742D01*
X240480871Y-124633345D01*
X240382030Y-124659829D01*
X240356474Y-124659220D01*
X240317881Y-124675721D01*
X240301232Y-124681479D01*
X240269518Y-124689977D01*
X240071212Y-124782450D01*
X240071208Y-124782452D01*
X239891972Y-124907954D01*
X239737253Y-125062673D01*
X239611751Y-125241909D01*
X239611749Y-125241913D01*
X239519277Y-125440220D01*
X239519273Y-125440229D01*
X239462644Y-125651572D01*
X239462644Y-125651576D01*
X239450839Y-125786515D01*
X239443574Y-125869552D01*
X232743006Y-125869552D01*
X230336710Y-123463205D01*
X230335144Y-123461251D01*
X230326998Y-123453493D01*
X230321600Y-123448095D01*
X230319746Y-123446592D01*
X230257375Y-123387236D01*
X230255230Y-123384987D01*
X230252698Y-123383196D01*
X230023591Y-123204656D01*
X230022402Y-123203685D01*
X230022046Y-123203504D01*
X229768674Y-123060181D01*
X229767193Y-123059296D01*
X229765533Y-123058702D01*
X229495906Y-122954649D01*
X229494384Y-122954016D01*
X229493956Y-122953938D01*
X229209465Y-122889820D01*
X229207948Y-122889440D01*
X229207524Y-122889426D01*
X228936325Y-122869300D01*
X228916487Y-122867827D01*
X228914480Y-122867549D01*
X228913962Y-122867543D01*
X228911073Y-122867435D01*
X228909253Y-122867524D01*
X194872728Y-122867475D01*
X194868966Y-122867193D01*
X194864895Y-122867397D01*
X194861795Y-122867475D01*
X194861209Y-122867475D01*
X194859450Y-122867670D01*
X194856340Y-122867828D01*
X194610793Y-122880225D01*
X194607925Y-122880233D01*
X194607809Y-122880244D01*
X194605027Y-122880787D01*
X194361501Y-122917953D01*
X194359357Y-122918212D01*
X194357282Y-122918875D01*
X194003822Y-123019134D01*
X194003438Y-123019225D01*
X194001991Y-123019922D01*
X193672965Y-123168585D01*
X193671432Y-123169235D01*
X193670030Y-123170181D01*
X193368710Y-123363298D01*
X193367355Y-123364120D01*
X193367037Y-123364418D01*
X193096687Y-123598580D01*
X193095227Y-123599775D01*
X193094081Y-123601166D01*
X192860806Y-123870488D01*
X192859538Y-123871877D01*
X192858538Y-123873539D01*
X192665608Y-124174571D01*
X192664616Y-124176036D01*
X192663963Y-124177575D01*
X192515319Y-124506555D01*
X192514594Y-124508057D01*
X192514501Y-124508449D01*
X192414156Y-124862209D01*
X192413572Y-124864071D01*
X192413328Y-124866075D01*
X192376154Y-125109653D01*
X192375611Y-125112435D01*
X192375600Y-125112551D01*
X192375592Y-125115420D01*
X192363037Y-125364076D01*
X192362841Y-125365835D01*
X192362841Y-125366427D01*
X192362762Y-125369555D01*
X192351360Y-125595278D01*
X192350476Y-125603037D01*
X192293272Y-125923964D01*
X192288665Y-125941917D01*
X192188060Y-126239503D01*
X192180968Y-126256296D01*
X192039565Y-126532505D01*
X192030249Y-126547850D01*
X191851645Y-126799063D01*
X191840332Y-126812777D01*
X191628139Y-127035342D01*
X191615001Y-127047280D01*
X191372926Y-127237483D01*
X191358108Y-127247487D01*
X191089822Y-127401689D01*
X191073486Y-127409550D01*
X190782630Y-127524149D01*
X190765021Y-127529614D01*
X190455116Y-127601035D01*
X190436625Y-127603849D01*
X190103933Y-127629021D01*
X190099253Y-127629198D01*
X113808680Y-127629198D01*
X113805557Y-127629119D01*
X113743647Y-127625992D01*
X113579833Y-127617719D01*
X113572073Y-127616835D01*
X113251145Y-127559635D01*
X113233191Y-127555028D01*
X112935601Y-127454424D01*
X112918808Y-127447332D01*
X112642603Y-127305935D01*
X112627257Y-127296620D01*
X112376022Y-127118002D01*
X112362316Y-127106694D01*
X112139755Y-126894509D01*
X112127820Y-126881375D01*
X111937606Y-126639289D01*
X111927602Y-126624470D01*
X111921785Y-126614350D01*
X111773400Y-126356187D01*
X111765541Y-126339854D01*
X111749394Y-126298874D01*
X111650938Y-126048991D01*
X111645473Y-126031382D01*
X111633628Y-125979985D01*
X111574050Y-125721469D01*
X111571237Y-125702983D01*
X111567347Y-125651572D01*
X111545887Y-125367913D01*
X111533154Y-125115777D01*
X111533165Y-125112527D01*
X111532525Y-125109337D01*
X111511442Y-124971190D01*
X111495446Y-124866377D01*
X111495169Y-124864005D01*
X111494433Y-124861724D01*
X111394647Y-124509931D01*
X111394204Y-124508211D01*
X111393447Y-124506637D01*
X111244861Y-124177785D01*
X111244150Y-124176095D01*
X111243149Y-124174613D01*
X111050117Y-123873423D01*
X111049253Y-123871997D01*
X111048951Y-123871677D01*
X110814793Y-123601332D01*
X110813587Y-123599858D01*
X110812173Y-123598693D01*
X110565518Y-123385054D01*
X110543030Y-123365576D01*
X110541542Y-123364208D01*
X110539834Y-123363179D01*
X110384197Y-123263431D01*
X110238944Y-123170338D01*
X110237324Y-123169235D01*
X110235587Y-123168505D01*
X109906891Y-123019990D01*
X109905332Y-123019234D01*
X109904894Y-123019129D01*
X109551347Y-122918845D01*
X109549392Y-122918224D01*
X109547372Y-122917975D01*
X109303945Y-122880823D01*
X109301074Y-122880252D01*
X109301050Y-122880249D01*
X109298100Y-122880234D01*
X109273027Y-122878967D01*
X109049661Y-122867688D01*
X109047838Y-122867474D01*
X109046956Y-122867474D01*
X109043821Y-122867395D01*
X109039810Y-122867191D01*
X109036032Y-122867474D01*
X75006447Y-122867474D01*
X75003291Y-122867219D01*
X74996416Y-122867471D01*
X74996334Y-122867474D01*
X74994219Y-122867474D01*
X74992826Y-122867601D01*
X74940018Y-122869531D01*
X74901684Y-122870933D01*
X74898962Y-122870909D01*
X74898710Y-122870930D01*
X74896048Y-122871400D01*
X74612665Y-122909500D01*
X74610770Y-122909702D01*
X74608987Y-122910264D01*
X74333518Y-122989046D01*
X74333163Y-122989130D01*
X74331743Y-122989810D01*
X74072363Y-123106513D01*
X74070532Y-123107275D01*
X74068915Y-123108371D01*
X73826956Y-123262492D01*
X73826736Y-123262619D01*
X73826542Y-123262802D01*
X73608975Y-123450745D01*
X73607416Y-123451938D01*
X73607318Y-123452035D01*
X73604952Y-123454231D01*
X73603651Y-123455679D01*
X69756619Y-127302631D01*
X68777578Y-128281652D01*
X68707985Y-128347876D01*
X68703351Y-128351870D01*
X68480270Y-128525707D01*
X68465105Y-128535825D01*
X68291024Y-128634292D01*
X68226012Y-128671065D01*
X68209605Y-128678819D01*
X67953754Y-128777551D01*
X67936374Y-128782832D01*
X67667942Y-128843328D01*
X67649855Y-128846022D01*
X67366011Y-128867083D01*
X67361421Y-128867253D01*
X58620668Y-128867164D01*
X58620577Y-128867164D01*
X58617312Y-128867083D01*
X58524514Y-128864780D01*
X58518415Y-128864327D01*
X58237753Y-128829508D01*
X58219870Y-128825938D01*
X57955177Y-128752502D01*
X57938092Y-128746384D01*
X57687370Y-128635287D01*
X57671346Y-128626731D01*
X57438752Y-128479693D01*
X57424059Y-128468809D01*
X57290530Y-128353728D01*
X57208463Y-128282998D01*
X57205107Y-128279882D01*
X54792986Y-125867711D01*
X61655885Y-125867711D01*
X61664566Y-125966941D01*
X61671026Y-126040781D01*
X61674955Y-126085684D01*
X61674955Y-126085688D01*
X61731584Y-126297031D01*
X61731586Y-126297035D01*
X61731587Y-126297039D01*
X61755697Y-126348742D01*
X61824059Y-126495347D01*
X61825350Y-126497191D01*
X61949564Y-126674586D01*
X62104285Y-126829307D01*
X62283523Y-126954811D01*
X62481832Y-127047284D01*
X62481837Y-127047285D01*
X62481841Y-127047287D01*
X62506911Y-127054004D01*
X62516937Y-127056690D01*
X62520044Y-127057611D01*
X62524106Y-127058930D01*
X62524110Y-127058932D01*
X62532139Y-127060763D01*
X62693185Y-127103916D01*
X62734369Y-127107519D01*
X62742756Y-127108837D01*
X62779829Y-127117300D01*
X62811997Y-127114310D01*
X62911162Y-127122986D01*
X62956453Y-127119023D01*
X62964623Y-127118851D01*
X62967356Y-127118974D01*
X62967358Y-127118973D01*
X62972911Y-127119224D01*
X62972925Y-127119223D01*
X63002810Y-127120565D01*
X63032641Y-127112358D01*
X63129139Y-127103916D01*
X63177077Y-127091070D01*
X63184805Y-127089519D01*
X63186518Y-127089286D01*
X63189875Y-127088832D01*
X63189877Y-127088831D01*
X63191981Y-127088546D01*
X63192002Y-127088543D01*
X63222771Y-127084375D01*
X63249444Y-127071680D01*
X63305396Y-127056688D01*
X63340482Y-127047287D01*
X63340485Y-127047285D01*
X63340492Y-127047284D01*
X63389344Y-127024503D01*
X63396355Y-127021741D01*
X63403436Y-127019441D01*
X63403439Y-127019439D01*
X63405414Y-127018798D01*
X63405425Y-127018794D01*
X63432815Y-127009894D01*
X63455679Y-126993571D01*
X63538801Y-126954811D01*
X63586491Y-126921417D01*
X63592657Y-126917618D01*
X63593948Y-126916922D01*
X63601175Y-126913034D01*
X63601180Y-126913029D01*
X63606075Y-126910397D01*
X63606081Y-126910393D01*
X63626314Y-126899505D01*
X63644935Y-126880494D01*
X63718039Y-126829307D01*
X63762344Y-126785001D01*
X63767498Y-126780394D01*
X63776736Y-126773028D01*
X63776740Y-126773022D01*
X63780630Y-126769921D01*
X63782028Y-126769349D01*
X63785461Y-126766068D01*
X63797201Y-126756705D01*
X63811342Y-126736003D01*
X63872760Y-126674586D01*
X63911308Y-126619533D01*
X63915368Y-126614350D01*
X63923618Y-126604907D01*
X63926184Y-126603273D01*
X63931816Y-126595522D01*
X63940107Y-126586031D01*
X63949758Y-126564621D01*
X63998264Y-126495348D01*
X64028624Y-126430240D01*
X64031578Y-126424669D01*
X64032808Y-126422608D01*
X64035939Y-126417368D01*
X64039238Y-126414315D01*
X64045367Y-126401590D01*
X64050557Y-126392903D01*
X64055914Y-126371715D01*
X64090737Y-126297039D01*
X64091267Y-126295063D01*
X64092343Y-126291042D01*
X64110570Y-126223019D01*
X64112401Y-126217313D01*
X64114041Y-126212942D01*
X64117564Y-126208256D01*
X64122470Y-126190481D01*
X64125123Y-126183411D01*
X64126574Y-126163292D01*
X64146874Y-126087535D01*
X64147369Y-126085686D01*
X64154478Y-126004417D01*
X64155235Y-125998779D01*
X64158646Y-125979985D01*
X64158646Y-125979983D01*
X64161013Y-125966941D01*
X64159229Y-125953943D01*
X64159300Y-125950756D01*
X64159514Y-125946858D01*
X64166439Y-125867709D01*
X64159518Y-125788609D01*
X64159302Y-125784672D01*
X64159274Y-125783441D01*
X64159232Y-125781593D01*
X64161716Y-125772350D01*
X64158646Y-125755433D01*
X64155236Y-125736644D01*
X64154478Y-125730997D01*
X64147369Y-125649732D01*
X64126573Y-125572120D01*
X64126937Y-125556832D01*
X64122470Y-125544931D01*
X64118506Y-125530570D01*
X64114041Y-125522473D01*
X64112406Y-125518118D01*
X64110567Y-125512386D01*
X64090737Y-125438379D01*
X64055914Y-125363703D01*
X64053425Y-125347314D01*
X64045366Y-125333826D01*
X64040430Y-125323578D01*
X64035945Y-125318057D01*
X64031580Y-125310752D01*
X64028617Y-125305164D01*
X63999125Y-125241918D01*
X63998266Y-125240075D01*
X63998263Y-125240070D01*
X63949759Y-125170798D01*
X63944065Y-125153914D01*
X63931817Y-125139895D01*
X63927294Y-125133670D01*
X63923615Y-125130506D01*
X63915385Y-125121086D01*
X63911286Y-125115852D01*
X63872761Y-125060833D01*
X63842409Y-125030481D01*
X63811342Y-124999414D01*
X63802223Y-124982714D01*
X63785461Y-124969347D01*
X63782719Y-124966726D01*
X63780630Y-124965495D01*
X63767515Y-124955036D01*
X63762328Y-124950400D01*
X63718040Y-124906112D01*
X63718031Y-124906105D01*
X63644934Y-124854921D01*
X63632324Y-124839145D01*
X63592667Y-124817805D01*
X63586480Y-124813992D01*
X63538805Y-124780609D01*
X63455680Y-124741847D01*
X63439670Y-124727749D01*
X63396378Y-124713683D01*
X63389329Y-124710906D01*
X63340494Y-124688135D01*
X63340492Y-124688134D01*
X63324855Y-124683944D01*
X63249435Y-124663734D01*
X63230281Y-124652058D01*
X63184802Y-124645897D01*
X63177071Y-124644345D01*
X63129147Y-124631503D01*
X63129133Y-124631501D01*
X63032634Y-124623059D01*
X63010737Y-124614493D01*
X62964625Y-124616565D01*
X62956433Y-124616391D01*
X62911168Y-124612432D01*
X62911159Y-124612432D01*
X62811982Y-124621108D01*
X62787911Y-124616270D01*
X62742755Y-124626579D01*
X62734353Y-124627899D01*
X62693182Y-124631502D01*
X62594341Y-124657986D01*
X62568785Y-124657377D01*
X62530192Y-124673878D01*
X62513543Y-124679636D01*
X62481829Y-124688134D01*
X62283523Y-124780607D01*
X62283519Y-124780609D01*
X62104283Y-124906111D01*
X61949564Y-125060830D01*
X61824062Y-125240066D01*
X61824060Y-125240070D01*
X61731588Y-125438377D01*
X61731584Y-125438386D01*
X61674955Y-125649729D01*
X61674955Y-125649733D01*
X61655885Y-125867706D01*
X61655885Y-125867711D01*
X54792986Y-125867711D01*
X52378328Y-123453002D01*
X52312103Y-123383410D01*
X52308110Y-123378776D01*
X52134266Y-123155687D01*
X52124164Y-123140545D01*
X51988913Y-122901433D01*
X51981164Y-122885035D01*
X51882432Y-122629184D01*
X51877151Y-122611804D01*
X51836942Y-122433389D01*
X51816654Y-122343366D01*
X51813962Y-122325292D01*
X51792900Y-122041439D01*
X51792731Y-122036853D01*
X51792752Y-120072914D01*
X51792754Y-119837808D01*
X54316840Y-119837808D01*
X54317028Y-119841211D01*
X54317073Y-119842866D01*
X54317457Y-119844580D01*
X54317506Y-119844840D01*
X54318129Y-119846765D01*
X54373322Y-120064733D01*
X54374258Y-120072914D01*
X54376054Y-120077517D01*
X54376681Y-120079484D01*
X54377576Y-120081413D01*
X54377606Y-120081486D01*
X54378325Y-120082541D01*
X54378353Y-120082585D01*
X54379649Y-120084133D01*
X54383154Y-120088828D01*
X54389543Y-120093917D01*
X54547592Y-120259764D01*
X54553133Y-120267171D01*
X54553742Y-120267723D01*
X54556859Y-120269905D01*
X54558059Y-120270793D01*
X54559361Y-120271403D01*
X54563801Y-120273622D01*
X54563820Y-120273628D01*
X54573416Y-120275053D01*
X54813663Y-120342129D01*
X54815823Y-120342883D01*
X54817614Y-120343310D01*
X54818862Y-120343358D01*
X54821287Y-120343216D01*
X67808634Y-120343216D01*
X67812416Y-120343488D01*
X67816267Y-120343295D01*
X67817673Y-120343259D01*
X67819040Y-120342953D01*
X67822810Y-120342203D01*
X67826456Y-120340994D01*
X68039013Y-120287171D01*
X68047526Y-120286242D01*
X68047655Y-120286191D01*
X68051775Y-120284897D01*
X68054071Y-120283815D01*
X68056348Y-120282847D01*
X68057446Y-120282086D01*
X68059438Y-120280408D01*
X68063625Y-120277311D01*
X68068810Y-120270802D01*
X68234231Y-120113158D01*
X68242112Y-120107323D01*
X68244533Y-120103869D01*
X68245733Y-120102274D01*
X68246569Y-120100476D01*
X68248415Y-120096833D01*
X68249866Y-120087251D01*
X68251509Y-120081365D01*
X68316973Y-119846890D01*
X68317732Y-119844741D01*
X68318227Y-119842727D01*
X68318271Y-119841620D01*
X68318121Y-119839045D01*
X68318121Y-119837808D01*
X73366840Y-119837808D01*
X73367028Y-119841211D01*
X73367073Y-119842866D01*
X73367457Y-119844580D01*
X73367506Y-119844840D01*
X73368129Y-119846765D01*
X73423322Y-120064733D01*
X73424258Y-120072914D01*
X73426054Y-120077517D01*
X73426681Y-120079484D01*
X73427576Y-120081413D01*
X73427606Y-120081486D01*
X73428325Y-120082541D01*
X73428353Y-120082585D01*
X73429649Y-120084133D01*
X73433154Y-120088828D01*
X73439543Y-120093917D01*
X73597592Y-120259764D01*
X73603133Y-120267171D01*
X73603742Y-120267723D01*
X73606859Y-120269905D01*
X73608059Y-120270793D01*
X73609361Y-120271403D01*
X73613801Y-120273622D01*
X73613820Y-120273628D01*
X73623416Y-120275053D01*
X73863663Y-120342129D01*
X73865823Y-120342883D01*
X73867614Y-120343310D01*
X73868862Y-120343358D01*
X73871287Y-120343216D01*
X86858634Y-120343216D01*
X86862416Y-120343488D01*
X86866267Y-120343295D01*
X86867673Y-120343259D01*
X86869040Y-120342953D01*
X86872810Y-120342203D01*
X86876456Y-120340994D01*
X87089013Y-120287171D01*
X87097526Y-120286242D01*
X87097655Y-120286191D01*
X87101775Y-120284897D01*
X87104071Y-120283815D01*
X87106348Y-120282847D01*
X87107446Y-120282086D01*
X87109438Y-120280408D01*
X87113625Y-120277311D01*
X87118810Y-120270802D01*
X87284231Y-120113158D01*
X87292112Y-120107323D01*
X87294533Y-120103869D01*
X87295733Y-120102274D01*
X87296569Y-120100476D01*
X87298415Y-120096833D01*
X87299866Y-120087251D01*
X87301509Y-120081365D01*
X87366973Y-119846890D01*
X87367732Y-119844741D01*
X87368227Y-119842727D01*
X87368271Y-119841620D01*
X87368121Y-119839045D01*
X87368121Y-119837808D01*
X92416840Y-119837808D01*
X92417028Y-119841211D01*
X92417073Y-119842866D01*
X92417457Y-119844580D01*
X92417506Y-119844840D01*
X92418129Y-119846765D01*
X92473322Y-120064733D01*
X92474258Y-120072914D01*
X92476054Y-120077517D01*
X92476681Y-120079484D01*
X92477576Y-120081413D01*
X92477606Y-120081486D01*
X92478325Y-120082541D01*
X92478353Y-120082585D01*
X92479649Y-120084133D01*
X92483154Y-120088828D01*
X92489543Y-120093917D01*
X92647592Y-120259764D01*
X92653133Y-120267171D01*
X92653742Y-120267723D01*
X92656859Y-120269905D01*
X92658059Y-120270793D01*
X92659361Y-120271403D01*
X92663801Y-120273622D01*
X92663820Y-120273628D01*
X92673416Y-120275053D01*
X92913663Y-120342129D01*
X92915823Y-120342883D01*
X92917614Y-120343310D01*
X92918862Y-120343358D01*
X92921287Y-120343216D01*
X105908634Y-120343216D01*
X105912416Y-120343488D01*
X105916267Y-120343295D01*
X105917673Y-120343259D01*
X105919040Y-120342953D01*
X105922810Y-120342203D01*
X105926456Y-120340994D01*
X106139013Y-120287171D01*
X106147526Y-120286242D01*
X106147655Y-120286191D01*
X106151775Y-120284897D01*
X106154071Y-120283815D01*
X106156348Y-120282847D01*
X106157446Y-120282086D01*
X106159438Y-120280408D01*
X106163625Y-120277311D01*
X106168810Y-120270802D01*
X106334231Y-120113158D01*
X106342112Y-120107323D01*
X106344533Y-120103869D01*
X106345733Y-120102274D01*
X106346569Y-120100476D01*
X106348415Y-120096833D01*
X106349866Y-120087251D01*
X106351509Y-120081365D01*
X106416973Y-119846890D01*
X106417732Y-119844741D01*
X106418227Y-119842727D01*
X106418271Y-119841620D01*
X106418121Y-119839045D01*
X106418121Y-109606803D01*
X117316477Y-109606803D01*
X117316620Y-109609198D01*
X117316620Y-124601512D01*
X117316490Y-124603564D01*
X117316499Y-124603703D01*
X117316556Y-124605547D01*
X117316958Y-124607341D01*
X117317007Y-124607601D01*
X117317629Y-124609523D01*
X117362217Y-124785610D01*
X117372822Y-124827491D01*
X117373758Y-124835672D01*
X117375554Y-124840275D01*
X117376181Y-124842242D01*
X117377076Y-124844171D01*
X117377106Y-124844244D01*
X117377825Y-124845299D01*
X117377853Y-124845343D01*
X117379149Y-124846891D01*
X117382654Y-124851586D01*
X117389043Y-124856675D01*
X117547092Y-125022522D01*
X117552633Y-125029929D01*
X117553242Y-125030481D01*
X117556359Y-125032663D01*
X117557559Y-125033551D01*
X117558861Y-125034161D01*
X117563301Y-125036380D01*
X117563320Y-125036386D01*
X117572916Y-125037811D01*
X117813163Y-125104887D01*
X117815323Y-125105641D01*
X117817114Y-125106068D01*
X117818362Y-125106116D01*
X117820787Y-125105974D01*
X139246134Y-125105974D01*
X139249916Y-125106246D01*
X139253767Y-125106053D01*
X139255173Y-125106017D01*
X139256540Y-125105711D01*
X139260310Y-125104961D01*
X139263956Y-125103752D01*
X139476513Y-125049929D01*
X139485026Y-125049000D01*
X139485155Y-125048949D01*
X139489275Y-125047655D01*
X139491571Y-125046573D01*
X139493848Y-125045605D01*
X139494946Y-125044844D01*
X139496938Y-125043166D01*
X139501125Y-125040069D01*
X139506310Y-125033560D01*
X139671731Y-124875916D01*
X139679612Y-124870081D01*
X139682033Y-124866627D01*
X139683233Y-124865032D01*
X139684069Y-124863234D01*
X139685915Y-124859591D01*
X139687366Y-124850009D01*
X139689009Y-124844123D01*
X139754473Y-124609648D01*
X139755232Y-124607499D01*
X139755727Y-124605485D01*
X139755771Y-124604378D01*
X139755621Y-124601803D01*
X139755621Y-124600566D01*
X141192340Y-124600566D01*
X141192528Y-124603969D01*
X141192573Y-124605624D01*
X141192957Y-124607338D01*
X141193006Y-124607598D01*
X141193629Y-124609523D01*
X141238217Y-124785610D01*
X141248822Y-124827491D01*
X141249758Y-124835672D01*
X141251554Y-124840275D01*
X141252181Y-124842242D01*
X141253076Y-124844171D01*
X141253106Y-124844244D01*
X141253825Y-124845299D01*
X141253853Y-124845343D01*
X141255149Y-124846891D01*
X141258654Y-124851586D01*
X141265043Y-124856675D01*
X141423092Y-125022522D01*
X141428633Y-125029929D01*
X141429242Y-125030481D01*
X141432359Y-125032663D01*
X141433559Y-125033551D01*
X141434861Y-125034161D01*
X141439301Y-125036380D01*
X141439320Y-125036386D01*
X141448916Y-125037811D01*
X141689163Y-125104887D01*
X141691323Y-125105641D01*
X141693114Y-125106068D01*
X141694362Y-125106116D01*
X141696787Y-125105974D01*
X161908134Y-125105974D01*
X161911916Y-125106246D01*
X161915767Y-125106053D01*
X161917173Y-125106017D01*
X161918540Y-125105711D01*
X161922310Y-125104961D01*
X161925956Y-125103752D01*
X162138513Y-125049929D01*
X162147026Y-125049000D01*
X162147155Y-125048949D01*
X162151275Y-125047655D01*
X162153571Y-125046573D01*
X162155848Y-125045605D01*
X162156946Y-125044844D01*
X162158938Y-125043166D01*
X162163125Y-125040069D01*
X162168310Y-125033560D01*
X162333731Y-124875916D01*
X162341612Y-124870081D01*
X162344033Y-124866627D01*
X162345233Y-124865032D01*
X162346069Y-124863234D01*
X162347915Y-124859591D01*
X162349366Y-124850009D01*
X162351009Y-124844123D01*
X162416473Y-124609648D01*
X162417232Y-124607499D01*
X162417727Y-124605485D01*
X162417771Y-124604378D01*
X162417621Y-124601803D01*
X162417621Y-124600566D01*
X163854340Y-124600566D01*
X163854528Y-124603969D01*
X163854573Y-124605624D01*
X163854957Y-124607338D01*
X163855006Y-124607598D01*
X163855629Y-124609523D01*
X163900217Y-124785610D01*
X163910822Y-124827491D01*
X163911758Y-124835672D01*
X163913554Y-124840275D01*
X163914181Y-124842242D01*
X163915076Y-124844171D01*
X163915106Y-124844244D01*
X163915825Y-124845299D01*
X163915853Y-124845343D01*
X163917149Y-124846891D01*
X163920654Y-124851586D01*
X163927043Y-124856675D01*
X164085092Y-125022522D01*
X164090633Y-125029929D01*
X164091242Y-125030481D01*
X164094359Y-125032663D01*
X164095559Y-125033551D01*
X164096861Y-125034161D01*
X164101301Y-125036380D01*
X164101320Y-125036386D01*
X164110916Y-125037811D01*
X164351163Y-125104887D01*
X164353323Y-125105641D01*
X164355114Y-125106068D01*
X164356362Y-125106116D01*
X164358787Y-125105974D01*
X185784134Y-125105974D01*
X185787916Y-125106246D01*
X185791767Y-125106053D01*
X185793173Y-125106017D01*
X185794540Y-125105711D01*
X185798310Y-125104961D01*
X185801956Y-125103752D01*
X186014513Y-125049929D01*
X186023026Y-125049000D01*
X186023155Y-125048949D01*
X186027275Y-125047655D01*
X186029571Y-125046573D01*
X186031848Y-125045605D01*
X186032946Y-125044844D01*
X186034938Y-125043166D01*
X186039125Y-125040069D01*
X186044310Y-125033560D01*
X186209731Y-124875916D01*
X186217612Y-124870081D01*
X186220033Y-124866627D01*
X186221233Y-124865032D01*
X186222069Y-124863234D01*
X186223915Y-124859591D01*
X186225366Y-124850009D01*
X186227009Y-124844123D01*
X186292473Y-124609648D01*
X186293232Y-124607499D01*
X186293727Y-124605485D01*
X186293771Y-124604378D01*
X186293621Y-124601803D01*
X186293621Y-119837808D01*
X197191840Y-119837808D01*
X197192028Y-119841211D01*
X197192073Y-119842866D01*
X197192457Y-119844580D01*
X197192506Y-119844840D01*
X197193129Y-119846765D01*
X197248322Y-120064733D01*
X197249258Y-120072914D01*
X197251054Y-120077517D01*
X197251681Y-120079484D01*
X197252576Y-120081413D01*
X197252606Y-120081486D01*
X197253325Y-120082541D01*
X197253353Y-120082585D01*
X197254649Y-120084133D01*
X197258154Y-120088828D01*
X197264543Y-120093917D01*
X197422592Y-120259764D01*
X197428133Y-120267171D01*
X197428742Y-120267723D01*
X197431859Y-120269905D01*
X197433059Y-120270793D01*
X197434361Y-120271403D01*
X197438801Y-120273622D01*
X197438820Y-120273628D01*
X197448416Y-120275053D01*
X197688663Y-120342129D01*
X197690823Y-120342883D01*
X197692614Y-120343310D01*
X197693862Y-120343358D01*
X197696287Y-120343216D01*
X210683634Y-120343216D01*
X210687416Y-120343488D01*
X210691267Y-120343295D01*
X210692673Y-120343259D01*
X210694040Y-120342953D01*
X210697810Y-120342203D01*
X210701456Y-120340994D01*
X210914013Y-120287171D01*
X210922526Y-120286242D01*
X210922655Y-120286191D01*
X210926775Y-120284897D01*
X210929071Y-120283815D01*
X210931348Y-120282847D01*
X210932446Y-120282086D01*
X210934438Y-120280408D01*
X210938625Y-120277311D01*
X210943810Y-120270802D01*
X211109231Y-120113158D01*
X211117112Y-120107323D01*
X211119533Y-120103869D01*
X211120733Y-120102274D01*
X211121569Y-120100476D01*
X211123415Y-120096833D01*
X211124866Y-120087251D01*
X211126509Y-120081365D01*
X211191973Y-119846890D01*
X211192732Y-119844741D01*
X211193227Y-119842727D01*
X211193271Y-119841620D01*
X211193121Y-119839045D01*
X211193121Y-119837808D01*
X216241840Y-119837808D01*
X216242028Y-119841211D01*
X216242073Y-119842866D01*
X216242457Y-119844580D01*
X216242506Y-119844840D01*
X216243129Y-119846765D01*
X216298322Y-120064733D01*
X216299258Y-120072914D01*
X216301054Y-120077517D01*
X216301681Y-120079484D01*
X216302576Y-120081413D01*
X216302606Y-120081486D01*
X216303325Y-120082541D01*
X216303353Y-120082585D01*
X216304649Y-120084133D01*
X216308154Y-120088828D01*
X216314543Y-120093917D01*
X216472592Y-120259764D01*
X216478133Y-120267171D01*
X216478742Y-120267723D01*
X216481859Y-120269905D01*
X216483059Y-120270793D01*
X216484361Y-120271403D01*
X216488801Y-120273622D01*
X216488820Y-120273628D01*
X216498416Y-120275053D01*
X216738663Y-120342129D01*
X216740823Y-120342883D01*
X216742614Y-120343310D01*
X216743862Y-120343358D01*
X216746287Y-120343216D01*
X229733634Y-120343216D01*
X229737416Y-120343488D01*
X229741267Y-120343295D01*
X229742673Y-120343259D01*
X229744040Y-120342953D01*
X229747810Y-120342203D01*
X229751456Y-120340994D01*
X229964013Y-120287171D01*
X229972526Y-120286242D01*
X229972655Y-120286191D01*
X229976775Y-120284897D01*
X229979071Y-120283815D01*
X229981348Y-120282847D01*
X229982446Y-120282086D01*
X229984438Y-120280408D01*
X229988625Y-120277311D01*
X229993810Y-120270802D01*
X230159231Y-120113158D01*
X230167112Y-120107323D01*
X230169533Y-120103869D01*
X230170733Y-120102274D01*
X230171569Y-120100476D01*
X230173415Y-120096833D01*
X230174866Y-120087251D01*
X230176509Y-120081365D01*
X230241973Y-119846890D01*
X230242732Y-119844741D01*
X230243227Y-119842727D01*
X230243271Y-119841620D01*
X230243121Y-119839045D01*
X230243121Y-119837808D01*
X235291840Y-119837808D01*
X235292028Y-119841211D01*
X235292073Y-119842866D01*
X235292457Y-119844580D01*
X235292506Y-119844840D01*
X235293129Y-119846765D01*
X235348322Y-120064733D01*
X235349258Y-120072914D01*
X235351054Y-120077517D01*
X235351681Y-120079484D01*
X235352576Y-120081413D01*
X235352606Y-120081486D01*
X235353325Y-120082541D01*
X235353353Y-120082585D01*
X235354649Y-120084133D01*
X235358154Y-120088828D01*
X235364543Y-120093917D01*
X235522592Y-120259764D01*
X235528133Y-120267171D01*
X235528742Y-120267723D01*
X235531859Y-120269905D01*
X235533059Y-120270793D01*
X235534361Y-120271403D01*
X235538801Y-120273622D01*
X235538820Y-120273628D01*
X235548416Y-120275053D01*
X235788663Y-120342129D01*
X235790823Y-120342883D01*
X235792614Y-120343310D01*
X235793862Y-120343358D01*
X235796287Y-120343216D01*
X248783634Y-120343216D01*
X248787416Y-120343488D01*
X248791267Y-120343295D01*
X248792673Y-120343259D01*
X248794040Y-120342953D01*
X248797810Y-120342203D01*
X248801456Y-120340994D01*
X249014013Y-120287171D01*
X249022526Y-120286242D01*
X249022655Y-120286191D01*
X249026775Y-120284897D01*
X249029071Y-120283815D01*
X249031348Y-120282847D01*
X249032446Y-120282086D01*
X249034438Y-120280408D01*
X249038625Y-120277311D01*
X249043810Y-120270802D01*
X249209231Y-120113158D01*
X249217112Y-120107323D01*
X249219533Y-120103869D01*
X249220733Y-120102274D01*
X249221569Y-120100476D01*
X249223415Y-120096833D01*
X249224866Y-120087251D01*
X249226509Y-120081365D01*
X249291973Y-119846890D01*
X249292732Y-119844741D01*
X249293227Y-119842727D01*
X249293271Y-119841620D01*
X249293121Y-119839045D01*
X249293121Y-106851705D01*
X249293430Y-106847422D01*
X249293300Y-106845374D01*
X249293250Y-106842680D01*
X249292649Y-106840082D01*
X249292234Y-106837852D01*
X249290857Y-106833715D01*
X249237219Y-106621887D01*
X249236338Y-106613454D01*
X249234210Y-106607986D01*
X249233381Y-106605367D01*
X249232826Y-106604048D01*
X249232437Y-106603482D01*
X249230516Y-106601195D01*
X249227155Y-106596692D01*
X249220790Y-106591612D01*
X249063521Y-106426583D01*
X249058136Y-106419230D01*
X249056368Y-106417628D01*
X249053371Y-106415520D01*
X249052190Y-106414641D01*
X249050859Y-106414009D01*
X249047496Y-106412305D01*
X249046643Y-106411999D01*
X249037620Y-106410598D01*
X248796421Y-106343257D01*
X248794183Y-106342483D01*
X248792663Y-106342122D01*
X248791378Y-106342073D01*
X248788954Y-106342216D01*
X235801608Y-106342216D01*
X235797825Y-106341943D01*
X235793975Y-106342137D01*
X235792472Y-106342175D01*
X235790865Y-106342527D01*
X235790662Y-106342565D01*
X235788729Y-106343184D01*
X235571145Y-106398279D01*
X235563053Y-106399168D01*
X235557337Y-106401359D01*
X235555287Y-106402017D01*
X235554008Y-106402574D01*
X235553173Y-106403137D01*
X235551473Y-106404558D01*
X235546484Y-106408317D01*
X235541510Y-106414550D01*
X235376011Y-106572267D01*
X235369230Y-106577288D01*
X235367104Y-106579982D01*
X235365791Y-106581441D01*
X235364568Y-106583182D01*
X235363443Y-106585438D01*
X235362807Y-106587208D01*
X235361670Y-106589793D01*
X235360413Y-106598036D01*
X235293117Y-106839076D01*
X235292325Y-106841385D01*
X235292030Y-106842632D01*
X235291978Y-106844035D01*
X235292121Y-106846434D01*
X235292121Y-119833866D01*
X235291840Y-119837808D01*
X230243121Y-119837808D01*
X230243121Y-106851703D01*
X230243393Y-106847922D01*
X230243200Y-106844071D01*
X230243164Y-106842670D01*
X230242867Y-106841349D01*
X230242068Y-106837354D01*
X230240859Y-106833724D01*
X230187219Y-106621887D01*
X230186338Y-106613454D01*
X230184210Y-106607986D01*
X230183381Y-106605367D01*
X230182826Y-106604048D01*
X230182437Y-106603482D01*
X230180516Y-106601195D01*
X230177155Y-106596692D01*
X230170790Y-106591612D01*
X230013521Y-106426583D01*
X230008136Y-106419230D01*
X230006368Y-106417628D01*
X230003371Y-106415520D01*
X230002190Y-106414641D01*
X230000859Y-106414009D01*
X229997496Y-106412305D01*
X229996643Y-106411999D01*
X229987620Y-106410598D01*
X229746421Y-106343257D01*
X229744183Y-106342483D01*
X229742663Y-106342122D01*
X229741378Y-106342073D01*
X229738954Y-106342216D01*
X216751608Y-106342216D01*
X216747825Y-106341943D01*
X216743975Y-106342137D01*
X216742472Y-106342175D01*
X216740865Y-106342527D01*
X216740662Y-106342565D01*
X216738729Y-106343184D01*
X216521145Y-106398279D01*
X216513053Y-106399168D01*
X216507337Y-106401359D01*
X216505287Y-106402017D01*
X216504008Y-106402574D01*
X216503173Y-106403137D01*
X216501473Y-106404558D01*
X216496484Y-106408317D01*
X216491510Y-106414550D01*
X216326011Y-106572267D01*
X216319230Y-106577288D01*
X216317104Y-106579982D01*
X216315791Y-106581441D01*
X216314568Y-106583182D01*
X216313443Y-106585438D01*
X216312807Y-106587208D01*
X216311670Y-106589793D01*
X216310413Y-106598036D01*
X216243117Y-106839076D01*
X216242325Y-106841385D01*
X216242030Y-106842632D01*
X216241978Y-106844035D01*
X216242121Y-106846434D01*
X216242121Y-119833866D01*
X216241840Y-119837808D01*
X211193121Y-119837808D01*
X211193121Y-106851703D01*
X211193393Y-106847922D01*
X211193200Y-106844071D01*
X211193164Y-106842670D01*
X211192867Y-106841349D01*
X211192068Y-106837354D01*
X211190859Y-106833724D01*
X211137219Y-106621887D01*
X211136338Y-106613454D01*
X211134210Y-106607986D01*
X211133381Y-106605367D01*
X211132826Y-106604048D01*
X211132437Y-106603482D01*
X211130516Y-106601195D01*
X211127155Y-106596692D01*
X211120790Y-106591612D01*
X210963521Y-106426583D01*
X210958136Y-106419230D01*
X210956368Y-106417628D01*
X210953371Y-106415520D01*
X210952190Y-106414641D01*
X210950859Y-106414009D01*
X210947496Y-106412305D01*
X210946643Y-106411999D01*
X210937620Y-106410598D01*
X210696421Y-106343257D01*
X210694183Y-106342483D01*
X210692663Y-106342122D01*
X210691378Y-106342073D01*
X210688954Y-106342216D01*
X197701608Y-106342216D01*
X197697825Y-106341943D01*
X197693975Y-106342137D01*
X197692472Y-106342175D01*
X197690865Y-106342527D01*
X197690662Y-106342565D01*
X197688729Y-106343184D01*
X197471145Y-106398279D01*
X197463053Y-106399168D01*
X197457337Y-106401359D01*
X197455287Y-106402017D01*
X197454008Y-106402574D01*
X197453173Y-106403137D01*
X197451473Y-106404558D01*
X197446484Y-106408317D01*
X197441510Y-106414550D01*
X197276011Y-106572267D01*
X197269230Y-106577288D01*
X197267104Y-106579982D01*
X197265791Y-106581441D01*
X197264568Y-106583182D01*
X197263443Y-106585438D01*
X197262807Y-106587208D01*
X197261670Y-106589793D01*
X197260413Y-106598036D01*
X197193117Y-106839076D01*
X197192325Y-106841385D01*
X197192030Y-106842632D01*
X197191978Y-106844035D01*
X197192121Y-106846434D01*
X197192121Y-119833866D01*
X197191840Y-119837808D01*
X186293621Y-119837808D01*
X186293621Y-119833866D01*
X186293621Y-109614447D01*
X186293893Y-109610675D01*
X186293700Y-109606829D01*
X186293664Y-109605428D01*
X186293367Y-109604107D01*
X186292568Y-109600112D01*
X186291359Y-109596482D01*
X186237719Y-109384645D01*
X186236838Y-109376212D01*
X186234710Y-109370744D01*
X186233881Y-109368125D01*
X186233326Y-109366806D01*
X186232937Y-109366240D01*
X186231016Y-109363953D01*
X186227655Y-109359450D01*
X186221290Y-109354370D01*
X186064021Y-109189341D01*
X186058636Y-109181988D01*
X186056868Y-109180386D01*
X186053871Y-109178278D01*
X186052690Y-109177399D01*
X186051359Y-109176767D01*
X186047996Y-109175063D01*
X186047142Y-109174757D01*
X186038120Y-109173356D01*
X185796834Y-109105991D01*
X185793767Y-109104935D01*
X185793121Y-109104933D01*
X185793120Y-109104933D01*
X185784704Y-109104912D01*
X185776705Y-109106991D01*
X185768438Y-109108010D01*
X185768138Y-109105582D01*
X185751440Y-109109974D01*
X177389108Y-109109974D01*
X177385325Y-109109701D01*
X177381475Y-109109895D01*
X177379972Y-109109933D01*
X177378365Y-109110285D01*
X177378162Y-109110323D01*
X177376229Y-109110942D01*
X177158645Y-109166037D01*
X177150553Y-109166926D01*
X177144837Y-109169117D01*
X177142787Y-109169775D01*
X177141508Y-109170332D01*
X177140673Y-109170895D01*
X177138973Y-109172316D01*
X177133984Y-109176075D01*
X177129010Y-109182308D01*
X176963511Y-109340025D01*
X176956730Y-109345046D01*
X176954604Y-109347740D01*
X176953291Y-109349199D01*
X176952068Y-109350940D01*
X176950943Y-109353196D01*
X176950307Y-109354966D01*
X176949170Y-109357551D01*
X176947913Y-109365794D01*
X176880617Y-109606834D01*
X176879825Y-109609143D01*
X176879530Y-109610390D01*
X176879478Y-109611793D01*
X176879621Y-109614192D01*
X176879621Y-110589957D01*
X176875827Y-110620395D01*
X176827308Y-110812005D01*
X176796868Y-110867112D01*
X176794143Y-110869972D01*
X176662668Y-111007934D01*
X176606248Y-111041820D01*
X176479792Y-111077126D01*
X176396412Y-111100406D01*
X176363068Y-111104974D01*
X164364108Y-111104974D01*
X164360325Y-111104701D01*
X164356475Y-111104895D01*
X164354972Y-111104933D01*
X164353365Y-111105285D01*
X164353162Y-111105323D01*
X164351229Y-111105942D01*
X164133645Y-111161037D01*
X164125553Y-111161926D01*
X164119837Y-111164117D01*
X164117787Y-111164775D01*
X164116508Y-111165332D01*
X164115673Y-111165895D01*
X164113973Y-111167316D01*
X164108984Y-111171075D01*
X164104010Y-111177308D01*
X163938511Y-111335025D01*
X163931730Y-111340046D01*
X163929604Y-111342740D01*
X163928291Y-111344199D01*
X163927068Y-111345940D01*
X163925943Y-111348196D01*
X163925307Y-111349966D01*
X163924170Y-111352551D01*
X163922913Y-111360794D01*
X163855617Y-111601834D01*
X163854825Y-111604143D01*
X163854530Y-111605390D01*
X163854478Y-111606793D01*
X163854621Y-111609192D01*
X163854621Y-124596624D01*
X163854340Y-124600566D01*
X162417621Y-124600566D01*
X162417621Y-109614461D01*
X162417893Y-109610680D01*
X162417700Y-109606829D01*
X162417664Y-109605428D01*
X162417367Y-109604107D01*
X162416568Y-109600112D01*
X162415359Y-109596482D01*
X162361719Y-109384645D01*
X162360838Y-109376212D01*
X162358710Y-109370744D01*
X162357881Y-109368125D01*
X162357326Y-109366806D01*
X162356937Y-109366240D01*
X162355016Y-109363953D01*
X162351655Y-109359450D01*
X162345290Y-109354370D01*
X162188021Y-109189341D01*
X162182636Y-109181988D01*
X162180868Y-109180386D01*
X162177871Y-109178278D01*
X162176690Y-109177399D01*
X162175359Y-109176767D01*
X162171996Y-109175063D01*
X162171143Y-109174757D01*
X162162120Y-109173356D01*
X161920921Y-109106015D01*
X161918683Y-109105241D01*
X161917163Y-109104880D01*
X161915878Y-109104831D01*
X161913454Y-109104974D01*
X155926108Y-109104974D01*
X155922325Y-109104701D01*
X155918475Y-109104895D01*
X155916972Y-109104933D01*
X155915365Y-109105285D01*
X155915162Y-109105323D01*
X155913229Y-109105942D01*
X155695645Y-109161037D01*
X155687553Y-109161926D01*
X155681837Y-109164117D01*
X155679787Y-109164775D01*
X155678508Y-109165332D01*
X155677673Y-109165895D01*
X155675973Y-109167316D01*
X155670984Y-109171075D01*
X155666010Y-109177308D01*
X155500511Y-109335025D01*
X155493730Y-109340046D01*
X155491604Y-109342740D01*
X155490291Y-109344199D01*
X155489068Y-109345940D01*
X155487943Y-109348196D01*
X155487307Y-109349966D01*
X155486170Y-109352551D01*
X155484913Y-109360794D01*
X155417617Y-109601834D01*
X155416825Y-109604143D01*
X155416530Y-109605390D01*
X155416477Y-109606803D01*
X155416620Y-109609198D01*
X155416620Y-110594957D01*
X155412826Y-110625395D01*
X155364308Y-110817005D01*
X155333868Y-110872113D01*
X155199668Y-111012934D01*
X155143248Y-111046820D01*
X155016792Y-111082126D01*
X154933412Y-111105406D01*
X154900068Y-111109974D01*
X148708637Y-111109974D01*
X148678199Y-111106180D01*
X148486587Y-111057661D01*
X148431480Y-111027221D01*
X148290658Y-110893021D01*
X148256773Y-110836603D01*
X148198188Y-110626762D01*
X148193621Y-110593418D01*
X148193621Y-109614461D01*
X148193893Y-109610680D01*
X148193700Y-109606829D01*
X148193664Y-109605428D01*
X148193367Y-109604107D01*
X148192568Y-109600112D01*
X148191359Y-109596482D01*
X148137719Y-109384645D01*
X148136838Y-109376212D01*
X148134710Y-109370744D01*
X148133881Y-109368125D01*
X148133326Y-109366806D01*
X148132937Y-109366240D01*
X148131016Y-109363953D01*
X148127655Y-109359450D01*
X148121290Y-109354370D01*
X147964021Y-109189341D01*
X147958636Y-109181988D01*
X147956868Y-109180386D01*
X147953871Y-109178278D01*
X147952690Y-109177399D01*
X147951359Y-109176767D01*
X147947996Y-109175063D01*
X147947143Y-109174757D01*
X147938120Y-109173356D01*
X147696921Y-109106015D01*
X147694683Y-109105241D01*
X147693163Y-109104880D01*
X147691878Y-109104831D01*
X147689454Y-109104974D01*
X141702108Y-109104974D01*
X141698325Y-109104701D01*
X141694475Y-109104895D01*
X141692972Y-109104933D01*
X141691365Y-109105285D01*
X141691162Y-109105323D01*
X141689229Y-109105942D01*
X141471645Y-109161037D01*
X141463553Y-109161926D01*
X141457837Y-109164117D01*
X141455787Y-109164775D01*
X141454508Y-109165332D01*
X141453673Y-109165895D01*
X141451973Y-109167316D01*
X141446984Y-109171075D01*
X141442010Y-109177308D01*
X141276511Y-109335025D01*
X141269730Y-109340046D01*
X141267604Y-109342740D01*
X141266291Y-109344199D01*
X141265068Y-109345940D01*
X141263943Y-109348196D01*
X141263307Y-109349966D01*
X141262170Y-109352551D01*
X141260913Y-109360794D01*
X141193617Y-109601834D01*
X141192825Y-109604143D01*
X141192530Y-109605390D01*
X141192478Y-109606793D01*
X141192621Y-109609192D01*
X141192621Y-124596624D01*
X141192340Y-124600566D01*
X139755621Y-124600566D01*
X139755621Y-111614461D01*
X139755893Y-111610680D01*
X139755700Y-111606829D01*
X139755664Y-111605428D01*
X139755367Y-111604107D01*
X139754568Y-111600112D01*
X139753359Y-111596482D01*
X139699719Y-111384645D01*
X139698838Y-111376212D01*
X139696710Y-111370744D01*
X139695881Y-111368125D01*
X139695326Y-111366806D01*
X139694937Y-111366240D01*
X139693016Y-111363953D01*
X139689655Y-111359450D01*
X139683290Y-111354370D01*
X139526021Y-111189341D01*
X139520636Y-111181988D01*
X139518868Y-111180386D01*
X139515871Y-111178278D01*
X139514690Y-111177399D01*
X139513359Y-111176767D01*
X139509996Y-111175063D01*
X139509143Y-111174757D01*
X139500120Y-111173356D01*
X139258921Y-111106015D01*
X139256683Y-111105241D01*
X139255163Y-111104880D01*
X139253878Y-111104831D01*
X139251454Y-111104974D01*
X127245637Y-111104974D01*
X127215199Y-111101180D01*
X127023587Y-111052661D01*
X126968480Y-111022221D01*
X126953488Y-111007934D01*
X126827658Y-110888021D01*
X126793773Y-110831603D01*
X126735188Y-110621762D01*
X126730621Y-110588418D01*
X126730621Y-109619461D01*
X126730893Y-109615680D01*
X126730700Y-109611829D01*
X126730664Y-109610428D01*
X126730367Y-109609107D01*
X126729568Y-109605112D01*
X126728359Y-109601482D01*
X126674719Y-109389645D01*
X126673838Y-109381212D01*
X126671710Y-109375744D01*
X126670881Y-109373125D01*
X126670326Y-109371806D01*
X126669937Y-109371240D01*
X126668016Y-109368953D01*
X126664655Y-109364450D01*
X126658290Y-109359370D01*
X126501021Y-109194341D01*
X126495636Y-109186988D01*
X126493868Y-109185386D01*
X126490871Y-109183278D01*
X126489690Y-109182399D01*
X126488359Y-109181767D01*
X126484996Y-109180063D01*
X126484141Y-109179757D01*
X126475122Y-109178356D01*
X126268721Y-109120731D01*
X126254319Y-109112315D01*
X126253408Y-109114527D01*
X126230220Y-109104974D01*
X126230121Y-109104933D01*
X126205567Y-109104933D01*
X126205361Y-109104974D01*
X117826108Y-109104974D01*
X117822325Y-109104701D01*
X117818475Y-109104895D01*
X117816972Y-109104933D01*
X117815365Y-109105285D01*
X117815162Y-109105323D01*
X117813229Y-109105942D01*
X117595645Y-109161037D01*
X117587553Y-109161926D01*
X117581837Y-109164117D01*
X117579787Y-109164775D01*
X117578508Y-109165332D01*
X117577673Y-109165895D01*
X117575973Y-109167316D01*
X117570984Y-109171075D01*
X117566010Y-109177308D01*
X117400511Y-109335025D01*
X117393730Y-109340046D01*
X117391604Y-109342740D01*
X117390291Y-109344199D01*
X117389068Y-109345940D01*
X117387943Y-109348196D01*
X117387307Y-109349966D01*
X117386170Y-109352551D01*
X117384913Y-109360794D01*
X117317617Y-109601834D01*
X117316825Y-109604143D01*
X117316530Y-109605390D01*
X117316477Y-109606803D01*
X106418121Y-109606803D01*
X106418121Y-106851703D01*
X106418393Y-106847922D01*
X106418200Y-106844071D01*
X106418164Y-106842670D01*
X106417867Y-106841349D01*
X106417068Y-106837354D01*
X106415859Y-106833724D01*
X106362219Y-106621887D01*
X106361338Y-106613454D01*
X106359210Y-106607986D01*
X106358381Y-106605367D01*
X106357826Y-106604048D01*
X106357437Y-106603482D01*
X106355516Y-106601195D01*
X106352155Y-106596692D01*
X106345790Y-106591612D01*
X106188521Y-106426583D01*
X106183136Y-106419230D01*
X106181368Y-106417628D01*
X106178371Y-106415520D01*
X106177190Y-106414641D01*
X106175859Y-106414009D01*
X106172496Y-106412305D01*
X106171643Y-106411999D01*
X106162620Y-106410598D01*
X105921421Y-106343257D01*
X105919183Y-106342483D01*
X105917663Y-106342122D01*
X105916378Y-106342073D01*
X105913954Y-106342216D01*
X92926608Y-106342216D01*
X92922825Y-106341943D01*
X92918975Y-106342137D01*
X92917472Y-106342175D01*
X92915865Y-106342527D01*
X92915662Y-106342565D01*
X92913729Y-106343184D01*
X92696145Y-106398279D01*
X92688053Y-106399168D01*
X92682337Y-106401359D01*
X92680287Y-106402017D01*
X92679008Y-106402574D01*
X92678173Y-106403137D01*
X92676473Y-106404558D01*
X92671484Y-106408317D01*
X92666510Y-106414550D01*
X92501011Y-106572267D01*
X92494230Y-106577288D01*
X92492104Y-106579982D01*
X92490791Y-106581441D01*
X92489568Y-106583182D01*
X92488443Y-106585438D01*
X92487807Y-106587208D01*
X92486670Y-106589793D01*
X92485413Y-106598036D01*
X92418117Y-106839076D01*
X92417325Y-106841385D01*
X92417030Y-106842632D01*
X92416978Y-106844035D01*
X92417121Y-106846434D01*
X92417121Y-119833866D01*
X92416840Y-119837808D01*
X87368121Y-119837808D01*
X87368121Y-106851703D01*
X87368393Y-106847922D01*
X87368200Y-106844071D01*
X87368164Y-106842670D01*
X87367867Y-106841349D01*
X87367068Y-106837354D01*
X87365859Y-106833724D01*
X87312219Y-106621887D01*
X87311338Y-106613454D01*
X87309210Y-106607986D01*
X87308381Y-106605367D01*
X87307826Y-106604048D01*
X87307437Y-106603482D01*
X87305516Y-106601195D01*
X87302155Y-106596692D01*
X87295790Y-106591612D01*
X87138521Y-106426583D01*
X87133136Y-106419230D01*
X87131368Y-106417628D01*
X87128371Y-106415520D01*
X87127190Y-106414641D01*
X87125859Y-106414009D01*
X87122496Y-106412305D01*
X87121643Y-106411999D01*
X87112620Y-106410598D01*
X86871421Y-106343257D01*
X86869183Y-106342483D01*
X86867663Y-106342122D01*
X86866378Y-106342073D01*
X86863954Y-106342216D01*
X73876608Y-106342216D01*
X73872825Y-106341943D01*
X73868975Y-106342137D01*
X73867472Y-106342175D01*
X73865865Y-106342527D01*
X73865662Y-106342565D01*
X73863729Y-106343184D01*
X73646145Y-106398279D01*
X73638053Y-106399168D01*
X73632337Y-106401359D01*
X73630287Y-106402017D01*
X73629008Y-106402574D01*
X73628173Y-106403137D01*
X73626473Y-106404558D01*
X73621484Y-106408317D01*
X73616510Y-106414550D01*
X73451011Y-106572267D01*
X73444230Y-106577288D01*
X73442104Y-106579982D01*
X73440791Y-106581441D01*
X73439568Y-106583182D01*
X73438443Y-106585438D01*
X73437807Y-106587208D01*
X73436670Y-106589793D01*
X73435413Y-106598036D01*
X73368117Y-106839076D01*
X73367325Y-106841385D01*
X73367030Y-106842632D01*
X73366978Y-106844035D01*
X73367121Y-106846434D01*
X73367121Y-119833866D01*
X73366840Y-119837808D01*
X68318121Y-119837808D01*
X68318121Y-106851703D01*
X68318393Y-106847922D01*
X68318200Y-106844071D01*
X68318164Y-106842670D01*
X68317867Y-106841349D01*
X68317068Y-106837354D01*
X68315859Y-106833724D01*
X68262219Y-106621887D01*
X68261338Y-106613454D01*
X68259210Y-106607986D01*
X68258381Y-106605367D01*
X68257826Y-106604048D01*
X68257437Y-106603482D01*
X68255516Y-106601195D01*
X68252155Y-106596692D01*
X68245790Y-106591612D01*
X68088521Y-106426583D01*
X68083136Y-106419230D01*
X68081368Y-106417628D01*
X68078371Y-106415520D01*
X68077190Y-106414641D01*
X68075859Y-106414009D01*
X68072496Y-106412305D01*
X68071643Y-106411999D01*
X68062620Y-106410598D01*
X67821421Y-106343257D01*
X67819183Y-106342483D01*
X67817663Y-106342122D01*
X67816378Y-106342073D01*
X67813954Y-106342216D01*
X54826608Y-106342216D01*
X54822825Y-106341943D01*
X54818975Y-106342137D01*
X54817472Y-106342175D01*
X54815865Y-106342527D01*
X54815662Y-106342565D01*
X54813729Y-106343184D01*
X54596145Y-106398279D01*
X54588053Y-106399168D01*
X54582337Y-106401359D01*
X54580287Y-106402017D01*
X54579008Y-106402574D01*
X54578173Y-106403137D01*
X54576473Y-106404558D01*
X54571484Y-106408317D01*
X54566510Y-106414550D01*
X54401011Y-106572267D01*
X54394230Y-106577288D01*
X54392104Y-106579982D01*
X54390791Y-106581441D01*
X54389568Y-106583182D01*
X54388443Y-106585438D01*
X54387807Y-106587208D01*
X54386670Y-106589793D01*
X54385413Y-106598036D01*
X54318117Y-106839076D01*
X54317325Y-106841385D01*
X54317030Y-106842632D01*
X54316978Y-106844035D01*
X54317121Y-106846434D01*
X54317121Y-119833866D01*
X54316840Y-119837808D01*
X51792754Y-119837808D01*
X51792953Y-100787480D01*
X61459593Y-100787480D01*
X61459823Y-100793029D01*
X61460299Y-100795352D01*
X61460844Y-100797036D01*
X61516033Y-101014991D01*
X61516969Y-101023172D01*
X61518765Y-101027775D01*
X61519392Y-101029742D01*
X61520287Y-101031671D01*
X61520317Y-101031744D01*
X61521036Y-101032799D01*
X61521064Y-101032843D01*
X61522360Y-101034391D01*
X61525865Y-101039086D01*
X61532254Y-101044175D01*
X61690303Y-101210022D01*
X61695844Y-101217429D01*
X61696453Y-101217981D01*
X61699570Y-101220163D01*
X61700770Y-101221051D01*
X61702072Y-101221661D01*
X61706512Y-101223880D01*
X61706531Y-101223886D01*
X61716127Y-101225311D01*
X61956374Y-101292387D01*
X61958534Y-101293141D01*
X61960325Y-101293568D01*
X61961573Y-101293616D01*
X61963998Y-101293474D01*
X74951345Y-101293474D01*
X74955127Y-101293746D01*
X74958978Y-101293553D01*
X74960384Y-101293517D01*
X74961751Y-101293211D01*
X74965521Y-101292461D01*
X74969167Y-101291252D01*
X75181724Y-101237429D01*
X75190237Y-101236500D01*
X75190366Y-101236449D01*
X75194486Y-101235155D01*
X75196782Y-101234073D01*
X75199059Y-101233105D01*
X75200157Y-101232344D01*
X75202149Y-101230666D01*
X75206336Y-101227569D01*
X75211521Y-101221060D01*
X75376942Y-101063416D01*
X75384823Y-101057581D01*
X75387244Y-101054127D01*
X75388444Y-101052532D01*
X75389280Y-101050734D01*
X75391126Y-101047091D01*
X75392577Y-101037509D01*
X75394220Y-101031623D01*
X75459684Y-100797148D01*
X75460443Y-100794999D01*
X75460938Y-100792985D01*
X75460982Y-100791878D01*
X75460832Y-100789303D01*
X75460832Y-100787808D01*
X87654051Y-100787808D01*
X87654239Y-100791211D01*
X87654284Y-100792866D01*
X87654668Y-100794580D01*
X87654717Y-100794840D01*
X87655340Y-100796765D01*
X87710533Y-101014733D01*
X87711469Y-101022914D01*
X87713265Y-101027517D01*
X87713892Y-101029484D01*
X87714787Y-101031413D01*
X87714817Y-101031486D01*
X87715536Y-101032541D01*
X87715564Y-101032585D01*
X87716860Y-101034133D01*
X87720365Y-101038828D01*
X87726754Y-101043917D01*
X87884803Y-101209764D01*
X87890344Y-101217171D01*
X87890953Y-101217723D01*
X87894070Y-101219905D01*
X87895270Y-101220793D01*
X87896572Y-101221403D01*
X87901012Y-101223622D01*
X87901031Y-101223628D01*
X87910627Y-101225053D01*
X88150874Y-101292129D01*
X88153034Y-101292883D01*
X88154825Y-101293310D01*
X88156073Y-101293358D01*
X88158498Y-101293216D01*
X101145845Y-101293216D01*
X101149627Y-101293488D01*
X101153478Y-101293295D01*
X101154884Y-101293259D01*
X101156251Y-101292953D01*
X101160021Y-101292203D01*
X101163667Y-101290994D01*
X101376224Y-101237171D01*
X101384737Y-101236242D01*
X101384866Y-101236191D01*
X101388986Y-101234897D01*
X101391282Y-101233815D01*
X101393559Y-101232847D01*
X101394657Y-101232086D01*
X101396649Y-101230408D01*
X101400836Y-101227311D01*
X101406021Y-101220802D01*
X101571442Y-101063158D01*
X101579323Y-101057323D01*
X101581744Y-101053869D01*
X101582944Y-101052274D01*
X101583780Y-101050476D01*
X101585626Y-101046833D01*
X101587077Y-101037251D01*
X101654184Y-100796890D01*
X101654943Y-100794741D01*
X101655438Y-100792727D01*
X101655482Y-100791620D01*
X101655332Y-100789045D01*
X101655332Y-100787807D01*
X106704051Y-100787807D01*
X106704239Y-100791211D01*
X106704284Y-100792866D01*
X106704668Y-100794580D01*
X106704717Y-100794840D01*
X106705340Y-100796765D01*
X106760533Y-101014733D01*
X106761469Y-101022914D01*
X106763265Y-101027517D01*
X106763892Y-101029484D01*
X106764787Y-101031413D01*
X106764817Y-101031486D01*
X106765536Y-101032541D01*
X106765564Y-101032585D01*
X106766860Y-101034133D01*
X106770365Y-101038828D01*
X106776754Y-101043917D01*
X106934803Y-101209764D01*
X106940344Y-101217171D01*
X106940953Y-101217723D01*
X106944070Y-101219905D01*
X106945270Y-101220793D01*
X106946572Y-101221403D01*
X106951012Y-101223622D01*
X106951031Y-101223628D01*
X106960627Y-101225053D01*
X107200874Y-101292129D01*
X107203034Y-101292883D01*
X107204825Y-101293310D01*
X107206073Y-101293358D01*
X107208498Y-101293216D01*
X120195845Y-101293216D01*
X120199627Y-101293488D01*
X120203478Y-101293295D01*
X120204884Y-101293259D01*
X120206251Y-101292953D01*
X120210021Y-101292203D01*
X120213667Y-101290994D01*
X120426224Y-101237171D01*
X120434737Y-101236242D01*
X120434866Y-101236191D01*
X120438986Y-101234897D01*
X120441282Y-101233815D01*
X120443559Y-101232847D01*
X120444657Y-101232086D01*
X120446649Y-101230408D01*
X120450836Y-101227311D01*
X120456021Y-101220802D01*
X120621442Y-101063158D01*
X120629323Y-101057323D01*
X120631744Y-101053869D01*
X120632944Y-101052274D01*
X120633780Y-101050476D01*
X120635626Y-101046833D01*
X120637077Y-101037251D01*
X120704184Y-100796890D01*
X120704943Y-100794741D01*
X120705438Y-100792727D01*
X120705482Y-100791620D01*
X120705332Y-100789045D01*
X120705332Y-100787807D01*
X125754051Y-100787807D01*
X125754239Y-100791211D01*
X125754284Y-100792866D01*
X125754668Y-100794580D01*
X125754717Y-100794840D01*
X125755340Y-100796765D01*
X125810533Y-101014733D01*
X125811469Y-101022914D01*
X125813265Y-101027517D01*
X125813892Y-101029484D01*
X125814787Y-101031413D01*
X125814817Y-101031486D01*
X125815536Y-101032541D01*
X125815564Y-101032585D01*
X125816860Y-101034133D01*
X125820365Y-101038828D01*
X125826754Y-101043917D01*
X125984803Y-101209764D01*
X125990344Y-101217171D01*
X125990953Y-101217723D01*
X125994070Y-101219905D01*
X125995270Y-101220793D01*
X125996572Y-101221403D01*
X126001012Y-101223622D01*
X126001031Y-101223628D01*
X126010627Y-101225053D01*
X126250874Y-101292129D01*
X126253034Y-101292883D01*
X126254825Y-101293310D01*
X126256073Y-101293358D01*
X126258498Y-101293216D01*
X139245845Y-101293216D01*
X139249627Y-101293488D01*
X139253478Y-101293295D01*
X139254884Y-101293259D01*
X139256251Y-101292953D01*
X139260021Y-101292203D01*
X139263667Y-101290994D01*
X139476224Y-101237171D01*
X139484737Y-101236242D01*
X139484866Y-101236191D01*
X139488986Y-101234897D01*
X139491282Y-101233815D01*
X139493559Y-101232847D01*
X139494657Y-101232086D01*
X139496649Y-101230408D01*
X139500836Y-101227311D01*
X139506021Y-101220802D01*
X139671442Y-101063158D01*
X139679323Y-101057323D01*
X139681744Y-101053869D01*
X139682944Y-101052274D01*
X139683780Y-101050476D01*
X139685626Y-101046833D01*
X139687077Y-101037251D01*
X139754184Y-100796890D01*
X139754943Y-100794741D01*
X139755438Y-100792727D01*
X139755482Y-100791620D01*
X139755332Y-100789045D01*
X139755332Y-100787807D01*
X144804051Y-100787807D01*
X144804239Y-100791211D01*
X144804284Y-100792866D01*
X144804668Y-100794580D01*
X144804717Y-100794840D01*
X144805340Y-100796765D01*
X144860533Y-101014733D01*
X144861469Y-101022914D01*
X144863265Y-101027517D01*
X144863892Y-101029484D01*
X144864787Y-101031413D01*
X144864817Y-101031486D01*
X144865536Y-101032541D01*
X144865564Y-101032585D01*
X144866860Y-101034133D01*
X144870365Y-101038828D01*
X144876754Y-101043917D01*
X145034803Y-101209764D01*
X145040344Y-101217171D01*
X145040953Y-101217723D01*
X145044070Y-101219905D01*
X145045270Y-101220793D01*
X145046572Y-101221403D01*
X145051012Y-101223622D01*
X145051031Y-101223628D01*
X145060627Y-101225053D01*
X145300874Y-101292129D01*
X145303034Y-101292883D01*
X145304825Y-101293310D01*
X145306073Y-101293358D01*
X145308498Y-101293216D01*
X158295845Y-101293216D01*
X158299627Y-101293488D01*
X158303478Y-101293295D01*
X158304884Y-101293259D01*
X158306251Y-101292953D01*
X158310021Y-101292203D01*
X158313667Y-101290994D01*
X158526224Y-101237171D01*
X158534737Y-101236242D01*
X158534866Y-101236191D01*
X158538986Y-101234897D01*
X158541282Y-101233815D01*
X158543559Y-101232847D01*
X158544657Y-101232086D01*
X158546649Y-101230408D01*
X158550836Y-101227311D01*
X158556021Y-101220802D01*
X158721442Y-101063158D01*
X158729323Y-101057323D01*
X158731744Y-101053869D01*
X158732944Y-101052274D01*
X158733780Y-101050476D01*
X158735626Y-101046833D01*
X158737077Y-101037251D01*
X158804184Y-100796890D01*
X158804943Y-100794741D01*
X158805438Y-100792727D01*
X158805482Y-100791620D01*
X158805332Y-100789045D01*
X158805332Y-100787807D01*
X163854051Y-100787807D01*
X163854239Y-100791211D01*
X163854284Y-100792866D01*
X163854668Y-100794580D01*
X163854717Y-100794840D01*
X163855340Y-100796765D01*
X163910533Y-101014733D01*
X163911469Y-101022914D01*
X163913265Y-101027517D01*
X163913892Y-101029484D01*
X163914787Y-101031413D01*
X163914817Y-101031486D01*
X163915536Y-101032541D01*
X163915564Y-101032585D01*
X163916860Y-101034133D01*
X163920365Y-101038828D01*
X163926754Y-101043917D01*
X164084803Y-101209764D01*
X164090344Y-101217171D01*
X164090953Y-101217723D01*
X164094070Y-101219905D01*
X164095270Y-101220793D01*
X164096572Y-101221403D01*
X164101012Y-101223622D01*
X164101031Y-101223628D01*
X164110627Y-101225053D01*
X164350874Y-101292129D01*
X164353034Y-101292883D01*
X164354825Y-101293310D01*
X164356073Y-101293358D01*
X164358498Y-101293216D01*
X177345845Y-101293216D01*
X177349627Y-101293488D01*
X177353478Y-101293295D01*
X177354884Y-101293259D01*
X177356251Y-101292953D01*
X177360021Y-101292203D01*
X177363667Y-101290994D01*
X177576224Y-101237171D01*
X177584737Y-101236242D01*
X177584866Y-101236191D01*
X177588986Y-101234897D01*
X177591282Y-101233815D01*
X177593559Y-101232847D01*
X177594657Y-101232086D01*
X177596649Y-101230408D01*
X177600836Y-101227311D01*
X177606021Y-101220802D01*
X177771442Y-101063158D01*
X177779323Y-101057323D01*
X177781744Y-101053869D01*
X177782944Y-101052274D01*
X177783780Y-101050476D01*
X177785626Y-101046833D01*
X177787077Y-101037251D01*
X177854184Y-100796890D01*
X177854943Y-100794741D01*
X177855438Y-100792727D01*
X177855482Y-100791620D01*
X177855332Y-100789045D01*
X177855332Y-100787807D01*
X182904051Y-100787807D01*
X182904239Y-100791211D01*
X182904284Y-100792866D01*
X182904668Y-100794580D01*
X182904717Y-100794840D01*
X182905340Y-100796765D01*
X182960533Y-101014733D01*
X182961469Y-101022914D01*
X182963265Y-101027517D01*
X182963892Y-101029484D01*
X182964787Y-101031413D01*
X182964817Y-101031486D01*
X182965536Y-101032541D01*
X182965564Y-101032585D01*
X182966860Y-101034133D01*
X182970365Y-101038828D01*
X182976754Y-101043917D01*
X183134803Y-101209764D01*
X183140344Y-101217171D01*
X183140953Y-101217723D01*
X183144070Y-101219905D01*
X183145270Y-101220793D01*
X183146572Y-101221403D01*
X183151012Y-101223622D01*
X183151031Y-101223628D01*
X183160627Y-101225053D01*
X183400874Y-101292129D01*
X183403034Y-101292883D01*
X183404825Y-101293310D01*
X183406073Y-101293358D01*
X183408498Y-101293216D01*
X196395845Y-101293216D01*
X196399627Y-101293488D01*
X196403478Y-101293295D01*
X196404884Y-101293259D01*
X196406251Y-101292953D01*
X196410021Y-101292203D01*
X196413667Y-101290994D01*
X196626224Y-101237171D01*
X196634737Y-101236242D01*
X196634866Y-101236191D01*
X196638986Y-101234897D01*
X196641282Y-101233815D01*
X196643559Y-101232847D01*
X196644657Y-101232086D01*
X196646649Y-101230408D01*
X196650836Y-101227311D01*
X196656021Y-101220802D01*
X196821442Y-101063158D01*
X196829323Y-101057323D01*
X196831744Y-101053869D01*
X196832944Y-101052274D01*
X196833780Y-101050476D01*
X196835626Y-101046833D01*
X196837077Y-101037251D01*
X196904184Y-100796890D01*
X196904943Y-100794741D01*
X196905438Y-100792727D01*
X196905482Y-100791620D01*
X196905332Y-100789045D01*
X196905332Y-100787807D01*
X201954051Y-100787807D01*
X201954239Y-100791211D01*
X201954284Y-100792866D01*
X201954668Y-100794580D01*
X201954717Y-100794840D01*
X201955340Y-100796765D01*
X202010533Y-101014733D01*
X202011469Y-101022914D01*
X202013265Y-101027517D01*
X202013892Y-101029484D01*
X202014787Y-101031413D01*
X202014817Y-101031486D01*
X202015536Y-101032541D01*
X202015564Y-101032585D01*
X202016860Y-101034133D01*
X202020365Y-101038828D01*
X202026754Y-101043917D01*
X202184803Y-101209764D01*
X202190344Y-101217171D01*
X202190953Y-101217723D01*
X202194070Y-101219905D01*
X202195270Y-101220793D01*
X202196572Y-101221403D01*
X202201012Y-101223622D01*
X202201031Y-101223628D01*
X202210627Y-101225053D01*
X202450874Y-101292129D01*
X202453034Y-101292883D01*
X202454825Y-101293310D01*
X202456073Y-101293358D01*
X202458498Y-101293216D01*
X215445845Y-101293216D01*
X215449627Y-101293488D01*
X215453478Y-101293295D01*
X215454884Y-101293259D01*
X215456251Y-101292953D01*
X215460021Y-101292203D01*
X215463667Y-101290994D01*
X215676224Y-101237171D01*
X215684737Y-101236242D01*
X215684866Y-101236191D01*
X215688986Y-101234897D01*
X215691282Y-101233815D01*
X215693559Y-101232847D01*
X215694657Y-101232086D01*
X215696649Y-101230408D01*
X215700836Y-101227311D01*
X215706021Y-101220802D01*
X215871442Y-101063158D01*
X215879323Y-101057323D01*
X215881744Y-101053869D01*
X215882944Y-101052274D01*
X215883780Y-101050476D01*
X215885626Y-101046833D01*
X215887077Y-101037251D01*
X215954184Y-100796890D01*
X215954943Y-100794741D01*
X215955438Y-100792727D01*
X215955482Y-100791620D01*
X215955332Y-100789045D01*
X215955332Y-100787808D01*
X228148301Y-100787808D01*
X228148489Y-100791211D01*
X228148534Y-100792866D01*
X228148918Y-100794580D01*
X228148967Y-100794840D01*
X228149590Y-100796765D01*
X228204783Y-101014733D01*
X228205719Y-101022914D01*
X228207515Y-101027517D01*
X228208142Y-101029484D01*
X228209037Y-101031413D01*
X228209067Y-101031486D01*
X228209786Y-101032541D01*
X228209814Y-101032585D01*
X228211110Y-101034133D01*
X228214615Y-101038828D01*
X228221004Y-101043917D01*
X228379053Y-101209764D01*
X228384594Y-101217171D01*
X228385203Y-101217723D01*
X228388320Y-101219905D01*
X228389520Y-101220793D01*
X228390822Y-101221403D01*
X228395262Y-101223622D01*
X228395281Y-101223628D01*
X228404877Y-101225053D01*
X228645124Y-101292129D01*
X228647284Y-101292883D01*
X228649075Y-101293310D01*
X228650323Y-101293358D01*
X228652748Y-101293216D01*
X241640095Y-101293216D01*
X241643877Y-101293488D01*
X241647728Y-101293295D01*
X241649134Y-101293259D01*
X241650501Y-101292953D01*
X241654271Y-101292203D01*
X241657917Y-101290994D01*
X241870474Y-101237171D01*
X241878987Y-101236242D01*
X241879116Y-101236191D01*
X241883236Y-101234897D01*
X241885532Y-101233815D01*
X241887809Y-101232847D01*
X241888907Y-101232086D01*
X241890899Y-101230408D01*
X241895086Y-101227311D01*
X241900271Y-101220802D01*
X242065692Y-101063158D01*
X242073573Y-101057323D01*
X242075994Y-101053869D01*
X242077194Y-101052274D01*
X242078030Y-101050476D01*
X242079876Y-101046833D01*
X242081327Y-101037251D01*
X242148434Y-100796890D01*
X242149193Y-100794741D01*
X242149688Y-100792727D01*
X242149732Y-100791620D01*
X242149582Y-100789045D01*
X242149582Y-87801703D01*
X242149854Y-87797922D01*
X242149661Y-87794071D01*
X242149625Y-87792670D01*
X242149328Y-87791349D01*
X242148529Y-87787354D01*
X242147320Y-87783724D01*
X242093680Y-87571887D01*
X242092799Y-87563454D01*
X242090671Y-87557986D01*
X242089842Y-87555367D01*
X242089287Y-87554048D01*
X242088898Y-87553482D01*
X242086977Y-87551195D01*
X242083616Y-87546692D01*
X242077251Y-87541612D01*
X241919982Y-87376583D01*
X241914597Y-87369230D01*
X241912829Y-87367628D01*
X241909832Y-87365520D01*
X241908651Y-87364641D01*
X241907320Y-87364009D01*
X241903957Y-87362305D01*
X241903104Y-87361999D01*
X241894081Y-87360598D01*
X241652882Y-87293257D01*
X241650644Y-87292483D01*
X241649124Y-87292122D01*
X241647839Y-87292073D01*
X241645415Y-87292216D01*
X228658069Y-87292216D01*
X228654286Y-87291943D01*
X228650436Y-87292137D01*
X228648933Y-87292175D01*
X228647326Y-87292527D01*
X228647123Y-87292565D01*
X228645190Y-87293184D01*
X228427606Y-87348279D01*
X228419514Y-87349168D01*
X228413798Y-87351359D01*
X228411748Y-87352017D01*
X228410469Y-87352574D01*
X228409634Y-87353137D01*
X228407934Y-87354558D01*
X228402945Y-87358317D01*
X228397971Y-87364550D01*
X228232472Y-87522267D01*
X228225691Y-87527288D01*
X228223565Y-87529982D01*
X228222252Y-87531441D01*
X228221029Y-87533182D01*
X228219904Y-87535438D01*
X228219268Y-87537208D01*
X228218131Y-87539793D01*
X228216874Y-87548036D01*
X228149578Y-87789076D01*
X228148786Y-87791385D01*
X228148491Y-87792632D01*
X228148439Y-87794035D01*
X228148582Y-87796434D01*
X228148582Y-100783866D01*
X228148301Y-100787808D01*
X215955332Y-100787808D01*
X215955332Y-87801703D01*
X215955604Y-87797922D01*
X215955411Y-87794071D01*
X215955375Y-87792670D01*
X215955078Y-87791349D01*
X215954279Y-87787354D01*
X215953070Y-87783724D01*
X215899430Y-87571887D01*
X215898549Y-87563454D01*
X215896421Y-87557986D01*
X215895592Y-87555367D01*
X215895037Y-87554048D01*
X215894648Y-87553482D01*
X215892727Y-87551195D01*
X215889366Y-87546692D01*
X215883001Y-87541612D01*
X215725732Y-87376583D01*
X215720347Y-87369230D01*
X215718579Y-87367628D01*
X215715582Y-87365520D01*
X215714401Y-87364641D01*
X215713070Y-87364009D01*
X215709707Y-87362305D01*
X215708854Y-87361999D01*
X215699831Y-87360598D01*
X215458632Y-87293257D01*
X215456394Y-87292483D01*
X215454874Y-87292122D01*
X215453589Y-87292073D01*
X215451165Y-87292216D01*
X202463819Y-87292216D01*
X202460036Y-87291943D01*
X202456186Y-87292137D01*
X202454683Y-87292175D01*
X202453076Y-87292527D01*
X202452873Y-87292565D01*
X202450940Y-87293184D01*
X202233356Y-87348279D01*
X202225264Y-87349168D01*
X202219548Y-87351359D01*
X202217498Y-87352017D01*
X202216219Y-87352574D01*
X202215384Y-87353137D01*
X202213684Y-87354558D01*
X202208695Y-87358317D01*
X202203721Y-87364550D01*
X202038222Y-87522267D01*
X202031441Y-87527288D01*
X202029315Y-87529982D01*
X202028002Y-87531441D01*
X202026779Y-87533182D01*
X202025654Y-87535438D01*
X202025018Y-87537208D01*
X202023881Y-87539793D01*
X202022624Y-87548036D01*
X201955328Y-87789076D01*
X201954536Y-87791385D01*
X201954241Y-87792632D01*
X201954189Y-87794035D01*
X201954332Y-87796434D01*
X201954332Y-100783865D01*
X201954051Y-100787807D01*
X196905332Y-100787807D01*
X196905332Y-87801703D01*
X196905604Y-87797922D01*
X196905411Y-87794071D01*
X196905375Y-87792670D01*
X196905078Y-87791349D01*
X196904279Y-87787354D01*
X196903070Y-87783724D01*
X196849430Y-87571887D01*
X196848549Y-87563454D01*
X196846421Y-87557986D01*
X196845592Y-87555367D01*
X196845037Y-87554048D01*
X196844648Y-87553482D01*
X196842727Y-87551195D01*
X196839366Y-87546692D01*
X196833001Y-87541612D01*
X196675732Y-87376583D01*
X196670347Y-87369230D01*
X196668579Y-87367628D01*
X196665582Y-87365520D01*
X196664401Y-87364641D01*
X196663070Y-87364009D01*
X196659707Y-87362305D01*
X196658854Y-87361999D01*
X196649831Y-87360598D01*
X196408632Y-87293257D01*
X196406394Y-87292483D01*
X196404874Y-87292122D01*
X196403589Y-87292073D01*
X196401165Y-87292216D01*
X183413819Y-87292216D01*
X183410036Y-87291943D01*
X183406186Y-87292137D01*
X183404683Y-87292175D01*
X183403076Y-87292527D01*
X183402873Y-87292565D01*
X183400940Y-87293184D01*
X183183356Y-87348279D01*
X183175264Y-87349168D01*
X183169548Y-87351359D01*
X183167498Y-87352017D01*
X183166219Y-87352574D01*
X183165384Y-87353137D01*
X183163684Y-87354558D01*
X183158695Y-87358317D01*
X183153721Y-87364550D01*
X182988222Y-87522267D01*
X182981441Y-87527288D01*
X182979315Y-87529982D01*
X182978002Y-87531441D01*
X182976779Y-87533182D01*
X182975654Y-87535438D01*
X182975018Y-87537208D01*
X182973881Y-87539793D01*
X182972624Y-87548036D01*
X182905328Y-87789076D01*
X182904536Y-87791385D01*
X182904241Y-87792632D01*
X182904189Y-87794035D01*
X182904332Y-87796434D01*
X182904332Y-100783865D01*
X182904051Y-100787807D01*
X177855332Y-100787807D01*
X177855332Y-87801703D01*
X177855604Y-87797922D01*
X177855411Y-87794071D01*
X177855375Y-87792670D01*
X177855078Y-87791349D01*
X177854279Y-87787354D01*
X177853070Y-87783724D01*
X177799430Y-87571887D01*
X177798549Y-87563454D01*
X177796421Y-87557986D01*
X177795592Y-87555367D01*
X177795037Y-87554048D01*
X177794648Y-87553482D01*
X177792727Y-87551195D01*
X177789366Y-87546692D01*
X177783001Y-87541612D01*
X177625732Y-87376583D01*
X177620347Y-87369230D01*
X177618579Y-87367628D01*
X177615582Y-87365520D01*
X177614401Y-87364641D01*
X177613070Y-87364009D01*
X177609707Y-87362305D01*
X177608854Y-87361999D01*
X177599831Y-87360598D01*
X177358632Y-87293257D01*
X177356394Y-87292483D01*
X177354874Y-87292122D01*
X177353589Y-87292073D01*
X177351165Y-87292216D01*
X164363819Y-87292216D01*
X164360036Y-87291943D01*
X164356186Y-87292137D01*
X164354683Y-87292175D01*
X164353076Y-87292527D01*
X164352873Y-87292565D01*
X164350940Y-87293184D01*
X164133356Y-87348279D01*
X164125264Y-87349168D01*
X164119548Y-87351359D01*
X164117498Y-87352017D01*
X164116219Y-87352574D01*
X164115384Y-87353137D01*
X164113684Y-87354558D01*
X164108695Y-87358317D01*
X164103721Y-87364550D01*
X163938222Y-87522267D01*
X163931441Y-87527288D01*
X163929315Y-87529982D01*
X163928002Y-87531441D01*
X163926779Y-87533182D01*
X163925654Y-87535438D01*
X163925018Y-87537208D01*
X163923881Y-87539793D01*
X163922624Y-87548036D01*
X163855328Y-87789076D01*
X163854536Y-87791385D01*
X163854241Y-87792632D01*
X163854189Y-87794035D01*
X163854332Y-87796434D01*
X163854332Y-100783865D01*
X163854051Y-100787807D01*
X158805332Y-100787807D01*
X158805332Y-87801703D01*
X158805604Y-87797922D01*
X158805411Y-87794071D01*
X158805375Y-87792670D01*
X158805078Y-87791349D01*
X158804279Y-87787354D01*
X158803070Y-87783724D01*
X158749430Y-87571887D01*
X158748549Y-87563454D01*
X158746421Y-87557986D01*
X158745592Y-87555367D01*
X158745037Y-87554048D01*
X158744648Y-87553482D01*
X158742727Y-87551195D01*
X158739366Y-87546692D01*
X158733001Y-87541612D01*
X158575732Y-87376583D01*
X158570347Y-87369230D01*
X158568579Y-87367628D01*
X158565582Y-87365520D01*
X158564401Y-87364641D01*
X158563070Y-87364009D01*
X158559707Y-87362305D01*
X158558854Y-87361999D01*
X158549831Y-87360598D01*
X158308632Y-87293257D01*
X158306394Y-87292483D01*
X158304874Y-87292122D01*
X158303589Y-87292073D01*
X158301165Y-87292216D01*
X145313819Y-87292216D01*
X145310036Y-87291943D01*
X145306186Y-87292137D01*
X145304683Y-87292175D01*
X145303076Y-87292527D01*
X145302873Y-87292565D01*
X145300940Y-87293184D01*
X145083356Y-87348279D01*
X145075264Y-87349168D01*
X145069548Y-87351359D01*
X145067498Y-87352017D01*
X145066219Y-87352574D01*
X145065384Y-87353137D01*
X145063684Y-87354558D01*
X145058695Y-87358317D01*
X145053721Y-87364550D01*
X144888222Y-87522267D01*
X144881441Y-87527288D01*
X144879315Y-87529982D01*
X144878002Y-87531441D01*
X144876779Y-87533182D01*
X144875654Y-87535438D01*
X144875018Y-87537208D01*
X144873881Y-87539793D01*
X144872624Y-87548036D01*
X144805328Y-87789076D01*
X144804536Y-87791385D01*
X144804241Y-87792632D01*
X144804189Y-87794035D01*
X144804332Y-87796434D01*
X144804332Y-100783865D01*
X144804051Y-100787807D01*
X139755332Y-100787807D01*
X139755332Y-87801703D01*
X139755604Y-87797922D01*
X139755411Y-87794071D01*
X139755375Y-87792670D01*
X139755078Y-87791349D01*
X139754279Y-87787354D01*
X139753070Y-87783724D01*
X139699430Y-87571887D01*
X139698549Y-87563454D01*
X139696421Y-87557986D01*
X139695592Y-87555367D01*
X139695037Y-87554048D01*
X139694648Y-87553482D01*
X139692727Y-87551195D01*
X139689366Y-87546692D01*
X139683001Y-87541612D01*
X139525732Y-87376583D01*
X139520347Y-87369230D01*
X139518579Y-87367628D01*
X139515582Y-87365520D01*
X139514401Y-87364641D01*
X139513070Y-87364009D01*
X139509707Y-87362305D01*
X139508854Y-87361999D01*
X139499831Y-87360598D01*
X139258632Y-87293257D01*
X139256394Y-87292483D01*
X139254874Y-87292122D01*
X139253589Y-87292073D01*
X139251165Y-87292216D01*
X126263819Y-87292216D01*
X126260036Y-87291943D01*
X126256186Y-87292137D01*
X126254683Y-87292175D01*
X126253076Y-87292527D01*
X126252873Y-87292565D01*
X126250940Y-87293184D01*
X126033356Y-87348279D01*
X126025264Y-87349168D01*
X126019548Y-87351359D01*
X126017498Y-87352017D01*
X126016219Y-87352574D01*
X126015384Y-87353137D01*
X126013684Y-87354558D01*
X126008695Y-87358317D01*
X126003721Y-87364550D01*
X125838222Y-87522267D01*
X125831441Y-87527288D01*
X125829315Y-87529982D01*
X125828002Y-87531441D01*
X125826779Y-87533182D01*
X125825654Y-87535438D01*
X125825018Y-87537208D01*
X125823881Y-87539793D01*
X125822624Y-87548036D01*
X125755328Y-87789076D01*
X125754536Y-87791385D01*
X125754241Y-87792632D01*
X125754189Y-87794035D01*
X125754332Y-87796434D01*
X125754332Y-100783865D01*
X125754051Y-100787807D01*
X120705332Y-100787807D01*
X120705332Y-87801703D01*
X120705604Y-87797922D01*
X120705411Y-87794071D01*
X120705375Y-87792670D01*
X120705078Y-87791349D01*
X120704279Y-87787354D01*
X120703070Y-87783724D01*
X120649430Y-87571887D01*
X120648549Y-87563454D01*
X120646421Y-87557986D01*
X120645592Y-87555367D01*
X120645037Y-87554048D01*
X120644648Y-87553482D01*
X120642727Y-87551195D01*
X120639366Y-87546692D01*
X120633001Y-87541612D01*
X120475732Y-87376583D01*
X120470347Y-87369230D01*
X120468579Y-87367628D01*
X120465582Y-87365520D01*
X120464401Y-87364641D01*
X120463070Y-87364009D01*
X120459707Y-87362305D01*
X120458854Y-87361999D01*
X120449831Y-87360598D01*
X120208632Y-87293257D01*
X120206394Y-87292483D01*
X120204874Y-87292122D01*
X120203589Y-87292073D01*
X120201165Y-87292216D01*
X107213819Y-87292216D01*
X107210036Y-87291943D01*
X107206186Y-87292137D01*
X107204683Y-87292175D01*
X107203076Y-87292527D01*
X107202873Y-87292565D01*
X107200940Y-87293184D01*
X106983356Y-87348279D01*
X106975264Y-87349168D01*
X106969548Y-87351359D01*
X106967498Y-87352017D01*
X106966219Y-87352574D01*
X106965384Y-87353137D01*
X106963684Y-87354558D01*
X106958695Y-87358317D01*
X106953721Y-87364550D01*
X106788222Y-87522267D01*
X106781441Y-87527288D01*
X106779315Y-87529982D01*
X106778002Y-87531441D01*
X106776779Y-87533182D01*
X106775654Y-87535438D01*
X106775018Y-87537208D01*
X106773881Y-87539793D01*
X106772624Y-87548036D01*
X106705328Y-87789076D01*
X106704536Y-87791385D01*
X106704241Y-87792632D01*
X106704189Y-87794035D01*
X106704332Y-87796434D01*
X106704332Y-100783865D01*
X106704051Y-100787807D01*
X101655332Y-100787807D01*
X101655332Y-87801703D01*
X101655604Y-87797922D01*
X101655411Y-87794071D01*
X101655375Y-87792670D01*
X101655078Y-87791349D01*
X101654279Y-87787354D01*
X101653070Y-87783724D01*
X101599430Y-87571887D01*
X101598549Y-87563454D01*
X101596421Y-87557986D01*
X101595592Y-87555367D01*
X101595037Y-87554048D01*
X101594648Y-87553482D01*
X101592727Y-87551195D01*
X101589366Y-87546692D01*
X101583001Y-87541612D01*
X101425732Y-87376583D01*
X101420347Y-87369230D01*
X101418579Y-87367628D01*
X101415582Y-87365520D01*
X101414401Y-87364641D01*
X101413070Y-87364009D01*
X101409707Y-87362305D01*
X101408854Y-87361999D01*
X101399831Y-87360598D01*
X101158632Y-87293257D01*
X101156394Y-87292483D01*
X101154874Y-87292122D01*
X101153589Y-87292073D01*
X101151165Y-87292216D01*
X88163819Y-87292216D01*
X88160036Y-87291943D01*
X88156186Y-87292137D01*
X88154683Y-87292175D01*
X88153076Y-87292527D01*
X88152873Y-87292565D01*
X88150940Y-87293184D01*
X87933356Y-87348279D01*
X87925264Y-87349168D01*
X87919548Y-87351359D01*
X87917498Y-87352017D01*
X87916219Y-87352574D01*
X87915384Y-87353137D01*
X87913684Y-87354558D01*
X87908695Y-87358317D01*
X87903721Y-87364550D01*
X87738222Y-87522267D01*
X87731441Y-87527288D01*
X87729315Y-87529982D01*
X87728002Y-87531441D01*
X87726779Y-87533182D01*
X87725654Y-87535438D01*
X87725018Y-87537208D01*
X87723881Y-87539793D01*
X87722624Y-87548036D01*
X87655328Y-87789076D01*
X87654536Y-87791385D01*
X87654241Y-87792632D01*
X87654189Y-87794035D01*
X87654332Y-87796434D01*
X87654332Y-100783866D01*
X87654051Y-100787808D01*
X75460832Y-100787808D01*
X75460832Y-87801961D01*
X75461104Y-87798180D01*
X75460911Y-87794329D01*
X75460875Y-87792928D01*
X75460578Y-87791607D01*
X75459779Y-87787612D01*
X75458570Y-87783982D01*
X75404930Y-87572145D01*
X75404049Y-87563713D01*
X75401921Y-87558245D01*
X75401259Y-87556153D01*
X75400510Y-87554377D01*
X75399790Y-87553314D01*
X75398226Y-87551452D01*
X75394865Y-87546949D01*
X75388501Y-87541870D01*
X75231232Y-87376841D01*
X75225847Y-87369488D01*
X75224079Y-87367886D01*
X75221082Y-87365778D01*
X75219901Y-87364899D01*
X75218570Y-87364267D01*
X75215207Y-87362563D01*
X75214354Y-87362257D01*
X75205331Y-87360856D01*
X74964132Y-87293515D01*
X74961894Y-87292741D01*
X74960374Y-87292380D01*
X74959089Y-87292331D01*
X74956665Y-87292474D01*
X61969319Y-87292474D01*
X61965536Y-87292201D01*
X61961686Y-87292395D01*
X61960183Y-87292433D01*
X61958576Y-87292785D01*
X61958373Y-87292823D01*
X61956440Y-87293442D01*
X61738856Y-87348537D01*
X61730764Y-87349426D01*
X61725048Y-87351617D01*
X61722998Y-87352275D01*
X61721719Y-87352832D01*
X61720884Y-87353395D01*
X61719184Y-87354816D01*
X61714195Y-87358575D01*
X61709221Y-87364808D01*
X61543722Y-87522525D01*
X61536941Y-87527546D01*
X61534815Y-87530240D01*
X61533502Y-87531699D01*
X61532279Y-87533440D01*
X61531154Y-87535696D01*
X61530518Y-87537466D01*
X61529381Y-87540051D01*
X61528124Y-87548294D01*
X61460828Y-87789334D01*
X61460036Y-87791643D01*
X61459741Y-87792890D01*
X61459689Y-87794293D01*
X61459832Y-87796692D01*
X61459832Y-100784127D01*
X61459593Y-100787480D01*
X51792953Y-100787480D01*
X51793121Y-84646603D01*
X51793121Y-81653673D01*
X56698226Y-81653673D01*
X56698414Y-81657076D01*
X56698459Y-81658731D01*
X56698843Y-81660445D01*
X56698892Y-81660705D01*
X56699515Y-81662630D01*
X56723366Y-81756820D01*
X56754708Y-81880598D01*
X56755644Y-81888779D01*
X56757440Y-81893382D01*
X56758067Y-81895349D01*
X56758962Y-81897278D01*
X56758992Y-81897351D01*
X56759711Y-81898406D01*
X56759739Y-81898450D01*
X56761035Y-81899998D01*
X56764540Y-81904693D01*
X56770929Y-81909782D01*
X56928978Y-82075629D01*
X56934519Y-82083036D01*
X56935128Y-82083588D01*
X56938245Y-82085770D01*
X56939445Y-82086658D01*
X56940747Y-82087268D01*
X56945187Y-82089487D01*
X56945206Y-82089493D01*
X56954802Y-82090918D01*
X57195049Y-82157994D01*
X57197209Y-82158748D01*
X57199000Y-82159175D01*
X57200248Y-82159223D01*
X57202673Y-82159081D01*
X70190020Y-82159081D01*
X70193802Y-82159353D01*
X70197653Y-82159160D01*
X70199059Y-82159124D01*
X70200426Y-82158818D01*
X70204196Y-82158068D01*
X70207842Y-82156859D01*
X70420399Y-82103036D01*
X70428912Y-82102107D01*
X70429041Y-82102056D01*
X70433161Y-82100762D01*
X70435457Y-82099680D01*
X70437734Y-82098712D01*
X70438832Y-82097951D01*
X70440824Y-82096273D01*
X70445011Y-82093176D01*
X70450196Y-82086667D01*
X70615617Y-81929023D01*
X70623498Y-81923188D01*
X70625919Y-81919734D01*
X70627119Y-81918139D01*
X70627955Y-81916341D01*
X70629801Y-81912699D01*
X70631253Y-81903112D01*
X70632085Y-81900133D01*
X70698491Y-81662286D01*
X70699319Y-81659884D01*
X70699609Y-81658683D01*
X70699657Y-81657485D01*
X70699507Y-81654910D01*
X70699507Y-81653807D01*
X78129226Y-81653807D01*
X78129414Y-81657211D01*
X78129459Y-81658866D01*
X78129843Y-81660580D01*
X78129892Y-81660840D01*
X78130515Y-81662765D01*
X78154332Y-81756820D01*
X78185708Y-81880733D01*
X78186644Y-81888914D01*
X78188440Y-81893517D01*
X78189067Y-81895484D01*
X78189962Y-81897413D01*
X78189992Y-81897486D01*
X78190711Y-81898541D01*
X78190739Y-81898585D01*
X78192035Y-81900133D01*
X78195540Y-81904828D01*
X78201929Y-81909917D01*
X78359978Y-82075764D01*
X78365519Y-82083171D01*
X78366128Y-82083723D01*
X78369245Y-82085905D01*
X78370445Y-82086793D01*
X78371747Y-82087403D01*
X78376187Y-82089622D01*
X78376206Y-82089628D01*
X78385802Y-82091053D01*
X78626049Y-82158129D01*
X78628209Y-82158883D01*
X78630000Y-82159310D01*
X78631248Y-82159358D01*
X78633673Y-82159216D01*
X91621020Y-82159216D01*
X91624802Y-82159488D01*
X91628653Y-82159295D01*
X91630059Y-82159259D01*
X91631426Y-82158953D01*
X91635196Y-82158203D01*
X91638842Y-82156994D01*
X91851399Y-82103171D01*
X91859912Y-82102242D01*
X91860041Y-82102191D01*
X91864161Y-82100897D01*
X91866457Y-82099815D01*
X91868734Y-82098847D01*
X91869832Y-82098086D01*
X91871824Y-82096408D01*
X91876011Y-82093311D01*
X91881196Y-82086802D01*
X92046617Y-81929158D01*
X92054498Y-81923323D01*
X92056919Y-81919869D01*
X92058119Y-81918274D01*
X92058955Y-81916476D01*
X92060801Y-81912833D01*
X92062252Y-81903251D01*
X92063567Y-81898541D01*
X92129359Y-81662890D01*
X92130118Y-81660741D01*
X92130613Y-81658727D01*
X92130657Y-81657620D01*
X92130507Y-81655045D01*
X92130507Y-81653807D01*
X97179226Y-81653807D01*
X97179414Y-81657211D01*
X97179459Y-81658866D01*
X97179843Y-81660580D01*
X97179892Y-81660840D01*
X97180515Y-81662765D01*
X97204332Y-81756820D01*
X97235708Y-81880733D01*
X97236644Y-81888914D01*
X97238440Y-81893517D01*
X97239067Y-81895484D01*
X97239962Y-81897413D01*
X97239992Y-81897486D01*
X97240711Y-81898541D01*
X97240739Y-81898585D01*
X97242035Y-81900133D01*
X97245540Y-81904828D01*
X97251929Y-81909917D01*
X97409978Y-82075764D01*
X97415519Y-82083171D01*
X97416128Y-82083723D01*
X97419245Y-82085905D01*
X97420445Y-82086793D01*
X97421747Y-82087403D01*
X97426187Y-82089622D01*
X97426206Y-82089628D01*
X97435802Y-82091053D01*
X97676049Y-82158129D01*
X97678209Y-82158883D01*
X97680000Y-82159310D01*
X97681248Y-82159358D01*
X97683673Y-82159216D01*
X110671020Y-82159216D01*
X110674802Y-82159488D01*
X110678653Y-82159295D01*
X110680059Y-82159259D01*
X110681426Y-82158953D01*
X110685196Y-82158203D01*
X110688842Y-82156994D01*
X110901399Y-82103171D01*
X110909912Y-82102242D01*
X110910041Y-82102191D01*
X110914161Y-82100897D01*
X110916457Y-82099815D01*
X110918734Y-82098847D01*
X110919832Y-82098086D01*
X110921824Y-82096408D01*
X110926011Y-82093311D01*
X110931196Y-82086802D01*
X111096617Y-81929158D01*
X111104498Y-81923323D01*
X111106919Y-81919869D01*
X111108119Y-81918274D01*
X111108955Y-81916476D01*
X111110801Y-81912833D01*
X111112252Y-81903251D01*
X111113567Y-81898541D01*
X111179359Y-81662890D01*
X111180118Y-81660741D01*
X111180613Y-81658727D01*
X111180657Y-81657620D01*
X111180507Y-81655045D01*
X111180507Y-81653807D01*
X116229226Y-81653807D01*
X116229414Y-81657211D01*
X116229459Y-81658866D01*
X116229843Y-81660580D01*
X116229892Y-81660840D01*
X116230515Y-81662765D01*
X116254332Y-81756820D01*
X116285708Y-81880733D01*
X116286644Y-81888914D01*
X116288440Y-81893517D01*
X116289067Y-81895484D01*
X116289962Y-81897413D01*
X116289992Y-81897486D01*
X116290711Y-81898541D01*
X116290739Y-81898585D01*
X116292035Y-81900133D01*
X116295540Y-81904828D01*
X116301929Y-81909917D01*
X116459978Y-82075764D01*
X116465519Y-82083171D01*
X116466128Y-82083723D01*
X116469245Y-82085905D01*
X116470445Y-82086793D01*
X116471747Y-82087403D01*
X116476187Y-82089622D01*
X116476206Y-82089628D01*
X116485802Y-82091053D01*
X116726049Y-82158129D01*
X116728209Y-82158883D01*
X116730000Y-82159310D01*
X116731248Y-82159358D01*
X116733673Y-82159216D01*
X129721020Y-82159216D01*
X129724802Y-82159488D01*
X129728653Y-82159295D01*
X129730059Y-82159259D01*
X129731426Y-82158953D01*
X129735196Y-82158203D01*
X129738842Y-82156994D01*
X129951399Y-82103171D01*
X129959912Y-82102242D01*
X129960041Y-82102191D01*
X129964161Y-82100897D01*
X129966457Y-82099815D01*
X129968734Y-82098847D01*
X129969832Y-82098086D01*
X129971824Y-82096408D01*
X129976011Y-82093311D01*
X129981196Y-82086802D01*
X130146617Y-81929158D01*
X130154498Y-81923323D01*
X130156919Y-81919869D01*
X130158119Y-81918274D01*
X130158955Y-81916476D01*
X130160801Y-81912833D01*
X130162252Y-81903251D01*
X130163567Y-81898541D01*
X130229359Y-81662890D01*
X130230118Y-81660741D01*
X130230613Y-81658727D01*
X130230657Y-81657633D01*
X130230507Y-81655068D01*
X130230507Y-81653807D01*
X135279226Y-81653807D01*
X135279414Y-81657211D01*
X135279459Y-81658866D01*
X135279843Y-81660580D01*
X135279892Y-81660840D01*
X135280515Y-81662765D01*
X135304332Y-81756820D01*
X135335708Y-81880733D01*
X135336644Y-81888914D01*
X135338440Y-81893517D01*
X135339067Y-81895484D01*
X135339962Y-81897413D01*
X135339992Y-81897486D01*
X135340711Y-81898541D01*
X135340739Y-81898585D01*
X135342035Y-81900133D01*
X135345540Y-81904828D01*
X135351929Y-81909917D01*
X135509978Y-82075764D01*
X135515519Y-82083171D01*
X135516128Y-82083723D01*
X135519245Y-82085905D01*
X135520445Y-82086793D01*
X135521747Y-82087403D01*
X135526187Y-82089622D01*
X135526206Y-82089628D01*
X135535802Y-82091053D01*
X135776049Y-82158129D01*
X135778209Y-82158883D01*
X135780000Y-82159310D01*
X135781248Y-82159358D01*
X135783673Y-82159216D01*
X148771020Y-82159216D01*
X148774802Y-82159488D01*
X148778653Y-82159295D01*
X148780059Y-82159259D01*
X148781426Y-82158953D01*
X148785196Y-82158203D01*
X148788842Y-82156994D01*
X149001399Y-82103171D01*
X149009912Y-82102242D01*
X149010041Y-82102191D01*
X149014161Y-82100897D01*
X149016457Y-82099815D01*
X149018734Y-82098847D01*
X149019832Y-82098086D01*
X149021824Y-82096408D01*
X149026011Y-82093311D01*
X149031196Y-82086802D01*
X149196617Y-81929158D01*
X149204498Y-81923323D01*
X149206919Y-81919869D01*
X149208119Y-81918274D01*
X149208955Y-81916476D01*
X149210801Y-81912833D01*
X149212252Y-81903251D01*
X149213567Y-81898541D01*
X149279359Y-81662890D01*
X149280118Y-81660741D01*
X149280613Y-81658727D01*
X149280657Y-81657620D01*
X149280507Y-81655045D01*
X149280507Y-81653805D01*
X154329226Y-81653805D01*
X154329414Y-81657211D01*
X154329459Y-81658866D01*
X154329843Y-81660580D01*
X154329892Y-81660840D01*
X154330515Y-81662765D01*
X154354332Y-81756820D01*
X154385708Y-81880733D01*
X154386644Y-81888914D01*
X154388440Y-81893517D01*
X154389067Y-81895484D01*
X154389962Y-81897413D01*
X154389992Y-81897486D01*
X154390711Y-81898541D01*
X154390739Y-81898585D01*
X154392035Y-81900133D01*
X154395540Y-81904828D01*
X154401929Y-81909917D01*
X154559978Y-82075764D01*
X154565519Y-82083171D01*
X154566128Y-82083723D01*
X154569245Y-82085905D01*
X154570445Y-82086793D01*
X154571747Y-82087403D01*
X154576187Y-82089622D01*
X154576206Y-82089628D01*
X154585802Y-82091053D01*
X154826049Y-82158129D01*
X154828209Y-82158883D01*
X154830000Y-82159310D01*
X154831248Y-82159358D01*
X154833673Y-82159216D01*
X167821020Y-82159216D01*
X167824802Y-82159488D01*
X167828653Y-82159295D01*
X167830059Y-82159259D01*
X167831426Y-82158953D01*
X167835196Y-82158203D01*
X167838842Y-82156994D01*
X168051399Y-82103171D01*
X168059912Y-82102242D01*
X168060041Y-82102191D01*
X168064161Y-82100897D01*
X168066457Y-82099815D01*
X168068734Y-82098847D01*
X168069832Y-82098086D01*
X168071824Y-82096408D01*
X168076011Y-82093311D01*
X168081196Y-82086802D01*
X168246617Y-81929158D01*
X168254498Y-81923323D01*
X168256919Y-81919869D01*
X168258119Y-81918274D01*
X168258955Y-81916476D01*
X168260801Y-81912833D01*
X168262252Y-81903251D01*
X168263567Y-81898541D01*
X168329359Y-81662890D01*
X168330116Y-81660745D01*
X168330592Y-81658810D01*
X168330660Y-81656949D01*
X168330506Y-81654596D01*
X168330506Y-81653805D01*
X173379226Y-81653805D01*
X173379414Y-81657211D01*
X173379459Y-81658866D01*
X173379843Y-81660580D01*
X173379892Y-81660840D01*
X173380515Y-81662765D01*
X173404332Y-81756820D01*
X173435708Y-81880733D01*
X173436644Y-81888914D01*
X173438440Y-81893517D01*
X173439067Y-81895484D01*
X173439962Y-81897413D01*
X173439992Y-81897486D01*
X173440711Y-81898541D01*
X173440739Y-81898585D01*
X173442035Y-81900133D01*
X173445540Y-81904828D01*
X173451929Y-81909917D01*
X173609978Y-82075764D01*
X173615519Y-82083171D01*
X173616128Y-82083723D01*
X173619245Y-82085905D01*
X173620445Y-82086793D01*
X173621747Y-82087403D01*
X173626187Y-82089622D01*
X173626206Y-82089628D01*
X173635802Y-82091053D01*
X173876049Y-82158129D01*
X173878209Y-82158883D01*
X173880000Y-82159310D01*
X173881248Y-82159358D01*
X173883673Y-82159216D01*
X186871020Y-82159216D01*
X186874802Y-82159488D01*
X186878653Y-82159295D01*
X186880059Y-82159259D01*
X186881426Y-82158953D01*
X186885196Y-82158203D01*
X186888842Y-82156994D01*
X187101399Y-82103171D01*
X187109912Y-82102242D01*
X187110041Y-82102191D01*
X187114161Y-82100897D01*
X187116457Y-82099815D01*
X187118734Y-82098847D01*
X187119832Y-82098086D01*
X187121824Y-82096408D01*
X187126011Y-82093311D01*
X187131196Y-82086802D01*
X187296617Y-81929158D01*
X187304498Y-81923323D01*
X187306919Y-81919869D01*
X187308119Y-81918274D01*
X187308955Y-81916476D01*
X187310801Y-81912833D01*
X187312252Y-81903251D01*
X187313567Y-81898541D01*
X187379359Y-81662890D01*
X187380116Y-81660745D01*
X187380592Y-81658810D01*
X187380660Y-81656949D01*
X187380506Y-81654596D01*
X187380506Y-81653805D01*
X192429226Y-81653805D01*
X192429414Y-81657211D01*
X192429459Y-81658866D01*
X192429843Y-81660580D01*
X192429892Y-81660840D01*
X192430515Y-81662765D01*
X192454332Y-81756820D01*
X192485708Y-81880733D01*
X192486644Y-81888914D01*
X192488440Y-81893517D01*
X192489067Y-81895484D01*
X192489962Y-81897413D01*
X192489992Y-81897486D01*
X192490711Y-81898541D01*
X192490739Y-81898585D01*
X192492035Y-81900133D01*
X192495540Y-81904828D01*
X192501929Y-81909917D01*
X192659978Y-82075764D01*
X192665519Y-82083171D01*
X192666128Y-82083723D01*
X192669245Y-82085905D01*
X192670445Y-82086793D01*
X192671747Y-82087403D01*
X192676187Y-82089622D01*
X192676206Y-82089628D01*
X192685802Y-82091053D01*
X192926049Y-82158129D01*
X192928209Y-82158883D01*
X192930000Y-82159310D01*
X192931248Y-82159358D01*
X192933673Y-82159216D01*
X205921020Y-82159216D01*
X205924802Y-82159488D01*
X205928653Y-82159295D01*
X205930059Y-82159259D01*
X205931426Y-82158953D01*
X205935196Y-82158203D01*
X205938842Y-82156994D01*
X206151399Y-82103171D01*
X206159912Y-82102242D01*
X206160041Y-82102191D01*
X206164161Y-82100897D01*
X206166457Y-82099815D01*
X206168734Y-82098847D01*
X206169832Y-82098086D01*
X206171824Y-82096408D01*
X206176011Y-82093311D01*
X206181196Y-82086802D01*
X206346617Y-81929158D01*
X206354498Y-81923323D01*
X206356919Y-81919869D01*
X206358119Y-81918274D01*
X206358955Y-81916476D01*
X206360801Y-81912833D01*
X206362252Y-81903251D01*
X206363567Y-81898541D01*
X206429359Y-81662890D01*
X206430116Y-81660745D01*
X206430592Y-81658810D01*
X206430660Y-81656949D01*
X206430506Y-81654596D01*
X206430506Y-81653805D01*
X211479226Y-81653805D01*
X211479414Y-81657211D01*
X211479459Y-81658866D01*
X211479843Y-81660580D01*
X211479892Y-81660840D01*
X211480515Y-81662765D01*
X211504332Y-81756820D01*
X211535708Y-81880733D01*
X211536644Y-81888914D01*
X211538440Y-81893517D01*
X211539067Y-81895484D01*
X211539962Y-81897413D01*
X211539992Y-81897486D01*
X211540711Y-81898541D01*
X211540739Y-81898585D01*
X211542035Y-81900133D01*
X211545540Y-81904828D01*
X211551929Y-81909917D01*
X211709978Y-82075764D01*
X211715519Y-82083171D01*
X211716128Y-82083723D01*
X211719245Y-82085905D01*
X211720445Y-82086793D01*
X211721747Y-82087403D01*
X211726187Y-82089622D01*
X211726206Y-82089628D01*
X211735802Y-82091053D01*
X211976049Y-82158129D01*
X211978209Y-82158883D01*
X211980000Y-82159310D01*
X211981248Y-82159358D01*
X211983673Y-82159216D01*
X224971020Y-82159216D01*
X224974802Y-82159488D01*
X224978653Y-82159295D01*
X224980059Y-82159259D01*
X224981426Y-82158953D01*
X224985196Y-82158203D01*
X224988842Y-82156994D01*
X225201399Y-82103171D01*
X225209912Y-82102242D01*
X225210041Y-82102191D01*
X225214161Y-82100897D01*
X225216457Y-82099815D01*
X225218734Y-82098847D01*
X225219832Y-82098086D01*
X225221824Y-82096408D01*
X225226011Y-82093311D01*
X225231196Y-82086802D01*
X225396617Y-81929158D01*
X225404498Y-81923323D01*
X225406919Y-81919869D01*
X225408119Y-81918274D01*
X225408955Y-81916476D01*
X225410801Y-81912833D01*
X225412252Y-81903251D01*
X225413567Y-81898541D01*
X225479359Y-81662890D01*
X225480116Y-81660745D01*
X225480592Y-81658810D01*
X225480660Y-81656949D01*
X225480506Y-81654596D01*
X225480506Y-80652124D01*
X225480506Y-68667689D01*
X225480779Y-68663917D01*
X225480586Y-68660071D01*
X225480550Y-68658670D01*
X225480253Y-68657349D01*
X225479454Y-68653354D01*
X225478245Y-68649724D01*
X225424605Y-68437887D01*
X225423724Y-68429454D01*
X225421596Y-68423986D01*
X225420767Y-68421367D01*
X225420212Y-68420048D01*
X225419823Y-68419482D01*
X225417902Y-68417195D01*
X225414541Y-68412692D01*
X225408176Y-68407612D01*
X225250907Y-68242583D01*
X225245522Y-68235230D01*
X225243754Y-68233628D01*
X225240757Y-68231520D01*
X225239576Y-68230641D01*
X225238245Y-68230009D01*
X225234882Y-68228305D01*
X225234029Y-68227999D01*
X225225006Y-68226598D01*
X224983807Y-68159257D01*
X224981569Y-68158483D01*
X224980049Y-68158122D01*
X224978764Y-68158073D01*
X224976340Y-68158216D01*
X211988994Y-68158216D01*
X211985211Y-68157943D01*
X211981361Y-68158137D01*
X211979858Y-68158175D01*
X211978251Y-68158527D01*
X211978048Y-68158565D01*
X211976115Y-68159184D01*
X211758531Y-68214279D01*
X211750439Y-68215168D01*
X211744723Y-68217359D01*
X211742673Y-68218017D01*
X211741394Y-68218574D01*
X211740559Y-68219137D01*
X211738859Y-68220558D01*
X211733870Y-68224317D01*
X211728896Y-68230550D01*
X211563397Y-68388267D01*
X211556616Y-68393288D01*
X211554490Y-68395982D01*
X211553177Y-68397441D01*
X211551954Y-68399182D01*
X211550829Y-68401438D01*
X211550193Y-68403208D01*
X211549056Y-68405793D01*
X211547799Y-68414036D01*
X211480503Y-68655076D01*
X211479712Y-68657381D01*
X211479395Y-68658728D01*
X211479369Y-68659354D01*
X211479506Y-68661979D01*
X211479506Y-81649866D01*
X211479226Y-81653805D01*
X206430506Y-81653805D01*
X206430506Y-80652124D01*
X206430506Y-68667689D01*
X206430779Y-68663917D01*
X206430586Y-68660071D01*
X206430550Y-68658670D01*
X206430253Y-68657349D01*
X206429454Y-68653354D01*
X206428245Y-68649724D01*
X206374605Y-68437887D01*
X206373724Y-68429454D01*
X206371596Y-68423986D01*
X206370767Y-68421367D01*
X206370212Y-68420048D01*
X206369823Y-68419482D01*
X206367902Y-68417195D01*
X206364541Y-68412692D01*
X206358176Y-68407612D01*
X206200907Y-68242583D01*
X206195522Y-68235230D01*
X206193754Y-68233628D01*
X206190757Y-68231520D01*
X206189576Y-68230641D01*
X206188245Y-68230009D01*
X206184882Y-68228305D01*
X206184029Y-68227999D01*
X206175006Y-68226598D01*
X205933807Y-68159257D01*
X205931569Y-68158483D01*
X205930049Y-68158122D01*
X205928764Y-68158073D01*
X205926340Y-68158216D01*
X192938994Y-68158216D01*
X192935211Y-68157943D01*
X192931361Y-68158137D01*
X192929858Y-68158175D01*
X192928251Y-68158527D01*
X192928048Y-68158565D01*
X192926115Y-68159184D01*
X192708531Y-68214279D01*
X192700439Y-68215168D01*
X192694723Y-68217359D01*
X192692673Y-68218017D01*
X192691394Y-68218574D01*
X192690559Y-68219137D01*
X192688859Y-68220558D01*
X192683870Y-68224317D01*
X192678896Y-68230550D01*
X192513397Y-68388267D01*
X192506616Y-68393288D01*
X192504490Y-68395982D01*
X192503177Y-68397441D01*
X192501954Y-68399182D01*
X192500829Y-68401438D01*
X192500193Y-68403208D01*
X192499056Y-68405793D01*
X192497799Y-68414036D01*
X192430503Y-68655076D01*
X192429712Y-68657381D01*
X192429395Y-68658728D01*
X192429369Y-68659354D01*
X192429506Y-68661979D01*
X192429506Y-81649866D01*
X192429226Y-81653805D01*
X187380506Y-81653805D01*
X187380506Y-80652124D01*
X187380506Y-68667689D01*
X187380779Y-68663917D01*
X187380586Y-68660071D01*
X187380550Y-68658670D01*
X187380253Y-68657349D01*
X187379454Y-68653354D01*
X187378245Y-68649724D01*
X187324605Y-68437887D01*
X187323724Y-68429454D01*
X187321596Y-68423986D01*
X187320767Y-68421367D01*
X187320212Y-68420048D01*
X187319823Y-68419482D01*
X187317902Y-68417195D01*
X187314541Y-68412692D01*
X187308176Y-68407612D01*
X187150907Y-68242583D01*
X187145522Y-68235230D01*
X187143754Y-68233628D01*
X187140757Y-68231520D01*
X187139576Y-68230641D01*
X187138245Y-68230009D01*
X187134882Y-68228305D01*
X187134029Y-68227999D01*
X187125006Y-68226598D01*
X186883807Y-68159257D01*
X186881569Y-68158483D01*
X186880049Y-68158122D01*
X186878764Y-68158073D01*
X186876340Y-68158216D01*
X173888994Y-68158216D01*
X173885211Y-68157943D01*
X173881361Y-68158137D01*
X173879858Y-68158175D01*
X173878251Y-68158527D01*
X173878048Y-68158565D01*
X173876115Y-68159184D01*
X173658531Y-68214279D01*
X173650439Y-68215168D01*
X173644723Y-68217359D01*
X173642673Y-68218017D01*
X173641394Y-68218574D01*
X173640559Y-68219137D01*
X173638859Y-68220558D01*
X173633870Y-68224317D01*
X173628896Y-68230550D01*
X173463397Y-68388267D01*
X173456616Y-68393288D01*
X173454490Y-68395982D01*
X173453177Y-68397441D01*
X173451954Y-68399182D01*
X173450829Y-68401438D01*
X173450193Y-68403208D01*
X173449056Y-68405793D01*
X173447799Y-68414036D01*
X173380503Y-68655076D01*
X173379712Y-68657381D01*
X173379395Y-68658728D01*
X173379369Y-68659354D01*
X173379506Y-68661979D01*
X173379506Y-81649866D01*
X173379226Y-81653805D01*
X168330506Y-81653805D01*
X168330506Y-80652124D01*
X168330506Y-68667689D01*
X168330779Y-68663917D01*
X168330586Y-68660071D01*
X168330550Y-68658670D01*
X168330253Y-68657349D01*
X168329454Y-68653354D01*
X168328245Y-68649724D01*
X168274605Y-68437887D01*
X168273724Y-68429454D01*
X168271596Y-68423986D01*
X168270767Y-68421367D01*
X168270212Y-68420048D01*
X168269823Y-68419482D01*
X168267902Y-68417195D01*
X168264541Y-68412692D01*
X168258176Y-68407612D01*
X168100907Y-68242583D01*
X168095522Y-68235230D01*
X168093754Y-68233628D01*
X168090757Y-68231520D01*
X168089576Y-68230641D01*
X168088245Y-68230009D01*
X168084882Y-68228305D01*
X168084029Y-68227999D01*
X168075006Y-68226598D01*
X167833807Y-68159257D01*
X167831569Y-68158483D01*
X167830049Y-68158122D01*
X167828764Y-68158073D01*
X167826340Y-68158216D01*
X154838994Y-68158216D01*
X154835211Y-68157943D01*
X154831361Y-68158137D01*
X154829858Y-68158175D01*
X154828251Y-68158527D01*
X154828048Y-68158565D01*
X154826115Y-68159184D01*
X154608531Y-68214279D01*
X154600439Y-68215168D01*
X154594723Y-68217359D01*
X154592673Y-68218017D01*
X154591394Y-68218574D01*
X154590559Y-68219137D01*
X154588859Y-68220558D01*
X154583870Y-68224317D01*
X154578896Y-68230550D01*
X154413397Y-68388267D01*
X154406616Y-68393288D01*
X154404490Y-68395982D01*
X154403177Y-68397441D01*
X154401954Y-68399182D01*
X154400829Y-68401438D01*
X154400193Y-68403208D01*
X154399056Y-68405793D01*
X154397799Y-68414036D01*
X154330503Y-68655076D01*
X154329712Y-68657381D01*
X154329395Y-68658728D01*
X154329369Y-68659354D01*
X154329506Y-68661979D01*
X154329506Y-81649866D01*
X154329226Y-81653805D01*
X149280507Y-81653805D01*
X149280507Y-68667703D01*
X149280779Y-68663922D01*
X149280586Y-68660071D01*
X149280550Y-68658670D01*
X149280253Y-68657349D01*
X149279454Y-68653354D01*
X149278245Y-68649724D01*
X149224605Y-68437887D01*
X149223724Y-68429454D01*
X149221596Y-68423986D01*
X149220767Y-68421367D01*
X149220212Y-68420048D01*
X149219823Y-68419482D01*
X149217902Y-68417195D01*
X149214541Y-68412692D01*
X149208176Y-68407612D01*
X149050907Y-68242583D01*
X149045522Y-68235230D01*
X149043754Y-68233628D01*
X149040757Y-68231520D01*
X149039576Y-68230641D01*
X149038245Y-68230009D01*
X149034882Y-68228305D01*
X149034029Y-68227999D01*
X149025006Y-68226598D01*
X148783807Y-68159257D01*
X148781569Y-68158483D01*
X148780049Y-68158122D01*
X148778764Y-68158073D01*
X148776340Y-68158216D01*
X135788994Y-68158216D01*
X135785211Y-68157943D01*
X135781361Y-68158137D01*
X135779858Y-68158175D01*
X135778251Y-68158527D01*
X135778048Y-68158565D01*
X135776115Y-68159184D01*
X135558531Y-68214279D01*
X135550439Y-68215168D01*
X135544723Y-68217359D01*
X135542673Y-68218017D01*
X135541394Y-68218574D01*
X135540559Y-68219137D01*
X135538859Y-68220558D01*
X135533870Y-68224317D01*
X135528896Y-68230550D01*
X135363397Y-68388267D01*
X135356616Y-68393288D01*
X135354490Y-68395982D01*
X135353177Y-68397441D01*
X135351954Y-68399182D01*
X135350829Y-68401438D01*
X135350193Y-68403208D01*
X135349056Y-68405793D01*
X135347799Y-68414036D01*
X135280503Y-68655076D01*
X135279711Y-68657385D01*
X135279416Y-68658632D01*
X135279364Y-68660035D01*
X135279507Y-68662434D01*
X135279507Y-81649865D01*
X135279226Y-81653807D01*
X130230507Y-81653807D01*
X130230507Y-68667702D01*
X130230779Y-68663922D01*
X130230586Y-68660071D01*
X130230550Y-68658670D01*
X130230253Y-68657349D01*
X130229454Y-68653354D01*
X130228245Y-68649724D01*
X130174605Y-68437887D01*
X130173724Y-68429454D01*
X130171596Y-68423986D01*
X130170767Y-68421367D01*
X130170212Y-68420048D01*
X130169823Y-68419482D01*
X130167902Y-68417195D01*
X130164541Y-68412692D01*
X130158176Y-68407612D01*
X130000907Y-68242583D01*
X129995522Y-68235230D01*
X129993754Y-68233628D01*
X129990757Y-68231520D01*
X129989576Y-68230641D01*
X129988245Y-68230009D01*
X129984882Y-68228305D01*
X129984029Y-68227999D01*
X129975006Y-68226598D01*
X129733807Y-68159257D01*
X129731569Y-68158483D01*
X129730049Y-68158122D01*
X129728764Y-68158073D01*
X129726340Y-68158216D01*
X116738994Y-68158216D01*
X116735211Y-68157943D01*
X116731361Y-68158137D01*
X116729858Y-68158175D01*
X116728251Y-68158527D01*
X116728048Y-68158565D01*
X116726115Y-68159184D01*
X116508531Y-68214279D01*
X116500439Y-68215168D01*
X116494723Y-68217359D01*
X116492673Y-68218017D01*
X116491394Y-68218574D01*
X116490559Y-68219137D01*
X116488859Y-68220558D01*
X116483870Y-68224317D01*
X116478896Y-68230550D01*
X116313397Y-68388267D01*
X116306616Y-68393288D01*
X116304490Y-68395982D01*
X116303177Y-68397441D01*
X116301954Y-68399182D01*
X116300829Y-68401438D01*
X116300193Y-68403208D01*
X116299056Y-68405793D01*
X116297799Y-68414036D01*
X116230503Y-68655076D01*
X116229711Y-68657385D01*
X116229416Y-68658632D01*
X116229364Y-68660035D01*
X116229507Y-68662434D01*
X116229507Y-81649865D01*
X116229226Y-81653807D01*
X111180507Y-81653807D01*
X111180507Y-68667703D01*
X111180779Y-68663922D01*
X111180586Y-68660071D01*
X111180550Y-68658670D01*
X111180253Y-68657349D01*
X111179454Y-68653354D01*
X111178245Y-68649724D01*
X111124605Y-68437887D01*
X111123724Y-68429454D01*
X111121596Y-68423986D01*
X111120767Y-68421367D01*
X111120212Y-68420048D01*
X111119823Y-68419482D01*
X111117902Y-68417195D01*
X111114541Y-68412692D01*
X111108176Y-68407612D01*
X110950907Y-68242583D01*
X110945522Y-68235230D01*
X110943754Y-68233628D01*
X110940757Y-68231520D01*
X110939576Y-68230641D01*
X110938245Y-68230009D01*
X110934882Y-68228305D01*
X110934029Y-68227999D01*
X110925006Y-68226598D01*
X110683807Y-68159257D01*
X110681569Y-68158483D01*
X110680049Y-68158122D01*
X110678764Y-68158073D01*
X110676340Y-68158216D01*
X97688994Y-68158216D01*
X97685211Y-68157943D01*
X97681361Y-68158137D01*
X97679858Y-68158175D01*
X97678251Y-68158527D01*
X97678048Y-68158565D01*
X97676115Y-68159184D01*
X97458531Y-68214279D01*
X97450439Y-68215168D01*
X97444723Y-68217359D01*
X97442673Y-68218017D01*
X97441394Y-68218574D01*
X97440559Y-68219137D01*
X97438859Y-68220558D01*
X97433870Y-68224317D01*
X97428896Y-68230550D01*
X97263397Y-68388267D01*
X97256616Y-68393288D01*
X97254490Y-68395982D01*
X97253177Y-68397441D01*
X97251954Y-68399182D01*
X97250829Y-68401438D01*
X97250193Y-68403208D01*
X97249056Y-68405793D01*
X97247799Y-68414036D01*
X97180503Y-68655076D01*
X97179711Y-68657385D01*
X97179416Y-68658632D01*
X97179364Y-68660035D01*
X97179507Y-68662434D01*
X97179507Y-81649865D01*
X97179226Y-81653807D01*
X92130507Y-81653807D01*
X92130507Y-68667703D01*
X92130779Y-68663922D01*
X92130586Y-68660071D01*
X92130550Y-68658670D01*
X92130253Y-68657349D01*
X92129454Y-68653354D01*
X92128245Y-68649724D01*
X92074605Y-68437887D01*
X92073724Y-68429454D01*
X92071596Y-68423986D01*
X92070767Y-68421367D01*
X92070212Y-68420048D01*
X92069823Y-68419482D01*
X92067902Y-68417195D01*
X92064541Y-68412692D01*
X92058176Y-68407612D01*
X91900907Y-68242583D01*
X91895522Y-68235230D01*
X91893754Y-68233628D01*
X91890757Y-68231520D01*
X91889576Y-68230641D01*
X91888245Y-68230009D01*
X91884882Y-68228305D01*
X91884029Y-68227999D01*
X91875006Y-68226598D01*
X91633807Y-68159257D01*
X91631569Y-68158483D01*
X91630049Y-68158122D01*
X91628764Y-68158073D01*
X91626340Y-68158216D01*
X78638994Y-68158216D01*
X78635211Y-68157943D01*
X78631361Y-68158137D01*
X78629858Y-68158175D01*
X78628251Y-68158527D01*
X78628048Y-68158565D01*
X78626115Y-68159184D01*
X78408531Y-68214279D01*
X78400439Y-68215168D01*
X78394723Y-68217359D01*
X78392673Y-68218017D01*
X78391394Y-68218574D01*
X78390559Y-68219137D01*
X78388859Y-68220558D01*
X78383870Y-68224317D01*
X78378896Y-68230550D01*
X78213397Y-68388267D01*
X78206616Y-68393288D01*
X78204490Y-68395982D01*
X78203177Y-68397441D01*
X78201954Y-68399182D01*
X78200829Y-68401438D01*
X78200193Y-68403208D01*
X78199056Y-68405793D01*
X78197799Y-68414036D01*
X78130503Y-68655076D01*
X78129711Y-68657385D01*
X78129416Y-68658632D01*
X78129364Y-68660035D01*
X78129507Y-68662434D01*
X78129507Y-81649865D01*
X78129226Y-81653807D01*
X70699507Y-81653807D01*
X70699507Y-68667568D01*
X70699779Y-68663787D01*
X70699586Y-68659936D01*
X70699550Y-68658535D01*
X70699253Y-68657214D01*
X70698454Y-68653219D01*
X70697245Y-68649589D01*
X70643605Y-68437752D01*
X70642724Y-68429319D01*
X70640596Y-68423851D01*
X70639767Y-68421229D01*
X70639216Y-68419922D01*
X70638700Y-68419172D01*
X70636810Y-68416917D01*
X70633691Y-68412707D01*
X70627256Y-68407561D01*
X70469904Y-68242444D01*
X70464520Y-68235093D01*
X70462754Y-68233493D01*
X70459757Y-68231385D01*
X70458576Y-68230506D01*
X70457245Y-68229874D01*
X70453882Y-68228170D01*
X70453029Y-68227864D01*
X70444006Y-68226463D01*
X70202807Y-68159122D01*
X70200569Y-68158348D01*
X70199049Y-68157987D01*
X70197764Y-68157938D01*
X70195340Y-68158081D01*
X57207994Y-68158081D01*
X57204211Y-68157808D01*
X57200361Y-68158002D01*
X57198858Y-68158040D01*
X57197251Y-68158392D01*
X57197048Y-68158430D01*
X57195115Y-68159049D01*
X56977531Y-68214144D01*
X56969439Y-68215033D01*
X56963723Y-68217224D01*
X56961673Y-68217882D01*
X56960394Y-68218439D01*
X56959559Y-68219002D01*
X56957859Y-68220423D01*
X56952870Y-68224182D01*
X56947896Y-68230415D01*
X56782397Y-68388132D01*
X56775616Y-68393153D01*
X56773490Y-68395847D01*
X56772177Y-68397306D01*
X56770954Y-68399047D01*
X56769829Y-68401303D01*
X56769193Y-68403073D01*
X56768056Y-68405658D01*
X56766799Y-68413901D01*
X56699503Y-68654941D01*
X56698711Y-68657250D01*
X56698416Y-68658497D01*
X56698364Y-68659900D01*
X56698507Y-68662299D01*
X56698507Y-81649731D01*
X56698226Y-81653673D01*
X51793121Y-81653673D01*
X51793121Y-62688066D01*
X54317226Y-62688066D01*
X54317414Y-62691469D01*
X54317459Y-62693124D01*
X54317843Y-62694838D01*
X54317892Y-62695098D01*
X54318515Y-62697023D01*
X54319719Y-62701774D01*
X54373708Y-62914991D01*
X54374644Y-62923172D01*
X54376440Y-62927775D01*
X54377067Y-62929742D01*
X54377962Y-62931671D01*
X54377992Y-62931744D01*
X54378711Y-62932799D01*
X54378739Y-62932843D01*
X54380035Y-62934391D01*
X54383540Y-62939086D01*
X54389929Y-62944175D01*
X54547978Y-63110022D01*
X54553519Y-63117429D01*
X54554128Y-63117981D01*
X54557245Y-63120163D01*
X54558445Y-63121051D01*
X54559747Y-63121661D01*
X54564187Y-63123880D01*
X54564206Y-63123886D01*
X54573802Y-63125311D01*
X54814049Y-63192387D01*
X54816209Y-63193141D01*
X54818000Y-63193568D01*
X54819248Y-63193616D01*
X54821673Y-63193474D01*
X67809020Y-63193474D01*
X67812802Y-63193746D01*
X67816653Y-63193553D01*
X67818059Y-63193517D01*
X67819426Y-63193211D01*
X67823196Y-63192461D01*
X67826842Y-63191252D01*
X68039399Y-63137429D01*
X68047912Y-63136500D01*
X68048041Y-63136449D01*
X68052161Y-63135155D01*
X68054457Y-63134073D01*
X68056734Y-63133105D01*
X68057832Y-63132344D01*
X68059824Y-63130666D01*
X68064011Y-63127569D01*
X68069196Y-63121060D01*
X68234617Y-62963416D01*
X68242498Y-62957581D01*
X68244919Y-62954127D01*
X68246119Y-62952532D01*
X68246955Y-62950734D01*
X68248801Y-62947091D01*
X68250252Y-62937509D01*
X68251895Y-62931623D01*
X68317359Y-62697148D01*
X68318118Y-62694999D01*
X68318613Y-62692985D01*
X68318657Y-62691878D01*
X68318507Y-62689303D01*
X68318507Y-62687808D01*
X73366840Y-62687808D01*
X73367028Y-62691211D01*
X73367073Y-62692866D01*
X73367457Y-62694580D01*
X73367506Y-62694838D01*
X73368129Y-62696765D01*
X73423322Y-62914733D01*
X73424258Y-62922914D01*
X73426054Y-62927517D01*
X73426681Y-62929484D01*
X73427576Y-62931413D01*
X73427606Y-62931486D01*
X73428325Y-62932541D01*
X73428353Y-62932585D01*
X73429649Y-62934133D01*
X73433154Y-62938828D01*
X73439543Y-62943917D01*
X73597592Y-63109764D01*
X73603133Y-63117171D01*
X73603742Y-63117723D01*
X73606859Y-63119905D01*
X73608059Y-63120793D01*
X73609361Y-63121403D01*
X73613801Y-63123622D01*
X73613820Y-63123628D01*
X73623416Y-63125053D01*
X73863663Y-63192129D01*
X73865823Y-63192883D01*
X73867614Y-63193310D01*
X73868862Y-63193358D01*
X73871287Y-63193216D01*
X86858634Y-63193216D01*
X86862416Y-63193488D01*
X86866267Y-63193295D01*
X86867673Y-63193259D01*
X86869040Y-63192953D01*
X86872810Y-63192203D01*
X86876456Y-63190994D01*
X87089013Y-63137171D01*
X87097526Y-63136242D01*
X87097655Y-63136191D01*
X87101775Y-63134897D01*
X87104071Y-63133815D01*
X87106348Y-63132847D01*
X87107446Y-63132086D01*
X87109438Y-63130408D01*
X87113625Y-63127311D01*
X87118810Y-63120802D01*
X87284231Y-62963158D01*
X87292112Y-62957323D01*
X87294533Y-62953869D01*
X87295733Y-62952274D01*
X87296569Y-62950476D01*
X87298415Y-62946833D01*
X87299866Y-62937251D01*
X87366973Y-62696890D01*
X87367732Y-62694741D01*
X87368227Y-62692727D01*
X87368271Y-62691620D01*
X87368121Y-62689045D01*
X87368121Y-62687808D01*
X92416840Y-62687808D01*
X92417028Y-62691211D01*
X92417073Y-62692866D01*
X92417457Y-62694580D01*
X92417506Y-62694838D01*
X92418129Y-62696765D01*
X92473322Y-62914733D01*
X92474258Y-62922914D01*
X92476054Y-62927517D01*
X92476681Y-62929484D01*
X92477576Y-62931413D01*
X92477606Y-62931486D01*
X92478325Y-62932541D01*
X92478353Y-62932585D01*
X92479649Y-62934133D01*
X92483154Y-62938828D01*
X92489543Y-62943917D01*
X92647592Y-63109764D01*
X92653133Y-63117171D01*
X92653742Y-63117723D01*
X92656859Y-63119905D01*
X92658059Y-63120793D01*
X92659361Y-63121403D01*
X92663801Y-63123622D01*
X92663820Y-63123628D01*
X92673416Y-63125053D01*
X92913663Y-63192129D01*
X92915823Y-63192883D01*
X92917614Y-63193310D01*
X92918862Y-63193358D01*
X92921287Y-63193216D01*
X105908634Y-63193216D01*
X105912416Y-63193488D01*
X105916267Y-63193295D01*
X105917673Y-63193259D01*
X105919040Y-63192953D01*
X105922810Y-63192203D01*
X105926456Y-63190994D01*
X106139013Y-63137171D01*
X106147526Y-63136242D01*
X106147655Y-63136191D01*
X106151775Y-63134897D01*
X106154071Y-63133815D01*
X106156348Y-63132847D01*
X106157446Y-63132086D01*
X106159438Y-63130408D01*
X106163625Y-63127311D01*
X106168810Y-63120802D01*
X106334231Y-62963158D01*
X106342112Y-62957323D01*
X106344533Y-62953869D01*
X106345733Y-62952274D01*
X106346569Y-62950476D01*
X106348415Y-62946833D01*
X106349866Y-62937251D01*
X106416973Y-62696890D01*
X106417732Y-62694741D01*
X106418227Y-62692727D01*
X106418271Y-62691620D01*
X106418121Y-62689045D01*
X106418121Y-62687808D01*
X111466840Y-62687808D01*
X111467028Y-62691211D01*
X111467073Y-62692866D01*
X111467457Y-62694580D01*
X111467506Y-62694838D01*
X111468129Y-62696765D01*
X111523322Y-62914733D01*
X111524258Y-62922914D01*
X111526054Y-62927517D01*
X111526681Y-62929484D01*
X111527576Y-62931413D01*
X111527606Y-62931486D01*
X111528325Y-62932541D01*
X111528353Y-62932585D01*
X111529649Y-62934133D01*
X111533154Y-62938828D01*
X111539543Y-62943917D01*
X111697592Y-63109764D01*
X111703133Y-63117171D01*
X111703742Y-63117723D01*
X111706859Y-63119905D01*
X111708059Y-63120793D01*
X111709361Y-63121403D01*
X111713801Y-63123622D01*
X111713820Y-63123628D01*
X111723416Y-63125053D01*
X111963663Y-63192129D01*
X111965823Y-63192883D01*
X111967614Y-63193310D01*
X111968862Y-63193358D01*
X111971287Y-63193216D01*
X124958634Y-63193216D01*
X124962416Y-63193488D01*
X124966267Y-63193295D01*
X124967673Y-63193259D01*
X124969040Y-63192953D01*
X124972810Y-63192203D01*
X124976456Y-63190994D01*
X125189013Y-63137171D01*
X125197526Y-63136242D01*
X125197655Y-63136191D01*
X125201775Y-63134897D01*
X125204071Y-63133815D01*
X125206348Y-63132847D01*
X125207446Y-63132086D01*
X125209438Y-63130408D01*
X125213625Y-63127311D01*
X125218810Y-63120802D01*
X125384231Y-62963158D01*
X125392112Y-62957323D01*
X125394533Y-62953869D01*
X125395733Y-62952274D01*
X125396569Y-62950476D01*
X125398415Y-62946833D01*
X125399866Y-62937251D01*
X125466973Y-62696890D01*
X125467732Y-62694741D01*
X125468227Y-62692727D01*
X125468271Y-62691620D01*
X125468121Y-62689045D01*
X125468121Y-49701703D01*
X125468393Y-49697922D01*
X125468200Y-49694071D01*
X125468199Y-49694045D01*
X130516977Y-49694045D01*
X130517120Y-49696440D01*
X130517120Y-62688754D01*
X130516990Y-62690806D01*
X130516999Y-62690945D01*
X130517056Y-62692789D01*
X130517458Y-62694583D01*
X130517507Y-62694843D01*
X130518129Y-62696765D01*
X130573322Y-62914733D01*
X130574258Y-62922914D01*
X130576054Y-62927517D01*
X130576681Y-62929484D01*
X130577576Y-62931413D01*
X130577606Y-62931486D01*
X130578325Y-62932541D01*
X130578353Y-62932585D01*
X130579649Y-62934133D01*
X130583154Y-62938828D01*
X130589543Y-62943917D01*
X130747592Y-63109764D01*
X130753133Y-63117171D01*
X130753742Y-63117723D01*
X130756859Y-63119905D01*
X130758059Y-63120793D01*
X130759361Y-63121403D01*
X130763801Y-63123622D01*
X130763820Y-63123628D01*
X130773416Y-63125053D01*
X131013663Y-63192129D01*
X131015823Y-63192883D01*
X131017614Y-63193310D01*
X131018862Y-63193358D01*
X131021287Y-63193216D01*
X144008634Y-63193216D01*
X144012416Y-63193488D01*
X144016267Y-63193295D01*
X144017673Y-63193259D01*
X144019040Y-63192953D01*
X144022810Y-63192203D01*
X144026456Y-63190994D01*
X144239013Y-63137171D01*
X144247526Y-63136242D01*
X144247655Y-63136191D01*
X144251775Y-63134897D01*
X144254071Y-63133815D01*
X144256348Y-63132847D01*
X144257446Y-63132086D01*
X144259438Y-63130408D01*
X144263625Y-63127311D01*
X144268810Y-63120802D01*
X144434231Y-62963158D01*
X144442112Y-62957323D01*
X144444533Y-62953869D01*
X144445733Y-62952274D01*
X144446569Y-62950476D01*
X144448415Y-62946833D01*
X144449866Y-62937251D01*
X144516973Y-62696890D01*
X144517732Y-62694741D01*
X144518227Y-62692727D01*
X144518271Y-62691620D01*
X144518121Y-62689045D01*
X144518121Y-62687808D01*
X149566840Y-62687808D01*
X149567028Y-62691211D01*
X149567073Y-62692866D01*
X149567457Y-62694580D01*
X149567506Y-62694838D01*
X149568129Y-62696765D01*
X149623322Y-62914733D01*
X149624258Y-62922914D01*
X149626054Y-62927517D01*
X149626681Y-62929484D01*
X149627576Y-62931413D01*
X149627606Y-62931486D01*
X149628325Y-62932541D01*
X149628353Y-62932585D01*
X149629649Y-62934133D01*
X149633154Y-62938828D01*
X149639543Y-62943917D01*
X149797592Y-63109764D01*
X149803133Y-63117171D01*
X149803742Y-63117723D01*
X149806859Y-63119905D01*
X149808059Y-63120793D01*
X149809361Y-63121403D01*
X149813801Y-63123622D01*
X149813820Y-63123628D01*
X149823416Y-63125053D01*
X150063663Y-63192129D01*
X150065823Y-63192883D01*
X150067614Y-63193310D01*
X150068862Y-63193358D01*
X150071287Y-63193216D01*
X163058634Y-63193216D01*
X163062416Y-63193488D01*
X163066267Y-63193295D01*
X163067673Y-63193259D01*
X163069040Y-63192953D01*
X163072810Y-63192203D01*
X163076456Y-63190994D01*
X163289013Y-63137171D01*
X163297526Y-63136242D01*
X163297655Y-63136191D01*
X163301775Y-63134897D01*
X163304071Y-63133815D01*
X163306348Y-63132847D01*
X163307446Y-63132086D01*
X163309438Y-63130408D01*
X163313625Y-63127311D01*
X163318810Y-63120802D01*
X163484231Y-62963158D01*
X163492112Y-62957323D01*
X163494533Y-62953869D01*
X163495733Y-62952274D01*
X163496569Y-62950476D01*
X163498415Y-62946833D01*
X163499866Y-62937251D01*
X163566973Y-62696890D01*
X163567732Y-62694741D01*
X163568227Y-62692727D01*
X163568271Y-62691620D01*
X163568121Y-62689045D01*
X163568121Y-62687808D01*
X168616840Y-62687808D01*
X168617028Y-62691211D01*
X168617073Y-62692866D01*
X168617457Y-62694580D01*
X168617506Y-62694838D01*
X168618129Y-62696765D01*
X168673322Y-62914733D01*
X168674258Y-62922914D01*
X168676054Y-62927517D01*
X168676681Y-62929484D01*
X168677576Y-62931413D01*
X168677606Y-62931486D01*
X168678325Y-62932541D01*
X168678353Y-62932585D01*
X168679649Y-62934133D01*
X168683154Y-62938828D01*
X168689543Y-62943917D01*
X168847592Y-63109764D01*
X168853133Y-63117171D01*
X168853742Y-63117723D01*
X168856859Y-63119905D01*
X168858059Y-63120793D01*
X168859361Y-63121403D01*
X168863801Y-63123622D01*
X168863820Y-63123628D01*
X168873416Y-63125053D01*
X169113663Y-63192129D01*
X169115823Y-63192883D01*
X169117614Y-63193310D01*
X169118862Y-63193358D01*
X169121287Y-63193216D01*
X182108634Y-63193216D01*
X182112416Y-63193488D01*
X182116267Y-63193295D01*
X182117673Y-63193259D01*
X182119040Y-63192953D01*
X182122810Y-63192203D01*
X182126456Y-63190994D01*
X182339013Y-63137171D01*
X182347526Y-63136242D01*
X182347655Y-63136191D01*
X182351775Y-63134897D01*
X182354071Y-63133815D01*
X182356348Y-63132847D01*
X182357446Y-63132086D01*
X182359438Y-63130408D01*
X182363625Y-63127311D01*
X182368810Y-63120802D01*
X182534231Y-62963158D01*
X182542112Y-62957323D01*
X182544533Y-62953869D01*
X182545733Y-62952274D01*
X182546569Y-62950476D01*
X182548415Y-62946833D01*
X182549866Y-62937251D01*
X182616973Y-62696890D01*
X182617732Y-62694741D01*
X182618227Y-62692727D01*
X182618271Y-62691620D01*
X182618121Y-62689045D01*
X182618121Y-62687808D01*
X187666840Y-62687808D01*
X187667028Y-62691211D01*
X187667073Y-62692866D01*
X187667457Y-62694580D01*
X187667506Y-62694838D01*
X187668129Y-62696765D01*
X187723322Y-62914733D01*
X187724258Y-62922914D01*
X187726054Y-62927517D01*
X187726681Y-62929484D01*
X187727576Y-62931413D01*
X187727606Y-62931486D01*
X187728325Y-62932541D01*
X187728353Y-62932585D01*
X187729649Y-62934133D01*
X187733154Y-62938828D01*
X187739543Y-62943917D01*
X187897592Y-63109764D01*
X187903133Y-63117171D01*
X187903742Y-63117723D01*
X187906859Y-63119905D01*
X187908059Y-63120793D01*
X187909361Y-63121403D01*
X187913801Y-63123622D01*
X187913820Y-63123628D01*
X187923416Y-63125053D01*
X188163663Y-63192129D01*
X188165823Y-63192883D01*
X188167614Y-63193310D01*
X188168862Y-63193358D01*
X188171287Y-63193216D01*
X201158634Y-63193216D01*
X201162416Y-63193488D01*
X201166267Y-63193295D01*
X201167673Y-63193259D01*
X201169040Y-63192953D01*
X201172810Y-63192203D01*
X201176456Y-63190994D01*
X201389013Y-63137171D01*
X201397526Y-63136242D01*
X201397655Y-63136191D01*
X201401775Y-63134897D01*
X201404071Y-63133815D01*
X201406348Y-63132847D01*
X201407446Y-63132086D01*
X201409438Y-63130408D01*
X201413625Y-63127311D01*
X201418810Y-63120802D01*
X201584231Y-62963158D01*
X201592112Y-62957323D01*
X201594533Y-62953869D01*
X201595733Y-62952274D01*
X201596569Y-62950476D01*
X201598415Y-62946833D01*
X201599866Y-62937251D01*
X201601451Y-62931576D01*
X201666274Y-62699396D01*
X201666972Y-62696897D01*
X201668138Y-62693593D01*
X201668315Y-62692362D01*
X201668121Y-62689048D01*
X201668121Y-62687808D01*
X206716840Y-62687808D01*
X206717028Y-62691211D01*
X206717073Y-62692866D01*
X206717457Y-62694580D01*
X206717506Y-62694838D01*
X206718129Y-62696765D01*
X206773322Y-62914733D01*
X206774258Y-62922914D01*
X206776054Y-62927517D01*
X206776681Y-62929484D01*
X206777576Y-62931413D01*
X206777606Y-62931486D01*
X206778325Y-62932541D01*
X206778353Y-62932585D01*
X206779649Y-62934133D01*
X206783154Y-62938828D01*
X206789543Y-62943917D01*
X206947592Y-63109764D01*
X206953133Y-63117171D01*
X206953742Y-63117723D01*
X206956859Y-63119905D01*
X206958059Y-63120793D01*
X206959361Y-63121403D01*
X206963801Y-63123622D01*
X206963820Y-63123628D01*
X206973416Y-63125053D01*
X207213663Y-63192129D01*
X207215823Y-63192883D01*
X207217614Y-63193310D01*
X207218862Y-63193358D01*
X207221287Y-63193216D01*
X220208634Y-63193216D01*
X220212416Y-63193488D01*
X220216267Y-63193295D01*
X220217673Y-63193259D01*
X220219040Y-63192953D01*
X220222810Y-63192203D01*
X220226456Y-63190994D01*
X220439013Y-63137171D01*
X220447526Y-63136242D01*
X220447655Y-63136191D01*
X220451775Y-63134897D01*
X220454071Y-63133815D01*
X220456348Y-63132847D01*
X220457446Y-63132086D01*
X220459438Y-63130408D01*
X220463625Y-63127311D01*
X220468810Y-63120802D01*
X220634231Y-62963158D01*
X220642112Y-62957323D01*
X220644533Y-62953869D01*
X220645733Y-62952274D01*
X220646569Y-62950476D01*
X220648415Y-62946833D01*
X220649866Y-62937251D01*
X220651451Y-62931576D01*
X220716274Y-62699396D01*
X220716972Y-62696897D01*
X220718138Y-62693593D01*
X220718315Y-62692362D01*
X220718121Y-62689048D01*
X220718121Y-49701703D01*
X220718375Y-49698179D01*
X230529348Y-49698179D01*
X230529621Y-49701960D01*
X230529621Y-62694303D01*
X230529470Y-62696878D01*
X230529518Y-62698067D01*
X230529840Y-62699396D01*
X230530662Y-62701774D01*
X230598003Y-62942973D01*
X230599404Y-62951996D01*
X230599710Y-62952849D01*
X230601414Y-62956212D01*
X230602046Y-62957543D01*
X230602925Y-62958724D01*
X230605033Y-62961721D01*
X230606635Y-62963489D01*
X230613988Y-62968874D01*
X230779017Y-63126143D01*
X230784097Y-63132508D01*
X230788600Y-63135869D01*
X230790887Y-63137790D01*
X230791453Y-63138179D01*
X230792772Y-63138734D01*
X230795391Y-63139563D01*
X230800859Y-63141691D01*
X230809292Y-63142572D01*
X231021129Y-63196212D01*
X231024759Y-63197421D01*
X231028754Y-63198220D01*
X231030075Y-63198517D01*
X231031476Y-63198553D01*
X231035326Y-63198746D01*
X231039109Y-63198474D01*
X232394316Y-63198474D01*
X232427659Y-63203040D01*
X232637500Y-63261626D01*
X232693918Y-63295511D01*
X232828118Y-63436333D01*
X232858558Y-63491440D01*
X232907077Y-63683051D01*
X232910871Y-63713489D01*
X232910871Y-73643921D01*
X232906303Y-73677267D01*
X232847717Y-73887100D01*
X232813831Y-73943520D01*
X232673009Y-74077721D01*
X232617901Y-74108161D01*
X232490444Y-74140435D01*
X232414751Y-74159601D01*
X232413771Y-74159791D01*
X232411334Y-74160466D01*
X232411332Y-74160466D01*
X232411238Y-74160492D01*
X232411152Y-74160514D01*
X232411149Y-74160515D01*
X232408392Y-74161220D01*
X232407435Y-74161552D01*
X232166640Y-74228781D01*
X232158363Y-74230047D01*
X232155846Y-74231159D01*
X232154154Y-74231770D01*
X232151842Y-74232918D01*
X232149963Y-74234254D01*
X232148596Y-74235484D01*
X232146283Y-74237307D01*
X232141315Y-74243953D01*
X231983251Y-74409816D01*
X231976935Y-74414851D01*
X231973377Y-74419596D01*
X231972061Y-74421163D01*
X231972058Y-74421169D01*
X231971218Y-74422409D01*
X231970745Y-74423486D01*
X231970102Y-74425474D01*
X231967937Y-74431152D01*
X231967039Y-74439080D01*
X231911839Y-74657084D01*
X231911292Y-74658790D01*
X231910862Y-74660915D01*
X231910643Y-74666807D01*
X231910871Y-74669962D01*
X231910871Y-80657303D01*
X231910720Y-80659878D01*
X231910768Y-80661067D01*
X231911090Y-80662396D01*
X231911912Y-80664774D01*
X231979253Y-80905973D01*
X231980654Y-80914996D01*
X231980960Y-80915849D01*
X231982664Y-80919212D01*
X231983296Y-80920543D01*
X231984175Y-80921724D01*
X231986283Y-80924721D01*
X231987885Y-80926489D01*
X231995238Y-80931874D01*
X232160267Y-81089143D01*
X232165347Y-81095508D01*
X232169850Y-81098869D01*
X232172137Y-81100790D01*
X232172703Y-81101179D01*
X232174022Y-81101734D01*
X232176641Y-81102563D01*
X232182109Y-81104691D01*
X232190542Y-81105572D01*
X232411231Y-81161454D01*
X232624296Y-81220940D01*
X232637499Y-81224626D01*
X232693918Y-81258511D01*
X232828119Y-81399334D01*
X232858558Y-81454440D01*
X232906730Y-81644683D01*
X232907077Y-81646051D01*
X232910871Y-81676491D01*
X232910870Y-81744299D01*
X232910719Y-81746867D01*
X232910768Y-81748067D01*
X232911090Y-81749396D01*
X232911912Y-81751774D01*
X232979253Y-81992973D01*
X232980654Y-82001996D01*
X232980960Y-82002849D01*
X232982664Y-82006212D01*
X232983296Y-82007543D01*
X232984175Y-82008724D01*
X232986283Y-82011721D01*
X232987885Y-82013489D01*
X232995238Y-82018874D01*
X233160267Y-82176143D01*
X233165347Y-82182508D01*
X233169850Y-82185869D01*
X233172137Y-82187790D01*
X233172703Y-82188179D01*
X233174022Y-82188734D01*
X233176641Y-82189563D01*
X233182109Y-82191691D01*
X233190542Y-82192572D01*
X233402379Y-82246212D01*
X233406009Y-82247421D01*
X233410004Y-82248220D01*
X233411325Y-82248517D01*
X233412726Y-82248553D01*
X233416576Y-82248746D01*
X233420359Y-82248474D01*
X246407704Y-82248474D01*
X246410128Y-82248616D01*
X246411334Y-82248570D01*
X246413346Y-82248086D01*
X246413464Y-82248061D01*
X246415545Y-82247326D01*
X246627439Y-82188167D01*
X246655850Y-82180235D01*
X246665510Y-82178777D01*
X246668846Y-82177074D01*
X246670985Y-82176083D01*
X246672896Y-82174640D01*
X246675742Y-82172665D01*
X246676525Y-82171951D01*
X246682272Y-82164102D01*
X246838990Y-81999652D01*
X246845621Y-81994429D01*
X246849032Y-81989826D01*
X246851326Y-81987111D01*
X246851366Y-81987054D01*
X246851786Y-81986292D01*
X246852035Y-81985700D01*
X246853031Y-81982542D01*
X246854950Y-81977641D01*
X246855858Y-81969240D01*
X246909649Y-81756809D01*
X246910857Y-81753166D01*
X246911565Y-81749606D01*
X246911920Y-81748044D01*
X246911964Y-81746469D01*
X246912151Y-81743066D01*
X246911871Y-81739124D01*
X246911871Y-81678027D01*
X246916438Y-81644683D01*
X246975024Y-81434840D01*
X247008907Y-81378426D01*
X247149730Y-81244224D01*
X247204836Y-81213785D01*
X247287682Y-81192808D01*
X247396456Y-81165267D01*
X247426892Y-81161474D01*
X248407704Y-81161474D01*
X248410128Y-81161616D01*
X248411334Y-81161570D01*
X248413346Y-81161086D01*
X248413464Y-81161061D01*
X248415545Y-81160326D01*
X248627439Y-81101167D01*
X248655850Y-81093235D01*
X248665510Y-81091777D01*
X248668846Y-81090074D01*
X248670985Y-81089083D01*
X248672896Y-81087640D01*
X248675742Y-81085665D01*
X248676525Y-81084951D01*
X248682272Y-81077102D01*
X248838990Y-80912652D01*
X248845621Y-80907429D01*
X248849032Y-80902826D01*
X248851326Y-80900111D01*
X248851366Y-80900054D01*
X248851786Y-80899292D01*
X248852035Y-80898700D01*
X248853031Y-80895542D01*
X248854949Y-80890641D01*
X248855858Y-80882240D01*
X248909648Y-80669814D01*
X248911019Y-80665679D01*
X248911352Y-80663880D01*
X248912013Y-80661062D01*
X248912073Y-80658162D01*
X248912184Y-80656537D01*
X248911871Y-80652138D01*
X248911871Y-74664691D01*
X248912013Y-74662292D01*
X248911963Y-74660959D01*
X248911538Y-74659175D01*
X248910784Y-74657016D01*
X248843708Y-74416769D01*
X248842283Y-74407173D01*
X248842277Y-74407154D01*
X248840058Y-74402714D01*
X248839448Y-74401412D01*
X248838560Y-74400212D01*
X248836378Y-74397095D01*
X248835826Y-74396486D01*
X248828419Y-74390945D01*
X248662572Y-74232896D01*
X248657483Y-74226507D01*
X248652788Y-74223002D01*
X248651240Y-74221706D01*
X248651196Y-74221678D01*
X248650141Y-74220959D01*
X248650068Y-74220929D01*
X248648139Y-74220034D01*
X248646172Y-74219407D01*
X248641569Y-74217611D01*
X248633388Y-74216675D01*
X248415420Y-74161482D01*
X248413499Y-74160861D01*
X248413028Y-74160771D01*
X248411491Y-74160432D01*
X248410017Y-74160395D01*
X248406166Y-74160201D01*
X248402384Y-74160474D01*
X247428423Y-74160474D01*
X247395078Y-74155906D01*
X247224071Y-74108161D01*
X247185242Y-74097320D01*
X247128823Y-74063435D01*
X246994618Y-73922607D01*
X246964181Y-73867505D01*
X246915663Y-73675889D01*
X246911871Y-73645458D01*
X246911871Y-57802027D01*
X246916438Y-57768683D01*
X246975024Y-57558840D01*
X247008907Y-57502426D01*
X247149730Y-57368224D01*
X247204836Y-57337785D01*
X247287682Y-57316808D01*
X247396456Y-57289267D01*
X247426892Y-57285474D01*
X248407704Y-57285474D01*
X248410128Y-57285616D01*
X248411334Y-57285570D01*
X248413346Y-57285086D01*
X248413464Y-57285061D01*
X248415545Y-57284326D01*
X248571136Y-57240886D01*
X248655850Y-57217235D01*
X248665510Y-57215777D01*
X248668846Y-57214074D01*
X248670985Y-57213083D01*
X248672896Y-57211640D01*
X248675742Y-57209665D01*
X248676525Y-57208951D01*
X248682272Y-57201102D01*
X248838990Y-57036652D01*
X248845621Y-57031429D01*
X248849032Y-57026826D01*
X248851326Y-57024111D01*
X248851366Y-57024054D01*
X248851786Y-57023292D01*
X248852035Y-57022700D01*
X248853031Y-57019542D01*
X248854949Y-57014641D01*
X248855858Y-57006240D01*
X248909648Y-56793814D01*
X248911019Y-56789679D01*
X248911352Y-56787880D01*
X248912013Y-56785062D01*
X248912073Y-56782162D01*
X248912184Y-56780537D01*
X248911871Y-56776138D01*
X248911871Y-50788690D01*
X248912013Y-50786292D01*
X248911963Y-50784959D01*
X248911538Y-50783175D01*
X248910784Y-50781016D01*
X248843708Y-50540769D01*
X248842283Y-50531173D01*
X248842277Y-50531154D01*
X248840058Y-50526714D01*
X248839448Y-50525412D01*
X248838560Y-50524212D01*
X248836378Y-50521095D01*
X248835826Y-50520486D01*
X248828419Y-50514945D01*
X248662572Y-50356896D01*
X248657483Y-50350507D01*
X248652788Y-50347002D01*
X248651240Y-50345706D01*
X248651196Y-50345678D01*
X248650141Y-50344959D01*
X248650068Y-50344929D01*
X248648139Y-50344034D01*
X248646172Y-50343407D01*
X248641569Y-50341611D01*
X248633388Y-50340675D01*
X248415420Y-50285482D01*
X248413499Y-50284861D01*
X248413028Y-50284771D01*
X248411491Y-50284432D01*
X248410017Y-50284395D01*
X248406166Y-50284201D01*
X248402384Y-50284474D01*
X245047173Y-50284474D01*
X245013828Y-50279906D01*
X244803992Y-50221320D01*
X244747573Y-50187435D01*
X244613368Y-50046607D01*
X244582931Y-49991504D01*
X244534413Y-49799888D01*
X244530620Y-49769464D01*
X244530621Y-49696689D01*
X244530763Y-49694291D01*
X244530713Y-49692959D01*
X244530288Y-49691175D01*
X244529534Y-49689016D01*
X244462458Y-49448769D01*
X244461033Y-49439173D01*
X244461027Y-49439154D01*
X244458808Y-49434714D01*
X244458198Y-49433412D01*
X244457310Y-49432212D01*
X244455128Y-49429095D01*
X244454576Y-49428486D01*
X244447169Y-49422945D01*
X244281322Y-49264896D01*
X244276233Y-49258507D01*
X244271538Y-49255002D01*
X244269988Y-49253705D01*
X244269946Y-49253678D01*
X244268891Y-49252959D01*
X244268818Y-49252929D01*
X244266889Y-49252034D01*
X244264922Y-49251407D01*
X244260319Y-49249611D01*
X244252138Y-49248675D01*
X244250574Y-49248279D01*
X244034170Y-49193482D01*
X244032249Y-49192861D01*
X244031778Y-49192771D01*
X244030241Y-49192432D01*
X244028767Y-49192395D01*
X244024916Y-49192201D01*
X244021134Y-49192474D01*
X231033788Y-49192474D01*
X231031363Y-49192331D01*
X231030051Y-49192381D01*
X231028785Y-49192680D01*
X231026481Y-49193470D01*
X230785389Y-49260781D01*
X230777113Y-49262047D01*
X230774596Y-49263159D01*
X230772904Y-49263770D01*
X230770592Y-49264918D01*
X230768713Y-49266254D01*
X230767346Y-49267484D01*
X230765033Y-49269307D01*
X230760065Y-49275953D01*
X230602001Y-49441816D01*
X230595685Y-49446851D01*
X230592127Y-49451596D01*
X230590811Y-49453163D01*
X230590808Y-49453169D01*
X230589968Y-49454409D01*
X230589495Y-49455486D01*
X230588852Y-49457474D01*
X230586687Y-49463152D01*
X230585789Y-49471080D01*
X230530590Y-49689081D01*
X230529969Y-49691020D01*
X230529932Y-49691218D01*
X230529580Y-49692825D01*
X230529542Y-49694328D01*
X230529348Y-49698179D01*
X220718375Y-49698179D01*
X220718393Y-49697922D01*
X220718200Y-49694071D01*
X220718164Y-49692670D01*
X220717867Y-49691349D01*
X220717068Y-49687354D01*
X220715859Y-49683724D01*
X220662219Y-49471887D01*
X220661338Y-49463454D01*
X220659210Y-49457986D01*
X220658381Y-49455367D01*
X220657826Y-49454048D01*
X220657437Y-49453482D01*
X220655516Y-49451195D01*
X220652155Y-49446692D01*
X220645790Y-49441612D01*
X220488521Y-49276583D01*
X220483136Y-49269230D01*
X220481368Y-49267628D01*
X220478371Y-49265520D01*
X220477190Y-49264641D01*
X220475859Y-49264009D01*
X220472496Y-49262305D01*
X220471643Y-49261999D01*
X220462620Y-49260598D01*
X220221421Y-49193257D01*
X220219183Y-49192483D01*
X220217663Y-49192122D01*
X220216378Y-49192073D01*
X220213954Y-49192216D01*
X207226608Y-49192216D01*
X207222825Y-49191943D01*
X207218975Y-49192137D01*
X207217472Y-49192175D01*
X207215865Y-49192527D01*
X207215662Y-49192565D01*
X207213729Y-49193184D01*
X206996145Y-49248279D01*
X206988053Y-49249168D01*
X206982337Y-49251359D01*
X206980287Y-49252017D01*
X206979008Y-49252574D01*
X206978173Y-49253137D01*
X206976473Y-49254558D01*
X206971484Y-49258317D01*
X206966510Y-49264550D01*
X206801011Y-49422267D01*
X206794230Y-49427288D01*
X206792104Y-49429982D01*
X206790791Y-49431441D01*
X206789568Y-49433182D01*
X206788443Y-49435438D01*
X206787807Y-49437208D01*
X206786670Y-49439793D01*
X206785413Y-49448036D01*
X206718117Y-49689076D01*
X206717325Y-49691385D01*
X206717030Y-49692632D01*
X206716978Y-49694035D01*
X206717121Y-49696434D01*
X206717121Y-62683866D01*
X206716840Y-62687808D01*
X201668121Y-62687808D01*
X201668121Y-49701703D01*
X201668393Y-49697922D01*
X201668200Y-49694071D01*
X201668164Y-49692670D01*
X201667867Y-49691349D01*
X201667068Y-49687354D01*
X201665859Y-49683724D01*
X201612219Y-49471887D01*
X201611338Y-49463454D01*
X201609210Y-49457986D01*
X201608381Y-49455367D01*
X201607826Y-49454048D01*
X201607437Y-49453482D01*
X201605516Y-49451195D01*
X201602155Y-49446692D01*
X201595790Y-49441612D01*
X201438521Y-49276583D01*
X201433136Y-49269230D01*
X201431368Y-49267628D01*
X201428371Y-49265520D01*
X201427190Y-49264641D01*
X201425859Y-49264009D01*
X201422496Y-49262305D01*
X201421643Y-49261999D01*
X201412620Y-49260598D01*
X201171421Y-49193257D01*
X201169183Y-49192483D01*
X201167663Y-49192122D01*
X201166378Y-49192073D01*
X201163954Y-49192216D01*
X188176608Y-49192216D01*
X188172825Y-49191943D01*
X188168975Y-49192137D01*
X188167472Y-49192175D01*
X188165865Y-49192527D01*
X188165662Y-49192565D01*
X188163729Y-49193184D01*
X187946145Y-49248279D01*
X187938053Y-49249168D01*
X187932337Y-49251359D01*
X187930287Y-49252017D01*
X187929008Y-49252574D01*
X187928173Y-49253137D01*
X187926473Y-49254558D01*
X187921484Y-49258317D01*
X187916510Y-49264550D01*
X187751011Y-49422267D01*
X187744230Y-49427288D01*
X187742104Y-49429982D01*
X187740791Y-49431441D01*
X187739568Y-49433182D01*
X187738443Y-49435438D01*
X187737807Y-49437208D01*
X187736670Y-49439793D01*
X187735413Y-49448036D01*
X187668117Y-49689076D01*
X187667325Y-49691385D01*
X187667030Y-49692632D01*
X187666978Y-49694035D01*
X187667121Y-49696434D01*
X187667121Y-62683866D01*
X187666840Y-62687808D01*
X182618121Y-62687808D01*
X182618121Y-49701703D01*
X182618393Y-49697922D01*
X182618200Y-49694071D01*
X182618164Y-49692670D01*
X182617867Y-49691349D01*
X182617068Y-49687354D01*
X182615859Y-49683724D01*
X182562219Y-49471887D01*
X182561338Y-49463454D01*
X182559210Y-49457986D01*
X182558381Y-49455367D01*
X182557826Y-49454048D01*
X182557437Y-49453482D01*
X182555516Y-49451195D01*
X182552155Y-49446692D01*
X182545790Y-49441612D01*
X182388521Y-49276583D01*
X182383136Y-49269230D01*
X182381368Y-49267628D01*
X182378371Y-49265520D01*
X182377190Y-49264641D01*
X182375859Y-49264009D01*
X182372496Y-49262305D01*
X182371643Y-49261999D01*
X182362620Y-49260598D01*
X182121421Y-49193257D01*
X182119183Y-49192483D01*
X182117663Y-49192122D01*
X182116378Y-49192073D01*
X182113954Y-49192216D01*
X169126608Y-49192216D01*
X169122825Y-49191943D01*
X169118975Y-49192137D01*
X169117472Y-49192175D01*
X169115865Y-49192527D01*
X169115662Y-49192565D01*
X169113729Y-49193184D01*
X168896145Y-49248279D01*
X168888053Y-49249168D01*
X168882337Y-49251359D01*
X168880287Y-49252017D01*
X168879008Y-49252574D01*
X168878173Y-49253137D01*
X168876473Y-49254558D01*
X168871484Y-49258317D01*
X168866510Y-49264550D01*
X168701011Y-49422267D01*
X168694230Y-49427288D01*
X168692104Y-49429982D01*
X168690791Y-49431441D01*
X168689568Y-49433182D01*
X168688443Y-49435438D01*
X168687807Y-49437208D01*
X168686670Y-49439793D01*
X168685413Y-49448036D01*
X168618117Y-49689076D01*
X168617325Y-49691385D01*
X168617030Y-49692632D01*
X168616978Y-49694035D01*
X168617121Y-49696434D01*
X168617121Y-62683866D01*
X168616840Y-62687808D01*
X163568121Y-62687808D01*
X163568121Y-49701703D01*
X163568393Y-49697922D01*
X163568200Y-49694071D01*
X163568164Y-49692670D01*
X163567867Y-49691349D01*
X163567068Y-49687354D01*
X163565859Y-49683724D01*
X163512219Y-49471887D01*
X163511338Y-49463454D01*
X163509210Y-49457986D01*
X163508381Y-49455367D01*
X163507826Y-49454048D01*
X163507437Y-49453482D01*
X163505516Y-49451195D01*
X163502155Y-49446692D01*
X163495790Y-49441612D01*
X163338521Y-49276583D01*
X163333136Y-49269230D01*
X163331368Y-49267628D01*
X163328371Y-49265520D01*
X163327190Y-49264641D01*
X163325859Y-49264009D01*
X163322496Y-49262305D01*
X163321643Y-49261999D01*
X163312620Y-49260598D01*
X163071421Y-49193257D01*
X163069183Y-49192483D01*
X163067663Y-49192122D01*
X163066378Y-49192073D01*
X163063954Y-49192216D01*
X150076608Y-49192216D01*
X150072825Y-49191943D01*
X150068975Y-49192137D01*
X150067472Y-49192175D01*
X150065865Y-49192527D01*
X150065662Y-49192565D01*
X150063729Y-49193184D01*
X149846145Y-49248279D01*
X149838053Y-49249168D01*
X149832337Y-49251359D01*
X149830287Y-49252017D01*
X149829008Y-49252574D01*
X149828173Y-49253137D01*
X149826473Y-49254558D01*
X149821484Y-49258317D01*
X149816510Y-49264550D01*
X149651011Y-49422267D01*
X149644230Y-49427288D01*
X149642104Y-49429982D01*
X149640791Y-49431441D01*
X149639568Y-49433182D01*
X149638443Y-49435438D01*
X149637807Y-49437208D01*
X149636670Y-49439793D01*
X149635413Y-49448036D01*
X149568117Y-49689076D01*
X149567325Y-49691385D01*
X149567030Y-49692632D01*
X149566978Y-49694035D01*
X149567121Y-49696434D01*
X149567121Y-62683866D01*
X149566840Y-62687808D01*
X144518121Y-62687808D01*
X144518121Y-49701703D01*
X144518393Y-49697922D01*
X144518200Y-49694071D01*
X144518164Y-49692670D01*
X144517867Y-49691349D01*
X144517068Y-49687354D01*
X144515859Y-49683724D01*
X144462219Y-49471887D01*
X144461338Y-49463454D01*
X144459210Y-49457986D01*
X144458381Y-49455367D01*
X144457826Y-49454048D01*
X144457437Y-49453482D01*
X144455516Y-49451195D01*
X144452155Y-49446692D01*
X144445790Y-49441612D01*
X144288521Y-49276583D01*
X144283136Y-49269230D01*
X144281368Y-49267628D01*
X144278371Y-49265520D01*
X144277190Y-49264641D01*
X144275859Y-49264009D01*
X144272496Y-49262305D01*
X144271643Y-49261999D01*
X144262620Y-49260598D01*
X144021421Y-49193257D01*
X144019183Y-49192483D01*
X144017663Y-49192122D01*
X144016378Y-49192073D01*
X144013954Y-49192216D01*
X131026608Y-49192216D01*
X131022825Y-49191943D01*
X131018975Y-49192137D01*
X131017472Y-49192175D01*
X131015865Y-49192527D01*
X131015662Y-49192565D01*
X131013729Y-49193184D01*
X130796145Y-49248279D01*
X130788053Y-49249168D01*
X130782337Y-49251359D01*
X130780287Y-49252017D01*
X130779008Y-49252574D01*
X130778173Y-49253137D01*
X130776473Y-49254558D01*
X130771484Y-49258317D01*
X130766510Y-49264550D01*
X130601011Y-49422267D01*
X130594230Y-49427288D01*
X130592104Y-49429982D01*
X130590791Y-49431441D01*
X130589568Y-49433182D01*
X130588443Y-49435438D01*
X130587807Y-49437208D01*
X130586670Y-49439793D01*
X130585413Y-49448036D01*
X130518117Y-49689076D01*
X130517325Y-49691385D01*
X130517030Y-49692632D01*
X130516977Y-49694045D01*
X125468199Y-49694045D01*
X125468164Y-49692670D01*
X125467867Y-49691349D01*
X125467068Y-49687354D01*
X125465859Y-49683724D01*
X125412219Y-49471887D01*
X125411338Y-49463454D01*
X125409210Y-49457986D01*
X125408381Y-49455367D01*
X125407826Y-49454048D01*
X125407437Y-49453482D01*
X125405516Y-49451195D01*
X125402155Y-49446692D01*
X125395790Y-49441612D01*
X125238521Y-49276583D01*
X125233136Y-49269230D01*
X125231368Y-49267628D01*
X125228371Y-49265520D01*
X125227190Y-49264641D01*
X125225859Y-49264009D01*
X125222496Y-49262305D01*
X125221643Y-49261999D01*
X125212620Y-49260598D01*
X124971421Y-49193257D01*
X124969183Y-49192483D01*
X124967663Y-49192122D01*
X124966378Y-49192073D01*
X124963954Y-49192216D01*
X111976608Y-49192216D01*
X111972825Y-49191943D01*
X111968975Y-49192137D01*
X111967472Y-49192175D01*
X111965865Y-49192527D01*
X111965662Y-49192565D01*
X111963729Y-49193184D01*
X111746145Y-49248279D01*
X111738053Y-49249168D01*
X111732337Y-49251359D01*
X111730287Y-49252017D01*
X111729008Y-49252574D01*
X111728173Y-49253137D01*
X111726473Y-49254558D01*
X111721484Y-49258317D01*
X111716510Y-49264550D01*
X111551011Y-49422267D01*
X111544230Y-49427288D01*
X111542104Y-49429982D01*
X111540791Y-49431441D01*
X111539568Y-49433182D01*
X111538443Y-49435438D01*
X111537807Y-49437208D01*
X111536670Y-49439793D01*
X111535413Y-49448036D01*
X111468117Y-49689076D01*
X111467325Y-49691385D01*
X111467030Y-49692632D01*
X111466978Y-49694035D01*
X111467121Y-49696434D01*
X111467121Y-62683866D01*
X111466840Y-62687808D01*
X106418121Y-62687808D01*
X106418121Y-49701703D01*
X106418393Y-49697922D01*
X106418200Y-49694071D01*
X106418164Y-49692670D01*
X106417867Y-49691349D01*
X106417068Y-49687354D01*
X106415859Y-49683724D01*
X106362219Y-49471887D01*
X106361338Y-49463454D01*
X106359210Y-49457986D01*
X106358381Y-49455367D01*
X106357826Y-49454048D01*
X106357437Y-49453482D01*
X106355516Y-49451195D01*
X106352155Y-49446692D01*
X106345790Y-49441612D01*
X106188521Y-49276583D01*
X106183136Y-49269230D01*
X106181368Y-49267628D01*
X106178371Y-49265520D01*
X106177190Y-49264641D01*
X106175859Y-49264009D01*
X106172496Y-49262305D01*
X106171643Y-49261999D01*
X106162620Y-49260598D01*
X105921421Y-49193257D01*
X105919183Y-49192483D01*
X105917663Y-49192122D01*
X105916378Y-49192073D01*
X105913954Y-49192216D01*
X92926608Y-49192216D01*
X92922825Y-49191943D01*
X92918975Y-49192137D01*
X92917472Y-49192175D01*
X92915865Y-49192527D01*
X92915662Y-49192565D01*
X92913729Y-49193184D01*
X92696145Y-49248279D01*
X92688053Y-49249168D01*
X92682337Y-49251359D01*
X92680287Y-49252017D01*
X92679008Y-49252574D01*
X92678173Y-49253137D01*
X92676473Y-49254558D01*
X92671484Y-49258317D01*
X92666510Y-49264550D01*
X92501011Y-49422267D01*
X92494230Y-49427288D01*
X92492104Y-49429982D01*
X92490791Y-49431441D01*
X92489568Y-49433182D01*
X92488443Y-49435438D01*
X92487807Y-49437208D01*
X92486670Y-49439793D01*
X92485413Y-49448036D01*
X92418117Y-49689076D01*
X92417325Y-49691385D01*
X92417030Y-49692632D01*
X92416978Y-49694035D01*
X92417121Y-49696434D01*
X92417121Y-62683866D01*
X92416840Y-62687808D01*
X87368121Y-62687808D01*
X87368121Y-49701703D01*
X87368393Y-49697922D01*
X87368200Y-49694071D01*
X87368164Y-49692670D01*
X87367867Y-49691349D01*
X87367068Y-49687354D01*
X87365859Y-49683724D01*
X87312219Y-49471887D01*
X87311338Y-49463454D01*
X87309210Y-49457986D01*
X87308381Y-49455367D01*
X87307826Y-49454048D01*
X87307437Y-49453482D01*
X87305516Y-49451195D01*
X87302155Y-49446692D01*
X87295790Y-49441612D01*
X87138521Y-49276583D01*
X87133136Y-49269230D01*
X87131368Y-49267628D01*
X87128371Y-49265520D01*
X87127190Y-49264641D01*
X87125859Y-49264009D01*
X87122496Y-49262305D01*
X87121643Y-49261999D01*
X87112620Y-49260598D01*
X86871421Y-49193257D01*
X86869183Y-49192483D01*
X86867663Y-49192122D01*
X86866378Y-49192073D01*
X86863954Y-49192216D01*
X73876608Y-49192216D01*
X73872825Y-49191943D01*
X73868975Y-49192137D01*
X73867472Y-49192175D01*
X73865865Y-49192527D01*
X73865662Y-49192565D01*
X73863729Y-49193184D01*
X73646145Y-49248279D01*
X73638053Y-49249168D01*
X73632337Y-49251359D01*
X73630287Y-49252017D01*
X73629008Y-49252574D01*
X73628173Y-49253137D01*
X73626473Y-49254558D01*
X73621484Y-49258317D01*
X73616510Y-49264550D01*
X73451011Y-49422267D01*
X73444230Y-49427288D01*
X73442104Y-49429982D01*
X73440791Y-49431441D01*
X73439568Y-49433182D01*
X73438443Y-49435438D01*
X73437807Y-49437208D01*
X73436670Y-49439793D01*
X73435413Y-49448036D01*
X73368117Y-49689076D01*
X73367325Y-49691385D01*
X73367030Y-49692632D01*
X73366978Y-49694035D01*
X73367121Y-49696434D01*
X73367121Y-62683866D01*
X73366840Y-62687808D01*
X68318507Y-62687808D01*
X68318507Y-49701961D01*
X68318779Y-49698180D01*
X68318586Y-49694329D01*
X68318550Y-49692928D01*
X68318253Y-49691607D01*
X68317454Y-49687612D01*
X68316245Y-49683982D01*
X68262605Y-49472145D01*
X68261724Y-49463713D01*
X68259596Y-49458245D01*
X68258934Y-49456153D01*
X68258185Y-49454377D01*
X68257465Y-49453314D01*
X68255901Y-49451452D01*
X68252540Y-49446949D01*
X68246176Y-49441870D01*
X68088907Y-49276841D01*
X68083522Y-49269488D01*
X68081754Y-49267886D01*
X68078757Y-49265778D01*
X68077576Y-49264899D01*
X68076245Y-49264267D01*
X68072882Y-49262563D01*
X68072029Y-49262257D01*
X68063006Y-49260856D01*
X67821807Y-49193515D01*
X67819569Y-49192741D01*
X67818049Y-49192380D01*
X67816764Y-49192331D01*
X67814340Y-49192474D01*
X54826994Y-49192474D01*
X54823211Y-49192201D01*
X54819361Y-49192395D01*
X54817858Y-49192433D01*
X54816251Y-49192785D01*
X54816048Y-49192823D01*
X54814115Y-49193442D01*
X54596531Y-49248537D01*
X54588439Y-49249426D01*
X54582723Y-49251617D01*
X54580673Y-49252275D01*
X54579394Y-49252832D01*
X54578559Y-49253395D01*
X54576859Y-49254816D01*
X54571870Y-49258575D01*
X54566896Y-49264808D01*
X54401397Y-49422525D01*
X54394616Y-49427546D01*
X54392490Y-49430240D01*
X54391177Y-49431699D01*
X54389954Y-49433440D01*
X54388829Y-49435696D01*
X54388193Y-49437466D01*
X54387056Y-49440051D01*
X54385799Y-49448294D01*
X54318503Y-49689334D01*
X54317711Y-49691643D01*
X54317416Y-49692890D01*
X54317364Y-49694293D01*
X54317507Y-49696692D01*
X54317507Y-62684124D01*
X54317226Y-62688066D01*
X51793121Y-62688066D01*
X51793121Y-47496344D01*
X51795501Y-47400279D01*
X51795954Y-47394180D01*
X51803959Y-47329643D01*
X51830772Y-47113509D01*
X51834337Y-47095649D01*
X51907778Y-46830928D01*
X51913885Y-46813871D01*
X52024988Y-46563130D01*
X52033532Y-46547125D01*
X52180580Y-46314510D01*
X52191449Y-46299837D01*
X52377282Y-46084211D01*
X52380386Y-46080868D01*
X54793325Y-43667929D01*
X61655885Y-43667929D01*
X61655887Y-43667948D01*
X61667353Y-43799016D01*
X61674955Y-43885902D01*
X61674955Y-43885906D01*
X61731584Y-44097249D01*
X61731586Y-44097253D01*
X61731587Y-44097257D01*
X61766407Y-44171929D01*
X61824059Y-44295565D01*
X61824073Y-44295585D01*
X61949564Y-44474804D01*
X62104285Y-44629525D01*
X62283523Y-44755029D01*
X62481832Y-44847502D01*
X62481837Y-44847503D01*
X62481841Y-44847505D01*
X62506911Y-44854222D01*
X62516937Y-44856908D01*
X62520044Y-44857829D01*
X62524106Y-44859148D01*
X62524110Y-44859150D01*
X62532139Y-44860981D01*
X62693185Y-44904134D01*
X62734369Y-44907737D01*
X62742756Y-44909055D01*
X62779829Y-44917518D01*
X62811997Y-44914528D01*
X62911162Y-44923204D01*
X62956453Y-44919241D01*
X62964623Y-44919069D01*
X62967356Y-44919192D01*
X62967358Y-44919191D01*
X62972911Y-44919442D01*
X62972925Y-44919441D01*
X63002810Y-44920783D01*
X63032641Y-44912576D01*
X63129139Y-44904134D01*
X63177077Y-44891288D01*
X63184805Y-44889737D01*
X63186518Y-44889504D01*
X63189875Y-44889050D01*
X63189877Y-44889049D01*
X63191981Y-44888764D01*
X63192002Y-44888761D01*
X63222771Y-44884593D01*
X63249444Y-44871898D01*
X63305396Y-44856906D01*
X63340482Y-44847505D01*
X63340485Y-44847503D01*
X63340492Y-44847502D01*
X63389344Y-44824721D01*
X63396355Y-44821959D01*
X63403436Y-44819659D01*
X63403439Y-44819657D01*
X63405414Y-44819016D01*
X63405425Y-44819012D01*
X63432815Y-44810112D01*
X63455679Y-44793789D01*
X63538801Y-44755029D01*
X63586491Y-44721635D01*
X63592657Y-44717836D01*
X63593948Y-44717140D01*
X63601175Y-44713252D01*
X63601180Y-44713247D01*
X63606075Y-44710615D01*
X63606081Y-44710611D01*
X63626314Y-44699723D01*
X63644935Y-44680712D01*
X63718039Y-44629525D01*
X63762344Y-44585219D01*
X63767498Y-44580612D01*
X63776736Y-44573246D01*
X63776740Y-44573240D01*
X63780630Y-44570139D01*
X63782028Y-44569567D01*
X63785461Y-44566286D01*
X63797201Y-44556923D01*
X63811342Y-44536221D01*
X63872760Y-44474804D01*
X63911308Y-44419751D01*
X63915368Y-44414568D01*
X63923618Y-44405125D01*
X63926184Y-44403491D01*
X63931816Y-44395740D01*
X63940107Y-44386249D01*
X63949758Y-44364839D01*
X63998264Y-44295566D01*
X64028624Y-44230458D01*
X64031578Y-44224887D01*
X64035927Y-44217607D01*
X64035939Y-44217586D01*
X64039238Y-44214533D01*
X64045367Y-44201808D01*
X64050557Y-44193121D01*
X64055914Y-44171933D01*
X64090737Y-44097257D01*
X64091267Y-44095281D01*
X64092343Y-44091260D01*
X64110570Y-44023237D01*
X64112401Y-44017531D01*
X64114041Y-44013160D01*
X64117564Y-44008474D01*
X64122470Y-43990699D01*
X64125123Y-43983629D01*
X64126574Y-43963510D01*
X64147364Y-43885924D01*
X64147369Y-43885904D01*
X64154478Y-43804635D01*
X64155235Y-43798997D01*
X64158646Y-43780203D01*
X64158646Y-43780201D01*
X64161013Y-43767159D01*
X64159229Y-43754161D01*
X64159300Y-43750974D01*
X64159514Y-43747076D01*
X64166439Y-43667927D01*
X64159518Y-43588827D01*
X64159302Y-43584890D01*
X64159275Y-43583754D01*
X64159232Y-43581811D01*
X64161716Y-43572568D01*
X64158646Y-43555651D01*
X64155236Y-43536862D01*
X64154478Y-43531215D01*
X64147369Y-43449950D01*
X64126573Y-43372338D01*
X64126937Y-43357050D01*
X64122470Y-43345149D01*
X64118506Y-43330788D01*
X64114041Y-43322691D01*
X64112406Y-43318336D01*
X64110567Y-43312604D01*
X64090737Y-43238597D01*
X64055914Y-43163921D01*
X64053425Y-43147532D01*
X64045366Y-43134044D01*
X64040430Y-43123796D01*
X64035945Y-43118275D01*
X64031580Y-43110970D01*
X64028617Y-43105382D01*
X63998273Y-43040308D01*
X63998266Y-43040293D01*
X63998263Y-43040288D01*
X63949759Y-42971016D01*
X63944065Y-42954132D01*
X63931817Y-42940113D01*
X63927294Y-42933888D01*
X63923615Y-42930724D01*
X63915385Y-42921304D01*
X63911286Y-42916070D01*
X63872761Y-42861051D01*
X63872758Y-42861048D01*
X63811342Y-42799632D01*
X63802223Y-42782932D01*
X63785461Y-42769565D01*
X63782719Y-42766944D01*
X63780630Y-42765713D01*
X63767515Y-42755254D01*
X63762328Y-42750618D01*
X63718040Y-42706330D01*
X63718031Y-42706323D01*
X63644934Y-42655139D01*
X63632324Y-42639363D01*
X63592667Y-42618023D01*
X63586480Y-42614210D01*
X63538805Y-42580827D01*
X63455680Y-42542065D01*
X63439670Y-42527967D01*
X63396378Y-42513901D01*
X63389329Y-42511124D01*
X63340494Y-42488353D01*
X63340492Y-42488352D01*
X63324855Y-42484162D01*
X63249435Y-42463952D01*
X63230281Y-42452276D01*
X63184802Y-42446115D01*
X63177071Y-42444563D01*
X63129147Y-42431721D01*
X63129133Y-42431719D01*
X63032634Y-42423277D01*
X63010737Y-42414711D01*
X62964625Y-42416783D01*
X62956433Y-42416609D01*
X62911168Y-42412650D01*
X62911159Y-42412650D01*
X62811982Y-42421326D01*
X62787911Y-42416488D01*
X62742755Y-42426797D01*
X62734353Y-42428117D01*
X62693182Y-42431720D01*
X62594341Y-42458204D01*
X62568785Y-42457595D01*
X62530192Y-42474096D01*
X62513543Y-42479854D01*
X62481829Y-42488352D01*
X62283523Y-42580825D01*
X62283519Y-42580827D01*
X62104283Y-42706329D01*
X61949564Y-42861048D01*
X61824062Y-43040284D01*
X61824060Y-43040288D01*
X61731588Y-43238595D01*
X61731584Y-43238604D01*
X61674955Y-43449947D01*
X61674955Y-43449951D01*
X61655885Y-43667924D01*
X61655885Y-43667929D01*
X54793325Y-43667929D01*
X57207190Y-41254065D01*
X57276815Y-41187807D01*
X57281427Y-41183831D01*
X57504519Y-41009981D01*
X57519673Y-40999870D01*
X57758791Y-40864613D01*
X57775175Y-40856870D01*
X58031030Y-40758133D01*
X58048400Y-40752855D01*
X58316846Y-40692353D01*
X58334918Y-40689661D01*
X58618772Y-40668596D01*
X58623361Y-40668427D01*
X67364207Y-40668427D01*
X67460265Y-40670806D01*
G37*
%TD.AperFunction*%
M02*
