M48
; DRILL file {KiCad 7.0.6} date Mon Sep 25 18:20:03 2023
; FORMAT={-:-/ absolute / metric / decimal}
; #@! TF.CreationDate,2023-09-25T18:20:03-04:00
; #@! TF.GenerationSoftware,Kicad,Pcbnew,7.0.6
; #@! TF.FileFunction,Plated,1,2,PTH
FMAT,2
METRIC
; #@! TA.AperFunction,Plated,PTH,ViaDrill
T1C0.400
; #@! TA.AperFunction,Plated,PTH,ComponentDrill
T2C0.400
; #@! TA.AperFunction,Plated,PTH,ComponentDrill
T3C1.000
%
G90
G05
T1
X2.381Y73.819
X2.381Y16.669
X4.821Y54.769
X7.202Y35.719
X10.716Y27.98
X15.478Y48.221
X17.264Y42.267
X17.859Y60.722
X17.859Y14.288
X18.455Y50.602
X20.241Y14.288
X20.241Y5.953
X20.836Y47.03
X20.836Y42.267
X21.431Y73.819
X21.431Y52.388
X21.431Y16.669
X22.027Y37.505
X22.622Y48.816
X22.622Y36.314
X24.408Y32.742
X25.003Y60.722
X25.598Y32.742
X26.194Y54.769
X26.194Y48.816
X26.789Y34.528
X29.17Y29.171
X29.17Y27.385
X30.361Y52.388
X31.015Y35.719
X31.552Y45.839
X31.552Y41.863
X32.742Y39.886
X33.933Y47.166
X35.123Y47.166
X35.123Y8.335
X35.719Y41.863
X35.719Y38.696
X36.909Y27.98
X37.505Y41.863
X38.1Y36.91
X39.886Y48.221
X40.481Y73.819
X40.481Y16.669
X44.648Y24.408
X45.244Y54.769
X45.839Y24.408
X46.434Y64.889
X48.816Y60.722
X50.065Y35.719
X55.959Y27.98
X59.531Y73.819
X64.294Y54.769
X69.115Y35.719
X73.819Y11.906
X75.009Y27.98
X78.581Y73.819
X83.344Y54.769
X88.165Y35.719
X92.869Y11.906
X94.059Y27.98
X97.631Y73.819
X102.394Y54.769
X107.156Y35.719
X111.919Y11.906
X113.109Y27.98
X116.681Y73.819
X121.444Y54.769
X126.206Y35.719
X132.159Y27.98
X135.731Y73.819
X140.494Y54.769
X145.256Y16.669
X145.315Y35.719
X151.209Y27.98
X154.781Y73.819
X159.544Y54.769
X164.306Y16.669
X165.497Y27.98
X176.213Y35.719
X178.594Y73.819
X180.975Y64.294
X180.975Y54.769
X183.356Y16.669
X184.547Y27.98
T2
X25.003Y44.138
X25.003Y42.863
X25.003Y41.588
X26.278Y44.138
X26.278Y42.863
X26.278Y41.588
X27.553Y44.138
X27.553Y42.863
X27.553Y41.588
T3
X2.381Y38.418
X2.381Y35.878
X2.381Y33.338
X2.381Y30.798
X2.381Y28.258
T0
M30
