%TF.GenerationSoftware,KiCad,Pcbnew,7.0.6*%
%TF.CreationDate,2023-09-25T18:19:59-04:00*%
%TF.ProjectId,cutiepie2040-dual-stagger-hotswap-pcb,63757469-6570-4696-9532-3034302d6475,rev?*%
%TF.SameCoordinates,PX2d6b3a0PY6f46b48*%
%TF.FileFunction,Other,User*%
%FSLAX46Y46*%
G04 Gerber Fmt 4.6, Leading zero omitted, Abs format (unit mm)*
G04 Created by KiCad (PCBNEW 7.0.6) date 2023-09-25 18:19:59*
%MOMM*%
%LPD*%
G01*
G04 APERTURE LIST*
%ADD10C,0.127000*%
%ADD11C,0.150000*%
%ADD12C,0.050000*%
G04 APERTURE END LIST*
D10*
%TO.C,MX49*%
X181618828Y66412748D02*
X181618828Y62512748D01*
X181618828Y62512748D02*
X185718828Y62512748D01*
X187718828Y64512748D02*
X193418828Y64512748D01*
X193418828Y68912748D02*
X184118828Y68912748D01*
X193418828Y68912748D02*
X193418828Y64512748D01*
X184118828Y68912748D02*
G75*
G03*
X181618828Y66412748I0J-2500000D01*
G01*
X187718828Y64512748D02*
G75*
G03*
X185718828Y62512748I-1J-1999999D01*
G01*
D11*
%TO.C,MX35*%
X183451380Y73977794D02*
G75*
G03*
X183451380Y73977794I-1524000J0D01*
G01*
X189801380Y76517794D02*
G75*
G03*
X189801380Y76517794I-1524000J0D01*
G01*
D10*
X181737380Y78437794D02*
G75*
G03*
X179237380Y75937794I0J-2500000D01*
G01*
X185337380Y74037794D02*
G75*
G03*
X183337380Y72037794I-1J-1999999D01*
G01*
D11*
X177355380Y75247794D02*
X179895380Y75247794D01*
X177355380Y72707794D02*
X177355380Y75247794D01*
D10*
X179237380Y75937794D02*
X179237380Y72037794D01*
X179237380Y72037794D02*
X183337380Y72037794D01*
D11*
X179895380Y75247794D02*
X179895380Y72707794D01*
X179895380Y72707794D02*
X177355380Y72707794D01*
D10*
X185337380Y74037794D02*
X191037380Y74037794D01*
D11*
X190309380Y77787794D02*
X192849380Y77787794D01*
X190309380Y75247794D02*
X190309380Y77787794D01*
D10*
X191037380Y78437794D02*
X181737380Y78437794D01*
X191037380Y78437794D02*
X191037380Y74037794D01*
D11*
X192849380Y77787794D02*
X192849380Y75247794D01*
X192849380Y75247794D02*
X190309380Y75247794D01*
D12*
%TO.C,C_1V-Decoup2*%
X26924318Y49691801D02*
X27844318Y49691801D01*
X27844318Y49691801D02*
X27844318Y51511801D01*
X26924318Y51511801D02*
X26924318Y49691801D01*
X27844318Y51511801D02*
X26924318Y51511801D01*
D11*
%TO.C,MX4*%
X16636880Y18097794D02*
X14096880Y18097794D01*
X16636880Y20637794D02*
X16636880Y18097794D01*
D10*
X14824880Y21287794D02*
X14824880Y16887794D01*
X14824880Y21287794D02*
X5524880Y21287794D01*
D11*
X14096880Y18097794D02*
X14096880Y20637794D01*
X14096880Y20637794D02*
X16636880Y20637794D01*
D10*
X9124880Y16887794D02*
X14824880Y16887794D01*
D11*
X3682880Y15557794D02*
X3682880Y18097794D01*
X3682880Y18097794D02*
X1142880Y18097794D01*
D10*
X3024880Y14887794D02*
X7124880Y14887794D01*
X3024880Y18787794D02*
X3024880Y14887794D01*
D11*
X1142880Y15557794D02*
X3682880Y15557794D01*
X1142880Y18097794D02*
X1142880Y15557794D01*
D10*
X9124880Y16887794D02*
G75*
G03*
X7124880Y14887794I-1J-1999999D01*
G01*
X5524880Y21287794D02*
G75*
G03*
X3024880Y18787794I0J-2500000D01*
G01*
D11*
X13588880Y19367794D02*
G75*
G03*
X13588880Y19367794I-1524000J0D01*
G01*
X7238880Y16827794D02*
G75*
G03*
X7238880Y16827794I-1524000J0D01*
G01*
%TO.C,MX1*%
X16636880Y75247794D02*
X14096880Y75247794D01*
X16636880Y77787794D02*
X16636880Y75247794D01*
D10*
X14824880Y78437794D02*
X14824880Y74037794D01*
X14824880Y78437794D02*
X5524880Y78437794D01*
D11*
X14096880Y75247794D02*
X14096880Y77787794D01*
X14096880Y77787794D02*
X16636880Y77787794D01*
D10*
X9124880Y74037794D02*
X14824880Y74037794D01*
D11*
X3682880Y72707794D02*
X3682880Y75247794D01*
X3682880Y75247794D02*
X1142880Y75247794D01*
D10*
X3024880Y72037794D02*
X7124880Y72037794D01*
X3024880Y75937794D02*
X3024880Y72037794D01*
D11*
X1142880Y72707794D02*
X3682880Y72707794D01*
X1142880Y75247794D02*
X1142880Y72707794D01*
D10*
X9124880Y74037794D02*
G75*
G03*
X7124880Y72037794I-1J-1999999D01*
G01*
X5524880Y78437794D02*
G75*
G03*
X3024880Y75937794I0J-2500000D01*
G01*
D11*
X13588880Y76517794D02*
G75*
G03*
X13588880Y76517794I-1524000J0D01*
G01*
X7238880Y73977794D02*
G75*
G03*
X7238880Y73977794I-1524000J0D01*
G01*
D12*
%TO.C,D6*%
X38059326Y46465862D02*
X35759326Y46465862D01*
X38059326Y46465862D02*
X38059326Y51165862D01*
X35759326Y51165862D02*
X35759326Y46465862D01*
X38059326Y51165862D02*
X35759326Y51165862D01*
%TO.C,D14*%
X76159358Y46465862D02*
X73859358Y46465862D01*
X76159358Y46465862D02*
X76159358Y51165862D01*
X73859358Y51165862D02*
X73859358Y46465862D01*
X76159358Y51165862D02*
X73859358Y51165862D01*
%TO.C,C_Crystal1*%
X30168025Y28671770D02*
X30818563Y28021232D01*
X30818563Y28021232D02*
X32105497Y29308166D01*
X31454959Y29958704D02*
X30168025Y28671770D01*
X32105497Y29308166D02*
X31454959Y29958704D01*
%TO.C,SW2*%
X13774928Y4739265D02*
X13774928Y10739265D01*
X13774928Y10739265D02*
X5274928Y10739265D01*
X5274928Y4739265D02*
X13774928Y4739265D01*
X5274928Y10739265D02*
X5274928Y4739265D01*
D11*
%TO.C,MX22*%
X121411880Y37147794D02*
X118871880Y37147794D01*
X121411880Y39687794D02*
X121411880Y37147794D01*
D10*
X119599880Y40337794D02*
X119599880Y35937794D01*
X119599880Y40337794D02*
X110299880Y40337794D01*
D11*
X118871880Y37147794D02*
X118871880Y39687794D01*
X118871880Y39687794D02*
X121411880Y39687794D01*
D10*
X113899880Y35937794D02*
X119599880Y35937794D01*
D11*
X108457880Y34607794D02*
X108457880Y37147794D01*
X108457880Y37147794D02*
X105917880Y37147794D01*
D10*
X107799880Y33937794D02*
X111899880Y33937794D01*
X107799880Y37837794D02*
X107799880Y33937794D01*
D11*
X105917880Y34607794D02*
X108457880Y34607794D01*
X105917880Y37147794D02*
X105917880Y34607794D01*
D10*
X113899880Y35937794D02*
G75*
G03*
X111899880Y33937794I-1J-1999999D01*
G01*
X110299880Y40337794D02*
G75*
G03*
X107799880Y37837794I0J-2500000D01*
G01*
D11*
X118363880Y38417794D02*
G75*
G03*
X118363880Y38417794I-1524000J0D01*
G01*
X112013880Y35877794D02*
G75*
G03*
X112013880Y35877794I-1524000J0D01*
G01*
D12*
%TO.C,D37*%
X198793836Y22058029D02*
X196493836Y22058029D01*
X198793836Y22058029D02*
X198793836Y26758029D01*
X196493836Y26758029D02*
X196493836Y22058029D01*
X198793836Y26758029D02*
X196493836Y26758029D01*
%TO.C,R_Crystal1*%
X26989682Y31821829D02*
X27654362Y31157149D01*
X27654362Y31157149D02*
X28969580Y32472367D01*
X28304900Y33137047D02*
X26989682Y31821829D01*
X28969580Y32472367D02*
X28304900Y33137047D01*
D11*
%TO.C,MX17*%
X97599380Y56197794D02*
X95059380Y56197794D01*
X97599380Y58737794D02*
X97599380Y56197794D01*
D10*
X95787380Y59387794D02*
X95787380Y54987794D01*
X95787380Y59387794D02*
X86487380Y59387794D01*
D11*
X95059380Y56197794D02*
X95059380Y58737794D01*
X95059380Y58737794D02*
X97599380Y58737794D01*
D10*
X90087380Y54987794D02*
X95787380Y54987794D01*
D11*
X84645380Y53657794D02*
X84645380Y56197794D01*
X84645380Y56197794D02*
X82105380Y56197794D01*
D10*
X83987380Y52987794D02*
X88087380Y52987794D01*
X83987380Y56887794D02*
X83987380Y52987794D01*
D11*
X82105380Y53657794D02*
X84645380Y53657794D01*
X82105380Y56197794D02*
X82105380Y53657794D01*
D10*
X90087380Y54987794D02*
G75*
G03*
X88087380Y52987794I-1J-1999999D01*
G01*
X86487380Y59387794D02*
G75*
G03*
X83987380Y56887794I0J-2500000D01*
G01*
D11*
X94551380Y57467794D02*
G75*
G03*
X94551380Y57467794I-1524000J0D01*
G01*
X88201380Y54927794D02*
G75*
G03*
X88201380Y54927794I-1524000J0D01*
G01*
%TO.C,MX43*%
X73850434Y29527674D02*
X76390434Y29527674D01*
X73850434Y26987674D02*
X73850434Y29527674D01*
D10*
X75662434Y26337674D02*
X75662434Y30737674D01*
X75662434Y26337674D02*
X84962434Y26337674D01*
D11*
X76390434Y29527674D02*
X76390434Y26987674D01*
X76390434Y26987674D02*
X73850434Y26987674D01*
D10*
X81362434Y30737674D02*
X75662434Y30737674D01*
D11*
X86804434Y32067674D02*
X86804434Y29527674D01*
X86804434Y29527674D02*
X89344434Y29527674D01*
D10*
X87462434Y32737674D02*
X83362434Y32737674D01*
X87462434Y28837674D02*
X87462434Y32737674D01*
D11*
X89344434Y32067674D02*
X86804434Y32067674D01*
X89344434Y29527674D02*
X89344434Y32067674D01*
D10*
X81362434Y30737674D02*
G75*
G03*
X83362434Y32737674I1J1999999D01*
G01*
X84962434Y26337674D02*
G75*
G03*
X87462434Y28837674I0J2500000D01*
G01*
D11*
X79946434Y28257674D02*
G75*
G03*
X79946434Y28257674I-1524000J0D01*
G01*
X86296434Y30797674D02*
G75*
G03*
X86296434Y30797674I-1524000J0D01*
G01*
%TO.C,MX2*%
X19018130Y56197794D02*
X16478130Y56197794D01*
X19018130Y58737794D02*
X19018130Y56197794D01*
D10*
X17206130Y59387794D02*
X17206130Y54987794D01*
X17206130Y59387794D02*
X7906130Y59387794D01*
D11*
X16478130Y56197794D02*
X16478130Y58737794D01*
X16478130Y58737794D02*
X19018130Y58737794D01*
D10*
X11506130Y54987794D02*
X17206130Y54987794D01*
D11*
X6064130Y53657794D02*
X3524130Y53657794D01*
X6064130Y56197794D02*
X6064130Y53657794D01*
D10*
X5406130Y52987794D02*
X9506130Y52987794D01*
X5406130Y56887794D02*
X5406130Y52987794D01*
D11*
X3524130Y53657794D02*
X3524130Y56197794D01*
X3524130Y56197794D02*
X6064130Y56197794D01*
D10*
X11506130Y54987794D02*
G75*
G03*
X9506130Y52987794I-1J-1999999D01*
G01*
X7906130Y59387794D02*
G75*
G03*
X5406130Y56887794I0J-2500000D01*
G01*
D11*
X15970130Y57467794D02*
G75*
G03*
X15970130Y57467794I-1524000J0D01*
G01*
X9620130Y54927794D02*
G75*
G03*
X9620130Y54927794I-1524000J0D01*
G01*
%TO.C,MX11*%
X64261880Y37147794D02*
X61721880Y37147794D01*
X64261880Y39687794D02*
X64261880Y37147794D01*
D10*
X62449880Y40337794D02*
X62449880Y35937794D01*
X62449880Y40337794D02*
X53149880Y40337794D01*
D11*
X61721880Y37147794D02*
X61721880Y39687794D01*
X61721880Y39687794D02*
X64261880Y39687794D01*
D10*
X56749880Y35937794D02*
X62449880Y35937794D01*
D11*
X51307880Y34607794D02*
X51307880Y37147794D01*
X51307880Y37147794D02*
X48767880Y37147794D01*
D10*
X50649880Y33937794D02*
X54749880Y33937794D01*
X50649880Y37837794D02*
X50649880Y33937794D01*
D11*
X48767880Y34607794D02*
X51307880Y34607794D01*
X48767880Y37147794D02*
X48767880Y34607794D01*
D10*
X56749880Y35937794D02*
G75*
G03*
X54749880Y33937794I-1J-1999999D01*
G01*
X53149880Y40337794D02*
G75*
G03*
X50649880Y37837794I0J-2500000D01*
G01*
D11*
X61213880Y38417794D02*
G75*
G03*
X61213880Y38417794I-1524000J0D01*
G01*
X54863880Y35877794D02*
G75*
G03*
X54863880Y35877794I-1524000J0D01*
G01*
D12*
%TO.C,R_Flash2*%
X16929310Y13567082D02*
X16929310Y12627082D01*
X16929310Y12627082D02*
X18789310Y12627082D01*
X18789310Y13567082D02*
X16929310Y13567082D01*
X18789310Y12627082D02*
X18789310Y13567082D01*
D11*
%TO.C,MX10*%
X59499380Y56197794D02*
X56959380Y56197794D01*
X59499380Y58737794D02*
X59499380Y56197794D01*
D10*
X57687380Y59387794D02*
X57687380Y54987794D01*
X57687380Y59387794D02*
X48387380Y59387794D01*
D11*
X56959380Y56197794D02*
X56959380Y58737794D01*
X56959380Y58737794D02*
X59499380Y58737794D01*
D10*
X51987380Y54987794D02*
X57687380Y54987794D01*
D11*
X46545380Y53657794D02*
X46545380Y56197794D01*
X46545380Y56197794D02*
X44005380Y56197794D01*
D10*
X45887380Y52987794D02*
X49987380Y52987794D01*
X45887380Y56887794D02*
X45887380Y52987794D01*
D11*
X44005380Y53657794D02*
X46545380Y53657794D01*
X44005380Y56197794D02*
X44005380Y53657794D01*
D10*
X51987380Y54987794D02*
G75*
G03*
X49987380Y52987794I-1J-1999999D01*
G01*
X48387380Y59387794D02*
G75*
G03*
X45887380Y56887794I0J-2500000D01*
G01*
D11*
X56451380Y57467794D02*
G75*
G03*
X56451380Y57467794I-1524000J0D01*
G01*
X50101380Y54927794D02*
G75*
G03*
X50101380Y54927794I-1524000J0D01*
G01*
%TO.C,MX18*%
X102361880Y37147794D02*
X99821880Y37147794D01*
X102361880Y39687794D02*
X102361880Y37147794D01*
D10*
X100549880Y40337794D02*
X100549880Y35937794D01*
X100549880Y40337794D02*
X91249880Y40337794D01*
D11*
X99821880Y37147794D02*
X99821880Y39687794D01*
X99821880Y39687794D02*
X102361880Y39687794D01*
D10*
X94849880Y35937794D02*
X100549880Y35937794D01*
D11*
X89407880Y34607794D02*
X89407880Y37147794D01*
X89407880Y37147794D02*
X86867880Y37147794D01*
D10*
X88749880Y33937794D02*
X92849880Y33937794D01*
X88749880Y37837794D02*
X88749880Y33937794D01*
D11*
X86867880Y34607794D02*
X89407880Y34607794D01*
X86867880Y37147794D02*
X86867880Y34607794D01*
D10*
X94849880Y35937794D02*
G75*
G03*
X92849880Y33937794I-1J-1999999D01*
G01*
X91249880Y40337794D02*
G75*
G03*
X88749880Y37837794I0J-2500000D01*
G01*
D11*
X99313880Y38417794D02*
G75*
G03*
X99313880Y38417794I-1524000J0D01*
G01*
X92963880Y35877794D02*
G75*
G03*
X92963880Y35877794I-1524000J0D01*
G01*
D12*
%TO.C,D17*%
X95209374Y46465862D02*
X92909374Y46465862D01*
X95209374Y46465862D02*
X95209374Y51165862D01*
X92909374Y51165862D02*
X92909374Y46465862D01*
X95209374Y51165862D02*
X92909374Y51165862D01*
D11*
%TO.C,MX30*%
X159511880Y18097794D02*
X156971880Y18097794D01*
X159511880Y20637794D02*
X159511880Y18097794D01*
D10*
X157699880Y21287794D02*
X157699880Y16887794D01*
X157699880Y21287794D02*
X148399880Y21287794D01*
D11*
X156971880Y18097794D02*
X156971880Y20637794D01*
X156971880Y20637794D02*
X159511880Y20637794D01*
D10*
X151999880Y16887794D02*
X157699880Y16887794D01*
D11*
X146557880Y15557794D02*
X146557880Y18097794D01*
X146557880Y18097794D02*
X144017880Y18097794D01*
D10*
X145899880Y14887794D02*
X149999880Y14887794D01*
X145899880Y18787794D02*
X145899880Y14887794D01*
D11*
X144017880Y15557794D02*
X146557880Y15557794D01*
X144017880Y18097794D02*
X144017880Y15557794D01*
D10*
X151999880Y16887794D02*
G75*
G03*
X149999880Y14887794I-1J-1999999D01*
G01*
X148399880Y21287794D02*
G75*
G03*
X145899880Y18787794I0J-2500000D01*
G01*
D11*
X156463880Y19367794D02*
G75*
G03*
X156463880Y19367794I-1524000J0D01*
G01*
X150113880Y16827794D02*
G75*
G03*
X150113880Y16827794I-1524000J0D01*
G01*
D12*
%TO.C,R_Flash1*%
X21170562Y12627082D02*
X21170562Y13567082D01*
X21170562Y13567082D02*
X19310562Y13567082D01*
X19310562Y12627082D02*
X21170562Y12627082D01*
X19310562Y13567082D02*
X19310562Y12627082D01*
%TO.C,SW1*%
X24324944Y10739265D02*
X24324944Y4739265D01*
X24324944Y4739265D02*
X32824944Y4739265D01*
X32824944Y10739265D02*
X24324944Y10739265D01*
X32824944Y4739265D02*
X32824944Y10739265D01*
%TO.C,R_Flash3*%
X19310561Y12376456D02*
X19310561Y11436456D01*
X19310561Y11436456D02*
X21170561Y11436456D01*
X21170561Y12376456D02*
X19310561Y12376456D01*
X21170561Y11436456D02*
X21170561Y12376456D01*
%TO.C,D8*%
X36273387Y5984578D02*
X33973387Y5984578D01*
X36273387Y5984578D02*
X36273387Y10684578D01*
X33973387Y10684578D02*
X33973387Y5984578D01*
X36273387Y10684578D02*
X33973387Y10684578D01*
%TO.C,D20*%
X108901840Y66111191D02*
X106601840Y66111191D01*
X108901840Y66111191D02*
X108901840Y70811191D01*
X106601840Y70811191D02*
X106601840Y66111191D01*
X108901840Y70811191D02*
X106601840Y70811191D01*
%TO.C,D15*%
X89256244Y22058029D02*
X86956244Y22058029D01*
X89256244Y22058029D02*
X89256244Y26758029D01*
X86956244Y26758029D02*
X86956244Y22058029D01*
X89256244Y26758029D02*
X86956244Y26758029D01*
%TO.C,D31*%
X166051621Y66111191D02*
X163751621Y66111191D01*
X166051621Y66111191D02*
X166051621Y70811191D01*
X163751621Y70811191D02*
X163751621Y66111191D01*
X166051621Y70811191D02*
X163751621Y70811191D01*
%TO.C,C_3V-Decoup2*%
X20971304Y49691690D02*
X21891304Y49691690D01*
X21891304Y49691690D02*
X21891304Y51511690D01*
X20971304Y51511690D02*
X20971304Y49691690D01*
X21891304Y51511690D02*
X20971304Y51511690D01*
D11*
%TO.C,MX23*%
X126174380Y13335024D02*
X123634380Y13335024D01*
X126174380Y15875024D02*
X126174380Y13335024D01*
D10*
X124362380Y16525024D02*
X124362380Y12125024D01*
X124362380Y16525024D02*
X115062380Y16525024D01*
D11*
X123634380Y13335024D02*
X123634380Y15875024D01*
X123634380Y15875024D02*
X126174380Y15875024D01*
D10*
X118662380Y12125024D02*
X124362380Y12125024D01*
D11*
X113220380Y10795024D02*
X110680380Y10795024D01*
X113220380Y13335024D02*
X113220380Y10795024D01*
D10*
X112562380Y10125024D02*
X116662380Y10125024D01*
X112562380Y14025024D02*
X112562380Y10125024D01*
D11*
X110680380Y10795024D02*
X110680380Y13335024D01*
X110680380Y13335024D02*
X113220380Y13335024D01*
D10*
X118662380Y12125024D02*
G75*
G03*
X116662380Y10125024I-1J-1999999D01*
G01*
X115062380Y16525024D02*
G75*
G03*
X112562380Y14025024I0J-2500000D01*
G01*
D11*
X123126380Y14605024D02*
G75*
G03*
X123126380Y14605024I-1524000J0D01*
G01*
X116776380Y12065024D02*
G75*
G03*
X116776380Y12065024I-1524000J0D01*
G01*
D12*
%TO.C,D13*%
X70801744Y66111191D02*
X68501744Y66111191D01*
X70801744Y66111191D02*
X70801744Y70811191D01*
X68501744Y70811191D02*
X68501744Y66111191D01*
X70801744Y70811191D02*
X68501744Y70811191D01*
D11*
%TO.C,MX46*%
X131000434Y29527724D02*
X133540434Y29527724D01*
X131000434Y26987724D02*
X131000434Y29527724D01*
D10*
X132812434Y26337724D02*
X132812434Y30737724D01*
X132812434Y26337724D02*
X142112434Y26337724D01*
D11*
X133540434Y29527724D02*
X133540434Y26987724D01*
X133540434Y26987724D02*
X131000434Y26987724D01*
D10*
X138512434Y30737724D02*
X132812434Y30737724D01*
D11*
X143954434Y32067724D02*
X143954434Y29527724D01*
X143954434Y29527724D02*
X146494434Y29527724D01*
D10*
X144612434Y32737724D02*
X140512434Y32737724D01*
X144612434Y28837724D02*
X144612434Y32737724D01*
D11*
X146494434Y32067724D02*
X143954434Y32067724D01*
X146494434Y29527724D02*
X146494434Y32067724D01*
D10*
X138512434Y30737724D02*
G75*
G03*
X140512434Y32737724I1J1999999D01*
G01*
X142112434Y26337724D02*
G75*
G03*
X144612434Y28837724I0J2500000D01*
G01*
D11*
X137096434Y28257724D02*
G75*
G03*
X137096434Y28257724I-1524000J0D01*
G01*
X143446434Y30797724D02*
G75*
G03*
X143446434Y30797724I-1524000J0D01*
G01*
D12*
%TO.C,D23*%
X127951589Y5984578D02*
X125651589Y5984578D01*
X127951589Y5984578D02*
X127951589Y10684578D01*
X125651589Y10684578D02*
X125651589Y5984578D01*
X127951589Y10684578D02*
X125651589Y10684578D01*
D11*
%TO.C,MX48*%
X190468184Y37147514D02*
X187928184Y37147514D01*
X190468184Y39687514D02*
X190468184Y37147514D01*
D10*
X188656184Y40337514D02*
X188656184Y35937514D01*
X188656184Y40337514D02*
X179356184Y40337514D01*
D11*
X187928184Y37147514D02*
X187928184Y39687514D01*
X187928184Y39687514D02*
X190468184Y39687514D01*
D10*
X182956184Y35937514D02*
X188656184Y35937514D01*
D11*
X177514184Y34607514D02*
X174974184Y34607514D01*
X177514184Y37147514D02*
X177514184Y34607514D01*
D10*
X176856184Y33937514D02*
X180956184Y33937514D01*
X176856184Y37837514D02*
X176856184Y33937514D01*
D11*
X174974184Y34607514D02*
X174974184Y37147514D01*
X174974184Y37147514D02*
X177514184Y37147514D01*
D10*
X182956184Y35937514D02*
G75*
G03*
X180956184Y33937514I-1J-1999999D01*
G01*
X179356184Y40337514D02*
G75*
G03*
X176856184Y37837514I0J-2500000D01*
G01*
D11*
X187420184Y38417514D02*
G75*
G03*
X187420184Y38417514I-1524000J0D01*
G01*
X181070184Y35877514D02*
G75*
G03*
X181070184Y35877514I-1524000J0D01*
G01*
%TO.C,MX33*%
X164337880Y29527794D02*
X166877880Y29527794D01*
X164337880Y26987794D02*
X164337880Y29527794D01*
D10*
X166149880Y26337794D02*
X166149880Y30737794D01*
X166149880Y26337794D02*
X175449880Y26337794D01*
D11*
X166877880Y29527794D02*
X166877880Y26987794D01*
X166877880Y26987794D02*
X164337880Y26987794D01*
D10*
X171849880Y30737794D02*
X166149880Y30737794D01*
D11*
X177291880Y32067794D02*
X177291880Y29527794D01*
X177291880Y29527794D02*
X179831880Y29527794D01*
D10*
X177949880Y32737794D02*
X173849880Y32737794D01*
X177949880Y28837794D02*
X177949880Y32737794D01*
D11*
X179831880Y32067794D02*
X177291880Y32067794D01*
X179831880Y29527794D02*
X179831880Y32067794D01*
D10*
X171849880Y30737794D02*
G75*
G03*
X173849880Y32737794I1J1999999D01*
G01*
X175449880Y26337794D02*
G75*
G03*
X177949880Y28837794I0J2500000D01*
G01*
D11*
X170433880Y28257794D02*
G75*
G03*
X170433880Y28257794I-1524000J0D01*
G01*
X176783880Y30797794D02*
G75*
G03*
X176783880Y30797794I-1524000J0D01*
G01*
D12*
%TO.C,C_3V-Decoup7*%
X22161812Y49691690D02*
X23081812Y49691690D01*
X23081812Y49691690D02*
X23081812Y51511690D01*
X22161812Y51511690D02*
X22161812Y49691690D01*
X23081812Y51511690D02*
X22161812Y51511690D01*
%TO.C,D32*%
X171409438Y46465862D02*
X169109438Y46465862D01*
X171409438Y46465862D02*
X171409438Y51165862D01*
X169109438Y51165862D02*
X169109438Y46465862D01*
X171409438Y51165862D02*
X169109438Y51165862D01*
%TO.C,D4*%
X17223371Y5984578D02*
X14923371Y5984578D01*
X17223371Y5984578D02*
X17223371Y10684578D01*
X14923371Y10684578D02*
X14923371Y5984578D01*
X17223371Y10684578D02*
X14923371Y10684578D01*
D11*
%TO.C,MX13*%
X73786880Y75247794D02*
X71246880Y75247794D01*
X73786880Y77787794D02*
X73786880Y75247794D01*
D10*
X71974880Y78437794D02*
X71974880Y74037794D01*
X71974880Y78437794D02*
X62674880Y78437794D01*
D11*
X71246880Y75247794D02*
X71246880Y77787794D01*
X71246880Y77787794D02*
X73786880Y77787794D01*
D10*
X66274880Y74037794D02*
X71974880Y74037794D01*
D11*
X60832880Y72707794D02*
X60832880Y75247794D01*
X60832880Y75247794D02*
X58292880Y75247794D01*
D10*
X60174880Y72037794D02*
X64274880Y72037794D01*
X60174880Y75937794D02*
X60174880Y72037794D01*
D11*
X58292880Y72707794D02*
X60832880Y72707794D01*
X58292880Y75247794D02*
X58292880Y72707794D01*
D10*
X66274880Y74037794D02*
G75*
G03*
X64274880Y72037794I-1J-1999999D01*
G01*
X62674880Y78437794D02*
G75*
G03*
X60174880Y75937794I0J-2500000D01*
G01*
D11*
X70738880Y76517794D02*
G75*
G03*
X70738880Y76517794I-1524000J0D01*
G01*
X64388880Y73977794D02*
G75*
G03*
X64388880Y73977794I-1524000J0D01*
G01*
D12*
%TO.C,C_3V-Decoup9*%
X33022761Y42322608D02*
X33022761Y41402608D01*
X33022761Y41402608D02*
X34842761Y41402608D01*
X34842761Y42322608D02*
X33022761Y42322608D01*
X34842761Y41402608D02*
X34842761Y42322608D01*
%TO.C,C_3V-Decoup4*%
X19959936Y41807419D02*
X19959936Y42727419D01*
X19959936Y42727419D02*
X18139936Y42727419D01*
X18139936Y41807419D02*
X19959936Y41807419D01*
X18139936Y42727419D02*
X18139936Y41807419D01*
%TO.C,D26*%
X146406292Y22058029D02*
X144106292Y22058029D01*
X146406292Y22058029D02*
X146406292Y26758029D01*
X144106292Y26758029D02*
X144106292Y22058029D01*
X146406292Y26758029D02*
X144106292Y26758029D01*
D11*
%TO.C,MX29*%
X159511880Y37147794D02*
X156971880Y37147794D01*
X159511880Y39687794D02*
X159511880Y37147794D01*
D10*
X157699880Y40337794D02*
X157699880Y35937794D01*
X157699880Y40337794D02*
X148399880Y40337794D01*
D11*
X156971880Y37147794D02*
X156971880Y39687794D01*
X156971880Y39687794D02*
X159511880Y39687794D01*
D10*
X151999880Y35937794D02*
X157699880Y35937794D01*
D11*
X146557880Y34607794D02*
X146557880Y37147794D01*
X146557880Y37147794D02*
X144017880Y37147794D01*
D10*
X145899880Y33937794D02*
X149999880Y33937794D01*
X145899880Y37837794D02*
X145899880Y33937794D01*
D11*
X144017880Y34607794D02*
X146557880Y34607794D01*
X144017880Y37147794D02*
X144017880Y34607794D01*
D10*
X151999880Y35937794D02*
G75*
G03*
X149999880Y33937794I-1J-1999999D01*
G01*
X148399880Y40337794D02*
G75*
G03*
X145899880Y37837794I0J-2500000D01*
G01*
D11*
X156463880Y38417794D02*
G75*
G03*
X156463880Y38417794I-1524000J0D01*
G01*
X150113880Y35877794D02*
G75*
G03*
X150113880Y35877794I-1524000J0D01*
G01*
D12*
%TO.C,D28*%
X152359422Y46465862D02*
X150059422Y46465862D01*
X152359422Y46465862D02*
X152359422Y51165862D01*
X150059422Y51165862D02*
X150059422Y46465862D01*
X152359422Y51165862D02*
X150059422Y51165862D01*
D11*
%TO.C,MX15*%
X83311880Y37147794D02*
X80771880Y37147794D01*
X83311880Y39687794D02*
X83311880Y37147794D01*
D10*
X81499880Y40337794D02*
X81499880Y35937794D01*
X81499880Y40337794D02*
X72199880Y40337794D01*
D11*
X80771880Y37147794D02*
X80771880Y39687794D01*
X80771880Y39687794D02*
X83311880Y39687794D01*
D10*
X75799880Y35937794D02*
X81499880Y35937794D01*
D11*
X70357880Y34607794D02*
X70357880Y37147794D01*
X70357880Y37147794D02*
X67817880Y37147794D01*
D10*
X69699880Y33937794D02*
X73799880Y33937794D01*
X69699880Y37837794D02*
X69699880Y33937794D01*
D11*
X67817880Y34607794D02*
X70357880Y34607794D01*
X67817880Y37147794D02*
X67817880Y34607794D01*
D10*
X75799880Y35937794D02*
G75*
G03*
X73799880Y33937794I-1J-1999999D01*
G01*
X72199880Y40337794D02*
G75*
G03*
X69699880Y37837794I0J-2500000D01*
G01*
D11*
X80263880Y38417794D02*
G75*
G03*
X80263880Y38417794I-1524000J0D01*
G01*
X73913880Y35877794D02*
G75*
G03*
X73913880Y35877794I-1524000J0D01*
G01*
D12*
%TO.C,R_DATA1*%
X22198959Y58377801D02*
X21258959Y58377801D01*
X21258959Y58377801D02*
X21258959Y56517801D01*
X22198959Y56517801D02*
X22198959Y58377801D01*
X21258959Y56517801D02*
X22198959Y56517801D01*
D11*
%TO.C,MX41*%
X35750434Y29527724D02*
X38290434Y29527724D01*
X35750434Y26987724D02*
X35750434Y29527724D01*
D10*
X37562434Y26337724D02*
X37562434Y30737724D01*
X37562434Y26337724D02*
X46862434Y26337724D01*
D11*
X38290434Y29527724D02*
X38290434Y26987724D01*
X38290434Y26987724D02*
X35750434Y26987724D01*
D10*
X43262434Y30737724D02*
X37562434Y30737724D01*
D11*
X48704434Y32067724D02*
X48704434Y29527724D01*
X48704434Y29527724D02*
X51244434Y29527724D01*
D10*
X49362434Y32737724D02*
X45262434Y32737724D01*
X49362434Y28837724D02*
X49362434Y32737724D01*
D11*
X51244434Y32067724D02*
X48704434Y32067724D01*
X51244434Y29527724D02*
X51244434Y32067724D01*
D10*
X43262434Y30737724D02*
G75*
G03*
X45262434Y32737724I1J1999999D01*
G01*
X46862434Y26337724D02*
G75*
G03*
X49362434Y28837724I0J2500000D01*
G01*
D11*
X41846434Y28257724D02*
G75*
G03*
X41846434Y28257724I-1524000J0D01*
G01*
X48196434Y30797724D02*
G75*
G03*
X48196434Y30797724I-1524000J0D01*
G01*
%TO.C,MX39*%
X107124380Y13335024D02*
X104584380Y13335024D01*
X107124380Y15875024D02*
X107124380Y13335024D01*
D10*
X105312380Y16525024D02*
X105312380Y12125024D01*
X105312380Y16525024D02*
X96012380Y16525024D01*
D11*
X104584380Y13335024D02*
X104584380Y15875024D01*
X104584380Y15875024D02*
X107124380Y15875024D01*
D10*
X99612380Y12125024D02*
X105312380Y12125024D01*
D11*
X94170380Y10795024D02*
X91630380Y10795024D01*
X94170380Y13335024D02*
X94170380Y10795024D01*
D10*
X93512380Y10125024D02*
X97612380Y10125024D01*
X93512380Y14025024D02*
X93512380Y10125024D01*
D11*
X91630380Y10795024D02*
X91630380Y13335024D01*
X91630380Y13335024D02*
X94170380Y13335024D01*
D10*
X99612380Y12125024D02*
G75*
G03*
X97612380Y10125024I-1J-1999999D01*
G01*
X96012380Y16525024D02*
G75*
G03*
X93512380Y14025024I0J-2500000D01*
G01*
D11*
X104076380Y14605024D02*
G75*
G03*
X104076380Y14605024I-1524000J0D01*
G01*
X97726380Y12065024D02*
G75*
G03*
X97726380Y12065024I-1524000J0D01*
G01*
%TO.C,MX14*%
X78549380Y56197794D02*
X76009380Y56197794D01*
X78549380Y58737794D02*
X78549380Y56197794D01*
D10*
X76737380Y59387794D02*
X76737380Y54987794D01*
X76737380Y59387794D02*
X67437380Y59387794D01*
D11*
X76009380Y56197794D02*
X76009380Y58737794D01*
X76009380Y58737794D02*
X78549380Y58737794D01*
D10*
X71037380Y54987794D02*
X76737380Y54987794D01*
D11*
X65595380Y53657794D02*
X65595380Y56197794D01*
X65595380Y56197794D02*
X63055380Y56197794D01*
D10*
X64937380Y52987794D02*
X69037380Y52987794D01*
X64937380Y56887794D02*
X64937380Y52987794D01*
D11*
X63055380Y53657794D02*
X65595380Y53657794D01*
X63055380Y56197794D02*
X63055380Y53657794D01*
D10*
X71037380Y54987794D02*
G75*
G03*
X69037380Y52987794I-1J-1999999D01*
G01*
X67437380Y59387794D02*
G75*
G03*
X64937380Y56887794I0J-2500000D01*
G01*
D11*
X75501380Y57467794D02*
G75*
G03*
X75501380Y57467794I-1524000J0D01*
G01*
X69151380Y54927794D02*
G75*
G03*
X69151380Y54927794I-1524000J0D01*
G01*
%TO.C,MX16*%
X92836880Y75247794D02*
X90296880Y75247794D01*
X92836880Y77787794D02*
X92836880Y75247794D01*
D10*
X91024880Y78437794D02*
X91024880Y74037794D01*
X91024880Y78437794D02*
X81724880Y78437794D01*
D11*
X90296880Y75247794D02*
X90296880Y77787794D01*
X90296880Y77787794D02*
X92836880Y77787794D01*
D10*
X85324880Y74037794D02*
X91024880Y74037794D01*
D11*
X79882880Y72707794D02*
X79882880Y75247794D01*
X79882880Y75247794D02*
X77342880Y75247794D01*
D10*
X79224880Y72037794D02*
X83324880Y72037794D01*
X79224880Y75937794D02*
X79224880Y72037794D01*
D11*
X77342880Y72707794D02*
X79882880Y72707794D01*
X77342880Y75247794D02*
X77342880Y72707794D01*
D10*
X85324880Y74037794D02*
G75*
G03*
X83324880Y72037794I-1J-1999999D01*
G01*
X81724880Y78437794D02*
G75*
G03*
X79224880Y75937794I0J-2500000D01*
G01*
D11*
X89788880Y76517794D02*
G75*
G03*
X89788880Y76517794I-1524000J0D01*
G01*
X83438880Y73977794D02*
G75*
G03*
X83438880Y73977794I-1524000J0D01*
G01*
%TO.C,MX5*%
X35686880Y75247794D02*
X33146880Y75247794D01*
X35686880Y77787794D02*
X35686880Y75247794D01*
D10*
X33874880Y78437794D02*
X33874880Y74037794D01*
X33874880Y78437794D02*
X24574880Y78437794D01*
D11*
X33146880Y75247794D02*
X33146880Y77787794D01*
X33146880Y77787794D02*
X35686880Y77787794D01*
D10*
X28174880Y74037794D02*
X33874880Y74037794D01*
D11*
X22732880Y72707794D02*
X22732880Y75247794D01*
X22732880Y75247794D02*
X20192880Y75247794D01*
D10*
X22074880Y72037794D02*
X26174880Y72037794D01*
X22074880Y75937794D02*
X22074880Y72037794D01*
D11*
X20192880Y72707794D02*
X22732880Y72707794D01*
X20192880Y75247794D02*
X20192880Y72707794D01*
D10*
X28174880Y74037794D02*
G75*
G03*
X26174880Y72037794I-1J-1999999D01*
G01*
X24574880Y78437794D02*
G75*
G03*
X22074880Y75937794I0J-2500000D01*
G01*
D11*
X32638880Y76517794D02*
G75*
G03*
X32638880Y76517794I-1524000J0D01*
G01*
X26288880Y73977794D02*
G75*
G03*
X26288880Y73977794I-1524000J0D01*
G01*
D12*
%TO.C,C_3V-Decoup8*%
X26567115Y35441861D02*
X25916577Y36092399D01*
X25916577Y36092399D02*
X24629643Y34805465D01*
X25280181Y34154927D02*
X26567115Y35441861D01*
X24629643Y34805465D02*
X25280181Y34154927D01*
D11*
%TO.C,MX40*%
X9556684Y29527724D02*
X12096684Y29527724D01*
X9556684Y26987724D02*
X9556684Y29527724D01*
D10*
X11368684Y26337724D02*
X11368684Y30737724D01*
X11368684Y26337724D02*
X20668684Y26337724D01*
D11*
X12096684Y29527724D02*
X12096684Y26987724D01*
X12096684Y26987724D02*
X9556684Y26987724D01*
D10*
X17068684Y30737724D02*
X11368684Y30737724D01*
D11*
X22510684Y32067724D02*
X25050684Y32067724D01*
X22510684Y29527724D02*
X22510684Y32067724D01*
D10*
X23168684Y32737724D02*
X19068684Y32737724D01*
X23168684Y28837724D02*
X23168684Y32737724D01*
D11*
X25050684Y32067724D02*
X25050684Y29527724D01*
X25050684Y29527724D02*
X22510684Y29527724D01*
D10*
X17068684Y30737724D02*
G75*
G03*
X19068684Y32737724I1J1999999D01*
G01*
X20668684Y26337724D02*
G75*
G03*
X23168684Y28837724I0J2500000D01*
G01*
D11*
X15652684Y28257724D02*
G75*
G03*
X15652684Y28257724I-1524000J0D01*
G01*
X22002684Y30797724D02*
G75*
G03*
X22002684Y30797724I-1524000J0D01*
G01*
%TO.C,MX24*%
X130936880Y75247794D02*
X128396880Y75247794D01*
X130936880Y77787794D02*
X130936880Y75247794D01*
D10*
X129124880Y78437794D02*
X129124880Y74037794D01*
X129124880Y78437794D02*
X119824880Y78437794D01*
D11*
X128396880Y75247794D02*
X128396880Y77787794D01*
X128396880Y77787794D02*
X130936880Y77787794D01*
D10*
X123424880Y74037794D02*
X129124880Y74037794D01*
D11*
X117982880Y72707794D02*
X117982880Y75247794D01*
X117982880Y75247794D02*
X115442880Y75247794D01*
D10*
X117324880Y72037794D02*
X121424880Y72037794D01*
X117324880Y75937794D02*
X117324880Y72037794D01*
D11*
X115442880Y72707794D02*
X117982880Y72707794D01*
X115442880Y75247794D02*
X115442880Y72707794D01*
D10*
X123424880Y74037794D02*
G75*
G03*
X121424880Y72037794I-1J-1999999D01*
G01*
X119824880Y78437794D02*
G75*
G03*
X117324880Y75937794I0J-2500000D01*
G01*
D11*
X127888880Y76517794D02*
G75*
G03*
X127888880Y76517794I-1524000J0D01*
G01*
X121538880Y73977794D02*
G75*
G03*
X121538880Y73977794I-1524000J0D01*
G01*
D12*
%TO.C,C_Flash1*%
X41536517Y65140627D02*
X40616517Y65140627D01*
X40616517Y65140627D02*
X40616517Y63320627D01*
X41536517Y63320627D02*
X41536517Y65140627D01*
X40616517Y63320627D02*
X41536517Y63320627D01*
D11*
%TO.C,MX47*%
X150050434Y29527724D02*
X152590434Y29527724D01*
X150050434Y26987724D02*
X150050434Y29527724D01*
D10*
X151862434Y26337724D02*
X151862434Y30737724D01*
X151862434Y26337724D02*
X161162434Y26337724D01*
D11*
X152590434Y29527724D02*
X152590434Y26987724D01*
X152590434Y26987724D02*
X150050434Y26987724D01*
D10*
X157562434Y30737724D02*
X151862434Y30737724D01*
D11*
X163004434Y32067724D02*
X163004434Y29527724D01*
X163004434Y29527724D02*
X165544434Y29527724D01*
D10*
X163662434Y32737724D02*
X159562434Y32737724D01*
X163662434Y28837724D02*
X163662434Y32737724D01*
D11*
X165544434Y32067724D02*
X163004434Y32067724D01*
X165544434Y29527724D02*
X165544434Y32067724D01*
D10*
X157562434Y30737724D02*
G75*
G03*
X159562434Y32737724I1J1999999D01*
G01*
X161162434Y26337724D02*
G75*
G03*
X163662434Y28837724I0J2500000D01*
G01*
D11*
X156146434Y28257724D02*
G75*
G03*
X156146434Y28257724I-1524000J0D01*
G01*
X162496434Y30797724D02*
G75*
G03*
X162496434Y30797724I-1524000J0D01*
G01*
%TO.C,MX21*%
X116649380Y56197794D02*
X114109380Y56197794D01*
X116649380Y58737794D02*
X116649380Y56197794D01*
D10*
X114837380Y59387794D02*
X114837380Y54987794D01*
X114837380Y59387794D02*
X105537380Y59387794D01*
D11*
X114109380Y56197794D02*
X114109380Y58737794D01*
X114109380Y58737794D02*
X116649380Y58737794D01*
D10*
X109137380Y54987794D02*
X114837380Y54987794D01*
D11*
X103695380Y53657794D02*
X103695380Y56197794D01*
X103695380Y56197794D02*
X101155380Y56197794D01*
D10*
X103037380Y52987794D02*
X107137380Y52987794D01*
X103037380Y56887794D02*
X103037380Y52987794D01*
D11*
X101155380Y53657794D02*
X103695380Y53657794D01*
X101155380Y56197794D02*
X101155380Y53657794D01*
D10*
X109137380Y54987794D02*
G75*
G03*
X107137380Y52987794I-1J-1999999D01*
G01*
X105537380Y59387794D02*
G75*
G03*
X103037380Y56887794I0J-2500000D01*
G01*
D11*
X113601380Y57467794D02*
G75*
G03*
X113601380Y57467794I-1524000J0D01*
G01*
X107251380Y54927794D02*
G75*
G03*
X107251380Y54927794I-1524000J0D01*
G01*
%TO.C,MX32*%
X173799380Y56197794D02*
X171259380Y56197794D01*
X173799380Y58737794D02*
X173799380Y56197794D01*
D10*
X171987380Y59387794D02*
X171987380Y54987794D01*
X171987380Y59387794D02*
X162687380Y59387794D01*
D11*
X171259380Y56197794D02*
X171259380Y58737794D01*
X171259380Y58737794D02*
X173799380Y58737794D01*
D10*
X166287380Y54987794D02*
X171987380Y54987794D01*
D11*
X160845380Y53657794D02*
X160845380Y56197794D01*
X160845380Y56197794D02*
X158305380Y56197794D01*
D10*
X160187380Y52987794D02*
X164287380Y52987794D01*
X160187380Y56887794D02*
X160187380Y52987794D01*
D11*
X158305380Y53657794D02*
X160845380Y53657794D01*
X158305380Y56197794D02*
X158305380Y53657794D01*
D10*
X166287380Y54987794D02*
G75*
G03*
X164287380Y52987794I-1J-1999999D01*
G01*
X162687380Y59387794D02*
G75*
G03*
X160187380Y56887794I0J-2500000D01*
G01*
D11*
X170751380Y57467794D02*
G75*
G03*
X170751380Y57467794I-1524000J0D01*
G01*
X164401380Y54927794D02*
G75*
G03*
X164401380Y54927794I-1524000J0D01*
G01*
%TO.C,MX38*%
X197611880Y18097794D02*
X195071880Y18097794D01*
X197611880Y20637794D02*
X197611880Y18097794D01*
D10*
X195799880Y21287794D02*
X195799880Y16887794D01*
X195799880Y21287794D02*
X186499880Y21287794D01*
D11*
X195071880Y18097794D02*
X195071880Y20637794D01*
X195071880Y20637794D02*
X197611880Y20637794D01*
D10*
X190099880Y16887794D02*
X195799880Y16887794D01*
D11*
X184657880Y15557794D02*
X184657880Y18097794D01*
X184657880Y18097794D02*
X182117880Y18097794D01*
D10*
X183999880Y14887794D02*
X188099880Y14887794D01*
X183999880Y18787794D02*
X183999880Y14887794D01*
D11*
X182117880Y15557794D02*
X184657880Y15557794D01*
X182117880Y18097794D02*
X182117880Y15557794D01*
D10*
X190099880Y16887794D02*
G75*
G03*
X188099880Y14887794I-1J-1999999D01*
G01*
X186499880Y21287794D02*
G75*
G03*
X183999880Y18787794I0J-2500000D01*
G01*
D11*
X194563880Y19367794D02*
G75*
G03*
X194563880Y19367794I-1524000J0D01*
G01*
X188213880Y16827794D02*
G75*
G03*
X188213880Y16827794I-1524000J0D01*
G01*
D12*
%TO.C,D10*%
X57109342Y46465862D02*
X54809342Y46465862D01*
X57109342Y46465862D02*
X57109342Y51165862D01*
X54809342Y51165862D02*
X54809342Y46465862D01*
X57109342Y51165862D02*
X54809342Y51165862D01*
D11*
%TO.C,MX20*%
X111886880Y75247794D02*
X109346880Y75247794D01*
X111886880Y77787794D02*
X111886880Y75247794D01*
D10*
X110074880Y78437794D02*
X110074880Y74037794D01*
X110074880Y78437794D02*
X100774880Y78437794D01*
D11*
X109346880Y75247794D02*
X109346880Y77787794D01*
X109346880Y77787794D02*
X111886880Y77787794D01*
D10*
X104374880Y74037794D02*
X110074880Y74037794D01*
D11*
X98932880Y72707794D02*
X98932880Y75247794D01*
X98932880Y75247794D02*
X96392880Y75247794D01*
D10*
X98274880Y72037794D02*
X102374880Y72037794D01*
X98274880Y75937794D02*
X98274880Y72037794D01*
D11*
X96392880Y72707794D02*
X98932880Y72707794D01*
X96392880Y75247794D02*
X96392880Y72707794D01*
D10*
X104374880Y74037794D02*
G75*
G03*
X102374880Y72037794I-1J-1999999D01*
G01*
X100774880Y78437794D02*
G75*
G03*
X98274880Y75937794I0J-2500000D01*
G01*
D11*
X108838880Y76517794D02*
G75*
G03*
X108838880Y76517794I-1524000J0D01*
G01*
X102488880Y73977794D02*
G75*
G03*
X102488880Y73977794I-1524000J0D01*
G01*
D12*
%TO.C,D35*%
X179743820Y66111191D02*
X177443820Y66111191D01*
X179743820Y66111191D02*
X179743820Y70811191D01*
X177443820Y70811191D02*
X177443820Y66111191D01*
X179743820Y70811191D02*
X177443820Y70811191D01*
D11*
%TO.C,MX6*%
X40449380Y56197794D02*
X37909380Y56197794D01*
X40449380Y58737794D02*
X40449380Y56197794D01*
D10*
X38637380Y59387794D02*
X38637380Y54987794D01*
X38637380Y59387794D02*
X29337380Y59387794D01*
D11*
X37909380Y56197794D02*
X37909380Y58737794D01*
X37909380Y58737794D02*
X40449380Y58737794D01*
D10*
X32937380Y54987794D02*
X38637380Y54987794D01*
D11*
X27495380Y53657794D02*
X27495380Y56197794D01*
X27495380Y56197794D02*
X24955380Y56197794D01*
D10*
X26837380Y52987794D02*
X30937380Y52987794D01*
X26837380Y56887794D02*
X26837380Y52987794D01*
D11*
X24955380Y53657794D02*
X27495380Y53657794D01*
X24955380Y56197794D02*
X24955380Y53657794D01*
D10*
X32937380Y54987794D02*
G75*
G03*
X30937380Y52987794I-1J-1999999D01*
G01*
X29337380Y59387794D02*
G75*
G03*
X26837380Y56887794I0J-2500000D01*
G01*
D11*
X37401380Y57467794D02*
G75*
G03*
X37401380Y57467794I-1524000J0D01*
G01*
X31051380Y54927794D02*
G75*
G03*
X31051380Y54927794I-1524000J0D01*
G01*
D12*
%TO.C,D38*%
X198793836Y5984578D02*
X196493836Y5984578D01*
X198793836Y5984578D02*
X198793836Y10684578D01*
X196493836Y10684578D02*
X196493836Y5984578D01*
X198793836Y10684578D02*
X196493836Y10684578D01*
%TO.C,D19*%
X89851557Y5984578D02*
X87551557Y5984578D01*
X89851557Y5984578D02*
X89851557Y10684578D01*
X87551557Y10684578D02*
X87551557Y5984578D01*
X89851557Y10684578D02*
X87551557Y10684578D01*
%TO.C,U3*%
X13778164Y61448127D02*
X13778164Y65288127D01*
X17178164Y61448127D02*
X13778164Y61448127D01*
X13778164Y65288127D02*
X17178164Y65288127D01*
X17178164Y65288127D02*
X17178164Y61448127D01*
D11*
%TO.C,MX36*%
X195230630Y56197794D02*
X192690630Y56197794D01*
X195230630Y58737794D02*
X195230630Y56197794D01*
D10*
X193418630Y59387794D02*
X193418630Y54987794D01*
X193418630Y59387794D02*
X184118630Y59387794D01*
D11*
X192690630Y56197794D02*
X192690630Y58737794D01*
X192690630Y58737794D02*
X195230630Y58737794D01*
D10*
X187718630Y54987794D02*
X193418630Y54987794D01*
D11*
X182276630Y53657794D02*
X179736630Y53657794D01*
X182276630Y56197794D02*
X182276630Y53657794D01*
D10*
X181618630Y52987794D02*
X185718630Y52987794D01*
X181618630Y56887794D02*
X181618630Y52987794D01*
D11*
X179736630Y53657794D02*
X179736630Y56197794D01*
X179736630Y56197794D02*
X182276630Y56197794D01*
D10*
X187718630Y54987794D02*
G75*
G03*
X185718630Y52987794I-1J-1999999D01*
G01*
X184118630Y59387794D02*
G75*
G03*
X181618630Y56887794I0J-2500000D01*
G01*
D11*
X192182630Y57467794D02*
G75*
G03*
X192182630Y57467794I-1524000J0D01*
G01*
X185832630Y54927794D02*
G75*
G03*
X185832630Y54927794I-1524000J0D01*
G01*
D12*
%TO.C,D25*%
X133309406Y46465862D02*
X131009406Y46465862D01*
X133309406Y46465862D02*
X133309406Y51165862D01*
X131009406Y51165862D02*
X131009406Y46465862D01*
X133309406Y51165862D02*
X131009406Y51165862D01*
D11*
%TO.C,MX37*%
X183388080Y29527794D02*
X185928080Y29527794D01*
X183388080Y26987794D02*
X183388080Y29527794D01*
D10*
X185200080Y26337794D02*
X185200080Y30737794D01*
X185200080Y26337794D02*
X194500080Y26337794D01*
D11*
X185928080Y29527794D02*
X185928080Y26987794D01*
X185928080Y26987794D02*
X183388080Y26987794D01*
D10*
X190900080Y30737794D02*
X185200080Y30737794D01*
D11*
X196342080Y32067794D02*
X196342080Y29527794D01*
X196342080Y29527794D02*
X198882080Y29527794D01*
D10*
X197000080Y32737794D02*
X192900080Y32737794D01*
X197000080Y28837794D02*
X197000080Y32737794D01*
D11*
X198882080Y32067794D02*
X196342080Y32067794D01*
X198882080Y29527794D02*
X198882080Y32067794D01*
D10*
X190900080Y30737794D02*
G75*
G03*
X192900080Y32737794I1J1999999D01*
G01*
X194500080Y26337794D02*
G75*
G03*
X197000080Y28837794I0J2500000D01*
G01*
D11*
X189484080Y28257794D02*
G75*
G03*
X189484080Y28257794I-1524000J0D01*
G01*
X195834080Y30797794D02*
G75*
G03*
X195834080Y30797794I-1524000J0D01*
G01*
%TO.C,MX8*%
X35686880Y18097794D02*
X33146880Y18097794D01*
X35686880Y20637794D02*
X35686880Y18097794D01*
D10*
X33874880Y21287794D02*
X33874880Y16887794D01*
X33874880Y21287794D02*
X24574880Y21287794D01*
D11*
X33146880Y18097794D02*
X33146880Y20637794D01*
X33146880Y20637794D02*
X35686880Y20637794D01*
D10*
X28174880Y16887794D02*
X33874880Y16887794D01*
D11*
X22732880Y15557794D02*
X22732880Y18097794D01*
X22732880Y18097794D02*
X20192880Y18097794D01*
D10*
X22074880Y14887794D02*
X26174880Y14887794D01*
X22074880Y18787794D02*
X22074880Y14887794D01*
D11*
X20192880Y15557794D02*
X22732880Y15557794D01*
X20192880Y18097794D02*
X20192880Y15557794D01*
D10*
X28174880Y16887794D02*
G75*
G03*
X26174880Y14887794I-1J-1999999D01*
G01*
X24574880Y21287794D02*
G75*
G03*
X22074880Y18787794I0J-2500000D01*
G01*
D11*
X32638880Y19367794D02*
G75*
G03*
X32638880Y19367794I-1524000J0D01*
G01*
X26288880Y16827794D02*
G75*
G03*
X26288880Y16827794I-1524000J0D01*
G01*
D12*
%TO.C,D11*%
X70206228Y22058029D02*
X67906228Y22058029D01*
X70206228Y22058029D02*
X70206228Y26758029D01*
X67906228Y26758029D02*
X67906228Y22058029D01*
X70206228Y26758029D02*
X67906228Y26758029D01*
%TO.C,C_1V-Decoup3*%
X25725214Y36283762D02*
X25074676Y36934300D01*
X25074676Y36934300D02*
X23787742Y35647366D01*
X24438280Y34996828D02*
X25725214Y36283762D01*
X23787742Y35647366D02*
X24438280Y34996828D01*
D11*
%TO.C,MX26*%
X140461880Y37147794D02*
X137921880Y37147794D01*
X140461880Y39687794D02*
X140461880Y37147794D01*
D10*
X138649880Y40337794D02*
X138649880Y35937794D01*
X138649880Y40337794D02*
X129349880Y40337794D01*
D11*
X137921880Y37147794D02*
X137921880Y39687794D01*
X137921880Y39687794D02*
X140461880Y39687794D01*
D10*
X132949880Y35937794D02*
X138649880Y35937794D01*
D11*
X127507880Y34607794D02*
X127507880Y37147794D01*
X127507880Y37147794D02*
X124967880Y37147794D01*
D10*
X126849880Y33937794D02*
X130949880Y33937794D01*
X126849880Y37837794D02*
X126849880Y33937794D01*
D11*
X124967880Y34607794D02*
X127507880Y34607794D01*
X124967880Y37147794D02*
X124967880Y34607794D01*
D10*
X132949880Y35937794D02*
G75*
G03*
X130949880Y33937794I-1J-1999999D01*
G01*
X129349880Y40337794D02*
G75*
G03*
X126849880Y37837794I0J-2500000D01*
G01*
D11*
X137413880Y38417794D02*
G75*
G03*
X137413880Y38417794I-1524000J0D01*
G01*
X131063880Y35877794D02*
G75*
G03*
X131063880Y35877794I-1524000J0D01*
G01*
D12*
%TO.C,D18*%
X108306260Y22058029D02*
X106006260Y22058029D01*
X108306260Y22058029D02*
X108306260Y26758029D01*
X106006260Y26758029D02*
X106006260Y22058029D01*
X108306260Y26758029D02*
X106006260Y26758029D01*
D11*
%TO.C,MX9*%
X54736880Y75247794D02*
X52196880Y75247794D01*
X54736880Y77787794D02*
X54736880Y75247794D01*
D10*
X52924880Y78437794D02*
X52924880Y74037794D01*
X52924880Y78437794D02*
X43624880Y78437794D01*
D11*
X52196880Y75247794D02*
X52196880Y77787794D01*
X52196880Y77787794D02*
X54736880Y77787794D01*
D10*
X47224880Y74037794D02*
X52924880Y74037794D01*
D11*
X41782880Y72707794D02*
X41782880Y75247794D01*
X41782880Y75247794D02*
X39242880Y75247794D01*
D10*
X41124880Y72037794D02*
X45224880Y72037794D01*
X41124880Y75937794D02*
X41124880Y72037794D01*
D11*
X39242880Y72707794D02*
X41782880Y72707794D01*
X39242880Y75247794D02*
X39242880Y72707794D01*
D10*
X47224880Y74037794D02*
G75*
G03*
X45224880Y72037794I-1J-1999999D01*
G01*
X43624880Y78437794D02*
G75*
G03*
X41124880Y75937794I0J-2500000D01*
G01*
D11*
X51688880Y76517794D02*
G75*
G03*
X51688880Y76517794I-1524000J0D01*
G01*
X45338880Y73977794D02*
G75*
G03*
X45338880Y73977794I-1524000J0D01*
G01*
D12*
%TO.C,D34*%
X179148507Y5984578D02*
X176848507Y5984578D01*
X179148507Y5984578D02*
X179148507Y10684578D01*
X176848507Y10684578D02*
X176848507Y5984578D01*
X179148507Y10684578D02*
X176848507Y10684578D01*
%TO.C,D2*%
X16628058Y46465862D02*
X14328058Y46465862D01*
X16628058Y46465862D02*
X16628058Y51165862D01*
X14328058Y51165862D02*
X14328058Y46465862D01*
X16628058Y51165862D02*
X14328058Y51165862D01*
%TO.C,D3*%
X24962440Y22058029D02*
X22662440Y22058029D01*
X24962440Y22058029D02*
X24962440Y26758029D01*
X22662440Y26758029D02*
X22662440Y22058029D01*
X24962440Y26758029D02*
X22662440Y26758029D01*
%TO.C,D29*%
X165456308Y22058029D02*
X163156308Y22058029D01*
X165456308Y22058029D02*
X165456308Y26758029D01*
X163156308Y26758029D02*
X163156308Y22058029D01*
X165456308Y26758029D02*
X163156308Y26758029D01*
D11*
%TO.C,MX44*%
X92900434Y29527724D02*
X95440434Y29527724D01*
X92900434Y26987724D02*
X92900434Y29527724D01*
D10*
X94712434Y26337724D02*
X94712434Y30737724D01*
X94712434Y26337724D02*
X104012434Y26337724D01*
D11*
X95440434Y29527724D02*
X95440434Y26987724D01*
X95440434Y26987724D02*
X92900434Y26987724D01*
D10*
X100412434Y30737724D02*
X94712434Y30737724D01*
D11*
X105854434Y32067724D02*
X105854434Y29527724D01*
X105854434Y29527724D02*
X108394434Y29527724D01*
D10*
X106512434Y32737724D02*
X102412434Y32737724D01*
X106512434Y28837724D02*
X106512434Y32737724D01*
D11*
X108394434Y32067724D02*
X105854434Y32067724D01*
X108394434Y29527724D02*
X108394434Y32067724D01*
D10*
X100412434Y30737724D02*
G75*
G03*
X102412434Y32737724I1J1999999D01*
G01*
X104012434Y26337724D02*
G75*
G03*
X106512434Y28837724I0J2500000D01*
G01*
D11*
X98996434Y28257724D02*
G75*
G03*
X98996434Y28257724I-1524000J0D01*
G01*
X105346434Y30797724D02*
G75*
G03*
X105346434Y30797724I-1524000J0D01*
G01*
D12*
%TO.C,D16*%
X89851792Y66111191D02*
X87551792Y66111191D01*
X89851792Y66111191D02*
X89851792Y70811191D01*
X87551792Y70811191D02*
X87551792Y66111191D01*
X89851792Y70811191D02*
X87551792Y70811191D01*
%TO.C,C_3V-Decoup6*%
X33022761Y46299297D02*
X33022761Y45379297D01*
X33022761Y45379297D02*
X34842761Y45379297D01*
X34842761Y46299297D02*
X33022761Y46299297D01*
X34842761Y45379297D02*
X34842761Y46299297D01*
D11*
%TO.C,MX45*%
X111950434Y29527674D02*
X114490434Y29527674D01*
X111950434Y26987674D02*
X111950434Y29527674D01*
D10*
X113762434Y26337674D02*
X113762434Y30737674D01*
X113762434Y26337674D02*
X123062434Y26337674D01*
D11*
X114490434Y29527674D02*
X114490434Y26987674D01*
X114490434Y26987674D02*
X111950434Y26987674D01*
D10*
X119462434Y30737674D02*
X113762434Y30737674D01*
D11*
X124904434Y32067674D02*
X124904434Y29527674D01*
X124904434Y29527674D02*
X127444434Y29527674D01*
D10*
X125562434Y32737674D02*
X121462434Y32737674D01*
X125562434Y28837674D02*
X125562434Y32737674D01*
D11*
X127444434Y32067674D02*
X124904434Y32067674D01*
X127444434Y29527674D02*
X127444434Y32067674D01*
D10*
X119462434Y30737674D02*
G75*
G03*
X121462434Y32737674I1J1999999D01*
G01*
X123062434Y26337674D02*
G75*
G03*
X125562434Y28837674I0J2500000D01*
G01*
D11*
X118046434Y28257674D02*
G75*
G03*
X118046434Y28257674I-1524000J0D01*
G01*
X124396434Y30797674D02*
G75*
G03*
X124396434Y30797674I-1524000J0D01*
G01*
D12*
%TO.C,D30*%
X160098491Y5984578D02*
X157798491Y5984578D01*
X160098491Y5984578D02*
X160098491Y10684578D01*
X157798491Y10684578D02*
X157798491Y5984578D01*
X160098491Y10684578D02*
X157798491Y10684578D01*
%TO.C,D1*%
X13651493Y66111191D02*
X11351493Y66111191D01*
X13651493Y66111191D02*
X13651493Y70811191D01*
X11351493Y70811191D02*
X11351493Y66111191D01*
X13651493Y70811191D02*
X11351493Y70811191D01*
%TO.C,C_3V-Decoup1*%
X19959936Y47760549D02*
X19959936Y48680549D01*
X19959936Y48680549D02*
X18139936Y48680549D01*
X18139936Y47760549D02*
X19959936Y47760549D01*
X18139936Y48680549D02*
X18139936Y47760549D01*
%TO.C,C_LD1*%
X18617077Y64735627D02*
X17697077Y64735627D01*
X17697077Y64735627D02*
X17697077Y62915627D01*
X18617077Y62915627D02*
X18617077Y64735627D01*
X17697077Y62915627D02*
X18617077Y62915627D01*
D11*
%TO.C,MX7*%
X45211880Y37147794D02*
X42671880Y37147794D01*
X45211880Y39687794D02*
X45211880Y37147794D01*
D10*
X43399880Y40337794D02*
X43399880Y35937794D01*
X43399880Y40337794D02*
X34099880Y40337794D01*
D11*
X42671880Y37147794D02*
X42671880Y39687794D01*
X42671880Y39687794D02*
X45211880Y39687794D01*
D10*
X37699880Y35937794D02*
X43399880Y35937794D01*
D11*
X32257880Y34607794D02*
X32257880Y37147794D01*
X32257880Y37147794D02*
X29717880Y37147794D01*
D10*
X31599880Y33937794D02*
X35699880Y33937794D01*
X31599880Y37837794D02*
X31599880Y33937794D01*
D11*
X29717880Y34607794D02*
X32257880Y34607794D01*
X29717880Y37147794D02*
X29717880Y34607794D01*
D10*
X37699880Y35937794D02*
G75*
G03*
X35699880Y33937794I-1J-1999999D01*
G01*
X34099880Y40337794D02*
G75*
G03*
X31599880Y37837794I0J-2500000D01*
G01*
D11*
X42163880Y38417794D02*
G75*
G03*
X42163880Y38417794I-1524000J0D01*
G01*
X35813880Y35877794D02*
G75*
G03*
X35813880Y35877794I-1524000J0D01*
G01*
D12*
%TO.C,R_RST1*%
X16929310Y12376456D02*
X16929310Y11436456D01*
X16929310Y11436456D02*
X18789310Y11436456D01*
X18789310Y12376456D02*
X16929310Y12376456D01*
X18789310Y11436456D02*
X18789310Y12376456D01*
D11*
%TO.C,MX12*%
X54736880Y18097794D02*
X52196880Y18097794D01*
X54736880Y20637794D02*
X54736880Y18097794D01*
D10*
X52924880Y21287794D02*
X52924880Y16887794D01*
X52924880Y21287794D02*
X43624880Y21287794D01*
D11*
X52196880Y18097794D02*
X52196880Y20637794D01*
X52196880Y20637794D02*
X54736880Y20637794D01*
D10*
X47224880Y16887794D02*
X52924880Y16887794D01*
D11*
X41782880Y15557794D02*
X41782880Y18097794D01*
X41782880Y18097794D02*
X39242880Y18097794D01*
D10*
X41124880Y14887794D02*
X45224880Y14887794D01*
X41124880Y18787794D02*
X41124880Y14887794D01*
D11*
X39242880Y15557794D02*
X41782880Y15557794D01*
X39242880Y18097794D02*
X39242880Y15557794D01*
D10*
X47224880Y16887794D02*
G75*
G03*
X45224880Y14887794I-1J-1999999D01*
G01*
X43624880Y21287794D02*
G75*
G03*
X41124880Y18787794I0J-2500000D01*
G01*
D11*
X51688880Y19367794D02*
G75*
G03*
X51688880Y19367794I-1524000J0D01*
G01*
X45338880Y16827794D02*
G75*
G03*
X45338880Y16827794I-1524000J0D01*
G01*
%TO.C,MX3*%
X21399380Y37147794D02*
X18859380Y37147794D01*
X21399380Y39687794D02*
X21399380Y37147794D01*
D10*
X19587380Y40337794D02*
X19587380Y35937794D01*
X19587380Y40337794D02*
X10287380Y40337794D01*
D11*
X18859380Y37147794D02*
X18859380Y39687794D01*
X18859380Y39687794D02*
X21399380Y39687794D01*
D10*
X13887380Y35937794D02*
X19587380Y35937794D01*
D11*
X8445380Y34607794D02*
X5905380Y34607794D01*
X8445380Y37147794D02*
X8445380Y34607794D01*
D10*
X7787380Y33937794D02*
X11887380Y33937794D01*
X7787380Y37837794D02*
X7787380Y33937794D01*
D11*
X5905380Y34607794D02*
X5905380Y37147794D01*
X5905380Y37147794D02*
X8445380Y37147794D01*
D10*
X13887380Y35937794D02*
G75*
G03*
X11887380Y33937794I-1J-1999999D01*
G01*
X10287380Y40337794D02*
G75*
G03*
X7787380Y37837794I0J-2500000D01*
G01*
D11*
X18351380Y38417794D02*
G75*
G03*
X18351380Y38417794I-1524000J0D01*
G01*
X12001380Y35877794D02*
G75*
G03*
X12001380Y35877794I-1524000J0D01*
G01*
D12*
%TO.C,U2*%
X52274960Y59945627D02*
X42974960Y59945627D01*
X52274960Y65665627D02*
X52274960Y59945627D01*
X42974960Y59945627D02*
X42974960Y65665627D01*
X42974960Y65665627D02*
X52274960Y65665627D01*
%TO.C,D33*%
X179743820Y22058029D02*
X177443820Y22058029D01*
X179743820Y22058029D02*
X179743820Y26758029D01*
X177443820Y26758029D02*
X177443820Y22058029D01*
X179743820Y26758029D02*
X177443820Y26758029D01*
%TO.C,D36*%
X192840706Y46465862D02*
X190540706Y46465862D01*
X192840706Y46465862D02*
X192840706Y51165862D01*
X190540706Y51165862D02*
X190540706Y46465862D01*
X192840706Y51165862D02*
X190540706Y51165862D01*
%TO.C,D7*%
X51156212Y22058029D02*
X48856212Y22058029D01*
X51156212Y22058029D02*
X51156212Y26758029D01*
X48856212Y26758029D02*
X48856212Y22058029D01*
X51156212Y26758029D02*
X48856212Y26758029D01*
D11*
%TO.C,MX42*%
X54800434Y29527674D02*
X57340434Y29527674D01*
X54800434Y26987674D02*
X54800434Y29527674D01*
D10*
X56612434Y26337674D02*
X56612434Y30737674D01*
X56612434Y26337674D02*
X65912434Y26337674D01*
D11*
X57340434Y29527674D02*
X57340434Y26987674D01*
X57340434Y26987674D02*
X54800434Y26987674D01*
D10*
X62312434Y30737674D02*
X56612434Y30737674D01*
D11*
X67754434Y32067674D02*
X67754434Y29527674D01*
X67754434Y29527674D02*
X70294434Y29527674D01*
D10*
X68412434Y32737674D02*
X64312434Y32737674D01*
X68412434Y28837674D02*
X68412434Y32737674D01*
D11*
X70294434Y32067674D02*
X67754434Y32067674D01*
X70294434Y29527674D02*
X70294434Y32067674D01*
D10*
X62312434Y30737674D02*
G75*
G03*
X64312434Y32737674I1J1999999D01*
G01*
X65912434Y26337674D02*
G75*
G03*
X68412434Y28837674I0J2500000D01*
G01*
D11*
X60896434Y28257674D02*
G75*
G03*
X60896434Y28257674I-1524000J0D01*
G01*
X67246434Y30797674D02*
G75*
G03*
X67246434Y30797674I-1524000J0D01*
G01*
D12*
%TO.C,D12*%
X55323403Y5984578D02*
X53023403Y5984578D01*
X55323403Y5984578D02*
X55323403Y10684578D01*
X53023403Y10684578D02*
X53023403Y5984578D01*
X55323403Y10684578D02*
X53023403Y10684578D01*
%TO.C,C_1V-Decoup1*%
X23352440Y49691690D02*
X24272440Y49691690D01*
X24272440Y49691690D02*
X24272440Y51511690D01*
X23352440Y51511690D02*
X23352440Y49691690D01*
X24272440Y51511690D02*
X23352440Y51511690D01*
%TO.C,C_3V-Decoup3*%
X25733692Y49691801D02*
X26653692Y49691801D01*
X26653692Y49691801D02*
X26653692Y51511801D01*
X25733692Y51511801D02*
X25733692Y49691801D01*
X26653692Y51511801D02*
X25733692Y51511801D01*
D11*
%TO.C,MX27*%
X149986880Y75247794D02*
X147446880Y75247794D01*
X149986880Y77787794D02*
X149986880Y75247794D01*
D10*
X148174880Y78437794D02*
X148174880Y74037794D01*
X148174880Y78437794D02*
X138874880Y78437794D01*
D11*
X147446880Y75247794D02*
X147446880Y77787794D01*
X147446880Y77787794D02*
X149986880Y77787794D01*
D10*
X142474880Y74037794D02*
X148174880Y74037794D01*
D11*
X137032880Y72707794D02*
X137032880Y75247794D01*
X137032880Y75247794D02*
X134492880Y75247794D01*
D10*
X136374880Y72037794D02*
X140474880Y72037794D01*
X136374880Y75937794D02*
X136374880Y72037794D01*
D11*
X134492880Y72707794D02*
X137032880Y72707794D01*
X134492880Y75247794D02*
X134492880Y72707794D01*
D10*
X142474880Y74037794D02*
G75*
G03*
X140474880Y72037794I-1J-1999999D01*
G01*
X138874880Y78437794D02*
G75*
G03*
X136374880Y75937794I0J-2500000D01*
G01*
D11*
X146938880Y76517794D02*
G75*
G03*
X146938880Y76517794I-1524000J0D01*
G01*
X140588880Y73977794D02*
G75*
G03*
X140588880Y73977794I-1524000J0D01*
G01*
D12*
%TO.C,D22*%
X127356276Y22058029D02*
X125056276Y22058029D01*
X127356276Y22058029D02*
X127356276Y26758029D01*
X125056276Y26758029D02*
X125056276Y22058029D01*
X127356276Y26758029D02*
X125056276Y26758029D01*
%TO.C,U1*%
X30398188Y38742608D02*
X22158188Y38742608D01*
X30398188Y46982608D02*
X30398188Y38742608D01*
X22158188Y38742608D02*
X22158188Y46982608D01*
X22158188Y46982608D02*
X30398188Y46982608D01*
%TO.C,J2*%
X4181172Y26467724D02*
X581172Y26467724D01*
X4181172Y40217724D02*
X4181172Y26467724D01*
X581172Y26467724D02*
X581172Y40217724D01*
X581172Y40217724D02*
X4181172Y40217724D01*
%TO.C,D27*%
X147001605Y66111191D02*
X144701605Y66111191D01*
X147001605Y66111191D02*
X147001605Y70811191D01*
X144701605Y70811191D02*
X144701605Y66111191D01*
X147001605Y70811191D02*
X144701605Y70811191D01*
%TO.C,C_Crystal2*%
X27958418Y27729218D02*
X28608956Y28379756D01*
X28608956Y28379756D02*
X27322022Y29666690D01*
X26671484Y29016152D02*
X27958418Y27729218D01*
X27322022Y29666690D02*
X26671484Y29016152D01*
D11*
%TO.C,MX28*%
X154749380Y56197794D02*
X152209380Y56197794D01*
X154749380Y58737794D02*
X154749380Y56197794D01*
D10*
X152937380Y59387794D02*
X152937380Y54987794D01*
X152937380Y59387794D02*
X143637380Y59387794D01*
D11*
X152209380Y56197794D02*
X152209380Y58737794D01*
X152209380Y58737794D02*
X154749380Y58737794D01*
D10*
X147237380Y54987794D02*
X152937380Y54987794D01*
D11*
X141795380Y53657794D02*
X141795380Y56197794D01*
X141795380Y56197794D02*
X139255380Y56197794D01*
D10*
X141137380Y52987794D02*
X145237380Y52987794D01*
X141137380Y56887794D02*
X141137380Y52987794D01*
D11*
X139255380Y53657794D02*
X141795380Y53657794D01*
X139255380Y56197794D02*
X139255380Y53657794D01*
D10*
X147237380Y54987794D02*
G75*
G03*
X145237380Y52987794I-1J-1999999D01*
G01*
X143637380Y59387794D02*
G75*
G03*
X141137380Y56887794I0J-2500000D01*
G01*
D11*
X151701380Y57467794D02*
G75*
G03*
X151701380Y57467794I-1524000J0D01*
G01*
X145351380Y54927794D02*
G75*
G03*
X145351380Y54927794I-1524000J0D01*
G01*
%TO.C,MX25*%
X135699380Y56197794D02*
X133159380Y56197794D01*
X135699380Y58737794D02*
X135699380Y56197794D01*
D10*
X133887380Y59387794D02*
X133887380Y54987794D01*
X133887380Y59387794D02*
X124587380Y59387794D01*
D11*
X133159380Y56197794D02*
X133159380Y58737794D01*
X133159380Y58737794D02*
X135699380Y58737794D01*
D10*
X128187380Y54987794D02*
X133887380Y54987794D01*
D11*
X122745380Y53657794D02*
X122745380Y56197794D01*
X122745380Y56197794D02*
X120205380Y56197794D01*
D10*
X122087380Y52987794D02*
X126187380Y52987794D01*
X122087380Y56887794D02*
X122087380Y52987794D01*
D11*
X120205380Y53657794D02*
X122745380Y53657794D01*
X120205380Y56197794D02*
X120205380Y53657794D01*
D10*
X128187380Y54987794D02*
G75*
G03*
X126187380Y52987794I-1J-1999999D01*
G01*
X124587380Y59387794D02*
G75*
G03*
X122087380Y56887794I0J-2500000D01*
G01*
D11*
X132651380Y57467794D02*
G75*
G03*
X132651380Y57467794I-1524000J0D01*
G01*
X126301380Y54927794D02*
G75*
G03*
X126301380Y54927794I-1524000J0D01*
G01*
D12*
%TO.C,D9*%
X51751525Y66111191D02*
X49451525Y66111191D01*
X51751525Y66111191D02*
X51751525Y70811191D01*
X49451525Y70811191D02*
X49451525Y66111191D01*
X51751525Y70811191D02*
X49451525Y70811191D01*
%TO.C,D24*%
X127951589Y66111191D02*
X125651589Y66111191D01*
X127951589Y66111191D02*
X127951589Y70811191D01*
X125651589Y70811191D02*
X125651589Y66111191D01*
X127951589Y70811191D02*
X125651589Y70811191D01*
%TO.C,C_3V-Decoup5*%
X19959936Y46569923D02*
X19959936Y47489923D01*
X19959936Y47489923D02*
X18139936Y47489923D01*
X18139936Y46569923D02*
X19959936Y46569923D01*
X18139936Y47489923D02*
X18139936Y46569923D01*
%TO.C,R_DATA2*%
X21008333Y58377801D02*
X20068333Y58377801D01*
X20068333Y58377801D02*
X20068333Y56517801D01*
X21008333Y56517801D02*
X21008333Y58377801D01*
X20068333Y56517801D02*
X21008333Y56517801D01*
D11*
%TO.C,MX34*%
X178561880Y18097794D02*
X176021880Y18097794D01*
X178561880Y20637794D02*
X178561880Y18097794D01*
D10*
X176749880Y21287794D02*
X176749880Y16887794D01*
X176749880Y21287794D02*
X167449880Y21287794D01*
D11*
X176021880Y18097794D02*
X176021880Y20637794D01*
X176021880Y20637794D02*
X178561880Y20637794D01*
D10*
X171049880Y16887794D02*
X176749880Y16887794D01*
D11*
X165607880Y15557794D02*
X165607880Y18097794D01*
X165607880Y18097794D02*
X163067880Y18097794D01*
D10*
X164949880Y14887794D02*
X169049880Y14887794D01*
X164949880Y18787794D02*
X164949880Y14887794D01*
D11*
X163067880Y15557794D02*
X165607880Y15557794D01*
X163067880Y18097794D02*
X163067880Y15557794D01*
D10*
X171049880Y16887794D02*
G75*
G03*
X169049880Y14887794I-1J-1999999D01*
G01*
X167449880Y21287794D02*
G75*
G03*
X164949880Y18787794I0J-2500000D01*
G01*
D11*
X175513880Y19367794D02*
G75*
G03*
X175513880Y19367794I-1524000J0D01*
G01*
X169163880Y16827794D02*
G75*
G03*
X169163880Y16827794I-1524000J0D01*
G01*
D12*
%TO.C,C_LD2*%
X12339251Y62000627D02*
X13259251Y62000627D01*
X13259251Y62000627D02*
X13259251Y63820627D01*
X12339251Y63820627D02*
X12339251Y62000627D01*
X13259251Y63820627D02*
X12339251Y63820627D01*
%TO.C,J1*%
X28283188Y66705627D02*
X28283188Y58905627D01*
X21723188Y66705627D02*
X28283188Y66705627D01*
X28283188Y58905627D02*
X21723188Y58905627D01*
X21723188Y58905627D02*
X21723188Y66705627D01*
D11*
%TO.C,MX19*%
X88074380Y13335024D02*
X85534380Y13335024D01*
X88074380Y15875024D02*
X88074380Y13335024D01*
D10*
X86262380Y16525024D02*
X86262380Y12125024D01*
X86262380Y16525024D02*
X76962380Y16525024D01*
D11*
X85534380Y13335024D02*
X85534380Y15875024D01*
X85534380Y15875024D02*
X88074380Y15875024D01*
D10*
X80562380Y12125024D02*
X86262380Y12125024D01*
D11*
X75120380Y10795024D02*
X72580380Y10795024D01*
X75120380Y13335024D02*
X75120380Y10795024D01*
D10*
X74462380Y10125024D02*
X78562380Y10125024D01*
X74462380Y14025024D02*
X74462380Y10125024D01*
D11*
X72580380Y10795024D02*
X72580380Y13335024D01*
X72580380Y13335024D02*
X75120380Y13335024D01*
D10*
X80562380Y12125024D02*
G75*
G03*
X78562380Y10125024I-1J-1999999D01*
G01*
X76962380Y16525024D02*
G75*
G03*
X74462380Y14025024I0J-2500000D01*
G01*
D11*
X85026380Y14605024D02*
G75*
G03*
X85026380Y14605024I-1524000J0D01*
G01*
X78676380Y12065024D02*
G75*
G03*
X78676380Y12065024I-1524000J0D01*
G01*
D12*
%TO.C,D21*%
X114259390Y46465862D02*
X111959390Y46465862D01*
X114259390Y46465862D02*
X114259390Y51165862D01*
X111959390Y51165862D02*
X111959390Y46465862D01*
X114259390Y51165862D02*
X111959390Y51165862D01*
%TO.C,Y1*%
X26847492Y30309388D02*
X29817341Y33279237D01*
X29251655Y27905225D02*
X26847492Y30309388D01*
X29817341Y33279237D02*
X32221504Y30875074D01*
X32221504Y30875074D02*
X29251655Y27905225D01*
%TO.C,D5*%
X32701509Y66111191D02*
X30401509Y66111191D01*
X32701509Y66111191D02*
X32701509Y70811191D01*
X30401509Y70811191D02*
X30401509Y66111191D01*
X32701509Y70811191D02*
X30401509Y70811191D01*
D11*
%TO.C,MX31*%
X169036880Y75247794D02*
X166496880Y75247794D01*
X169036880Y77787794D02*
X169036880Y75247794D01*
D10*
X167224880Y78437794D02*
X167224880Y74037794D01*
X167224880Y78437794D02*
X157924880Y78437794D01*
D11*
X166496880Y75247794D02*
X166496880Y77787794D01*
X166496880Y77787794D02*
X169036880Y77787794D01*
D10*
X161524880Y74037794D02*
X167224880Y74037794D01*
D11*
X156082880Y72707794D02*
X156082880Y75247794D01*
X156082880Y75247794D02*
X153542880Y75247794D01*
D10*
X155424880Y72037794D02*
X159524880Y72037794D01*
X155424880Y75937794D02*
X155424880Y72037794D01*
D11*
X153542880Y72707794D02*
X156082880Y72707794D01*
X153542880Y75247794D02*
X153542880Y72707794D01*
D10*
X161524880Y74037794D02*
G75*
G03*
X159524880Y72037794I-1J-1999999D01*
G01*
X157924880Y78437794D02*
G75*
G03*
X155424880Y75937794I0J-2500000D01*
G01*
D11*
X165988880Y76517794D02*
G75*
G03*
X165988880Y76517794I-1524000J0D01*
G01*
X159638880Y73977794D02*
G75*
G03*
X159638880Y73977794I-1524000J0D01*
G01*
%TD*%
M02*
