%TF.GenerationSoftware,KiCad,Pcbnew,7.0.6*%
%TF.CreationDate,2023-09-25T18:19:59-04:00*%
%TF.ProjectId,cutiepie2040-dual-stagger-hotswap-pcb,63757469-6570-4696-9532-3034302d6475,rev?*%
%TF.SameCoordinates,PX2d6b3a0PY6f46b48*%
%TF.FileFunction,AssemblyDrawing,Bot*%
%FSLAX46Y46*%
G04 Gerber Fmt 4.6, Leading zero omitted, Abs format (unit mm)*
G04 Created by KiCad (PCBNEW 7.0.6) date 2023-09-25 18:19:59*
%MOMM*%
%LPD*%
G01*
G04 APERTURE LIST*
%ADD10C,0.150000*%
%ADD11C,0.100000*%
G04 APERTURE END LIST*
D10*
X189880732Y58282929D02*
X189880732Y59282929D01*
X189880732Y59282929D02*
X189547399Y58568644D01*
X189547399Y58568644D02*
X189214066Y59282929D01*
X189214066Y59282929D02*
X189214066Y58282929D01*
X188833113Y59282929D02*
X188166447Y58282929D01*
X188166447Y59282929D02*
X188833113Y58282929D01*
X187356923Y58949596D02*
X187356923Y58282929D01*
X187595018Y59330548D02*
X187833113Y58616263D01*
X187833113Y58616263D02*
X187214066Y58616263D01*
X186785494Y58282929D02*
X186595018Y58282929D01*
X186595018Y58282929D02*
X186499780Y58330548D01*
X186499780Y58330548D02*
X186452161Y58378168D01*
X186452161Y58378168D02*
X186356923Y58521025D01*
X186356923Y58521025D02*
X186309304Y58711501D01*
X186309304Y58711501D02*
X186309304Y59092453D01*
X186309304Y59092453D02*
X186356923Y59187691D01*
X186356923Y59187691D02*
X186404542Y59235310D01*
X186404542Y59235310D02*
X186499780Y59282929D01*
X186499780Y59282929D02*
X186690256Y59282929D01*
X186690256Y59282929D02*
X186785494Y59235310D01*
X186785494Y59235310D02*
X186833113Y59187691D01*
X186833113Y59187691D02*
X186880732Y59092453D01*
X186880732Y59092453D02*
X186880732Y58854358D01*
X186880732Y58854358D02*
X186833113Y58759120D01*
X186833113Y58759120D02*
X186785494Y58711501D01*
X186785494Y58711501D02*
X186690256Y58663882D01*
X186690256Y58663882D02*
X186499780Y58663882D01*
X186499780Y58663882D02*
X186404542Y58711501D01*
X186404542Y58711501D02*
X186356923Y58759120D01*
X186356923Y58759120D02*
X186309304Y58854358D01*
X185118088Y29707695D02*
X185118088Y30707695D01*
X185118088Y30707695D02*
X184784755Y29993410D01*
X184784755Y29993410D02*
X184451422Y30707695D01*
X184451422Y30707695D02*
X184451422Y29707695D01*
X184070469Y30707695D02*
X183403803Y29707695D01*
X183403803Y30707695D02*
X184070469Y29707695D01*
X182594279Y30374362D02*
X182594279Y29707695D01*
X182832374Y30755314D02*
X183070469Y30041029D01*
X183070469Y30041029D02*
X182451422Y30041029D01*
X181927612Y30279124D02*
X182022850Y30326743D01*
X182022850Y30326743D02*
X182070469Y30374362D01*
X182070469Y30374362D02*
X182118088Y30469600D01*
X182118088Y30469600D02*
X182118088Y30517219D01*
X182118088Y30517219D02*
X182070469Y30612457D01*
X182070469Y30612457D02*
X182022850Y30660076D01*
X182022850Y30660076D02*
X181927612Y30707695D01*
X181927612Y30707695D02*
X181737136Y30707695D01*
X181737136Y30707695D02*
X181641898Y30660076D01*
X181641898Y30660076D02*
X181594279Y30612457D01*
X181594279Y30612457D02*
X181546660Y30517219D01*
X181546660Y30517219D02*
X181546660Y30469600D01*
X181546660Y30469600D02*
X181594279Y30374362D01*
X181594279Y30374362D02*
X181641898Y30326743D01*
X181641898Y30326743D02*
X181737136Y30279124D01*
X181737136Y30279124D02*
X181927612Y30279124D01*
X181927612Y30279124D02*
X182022850Y30231505D01*
X182022850Y30231505D02*
X182070469Y30183886D01*
X182070469Y30183886D02*
X182118088Y30088648D01*
X182118088Y30088648D02*
X182118088Y29898172D01*
X182118088Y29898172D02*
X182070469Y29802934D01*
X182070469Y29802934D02*
X182022850Y29755314D01*
X182022850Y29755314D02*
X181927612Y29707695D01*
X181927612Y29707695D02*
X181737136Y29707695D01*
X181737136Y29707695D02*
X181641898Y29755314D01*
X181641898Y29755314D02*
X181594279Y29802934D01*
X181594279Y29802934D02*
X181546660Y29898172D01*
X181546660Y29898172D02*
X181546660Y30088648D01*
X181546660Y30088648D02*
X181594279Y30183886D01*
X181594279Y30183886D02*
X181641898Y30231505D01*
X181641898Y30231505D02*
X181737136Y30279124D01*
X18430588Y36057905D02*
X18430588Y37057905D01*
X18430588Y37057905D02*
X18097255Y36343620D01*
X18097255Y36343620D02*
X17763922Y37057905D01*
X17763922Y37057905D02*
X17763922Y36057905D01*
X17382969Y37057905D02*
X16716303Y36057905D01*
X16716303Y37057905D02*
X17382969Y36057905D01*
X15906779Y36724572D02*
X15906779Y36057905D01*
X16144874Y37105524D02*
X16382969Y36391239D01*
X16382969Y36391239D02*
X15763922Y36391239D01*
X15192493Y37057905D02*
X15097255Y37057905D01*
X15097255Y37057905D02*
X15002017Y37010286D01*
X15002017Y37010286D02*
X14954398Y36962667D01*
X14954398Y36962667D02*
X14906779Y36867429D01*
X14906779Y36867429D02*
X14859160Y36676953D01*
X14859160Y36676953D02*
X14859160Y36438858D01*
X14859160Y36438858D02*
X14906779Y36248382D01*
X14906779Y36248382D02*
X14954398Y36153144D01*
X14954398Y36153144D02*
X15002017Y36105524D01*
X15002017Y36105524D02*
X15097255Y36057905D01*
X15097255Y36057905D02*
X15192493Y36057905D01*
X15192493Y36057905D02*
X15287731Y36105524D01*
X15287731Y36105524D02*
X15335350Y36153144D01*
X15335350Y36153144D02*
X15382969Y36248382D01*
X15382969Y36248382D02*
X15430588Y36438858D01*
X15430588Y36438858D02*
X15430588Y36676953D01*
X15430588Y36676953D02*
X15382969Y36867429D01*
X15382969Y36867429D02*
X15335350Y36962667D01*
X15335350Y36962667D02*
X15287731Y37010286D01*
X15287731Y37010286D02*
X15192493Y37057905D01*
D11*
%TO.C,C_1V-Decoup2*%
X27134318Y50101801D02*
X27634318Y50101801D01*
X27634318Y50101801D02*
X27634318Y51101801D01*
X27134318Y51101801D02*
X27134318Y50101801D01*
X27634318Y51101801D02*
X27134318Y51101801D01*
%TO.C,D6*%
X36009326Y47415862D02*
X37809326Y47415862D01*
X37809326Y47415862D02*
X37809326Y50215862D01*
X36909326Y48065862D02*
X36909326Y48465862D01*
X36909326Y48465862D02*
X36359326Y48465862D01*
X36909326Y48465862D02*
X37459326Y48465862D01*
X36909326Y48465862D02*
X37309326Y49065862D01*
X36509326Y49065862D02*
X36909326Y48465862D01*
X36909326Y49065862D02*
X36909326Y49565862D01*
X37309326Y49065862D02*
X36509326Y49065862D01*
X36009326Y50215862D02*
X36009326Y47415862D01*
X37809326Y50215862D02*
X36009326Y50215862D01*
%TO.C,D14*%
X74109358Y47415862D02*
X75909358Y47415862D01*
X75909358Y47415862D02*
X75909358Y50215862D01*
X75009358Y48065862D02*
X75009358Y48465862D01*
X75009358Y48465862D02*
X74459358Y48465862D01*
X75009358Y48465862D02*
X75559358Y48465862D01*
X75009358Y48465862D02*
X75409358Y49065862D01*
X74609358Y49065862D02*
X75009358Y48465862D01*
X75009358Y49065862D02*
X75009358Y49565862D01*
X75409358Y49065862D02*
X74609358Y49065862D01*
X74109358Y50215862D02*
X74109358Y47415862D01*
X75909358Y50215862D02*
X74109358Y50215862D01*
%TO.C,C_Crystal1*%
X30606431Y28813191D02*
X30959984Y28459638D01*
X30959984Y28459638D02*
X31667091Y29166745D01*
X31313538Y29520298D02*
X30606431Y28813191D01*
X31667091Y29166745D02*
X31313538Y29520298D01*
%TO.C,SW2*%
X12724928Y5639265D02*
X12724928Y6139265D01*
X12724928Y6139265D02*
X11724928Y6139265D01*
X12724928Y9339265D02*
X11724928Y9339265D01*
X12724928Y9839265D02*
X12724928Y9339265D01*
X12224928Y5639265D02*
X12224928Y6139265D01*
X12224928Y9839265D02*
X12224928Y9339265D01*
X12124928Y6539265D02*
X10724928Y5139265D01*
X12124928Y8939265D02*
X12124928Y6539265D01*
X11524928Y6739265D02*
X11524928Y8739265D01*
X11524928Y8739265D02*
X10524928Y9739265D01*
X11224928Y5639265D02*
X12724928Y5639265D01*
X11224928Y9839265D02*
X12724928Y9839265D01*
X10724928Y5139265D02*
X8324928Y5139265D01*
X10724928Y10339265D02*
X12124928Y8939265D01*
X10524928Y5739265D02*
X11524928Y6739265D01*
X10524928Y9739265D02*
X8524928Y9739265D01*
X8524928Y5739265D02*
X10524928Y5739265D01*
X8524928Y9739265D02*
X7524928Y8739265D01*
X8324928Y5139265D02*
X6924928Y6539265D01*
X8324928Y10339265D02*
X10724928Y10339265D01*
X7824928Y5639265D02*
X6324928Y5639265D01*
X7824928Y9839265D02*
X6324928Y9839265D01*
X7524928Y6739265D02*
X8524928Y5739265D01*
X7524928Y8739265D02*
X7524928Y6739265D01*
X6924928Y6539265D02*
X6924928Y8939265D01*
X6924928Y8939265D02*
X8324928Y10339265D01*
X6824928Y5639265D02*
X6824928Y6139265D01*
X6824928Y9839265D02*
X6824928Y9339265D01*
X6324928Y5639265D02*
X6324928Y6139265D01*
X6324928Y6139265D02*
X7324928Y6139265D01*
X6324928Y9339265D02*
X7324928Y9339265D01*
X6324928Y9839265D02*
X6324928Y9339265D01*
X10524928Y7739265D02*
G75*
G03*
X10524928Y7739265I-1000000J0D01*
G01*
%TO.C,D37*%
X196743836Y23008029D02*
X198543836Y23008029D01*
X198543836Y23008029D02*
X198543836Y25808029D01*
X197643836Y23658029D02*
X197643836Y24058029D01*
X197643836Y24058029D02*
X197093836Y24058029D01*
X197643836Y24058029D02*
X198193836Y24058029D01*
X197643836Y24058029D02*
X198043836Y24658029D01*
X197243836Y24658029D02*
X197643836Y24058029D01*
X197643836Y24658029D02*
X197643836Y25158029D01*
X198043836Y24658029D02*
X197243836Y24658029D01*
X196743836Y25808029D02*
X196743836Y23008029D01*
X198543836Y25808029D02*
X196743836Y25808029D01*
%TO.C,R_Crystal1*%
X27417481Y31966786D02*
X27799319Y31584948D01*
X27799319Y31584948D02*
X28541781Y32327410D01*
X28159943Y32709248D02*
X27417481Y31966786D01*
X28541781Y32327410D02*
X28159943Y32709248D01*
%TO.C,R_Flash2*%
X17334310Y13367082D02*
X17334310Y12827082D01*
X17334310Y12827082D02*
X18384310Y12827082D01*
X18384310Y13367082D02*
X17334310Y13367082D01*
X18384310Y12827082D02*
X18384310Y13367082D01*
%TO.C,D17*%
X93159374Y47415862D02*
X94959374Y47415862D01*
X94959374Y47415862D02*
X94959374Y50215862D01*
X94059374Y48065862D02*
X94059374Y48465862D01*
X94059374Y48465862D02*
X93509374Y48465862D01*
X94059374Y48465862D02*
X94609374Y48465862D01*
X94059374Y48465862D02*
X94459374Y49065862D01*
X93659374Y49065862D02*
X94059374Y48465862D01*
X94059374Y49065862D02*
X94059374Y49565862D01*
X94459374Y49065862D02*
X93659374Y49065862D01*
X93159374Y50215862D02*
X93159374Y47415862D01*
X94959374Y50215862D02*
X93159374Y50215862D01*
%TO.C,R_Flash1*%
X20765562Y12827082D02*
X20765562Y13367082D01*
X20765562Y13367082D02*
X19715562Y13367082D01*
X19715562Y12827082D02*
X20765562Y12827082D01*
X19715562Y13367082D02*
X19715562Y12827082D01*
%TO.C,SW1*%
X25374944Y9839265D02*
X25374944Y9339265D01*
X25374944Y9339265D02*
X26374944Y9339265D01*
X25374944Y6139265D02*
X26374944Y6139265D01*
X25374944Y5639265D02*
X25374944Y6139265D01*
X25874944Y9839265D02*
X25874944Y9339265D01*
X25874944Y5639265D02*
X25874944Y6139265D01*
X25974944Y8939265D02*
X27374944Y10339265D01*
X25974944Y6539265D02*
X25974944Y8939265D01*
X26574944Y8739265D02*
X26574944Y6739265D01*
X26574944Y6739265D02*
X27574944Y5739265D01*
X26874944Y9839265D02*
X25374944Y9839265D01*
X26874944Y5639265D02*
X25374944Y5639265D01*
X27374944Y10339265D02*
X29774944Y10339265D01*
X27374944Y5139265D02*
X25974944Y6539265D01*
X27574944Y9739265D02*
X26574944Y8739265D01*
X27574944Y5739265D02*
X29574944Y5739265D01*
X29574944Y9739265D02*
X27574944Y9739265D01*
X29574944Y5739265D02*
X30574944Y6739265D01*
X29774944Y10339265D02*
X31174944Y8939265D01*
X29774944Y5139265D02*
X27374944Y5139265D01*
X30274944Y9839265D02*
X31774944Y9839265D01*
X30274944Y5639265D02*
X31774944Y5639265D01*
X30574944Y8739265D02*
X29574944Y9739265D01*
X30574944Y6739265D02*
X30574944Y8739265D01*
X31174944Y8939265D02*
X31174944Y6539265D01*
X31174944Y6539265D02*
X29774944Y5139265D01*
X31274944Y9839265D02*
X31274944Y9339265D01*
X31274944Y5639265D02*
X31274944Y6139265D01*
X31774944Y9839265D02*
X31774944Y9339265D01*
X31774944Y9339265D02*
X30774944Y9339265D01*
X31774944Y6139265D02*
X30774944Y6139265D01*
X31774944Y5639265D02*
X31774944Y6139265D01*
X29574944Y7739265D02*
G75*
G03*
X29574944Y7739265I-1000000J0D01*
G01*
%TO.C,R_Flash3*%
X19715561Y12176456D02*
X19715561Y11636456D01*
X19715561Y11636456D02*
X20765561Y11636456D01*
X20765561Y12176456D02*
X19715561Y12176456D01*
X20765561Y11636456D02*
X20765561Y12176456D01*
%TO.C,D8*%
X34223387Y6934578D02*
X36023387Y6934578D01*
X36023387Y6934578D02*
X36023387Y9734578D01*
X35123387Y7584578D02*
X35123387Y7984578D01*
X35123387Y7984578D02*
X34573387Y7984578D01*
X35123387Y7984578D02*
X35673387Y7984578D01*
X35123387Y7984578D02*
X35523387Y8584578D01*
X34723387Y8584578D02*
X35123387Y7984578D01*
X35123387Y8584578D02*
X35123387Y9084578D01*
X35523387Y8584578D02*
X34723387Y8584578D01*
X34223387Y9734578D02*
X34223387Y6934578D01*
X36023387Y9734578D02*
X34223387Y9734578D01*
%TO.C,D20*%
X106851840Y67061191D02*
X108651840Y67061191D01*
X108651840Y67061191D02*
X108651840Y69861191D01*
X107751840Y67711191D02*
X107751840Y68111191D01*
X107751840Y68111191D02*
X107201840Y68111191D01*
X107751840Y68111191D02*
X108301840Y68111191D01*
X107751840Y68111191D02*
X108151840Y68711191D01*
X107351840Y68711191D02*
X107751840Y68111191D01*
X107751840Y68711191D02*
X107751840Y69211191D01*
X108151840Y68711191D02*
X107351840Y68711191D01*
X106851840Y69861191D02*
X106851840Y67061191D01*
X108651840Y69861191D02*
X106851840Y69861191D01*
%TO.C,D15*%
X87206244Y23008029D02*
X89006244Y23008029D01*
X89006244Y23008029D02*
X89006244Y25808029D01*
X88106244Y23658029D02*
X88106244Y24058029D01*
X88106244Y24058029D02*
X87556244Y24058029D01*
X88106244Y24058029D02*
X88656244Y24058029D01*
X88106244Y24058029D02*
X88506244Y24658029D01*
X87706244Y24658029D02*
X88106244Y24058029D01*
X88106244Y24658029D02*
X88106244Y25158029D01*
X88506244Y24658029D02*
X87706244Y24658029D01*
X87206244Y25808029D02*
X87206244Y23008029D01*
X89006244Y25808029D02*
X87206244Y25808029D01*
%TO.C,D31*%
X164001621Y67061191D02*
X165801621Y67061191D01*
X165801621Y67061191D02*
X165801621Y69861191D01*
X164901621Y67711191D02*
X164901621Y68111191D01*
X164901621Y68111191D02*
X164351621Y68111191D01*
X164901621Y68111191D02*
X165451621Y68111191D01*
X164901621Y68111191D02*
X165301621Y68711191D01*
X164501621Y68711191D02*
X164901621Y68111191D01*
X164901621Y68711191D02*
X164901621Y69211191D01*
X165301621Y68711191D02*
X164501621Y68711191D01*
X164001621Y69861191D02*
X164001621Y67061191D01*
X165801621Y69861191D02*
X164001621Y69861191D01*
%TO.C,C_3V-Decoup2*%
X21181304Y50101690D02*
X21681304Y50101690D01*
X21681304Y50101690D02*
X21681304Y51101690D01*
X21181304Y51101690D02*
X21181304Y50101690D01*
X21681304Y51101690D02*
X21181304Y51101690D01*
%TO.C,D13*%
X68751744Y67061191D02*
X70551744Y67061191D01*
X70551744Y67061191D02*
X70551744Y69861191D01*
X69651744Y67711191D02*
X69651744Y68111191D01*
X69651744Y68111191D02*
X69101744Y68111191D01*
X69651744Y68111191D02*
X70201744Y68111191D01*
X69651744Y68111191D02*
X70051744Y68711191D01*
X69251744Y68711191D02*
X69651744Y68111191D01*
X69651744Y68711191D02*
X69651744Y69211191D01*
X70051744Y68711191D02*
X69251744Y68711191D01*
X68751744Y69861191D02*
X68751744Y67061191D01*
X70551744Y69861191D02*
X68751744Y69861191D01*
%TO.C,D23*%
X125901589Y6934578D02*
X127701589Y6934578D01*
X127701589Y6934578D02*
X127701589Y9734578D01*
X126801589Y7584578D02*
X126801589Y7984578D01*
X126801589Y7984578D02*
X126251589Y7984578D01*
X126801589Y7984578D02*
X127351589Y7984578D01*
X126801589Y7984578D02*
X127201589Y8584578D01*
X126401589Y8584578D02*
X126801589Y7984578D01*
X126801589Y8584578D02*
X126801589Y9084578D01*
X127201589Y8584578D02*
X126401589Y8584578D01*
X125901589Y9734578D02*
X125901589Y6934578D01*
X127701589Y9734578D02*
X125901589Y9734578D01*
%TO.C,C_3V-Decoup7*%
X22371812Y50101690D02*
X22871812Y50101690D01*
X22871812Y50101690D02*
X22871812Y51101690D01*
X22371812Y51101690D02*
X22371812Y50101690D01*
X22871812Y51101690D02*
X22371812Y51101690D01*
%TO.C,D32*%
X169359438Y47415862D02*
X171159438Y47415862D01*
X171159438Y47415862D02*
X171159438Y50215862D01*
X170259438Y48065862D02*
X170259438Y48465862D01*
X170259438Y48465862D02*
X169709438Y48465862D01*
X170259438Y48465862D02*
X170809438Y48465862D01*
X170259438Y48465862D02*
X170659438Y49065862D01*
X169859438Y49065862D02*
X170259438Y48465862D01*
X170259438Y49065862D02*
X170259438Y49565862D01*
X170659438Y49065862D02*
X169859438Y49065862D01*
X169359438Y50215862D02*
X169359438Y47415862D01*
X171159438Y50215862D02*
X169359438Y50215862D01*
%TO.C,D4*%
X15173371Y6934578D02*
X16973371Y6934578D01*
X16973371Y6934578D02*
X16973371Y9734578D01*
X16073371Y7584578D02*
X16073371Y7984578D01*
X16073371Y7984578D02*
X15523371Y7984578D01*
X16073371Y7984578D02*
X16623371Y7984578D01*
X16073371Y7984578D02*
X16473371Y8584578D01*
X15673371Y8584578D02*
X16073371Y7984578D01*
X16073371Y8584578D02*
X16073371Y9084578D01*
X16473371Y8584578D02*
X15673371Y8584578D01*
X15173371Y9734578D02*
X15173371Y6934578D01*
X16973371Y9734578D02*
X15173371Y9734578D01*
%TO.C,C_3V-Decoup9*%
X33432761Y42112608D02*
X33432761Y41612608D01*
X33432761Y41612608D02*
X34432761Y41612608D01*
X34432761Y42112608D02*
X33432761Y42112608D01*
X34432761Y41612608D02*
X34432761Y42112608D01*
%TO.C,C_3V-Decoup4*%
X19549936Y42017419D02*
X19549936Y42517419D01*
X19549936Y42517419D02*
X18549936Y42517419D01*
X18549936Y42017419D02*
X19549936Y42017419D01*
X18549936Y42517419D02*
X18549936Y42017419D01*
%TO.C,D26*%
X144356292Y23008029D02*
X146156292Y23008029D01*
X146156292Y23008029D02*
X146156292Y25808029D01*
X145256292Y23658029D02*
X145256292Y24058029D01*
X145256292Y24058029D02*
X144706292Y24058029D01*
X145256292Y24058029D02*
X145806292Y24058029D01*
X145256292Y24058029D02*
X145656292Y24658029D01*
X144856292Y24658029D02*
X145256292Y24058029D01*
X145256292Y24658029D02*
X145256292Y25158029D01*
X145656292Y24658029D02*
X144856292Y24658029D01*
X144356292Y25808029D02*
X144356292Y23008029D01*
X146156292Y25808029D02*
X144356292Y25808029D01*
%TO.C,D28*%
X150309422Y47415862D02*
X152109422Y47415862D01*
X152109422Y47415862D02*
X152109422Y50215862D01*
X151209422Y48065862D02*
X151209422Y48465862D01*
X151209422Y48465862D02*
X150659422Y48465862D01*
X151209422Y48465862D02*
X151759422Y48465862D01*
X151209422Y48465862D02*
X151609422Y49065862D01*
X150809422Y49065862D02*
X151209422Y48465862D01*
X151209422Y49065862D02*
X151209422Y49565862D01*
X151609422Y49065862D02*
X150809422Y49065862D01*
X150309422Y50215862D02*
X150309422Y47415862D01*
X152109422Y50215862D02*
X150309422Y50215862D01*
%TO.C,R_DATA1*%
X21998959Y57972801D02*
X21458959Y57972801D01*
X21458959Y57972801D02*
X21458959Y56922801D01*
X21998959Y56922801D02*
X21998959Y57972801D01*
X21458959Y56922801D02*
X21998959Y56922801D01*
%TO.C,C_3V-Decoup8*%
X26128709Y35300440D02*
X25775156Y35653993D01*
X25775156Y35653993D02*
X25068049Y34946886D01*
X25421602Y34593333D02*
X26128709Y35300440D01*
X25068049Y34946886D02*
X25421602Y34593333D01*
%TO.C,C_Flash1*%
X41326517Y64730627D02*
X40826517Y64730627D01*
X40826517Y64730627D02*
X40826517Y63730627D01*
X41326517Y63730627D02*
X41326517Y64730627D01*
X40826517Y63730627D02*
X41326517Y63730627D01*
%TO.C,D10*%
X55059342Y47415862D02*
X56859342Y47415862D01*
X56859342Y47415862D02*
X56859342Y50215862D01*
X55959342Y48065862D02*
X55959342Y48465862D01*
X55959342Y48465862D02*
X55409342Y48465862D01*
X55959342Y48465862D02*
X56509342Y48465862D01*
X55959342Y48465862D02*
X56359342Y49065862D01*
X55559342Y49065862D02*
X55959342Y48465862D01*
X55959342Y49065862D02*
X55959342Y49565862D01*
X56359342Y49065862D02*
X55559342Y49065862D01*
X55059342Y50215862D02*
X55059342Y47415862D01*
X56859342Y50215862D02*
X55059342Y50215862D01*
%TO.C,D35*%
X177693820Y67061191D02*
X179493820Y67061191D01*
X179493820Y67061191D02*
X179493820Y69861191D01*
X178593820Y67711191D02*
X178593820Y68111191D01*
X178593820Y68111191D02*
X178043820Y68111191D01*
X178593820Y68111191D02*
X179143820Y68111191D01*
X178593820Y68111191D02*
X178993820Y68711191D01*
X178193820Y68711191D02*
X178593820Y68111191D01*
X178593820Y68711191D02*
X178593820Y69211191D01*
X178993820Y68711191D02*
X178193820Y68711191D01*
X177693820Y69861191D02*
X177693820Y67061191D01*
X179493820Y69861191D02*
X177693820Y69861191D01*
%TO.C,D38*%
X196743836Y6934578D02*
X198543836Y6934578D01*
X198543836Y6934578D02*
X198543836Y9734578D01*
X197643836Y7584578D02*
X197643836Y7984578D01*
X197643836Y7984578D02*
X197093836Y7984578D01*
X197643836Y7984578D02*
X198193836Y7984578D01*
X197643836Y7984578D02*
X198043836Y8584578D01*
X197243836Y8584578D02*
X197643836Y7984578D01*
X197643836Y8584578D02*
X197643836Y9084578D01*
X198043836Y8584578D02*
X197243836Y8584578D01*
X196743836Y9734578D02*
X196743836Y6934578D01*
X198543836Y9734578D02*
X196743836Y9734578D01*
%TO.C,D19*%
X87801557Y6934578D02*
X89601557Y6934578D01*
X89601557Y6934578D02*
X89601557Y9734578D01*
X88701557Y7584578D02*
X88701557Y7984578D01*
X88701557Y7984578D02*
X88151557Y7984578D01*
X88701557Y7984578D02*
X89251557Y7984578D01*
X88701557Y7984578D02*
X89101557Y8584578D01*
X88301557Y8584578D02*
X88701557Y7984578D01*
X88701557Y8584578D02*
X88701557Y9084578D01*
X89101557Y8584578D02*
X88301557Y8584578D01*
X87801557Y9734578D02*
X87801557Y6934578D01*
X89601557Y9734578D02*
X87801557Y9734578D01*
%TO.C,U3*%
X14028164Y62718127D02*
X16603164Y62718127D01*
X16603164Y62718127D02*
X16928164Y63043127D01*
X16928164Y63043127D02*
X16928164Y64018127D01*
X14028164Y64018127D02*
X14028164Y62718127D01*
X16928164Y64018127D02*
X14028164Y64018127D01*
%TO.C,D25*%
X131259406Y47415862D02*
X133059406Y47415862D01*
X133059406Y47415862D02*
X133059406Y50215862D01*
X132159406Y48065862D02*
X132159406Y48465862D01*
X132159406Y48465862D02*
X131609406Y48465862D01*
X132159406Y48465862D02*
X132709406Y48465862D01*
X132159406Y48465862D02*
X132559406Y49065862D01*
X131759406Y49065862D02*
X132159406Y48465862D01*
X132159406Y49065862D02*
X132159406Y49565862D01*
X132559406Y49065862D02*
X131759406Y49065862D01*
X131259406Y50215862D02*
X131259406Y47415862D01*
X133059406Y50215862D02*
X131259406Y50215862D01*
%TO.C,D11*%
X68156228Y23008029D02*
X69956228Y23008029D01*
X69956228Y23008029D02*
X69956228Y25808029D01*
X69056228Y23658029D02*
X69056228Y24058029D01*
X69056228Y24058029D02*
X68506228Y24058029D01*
X69056228Y24058029D02*
X69606228Y24058029D01*
X69056228Y24058029D02*
X69456228Y24658029D01*
X68656228Y24658029D02*
X69056228Y24058029D01*
X69056228Y24658029D02*
X69056228Y25158029D01*
X69456228Y24658029D02*
X68656228Y24658029D01*
X68156228Y25808029D02*
X68156228Y23008029D01*
X69956228Y25808029D02*
X68156228Y25808029D01*
%TO.C,C_1V-Decoup3*%
X25286808Y36142341D02*
X24933255Y36495894D01*
X24933255Y36495894D02*
X24226148Y35788787D01*
X24579701Y35435234D02*
X25286808Y36142341D01*
X24226148Y35788787D02*
X24579701Y35435234D01*
%TO.C,D18*%
X106256260Y23008029D02*
X108056260Y23008029D01*
X108056260Y23008029D02*
X108056260Y25808029D01*
X107156260Y23658029D02*
X107156260Y24058029D01*
X107156260Y24058029D02*
X106606260Y24058029D01*
X107156260Y24058029D02*
X107706260Y24058029D01*
X107156260Y24058029D02*
X107556260Y24658029D01*
X106756260Y24658029D02*
X107156260Y24058029D01*
X107156260Y24658029D02*
X107156260Y25158029D01*
X107556260Y24658029D02*
X106756260Y24658029D01*
X106256260Y25808029D02*
X106256260Y23008029D01*
X108056260Y25808029D02*
X106256260Y25808029D01*
%TO.C,D34*%
X177098507Y6934578D02*
X178898507Y6934578D01*
X178898507Y6934578D02*
X178898507Y9734578D01*
X177998507Y7584578D02*
X177998507Y7984578D01*
X177998507Y7984578D02*
X177448507Y7984578D01*
X177998507Y7984578D02*
X178548507Y7984578D01*
X177998507Y7984578D02*
X178398507Y8584578D01*
X177598507Y8584578D02*
X177998507Y7984578D01*
X177998507Y8584578D02*
X177998507Y9084578D01*
X178398507Y8584578D02*
X177598507Y8584578D01*
X177098507Y9734578D02*
X177098507Y6934578D01*
X178898507Y9734578D02*
X177098507Y9734578D01*
%TO.C,D2*%
X14578058Y47415862D02*
X16378058Y47415862D01*
X16378058Y47415862D02*
X16378058Y50215862D01*
X15478058Y48065862D02*
X15478058Y48465862D01*
X15478058Y48465862D02*
X14928058Y48465862D01*
X15478058Y48465862D02*
X16028058Y48465862D01*
X15478058Y48465862D02*
X15878058Y49065862D01*
X15078058Y49065862D02*
X15478058Y48465862D01*
X15478058Y49065862D02*
X15478058Y49565862D01*
X15878058Y49065862D02*
X15078058Y49065862D01*
X14578058Y50215862D02*
X14578058Y47415862D01*
X16378058Y50215862D02*
X14578058Y50215862D01*
%TO.C,D3*%
X22912440Y23008029D02*
X24712440Y23008029D01*
X24712440Y23008029D02*
X24712440Y25808029D01*
X23812440Y23658029D02*
X23812440Y24058029D01*
X23812440Y24058029D02*
X23262440Y24058029D01*
X23812440Y24058029D02*
X24362440Y24058029D01*
X23812440Y24058029D02*
X24212440Y24658029D01*
X23412440Y24658029D02*
X23812440Y24058029D01*
X23812440Y24658029D02*
X23812440Y25158029D01*
X24212440Y24658029D02*
X23412440Y24658029D01*
X22912440Y25808029D02*
X22912440Y23008029D01*
X24712440Y25808029D02*
X22912440Y25808029D01*
%TO.C,D29*%
X163406308Y23008029D02*
X165206308Y23008029D01*
X165206308Y23008029D02*
X165206308Y25808029D01*
X164306308Y23658029D02*
X164306308Y24058029D01*
X164306308Y24058029D02*
X163756308Y24058029D01*
X164306308Y24058029D02*
X164856308Y24058029D01*
X164306308Y24058029D02*
X164706308Y24658029D01*
X163906308Y24658029D02*
X164306308Y24058029D01*
X164306308Y24658029D02*
X164306308Y25158029D01*
X164706308Y24658029D02*
X163906308Y24658029D01*
X163406308Y25808029D02*
X163406308Y23008029D01*
X165206308Y25808029D02*
X163406308Y25808029D01*
%TO.C,D16*%
X87801792Y67061191D02*
X89601792Y67061191D01*
X89601792Y67061191D02*
X89601792Y69861191D01*
X88701792Y67711191D02*
X88701792Y68111191D01*
X88701792Y68111191D02*
X88151792Y68111191D01*
X88701792Y68111191D02*
X89251792Y68111191D01*
X88701792Y68111191D02*
X89101792Y68711191D01*
X88301792Y68711191D02*
X88701792Y68111191D01*
X88701792Y68711191D02*
X88701792Y69211191D01*
X89101792Y68711191D02*
X88301792Y68711191D01*
X87801792Y69861191D02*
X87801792Y67061191D01*
X89601792Y69861191D02*
X87801792Y69861191D01*
%TO.C,C_3V-Decoup6*%
X33432761Y46089297D02*
X33432761Y45589297D01*
X33432761Y45589297D02*
X34432761Y45589297D01*
X34432761Y46089297D02*
X33432761Y46089297D01*
X34432761Y45589297D02*
X34432761Y46089297D01*
%TO.C,D30*%
X158048491Y6934578D02*
X159848491Y6934578D01*
X159848491Y6934578D02*
X159848491Y9734578D01*
X158948491Y7584578D02*
X158948491Y7984578D01*
X158948491Y7984578D02*
X158398491Y7984578D01*
X158948491Y7984578D02*
X159498491Y7984578D01*
X158948491Y7984578D02*
X159348491Y8584578D01*
X158548491Y8584578D02*
X158948491Y7984578D01*
X158948491Y8584578D02*
X158948491Y9084578D01*
X159348491Y8584578D02*
X158548491Y8584578D01*
X158048491Y9734578D02*
X158048491Y6934578D01*
X159848491Y9734578D02*
X158048491Y9734578D01*
%TO.C,D1*%
X11601493Y67061191D02*
X13401493Y67061191D01*
X13401493Y67061191D02*
X13401493Y69861191D01*
X12501493Y67711191D02*
X12501493Y68111191D01*
X12501493Y68111191D02*
X11951493Y68111191D01*
X12501493Y68111191D02*
X13051493Y68111191D01*
X12501493Y68111191D02*
X12901493Y68711191D01*
X12101493Y68711191D02*
X12501493Y68111191D01*
X12501493Y68711191D02*
X12501493Y69211191D01*
X12901493Y68711191D02*
X12101493Y68711191D01*
X11601493Y69861191D02*
X11601493Y67061191D01*
X13401493Y69861191D02*
X11601493Y69861191D01*
%TO.C,C_3V-Decoup1*%
X19549936Y47970549D02*
X19549936Y48470549D01*
X19549936Y48470549D02*
X18549936Y48470549D01*
X18549936Y47970549D02*
X19549936Y47970549D01*
X18549936Y48470549D02*
X18549936Y47970549D01*
%TO.C,C_LD1*%
X18407077Y64325627D02*
X17907077Y64325627D01*
X17907077Y64325627D02*
X17907077Y63325627D01*
X18407077Y63325627D02*
X18407077Y64325627D01*
X17907077Y63325627D02*
X18407077Y63325627D01*
%TO.C,R_RST1*%
X17334310Y12176456D02*
X17334310Y11636456D01*
X17334310Y11636456D02*
X18384310Y11636456D01*
X18384310Y12176456D02*
X17334310Y12176456D01*
X18384310Y11636456D02*
X18384310Y12176456D01*
%TO.C,U2*%
X50239960Y60190627D02*
X50239960Y64420627D01*
X50239960Y64420627D02*
X49239960Y65420627D01*
X49239960Y65420627D02*
X45009960Y65420627D01*
X45009960Y60190627D02*
X50239960Y60190627D01*
X45009960Y65420627D02*
X45009960Y60190627D01*
%TO.C,D33*%
X177693820Y23008029D02*
X179493820Y23008029D01*
X179493820Y23008029D02*
X179493820Y25808029D01*
X178593820Y23658029D02*
X178593820Y24058029D01*
X178593820Y24058029D02*
X178043820Y24058029D01*
X178593820Y24058029D02*
X179143820Y24058029D01*
X178593820Y24058029D02*
X178993820Y24658029D01*
X178193820Y24658029D02*
X178593820Y24058029D01*
X178593820Y24658029D02*
X178593820Y25158029D01*
X178993820Y24658029D02*
X178193820Y24658029D01*
X177693820Y25808029D02*
X177693820Y23008029D01*
X179493820Y25808029D02*
X177693820Y25808029D01*
%TO.C,D36*%
X190790706Y47415862D02*
X192590706Y47415862D01*
X192590706Y47415862D02*
X192590706Y50215862D01*
X191690706Y48065862D02*
X191690706Y48465862D01*
X191690706Y48465862D02*
X191140706Y48465862D01*
X191690706Y48465862D02*
X192240706Y48465862D01*
X191690706Y48465862D02*
X192090706Y49065862D01*
X191290706Y49065862D02*
X191690706Y48465862D01*
X191690706Y49065862D02*
X191690706Y49565862D01*
X192090706Y49065862D02*
X191290706Y49065862D01*
X190790706Y50215862D02*
X190790706Y47415862D01*
X192590706Y50215862D02*
X190790706Y50215862D01*
%TO.C,D7*%
X49106212Y23008029D02*
X50906212Y23008029D01*
X50906212Y23008029D02*
X50906212Y25808029D01*
X50006212Y23658029D02*
X50006212Y24058029D01*
X50006212Y24058029D02*
X49456212Y24058029D01*
X50006212Y24058029D02*
X50556212Y24058029D01*
X50006212Y24058029D02*
X50406212Y24658029D01*
X49606212Y24658029D02*
X50006212Y24058029D01*
X50006212Y24658029D02*
X50006212Y25158029D01*
X50406212Y24658029D02*
X49606212Y24658029D01*
X49106212Y25808029D02*
X49106212Y23008029D01*
X50906212Y25808029D02*
X49106212Y25808029D01*
%TO.C,D12*%
X53273403Y6934578D02*
X55073403Y6934578D01*
X55073403Y6934578D02*
X55073403Y9734578D01*
X54173403Y7584578D02*
X54173403Y7984578D01*
X54173403Y7984578D02*
X53623403Y7984578D01*
X54173403Y7984578D02*
X54723403Y7984578D01*
X54173403Y7984578D02*
X54573403Y8584578D01*
X53773403Y8584578D02*
X54173403Y7984578D01*
X54173403Y8584578D02*
X54173403Y9084578D01*
X54573403Y8584578D02*
X53773403Y8584578D01*
X53273403Y9734578D02*
X53273403Y6934578D01*
X55073403Y9734578D02*
X53273403Y9734578D01*
%TO.C,C_1V-Decoup1*%
X23562440Y50101690D02*
X24062440Y50101690D01*
X24062440Y50101690D02*
X24062440Y51101690D01*
X23562440Y51101690D02*
X23562440Y50101690D01*
X24062440Y51101690D02*
X23562440Y51101690D01*
%TO.C,C_3V-Decoup3*%
X25943692Y50101801D02*
X26443692Y50101801D01*
X26443692Y50101801D02*
X26443692Y51101801D01*
X25943692Y51101801D02*
X25943692Y50101801D01*
X26443692Y51101801D02*
X25943692Y51101801D01*
%TO.C,D22*%
X125306276Y23008029D02*
X127106276Y23008029D01*
X127106276Y23008029D02*
X127106276Y25808029D01*
X126206276Y23658029D02*
X126206276Y24058029D01*
X126206276Y24058029D02*
X125656276Y24058029D01*
X126206276Y24058029D02*
X126756276Y24058029D01*
X126206276Y24058029D02*
X126606276Y24658029D01*
X125806276Y24658029D02*
X126206276Y24058029D01*
X126206276Y24658029D02*
X126206276Y25158029D01*
X126606276Y24658029D02*
X125806276Y24658029D01*
X125306276Y25808029D02*
X125306276Y23008029D01*
X127106276Y25808029D02*
X125306276Y25808029D01*
%TO.C,U1*%
X29778188Y39362608D02*
X29778188Y45362608D01*
X29778188Y45362608D02*
X28778188Y46362608D01*
X28778188Y46362608D02*
X22778188Y46362608D01*
X22778188Y39362608D02*
X29778188Y39362608D01*
X22778188Y46362608D02*
X22778188Y39362608D01*
%TO.C,J2*%
X3651172Y26987724D02*
X3651172Y39052724D01*
X3651172Y39052724D02*
X3016172Y39687724D01*
X3016172Y39687724D02*
X1111172Y39687724D01*
X1111172Y26987724D02*
X3651172Y26987724D01*
X1111172Y39687724D02*
X1111172Y26987724D01*
%TO.C,D27*%
X144951605Y67061191D02*
X146751605Y67061191D01*
X146751605Y67061191D02*
X146751605Y69861191D01*
X145851605Y67711191D02*
X145851605Y68111191D01*
X145851605Y68111191D02*
X145301605Y68111191D01*
X145851605Y68111191D02*
X146401605Y68111191D01*
X145851605Y68111191D02*
X146251605Y68711191D01*
X145451605Y68711191D02*
X145851605Y68111191D01*
X145851605Y68711191D02*
X145851605Y69211191D01*
X146251605Y68711191D02*
X145451605Y68711191D01*
X144951605Y69861191D02*
X144951605Y67061191D01*
X146751605Y69861191D02*
X144951605Y69861191D01*
%TO.C,C_Crystal2*%
X27816997Y28167624D02*
X28170550Y28521177D01*
X28170550Y28521177D02*
X27463443Y29228284D01*
X27109890Y28874731D02*
X27816997Y28167624D01*
X27463443Y29228284D02*
X27109890Y28874731D01*
%TO.C,D9*%
X49701525Y67061191D02*
X51501525Y67061191D01*
X51501525Y67061191D02*
X51501525Y69861191D01*
X50601525Y67711191D02*
X50601525Y68111191D01*
X50601525Y68111191D02*
X50051525Y68111191D01*
X50601525Y68111191D02*
X51151525Y68111191D01*
X50601525Y68111191D02*
X51001525Y68711191D01*
X50201525Y68711191D02*
X50601525Y68111191D01*
X50601525Y68711191D02*
X50601525Y69211191D01*
X51001525Y68711191D02*
X50201525Y68711191D01*
X49701525Y69861191D02*
X49701525Y67061191D01*
X51501525Y69861191D02*
X49701525Y69861191D01*
%TO.C,D24*%
X125901589Y67061191D02*
X127701589Y67061191D01*
X127701589Y67061191D02*
X127701589Y69861191D01*
X126801589Y67711191D02*
X126801589Y68111191D01*
X126801589Y68111191D02*
X126251589Y68111191D01*
X126801589Y68111191D02*
X127351589Y68111191D01*
X126801589Y68111191D02*
X127201589Y68711191D01*
X126401589Y68711191D02*
X126801589Y68111191D01*
X126801589Y68711191D02*
X126801589Y69211191D01*
X127201589Y68711191D02*
X126401589Y68711191D01*
X125901589Y69861191D02*
X125901589Y67061191D01*
X127701589Y69861191D02*
X125901589Y69861191D01*
%TO.C,C_3V-Decoup5*%
X19549936Y46779923D02*
X19549936Y47279923D01*
X19549936Y47279923D02*
X18549936Y47279923D01*
X18549936Y46779923D02*
X19549936Y46779923D01*
X18549936Y47279923D02*
X18549936Y46779923D01*
%TO.C,R_DATA2*%
X20808333Y57972801D02*
X20268333Y57972801D01*
X20268333Y57972801D02*
X20268333Y56922801D01*
X20808333Y56922801D02*
X20808333Y57972801D01*
X20268333Y56922801D02*
X20808333Y56922801D01*
%TO.C,C_LD2*%
X12549251Y62410627D02*
X13049251Y62410627D01*
X13049251Y62410627D02*
X13049251Y63410627D01*
X12549251Y63410627D02*
X12549251Y62410627D01*
X13049251Y63410627D02*
X12549251Y63410627D01*
%TO.C,J1*%
X27578188Y65805627D02*
X27578188Y59805627D01*
X23328188Y65805627D02*
X27578188Y65805627D01*
X23328188Y65805627D02*
X23328188Y59805627D01*
X23328188Y64805627D02*
X24035295Y64305627D01*
X24035295Y64305627D02*
X23328188Y63805627D01*
X23328188Y59805627D02*
X27578188Y59805627D01*
%TO.C,D21*%
X112209390Y47415862D02*
X114009390Y47415862D01*
X114009390Y47415862D02*
X114009390Y50215862D01*
X113109390Y48065862D02*
X113109390Y48465862D01*
X113109390Y48465862D02*
X112559390Y48465862D01*
X113109390Y48465862D02*
X113659390Y48465862D01*
X113109390Y48465862D02*
X113509390Y49065862D01*
X112709390Y49065862D02*
X113109390Y48465862D01*
X113109390Y49065862D02*
X113109390Y49565862D01*
X113509390Y49065862D02*
X112709390Y49065862D01*
X112209390Y50215862D02*
X112209390Y47415862D01*
X114009390Y50215862D02*
X112209390Y50215862D01*
%TO.C,Y1*%
X27519244Y30344744D02*
X29781985Y32607485D01*
X28226350Y29637637D02*
X28226350Y31051850D01*
X29287011Y28576977D02*
X27519244Y30344744D01*
X29781985Y32607485D02*
X31549752Y30839718D01*
X31549752Y30839718D02*
X29287011Y28576977D01*
%TO.C,D5*%
X30651509Y67061191D02*
X32451509Y67061191D01*
X32451509Y67061191D02*
X32451509Y69861191D01*
X31551509Y67711191D02*
X31551509Y68111191D01*
X31551509Y68111191D02*
X31001509Y68111191D01*
X31551509Y68111191D02*
X32101509Y68111191D01*
X31551509Y68111191D02*
X31951509Y68711191D01*
X31151509Y68711191D02*
X31551509Y68111191D01*
X31551509Y68711191D02*
X31551509Y69211191D01*
X31951509Y68711191D02*
X31151509Y68711191D01*
X30651509Y69861191D02*
X30651509Y67061191D01*
X32451509Y69861191D02*
X30651509Y69861191D01*
%TD*%
M02*
