M48
; DRILL file {KiCad 7.0.6} date Sun Dec  3 11:03:45 2023
; FORMAT={-:-/ absolute / metric / decimal}
; #@! TF.CreationDate,2023-12-03T11:03:45-05:00
; #@! TF.GenerationSoftware,Kicad,Pcbnew,7.0.6
; #@! TF.FileFunction,NonPlated,1,2,NPTH
FMAT,2
METRIC
; #@! TA.AperFunction,NonPlated,NPTH,ComponentDrill
T1C0.500
; #@! TA.AperFunction,NonPlated,NPTH,ComponentDrill
T2C1.750
; #@! TA.AperFunction,NonPlated,NPTH,ComponentDrill
T3C3.000
; #@! TA.AperFunction,NonPlated,NPTH,ComponentDrill
T4C3.048
; #@! TA.AperFunction,NonPlated,NPTH,ComponentDrill
T5C3.988
%
G90
G05
T1
X57.728Y4.763
X58.478Y4.763
X59.228Y4.763
X59.978Y4.763
X60.728Y4.763
X61.478Y4.763
X62.228Y4.763
X62.978Y4.763
X63.728Y4.763
X64.478Y4.763
X65.228Y4.763
X65.978Y4.763
T2
X4.445Y71.438
X4.445Y52.388
X4.445Y33.338
X4.445Y14.317
X6.826Y14.317
X14.605Y71.438
X14.605Y52.388
X14.605Y33.338
X14.605Y14.317
X16.986Y14.317
X23.495Y71.438
X23.495Y52.388
X23.495Y33.338
X23.495Y14.317
X28.257Y14.317
X33.655Y71.438
X33.655Y52.388
X33.655Y33.338
X33.655Y14.317
X38.417Y14.317
X42.545Y71.438
X42.545Y52.388
X42.545Y33.338
X42.545Y14.317
X49.689Y14.317
X52.705Y71.438
X52.705Y52.388
X52.705Y33.338
X52.705Y14.317
X59.849Y14.317
X61.595Y71.438
X61.595Y52.388
X61.595Y33.338
X71.755Y71.438
X71.755Y52.388
X71.755Y33.338
X75.882Y9.555
X80.645Y71.438
X80.645Y52.388
X80.645Y33.338
X83.026Y9.555
X86.042Y9.555
X90.805Y71.438
X90.805Y52.388
X90.805Y33.338
X93.186Y9.555
X94.933Y9.555
X105.093Y9.555
X109.22Y71.438
X109.22Y52.388
X109.22Y33.338
X113.983Y9.555
X116.364Y9.555
X119.38Y71.438
X119.38Y52.388
X119.38Y33.338
X124.143Y9.555
X126.524Y9.555
X128.27Y71.438
X128.27Y52.388
X128.27Y33.338
X138.43Y71.438
X138.43Y52.388
X138.43Y33.338
X147.32Y71.438
X147.32Y52.388
X147.32Y33.338
X147.32Y14.288
X157.48Y71.438
X157.48Y52.388
X157.48Y33.338
X157.48Y14.288
X166.37Y71.438
X166.37Y52.388
X166.37Y33.338
X166.37Y14.288
X176.53Y71.438
X176.53Y52.388
X176.53Y33.338
X176.53Y14.288
X185.42Y71.438
X185.42Y52.388
X185.42Y33.338
X185.42Y14.288
X195.58Y71.438
X195.58Y52.388
X195.58Y33.338
X195.58Y14.288
T3
X5.715Y73.978
X5.715Y54.928
X5.715Y16.857
X6.985Y28.258
X12.065Y76.518
X12.065Y57.468
X12.065Y19.397
X13.335Y30.798
X24.765Y73.978
X24.765Y54.928
X24.765Y16.857
X26.035Y28.258
X31.115Y76.518
X31.115Y57.468
X31.115Y19.397
X32.385Y30.798
X43.815Y73.978
X43.815Y54.928
X43.815Y35.878
X43.815Y16.857
X50.165Y76.518
X50.165Y57.468
X50.165Y38.418
X50.165Y19.397
X62.865Y73.978
X62.865Y54.928
X62.865Y35.878
X69.215Y76.518
X69.215Y57.468
X69.215Y38.418
X77.152Y12.095
X81.915Y73.978
X81.915Y54.928
X81.915Y35.878
X83.502Y14.635
X88.265Y76.518
X88.265Y57.468
X88.265Y38.418
X96.203Y12.095
X102.553Y14.635
X110.49Y73.978
X110.49Y54.928
X110.49Y35.878
X115.253Y12.095
X116.84Y76.518
X116.84Y57.468
X116.84Y38.418
X121.603Y14.635
X129.54Y73.978
X129.54Y54.928
X129.54Y35.878
X135.89Y76.518
X135.89Y57.468
X135.89Y38.418
X148.59Y73.978
X148.59Y54.928
X148.59Y35.878
X148.59Y16.828
X154.94Y76.518
X154.94Y57.468
X154.94Y38.418
X154.94Y19.368
X167.64Y73.978
X167.64Y54.928
X167.64Y35.878
X167.64Y16.828
X173.99Y76.518
X173.99Y57.468
X173.99Y38.418
X173.99Y19.368
X186.69Y73.978
X186.69Y54.928
X186.69Y35.878
X186.69Y16.828
X193.04Y76.518
X193.04Y57.468
X193.04Y38.418
X193.04Y19.368
T4
X69.024Y2.57
X71.438Y2.57
X92.9Y2.57
X107.125Y2.57
X128.588Y2.57
X131.001Y2.57
T5
X9.525Y71.438
X9.525Y52.388
X9.525Y33.338
X9.525Y14.317
X11.906Y14.317
X28.575Y71.438
X28.575Y52.388
X28.575Y33.338
X28.575Y14.317
X33.337Y14.317
X47.625Y71.438
X47.625Y52.388
X47.625Y33.338
X47.625Y14.317
X54.769Y14.317
X66.675Y71.438
X66.675Y52.388
X66.675Y33.338
X69.024Y17.81
X71.438Y17.81
X80.962Y9.555
X85.725Y71.438
X85.725Y52.388
X85.725Y33.338
X88.106Y9.555
X92.9Y17.81
X100.013Y9.555
X107.125Y17.81
X114.3Y71.438
X114.3Y52.388
X114.3Y33.338
X119.063Y9.555
X121.444Y9.555
X128.588Y17.81
X131.001Y17.81
X133.35Y71.438
X133.35Y52.388
X133.35Y33.338
X152.4Y71.438
X152.4Y52.388
X152.4Y33.338
X152.4Y14.288
X171.45Y71.438
X171.45Y52.388
X171.45Y33.338
X171.45Y14.288
X190.5Y71.438
X190.5Y52.388
X190.5Y33.338
X190.5Y14.288
T0
M30
