M48
; DRILL file {KiCad 7.0.6} date Sat Oct  7 13:08:49 2023
; FORMAT={-:-/ absolute / metric / decimal}
; #@! TF.CreationDate,2023-10-07T13:08:49-04:00
; #@! TF.GenerationSoftware,Kicad,Pcbnew,7.0.6
; #@! TF.FileFunction,Plated,1,2,PTH
FMAT,2
METRIC
; #@! TA.AperFunction,Plated,PTH,ComponentDrill
T1C0.300
; #@! TA.AperFunction,Plated,PTH,ViaDrill
T2C0.400
; #@! TA.AperFunction,Plated,PTH,ComponentDrill
T3C0.600
; #@! TA.AperFunction,Plated,PTH,ComponentDrill
T4C1.000
; #@! TA.AperFunction,Plated,PTH,ComponentDrill
T5C1.470
%
G90
G05
T1
X59.447Y-77.306
X59.447Y-78.581
X59.447Y-79.856
X60.722Y-77.306
X60.722Y-78.581
X60.722Y-79.856
X61.997Y-77.306
X61.997Y-78.581
X61.997Y-79.856
T2
X44.053Y-48.816
X44.053Y-67.866
X44.053Y-105.966
X45.244Y-94.655
X50.006Y-79.006
X51.792Y-76.2
X54.174Y-79.177
X54.471Y-75.01
X54.471Y-75.903
X55.662Y-61.317
X55.662Y-80.963
X56.257Y-57.081
X57.15Y-75.01
X57.745Y-63.103
X59.234Y-57.081
X60.722Y-72.628
X61.317Y-94.655
X63.103Y-48.816
X63.103Y-67.866
X63.103Y-105.966
X64.294Y-94.655
X65.6Y-80.367
X65.6Y-82.019
X66.56Y-82.019
X67.707Y-63.103
X68.461Y-79.474
X69.652Y-79.474
X71.735Y-77.255
X82.153Y-48.816
X82.153Y-67.866
X82.153Y-86.916
X82.153Y-105.966
X93.762Y-79.474
X101.203Y-48.816
X101.203Y-67.866
X101.203Y-86.916
X115.491Y-110.728
X120.253Y-48.816
X120.253Y-67.866
X120.253Y-86.916
X134.541Y-110.728
X148.828Y-48.816
X148.828Y-67.866
X148.828Y-86.916
X153.591Y-110.728
X167.879Y-48.816
X167.879Y-67.866
X167.879Y-86.916
X186.929Y-48.816
X186.929Y-67.866
X186.929Y-86.916
X186.929Y-105.966
X205.979Y-48.816
X205.979Y-67.866
X205.979Y-86.916
X205.979Y-105.966
X225.029Y-48.816
X225.029Y-67.866
X225.029Y-86.916
X225.029Y-105.966
T3
X98.172Y-55.152
X99.442Y-55.152
T4
X43.522Y-76.478
X43.522Y-79.018
X43.522Y-81.558
X43.522Y-84.098
X43.522Y-86.638
T5
X47.387Y-86.757
X48.657Y-56.277
X48.657Y-75.327
X48.657Y-113.397
X51.038Y-113.397
X53.737Y-84.217
X55.007Y-53.737
X55.007Y-72.787
X55.007Y-110.857
X57.388Y-110.857
X66.437Y-86.757
X67.707Y-56.277
X67.707Y-75.327
X67.707Y-113.397
X72.469Y-113.397
X72.787Y-84.217
X74.057Y-53.737
X74.057Y-72.787
X74.057Y-110.857
X78.819Y-110.857
X86.757Y-56.277
X86.757Y-75.327
X86.757Y-94.377
X86.757Y-113.397
X93.107Y-53.737
X93.107Y-72.787
X93.107Y-91.837
X93.107Y-110.857
X93.901Y-113.397
X100.251Y-110.857
X105.807Y-56.277
X105.807Y-75.327
X105.807Y-94.377
X112.157Y-53.737
X112.157Y-72.787
X112.157Y-91.837
X120.094Y-118.16
X124.857Y-56.277
X124.857Y-75.327
X124.857Y-94.377
X126.444Y-115.62
X127.238Y-118.16
X131.207Y-53.737
X131.207Y-72.787
X131.207Y-91.837
X133.588Y-115.62
X139.144Y-118.16
X145.494Y-115.62
X153.432Y-56.277
X153.432Y-75.327
X153.432Y-94.377
X158.195Y-118.16
X159.782Y-53.737
X159.782Y-72.787
X159.782Y-91.837
X160.576Y-118.16
X164.545Y-115.62
X166.926Y-115.62
X172.482Y-56.277
X172.482Y-75.327
X172.482Y-94.377
X178.832Y-53.737
X178.832Y-72.787
X178.832Y-91.837
X191.532Y-56.277
X191.532Y-75.327
X191.532Y-94.377
X191.532Y-113.427
X197.882Y-53.737
X197.882Y-72.787
X197.882Y-91.837
X197.882Y-110.887
X210.582Y-56.277
X210.582Y-75.327
X210.582Y-94.377
X210.582Y-113.427
X216.932Y-53.737
X216.932Y-72.787
X216.932Y-91.837
X216.932Y-110.887
X229.632Y-56.277
X229.632Y-75.327
X229.632Y-94.377
X229.632Y-113.427
X235.982Y-53.737
X235.982Y-72.787
X235.982Y-91.837
X235.982Y-110.887
T0
M30
