%TF.GenerationSoftware,KiCad,Pcbnew,7.0.6*%
%TF.CreationDate,2023-12-03T11:03:46-05:00*%
%TF.ProjectId,cutiepie2040-ortho-hotswap-solder-pcb,63757469-6570-4696-9532-3034302d6f72,rev?*%
%TF.SameCoordinates,PX27bdd2cPY74f41bc*%
%TF.FileFunction,Drillmap*%
%TF.FilePolarity,Positive*%
%FSLAX45Y45*%
G04 Gerber Fmt 4.5, Leading zero omitted, Abs format (unit mm)*
G04 Created by KiCad (PCBNEW 7.0.6) date 2023-12-03 11:03:46*
%MOMM*%
%LPD*%
G01*
G04 APERTURE LIST*
%ADD10C,0.100000*%
%ADD11C,0.200000*%
%ADD12C,0.050000*%
%ADD13C,0.175000*%
%ADD14C,0.300000*%
%ADD15C,0.304800*%
%ADD16C,0.398780*%
G04 APERTURE END LIST*
D10*
X14287505Y476271D02*
X19764385Y476271D01*
X20002511Y7858152D02*
G75*
G03*
X19764385Y8096277I-238129J-4D01*
G01*
X20002510Y7858152D02*
X20002510Y714396D01*
X19764385Y8096277D02*
X238118Y8096277D01*
X14287505Y476271D02*
G75*
G03*
X14049380Y238146I-3J-238122D01*
G01*
X5715014Y476251D02*
X238118Y476271D01*
X-7Y7858152D02*
X-7Y714396D01*
X7143768Y0D02*
X13811285Y0D01*
X13811255Y21D02*
G75*
G03*
X14049380Y238146I-3J238128D01*
G01*
X19764385Y476271D02*
G75*
G03*
X20002510Y714396I-3J238128D01*
G01*
X-5Y714396D02*
G75*
G03*
X238118Y476271I238127J2D01*
G01*
X238118Y8096277D02*
G75*
G03*
X-7Y7858152I0J-238125D01*
G01*
D11*
D12*
X5747751Y501251D02*
X5797751Y451251D01*
X5797751Y501251D02*
X5747751Y451251D01*
X5822751Y501251D02*
X5872751Y451251D01*
X5872751Y501251D02*
X5822751Y451251D01*
X5897751Y501251D02*
X5947751Y451251D01*
X5947751Y501251D02*
X5897751Y451251D01*
X5972751Y501251D02*
X6022751Y451251D01*
X6022751Y501251D02*
X5972751Y451251D01*
X6047751Y501251D02*
X6097751Y451251D01*
X6097751Y501251D02*
X6047751Y451251D01*
X6122751Y501251D02*
X6172751Y451251D01*
X6172751Y501251D02*
X6122751Y451251D01*
X6197751Y501251D02*
X6247751Y451251D01*
X6247751Y501251D02*
X6197751Y451251D01*
X6272751Y501251D02*
X6322751Y451251D01*
X6322751Y501251D02*
X6272751Y451251D01*
X6347751Y501251D02*
X6397751Y451251D01*
X6397751Y501251D02*
X6347751Y451251D01*
X6422751Y501251D02*
X6472751Y451251D01*
X6472751Y501251D02*
X6422751Y451251D01*
X6497751Y501251D02*
X6547751Y451251D01*
X6547751Y501251D02*
X6497751Y451251D01*
X6572751Y501251D02*
X6622751Y451251D01*
X6622751Y501251D02*
X6572751Y451251D01*
D13*
X531994Y7143777D02*
G75*
G03*
X531994Y7143777I-87500J0D01*
G01*
X531994Y5238777D02*
G75*
G03*
X531994Y5238777I-87500J0D01*
G01*
X531994Y3333777D02*
G75*
G03*
X531994Y3333777I-87500J0D01*
G01*
X531994Y1431734D02*
G75*
G03*
X531994Y1431734I-87500J0D01*
G01*
X770119Y1431734D02*
G75*
G03*
X770119Y1431734I-87500J0D01*
G01*
X1547994Y7143777D02*
G75*
G03*
X1547994Y7143777I-87500J0D01*
G01*
X1547994Y5238777D02*
G75*
G03*
X1547994Y5238777I-87500J0D01*
G01*
X1547994Y3333777D02*
G75*
G03*
X1547994Y3333777I-87500J0D01*
G01*
X1547994Y1431734D02*
G75*
G03*
X1547994Y1431734I-87500J0D01*
G01*
X1786119Y1431734D02*
G75*
G03*
X1786119Y1431734I-87500J0D01*
G01*
X2436994Y7143777D02*
G75*
G03*
X2436994Y7143777I-87500J0D01*
G01*
X2436994Y5238777D02*
G75*
G03*
X2436994Y5238777I-87500J0D01*
G01*
X2436994Y3333777D02*
G75*
G03*
X2436994Y3333777I-87500J0D01*
G01*
X2436995Y1431734D02*
G75*
G03*
X2436995Y1431734I-87500J0D01*
G01*
X2913246Y1431734D02*
G75*
G03*
X2913246Y1431734I-87500J0D01*
G01*
X3452994Y7143777D02*
G75*
G03*
X3452994Y7143777I-87500J0D01*
G01*
X3452994Y5238777D02*
G75*
G03*
X3452994Y5238777I-87500J0D01*
G01*
X3452994Y3333777D02*
G75*
G03*
X3452994Y3333777I-87500J0D01*
G01*
X3452995Y1431734D02*
G75*
G03*
X3452995Y1431734I-87500J0D01*
G01*
X3929246Y1431734D02*
G75*
G03*
X3929246Y1431734I-87500J0D01*
G01*
X4341994Y7143777D02*
G75*
G03*
X4341994Y7143777I-87500J0D01*
G01*
X4341994Y5238777D02*
G75*
G03*
X4341994Y5238777I-87500J0D01*
G01*
X4341994Y3333777D02*
G75*
G03*
X4341994Y3333777I-87500J0D01*
G01*
X4341997Y1431734D02*
G75*
G03*
X4341997Y1431734I-87500J0D01*
G01*
X5056373Y1431734D02*
G75*
G03*
X5056373Y1431734I-87500J0D01*
G01*
X5357994Y7143777D02*
G75*
G03*
X5357994Y7143777I-87500J0D01*
G01*
X5357994Y5238777D02*
G75*
G03*
X5357994Y5238777I-87500J0D01*
G01*
X5357994Y3333777D02*
G75*
G03*
X5357994Y3333777I-87500J0D01*
G01*
X5357997Y1431734D02*
G75*
G03*
X5357997Y1431734I-87500J0D01*
G01*
X6072373Y1431734D02*
G75*
G03*
X6072373Y1431734I-87500J0D01*
G01*
X6246994Y7143777D02*
G75*
G03*
X6246994Y7143777I-87500J0D01*
G01*
X6246994Y5238777D02*
G75*
G03*
X6246994Y5238777I-87500J0D01*
G01*
X6246994Y3333777D02*
G75*
G03*
X6246994Y3333777I-87500J0D01*
G01*
X7262994Y7143777D02*
G75*
G03*
X7262994Y7143777I-87500J0D01*
G01*
X7262994Y5238777D02*
G75*
G03*
X7262994Y5238777I-87500J0D01*
G01*
X7262994Y3333777D02*
G75*
G03*
X7262994Y3333777I-87500J0D01*
G01*
X7675750Y955484D02*
G75*
G03*
X7675750Y955484I-87500J0D01*
G01*
X8151994Y7143777D02*
G75*
G03*
X8151994Y7143777I-87500J0D01*
G01*
X8151994Y5238777D02*
G75*
G03*
X8151994Y5238777I-87500J0D01*
G01*
X8151994Y3333777D02*
G75*
G03*
X8151994Y3333777I-87500J0D01*
G01*
X8390125Y955484D02*
G75*
G03*
X8390125Y955484I-87500J0D01*
G01*
X8691750Y955484D02*
G75*
G03*
X8691750Y955484I-87500J0D01*
G01*
X9167994Y7143777D02*
G75*
G03*
X9167994Y7143777I-87500J0D01*
G01*
X9167994Y5238777D02*
G75*
G03*
X9167994Y5238777I-87500J0D01*
G01*
X9167994Y3333777D02*
G75*
G03*
X9167994Y3333777I-87500J0D01*
G01*
X9406125Y955484D02*
G75*
G03*
X9406125Y955484I-87500J0D01*
G01*
X9580751Y955484D02*
G75*
G03*
X9580751Y955484I-87500J0D01*
G01*
X10596751Y955484D02*
G75*
G03*
X10596751Y955484I-87500J0D01*
G01*
X11009494Y7143777D02*
G75*
G03*
X11009494Y7143777I-87500J0D01*
G01*
X11009494Y5238777D02*
G75*
G03*
X11009494Y5238777I-87500J0D01*
G01*
X11009494Y3333777D02*
G75*
G03*
X11009494Y3333777I-87500J0D01*
G01*
X11485753Y955484D02*
G75*
G03*
X11485753Y955484I-87500J0D01*
G01*
X11723878Y955484D02*
G75*
G03*
X11723878Y955484I-87500J0D01*
G01*
X12025494Y7143777D02*
G75*
G03*
X12025494Y7143777I-87500J0D01*
G01*
X12025494Y5238777D02*
G75*
G03*
X12025494Y5238777I-87500J0D01*
G01*
X12025494Y3333777D02*
G75*
G03*
X12025494Y3333777I-87500J0D01*
G01*
X12501753Y955484D02*
G75*
G03*
X12501753Y955484I-87500J0D01*
G01*
X12739878Y955484D02*
G75*
G03*
X12739878Y955484I-87500J0D01*
G01*
X12914494Y7143777D02*
G75*
G03*
X12914494Y7143777I-87500J0D01*
G01*
X12914494Y5238777D02*
G75*
G03*
X12914494Y5238777I-87500J0D01*
G01*
X12914494Y3333777D02*
G75*
G03*
X12914494Y3333777I-87500J0D01*
G01*
X13930494Y7143777D02*
G75*
G03*
X13930494Y7143777I-87500J0D01*
G01*
X13930494Y5238777D02*
G75*
G03*
X13930494Y5238777I-87500J0D01*
G01*
X13930494Y3333777D02*
G75*
G03*
X13930494Y3333777I-87500J0D01*
G01*
X14819494Y7143777D02*
G75*
G03*
X14819494Y7143777I-87500J0D01*
G01*
X14819494Y5238777D02*
G75*
G03*
X14819494Y5238777I-87500J0D01*
G01*
X14819494Y3333777D02*
G75*
G03*
X14819494Y3333777I-87500J0D01*
G01*
X14819494Y1428777D02*
G75*
G03*
X14819494Y1428777I-87500J0D01*
G01*
X15835494Y7143777D02*
G75*
G03*
X15835494Y7143777I-87500J0D01*
G01*
X15835494Y5238777D02*
G75*
G03*
X15835494Y5238777I-87500J0D01*
G01*
X15835494Y3333777D02*
G75*
G03*
X15835494Y3333777I-87500J0D01*
G01*
X15835494Y1428777D02*
G75*
G03*
X15835494Y1428777I-87500J0D01*
G01*
X16724494Y7143777D02*
G75*
G03*
X16724494Y7143777I-87500J0D01*
G01*
X16724494Y5238777D02*
G75*
G03*
X16724494Y5238777I-87500J0D01*
G01*
X16724494Y3333777D02*
G75*
G03*
X16724494Y3333777I-87500J0D01*
G01*
X16724494Y1428777D02*
G75*
G03*
X16724494Y1428777I-87500J0D01*
G01*
X17740494Y7143777D02*
G75*
G03*
X17740494Y7143777I-87500J0D01*
G01*
X17740494Y5238777D02*
G75*
G03*
X17740494Y5238777I-87500J0D01*
G01*
X17740494Y3333777D02*
G75*
G03*
X17740494Y3333777I-87500J0D01*
G01*
X17740494Y1428777D02*
G75*
G03*
X17740494Y1428777I-87500J0D01*
G01*
X18629494Y7143777D02*
G75*
G03*
X18629494Y7143777I-87500J0D01*
G01*
X18629494Y5238777D02*
G75*
G03*
X18629494Y5238777I-87500J0D01*
G01*
X18629494Y3333777D02*
G75*
G03*
X18629494Y3333777I-87500J0D01*
G01*
X18629494Y1428777D02*
G75*
G03*
X18629494Y1428777I-87500J0D01*
G01*
X19645494Y7143777D02*
G75*
G03*
X19645494Y7143777I-87500J0D01*
G01*
X19645494Y5238777D02*
G75*
G03*
X19645494Y5238777I-87500J0D01*
G01*
X19645494Y3333777D02*
G75*
G03*
X19645494Y3333777I-87500J0D01*
G01*
X19645494Y1428777D02*
G75*
G03*
X19645494Y1428777I-87500J0D01*
G01*
D14*
X571494Y7547777D02*
X571494Y7247777D01*
X421494Y7397777D02*
X721494Y7397777D01*
X571494Y5642777D02*
X571494Y5342777D01*
X421494Y5492777D02*
X721494Y5492777D01*
X571494Y1835734D02*
X571494Y1535734D01*
X421494Y1685734D02*
X721494Y1685734D01*
X698494Y2975777D02*
X698494Y2675777D01*
X548494Y2825777D02*
X848494Y2825777D01*
X1206494Y7801777D02*
X1206494Y7501777D01*
X1056494Y7651777D02*
X1356494Y7651777D01*
X1206494Y5896777D02*
X1206494Y5596777D01*
X1056494Y5746777D02*
X1356494Y5746777D01*
X1206494Y2089734D02*
X1206494Y1789734D01*
X1056494Y1939734D02*
X1356494Y1939734D01*
X1333494Y3229777D02*
X1333494Y2929777D01*
X1183494Y3079777D02*
X1483494Y3079777D01*
X2476494Y7547777D02*
X2476494Y7247777D01*
X2326494Y7397777D02*
X2626494Y7397777D01*
X2476494Y5642777D02*
X2476494Y5342777D01*
X2326494Y5492777D02*
X2626494Y5492777D01*
X2476495Y1835734D02*
X2476495Y1535734D01*
X2326495Y1685734D02*
X2626495Y1685734D01*
X2603494Y2975777D02*
X2603494Y2675777D01*
X2453494Y2825777D02*
X2753494Y2825777D01*
X3111494Y7801777D02*
X3111494Y7501777D01*
X2961494Y7651777D02*
X3261494Y7651777D01*
X3111494Y5896777D02*
X3111494Y5596777D01*
X2961494Y5746777D02*
X3261494Y5746777D01*
X3111495Y2089734D02*
X3111495Y1789734D01*
X2961495Y1939734D02*
X3261495Y1939734D01*
X3238494Y3229777D02*
X3238494Y2929777D01*
X3088494Y3079777D02*
X3388494Y3079777D01*
X4381494Y7547777D02*
X4381494Y7247777D01*
X4231494Y7397777D02*
X4531494Y7397777D01*
X4381494Y5642777D02*
X4381494Y5342777D01*
X4231494Y5492777D02*
X4531494Y5492777D01*
X4381494Y3737777D02*
X4381494Y3437777D01*
X4231494Y3587777D02*
X4531494Y3587777D01*
X4381497Y1835734D02*
X4381497Y1535734D01*
X4231497Y1685734D02*
X4531497Y1685734D01*
X5016494Y7801777D02*
X5016494Y7501777D01*
X4866494Y7651777D02*
X5166494Y7651777D01*
X5016494Y5896777D02*
X5016494Y5596777D01*
X4866494Y5746777D02*
X5166494Y5746777D01*
X5016494Y3991777D02*
X5016494Y3691777D01*
X4866494Y3841777D02*
X5166494Y3841777D01*
X5016497Y2089734D02*
X5016497Y1789734D01*
X4866497Y1939734D02*
X5166497Y1939734D01*
X6286494Y7547777D02*
X6286494Y7247777D01*
X6136494Y7397777D02*
X6436494Y7397777D01*
X6286494Y5642777D02*
X6286494Y5342777D01*
X6136494Y5492777D02*
X6436494Y5492777D01*
X6286494Y3737777D02*
X6286494Y3437777D01*
X6136494Y3587777D02*
X6436494Y3587777D01*
X6921494Y7801777D02*
X6921494Y7501777D01*
X6771494Y7651777D02*
X7071494Y7651777D01*
X6921494Y5896777D02*
X6921494Y5596777D01*
X6771494Y5746777D02*
X7071494Y5746777D01*
X6921494Y3991777D02*
X6921494Y3691777D01*
X6771494Y3841777D02*
X7071494Y3841777D01*
X7715250Y1359484D02*
X7715250Y1059484D01*
X7565250Y1209484D02*
X7865250Y1209484D01*
X8191494Y7547777D02*
X8191494Y7247777D01*
X8041494Y7397777D02*
X8341494Y7397777D01*
X8191494Y5642777D02*
X8191494Y5342777D01*
X8041494Y5492777D02*
X8341494Y5492777D01*
X8191494Y3737777D02*
X8191494Y3437777D01*
X8041494Y3587777D02*
X8341494Y3587777D01*
X8350250Y1613484D02*
X8350250Y1313484D01*
X8200250Y1463484D02*
X8500250Y1463484D01*
X8826494Y7801777D02*
X8826494Y7501777D01*
X8676494Y7651777D02*
X8976494Y7651777D01*
X8826494Y5896777D02*
X8826494Y5596777D01*
X8676494Y5746777D02*
X8976494Y5746777D01*
X8826494Y3991777D02*
X8826494Y3691777D01*
X8676494Y3841777D02*
X8976494Y3841777D01*
X9620251Y1359484D02*
X9620251Y1059484D01*
X9470251Y1209484D02*
X9770251Y1209484D01*
X10255251Y1613484D02*
X10255251Y1313484D01*
X10105251Y1463484D02*
X10405251Y1463484D01*
X11048994Y7547777D02*
X11048994Y7247777D01*
X10898994Y7397777D02*
X11198994Y7397777D01*
X11048994Y5642777D02*
X11048994Y5342777D01*
X10898994Y5492777D02*
X11198994Y5492777D01*
X11048994Y3737777D02*
X11048994Y3437777D01*
X10898994Y3587777D02*
X11198994Y3587777D01*
X11525253Y1359484D02*
X11525253Y1059484D01*
X11375253Y1209484D02*
X11675253Y1209484D01*
X11683994Y7801777D02*
X11683994Y7501777D01*
X11533994Y7651777D02*
X11833994Y7651777D01*
X11683994Y5896777D02*
X11683994Y5596777D01*
X11533994Y5746777D02*
X11833994Y5746777D01*
X11683994Y3991777D02*
X11683994Y3691777D01*
X11533994Y3841777D02*
X11833994Y3841777D01*
X12160253Y1613484D02*
X12160253Y1313484D01*
X12010253Y1463484D02*
X12310253Y1463484D01*
X12953994Y7547777D02*
X12953994Y7247777D01*
X12803994Y7397777D02*
X13103994Y7397777D01*
X12953994Y5642777D02*
X12953994Y5342777D01*
X12803994Y5492777D02*
X13103994Y5492777D01*
X12953994Y3737777D02*
X12953994Y3437777D01*
X12803994Y3587777D02*
X13103994Y3587777D01*
X13588994Y7801777D02*
X13588994Y7501777D01*
X13438994Y7651777D02*
X13738994Y7651777D01*
X13588994Y5896777D02*
X13588994Y5596777D01*
X13438994Y5746777D02*
X13738994Y5746777D01*
X13588994Y3991777D02*
X13588994Y3691777D01*
X13438994Y3841777D02*
X13738994Y3841777D01*
X14858994Y7547777D02*
X14858994Y7247777D01*
X14708994Y7397777D02*
X15008994Y7397777D01*
X14858994Y5642777D02*
X14858994Y5342777D01*
X14708994Y5492777D02*
X15008994Y5492777D01*
X14858994Y3737777D02*
X14858994Y3437777D01*
X14708994Y3587777D02*
X15008994Y3587777D01*
X14858994Y1832777D02*
X14858994Y1532777D01*
X14708994Y1682777D02*
X15008994Y1682777D01*
X15493994Y7801777D02*
X15493994Y7501777D01*
X15343994Y7651777D02*
X15643994Y7651777D01*
X15493994Y5896777D02*
X15493994Y5596777D01*
X15343994Y5746777D02*
X15643994Y5746777D01*
X15493994Y3991777D02*
X15493994Y3691777D01*
X15343994Y3841777D02*
X15643994Y3841777D01*
X15493994Y2086777D02*
X15493994Y1786777D01*
X15343994Y1936777D02*
X15643994Y1936777D01*
X16763994Y7547777D02*
X16763994Y7247777D01*
X16613994Y7397777D02*
X16913994Y7397777D01*
X16763994Y5642777D02*
X16763994Y5342777D01*
X16613994Y5492777D02*
X16913994Y5492777D01*
X16763994Y3737777D02*
X16763994Y3437777D01*
X16613994Y3587777D02*
X16913994Y3587777D01*
X16763994Y1832777D02*
X16763994Y1532777D01*
X16613994Y1682777D02*
X16913994Y1682777D01*
X17398994Y7801777D02*
X17398994Y7501777D01*
X17248994Y7651777D02*
X17548994Y7651777D01*
X17398994Y5896777D02*
X17398994Y5596777D01*
X17248994Y5746777D02*
X17548994Y5746777D01*
X17398994Y3991777D02*
X17398994Y3691777D01*
X17248994Y3841777D02*
X17548994Y3841777D01*
X17398994Y2086777D02*
X17398994Y1786777D01*
X17248994Y1936777D02*
X17548994Y1936777D01*
X18668994Y7547777D02*
X18668994Y7247777D01*
X18518994Y7397777D02*
X18818994Y7397777D01*
X18668994Y5642777D02*
X18668994Y5342777D01*
X18518994Y5492777D02*
X18818994Y5492777D01*
X18668994Y3737777D02*
X18668994Y3437777D01*
X18518994Y3587777D02*
X18818994Y3587777D01*
X18668994Y1832777D02*
X18668994Y1532777D01*
X18518994Y1682777D02*
X18818994Y1682777D01*
X19303994Y7801777D02*
X19303994Y7501777D01*
X19153994Y7651777D02*
X19453994Y7651777D01*
X19303994Y5896777D02*
X19303994Y5596777D01*
X19153994Y5746777D02*
X19453994Y5746777D01*
X19303994Y3991777D02*
X19303994Y3691777D01*
X19153994Y3841777D02*
X19453994Y3841777D01*
X19303994Y2086777D02*
X19303994Y1786777D01*
X19153994Y1936777D02*
X19453994Y1936777D01*
D15*
X7010214Y149220D02*
X7010214Y364748D01*
X6794686Y364748D01*
X6794686Y149220D01*
X7010214Y149220D01*
X7251515Y149220D02*
X7251515Y364748D01*
X7035987Y364748D01*
X7035987Y149220D01*
X7251515Y149220D01*
X9397814Y149220D02*
X9397814Y364748D01*
X9182286Y364748D01*
X9182286Y149220D01*
X9397814Y149220D01*
X10820217Y149220D02*
X10820217Y364748D01*
X10604689Y364748D01*
X10604689Y149220D01*
X10820217Y149220D01*
X12966515Y149220D02*
X12966515Y364748D01*
X12750987Y364748D01*
X12750987Y149220D01*
X12966515Y149220D01*
X13207817Y149220D02*
X13207817Y364748D01*
X12992289Y364748D01*
X12992289Y149220D01*
X13207817Y149220D01*
D16*
X952494Y6944387D02*
X1151884Y7143777D01*
X952494Y7343167D01*
X753104Y7143777D01*
X952494Y6944387D01*
X952494Y5039387D02*
X1151884Y5238777D01*
X952494Y5438167D01*
X753104Y5238777D01*
X952494Y5039387D01*
X952494Y3134387D02*
X1151884Y3333777D01*
X952494Y3533167D01*
X753104Y3333777D01*
X952494Y3134387D01*
X952494Y1232344D02*
X1151884Y1431734D01*
X952494Y1631124D01*
X753104Y1431734D01*
X952494Y1232344D01*
X1190619Y1232344D02*
X1390009Y1431734D01*
X1190619Y1631124D01*
X991229Y1431734D01*
X1190619Y1232344D01*
X2857494Y6944387D02*
X3056884Y7143777D01*
X2857494Y7343167D01*
X2658104Y7143777D01*
X2857494Y6944387D01*
X2857494Y5039387D02*
X3056884Y5238777D01*
X2857494Y5438167D01*
X2658104Y5238777D01*
X2857494Y5039387D01*
X2857494Y3134387D02*
X3056884Y3333777D01*
X2857494Y3533167D01*
X2658104Y3333777D01*
X2857494Y3134387D01*
X2857495Y1232344D02*
X3056885Y1431734D01*
X2857495Y1631124D01*
X2658105Y1431734D01*
X2857495Y1232344D01*
X3333746Y1232344D02*
X3533136Y1431734D01*
X3333746Y1631124D01*
X3134356Y1431734D01*
X3333746Y1232344D01*
X4762494Y6944387D02*
X4961884Y7143777D01*
X4762494Y7343167D01*
X4563104Y7143777D01*
X4762494Y6944387D01*
X4762494Y5039387D02*
X4961884Y5238777D01*
X4762494Y5438167D01*
X4563104Y5238777D01*
X4762494Y5039387D01*
X4762494Y3134387D02*
X4961884Y3333777D01*
X4762494Y3533167D01*
X4563104Y3333777D01*
X4762494Y3134387D01*
X4762497Y1232344D02*
X4961887Y1431734D01*
X4762497Y1631124D01*
X4563107Y1431734D01*
X4762497Y1232344D01*
X5476873Y1232344D02*
X5676263Y1431734D01*
X5476873Y1631124D01*
X5277483Y1431734D01*
X5476873Y1232344D01*
X6667494Y6944387D02*
X6866884Y7143777D01*
X6667494Y7343167D01*
X6468104Y7143777D01*
X6667494Y6944387D01*
X6667494Y5039387D02*
X6866884Y5238777D01*
X6667494Y5438167D01*
X6468104Y5238777D01*
X6667494Y5039387D01*
X6667494Y3134387D02*
X6866884Y3333777D01*
X6667494Y3533167D01*
X6468104Y3333777D01*
X6667494Y3134387D01*
X6902450Y1581594D02*
X7101840Y1780984D01*
X6902450Y1980374D01*
X6703060Y1780984D01*
X6902450Y1581594D01*
X7143751Y1581594D02*
X7343141Y1780984D01*
X7143751Y1980374D01*
X6944361Y1780984D01*
X7143751Y1581594D01*
X8096250Y756094D02*
X8295640Y955484D01*
X8096250Y1154874D01*
X7896860Y955484D01*
X8096250Y756094D01*
X8572494Y6944387D02*
X8771884Y7143777D01*
X8572494Y7343167D01*
X8373104Y7143777D01*
X8572494Y6944387D01*
X8572494Y5039387D02*
X8771884Y5238777D01*
X8572494Y5438167D01*
X8373104Y5238777D01*
X8572494Y5039387D01*
X8572494Y3134387D02*
X8771884Y3333777D01*
X8572494Y3533167D01*
X8373104Y3333777D01*
X8572494Y3134387D01*
X8810625Y756094D02*
X9010015Y955484D01*
X8810625Y1154874D01*
X8611235Y955484D01*
X8810625Y756094D01*
X9290050Y1581594D02*
X9489440Y1780984D01*
X9290050Y1980374D01*
X9090660Y1780984D01*
X9290050Y1581594D01*
X10001251Y756094D02*
X10200641Y955484D01*
X10001251Y1154874D01*
X9801861Y955484D01*
X10001251Y756094D01*
X10712453Y1581594D02*
X10911843Y1780984D01*
X10712453Y1980374D01*
X10513063Y1780984D01*
X10712453Y1581594D01*
X11429994Y6944387D02*
X11629384Y7143777D01*
X11429994Y7343167D01*
X11230604Y7143777D01*
X11429994Y6944387D01*
X11429994Y5039387D02*
X11629384Y5238777D01*
X11429994Y5438167D01*
X11230604Y5238777D01*
X11429994Y5039387D01*
X11429994Y3134387D02*
X11629384Y3333777D01*
X11429994Y3533167D01*
X11230604Y3333777D01*
X11429994Y3134387D01*
X11906253Y756094D02*
X12105643Y955484D01*
X11906253Y1154874D01*
X11706863Y955484D01*
X11906253Y756094D01*
X12144378Y756094D02*
X12343768Y955484D01*
X12144378Y1154874D01*
X11944988Y955484D01*
X12144378Y756094D01*
X12858751Y1581594D02*
X13058141Y1780984D01*
X12858751Y1980374D01*
X12659361Y1780984D01*
X12858751Y1581594D01*
X13100053Y1581594D02*
X13299443Y1780984D01*
X13100053Y1980374D01*
X12900663Y1780984D01*
X13100053Y1581594D01*
X13334994Y6944387D02*
X13534384Y7143777D01*
X13334994Y7343167D01*
X13135604Y7143777D01*
X13334994Y6944387D01*
X13334994Y5039387D02*
X13534384Y5238777D01*
X13334994Y5438167D01*
X13135604Y5238777D01*
X13334994Y5039387D01*
X13334994Y3134387D02*
X13534384Y3333777D01*
X13334994Y3533167D01*
X13135604Y3333777D01*
X13334994Y3134387D01*
X15239994Y6944387D02*
X15439384Y7143777D01*
X15239994Y7343167D01*
X15040604Y7143777D01*
X15239994Y6944387D01*
X15239994Y5039387D02*
X15439384Y5238777D01*
X15239994Y5438167D01*
X15040604Y5238777D01*
X15239994Y5039387D01*
X15239994Y3134387D02*
X15439384Y3333777D01*
X15239994Y3533167D01*
X15040604Y3333777D01*
X15239994Y3134387D01*
X15239994Y1229387D02*
X15439384Y1428777D01*
X15239994Y1628167D01*
X15040604Y1428777D01*
X15239994Y1229387D01*
X17144994Y6944387D02*
X17344384Y7143777D01*
X17144994Y7343167D01*
X16945604Y7143777D01*
X17144994Y6944387D01*
X17144994Y5039387D02*
X17344384Y5238777D01*
X17144994Y5438167D01*
X16945604Y5238777D01*
X17144994Y5039387D01*
X17144994Y3134387D02*
X17344384Y3333777D01*
X17144994Y3533167D01*
X16945604Y3333777D01*
X17144994Y3134387D01*
X17144994Y1229387D02*
X17344384Y1428777D01*
X17144994Y1628167D01*
X16945604Y1428777D01*
X17144994Y1229387D01*
X19049994Y6944387D02*
X19249384Y7143777D01*
X19049994Y7343167D01*
X18850604Y7143777D01*
X19049994Y6944387D01*
X19049994Y5039387D02*
X19249384Y5238777D01*
X19049994Y5438167D01*
X18850604Y5238777D01*
X19049994Y5039387D01*
X19049994Y3134387D02*
X19249384Y3333777D01*
X19049994Y3533167D01*
X18850604Y3333777D01*
X19049994Y3134387D01*
X19049994Y1229387D02*
X19249384Y1428777D01*
X19049994Y1628167D01*
X18850604Y1428777D01*
X19049994Y1229387D01*
D11*
X255770Y-316484D02*
X255770Y-116484D01*
X255770Y-116484D02*
X303389Y-116484D01*
X303389Y-116484D02*
X331960Y-126008D01*
X331960Y-126008D02*
X351008Y-145055D01*
X351008Y-145055D02*
X360532Y-164103D01*
X360532Y-164103D02*
X370055Y-202198D01*
X370055Y-202198D02*
X370055Y-230769D01*
X370055Y-230769D02*
X360532Y-268865D01*
X360532Y-268865D02*
X351008Y-287912D01*
X351008Y-287912D02*
X331960Y-306960D01*
X331960Y-306960D02*
X303389Y-316484D01*
X303389Y-316484D02*
X255770Y-316484D01*
X455770Y-316484D02*
X455770Y-183150D01*
X455770Y-221246D02*
X465294Y-202198D01*
X465294Y-202198D02*
X474817Y-192674D01*
X474817Y-192674D02*
X493865Y-183150D01*
X493865Y-183150D02*
X512913Y-183150D01*
X579579Y-316484D02*
X579579Y-183150D01*
X579579Y-116484D02*
X570056Y-126008D01*
X570056Y-126008D02*
X579579Y-135531D01*
X579579Y-135531D02*
X589103Y-126008D01*
X589103Y-126008D02*
X579579Y-116484D01*
X579579Y-116484D02*
X579579Y-135531D01*
X703389Y-316484D02*
X684341Y-306960D01*
X684341Y-306960D02*
X674817Y-287912D01*
X674817Y-287912D02*
X674817Y-116484D01*
X808151Y-316484D02*
X789103Y-306960D01*
X789103Y-306960D02*
X779579Y-287912D01*
X779579Y-287912D02*
X779579Y-116484D01*
X1036722Y-316484D02*
X1036722Y-116484D01*
X1036722Y-116484D02*
X1103389Y-259341D01*
X1103389Y-259341D02*
X1170056Y-116484D01*
X1170056Y-116484D02*
X1170056Y-316484D01*
X1351008Y-316484D02*
X1351008Y-211722D01*
X1351008Y-211722D02*
X1341484Y-192674D01*
X1341484Y-192674D02*
X1322437Y-183150D01*
X1322437Y-183150D02*
X1284341Y-183150D01*
X1284341Y-183150D02*
X1265294Y-192674D01*
X1351008Y-306960D02*
X1331960Y-316484D01*
X1331960Y-316484D02*
X1284341Y-316484D01*
X1284341Y-316484D02*
X1265294Y-306960D01*
X1265294Y-306960D02*
X1255770Y-287912D01*
X1255770Y-287912D02*
X1255770Y-268865D01*
X1255770Y-268865D02*
X1265294Y-249817D01*
X1265294Y-249817D02*
X1284341Y-240293D01*
X1284341Y-240293D02*
X1331960Y-240293D01*
X1331960Y-240293D02*
X1351008Y-230769D01*
X1446246Y-183150D02*
X1446246Y-383150D01*
X1446246Y-192674D02*
X1465294Y-183150D01*
X1465294Y-183150D02*
X1503389Y-183150D01*
X1503389Y-183150D02*
X1522436Y-192674D01*
X1522436Y-192674D02*
X1531960Y-202198D01*
X1531960Y-202198D02*
X1541484Y-221246D01*
X1541484Y-221246D02*
X1541484Y-278389D01*
X1541484Y-278389D02*
X1531960Y-297436D01*
X1531960Y-297436D02*
X1522436Y-306960D01*
X1522436Y-306960D02*
X1503389Y-316484D01*
X1503389Y-316484D02*
X1465294Y-316484D01*
X1465294Y-316484D02*
X1446246Y-306960D01*
X1627198Y-297436D02*
X1636722Y-306960D01*
X1636722Y-306960D02*
X1627198Y-316484D01*
X1627198Y-316484D02*
X1617675Y-306960D01*
X1617675Y-306960D02*
X1627198Y-297436D01*
X1627198Y-297436D02*
X1627198Y-316484D01*
X1627198Y-192674D02*
X1636722Y-202198D01*
X1636722Y-202198D02*
X1627198Y-211722D01*
X1627198Y-211722D02*
X1617675Y-202198D01*
X1617675Y-202198D02*
X1627198Y-192674D01*
X1627198Y-192674D02*
X1627198Y-211722D01*
D12*
X-55007Y-620000D02*
X-5007Y-670000D01*
X-5007Y-620000D02*
X-55007Y-670000D01*
D11*
X293865Y-536484D02*
X312913Y-536484D01*
X312913Y-536484D02*
X331960Y-546008D01*
X331960Y-546008D02*
X341484Y-555531D01*
X341484Y-555531D02*
X351008Y-574579D01*
X351008Y-574579D02*
X360532Y-612674D01*
X360532Y-612674D02*
X360532Y-660293D01*
X360532Y-660293D02*
X351008Y-698389D01*
X351008Y-698389D02*
X341484Y-717436D01*
X341484Y-717436D02*
X331960Y-726960D01*
X331960Y-726960D02*
X312913Y-736484D01*
X312913Y-736484D02*
X293865Y-736484D01*
X293865Y-736484D02*
X274817Y-726960D01*
X274817Y-726960D02*
X265294Y-717436D01*
X265294Y-717436D02*
X255770Y-698389D01*
X255770Y-698389D02*
X246246Y-660293D01*
X246246Y-660293D02*
X246246Y-612674D01*
X246246Y-612674D02*
X255770Y-574579D01*
X255770Y-574579D02*
X265294Y-555531D01*
X265294Y-555531D02*
X274817Y-546008D01*
X274817Y-546008D02*
X293865Y-536484D01*
X446246Y-717436D02*
X455770Y-726960D01*
X455770Y-726960D02*
X446246Y-736484D01*
X446246Y-736484D02*
X436722Y-726960D01*
X436722Y-726960D02*
X446246Y-717436D01*
X446246Y-717436D02*
X446246Y-736484D01*
X636722Y-536484D02*
X541484Y-536484D01*
X541484Y-536484D02*
X531960Y-631722D01*
X531960Y-631722D02*
X541484Y-622198D01*
X541484Y-622198D02*
X560532Y-612674D01*
X560532Y-612674D02*
X608151Y-612674D01*
X608151Y-612674D02*
X627198Y-622198D01*
X627198Y-622198D02*
X636722Y-631722D01*
X636722Y-631722D02*
X646246Y-650770D01*
X646246Y-650770D02*
X646246Y-698389D01*
X646246Y-698389D02*
X636722Y-717436D01*
X636722Y-717436D02*
X627198Y-726960D01*
X627198Y-726960D02*
X608151Y-736484D01*
X608151Y-736484D02*
X560532Y-736484D01*
X560532Y-736484D02*
X541484Y-726960D01*
X541484Y-726960D02*
X531960Y-717436D01*
X770055Y-536484D02*
X789103Y-536484D01*
X789103Y-536484D02*
X808151Y-546008D01*
X808151Y-546008D02*
X817675Y-555531D01*
X817675Y-555531D02*
X827198Y-574579D01*
X827198Y-574579D02*
X836722Y-612674D01*
X836722Y-612674D02*
X836722Y-660293D01*
X836722Y-660293D02*
X827198Y-698389D01*
X827198Y-698389D02*
X817675Y-717436D01*
X817675Y-717436D02*
X808151Y-726960D01*
X808151Y-726960D02*
X789103Y-736484D01*
X789103Y-736484D02*
X770055Y-736484D01*
X770055Y-736484D02*
X751008Y-726960D01*
X751008Y-726960D02*
X741484Y-717436D01*
X741484Y-717436D02*
X731960Y-698389D01*
X731960Y-698389D02*
X722436Y-660293D01*
X722436Y-660293D02*
X722436Y-612674D01*
X722436Y-612674D02*
X731960Y-574579D01*
X731960Y-574579D02*
X741484Y-555531D01*
X741484Y-555531D02*
X751008Y-546008D01*
X751008Y-546008D02*
X770055Y-536484D01*
X960532Y-536484D02*
X979579Y-536484D01*
X979579Y-536484D02*
X998627Y-546008D01*
X998627Y-546008D02*
X1008151Y-555531D01*
X1008151Y-555531D02*
X1017675Y-574579D01*
X1017675Y-574579D02*
X1027198Y-612674D01*
X1027198Y-612674D02*
X1027198Y-660293D01*
X1027198Y-660293D02*
X1017675Y-698389D01*
X1017675Y-698389D02*
X1008151Y-717436D01*
X1008151Y-717436D02*
X998627Y-726960D01*
X998627Y-726960D02*
X979579Y-736484D01*
X979579Y-736484D02*
X960532Y-736484D01*
X960532Y-736484D02*
X941484Y-726960D01*
X941484Y-726960D02*
X931960Y-717436D01*
X931960Y-717436D02*
X922436Y-698389D01*
X922436Y-698389D02*
X912913Y-660293D01*
X912913Y-660293D02*
X912913Y-612674D01*
X912913Y-612674D02*
X922436Y-574579D01*
X922436Y-574579D02*
X931960Y-555531D01*
X931960Y-555531D02*
X941484Y-546008D01*
X941484Y-546008D02*
X960532Y-536484D01*
X1112913Y-736484D02*
X1112913Y-603150D01*
X1112913Y-622198D02*
X1122437Y-612674D01*
X1122437Y-612674D02*
X1141484Y-603150D01*
X1141484Y-603150D02*
X1170056Y-603150D01*
X1170056Y-603150D02*
X1189103Y-612674D01*
X1189103Y-612674D02*
X1198627Y-631722D01*
X1198627Y-631722D02*
X1198627Y-736484D01*
X1198627Y-631722D02*
X1208151Y-612674D01*
X1208151Y-612674D02*
X1227198Y-603150D01*
X1227198Y-603150D02*
X1255770Y-603150D01*
X1255770Y-603150D02*
X1274818Y-612674D01*
X1274818Y-612674D02*
X1284341Y-631722D01*
X1284341Y-631722D02*
X1284341Y-736484D01*
X1379579Y-736484D02*
X1379579Y-603150D01*
X1379579Y-622198D02*
X1389103Y-612674D01*
X1389103Y-612674D02*
X1408151Y-603150D01*
X1408151Y-603150D02*
X1436722Y-603150D01*
X1436722Y-603150D02*
X1455770Y-612674D01*
X1455770Y-612674D02*
X1465294Y-631722D01*
X1465294Y-631722D02*
X1465294Y-736484D01*
X1465294Y-631722D02*
X1474817Y-612674D01*
X1474817Y-612674D02*
X1493865Y-603150D01*
X1493865Y-603150D02*
X1522436Y-603150D01*
X1522436Y-603150D02*
X1541484Y-612674D01*
X1541484Y-612674D02*
X1551008Y-631722D01*
X1551008Y-631722D02*
X1551008Y-736484D01*
X1941484Y-526960D02*
X1770056Y-784103D01*
X2198627Y-536484D02*
X2217675Y-536484D01*
X2217675Y-536484D02*
X2236722Y-546008D01*
X2236722Y-546008D02*
X2246246Y-555531D01*
X2246246Y-555531D02*
X2255770Y-574579D01*
X2255770Y-574579D02*
X2265294Y-612674D01*
X2265294Y-612674D02*
X2265294Y-660293D01*
X2265294Y-660293D02*
X2255770Y-698389D01*
X2255770Y-698389D02*
X2246246Y-717436D01*
X2246246Y-717436D02*
X2236722Y-726960D01*
X2236722Y-726960D02*
X2217675Y-736484D01*
X2217675Y-736484D02*
X2198627Y-736484D01*
X2198627Y-736484D02*
X2179580Y-726960D01*
X2179580Y-726960D02*
X2170056Y-717436D01*
X2170056Y-717436D02*
X2160532Y-698389D01*
X2160532Y-698389D02*
X2151008Y-660293D01*
X2151008Y-660293D02*
X2151008Y-612674D01*
X2151008Y-612674D02*
X2160532Y-574579D01*
X2160532Y-574579D02*
X2170056Y-555531D01*
X2170056Y-555531D02*
X2179580Y-546008D01*
X2179580Y-546008D02*
X2198627Y-536484D01*
X2351008Y-717436D02*
X2360532Y-726960D01*
X2360532Y-726960D02*
X2351008Y-736484D01*
X2351008Y-736484D02*
X2341484Y-726960D01*
X2341484Y-726960D02*
X2351008Y-717436D01*
X2351008Y-717436D02*
X2351008Y-736484D01*
X2484341Y-536484D02*
X2503389Y-536484D01*
X2503389Y-536484D02*
X2522437Y-546008D01*
X2522437Y-546008D02*
X2531961Y-555531D01*
X2531961Y-555531D02*
X2541484Y-574579D01*
X2541484Y-574579D02*
X2551008Y-612674D01*
X2551008Y-612674D02*
X2551008Y-660293D01*
X2551008Y-660293D02*
X2541484Y-698389D01*
X2541484Y-698389D02*
X2531961Y-717436D01*
X2531961Y-717436D02*
X2522437Y-726960D01*
X2522437Y-726960D02*
X2503389Y-736484D01*
X2503389Y-736484D02*
X2484341Y-736484D01*
X2484341Y-736484D02*
X2465294Y-726960D01*
X2465294Y-726960D02*
X2455770Y-717436D01*
X2455770Y-717436D02*
X2446246Y-698389D01*
X2446246Y-698389D02*
X2436722Y-660293D01*
X2436722Y-660293D02*
X2436722Y-612674D01*
X2436722Y-612674D02*
X2446246Y-574579D01*
X2446246Y-574579D02*
X2455770Y-555531D01*
X2455770Y-555531D02*
X2465294Y-546008D01*
X2465294Y-546008D02*
X2484341Y-536484D01*
X2741484Y-736484D02*
X2627199Y-736484D01*
X2684341Y-736484D02*
X2684341Y-536484D01*
X2684341Y-536484D02*
X2665294Y-565055D01*
X2665294Y-565055D02*
X2646246Y-584103D01*
X2646246Y-584103D02*
X2627199Y-593627D01*
X2836722Y-736484D02*
X2874818Y-736484D01*
X2874818Y-736484D02*
X2893865Y-726960D01*
X2893865Y-726960D02*
X2903389Y-717436D01*
X2903389Y-717436D02*
X2922437Y-688865D01*
X2922437Y-688865D02*
X2931960Y-650770D01*
X2931960Y-650770D02*
X2931960Y-574579D01*
X2931960Y-574579D02*
X2922437Y-555531D01*
X2922437Y-555531D02*
X2912913Y-546008D01*
X2912913Y-546008D02*
X2893865Y-536484D01*
X2893865Y-536484D02*
X2855770Y-536484D01*
X2855770Y-536484D02*
X2836722Y-546008D01*
X2836722Y-546008D02*
X2827199Y-555531D01*
X2827199Y-555531D02*
X2817675Y-574579D01*
X2817675Y-574579D02*
X2817675Y-622198D01*
X2817675Y-622198D02*
X2827199Y-641246D01*
X2827199Y-641246D02*
X2836722Y-650770D01*
X2836722Y-650770D02*
X2855770Y-660293D01*
X2855770Y-660293D02*
X2893865Y-660293D01*
X2893865Y-660293D02*
X2912913Y-650770D01*
X2912913Y-650770D02*
X2922437Y-641246D01*
X2922437Y-641246D02*
X2931960Y-622198D01*
X2998627Y-536484D02*
X3131960Y-536484D01*
X3131960Y-536484D02*
X3046246Y-736484D01*
X3198627Y-536484D02*
X3198627Y-574579D01*
X3274818Y-536484D02*
X3274818Y-574579D01*
X3570056Y-812674D02*
X3560532Y-803150D01*
X3560532Y-803150D02*
X3541484Y-774579D01*
X3541484Y-774579D02*
X3531961Y-755531D01*
X3531961Y-755531D02*
X3522437Y-726960D01*
X3522437Y-726960D02*
X3512913Y-679341D01*
X3512913Y-679341D02*
X3512913Y-641246D01*
X3512913Y-641246D02*
X3522437Y-593627D01*
X3522437Y-593627D02*
X3531961Y-565055D01*
X3531961Y-565055D02*
X3541484Y-546008D01*
X3541484Y-546008D02*
X3560532Y-517436D01*
X3560532Y-517436D02*
X3570056Y-507912D01*
X3751008Y-736484D02*
X3636722Y-736484D01*
X3693865Y-736484D02*
X3693865Y-536484D01*
X3693865Y-536484D02*
X3674818Y-565055D01*
X3674818Y-565055D02*
X3655770Y-584103D01*
X3655770Y-584103D02*
X3636722Y-593627D01*
X3827199Y-555531D02*
X3836722Y-546008D01*
X3836722Y-546008D02*
X3855770Y-536484D01*
X3855770Y-536484D02*
X3903389Y-536484D01*
X3903389Y-536484D02*
X3922437Y-546008D01*
X3922437Y-546008D02*
X3931961Y-555531D01*
X3931961Y-555531D02*
X3941484Y-574579D01*
X3941484Y-574579D02*
X3941484Y-593627D01*
X3941484Y-593627D02*
X3931961Y-622198D01*
X3931961Y-622198D02*
X3817675Y-736484D01*
X3817675Y-736484D02*
X3941484Y-736484D01*
X4179580Y-736484D02*
X4179580Y-536484D01*
X4265294Y-736484D02*
X4265294Y-631722D01*
X4265294Y-631722D02*
X4255770Y-612674D01*
X4255770Y-612674D02*
X4236723Y-603150D01*
X4236723Y-603150D02*
X4208151Y-603150D01*
X4208151Y-603150D02*
X4189103Y-612674D01*
X4189103Y-612674D02*
X4179580Y-622198D01*
X4389104Y-736484D02*
X4370056Y-726960D01*
X4370056Y-726960D02*
X4360532Y-717436D01*
X4360532Y-717436D02*
X4351008Y-698389D01*
X4351008Y-698389D02*
X4351008Y-641246D01*
X4351008Y-641246D02*
X4360532Y-622198D01*
X4360532Y-622198D02*
X4370056Y-612674D01*
X4370056Y-612674D02*
X4389104Y-603150D01*
X4389104Y-603150D02*
X4417675Y-603150D01*
X4417675Y-603150D02*
X4436723Y-612674D01*
X4436723Y-612674D02*
X4446246Y-622198D01*
X4446246Y-622198D02*
X4455770Y-641246D01*
X4455770Y-641246D02*
X4455770Y-698389D01*
X4455770Y-698389D02*
X4446246Y-717436D01*
X4446246Y-717436D02*
X4436723Y-726960D01*
X4436723Y-726960D02*
X4417675Y-736484D01*
X4417675Y-736484D02*
X4389104Y-736484D01*
X4570056Y-736484D02*
X4551008Y-726960D01*
X4551008Y-726960D02*
X4541485Y-707912D01*
X4541485Y-707912D02*
X4541485Y-536484D01*
X4722437Y-726960D02*
X4703389Y-736484D01*
X4703389Y-736484D02*
X4665294Y-736484D01*
X4665294Y-736484D02*
X4646246Y-726960D01*
X4646246Y-726960D02*
X4636723Y-707912D01*
X4636723Y-707912D02*
X4636723Y-631722D01*
X4636723Y-631722D02*
X4646246Y-612674D01*
X4646246Y-612674D02*
X4665294Y-603150D01*
X4665294Y-603150D02*
X4703389Y-603150D01*
X4703389Y-603150D02*
X4722437Y-612674D01*
X4722437Y-612674D02*
X4731961Y-631722D01*
X4731961Y-631722D02*
X4731961Y-650770D01*
X4731961Y-650770D02*
X4636723Y-669817D01*
X4808151Y-726960D02*
X4827199Y-736484D01*
X4827199Y-736484D02*
X4865294Y-736484D01*
X4865294Y-736484D02*
X4884342Y-726960D01*
X4884342Y-726960D02*
X4893866Y-707912D01*
X4893866Y-707912D02*
X4893866Y-698389D01*
X4893866Y-698389D02*
X4884342Y-679341D01*
X4884342Y-679341D02*
X4865294Y-669817D01*
X4865294Y-669817D02*
X4836723Y-669817D01*
X4836723Y-669817D02*
X4817675Y-660293D01*
X4817675Y-660293D02*
X4808151Y-641246D01*
X4808151Y-641246D02*
X4808151Y-631722D01*
X4808151Y-631722D02*
X4817675Y-612674D01*
X4817675Y-612674D02*
X4836723Y-603150D01*
X4836723Y-603150D02*
X4865294Y-603150D01*
X4865294Y-603150D02*
X4884342Y-612674D01*
X4960532Y-812674D02*
X4970056Y-803150D01*
X4970056Y-803150D02*
X4989104Y-774579D01*
X4989104Y-774579D02*
X4998627Y-755531D01*
X4998627Y-755531D02*
X5008151Y-726960D01*
X5008151Y-726960D02*
X5017675Y-679341D01*
X5017675Y-679341D02*
X5017675Y-641246D01*
X5017675Y-641246D02*
X5008151Y-593627D01*
X5008151Y-593627D02*
X4998627Y-565055D01*
X4998627Y-565055D02*
X4989104Y-546008D01*
X4989104Y-546008D02*
X4970056Y-517436D01*
X4970056Y-517436D02*
X4960532Y-507912D01*
X5322437Y-812674D02*
X5312913Y-803150D01*
X5312913Y-803150D02*
X5293866Y-774579D01*
X5293866Y-774579D02*
X5284342Y-755531D01*
X5284342Y-755531D02*
X5274818Y-726960D01*
X5274818Y-726960D02*
X5265294Y-679341D01*
X5265294Y-679341D02*
X5265294Y-641246D01*
X5265294Y-641246D02*
X5274818Y-593627D01*
X5274818Y-593627D02*
X5284342Y-565055D01*
X5284342Y-565055D02*
X5293866Y-546008D01*
X5293866Y-546008D02*
X5312913Y-517436D01*
X5312913Y-517436D02*
X5322437Y-507912D01*
X5398627Y-603150D02*
X5398627Y-736484D01*
X5398627Y-622198D02*
X5408151Y-612674D01*
X5408151Y-612674D02*
X5427199Y-603150D01*
X5427199Y-603150D02*
X5455770Y-603150D01*
X5455770Y-603150D02*
X5474818Y-612674D01*
X5474818Y-612674D02*
X5484342Y-631722D01*
X5484342Y-631722D02*
X5484342Y-736484D01*
X5608151Y-736484D02*
X5589104Y-726960D01*
X5589104Y-726960D02*
X5579580Y-717436D01*
X5579580Y-717436D02*
X5570056Y-698389D01*
X5570056Y-698389D02*
X5570056Y-641246D01*
X5570056Y-641246D02*
X5579580Y-622198D01*
X5579580Y-622198D02*
X5589104Y-612674D01*
X5589104Y-612674D02*
X5608151Y-603150D01*
X5608151Y-603150D02*
X5636723Y-603150D01*
X5636723Y-603150D02*
X5655770Y-612674D01*
X5655770Y-612674D02*
X5665294Y-622198D01*
X5665294Y-622198D02*
X5674818Y-641246D01*
X5674818Y-641246D02*
X5674818Y-698389D01*
X5674818Y-698389D02*
X5665294Y-717436D01*
X5665294Y-717436D02*
X5655770Y-726960D01*
X5655770Y-726960D02*
X5636723Y-736484D01*
X5636723Y-736484D02*
X5608151Y-736484D01*
X5731961Y-603150D02*
X5808151Y-603150D01*
X5760532Y-536484D02*
X5760532Y-707912D01*
X5760532Y-707912D02*
X5770056Y-726960D01*
X5770056Y-726960D02*
X5789104Y-736484D01*
X5789104Y-736484D02*
X5808151Y-736484D01*
X6027199Y-603150D02*
X6027199Y-803150D01*
X6027199Y-612674D02*
X6046246Y-603150D01*
X6046246Y-603150D02*
X6084342Y-603150D01*
X6084342Y-603150D02*
X6103389Y-612674D01*
X6103389Y-612674D02*
X6112913Y-622198D01*
X6112913Y-622198D02*
X6122437Y-641246D01*
X6122437Y-641246D02*
X6122437Y-698389D01*
X6122437Y-698389D02*
X6112913Y-717436D01*
X6112913Y-717436D02*
X6103389Y-726960D01*
X6103389Y-726960D02*
X6084342Y-736484D01*
X6084342Y-736484D02*
X6046246Y-736484D01*
X6046246Y-736484D02*
X6027199Y-726960D01*
X6236723Y-736484D02*
X6217675Y-726960D01*
X6217675Y-726960D02*
X6208151Y-707912D01*
X6208151Y-707912D02*
X6208151Y-536484D01*
X6398627Y-736484D02*
X6398627Y-631722D01*
X6398627Y-631722D02*
X6389104Y-612674D01*
X6389104Y-612674D02*
X6370056Y-603150D01*
X6370056Y-603150D02*
X6331961Y-603150D01*
X6331961Y-603150D02*
X6312913Y-612674D01*
X6398627Y-726960D02*
X6379580Y-736484D01*
X6379580Y-736484D02*
X6331961Y-736484D01*
X6331961Y-736484D02*
X6312913Y-726960D01*
X6312913Y-726960D02*
X6303389Y-707912D01*
X6303389Y-707912D02*
X6303389Y-688865D01*
X6303389Y-688865D02*
X6312913Y-669817D01*
X6312913Y-669817D02*
X6331961Y-660293D01*
X6331961Y-660293D02*
X6379580Y-660293D01*
X6379580Y-660293D02*
X6398627Y-650770D01*
X6465294Y-603150D02*
X6541485Y-603150D01*
X6493866Y-536484D02*
X6493866Y-707912D01*
X6493866Y-707912D02*
X6503389Y-726960D01*
X6503389Y-726960D02*
X6522437Y-736484D01*
X6522437Y-736484D02*
X6541485Y-736484D01*
X6684342Y-726960D02*
X6665294Y-736484D01*
X6665294Y-736484D02*
X6627199Y-736484D01*
X6627199Y-736484D02*
X6608151Y-726960D01*
X6608151Y-726960D02*
X6598627Y-707912D01*
X6598627Y-707912D02*
X6598627Y-631722D01*
X6598627Y-631722D02*
X6608151Y-612674D01*
X6608151Y-612674D02*
X6627199Y-603150D01*
X6627199Y-603150D02*
X6665294Y-603150D01*
X6665294Y-603150D02*
X6684342Y-612674D01*
X6684342Y-612674D02*
X6693866Y-631722D01*
X6693866Y-631722D02*
X6693866Y-650770D01*
X6693866Y-650770D02*
X6598627Y-669817D01*
X6865294Y-736484D02*
X6865294Y-536484D01*
X6865294Y-726960D02*
X6846247Y-736484D01*
X6846247Y-736484D02*
X6808151Y-736484D01*
X6808151Y-736484D02*
X6789104Y-726960D01*
X6789104Y-726960D02*
X6779580Y-717436D01*
X6779580Y-717436D02*
X6770056Y-698389D01*
X6770056Y-698389D02*
X6770056Y-641246D01*
X6770056Y-641246D02*
X6779580Y-622198D01*
X6779580Y-622198D02*
X6789104Y-612674D01*
X6789104Y-612674D02*
X6808151Y-603150D01*
X6808151Y-603150D02*
X6846247Y-603150D01*
X6846247Y-603150D02*
X6865294Y-612674D01*
X6941485Y-812674D02*
X6951008Y-803150D01*
X6951008Y-803150D02*
X6970056Y-774579D01*
X6970056Y-774579D02*
X6979580Y-755531D01*
X6979580Y-755531D02*
X6989104Y-726960D01*
X6989104Y-726960D02*
X6998627Y-679341D01*
X6998627Y-679341D02*
X6998627Y-641246D01*
X6998627Y-641246D02*
X6989104Y-593627D01*
X6989104Y-593627D02*
X6979580Y-565055D01*
X6979580Y-565055D02*
X6970056Y-546008D01*
X6970056Y-546008D02*
X6951008Y-517436D01*
X6951008Y-517436D02*
X6941485Y-507912D01*
D13*
X-5007Y-909000D02*
G75*
G03*
X-5007Y-909000I-87500J0D01*
G01*
D11*
X360532Y-1000484D02*
X246246Y-1000484D01*
X303389Y-1000484D02*
X303389Y-800484D01*
X303389Y-800484D02*
X284341Y-829055D01*
X284341Y-829055D02*
X265294Y-848103D01*
X265294Y-848103D02*
X246246Y-857627D01*
X446246Y-981436D02*
X455770Y-990960D01*
X455770Y-990960D02*
X446246Y-1000484D01*
X446246Y-1000484D02*
X436722Y-990960D01*
X436722Y-990960D02*
X446246Y-981436D01*
X446246Y-981436D02*
X446246Y-1000484D01*
X522436Y-800484D02*
X655770Y-800484D01*
X655770Y-800484D02*
X570056Y-1000484D01*
X827198Y-800484D02*
X731960Y-800484D01*
X731960Y-800484D02*
X722436Y-895722D01*
X722436Y-895722D02*
X731960Y-886198D01*
X731960Y-886198D02*
X751008Y-876674D01*
X751008Y-876674D02*
X798627Y-876674D01*
X798627Y-876674D02*
X817675Y-886198D01*
X817675Y-886198D02*
X827198Y-895722D01*
X827198Y-895722D02*
X836722Y-914769D01*
X836722Y-914769D02*
X836722Y-962388D01*
X836722Y-962388D02*
X827198Y-981436D01*
X827198Y-981436D02*
X817675Y-990960D01*
X817675Y-990960D02*
X798627Y-1000484D01*
X798627Y-1000484D02*
X751008Y-1000484D01*
X751008Y-1000484D02*
X731960Y-990960D01*
X731960Y-990960D02*
X722436Y-981436D01*
X960532Y-800484D02*
X979579Y-800484D01*
X979579Y-800484D02*
X998627Y-810008D01*
X998627Y-810008D02*
X1008151Y-819531D01*
X1008151Y-819531D02*
X1017675Y-838579D01*
X1017675Y-838579D02*
X1027198Y-876674D01*
X1027198Y-876674D02*
X1027198Y-924293D01*
X1027198Y-924293D02*
X1017675Y-962388D01*
X1017675Y-962388D02*
X1008151Y-981436D01*
X1008151Y-981436D02*
X998627Y-990960D01*
X998627Y-990960D02*
X979579Y-1000484D01*
X979579Y-1000484D02*
X960532Y-1000484D01*
X960532Y-1000484D02*
X941484Y-990960D01*
X941484Y-990960D02*
X931960Y-981436D01*
X931960Y-981436D02*
X922436Y-962388D01*
X922436Y-962388D02*
X912913Y-924293D01*
X912913Y-924293D02*
X912913Y-876674D01*
X912913Y-876674D02*
X922436Y-838579D01*
X922436Y-838579D02*
X931960Y-819531D01*
X931960Y-819531D02*
X941484Y-810008D01*
X941484Y-810008D02*
X960532Y-800484D01*
X1112913Y-1000484D02*
X1112913Y-867150D01*
X1112913Y-886198D02*
X1122437Y-876674D01*
X1122437Y-876674D02*
X1141484Y-867150D01*
X1141484Y-867150D02*
X1170056Y-867150D01*
X1170056Y-867150D02*
X1189103Y-876674D01*
X1189103Y-876674D02*
X1198627Y-895722D01*
X1198627Y-895722D02*
X1198627Y-1000484D01*
X1198627Y-895722D02*
X1208151Y-876674D01*
X1208151Y-876674D02*
X1227198Y-867150D01*
X1227198Y-867150D02*
X1255770Y-867150D01*
X1255770Y-867150D02*
X1274818Y-876674D01*
X1274818Y-876674D02*
X1284341Y-895722D01*
X1284341Y-895722D02*
X1284341Y-1000484D01*
X1379579Y-1000484D02*
X1379579Y-867150D01*
X1379579Y-886198D02*
X1389103Y-876674D01*
X1389103Y-876674D02*
X1408151Y-867150D01*
X1408151Y-867150D02*
X1436722Y-867150D01*
X1436722Y-867150D02*
X1455770Y-876674D01*
X1455770Y-876674D02*
X1465294Y-895722D01*
X1465294Y-895722D02*
X1465294Y-1000484D01*
X1465294Y-895722D02*
X1474817Y-876674D01*
X1474817Y-876674D02*
X1493865Y-867150D01*
X1493865Y-867150D02*
X1522436Y-867150D01*
X1522436Y-867150D02*
X1541484Y-876674D01*
X1541484Y-876674D02*
X1551008Y-895722D01*
X1551008Y-895722D02*
X1551008Y-1000484D01*
X1941484Y-790960D02*
X1770056Y-1048103D01*
X2198627Y-800484D02*
X2217675Y-800484D01*
X2217675Y-800484D02*
X2236722Y-810008D01*
X2236722Y-810008D02*
X2246246Y-819531D01*
X2246246Y-819531D02*
X2255770Y-838579D01*
X2255770Y-838579D02*
X2265294Y-876674D01*
X2265294Y-876674D02*
X2265294Y-924293D01*
X2265294Y-924293D02*
X2255770Y-962388D01*
X2255770Y-962388D02*
X2246246Y-981436D01*
X2246246Y-981436D02*
X2236722Y-990960D01*
X2236722Y-990960D02*
X2217675Y-1000484D01*
X2217675Y-1000484D02*
X2198627Y-1000484D01*
X2198627Y-1000484D02*
X2179580Y-990960D01*
X2179580Y-990960D02*
X2170056Y-981436D01*
X2170056Y-981436D02*
X2160532Y-962388D01*
X2160532Y-962388D02*
X2151008Y-924293D01*
X2151008Y-924293D02*
X2151008Y-876674D01*
X2151008Y-876674D02*
X2160532Y-838579D01*
X2160532Y-838579D02*
X2170056Y-819531D01*
X2170056Y-819531D02*
X2179580Y-810008D01*
X2179580Y-810008D02*
X2198627Y-800484D01*
X2351008Y-981436D02*
X2360532Y-990960D01*
X2360532Y-990960D02*
X2351008Y-1000484D01*
X2351008Y-1000484D02*
X2341484Y-990960D01*
X2341484Y-990960D02*
X2351008Y-981436D01*
X2351008Y-981436D02*
X2351008Y-1000484D01*
X2484341Y-800484D02*
X2503389Y-800484D01*
X2503389Y-800484D02*
X2522437Y-810008D01*
X2522437Y-810008D02*
X2531961Y-819531D01*
X2531961Y-819531D02*
X2541484Y-838579D01*
X2541484Y-838579D02*
X2551008Y-876674D01*
X2551008Y-876674D02*
X2551008Y-924293D01*
X2551008Y-924293D02*
X2541484Y-962388D01*
X2541484Y-962388D02*
X2531961Y-981436D01*
X2531961Y-981436D02*
X2522437Y-990960D01*
X2522437Y-990960D02*
X2503389Y-1000484D01*
X2503389Y-1000484D02*
X2484341Y-1000484D01*
X2484341Y-1000484D02*
X2465294Y-990960D01*
X2465294Y-990960D02*
X2455770Y-981436D01*
X2455770Y-981436D02*
X2446246Y-962388D01*
X2446246Y-962388D02*
X2436722Y-924293D01*
X2436722Y-924293D02*
X2436722Y-876674D01*
X2436722Y-876674D02*
X2446246Y-838579D01*
X2446246Y-838579D02*
X2455770Y-819531D01*
X2455770Y-819531D02*
X2465294Y-810008D01*
X2465294Y-810008D02*
X2484341Y-800484D01*
X2722437Y-800484D02*
X2684341Y-800484D01*
X2684341Y-800484D02*
X2665294Y-810008D01*
X2665294Y-810008D02*
X2655770Y-819531D01*
X2655770Y-819531D02*
X2636722Y-848103D01*
X2636722Y-848103D02*
X2627199Y-886198D01*
X2627199Y-886198D02*
X2627199Y-962388D01*
X2627199Y-962388D02*
X2636722Y-981436D01*
X2636722Y-981436D02*
X2646246Y-990960D01*
X2646246Y-990960D02*
X2665294Y-1000484D01*
X2665294Y-1000484D02*
X2703389Y-1000484D01*
X2703389Y-1000484D02*
X2722437Y-990960D01*
X2722437Y-990960D02*
X2731961Y-981436D01*
X2731961Y-981436D02*
X2741484Y-962388D01*
X2741484Y-962388D02*
X2741484Y-914769D01*
X2741484Y-914769D02*
X2731961Y-895722D01*
X2731961Y-895722D02*
X2722437Y-886198D01*
X2722437Y-886198D02*
X2703389Y-876674D01*
X2703389Y-876674D02*
X2665294Y-876674D01*
X2665294Y-876674D02*
X2646246Y-886198D01*
X2646246Y-886198D02*
X2636722Y-895722D01*
X2636722Y-895722D02*
X2627199Y-914769D01*
X2855770Y-886198D02*
X2836722Y-876674D01*
X2836722Y-876674D02*
X2827199Y-867150D01*
X2827199Y-867150D02*
X2817675Y-848103D01*
X2817675Y-848103D02*
X2817675Y-838579D01*
X2817675Y-838579D02*
X2827199Y-819531D01*
X2827199Y-819531D02*
X2836722Y-810008D01*
X2836722Y-810008D02*
X2855770Y-800484D01*
X2855770Y-800484D02*
X2893865Y-800484D01*
X2893865Y-800484D02*
X2912913Y-810008D01*
X2912913Y-810008D02*
X2922437Y-819531D01*
X2922437Y-819531D02*
X2931960Y-838579D01*
X2931960Y-838579D02*
X2931960Y-848103D01*
X2931960Y-848103D02*
X2922437Y-867150D01*
X2922437Y-867150D02*
X2912913Y-876674D01*
X2912913Y-876674D02*
X2893865Y-886198D01*
X2893865Y-886198D02*
X2855770Y-886198D01*
X2855770Y-886198D02*
X2836722Y-895722D01*
X2836722Y-895722D02*
X2827199Y-905246D01*
X2827199Y-905246D02*
X2817675Y-924293D01*
X2817675Y-924293D02*
X2817675Y-962388D01*
X2817675Y-962388D02*
X2827199Y-981436D01*
X2827199Y-981436D02*
X2836722Y-990960D01*
X2836722Y-990960D02*
X2855770Y-1000484D01*
X2855770Y-1000484D02*
X2893865Y-1000484D01*
X2893865Y-1000484D02*
X2912913Y-990960D01*
X2912913Y-990960D02*
X2922437Y-981436D01*
X2922437Y-981436D02*
X2931960Y-962388D01*
X2931960Y-962388D02*
X2931960Y-924293D01*
X2931960Y-924293D02*
X2922437Y-905246D01*
X2922437Y-905246D02*
X2912913Y-895722D01*
X2912913Y-895722D02*
X2893865Y-886198D01*
X3027199Y-1000484D02*
X3065294Y-1000484D01*
X3065294Y-1000484D02*
X3084341Y-990960D01*
X3084341Y-990960D02*
X3093865Y-981436D01*
X3093865Y-981436D02*
X3112913Y-952865D01*
X3112913Y-952865D02*
X3122437Y-914769D01*
X3122437Y-914769D02*
X3122437Y-838579D01*
X3122437Y-838579D02*
X3112913Y-819531D01*
X3112913Y-819531D02*
X3103389Y-810008D01*
X3103389Y-810008D02*
X3084341Y-800484D01*
X3084341Y-800484D02*
X3046246Y-800484D01*
X3046246Y-800484D02*
X3027199Y-810008D01*
X3027199Y-810008D02*
X3017675Y-819531D01*
X3017675Y-819531D02*
X3008151Y-838579D01*
X3008151Y-838579D02*
X3008151Y-886198D01*
X3008151Y-886198D02*
X3017675Y-905246D01*
X3017675Y-905246D02*
X3027199Y-914769D01*
X3027199Y-914769D02*
X3046246Y-924293D01*
X3046246Y-924293D02*
X3084341Y-924293D01*
X3084341Y-924293D02*
X3103389Y-914769D01*
X3103389Y-914769D02*
X3112913Y-905246D01*
X3112913Y-905246D02*
X3122437Y-886198D01*
X3198627Y-800484D02*
X3198627Y-838579D01*
X3274818Y-800484D02*
X3274818Y-838579D01*
X3570056Y-1076674D02*
X3560532Y-1067150D01*
X3560532Y-1067150D02*
X3541484Y-1038579D01*
X3541484Y-1038579D02*
X3531961Y-1019531D01*
X3531961Y-1019531D02*
X3522437Y-990960D01*
X3522437Y-990960D02*
X3512913Y-943341D01*
X3512913Y-943341D02*
X3512913Y-905246D01*
X3512913Y-905246D02*
X3522437Y-857627D01*
X3522437Y-857627D02*
X3531961Y-829055D01*
X3531961Y-829055D02*
X3541484Y-810008D01*
X3541484Y-810008D02*
X3560532Y-781436D01*
X3560532Y-781436D02*
X3570056Y-771912D01*
X3674818Y-886198D02*
X3655770Y-876674D01*
X3655770Y-876674D02*
X3646246Y-867150D01*
X3646246Y-867150D02*
X3636722Y-848103D01*
X3636722Y-848103D02*
X3636722Y-838579D01*
X3636722Y-838579D02*
X3646246Y-819531D01*
X3646246Y-819531D02*
X3655770Y-810008D01*
X3655770Y-810008D02*
X3674818Y-800484D01*
X3674818Y-800484D02*
X3712913Y-800484D01*
X3712913Y-800484D02*
X3731961Y-810008D01*
X3731961Y-810008D02*
X3741484Y-819531D01*
X3741484Y-819531D02*
X3751008Y-838579D01*
X3751008Y-838579D02*
X3751008Y-848103D01*
X3751008Y-848103D02*
X3741484Y-867150D01*
X3741484Y-867150D02*
X3731961Y-876674D01*
X3731961Y-876674D02*
X3712913Y-886198D01*
X3712913Y-886198D02*
X3674818Y-886198D01*
X3674818Y-886198D02*
X3655770Y-895722D01*
X3655770Y-895722D02*
X3646246Y-905246D01*
X3646246Y-905246D02*
X3636722Y-924293D01*
X3636722Y-924293D02*
X3636722Y-962388D01*
X3636722Y-962388D02*
X3646246Y-981436D01*
X3646246Y-981436D02*
X3655770Y-990960D01*
X3655770Y-990960D02*
X3674818Y-1000484D01*
X3674818Y-1000484D02*
X3712913Y-1000484D01*
X3712913Y-1000484D02*
X3731961Y-990960D01*
X3731961Y-990960D02*
X3741484Y-981436D01*
X3741484Y-981436D02*
X3751008Y-962388D01*
X3751008Y-962388D02*
X3751008Y-924293D01*
X3751008Y-924293D02*
X3741484Y-905246D01*
X3741484Y-905246D02*
X3731961Y-895722D01*
X3731961Y-895722D02*
X3712913Y-886198D01*
X3865294Y-886198D02*
X3846246Y-876674D01*
X3846246Y-876674D02*
X3836722Y-867150D01*
X3836722Y-867150D02*
X3827199Y-848103D01*
X3827199Y-848103D02*
X3827199Y-838579D01*
X3827199Y-838579D02*
X3836722Y-819531D01*
X3836722Y-819531D02*
X3846246Y-810008D01*
X3846246Y-810008D02*
X3865294Y-800484D01*
X3865294Y-800484D02*
X3903389Y-800484D01*
X3903389Y-800484D02*
X3922437Y-810008D01*
X3922437Y-810008D02*
X3931961Y-819531D01*
X3931961Y-819531D02*
X3941484Y-838579D01*
X3941484Y-838579D02*
X3941484Y-848103D01*
X3941484Y-848103D02*
X3931961Y-867150D01*
X3931961Y-867150D02*
X3922437Y-876674D01*
X3922437Y-876674D02*
X3903389Y-886198D01*
X3903389Y-886198D02*
X3865294Y-886198D01*
X3865294Y-886198D02*
X3846246Y-895722D01*
X3846246Y-895722D02*
X3836722Y-905246D01*
X3836722Y-905246D02*
X3827199Y-924293D01*
X3827199Y-924293D02*
X3827199Y-962388D01*
X3827199Y-962388D02*
X3836722Y-981436D01*
X3836722Y-981436D02*
X3846246Y-990960D01*
X3846246Y-990960D02*
X3865294Y-1000484D01*
X3865294Y-1000484D02*
X3903389Y-1000484D01*
X3903389Y-1000484D02*
X3922437Y-990960D01*
X3922437Y-990960D02*
X3931961Y-981436D01*
X3931961Y-981436D02*
X3941484Y-962388D01*
X3941484Y-962388D02*
X3941484Y-924293D01*
X3941484Y-924293D02*
X3931961Y-905246D01*
X3931961Y-905246D02*
X3922437Y-895722D01*
X3922437Y-895722D02*
X3903389Y-886198D01*
X4179580Y-1000484D02*
X4179580Y-800484D01*
X4265294Y-1000484D02*
X4265294Y-895722D01*
X4265294Y-895722D02*
X4255770Y-876674D01*
X4255770Y-876674D02*
X4236723Y-867150D01*
X4236723Y-867150D02*
X4208151Y-867150D01*
X4208151Y-867150D02*
X4189103Y-876674D01*
X4189103Y-876674D02*
X4179580Y-886198D01*
X4389104Y-1000484D02*
X4370056Y-990960D01*
X4370056Y-990960D02*
X4360532Y-981436D01*
X4360532Y-981436D02*
X4351008Y-962388D01*
X4351008Y-962388D02*
X4351008Y-905246D01*
X4351008Y-905246D02*
X4360532Y-886198D01*
X4360532Y-886198D02*
X4370056Y-876674D01*
X4370056Y-876674D02*
X4389104Y-867150D01*
X4389104Y-867150D02*
X4417675Y-867150D01*
X4417675Y-867150D02*
X4436723Y-876674D01*
X4436723Y-876674D02*
X4446246Y-886198D01*
X4446246Y-886198D02*
X4455770Y-905246D01*
X4455770Y-905246D02*
X4455770Y-962388D01*
X4455770Y-962388D02*
X4446246Y-981436D01*
X4446246Y-981436D02*
X4436723Y-990960D01*
X4436723Y-990960D02*
X4417675Y-1000484D01*
X4417675Y-1000484D02*
X4389104Y-1000484D01*
X4570056Y-1000484D02*
X4551008Y-990960D01*
X4551008Y-990960D02*
X4541485Y-971912D01*
X4541485Y-971912D02*
X4541485Y-800484D01*
X4722437Y-990960D02*
X4703389Y-1000484D01*
X4703389Y-1000484D02*
X4665294Y-1000484D01*
X4665294Y-1000484D02*
X4646246Y-990960D01*
X4646246Y-990960D02*
X4636723Y-971912D01*
X4636723Y-971912D02*
X4636723Y-895722D01*
X4636723Y-895722D02*
X4646246Y-876674D01*
X4646246Y-876674D02*
X4665294Y-867150D01*
X4665294Y-867150D02*
X4703389Y-867150D01*
X4703389Y-867150D02*
X4722437Y-876674D01*
X4722437Y-876674D02*
X4731961Y-895722D01*
X4731961Y-895722D02*
X4731961Y-914769D01*
X4731961Y-914769D02*
X4636723Y-933817D01*
X4808151Y-990960D02*
X4827199Y-1000484D01*
X4827199Y-1000484D02*
X4865294Y-1000484D01*
X4865294Y-1000484D02*
X4884342Y-990960D01*
X4884342Y-990960D02*
X4893866Y-971912D01*
X4893866Y-971912D02*
X4893866Y-962388D01*
X4893866Y-962388D02*
X4884342Y-943341D01*
X4884342Y-943341D02*
X4865294Y-933817D01*
X4865294Y-933817D02*
X4836723Y-933817D01*
X4836723Y-933817D02*
X4817675Y-924293D01*
X4817675Y-924293D02*
X4808151Y-905246D01*
X4808151Y-905246D02*
X4808151Y-895722D01*
X4808151Y-895722D02*
X4817675Y-876674D01*
X4817675Y-876674D02*
X4836723Y-867150D01*
X4836723Y-867150D02*
X4865294Y-867150D01*
X4865294Y-867150D02*
X4884342Y-876674D01*
X4960532Y-1076674D02*
X4970056Y-1067150D01*
X4970056Y-1067150D02*
X4989104Y-1038579D01*
X4989104Y-1038579D02*
X4998627Y-1019531D01*
X4998627Y-1019531D02*
X5008151Y-990960D01*
X5008151Y-990960D02*
X5017675Y-943341D01*
X5017675Y-943341D02*
X5017675Y-905246D01*
X5017675Y-905246D02*
X5008151Y-857627D01*
X5008151Y-857627D02*
X4998627Y-829055D01*
X4998627Y-829055D02*
X4989104Y-810008D01*
X4989104Y-810008D02*
X4970056Y-781436D01*
X4970056Y-781436D02*
X4960532Y-771912D01*
X5322437Y-1076674D02*
X5312913Y-1067150D01*
X5312913Y-1067150D02*
X5293866Y-1038579D01*
X5293866Y-1038579D02*
X5284342Y-1019531D01*
X5284342Y-1019531D02*
X5274818Y-990960D01*
X5274818Y-990960D02*
X5265294Y-943341D01*
X5265294Y-943341D02*
X5265294Y-905246D01*
X5265294Y-905246D02*
X5274818Y-857627D01*
X5274818Y-857627D02*
X5284342Y-829055D01*
X5284342Y-829055D02*
X5293866Y-810008D01*
X5293866Y-810008D02*
X5312913Y-781436D01*
X5312913Y-781436D02*
X5322437Y-771912D01*
X5398627Y-867150D02*
X5398627Y-1000484D01*
X5398627Y-886198D02*
X5408151Y-876674D01*
X5408151Y-876674D02*
X5427199Y-867150D01*
X5427199Y-867150D02*
X5455770Y-867150D01*
X5455770Y-867150D02*
X5474818Y-876674D01*
X5474818Y-876674D02*
X5484342Y-895722D01*
X5484342Y-895722D02*
X5484342Y-1000484D01*
X5608151Y-1000484D02*
X5589104Y-990960D01*
X5589104Y-990960D02*
X5579580Y-981436D01*
X5579580Y-981436D02*
X5570056Y-962388D01*
X5570056Y-962388D02*
X5570056Y-905246D01*
X5570056Y-905246D02*
X5579580Y-886198D01*
X5579580Y-886198D02*
X5589104Y-876674D01*
X5589104Y-876674D02*
X5608151Y-867150D01*
X5608151Y-867150D02*
X5636723Y-867150D01*
X5636723Y-867150D02*
X5655770Y-876674D01*
X5655770Y-876674D02*
X5665294Y-886198D01*
X5665294Y-886198D02*
X5674818Y-905246D01*
X5674818Y-905246D02*
X5674818Y-962388D01*
X5674818Y-962388D02*
X5665294Y-981436D01*
X5665294Y-981436D02*
X5655770Y-990960D01*
X5655770Y-990960D02*
X5636723Y-1000484D01*
X5636723Y-1000484D02*
X5608151Y-1000484D01*
X5731961Y-867150D02*
X5808151Y-867150D01*
X5760532Y-800484D02*
X5760532Y-971912D01*
X5760532Y-971912D02*
X5770056Y-990960D01*
X5770056Y-990960D02*
X5789104Y-1000484D01*
X5789104Y-1000484D02*
X5808151Y-1000484D01*
X6027199Y-867150D02*
X6027199Y-1067150D01*
X6027199Y-876674D02*
X6046246Y-867150D01*
X6046246Y-867150D02*
X6084342Y-867150D01*
X6084342Y-867150D02*
X6103389Y-876674D01*
X6103389Y-876674D02*
X6112913Y-886198D01*
X6112913Y-886198D02*
X6122437Y-905246D01*
X6122437Y-905246D02*
X6122437Y-962388D01*
X6122437Y-962388D02*
X6112913Y-981436D01*
X6112913Y-981436D02*
X6103389Y-990960D01*
X6103389Y-990960D02*
X6084342Y-1000484D01*
X6084342Y-1000484D02*
X6046246Y-1000484D01*
X6046246Y-1000484D02*
X6027199Y-990960D01*
X6236723Y-1000484D02*
X6217675Y-990960D01*
X6217675Y-990960D02*
X6208151Y-971912D01*
X6208151Y-971912D02*
X6208151Y-800484D01*
X6398627Y-1000484D02*
X6398627Y-895722D01*
X6398627Y-895722D02*
X6389104Y-876674D01*
X6389104Y-876674D02*
X6370056Y-867150D01*
X6370056Y-867150D02*
X6331961Y-867150D01*
X6331961Y-867150D02*
X6312913Y-876674D01*
X6398627Y-990960D02*
X6379580Y-1000484D01*
X6379580Y-1000484D02*
X6331961Y-1000484D01*
X6331961Y-1000484D02*
X6312913Y-990960D01*
X6312913Y-990960D02*
X6303389Y-971912D01*
X6303389Y-971912D02*
X6303389Y-952865D01*
X6303389Y-952865D02*
X6312913Y-933817D01*
X6312913Y-933817D02*
X6331961Y-924293D01*
X6331961Y-924293D02*
X6379580Y-924293D01*
X6379580Y-924293D02*
X6398627Y-914769D01*
X6465294Y-867150D02*
X6541485Y-867150D01*
X6493866Y-800484D02*
X6493866Y-971912D01*
X6493866Y-971912D02*
X6503389Y-990960D01*
X6503389Y-990960D02*
X6522437Y-1000484D01*
X6522437Y-1000484D02*
X6541485Y-1000484D01*
X6684342Y-990960D02*
X6665294Y-1000484D01*
X6665294Y-1000484D02*
X6627199Y-1000484D01*
X6627199Y-1000484D02*
X6608151Y-990960D01*
X6608151Y-990960D02*
X6598627Y-971912D01*
X6598627Y-971912D02*
X6598627Y-895722D01*
X6598627Y-895722D02*
X6608151Y-876674D01*
X6608151Y-876674D02*
X6627199Y-867150D01*
X6627199Y-867150D02*
X6665294Y-867150D01*
X6665294Y-867150D02*
X6684342Y-876674D01*
X6684342Y-876674D02*
X6693866Y-895722D01*
X6693866Y-895722D02*
X6693866Y-914769D01*
X6693866Y-914769D02*
X6598627Y-933817D01*
X6865294Y-1000484D02*
X6865294Y-800484D01*
X6865294Y-990960D02*
X6846247Y-1000484D01*
X6846247Y-1000484D02*
X6808151Y-1000484D01*
X6808151Y-1000484D02*
X6789104Y-990960D01*
X6789104Y-990960D02*
X6779580Y-981436D01*
X6779580Y-981436D02*
X6770056Y-962388D01*
X6770056Y-962388D02*
X6770056Y-905246D01*
X6770056Y-905246D02*
X6779580Y-886198D01*
X6779580Y-886198D02*
X6789104Y-876674D01*
X6789104Y-876674D02*
X6808151Y-867150D01*
X6808151Y-867150D02*
X6846247Y-867150D01*
X6846247Y-867150D02*
X6865294Y-876674D01*
X6941485Y-1076674D02*
X6951008Y-1067150D01*
X6951008Y-1067150D02*
X6970056Y-1038579D01*
X6970056Y-1038579D02*
X6979580Y-1019531D01*
X6979580Y-1019531D02*
X6989104Y-990960D01*
X6989104Y-990960D02*
X6998627Y-943341D01*
X6998627Y-943341D02*
X6998627Y-905246D01*
X6998627Y-905246D02*
X6989104Y-857627D01*
X6989104Y-857627D02*
X6979580Y-829055D01*
X6979580Y-829055D02*
X6970056Y-810008D01*
X6970056Y-810008D02*
X6951008Y-781436D01*
X6951008Y-781436D02*
X6941485Y-771912D01*
X-105007Y-1104000D02*
X-105007Y-1304000D01*
X-205007Y-1204000D02*
X-5007Y-1204000D01*
X236722Y-1095484D02*
X360532Y-1095484D01*
X360532Y-1095484D02*
X293865Y-1171674D01*
X293865Y-1171674D02*
X322437Y-1171674D01*
X322437Y-1171674D02*
X341484Y-1181198D01*
X341484Y-1181198D02*
X351008Y-1190722D01*
X351008Y-1190722D02*
X360532Y-1209770D01*
X360532Y-1209770D02*
X360532Y-1257389D01*
X360532Y-1257389D02*
X351008Y-1276436D01*
X351008Y-1276436D02*
X341484Y-1285960D01*
X341484Y-1285960D02*
X322437Y-1295484D01*
X322437Y-1295484D02*
X265294Y-1295484D01*
X265294Y-1295484D02*
X246246Y-1285960D01*
X246246Y-1285960D02*
X236722Y-1276436D01*
X446246Y-1276436D02*
X455770Y-1285960D01*
X455770Y-1285960D02*
X446246Y-1295484D01*
X446246Y-1295484D02*
X436722Y-1285960D01*
X436722Y-1285960D02*
X446246Y-1276436D01*
X446246Y-1276436D02*
X446246Y-1295484D01*
X579579Y-1095484D02*
X598627Y-1095484D01*
X598627Y-1095484D02*
X617675Y-1105008D01*
X617675Y-1105008D02*
X627198Y-1114531D01*
X627198Y-1114531D02*
X636722Y-1133579D01*
X636722Y-1133579D02*
X646246Y-1171674D01*
X646246Y-1171674D02*
X646246Y-1219293D01*
X646246Y-1219293D02*
X636722Y-1257389D01*
X636722Y-1257389D02*
X627198Y-1276436D01*
X627198Y-1276436D02*
X617675Y-1285960D01*
X617675Y-1285960D02*
X598627Y-1295484D01*
X598627Y-1295484D02*
X579579Y-1295484D01*
X579579Y-1295484D02*
X560532Y-1285960D01*
X560532Y-1285960D02*
X551008Y-1276436D01*
X551008Y-1276436D02*
X541484Y-1257389D01*
X541484Y-1257389D02*
X531960Y-1219293D01*
X531960Y-1219293D02*
X531960Y-1171674D01*
X531960Y-1171674D02*
X541484Y-1133579D01*
X541484Y-1133579D02*
X551008Y-1114531D01*
X551008Y-1114531D02*
X560532Y-1105008D01*
X560532Y-1105008D02*
X579579Y-1095484D01*
X770055Y-1095484D02*
X789103Y-1095484D01*
X789103Y-1095484D02*
X808151Y-1105008D01*
X808151Y-1105008D02*
X817675Y-1114531D01*
X817675Y-1114531D02*
X827198Y-1133579D01*
X827198Y-1133579D02*
X836722Y-1171674D01*
X836722Y-1171674D02*
X836722Y-1219293D01*
X836722Y-1219293D02*
X827198Y-1257389D01*
X827198Y-1257389D02*
X817675Y-1276436D01*
X817675Y-1276436D02*
X808151Y-1285960D01*
X808151Y-1285960D02*
X789103Y-1295484D01*
X789103Y-1295484D02*
X770055Y-1295484D01*
X770055Y-1295484D02*
X751008Y-1285960D01*
X751008Y-1285960D02*
X741484Y-1276436D01*
X741484Y-1276436D02*
X731960Y-1257389D01*
X731960Y-1257389D02*
X722436Y-1219293D01*
X722436Y-1219293D02*
X722436Y-1171674D01*
X722436Y-1171674D02*
X731960Y-1133579D01*
X731960Y-1133579D02*
X741484Y-1114531D01*
X741484Y-1114531D02*
X751008Y-1105008D01*
X751008Y-1105008D02*
X770055Y-1095484D01*
X960532Y-1095484D02*
X979579Y-1095484D01*
X979579Y-1095484D02*
X998627Y-1105008D01*
X998627Y-1105008D02*
X1008151Y-1114531D01*
X1008151Y-1114531D02*
X1017675Y-1133579D01*
X1017675Y-1133579D02*
X1027198Y-1171674D01*
X1027198Y-1171674D02*
X1027198Y-1219293D01*
X1027198Y-1219293D02*
X1017675Y-1257389D01*
X1017675Y-1257389D02*
X1008151Y-1276436D01*
X1008151Y-1276436D02*
X998627Y-1285960D01*
X998627Y-1285960D02*
X979579Y-1295484D01*
X979579Y-1295484D02*
X960532Y-1295484D01*
X960532Y-1295484D02*
X941484Y-1285960D01*
X941484Y-1285960D02*
X931960Y-1276436D01*
X931960Y-1276436D02*
X922436Y-1257389D01*
X922436Y-1257389D02*
X912913Y-1219293D01*
X912913Y-1219293D02*
X912913Y-1171674D01*
X912913Y-1171674D02*
X922436Y-1133579D01*
X922436Y-1133579D02*
X931960Y-1114531D01*
X931960Y-1114531D02*
X941484Y-1105008D01*
X941484Y-1105008D02*
X960532Y-1095484D01*
X1112913Y-1295484D02*
X1112913Y-1162150D01*
X1112913Y-1181198D02*
X1122437Y-1171674D01*
X1122437Y-1171674D02*
X1141484Y-1162150D01*
X1141484Y-1162150D02*
X1170056Y-1162150D01*
X1170056Y-1162150D02*
X1189103Y-1171674D01*
X1189103Y-1171674D02*
X1198627Y-1190722D01*
X1198627Y-1190722D02*
X1198627Y-1295484D01*
X1198627Y-1190722D02*
X1208151Y-1171674D01*
X1208151Y-1171674D02*
X1227198Y-1162150D01*
X1227198Y-1162150D02*
X1255770Y-1162150D01*
X1255770Y-1162150D02*
X1274818Y-1171674D01*
X1274818Y-1171674D02*
X1284341Y-1190722D01*
X1284341Y-1190722D02*
X1284341Y-1295484D01*
X1379579Y-1295484D02*
X1379579Y-1162150D01*
X1379579Y-1181198D02*
X1389103Y-1171674D01*
X1389103Y-1171674D02*
X1408151Y-1162150D01*
X1408151Y-1162150D02*
X1436722Y-1162150D01*
X1436722Y-1162150D02*
X1455770Y-1171674D01*
X1455770Y-1171674D02*
X1465294Y-1190722D01*
X1465294Y-1190722D02*
X1465294Y-1295484D01*
X1465294Y-1190722D02*
X1474817Y-1171674D01*
X1474817Y-1171674D02*
X1493865Y-1162150D01*
X1493865Y-1162150D02*
X1522436Y-1162150D01*
X1522436Y-1162150D02*
X1541484Y-1171674D01*
X1541484Y-1171674D02*
X1551008Y-1190722D01*
X1551008Y-1190722D02*
X1551008Y-1295484D01*
X1941484Y-1085960D02*
X1770056Y-1343103D01*
X2198627Y-1095484D02*
X2217675Y-1095484D01*
X2217675Y-1095484D02*
X2236722Y-1105008D01*
X2236722Y-1105008D02*
X2246246Y-1114531D01*
X2246246Y-1114531D02*
X2255770Y-1133579D01*
X2255770Y-1133579D02*
X2265294Y-1171674D01*
X2265294Y-1171674D02*
X2265294Y-1219293D01*
X2265294Y-1219293D02*
X2255770Y-1257389D01*
X2255770Y-1257389D02*
X2246246Y-1276436D01*
X2246246Y-1276436D02*
X2236722Y-1285960D01*
X2236722Y-1285960D02*
X2217675Y-1295484D01*
X2217675Y-1295484D02*
X2198627Y-1295484D01*
X2198627Y-1295484D02*
X2179580Y-1285960D01*
X2179580Y-1285960D02*
X2170056Y-1276436D01*
X2170056Y-1276436D02*
X2160532Y-1257389D01*
X2160532Y-1257389D02*
X2151008Y-1219293D01*
X2151008Y-1219293D02*
X2151008Y-1171674D01*
X2151008Y-1171674D02*
X2160532Y-1133579D01*
X2160532Y-1133579D02*
X2170056Y-1114531D01*
X2170056Y-1114531D02*
X2179580Y-1105008D01*
X2179580Y-1105008D02*
X2198627Y-1095484D01*
X2351008Y-1276436D02*
X2360532Y-1285960D01*
X2360532Y-1285960D02*
X2351008Y-1295484D01*
X2351008Y-1295484D02*
X2341484Y-1285960D01*
X2341484Y-1285960D02*
X2351008Y-1276436D01*
X2351008Y-1276436D02*
X2351008Y-1295484D01*
X2551008Y-1295484D02*
X2436722Y-1295484D01*
X2493865Y-1295484D02*
X2493865Y-1095484D01*
X2493865Y-1095484D02*
X2474818Y-1124055D01*
X2474818Y-1124055D02*
X2455770Y-1143103D01*
X2455770Y-1143103D02*
X2436722Y-1152627D01*
X2741484Y-1295484D02*
X2627199Y-1295484D01*
X2684341Y-1295484D02*
X2684341Y-1095484D01*
X2684341Y-1095484D02*
X2665294Y-1124055D01*
X2665294Y-1124055D02*
X2646246Y-1143103D01*
X2646246Y-1143103D02*
X2627199Y-1152627D01*
X2855770Y-1181198D02*
X2836722Y-1171674D01*
X2836722Y-1171674D02*
X2827199Y-1162150D01*
X2827199Y-1162150D02*
X2817675Y-1143103D01*
X2817675Y-1143103D02*
X2817675Y-1133579D01*
X2817675Y-1133579D02*
X2827199Y-1114531D01*
X2827199Y-1114531D02*
X2836722Y-1105008D01*
X2836722Y-1105008D02*
X2855770Y-1095484D01*
X2855770Y-1095484D02*
X2893865Y-1095484D01*
X2893865Y-1095484D02*
X2912913Y-1105008D01*
X2912913Y-1105008D02*
X2922437Y-1114531D01*
X2922437Y-1114531D02*
X2931960Y-1133579D01*
X2931960Y-1133579D02*
X2931960Y-1143103D01*
X2931960Y-1143103D02*
X2922437Y-1162150D01*
X2922437Y-1162150D02*
X2912913Y-1171674D01*
X2912913Y-1171674D02*
X2893865Y-1181198D01*
X2893865Y-1181198D02*
X2855770Y-1181198D01*
X2855770Y-1181198D02*
X2836722Y-1190722D01*
X2836722Y-1190722D02*
X2827199Y-1200246D01*
X2827199Y-1200246D02*
X2817675Y-1219293D01*
X2817675Y-1219293D02*
X2817675Y-1257389D01*
X2817675Y-1257389D02*
X2827199Y-1276436D01*
X2827199Y-1276436D02*
X2836722Y-1285960D01*
X2836722Y-1285960D02*
X2855770Y-1295484D01*
X2855770Y-1295484D02*
X2893865Y-1295484D01*
X2893865Y-1295484D02*
X2912913Y-1285960D01*
X2912913Y-1285960D02*
X2922437Y-1276436D01*
X2922437Y-1276436D02*
X2931960Y-1257389D01*
X2931960Y-1257389D02*
X2931960Y-1219293D01*
X2931960Y-1219293D02*
X2922437Y-1200246D01*
X2922437Y-1200246D02*
X2912913Y-1190722D01*
X2912913Y-1190722D02*
X2893865Y-1181198D01*
X3122437Y-1295484D02*
X3008151Y-1295484D01*
X3065294Y-1295484D02*
X3065294Y-1095484D01*
X3065294Y-1095484D02*
X3046246Y-1124055D01*
X3046246Y-1124055D02*
X3027199Y-1143103D01*
X3027199Y-1143103D02*
X3008151Y-1152627D01*
X3198627Y-1095484D02*
X3198627Y-1133579D01*
X3274818Y-1095484D02*
X3274818Y-1133579D01*
X3570056Y-1371674D02*
X3560532Y-1362150D01*
X3560532Y-1362150D02*
X3541484Y-1333579D01*
X3541484Y-1333579D02*
X3531961Y-1314531D01*
X3531961Y-1314531D02*
X3522437Y-1285960D01*
X3522437Y-1285960D02*
X3512913Y-1238341D01*
X3512913Y-1238341D02*
X3512913Y-1200246D01*
X3512913Y-1200246D02*
X3522437Y-1152627D01*
X3522437Y-1152627D02*
X3531961Y-1124055D01*
X3531961Y-1124055D02*
X3541484Y-1105008D01*
X3541484Y-1105008D02*
X3560532Y-1076436D01*
X3560532Y-1076436D02*
X3570056Y-1066912D01*
X3627199Y-1095484D02*
X3760532Y-1095484D01*
X3760532Y-1095484D02*
X3674818Y-1295484D01*
X3865294Y-1181198D02*
X3846246Y-1171674D01*
X3846246Y-1171674D02*
X3836722Y-1162150D01*
X3836722Y-1162150D02*
X3827199Y-1143103D01*
X3827199Y-1143103D02*
X3827199Y-1133579D01*
X3827199Y-1133579D02*
X3836722Y-1114531D01*
X3836722Y-1114531D02*
X3846246Y-1105008D01*
X3846246Y-1105008D02*
X3865294Y-1095484D01*
X3865294Y-1095484D02*
X3903389Y-1095484D01*
X3903389Y-1095484D02*
X3922437Y-1105008D01*
X3922437Y-1105008D02*
X3931961Y-1114531D01*
X3931961Y-1114531D02*
X3941484Y-1133579D01*
X3941484Y-1133579D02*
X3941484Y-1143103D01*
X3941484Y-1143103D02*
X3931961Y-1162150D01*
X3931961Y-1162150D02*
X3922437Y-1171674D01*
X3922437Y-1171674D02*
X3903389Y-1181198D01*
X3903389Y-1181198D02*
X3865294Y-1181198D01*
X3865294Y-1181198D02*
X3846246Y-1190722D01*
X3846246Y-1190722D02*
X3836722Y-1200246D01*
X3836722Y-1200246D02*
X3827199Y-1219293D01*
X3827199Y-1219293D02*
X3827199Y-1257389D01*
X3827199Y-1257389D02*
X3836722Y-1276436D01*
X3836722Y-1276436D02*
X3846246Y-1285960D01*
X3846246Y-1285960D02*
X3865294Y-1295484D01*
X3865294Y-1295484D02*
X3903389Y-1295484D01*
X3903389Y-1295484D02*
X3922437Y-1285960D01*
X3922437Y-1285960D02*
X3931961Y-1276436D01*
X3931961Y-1276436D02*
X3941484Y-1257389D01*
X3941484Y-1257389D02*
X3941484Y-1219293D01*
X3941484Y-1219293D02*
X3931961Y-1200246D01*
X3931961Y-1200246D02*
X3922437Y-1190722D01*
X3922437Y-1190722D02*
X3903389Y-1181198D01*
X4179580Y-1295484D02*
X4179580Y-1095484D01*
X4265294Y-1295484D02*
X4265294Y-1190722D01*
X4265294Y-1190722D02*
X4255770Y-1171674D01*
X4255770Y-1171674D02*
X4236723Y-1162150D01*
X4236723Y-1162150D02*
X4208151Y-1162150D01*
X4208151Y-1162150D02*
X4189103Y-1171674D01*
X4189103Y-1171674D02*
X4179580Y-1181198D01*
X4389104Y-1295484D02*
X4370056Y-1285960D01*
X4370056Y-1285960D02*
X4360532Y-1276436D01*
X4360532Y-1276436D02*
X4351008Y-1257389D01*
X4351008Y-1257389D02*
X4351008Y-1200246D01*
X4351008Y-1200246D02*
X4360532Y-1181198D01*
X4360532Y-1181198D02*
X4370056Y-1171674D01*
X4370056Y-1171674D02*
X4389104Y-1162150D01*
X4389104Y-1162150D02*
X4417675Y-1162150D01*
X4417675Y-1162150D02*
X4436723Y-1171674D01*
X4436723Y-1171674D02*
X4446246Y-1181198D01*
X4446246Y-1181198D02*
X4455770Y-1200246D01*
X4455770Y-1200246D02*
X4455770Y-1257389D01*
X4455770Y-1257389D02*
X4446246Y-1276436D01*
X4446246Y-1276436D02*
X4436723Y-1285960D01*
X4436723Y-1285960D02*
X4417675Y-1295484D01*
X4417675Y-1295484D02*
X4389104Y-1295484D01*
X4570056Y-1295484D02*
X4551008Y-1285960D01*
X4551008Y-1285960D02*
X4541485Y-1266912D01*
X4541485Y-1266912D02*
X4541485Y-1095484D01*
X4722437Y-1285960D02*
X4703389Y-1295484D01*
X4703389Y-1295484D02*
X4665294Y-1295484D01*
X4665294Y-1295484D02*
X4646246Y-1285960D01*
X4646246Y-1285960D02*
X4636723Y-1266912D01*
X4636723Y-1266912D02*
X4636723Y-1190722D01*
X4636723Y-1190722D02*
X4646246Y-1171674D01*
X4646246Y-1171674D02*
X4665294Y-1162150D01*
X4665294Y-1162150D02*
X4703389Y-1162150D01*
X4703389Y-1162150D02*
X4722437Y-1171674D01*
X4722437Y-1171674D02*
X4731961Y-1190722D01*
X4731961Y-1190722D02*
X4731961Y-1209770D01*
X4731961Y-1209770D02*
X4636723Y-1228817D01*
X4808151Y-1285960D02*
X4827199Y-1295484D01*
X4827199Y-1295484D02*
X4865294Y-1295484D01*
X4865294Y-1295484D02*
X4884342Y-1285960D01*
X4884342Y-1285960D02*
X4893866Y-1266912D01*
X4893866Y-1266912D02*
X4893866Y-1257389D01*
X4893866Y-1257389D02*
X4884342Y-1238341D01*
X4884342Y-1238341D02*
X4865294Y-1228817D01*
X4865294Y-1228817D02*
X4836723Y-1228817D01*
X4836723Y-1228817D02*
X4817675Y-1219293D01*
X4817675Y-1219293D02*
X4808151Y-1200246D01*
X4808151Y-1200246D02*
X4808151Y-1190722D01*
X4808151Y-1190722D02*
X4817675Y-1171674D01*
X4817675Y-1171674D02*
X4836723Y-1162150D01*
X4836723Y-1162150D02*
X4865294Y-1162150D01*
X4865294Y-1162150D02*
X4884342Y-1171674D01*
X4960532Y-1371674D02*
X4970056Y-1362150D01*
X4970056Y-1362150D02*
X4989104Y-1333579D01*
X4989104Y-1333579D02*
X4998627Y-1314531D01*
X4998627Y-1314531D02*
X5008151Y-1285960D01*
X5008151Y-1285960D02*
X5017675Y-1238341D01*
X5017675Y-1238341D02*
X5017675Y-1200246D01*
X5017675Y-1200246D02*
X5008151Y-1152627D01*
X5008151Y-1152627D02*
X4998627Y-1124055D01*
X4998627Y-1124055D02*
X4989104Y-1105008D01*
X4989104Y-1105008D02*
X4970056Y-1076436D01*
X4970056Y-1076436D02*
X4960532Y-1066912D01*
X5322437Y-1371674D02*
X5312913Y-1362150D01*
X5312913Y-1362150D02*
X5293866Y-1333579D01*
X5293866Y-1333579D02*
X5284342Y-1314531D01*
X5284342Y-1314531D02*
X5274818Y-1285960D01*
X5274818Y-1285960D02*
X5265294Y-1238341D01*
X5265294Y-1238341D02*
X5265294Y-1200246D01*
X5265294Y-1200246D02*
X5274818Y-1152627D01*
X5274818Y-1152627D02*
X5284342Y-1124055D01*
X5284342Y-1124055D02*
X5293866Y-1105008D01*
X5293866Y-1105008D02*
X5312913Y-1076436D01*
X5312913Y-1076436D02*
X5322437Y-1066912D01*
X5398627Y-1162150D02*
X5398627Y-1295484D01*
X5398627Y-1181198D02*
X5408151Y-1171674D01*
X5408151Y-1171674D02*
X5427199Y-1162150D01*
X5427199Y-1162150D02*
X5455770Y-1162150D01*
X5455770Y-1162150D02*
X5474818Y-1171674D01*
X5474818Y-1171674D02*
X5484342Y-1190722D01*
X5484342Y-1190722D02*
X5484342Y-1295484D01*
X5608151Y-1295484D02*
X5589104Y-1285960D01*
X5589104Y-1285960D02*
X5579580Y-1276436D01*
X5579580Y-1276436D02*
X5570056Y-1257389D01*
X5570056Y-1257389D02*
X5570056Y-1200246D01*
X5570056Y-1200246D02*
X5579580Y-1181198D01*
X5579580Y-1181198D02*
X5589104Y-1171674D01*
X5589104Y-1171674D02*
X5608151Y-1162150D01*
X5608151Y-1162150D02*
X5636723Y-1162150D01*
X5636723Y-1162150D02*
X5655770Y-1171674D01*
X5655770Y-1171674D02*
X5665294Y-1181198D01*
X5665294Y-1181198D02*
X5674818Y-1200246D01*
X5674818Y-1200246D02*
X5674818Y-1257389D01*
X5674818Y-1257389D02*
X5665294Y-1276436D01*
X5665294Y-1276436D02*
X5655770Y-1285960D01*
X5655770Y-1285960D02*
X5636723Y-1295484D01*
X5636723Y-1295484D02*
X5608151Y-1295484D01*
X5731961Y-1162150D02*
X5808151Y-1162150D01*
X5760532Y-1095484D02*
X5760532Y-1266912D01*
X5760532Y-1266912D02*
X5770056Y-1285960D01*
X5770056Y-1285960D02*
X5789104Y-1295484D01*
X5789104Y-1295484D02*
X5808151Y-1295484D01*
X6027199Y-1162150D02*
X6027199Y-1362150D01*
X6027199Y-1171674D02*
X6046246Y-1162150D01*
X6046246Y-1162150D02*
X6084342Y-1162150D01*
X6084342Y-1162150D02*
X6103389Y-1171674D01*
X6103389Y-1171674D02*
X6112913Y-1181198D01*
X6112913Y-1181198D02*
X6122437Y-1200246D01*
X6122437Y-1200246D02*
X6122437Y-1257389D01*
X6122437Y-1257389D02*
X6112913Y-1276436D01*
X6112913Y-1276436D02*
X6103389Y-1285960D01*
X6103389Y-1285960D02*
X6084342Y-1295484D01*
X6084342Y-1295484D02*
X6046246Y-1295484D01*
X6046246Y-1295484D02*
X6027199Y-1285960D01*
X6236723Y-1295484D02*
X6217675Y-1285960D01*
X6217675Y-1285960D02*
X6208151Y-1266912D01*
X6208151Y-1266912D02*
X6208151Y-1095484D01*
X6398627Y-1295484D02*
X6398627Y-1190722D01*
X6398627Y-1190722D02*
X6389104Y-1171674D01*
X6389104Y-1171674D02*
X6370056Y-1162150D01*
X6370056Y-1162150D02*
X6331961Y-1162150D01*
X6331961Y-1162150D02*
X6312913Y-1171674D01*
X6398627Y-1285960D02*
X6379580Y-1295484D01*
X6379580Y-1295484D02*
X6331961Y-1295484D01*
X6331961Y-1295484D02*
X6312913Y-1285960D01*
X6312913Y-1285960D02*
X6303389Y-1266912D01*
X6303389Y-1266912D02*
X6303389Y-1247865D01*
X6303389Y-1247865D02*
X6312913Y-1228817D01*
X6312913Y-1228817D02*
X6331961Y-1219293D01*
X6331961Y-1219293D02*
X6379580Y-1219293D01*
X6379580Y-1219293D02*
X6398627Y-1209770D01*
X6465294Y-1162150D02*
X6541485Y-1162150D01*
X6493866Y-1095484D02*
X6493866Y-1266912D01*
X6493866Y-1266912D02*
X6503389Y-1285960D01*
X6503389Y-1285960D02*
X6522437Y-1295484D01*
X6522437Y-1295484D02*
X6541485Y-1295484D01*
X6684342Y-1285960D02*
X6665294Y-1295484D01*
X6665294Y-1295484D02*
X6627199Y-1295484D01*
X6627199Y-1295484D02*
X6608151Y-1285960D01*
X6608151Y-1285960D02*
X6598627Y-1266912D01*
X6598627Y-1266912D02*
X6598627Y-1190722D01*
X6598627Y-1190722D02*
X6608151Y-1171674D01*
X6608151Y-1171674D02*
X6627199Y-1162150D01*
X6627199Y-1162150D02*
X6665294Y-1162150D01*
X6665294Y-1162150D02*
X6684342Y-1171674D01*
X6684342Y-1171674D02*
X6693866Y-1190722D01*
X6693866Y-1190722D02*
X6693866Y-1209770D01*
X6693866Y-1209770D02*
X6598627Y-1228817D01*
X6865294Y-1295484D02*
X6865294Y-1095484D01*
X6865294Y-1285960D02*
X6846247Y-1295484D01*
X6846247Y-1295484D02*
X6808151Y-1295484D01*
X6808151Y-1295484D02*
X6789104Y-1285960D01*
X6789104Y-1285960D02*
X6779580Y-1276436D01*
X6779580Y-1276436D02*
X6770056Y-1257389D01*
X6770056Y-1257389D02*
X6770056Y-1200246D01*
X6770056Y-1200246D02*
X6779580Y-1181198D01*
X6779580Y-1181198D02*
X6789104Y-1171674D01*
X6789104Y-1171674D02*
X6808151Y-1162150D01*
X6808151Y-1162150D02*
X6846247Y-1162150D01*
X6846247Y-1162150D02*
X6865294Y-1171674D01*
X6941485Y-1371674D02*
X6951008Y-1362150D01*
X6951008Y-1362150D02*
X6970056Y-1333579D01*
X6970056Y-1333579D02*
X6979580Y-1314531D01*
X6979580Y-1314531D02*
X6989104Y-1285960D01*
X6989104Y-1285960D02*
X6998627Y-1238341D01*
X6998627Y-1238341D02*
X6998627Y-1200246D01*
X6998627Y-1200246D02*
X6989104Y-1152627D01*
X6989104Y-1152627D02*
X6979580Y-1124055D01*
X6979580Y-1124055D02*
X6970056Y-1105008D01*
X6970056Y-1105008D02*
X6951008Y-1076436D01*
X6951008Y-1076436D02*
X6941485Y-1066912D01*
X-34296Y-1594711D02*
X-34296Y-1453289D01*
X-175718Y-1453289D01*
X-175718Y-1594711D01*
X-34296Y-1594711D01*
X236722Y-1415484D02*
X360532Y-1415484D01*
X360532Y-1415484D02*
X293865Y-1491674D01*
X293865Y-1491674D02*
X322437Y-1491674D01*
X322437Y-1491674D02*
X341484Y-1501198D01*
X341484Y-1501198D02*
X351008Y-1510722D01*
X351008Y-1510722D02*
X360532Y-1529769D01*
X360532Y-1529769D02*
X360532Y-1577388D01*
X360532Y-1577388D02*
X351008Y-1596436D01*
X351008Y-1596436D02*
X341484Y-1605960D01*
X341484Y-1605960D02*
X322437Y-1615484D01*
X322437Y-1615484D02*
X265294Y-1615484D01*
X265294Y-1615484D02*
X246246Y-1605960D01*
X246246Y-1605960D02*
X236722Y-1596436D01*
X446246Y-1596436D02*
X455770Y-1605960D01*
X455770Y-1605960D02*
X446246Y-1615484D01*
X446246Y-1615484D02*
X436722Y-1605960D01*
X436722Y-1605960D02*
X446246Y-1596436D01*
X446246Y-1596436D02*
X446246Y-1615484D01*
X579579Y-1415484D02*
X598627Y-1415484D01*
X598627Y-1415484D02*
X617675Y-1425008D01*
X617675Y-1425008D02*
X627198Y-1434531D01*
X627198Y-1434531D02*
X636722Y-1453579D01*
X636722Y-1453579D02*
X646246Y-1491674D01*
X646246Y-1491674D02*
X646246Y-1539293D01*
X646246Y-1539293D02*
X636722Y-1577388D01*
X636722Y-1577388D02*
X627198Y-1596436D01*
X627198Y-1596436D02*
X617675Y-1605960D01*
X617675Y-1605960D02*
X598627Y-1615484D01*
X598627Y-1615484D02*
X579579Y-1615484D01*
X579579Y-1615484D02*
X560532Y-1605960D01*
X560532Y-1605960D02*
X551008Y-1596436D01*
X551008Y-1596436D02*
X541484Y-1577388D01*
X541484Y-1577388D02*
X531960Y-1539293D01*
X531960Y-1539293D02*
X531960Y-1491674D01*
X531960Y-1491674D02*
X541484Y-1453579D01*
X541484Y-1453579D02*
X551008Y-1434531D01*
X551008Y-1434531D02*
X560532Y-1425008D01*
X560532Y-1425008D02*
X579579Y-1415484D01*
X817675Y-1482150D02*
X817675Y-1615484D01*
X770055Y-1405960D02*
X722436Y-1548817D01*
X722436Y-1548817D02*
X846246Y-1548817D01*
X951008Y-1501198D02*
X931960Y-1491674D01*
X931960Y-1491674D02*
X922436Y-1482150D01*
X922436Y-1482150D02*
X912913Y-1463103D01*
X912913Y-1463103D02*
X912913Y-1453579D01*
X912913Y-1453579D02*
X922436Y-1434531D01*
X922436Y-1434531D02*
X931960Y-1425008D01*
X931960Y-1425008D02*
X951008Y-1415484D01*
X951008Y-1415484D02*
X989103Y-1415484D01*
X989103Y-1415484D02*
X1008151Y-1425008D01*
X1008151Y-1425008D02*
X1017675Y-1434531D01*
X1017675Y-1434531D02*
X1027198Y-1453579D01*
X1027198Y-1453579D02*
X1027198Y-1463103D01*
X1027198Y-1463103D02*
X1017675Y-1482150D01*
X1017675Y-1482150D02*
X1008151Y-1491674D01*
X1008151Y-1491674D02*
X989103Y-1501198D01*
X989103Y-1501198D02*
X951008Y-1501198D01*
X951008Y-1501198D02*
X931960Y-1510722D01*
X931960Y-1510722D02*
X922436Y-1520246D01*
X922436Y-1520246D02*
X912913Y-1539293D01*
X912913Y-1539293D02*
X912913Y-1577388D01*
X912913Y-1577388D02*
X922436Y-1596436D01*
X922436Y-1596436D02*
X931960Y-1605960D01*
X931960Y-1605960D02*
X951008Y-1615484D01*
X951008Y-1615484D02*
X989103Y-1615484D01*
X989103Y-1615484D02*
X1008151Y-1605960D01*
X1008151Y-1605960D02*
X1017675Y-1596436D01*
X1017675Y-1596436D02*
X1027198Y-1577388D01*
X1027198Y-1577388D02*
X1027198Y-1539293D01*
X1027198Y-1539293D02*
X1017675Y-1520246D01*
X1017675Y-1520246D02*
X1008151Y-1510722D01*
X1008151Y-1510722D02*
X989103Y-1501198D01*
X1112913Y-1615484D02*
X1112913Y-1482150D01*
X1112913Y-1501198D02*
X1122437Y-1491674D01*
X1122437Y-1491674D02*
X1141484Y-1482150D01*
X1141484Y-1482150D02*
X1170056Y-1482150D01*
X1170056Y-1482150D02*
X1189103Y-1491674D01*
X1189103Y-1491674D02*
X1198627Y-1510722D01*
X1198627Y-1510722D02*
X1198627Y-1615484D01*
X1198627Y-1510722D02*
X1208151Y-1491674D01*
X1208151Y-1491674D02*
X1227198Y-1482150D01*
X1227198Y-1482150D02*
X1255770Y-1482150D01*
X1255770Y-1482150D02*
X1274818Y-1491674D01*
X1274818Y-1491674D02*
X1284341Y-1510722D01*
X1284341Y-1510722D02*
X1284341Y-1615484D01*
X1379579Y-1615484D02*
X1379579Y-1482150D01*
X1379579Y-1501198D02*
X1389103Y-1491674D01*
X1389103Y-1491674D02*
X1408151Y-1482150D01*
X1408151Y-1482150D02*
X1436722Y-1482150D01*
X1436722Y-1482150D02*
X1455770Y-1491674D01*
X1455770Y-1491674D02*
X1465294Y-1510722D01*
X1465294Y-1510722D02*
X1465294Y-1615484D01*
X1465294Y-1510722D02*
X1474817Y-1491674D01*
X1474817Y-1491674D02*
X1493865Y-1482150D01*
X1493865Y-1482150D02*
X1522436Y-1482150D01*
X1522436Y-1482150D02*
X1541484Y-1491674D01*
X1541484Y-1491674D02*
X1551008Y-1510722D01*
X1551008Y-1510722D02*
X1551008Y-1615484D01*
X1941484Y-1405960D02*
X1770056Y-1663103D01*
X2198627Y-1415484D02*
X2217675Y-1415484D01*
X2217675Y-1415484D02*
X2236722Y-1425008D01*
X2236722Y-1425008D02*
X2246246Y-1434531D01*
X2246246Y-1434531D02*
X2255770Y-1453579D01*
X2255770Y-1453579D02*
X2265294Y-1491674D01*
X2265294Y-1491674D02*
X2265294Y-1539293D01*
X2265294Y-1539293D02*
X2255770Y-1577388D01*
X2255770Y-1577388D02*
X2246246Y-1596436D01*
X2246246Y-1596436D02*
X2236722Y-1605960D01*
X2236722Y-1605960D02*
X2217675Y-1615484D01*
X2217675Y-1615484D02*
X2198627Y-1615484D01*
X2198627Y-1615484D02*
X2179580Y-1605960D01*
X2179580Y-1605960D02*
X2170056Y-1596436D01*
X2170056Y-1596436D02*
X2160532Y-1577388D01*
X2160532Y-1577388D02*
X2151008Y-1539293D01*
X2151008Y-1539293D02*
X2151008Y-1491674D01*
X2151008Y-1491674D02*
X2160532Y-1453579D01*
X2160532Y-1453579D02*
X2170056Y-1434531D01*
X2170056Y-1434531D02*
X2179580Y-1425008D01*
X2179580Y-1425008D02*
X2198627Y-1415484D01*
X2351008Y-1596436D02*
X2360532Y-1605960D01*
X2360532Y-1605960D02*
X2351008Y-1615484D01*
X2351008Y-1615484D02*
X2341484Y-1605960D01*
X2341484Y-1605960D02*
X2351008Y-1596436D01*
X2351008Y-1596436D02*
X2351008Y-1615484D01*
X2551008Y-1615484D02*
X2436722Y-1615484D01*
X2493865Y-1615484D02*
X2493865Y-1415484D01*
X2493865Y-1415484D02*
X2474818Y-1444055D01*
X2474818Y-1444055D02*
X2455770Y-1463103D01*
X2455770Y-1463103D02*
X2436722Y-1472627D01*
X2627199Y-1434531D02*
X2636722Y-1425008D01*
X2636722Y-1425008D02*
X2655770Y-1415484D01*
X2655770Y-1415484D02*
X2703389Y-1415484D01*
X2703389Y-1415484D02*
X2722437Y-1425008D01*
X2722437Y-1425008D02*
X2731961Y-1434531D01*
X2731961Y-1434531D02*
X2741484Y-1453579D01*
X2741484Y-1453579D02*
X2741484Y-1472627D01*
X2741484Y-1472627D02*
X2731961Y-1501198D01*
X2731961Y-1501198D02*
X2617675Y-1615484D01*
X2617675Y-1615484D02*
X2741484Y-1615484D01*
X2865294Y-1415484D02*
X2884341Y-1415484D01*
X2884341Y-1415484D02*
X2903389Y-1425008D01*
X2903389Y-1425008D02*
X2912913Y-1434531D01*
X2912913Y-1434531D02*
X2922437Y-1453579D01*
X2922437Y-1453579D02*
X2931960Y-1491674D01*
X2931960Y-1491674D02*
X2931960Y-1539293D01*
X2931960Y-1539293D02*
X2922437Y-1577388D01*
X2922437Y-1577388D02*
X2912913Y-1596436D01*
X2912913Y-1596436D02*
X2903389Y-1605960D01*
X2903389Y-1605960D02*
X2884341Y-1615484D01*
X2884341Y-1615484D02*
X2865294Y-1615484D01*
X2865294Y-1615484D02*
X2846246Y-1605960D01*
X2846246Y-1605960D02*
X2836722Y-1596436D01*
X2836722Y-1596436D02*
X2827199Y-1577388D01*
X2827199Y-1577388D02*
X2817675Y-1539293D01*
X2817675Y-1539293D02*
X2817675Y-1491674D01*
X2817675Y-1491674D02*
X2827199Y-1453579D01*
X2827199Y-1453579D02*
X2836722Y-1434531D01*
X2836722Y-1434531D02*
X2846246Y-1425008D01*
X2846246Y-1425008D02*
X2865294Y-1415484D01*
X3055770Y-1415484D02*
X3074818Y-1415484D01*
X3074818Y-1415484D02*
X3093865Y-1425008D01*
X3093865Y-1425008D02*
X3103389Y-1434531D01*
X3103389Y-1434531D02*
X3112913Y-1453579D01*
X3112913Y-1453579D02*
X3122437Y-1491674D01*
X3122437Y-1491674D02*
X3122437Y-1539293D01*
X3122437Y-1539293D02*
X3112913Y-1577388D01*
X3112913Y-1577388D02*
X3103389Y-1596436D01*
X3103389Y-1596436D02*
X3093865Y-1605960D01*
X3093865Y-1605960D02*
X3074818Y-1615484D01*
X3074818Y-1615484D02*
X3055770Y-1615484D01*
X3055770Y-1615484D02*
X3036722Y-1605960D01*
X3036722Y-1605960D02*
X3027199Y-1596436D01*
X3027199Y-1596436D02*
X3017675Y-1577388D01*
X3017675Y-1577388D02*
X3008151Y-1539293D01*
X3008151Y-1539293D02*
X3008151Y-1491674D01*
X3008151Y-1491674D02*
X3017675Y-1453579D01*
X3017675Y-1453579D02*
X3027199Y-1434531D01*
X3027199Y-1434531D02*
X3036722Y-1425008D01*
X3036722Y-1425008D02*
X3055770Y-1415484D01*
X3198627Y-1415484D02*
X3198627Y-1453579D01*
X3274818Y-1415484D02*
X3274818Y-1453579D01*
X3570056Y-1691674D02*
X3560532Y-1682150D01*
X3560532Y-1682150D02*
X3541484Y-1653579D01*
X3541484Y-1653579D02*
X3531961Y-1634531D01*
X3531961Y-1634531D02*
X3522437Y-1605960D01*
X3522437Y-1605960D02*
X3512913Y-1558341D01*
X3512913Y-1558341D02*
X3512913Y-1520246D01*
X3512913Y-1520246D02*
X3522437Y-1472627D01*
X3522437Y-1472627D02*
X3531961Y-1444055D01*
X3531961Y-1444055D02*
X3541484Y-1425008D01*
X3541484Y-1425008D02*
X3560532Y-1396436D01*
X3560532Y-1396436D02*
X3570056Y-1386912D01*
X3731961Y-1415484D02*
X3693865Y-1415484D01*
X3693865Y-1415484D02*
X3674818Y-1425008D01*
X3674818Y-1425008D02*
X3665294Y-1434531D01*
X3665294Y-1434531D02*
X3646246Y-1463103D01*
X3646246Y-1463103D02*
X3636722Y-1501198D01*
X3636722Y-1501198D02*
X3636722Y-1577388D01*
X3636722Y-1577388D02*
X3646246Y-1596436D01*
X3646246Y-1596436D02*
X3655770Y-1605960D01*
X3655770Y-1605960D02*
X3674818Y-1615484D01*
X3674818Y-1615484D02*
X3712913Y-1615484D01*
X3712913Y-1615484D02*
X3731961Y-1605960D01*
X3731961Y-1605960D02*
X3741484Y-1596436D01*
X3741484Y-1596436D02*
X3751008Y-1577388D01*
X3751008Y-1577388D02*
X3751008Y-1529769D01*
X3751008Y-1529769D02*
X3741484Y-1510722D01*
X3741484Y-1510722D02*
X3731961Y-1501198D01*
X3731961Y-1501198D02*
X3712913Y-1491674D01*
X3712913Y-1491674D02*
X3674818Y-1491674D01*
X3674818Y-1491674D02*
X3655770Y-1501198D01*
X3655770Y-1501198D02*
X3646246Y-1510722D01*
X3646246Y-1510722D02*
X3636722Y-1529769D01*
X3989103Y-1615484D02*
X3989103Y-1415484D01*
X4074818Y-1615484D02*
X4074818Y-1510722D01*
X4074818Y-1510722D02*
X4065294Y-1491674D01*
X4065294Y-1491674D02*
X4046246Y-1482150D01*
X4046246Y-1482150D02*
X4017675Y-1482150D01*
X4017675Y-1482150D02*
X3998627Y-1491674D01*
X3998627Y-1491674D02*
X3989103Y-1501198D01*
X4198627Y-1615484D02*
X4179580Y-1605960D01*
X4179580Y-1605960D02*
X4170056Y-1596436D01*
X4170056Y-1596436D02*
X4160532Y-1577388D01*
X4160532Y-1577388D02*
X4160532Y-1520246D01*
X4160532Y-1520246D02*
X4170056Y-1501198D01*
X4170056Y-1501198D02*
X4179580Y-1491674D01*
X4179580Y-1491674D02*
X4198627Y-1482150D01*
X4198627Y-1482150D02*
X4227199Y-1482150D01*
X4227199Y-1482150D02*
X4246246Y-1491674D01*
X4246246Y-1491674D02*
X4255770Y-1501198D01*
X4255770Y-1501198D02*
X4265294Y-1520246D01*
X4265294Y-1520246D02*
X4265294Y-1577388D01*
X4265294Y-1577388D02*
X4255770Y-1596436D01*
X4255770Y-1596436D02*
X4246246Y-1605960D01*
X4246246Y-1605960D02*
X4227199Y-1615484D01*
X4227199Y-1615484D02*
X4198627Y-1615484D01*
X4379580Y-1615484D02*
X4360532Y-1605960D01*
X4360532Y-1605960D02*
X4351008Y-1586912D01*
X4351008Y-1586912D02*
X4351008Y-1415484D01*
X4531961Y-1605960D02*
X4512913Y-1615484D01*
X4512913Y-1615484D02*
X4474818Y-1615484D01*
X4474818Y-1615484D02*
X4455770Y-1605960D01*
X4455770Y-1605960D02*
X4446246Y-1586912D01*
X4446246Y-1586912D02*
X4446246Y-1510722D01*
X4446246Y-1510722D02*
X4455770Y-1491674D01*
X4455770Y-1491674D02*
X4474818Y-1482150D01*
X4474818Y-1482150D02*
X4512913Y-1482150D01*
X4512913Y-1482150D02*
X4531961Y-1491674D01*
X4531961Y-1491674D02*
X4541485Y-1510722D01*
X4541485Y-1510722D02*
X4541485Y-1529769D01*
X4541485Y-1529769D02*
X4446246Y-1548817D01*
X4617675Y-1605960D02*
X4636723Y-1615484D01*
X4636723Y-1615484D02*
X4674818Y-1615484D01*
X4674818Y-1615484D02*
X4693866Y-1605960D01*
X4693866Y-1605960D02*
X4703389Y-1586912D01*
X4703389Y-1586912D02*
X4703389Y-1577388D01*
X4703389Y-1577388D02*
X4693866Y-1558341D01*
X4693866Y-1558341D02*
X4674818Y-1548817D01*
X4674818Y-1548817D02*
X4646246Y-1548817D01*
X4646246Y-1548817D02*
X4627199Y-1539293D01*
X4627199Y-1539293D02*
X4617675Y-1520246D01*
X4617675Y-1520246D02*
X4617675Y-1510722D01*
X4617675Y-1510722D02*
X4627199Y-1491674D01*
X4627199Y-1491674D02*
X4646246Y-1482150D01*
X4646246Y-1482150D02*
X4674818Y-1482150D01*
X4674818Y-1482150D02*
X4693866Y-1491674D01*
X4770056Y-1691674D02*
X4779580Y-1682150D01*
X4779580Y-1682150D02*
X4798627Y-1653579D01*
X4798627Y-1653579D02*
X4808151Y-1634531D01*
X4808151Y-1634531D02*
X4817675Y-1605960D01*
X4817675Y-1605960D02*
X4827199Y-1558341D01*
X4827199Y-1558341D02*
X4827199Y-1520246D01*
X4827199Y-1520246D02*
X4817675Y-1472627D01*
X4817675Y-1472627D02*
X4808151Y-1444055D01*
X4808151Y-1444055D02*
X4798627Y-1425008D01*
X4798627Y-1425008D02*
X4779580Y-1396436D01*
X4779580Y-1396436D02*
X4770056Y-1386912D01*
X5131961Y-1691674D02*
X5122437Y-1682150D01*
X5122437Y-1682150D02*
X5103389Y-1653579D01*
X5103389Y-1653579D02*
X5093866Y-1634531D01*
X5093866Y-1634531D02*
X5084342Y-1605960D01*
X5084342Y-1605960D02*
X5074818Y-1558341D01*
X5074818Y-1558341D02*
X5074818Y-1520246D01*
X5074818Y-1520246D02*
X5084342Y-1472627D01*
X5084342Y-1472627D02*
X5093866Y-1444055D01*
X5093866Y-1444055D02*
X5103389Y-1425008D01*
X5103389Y-1425008D02*
X5122437Y-1396436D01*
X5122437Y-1396436D02*
X5131961Y-1386912D01*
X5208151Y-1482150D02*
X5208151Y-1615484D01*
X5208151Y-1501198D02*
X5217675Y-1491674D01*
X5217675Y-1491674D02*
X5236723Y-1482150D01*
X5236723Y-1482150D02*
X5265294Y-1482150D01*
X5265294Y-1482150D02*
X5284342Y-1491674D01*
X5284342Y-1491674D02*
X5293866Y-1510722D01*
X5293866Y-1510722D02*
X5293866Y-1615484D01*
X5417675Y-1615484D02*
X5398627Y-1605960D01*
X5398627Y-1605960D02*
X5389104Y-1596436D01*
X5389104Y-1596436D02*
X5379580Y-1577388D01*
X5379580Y-1577388D02*
X5379580Y-1520246D01*
X5379580Y-1520246D02*
X5389104Y-1501198D01*
X5389104Y-1501198D02*
X5398627Y-1491674D01*
X5398627Y-1491674D02*
X5417675Y-1482150D01*
X5417675Y-1482150D02*
X5446247Y-1482150D01*
X5446247Y-1482150D02*
X5465294Y-1491674D01*
X5465294Y-1491674D02*
X5474818Y-1501198D01*
X5474818Y-1501198D02*
X5484342Y-1520246D01*
X5484342Y-1520246D02*
X5484342Y-1577388D01*
X5484342Y-1577388D02*
X5474818Y-1596436D01*
X5474818Y-1596436D02*
X5465294Y-1605960D01*
X5465294Y-1605960D02*
X5446247Y-1615484D01*
X5446247Y-1615484D02*
X5417675Y-1615484D01*
X5541485Y-1482150D02*
X5617675Y-1482150D01*
X5570056Y-1415484D02*
X5570056Y-1586912D01*
X5570056Y-1586912D02*
X5579580Y-1605960D01*
X5579580Y-1605960D02*
X5598627Y-1615484D01*
X5598627Y-1615484D02*
X5617675Y-1615484D01*
X5836723Y-1482150D02*
X5836723Y-1682150D01*
X5836723Y-1491674D02*
X5855770Y-1482150D01*
X5855770Y-1482150D02*
X5893866Y-1482150D01*
X5893866Y-1482150D02*
X5912913Y-1491674D01*
X5912913Y-1491674D02*
X5922437Y-1501198D01*
X5922437Y-1501198D02*
X5931961Y-1520246D01*
X5931961Y-1520246D02*
X5931961Y-1577388D01*
X5931961Y-1577388D02*
X5922437Y-1596436D01*
X5922437Y-1596436D02*
X5912913Y-1605960D01*
X5912913Y-1605960D02*
X5893866Y-1615484D01*
X5893866Y-1615484D02*
X5855770Y-1615484D01*
X5855770Y-1615484D02*
X5836723Y-1605960D01*
X6046246Y-1615484D02*
X6027199Y-1605960D01*
X6027199Y-1605960D02*
X6017675Y-1586912D01*
X6017675Y-1586912D02*
X6017675Y-1415484D01*
X6208151Y-1615484D02*
X6208151Y-1510722D01*
X6208151Y-1510722D02*
X6198627Y-1491674D01*
X6198627Y-1491674D02*
X6179580Y-1482150D01*
X6179580Y-1482150D02*
X6141485Y-1482150D01*
X6141485Y-1482150D02*
X6122437Y-1491674D01*
X6208151Y-1605960D02*
X6189104Y-1615484D01*
X6189104Y-1615484D02*
X6141485Y-1615484D01*
X6141485Y-1615484D02*
X6122437Y-1605960D01*
X6122437Y-1605960D02*
X6112913Y-1586912D01*
X6112913Y-1586912D02*
X6112913Y-1567865D01*
X6112913Y-1567865D02*
X6122437Y-1548817D01*
X6122437Y-1548817D02*
X6141485Y-1539293D01*
X6141485Y-1539293D02*
X6189104Y-1539293D01*
X6189104Y-1539293D02*
X6208151Y-1529769D01*
X6274818Y-1482150D02*
X6351008Y-1482150D01*
X6303389Y-1415484D02*
X6303389Y-1586912D01*
X6303389Y-1586912D02*
X6312913Y-1605960D01*
X6312913Y-1605960D02*
X6331961Y-1615484D01*
X6331961Y-1615484D02*
X6351008Y-1615484D01*
X6493866Y-1605960D02*
X6474818Y-1615484D01*
X6474818Y-1615484D02*
X6436723Y-1615484D01*
X6436723Y-1615484D02*
X6417675Y-1605960D01*
X6417675Y-1605960D02*
X6408151Y-1586912D01*
X6408151Y-1586912D02*
X6408151Y-1510722D01*
X6408151Y-1510722D02*
X6417675Y-1491674D01*
X6417675Y-1491674D02*
X6436723Y-1482150D01*
X6436723Y-1482150D02*
X6474818Y-1482150D01*
X6474818Y-1482150D02*
X6493866Y-1491674D01*
X6493866Y-1491674D02*
X6503389Y-1510722D01*
X6503389Y-1510722D02*
X6503389Y-1529769D01*
X6503389Y-1529769D02*
X6408151Y-1548817D01*
X6674818Y-1615484D02*
X6674818Y-1415484D01*
X6674818Y-1605960D02*
X6655770Y-1615484D01*
X6655770Y-1615484D02*
X6617675Y-1615484D01*
X6617675Y-1615484D02*
X6598627Y-1605960D01*
X6598627Y-1605960D02*
X6589104Y-1596436D01*
X6589104Y-1596436D02*
X6579580Y-1577388D01*
X6579580Y-1577388D02*
X6579580Y-1520246D01*
X6579580Y-1520246D02*
X6589104Y-1501198D01*
X6589104Y-1501198D02*
X6598627Y-1491674D01*
X6598627Y-1491674D02*
X6617675Y-1482150D01*
X6617675Y-1482150D02*
X6655770Y-1482150D01*
X6655770Y-1482150D02*
X6674818Y-1491674D01*
X6751008Y-1691674D02*
X6760532Y-1682150D01*
X6760532Y-1682150D02*
X6779580Y-1653579D01*
X6779580Y-1653579D02*
X6789104Y-1634531D01*
X6789104Y-1634531D02*
X6798627Y-1605960D01*
X6798627Y-1605960D02*
X6808151Y-1558341D01*
X6808151Y-1558341D02*
X6808151Y-1520246D01*
X6808151Y-1520246D02*
X6798627Y-1472627D01*
X6798627Y-1472627D02*
X6789104Y-1444055D01*
X6789104Y-1444055D02*
X6779580Y-1425008D01*
X6779580Y-1425008D02*
X6760532Y-1396436D01*
X6760532Y-1396436D02*
X6751008Y-1386912D01*
X-105007Y-1944000D02*
X-5007Y-1844000D01*
X-105007Y-1744000D01*
X-205007Y-1844000D01*
X-105007Y-1944000D01*
X236722Y-1735484D02*
X360532Y-1735484D01*
X360532Y-1735484D02*
X293865Y-1811674D01*
X293865Y-1811674D02*
X322437Y-1811674D01*
X322437Y-1811674D02*
X341484Y-1821198D01*
X341484Y-1821198D02*
X351008Y-1830722D01*
X351008Y-1830722D02*
X360532Y-1849769D01*
X360532Y-1849769D02*
X360532Y-1897388D01*
X360532Y-1897388D02*
X351008Y-1916436D01*
X351008Y-1916436D02*
X341484Y-1925960D01*
X341484Y-1925960D02*
X322437Y-1935484D01*
X322437Y-1935484D02*
X265294Y-1935484D01*
X265294Y-1935484D02*
X246246Y-1925960D01*
X246246Y-1925960D02*
X236722Y-1916436D01*
X446246Y-1916436D02*
X455770Y-1925960D01*
X455770Y-1925960D02*
X446246Y-1935484D01*
X446246Y-1935484D02*
X436722Y-1925960D01*
X436722Y-1925960D02*
X446246Y-1916436D01*
X446246Y-1916436D02*
X446246Y-1935484D01*
X551008Y-1935484D02*
X589103Y-1935484D01*
X589103Y-1935484D02*
X608151Y-1925960D01*
X608151Y-1925960D02*
X617675Y-1916436D01*
X617675Y-1916436D02*
X636722Y-1887865D01*
X636722Y-1887865D02*
X646246Y-1849769D01*
X646246Y-1849769D02*
X646246Y-1773579D01*
X646246Y-1773579D02*
X636722Y-1754531D01*
X636722Y-1754531D02*
X627198Y-1745008D01*
X627198Y-1745008D02*
X608151Y-1735484D01*
X608151Y-1735484D02*
X570056Y-1735484D01*
X570056Y-1735484D02*
X551008Y-1745008D01*
X551008Y-1745008D02*
X541484Y-1754531D01*
X541484Y-1754531D02*
X531960Y-1773579D01*
X531960Y-1773579D02*
X531960Y-1821198D01*
X531960Y-1821198D02*
X541484Y-1840246D01*
X541484Y-1840246D02*
X551008Y-1849769D01*
X551008Y-1849769D02*
X570056Y-1859293D01*
X570056Y-1859293D02*
X608151Y-1859293D01*
X608151Y-1859293D02*
X627198Y-1849769D01*
X627198Y-1849769D02*
X636722Y-1840246D01*
X636722Y-1840246D02*
X646246Y-1821198D01*
X760532Y-1821198D02*
X741484Y-1811674D01*
X741484Y-1811674D02*
X731960Y-1802150D01*
X731960Y-1802150D02*
X722436Y-1783103D01*
X722436Y-1783103D02*
X722436Y-1773579D01*
X722436Y-1773579D02*
X731960Y-1754531D01*
X731960Y-1754531D02*
X741484Y-1745008D01*
X741484Y-1745008D02*
X760532Y-1735484D01*
X760532Y-1735484D02*
X798627Y-1735484D01*
X798627Y-1735484D02*
X817675Y-1745008D01*
X817675Y-1745008D02*
X827198Y-1754531D01*
X827198Y-1754531D02*
X836722Y-1773579D01*
X836722Y-1773579D02*
X836722Y-1783103D01*
X836722Y-1783103D02*
X827198Y-1802150D01*
X827198Y-1802150D02*
X817675Y-1811674D01*
X817675Y-1811674D02*
X798627Y-1821198D01*
X798627Y-1821198D02*
X760532Y-1821198D01*
X760532Y-1821198D02*
X741484Y-1830722D01*
X741484Y-1830722D02*
X731960Y-1840246D01*
X731960Y-1840246D02*
X722436Y-1859293D01*
X722436Y-1859293D02*
X722436Y-1897388D01*
X722436Y-1897388D02*
X731960Y-1916436D01*
X731960Y-1916436D02*
X741484Y-1925960D01*
X741484Y-1925960D02*
X760532Y-1935484D01*
X760532Y-1935484D02*
X798627Y-1935484D01*
X798627Y-1935484D02*
X817675Y-1925960D01*
X817675Y-1925960D02*
X827198Y-1916436D01*
X827198Y-1916436D02*
X836722Y-1897388D01*
X836722Y-1897388D02*
X836722Y-1859293D01*
X836722Y-1859293D02*
X827198Y-1840246D01*
X827198Y-1840246D02*
X817675Y-1830722D01*
X817675Y-1830722D02*
X798627Y-1821198D01*
X951008Y-1821198D02*
X931960Y-1811674D01*
X931960Y-1811674D02*
X922436Y-1802150D01*
X922436Y-1802150D02*
X912913Y-1783103D01*
X912913Y-1783103D02*
X912913Y-1773579D01*
X912913Y-1773579D02*
X922436Y-1754531D01*
X922436Y-1754531D02*
X931960Y-1745008D01*
X931960Y-1745008D02*
X951008Y-1735484D01*
X951008Y-1735484D02*
X989103Y-1735484D01*
X989103Y-1735484D02*
X1008151Y-1745008D01*
X1008151Y-1745008D02*
X1017675Y-1754531D01*
X1017675Y-1754531D02*
X1027198Y-1773579D01*
X1027198Y-1773579D02*
X1027198Y-1783103D01*
X1027198Y-1783103D02*
X1017675Y-1802150D01*
X1017675Y-1802150D02*
X1008151Y-1811674D01*
X1008151Y-1811674D02*
X989103Y-1821198D01*
X989103Y-1821198D02*
X951008Y-1821198D01*
X951008Y-1821198D02*
X931960Y-1830722D01*
X931960Y-1830722D02*
X922436Y-1840246D01*
X922436Y-1840246D02*
X912913Y-1859293D01*
X912913Y-1859293D02*
X912913Y-1897388D01*
X912913Y-1897388D02*
X922436Y-1916436D01*
X922436Y-1916436D02*
X931960Y-1925960D01*
X931960Y-1925960D02*
X951008Y-1935484D01*
X951008Y-1935484D02*
X989103Y-1935484D01*
X989103Y-1935484D02*
X1008151Y-1925960D01*
X1008151Y-1925960D02*
X1017675Y-1916436D01*
X1017675Y-1916436D02*
X1027198Y-1897388D01*
X1027198Y-1897388D02*
X1027198Y-1859293D01*
X1027198Y-1859293D02*
X1017675Y-1840246D01*
X1017675Y-1840246D02*
X1008151Y-1830722D01*
X1008151Y-1830722D02*
X989103Y-1821198D01*
X1112913Y-1935484D02*
X1112913Y-1802150D01*
X1112913Y-1821198D02*
X1122437Y-1811674D01*
X1122437Y-1811674D02*
X1141484Y-1802150D01*
X1141484Y-1802150D02*
X1170056Y-1802150D01*
X1170056Y-1802150D02*
X1189103Y-1811674D01*
X1189103Y-1811674D02*
X1198627Y-1830722D01*
X1198627Y-1830722D02*
X1198627Y-1935484D01*
X1198627Y-1830722D02*
X1208151Y-1811674D01*
X1208151Y-1811674D02*
X1227198Y-1802150D01*
X1227198Y-1802150D02*
X1255770Y-1802150D01*
X1255770Y-1802150D02*
X1274818Y-1811674D01*
X1274818Y-1811674D02*
X1284341Y-1830722D01*
X1284341Y-1830722D02*
X1284341Y-1935484D01*
X1379579Y-1935484D02*
X1379579Y-1802150D01*
X1379579Y-1821198D02*
X1389103Y-1811674D01*
X1389103Y-1811674D02*
X1408151Y-1802150D01*
X1408151Y-1802150D02*
X1436722Y-1802150D01*
X1436722Y-1802150D02*
X1455770Y-1811674D01*
X1455770Y-1811674D02*
X1465294Y-1830722D01*
X1465294Y-1830722D02*
X1465294Y-1935484D01*
X1465294Y-1830722D02*
X1474817Y-1811674D01*
X1474817Y-1811674D02*
X1493865Y-1802150D01*
X1493865Y-1802150D02*
X1522436Y-1802150D01*
X1522436Y-1802150D02*
X1541484Y-1811674D01*
X1541484Y-1811674D02*
X1551008Y-1830722D01*
X1551008Y-1830722D02*
X1551008Y-1935484D01*
X1941484Y-1725960D02*
X1770056Y-1983103D01*
X2198627Y-1735484D02*
X2217675Y-1735484D01*
X2217675Y-1735484D02*
X2236722Y-1745008D01*
X2236722Y-1745008D02*
X2246246Y-1754531D01*
X2246246Y-1754531D02*
X2255770Y-1773579D01*
X2255770Y-1773579D02*
X2265294Y-1811674D01*
X2265294Y-1811674D02*
X2265294Y-1859293D01*
X2265294Y-1859293D02*
X2255770Y-1897388D01*
X2255770Y-1897388D02*
X2246246Y-1916436D01*
X2246246Y-1916436D02*
X2236722Y-1925960D01*
X2236722Y-1925960D02*
X2217675Y-1935484D01*
X2217675Y-1935484D02*
X2198627Y-1935484D01*
X2198627Y-1935484D02*
X2179580Y-1925960D01*
X2179580Y-1925960D02*
X2170056Y-1916436D01*
X2170056Y-1916436D02*
X2160532Y-1897388D01*
X2160532Y-1897388D02*
X2151008Y-1859293D01*
X2151008Y-1859293D02*
X2151008Y-1811674D01*
X2151008Y-1811674D02*
X2160532Y-1773579D01*
X2160532Y-1773579D02*
X2170056Y-1754531D01*
X2170056Y-1754531D02*
X2179580Y-1745008D01*
X2179580Y-1745008D02*
X2198627Y-1735484D01*
X2351008Y-1916436D02*
X2360532Y-1925960D01*
X2360532Y-1925960D02*
X2351008Y-1935484D01*
X2351008Y-1935484D02*
X2341484Y-1925960D01*
X2341484Y-1925960D02*
X2351008Y-1916436D01*
X2351008Y-1916436D02*
X2351008Y-1935484D01*
X2551008Y-1935484D02*
X2436722Y-1935484D01*
X2493865Y-1935484D02*
X2493865Y-1735484D01*
X2493865Y-1735484D02*
X2474818Y-1764055D01*
X2474818Y-1764055D02*
X2455770Y-1783103D01*
X2455770Y-1783103D02*
X2436722Y-1792627D01*
X2731961Y-1735484D02*
X2636722Y-1735484D01*
X2636722Y-1735484D02*
X2627199Y-1830722D01*
X2627199Y-1830722D02*
X2636722Y-1821198D01*
X2636722Y-1821198D02*
X2655770Y-1811674D01*
X2655770Y-1811674D02*
X2703389Y-1811674D01*
X2703389Y-1811674D02*
X2722437Y-1821198D01*
X2722437Y-1821198D02*
X2731961Y-1830722D01*
X2731961Y-1830722D02*
X2741484Y-1849769D01*
X2741484Y-1849769D02*
X2741484Y-1897388D01*
X2741484Y-1897388D02*
X2731961Y-1916436D01*
X2731961Y-1916436D02*
X2722437Y-1925960D01*
X2722437Y-1925960D02*
X2703389Y-1935484D01*
X2703389Y-1935484D02*
X2655770Y-1935484D01*
X2655770Y-1935484D02*
X2636722Y-1925960D01*
X2636722Y-1925960D02*
X2627199Y-1916436D01*
X2808151Y-1735484D02*
X2941484Y-1735484D01*
X2941484Y-1735484D02*
X2855770Y-1935484D01*
X3055770Y-1735484D02*
X3074818Y-1735484D01*
X3074818Y-1735484D02*
X3093865Y-1745008D01*
X3093865Y-1745008D02*
X3103389Y-1754531D01*
X3103389Y-1754531D02*
X3112913Y-1773579D01*
X3112913Y-1773579D02*
X3122437Y-1811674D01*
X3122437Y-1811674D02*
X3122437Y-1859293D01*
X3122437Y-1859293D02*
X3112913Y-1897388D01*
X3112913Y-1897388D02*
X3103389Y-1916436D01*
X3103389Y-1916436D02*
X3093865Y-1925960D01*
X3093865Y-1925960D02*
X3074818Y-1935484D01*
X3074818Y-1935484D02*
X3055770Y-1935484D01*
X3055770Y-1935484D02*
X3036722Y-1925960D01*
X3036722Y-1925960D02*
X3027199Y-1916436D01*
X3027199Y-1916436D02*
X3017675Y-1897388D01*
X3017675Y-1897388D02*
X3008151Y-1859293D01*
X3008151Y-1859293D02*
X3008151Y-1811674D01*
X3008151Y-1811674D02*
X3017675Y-1773579D01*
X3017675Y-1773579D02*
X3027199Y-1754531D01*
X3027199Y-1754531D02*
X3036722Y-1745008D01*
X3036722Y-1745008D02*
X3055770Y-1735484D01*
X3198627Y-1735484D02*
X3198627Y-1773579D01*
X3274818Y-1735484D02*
X3274818Y-1773579D01*
X3570056Y-2011674D02*
X3560532Y-2002150D01*
X3560532Y-2002150D02*
X3541484Y-1973579D01*
X3541484Y-1973579D02*
X3531961Y-1954531D01*
X3531961Y-1954531D02*
X3522437Y-1925960D01*
X3522437Y-1925960D02*
X3512913Y-1878341D01*
X3512913Y-1878341D02*
X3512913Y-1840246D01*
X3512913Y-1840246D02*
X3522437Y-1792627D01*
X3522437Y-1792627D02*
X3531961Y-1764055D01*
X3531961Y-1764055D02*
X3541484Y-1745008D01*
X3541484Y-1745008D02*
X3560532Y-1716436D01*
X3560532Y-1716436D02*
X3570056Y-1706912D01*
X3741484Y-1735484D02*
X3646246Y-1735484D01*
X3646246Y-1735484D02*
X3636722Y-1830722D01*
X3636722Y-1830722D02*
X3646246Y-1821198D01*
X3646246Y-1821198D02*
X3665294Y-1811674D01*
X3665294Y-1811674D02*
X3712913Y-1811674D01*
X3712913Y-1811674D02*
X3731961Y-1821198D01*
X3731961Y-1821198D02*
X3741484Y-1830722D01*
X3741484Y-1830722D02*
X3751008Y-1849769D01*
X3751008Y-1849769D02*
X3751008Y-1897388D01*
X3751008Y-1897388D02*
X3741484Y-1916436D01*
X3741484Y-1916436D02*
X3731961Y-1925960D01*
X3731961Y-1925960D02*
X3712913Y-1935484D01*
X3712913Y-1935484D02*
X3665294Y-1935484D01*
X3665294Y-1935484D02*
X3646246Y-1925960D01*
X3646246Y-1925960D02*
X3636722Y-1916436D01*
X3874818Y-1735484D02*
X3893865Y-1735484D01*
X3893865Y-1735484D02*
X3912913Y-1745008D01*
X3912913Y-1745008D02*
X3922437Y-1754531D01*
X3922437Y-1754531D02*
X3931961Y-1773579D01*
X3931961Y-1773579D02*
X3941484Y-1811674D01*
X3941484Y-1811674D02*
X3941484Y-1859293D01*
X3941484Y-1859293D02*
X3931961Y-1897388D01*
X3931961Y-1897388D02*
X3922437Y-1916436D01*
X3922437Y-1916436D02*
X3912913Y-1925960D01*
X3912913Y-1925960D02*
X3893865Y-1935484D01*
X3893865Y-1935484D02*
X3874818Y-1935484D01*
X3874818Y-1935484D02*
X3855770Y-1925960D01*
X3855770Y-1925960D02*
X3846246Y-1916436D01*
X3846246Y-1916436D02*
X3836722Y-1897388D01*
X3836722Y-1897388D02*
X3827199Y-1859293D01*
X3827199Y-1859293D02*
X3827199Y-1811674D01*
X3827199Y-1811674D02*
X3836722Y-1773579D01*
X3836722Y-1773579D02*
X3846246Y-1754531D01*
X3846246Y-1754531D02*
X3855770Y-1745008D01*
X3855770Y-1745008D02*
X3874818Y-1735484D01*
X4179580Y-1935484D02*
X4179580Y-1735484D01*
X4265294Y-1935484D02*
X4265294Y-1830722D01*
X4265294Y-1830722D02*
X4255770Y-1811674D01*
X4255770Y-1811674D02*
X4236723Y-1802150D01*
X4236723Y-1802150D02*
X4208151Y-1802150D01*
X4208151Y-1802150D02*
X4189103Y-1811674D01*
X4189103Y-1811674D02*
X4179580Y-1821198D01*
X4389104Y-1935484D02*
X4370056Y-1925960D01*
X4370056Y-1925960D02*
X4360532Y-1916436D01*
X4360532Y-1916436D02*
X4351008Y-1897388D01*
X4351008Y-1897388D02*
X4351008Y-1840246D01*
X4351008Y-1840246D02*
X4360532Y-1821198D01*
X4360532Y-1821198D02*
X4370056Y-1811674D01*
X4370056Y-1811674D02*
X4389104Y-1802150D01*
X4389104Y-1802150D02*
X4417675Y-1802150D01*
X4417675Y-1802150D02*
X4436723Y-1811674D01*
X4436723Y-1811674D02*
X4446246Y-1821198D01*
X4446246Y-1821198D02*
X4455770Y-1840246D01*
X4455770Y-1840246D02*
X4455770Y-1897388D01*
X4455770Y-1897388D02*
X4446246Y-1916436D01*
X4446246Y-1916436D02*
X4436723Y-1925960D01*
X4436723Y-1925960D02*
X4417675Y-1935484D01*
X4417675Y-1935484D02*
X4389104Y-1935484D01*
X4570056Y-1935484D02*
X4551008Y-1925960D01*
X4551008Y-1925960D02*
X4541485Y-1906912D01*
X4541485Y-1906912D02*
X4541485Y-1735484D01*
X4722437Y-1925960D02*
X4703389Y-1935484D01*
X4703389Y-1935484D02*
X4665294Y-1935484D01*
X4665294Y-1935484D02*
X4646246Y-1925960D01*
X4646246Y-1925960D02*
X4636723Y-1906912D01*
X4636723Y-1906912D02*
X4636723Y-1830722D01*
X4636723Y-1830722D02*
X4646246Y-1811674D01*
X4646246Y-1811674D02*
X4665294Y-1802150D01*
X4665294Y-1802150D02*
X4703389Y-1802150D01*
X4703389Y-1802150D02*
X4722437Y-1811674D01*
X4722437Y-1811674D02*
X4731961Y-1830722D01*
X4731961Y-1830722D02*
X4731961Y-1849769D01*
X4731961Y-1849769D02*
X4636723Y-1868817D01*
X4808151Y-1925960D02*
X4827199Y-1935484D01*
X4827199Y-1935484D02*
X4865294Y-1935484D01*
X4865294Y-1935484D02*
X4884342Y-1925960D01*
X4884342Y-1925960D02*
X4893866Y-1906912D01*
X4893866Y-1906912D02*
X4893866Y-1897388D01*
X4893866Y-1897388D02*
X4884342Y-1878341D01*
X4884342Y-1878341D02*
X4865294Y-1868817D01*
X4865294Y-1868817D02*
X4836723Y-1868817D01*
X4836723Y-1868817D02*
X4817675Y-1859293D01*
X4817675Y-1859293D02*
X4808151Y-1840246D01*
X4808151Y-1840246D02*
X4808151Y-1830722D01*
X4808151Y-1830722D02*
X4817675Y-1811674D01*
X4817675Y-1811674D02*
X4836723Y-1802150D01*
X4836723Y-1802150D02*
X4865294Y-1802150D01*
X4865294Y-1802150D02*
X4884342Y-1811674D01*
X4960532Y-2011674D02*
X4970056Y-2002150D01*
X4970056Y-2002150D02*
X4989104Y-1973579D01*
X4989104Y-1973579D02*
X4998627Y-1954531D01*
X4998627Y-1954531D02*
X5008151Y-1925960D01*
X5008151Y-1925960D02*
X5017675Y-1878341D01*
X5017675Y-1878341D02*
X5017675Y-1840246D01*
X5017675Y-1840246D02*
X5008151Y-1792627D01*
X5008151Y-1792627D02*
X4998627Y-1764055D01*
X4998627Y-1764055D02*
X4989104Y-1745008D01*
X4989104Y-1745008D02*
X4970056Y-1716436D01*
X4970056Y-1716436D02*
X4960532Y-1706912D01*
X5322437Y-2011674D02*
X5312913Y-2002150D01*
X5312913Y-2002150D02*
X5293866Y-1973579D01*
X5293866Y-1973579D02*
X5284342Y-1954531D01*
X5284342Y-1954531D02*
X5274818Y-1925960D01*
X5274818Y-1925960D02*
X5265294Y-1878341D01*
X5265294Y-1878341D02*
X5265294Y-1840246D01*
X5265294Y-1840246D02*
X5274818Y-1792627D01*
X5274818Y-1792627D02*
X5284342Y-1764055D01*
X5284342Y-1764055D02*
X5293866Y-1745008D01*
X5293866Y-1745008D02*
X5312913Y-1716436D01*
X5312913Y-1716436D02*
X5322437Y-1706912D01*
X5398627Y-1802150D02*
X5398627Y-1935484D01*
X5398627Y-1821198D02*
X5408151Y-1811674D01*
X5408151Y-1811674D02*
X5427199Y-1802150D01*
X5427199Y-1802150D02*
X5455770Y-1802150D01*
X5455770Y-1802150D02*
X5474818Y-1811674D01*
X5474818Y-1811674D02*
X5484342Y-1830722D01*
X5484342Y-1830722D02*
X5484342Y-1935484D01*
X5608151Y-1935484D02*
X5589104Y-1925960D01*
X5589104Y-1925960D02*
X5579580Y-1916436D01*
X5579580Y-1916436D02*
X5570056Y-1897388D01*
X5570056Y-1897388D02*
X5570056Y-1840246D01*
X5570056Y-1840246D02*
X5579580Y-1821198D01*
X5579580Y-1821198D02*
X5589104Y-1811674D01*
X5589104Y-1811674D02*
X5608151Y-1802150D01*
X5608151Y-1802150D02*
X5636723Y-1802150D01*
X5636723Y-1802150D02*
X5655770Y-1811674D01*
X5655770Y-1811674D02*
X5665294Y-1821198D01*
X5665294Y-1821198D02*
X5674818Y-1840246D01*
X5674818Y-1840246D02*
X5674818Y-1897388D01*
X5674818Y-1897388D02*
X5665294Y-1916436D01*
X5665294Y-1916436D02*
X5655770Y-1925960D01*
X5655770Y-1925960D02*
X5636723Y-1935484D01*
X5636723Y-1935484D02*
X5608151Y-1935484D01*
X5731961Y-1802150D02*
X5808151Y-1802150D01*
X5760532Y-1735484D02*
X5760532Y-1906912D01*
X5760532Y-1906912D02*
X5770056Y-1925960D01*
X5770056Y-1925960D02*
X5789104Y-1935484D01*
X5789104Y-1935484D02*
X5808151Y-1935484D01*
X6027199Y-1802150D02*
X6027199Y-2002150D01*
X6027199Y-1811674D02*
X6046246Y-1802150D01*
X6046246Y-1802150D02*
X6084342Y-1802150D01*
X6084342Y-1802150D02*
X6103389Y-1811674D01*
X6103389Y-1811674D02*
X6112913Y-1821198D01*
X6112913Y-1821198D02*
X6122437Y-1840246D01*
X6122437Y-1840246D02*
X6122437Y-1897388D01*
X6122437Y-1897388D02*
X6112913Y-1916436D01*
X6112913Y-1916436D02*
X6103389Y-1925960D01*
X6103389Y-1925960D02*
X6084342Y-1935484D01*
X6084342Y-1935484D02*
X6046246Y-1935484D01*
X6046246Y-1935484D02*
X6027199Y-1925960D01*
X6236723Y-1935484D02*
X6217675Y-1925960D01*
X6217675Y-1925960D02*
X6208151Y-1906912D01*
X6208151Y-1906912D02*
X6208151Y-1735484D01*
X6398627Y-1935484D02*
X6398627Y-1830722D01*
X6398627Y-1830722D02*
X6389104Y-1811674D01*
X6389104Y-1811674D02*
X6370056Y-1802150D01*
X6370056Y-1802150D02*
X6331961Y-1802150D01*
X6331961Y-1802150D02*
X6312913Y-1811674D01*
X6398627Y-1925960D02*
X6379580Y-1935484D01*
X6379580Y-1935484D02*
X6331961Y-1935484D01*
X6331961Y-1935484D02*
X6312913Y-1925960D01*
X6312913Y-1925960D02*
X6303389Y-1906912D01*
X6303389Y-1906912D02*
X6303389Y-1887865D01*
X6303389Y-1887865D02*
X6312913Y-1868817D01*
X6312913Y-1868817D02*
X6331961Y-1859293D01*
X6331961Y-1859293D02*
X6379580Y-1859293D01*
X6379580Y-1859293D02*
X6398627Y-1849769D01*
X6465294Y-1802150D02*
X6541485Y-1802150D01*
X6493866Y-1735484D02*
X6493866Y-1906912D01*
X6493866Y-1906912D02*
X6503389Y-1925960D01*
X6503389Y-1925960D02*
X6522437Y-1935484D01*
X6522437Y-1935484D02*
X6541485Y-1935484D01*
X6684342Y-1925960D02*
X6665294Y-1935484D01*
X6665294Y-1935484D02*
X6627199Y-1935484D01*
X6627199Y-1935484D02*
X6608151Y-1925960D01*
X6608151Y-1925960D02*
X6598627Y-1906912D01*
X6598627Y-1906912D02*
X6598627Y-1830722D01*
X6598627Y-1830722D02*
X6608151Y-1811674D01*
X6608151Y-1811674D02*
X6627199Y-1802150D01*
X6627199Y-1802150D02*
X6665294Y-1802150D01*
X6665294Y-1802150D02*
X6684342Y-1811674D01*
X6684342Y-1811674D02*
X6693866Y-1830722D01*
X6693866Y-1830722D02*
X6693866Y-1849769D01*
X6693866Y-1849769D02*
X6598627Y-1868817D01*
X6865294Y-1935484D02*
X6865294Y-1735484D01*
X6865294Y-1925960D02*
X6846247Y-1935484D01*
X6846247Y-1935484D02*
X6808151Y-1935484D01*
X6808151Y-1935484D02*
X6789104Y-1925960D01*
X6789104Y-1925960D02*
X6779580Y-1916436D01*
X6779580Y-1916436D02*
X6770056Y-1897388D01*
X6770056Y-1897388D02*
X6770056Y-1840246D01*
X6770056Y-1840246D02*
X6779580Y-1821198D01*
X6779580Y-1821198D02*
X6789104Y-1811674D01*
X6789104Y-1811674D02*
X6808151Y-1802150D01*
X6808151Y-1802150D02*
X6846247Y-1802150D01*
X6846247Y-1802150D02*
X6865294Y-1811674D01*
X6941485Y-2011674D02*
X6951008Y-2002150D01*
X6951008Y-2002150D02*
X6970056Y-1973579D01*
X6970056Y-1973579D02*
X6979580Y-1954531D01*
X6979580Y-1954531D02*
X6989104Y-1925960D01*
X6989104Y-1925960D02*
X6998627Y-1878341D01*
X6998627Y-1878341D02*
X6998627Y-1840246D01*
X6998627Y-1840246D02*
X6989104Y-1792627D01*
X6989104Y-1792627D02*
X6979580Y-1764055D01*
X6979580Y-1764055D02*
X6970056Y-1745008D01*
X6970056Y-1745008D02*
X6951008Y-1716436D01*
X6951008Y-1716436D02*
X6941485Y-1706912D01*
M02*
