%TF.GenerationSoftware,KiCad,Pcbnew,7.0.6*%
%TF.CreationDate,2023-10-07T13:08:50-04:00*%
%TF.ProjectId,cutiepie2040-ortho-hotswap-solder-pcb,63757469-6570-4696-9532-3034302d6f72,rev?*%
%TF.SameCoordinates,Original*%
%TF.FileFunction,Drillmap*%
%TF.FilePolarity,Positive*%
%FSLAX45Y45*%
G04 Gerber Fmt 4.5, Leading zero omitted, Abs format (unit mm)*
G04 Created by KiCad (PCBNEW 7.0.6) date 2023-10-07 13:08:50*
%MOMM*%
%LPD*%
G01*
G04 APERTURE LIST*
%ADD10C,0.100000*%
%ADD11C,0.200000*%
%ADD12C,0.030000*%
%ADD13C,0.040000*%
%ADD14C,0.060000*%
%ADD15C,0.147000*%
G04 APERTURE END LIST*
D10*
X18454703Y-11787197D02*
X23931583Y-11787197D01*
X24169709Y-4405316D02*
G75*
G03*
X23931583Y-4167191I-238129J-4D01*
G01*
X24169708Y-4405316D02*
X24169708Y-11549072D01*
X23931583Y-4167191D02*
X4405316Y-4167191D01*
X18454703Y-11787198D02*
G75*
G03*
X18216578Y-12025323I-3J-238122D01*
G01*
X9882212Y-11787217D02*
X4405316Y-11787197D01*
X4167191Y-4405316D02*
X4167191Y-11549072D01*
X11310966Y-12263468D02*
X17978483Y-12263468D01*
X17978453Y-12263448D02*
G75*
G03*
X18216578Y-12025323I-3J238128D01*
G01*
X23931583Y-11787198D02*
G75*
G03*
X24169708Y-11549072I-3J238128D01*
G01*
X4167193Y-11549072D02*
G75*
G03*
X4405316Y-11787197I238127J2D01*
G01*
X4405316Y-4167191D02*
G75*
G03*
X4167191Y-4405316I0J-238125D01*
G01*
D11*
D12*
X5929703Y-7715645D02*
X5959703Y-7745645D01*
X5959703Y-7715645D02*
X5929703Y-7745645D01*
X5929703Y-7843145D02*
X5959703Y-7873145D01*
X5959703Y-7843145D02*
X5929703Y-7873145D01*
X5929703Y-7970645D02*
X5959703Y-8000645D01*
X5959703Y-7970645D02*
X5929703Y-8000645D01*
X6057203Y-7715645D02*
X6087203Y-7745645D01*
X6087203Y-7715645D02*
X6057203Y-7745645D01*
X6057203Y-7843145D02*
X6087203Y-7873145D01*
X6087203Y-7843145D02*
X6057203Y-7873145D01*
X6057203Y-7970645D02*
X6087203Y-8000645D01*
X6087203Y-7970645D02*
X6057203Y-8000645D01*
X6184703Y-7715645D02*
X6214703Y-7745645D01*
X6214703Y-7715645D02*
X6184703Y-7745645D01*
X6184703Y-7843145D02*
X6214703Y-7873145D01*
X6214703Y-7843145D02*
X6184703Y-7873145D01*
X6184703Y-7970645D02*
X6214703Y-8000645D01*
X6214703Y-7970645D02*
X6184703Y-8000645D01*
D13*
X4425324Y-4881575D02*
G75*
G03*
X4425324Y-4881575I-20000J0D01*
G01*
X4425324Y-6786580D02*
G75*
G03*
X4425324Y-6786580I-20000J0D01*
G01*
X4425324Y-10596589D02*
G75*
G03*
X4425324Y-10596589I-20000J0D01*
G01*
X4544386Y-9465493D02*
G75*
G03*
X4544386Y-9465493I-20000J0D01*
G01*
X5020638Y-7900613D02*
G75*
G03*
X5020638Y-7900613I-20000J0D01*
G01*
X5199232Y-7620019D02*
G75*
G03*
X5199232Y-7620019I-20000J0D01*
G01*
X5437357Y-7917676D02*
G75*
G03*
X5437357Y-7917676I-20000J0D01*
G01*
X5467123Y-7500956D02*
G75*
G03*
X5467123Y-7500956I-20000J0D01*
G01*
X5467123Y-7590253D02*
G75*
G03*
X5467123Y-7590253I-20000J0D01*
G01*
X5586186Y-6131734D02*
G75*
G03*
X5586186Y-6131734I-20000J0D01*
G01*
X5586186Y-8096270D02*
G75*
G03*
X5586186Y-8096270I-20000J0D01*
G01*
X5645717Y-5708140D02*
G75*
G03*
X5645717Y-5708140I-20000J0D01*
G01*
X5735014Y-7500956D02*
G75*
G03*
X5735014Y-7500956I-20000J0D01*
G01*
X5794546Y-6310328D02*
G75*
G03*
X5794546Y-6310328I-20000J0D01*
G01*
X5943374Y-5708140D02*
G75*
G03*
X5943374Y-5708140I-20000J0D01*
G01*
X6092203Y-7262831D02*
G75*
G03*
X6092203Y-7262831I-20000J0D01*
G01*
X6151734Y-9465493D02*
G75*
G03*
X6151734Y-9465493I-20000J0D01*
G01*
X6330328Y-4881575D02*
G75*
G03*
X6330328Y-4881575I-20000J0D01*
G01*
X6330328Y-6786580D02*
G75*
G03*
X6330328Y-6786580I-20000J0D01*
G01*
X6330328Y-10596589D02*
G75*
G03*
X6330328Y-10596589I-20000J0D01*
G01*
X6449391Y-9465493D02*
G75*
G03*
X6449391Y-9465493I-20000J0D01*
G01*
X6579985Y-8036739D02*
G75*
G03*
X6579985Y-8036739I-20000J0D01*
G01*
X6579985Y-8201895D02*
G75*
G03*
X6579985Y-8201895I-20000J0D01*
G01*
X6675985Y-8201895D02*
G75*
G03*
X6675985Y-8201895I-20000J0D01*
G01*
X6790692Y-6310328D02*
G75*
G03*
X6790692Y-6310328I-20000J0D01*
G01*
X6866111Y-7947442D02*
G75*
G03*
X6866111Y-7947442I-20000J0D01*
G01*
X6985174Y-7947442D02*
G75*
G03*
X6985174Y-7947442I-20000J0D01*
G01*
X7193534Y-7725488D02*
G75*
G03*
X7193534Y-7725488I-20000J0D01*
G01*
X8235333Y-4881575D02*
G75*
G03*
X8235333Y-4881575I-20000J0D01*
G01*
X8235333Y-6786580D02*
G75*
G03*
X8235333Y-6786580I-20000J0D01*
G01*
X8235333Y-8691584D02*
G75*
G03*
X8235333Y-8691584I-20000J0D01*
G01*
X8235333Y-10596589D02*
G75*
G03*
X8235333Y-10596589I-20000J0D01*
G01*
X9396196Y-7947442D02*
G75*
G03*
X9396196Y-7947442I-20000J0D01*
G01*
X10140338Y-4881575D02*
G75*
G03*
X10140338Y-4881575I-20000J0D01*
G01*
X10140338Y-6786580D02*
G75*
G03*
X10140338Y-6786580I-20000J0D01*
G01*
X10140338Y-8691584D02*
G75*
G03*
X10140338Y-8691584I-20000J0D01*
G01*
X11569092Y-11072840D02*
G75*
G03*
X11569092Y-11072840I-20000J0D01*
G01*
X12045343Y-4881575D02*
G75*
G03*
X12045343Y-4881575I-20000J0D01*
G01*
X12045343Y-6786580D02*
G75*
G03*
X12045343Y-6786580I-20000J0D01*
G01*
X12045343Y-8691584D02*
G75*
G03*
X12045343Y-8691584I-20000J0D01*
G01*
X13474096Y-11072840D02*
G75*
G03*
X13474096Y-11072840I-20000J0D01*
G01*
X14902850Y-4881575D02*
G75*
G03*
X14902850Y-4881575I-20000J0D01*
G01*
X14902850Y-6786580D02*
G75*
G03*
X14902850Y-6786580I-20000J0D01*
G01*
X14902850Y-8691584D02*
G75*
G03*
X14902850Y-8691584I-20000J0D01*
G01*
X15379101Y-11072840D02*
G75*
G03*
X15379101Y-11072840I-20000J0D01*
G01*
X16807855Y-4881575D02*
G75*
G03*
X16807855Y-4881575I-20000J0D01*
G01*
X16807855Y-6786580D02*
G75*
G03*
X16807855Y-6786580I-20000J0D01*
G01*
X16807855Y-8691584D02*
G75*
G03*
X16807855Y-8691584I-20000J0D01*
G01*
X18712860Y-4881575D02*
G75*
G03*
X18712860Y-4881575I-20000J0D01*
G01*
X18712860Y-6786580D02*
G75*
G03*
X18712860Y-6786580I-20000J0D01*
G01*
X18712860Y-8691584D02*
G75*
G03*
X18712860Y-8691584I-20000J0D01*
G01*
X18712860Y-10596589D02*
G75*
G03*
X18712860Y-10596589I-20000J0D01*
G01*
X20617864Y-4881575D02*
G75*
G03*
X20617864Y-4881575I-20000J0D01*
G01*
X20617864Y-6786580D02*
G75*
G03*
X20617864Y-6786580I-20000J0D01*
G01*
X20617864Y-8691584D02*
G75*
G03*
X20617864Y-8691584I-20000J0D01*
G01*
X20617864Y-10596589D02*
G75*
G03*
X20617864Y-10596589I-20000J0D01*
G01*
X22522869Y-4881575D02*
G75*
G03*
X22522869Y-4881575I-20000J0D01*
G01*
X22522869Y-6786580D02*
G75*
G03*
X22522869Y-6786580I-20000J0D01*
G01*
X22522869Y-8691584D02*
G75*
G03*
X22522869Y-8691584I-20000J0D01*
G01*
X22522869Y-10596589D02*
G75*
G03*
X22522869Y-10596589I-20000J0D01*
G01*
D14*
X9817213Y-5485186D02*
X9817213Y-5545186D01*
X9787213Y-5515186D02*
X9847213Y-5515186D01*
X9944213Y-5485186D02*
X9944213Y-5545186D01*
X9914213Y-5515186D02*
X9974213Y-5515186D01*
D10*
X4387548Y-7683157D02*
X4387548Y-7612446D01*
X4316836Y-7612446D01*
X4316836Y-7683157D01*
X4387548Y-7683157D01*
X4387548Y-7937157D02*
X4387548Y-7866446D01*
X4316836Y-7866446D01*
X4316836Y-7937157D01*
X4387548Y-7937157D01*
X4387548Y-8191157D02*
X4387548Y-8120446D01*
X4316836Y-8120446D01*
X4316836Y-8191157D01*
X4387548Y-8191157D01*
X4387548Y-8445158D02*
X4387548Y-8374446D01*
X4316836Y-8374446D01*
X4316836Y-8445158D01*
X4387548Y-8445158D01*
X4387548Y-8699158D02*
X4387548Y-8628446D01*
X4316836Y-8628446D01*
X4316836Y-8699158D01*
X4387548Y-8699158D01*
D15*
X4738692Y-8749192D02*
X4812192Y-8675692D01*
X4738692Y-8602192D01*
X4665192Y-8675692D01*
X4738692Y-8749192D01*
X4865692Y-5701192D02*
X4939192Y-5627692D01*
X4865692Y-5554192D01*
X4792192Y-5627692D01*
X4865692Y-5701192D01*
X4865692Y-7606192D02*
X4939192Y-7532692D01*
X4865692Y-7459192D01*
X4792192Y-7532692D01*
X4865692Y-7606192D01*
X4865692Y-11413234D02*
X4939192Y-11339734D01*
X4865692Y-11266234D01*
X4792192Y-11339734D01*
X4865692Y-11413234D01*
X5103817Y-11413234D02*
X5177317Y-11339734D01*
X5103817Y-11266234D01*
X5030317Y-11339734D01*
X5103817Y-11413234D01*
X5373692Y-8495192D02*
X5447192Y-8421692D01*
X5373692Y-8348192D01*
X5300192Y-8421692D01*
X5373692Y-8495192D01*
X5500692Y-5447192D02*
X5574192Y-5373692D01*
X5500692Y-5300192D01*
X5427192Y-5373692D01*
X5500692Y-5447192D01*
X5500692Y-7352192D02*
X5574192Y-7278692D01*
X5500692Y-7205192D01*
X5427192Y-7278692D01*
X5500692Y-7352192D01*
X5500692Y-11159234D02*
X5574192Y-11085734D01*
X5500692Y-11012234D01*
X5427192Y-11085734D01*
X5500692Y-11159234D01*
X5738817Y-11159234D02*
X5812317Y-11085734D01*
X5738817Y-11012234D01*
X5665317Y-11085734D01*
X5738817Y-11159234D01*
X6643692Y-8749192D02*
X6717192Y-8675692D01*
X6643692Y-8602192D01*
X6570192Y-8675692D01*
X6643692Y-8749192D01*
X6770692Y-5701192D02*
X6844192Y-5627692D01*
X6770692Y-5554192D01*
X6697192Y-5627692D01*
X6770692Y-5701192D01*
X6770692Y-7606192D02*
X6844192Y-7532692D01*
X6770692Y-7459192D01*
X6697192Y-7532692D01*
X6770692Y-7606192D01*
X6770693Y-11413234D02*
X6844193Y-11339734D01*
X6770693Y-11266234D01*
X6697193Y-11339734D01*
X6770693Y-11413234D01*
X7246944Y-11413234D02*
X7320444Y-11339734D01*
X7246944Y-11266234D01*
X7173444Y-11339734D01*
X7246944Y-11413234D01*
X7278692Y-8495192D02*
X7352192Y-8421692D01*
X7278692Y-8348192D01*
X7205192Y-8421692D01*
X7278692Y-8495192D01*
X7405692Y-5447192D02*
X7479192Y-5373692D01*
X7405692Y-5300192D01*
X7332192Y-5373692D01*
X7405692Y-5447192D01*
X7405692Y-7352192D02*
X7479192Y-7278692D01*
X7405692Y-7205192D01*
X7332192Y-7278692D01*
X7405692Y-7352192D01*
X7405693Y-11159234D02*
X7479193Y-11085734D01*
X7405693Y-11012234D01*
X7332193Y-11085734D01*
X7405693Y-11159234D01*
X7881944Y-11159234D02*
X7955444Y-11085734D01*
X7881944Y-11012234D01*
X7808444Y-11085734D01*
X7881944Y-11159234D01*
X8675692Y-5701192D02*
X8749192Y-5627692D01*
X8675692Y-5554192D01*
X8602192Y-5627692D01*
X8675692Y-5701192D01*
X8675692Y-7606192D02*
X8749192Y-7532692D01*
X8675692Y-7459192D01*
X8602192Y-7532692D01*
X8675692Y-7606192D01*
X8675692Y-9511192D02*
X8749192Y-9437692D01*
X8675692Y-9364192D01*
X8602192Y-9437692D01*
X8675692Y-9511192D01*
X8675695Y-11413234D02*
X8749195Y-11339734D01*
X8675695Y-11266234D01*
X8602195Y-11339734D01*
X8675695Y-11413234D01*
X9310692Y-5447192D02*
X9384192Y-5373692D01*
X9310692Y-5300192D01*
X9237192Y-5373692D01*
X9310692Y-5447192D01*
X9310692Y-7352192D02*
X9384192Y-7278692D01*
X9310692Y-7205192D01*
X9237192Y-7278692D01*
X9310692Y-7352192D01*
X9310692Y-9257192D02*
X9384192Y-9183692D01*
X9310692Y-9110192D01*
X9237192Y-9183692D01*
X9310692Y-9257192D01*
X9310695Y-11159234D02*
X9384195Y-11085734D01*
X9310695Y-11012234D01*
X9237195Y-11085734D01*
X9310695Y-11159234D01*
X9390071Y-11413234D02*
X9463571Y-11339734D01*
X9390071Y-11266234D01*
X9316571Y-11339734D01*
X9390071Y-11413234D01*
X10025071Y-11159234D02*
X10098571Y-11085734D01*
X10025071Y-11012234D01*
X9951571Y-11085734D01*
X10025071Y-11159234D01*
X10580692Y-5701192D02*
X10654192Y-5627692D01*
X10580692Y-5554192D01*
X10507192Y-5627692D01*
X10580692Y-5701192D01*
X10580692Y-7606192D02*
X10654192Y-7532692D01*
X10580692Y-7459192D01*
X10507192Y-7532692D01*
X10580692Y-7606192D01*
X10580692Y-9511192D02*
X10654192Y-9437692D01*
X10580692Y-9364192D01*
X10507192Y-9437692D01*
X10580692Y-9511192D01*
X11215692Y-5447192D02*
X11289192Y-5373692D01*
X11215692Y-5300192D01*
X11142192Y-5373692D01*
X11215692Y-5447192D01*
X11215692Y-7352192D02*
X11289192Y-7278692D01*
X11215692Y-7205192D01*
X11142192Y-7278692D01*
X11215692Y-7352192D01*
X11215692Y-9257192D02*
X11289192Y-9183692D01*
X11215692Y-9110192D01*
X11142192Y-9183692D01*
X11215692Y-9257192D01*
X12009448Y-11889484D02*
X12082948Y-11815984D01*
X12009448Y-11742484D01*
X11935948Y-11815984D01*
X12009448Y-11889484D01*
X12485692Y-5701192D02*
X12559192Y-5627692D01*
X12485692Y-5554192D01*
X12412192Y-5627692D01*
X12485692Y-5701192D01*
X12485692Y-7606192D02*
X12559192Y-7532692D01*
X12485692Y-7459192D01*
X12412192Y-7532692D01*
X12485692Y-7606192D01*
X12485692Y-9511192D02*
X12559192Y-9437692D01*
X12485692Y-9364192D01*
X12412192Y-9437692D01*
X12485692Y-9511192D01*
X12644448Y-11635484D02*
X12717948Y-11561984D01*
X12644448Y-11488484D01*
X12570948Y-11561984D01*
X12644448Y-11635484D01*
X12723823Y-11889484D02*
X12797323Y-11815984D01*
X12723823Y-11742484D01*
X12650323Y-11815984D01*
X12723823Y-11889484D01*
X13120692Y-5447192D02*
X13194192Y-5373692D01*
X13120692Y-5300192D01*
X13047192Y-5373692D01*
X13120692Y-5447192D01*
X13120692Y-7352192D02*
X13194192Y-7278692D01*
X13120692Y-7205192D01*
X13047192Y-7278692D01*
X13120692Y-7352192D01*
X13120692Y-9257192D02*
X13194192Y-9183692D01*
X13120692Y-9110192D01*
X13047192Y-9183692D01*
X13120692Y-9257192D01*
X13358823Y-11635484D02*
X13432323Y-11561984D01*
X13358823Y-11488484D01*
X13285323Y-11561984D01*
X13358823Y-11635484D01*
X13914449Y-11889484D02*
X13987949Y-11815984D01*
X13914449Y-11742484D01*
X13840949Y-11815984D01*
X13914449Y-11889484D01*
X14549449Y-11635484D02*
X14622949Y-11561984D01*
X14549449Y-11488484D01*
X14475949Y-11561984D01*
X14549449Y-11635484D01*
X15343192Y-5701192D02*
X15416692Y-5627692D01*
X15343192Y-5554192D01*
X15269692Y-5627692D01*
X15343192Y-5701192D01*
X15343192Y-7606192D02*
X15416692Y-7532692D01*
X15343192Y-7459192D01*
X15269692Y-7532692D01*
X15343192Y-7606192D01*
X15343192Y-9511192D02*
X15416692Y-9437692D01*
X15343192Y-9364192D01*
X15269692Y-9437692D01*
X15343192Y-9511192D01*
X15819451Y-11889484D02*
X15892951Y-11815984D01*
X15819451Y-11742484D01*
X15745951Y-11815984D01*
X15819451Y-11889484D01*
X15978192Y-5447192D02*
X16051692Y-5373692D01*
X15978192Y-5300192D01*
X15904692Y-5373692D01*
X15978192Y-5447192D01*
X15978192Y-7352192D02*
X16051692Y-7278692D01*
X15978192Y-7205192D01*
X15904692Y-7278692D01*
X15978192Y-7352192D01*
X15978192Y-9257192D02*
X16051692Y-9183692D01*
X15978192Y-9110192D01*
X15904692Y-9183692D01*
X15978192Y-9257192D01*
X16057576Y-11889484D02*
X16131076Y-11815984D01*
X16057576Y-11742484D01*
X15984076Y-11815984D01*
X16057576Y-11889484D01*
X16454451Y-11635484D02*
X16527951Y-11561984D01*
X16454451Y-11488484D01*
X16380951Y-11561984D01*
X16454451Y-11635484D01*
X16692576Y-11635484D02*
X16766076Y-11561984D01*
X16692576Y-11488484D01*
X16619076Y-11561984D01*
X16692576Y-11635484D01*
X17248192Y-5701192D02*
X17321692Y-5627692D01*
X17248192Y-5554192D01*
X17174692Y-5627692D01*
X17248192Y-5701192D01*
X17248192Y-7606192D02*
X17321692Y-7532692D01*
X17248192Y-7459192D01*
X17174692Y-7532692D01*
X17248192Y-7606192D01*
X17248192Y-9511192D02*
X17321692Y-9437692D01*
X17248192Y-9364192D01*
X17174692Y-9437692D01*
X17248192Y-9511192D01*
X17883192Y-5447192D02*
X17956692Y-5373692D01*
X17883192Y-5300192D01*
X17809692Y-5373692D01*
X17883192Y-5447192D01*
X17883192Y-7352192D02*
X17956692Y-7278692D01*
X17883192Y-7205192D01*
X17809692Y-7278692D01*
X17883192Y-7352192D01*
X17883192Y-9257192D02*
X17956692Y-9183692D01*
X17883192Y-9110192D01*
X17809692Y-9183692D01*
X17883192Y-9257192D01*
X19153192Y-5701192D02*
X19226692Y-5627692D01*
X19153192Y-5554192D01*
X19079692Y-5627692D01*
X19153192Y-5701192D01*
X19153192Y-7606192D02*
X19226692Y-7532692D01*
X19153192Y-7459192D01*
X19079692Y-7532692D01*
X19153192Y-7606192D01*
X19153192Y-9511192D02*
X19226692Y-9437692D01*
X19153192Y-9364192D01*
X19079692Y-9437692D01*
X19153192Y-9511192D01*
X19153192Y-11416192D02*
X19226692Y-11342692D01*
X19153192Y-11269192D01*
X19079692Y-11342692D01*
X19153192Y-11416192D01*
X19788192Y-5447192D02*
X19861692Y-5373692D01*
X19788192Y-5300192D01*
X19714692Y-5373692D01*
X19788192Y-5447192D01*
X19788192Y-7352192D02*
X19861692Y-7278692D01*
X19788192Y-7205192D01*
X19714692Y-7278692D01*
X19788192Y-7352192D01*
X19788192Y-9257192D02*
X19861692Y-9183692D01*
X19788192Y-9110192D01*
X19714692Y-9183692D01*
X19788192Y-9257192D01*
X19788192Y-11162192D02*
X19861692Y-11088692D01*
X19788192Y-11015192D01*
X19714692Y-11088692D01*
X19788192Y-11162192D01*
X21058192Y-5701192D02*
X21131692Y-5627692D01*
X21058192Y-5554192D01*
X20984692Y-5627692D01*
X21058192Y-5701192D01*
X21058192Y-7606192D02*
X21131692Y-7532692D01*
X21058192Y-7459192D01*
X20984692Y-7532692D01*
X21058192Y-7606192D01*
X21058192Y-9511192D02*
X21131692Y-9437692D01*
X21058192Y-9364192D01*
X20984692Y-9437692D01*
X21058192Y-9511192D01*
X21058192Y-11416192D02*
X21131692Y-11342692D01*
X21058192Y-11269192D01*
X20984692Y-11342692D01*
X21058192Y-11416192D01*
X21693192Y-5447192D02*
X21766692Y-5373692D01*
X21693192Y-5300192D01*
X21619692Y-5373692D01*
X21693192Y-5447192D01*
X21693192Y-7352192D02*
X21766692Y-7278692D01*
X21693192Y-7205192D01*
X21619692Y-7278692D01*
X21693192Y-7352192D01*
X21693192Y-9257192D02*
X21766692Y-9183692D01*
X21693192Y-9110192D01*
X21619692Y-9183692D01*
X21693192Y-9257192D01*
X21693192Y-11162192D02*
X21766692Y-11088692D01*
X21693192Y-11015192D01*
X21619692Y-11088692D01*
X21693192Y-11162192D01*
X22963192Y-5701192D02*
X23036692Y-5627692D01*
X22963192Y-5554192D01*
X22889692Y-5627692D01*
X22963192Y-5701192D01*
X22963192Y-7606192D02*
X23036692Y-7532692D01*
X22963192Y-7459192D01*
X22889692Y-7532692D01*
X22963192Y-7606192D01*
X22963192Y-9511192D02*
X23036692Y-9437692D01*
X22963192Y-9364192D01*
X22889692Y-9437692D01*
X22963192Y-9511192D01*
X22963192Y-11416192D02*
X23036692Y-11342692D01*
X22963192Y-11269192D01*
X22889692Y-11342692D01*
X22963192Y-11416192D01*
X23598192Y-5447192D02*
X23671692Y-5373692D01*
X23598192Y-5300192D01*
X23524692Y-5373692D01*
X23598192Y-5447192D01*
X23598192Y-7352192D02*
X23671692Y-7278692D01*
X23598192Y-7205192D01*
X23524692Y-7278692D01*
X23598192Y-7352192D01*
X23598192Y-9257192D02*
X23671692Y-9183692D01*
X23598192Y-9110192D01*
X23524692Y-9183692D01*
X23598192Y-9257192D01*
X23598192Y-11162192D02*
X23671692Y-11088692D01*
X23598192Y-11015192D01*
X23524692Y-11088692D01*
X23598192Y-11162192D01*
D11*
X4422968Y-12579952D02*
X4422968Y-12379952D01*
X4422968Y-12379952D02*
X4470587Y-12379952D01*
X4470587Y-12379952D02*
X4499158Y-12389476D01*
X4499158Y-12389476D02*
X4518206Y-12408524D01*
X4518206Y-12408524D02*
X4527730Y-12427571D01*
X4527730Y-12427571D02*
X4537254Y-12465666D01*
X4537254Y-12465666D02*
X4537254Y-12494238D01*
X4537254Y-12494238D02*
X4527730Y-12532333D01*
X4527730Y-12532333D02*
X4518206Y-12551381D01*
X4518206Y-12551381D02*
X4499158Y-12570428D01*
X4499158Y-12570428D02*
X4470587Y-12579952D01*
X4470587Y-12579952D02*
X4422968Y-12579952D01*
X4622968Y-12579952D02*
X4622968Y-12446619D01*
X4622968Y-12484714D02*
X4632492Y-12465666D01*
X4632492Y-12465666D02*
X4642015Y-12456143D01*
X4642015Y-12456143D02*
X4661063Y-12446619D01*
X4661063Y-12446619D02*
X4680111Y-12446619D01*
X4746777Y-12579952D02*
X4746777Y-12446619D01*
X4746777Y-12379952D02*
X4737254Y-12389476D01*
X4737254Y-12389476D02*
X4746777Y-12399000D01*
X4746777Y-12399000D02*
X4756301Y-12389476D01*
X4756301Y-12389476D02*
X4746777Y-12379952D01*
X4746777Y-12379952D02*
X4746777Y-12399000D01*
X4870587Y-12579952D02*
X4851539Y-12570428D01*
X4851539Y-12570428D02*
X4842015Y-12551381D01*
X4842015Y-12551381D02*
X4842015Y-12379952D01*
X4975349Y-12579952D02*
X4956301Y-12570428D01*
X4956301Y-12570428D02*
X4946777Y-12551381D01*
X4946777Y-12551381D02*
X4946777Y-12379952D01*
X5203920Y-12579952D02*
X5203920Y-12379952D01*
X5203920Y-12379952D02*
X5270587Y-12522809D01*
X5270587Y-12522809D02*
X5337254Y-12379952D01*
X5337254Y-12379952D02*
X5337254Y-12579952D01*
X5518206Y-12579952D02*
X5518206Y-12475190D01*
X5518206Y-12475190D02*
X5508682Y-12456143D01*
X5508682Y-12456143D02*
X5489635Y-12446619D01*
X5489635Y-12446619D02*
X5451539Y-12446619D01*
X5451539Y-12446619D02*
X5432492Y-12456143D01*
X5518206Y-12570428D02*
X5499158Y-12579952D01*
X5499158Y-12579952D02*
X5451539Y-12579952D01*
X5451539Y-12579952D02*
X5432492Y-12570428D01*
X5432492Y-12570428D02*
X5422968Y-12551381D01*
X5422968Y-12551381D02*
X5422968Y-12532333D01*
X5422968Y-12532333D02*
X5432492Y-12513285D01*
X5432492Y-12513285D02*
X5451539Y-12503762D01*
X5451539Y-12503762D02*
X5499158Y-12503762D01*
X5499158Y-12503762D02*
X5518206Y-12494238D01*
X5613444Y-12446619D02*
X5613444Y-12646619D01*
X5613444Y-12456143D02*
X5632492Y-12446619D01*
X5632492Y-12446619D02*
X5670587Y-12446619D01*
X5670587Y-12446619D02*
X5689634Y-12456143D01*
X5689634Y-12456143D02*
X5699158Y-12465666D01*
X5699158Y-12465666D02*
X5708682Y-12484714D01*
X5708682Y-12484714D02*
X5708682Y-12541857D01*
X5708682Y-12541857D02*
X5699158Y-12560904D01*
X5699158Y-12560904D02*
X5689634Y-12570428D01*
X5689634Y-12570428D02*
X5670587Y-12579952D01*
X5670587Y-12579952D02*
X5632492Y-12579952D01*
X5632492Y-12579952D02*
X5613444Y-12570428D01*
X5794396Y-12560904D02*
X5803920Y-12570428D01*
X5803920Y-12570428D02*
X5794396Y-12579952D01*
X5794396Y-12579952D02*
X5784873Y-12570428D01*
X5784873Y-12570428D02*
X5794396Y-12560904D01*
X5794396Y-12560904D02*
X5794396Y-12579952D01*
X5794396Y-12456143D02*
X5803920Y-12465666D01*
X5803920Y-12465666D02*
X5794396Y-12475190D01*
X5794396Y-12475190D02*
X5784873Y-12465666D01*
X5784873Y-12465666D02*
X5794396Y-12456143D01*
X5794396Y-12456143D02*
X5794396Y-12475190D01*
D12*
X4132191Y-12893468D02*
X4162191Y-12923468D01*
X4162191Y-12893468D02*
X4132191Y-12923468D01*
D11*
X4461063Y-12799952D02*
X4480111Y-12799952D01*
X4480111Y-12799952D02*
X4499158Y-12809476D01*
X4499158Y-12809476D02*
X4508682Y-12819000D01*
X4508682Y-12819000D02*
X4518206Y-12838047D01*
X4518206Y-12838047D02*
X4527730Y-12876143D01*
X4527730Y-12876143D02*
X4527730Y-12923762D01*
X4527730Y-12923762D02*
X4518206Y-12961857D01*
X4518206Y-12961857D02*
X4508682Y-12980904D01*
X4508682Y-12980904D02*
X4499158Y-12990428D01*
X4499158Y-12990428D02*
X4480111Y-12999952D01*
X4480111Y-12999952D02*
X4461063Y-12999952D01*
X4461063Y-12999952D02*
X4442015Y-12990428D01*
X4442015Y-12990428D02*
X4432492Y-12980904D01*
X4432492Y-12980904D02*
X4422968Y-12961857D01*
X4422968Y-12961857D02*
X4413444Y-12923762D01*
X4413444Y-12923762D02*
X4413444Y-12876143D01*
X4413444Y-12876143D02*
X4422968Y-12838047D01*
X4422968Y-12838047D02*
X4432492Y-12819000D01*
X4432492Y-12819000D02*
X4442015Y-12809476D01*
X4442015Y-12809476D02*
X4461063Y-12799952D01*
X4613444Y-12980904D02*
X4622968Y-12990428D01*
X4622968Y-12990428D02*
X4613444Y-12999952D01*
X4613444Y-12999952D02*
X4603920Y-12990428D01*
X4603920Y-12990428D02*
X4613444Y-12980904D01*
X4613444Y-12980904D02*
X4613444Y-12999952D01*
X4689635Y-12799952D02*
X4813444Y-12799952D01*
X4813444Y-12799952D02*
X4746777Y-12876143D01*
X4746777Y-12876143D02*
X4775349Y-12876143D01*
X4775349Y-12876143D02*
X4794396Y-12885666D01*
X4794396Y-12885666D02*
X4803920Y-12895190D01*
X4803920Y-12895190D02*
X4813444Y-12914238D01*
X4813444Y-12914238D02*
X4813444Y-12961857D01*
X4813444Y-12961857D02*
X4803920Y-12980904D01*
X4803920Y-12980904D02*
X4794396Y-12990428D01*
X4794396Y-12990428D02*
X4775349Y-12999952D01*
X4775349Y-12999952D02*
X4718206Y-12999952D01*
X4718206Y-12999952D02*
X4699158Y-12990428D01*
X4699158Y-12990428D02*
X4689635Y-12980904D01*
X4937254Y-12799952D02*
X4956301Y-12799952D01*
X4956301Y-12799952D02*
X4975349Y-12809476D01*
X4975349Y-12809476D02*
X4984873Y-12819000D01*
X4984873Y-12819000D02*
X4994396Y-12838047D01*
X4994396Y-12838047D02*
X5003920Y-12876143D01*
X5003920Y-12876143D02*
X5003920Y-12923762D01*
X5003920Y-12923762D02*
X4994396Y-12961857D01*
X4994396Y-12961857D02*
X4984873Y-12980904D01*
X4984873Y-12980904D02*
X4975349Y-12990428D01*
X4975349Y-12990428D02*
X4956301Y-12999952D01*
X4956301Y-12999952D02*
X4937254Y-12999952D01*
X4937254Y-12999952D02*
X4918206Y-12990428D01*
X4918206Y-12990428D02*
X4908682Y-12980904D01*
X4908682Y-12980904D02*
X4899158Y-12961857D01*
X4899158Y-12961857D02*
X4889635Y-12923762D01*
X4889635Y-12923762D02*
X4889635Y-12876143D01*
X4889635Y-12876143D02*
X4899158Y-12838047D01*
X4899158Y-12838047D02*
X4908682Y-12819000D01*
X4908682Y-12819000D02*
X4918206Y-12809476D01*
X4918206Y-12809476D02*
X4937254Y-12799952D01*
X5127730Y-12799952D02*
X5146777Y-12799952D01*
X5146777Y-12799952D02*
X5165825Y-12809476D01*
X5165825Y-12809476D02*
X5175349Y-12819000D01*
X5175349Y-12819000D02*
X5184873Y-12838047D01*
X5184873Y-12838047D02*
X5194396Y-12876143D01*
X5194396Y-12876143D02*
X5194396Y-12923762D01*
X5194396Y-12923762D02*
X5184873Y-12961857D01*
X5184873Y-12961857D02*
X5175349Y-12980904D01*
X5175349Y-12980904D02*
X5165825Y-12990428D01*
X5165825Y-12990428D02*
X5146777Y-12999952D01*
X5146777Y-12999952D02*
X5127730Y-12999952D01*
X5127730Y-12999952D02*
X5108682Y-12990428D01*
X5108682Y-12990428D02*
X5099158Y-12980904D01*
X5099158Y-12980904D02*
X5089635Y-12961857D01*
X5089635Y-12961857D02*
X5080111Y-12923762D01*
X5080111Y-12923762D02*
X5080111Y-12876143D01*
X5080111Y-12876143D02*
X5089635Y-12838047D01*
X5089635Y-12838047D02*
X5099158Y-12819000D01*
X5099158Y-12819000D02*
X5108682Y-12809476D01*
X5108682Y-12809476D02*
X5127730Y-12799952D01*
X5280111Y-12999952D02*
X5280111Y-12866619D01*
X5280111Y-12885666D02*
X5289635Y-12876143D01*
X5289635Y-12876143D02*
X5308682Y-12866619D01*
X5308682Y-12866619D02*
X5337254Y-12866619D01*
X5337254Y-12866619D02*
X5356301Y-12876143D01*
X5356301Y-12876143D02*
X5365825Y-12895190D01*
X5365825Y-12895190D02*
X5365825Y-12999952D01*
X5365825Y-12895190D02*
X5375349Y-12876143D01*
X5375349Y-12876143D02*
X5394396Y-12866619D01*
X5394396Y-12866619D02*
X5422968Y-12866619D01*
X5422968Y-12866619D02*
X5442016Y-12876143D01*
X5442016Y-12876143D02*
X5451539Y-12895190D01*
X5451539Y-12895190D02*
X5451539Y-12999952D01*
X5546777Y-12999952D02*
X5546777Y-12866619D01*
X5546777Y-12885666D02*
X5556301Y-12876143D01*
X5556301Y-12876143D02*
X5575349Y-12866619D01*
X5575349Y-12866619D02*
X5603920Y-12866619D01*
X5603920Y-12866619D02*
X5622968Y-12876143D01*
X5622968Y-12876143D02*
X5632492Y-12895190D01*
X5632492Y-12895190D02*
X5632492Y-12999952D01*
X5632492Y-12895190D02*
X5642015Y-12876143D01*
X5642015Y-12876143D02*
X5661063Y-12866619D01*
X5661063Y-12866619D02*
X5689634Y-12866619D01*
X5689634Y-12866619D02*
X5708682Y-12876143D01*
X5708682Y-12876143D02*
X5718206Y-12895190D01*
X5718206Y-12895190D02*
X5718206Y-12999952D01*
X6108682Y-12790428D02*
X5937254Y-13047571D01*
X6365825Y-12799952D02*
X6384873Y-12799952D01*
X6384873Y-12799952D02*
X6403920Y-12809476D01*
X6403920Y-12809476D02*
X6413444Y-12819000D01*
X6413444Y-12819000D02*
X6422968Y-12838047D01*
X6422968Y-12838047D02*
X6432492Y-12876143D01*
X6432492Y-12876143D02*
X6432492Y-12923762D01*
X6432492Y-12923762D02*
X6422968Y-12961857D01*
X6422968Y-12961857D02*
X6413444Y-12980904D01*
X6413444Y-12980904D02*
X6403920Y-12990428D01*
X6403920Y-12990428D02*
X6384873Y-12999952D01*
X6384873Y-12999952D02*
X6365825Y-12999952D01*
X6365825Y-12999952D02*
X6346777Y-12990428D01*
X6346777Y-12990428D02*
X6337254Y-12980904D01*
X6337254Y-12980904D02*
X6327730Y-12961857D01*
X6327730Y-12961857D02*
X6318206Y-12923762D01*
X6318206Y-12923762D02*
X6318206Y-12876143D01*
X6318206Y-12876143D02*
X6327730Y-12838047D01*
X6327730Y-12838047D02*
X6337254Y-12819000D01*
X6337254Y-12819000D02*
X6346777Y-12809476D01*
X6346777Y-12809476D02*
X6365825Y-12799952D01*
X6518206Y-12980904D02*
X6527730Y-12990428D01*
X6527730Y-12990428D02*
X6518206Y-12999952D01*
X6518206Y-12999952D02*
X6508682Y-12990428D01*
X6508682Y-12990428D02*
X6518206Y-12980904D01*
X6518206Y-12980904D02*
X6518206Y-12999952D01*
X6651539Y-12799952D02*
X6670587Y-12799952D01*
X6670587Y-12799952D02*
X6689635Y-12809476D01*
X6689635Y-12809476D02*
X6699158Y-12819000D01*
X6699158Y-12819000D02*
X6708682Y-12838047D01*
X6708682Y-12838047D02*
X6718206Y-12876143D01*
X6718206Y-12876143D02*
X6718206Y-12923762D01*
X6718206Y-12923762D02*
X6708682Y-12961857D01*
X6708682Y-12961857D02*
X6699158Y-12980904D01*
X6699158Y-12980904D02*
X6689635Y-12990428D01*
X6689635Y-12990428D02*
X6670587Y-12999952D01*
X6670587Y-12999952D02*
X6651539Y-12999952D01*
X6651539Y-12999952D02*
X6632492Y-12990428D01*
X6632492Y-12990428D02*
X6622968Y-12980904D01*
X6622968Y-12980904D02*
X6613444Y-12961857D01*
X6613444Y-12961857D02*
X6603920Y-12923762D01*
X6603920Y-12923762D02*
X6603920Y-12876143D01*
X6603920Y-12876143D02*
X6613444Y-12838047D01*
X6613444Y-12838047D02*
X6622968Y-12819000D01*
X6622968Y-12819000D02*
X6632492Y-12809476D01*
X6632492Y-12809476D02*
X6651539Y-12799952D01*
X6908682Y-12999952D02*
X6794397Y-12999952D01*
X6851539Y-12999952D02*
X6851539Y-12799952D01*
X6851539Y-12799952D02*
X6832492Y-12828524D01*
X6832492Y-12828524D02*
X6813444Y-12847571D01*
X6813444Y-12847571D02*
X6794397Y-12857095D01*
X7099158Y-12999952D02*
X6984873Y-12999952D01*
X7042016Y-12999952D02*
X7042016Y-12799952D01*
X7042016Y-12799952D02*
X7022968Y-12828524D01*
X7022968Y-12828524D02*
X7003920Y-12847571D01*
X7003920Y-12847571D02*
X6984873Y-12857095D01*
X7213444Y-12885666D02*
X7194397Y-12876143D01*
X7194397Y-12876143D02*
X7184873Y-12866619D01*
X7184873Y-12866619D02*
X7175349Y-12847571D01*
X7175349Y-12847571D02*
X7175349Y-12838047D01*
X7175349Y-12838047D02*
X7184873Y-12819000D01*
X7184873Y-12819000D02*
X7194397Y-12809476D01*
X7194397Y-12809476D02*
X7213444Y-12799952D01*
X7213444Y-12799952D02*
X7251539Y-12799952D01*
X7251539Y-12799952D02*
X7270587Y-12809476D01*
X7270587Y-12809476D02*
X7280111Y-12819000D01*
X7280111Y-12819000D02*
X7289635Y-12838047D01*
X7289635Y-12838047D02*
X7289635Y-12847571D01*
X7289635Y-12847571D02*
X7280111Y-12866619D01*
X7280111Y-12866619D02*
X7270587Y-12876143D01*
X7270587Y-12876143D02*
X7251539Y-12885666D01*
X7251539Y-12885666D02*
X7213444Y-12885666D01*
X7213444Y-12885666D02*
X7194397Y-12895190D01*
X7194397Y-12895190D02*
X7184873Y-12904714D01*
X7184873Y-12904714D02*
X7175349Y-12923762D01*
X7175349Y-12923762D02*
X7175349Y-12961857D01*
X7175349Y-12961857D02*
X7184873Y-12980904D01*
X7184873Y-12980904D02*
X7194397Y-12990428D01*
X7194397Y-12990428D02*
X7213444Y-12999952D01*
X7213444Y-12999952D02*
X7251539Y-12999952D01*
X7251539Y-12999952D02*
X7270587Y-12990428D01*
X7270587Y-12990428D02*
X7280111Y-12980904D01*
X7280111Y-12980904D02*
X7289635Y-12961857D01*
X7289635Y-12961857D02*
X7289635Y-12923762D01*
X7289635Y-12923762D02*
X7280111Y-12904714D01*
X7280111Y-12904714D02*
X7270587Y-12895190D01*
X7270587Y-12895190D02*
X7251539Y-12885666D01*
X7365825Y-12799952D02*
X7365825Y-12838047D01*
X7442016Y-12799952D02*
X7442016Y-12838047D01*
X7737254Y-13076143D02*
X7727730Y-13066619D01*
X7727730Y-13066619D02*
X7708682Y-13038047D01*
X7708682Y-13038047D02*
X7699159Y-13019000D01*
X7699159Y-13019000D02*
X7689635Y-12990428D01*
X7689635Y-12990428D02*
X7680111Y-12942809D01*
X7680111Y-12942809D02*
X7680111Y-12904714D01*
X7680111Y-12904714D02*
X7689635Y-12857095D01*
X7689635Y-12857095D02*
X7699159Y-12828524D01*
X7699159Y-12828524D02*
X7708682Y-12809476D01*
X7708682Y-12809476D02*
X7727730Y-12780904D01*
X7727730Y-12780904D02*
X7737254Y-12771381D01*
X7822968Y-12999952D02*
X7861063Y-12999952D01*
X7861063Y-12999952D02*
X7880111Y-12990428D01*
X7880111Y-12990428D02*
X7889635Y-12980904D01*
X7889635Y-12980904D02*
X7908682Y-12952333D01*
X7908682Y-12952333D02*
X7918206Y-12914238D01*
X7918206Y-12914238D02*
X7918206Y-12838047D01*
X7918206Y-12838047D02*
X7908682Y-12819000D01*
X7908682Y-12819000D02*
X7899159Y-12809476D01*
X7899159Y-12809476D02*
X7880111Y-12799952D01*
X7880111Y-12799952D02*
X7842016Y-12799952D01*
X7842016Y-12799952D02*
X7822968Y-12809476D01*
X7822968Y-12809476D02*
X7813444Y-12819000D01*
X7813444Y-12819000D02*
X7803920Y-12838047D01*
X7803920Y-12838047D02*
X7803920Y-12885666D01*
X7803920Y-12885666D02*
X7813444Y-12904714D01*
X7813444Y-12904714D02*
X7822968Y-12914238D01*
X7822968Y-12914238D02*
X7842016Y-12923762D01*
X7842016Y-12923762D02*
X7880111Y-12923762D01*
X7880111Y-12923762D02*
X7899159Y-12914238D01*
X7899159Y-12914238D02*
X7908682Y-12904714D01*
X7908682Y-12904714D02*
X7918206Y-12885666D01*
X8156301Y-12999952D02*
X8156301Y-12799952D01*
X8242016Y-12999952D02*
X8242016Y-12895190D01*
X8242016Y-12895190D02*
X8232492Y-12876143D01*
X8232492Y-12876143D02*
X8213444Y-12866619D01*
X8213444Y-12866619D02*
X8184873Y-12866619D01*
X8184873Y-12866619D02*
X8165825Y-12876143D01*
X8165825Y-12876143D02*
X8156301Y-12885666D01*
X8365825Y-12999952D02*
X8346778Y-12990428D01*
X8346778Y-12990428D02*
X8337254Y-12980904D01*
X8337254Y-12980904D02*
X8327730Y-12961857D01*
X8327730Y-12961857D02*
X8327730Y-12904714D01*
X8327730Y-12904714D02*
X8337254Y-12885666D01*
X8337254Y-12885666D02*
X8346778Y-12876143D01*
X8346778Y-12876143D02*
X8365825Y-12866619D01*
X8365825Y-12866619D02*
X8394397Y-12866619D01*
X8394397Y-12866619D02*
X8413444Y-12876143D01*
X8413444Y-12876143D02*
X8422968Y-12885666D01*
X8422968Y-12885666D02*
X8432492Y-12904714D01*
X8432492Y-12904714D02*
X8432492Y-12961857D01*
X8432492Y-12961857D02*
X8422968Y-12980904D01*
X8422968Y-12980904D02*
X8413444Y-12990428D01*
X8413444Y-12990428D02*
X8394397Y-12999952D01*
X8394397Y-12999952D02*
X8365825Y-12999952D01*
X8546778Y-12999952D02*
X8527730Y-12990428D01*
X8527730Y-12990428D02*
X8518206Y-12971381D01*
X8518206Y-12971381D02*
X8518206Y-12799952D01*
X8699159Y-12990428D02*
X8680111Y-12999952D01*
X8680111Y-12999952D02*
X8642016Y-12999952D01*
X8642016Y-12999952D02*
X8622968Y-12990428D01*
X8622968Y-12990428D02*
X8613444Y-12971381D01*
X8613444Y-12971381D02*
X8613444Y-12895190D01*
X8613444Y-12895190D02*
X8622968Y-12876143D01*
X8622968Y-12876143D02*
X8642016Y-12866619D01*
X8642016Y-12866619D02*
X8680111Y-12866619D01*
X8680111Y-12866619D02*
X8699159Y-12876143D01*
X8699159Y-12876143D02*
X8708683Y-12895190D01*
X8708683Y-12895190D02*
X8708683Y-12914238D01*
X8708683Y-12914238D02*
X8613444Y-12933285D01*
X8784873Y-12990428D02*
X8803921Y-12999952D01*
X8803921Y-12999952D02*
X8842016Y-12999952D01*
X8842016Y-12999952D02*
X8861064Y-12990428D01*
X8861064Y-12990428D02*
X8870587Y-12971381D01*
X8870587Y-12971381D02*
X8870587Y-12961857D01*
X8870587Y-12961857D02*
X8861064Y-12942809D01*
X8861064Y-12942809D02*
X8842016Y-12933285D01*
X8842016Y-12933285D02*
X8813444Y-12933285D01*
X8813444Y-12933285D02*
X8794397Y-12923762D01*
X8794397Y-12923762D02*
X8784873Y-12904714D01*
X8784873Y-12904714D02*
X8784873Y-12895190D01*
X8784873Y-12895190D02*
X8794397Y-12876143D01*
X8794397Y-12876143D02*
X8813444Y-12866619D01*
X8813444Y-12866619D02*
X8842016Y-12866619D01*
X8842016Y-12866619D02*
X8861064Y-12876143D01*
X8937254Y-13076143D02*
X8946778Y-13066619D01*
X8946778Y-13066619D02*
X8965825Y-13038047D01*
X8965825Y-13038047D02*
X8975349Y-13019000D01*
X8975349Y-13019000D02*
X8984873Y-12990428D01*
X8984873Y-12990428D02*
X8994397Y-12942809D01*
X8994397Y-12942809D02*
X8994397Y-12904714D01*
X8994397Y-12904714D02*
X8984873Y-12857095D01*
X8984873Y-12857095D02*
X8975349Y-12828524D01*
X8975349Y-12828524D02*
X8965825Y-12809476D01*
X8965825Y-12809476D02*
X8946778Y-12780904D01*
X8946778Y-12780904D02*
X8937254Y-12771381D01*
D13*
X4162191Y-13172468D02*
G75*
G03*
X4162191Y-13172468I-20000J0D01*
G01*
D11*
X4461063Y-13063952D02*
X4480111Y-13063952D01*
X4480111Y-13063952D02*
X4499158Y-13073476D01*
X4499158Y-13073476D02*
X4508682Y-13083000D01*
X4508682Y-13083000D02*
X4518206Y-13102047D01*
X4518206Y-13102047D02*
X4527730Y-13140143D01*
X4527730Y-13140143D02*
X4527730Y-13187762D01*
X4527730Y-13187762D02*
X4518206Y-13225857D01*
X4518206Y-13225857D02*
X4508682Y-13244904D01*
X4508682Y-13244904D02*
X4499158Y-13254428D01*
X4499158Y-13254428D02*
X4480111Y-13263952D01*
X4480111Y-13263952D02*
X4461063Y-13263952D01*
X4461063Y-13263952D02*
X4442015Y-13254428D01*
X4442015Y-13254428D02*
X4432492Y-13244904D01*
X4432492Y-13244904D02*
X4422968Y-13225857D01*
X4422968Y-13225857D02*
X4413444Y-13187762D01*
X4413444Y-13187762D02*
X4413444Y-13140143D01*
X4413444Y-13140143D02*
X4422968Y-13102047D01*
X4422968Y-13102047D02*
X4432492Y-13083000D01*
X4432492Y-13083000D02*
X4442015Y-13073476D01*
X4442015Y-13073476D02*
X4461063Y-13063952D01*
X4613444Y-13244904D02*
X4622968Y-13254428D01*
X4622968Y-13254428D02*
X4613444Y-13263952D01*
X4613444Y-13263952D02*
X4603920Y-13254428D01*
X4603920Y-13254428D02*
X4613444Y-13244904D01*
X4613444Y-13244904D02*
X4613444Y-13263952D01*
X4794396Y-13130619D02*
X4794396Y-13263952D01*
X4746777Y-13054428D02*
X4699158Y-13197285D01*
X4699158Y-13197285D02*
X4822968Y-13197285D01*
X4937254Y-13063952D02*
X4956301Y-13063952D01*
X4956301Y-13063952D02*
X4975349Y-13073476D01*
X4975349Y-13073476D02*
X4984873Y-13083000D01*
X4984873Y-13083000D02*
X4994396Y-13102047D01*
X4994396Y-13102047D02*
X5003920Y-13140143D01*
X5003920Y-13140143D02*
X5003920Y-13187762D01*
X5003920Y-13187762D02*
X4994396Y-13225857D01*
X4994396Y-13225857D02*
X4984873Y-13244904D01*
X4984873Y-13244904D02*
X4975349Y-13254428D01*
X4975349Y-13254428D02*
X4956301Y-13263952D01*
X4956301Y-13263952D02*
X4937254Y-13263952D01*
X4937254Y-13263952D02*
X4918206Y-13254428D01*
X4918206Y-13254428D02*
X4908682Y-13244904D01*
X4908682Y-13244904D02*
X4899158Y-13225857D01*
X4899158Y-13225857D02*
X4889635Y-13187762D01*
X4889635Y-13187762D02*
X4889635Y-13140143D01*
X4889635Y-13140143D02*
X4899158Y-13102047D01*
X4899158Y-13102047D02*
X4908682Y-13083000D01*
X4908682Y-13083000D02*
X4918206Y-13073476D01*
X4918206Y-13073476D02*
X4937254Y-13063952D01*
X5127730Y-13063952D02*
X5146777Y-13063952D01*
X5146777Y-13063952D02*
X5165825Y-13073476D01*
X5165825Y-13073476D02*
X5175349Y-13083000D01*
X5175349Y-13083000D02*
X5184873Y-13102047D01*
X5184873Y-13102047D02*
X5194396Y-13140143D01*
X5194396Y-13140143D02*
X5194396Y-13187762D01*
X5194396Y-13187762D02*
X5184873Y-13225857D01*
X5184873Y-13225857D02*
X5175349Y-13244904D01*
X5175349Y-13244904D02*
X5165825Y-13254428D01*
X5165825Y-13254428D02*
X5146777Y-13263952D01*
X5146777Y-13263952D02*
X5127730Y-13263952D01*
X5127730Y-13263952D02*
X5108682Y-13254428D01*
X5108682Y-13254428D02*
X5099158Y-13244904D01*
X5099158Y-13244904D02*
X5089635Y-13225857D01*
X5089635Y-13225857D02*
X5080111Y-13187762D01*
X5080111Y-13187762D02*
X5080111Y-13140143D01*
X5080111Y-13140143D02*
X5089635Y-13102047D01*
X5089635Y-13102047D02*
X5099158Y-13083000D01*
X5099158Y-13083000D02*
X5108682Y-13073476D01*
X5108682Y-13073476D02*
X5127730Y-13063952D01*
X5280111Y-13263952D02*
X5280111Y-13130619D01*
X5280111Y-13149666D02*
X5289635Y-13140143D01*
X5289635Y-13140143D02*
X5308682Y-13130619D01*
X5308682Y-13130619D02*
X5337254Y-13130619D01*
X5337254Y-13130619D02*
X5356301Y-13140143D01*
X5356301Y-13140143D02*
X5365825Y-13159190D01*
X5365825Y-13159190D02*
X5365825Y-13263952D01*
X5365825Y-13159190D02*
X5375349Y-13140143D01*
X5375349Y-13140143D02*
X5394396Y-13130619D01*
X5394396Y-13130619D02*
X5422968Y-13130619D01*
X5422968Y-13130619D02*
X5442016Y-13140143D01*
X5442016Y-13140143D02*
X5451539Y-13159190D01*
X5451539Y-13159190D02*
X5451539Y-13263952D01*
X5546777Y-13263952D02*
X5546777Y-13130619D01*
X5546777Y-13149666D02*
X5556301Y-13140143D01*
X5556301Y-13140143D02*
X5575349Y-13130619D01*
X5575349Y-13130619D02*
X5603920Y-13130619D01*
X5603920Y-13130619D02*
X5622968Y-13140143D01*
X5622968Y-13140143D02*
X5632492Y-13159190D01*
X5632492Y-13159190D02*
X5632492Y-13263952D01*
X5632492Y-13159190D02*
X5642015Y-13140143D01*
X5642015Y-13140143D02*
X5661063Y-13130619D01*
X5661063Y-13130619D02*
X5689634Y-13130619D01*
X5689634Y-13130619D02*
X5708682Y-13140143D01*
X5708682Y-13140143D02*
X5718206Y-13159190D01*
X5718206Y-13159190D02*
X5718206Y-13263952D01*
X6108682Y-13054428D02*
X5937254Y-13311571D01*
X6365825Y-13063952D02*
X6384873Y-13063952D01*
X6384873Y-13063952D02*
X6403920Y-13073476D01*
X6403920Y-13073476D02*
X6413444Y-13083000D01*
X6413444Y-13083000D02*
X6422968Y-13102047D01*
X6422968Y-13102047D02*
X6432492Y-13140143D01*
X6432492Y-13140143D02*
X6432492Y-13187762D01*
X6432492Y-13187762D02*
X6422968Y-13225857D01*
X6422968Y-13225857D02*
X6413444Y-13244904D01*
X6413444Y-13244904D02*
X6403920Y-13254428D01*
X6403920Y-13254428D02*
X6384873Y-13263952D01*
X6384873Y-13263952D02*
X6365825Y-13263952D01*
X6365825Y-13263952D02*
X6346777Y-13254428D01*
X6346777Y-13254428D02*
X6337254Y-13244904D01*
X6337254Y-13244904D02*
X6327730Y-13225857D01*
X6327730Y-13225857D02*
X6318206Y-13187762D01*
X6318206Y-13187762D02*
X6318206Y-13140143D01*
X6318206Y-13140143D02*
X6327730Y-13102047D01*
X6327730Y-13102047D02*
X6337254Y-13083000D01*
X6337254Y-13083000D02*
X6346777Y-13073476D01*
X6346777Y-13073476D02*
X6365825Y-13063952D01*
X6518206Y-13244904D02*
X6527730Y-13254428D01*
X6527730Y-13254428D02*
X6518206Y-13263952D01*
X6518206Y-13263952D02*
X6508682Y-13254428D01*
X6508682Y-13254428D02*
X6518206Y-13244904D01*
X6518206Y-13244904D02*
X6518206Y-13263952D01*
X6651539Y-13063952D02*
X6670587Y-13063952D01*
X6670587Y-13063952D02*
X6689635Y-13073476D01*
X6689635Y-13073476D02*
X6699158Y-13083000D01*
X6699158Y-13083000D02*
X6708682Y-13102047D01*
X6708682Y-13102047D02*
X6718206Y-13140143D01*
X6718206Y-13140143D02*
X6718206Y-13187762D01*
X6718206Y-13187762D02*
X6708682Y-13225857D01*
X6708682Y-13225857D02*
X6699158Y-13244904D01*
X6699158Y-13244904D02*
X6689635Y-13254428D01*
X6689635Y-13254428D02*
X6670587Y-13263952D01*
X6670587Y-13263952D02*
X6651539Y-13263952D01*
X6651539Y-13263952D02*
X6632492Y-13254428D01*
X6632492Y-13254428D02*
X6622968Y-13244904D01*
X6622968Y-13244904D02*
X6613444Y-13225857D01*
X6613444Y-13225857D02*
X6603920Y-13187762D01*
X6603920Y-13187762D02*
X6603920Y-13140143D01*
X6603920Y-13140143D02*
X6613444Y-13102047D01*
X6613444Y-13102047D02*
X6622968Y-13083000D01*
X6622968Y-13083000D02*
X6632492Y-13073476D01*
X6632492Y-13073476D02*
X6651539Y-13063952D01*
X6908682Y-13263952D02*
X6794397Y-13263952D01*
X6851539Y-13263952D02*
X6851539Y-13063952D01*
X6851539Y-13063952D02*
X6832492Y-13092524D01*
X6832492Y-13092524D02*
X6813444Y-13111571D01*
X6813444Y-13111571D02*
X6794397Y-13121095D01*
X7089635Y-13063952D02*
X6994397Y-13063952D01*
X6994397Y-13063952D02*
X6984873Y-13159190D01*
X6984873Y-13159190D02*
X6994397Y-13149666D01*
X6994397Y-13149666D02*
X7013444Y-13140143D01*
X7013444Y-13140143D02*
X7061063Y-13140143D01*
X7061063Y-13140143D02*
X7080111Y-13149666D01*
X7080111Y-13149666D02*
X7089635Y-13159190D01*
X7089635Y-13159190D02*
X7099158Y-13178238D01*
X7099158Y-13178238D02*
X7099158Y-13225857D01*
X7099158Y-13225857D02*
X7089635Y-13244904D01*
X7089635Y-13244904D02*
X7080111Y-13254428D01*
X7080111Y-13254428D02*
X7061063Y-13263952D01*
X7061063Y-13263952D02*
X7013444Y-13263952D01*
X7013444Y-13263952D02*
X6994397Y-13254428D01*
X6994397Y-13254428D02*
X6984873Y-13244904D01*
X7165825Y-13063952D02*
X7299158Y-13063952D01*
X7299158Y-13063952D02*
X7213444Y-13263952D01*
X7365825Y-13063952D02*
X7365825Y-13102047D01*
X7442016Y-13063952D02*
X7442016Y-13102047D01*
X7737254Y-13340143D02*
X7727730Y-13330619D01*
X7727730Y-13330619D02*
X7708682Y-13302047D01*
X7708682Y-13302047D02*
X7699159Y-13283000D01*
X7699159Y-13283000D02*
X7689635Y-13254428D01*
X7689635Y-13254428D02*
X7680111Y-13206809D01*
X7680111Y-13206809D02*
X7680111Y-13168714D01*
X7680111Y-13168714D02*
X7689635Y-13121095D01*
X7689635Y-13121095D02*
X7699159Y-13092524D01*
X7699159Y-13092524D02*
X7708682Y-13073476D01*
X7708682Y-13073476D02*
X7727730Y-13044904D01*
X7727730Y-13044904D02*
X7737254Y-13035381D01*
X7899159Y-13063952D02*
X7861063Y-13063952D01*
X7861063Y-13063952D02*
X7842016Y-13073476D01*
X7842016Y-13073476D02*
X7832492Y-13083000D01*
X7832492Y-13083000D02*
X7813444Y-13111571D01*
X7813444Y-13111571D02*
X7803920Y-13149666D01*
X7803920Y-13149666D02*
X7803920Y-13225857D01*
X7803920Y-13225857D02*
X7813444Y-13244904D01*
X7813444Y-13244904D02*
X7822968Y-13254428D01*
X7822968Y-13254428D02*
X7842016Y-13263952D01*
X7842016Y-13263952D02*
X7880111Y-13263952D01*
X7880111Y-13263952D02*
X7899159Y-13254428D01*
X7899159Y-13254428D02*
X7908682Y-13244904D01*
X7908682Y-13244904D02*
X7918206Y-13225857D01*
X7918206Y-13225857D02*
X7918206Y-13178238D01*
X7918206Y-13178238D02*
X7908682Y-13159190D01*
X7908682Y-13159190D02*
X7899159Y-13149666D01*
X7899159Y-13149666D02*
X7880111Y-13140143D01*
X7880111Y-13140143D02*
X7842016Y-13140143D01*
X7842016Y-13140143D02*
X7822968Y-13149666D01*
X7822968Y-13149666D02*
X7813444Y-13159190D01*
X7813444Y-13159190D02*
X7803920Y-13178238D01*
X8042016Y-13063952D02*
X8061063Y-13063952D01*
X8061063Y-13063952D02*
X8080111Y-13073476D01*
X8080111Y-13073476D02*
X8089635Y-13083000D01*
X8089635Y-13083000D02*
X8099159Y-13102047D01*
X8099159Y-13102047D02*
X8108682Y-13140143D01*
X8108682Y-13140143D02*
X8108682Y-13187762D01*
X8108682Y-13187762D02*
X8099159Y-13225857D01*
X8099159Y-13225857D02*
X8089635Y-13244904D01*
X8089635Y-13244904D02*
X8080111Y-13254428D01*
X8080111Y-13254428D02*
X8061063Y-13263952D01*
X8061063Y-13263952D02*
X8042016Y-13263952D01*
X8042016Y-13263952D02*
X8022968Y-13254428D01*
X8022968Y-13254428D02*
X8013444Y-13244904D01*
X8013444Y-13244904D02*
X8003920Y-13225857D01*
X8003920Y-13225857D02*
X7994397Y-13187762D01*
X7994397Y-13187762D02*
X7994397Y-13140143D01*
X7994397Y-13140143D02*
X8003920Y-13102047D01*
X8003920Y-13102047D02*
X8013444Y-13083000D01*
X8013444Y-13083000D02*
X8022968Y-13073476D01*
X8022968Y-13073476D02*
X8042016Y-13063952D01*
X8346778Y-13263952D02*
X8346778Y-13063952D01*
X8432492Y-13263952D02*
X8432492Y-13159190D01*
X8432492Y-13159190D02*
X8422968Y-13140143D01*
X8422968Y-13140143D02*
X8403921Y-13130619D01*
X8403921Y-13130619D02*
X8375349Y-13130619D01*
X8375349Y-13130619D02*
X8356301Y-13140143D01*
X8356301Y-13140143D02*
X8346778Y-13149666D01*
X8556302Y-13263952D02*
X8537254Y-13254428D01*
X8537254Y-13254428D02*
X8527730Y-13244904D01*
X8527730Y-13244904D02*
X8518206Y-13225857D01*
X8518206Y-13225857D02*
X8518206Y-13168714D01*
X8518206Y-13168714D02*
X8527730Y-13149666D01*
X8527730Y-13149666D02*
X8537254Y-13140143D01*
X8537254Y-13140143D02*
X8556302Y-13130619D01*
X8556302Y-13130619D02*
X8584873Y-13130619D01*
X8584873Y-13130619D02*
X8603921Y-13140143D01*
X8603921Y-13140143D02*
X8613444Y-13149666D01*
X8613444Y-13149666D02*
X8622968Y-13168714D01*
X8622968Y-13168714D02*
X8622968Y-13225857D01*
X8622968Y-13225857D02*
X8613444Y-13244904D01*
X8613444Y-13244904D02*
X8603921Y-13254428D01*
X8603921Y-13254428D02*
X8584873Y-13263952D01*
X8584873Y-13263952D02*
X8556302Y-13263952D01*
X8737254Y-13263952D02*
X8718206Y-13254428D01*
X8718206Y-13254428D02*
X8708683Y-13235381D01*
X8708683Y-13235381D02*
X8708683Y-13063952D01*
X8889635Y-13254428D02*
X8870587Y-13263952D01*
X8870587Y-13263952D02*
X8832492Y-13263952D01*
X8832492Y-13263952D02*
X8813444Y-13254428D01*
X8813444Y-13254428D02*
X8803921Y-13235381D01*
X8803921Y-13235381D02*
X8803921Y-13159190D01*
X8803921Y-13159190D02*
X8813444Y-13140143D01*
X8813444Y-13140143D02*
X8832492Y-13130619D01*
X8832492Y-13130619D02*
X8870587Y-13130619D01*
X8870587Y-13130619D02*
X8889635Y-13140143D01*
X8889635Y-13140143D02*
X8899159Y-13159190D01*
X8899159Y-13159190D02*
X8899159Y-13178238D01*
X8899159Y-13178238D02*
X8803921Y-13197285D01*
X8975349Y-13254428D02*
X8994397Y-13263952D01*
X8994397Y-13263952D02*
X9032492Y-13263952D01*
X9032492Y-13263952D02*
X9051540Y-13254428D01*
X9051540Y-13254428D02*
X9061064Y-13235381D01*
X9061064Y-13235381D02*
X9061064Y-13225857D01*
X9061064Y-13225857D02*
X9051540Y-13206809D01*
X9051540Y-13206809D02*
X9032492Y-13197285D01*
X9032492Y-13197285D02*
X9003921Y-13197285D01*
X9003921Y-13197285D02*
X8984873Y-13187762D01*
X8984873Y-13187762D02*
X8975349Y-13168714D01*
X8975349Y-13168714D02*
X8975349Y-13159190D01*
X8975349Y-13159190D02*
X8984873Y-13140143D01*
X8984873Y-13140143D02*
X9003921Y-13130619D01*
X9003921Y-13130619D02*
X9032492Y-13130619D01*
X9032492Y-13130619D02*
X9051540Y-13140143D01*
X9127730Y-13340143D02*
X9137254Y-13330619D01*
X9137254Y-13330619D02*
X9156302Y-13302047D01*
X9156302Y-13302047D02*
X9165825Y-13283000D01*
X9165825Y-13283000D02*
X9175349Y-13254428D01*
X9175349Y-13254428D02*
X9184873Y-13206809D01*
X9184873Y-13206809D02*
X9184873Y-13168714D01*
X9184873Y-13168714D02*
X9175349Y-13121095D01*
X9175349Y-13121095D02*
X9165825Y-13092524D01*
X9165825Y-13092524D02*
X9156302Y-13073476D01*
X9156302Y-13073476D02*
X9137254Y-13044904D01*
X9137254Y-13044904D02*
X9127730Y-13035381D01*
D14*
X4132191Y-13406468D02*
X4132191Y-13466468D01*
X4102191Y-13436468D02*
X4162191Y-13436468D01*
D11*
X4461063Y-13327952D02*
X4480111Y-13327952D01*
X4480111Y-13327952D02*
X4499158Y-13337476D01*
X4499158Y-13337476D02*
X4508682Y-13347000D01*
X4508682Y-13347000D02*
X4518206Y-13366047D01*
X4518206Y-13366047D02*
X4527730Y-13404143D01*
X4527730Y-13404143D02*
X4527730Y-13451762D01*
X4527730Y-13451762D02*
X4518206Y-13489857D01*
X4518206Y-13489857D02*
X4508682Y-13508904D01*
X4508682Y-13508904D02*
X4499158Y-13518428D01*
X4499158Y-13518428D02*
X4480111Y-13527952D01*
X4480111Y-13527952D02*
X4461063Y-13527952D01*
X4461063Y-13527952D02*
X4442015Y-13518428D01*
X4442015Y-13518428D02*
X4432492Y-13508904D01*
X4432492Y-13508904D02*
X4422968Y-13489857D01*
X4422968Y-13489857D02*
X4413444Y-13451762D01*
X4413444Y-13451762D02*
X4413444Y-13404143D01*
X4413444Y-13404143D02*
X4422968Y-13366047D01*
X4422968Y-13366047D02*
X4432492Y-13347000D01*
X4432492Y-13347000D02*
X4442015Y-13337476D01*
X4442015Y-13337476D02*
X4461063Y-13327952D01*
X4613444Y-13508904D02*
X4622968Y-13518428D01*
X4622968Y-13518428D02*
X4613444Y-13527952D01*
X4613444Y-13527952D02*
X4603920Y-13518428D01*
X4603920Y-13518428D02*
X4613444Y-13508904D01*
X4613444Y-13508904D02*
X4613444Y-13527952D01*
X4794396Y-13327952D02*
X4756301Y-13327952D01*
X4756301Y-13327952D02*
X4737254Y-13337476D01*
X4737254Y-13337476D02*
X4727730Y-13347000D01*
X4727730Y-13347000D02*
X4708682Y-13375571D01*
X4708682Y-13375571D02*
X4699158Y-13413666D01*
X4699158Y-13413666D02*
X4699158Y-13489857D01*
X4699158Y-13489857D02*
X4708682Y-13508904D01*
X4708682Y-13508904D02*
X4718206Y-13518428D01*
X4718206Y-13518428D02*
X4737254Y-13527952D01*
X4737254Y-13527952D02*
X4775349Y-13527952D01*
X4775349Y-13527952D02*
X4794396Y-13518428D01*
X4794396Y-13518428D02*
X4803920Y-13508904D01*
X4803920Y-13508904D02*
X4813444Y-13489857D01*
X4813444Y-13489857D02*
X4813444Y-13442238D01*
X4813444Y-13442238D02*
X4803920Y-13423190D01*
X4803920Y-13423190D02*
X4794396Y-13413666D01*
X4794396Y-13413666D02*
X4775349Y-13404143D01*
X4775349Y-13404143D02*
X4737254Y-13404143D01*
X4737254Y-13404143D02*
X4718206Y-13413666D01*
X4718206Y-13413666D02*
X4708682Y-13423190D01*
X4708682Y-13423190D02*
X4699158Y-13442238D01*
X4937254Y-13327952D02*
X4956301Y-13327952D01*
X4956301Y-13327952D02*
X4975349Y-13337476D01*
X4975349Y-13337476D02*
X4984873Y-13347000D01*
X4984873Y-13347000D02*
X4994396Y-13366047D01*
X4994396Y-13366047D02*
X5003920Y-13404143D01*
X5003920Y-13404143D02*
X5003920Y-13451762D01*
X5003920Y-13451762D02*
X4994396Y-13489857D01*
X4994396Y-13489857D02*
X4984873Y-13508904D01*
X4984873Y-13508904D02*
X4975349Y-13518428D01*
X4975349Y-13518428D02*
X4956301Y-13527952D01*
X4956301Y-13527952D02*
X4937254Y-13527952D01*
X4937254Y-13527952D02*
X4918206Y-13518428D01*
X4918206Y-13518428D02*
X4908682Y-13508904D01*
X4908682Y-13508904D02*
X4899158Y-13489857D01*
X4899158Y-13489857D02*
X4889635Y-13451762D01*
X4889635Y-13451762D02*
X4889635Y-13404143D01*
X4889635Y-13404143D02*
X4899158Y-13366047D01*
X4899158Y-13366047D02*
X4908682Y-13347000D01*
X4908682Y-13347000D02*
X4918206Y-13337476D01*
X4918206Y-13337476D02*
X4937254Y-13327952D01*
X5127730Y-13327952D02*
X5146777Y-13327952D01*
X5146777Y-13327952D02*
X5165825Y-13337476D01*
X5165825Y-13337476D02*
X5175349Y-13347000D01*
X5175349Y-13347000D02*
X5184873Y-13366047D01*
X5184873Y-13366047D02*
X5194396Y-13404143D01*
X5194396Y-13404143D02*
X5194396Y-13451762D01*
X5194396Y-13451762D02*
X5184873Y-13489857D01*
X5184873Y-13489857D02*
X5175349Y-13508904D01*
X5175349Y-13508904D02*
X5165825Y-13518428D01*
X5165825Y-13518428D02*
X5146777Y-13527952D01*
X5146777Y-13527952D02*
X5127730Y-13527952D01*
X5127730Y-13527952D02*
X5108682Y-13518428D01*
X5108682Y-13518428D02*
X5099158Y-13508904D01*
X5099158Y-13508904D02*
X5089635Y-13489857D01*
X5089635Y-13489857D02*
X5080111Y-13451762D01*
X5080111Y-13451762D02*
X5080111Y-13404143D01*
X5080111Y-13404143D02*
X5089635Y-13366047D01*
X5089635Y-13366047D02*
X5099158Y-13347000D01*
X5099158Y-13347000D02*
X5108682Y-13337476D01*
X5108682Y-13337476D02*
X5127730Y-13327952D01*
X5280111Y-13527952D02*
X5280111Y-13394619D01*
X5280111Y-13413666D02*
X5289635Y-13404143D01*
X5289635Y-13404143D02*
X5308682Y-13394619D01*
X5308682Y-13394619D02*
X5337254Y-13394619D01*
X5337254Y-13394619D02*
X5356301Y-13404143D01*
X5356301Y-13404143D02*
X5365825Y-13423190D01*
X5365825Y-13423190D02*
X5365825Y-13527952D01*
X5365825Y-13423190D02*
X5375349Y-13404143D01*
X5375349Y-13404143D02*
X5394396Y-13394619D01*
X5394396Y-13394619D02*
X5422968Y-13394619D01*
X5422968Y-13394619D02*
X5442016Y-13404143D01*
X5442016Y-13404143D02*
X5451539Y-13423190D01*
X5451539Y-13423190D02*
X5451539Y-13527952D01*
X5546777Y-13527952D02*
X5546777Y-13394619D01*
X5546777Y-13413666D02*
X5556301Y-13404143D01*
X5556301Y-13404143D02*
X5575349Y-13394619D01*
X5575349Y-13394619D02*
X5603920Y-13394619D01*
X5603920Y-13394619D02*
X5622968Y-13404143D01*
X5622968Y-13404143D02*
X5632492Y-13423190D01*
X5632492Y-13423190D02*
X5632492Y-13527952D01*
X5632492Y-13423190D02*
X5642015Y-13404143D01*
X5642015Y-13404143D02*
X5661063Y-13394619D01*
X5661063Y-13394619D02*
X5689634Y-13394619D01*
X5689634Y-13394619D02*
X5708682Y-13404143D01*
X5708682Y-13404143D02*
X5718206Y-13423190D01*
X5718206Y-13423190D02*
X5718206Y-13527952D01*
X6108682Y-13318428D02*
X5937254Y-13575571D01*
X6365825Y-13327952D02*
X6384873Y-13327952D01*
X6384873Y-13327952D02*
X6403920Y-13337476D01*
X6403920Y-13337476D02*
X6413444Y-13347000D01*
X6413444Y-13347000D02*
X6422968Y-13366047D01*
X6422968Y-13366047D02*
X6432492Y-13404143D01*
X6432492Y-13404143D02*
X6432492Y-13451762D01*
X6432492Y-13451762D02*
X6422968Y-13489857D01*
X6422968Y-13489857D02*
X6413444Y-13508904D01*
X6413444Y-13508904D02*
X6403920Y-13518428D01*
X6403920Y-13518428D02*
X6384873Y-13527952D01*
X6384873Y-13527952D02*
X6365825Y-13527952D01*
X6365825Y-13527952D02*
X6346777Y-13518428D01*
X6346777Y-13518428D02*
X6337254Y-13508904D01*
X6337254Y-13508904D02*
X6327730Y-13489857D01*
X6327730Y-13489857D02*
X6318206Y-13451762D01*
X6318206Y-13451762D02*
X6318206Y-13404143D01*
X6318206Y-13404143D02*
X6327730Y-13366047D01*
X6327730Y-13366047D02*
X6337254Y-13347000D01*
X6337254Y-13347000D02*
X6346777Y-13337476D01*
X6346777Y-13337476D02*
X6365825Y-13327952D01*
X6518206Y-13508904D02*
X6527730Y-13518428D01*
X6527730Y-13518428D02*
X6518206Y-13527952D01*
X6518206Y-13527952D02*
X6508682Y-13518428D01*
X6508682Y-13518428D02*
X6518206Y-13508904D01*
X6518206Y-13508904D02*
X6518206Y-13527952D01*
X6651539Y-13327952D02*
X6670587Y-13327952D01*
X6670587Y-13327952D02*
X6689635Y-13337476D01*
X6689635Y-13337476D02*
X6699158Y-13347000D01*
X6699158Y-13347000D02*
X6708682Y-13366047D01*
X6708682Y-13366047D02*
X6718206Y-13404143D01*
X6718206Y-13404143D02*
X6718206Y-13451762D01*
X6718206Y-13451762D02*
X6708682Y-13489857D01*
X6708682Y-13489857D02*
X6699158Y-13508904D01*
X6699158Y-13508904D02*
X6689635Y-13518428D01*
X6689635Y-13518428D02*
X6670587Y-13527952D01*
X6670587Y-13527952D02*
X6651539Y-13527952D01*
X6651539Y-13527952D02*
X6632492Y-13518428D01*
X6632492Y-13518428D02*
X6622968Y-13508904D01*
X6622968Y-13508904D02*
X6613444Y-13489857D01*
X6613444Y-13489857D02*
X6603920Y-13451762D01*
X6603920Y-13451762D02*
X6603920Y-13404143D01*
X6603920Y-13404143D02*
X6613444Y-13366047D01*
X6613444Y-13366047D02*
X6622968Y-13347000D01*
X6622968Y-13347000D02*
X6632492Y-13337476D01*
X6632492Y-13337476D02*
X6651539Y-13327952D01*
X6794397Y-13347000D02*
X6803920Y-13337476D01*
X6803920Y-13337476D02*
X6822968Y-13327952D01*
X6822968Y-13327952D02*
X6870587Y-13327952D01*
X6870587Y-13327952D02*
X6889635Y-13337476D01*
X6889635Y-13337476D02*
X6899158Y-13347000D01*
X6899158Y-13347000D02*
X6908682Y-13366047D01*
X6908682Y-13366047D02*
X6908682Y-13385095D01*
X6908682Y-13385095D02*
X6899158Y-13413666D01*
X6899158Y-13413666D02*
X6784873Y-13527952D01*
X6784873Y-13527952D02*
X6908682Y-13527952D01*
X6975349Y-13327952D02*
X7099158Y-13327952D01*
X7099158Y-13327952D02*
X7032492Y-13404143D01*
X7032492Y-13404143D02*
X7061063Y-13404143D01*
X7061063Y-13404143D02*
X7080111Y-13413666D01*
X7080111Y-13413666D02*
X7089635Y-13423190D01*
X7089635Y-13423190D02*
X7099158Y-13442238D01*
X7099158Y-13442238D02*
X7099158Y-13489857D01*
X7099158Y-13489857D02*
X7089635Y-13508904D01*
X7089635Y-13508904D02*
X7080111Y-13518428D01*
X7080111Y-13518428D02*
X7061063Y-13527952D01*
X7061063Y-13527952D02*
X7003920Y-13527952D01*
X7003920Y-13527952D02*
X6984873Y-13518428D01*
X6984873Y-13518428D02*
X6975349Y-13508904D01*
X7270587Y-13327952D02*
X7232492Y-13327952D01*
X7232492Y-13327952D02*
X7213444Y-13337476D01*
X7213444Y-13337476D02*
X7203920Y-13347000D01*
X7203920Y-13347000D02*
X7184873Y-13375571D01*
X7184873Y-13375571D02*
X7175349Y-13413666D01*
X7175349Y-13413666D02*
X7175349Y-13489857D01*
X7175349Y-13489857D02*
X7184873Y-13508904D01*
X7184873Y-13508904D02*
X7194397Y-13518428D01*
X7194397Y-13518428D02*
X7213444Y-13527952D01*
X7213444Y-13527952D02*
X7251539Y-13527952D01*
X7251539Y-13527952D02*
X7270587Y-13518428D01*
X7270587Y-13518428D02*
X7280111Y-13508904D01*
X7280111Y-13508904D02*
X7289635Y-13489857D01*
X7289635Y-13489857D02*
X7289635Y-13442238D01*
X7289635Y-13442238D02*
X7280111Y-13423190D01*
X7280111Y-13423190D02*
X7270587Y-13413666D01*
X7270587Y-13413666D02*
X7251539Y-13404143D01*
X7251539Y-13404143D02*
X7213444Y-13404143D01*
X7213444Y-13404143D02*
X7194397Y-13413666D01*
X7194397Y-13413666D02*
X7184873Y-13423190D01*
X7184873Y-13423190D02*
X7175349Y-13442238D01*
X7365825Y-13327952D02*
X7365825Y-13366047D01*
X7442016Y-13327952D02*
X7442016Y-13366047D01*
X7737254Y-13604143D02*
X7727730Y-13594619D01*
X7727730Y-13594619D02*
X7708682Y-13566047D01*
X7708682Y-13566047D02*
X7699159Y-13547000D01*
X7699159Y-13547000D02*
X7689635Y-13518428D01*
X7689635Y-13518428D02*
X7680111Y-13470809D01*
X7680111Y-13470809D02*
X7680111Y-13432714D01*
X7680111Y-13432714D02*
X7689635Y-13385095D01*
X7689635Y-13385095D02*
X7699159Y-13356524D01*
X7699159Y-13356524D02*
X7708682Y-13337476D01*
X7708682Y-13337476D02*
X7727730Y-13308904D01*
X7727730Y-13308904D02*
X7737254Y-13299381D01*
X7803920Y-13347000D02*
X7813444Y-13337476D01*
X7813444Y-13337476D02*
X7832492Y-13327952D01*
X7832492Y-13327952D02*
X7880111Y-13327952D01*
X7880111Y-13327952D02*
X7899159Y-13337476D01*
X7899159Y-13337476D02*
X7908682Y-13347000D01*
X7908682Y-13347000D02*
X7918206Y-13366047D01*
X7918206Y-13366047D02*
X7918206Y-13385095D01*
X7918206Y-13385095D02*
X7908682Y-13413666D01*
X7908682Y-13413666D02*
X7794397Y-13527952D01*
X7794397Y-13527952D02*
X7918206Y-13527952D01*
X8156301Y-13527952D02*
X8156301Y-13327952D01*
X8242016Y-13527952D02*
X8242016Y-13423190D01*
X8242016Y-13423190D02*
X8232492Y-13404143D01*
X8232492Y-13404143D02*
X8213444Y-13394619D01*
X8213444Y-13394619D02*
X8184873Y-13394619D01*
X8184873Y-13394619D02*
X8165825Y-13404143D01*
X8165825Y-13404143D02*
X8156301Y-13413666D01*
X8365825Y-13527952D02*
X8346778Y-13518428D01*
X8346778Y-13518428D02*
X8337254Y-13508904D01*
X8337254Y-13508904D02*
X8327730Y-13489857D01*
X8327730Y-13489857D02*
X8327730Y-13432714D01*
X8327730Y-13432714D02*
X8337254Y-13413666D01*
X8337254Y-13413666D02*
X8346778Y-13404143D01*
X8346778Y-13404143D02*
X8365825Y-13394619D01*
X8365825Y-13394619D02*
X8394397Y-13394619D01*
X8394397Y-13394619D02*
X8413444Y-13404143D01*
X8413444Y-13404143D02*
X8422968Y-13413666D01*
X8422968Y-13413666D02*
X8432492Y-13432714D01*
X8432492Y-13432714D02*
X8432492Y-13489857D01*
X8432492Y-13489857D02*
X8422968Y-13508904D01*
X8422968Y-13508904D02*
X8413444Y-13518428D01*
X8413444Y-13518428D02*
X8394397Y-13527952D01*
X8394397Y-13527952D02*
X8365825Y-13527952D01*
X8546778Y-13527952D02*
X8527730Y-13518428D01*
X8527730Y-13518428D02*
X8518206Y-13499381D01*
X8518206Y-13499381D02*
X8518206Y-13327952D01*
X8699159Y-13518428D02*
X8680111Y-13527952D01*
X8680111Y-13527952D02*
X8642016Y-13527952D01*
X8642016Y-13527952D02*
X8622968Y-13518428D01*
X8622968Y-13518428D02*
X8613444Y-13499381D01*
X8613444Y-13499381D02*
X8613444Y-13423190D01*
X8613444Y-13423190D02*
X8622968Y-13404143D01*
X8622968Y-13404143D02*
X8642016Y-13394619D01*
X8642016Y-13394619D02*
X8680111Y-13394619D01*
X8680111Y-13394619D02*
X8699159Y-13404143D01*
X8699159Y-13404143D02*
X8708683Y-13423190D01*
X8708683Y-13423190D02*
X8708683Y-13442238D01*
X8708683Y-13442238D02*
X8613444Y-13461285D01*
X8784873Y-13518428D02*
X8803921Y-13527952D01*
X8803921Y-13527952D02*
X8842016Y-13527952D01*
X8842016Y-13527952D02*
X8861064Y-13518428D01*
X8861064Y-13518428D02*
X8870587Y-13499381D01*
X8870587Y-13499381D02*
X8870587Y-13489857D01*
X8870587Y-13489857D02*
X8861064Y-13470809D01*
X8861064Y-13470809D02*
X8842016Y-13461285D01*
X8842016Y-13461285D02*
X8813444Y-13461285D01*
X8813444Y-13461285D02*
X8794397Y-13451762D01*
X8794397Y-13451762D02*
X8784873Y-13432714D01*
X8784873Y-13432714D02*
X8784873Y-13423190D01*
X8784873Y-13423190D02*
X8794397Y-13404143D01*
X8794397Y-13404143D02*
X8813444Y-13394619D01*
X8813444Y-13394619D02*
X8842016Y-13394619D01*
X8842016Y-13394619D02*
X8861064Y-13404143D01*
X8937254Y-13604143D02*
X8946778Y-13594619D01*
X8946778Y-13594619D02*
X8965825Y-13566047D01*
X8965825Y-13566047D02*
X8975349Y-13547000D01*
X8975349Y-13547000D02*
X8984873Y-13518428D01*
X8984873Y-13518428D02*
X8994397Y-13470809D01*
X8994397Y-13470809D02*
X8994397Y-13432714D01*
X8994397Y-13432714D02*
X8984873Y-13385095D01*
X8984873Y-13385095D02*
X8975349Y-13356524D01*
X8975349Y-13356524D02*
X8965825Y-13337476D01*
X8965825Y-13337476D02*
X8946778Y-13308904D01*
X8946778Y-13308904D02*
X8937254Y-13299381D01*
D10*
X4147547Y-13735824D02*
X4147547Y-13665113D01*
X4076835Y-13665113D01*
X4076835Y-13735824D01*
X4147547Y-13735824D01*
D11*
X4527730Y-13791952D02*
X4413444Y-13791952D01*
X4470587Y-13791952D02*
X4470587Y-13591952D01*
X4470587Y-13591952D02*
X4451539Y-13620524D01*
X4451539Y-13620524D02*
X4432492Y-13639571D01*
X4432492Y-13639571D02*
X4413444Y-13649095D01*
X4613444Y-13772904D02*
X4622968Y-13782428D01*
X4622968Y-13782428D02*
X4613444Y-13791952D01*
X4613444Y-13791952D02*
X4603920Y-13782428D01*
X4603920Y-13782428D02*
X4613444Y-13772904D01*
X4613444Y-13772904D02*
X4613444Y-13791952D01*
X4746777Y-13591952D02*
X4765825Y-13591952D01*
X4765825Y-13591952D02*
X4784873Y-13601476D01*
X4784873Y-13601476D02*
X4794396Y-13611000D01*
X4794396Y-13611000D02*
X4803920Y-13630047D01*
X4803920Y-13630047D02*
X4813444Y-13668143D01*
X4813444Y-13668143D02*
X4813444Y-13715762D01*
X4813444Y-13715762D02*
X4803920Y-13753857D01*
X4803920Y-13753857D02*
X4794396Y-13772904D01*
X4794396Y-13772904D02*
X4784873Y-13782428D01*
X4784873Y-13782428D02*
X4765825Y-13791952D01*
X4765825Y-13791952D02*
X4746777Y-13791952D01*
X4746777Y-13791952D02*
X4727730Y-13782428D01*
X4727730Y-13782428D02*
X4718206Y-13772904D01*
X4718206Y-13772904D02*
X4708682Y-13753857D01*
X4708682Y-13753857D02*
X4699158Y-13715762D01*
X4699158Y-13715762D02*
X4699158Y-13668143D01*
X4699158Y-13668143D02*
X4708682Y-13630047D01*
X4708682Y-13630047D02*
X4718206Y-13611000D01*
X4718206Y-13611000D02*
X4727730Y-13601476D01*
X4727730Y-13601476D02*
X4746777Y-13591952D01*
X4937254Y-13591952D02*
X4956301Y-13591952D01*
X4956301Y-13591952D02*
X4975349Y-13601476D01*
X4975349Y-13601476D02*
X4984873Y-13611000D01*
X4984873Y-13611000D02*
X4994396Y-13630047D01*
X4994396Y-13630047D02*
X5003920Y-13668143D01*
X5003920Y-13668143D02*
X5003920Y-13715762D01*
X5003920Y-13715762D02*
X4994396Y-13753857D01*
X4994396Y-13753857D02*
X4984873Y-13772904D01*
X4984873Y-13772904D02*
X4975349Y-13782428D01*
X4975349Y-13782428D02*
X4956301Y-13791952D01*
X4956301Y-13791952D02*
X4937254Y-13791952D01*
X4937254Y-13791952D02*
X4918206Y-13782428D01*
X4918206Y-13782428D02*
X4908682Y-13772904D01*
X4908682Y-13772904D02*
X4899158Y-13753857D01*
X4899158Y-13753857D02*
X4889635Y-13715762D01*
X4889635Y-13715762D02*
X4889635Y-13668143D01*
X4889635Y-13668143D02*
X4899158Y-13630047D01*
X4899158Y-13630047D02*
X4908682Y-13611000D01*
X4908682Y-13611000D02*
X4918206Y-13601476D01*
X4918206Y-13601476D02*
X4937254Y-13591952D01*
X5127730Y-13591952D02*
X5146777Y-13591952D01*
X5146777Y-13591952D02*
X5165825Y-13601476D01*
X5165825Y-13601476D02*
X5175349Y-13611000D01*
X5175349Y-13611000D02*
X5184873Y-13630047D01*
X5184873Y-13630047D02*
X5194396Y-13668143D01*
X5194396Y-13668143D02*
X5194396Y-13715762D01*
X5194396Y-13715762D02*
X5184873Y-13753857D01*
X5184873Y-13753857D02*
X5175349Y-13772904D01*
X5175349Y-13772904D02*
X5165825Y-13782428D01*
X5165825Y-13782428D02*
X5146777Y-13791952D01*
X5146777Y-13791952D02*
X5127730Y-13791952D01*
X5127730Y-13791952D02*
X5108682Y-13782428D01*
X5108682Y-13782428D02*
X5099158Y-13772904D01*
X5099158Y-13772904D02*
X5089635Y-13753857D01*
X5089635Y-13753857D02*
X5080111Y-13715762D01*
X5080111Y-13715762D02*
X5080111Y-13668143D01*
X5080111Y-13668143D02*
X5089635Y-13630047D01*
X5089635Y-13630047D02*
X5099158Y-13611000D01*
X5099158Y-13611000D02*
X5108682Y-13601476D01*
X5108682Y-13601476D02*
X5127730Y-13591952D01*
X5280111Y-13791952D02*
X5280111Y-13658619D01*
X5280111Y-13677666D02*
X5289635Y-13668143D01*
X5289635Y-13668143D02*
X5308682Y-13658619D01*
X5308682Y-13658619D02*
X5337254Y-13658619D01*
X5337254Y-13658619D02*
X5356301Y-13668143D01*
X5356301Y-13668143D02*
X5365825Y-13687190D01*
X5365825Y-13687190D02*
X5365825Y-13791952D01*
X5365825Y-13687190D02*
X5375349Y-13668143D01*
X5375349Y-13668143D02*
X5394396Y-13658619D01*
X5394396Y-13658619D02*
X5422968Y-13658619D01*
X5422968Y-13658619D02*
X5442016Y-13668143D01*
X5442016Y-13668143D02*
X5451539Y-13687190D01*
X5451539Y-13687190D02*
X5451539Y-13791952D01*
X5546777Y-13791952D02*
X5546777Y-13658619D01*
X5546777Y-13677666D02*
X5556301Y-13668143D01*
X5556301Y-13668143D02*
X5575349Y-13658619D01*
X5575349Y-13658619D02*
X5603920Y-13658619D01*
X5603920Y-13658619D02*
X5622968Y-13668143D01*
X5622968Y-13668143D02*
X5632492Y-13687190D01*
X5632492Y-13687190D02*
X5632492Y-13791952D01*
X5632492Y-13687190D02*
X5642015Y-13668143D01*
X5642015Y-13668143D02*
X5661063Y-13658619D01*
X5661063Y-13658619D02*
X5689634Y-13658619D01*
X5689634Y-13658619D02*
X5708682Y-13668143D01*
X5708682Y-13668143D02*
X5718206Y-13687190D01*
X5718206Y-13687190D02*
X5718206Y-13791952D01*
X6108682Y-13582428D02*
X5937254Y-13839571D01*
X6365825Y-13591952D02*
X6384873Y-13591952D01*
X6384873Y-13591952D02*
X6403920Y-13601476D01*
X6403920Y-13601476D02*
X6413444Y-13611000D01*
X6413444Y-13611000D02*
X6422968Y-13630047D01*
X6422968Y-13630047D02*
X6432492Y-13668143D01*
X6432492Y-13668143D02*
X6432492Y-13715762D01*
X6432492Y-13715762D02*
X6422968Y-13753857D01*
X6422968Y-13753857D02*
X6413444Y-13772904D01*
X6413444Y-13772904D02*
X6403920Y-13782428D01*
X6403920Y-13782428D02*
X6384873Y-13791952D01*
X6384873Y-13791952D02*
X6365825Y-13791952D01*
X6365825Y-13791952D02*
X6346777Y-13782428D01*
X6346777Y-13782428D02*
X6337254Y-13772904D01*
X6337254Y-13772904D02*
X6327730Y-13753857D01*
X6327730Y-13753857D02*
X6318206Y-13715762D01*
X6318206Y-13715762D02*
X6318206Y-13668143D01*
X6318206Y-13668143D02*
X6327730Y-13630047D01*
X6327730Y-13630047D02*
X6337254Y-13611000D01*
X6337254Y-13611000D02*
X6346777Y-13601476D01*
X6346777Y-13601476D02*
X6365825Y-13591952D01*
X6518206Y-13772904D02*
X6527730Y-13782428D01*
X6527730Y-13782428D02*
X6518206Y-13791952D01*
X6518206Y-13791952D02*
X6508682Y-13782428D01*
X6508682Y-13782428D02*
X6518206Y-13772904D01*
X6518206Y-13772904D02*
X6518206Y-13791952D01*
X6651539Y-13591952D02*
X6670587Y-13591952D01*
X6670587Y-13591952D02*
X6689635Y-13601476D01*
X6689635Y-13601476D02*
X6699158Y-13611000D01*
X6699158Y-13611000D02*
X6708682Y-13630047D01*
X6708682Y-13630047D02*
X6718206Y-13668143D01*
X6718206Y-13668143D02*
X6718206Y-13715762D01*
X6718206Y-13715762D02*
X6708682Y-13753857D01*
X6708682Y-13753857D02*
X6699158Y-13772904D01*
X6699158Y-13772904D02*
X6689635Y-13782428D01*
X6689635Y-13782428D02*
X6670587Y-13791952D01*
X6670587Y-13791952D02*
X6651539Y-13791952D01*
X6651539Y-13791952D02*
X6632492Y-13782428D01*
X6632492Y-13782428D02*
X6622968Y-13772904D01*
X6622968Y-13772904D02*
X6613444Y-13753857D01*
X6613444Y-13753857D02*
X6603920Y-13715762D01*
X6603920Y-13715762D02*
X6603920Y-13668143D01*
X6603920Y-13668143D02*
X6613444Y-13630047D01*
X6613444Y-13630047D02*
X6622968Y-13611000D01*
X6622968Y-13611000D02*
X6632492Y-13601476D01*
X6632492Y-13601476D02*
X6651539Y-13591952D01*
X6784873Y-13591952D02*
X6908682Y-13591952D01*
X6908682Y-13591952D02*
X6842016Y-13668143D01*
X6842016Y-13668143D02*
X6870587Y-13668143D01*
X6870587Y-13668143D02*
X6889635Y-13677666D01*
X6889635Y-13677666D02*
X6899158Y-13687190D01*
X6899158Y-13687190D02*
X6908682Y-13706238D01*
X6908682Y-13706238D02*
X6908682Y-13753857D01*
X6908682Y-13753857D02*
X6899158Y-13772904D01*
X6899158Y-13772904D02*
X6889635Y-13782428D01*
X6889635Y-13782428D02*
X6870587Y-13791952D01*
X6870587Y-13791952D02*
X6813444Y-13791952D01*
X6813444Y-13791952D02*
X6794397Y-13782428D01*
X6794397Y-13782428D02*
X6784873Y-13772904D01*
X7003920Y-13791952D02*
X7042016Y-13791952D01*
X7042016Y-13791952D02*
X7061063Y-13782428D01*
X7061063Y-13782428D02*
X7070587Y-13772904D01*
X7070587Y-13772904D02*
X7089635Y-13744333D01*
X7089635Y-13744333D02*
X7099158Y-13706238D01*
X7099158Y-13706238D02*
X7099158Y-13630047D01*
X7099158Y-13630047D02*
X7089635Y-13611000D01*
X7089635Y-13611000D02*
X7080111Y-13601476D01*
X7080111Y-13601476D02*
X7061063Y-13591952D01*
X7061063Y-13591952D02*
X7022968Y-13591952D01*
X7022968Y-13591952D02*
X7003920Y-13601476D01*
X7003920Y-13601476D02*
X6994397Y-13611000D01*
X6994397Y-13611000D02*
X6984873Y-13630047D01*
X6984873Y-13630047D02*
X6984873Y-13677666D01*
X6984873Y-13677666D02*
X6994397Y-13696714D01*
X6994397Y-13696714D02*
X7003920Y-13706238D01*
X7003920Y-13706238D02*
X7022968Y-13715762D01*
X7022968Y-13715762D02*
X7061063Y-13715762D01*
X7061063Y-13715762D02*
X7080111Y-13706238D01*
X7080111Y-13706238D02*
X7089635Y-13696714D01*
X7089635Y-13696714D02*
X7099158Y-13677666D01*
X7270587Y-13658619D02*
X7270587Y-13791952D01*
X7222968Y-13582428D02*
X7175349Y-13725285D01*
X7175349Y-13725285D02*
X7299158Y-13725285D01*
X7365825Y-13591952D02*
X7365825Y-13630047D01*
X7442016Y-13591952D02*
X7442016Y-13630047D01*
X7737254Y-13868143D02*
X7727730Y-13858619D01*
X7727730Y-13858619D02*
X7708682Y-13830047D01*
X7708682Y-13830047D02*
X7699159Y-13811000D01*
X7699159Y-13811000D02*
X7689635Y-13782428D01*
X7689635Y-13782428D02*
X7680111Y-13734809D01*
X7680111Y-13734809D02*
X7680111Y-13696714D01*
X7680111Y-13696714D02*
X7689635Y-13649095D01*
X7689635Y-13649095D02*
X7699159Y-13620524D01*
X7699159Y-13620524D02*
X7708682Y-13601476D01*
X7708682Y-13601476D02*
X7727730Y-13572904D01*
X7727730Y-13572904D02*
X7737254Y-13563381D01*
X7908682Y-13591952D02*
X7813444Y-13591952D01*
X7813444Y-13591952D02*
X7803920Y-13687190D01*
X7803920Y-13687190D02*
X7813444Y-13677666D01*
X7813444Y-13677666D02*
X7832492Y-13668143D01*
X7832492Y-13668143D02*
X7880111Y-13668143D01*
X7880111Y-13668143D02*
X7899159Y-13677666D01*
X7899159Y-13677666D02*
X7908682Y-13687190D01*
X7908682Y-13687190D02*
X7918206Y-13706238D01*
X7918206Y-13706238D02*
X7918206Y-13753857D01*
X7918206Y-13753857D02*
X7908682Y-13772904D01*
X7908682Y-13772904D02*
X7899159Y-13782428D01*
X7899159Y-13782428D02*
X7880111Y-13791952D01*
X7880111Y-13791952D02*
X7832492Y-13791952D01*
X7832492Y-13791952D02*
X7813444Y-13782428D01*
X7813444Y-13782428D02*
X7803920Y-13772904D01*
X8156301Y-13791952D02*
X8156301Y-13591952D01*
X8242016Y-13791952D02*
X8242016Y-13687190D01*
X8242016Y-13687190D02*
X8232492Y-13668143D01*
X8232492Y-13668143D02*
X8213444Y-13658619D01*
X8213444Y-13658619D02*
X8184873Y-13658619D01*
X8184873Y-13658619D02*
X8165825Y-13668143D01*
X8165825Y-13668143D02*
X8156301Y-13677666D01*
X8365825Y-13791952D02*
X8346778Y-13782428D01*
X8346778Y-13782428D02*
X8337254Y-13772904D01*
X8337254Y-13772904D02*
X8327730Y-13753857D01*
X8327730Y-13753857D02*
X8327730Y-13696714D01*
X8327730Y-13696714D02*
X8337254Y-13677666D01*
X8337254Y-13677666D02*
X8346778Y-13668143D01*
X8346778Y-13668143D02*
X8365825Y-13658619D01*
X8365825Y-13658619D02*
X8394397Y-13658619D01*
X8394397Y-13658619D02*
X8413444Y-13668143D01*
X8413444Y-13668143D02*
X8422968Y-13677666D01*
X8422968Y-13677666D02*
X8432492Y-13696714D01*
X8432492Y-13696714D02*
X8432492Y-13753857D01*
X8432492Y-13753857D02*
X8422968Y-13772904D01*
X8422968Y-13772904D02*
X8413444Y-13782428D01*
X8413444Y-13782428D02*
X8394397Y-13791952D01*
X8394397Y-13791952D02*
X8365825Y-13791952D01*
X8546778Y-13791952D02*
X8527730Y-13782428D01*
X8527730Y-13782428D02*
X8518206Y-13763381D01*
X8518206Y-13763381D02*
X8518206Y-13591952D01*
X8699159Y-13782428D02*
X8680111Y-13791952D01*
X8680111Y-13791952D02*
X8642016Y-13791952D01*
X8642016Y-13791952D02*
X8622968Y-13782428D01*
X8622968Y-13782428D02*
X8613444Y-13763381D01*
X8613444Y-13763381D02*
X8613444Y-13687190D01*
X8613444Y-13687190D02*
X8622968Y-13668143D01*
X8622968Y-13668143D02*
X8642016Y-13658619D01*
X8642016Y-13658619D02*
X8680111Y-13658619D01*
X8680111Y-13658619D02*
X8699159Y-13668143D01*
X8699159Y-13668143D02*
X8708683Y-13687190D01*
X8708683Y-13687190D02*
X8708683Y-13706238D01*
X8708683Y-13706238D02*
X8613444Y-13725285D01*
X8784873Y-13782428D02*
X8803921Y-13791952D01*
X8803921Y-13791952D02*
X8842016Y-13791952D01*
X8842016Y-13791952D02*
X8861064Y-13782428D01*
X8861064Y-13782428D02*
X8870587Y-13763381D01*
X8870587Y-13763381D02*
X8870587Y-13753857D01*
X8870587Y-13753857D02*
X8861064Y-13734809D01*
X8861064Y-13734809D02*
X8842016Y-13725285D01*
X8842016Y-13725285D02*
X8813444Y-13725285D01*
X8813444Y-13725285D02*
X8794397Y-13715762D01*
X8794397Y-13715762D02*
X8784873Y-13696714D01*
X8784873Y-13696714D02*
X8784873Y-13687190D01*
X8784873Y-13687190D02*
X8794397Y-13668143D01*
X8794397Y-13668143D02*
X8813444Y-13658619D01*
X8813444Y-13658619D02*
X8842016Y-13658619D01*
X8842016Y-13658619D02*
X8861064Y-13668143D01*
X8937254Y-13868143D02*
X8946778Y-13858619D01*
X8946778Y-13858619D02*
X8965825Y-13830047D01*
X8965825Y-13830047D02*
X8975349Y-13811000D01*
X8975349Y-13811000D02*
X8984873Y-13782428D01*
X8984873Y-13782428D02*
X8994397Y-13734809D01*
X8994397Y-13734809D02*
X8994397Y-13696714D01*
X8994397Y-13696714D02*
X8984873Y-13649095D01*
X8984873Y-13649095D02*
X8975349Y-13620524D01*
X8975349Y-13620524D02*
X8965825Y-13601476D01*
X8965825Y-13601476D02*
X8946778Y-13572904D01*
X8946778Y-13572904D02*
X8937254Y-13563381D01*
D15*
X4088691Y-14037968D02*
X4162191Y-13964468D01*
X4088691Y-13890968D01*
X4015191Y-13964468D01*
X4088691Y-14037968D01*
D11*
X4527730Y-14055952D02*
X4413444Y-14055952D01*
X4470587Y-14055952D02*
X4470587Y-13855952D01*
X4470587Y-13855952D02*
X4451539Y-13884524D01*
X4451539Y-13884524D02*
X4432492Y-13903571D01*
X4432492Y-13903571D02*
X4413444Y-13913095D01*
X4613444Y-14036904D02*
X4622968Y-14046428D01*
X4622968Y-14046428D02*
X4613444Y-14055952D01*
X4613444Y-14055952D02*
X4603920Y-14046428D01*
X4603920Y-14046428D02*
X4613444Y-14036904D01*
X4613444Y-14036904D02*
X4613444Y-14055952D01*
X4794396Y-13922619D02*
X4794396Y-14055952D01*
X4746777Y-13846428D02*
X4699158Y-13989285D01*
X4699158Y-13989285D02*
X4822968Y-13989285D01*
X4880111Y-13855952D02*
X5013444Y-13855952D01*
X5013444Y-13855952D02*
X4927730Y-14055952D01*
X5127730Y-13855952D02*
X5146777Y-13855952D01*
X5146777Y-13855952D02*
X5165825Y-13865476D01*
X5165825Y-13865476D02*
X5175349Y-13875000D01*
X5175349Y-13875000D02*
X5184873Y-13894047D01*
X5184873Y-13894047D02*
X5194396Y-13932143D01*
X5194396Y-13932143D02*
X5194396Y-13979762D01*
X5194396Y-13979762D02*
X5184873Y-14017857D01*
X5184873Y-14017857D02*
X5175349Y-14036904D01*
X5175349Y-14036904D02*
X5165825Y-14046428D01*
X5165825Y-14046428D02*
X5146777Y-14055952D01*
X5146777Y-14055952D02*
X5127730Y-14055952D01*
X5127730Y-14055952D02*
X5108682Y-14046428D01*
X5108682Y-14046428D02*
X5099158Y-14036904D01*
X5099158Y-14036904D02*
X5089635Y-14017857D01*
X5089635Y-14017857D02*
X5080111Y-13979762D01*
X5080111Y-13979762D02*
X5080111Y-13932143D01*
X5080111Y-13932143D02*
X5089635Y-13894047D01*
X5089635Y-13894047D02*
X5099158Y-13875000D01*
X5099158Y-13875000D02*
X5108682Y-13865476D01*
X5108682Y-13865476D02*
X5127730Y-13855952D01*
X5280111Y-14055952D02*
X5280111Y-13922619D01*
X5280111Y-13941666D02*
X5289635Y-13932143D01*
X5289635Y-13932143D02*
X5308682Y-13922619D01*
X5308682Y-13922619D02*
X5337254Y-13922619D01*
X5337254Y-13922619D02*
X5356301Y-13932143D01*
X5356301Y-13932143D02*
X5365825Y-13951190D01*
X5365825Y-13951190D02*
X5365825Y-14055952D01*
X5365825Y-13951190D02*
X5375349Y-13932143D01*
X5375349Y-13932143D02*
X5394396Y-13922619D01*
X5394396Y-13922619D02*
X5422968Y-13922619D01*
X5422968Y-13922619D02*
X5442016Y-13932143D01*
X5442016Y-13932143D02*
X5451539Y-13951190D01*
X5451539Y-13951190D02*
X5451539Y-14055952D01*
X5546777Y-14055952D02*
X5546777Y-13922619D01*
X5546777Y-13941666D02*
X5556301Y-13932143D01*
X5556301Y-13932143D02*
X5575349Y-13922619D01*
X5575349Y-13922619D02*
X5603920Y-13922619D01*
X5603920Y-13922619D02*
X5622968Y-13932143D01*
X5622968Y-13932143D02*
X5632492Y-13951190D01*
X5632492Y-13951190D02*
X5632492Y-14055952D01*
X5632492Y-13951190D02*
X5642015Y-13932143D01*
X5642015Y-13932143D02*
X5661063Y-13922619D01*
X5661063Y-13922619D02*
X5689634Y-13922619D01*
X5689634Y-13922619D02*
X5708682Y-13932143D01*
X5708682Y-13932143D02*
X5718206Y-13951190D01*
X5718206Y-13951190D02*
X5718206Y-14055952D01*
X6108682Y-13846428D02*
X5937254Y-14103571D01*
X6365825Y-13855952D02*
X6384873Y-13855952D01*
X6384873Y-13855952D02*
X6403920Y-13865476D01*
X6403920Y-13865476D02*
X6413444Y-13875000D01*
X6413444Y-13875000D02*
X6422968Y-13894047D01*
X6422968Y-13894047D02*
X6432492Y-13932143D01*
X6432492Y-13932143D02*
X6432492Y-13979762D01*
X6432492Y-13979762D02*
X6422968Y-14017857D01*
X6422968Y-14017857D02*
X6413444Y-14036904D01*
X6413444Y-14036904D02*
X6403920Y-14046428D01*
X6403920Y-14046428D02*
X6384873Y-14055952D01*
X6384873Y-14055952D02*
X6365825Y-14055952D01*
X6365825Y-14055952D02*
X6346777Y-14046428D01*
X6346777Y-14046428D02*
X6337254Y-14036904D01*
X6337254Y-14036904D02*
X6327730Y-14017857D01*
X6327730Y-14017857D02*
X6318206Y-13979762D01*
X6318206Y-13979762D02*
X6318206Y-13932143D01*
X6318206Y-13932143D02*
X6327730Y-13894047D01*
X6327730Y-13894047D02*
X6337254Y-13875000D01*
X6337254Y-13875000D02*
X6346777Y-13865476D01*
X6346777Y-13865476D02*
X6365825Y-13855952D01*
X6518206Y-14036904D02*
X6527730Y-14046428D01*
X6527730Y-14046428D02*
X6518206Y-14055952D01*
X6518206Y-14055952D02*
X6508682Y-14046428D01*
X6508682Y-14046428D02*
X6518206Y-14036904D01*
X6518206Y-14036904D02*
X6518206Y-14055952D01*
X6651539Y-13855952D02*
X6670587Y-13855952D01*
X6670587Y-13855952D02*
X6689635Y-13865476D01*
X6689635Y-13865476D02*
X6699158Y-13875000D01*
X6699158Y-13875000D02*
X6708682Y-13894047D01*
X6708682Y-13894047D02*
X6718206Y-13932143D01*
X6718206Y-13932143D02*
X6718206Y-13979762D01*
X6718206Y-13979762D02*
X6708682Y-14017857D01*
X6708682Y-14017857D02*
X6699158Y-14036904D01*
X6699158Y-14036904D02*
X6689635Y-14046428D01*
X6689635Y-14046428D02*
X6670587Y-14055952D01*
X6670587Y-14055952D02*
X6651539Y-14055952D01*
X6651539Y-14055952D02*
X6632492Y-14046428D01*
X6632492Y-14046428D02*
X6622968Y-14036904D01*
X6622968Y-14036904D02*
X6613444Y-14017857D01*
X6613444Y-14017857D02*
X6603920Y-13979762D01*
X6603920Y-13979762D02*
X6603920Y-13932143D01*
X6603920Y-13932143D02*
X6613444Y-13894047D01*
X6613444Y-13894047D02*
X6622968Y-13875000D01*
X6622968Y-13875000D02*
X6632492Y-13865476D01*
X6632492Y-13865476D02*
X6651539Y-13855952D01*
X6899158Y-13855952D02*
X6803920Y-13855952D01*
X6803920Y-13855952D02*
X6794397Y-13951190D01*
X6794397Y-13951190D02*
X6803920Y-13941666D01*
X6803920Y-13941666D02*
X6822968Y-13932143D01*
X6822968Y-13932143D02*
X6870587Y-13932143D01*
X6870587Y-13932143D02*
X6889635Y-13941666D01*
X6889635Y-13941666D02*
X6899158Y-13951190D01*
X6899158Y-13951190D02*
X6908682Y-13970238D01*
X6908682Y-13970238D02*
X6908682Y-14017857D01*
X6908682Y-14017857D02*
X6899158Y-14036904D01*
X6899158Y-14036904D02*
X6889635Y-14046428D01*
X6889635Y-14046428D02*
X6870587Y-14055952D01*
X6870587Y-14055952D02*
X6822968Y-14055952D01*
X6822968Y-14055952D02*
X6803920Y-14046428D01*
X6803920Y-14046428D02*
X6794397Y-14036904D01*
X6975349Y-13855952D02*
X7108682Y-13855952D01*
X7108682Y-13855952D02*
X7022968Y-14055952D01*
X7194397Y-14055952D02*
X7232492Y-14055952D01*
X7232492Y-14055952D02*
X7251539Y-14046428D01*
X7251539Y-14046428D02*
X7261063Y-14036904D01*
X7261063Y-14036904D02*
X7280111Y-14008333D01*
X7280111Y-14008333D02*
X7289635Y-13970238D01*
X7289635Y-13970238D02*
X7289635Y-13894047D01*
X7289635Y-13894047D02*
X7280111Y-13875000D01*
X7280111Y-13875000D02*
X7270587Y-13865476D01*
X7270587Y-13865476D02*
X7251539Y-13855952D01*
X7251539Y-13855952D02*
X7213444Y-13855952D01*
X7213444Y-13855952D02*
X7194397Y-13865476D01*
X7194397Y-13865476D02*
X7184873Y-13875000D01*
X7184873Y-13875000D02*
X7175349Y-13894047D01*
X7175349Y-13894047D02*
X7175349Y-13941666D01*
X7175349Y-13941666D02*
X7184873Y-13960714D01*
X7184873Y-13960714D02*
X7194397Y-13970238D01*
X7194397Y-13970238D02*
X7213444Y-13979762D01*
X7213444Y-13979762D02*
X7251539Y-13979762D01*
X7251539Y-13979762D02*
X7270587Y-13970238D01*
X7270587Y-13970238D02*
X7280111Y-13960714D01*
X7280111Y-13960714D02*
X7289635Y-13941666D01*
X7365825Y-13855952D02*
X7365825Y-13894047D01*
X7442016Y-13855952D02*
X7442016Y-13894047D01*
X7737254Y-14132143D02*
X7727730Y-14122619D01*
X7727730Y-14122619D02*
X7708682Y-14094047D01*
X7708682Y-14094047D02*
X7699159Y-14075000D01*
X7699159Y-14075000D02*
X7689635Y-14046428D01*
X7689635Y-14046428D02*
X7680111Y-13998809D01*
X7680111Y-13998809D02*
X7680111Y-13960714D01*
X7680111Y-13960714D02*
X7689635Y-13913095D01*
X7689635Y-13913095D02*
X7699159Y-13884524D01*
X7699159Y-13884524D02*
X7708682Y-13865476D01*
X7708682Y-13865476D02*
X7727730Y-13836904D01*
X7727730Y-13836904D02*
X7737254Y-13827381D01*
X7842016Y-13941666D02*
X7822968Y-13932143D01*
X7822968Y-13932143D02*
X7813444Y-13922619D01*
X7813444Y-13922619D02*
X7803920Y-13903571D01*
X7803920Y-13903571D02*
X7803920Y-13894047D01*
X7803920Y-13894047D02*
X7813444Y-13875000D01*
X7813444Y-13875000D02*
X7822968Y-13865476D01*
X7822968Y-13865476D02*
X7842016Y-13855952D01*
X7842016Y-13855952D02*
X7880111Y-13855952D01*
X7880111Y-13855952D02*
X7899159Y-13865476D01*
X7899159Y-13865476D02*
X7908682Y-13875000D01*
X7908682Y-13875000D02*
X7918206Y-13894047D01*
X7918206Y-13894047D02*
X7918206Y-13903571D01*
X7918206Y-13903571D02*
X7908682Y-13922619D01*
X7908682Y-13922619D02*
X7899159Y-13932143D01*
X7899159Y-13932143D02*
X7880111Y-13941666D01*
X7880111Y-13941666D02*
X7842016Y-13941666D01*
X7842016Y-13941666D02*
X7822968Y-13951190D01*
X7822968Y-13951190D02*
X7813444Y-13960714D01*
X7813444Y-13960714D02*
X7803920Y-13979762D01*
X7803920Y-13979762D02*
X7803920Y-14017857D01*
X7803920Y-14017857D02*
X7813444Y-14036904D01*
X7813444Y-14036904D02*
X7822968Y-14046428D01*
X7822968Y-14046428D02*
X7842016Y-14055952D01*
X7842016Y-14055952D02*
X7880111Y-14055952D01*
X7880111Y-14055952D02*
X7899159Y-14046428D01*
X7899159Y-14046428D02*
X7908682Y-14036904D01*
X7908682Y-14036904D02*
X7918206Y-14017857D01*
X7918206Y-14017857D02*
X7918206Y-13979762D01*
X7918206Y-13979762D02*
X7908682Y-13960714D01*
X7908682Y-13960714D02*
X7899159Y-13951190D01*
X7899159Y-13951190D02*
X7880111Y-13941666D01*
X8032492Y-13941666D02*
X8013444Y-13932143D01*
X8013444Y-13932143D02*
X8003920Y-13922619D01*
X8003920Y-13922619D02*
X7994397Y-13903571D01*
X7994397Y-13903571D02*
X7994397Y-13894047D01*
X7994397Y-13894047D02*
X8003920Y-13875000D01*
X8003920Y-13875000D02*
X8013444Y-13865476D01*
X8013444Y-13865476D02*
X8032492Y-13855952D01*
X8032492Y-13855952D02*
X8070587Y-13855952D01*
X8070587Y-13855952D02*
X8089635Y-13865476D01*
X8089635Y-13865476D02*
X8099159Y-13875000D01*
X8099159Y-13875000D02*
X8108682Y-13894047D01*
X8108682Y-13894047D02*
X8108682Y-13903571D01*
X8108682Y-13903571D02*
X8099159Y-13922619D01*
X8099159Y-13922619D02*
X8089635Y-13932143D01*
X8089635Y-13932143D02*
X8070587Y-13941666D01*
X8070587Y-13941666D02*
X8032492Y-13941666D01*
X8032492Y-13941666D02*
X8013444Y-13951190D01*
X8013444Y-13951190D02*
X8003920Y-13960714D01*
X8003920Y-13960714D02*
X7994397Y-13979762D01*
X7994397Y-13979762D02*
X7994397Y-14017857D01*
X7994397Y-14017857D02*
X8003920Y-14036904D01*
X8003920Y-14036904D02*
X8013444Y-14046428D01*
X8013444Y-14046428D02*
X8032492Y-14055952D01*
X8032492Y-14055952D02*
X8070587Y-14055952D01*
X8070587Y-14055952D02*
X8089635Y-14046428D01*
X8089635Y-14046428D02*
X8099159Y-14036904D01*
X8099159Y-14036904D02*
X8108682Y-14017857D01*
X8108682Y-14017857D02*
X8108682Y-13979762D01*
X8108682Y-13979762D02*
X8099159Y-13960714D01*
X8099159Y-13960714D02*
X8089635Y-13951190D01*
X8089635Y-13951190D02*
X8070587Y-13941666D01*
X8346778Y-14055952D02*
X8346778Y-13855952D01*
X8432492Y-14055952D02*
X8432492Y-13951190D01*
X8432492Y-13951190D02*
X8422968Y-13932143D01*
X8422968Y-13932143D02*
X8403921Y-13922619D01*
X8403921Y-13922619D02*
X8375349Y-13922619D01*
X8375349Y-13922619D02*
X8356301Y-13932143D01*
X8356301Y-13932143D02*
X8346778Y-13941666D01*
X8556302Y-14055952D02*
X8537254Y-14046428D01*
X8537254Y-14046428D02*
X8527730Y-14036904D01*
X8527730Y-14036904D02*
X8518206Y-14017857D01*
X8518206Y-14017857D02*
X8518206Y-13960714D01*
X8518206Y-13960714D02*
X8527730Y-13941666D01*
X8527730Y-13941666D02*
X8537254Y-13932143D01*
X8537254Y-13932143D02*
X8556302Y-13922619D01*
X8556302Y-13922619D02*
X8584873Y-13922619D01*
X8584873Y-13922619D02*
X8603921Y-13932143D01*
X8603921Y-13932143D02*
X8613444Y-13941666D01*
X8613444Y-13941666D02*
X8622968Y-13960714D01*
X8622968Y-13960714D02*
X8622968Y-14017857D01*
X8622968Y-14017857D02*
X8613444Y-14036904D01*
X8613444Y-14036904D02*
X8603921Y-14046428D01*
X8603921Y-14046428D02*
X8584873Y-14055952D01*
X8584873Y-14055952D02*
X8556302Y-14055952D01*
X8737254Y-14055952D02*
X8718206Y-14046428D01*
X8718206Y-14046428D02*
X8708683Y-14027381D01*
X8708683Y-14027381D02*
X8708683Y-13855952D01*
X8889635Y-14046428D02*
X8870587Y-14055952D01*
X8870587Y-14055952D02*
X8832492Y-14055952D01*
X8832492Y-14055952D02*
X8813444Y-14046428D01*
X8813444Y-14046428D02*
X8803921Y-14027381D01*
X8803921Y-14027381D02*
X8803921Y-13951190D01*
X8803921Y-13951190D02*
X8813444Y-13932143D01*
X8813444Y-13932143D02*
X8832492Y-13922619D01*
X8832492Y-13922619D02*
X8870587Y-13922619D01*
X8870587Y-13922619D02*
X8889635Y-13932143D01*
X8889635Y-13932143D02*
X8899159Y-13951190D01*
X8899159Y-13951190D02*
X8899159Y-13970238D01*
X8899159Y-13970238D02*
X8803921Y-13989285D01*
X8975349Y-14046428D02*
X8994397Y-14055952D01*
X8994397Y-14055952D02*
X9032492Y-14055952D01*
X9032492Y-14055952D02*
X9051540Y-14046428D01*
X9051540Y-14046428D02*
X9061064Y-14027381D01*
X9061064Y-14027381D02*
X9061064Y-14017857D01*
X9061064Y-14017857D02*
X9051540Y-13998809D01*
X9051540Y-13998809D02*
X9032492Y-13989285D01*
X9032492Y-13989285D02*
X9003921Y-13989285D01*
X9003921Y-13989285D02*
X8984873Y-13979762D01*
X8984873Y-13979762D02*
X8975349Y-13960714D01*
X8975349Y-13960714D02*
X8975349Y-13951190D01*
X8975349Y-13951190D02*
X8984873Y-13932143D01*
X8984873Y-13932143D02*
X9003921Y-13922619D01*
X9003921Y-13922619D02*
X9032492Y-13922619D01*
X9032492Y-13922619D02*
X9051540Y-13932143D01*
X9127730Y-14132143D02*
X9137254Y-14122619D01*
X9137254Y-14122619D02*
X9156302Y-14094047D01*
X9156302Y-14094047D02*
X9165825Y-14075000D01*
X9165825Y-14075000D02*
X9175349Y-14046428D01*
X9175349Y-14046428D02*
X9184873Y-13998809D01*
X9184873Y-13998809D02*
X9184873Y-13960714D01*
X9184873Y-13960714D02*
X9175349Y-13913095D01*
X9175349Y-13913095D02*
X9165825Y-13884524D01*
X9165825Y-13884524D02*
X9156302Y-13865476D01*
X9156302Y-13865476D02*
X9137254Y-13836904D01*
X9137254Y-13836904D02*
X9127730Y-13827381D01*
M02*
