%TF.GenerationSoftware,KiCad,Pcbnew,7.0.6*%
%TF.CreationDate,2023-12-03T11:03:35-05:00*%
%TF.ProjectId,cutiepie2040-ortho-hotswap-solder-pcb,63757469-6570-4696-9532-3034302d6f72,rev?*%
%TF.SameCoordinates,PX27bdd2cPY74f41bc*%
%TF.FileFunction,Legend,Bot*%
%TF.FilePolarity,Positive*%
%FSLAX46Y46*%
G04 Gerber Fmt 4.6, Leading zero omitted, Abs format (unit mm)*
G04 Created by KiCad (PCBNEW 7.0.6) date 2023-12-03 11:03:35*
%MOMM*%
%LPD*%
G01*
G04 APERTURE LIST*
%ADD10C,0.150000*%
%ADD11C,0.120000*%
G04 APERTURE END LIST*
D10*
X5252476Y45909517D02*
X4814743Y45471784D01*
X4814743Y45471784D02*
X5319819Y45438112D01*
X5319819Y45438112D02*
X5218804Y45337097D01*
X5218804Y45337097D02*
X5185132Y45236082D01*
X5185132Y45236082D02*
X5185132Y45168738D01*
X5185132Y45168738D02*
X5218804Y45067723D01*
X5218804Y45067723D02*
X5387163Y44899364D01*
X5387163Y44899364D02*
X5488178Y44865693D01*
X5488178Y44865693D02*
X5555521Y44865693D01*
X5555521Y44865693D02*
X5656537Y44899364D01*
X5656537Y44899364D02*
X5858567Y45101395D01*
X5858567Y45101395D02*
X5892239Y45202410D01*
X5892239Y45202410D02*
X5892239Y45269754D01*
X4612712Y45269754D02*
X5084117Y44326945D01*
X5084117Y44326945D02*
X4141308Y44798349D01*
X3972949Y44629990D02*
X3535216Y44192257D01*
X3535216Y44192257D02*
X4040292Y44158586D01*
X4040292Y44158586D02*
X3939277Y44057570D01*
X3939277Y44057570D02*
X3905605Y43956555D01*
X3905605Y43956555D02*
X3905605Y43889212D01*
X3905605Y43889212D02*
X3939277Y43788196D01*
X3939277Y43788196D02*
X4107636Y43619838D01*
X4107636Y43619838D02*
X4208651Y43586166D01*
X4208651Y43586166D02*
X4275995Y43586166D01*
X4275995Y43586166D02*
X4377010Y43619838D01*
X4377010Y43619838D02*
X4579040Y43821868D01*
X4579040Y43821868D02*
X4612712Y43922883D01*
X4612712Y43922883D02*
X4612712Y43990227D01*
X5471342Y47095426D02*
X5370327Y47667846D01*
X5875403Y47499487D02*
X5168297Y48206594D01*
X5168297Y48206594D02*
X4898923Y47937220D01*
X4898923Y47937220D02*
X4865251Y47836205D01*
X4865251Y47836205D02*
X4865251Y47768861D01*
X4865251Y47768861D02*
X4898923Y47667846D01*
X4898923Y47667846D02*
X4999938Y47566831D01*
X4999938Y47566831D02*
X5100953Y47533159D01*
X5100953Y47533159D02*
X5168297Y47533159D01*
X5168297Y47533159D02*
X5269312Y47566831D01*
X5269312Y47566831D02*
X5538686Y47836205D01*
X5168297Y46859724D02*
X5100953Y46725037D01*
X5100953Y46725037D02*
X4932594Y46556678D01*
X4932594Y46556678D02*
X4831579Y46523006D01*
X4831579Y46523006D02*
X4764236Y46523006D01*
X4764236Y46523006D02*
X4663220Y46556678D01*
X4663220Y46556678D02*
X4595877Y46624022D01*
X4595877Y46624022D02*
X4562205Y46725037D01*
X4562205Y46725037D02*
X4562205Y46792380D01*
X4562205Y46792380D02*
X4595877Y46893396D01*
X4595877Y46893396D02*
X4696892Y47061754D01*
X4696892Y47061754D02*
X4730564Y47162770D01*
X4730564Y47162770D02*
X4730564Y47230113D01*
X4730564Y47230113D02*
X4696892Y47331128D01*
X4696892Y47331128D02*
X4629549Y47398472D01*
X4629549Y47398472D02*
X4528533Y47432144D01*
X4528533Y47432144D02*
X4461190Y47432144D01*
X4461190Y47432144D02*
X4360175Y47398472D01*
X4360175Y47398472D02*
X4191816Y47230113D01*
X4191816Y47230113D02*
X4124472Y47095426D01*
X3888770Y46927067D02*
X3484709Y46523006D01*
X4393846Y46017930D02*
X3686740Y46725037D01*
X4949430Y43157872D02*
X4983102Y43258887D01*
X4983102Y43258887D02*
X5084117Y43359902D01*
X5084117Y43359902D02*
X5218804Y43427246D01*
X5218804Y43427246D02*
X5353491Y43427246D01*
X5353491Y43427246D02*
X5454506Y43393574D01*
X5454506Y43393574D02*
X5622865Y43292559D01*
X5622865Y43292559D02*
X5723880Y43191543D01*
X5723880Y43191543D02*
X5824895Y43023185D01*
X5824895Y43023185D02*
X5858567Y42922169D01*
X5858567Y42922169D02*
X5858567Y42787482D01*
X5858567Y42787482D02*
X5791224Y42652795D01*
X5791224Y42652795D02*
X5723880Y42585452D01*
X5723880Y42585452D02*
X5589193Y42518108D01*
X5589193Y42518108D02*
X5521850Y42518108D01*
X5521850Y42518108D02*
X5286147Y42753811D01*
X5286147Y42753811D02*
X5420834Y42888498D01*
X5286147Y42147719D02*
X4579040Y42854826D01*
X4579040Y42854826D02*
X4882086Y41743658D01*
X4882086Y41743658D02*
X4174979Y42450765D01*
X4545369Y41406941D02*
X3838262Y42114047D01*
X3838262Y42114047D02*
X3669903Y41945689D01*
X3669903Y41945689D02*
X3602560Y41811002D01*
X3602560Y41811002D02*
X3602560Y41676315D01*
X3602560Y41676315D02*
X3636231Y41575299D01*
X3636231Y41575299D02*
X3737247Y41406941D01*
X3737247Y41406941D02*
X3838262Y41305925D01*
X3838262Y41305925D02*
X4006621Y41204910D01*
X4006621Y41204910D02*
X4107636Y41171238D01*
X4107636Y41171238D02*
X4242323Y41171238D01*
X4242323Y41171238D02*
X4377010Y41238582D01*
X4377010Y41238582D02*
X4545369Y41406941D01*
X7245168Y39411571D02*
X7177824Y39276884D01*
X7177824Y39276884D02*
X7009465Y39108525D01*
X7009465Y39108525D02*
X6908450Y39074853D01*
X6908450Y39074853D02*
X6841107Y39074853D01*
X6841107Y39074853D02*
X6740091Y39108525D01*
X6740091Y39108525D02*
X6672748Y39175869D01*
X6672748Y39175869D02*
X6639076Y39276884D01*
X6639076Y39276884D02*
X6639076Y39344227D01*
X6639076Y39344227D02*
X6672748Y39445243D01*
X6672748Y39445243D02*
X6773763Y39613601D01*
X6773763Y39613601D02*
X6807435Y39714617D01*
X6807435Y39714617D02*
X6807435Y39781960D01*
X6807435Y39781960D02*
X6773763Y39882975D01*
X6773763Y39882975D02*
X6706420Y39950319D01*
X6706420Y39950319D02*
X6605404Y39983991D01*
X6605404Y39983991D02*
X6538061Y39983991D01*
X6538061Y39983991D02*
X6437046Y39950319D01*
X6437046Y39950319D02*
X6268687Y39781960D01*
X6268687Y39781960D02*
X6201343Y39647273D01*
X5931969Y39445243D02*
X6470717Y38569777D01*
X6470717Y38569777D02*
X5830954Y38940166D01*
X5830954Y38940166D02*
X6201343Y38300403D01*
X6201343Y38300403D02*
X5325878Y38839151D01*
X5292206Y37525953D02*
X5359550Y37525953D01*
X5359550Y37525953D02*
X5494237Y37593296D01*
X5494237Y37593296D02*
X5561580Y37660640D01*
X5561580Y37660640D02*
X5628924Y37795327D01*
X5628924Y37795327D02*
X5628924Y37930014D01*
X5628924Y37930014D02*
X5595252Y38031029D01*
X5595252Y38031029D02*
X5494237Y38199388D01*
X5494237Y38199388D02*
X5393221Y38300403D01*
X5393221Y38300403D02*
X5224863Y38401418D01*
X5224863Y38401418D02*
X5123847Y38435090D01*
X5123847Y38435090D02*
X4989160Y38435090D01*
X4989160Y38435090D02*
X4854473Y38367747D01*
X4854473Y38367747D02*
X4787130Y38300403D01*
X4787130Y38300403D02*
X4719786Y38165716D01*
X4719786Y38165716D02*
X4719786Y38098373D01*
X4719786Y36818846D02*
X5056504Y37155564D01*
X5056504Y37155564D02*
X4349397Y37862670D01*
X4484084Y36583144D02*
X3776977Y37290250D01*
X4080023Y36179083D02*
X3979008Y36886189D01*
X3372916Y36886189D02*
X4181038Y36886189D01*
X7144152Y41691811D02*
X7076808Y41557124D01*
X7076808Y41557124D02*
X6908449Y41388765D01*
X6908449Y41388765D02*
X6807434Y41355093D01*
X6807434Y41355093D02*
X6740091Y41355093D01*
X6740091Y41355093D02*
X6639075Y41388765D01*
X6639075Y41388765D02*
X6571732Y41456109D01*
X6571732Y41456109D02*
X6538060Y41557124D01*
X6538060Y41557124D02*
X6538060Y41624467D01*
X6538060Y41624467D02*
X6571732Y41725483D01*
X6571732Y41725483D02*
X6672747Y41893841D01*
X6672747Y41893841D02*
X6706419Y41994857D01*
X6706419Y41994857D02*
X6706419Y42062200D01*
X6706419Y42062200D02*
X6672747Y42163216D01*
X6672747Y42163216D02*
X6605404Y42230559D01*
X6605404Y42230559D02*
X6504388Y42264231D01*
X6504388Y42264231D02*
X6437045Y42264231D01*
X6437045Y42264231D02*
X6336030Y42230559D01*
X6336030Y42230559D02*
X6167671Y42062200D01*
X6167671Y42062200D02*
X6100327Y41927513D01*
X5830953Y41725483D02*
X6369701Y40850017D01*
X6369701Y40850017D02*
X5729938Y41220406D01*
X5729938Y41220406D02*
X6100327Y40580643D01*
X6100327Y40580643D02*
X5224862Y41119391D01*
X5662595Y40142910D02*
X4955488Y40850017D01*
X4955488Y40850017D02*
X4787129Y40681659D01*
X4787129Y40681659D02*
X4719786Y40546972D01*
X4719786Y40546972D02*
X4719786Y40412284D01*
X4719786Y40412284D02*
X4753457Y40311269D01*
X4753457Y40311269D02*
X4854473Y40142910D01*
X4854473Y40142910D02*
X4955488Y40041895D01*
X4955488Y40041895D02*
X5123847Y39940880D01*
X5123847Y39940880D02*
X5224862Y39907208D01*
X5224862Y39907208D02*
X5359549Y39907208D01*
X5359549Y39907208D02*
X5494236Y39974552D01*
X5494236Y39974552D02*
X5662595Y40142910D01*
X4955488Y39435804D02*
X4248381Y40142910D01*
X3776977Y39671506D02*
X3642290Y39536819D01*
X3642290Y39536819D02*
X3608618Y39435804D01*
X3608618Y39435804D02*
X3608618Y39301117D01*
X3608618Y39301117D02*
X3709634Y39132758D01*
X3709634Y39132758D02*
X3945336Y38897056D01*
X3945336Y38897056D02*
X4113695Y38796041D01*
X4113695Y38796041D02*
X4248382Y38796041D01*
X4248382Y38796041D02*
X4349397Y38829713D01*
X4349397Y38829713D02*
X4484084Y38964400D01*
X4484084Y38964400D02*
X4517756Y39065415D01*
X4517756Y39065415D02*
X4517756Y39200102D01*
X4517756Y39200102D02*
X4416740Y39368461D01*
X4416740Y39368461D02*
X4181038Y39604163D01*
X4181038Y39604163D02*
X4012679Y39705178D01*
X4012679Y39705178D02*
X3877992Y39705178D01*
X3877992Y39705178D02*
X3776977Y39671506D01*
X58507286Y69720729D02*
X58364429Y69673110D01*
X58364429Y69673110D02*
X58316810Y69625491D01*
X58316810Y69625491D02*
X58269191Y69530253D01*
X58269191Y69530253D02*
X58269191Y69387396D01*
X58269191Y69387396D02*
X58316810Y69292158D01*
X58316810Y69292158D02*
X58364429Y69244538D01*
X58364429Y69244538D02*
X58459667Y69196919D01*
X58459667Y69196919D02*
X58840619Y69196919D01*
X58840619Y69196919D02*
X58840619Y70196919D01*
X58840619Y70196919D02*
X58507286Y70196919D01*
X58507286Y70196919D02*
X58412048Y70149300D01*
X58412048Y70149300D02*
X58364429Y70101681D01*
X58364429Y70101681D02*
X58316810Y70006443D01*
X58316810Y70006443D02*
X58316810Y69911205D01*
X58316810Y69911205D02*
X58364429Y69815967D01*
X58364429Y69815967D02*
X58412048Y69768348D01*
X58412048Y69768348D02*
X58507286Y69720729D01*
X58507286Y69720729D02*
X58840619Y69720729D01*
X57650143Y70196919D02*
X57459667Y70196919D01*
X57459667Y70196919D02*
X57364429Y70149300D01*
X57364429Y70149300D02*
X57269191Y70054062D01*
X57269191Y70054062D02*
X57221572Y69863586D01*
X57221572Y69863586D02*
X57221572Y69530253D01*
X57221572Y69530253D02*
X57269191Y69339777D01*
X57269191Y69339777D02*
X57364429Y69244538D01*
X57364429Y69244538D02*
X57459667Y69196919D01*
X57459667Y69196919D02*
X57650143Y69196919D01*
X57650143Y69196919D02*
X57745381Y69244538D01*
X57745381Y69244538D02*
X57840619Y69339777D01*
X57840619Y69339777D02*
X57888238Y69530253D01*
X57888238Y69530253D02*
X57888238Y69863586D01*
X57888238Y69863586D02*
X57840619Y70054062D01*
X57840619Y70054062D02*
X57745381Y70149300D01*
X57745381Y70149300D02*
X57650143Y70196919D01*
X56602524Y70196919D02*
X56412048Y70196919D01*
X56412048Y70196919D02*
X56316810Y70149300D01*
X56316810Y70149300D02*
X56221572Y70054062D01*
X56221572Y70054062D02*
X56173953Y69863586D01*
X56173953Y69863586D02*
X56173953Y69530253D01*
X56173953Y69530253D02*
X56221572Y69339777D01*
X56221572Y69339777D02*
X56316810Y69244538D01*
X56316810Y69244538D02*
X56412048Y69196919D01*
X56412048Y69196919D02*
X56602524Y69196919D01*
X56602524Y69196919D02*
X56697762Y69244538D01*
X56697762Y69244538D02*
X56793000Y69339777D01*
X56793000Y69339777D02*
X56840619Y69530253D01*
X56840619Y69530253D02*
X56840619Y69863586D01*
X56840619Y69863586D02*
X56793000Y70054062D01*
X56793000Y70054062D02*
X56697762Y70149300D01*
X56697762Y70149300D02*
X56602524Y70196919D01*
X55888238Y70196919D02*
X55316810Y70196919D01*
X55602524Y69196919D02*
X55602524Y70196919D01*
X19811952Y49418417D02*
X19811952Y48608894D01*
X19811952Y48608894D02*
X19764333Y48513656D01*
X19764333Y48513656D02*
X19716714Y48466036D01*
X19716714Y48466036D02*
X19621476Y48418417D01*
X19621476Y48418417D02*
X19431000Y48418417D01*
X19431000Y48418417D02*
X19335762Y48466036D01*
X19335762Y48466036D02*
X19288143Y48513656D01*
X19288143Y48513656D02*
X19240524Y48608894D01*
X19240524Y48608894D02*
X19240524Y49418417D01*
X18240524Y48418417D02*
X18811952Y48418417D01*
X18526238Y48418417D02*
X18526238Y49418417D01*
X18526238Y49418417D02*
X18621476Y49275560D01*
X18621476Y49275560D02*
X18716714Y49180322D01*
X18716714Y49180322D02*
X18811952Y49132703D01*
D11*
%TO.C,C_1V-Decoup2*%
X19880676Y51089168D02*
X19880676Y51304840D01*
X20600676Y51089168D02*
X20600676Y51304840D01*
%TO.C,D6*%
X28170386Y44779806D02*
X28170386Y48679806D01*
X30170386Y44779806D02*
X28170386Y44779806D01*
X30170386Y44779806D02*
X30170386Y48679806D01*
%TO.C,D14*%
X66270482Y44779806D02*
X66270482Y48679806D01*
X68270482Y44779806D02*
X66270482Y44779806D01*
X68270482Y44779806D02*
X68270482Y48679806D01*
%TO.C,C_Crystal1*%
X21100494Y33515891D02*
X21252997Y33668394D01*
X21609611Y33006774D02*
X21762114Y33159277D01*
%TO.C,D37*%
X190095794Y25729758D02*
X190095794Y29629758D01*
X192095794Y25729758D02*
X190095794Y25729758D01*
X192095794Y25729758D02*
X192095794Y29629758D01*
%TO.C,R_Crystal1*%
X18077393Y37664842D02*
X18294674Y37882123D01*
X18614794Y37127441D02*
X18832075Y37344722D01*
%TO.C,D17*%
X85320530Y44779806D02*
X85320530Y48679806D01*
X87320530Y44779806D02*
X85320530Y44779806D01*
X87320530Y44779806D02*
X87320530Y48679806D01*
%TO.C,R_Flash1*%
X61130144Y67126466D02*
X61130144Y66819184D01*
X60370144Y67126466D02*
X60370144Y66819184D01*
%TO.C,SW1*%
X58465145Y68592825D02*
X58465145Y67790355D01*
X57260145Y68592825D02*
X58465145Y68592825D01*
X57260145Y68592825D02*
X57260145Y68046296D01*
X56500145Y68592825D02*
X55740145Y68592825D01*
X55740145Y68592825D02*
X55740145Y67482825D01*
X58465145Y67175295D02*
X58465145Y66372825D01*
X57260145Y66919354D02*
X57260145Y66372825D01*
X57260145Y66372825D02*
X58465145Y66372825D01*
%TO.C,D8*%
X38504782Y23085990D02*
X38504782Y19185990D01*
X36504782Y23085990D02*
X38504782Y23085990D01*
X36504782Y23085990D02*
X36504782Y19185990D01*
%TO.C,D20*%
X113895602Y63829854D02*
X113895602Y67729854D01*
X115895602Y63829854D02*
X113895602Y63829854D01*
X115895602Y63829854D02*
X115895602Y67729854D01*
%TO.C,D15*%
X66270482Y25729758D02*
X66270482Y29629758D01*
X68270482Y25729758D02*
X66270482Y25729758D01*
X68270482Y25729758D02*
X68270482Y29629758D01*
%TO.C,D31*%
X171045746Y63829854D02*
X171045746Y67729854D01*
X173045746Y63829854D02*
X171045746Y63829854D01*
X173045746Y63829854D02*
X173045746Y67729854D01*
%TO.C,C_3V-Decoup2*%
X16181314Y49051062D02*
X15965642Y49051062D01*
X16181314Y49771062D02*
X15965642Y49771062D01*
%TO.C,D13*%
X76604878Y80236134D02*
X76604878Y76336134D01*
X74604878Y80236134D02*
X76604878Y80236134D01*
X74604878Y80236134D02*
X74604878Y76336134D01*
%TO.C,D23*%
X136136278Y23085990D02*
X136136278Y19185990D01*
X134136278Y23085990D02*
X136136278Y23085990D01*
X134136278Y23085990D02*
X134136278Y19185990D01*
%TO.C,C_3V-Decoup7*%
X18690048Y51089168D02*
X18690048Y51304840D01*
X19410048Y51089168D02*
X19410048Y51304840D01*
%TO.C,D32*%
X171045746Y44779806D02*
X171045746Y48679806D01*
X173045746Y44779806D02*
X171045746Y44779806D01*
X173045746Y44779806D02*
X173045746Y48679806D01*
%TO.C,D4*%
X19454734Y23085990D02*
X19454734Y19185990D01*
X17454734Y23085990D02*
X19454734Y23085990D01*
X17454734Y23085990D02*
X17454734Y19185990D01*
%TO.C,C_3V-Decoup9*%
X24300038Y43222608D02*
X24515710Y43222608D01*
X24300038Y42502608D02*
X24515710Y42502608D01*
%TO.C,C_3V-Decoup4*%
X13800058Y43097922D02*
X13584386Y43097922D01*
X13800058Y43817922D02*
X13584386Y43817922D01*
%TO.C,D26*%
X132945650Y25729758D02*
X132945650Y29629758D01*
X134945650Y25729758D02*
X132945650Y25729758D01*
X134945650Y25729758D02*
X134945650Y29629758D01*
%TO.C,D28*%
X151995698Y44779806D02*
X151995698Y48679806D01*
X153995698Y44779806D02*
X151995698Y44779806D01*
X153995698Y44779806D02*
X153995698Y48679806D01*
%TO.C,R_DATA1*%
X18834734Y54327215D02*
X18834734Y54019933D01*
X18074734Y54327215D02*
X18074734Y54019933D01*
%TO.C,C_3V-Decoup8*%
X17028792Y36421990D02*
X17028792Y36206318D01*
X16308792Y36421990D02*
X16308792Y36206318D01*
%TO.C,C_Flash1*%
X51134661Y65079047D02*
X51134661Y65294719D01*
X51854661Y65079047D02*
X51854661Y65294719D01*
%TO.C,D10*%
X47220434Y44779806D02*
X47220434Y48679806D01*
X49220434Y44779806D02*
X47220434Y44779806D01*
X49220434Y44779806D02*
X49220434Y48679806D01*
%TO.C,D35*%
X190095794Y63829854D02*
X190095794Y67729854D01*
X192095794Y63829854D02*
X190095794Y63829854D01*
X192095794Y63829854D02*
X192095794Y67729854D01*
%TO.C,D38*%
X182570770Y23085990D02*
X182570770Y19185990D01*
X180570770Y23085990D02*
X182570770Y23085990D01*
X180570770Y23085990D02*
X180570770Y19185990D01*
%TO.C,D19*%
X112323718Y23085990D02*
X112323718Y19185990D01*
X110323718Y23085990D02*
X112323718Y23085990D01*
X110323718Y23085990D02*
X110323718Y19185990D01*
%TO.C,U3*%
X15135978Y63043284D02*
X15785978Y63043284D01*
X15135978Y63043284D02*
X14485978Y63043284D01*
X15135978Y66163284D02*
X16810978Y66163284D01*
X15135978Y66163284D02*
X14485978Y66163284D01*
%TO.C,D25*%
X132945650Y44779806D02*
X132945650Y48679806D01*
X134945650Y44779806D02*
X132945650Y44779806D01*
X134945650Y44779806D02*
X134945650Y48679806D01*
%TO.C,D11*%
X47220434Y25729758D02*
X47220434Y29629758D01*
X49220434Y25729758D02*
X47220434Y25729758D01*
X49220434Y25729758D02*
X49220434Y29629758D01*
%TO.C,C_1V-Decoup3*%
X15838164Y36421990D02*
X15838164Y36206318D01*
X15118164Y36421990D02*
X15118164Y36206318D01*
%TO.C,D18*%
X85320530Y25729758D02*
X85320530Y29629758D01*
X87320530Y25729758D02*
X85320530Y25729758D01*
X87320530Y25729758D02*
X87320530Y29629758D01*
%TO.C,D34*%
X163520722Y23085990D02*
X163520722Y19185990D01*
X161520722Y23085990D02*
X163520722Y23085990D01*
X161520722Y23085990D02*
X161520722Y19185990D01*
%TO.C,D2*%
X9120338Y45077463D02*
X9120338Y48977463D01*
X11120338Y45077463D02*
X9120338Y45077463D01*
X11120338Y45077463D02*
X11120338Y48977463D01*
%TO.C,D3*%
X18645362Y25729758D02*
X18645362Y29629758D01*
X20645362Y25729758D02*
X18645362Y25729758D01*
X20645362Y25729758D02*
X20645362Y29629758D01*
%TO.C,D29*%
X151995698Y25729758D02*
X151995698Y29629758D01*
X153995698Y25729758D02*
X151995698Y25729758D01*
X153995698Y25729758D02*
X153995698Y29629758D01*
%TO.C,D16*%
X95654926Y80236134D02*
X95654926Y76336134D01*
X93654926Y80236134D02*
X95654926Y80236134D01*
X93654926Y80236134D02*
X93654926Y76336134D01*
%TO.C,C_3V-Decoup6*%
X24300038Y42031980D02*
X24515710Y42031980D01*
X24300038Y41311980D02*
X24515710Y41311980D01*
%TO.C,D30*%
X144470674Y23085990D02*
X144470674Y19185990D01*
X142470674Y23085990D02*
X144470674Y23085990D01*
X142470674Y23085990D02*
X142470674Y19185990D01*
%TO.C,D1*%
X19454734Y80236134D02*
X19454734Y76336134D01*
X17454734Y80236134D02*
X19454734Y80236134D01*
X17454734Y80236134D02*
X17454734Y76336134D01*
%TO.C,C_3V-Decoup1*%
X15701314Y60362028D02*
X15485642Y60362028D01*
X15701314Y61082028D02*
X15485642Y61082028D01*
%TO.C,C_LD1*%
X12014116Y64243284D02*
X11798444Y64243284D01*
X12014116Y64963284D02*
X11798444Y64963284D01*
%TO.C,R_RST1*%
X6168454Y43984909D02*
X6168454Y44292191D01*
X6928454Y43984909D02*
X6928454Y44292191D01*
%TO.C,U2*%
X59875144Y60080627D02*
X59875144Y60340627D01*
X59875144Y65270627D02*
X61550144Y65270627D01*
X59875144Y65530627D02*
X59875144Y65270627D01*
X57150144Y60080627D02*
X59875144Y60080627D01*
X57150144Y60080627D02*
X54425144Y60080627D01*
X57150144Y65530627D02*
X59875144Y65530627D01*
X57150144Y65530627D02*
X54425144Y65530627D01*
X54425144Y60080627D02*
X54425144Y60340627D01*
X54425144Y65530627D02*
X54425144Y65270627D01*
%TO.C,D33*%
X171045746Y25729758D02*
X171045746Y29629758D01*
X173045746Y25729758D02*
X171045746Y25729758D01*
X173045746Y25729758D02*
X173045746Y29629758D01*
%TO.C,D36*%
X190095794Y44779806D02*
X190095794Y48679806D01*
X192095794Y44779806D02*
X190095794Y44779806D01*
X192095794Y44779806D02*
X192095794Y48679806D01*
%TO.C,D7*%
X37695410Y25729758D02*
X37695410Y29629758D01*
X39695410Y25729758D02*
X37695410Y25729758D01*
X39695410Y25729758D02*
X39695410Y29629758D01*
%TO.C,D12*%
X57554830Y23085990D02*
X57554830Y19185990D01*
X55554830Y23085990D02*
X57554830Y23085990D01*
X55554830Y23085990D02*
X55554830Y19185990D01*
%TO.C,C_1V-Decoup1*%
X16181314Y50241690D02*
X15965642Y50241690D01*
X16181314Y50961690D02*
X15965642Y50961690D01*
%TO.C,C_3V-Decoup3*%
X13629879Y47025400D02*
X13629879Y47241072D01*
X14349879Y47025400D02*
X14349879Y47241072D01*
%TO.C,D22*%
X113895602Y25729758D02*
X113895602Y29629758D01*
X115895602Y25729758D02*
X113895602Y25729758D01*
X115895602Y25729758D02*
X115895602Y29629758D01*
%TO.C,U1*%
X22660048Y40443236D02*
X22660048Y41093236D01*
X22010048Y40443236D02*
X22660048Y40443236D01*
X22010048Y47663236D02*
X22660048Y47663236D01*
X16090048Y40443236D02*
X15440048Y40443236D01*
X16090048Y47663236D02*
X15440048Y47663236D01*
X15440048Y40443236D02*
X15440048Y41093236D01*
X15440048Y47663236D02*
X15440048Y47013236D01*
%TO.C,J2*%
X3179938Y34666666D02*
X519938Y34666666D01*
X3179938Y44886666D02*
X3179938Y34666666D01*
X3179938Y44886666D02*
X519938Y44886666D01*
X3179938Y46156666D02*
X3179938Y47486666D01*
X3179938Y47486666D02*
X1849938Y47486666D01*
X519938Y44886666D02*
X519938Y34666666D01*
%TO.C,D27*%
X151995698Y63829854D02*
X151995698Y67729854D01*
X153995698Y63829854D02*
X151995698Y63829854D01*
X153995698Y63829854D02*
X153995698Y67729854D01*
%TO.C,C_Crystal2*%
X17681113Y33602088D02*
X17528610Y33754591D01*
X18190230Y34111205D02*
X18037727Y34263708D01*
%TO.C,D9*%
X57554830Y80236134D02*
X57554830Y76336134D01*
X55554830Y80236134D02*
X57554830Y80236134D01*
X55554830Y80236134D02*
X55554830Y76336134D01*
%TO.C,D24*%
X132945650Y63829854D02*
X132945650Y67729854D01*
X134945650Y63829854D02*
X132945650Y63829854D01*
X134945650Y63829854D02*
X134945650Y67729854D01*
%TO.C,C_3V-Decoup5*%
X13800058Y44288550D02*
X13584386Y44288550D01*
X13800058Y45008550D02*
X13584386Y45008550D01*
%TO.C,R_DATA2*%
X17644106Y54327215D02*
X17644106Y54019933D01*
X16884106Y54327215D02*
X16884106Y54019933D01*
%TO.C,C_LD2*%
X15701314Y61552656D02*
X15485642Y61552656D01*
X15701314Y62272656D02*
X15485642Y62272656D01*
%TO.C,J1*%
X31671328Y66213284D02*
X29171328Y66213284D01*
X29171328Y66213284D02*
X29171328Y65163284D01*
X29171328Y65163284D02*
X28181328Y65163284D01*
X33641328Y65043284D02*
X33641328Y61163284D01*
X31671328Y59993284D02*
X29171328Y59993284D01*
X29171328Y59993284D02*
X29171328Y61043284D01*
%TO.C,D21*%
X113895602Y44779806D02*
X113895602Y48679806D01*
X115895602Y44779806D02*
X113895602Y44779806D01*
X115895602Y44779806D02*
X115895602Y48679806D01*
%TO.C,Y1*%
X17659736Y35471353D02*
X20488163Y38299780D01*
X19993189Y33137900D02*
X17659736Y35471353D01*
%TO.C,D5*%
X38504782Y80236134D02*
X38504782Y76336134D01*
X36504782Y80236134D02*
X38504782Y80236134D01*
X36504782Y80236134D02*
X36504782Y76336134D01*
%TD*%
M02*
