M48
; DRILL file {KiCad 7.0.6} date Sat Oct  7 13:08:49 2023
; FORMAT={-:-/ absolute / metric / decimal}
; #@! TF.CreationDate,2023-10-07T13:08:49-04:00
; #@! TF.GenerationSoftware,Kicad,Pcbnew,7.0.6
; #@! TF.FileFunction,NonPlated,1,2,NPTH
FMAT,2
METRIC
; #@! TA.AperFunction,NonPlated,NPTH,ComponentDrill
T1C0.500
; #@! TA.AperFunction,NonPlated,NPTH,ComponentDrill
T2C1.750
; #@! TA.AperFunction,NonPlated,NPTH,ComponentDrill
T3C3.000
; #@! TA.AperFunction,NonPlated,NPTH,ComponentDrill
T4C3.048
; #@! TA.AperFunction,NonPlated,NPTH,ComponentDrill
T5C3.988
%
G90
G05
T1
X99.399Y-117.872
X100.149Y-117.872
X100.899Y-117.872
X101.649Y-117.872
X102.399Y-117.872
X103.149Y-117.872
X103.899Y-117.872
X104.649Y-117.872
X105.399Y-117.872
X106.149Y-117.872
X106.899Y-117.872
X107.649Y-117.872
T2
X46.117Y-51.197
X46.117Y-70.247
X46.117Y-89.297
X46.117Y-108.317
X48.498Y-108.317
X56.277Y-51.197
X56.277Y-70.247
X56.277Y-89.297
X56.277Y-108.317
X58.658Y-108.317
X65.167Y-51.197
X65.167Y-70.247
X65.167Y-89.297
X65.167Y-108.317
X69.929Y-108.317
X75.327Y-51.197
X75.327Y-70.247
X75.327Y-89.297
X75.327Y-108.317
X80.089Y-108.317
X84.217Y-51.197
X84.217Y-70.247
X84.217Y-89.297
X84.217Y-108.317
X91.361Y-108.317
X94.377Y-51.197
X94.377Y-70.247
X94.377Y-89.297
X94.377Y-108.317
X101.521Y-108.317
X103.267Y-51.197
X103.267Y-70.247
X103.267Y-89.297
X113.427Y-51.197
X113.427Y-70.247
X113.427Y-89.297
X117.554Y-113.08
X122.317Y-51.197
X122.317Y-70.247
X122.317Y-89.297
X124.698Y-113.08
X127.714Y-113.08
X132.477Y-51.197
X132.477Y-70.247
X132.477Y-89.297
X134.858Y-113.08
X136.604Y-113.08
X146.764Y-113.08
X150.892Y-51.197
X150.892Y-70.247
X150.892Y-89.297
X155.655Y-113.08
X158.036Y-113.08
X161.052Y-51.197
X161.052Y-70.247
X161.052Y-89.297
X165.815Y-113.08
X168.196Y-113.08
X169.942Y-51.197
X169.942Y-70.247
X169.942Y-89.297
X180.102Y-51.197
X180.102Y-70.247
X180.102Y-89.297
X188.992Y-51.197
X188.992Y-70.247
X188.992Y-89.297
X188.992Y-108.347
X199.152Y-51.197
X199.152Y-70.247
X199.152Y-89.297
X199.152Y-108.347
X208.042Y-51.197
X208.042Y-70.247
X208.042Y-89.297
X208.042Y-108.347
X218.202Y-51.197
X218.202Y-70.247
X218.202Y-89.297
X218.202Y-108.347
X227.092Y-51.197
X227.092Y-70.247
X227.092Y-89.297
X227.092Y-108.347
X237.252Y-51.197
X237.252Y-70.247
X237.252Y-89.297
X237.252Y-108.347
T3
X47.387Y-48.657
X47.387Y-67.707
X47.387Y-105.777
X48.657Y-94.377
X53.737Y-46.117
X53.737Y-65.167
X53.737Y-103.237
X55.007Y-91.837
X66.437Y-48.657
X66.437Y-67.707
X66.437Y-105.777
X67.707Y-94.377
X72.787Y-46.117
X72.787Y-65.167
X72.787Y-103.237
X74.057Y-91.837
X85.487Y-48.657
X85.487Y-67.707
X85.487Y-86.757
X85.487Y-105.777
X91.837Y-46.117
X91.837Y-65.167
X91.837Y-84.217
X91.837Y-103.237
X104.537Y-48.657
X104.537Y-67.707
X104.537Y-86.757
X110.887Y-46.117
X110.887Y-65.167
X110.887Y-84.217
X118.824Y-110.54
X123.587Y-48.657
X123.587Y-67.707
X123.587Y-86.757
X125.174Y-108.0
X129.937Y-46.117
X129.937Y-65.167
X129.937Y-84.217
X137.874Y-110.54
X144.224Y-108.0
X152.162Y-48.657
X152.162Y-67.707
X152.162Y-86.757
X156.925Y-110.54
X158.512Y-46.117
X158.512Y-65.167
X158.512Y-84.217
X163.275Y-108.0
X171.212Y-48.657
X171.212Y-67.707
X171.212Y-86.757
X177.562Y-46.117
X177.562Y-65.167
X177.562Y-84.217
X190.262Y-48.657
X190.262Y-67.707
X190.262Y-86.757
X190.262Y-105.807
X196.612Y-46.117
X196.612Y-65.167
X196.612Y-84.217
X196.612Y-103.267
X209.312Y-48.657
X209.312Y-67.707
X209.312Y-86.757
X209.312Y-105.807
X215.662Y-46.117
X215.662Y-65.167
X215.662Y-84.217
X215.662Y-103.267
X228.362Y-48.657
X228.362Y-67.707
X228.362Y-86.757
X228.362Y-105.807
X234.712Y-46.117
X234.712Y-65.167
X234.712Y-84.217
X234.712Y-103.267
T4
X110.696Y-120.065
X113.109Y-120.065
X134.572Y-120.065
X148.797Y-120.065
X170.259Y-120.065
X172.673Y-120.065
T5
X51.197Y-51.197
X51.197Y-70.247
X51.197Y-89.297
X51.197Y-108.317
X53.578Y-108.317
X70.247Y-51.197
X70.247Y-70.247
X70.247Y-89.297
X70.247Y-108.317
X75.009Y-108.317
X89.297Y-51.197
X89.297Y-70.247
X89.297Y-89.297
X89.297Y-108.317
X96.441Y-108.317
X108.347Y-51.197
X108.347Y-70.247
X108.347Y-89.297
X110.696Y-104.825
X113.109Y-104.825
X122.634Y-113.08
X127.397Y-51.197
X127.397Y-70.247
X127.397Y-89.297
X129.778Y-113.08
X134.572Y-104.825
X141.684Y-113.08
X148.797Y-104.825
X155.972Y-51.197
X155.972Y-70.247
X155.972Y-89.297
X160.735Y-113.08
X163.116Y-113.08
X170.259Y-104.825
X172.673Y-104.825
X175.022Y-51.197
X175.022Y-70.247
X175.022Y-89.297
X194.072Y-51.197
X194.072Y-70.247
X194.072Y-89.297
X194.072Y-108.347
X213.122Y-51.197
X213.122Y-70.247
X213.122Y-89.297
X213.122Y-108.347
X232.172Y-51.197
X232.172Y-70.247
X232.172Y-89.297
X232.172Y-108.347
T0
M30
