%TF.GenerationSoftware,KiCad,Pcbnew,7.0.6*%
%TF.CreationDate,2023-10-07T13:08:40-04:00*%
%TF.ProjectId,cutiepie2040-ortho-hotswap-solder-pcb,63757469-6570-4696-9532-3034302d6f72,rev?*%
%TF.SameCoordinates,Original*%
%TF.FileFunction,Soldermask,Top*%
%TF.FilePolarity,Negative*%
%FSLAX46Y46*%
G04 Gerber Fmt 4.6, Leading zero omitted, Abs format (unit mm)*
G04 Created by KiCad (PCBNEW 7.0.6) date 2023-10-07 13:08:40*
%MOMM*%
%LPD*%
G01*
G04 APERTURE LIST*
%ADD10C,0.500000*%
%ADD11C,1.750000*%
%ADD12C,3.000000*%
%ADD13C,3.987800*%
%ADD14C,3.048000*%
%ADD15R,1.050000X1.050000*%
%ADD16C,1.050000*%
%ADD17R,1.700000X1.700000*%
%ADD18O,1.700000X1.700000*%
G04 APERTURE END LIST*
D10*
%TO.C,H1*%
X99399491Y-117872172D03*
X100149491Y-117872172D03*
X100899491Y-117872172D03*
X101649491Y-117872172D03*
X102399491Y-117872172D03*
X103149491Y-117872172D03*
X103899491Y-117872172D03*
X104649491Y-117872172D03*
X105399491Y-117872172D03*
X106149491Y-117872172D03*
X106899491Y-117872172D03*
X107649491Y-117872172D03*
%TD*%
D11*
%TO.C,MX35*%
X227091918Y-51196918D03*
D12*
X228361918Y-48656918D03*
D13*
X232171918Y-51196918D03*
D12*
X234711918Y-46116918D03*
D11*
X237251918Y-51196918D03*
%TD*%
%TO.C,MX4*%
X46116918Y-108317340D03*
D12*
X47386918Y-105777340D03*
D13*
X51196918Y-108317340D03*
D12*
X53736918Y-103237340D03*
D11*
X56276918Y-108317340D03*
%TD*%
%TO.C,MX1*%
X46116918Y-51196918D03*
D12*
X47386918Y-48656918D03*
D13*
X51196918Y-51196918D03*
D12*
X53736918Y-46116918D03*
D11*
X56276918Y-51196918D03*
%TD*%
%TO.C,MX22*%
X150891918Y-89296918D03*
D12*
X152161918Y-86756918D03*
D13*
X155971918Y-89296918D03*
D12*
X158511918Y-84216918D03*
D11*
X161051918Y-89296918D03*
%TD*%
%TO.C,MX17*%
X122316918Y-70246918D03*
D12*
X123586918Y-67706918D03*
D13*
X127396918Y-70246918D03*
D12*
X129936918Y-65166918D03*
D11*
X132476918Y-70246918D03*
%TD*%
%TO.C,MX2*%
X46116918Y-70246918D03*
D12*
X47386918Y-67706918D03*
D13*
X51196918Y-70246918D03*
D12*
X53736918Y-65166918D03*
D11*
X56276918Y-70246918D03*
%TD*%
%TO.C,MX11*%
X84216918Y-89296918D03*
D12*
X85486918Y-86756918D03*
D13*
X89296918Y-89296918D03*
D12*
X91836918Y-84216918D03*
D11*
X94376918Y-89296918D03*
%TD*%
%TO.C,MX10*%
X84216918Y-70246918D03*
D12*
X85486918Y-67706918D03*
D13*
X89296918Y-70246918D03*
D12*
X91836918Y-65166918D03*
D11*
X94376918Y-70246918D03*
%TD*%
%TO.C,MX18*%
X122316918Y-89296918D03*
D12*
X123586918Y-86756918D03*
D13*
X127396918Y-89296918D03*
D12*
X129936918Y-84216918D03*
D11*
X132476918Y-89296918D03*
%TD*%
%TO.C,MX30*%
X188991918Y-108346918D03*
D12*
X190261918Y-105806918D03*
D13*
X194071918Y-108346918D03*
D12*
X196611918Y-103266918D03*
D11*
X199151918Y-108346918D03*
%TD*%
%TO.C,MX41*%
X101520706Y-108317340D03*
D13*
X96440706Y-108317340D03*
D11*
X91360706Y-108317340D03*
%TD*%
D13*
%TO.C,MX23*%
X148796510Y-104824844D03*
D14*
X148796510Y-120064844D03*
D11*
X155654510Y-113079844D03*
D12*
X156924510Y-110539844D03*
D13*
X160734510Y-113079844D03*
D12*
X163274510Y-107999844D03*
D11*
X165814510Y-113079844D03*
D13*
X172672510Y-104824844D03*
D14*
X172672510Y-120064844D03*
%TD*%
D11*
%TO.C,MX39*%
X58658170Y-108317340D03*
D13*
X53578170Y-108317340D03*
D11*
X48498170Y-108317340D03*
%TD*%
%TO.C,MX33*%
X208041918Y-89296918D03*
D12*
X209311918Y-86756918D03*
D13*
X213121918Y-89296918D03*
D12*
X215661918Y-84216918D03*
D11*
X218201918Y-89296918D03*
%TD*%
%TO.C,MX13*%
X103266918Y-51196918D03*
D12*
X104536918Y-48656918D03*
D13*
X108346918Y-51196918D03*
D12*
X110886918Y-46116918D03*
D11*
X113426918Y-51196918D03*
%TD*%
%TO.C,MX29*%
X188991918Y-89296918D03*
D12*
X190261918Y-86756918D03*
D13*
X194071918Y-89296918D03*
D12*
X196611918Y-84216918D03*
D11*
X199151918Y-89296918D03*
%TD*%
%TO.C,MX15*%
X103266918Y-89296918D03*
D12*
X104536918Y-86756918D03*
D13*
X108346918Y-89296918D03*
D12*
X110886918Y-84216918D03*
D11*
X113426918Y-89296918D03*
%TD*%
%TO.C,MX14*%
X103266918Y-70246918D03*
D12*
X104536918Y-67706918D03*
D13*
X108346918Y-70246918D03*
D12*
X110886918Y-65166918D03*
D11*
X113426918Y-70246918D03*
%TD*%
%TO.C,MX16*%
X122316918Y-51196918D03*
D12*
X123586918Y-48656918D03*
D13*
X127396918Y-51196918D03*
D12*
X129936918Y-46116918D03*
D11*
X132476918Y-51196918D03*
%TD*%
%TO.C,MX5*%
X65166918Y-51196918D03*
D12*
X66436918Y-48656918D03*
D13*
X70246918Y-51196918D03*
D12*
X72786918Y-46116918D03*
D11*
X75326918Y-51196918D03*
%TD*%
%TO.C,MX24*%
X169941918Y-51196918D03*
D12*
X171211918Y-48656918D03*
D13*
X175021918Y-51196918D03*
D12*
X177561918Y-46116918D03*
D11*
X180101918Y-51196918D03*
%TD*%
%TO.C,MX21*%
X150891918Y-70246918D03*
D12*
X152161918Y-67706918D03*
D13*
X155971918Y-70246918D03*
D12*
X158511918Y-65166918D03*
D11*
X161051918Y-70246918D03*
%TD*%
%TO.C,MX32*%
X208041918Y-70246918D03*
D12*
X209311918Y-67706918D03*
D13*
X213121918Y-70246918D03*
D12*
X215661918Y-65166918D03*
D11*
X218201918Y-70246918D03*
%TD*%
%TO.C,MX38*%
X227091918Y-108346918D03*
D12*
X228361918Y-105806918D03*
D13*
X232171918Y-108346918D03*
D12*
X234711918Y-103266918D03*
D11*
X237251918Y-108346918D03*
%TD*%
%TO.C,MX20*%
X150891918Y-51196918D03*
D12*
X152161918Y-48656918D03*
D13*
X155971918Y-51196918D03*
D12*
X158511918Y-46116918D03*
D11*
X161051918Y-51196918D03*
%TD*%
%TO.C,MX40*%
X80089438Y-108317340D03*
D13*
X75009438Y-108317340D03*
D11*
X69929438Y-108317340D03*
%TD*%
%TO.C,MX6*%
X65166918Y-70246918D03*
D12*
X66436918Y-67706918D03*
D13*
X70246918Y-70246918D03*
D12*
X72786918Y-65166918D03*
D11*
X75326918Y-70246918D03*
%TD*%
%TO.C,MX36*%
X227091918Y-70246918D03*
D12*
X228361918Y-67706918D03*
D13*
X232171918Y-70246918D03*
D12*
X234711918Y-65166918D03*
D11*
X237251918Y-70246918D03*
%TD*%
%TO.C,MX37*%
X227091918Y-89296918D03*
D12*
X228361918Y-86756918D03*
D13*
X232171918Y-89296918D03*
D12*
X234711918Y-84216918D03*
D11*
X237251918Y-89296918D03*
%TD*%
%TO.C,MX8*%
X65166934Y-108317340D03*
D12*
X66436934Y-105777340D03*
D13*
X70246934Y-108317340D03*
D12*
X72786934Y-103237340D03*
D11*
X75326934Y-108317340D03*
%TD*%
%TO.C,MX26*%
X169941918Y-89296918D03*
D12*
X171211918Y-86756918D03*
D13*
X175021918Y-89296918D03*
D12*
X177561918Y-84216918D03*
D11*
X180101918Y-89296918D03*
%TD*%
D13*
%TO.C,MX44*%
X113109494Y-104824844D03*
D14*
X113109494Y-120064844D03*
D11*
X136604494Y-113079844D03*
D12*
X137874494Y-110539844D03*
D13*
X141684494Y-113079844D03*
D12*
X144224494Y-107999844D03*
D11*
X146764494Y-113079844D03*
D13*
X170259494Y-104824844D03*
D14*
X170259494Y-120064844D03*
%TD*%
D11*
%TO.C,MX9*%
X84216918Y-51196918D03*
D12*
X85486918Y-48656918D03*
D13*
X89296918Y-51196918D03*
D12*
X91836918Y-46116918D03*
D11*
X94376918Y-51196918D03*
%TD*%
%TO.C,MX43*%
X134858234Y-113079844D03*
D13*
X129778234Y-113079844D03*
D11*
X124698234Y-113079844D03*
%TD*%
%TO.C,MX46*%
X168195762Y-113079844D03*
D13*
X163115762Y-113079844D03*
D11*
X158035762Y-113079844D03*
%TD*%
%TO.C,MX7*%
X75326918Y-89296918D03*
D12*
X74056918Y-91836918D03*
D13*
X70246918Y-89296918D03*
D12*
X67706918Y-94376918D03*
D11*
X65166918Y-89296918D03*
%TD*%
%TO.C,MX12*%
X84216950Y-108317340D03*
D12*
X85486950Y-105777340D03*
D13*
X89296950Y-108317340D03*
D12*
X91836950Y-103237340D03*
D11*
X94376950Y-108317340D03*
%TD*%
%TO.C,MX3*%
X56276918Y-89296918D03*
D12*
X55006918Y-91836918D03*
D13*
X51196918Y-89296918D03*
D12*
X48656918Y-94376918D03*
D11*
X46116918Y-89296918D03*
%TD*%
%TO.C,MX27*%
X188991918Y-51196918D03*
D12*
X190261918Y-48656918D03*
D13*
X194071918Y-51196918D03*
D12*
X196611918Y-46116918D03*
D11*
X199151918Y-51196918D03*
%TD*%
%TO.C,MX28*%
X188991918Y-70246918D03*
D12*
X190261918Y-67706918D03*
D13*
X194071918Y-70246918D03*
D12*
X196611918Y-65166918D03*
D11*
X199151918Y-70246918D03*
%TD*%
%TO.C,MX25*%
X169941918Y-70246918D03*
D12*
X171211918Y-67706918D03*
D13*
X175021918Y-70246918D03*
D12*
X177561918Y-65166918D03*
D11*
X180101918Y-70246918D03*
%TD*%
%TO.C,MX34*%
X208041918Y-108346918D03*
D12*
X209311918Y-105806918D03*
D13*
X213121918Y-108346918D03*
D12*
X215661918Y-103266918D03*
D11*
X218201918Y-108346918D03*
%TD*%
D13*
%TO.C,MX19*%
X110696478Y-104824844D03*
D14*
X110696478Y-120064844D03*
D11*
X117554478Y-113079844D03*
D12*
X118824478Y-110539844D03*
D13*
X122634478Y-113079844D03*
D12*
X125174478Y-107999844D03*
D11*
X127714478Y-113079844D03*
D13*
X134572478Y-104824844D03*
D14*
X134572478Y-120064844D03*
%TD*%
D11*
%TO.C,MX31*%
X208041918Y-51196918D03*
D12*
X209311918Y-48656918D03*
D13*
X213121918Y-51196918D03*
D12*
X215661918Y-46116918D03*
D11*
X218201918Y-51196918D03*
%TD*%
D15*
%TO.C,SW1*%
X98172125Y-55151859D03*
D16*
X99442125Y-55151859D03*
%TD*%
D17*
%TO.C,J2*%
X43521918Y-76478018D03*
D18*
X43521918Y-79018018D03*
X43521918Y-81558018D03*
X43521918Y-84098018D03*
X43521918Y-86638018D03*
%TD*%
M02*
