%TF.GenerationSoftware,KiCad,Pcbnew,7.0.6*%
%TF.CreationDate,2023-12-03T11:03:35-05:00*%
%TF.ProjectId,cutiepie2040-ortho-hotswap-solder-pcb,63757469-6570-4696-9532-3034302d6f72,rev?*%
%TF.SameCoordinates,PX27bdd2cPY74f41bc*%
%TF.FileFunction,Profile,NP*%
%FSLAX46Y46*%
G04 Gerber Fmt 4.6, Leading zero omitted, Abs format (unit mm)*
G04 Created by KiCad (PCBNEW 7.0.6) date 2023-12-03 11:03:35*
%MOMM*%
%LPD*%
G01*
G04 APERTURE LIST*
%TA.AperFunction,Profile*%
%ADD10C,0.100000*%
%TD*%
G04 APERTURE END LIST*
D10*
X142875050Y4762710D02*
X197643846Y4762710D01*
X200025110Y78581522D02*
G75*
G03*
X197643846Y80962774I-2381290J-38D01*
G01*
X200025098Y78581522D02*
X200025098Y7143962D01*
X197643846Y80962774D02*
X2381182Y80962774D01*
X142875050Y4762706D02*
G75*
G03*
X140493798Y2381458I-30J-2381222D01*
G01*
X57150144Y4762512D02*
X2381182Y4762710D01*
X-70Y78581522D02*
X-70Y7143962D01*
X71437680Y0D02*
X138112848Y0D01*
X138112546Y206D02*
G75*
G03*
X140493798Y2381458I-26J2381278D01*
G01*
X197643846Y4762706D02*
G75*
G03*
X200025098Y7143962I-26J2381278D01*
G01*
X-54Y7143962D02*
G75*
G03*
X2381182Y4762710I2381274J22D01*
G01*
X2381182Y80962774D02*
G75*
G03*
X-70Y78581522I-2J-2381250D01*
G01*
%TO.C,H1*%
X61912656Y0D02*
X69235011Y0D01*
X68069754Y3496925D02*
X68504500Y3905699D01*
X68653042Y1199822D02*
X69370171Y1199822D01*
X59531396Y2381260D02*
G75*
G03*
X57150144Y4762512I-2381253J-1D01*
G01*
X59531396Y2381260D02*
G75*
G03*
X61912648Y8I2381260J8D01*
G01*
X68504499Y3905699D02*
G75*
G03*
X66675168Y4762512I-1829338J-1524457D01*
G01*
X66675168Y4762512D02*
G75*
G03*
X66675168Y4167198I1J-297657D01*
G01*
X68069754Y3496925D02*
G75*
G03*
X66675168Y4167198I-1394636J-1115771D01*
G01*
X68653043Y1199822D02*
G75*
G03*
X69347265Y271016I2464558J1118250D01*
G01*
X69235011Y-4D02*
G75*
G03*
X69347263Y271014I0J158756D01*
G01*
X69370173Y1199823D02*
G75*
G03*
X71437680Y0I2067508J1181429D01*
G01*
%TD*%
M02*
