%TF.GenerationSoftware,KiCad,Pcbnew,7.0.6*%
%TF.CreationDate,2023-12-03T11:03:35-05:00*%
%TF.ProjectId,cutiepie2040-ortho-hotswap-solder-pcb,63757469-6570-4696-9532-3034302d6f72,rev?*%
%TF.SameCoordinates,PX27bdd2cPY74f41bc*%
%TF.FileFunction,Soldermask,Top*%
%TF.FilePolarity,Negative*%
%FSLAX46Y46*%
G04 Gerber Fmt 4.6, Leading zero omitted, Abs format (unit mm)*
G04 Created by KiCad (PCBNEW 7.0.6) date 2023-12-03 11:03:35*
%MOMM*%
%LPD*%
G01*
G04 APERTURE LIST*
%ADD10C,1.750000*%
%ADD11C,3.000000*%
%ADD12C,3.987800*%
%ADD13C,3.048000*%
%ADD14C,0.500000*%
%ADD15R,1.050000X1.050000*%
%ADD16C,1.050000*%
%ADD17R,1.700000X1.700000*%
%ADD18O,1.700000X1.700000*%
G04 APERTURE END LIST*
D10*
%TO.C,MX15*%
X61594938Y33337766D03*
D11*
X62864938Y35877766D03*
D12*
X66674938Y33337766D03*
D11*
X69214938Y38417766D03*
D10*
X71754938Y33337766D03*
%TD*%
%TO.C,MX11*%
X42544938Y33337766D03*
D11*
X43814938Y35877766D03*
D12*
X47624938Y33337766D03*
D11*
X50164938Y38417766D03*
D10*
X52704938Y33337766D03*
%TD*%
%TO.C,MX7*%
X33654938Y33337766D03*
D11*
X32384938Y30797766D03*
D12*
X28574938Y33337766D03*
D11*
X26034938Y28257766D03*
D10*
X23494938Y33337766D03*
%TD*%
%TO.C,MX3*%
X14604938Y33337766D03*
D11*
X13334938Y30797766D03*
D12*
X9524938Y33337766D03*
D11*
X6984938Y28257766D03*
D10*
X4444938Y33337766D03*
%TD*%
%TO.C,MX2*%
X4444938Y52387766D03*
D11*
X5714938Y54927766D03*
D12*
X9524938Y52387766D03*
D11*
X12064938Y57467766D03*
D10*
X14604938Y52387766D03*
%TD*%
%TO.C,MX6*%
X23494938Y52387766D03*
D11*
X24764938Y54927766D03*
D12*
X28574938Y52387766D03*
D11*
X31114938Y57467766D03*
D10*
X33654938Y52387766D03*
%TD*%
%TO.C,MX10*%
X42544938Y52387766D03*
D11*
X43814938Y54927766D03*
D12*
X47624938Y52387766D03*
D11*
X50164938Y57467766D03*
D10*
X52704938Y52387766D03*
%TD*%
%TO.C,MX14*%
X61594938Y52387766D03*
D11*
X62864938Y54927766D03*
D12*
X66674938Y52387766D03*
D11*
X69214938Y57467766D03*
D10*
X71754938Y52387766D03*
%TD*%
%TO.C,MX16*%
X80644938Y71437766D03*
D11*
X81914938Y73977766D03*
D12*
X85724938Y71437766D03*
D11*
X88264938Y76517766D03*
D10*
X90804938Y71437766D03*
%TD*%
%TO.C,MX17*%
X80644938Y52387766D03*
D11*
X81914938Y54927766D03*
D12*
X85724938Y52387766D03*
D11*
X88264938Y57467766D03*
D10*
X90804938Y52387766D03*
%TD*%
%TO.C,MX18*%
X80644938Y33337766D03*
D11*
X81914938Y35877766D03*
D12*
X85724938Y33337766D03*
D11*
X88264938Y38417766D03*
D10*
X90804938Y33337766D03*
%TD*%
%TO.C,MX4*%
X4444938Y14317344D03*
D11*
X5714938Y16857344D03*
D12*
X9524938Y14317344D03*
D11*
X12064938Y19397344D03*
D10*
X14604938Y14317344D03*
%TD*%
%TO.C,MX8*%
X23494954Y14317344D03*
D11*
X24764954Y16857344D03*
D12*
X28574954Y14317344D03*
D11*
X31114954Y19397344D03*
D10*
X33654954Y14317344D03*
%TD*%
%TO.C,MX12*%
X42544970Y14317344D03*
D11*
X43814970Y16857344D03*
D12*
X47624970Y14317344D03*
D11*
X50164970Y19397344D03*
D10*
X52704970Y14317344D03*
%TD*%
D13*
%TO.C,MX19*%
X69024498Y2569840D03*
D12*
X69024498Y17809840D03*
D10*
X75882498Y9554840D03*
D11*
X77152498Y12094840D03*
D12*
X80962498Y9554840D03*
D11*
X83502498Y14634840D03*
D10*
X86042498Y9554840D03*
D13*
X92900498Y2569840D03*
D12*
X92900498Y17809840D03*
%TD*%
%TO.C,MX23*%
X107124530Y17809840D03*
D13*
X107124530Y2569840D03*
D10*
X113982530Y9554840D03*
D11*
X115252530Y12094840D03*
D12*
X119062530Y9554840D03*
D11*
X121602530Y14634840D03*
D10*
X124142530Y9554840D03*
D12*
X131000530Y17809840D03*
D13*
X131000530Y2569840D03*
%TD*%
D10*
%TO.C,MX41*%
X59848726Y14317344D03*
D12*
X54768726Y14317344D03*
D10*
X49688726Y14317344D03*
%TD*%
D14*
%TO.C,H1*%
X57727511Y4762512D03*
X58477511Y4762512D03*
X59227511Y4762512D03*
X59977511Y4762512D03*
X60727511Y4762512D03*
X61477511Y4762512D03*
X62227511Y4762512D03*
X62977511Y4762512D03*
X63727511Y4762512D03*
X64477511Y4762512D03*
X65227511Y4762512D03*
X65977511Y4762512D03*
%TD*%
D10*
%TO.C,MX39*%
X16986190Y14317344D03*
D12*
X11906190Y14317344D03*
D10*
X6826190Y14317344D03*
%TD*%
%TO.C,MX40*%
X38417458Y14317344D03*
D12*
X33337458Y14317344D03*
D10*
X28257458Y14317344D03*
%TD*%
%TO.C,MX43*%
X93186254Y9554840D03*
D12*
X88106254Y9554840D03*
D10*
X83026254Y9554840D03*
%TD*%
%TO.C,MX46*%
X126523782Y9554840D03*
D12*
X121443782Y9554840D03*
D10*
X116363782Y9554840D03*
%TD*%
%TO.C,MX35*%
X195579938Y71437766D03*
D11*
X193039938Y76517766D03*
D12*
X190499938Y71437766D03*
D11*
X186689938Y73977766D03*
D10*
X185419938Y71437766D03*
%TD*%
%TO.C,MX1*%
X14604938Y71437766D03*
D11*
X12064938Y76517766D03*
D12*
X9524938Y71437766D03*
D11*
X5714938Y73977766D03*
D10*
X4444938Y71437766D03*
%TD*%
%TO.C,MX22*%
X119379938Y33337766D03*
D11*
X116839938Y38417766D03*
D12*
X114299938Y33337766D03*
D11*
X110489938Y35877766D03*
D10*
X109219938Y33337766D03*
%TD*%
%TO.C,MX30*%
X157479938Y14287766D03*
D11*
X154939938Y19367766D03*
D12*
X152399938Y14287766D03*
D11*
X148589938Y16827766D03*
D10*
X147319938Y14287766D03*
%TD*%
D15*
%TO.C,SW1*%
X56500145Y67482825D03*
D16*
X57770145Y67482825D03*
%TD*%
D10*
%TO.C,MX33*%
X176529938Y33337766D03*
D11*
X173989938Y38417766D03*
D12*
X171449938Y33337766D03*
D11*
X167639938Y35877766D03*
D10*
X166369938Y33337766D03*
%TD*%
%TO.C,MX13*%
X71754938Y71437766D03*
D11*
X69214938Y76517766D03*
D12*
X66674938Y71437766D03*
D11*
X62864938Y73977766D03*
D10*
X61594938Y71437766D03*
%TD*%
%TO.C,MX29*%
X157479938Y33337766D03*
D11*
X154939938Y38417766D03*
D12*
X152399938Y33337766D03*
D11*
X148589938Y35877766D03*
D10*
X147319938Y33337766D03*
%TD*%
%TO.C,MX5*%
X33654938Y71437766D03*
D11*
X31114938Y76517766D03*
D12*
X28574938Y71437766D03*
D11*
X24764938Y73977766D03*
D10*
X23494938Y71437766D03*
%TD*%
%TO.C,MX24*%
X138429938Y71437766D03*
D11*
X135889938Y76517766D03*
D12*
X133349938Y71437766D03*
D11*
X129539938Y73977766D03*
D10*
X128269938Y71437766D03*
%TD*%
%TO.C,MX21*%
X119379938Y52387766D03*
D11*
X116839938Y57467766D03*
D12*
X114299938Y52387766D03*
D11*
X110489938Y54927766D03*
D10*
X109219938Y52387766D03*
%TD*%
%TO.C,MX32*%
X176529938Y52387766D03*
D11*
X173989938Y57467766D03*
D12*
X171449938Y52387766D03*
D11*
X167639938Y54927766D03*
D10*
X166369938Y52387766D03*
%TD*%
%TO.C,MX38*%
X195579938Y14287766D03*
D11*
X193039938Y19367766D03*
D12*
X190499938Y14287766D03*
D11*
X186689938Y16827766D03*
D10*
X185419938Y14287766D03*
%TD*%
%TO.C,MX20*%
X119379938Y71437766D03*
D11*
X116839938Y76517766D03*
D12*
X114299938Y71437766D03*
D11*
X110489938Y73977766D03*
D10*
X109219938Y71437766D03*
%TD*%
%TO.C,MX36*%
X195579938Y52387766D03*
D11*
X193039938Y57467766D03*
D12*
X190499938Y52387766D03*
D11*
X186689938Y54927766D03*
D10*
X185419938Y52387766D03*
%TD*%
%TO.C,MX37*%
X195579938Y33337766D03*
D11*
X193039938Y38417766D03*
D12*
X190499938Y33337766D03*
D11*
X186689938Y35877766D03*
D10*
X185419938Y33337766D03*
%TD*%
%TO.C,MX26*%
X138429938Y33337766D03*
D11*
X135889938Y38417766D03*
D12*
X133349938Y33337766D03*
D11*
X129539938Y35877766D03*
D10*
X128269938Y33337766D03*
%TD*%
D13*
%TO.C,MX44*%
X128587514Y2569840D03*
D12*
X128587514Y17809840D03*
D10*
X105092514Y9554840D03*
D11*
X102552514Y14634840D03*
D12*
X100012514Y9554840D03*
D11*
X96202514Y12094840D03*
D10*
X94932514Y9554840D03*
D13*
X71437514Y2569840D03*
D12*
X71437514Y17809840D03*
%TD*%
D10*
%TO.C,MX9*%
X52704938Y71437766D03*
D11*
X50164938Y76517766D03*
D12*
X47624938Y71437766D03*
D11*
X43814938Y73977766D03*
D10*
X42544938Y71437766D03*
%TD*%
%TO.C,MX27*%
X157479938Y71437766D03*
D11*
X154939938Y76517766D03*
D12*
X152399938Y71437766D03*
D11*
X148589938Y73977766D03*
D10*
X147319938Y71437766D03*
%TD*%
D17*
%TO.C,J2*%
X1849938Y46156666D03*
D18*
X1849938Y43616666D03*
X1849938Y41076666D03*
X1849938Y38536666D03*
X1849938Y35996666D03*
%TD*%
D10*
%TO.C,MX28*%
X157479938Y52387766D03*
D11*
X154939938Y57467766D03*
D12*
X152399938Y52387766D03*
D11*
X148589938Y54927766D03*
D10*
X147319938Y52387766D03*
%TD*%
%TO.C,MX25*%
X138429938Y52387766D03*
D11*
X135889938Y57467766D03*
D12*
X133349938Y52387766D03*
D11*
X129539938Y54927766D03*
D10*
X128269938Y52387766D03*
%TD*%
%TO.C,MX34*%
X176529938Y14287766D03*
D11*
X173989938Y19367766D03*
D12*
X171449938Y14287766D03*
D11*
X167639938Y16827766D03*
D10*
X166369938Y14287766D03*
%TD*%
%TO.C,MX31*%
X176529938Y71437766D03*
D11*
X173989938Y76517766D03*
D12*
X171449938Y71437766D03*
D11*
X167639938Y73977766D03*
D10*
X166369938Y71437766D03*
%TD*%
M02*
