%TF.GenerationSoftware,KiCad,Pcbnew,7.0.6*%
%TF.CreationDate,2023-10-07T13:08:40-04:00*%
%TF.ProjectId,cutiepie2040-ortho-hotswap-solder-pcb,63757469-6570-4696-9532-3034302d6f72,rev?*%
%TF.SameCoordinates,Original*%
%TF.FileFunction,Legend,Bot*%
%TF.FilePolarity,Positive*%
%FSLAX46Y46*%
G04 Gerber Fmt 4.6, Leading zero omitted, Abs format (unit mm)*
G04 Created by KiCad (PCBNEW 7.0.6) date 2023-10-07 13:08:40*
%MOMM*%
%LPD*%
G01*
G04 APERTURE LIST*
%ADD10C,0.150000*%
%ADD11C,0.120000*%
G04 APERTURE END LIST*
D10*
X46924456Y-76725167D02*
X46486723Y-77162900D01*
X46486723Y-77162900D02*
X46991799Y-77196572D01*
X46991799Y-77196572D02*
X46890784Y-77297587D01*
X46890784Y-77297587D02*
X46857112Y-77398602D01*
X46857112Y-77398602D02*
X46857112Y-77465946D01*
X46857112Y-77465946D02*
X46890784Y-77566961D01*
X46890784Y-77566961D02*
X47059143Y-77735320D01*
X47059143Y-77735320D02*
X47160158Y-77768991D01*
X47160158Y-77768991D02*
X47227501Y-77768991D01*
X47227501Y-77768991D02*
X47328517Y-77735320D01*
X47328517Y-77735320D02*
X47530547Y-77533289D01*
X47530547Y-77533289D02*
X47564219Y-77432274D01*
X47564219Y-77432274D02*
X47564219Y-77364930D01*
X46284692Y-77364930D02*
X46756097Y-78307739D01*
X46756097Y-78307739D02*
X45813288Y-77836335D01*
X45644929Y-78004694D02*
X45207196Y-78442427D01*
X45207196Y-78442427D02*
X45712272Y-78476098D01*
X45712272Y-78476098D02*
X45611257Y-78577114D01*
X45611257Y-78577114D02*
X45577585Y-78678129D01*
X45577585Y-78678129D02*
X45577585Y-78745472D01*
X45577585Y-78745472D02*
X45611257Y-78846488D01*
X45611257Y-78846488D02*
X45779616Y-79014846D01*
X45779616Y-79014846D02*
X45880631Y-79048518D01*
X45880631Y-79048518D02*
X45947975Y-79048518D01*
X45947975Y-79048518D02*
X46048990Y-79014846D01*
X46048990Y-79014846D02*
X46251020Y-78812816D01*
X46251020Y-78812816D02*
X46284692Y-78711801D01*
X46284692Y-78711801D02*
X46284692Y-78644457D01*
X47143322Y-75539258D02*
X47042307Y-74966838D01*
X47547383Y-75135197D02*
X46840277Y-74428090D01*
X46840277Y-74428090D02*
X46570903Y-74697464D01*
X46570903Y-74697464D02*
X46537231Y-74798479D01*
X46537231Y-74798479D02*
X46537231Y-74865823D01*
X46537231Y-74865823D02*
X46570903Y-74966838D01*
X46570903Y-74966838D02*
X46671918Y-75067853D01*
X46671918Y-75067853D02*
X46772933Y-75101525D01*
X46772933Y-75101525D02*
X46840277Y-75101525D01*
X46840277Y-75101525D02*
X46941292Y-75067853D01*
X46941292Y-75067853D02*
X47210666Y-74798479D01*
X46840277Y-75774960D02*
X46772933Y-75909647D01*
X46772933Y-75909647D02*
X46604574Y-76078006D01*
X46604574Y-76078006D02*
X46503559Y-76111678D01*
X46503559Y-76111678D02*
X46436216Y-76111678D01*
X46436216Y-76111678D02*
X46335200Y-76078006D01*
X46335200Y-76078006D02*
X46267857Y-76010662D01*
X46267857Y-76010662D02*
X46234185Y-75909647D01*
X46234185Y-75909647D02*
X46234185Y-75842304D01*
X46234185Y-75842304D02*
X46267857Y-75741288D01*
X46267857Y-75741288D02*
X46368872Y-75572930D01*
X46368872Y-75572930D02*
X46402544Y-75471914D01*
X46402544Y-75471914D02*
X46402544Y-75404571D01*
X46402544Y-75404571D02*
X46368872Y-75303556D01*
X46368872Y-75303556D02*
X46301529Y-75236212D01*
X46301529Y-75236212D02*
X46200513Y-75202540D01*
X46200513Y-75202540D02*
X46133170Y-75202540D01*
X46133170Y-75202540D02*
X46032155Y-75236212D01*
X46032155Y-75236212D02*
X45863796Y-75404571D01*
X45863796Y-75404571D02*
X45796452Y-75539258D01*
X45560750Y-75707617D02*
X45156689Y-76111678D01*
X46065826Y-76616754D02*
X45358720Y-75909647D01*
X46621410Y-79476812D02*
X46655082Y-79375797D01*
X46655082Y-79375797D02*
X46756097Y-79274782D01*
X46756097Y-79274782D02*
X46890784Y-79207438D01*
X46890784Y-79207438D02*
X47025471Y-79207438D01*
X47025471Y-79207438D02*
X47126486Y-79241110D01*
X47126486Y-79241110D02*
X47294845Y-79342125D01*
X47294845Y-79342125D02*
X47395860Y-79443141D01*
X47395860Y-79443141D02*
X47496875Y-79611499D01*
X47496875Y-79611499D02*
X47530547Y-79712515D01*
X47530547Y-79712515D02*
X47530547Y-79847202D01*
X47530547Y-79847202D02*
X47463204Y-79981889D01*
X47463204Y-79981889D02*
X47395860Y-80049232D01*
X47395860Y-80049232D02*
X47261173Y-80116576D01*
X47261173Y-80116576D02*
X47193830Y-80116576D01*
X47193830Y-80116576D02*
X46958127Y-79880873D01*
X46958127Y-79880873D02*
X47092814Y-79746186D01*
X46958127Y-80486965D02*
X46251020Y-79779858D01*
X46251020Y-79779858D02*
X46554066Y-80891026D01*
X46554066Y-80891026D02*
X45846959Y-80183919D01*
X46217349Y-81227743D02*
X45510242Y-80520637D01*
X45510242Y-80520637D02*
X45341883Y-80688995D01*
X45341883Y-80688995D02*
X45274540Y-80823682D01*
X45274540Y-80823682D02*
X45274540Y-80958369D01*
X45274540Y-80958369D02*
X45308211Y-81059385D01*
X45308211Y-81059385D02*
X45409227Y-81227743D01*
X45409227Y-81227743D02*
X45510242Y-81328759D01*
X45510242Y-81328759D02*
X45678601Y-81429774D01*
X45678601Y-81429774D02*
X45779616Y-81463446D01*
X45779616Y-81463446D02*
X45914303Y-81463446D01*
X45914303Y-81463446D02*
X46048990Y-81396102D01*
X46048990Y-81396102D02*
X46217349Y-81227743D01*
X48917148Y-83223113D02*
X48849804Y-83357800D01*
X48849804Y-83357800D02*
X48681445Y-83526159D01*
X48681445Y-83526159D02*
X48580430Y-83559831D01*
X48580430Y-83559831D02*
X48513087Y-83559831D01*
X48513087Y-83559831D02*
X48412071Y-83526159D01*
X48412071Y-83526159D02*
X48344728Y-83458815D01*
X48344728Y-83458815D02*
X48311056Y-83357800D01*
X48311056Y-83357800D02*
X48311056Y-83290457D01*
X48311056Y-83290457D02*
X48344728Y-83189441D01*
X48344728Y-83189441D02*
X48445743Y-83021083D01*
X48445743Y-83021083D02*
X48479415Y-82920067D01*
X48479415Y-82920067D02*
X48479415Y-82852724D01*
X48479415Y-82852724D02*
X48445743Y-82751709D01*
X48445743Y-82751709D02*
X48378400Y-82684365D01*
X48378400Y-82684365D02*
X48277384Y-82650693D01*
X48277384Y-82650693D02*
X48210041Y-82650693D01*
X48210041Y-82650693D02*
X48109026Y-82684365D01*
X48109026Y-82684365D02*
X47940667Y-82852724D01*
X47940667Y-82852724D02*
X47873323Y-82987411D01*
X47603949Y-83189441D02*
X48142697Y-84064907D01*
X48142697Y-84064907D02*
X47502934Y-83694518D01*
X47502934Y-83694518D02*
X47873323Y-84334281D01*
X47873323Y-84334281D02*
X46997858Y-83795533D01*
X46964186Y-85108731D02*
X47031530Y-85108731D01*
X47031530Y-85108731D02*
X47166217Y-85041388D01*
X47166217Y-85041388D02*
X47233560Y-84974044D01*
X47233560Y-84974044D02*
X47300904Y-84839357D01*
X47300904Y-84839357D02*
X47300904Y-84704670D01*
X47300904Y-84704670D02*
X47267232Y-84603655D01*
X47267232Y-84603655D02*
X47166217Y-84435296D01*
X47166217Y-84435296D02*
X47065201Y-84334281D01*
X47065201Y-84334281D02*
X46896843Y-84233266D01*
X46896843Y-84233266D02*
X46795827Y-84199594D01*
X46795827Y-84199594D02*
X46661140Y-84199594D01*
X46661140Y-84199594D02*
X46526453Y-84266937D01*
X46526453Y-84266937D02*
X46459110Y-84334281D01*
X46459110Y-84334281D02*
X46391766Y-84468968D01*
X46391766Y-84468968D02*
X46391766Y-84536311D01*
X46391766Y-85815838D02*
X46728484Y-85479120D01*
X46728484Y-85479120D02*
X46021377Y-84772014D01*
X46156064Y-86051540D02*
X45448957Y-85344434D01*
X45752003Y-86455601D02*
X45650988Y-85748495D01*
X45044896Y-85748495D02*
X45853018Y-85748495D01*
X48816132Y-80942873D02*
X48748788Y-81077560D01*
X48748788Y-81077560D02*
X48580429Y-81245919D01*
X48580429Y-81245919D02*
X48479414Y-81279591D01*
X48479414Y-81279591D02*
X48412071Y-81279591D01*
X48412071Y-81279591D02*
X48311055Y-81245919D01*
X48311055Y-81245919D02*
X48243712Y-81178575D01*
X48243712Y-81178575D02*
X48210040Y-81077560D01*
X48210040Y-81077560D02*
X48210040Y-81010217D01*
X48210040Y-81010217D02*
X48243712Y-80909201D01*
X48243712Y-80909201D02*
X48344727Y-80740843D01*
X48344727Y-80740843D02*
X48378399Y-80639827D01*
X48378399Y-80639827D02*
X48378399Y-80572484D01*
X48378399Y-80572484D02*
X48344727Y-80471468D01*
X48344727Y-80471468D02*
X48277384Y-80404125D01*
X48277384Y-80404125D02*
X48176368Y-80370453D01*
X48176368Y-80370453D02*
X48109025Y-80370453D01*
X48109025Y-80370453D02*
X48008010Y-80404125D01*
X48008010Y-80404125D02*
X47839651Y-80572484D01*
X47839651Y-80572484D02*
X47772307Y-80707171D01*
X47502933Y-80909201D02*
X48041681Y-81784667D01*
X48041681Y-81784667D02*
X47401918Y-81414278D01*
X47401918Y-81414278D02*
X47772307Y-82054041D01*
X47772307Y-82054041D02*
X46896842Y-81515293D01*
X47334575Y-82491774D02*
X46627468Y-81784667D01*
X46627468Y-81784667D02*
X46459109Y-81953025D01*
X46459109Y-81953025D02*
X46391766Y-82087712D01*
X46391766Y-82087712D02*
X46391766Y-82222400D01*
X46391766Y-82222400D02*
X46425437Y-82323415D01*
X46425437Y-82323415D02*
X46526453Y-82491774D01*
X46526453Y-82491774D02*
X46627468Y-82592789D01*
X46627468Y-82592789D02*
X46795827Y-82693804D01*
X46795827Y-82693804D02*
X46896842Y-82727476D01*
X46896842Y-82727476D02*
X47031529Y-82727476D01*
X47031529Y-82727476D02*
X47166216Y-82660132D01*
X47166216Y-82660132D02*
X47334575Y-82491774D01*
X46627468Y-83198880D02*
X45920361Y-82491774D01*
X45448957Y-82963178D02*
X45314270Y-83097865D01*
X45314270Y-83097865D02*
X45280598Y-83198880D01*
X45280598Y-83198880D02*
X45280598Y-83333567D01*
X45280598Y-83333567D02*
X45381614Y-83501926D01*
X45381614Y-83501926D02*
X45617316Y-83737628D01*
X45617316Y-83737628D02*
X45785675Y-83838643D01*
X45785675Y-83838643D02*
X45920362Y-83838643D01*
X45920362Y-83838643D02*
X46021377Y-83804971D01*
X46021377Y-83804971D02*
X46156064Y-83670284D01*
X46156064Y-83670284D02*
X46189736Y-83569269D01*
X46189736Y-83569269D02*
X46189736Y-83434582D01*
X46189736Y-83434582D02*
X46088720Y-83266223D01*
X46088720Y-83266223D02*
X45853018Y-83030521D01*
X45853018Y-83030521D02*
X45684659Y-82929506D01*
X45684659Y-82929506D02*
X45549972Y-82929506D01*
X45549972Y-82929506D02*
X45448957Y-82963178D01*
X100179266Y-52913955D02*
X100036409Y-52961574D01*
X100036409Y-52961574D02*
X99988790Y-53009193D01*
X99988790Y-53009193D02*
X99941171Y-53104431D01*
X99941171Y-53104431D02*
X99941171Y-53247288D01*
X99941171Y-53247288D02*
X99988790Y-53342526D01*
X99988790Y-53342526D02*
X100036409Y-53390146D01*
X100036409Y-53390146D02*
X100131647Y-53437765D01*
X100131647Y-53437765D02*
X100512599Y-53437765D01*
X100512599Y-53437765D02*
X100512599Y-52437765D01*
X100512599Y-52437765D02*
X100179266Y-52437765D01*
X100179266Y-52437765D02*
X100084028Y-52485384D01*
X100084028Y-52485384D02*
X100036409Y-52533003D01*
X100036409Y-52533003D02*
X99988790Y-52628241D01*
X99988790Y-52628241D02*
X99988790Y-52723479D01*
X99988790Y-52723479D02*
X100036409Y-52818717D01*
X100036409Y-52818717D02*
X100084028Y-52866336D01*
X100084028Y-52866336D02*
X100179266Y-52913955D01*
X100179266Y-52913955D02*
X100512599Y-52913955D01*
X99322123Y-52437765D02*
X99131647Y-52437765D01*
X99131647Y-52437765D02*
X99036409Y-52485384D01*
X99036409Y-52485384D02*
X98941171Y-52580622D01*
X98941171Y-52580622D02*
X98893552Y-52771098D01*
X98893552Y-52771098D02*
X98893552Y-53104431D01*
X98893552Y-53104431D02*
X98941171Y-53294907D01*
X98941171Y-53294907D02*
X99036409Y-53390146D01*
X99036409Y-53390146D02*
X99131647Y-53437765D01*
X99131647Y-53437765D02*
X99322123Y-53437765D01*
X99322123Y-53437765D02*
X99417361Y-53390146D01*
X99417361Y-53390146D02*
X99512599Y-53294907D01*
X99512599Y-53294907D02*
X99560218Y-53104431D01*
X99560218Y-53104431D02*
X99560218Y-52771098D01*
X99560218Y-52771098D02*
X99512599Y-52580622D01*
X99512599Y-52580622D02*
X99417361Y-52485384D01*
X99417361Y-52485384D02*
X99322123Y-52437765D01*
X98274504Y-52437765D02*
X98084028Y-52437765D01*
X98084028Y-52437765D02*
X97988790Y-52485384D01*
X97988790Y-52485384D02*
X97893552Y-52580622D01*
X97893552Y-52580622D02*
X97845933Y-52771098D01*
X97845933Y-52771098D02*
X97845933Y-53104431D01*
X97845933Y-53104431D02*
X97893552Y-53294907D01*
X97893552Y-53294907D02*
X97988790Y-53390146D01*
X97988790Y-53390146D02*
X98084028Y-53437765D01*
X98084028Y-53437765D02*
X98274504Y-53437765D01*
X98274504Y-53437765D02*
X98369742Y-53390146D01*
X98369742Y-53390146D02*
X98464980Y-53294907D01*
X98464980Y-53294907D02*
X98512599Y-53104431D01*
X98512599Y-53104431D02*
X98512599Y-52771098D01*
X98512599Y-52771098D02*
X98464980Y-52580622D01*
X98464980Y-52580622D02*
X98369742Y-52485384D01*
X98369742Y-52485384D02*
X98274504Y-52437765D01*
X97560218Y-52437765D02*
X96988790Y-52437765D01*
X97274504Y-53437765D02*
X97274504Y-52437765D01*
X61483932Y-73216267D02*
X61483932Y-74025790D01*
X61483932Y-74025790D02*
X61436313Y-74121028D01*
X61436313Y-74121028D02*
X61388694Y-74168648D01*
X61388694Y-74168648D02*
X61293456Y-74216267D01*
X61293456Y-74216267D02*
X61102980Y-74216267D01*
X61102980Y-74216267D02*
X61007742Y-74168648D01*
X61007742Y-74168648D02*
X60960123Y-74121028D01*
X60960123Y-74121028D02*
X60912504Y-74025790D01*
X60912504Y-74025790D02*
X60912504Y-73216267D01*
X59912504Y-74216267D02*
X60483932Y-74216267D01*
X60198218Y-74216267D02*
X60198218Y-73216267D01*
X60198218Y-73216267D02*
X60293456Y-73359124D01*
X60293456Y-73359124D02*
X60388694Y-73454362D01*
X60388694Y-73454362D02*
X60483932Y-73501981D01*
D11*
%TO.C,C_1V-Decoup2*%
X61552656Y-71545516D02*
X61552656Y-71329844D01*
X62272656Y-71545516D02*
X62272656Y-71329844D01*
%TO.C,D6*%
X69842366Y-77854878D02*
X69842366Y-73954878D01*
X71842366Y-77854878D02*
X69842366Y-77854878D01*
X71842366Y-77854878D02*
X71842366Y-73954878D01*
%TO.C,D14*%
X107942462Y-77854878D02*
X107942462Y-73954878D01*
X109942462Y-77854878D02*
X107942462Y-77854878D01*
X109942462Y-77854878D02*
X109942462Y-73954878D01*
%TO.C,C_Crystal1*%
X62772474Y-89118793D02*
X62924977Y-88966290D01*
X63281591Y-89627910D02*
X63434094Y-89475407D01*
%TO.C,D37*%
X231767774Y-96904926D02*
X231767774Y-93004926D01*
X233767774Y-96904926D02*
X231767774Y-96904926D01*
X233767774Y-96904926D02*
X233767774Y-93004926D01*
%TO.C,R_Crystal1*%
X59749373Y-84969842D02*
X59966654Y-84752561D01*
X60286774Y-85507243D02*
X60504055Y-85289962D01*
%TO.C,D17*%
X126992510Y-77854878D02*
X126992510Y-73954878D01*
X128992510Y-77854878D02*
X126992510Y-77854878D01*
X128992510Y-77854878D02*
X128992510Y-73954878D01*
%TO.C,R_Flash1*%
X102802124Y-55508218D02*
X102802124Y-55815500D01*
X102042124Y-55508218D02*
X102042124Y-55815500D01*
%TO.C,SW1*%
X100137125Y-54041859D02*
X100137125Y-54844329D01*
X98932125Y-54041859D02*
X100137125Y-54041859D01*
X98932125Y-54041859D02*
X98932125Y-54588388D01*
X98172125Y-54041859D02*
X97412125Y-54041859D01*
X97412125Y-54041859D02*
X97412125Y-55151859D01*
X100137125Y-55459389D02*
X100137125Y-56261859D01*
X98932125Y-55715330D02*
X98932125Y-56261859D01*
X98932125Y-56261859D02*
X100137125Y-56261859D01*
%TO.C,D8*%
X80176762Y-99548694D02*
X80176762Y-103448694D01*
X78176762Y-99548694D02*
X80176762Y-99548694D01*
X78176762Y-99548694D02*
X78176762Y-103448694D01*
%TO.C,D20*%
X155567582Y-58804830D02*
X155567582Y-54904830D01*
X157567582Y-58804830D02*
X155567582Y-58804830D01*
X157567582Y-58804830D02*
X157567582Y-54904830D01*
%TO.C,D15*%
X107942462Y-96904926D02*
X107942462Y-93004926D01*
X109942462Y-96904926D02*
X107942462Y-96904926D01*
X109942462Y-96904926D02*
X109942462Y-93004926D01*
%TO.C,D31*%
X212717726Y-58804830D02*
X212717726Y-54904830D01*
X214717726Y-58804830D02*
X212717726Y-58804830D01*
X214717726Y-58804830D02*
X214717726Y-54904830D01*
%TO.C,C_3V-Decoup2*%
X57853294Y-73583622D02*
X57637622Y-73583622D01*
X57853294Y-72863622D02*
X57637622Y-72863622D01*
%TO.C,D13*%
X118276858Y-42398550D02*
X118276858Y-46298550D01*
X116276858Y-42398550D02*
X118276858Y-42398550D01*
X116276858Y-42398550D02*
X116276858Y-46298550D01*
%TO.C,D23*%
X177808258Y-99548694D02*
X177808258Y-103448694D01*
X175808258Y-99548694D02*
X177808258Y-99548694D01*
X175808258Y-99548694D02*
X175808258Y-103448694D01*
%TO.C,C_3V-Decoup7*%
X60362028Y-71545516D02*
X60362028Y-71329844D01*
X61082028Y-71545516D02*
X61082028Y-71329844D01*
%TO.C,D32*%
X212717726Y-77854878D02*
X212717726Y-73954878D01*
X214717726Y-77854878D02*
X212717726Y-77854878D01*
X214717726Y-77854878D02*
X214717726Y-73954878D01*
%TO.C,D4*%
X61126714Y-99548694D02*
X61126714Y-103448694D01*
X59126714Y-99548694D02*
X61126714Y-99548694D01*
X59126714Y-99548694D02*
X59126714Y-103448694D01*
%TO.C,C_3V-Decoup9*%
X65972018Y-79412076D02*
X66187690Y-79412076D01*
X65972018Y-80132076D02*
X66187690Y-80132076D01*
%TO.C,C_3V-Decoup4*%
X55472038Y-79536762D02*
X55256366Y-79536762D01*
X55472038Y-78816762D02*
X55256366Y-78816762D01*
%TO.C,D26*%
X174617630Y-96904926D02*
X174617630Y-93004926D01*
X176617630Y-96904926D02*
X174617630Y-96904926D01*
X176617630Y-96904926D02*
X176617630Y-93004926D01*
%TO.C,D28*%
X193667678Y-77854878D02*
X193667678Y-73954878D01*
X195667678Y-77854878D02*
X193667678Y-77854878D01*
X195667678Y-77854878D02*
X195667678Y-73954878D01*
%TO.C,R_DATA1*%
X60506714Y-68307469D02*
X60506714Y-68614751D01*
X59746714Y-68307469D02*
X59746714Y-68614751D01*
%TO.C,C_3V-Decoup8*%
X58700772Y-86212694D02*
X58700772Y-86428366D01*
X57980772Y-86212694D02*
X57980772Y-86428366D01*
%TO.C,C_Flash1*%
X92806641Y-57555637D02*
X92806641Y-57339965D01*
X93526641Y-57555637D02*
X93526641Y-57339965D01*
%TO.C,D10*%
X88892414Y-77854878D02*
X88892414Y-73954878D01*
X90892414Y-77854878D02*
X88892414Y-77854878D01*
X90892414Y-77854878D02*
X90892414Y-73954878D01*
%TO.C,D35*%
X231767774Y-58804830D02*
X231767774Y-54904830D01*
X233767774Y-58804830D02*
X231767774Y-58804830D01*
X233767774Y-58804830D02*
X233767774Y-54904830D01*
%TO.C,D38*%
X224242750Y-99548694D02*
X224242750Y-103448694D01*
X222242750Y-99548694D02*
X224242750Y-99548694D01*
X222242750Y-99548694D02*
X222242750Y-103448694D01*
%TO.C,D19*%
X153995698Y-99548694D02*
X153995698Y-103448694D01*
X151995698Y-99548694D02*
X153995698Y-99548694D01*
X151995698Y-99548694D02*
X151995698Y-103448694D01*
%TO.C,U3*%
X56807958Y-59591400D02*
X57457958Y-59591400D01*
X56807958Y-59591400D02*
X56157958Y-59591400D01*
X56807958Y-56471400D02*
X58482958Y-56471400D01*
X56807958Y-56471400D02*
X56157958Y-56471400D01*
%TO.C,D25*%
X174617630Y-77854878D02*
X174617630Y-73954878D01*
X176617630Y-77854878D02*
X174617630Y-77854878D01*
X176617630Y-77854878D02*
X176617630Y-73954878D01*
%TO.C,D11*%
X88892414Y-96904926D02*
X88892414Y-93004926D01*
X90892414Y-96904926D02*
X88892414Y-96904926D01*
X90892414Y-96904926D02*
X90892414Y-93004926D01*
%TO.C,C_1V-Decoup3*%
X57510144Y-86212694D02*
X57510144Y-86428366D01*
X56790144Y-86212694D02*
X56790144Y-86428366D01*
%TO.C,D18*%
X126992510Y-96904926D02*
X126992510Y-93004926D01*
X128992510Y-96904926D02*
X126992510Y-96904926D01*
X128992510Y-96904926D02*
X128992510Y-93004926D01*
%TO.C,D34*%
X205192702Y-99548694D02*
X205192702Y-103448694D01*
X203192702Y-99548694D02*
X205192702Y-99548694D01*
X203192702Y-99548694D02*
X203192702Y-103448694D01*
%TO.C,D2*%
X50792318Y-77557221D02*
X50792318Y-73657221D01*
X52792318Y-77557221D02*
X50792318Y-77557221D01*
X52792318Y-77557221D02*
X52792318Y-73657221D01*
%TO.C,D3*%
X60317342Y-96904926D02*
X60317342Y-93004926D01*
X62317342Y-96904926D02*
X60317342Y-96904926D01*
X62317342Y-96904926D02*
X62317342Y-93004926D01*
%TO.C,D29*%
X193667678Y-96904926D02*
X193667678Y-93004926D01*
X195667678Y-96904926D02*
X193667678Y-96904926D01*
X195667678Y-96904926D02*
X195667678Y-93004926D01*
%TO.C,D16*%
X137326906Y-42398550D02*
X137326906Y-46298550D01*
X135326906Y-42398550D02*
X137326906Y-42398550D01*
X135326906Y-42398550D02*
X135326906Y-46298550D01*
%TO.C,C_3V-Decoup6*%
X65972018Y-80602704D02*
X66187690Y-80602704D01*
X65972018Y-81322704D02*
X66187690Y-81322704D01*
%TO.C,D30*%
X186142654Y-99548694D02*
X186142654Y-103448694D01*
X184142654Y-99548694D02*
X186142654Y-99548694D01*
X184142654Y-99548694D02*
X184142654Y-103448694D01*
%TO.C,D1*%
X61126714Y-42398550D02*
X61126714Y-46298550D01*
X59126714Y-42398550D02*
X61126714Y-42398550D01*
X59126714Y-42398550D02*
X59126714Y-46298550D01*
%TO.C,C_3V-Decoup1*%
X57373294Y-62272656D02*
X57157622Y-62272656D01*
X57373294Y-61552656D02*
X57157622Y-61552656D01*
%TO.C,C_LD1*%
X53686096Y-58391400D02*
X53470424Y-58391400D01*
X53686096Y-57671400D02*
X53470424Y-57671400D01*
%TO.C,R_RST1*%
X47840434Y-78649775D02*
X47840434Y-78342493D01*
X48600434Y-78649775D02*
X48600434Y-78342493D01*
%TO.C,U2*%
X101547124Y-62554057D02*
X101547124Y-62294057D01*
X101547124Y-57364057D02*
X103222124Y-57364057D01*
X101547124Y-57104057D02*
X101547124Y-57364057D01*
X98822124Y-62554057D02*
X101547124Y-62554057D01*
X98822124Y-62554057D02*
X96097124Y-62554057D01*
X98822124Y-57104057D02*
X101547124Y-57104057D01*
X98822124Y-57104057D02*
X96097124Y-57104057D01*
X96097124Y-62554057D02*
X96097124Y-62294057D01*
X96097124Y-57104057D02*
X96097124Y-57364057D01*
%TO.C,D33*%
X212717726Y-96904926D02*
X212717726Y-93004926D01*
X214717726Y-96904926D02*
X212717726Y-96904926D01*
X214717726Y-96904926D02*
X214717726Y-93004926D01*
%TO.C,D36*%
X231767774Y-77854878D02*
X231767774Y-73954878D01*
X233767774Y-77854878D02*
X231767774Y-77854878D01*
X233767774Y-77854878D02*
X233767774Y-73954878D01*
%TO.C,D7*%
X79367390Y-96904926D02*
X79367390Y-93004926D01*
X81367390Y-96904926D02*
X79367390Y-96904926D01*
X81367390Y-96904926D02*
X81367390Y-93004926D01*
%TO.C,D12*%
X99226810Y-99548694D02*
X99226810Y-103448694D01*
X97226810Y-99548694D02*
X99226810Y-99548694D01*
X97226810Y-99548694D02*
X97226810Y-103448694D01*
%TO.C,C_1V-Decoup1*%
X57853294Y-72392994D02*
X57637622Y-72392994D01*
X57853294Y-71672994D02*
X57637622Y-71672994D01*
%TO.C,C_3V-Decoup3*%
X55301859Y-75609284D02*
X55301859Y-75393612D01*
X56021859Y-75609284D02*
X56021859Y-75393612D01*
%TO.C,D22*%
X155567582Y-96904926D02*
X155567582Y-93004926D01*
X157567582Y-96904926D02*
X155567582Y-96904926D01*
X157567582Y-96904926D02*
X157567582Y-93004926D01*
%TO.C,U1*%
X64332028Y-82191448D02*
X64332028Y-81541448D01*
X63682028Y-82191448D02*
X64332028Y-82191448D01*
X63682028Y-74971448D02*
X64332028Y-74971448D01*
X57762028Y-82191448D02*
X57112028Y-82191448D01*
X57762028Y-74971448D02*
X57112028Y-74971448D01*
X57112028Y-82191448D02*
X57112028Y-81541448D01*
X57112028Y-74971448D02*
X57112028Y-75621448D01*
%TO.C,J2*%
X44851918Y-87968018D02*
X42191918Y-87968018D01*
X44851918Y-77748018D02*
X44851918Y-87968018D01*
X44851918Y-77748018D02*
X42191918Y-77748018D01*
X44851918Y-76478018D02*
X44851918Y-75148018D01*
X44851918Y-75148018D02*
X43521918Y-75148018D01*
X42191918Y-77748018D02*
X42191918Y-87968018D01*
%TO.C,D27*%
X193667678Y-58804830D02*
X193667678Y-54904830D01*
X195667678Y-58804830D02*
X193667678Y-58804830D01*
X195667678Y-58804830D02*
X195667678Y-54904830D01*
%TO.C,C_Crystal2*%
X59353093Y-89032596D02*
X59200590Y-88880093D01*
X59862210Y-88523479D02*
X59709707Y-88370976D01*
%TO.C,D9*%
X99226810Y-42398550D02*
X99226810Y-46298550D01*
X97226810Y-42398550D02*
X99226810Y-42398550D01*
X97226810Y-42398550D02*
X97226810Y-46298550D01*
%TO.C,D24*%
X174617630Y-58804830D02*
X174617630Y-54904830D01*
X176617630Y-58804830D02*
X174617630Y-58804830D01*
X176617630Y-58804830D02*
X176617630Y-54904830D01*
%TO.C,C_3V-Decoup5*%
X55472038Y-78346134D02*
X55256366Y-78346134D01*
X55472038Y-77626134D02*
X55256366Y-77626134D01*
%TO.C,R_DATA2*%
X59316086Y-68307469D02*
X59316086Y-68614751D01*
X58556086Y-68307469D02*
X58556086Y-68614751D01*
%TO.C,C_LD2*%
X57373294Y-61082028D02*
X57157622Y-61082028D01*
X57373294Y-60362028D02*
X57157622Y-60362028D01*
%TO.C,J1*%
X73343308Y-56421400D02*
X70843308Y-56421400D01*
X70843308Y-56421400D02*
X70843308Y-57471400D01*
X70843308Y-57471400D02*
X69853308Y-57471400D01*
X75313308Y-57591400D02*
X75313308Y-61471400D01*
X73343308Y-62641400D02*
X70843308Y-62641400D01*
X70843308Y-62641400D02*
X70843308Y-61591400D01*
%TO.C,D21*%
X155567582Y-77854878D02*
X155567582Y-73954878D01*
X157567582Y-77854878D02*
X155567582Y-77854878D01*
X157567582Y-77854878D02*
X157567582Y-73954878D01*
%TO.C,Y1*%
X59331716Y-87163331D02*
X62160143Y-84334904D01*
X61665169Y-89496784D02*
X59331716Y-87163331D01*
%TO.C,D5*%
X80176762Y-42398550D02*
X80176762Y-46298550D01*
X78176762Y-42398550D02*
X80176762Y-42398550D01*
X78176762Y-42398550D02*
X78176762Y-46298550D01*
%TD*%
M02*
