%TF.GenerationSoftware,KiCad,Pcbnew,7.0.6*%
%TF.CreationDate,2023-12-03T11:03:35-05:00*%
%TF.ProjectId,cutiepie2040-ortho-hotswap-solder-pcb,63757469-6570-4696-9532-3034302d6f72,rev?*%
%TF.SameCoordinates,PX27bdd2cPY74f41bc*%
%TF.FileFunction,Paste,Bot*%
%TF.FilePolarity,Positive*%
%FSLAX46Y46*%
G04 Gerber Fmt 4.6, Leading zero omitted, Abs format (unit mm)*
G04 Created by KiCad (PCBNEW 7.0.6) date 2023-12-03 11:03:35*
%MOMM*%
%LPD*%
G01*
G04 APERTURE LIST*
G04 Aperture macros list*
%AMRoundRect*
0 Rectangle with rounded corners*
0 $1 Rounding radius*
0 $2 $3 $4 $5 $6 $7 $8 $9 X,Y pos of 4 corners*
0 Add a 4 corners polygon primitive as box body*
4,1,4,$2,$3,$4,$5,$6,$7,$8,$9,$2,$3,0*
0 Add four circle primitives for the rounded corners*
1,1,$1+$1,$2,$3*
1,1,$1+$1,$4,$5*
1,1,$1+$1,$6,$7*
1,1,$1+$1,$8,$9*
0 Add four rect primitives between the rounded corners*
20,1,$1+$1,$2,$3,$4,$5,0*
20,1,$1+$1,$4,$5,$6,$7,0*
20,1,$1+$1,$6,$7,$8,$9,0*
20,1,$1+$1,$8,$9,$2,$3,0*%
%AMRotRect*
0 Rectangle, with rotation*
0 The origin of the aperture is its center*
0 $1 length*
0 $2 width*
0 $3 Rotation angle, in degrees counterclockwise*
0 Add horizontal line*
21,1,$1,$2,0,0,$3*%
G04 Aperture macros list end*
%ADD10R,2.550000X2.500000*%
%ADD11RoundRect,0.140000X0.170000X-0.140000X0.170000X0.140000X-0.170000X0.140000X-0.170000X-0.140000X0*%
%ADD12R,1.200000X0.900000*%
%ADD13RoundRect,0.140000X0.021213X-0.219203X0.219203X-0.021213X-0.021213X0.219203X-0.219203X0.021213X0*%
%ADD14RoundRect,0.135000X0.035355X-0.226274X0.226274X-0.035355X-0.035355X0.226274X-0.226274X0.035355X0*%
%ADD15RoundRect,0.135000X-0.185000X0.135000X-0.185000X-0.135000X0.185000X-0.135000X0.185000X0.135000X0*%
%ADD16RoundRect,0.140000X0.140000X0.170000X-0.140000X0.170000X-0.140000X-0.170000X0.140000X-0.170000X0*%
%ADD17RoundRect,0.140000X-0.140000X-0.170000X0.140000X-0.170000X0.140000X0.170000X-0.140000X0.170000X0*%
%ADD18RoundRect,0.140000X-0.170000X0.140000X-0.170000X-0.140000X0.170000X-0.140000X0.170000X0.140000X0*%
%ADD19RoundRect,0.150000X0.587500X0.150000X-0.587500X0.150000X-0.587500X-0.150000X0.587500X-0.150000X0*%
%ADD20R,2.550000X2.170000*%
%ADD21RoundRect,0.135000X0.185000X-0.135000X0.185000X0.135000X-0.185000X0.135000X-0.185000X-0.135000X0*%
%ADD22RoundRect,0.150000X0.650000X0.150000X-0.650000X0.150000X-0.650000X-0.150000X0.650000X-0.150000X0*%
%ADD23RoundRect,0.250000X0.292217X0.292217X-0.292217X0.292217X-0.292217X-0.292217X0.292217X-0.292217X0*%
%ADD24RoundRect,0.050000X0.387500X0.050000X-0.387500X0.050000X-0.387500X-0.050000X0.387500X-0.050000X0*%
%ADD25RoundRect,0.050000X0.050000X0.387500X-0.050000X0.387500X-0.050000X-0.387500X0.050000X-0.387500X0*%
%ADD26RoundRect,0.140000X0.219203X0.021213X0.021213X0.219203X-0.219203X-0.021213X-0.021213X-0.219203X0*%
%ADD27RoundRect,0.150000X-0.625000X0.150000X-0.625000X-0.150000X0.625000X-0.150000X0.625000X0.150000X0*%
%ADD28RoundRect,0.250000X-0.650000X0.350000X-0.650000X-0.350000X0.650000X-0.350000X0.650000X0.350000X0*%
%ADD29RotRect,1.400000X1.200000X45.000000*%
G04 APERTURE END LIST*
D10*
%TO.C,MX15*%
X59589938Y35877766D03*
X72516938Y38417766D03*
%TD*%
%TO.C,MX11*%
X40539938Y35877766D03*
X53466938Y38417766D03*
%TD*%
%TO.C,MX7*%
X22732938Y28257766D03*
X35659938Y30797766D03*
%TD*%
%TO.C,MX3*%
X3682938Y28257766D03*
X16609938Y30797766D03*
%TD*%
%TO.C,MX2*%
X2439938Y54927766D03*
X15366938Y57467766D03*
%TD*%
%TO.C,MX6*%
X21489938Y54927766D03*
X34416938Y57467766D03*
%TD*%
%TO.C,MX10*%
X40539938Y54927766D03*
X53466938Y57467766D03*
%TD*%
%TO.C,MX14*%
X59589938Y54927766D03*
X72516938Y57467766D03*
%TD*%
%TO.C,MX16*%
X78639938Y73977766D03*
X91566938Y76517766D03*
%TD*%
%TO.C,MX17*%
X78639938Y54927766D03*
X91566938Y57467766D03*
%TD*%
%TO.C,MX18*%
X78639938Y35877766D03*
X91566938Y38417766D03*
%TD*%
%TO.C,MX4*%
X2439938Y16857344D03*
X15366938Y19397344D03*
%TD*%
%TO.C,MX8*%
X21489954Y16857344D03*
X34416954Y19397344D03*
%TD*%
%TO.C,MX12*%
X40539970Y16857344D03*
X53466970Y19397344D03*
%TD*%
%TO.C,MX19*%
X73877498Y12094840D03*
X86804498Y14634840D03*
%TD*%
%TO.C,MX23*%
X111977530Y12094840D03*
X124904530Y14634840D03*
%TD*%
%TO.C,MX35*%
X183414938Y73977766D03*
X196341938Y76517766D03*
%TD*%
D11*
%TO.C,C_1V-Decoup2*%
X20240676Y50717004D03*
X20240676Y51677004D03*
%TD*%
D10*
%TO.C,MX1*%
X2439938Y73977766D03*
X15366938Y76517766D03*
%TD*%
D12*
%TO.C,D6*%
X29170386Y45379806D03*
X29170386Y48679806D03*
%TD*%
%TO.C,D14*%
X67270482Y45379806D03*
X67270482Y48679806D03*
%TD*%
D13*
%TO.C,C_Crystal1*%
X21091893Y32998173D03*
X21770715Y33676995D03*
%TD*%
D10*
%TO.C,MX22*%
X107214938Y35877766D03*
X120141938Y38417766D03*
%TD*%
D12*
%TO.C,D37*%
X191095794Y26329758D03*
X191095794Y29629758D03*
%TD*%
D14*
%TO.C,R_Crystal1*%
X18094110Y37144158D03*
X18815358Y37865406D03*
%TD*%
D12*
%TO.C,D17*%
X86320530Y45379806D03*
X86320530Y48679806D03*
%TD*%
D10*
%TO.C,MX30*%
X145314938Y16827766D03*
X158241938Y19367766D03*
%TD*%
D15*
%TO.C,R_Flash1*%
X60750144Y67482825D03*
X60750144Y66462825D03*
%TD*%
D12*
%TO.C,D8*%
X37504782Y22485990D03*
X37504782Y19185990D03*
%TD*%
%TO.C,D20*%
X114895602Y64429854D03*
X114895602Y67729854D03*
%TD*%
%TO.C,D15*%
X67270482Y26329758D03*
X67270482Y29629758D03*
%TD*%
%TO.C,D31*%
X172045746Y64429854D03*
X172045746Y67729854D03*
%TD*%
D16*
%TO.C,C_3V-Decoup2*%
X16553478Y49411062D03*
X15593478Y49411062D03*
%TD*%
D12*
%TO.C,D13*%
X75604878Y79636134D03*
X75604878Y76336134D03*
%TD*%
%TO.C,D23*%
X135136278Y22485990D03*
X135136278Y19185990D03*
%TD*%
D10*
%TO.C,MX33*%
X164364938Y35877766D03*
X177291938Y38417766D03*
%TD*%
D11*
%TO.C,C_3V-Decoup7*%
X19050048Y50717004D03*
X19050048Y51677004D03*
%TD*%
D12*
%TO.C,D32*%
X172045746Y45379806D03*
X172045746Y48679806D03*
%TD*%
%TO.C,D4*%
X18454734Y22485990D03*
X18454734Y19185990D03*
%TD*%
D10*
%TO.C,MX13*%
X59589938Y73977766D03*
X72516938Y76517766D03*
%TD*%
D17*
%TO.C,C_3V-Decoup9*%
X23927874Y42862608D03*
X24887874Y42862608D03*
%TD*%
D16*
%TO.C,C_3V-Decoup4*%
X14172222Y43457922D03*
X13212222Y43457922D03*
%TD*%
D12*
%TO.C,D26*%
X133945650Y26329758D03*
X133945650Y29629758D03*
%TD*%
D10*
%TO.C,MX29*%
X145314938Y35877766D03*
X158241938Y38417766D03*
%TD*%
D12*
%TO.C,D28*%
X152995698Y45379806D03*
X152995698Y48679806D03*
%TD*%
D15*
%TO.C,R_DATA1*%
X18454734Y54683574D03*
X18454734Y53663574D03*
%TD*%
D10*
%TO.C,MX5*%
X21489938Y73977766D03*
X34416938Y76517766D03*
%TD*%
D18*
%TO.C,C_3V-Decoup8*%
X16668792Y36794154D03*
X16668792Y35834154D03*
%TD*%
D10*
%TO.C,MX24*%
X126264938Y73977766D03*
X139191938Y76517766D03*
%TD*%
D11*
%TO.C,C_Flash1*%
X51494661Y64706883D03*
X51494661Y65666883D03*
%TD*%
D10*
%TO.C,MX21*%
X107214938Y54927766D03*
X120141938Y57467766D03*
%TD*%
%TO.C,MX32*%
X164364938Y54927766D03*
X177291938Y57467766D03*
%TD*%
%TO.C,MX38*%
X183414938Y16827766D03*
X196341938Y19367766D03*
%TD*%
D12*
%TO.C,D10*%
X48220434Y45379806D03*
X48220434Y48679806D03*
%TD*%
D10*
%TO.C,MX20*%
X107214938Y73977766D03*
X120141938Y76517766D03*
%TD*%
D12*
%TO.C,D35*%
X191095794Y64429854D03*
X191095794Y67729854D03*
%TD*%
%TO.C,D38*%
X181570770Y22485990D03*
X181570770Y19185990D03*
%TD*%
%TO.C,D19*%
X111323718Y22485990D03*
X111323718Y19185990D03*
%TD*%
D19*
%TO.C,U3*%
X16073478Y65553284D03*
X16073478Y63653284D03*
X14198478Y64603284D03*
%TD*%
D10*
%TO.C,MX36*%
X183414938Y54927766D03*
X196341938Y57467766D03*
%TD*%
D12*
%TO.C,D25*%
X133945650Y45379806D03*
X133945650Y48679806D03*
%TD*%
D10*
%TO.C,MX37*%
X183414938Y35877766D03*
X196341938Y38417766D03*
%TD*%
D12*
%TO.C,D11*%
X48220434Y26329758D03*
X48220434Y29629758D03*
%TD*%
D18*
%TO.C,C_1V-Decoup3*%
X15478164Y36794154D03*
X15478164Y35834154D03*
%TD*%
D10*
%TO.C,MX26*%
X126264938Y35877766D03*
X139191938Y38417766D03*
%TD*%
D12*
%TO.C,D18*%
X86320530Y26329758D03*
X86320530Y29629758D03*
%TD*%
D10*
%TO.C,MX44*%
X92927514Y12094840D03*
D20*
X105854514Y14469840D03*
%TD*%
D10*
%TO.C,MX9*%
X40539938Y73977766D03*
X53466938Y76517766D03*
%TD*%
D12*
%TO.C,D34*%
X162520722Y22485990D03*
X162520722Y19185990D03*
%TD*%
%TO.C,D2*%
X10120338Y45677463D03*
X10120338Y48977463D03*
%TD*%
%TO.C,D3*%
X19645362Y26329758D03*
X19645362Y29629758D03*
%TD*%
%TO.C,D29*%
X152995698Y26329758D03*
X152995698Y29629758D03*
%TD*%
%TO.C,D16*%
X94654926Y79636134D03*
X94654926Y76336134D03*
%TD*%
D17*
%TO.C,C_3V-Decoup6*%
X23927874Y41671980D03*
X24887874Y41671980D03*
%TD*%
D12*
%TO.C,D30*%
X143470674Y22485990D03*
X143470674Y19185990D03*
%TD*%
%TO.C,D1*%
X18454734Y79636134D03*
X18454734Y76336134D03*
%TD*%
D16*
%TO.C,C_3V-Decoup1*%
X16073478Y60722028D03*
X15113478Y60722028D03*
%TD*%
%TO.C,C_LD1*%
X12386280Y64603284D03*
X11426280Y64603284D03*
%TD*%
D21*
%TO.C,R_RST1*%
X6548454Y43628550D03*
X6548454Y44648550D03*
%TD*%
D22*
%TO.C,U2*%
X60750144Y64710627D03*
X60750144Y63440627D03*
X60750144Y62170627D03*
X60750144Y60900627D03*
X53550144Y60900627D03*
X53550144Y62170627D03*
X53550144Y63440627D03*
X53550144Y64710627D03*
%TD*%
D12*
%TO.C,D33*%
X172045746Y26329758D03*
X172045746Y29629758D03*
%TD*%
%TO.C,D36*%
X191095794Y45379806D03*
X191095794Y48679806D03*
%TD*%
%TO.C,D7*%
X38695410Y26329758D03*
X38695410Y29629758D03*
%TD*%
%TO.C,D12*%
X56554830Y22485990D03*
X56554830Y19185990D03*
%TD*%
D16*
%TO.C,C_1V-Decoup1*%
X16553478Y50601690D03*
X15593478Y50601690D03*
%TD*%
D11*
%TO.C,C_3V-Decoup3*%
X13989879Y46653236D03*
X13989879Y47613236D03*
%TD*%
D10*
%TO.C,MX27*%
X145314938Y73977766D03*
X158241938Y76517766D03*
%TD*%
D12*
%TO.C,D22*%
X114895602Y26329758D03*
X114895602Y29629758D03*
%TD*%
D23*
%TO.C,U1*%
X19687548Y43415736D03*
X19687548Y44690736D03*
X18412548Y43415736D03*
X18412548Y44690736D03*
D24*
X22487548Y46653236D03*
X22487548Y46253236D03*
X22487548Y45853236D03*
X22487548Y45453236D03*
X22487548Y45053236D03*
X22487548Y44653236D03*
X22487548Y44253236D03*
X22487548Y43853236D03*
X22487548Y43453236D03*
X22487548Y43053236D03*
X22487548Y42653236D03*
X22487548Y42253236D03*
X22487548Y41853236D03*
X22487548Y41453236D03*
D25*
X21650048Y40615736D03*
X21250048Y40615736D03*
X20850048Y40615736D03*
X20450048Y40615736D03*
X20050048Y40615736D03*
X19650048Y40615736D03*
X19250048Y40615736D03*
X18850048Y40615736D03*
X18450048Y40615736D03*
X18050048Y40615736D03*
X17650048Y40615736D03*
X17250048Y40615736D03*
X16850048Y40615736D03*
X16450048Y40615736D03*
D24*
X15612548Y41453236D03*
X15612548Y41853236D03*
X15612548Y42253236D03*
X15612548Y42653236D03*
X15612548Y43053236D03*
X15612548Y43453236D03*
X15612548Y43853236D03*
X15612548Y44253236D03*
X15612548Y44653236D03*
X15612548Y45053236D03*
X15612548Y45453236D03*
X15612548Y45853236D03*
X15612548Y46253236D03*
X15612548Y46653236D03*
D25*
X16450048Y47490736D03*
X16850048Y47490736D03*
X17250048Y47490736D03*
X17650048Y47490736D03*
X18050048Y47490736D03*
X18450048Y47490736D03*
X18850048Y47490736D03*
X19250048Y47490736D03*
X19650048Y47490736D03*
X20050048Y47490736D03*
X20450048Y47490736D03*
X20850048Y47490736D03*
X21250048Y47490736D03*
X21650048Y47490736D03*
%TD*%
D12*
%TO.C,D27*%
X152995698Y64429854D03*
X152995698Y67729854D03*
%TD*%
D26*
%TO.C,C_Crystal2*%
X18198831Y33593487D03*
X17520009Y34272309D03*
%TD*%
D10*
%TO.C,MX28*%
X145314938Y54927766D03*
X158241938Y57467766D03*
%TD*%
%TO.C,MX25*%
X126264938Y54927766D03*
X139191938Y57467766D03*
%TD*%
D12*
%TO.C,D9*%
X56554830Y79636134D03*
X56554830Y76336134D03*
%TD*%
%TO.C,D24*%
X133945650Y64429854D03*
X133945650Y67729854D03*
%TD*%
D16*
%TO.C,C_3V-Decoup5*%
X14172222Y44648550D03*
X13212222Y44648550D03*
%TD*%
D15*
%TO.C,R_DATA2*%
X17264106Y54683574D03*
X17264106Y53663574D03*
%TD*%
D10*
%TO.C,MX34*%
X164364938Y16827766D03*
X177291938Y19367766D03*
%TD*%
D16*
%TO.C,C_LD2*%
X16073478Y61912656D03*
X15113478Y61912656D03*
%TD*%
D27*
%TO.C,J1*%
X28956328Y64603284D03*
X28956328Y63603284D03*
X28956328Y62603284D03*
X28956328Y61603284D03*
D28*
X32831328Y65903284D03*
X32831328Y60303284D03*
%TD*%
D12*
%TO.C,D21*%
X114895602Y45379806D03*
X114895602Y48679806D03*
%TD*%
D29*
%TO.C,Y1*%
X18861818Y35542063D03*
X20417453Y37097698D03*
X21619534Y35895617D03*
X20063899Y34339982D03*
%TD*%
D12*
%TO.C,D5*%
X37504782Y79636134D03*
X37504782Y76336134D03*
%TD*%
D10*
%TO.C,MX31*%
X164364938Y73977766D03*
X177291938Y76517766D03*
%TD*%
M02*
