%TF.GenerationSoftware,KiCad,Pcbnew,7.0.6*%
%TF.CreationDate,2023-12-03T11:03:46-05:00*%
%TF.ProjectId,cutiepie2040-ortho-hotswap-solder-pcb,63757469-6570-4696-9532-3034302d6f72,rev?*%
%TF.SameCoordinates,PX27bdd2cPY74f41bc*%
%TF.FileFunction,Drillmap*%
%TF.FilePolarity,Positive*%
%FSLAX45Y45*%
G04 Gerber Fmt 4.5, Leading zero omitted, Abs format (unit mm)*
G04 Created by KiCad (PCBNEW 7.0.6) date 2023-12-03 11:03:46*
%MOMM*%
%LPD*%
G01*
G04 APERTURE LIST*
%ADD10C,0.100000*%
%ADD11C,0.200000*%
%ADD12C,0.030000*%
%ADD13C,0.040000*%
%ADD14C,0.060000*%
%ADD15C,0.147000*%
G04 APERTURE END LIST*
D10*
X14287505Y476271D02*
X19764385Y476271D01*
X20002511Y7858152D02*
G75*
G03*
X19764385Y8096277I-238129J-4D01*
G01*
X20002510Y7858152D02*
X20002510Y714396D01*
X19764385Y8096277D02*
X238118Y8096277D01*
X14287505Y476271D02*
G75*
G03*
X14049380Y238146I-3J-238122D01*
G01*
X5715014Y476251D02*
X238118Y476271D01*
X-7Y7858152D02*
X-7Y714396D01*
X7143768Y0D02*
X13811285Y0D01*
X13811255Y21D02*
G75*
G03*
X14049380Y238146I-3J238128D01*
G01*
X19764385Y476271D02*
G75*
G03*
X20002510Y714396I-3J238128D01*
G01*
X-5Y714396D02*
G75*
G03*
X238118Y476271I238127J2D01*
G01*
X238118Y8096277D02*
G75*
G03*
X-7Y7858152I0J-238125D01*
G01*
D11*
D12*
X1762505Y4547824D02*
X1792505Y4517824D01*
X1792505Y4547824D02*
X1762505Y4517824D01*
X1762505Y4420324D02*
X1792505Y4390324D01*
X1792505Y4420324D02*
X1762505Y4390324D01*
X1762505Y4292824D02*
X1792505Y4262824D01*
X1792505Y4292824D02*
X1762505Y4262824D01*
X1890005Y4547824D02*
X1920005Y4517824D01*
X1920005Y4547824D02*
X1890005Y4517824D01*
X1890005Y4420324D02*
X1920005Y4390324D01*
X1920005Y4420324D02*
X1890005Y4390324D01*
X1890005Y4292824D02*
X1920005Y4262824D01*
X1920005Y4292824D02*
X1890005Y4262824D01*
X2017505Y4547824D02*
X2047505Y4517824D01*
X2047505Y4547824D02*
X2017505Y4517824D01*
X2017505Y4420324D02*
X2047505Y4390324D01*
X2047505Y4420324D02*
X2017505Y4390324D01*
X2017505Y4292824D02*
X2047505Y4262824D01*
X2047505Y4292824D02*
X2017505Y4262824D01*
D13*
X258126Y7381894D02*
G75*
G03*
X258126Y7381894I-20000J0D01*
G01*
X258126Y5476889D02*
G75*
G03*
X258126Y5476889I-20000J0D01*
G01*
X258126Y1666879D02*
G75*
G03*
X258126Y1666879I-20000J0D01*
G01*
X377188Y2797976D02*
G75*
G03*
X377188Y2797976I-20000J0D01*
G01*
X853440Y4362855D02*
G75*
G03*
X853440Y4362855I-20000J0D01*
G01*
X1032034Y4643449D02*
G75*
G03*
X1032034Y4643449I-20000J0D01*
G01*
X1270159Y4345792D02*
G75*
G03*
X1270159Y4345792I-20000J0D01*
G01*
X1299925Y4762512D02*
G75*
G03*
X1299925Y4762512I-20000J0D01*
G01*
X1299925Y4673215D02*
G75*
G03*
X1299925Y4673215I-20000J0D01*
G01*
X1418988Y6131734D02*
G75*
G03*
X1418988Y6131734I-20000J0D01*
G01*
X1418988Y4167198D02*
G75*
G03*
X1418988Y4167198I-20000J0D01*
G01*
X1478519Y6555328D02*
G75*
G03*
X1478519Y6555328I-20000J0D01*
G01*
X1567816Y4762512D02*
G75*
G03*
X1567816Y4762512I-20000J0D01*
G01*
X1627348Y5953140D02*
G75*
G03*
X1627348Y5953140I-20000J0D01*
G01*
X1776176Y6555328D02*
G75*
G03*
X1776176Y6555328I-20000J0D01*
G01*
X1925005Y5000638D02*
G75*
G03*
X1925005Y5000638I-20000J0D01*
G01*
X1984536Y2797976D02*
G75*
G03*
X1984536Y2797976I-20000J0D01*
G01*
X2163130Y7381894D02*
G75*
G03*
X2163130Y7381894I-20000J0D01*
G01*
X2163130Y5476889D02*
G75*
G03*
X2163130Y5476889I-20000J0D01*
G01*
X2163130Y1666879D02*
G75*
G03*
X2163130Y1666879I-20000J0D01*
G01*
X2282193Y2797976D02*
G75*
G03*
X2282193Y2797976I-20000J0D01*
G01*
X2412787Y4226729D02*
G75*
G03*
X2412787Y4226729I-20000J0D01*
G01*
X2412787Y4061574D02*
G75*
G03*
X2412787Y4061574I-20000J0D01*
G01*
X2508787Y4061574D02*
G75*
G03*
X2508787Y4061574I-20000J0D01*
G01*
X2623494Y5953140D02*
G75*
G03*
X2623494Y5953140I-20000J0D01*
G01*
X2698913Y4316027D02*
G75*
G03*
X2698913Y4316027I-20000J0D01*
G01*
X2817976Y4316027D02*
G75*
G03*
X2817976Y4316027I-20000J0D01*
G01*
X3026336Y4537981D02*
G75*
G03*
X3026336Y4537981I-20000J0D01*
G01*
X4068135Y7381894D02*
G75*
G03*
X4068135Y7381894I-20000J0D01*
G01*
X4068135Y5476889D02*
G75*
G03*
X4068135Y5476889I-20000J0D01*
G01*
X4068135Y3571884D02*
G75*
G03*
X4068135Y3571884I-20000J0D01*
G01*
X4068135Y1666879D02*
G75*
G03*
X4068135Y1666879I-20000J0D01*
G01*
X5228998Y4316027D02*
G75*
G03*
X5228998Y4316027I-20000J0D01*
G01*
X5973140Y7381894D02*
G75*
G03*
X5973140Y7381894I-20000J0D01*
G01*
X5973140Y5476889D02*
G75*
G03*
X5973140Y5476889I-20000J0D01*
G01*
X5973140Y3571884D02*
G75*
G03*
X5973140Y3571884I-20000J0D01*
G01*
X7401894Y1190628D02*
G75*
G03*
X7401894Y1190628I-20000J0D01*
G01*
X7878145Y7381894D02*
G75*
G03*
X7878145Y7381894I-20000J0D01*
G01*
X7878145Y5476889D02*
G75*
G03*
X7878145Y5476889I-20000J0D01*
G01*
X7878145Y3571884D02*
G75*
G03*
X7878145Y3571884I-20000J0D01*
G01*
X9306898Y1190628D02*
G75*
G03*
X9306898Y1190628I-20000J0D01*
G01*
X10735652Y7381894D02*
G75*
G03*
X10735652Y7381894I-20000J0D01*
G01*
X10735652Y5476889D02*
G75*
G03*
X10735652Y5476889I-20000J0D01*
G01*
X10735652Y3571884D02*
G75*
G03*
X10735652Y3571884I-20000J0D01*
G01*
X11211903Y1190628D02*
G75*
G03*
X11211903Y1190628I-20000J0D01*
G01*
X12640657Y7381894D02*
G75*
G03*
X12640657Y7381894I-20000J0D01*
G01*
X12640657Y5476889D02*
G75*
G03*
X12640657Y5476889I-20000J0D01*
G01*
X12640657Y3571884D02*
G75*
G03*
X12640657Y3571884I-20000J0D01*
G01*
X14545662Y7381894D02*
G75*
G03*
X14545662Y7381894I-20000J0D01*
G01*
X14545662Y5476889D02*
G75*
G03*
X14545662Y5476889I-20000J0D01*
G01*
X14545662Y3571884D02*
G75*
G03*
X14545662Y3571884I-20000J0D01*
G01*
X14545662Y1666879D02*
G75*
G03*
X14545662Y1666879I-20000J0D01*
G01*
X16450666Y7381894D02*
G75*
G03*
X16450666Y7381894I-20000J0D01*
G01*
X16450666Y5476889D02*
G75*
G03*
X16450666Y5476889I-20000J0D01*
G01*
X16450666Y3571884D02*
G75*
G03*
X16450666Y3571884I-20000J0D01*
G01*
X16450666Y1666879D02*
G75*
G03*
X16450666Y1666879I-20000J0D01*
G01*
X18355671Y7381894D02*
G75*
G03*
X18355671Y7381894I-20000J0D01*
G01*
X18355671Y5476889D02*
G75*
G03*
X18355671Y5476889I-20000J0D01*
G01*
X18355671Y3571884D02*
G75*
G03*
X18355671Y3571884I-20000J0D01*
G01*
X18355671Y1666879D02*
G75*
G03*
X18355671Y1666879I-20000J0D01*
G01*
D14*
X5650014Y6778282D02*
X5650014Y6718282D01*
X5620014Y6748282D02*
X5680014Y6748282D01*
X5777014Y6778282D02*
X5777014Y6718282D01*
X5747014Y6748282D02*
X5807014Y6748282D01*
D10*
X220349Y4580311D02*
X220349Y4651022D01*
X149638Y4651022D01*
X149638Y4580311D01*
X220349Y4580311D01*
X220349Y4326311D02*
X220349Y4397022D01*
X149638Y4397022D01*
X149638Y4326311D01*
X220349Y4326311D01*
X220349Y4072311D02*
X220349Y4143022D01*
X149638Y4143022D01*
X149638Y4072311D01*
X220349Y4072311D01*
X220349Y3818311D02*
X220349Y3889022D01*
X149638Y3889022D01*
X149638Y3818311D01*
X220349Y3818311D01*
X220349Y3564311D02*
X220349Y3635022D01*
X149638Y3635022D01*
X149638Y3564311D01*
X220349Y3564311D01*
D15*
X571494Y3514277D02*
X644994Y3587777D01*
X571494Y3661277D01*
X497994Y3587777D01*
X571494Y3514277D01*
X698494Y6562277D02*
X771994Y6635777D01*
X698494Y6709277D01*
X624994Y6635777D01*
X698494Y6562277D01*
X698494Y4657277D02*
X771994Y4730777D01*
X698494Y4804277D01*
X624994Y4730777D01*
X698494Y4657277D01*
X698494Y850234D02*
X771994Y923734D01*
X698494Y997234D01*
X624994Y923734D01*
X698494Y850234D01*
X936619Y850234D02*
X1010119Y923734D01*
X936619Y997234D01*
X863119Y923734D01*
X936619Y850234D01*
X1206494Y3768277D02*
X1279994Y3841777D01*
X1206494Y3915277D01*
X1132994Y3841777D01*
X1206494Y3768277D01*
X1333494Y6816277D02*
X1406994Y6889777D01*
X1333494Y6963277D01*
X1259994Y6889777D01*
X1333494Y6816277D01*
X1333494Y4911277D02*
X1406994Y4984777D01*
X1333494Y5058277D01*
X1259994Y4984777D01*
X1333494Y4911277D01*
X1333494Y1104234D02*
X1406994Y1177734D01*
X1333494Y1251234D01*
X1259994Y1177734D01*
X1333494Y1104234D01*
X1571619Y1104234D02*
X1645119Y1177734D01*
X1571619Y1251234D01*
X1498119Y1177734D01*
X1571619Y1104234D01*
X2476494Y3514277D02*
X2549994Y3587777D01*
X2476494Y3661277D01*
X2402994Y3587777D01*
X2476494Y3514277D01*
X2603494Y6562277D02*
X2676994Y6635777D01*
X2603494Y6709277D01*
X2529994Y6635777D01*
X2603494Y6562277D01*
X2603494Y4657277D02*
X2676994Y4730777D01*
X2603494Y4804277D01*
X2529994Y4730777D01*
X2603494Y4657277D01*
X2603495Y850234D02*
X2676995Y923734D01*
X2603495Y997234D01*
X2529995Y923734D01*
X2603495Y850234D01*
X3079746Y850234D02*
X3153246Y923734D01*
X3079746Y997234D01*
X3006246Y923734D01*
X3079746Y850234D01*
X3111494Y3768277D02*
X3184994Y3841777D01*
X3111494Y3915277D01*
X3037994Y3841777D01*
X3111494Y3768277D01*
X3238494Y6816277D02*
X3311994Y6889777D01*
X3238494Y6963277D01*
X3164994Y6889777D01*
X3238494Y6816277D01*
X3238494Y4911277D02*
X3311994Y4984777D01*
X3238494Y5058277D01*
X3164994Y4984777D01*
X3238494Y4911277D01*
X3238495Y1104234D02*
X3311995Y1177734D01*
X3238495Y1251234D01*
X3164995Y1177734D01*
X3238495Y1104234D01*
X3714746Y1104234D02*
X3788246Y1177734D01*
X3714746Y1251234D01*
X3641246Y1177734D01*
X3714746Y1104234D01*
X4508494Y6562277D02*
X4581994Y6635777D01*
X4508494Y6709277D01*
X4434994Y6635777D01*
X4508494Y6562277D01*
X4508494Y4657277D02*
X4581994Y4730777D01*
X4508494Y4804277D01*
X4434994Y4730777D01*
X4508494Y4657277D01*
X4508494Y2752277D02*
X4581994Y2825777D01*
X4508494Y2899277D01*
X4434994Y2825777D01*
X4508494Y2752277D01*
X4508497Y850234D02*
X4581997Y923734D01*
X4508497Y997234D01*
X4434997Y923734D01*
X4508497Y850234D01*
X5143494Y6816277D02*
X5216994Y6889777D01*
X5143494Y6963277D01*
X5069994Y6889777D01*
X5143494Y6816277D01*
X5143494Y4911277D02*
X5216994Y4984777D01*
X5143494Y5058277D01*
X5069994Y4984777D01*
X5143494Y4911277D01*
X5143494Y3006277D02*
X5216994Y3079777D01*
X5143494Y3153277D01*
X5069994Y3079777D01*
X5143494Y3006277D01*
X5143497Y1104234D02*
X5216997Y1177734D01*
X5143497Y1251234D01*
X5069997Y1177734D01*
X5143497Y1104234D01*
X5222873Y850234D02*
X5296373Y923734D01*
X5222873Y997234D01*
X5149373Y923734D01*
X5222873Y850234D01*
X5857873Y1104234D02*
X5931373Y1177734D01*
X5857873Y1251234D01*
X5784373Y1177734D01*
X5857873Y1104234D01*
X6413494Y6562277D02*
X6486994Y6635777D01*
X6413494Y6709277D01*
X6339994Y6635777D01*
X6413494Y6562277D01*
X6413494Y4657277D02*
X6486994Y4730777D01*
X6413494Y4804277D01*
X6339994Y4730777D01*
X6413494Y4657277D01*
X6413494Y2752277D02*
X6486994Y2825777D01*
X6413494Y2899277D01*
X6339994Y2825777D01*
X6413494Y2752277D01*
X7048494Y6816277D02*
X7121994Y6889777D01*
X7048494Y6963277D01*
X6974994Y6889777D01*
X7048494Y6816277D01*
X7048494Y4911277D02*
X7121994Y4984777D01*
X7048494Y5058277D01*
X6974994Y4984777D01*
X7048494Y4911277D01*
X7048494Y3006277D02*
X7121994Y3079777D01*
X7048494Y3153277D01*
X6974994Y3079777D01*
X7048494Y3006277D01*
X7842250Y373984D02*
X7915750Y447484D01*
X7842250Y520984D01*
X7768750Y447484D01*
X7842250Y373984D01*
X8318494Y6562277D02*
X8391994Y6635777D01*
X8318494Y6709277D01*
X8244994Y6635777D01*
X8318494Y6562277D01*
X8318494Y4657277D02*
X8391994Y4730777D01*
X8318494Y4804277D01*
X8244994Y4730777D01*
X8318494Y4657277D01*
X8318494Y2752277D02*
X8391994Y2825777D01*
X8318494Y2899277D01*
X8244994Y2825777D01*
X8318494Y2752277D01*
X8477250Y627984D02*
X8550750Y701484D01*
X8477250Y774984D01*
X8403750Y701484D01*
X8477250Y627984D01*
X8556625Y373984D02*
X8630125Y447484D01*
X8556625Y520984D01*
X8483125Y447484D01*
X8556625Y373984D01*
X8953494Y6816277D02*
X9026994Y6889777D01*
X8953494Y6963277D01*
X8879994Y6889777D01*
X8953494Y6816277D01*
X8953494Y4911277D02*
X9026994Y4984777D01*
X8953494Y5058277D01*
X8879994Y4984777D01*
X8953494Y4911277D01*
X8953494Y3006277D02*
X9026994Y3079777D01*
X8953494Y3153277D01*
X8879994Y3079777D01*
X8953494Y3006277D01*
X9191625Y627984D02*
X9265125Y701484D01*
X9191625Y774984D01*
X9118125Y701484D01*
X9191625Y627984D01*
X9747251Y373984D02*
X9820751Y447484D01*
X9747251Y520984D01*
X9673751Y447484D01*
X9747251Y373984D01*
X10382251Y627984D02*
X10455751Y701484D01*
X10382251Y774984D01*
X10308751Y701484D01*
X10382251Y627984D01*
X11175994Y6562277D02*
X11249494Y6635777D01*
X11175994Y6709277D01*
X11102494Y6635777D01*
X11175994Y6562277D01*
X11175994Y4657277D02*
X11249494Y4730777D01*
X11175994Y4804277D01*
X11102494Y4730777D01*
X11175994Y4657277D01*
X11175994Y2752277D02*
X11249494Y2825777D01*
X11175994Y2899277D01*
X11102494Y2825777D01*
X11175994Y2752277D01*
X11652253Y373984D02*
X11725753Y447484D01*
X11652253Y520984D01*
X11578753Y447484D01*
X11652253Y373984D01*
X11810994Y6816277D02*
X11884494Y6889777D01*
X11810994Y6963277D01*
X11737494Y6889777D01*
X11810994Y6816277D01*
X11810994Y4911277D02*
X11884494Y4984777D01*
X11810994Y5058277D01*
X11737494Y4984777D01*
X11810994Y4911277D01*
X11810994Y3006277D02*
X11884494Y3079777D01*
X11810994Y3153277D01*
X11737494Y3079777D01*
X11810994Y3006277D01*
X11890378Y373984D02*
X11963878Y447484D01*
X11890378Y520984D01*
X11816878Y447484D01*
X11890378Y373984D01*
X12287253Y627984D02*
X12360753Y701484D01*
X12287253Y774984D01*
X12213753Y701484D01*
X12287253Y627984D01*
X12525378Y627984D02*
X12598878Y701484D01*
X12525378Y774984D01*
X12451878Y701484D01*
X12525378Y627984D01*
X13080994Y6562277D02*
X13154494Y6635777D01*
X13080994Y6709277D01*
X13007494Y6635777D01*
X13080994Y6562277D01*
X13080994Y4657277D02*
X13154494Y4730777D01*
X13080994Y4804277D01*
X13007494Y4730777D01*
X13080994Y4657277D01*
X13080994Y2752277D02*
X13154494Y2825777D01*
X13080994Y2899277D01*
X13007494Y2825777D01*
X13080994Y2752277D01*
X13715994Y6816277D02*
X13789494Y6889777D01*
X13715994Y6963277D01*
X13642494Y6889777D01*
X13715994Y6816277D01*
X13715994Y4911277D02*
X13789494Y4984777D01*
X13715994Y5058277D01*
X13642494Y4984777D01*
X13715994Y4911277D01*
X13715994Y3006277D02*
X13789494Y3079777D01*
X13715994Y3153277D01*
X13642494Y3079777D01*
X13715994Y3006277D01*
X14985994Y6562277D02*
X15059494Y6635777D01*
X14985994Y6709277D01*
X14912494Y6635777D01*
X14985994Y6562277D01*
X14985994Y4657277D02*
X15059494Y4730777D01*
X14985994Y4804277D01*
X14912494Y4730777D01*
X14985994Y4657277D01*
X14985994Y2752277D02*
X15059494Y2825777D01*
X14985994Y2899277D01*
X14912494Y2825777D01*
X14985994Y2752277D01*
X14985994Y847277D02*
X15059494Y920777D01*
X14985994Y994277D01*
X14912494Y920777D01*
X14985994Y847277D01*
X15620994Y6816277D02*
X15694494Y6889777D01*
X15620994Y6963277D01*
X15547494Y6889777D01*
X15620994Y6816277D01*
X15620994Y4911277D02*
X15694494Y4984777D01*
X15620994Y5058277D01*
X15547494Y4984777D01*
X15620994Y4911277D01*
X15620994Y3006277D02*
X15694494Y3079777D01*
X15620994Y3153277D01*
X15547494Y3079777D01*
X15620994Y3006277D01*
X15620994Y1101277D02*
X15694494Y1174777D01*
X15620994Y1248277D01*
X15547494Y1174777D01*
X15620994Y1101277D01*
X16890994Y6562277D02*
X16964494Y6635777D01*
X16890994Y6709277D01*
X16817494Y6635777D01*
X16890994Y6562277D01*
X16890994Y4657277D02*
X16964494Y4730777D01*
X16890994Y4804277D01*
X16817494Y4730777D01*
X16890994Y4657277D01*
X16890994Y2752277D02*
X16964494Y2825777D01*
X16890994Y2899277D01*
X16817494Y2825777D01*
X16890994Y2752277D01*
X16890994Y847277D02*
X16964494Y920777D01*
X16890994Y994277D01*
X16817494Y920777D01*
X16890994Y847277D01*
X17525994Y6816277D02*
X17599494Y6889777D01*
X17525994Y6963277D01*
X17452494Y6889777D01*
X17525994Y6816277D01*
X17525994Y4911277D02*
X17599494Y4984777D01*
X17525994Y5058277D01*
X17452494Y4984777D01*
X17525994Y4911277D01*
X17525994Y3006277D02*
X17599494Y3079777D01*
X17525994Y3153277D01*
X17452494Y3079777D01*
X17525994Y3006277D01*
X17525994Y1101277D02*
X17599494Y1174777D01*
X17525994Y1248277D01*
X17452494Y1174777D01*
X17525994Y1101277D01*
X18795994Y6562277D02*
X18869494Y6635777D01*
X18795994Y6709277D01*
X18722494Y6635777D01*
X18795994Y6562277D01*
X18795994Y4657277D02*
X18869494Y4730777D01*
X18795994Y4804277D01*
X18722494Y4730777D01*
X18795994Y4657277D01*
X18795994Y2752277D02*
X18869494Y2825777D01*
X18795994Y2899277D01*
X18722494Y2825777D01*
X18795994Y2752277D01*
X18795994Y847277D02*
X18869494Y920777D01*
X18795994Y994277D01*
X18722494Y920777D01*
X18795994Y847277D01*
X19430994Y6816277D02*
X19504494Y6889777D01*
X19430994Y6963277D01*
X19357494Y6889777D01*
X19430994Y6816277D01*
X19430994Y4911277D02*
X19504494Y4984777D01*
X19430994Y5058277D01*
X19357494Y4984777D01*
X19430994Y4911277D01*
X19430994Y3006277D02*
X19504494Y3079777D01*
X19430994Y3153277D01*
X19357494Y3079777D01*
X19430994Y3006277D01*
X19430994Y1101277D02*
X19504494Y1174777D01*
X19430994Y1248277D01*
X19357494Y1174777D01*
X19430994Y1101277D01*
D11*
X255770Y-316484D02*
X255770Y-116484D01*
X255770Y-116484D02*
X303389Y-116484D01*
X303389Y-116484D02*
X331960Y-126008D01*
X331960Y-126008D02*
X351008Y-145055D01*
X351008Y-145055D02*
X360532Y-164103D01*
X360532Y-164103D02*
X370055Y-202198D01*
X370055Y-202198D02*
X370055Y-230769D01*
X370055Y-230769D02*
X360532Y-268865D01*
X360532Y-268865D02*
X351008Y-287912D01*
X351008Y-287912D02*
X331960Y-306960D01*
X331960Y-306960D02*
X303389Y-316484D01*
X303389Y-316484D02*
X255770Y-316484D01*
X455770Y-316484D02*
X455770Y-183150D01*
X455770Y-221246D02*
X465294Y-202198D01*
X465294Y-202198D02*
X474817Y-192674D01*
X474817Y-192674D02*
X493865Y-183150D01*
X493865Y-183150D02*
X512913Y-183150D01*
X579579Y-316484D02*
X579579Y-183150D01*
X579579Y-116484D02*
X570056Y-126008D01*
X570056Y-126008D02*
X579579Y-135531D01*
X579579Y-135531D02*
X589103Y-126008D01*
X589103Y-126008D02*
X579579Y-116484D01*
X579579Y-116484D02*
X579579Y-135531D01*
X703389Y-316484D02*
X684341Y-306960D01*
X684341Y-306960D02*
X674817Y-287912D01*
X674817Y-287912D02*
X674817Y-116484D01*
X808151Y-316484D02*
X789103Y-306960D01*
X789103Y-306960D02*
X779579Y-287912D01*
X779579Y-287912D02*
X779579Y-116484D01*
X1036722Y-316484D02*
X1036722Y-116484D01*
X1036722Y-116484D02*
X1103389Y-259341D01*
X1103389Y-259341D02*
X1170056Y-116484D01*
X1170056Y-116484D02*
X1170056Y-316484D01*
X1351008Y-316484D02*
X1351008Y-211722D01*
X1351008Y-211722D02*
X1341484Y-192674D01*
X1341484Y-192674D02*
X1322437Y-183150D01*
X1322437Y-183150D02*
X1284341Y-183150D01*
X1284341Y-183150D02*
X1265294Y-192674D01*
X1351008Y-306960D02*
X1331960Y-316484D01*
X1331960Y-316484D02*
X1284341Y-316484D01*
X1284341Y-316484D02*
X1265294Y-306960D01*
X1265294Y-306960D02*
X1255770Y-287912D01*
X1255770Y-287912D02*
X1255770Y-268865D01*
X1255770Y-268865D02*
X1265294Y-249817D01*
X1265294Y-249817D02*
X1284341Y-240293D01*
X1284341Y-240293D02*
X1331960Y-240293D01*
X1331960Y-240293D02*
X1351008Y-230769D01*
X1446246Y-183150D02*
X1446246Y-383150D01*
X1446246Y-192674D02*
X1465294Y-183150D01*
X1465294Y-183150D02*
X1503389Y-183150D01*
X1503389Y-183150D02*
X1522436Y-192674D01*
X1522436Y-192674D02*
X1531960Y-202198D01*
X1531960Y-202198D02*
X1541484Y-221246D01*
X1541484Y-221246D02*
X1541484Y-278389D01*
X1541484Y-278389D02*
X1531960Y-297436D01*
X1531960Y-297436D02*
X1522436Y-306960D01*
X1522436Y-306960D02*
X1503389Y-316484D01*
X1503389Y-316484D02*
X1465294Y-316484D01*
X1465294Y-316484D02*
X1446246Y-306960D01*
X1627198Y-297436D02*
X1636722Y-306960D01*
X1636722Y-306960D02*
X1627198Y-316484D01*
X1627198Y-316484D02*
X1617675Y-306960D01*
X1617675Y-306960D02*
X1627198Y-297436D01*
X1627198Y-297436D02*
X1627198Y-316484D01*
X1627198Y-192674D02*
X1636722Y-202198D01*
X1636722Y-202198D02*
X1627198Y-211722D01*
X1627198Y-211722D02*
X1617675Y-202198D01*
X1617675Y-202198D02*
X1627198Y-192674D01*
X1627198Y-192674D02*
X1627198Y-211722D01*
D12*
X-35007Y-630000D02*
X-5007Y-660000D01*
X-5007Y-630000D02*
X-35007Y-660000D01*
D11*
X293865Y-536484D02*
X312913Y-536484D01*
X312913Y-536484D02*
X331960Y-546008D01*
X331960Y-546008D02*
X341484Y-555531D01*
X341484Y-555531D02*
X351008Y-574579D01*
X351008Y-574579D02*
X360532Y-612674D01*
X360532Y-612674D02*
X360532Y-660293D01*
X360532Y-660293D02*
X351008Y-698389D01*
X351008Y-698389D02*
X341484Y-717436D01*
X341484Y-717436D02*
X331960Y-726960D01*
X331960Y-726960D02*
X312913Y-736484D01*
X312913Y-736484D02*
X293865Y-736484D01*
X293865Y-736484D02*
X274817Y-726960D01*
X274817Y-726960D02*
X265294Y-717436D01*
X265294Y-717436D02*
X255770Y-698389D01*
X255770Y-698389D02*
X246246Y-660293D01*
X246246Y-660293D02*
X246246Y-612674D01*
X246246Y-612674D02*
X255770Y-574579D01*
X255770Y-574579D02*
X265294Y-555531D01*
X265294Y-555531D02*
X274817Y-546008D01*
X274817Y-546008D02*
X293865Y-536484D01*
X446246Y-717436D02*
X455770Y-726960D01*
X455770Y-726960D02*
X446246Y-736484D01*
X446246Y-736484D02*
X436722Y-726960D01*
X436722Y-726960D02*
X446246Y-717436D01*
X446246Y-717436D02*
X446246Y-736484D01*
X522436Y-536484D02*
X646246Y-536484D01*
X646246Y-536484D02*
X579579Y-612674D01*
X579579Y-612674D02*
X608151Y-612674D01*
X608151Y-612674D02*
X627198Y-622198D01*
X627198Y-622198D02*
X636722Y-631722D01*
X636722Y-631722D02*
X646246Y-650770D01*
X646246Y-650770D02*
X646246Y-698389D01*
X646246Y-698389D02*
X636722Y-717436D01*
X636722Y-717436D02*
X627198Y-726960D01*
X627198Y-726960D02*
X608151Y-736484D01*
X608151Y-736484D02*
X551008Y-736484D01*
X551008Y-736484D02*
X531960Y-726960D01*
X531960Y-726960D02*
X522436Y-717436D01*
X770055Y-536484D02*
X789103Y-536484D01*
X789103Y-536484D02*
X808151Y-546008D01*
X808151Y-546008D02*
X817675Y-555531D01*
X817675Y-555531D02*
X827198Y-574579D01*
X827198Y-574579D02*
X836722Y-612674D01*
X836722Y-612674D02*
X836722Y-660293D01*
X836722Y-660293D02*
X827198Y-698389D01*
X827198Y-698389D02*
X817675Y-717436D01*
X817675Y-717436D02*
X808151Y-726960D01*
X808151Y-726960D02*
X789103Y-736484D01*
X789103Y-736484D02*
X770055Y-736484D01*
X770055Y-736484D02*
X751008Y-726960D01*
X751008Y-726960D02*
X741484Y-717436D01*
X741484Y-717436D02*
X731960Y-698389D01*
X731960Y-698389D02*
X722436Y-660293D01*
X722436Y-660293D02*
X722436Y-612674D01*
X722436Y-612674D02*
X731960Y-574579D01*
X731960Y-574579D02*
X741484Y-555531D01*
X741484Y-555531D02*
X751008Y-546008D01*
X751008Y-546008D02*
X770055Y-536484D01*
X960532Y-536484D02*
X979579Y-536484D01*
X979579Y-536484D02*
X998627Y-546008D01*
X998627Y-546008D02*
X1008151Y-555531D01*
X1008151Y-555531D02*
X1017675Y-574579D01*
X1017675Y-574579D02*
X1027198Y-612674D01*
X1027198Y-612674D02*
X1027198Y-660293D01*
X1027198Y-660293D02*
X1017675Y-698389D01*
X1017675Y-698389D02*
X1008151Y-717436D01*
X1008151Y-717436D02*
X998627Y-726960D01*
X998627Y-726960D02*
X979579Y-736484D01*
X979579Y-736484D02*
X960532Y-736484D01*
X960532Y-736484D02*
X941484Y-726960D01*
X941484Y-726960D02*
X931960Y-717436D01*
X931960Y-717436D02*
X922436Y-698389D01*
X922436Y-698389D02*
X912913Y-660293D01*
X912913Y-660293D02*
X912913Y-612674D01*
X912913Y-612674D02*
X922436Y-574579D01*
X922436Y-574579D02*
X931960Y-555531D01*
X931960Y-555531D02*
X941484Y-546008D01*
X941484Y-546008D02*
X960532Y-536484D01*
X1112913Y-736484D02*
X1112913Y-603150D01*
X1112913Y-622198D02*
X1122437Y-612674D01*
X1122437Y-612674D02*
X1141484Y-603150D01*
X1141484Y-603150D02*
X1170056Y-603150D01*
X1170056Y-603150D02*
X1189103Y-612674D01*
X1189103Y-612674D02*
X1198627Y-631722D01*
X1198627Y-631722D02*
X1198627Y-736484D01*
X1198627Y-631722D02*
X1208151Y-612674D01*
X1208151Y-612674D02*
X1227198Y-603150D01*
X1227198Y-603150D02*
X1255770Y-603150D01*
X1255770Y-603150D02*
X1274818Y-612674D01*
X1274818Y-612674D02*
X1284341Y-631722D01*
X1284341Y-631722D02*
X1284341Y-736484D01*
X1379579Y-736484D02*
X1379579Y-603150D01*
X1379579Y-622198D02*
X1389103Y-612674D01*
X1389103Y-612674D02*
X1408151Y-603150D01*
X1408151Y-603150D02*
X1436722Y-603150D01*
X1436722Y-603150D02*
X1455770Y-612674D01*
X1455770Y-612674D02*
X1465294Y-631722D01*
X1465294Y-631722D02*
X1465294Y-736484D01*
X1465294Y-631722D02*
X1474817Y-612674D01*
X1474817Y-612674D02*
X1493865Y-603150D01*
X1493865Y-603150D02*
X1522436Y-603150D01*
X1522436Y-603150D02*
X1541484Y-612674D01*
X1541484Y-612674D02*
X1551008Y-631722D01*
X1551008Y-631722D02*
X1551008Y-736484D01*
X1941484Y-526960D02*
X1770056Y-784103D01*
X2198627Y-536484D02*
X2217675Y-536484D01*
X2217675Y-536484D02*
X2236722Y-546008D01*
X2236722Y-546008D02*
X2246246Y-555531D01*
X2246246Y-555531D02*
X2255770Y-574579D01*
X2255770Y-574579D02*
X2265294Y-612674D01*
X2265294Y-612674D02*
X2265294Y-660293D01*
X2265294Y-660293D02*
X2255770Y-698389D01*
X2255770Y-698389D02*
X2246246Y-717436D01*
X2246246Y-717436D02*
X2236722Y-726960D01*
X2236722Y-726960D02*
X2217675Y-736484D01*
X2217675Y-736484D02*
X2198627Y-736484D01*
X2198627Y-736484D02*
X2179580Y-726960D01*
X2179580Y-726960D02*
X2170056Y-717436D01*
X2170056Y-717436D02*
X2160532Y-698389D01*
X2160532Y-698389D02*
X2151008Y-660293D01*
X2151008Y-660293D02*
X2151008Y-612674D01*
X2151008Y-612674D02*
X2160532Y-574579D01*
X2160532Y-574579D02*
X2170056Y-555531D01*
X2170056Y-555531D02*
X2179580Y-546008D01*
X2179580Y-546008D02*
X2198627Y-536484D01*
X2351008Y-717436D02*
X2360532Y-726960D01*
X2360532Y-726960D02*
X2351008Y-736484D01*
X2351008Y-736484D02*
X2341484Y-726960D01*
X2341484Y-726960D02*
X2351008Y-717436D01*
X2351008Y-717436D02*
X2351008Y-736484D01*
X2484341Y-536484D02*
X2503389Y-536484D01*
X2503389Y-536484D02*
X2522437Y-546008D01*
X2522437Y-546008D02*
X2531961Y-555531D01*
X2531961Y-555531D02*
X2541484Y-574579D01*
X2541484Y-574579D02*
X2551008Y-612674D01*
X2551008Y-612674D02*
X2551008Y-660293D01*
X2551008Y-660293D02*
X2541484Y-698389D01*
X2541484Y-698389D02*
X2531961Y-717436D01*
X2531961Y-717436D02*
X2522437Y-726960D01*
X2522437Y-726960D02*
X2503389Y-736484D01*
X2503389Y-736484D02*
X2484341Y-736484D01*
X2484341Y-736484D02*
X2465294Y-726960D01*
X2465294Y-726960D02*
X2455770Y-717436D01*
X2455770Y-717436D02*
X2446246Y-698389D01*
X2446246Y-698389D02*
X2436722Y-660293D01*
X2436722Y-660293D02*
X2436722Y-612674D01*
X2436722Y-612674D02*
X2446246Y-574579D01*
X2446246Y-574579D02*
X2455770Y-555531D01*
X2455770Y-555531D02*
X2465294Y-546008D01*
X2465294Y-546008D02*
X2484341Y-536484D01*
X2741484Y-736484D02*
X2627199Y-736484D01*
X2684341Y-736484D02*
X2684341Y-536484D01*
X2684341Y-536484D02*
X2665294Y-565055D01*
X2665294Y-565055D02*
X2646246Y-584103D01*
X2646246Y-584103D02*
X2627199Y-593627D01*
X2931960Y-736484D02*
X2817675Y-736484D01*
X2874818Y-736484D02*
X2874818Y-536484D01*
X2874818Y-536484D02*
X2855770Y-565055D01*
X2855770Y-565055D02*
X2836722Y-584103D01*
X2836722Y-584103D02*
X2817675Y-593627D01*
X3046246Y-622198D02*
X3027199Y-612674D01*
X3027199Y-612674D02*
X3017675Y-603150D01*
X3017675Y-603150D02*
X3008151Y-584103D01*
X3008151Y-584103D02*
X3008151Y-574579D01*
X3008151Y-574579D02*
X3017675Y-555531D01*
X3017675Y-555531D02*
X3027199Y-546008D01*
X3027199Y-546008D02*
X3046246Y-536484D01*
X3046246Y-536484D02*
X3084341Y-536484D01*
X3084341Y-536484D02*
X3103389Y-546008D01*
X3103389Y-546008D02*
X3112913Y-555531D01*
X3112913Y-555531D02*
X3122437Y-574579D01*
X3122437Y-574579D02*
X3122437Y-584103D01*
X3122437Y-584103D02*
X3112913Y-603150D01*
X3112913Y-603150D02*
X3103389Y-612674D01*
X3103389Y-612674D02*
X3084341Y-622198D01*
X3084341Y-622198D02*
X3046246Y-622198D01*
X3046246Y-622198D02*
X3027199Y-631722D01*
X3027199Y-631722D02*
X3017675Y-641246D01*
X3017675Y-641246D02*
X3008151Y-660293D01*
X3008151Y-660293D02*
X3008151Y-698389D01*
X3008151Y-698389D02*
X3017675Y-717436D01*
X3017675Y-717436D02*
X3027199Y-726960D01*
X3027199Y-726960D02*
X3046246Y-736484D01*
X3046246Y-736484D02*
X3084341Y-736484D01*
X3084341Y-736484D02*
X3103389Y-726960D01*
X3103389Y-726960D02*
X3112913Y-717436D01*
X3112913Y-717436D02*
X3122437Y-698389D01*
X3122437Y-698389D02*
X3122437Y-660293D01*
X3122437Y-660293D02*
X3112913Y-641246D01*
X3112913Y-641246D02*
X3103389Y-631722D01*
X3103389Y-631722D02*
X3084341Y-622198D01*
X3198627Y-536484D02*
X3198627Y-574579D01*
X3274818Y-536484D02*
X3274818Y-574579D01*
X3570056Y-812674D02*
X3560532Y-803150D01*
X3560532Y-803150D02*
X3541484Y-774579D01*
X3541484Y-774579D02*
X3531961Y-755531D01*
X3531961Y-755531D02*
X3522437Y-726960D01*
X3522437Y-726960D02*
X3512913Y-679341D01*
X3512913Y-679341D02*
X3512913Y-641246D01*
X3512913Y-641246D02*
X3522437Y-593627D01*
X3522437Y-593627D02*
X3531961Y-565055D01*
X3531961Y-565055D02*
X3541484Y-546008D01*
X3541484Y-546008D02*
X3560532Y-517436D01*
X3560532Y-517436D02*
X3570056Y-507912D01*
X3655770Y-736484D02*
X3693865Y-736484D01*
X3693865Y-736484D02*
X3712913Y-726960D01*
X3712913Y-726960D02*
X3722437Y-717436D01*
X3722437Y-717436D02*
X3741484Y-688865D01*
X3741484Y-688865D02*
X3751008Y-650770D01*
X3751008Y-650770D02*
X3751008Y-574579D01*
X3751008Y-574579D02*
X3741484Y-555531D01*
X3741484Y-555531D02*
X3731961Y-546008D01*
X3731961Y-546008D02*
X3712913Y-536484D01*
X3712913Y-536484D02*
X3674818Y-536484D01*
X3674818Y-536484D02*
X3655770Y-546008D01*
X3655770Y-546008D02*
X3646246Y-555531D01*
X3646246Y-555531D02*
X3636722Y-574579D01*
X3636722Y-574579D02*
X3636722Y-622198D01*
X3636722Y-622198D02*
X3646246Y-641246D01*
X3646246Y-641246D02*
X3655770Y-650770D01*
X3655770Y-650770D02*
X3674818Y-660293D01*
X3674818Y-660293D02*
X3712913Y-660293D01*
X3712913Y-660293D02*
X3731961Y-650770D01*
X3731961Y-650770D02*
X3741484Y-641246D01*
X3741484Y-641246D02*
X3751008Y-622198D01*
X3989103Y-736484D02*
X3989103Y-536484D01*
X4074818Y-736484D02*
X4074818Y-631722D01*
X4074818Y-631722D02*
X4065294Y-612674D01*
X4065294Y-612674D02*
X4046246Y-603150D01*
X4046246Y-603150D02*
X4017675Y-603150D01*
X4017675Y-603150D02*
X3998627Y-612674D01*
X3998627Y-612674D02*
X3989103Y-622198D01*
X4198627Y-736484D02*
X4179580Y-726960D01*
X4179580Y-726960D02*
X4170056Y-717436D01*
X4170056Y-717436D02*
X4160532Y-698389D01*
X4160532Y-698389D02*
X4160532Y-641246D01*
X4160532Y-641246D02*
X4170056Y-622198D01*
X4170056Y-622198D02*
X4179580Y-612674D01*
X4179580Y-612674D02*
X4198627Y-603150D01*
X4198627Y-603150D02*
X4227199Y-603150D01*
X4227199Y-603150D02*
X4246246Y-612674D01*
X4246246Y-612674D02*
X4255770Y-622198D01*
X4255770Y-622198D02*
X4265294Y-641246D01*
X4265294Y-641246D02*
X4265294Y-698389D01*
X4265294Y-698389D02*
X4255770Y-717436D01*
X4255770Y-717436D02*
X4246246Y-726960D01*
X4246246Y-726960D02*
X4227199Y-736484D01*
X4227199Y-736484D02*
X4198627Y-736484D01*
X4379580Y-736484D02*
X4360532Y-726960D01*
X4360532Y-726960D02*
X4351008Y-707912D01*
X4351008Y-707912D02*
X4351008Y-536484D01*
X4531961Y-726960D02*
X4512913Y-736484D01*
X4512913Y-736484D02*
X4474818Y-736484D01*
X4474818Y-736484D02*
X4455770Y-726960D01*
X4455770Y-726960D02*
X4446246Y-707912D01*
X4446246Y-707912D02*
X4446246Y-631722D01*
X4446246Y-631722D02*
X4455770Y-612674D01*
X4455770Y-612674D02*
X4474818Y-603150D01*
X4474818Y-603150D02*
X4512913Y-603150D01*
X4512913Y-603150D02*
X4531961Y-612674D01*
X4531961Y-612674D02*
X4541485Y-631722D01*
X4541485Y-631722D02*
X4541485Y-650770D01*
X4541485Y-650770D02*
X4446246Y-669817D01*
X4617675Y-726960D02*
X4636723Y-736484D01*
X4636723Y-736484D02*
X4674818Y-736484D01*
X4674818Y-736484D02*
X4693866Y-726960D01*
X4693866Y-726960D02*
X4703389Y-707912D01*
X4703389Y-707912D02*
X4703389Y-698389D01*
X4703389Y-698389D02*
X4693866Y-679341D01*
X4693866Y-679341D02*
X4674818Y-669817D01*
X4674818Y-669817D02*
X4646246Y-669817D01*
X4646246Y-669817D02*
X4627199Y-660293D01*
X4627199Y-660293D02*
X4617675Y-641246D01*
X4617675Y-641246D02*
X4617675Y-631722D01*
X4617675Y-631722D02*
X4627199Y-612674D01*
X4627199Y-612674D02*
X4646246Y-603150D01*
X4646246Y-603150D02*
X4674818Y-603150D01*
X4674818Y-603150D02*
X4693866Y-612674D01*
X4770056Y-812674D02*
X4779580Y-803150D01*
X4779580Y-803150D02*
X4798627Y-774579D01*
X4798627Y-774579D02*
X4808151Y-755531D01*
X4808151Y-755531D02*
X4817675Y-726960D01*
X4817675Y-726960D02*
X4827199Y-679341D01*
X4827199Y-679341D02*
X4827199Y-641246D01*
X4827199Y-641246D02*
X4817675Y-593627D01*
X4817675Y-593627D02*
X4808151Y-565055D01*
X4808151Y-565055D02*
X4798627Y-546008D01*
X4798627Y-546008D02*
X4779580Y-517436D01*
X4779580Y-517436D02*
X4770056Y-507912D01*
D13*
X-5007Y-909000D02*
G75*
G03*
X-5007Y-909000I-20000J0D01*
G01*
D11*
X293865Y-800484D02*
X312913Y-800484D01*
X312913Y-800484D02*
X331960Y-810008D01*
X331960Y-810008D02*
X341484Y-819531D01*
X341484Y-819531D02*
X351008Y-838579D01*
X351008Y-838579D02*
X360532Y-876674D01*
X360532Y-876674D02*
X360532Y-924293D01*
X360532Y-924293D02*
X351008Y-962388D01*
X351008Y-962388D02*
X341484Y-981436D01*
X341484Y-981436D02*
X331960Y-990960D01*
X331960Y-990960D02*
X312913Y-1000484D01*
X312913Y-1000484D02*
X293865Y-1000484D01*
X293865Y-1000484D02*
X274817Y-990960D01*
X274817Y-990960D02*
X265294Y-981436D01*
X265294Y-981436D02*
X255770Y-962388D01*
X255770Y-962388D02*
X246246Y-924293D01*
X246246Y-924293D02*
X246246Y-876674D01*
X246246Y-876674D02*
X255770Y-838579D01*
X255770Y-838579D02*
X265294Y-819531D01*
X265294Y-819531D02*
X274817Y-810008D01*
X274817Y-810008D02*
X293865Y-800484D01*
X446246Y-981436D02*
X455770Y-990960D01*
X455770Y-990960D02*
X446246Y-1000484D01*
X446246Y-1000484D02*
X436722Y-990960D01*
X436722Y-990960D02*
X446246Y-981436D01*
X446246Y-981436D02*
X446246Y-1000484D01*
X627198Y-867150D02*
X627198Y-1000484D01*
X579579Y-790960D02*
X531960Y-933817D01*
X531960Y-933817D02*
X655770Y-933817D01*
X770055Y-800484D02*
X789103Y-800484D01*
X789103Y-800484D02*
X808151Y-810008D01*
X808151Y-810008D02*
X817675Y-819531D01*
X817675Y-819531D02*
X827198Y-838579D01*
X827198Y-838579D02*
X836722Y-876674D01*
X836722Y-876674D02*
X836722Y-924293D01*
X836722Y-924293D02*
X827198Y-962388D01*
X827198Y-962388D02*
X817675Y-981436D01*
X817675Y-981436D02*
X808151Y-990960D01*
X808151Y-990960D02*
X789103Y-1000484D01*
X789103Y-1000484D02*
X770055Y-1000484D01*
X770055Y-1000484D02*
X751008Y-990960D01*
X751008Y-990960D02*
X741484Y-981436D01*
X741484Y-981436D02*
X731960Y-962388D01*
X731960Y-962388D02*
X722436Y-924293D01*
X722436Y-924293D02*
X722436Y-876674D01*
X722436Y-876674D02*
X731960Y-838579D01*
X731960Y-838579D02*
X741484Y-819531D01*
X741484Y-819531D02*
X751008Y-810008D01*
X751008Y-810008D02*
X770055Y-800484D01*
X960532Y-800484D02*
X979579Y-800484D01*
X979579Y-800484D02*
X998627Y-810008D01*
X998627Y-810008D02*
X1008151Y-819531D01*
X1008151Y-819531D02*
X1017675Y-838579D01*
X1017675Y-838579D02*
X1027198Y-876674D01*
X1027198Y-876674D02*
X1027198Y-924293D01*
X1027198Y-924293D02*
X1017675Y-962388D01*
X1017675Y-962388D02*
X1008151Y-981436D01*
X1008151Y-981436D02*
X998627Y-990960D01*
X998627Y-990960D02*
X979579Y-1000484D01*
X979579Y-1000484D02*
X960532Y-1000484D01*
X960532Y-1000484D02*
X941484Y-990960D01*
X941484Y-990960D02*
X931960Y-981436D01*
X931960Y-981436D02*
X922436Y-962388D01*
X922436Y-962388D02*
X912913Y-924293D01*
X912913Y-924293D02*
X912913Y-876674D01*
X912913Y-876674D02*
X922436Y-838579D01*
X922436Y-838579D02*
X931960Y-819531D01*
X931960Y-819531D02*
X941484Y-810008D01*
X941484Y-810008D02*
X960532Y-800484D01*
X1112913Y-1000484D02*
X1112913Y-867150D01*
X1112913Y-886198D02*
X1122437Y-876674D01*
X1122437Y-876674D02*
X1141484Y-867150D01*
X1141484Y-867150D02*
X1170056Y-867150D01*
X1170056Y-867150D02*
X1189103Y-876674D01*
X1189103Y-876674D02*
X1198627Y-895722D01*
X1198627Y-895722D02*
X1198627Y-1000484D01*
X1198627Y-895722D02*
X1208151Y-876674D01*
X1208151Y-876674D02*
X1227198Y-867150D01*
X1227198Y-867150D02*
X1255770Y-867150D01*
X1255770Y-867150D02*
X1274818Y-876674D01*
X1274818Y-876674D02*
X1284341Y-895722D01*
X1284341Y-895722D02*
X1284341Y-1000484D01*
X1379579Y-1000484D02*
X1379579Y-867150D01*
X1379579Y-886198D02*
X1389103Y-876674D01*
X1389103Y-876674D02*
X1408151Y-867150D01*
X1408151Y-867150D02*
X1436722Y-867150D01*
X1436722Y-867150D02*
X1455770Y-876674D01*
X1455770Y-876674D02*
X1465294Y-895722D01*
X1465294Y-895722D02*
X1465294Y-1000484D01*
X1465294Y-895722D02*
X1474817Y-876674D01*
X1474817Y-876674D02*
X1493865Y-867150D01*
X1493865Y-867150D02*
X1522436Y-867150D01*
X1522436Y-867150D02*
X1541484Y-876674D01*
X1541484Y-876674D02*
X1551008Y-895722D01*
X1551008Y-895722D02*
X1551008Y-1000484D01*
X1941484Y-790960D02*
X1770056Y-1048103D01*
X2198627Y-800484D02*
X2217675Y-800484D01*
X2217675Y-800484D02*
X2236722Y-810008D01*
X2236722Y-810008D02*
X2246246Y-819531D01*
X2246246Y-819531D02*
X2255770Y-838579D01*
X2255770Y-838579D02*
X2265294Y-876674D01*
X2265294Y-876674D02*
X2265294Y-924293D01*
X2265294Y-924293D02*
X2255770Y-962388D01*
X2255770Y-962388D02*
X2246246Y-981436D01*
X2246246Y-981436D02*
X2236722Y-990960D01*
X2236722Y-990960D02*
X2217675Y-1000484D01*
X2217675Y-1000484D02*
X2198627Y-1000484D01*
X2198627Y-1000484D02*
X2179580Y-990960D01*
X2179580Y-990960D02*
X2170056Y-981436D01*
X2170056Y-981436D02*
X2160532Y-962388D01*
X2160532Y-962388D02*
X2151008Y-924293D01*
X2151008Y-924293D02*
X2151008Y-876674D01*
X2151008Y-876674D02*
X2160532Y-838579D01*
X2160532Y-838579D02*
X2170056Y-819531D01*
X2170056Y-819531D02*
X2179580Y-810008D01*
X2179580Y-810008D02*
X2198627Y-800484D01*
X2351008Y-981436D02*
X2360532Y-990960D01*
X2360532Y-990960D02*
X2351008Y-1000484D01*
X2351008Y-1000484D02*
X2341484Y-990960D01*
X2341484Y-990960D02*
X2351008Y-981436D01*
X2351008Y-981436D02*
X2351008Y-1000484D01*
X2484341Y-800484D02*
X2503389Y-800484D01*
X2503389Y-800484D02*
X2522437Y-810008D01*
X2522437Y-810008D02*
X2531961Y-819531D01*
X2531961Y-819531D02*
X2541484Y-838579D01*
X2541484Y-838579D02*
X2551008Y-876674D01*
X2551008Y-876674D02*
X2551008Y-924293D01*
X2551008Y-924293D02*
X2541484Y-962388D01*
X2541484Y-962388D02*
X2531961Y-981436D01*
X2531961Y-981436D02*
X2522437Y-990960D01*
X2522437Y-990960D02*
X2503389Y-1000484D01*
X2503389Y-1000484D02*
X2484341Y-1000484D01*
X2484341Y-1000484D02*
X2465294Y-990960D01*
X2465294Y-990960D02*
X2455770Y-981436D01*
X2455770Y-981436D02*
X2446246Y-962388D01*
X2446246Y-962388D02*
X2436722Y-924293D01*
X2436722Y-924293D02*
X2436722Y-876674D01*
X2436722Y-876674D02*
X2446246Y-838579D01*
X2446246Y-838579D02*
X2455770Y-819531D01*
X2455770Y-819531D02*
X2465294Y-810008D01*
X2465294Y-810008D02*
X2484341Y-800484D01*
X2741484Y-1000484D02*
X2627199Y-1000484D01*
X2684341Y-1000484D02*
X2684341Y-800484D01*
X2684341Y-800484D02*
X2665294Y-829055D01*
X2665294Y-829055D02*
X2646246Y-848103D01*
X2646246Y-848103D02*
X2627199Y-857627D01*
X2922437Y-800484D02*
X2827199Y-800484D01*
X2827199Y-800484D02*
X2817675Y-895722D01*
X2817675Y-895722D02*
X2827199Y-886198D01*
X2827199Y-886198D02*
X2846246Y-876674D01*
X2846246Y-876674D02*
X2893865Y-876674D01*
X2893865Y-876674D02*
X2912913Y-886198D01*
X2912913Y-886198D02*
X2922437Y-895722D01*
X2922437Y-895722D02*
X2931960Y-914769D01*
X2931960Y-914769D02*
X2931960Y-962388D01*
X2931960Y-962388D02*
X2922437Y-981436D01*
X2922437Y-981436D02*
X2912913Y-990960D01*
X2912913Y-990960D02*
X2893865Y-1000484D01*
X2893865Y-1000484D02*
X2846246Y-1000484D01*
X2846246Y-1000484D02*
X2827199Y-990960D01*
X2827199Y-990960D02*
X2817675Y-981436D01*
X2998627Y-800484D02*
X3131960Y-800484D01*
X3131960Y-800484D02*
X3046246Y-1000484D01*
X3198627Y-800484D02*
X3198627Y-838579D01*
X3274818Y-800484D02*
X3274818Y-838579D01*
X3570056Y-1076674D02*
X3560532Y-1067150D01*
X3560532Y-1067150D02*
X3541484Y-1038579D01*
X3541484Y-1038579D02*
X3531961Y-1019531D01*
X3531961Y-1019531D02*
X3522437Y-990960D01*
X3522437Y-990960D02*
X3512913Y-943341D01*
X3512913Y-943341D02*
X3512913Y-905246D01*
X3512913Y-905246D02*
X3522437Y-857627D01*
X3522437Y-857627D02*
X3531961Y-829055D01*
X3531961Y-829055D02*
X3541484Y-810008D01*
X3541484Y-810008D02*
X3560532Y-781436D01*
X3560532Y-781436D02*
X3570056Y-771912D01*
X3731961Y-800484D02*
X3693865Y-800484D01*
X3693865Y-800484D02*
X3674818Y-810008D01*
X3674818Y-810008D02*
X3665294Y-819531D01*
X3665294Y-819531D02*
X3646246Y-848103D01*
X3646246Y-848103D02*
X3636722Y-886198D01*
X3636722Y-886198D02*
X3636722Y-962388D01*
X3636722Y-962388D02*
X3646246Y-981436D01*
X3646246Y-981436D02*
X3655770Y-990960D01*
X3655770Y-990960D02*
X3674818Y-1000484D01*
X3674818Y-1000484D02*
X3712913Y-1000484D01*
X3712913Y-1000484D02*
X3731961Y-990960D01*
X3731961Y-990960D02*
X3741484Y-981436D01*
X3741484Y-981436D02*
X3751008Y-962388D01*
X3751008Y-962388D02*
X3751008Y-914769D01*
X3751008Y-914769D02*
X3741484Y-895722D01*
X3741484Y-895722D02*
X3731961Y-886198D01*
X3731961Y-886198D02*
X3712913Y-876674D01*
X3712913Y-876674D02*
X3674818Y-876674D01*
X3674818Y-876674D02*
X3655770Y-886198D01*
X3655770Y-886198D02*
X3646246Y-895722D01*
X3646246Y-895722D02*
X3636722Y-914769D01*
X3874818Y-800484D02*
X3893865Y-800484D01*
X3893865Y-800484D02*
X3912913Y-810008D01*
X3912913Y-810008D02*
X3922437Y-819531D01*
X3922437Y-819531D02*
X3931961Y-838579D01*
X3931961Y-838579D02*
X3941484Y-876674D01*
X3941484Y-876674D02*
X3941484Y-924293D01*
X3941484Y-924293D02*
X3931961Y-962388D01*
X3931961Y-962388D02*
X3922437Y-981436D01*
X3922437Y-981436D02*
X3912913Y-990960D01*
X3912913Y-990960D02*
X3893865Y-1000484D01*
X3893865Y-1000484D02*
X3874818Y-1000484D01*
X3874818Y-1000484D02*
X3855770Y-990960D01*
X3855770Y-990960D02*
X3846246Y-981436D01*
X3846246Y-981436D02*
X3836722Y-962388D01*
X3836722Y-962388D02*
X3827199Y-924293D01*
X3827199Y-924293D02*
X3827199Y-876674D01*
X3827199Y-876674D02*
X3836722Y-838579D01*
X3836722Y-838579D02*
X3846246Y-819531D01*
X3846246Y-819531D02*
X3855770Y-810008D01*
X3855770Y-810008D02*
X3874818Y-800484D01*
X4179580Y-1000484D02*
X4179580Y-800484D01*
X4265294Y-1000484D02*
X4265294Y-895722D01*
X4265294Y-895722D02*
X4255770Y-876674D01*
X4255770Y-876674D02*
X4236723Y-867150D01*
X4236723Y-867150D02*
X4208151Y-867150D01*
X4208151Y-867150D02*
X4189103Y-876674D01*
X4189103Y-876674D02*
X4179580Y-886198D01*
X4389104Y-1000484D02*
X4370056Y-990960D01*
X4370056Y-990960D02*
X4360532Y-981436D01*
X4360532Y-981436D02*
X4351008Y-962388D01*
X4351008Y-962388D02*
X4351008Y-905246D01*
X4351008Y-905246D02*
X4360532Y-886198D01*
X4360532Y-886198D02*
X4370056Y-876674D01*
X4370056Y-876674D02*
X4389104Y-867150D01*
X4389104Y-867150D02*
X4417675Y-867150D01*
X4417675Y-867150D02*
X4436723Y-876674D01*
X4436723Y-876674D02*
X4446246Y-886198D01*
X4446246Y-886198D02*
X4455770Y-905246D01*
X4455770Y-905246D02*
X4455770Y-962388D01*
X4455770Y-962388D02*
X4446246Y-981436D01*
X4446246Y-981436D02*
X4436723Y-990960D01*
X4436723Y-990960D02*
X4417675Y-1000484D01*
X4417675Y-1000484D02*
X4389104Y-1000484D01*
X4570056Y-1000484D02*
X4551008Y-990960D01*
X4551008Y-990960D02*
X4541485Y-971912D01*
X4541485Y-971912D02*
X4541485Y-800484D01*
X4722437Y-990960D02*
X4703389Y-1000484D01*
X4703389Y-1000484D02*
X4665294Y-1000484D01*
X4665294Y-1000484D02*
X4646246Y-990960D01*
X4646246Y-990960D02*
X4636723Y-971912D01*
X4636723Y-971912D02*
X4636723Y-895722D01*
X4636723Y-895722D02*
X4646246Y-876674D01*
X4646246Y-876674D02*
X4665294Y-867150D01*
X4665294Y-867150D02*
X4703389Y-867150D01*
X4703389Y-867150D02*
X4722437Y-876674D01*
X4722437Y-876674D02*
X4731961Y-895722D01*
X4731961Y-895722D02*
X4731961Y-914769D01*
X4731961Y-914769D02*
X4636723Y-933817D01*
X4808151Y-990960D02*
X4827199Y-1000484D01*
X4827199Y-1000484D02*
X4865294Y-1000484D01*
X4865294Y-1000484D02*
X4884342Y-990960D01*
X4884342Y-990960D02*
X4893866Y-971912D01*
X4893866Y-971912D02*
X4893866Y-962388D01*
X4893866Y-962388D02*
X4884342Y-943341D01*
X4884342Y-943341D02*
X4865294Y-933817D01*
X4865294Y-933817D02*
X4836723Y-933817D01*
X4836723Y-933817D02*
X4817675Y-924293D01*
X4817675Y-924293D02*
X4808151Y-905246D01*
X4808151Y-905246D02*
X4808151Y-895722D01*
X4808151Y-895722D02*
X4817675Y-876674D01*
X4817675Y-876674D02*
X4836723Y-867150D01*
X4836723Y-867150D02*
X4865294Y-867150D01*
X4865294Y-867150D02*
X4884342Y-876674D01*
X4960532Y-1076674D02*
X4970056Y-1067150D01*
X4970056Y-1067150D02*
X4989104Y-1038579D01*
X4989104Y-1038579D02*
X4998627Y-1019531D01*
X4998627Y-1019531D02*
X5008151Y-990960D01*
X5008151Y-990960D02*
X5017675Y-943341D01*
X5017675Y-943341D02*
X5017675Y-905246D01*
X5017675Y-905246D02*
X5008151Y-857627D01*
X5008151Y-857627D02*
X4998627Y-829055D01*
X4998627Y-829055D02*
X4989104Y-810008D01*
X4989104Y-810008D02*
X4970056Y-781436D01*
X4970056Y-781436D02*
X4960532Y-771912D01*
D14*
X-35007Y-1143000D02*
X-35007Y-1203000D01*
X-65007Y-1173000D02*
X-5007Y-1173000D01*
D11*
X293865Y-1064484D02*
X312913Y-1064484D01*
X312913Y-1064484D02*
X331960Y-1074008D01*
X331960Y-1074008D02*
X341484Y-1083531D01*
X341484Y-1083531D02*
X351008Y-1102579D01*
X351008Y-1102579D02*
X360532Y-1140674D01*
X360532Y-1140674D02*
X360532Y-1188293D01*
X360532Y-1188293D02*
X351008Y-1226389D01*
X351008Y-1226389D02*
X341484Y-1245436D01*
X341484Y-1245436D02*
X331960Y-1254960D01*
X331960Y-1254960D02*
X312913Y-1264484D01*
X312913Y-1264484D02*
X293865Y-1264484D01*
X293865Y-1264484D02*
X274817Y-1254960D01*
X274817Y-1254960D02*
X265294Y-1245436D01*
X265294Y-1245436D02*
X255770Y-1226389D01*
X255770Y-1226389D02*
X246246Y-1188293D01*
X246246Y-1188293D02*
X246246Y-1140674D01*
X246246Y-1140674D02*
X255770Y-1102579D01*
X255770Y-1102579D02*
X265294Y-1083531D01*
X265294Y-1083531D02*
X274817Y-1074008D01*
X274817Y-1074008D02*
X293865Y-1064484D01*
X446246Y-1245436D02*
X455770Y-1254960D01*
X455770Y-1254960D02*
X446246Y-1264484D01*
X446246Y-1264484D02*
X436722Y-1254960D01*
X436722Y-1254960D02*
X446246Y-1245436D01*
X446246Y-1245436D02*
X446246Y-1264484D01*
X627198Y-1064484D02*
X589103Y-1064484D01*
X589103Y-1064484D02*
X570056Y-1074008D01*
X570056Y-1074008D02*
X560532Y-1083531D01*
X560532Y-1083531D02*
X541484Y-1112103D01*
X541484Y-1112103D02*
X531960Y-1150198D01*
X531960Y-1150198D02*
X531960Y-1226389D01*
X531960Y-1226389D02*
X541484Y-1245436D01*
X541484Y-1245436D02*
X551008Y-1254960D01*
X551008Y-1254960D02*
X570056Y-1264484D01*
X570056Y-1264484D02*
X608151Y-1264484D01*
X608151Y-1264484D02*
X627198Y-1254960D01*
X627198Y-1254960D02*
X636722Y-1245436D01*
X636722Y-1245436D02*
X646246Y-1226389D01*
X646246Y-1226389D02*
X646246Y-1178770D01*
X646246Y-1178770D02*
X636722Y-1159722D01*
X636722Y-1159722D02*
X627198Y-1150198D01*
X627198Y-1150198D02*
X608151Y-1140674D01*
X608151Y-1140674D02*
X570056Y-1140674D01*
X570056Y-1140674D02*
X551008Y-1150198D01*
X551008Y-1150198D02*
X541484Y-1159722D01*
X541484Y-1159722D02*
X531960Y-1178770D01*
X770055Y-1064484D02*
X789103Y-1064484D01*
X789103Y-1064484D02*
X808151Y-1074008D01*
X808151Y-1074008D02*
X817675Y-1083531D01*
X817675Y-1083531D02*
X827198Y-1102579D01*
X827198Y-1102579D02*
X836722Y-1140674D01*
X836722Y-1140674D02*
X836722Y-1188293D01*
X836722Y-1188293D02*
X827198Y-1226389D01*
X827198Y-1226389D02*
X817675Y-1245436D01*
X817675Y-1245436D02*
X808151Y-1254960D01*
X808151Y-1254960D02*
X789103Y-1264484D01*
X789103Y-1264484D02*
X770055Y-1264484D01*
X770055Y-1264484D02*
X751008Y-1254960D01*
X751008Y-1254960D02*
X741484Y-1245436D01*
X741484Y-1245436D02*
X731960Y-1226389D01*
X731960Y-1226389D02*
X722436Y-1188293D01*
X722436Y-1188293D02*
X722436Y-1140674D01*
X722436Y-1140674D02*
X731960Y-1102579D01*
X731960Y-1102579D02*
X741484Y-1083531D01*
X741484Y-1083531D02*
X751008Y-1074008D01*
X751008Y-1074008D02*
X770055Y-1064484D01*
X960532Y-1064484D02*
X979579Y-1064484D01*
X979579Y-1064484D02*
X998627Y-1074008D01*
X998627Y-1074008D02*
X1008151Y-1083531D01*
X1008151Y-1083531D02*
X1017675Y-1102579D01*
X1017675Y-1102579D02*
X1027198Y-1140674D01*
X1027198Y-1140674D02*
X1027198Y-1188293D01*
X1027198Y-1188293D02*
X1017675Y-1226389D01*
X1017675Y-1226389D02*
X1008151Y-1245436D01*
X1008151Y-1245436D02*
X998627Y-1254960D01*
X998627Y-1254960D02*
X979579Y-1264484D01*
X979579Y-1264484D02*
X960532Y-1264484D01*
X960532Y-1264484D02*
X941484Y-1254960D01*
X941484Y-1254960D02*
X931960Y-1245436D01*
X931960Y-1245436D02*
X922436Y-1226389D01*
X922436Y-1226389D02*
X912913Y-1188293D01*
X912913Y-1188293D02*
X912913Y-1140674D01*
X912913Y-1140674D02*
X922436Y-1102579D01*
X922436Y-1102579D02*
X931960Y-1083531D01*
X931960Y-1083531D02*
X941484Y-1074008D01*
X941484Y-1074008D02*
X960532Y-1064484D01*
X1112913Y-1264484D02*
X1112913Y-1131150D01*
X1112913Y-1150198D02*
X1122437Y-1140674D01*
X1122437Y-1140674D02*
X1141484Y-1131150D01*
X1141484Y-1131150D02*
X1170056Y-1131150D01*
X1170056Y-1131150D02*
X1189103Y-1140674D01*
X1189103Y-1140674D02*
X1198627Y-1159722D01*
X1198627Y-1159722D02*
X1198627Y-1264484D01*
X1198627Y-1159722D02*
X1208151Y-1140674D01*
X1208151Y-1140674D02*
X1227198Y-1131150D01*
X1227198Y-1131150D02*
X1255770Y-1131150D01*
X1255770Y-1131150D02*
X1274818Y-1140674D01*
X1274818Y-1140674D02*
X1284341Y-1159722D01*
X1284341Y-1159722D02*
X1284341Y-1264484D01*
X1379579Y-1264484D02*
X1379579Y-1131150D01*
X1379579Y-1150198D02*
X1389103Y-1140674D01*
X1389103Y-1140674D02*
X1408151Y-1131150D01*
X1408151Y-1131150D02*
X1436722Y-1131150D01*
X1436722Y-1131150D02*
X1455770Y-1140674D01*
X1455770Y-1140674D02*
X1465294Y-1159722D01*
X1465294Y-1159722D02*
X1465294Y-1264484D01*
X1465294Y-1159722D02*
X1474817Y-1140674D01*
X1474817Y-1140674D02*
X1493865Y-1131150D01*
X1493865Y-1131150D02*
X1522436Y-1131150D01*
X1522436Y-1131150D02*
X1541484Y-1140674D01*
X1541484Y-1140674D02*
X1551008Y-1159722D01*
X1551008Y-1159722D02*
X1551008Y-1264484D01*
X1941484Y-1054960D02*
X1770056Y-1312103D01*
X2198627Y-1064484D02*
X2217675Y-1064484D01*
X2217675Y-1064484D02*
X2236722Y-1074008D01*
X2236722Y-1074008D02*
X2246246Y-1083531D01*
X2246246Y-1083531D02*
X2255770Y-1102579D01*
X2255770Y-1102579D02*
X2265294Y-1140674D01*
X2265294Y-1140674D02*
X2265294Y-1188293D01*
X2265294Y-1188293D02*
X2255770Y-1226389D01*
X2255770Y-1226389D02*
X2246246Y-1245436D01*
X2246246Y-1245436D02*
X2236722Y-1254960D01*
X2236722Y-1254960D02*
X2217675Y-1264484D01*
X2217675Y-1264484D02*
X2198627Y-1264484D01*
X2198627Y-1264484D02*
X2179580Y-1254960D01*
X2179580Y-1254960D02*
X2170056Y-1245436D01*
X2170056Y-1245436D02*
X2160532Y-1226389D01*
X2160532Y-1226389D02*
X2151008Y-1188293D01*
X2151008Y-1188293D02*
X2151008Y-1140674D01*
X2151008Y-1140674D02*
X2160532Y-1102579D01*
X2160532Y-1102579D02*
X2170056Y-1083531D01*
X2170056Y-1083531D02*
X2179580Y-1074008D01*
X2179580Y-1074008D02*
X2198627Y-1064484D01*
X2351008Y-1245436D02*
X2360532Y-1254960D01*
X2360532Y-1254960D02*
X2351008Y-1264484D01*
X2351008Y-1264484D02*
X2341484Y-1254960D01*
X2341484Y-1254960D02*
X2351008Y-1245436D01*
X2351008Y-1245436D02*
X2351008Y-1264484D01*
X2484341Y-1064484D02*
X2503389Y-1064484D01*
X2503389Y-1064484D02*
X2522437Y-1074008D01*
X2522437Y-1074008D02*
X2531961Y-1083531D01*
X2531961Y-1083531D02*
X2541484Y-1102579D01*
X2541484Y-1102579D02*
X2551008Y-1140674D01*
X2551008Y-1140674D02*
X2551008Y-1188293D01*
X2551008Y-1188293D02*
X2541484Y-1226389D01*
X2541484Y-1226389D02*
X2531961Y-1245436D01*
X2531961Y-1245436D02*
X2522437Y-1254960D01*
X2522437Y-1254960D02*
X2503389Y-1264484D01*
X2503389Y-1264484D02*
X2484341Y-1264484D01*
X2484341Y-1264484D02*
X2465294Y-1254960D01*
X2465294Y-1254960D02*
X2455770Y-1245436D01*
X2455770Y-1245436D02*
X2446246Y-1226389D01*
X2446246Y-1226389D02*
X2436722Y-1188293D01*
X2436722Y-1188293D02*
X2436722Y-1140674D01*
X2436722Y-1140674D02*
X2446246Y-1102579D01*
X2446246Y-1102579D02*
X2455770Y-1083531D01*
X2455770Y-1083531D02*
X2465294Y-1074008D01*
X2465294Y-1074008D02*
X2484341Y-1064484D01*
X2627199Y-1083531D02*
X2636722Y-1074008D01*
X2636722Y-1074008D02*
X2655770Y-1064484D01*
X2655770Y-1064484D02*
X2703389Y-1064484D01*
X2703389Y-1064484D02*
X2722437Y-1074008D01*
X2722437Y-1074008D02*
X2731961Y-1083531D01*
X2731961Y-1083531D02*
X2741484Y-1102579D01*
X2741484Y-1102579D02*
X2741484Y-1121627D01*
X2741484Y-1121627D02*
X2731961Y-1150198D01*
X2731961Y-1150198D02*
X2617675Y-1264484D01*
X2617675Y-1264484D02*
X2741484Y-1264484D01*
X2808151Y-1064484D02*
X2931960Y-1064484D01*
X2931960Y-1064484D02*
X2865294Y-1140674D01*
X2865294Y-1140674D02*
X2893865Y-1140674D01*
X2893865Y-1140674D02*
X2912913Y-1150198D01*
X2912913Y-1150198D02*
X2922437Y-1159722D01*
X2922437Y-1159722D02*
X2931960Y-1178770D01*
X2931960Y-1178770D02*
X2931960Y-1226389D01*
X2931960Y-1226389D02*
X2922437Y-1245436D01*
X2922437Y-1245436D02*
X2912913Y-1254960D01*
X2912913Y-1254960D02*
X2893865Y-1264484D01*
X2893865Y-1264484D02*
X2836722Y-1264484D01*
X2836722Y-1264484D02*
X2817675Y-1254960D01*
X2817675Y-1254960D02*
X2808151Y-1245436D01*
X3103389Y-1064484D02*
X3065294Y-1064484D01*
X3065294Y-1064484D02*
X3046246Y-1074008D01*
X3046246Y-1074008D02*
X3036722Y-1083531D01*
X3036722Y-1083531D02*
X3017675Y-1112103D01*
X3017675Y-1112103D02*
X3008151Y-1150198D01*
X3008151Y-1150198D02*
X3008151Y-1226389D01*
X3008151Y-1226389D02*
X3017675Y-1245436D01*
X3017675Y-1245436D02*
X3027199Y-1254960D01*
X3027199Y-1254960D02*
X3046246Y-1264484D01*
X3046246Y-1264484D02*
X3084341Y-1264484D01*
X3084341Y-1264484D02*
X3103389Y-1254960D01*
X3103389Y-1254960D02*
X3112913Y-1245436D01*
X3112913Y-1245436D02*
X3122437Y-1226389D01*
X3122437Y-1226389D02*
X3122437Y-1178770D01*
X3122437Y-1178770D02*
X3112913Y-1159722D01*
X3112913Y-1159722D02*
X3103389Y-1150198D01*
X3103389Y-1150198D02*
X3084341Y-1140674D01*
X3084341Y-1140674D02*
X3046246Y-1140674D01*
X3046246Y-1140674D02*
X3027199Y-1150198D01*
X3027199Y-1150198D02*
X3017675Y-1159722D01*
X3017675Y-1159722D02*
X3008151Y-1178770D01*
X3198627Y-1064484D02*
X3198627Y-1102579D01*
X3274818Y-1064484D02*
X3274818Y-1102579D01*
X3570056Y-1340674D02*
X3560532Y-1331150D01*
X3560532Y-1331150D02*
X3541484Y-1302579D01*
X3541484Y-1302579D02*
X3531961Y-1283531D01*
X3531961Y-1283531D02*
X3522437Y-1254960D01*
X3522437Y-1254960D02*
X3512913Y-1207341D01*
X3512913Y-1207341D02*
X3512913Y-1169246D01*
X3512913Y-1169246D02*
X3522437Y-1121627D01*
X3522437Y-1121627D02*
X3531961Y-1093055D01*
X3531961Y-1093055D02*
X3541484Y-1074008D01*
X3541484Y-1074008D02*
X3560532Y-1045436D01*
X3560532Y-1045436D02*
X3570056Y-1035912D01*
X3636722Y-1083531D02*
X3646246Y-1074008D01*
X3646246Y-1074008D02*
X3665294Y-1064484D01*
X3665294Y-1064484D02*
X3712913Y-1064484D01*
X3712913Y-1064484D02*
X3731961Y-1074008D01*
X3731961Y-1074008D02*
X3741484Y-1083531D01*
X3741484Y-1083531D02*
X3751008Y-1102579D01*
X3751008Y-1102579D02*
X3751008Y-1121627D01*
X3751008Y-1121627D02*
X3741484Y-1150198D01*
X3741484Y-1150198D02*
X3627199Y-1264484D01*
X3627199Y-1264484D02*
X3751008Y-1264484D01*
X3989103Y-1264484D02*
X3989103Y-1064484D01*
X4074818Y-1264484D02*
X4074818Y-1159722D01*
X4074818Y-1159722D02*
X4065294Y-1140674D01*
X4065294Y-1140674D02*
X4046246Y-1131150D01*
X4046246Y-1131150D02*
X4017675Y-1131150D01*
X4017675Y-1131150D02*
X3998627Y-1140674D01*
X3998627Y-1140674D02*
X3989103Y-1150198D01*
X4198627Y-1264484D02*
X4179580Y-1254960D01*
X4179580Y-1254960D02*
X4170056Y-1245436D01*
X4170056Y-1245436D02*
X4160532Y-1226389D01*
X4160532Y-1226389D02*
X4160532Y-1169246D01*
X4160532Y-1169246D02*
X4170056Y-1150198D01*
X4170056Y-1150198D02*
X4179580Y-1140674D01*
X4179580Y-1140674D02*
X4198627Y-1131150D01*
X4198627Y-1131150D02*
X4227199Y-1131150D01*
X4227199Y-1131150D02*
X4246246Y-1140674D01*
X4246246Y-1140674D02*
X4255770Y-1150198D01*
X4255770Y-1150198D02*
X4265294Y-1169246D01*
X4265294Y-1169246D02*
X4265294Y-1226389D01*
X4265294Y-1226389D02*
X4255770Y-1245436D01*
X4255770Y-1245436D02*
X4246246Y-1254960D01*
X4246246Y-1254960D02*
X4227199Y-1264484D01*
X4227199Y-1264484D02*
X4198627Y-1264484D01*
X4379580Y-1264484D02*
X4360532Y-1254960D01*
X4360532Y-1254960D02*
X4351008Y-1235912D01*
X4351008Y-1235912D02*
X4351008Y-1064484D01*
X4531961Y-1254960D02*
X4512913Y-1264484D01*
X4512913Y-1264484D02*
X4474818Y-1264484D01*
X4474818Y-1264484D02*
X4455770Y-1254960D01*
X4455770Y-1254960D02*
X4446246Y-1235912D01*
X4446246Y-1235912D02*
X4446246Y-1159722D01*
X4446246Y-1159722D02*
X4455770Y-1140674D01*
X4455770Y-1140674D02*
X4474818Y-1131150D01*
X4474818Y-1131150D02*
X4512913Y-1131150D01*
X4512913Y-1131150D02*
X4531961Y-1140674D01*
X4531961Y-1140674D02*
X4541485Y-1159722D01*
X4541485Y-1159722D02*
X4541485Y-1178770D01*
X4541485Y-1178770D02*
X4446246Y-1197817D01*
X4617675Y-1254960D02*
X4636723Y-1264484D01*
X4636723Y-1264484D02*
X4674818Y-1264484D01*
X4674818Y-1264484D02*
X4693866Y-1254960D01*
X4693866Y-1254960D02*
X4703389Y-1235912D01*
X4703389Y-1235912D02*
X4703389Y-1226389D01*
X4703389Y-1226389D02*
X4693866Y-1207341D01*
X4693866Y-1207341D02*
X4674818Y-1197817D01*
X4674818Y-1197817D02*
X4646246Y-1197817D01*
X4646246Y-1197817D02*
X4627199Y-1188293D01*
X4627199Y-1188293D02*
X4617675Y-1169246D01*
X4617675Y-1169246D02*
X4617675Y-1159722D01*
X4617675Y-1159722D02*
X4627199Y-1140674D01*
X4627199Y-1140674D02*
X4646246Y-1131150D01*
X4646246Y-1131150D02*
X4674818Y-1131150D01*
X4674818Y-1131150D02*
X4693866Y-1140674D01*
X4770056Y-1340674D02*
X4779580Y-1331150D01*
X4779580Y-1331150D02*
X4798627Y-1302579D01*
X4798627Y-1302579D02*
X4808151Y-1283531D01*
X4808151Y-1283531D02*
X4817675Y-1254960D01*
X4817675Y-1254960D02*
X4827199Y-1207341D01*
X4827199Y-1207341D02*
X4827199Y-1169246D01*
X4827199Y-1169246D02*
X4817675Y-1121627D01*
X4817675Y-1121627D02*
X4808151Y-1093055D01*
X4808151Y-1093055D02*
X4798627Y-1074008D01*
X4798627Y-1074008D02*
X4779580Y-1045436D01*
X4779580Y-1045436D02*
X4770056Y-1035912D01*
D10*
X-19651Y-1472356D02*
X-19651Y-1401644D01*
X-90363Y-1401644D01*
X-90363Y-1472356D01*
X-19651Y-1472356D01*
D11*
X360532Y-1528484D02*
X246246Y-1528484D01*
X303389Y-1528484D02*
X303389Y-1328484D01*
X303389Y-1328484D02*
X284341Y-1357055D01*
X284341Y-1357055D02*
X265294Y-1376103D01*
X265294Y-1376103D02*
X246246Y-1385627D01*
X446246Y-1509436D02*
X455770Y-1518960D01*
X455770Y-1518960D02*
X446246Y-1528484D01*
X446246Y-1528484D02*
X436722Y-1518960D01*
X436722Y-1518960D02*
X446246Y-1509436D01*
X446246Y-1509436D02*
X446246Y-1528484D01*
X579579Y-1328484D02*
X598627Y-1328484D01*
X598627Y-1328484D02*
X617675Y-1338008D01*
X617675Y-1338008D02*
X627198Y-1347531D01*
X627198Y-1347531D02*
X636722Y-1366579D01*
X636722Y-1366579D02*
X646246Y-1404674D01*
X646246Y-1404674D02*
X646246Y-1452293D01*
X646246Y-1452293D02*
X636722Y-1490388D01*
X636722Y-1490388D02*
X627198Y-1509436D01*
X627198Y-1509436D02*
X617675Y-1518960D01*
X617675Y-1518960D02*
X598627Y-1528484D01*
X598627Y-1528484D02*
X579579Y-1528484D01*
X579579Y-1528484D02*
X560532Y-1518960D01*
X560532Y-1518960D02*
X551008Y-1509436D01*
X551008Y-1509436D02*
X541484Y-1490388D01*
X541484Y-1490388D02*
X531960Y-1452293D01*
X531960Y-1452293D02*
X531960Y-1404674D01*
X531960Y-1404674D02*
X541484Y-1366579D01*
X541484Y-1366579D02*
X551008Y-1347531D01*
X551008Y-1347531D02*
X560532Y-1338008D01*
X560532Y-1338008D02*
X579579Y-1328484D01*
X770055Y-1328484D02*
X789103Y-1328484D01*
X789103Y-1328484D02*
X808151Y-1338008D01*
X808151Y-1338008D02*
X817675Y-1347531D01*
X817675Y-1347531D02*
X827198Y-1366579D01*
X827198Y-1366579D02*
X836722Y-1404674D01*
X836722Y-1404674D02*
X836722Y-1452293D01*
X836722Y-1452293D02*
X827198Y-1490388D01*
X827198Y-1490388D02*
X817675Y-1509436D01*
X817675Y-1509436D02*
X808151Y-1518960D01*
X808151Y-1518960D02*
X789103Y-1528484D01*
X789103Y-1528484D02*
X770055Y-1528484D01*
X770055Y-1528484D02*
X751008Y-1518960D01*
X751008Y-1518960D02*
X741484Y-1509436D01*
X741484Y-1509436D02*
X731960Y-1490388D01*
X731960Y-1490388D02*
X722436Y-1452293D01*
X722436Y-1452293D02*
X722436Y-1404674D01*
X722436Y-1404674D02*
X731960Y-1366579D01*
X731960Y-1366579D02*
X741484Y-1347531D01*
X741484Y-1347531D02*
X751008Y-1338008D01*
X751008Y-1338008D02*
X770055Y-1328484D01*
X960532Y-1328484D02*
X979579Y-1328484D01*
X979579Y-1328484D02*
X998627Y-1338008D01*
X998627Y-1338008D02*
X1008151Y-1347531D01*
X1008151Y-1347531D02*
X1017675Y-1366579D01*
X1017675Y-1366579D02*
X1027198Y-1404674D01*
X1027198Y-1404674D02*
X1027198Y-1452293D01*
X1027198Y-1452293D02*
X1017675Y-1490388D01*
X1017675Y-1490388D02*
X1008151Y-1509436D01*
X1008151Y-1509436D02*
X998627Y-1518960D01*
X998627Y-1518960D02*
X979579Y-1528484D01*
X979579Y-1528484D02*
X960532Y-1528484D01*
X960532Y-1528484D02*
X941484Y-1518960D01*
X941484Y-1518960D02*
X931960Y-1509436D01*
X931960Y-1509436D02*
X922436Y-1490388D01*
X922436Y-1490388D02*
X912913Y-1452293D01*
X912913Y-1452293D02*
X912913Y-1404674D01*
X912913Y-1404674D02*
X922436Y-1366579D01*
X922436Y-1366579D02*
X931960Y-1347531D01*
X931960Y-1347531D02*
X941484Y-1338008D01*
X941484Y-1338008D02*
X960532Y-1328484D01*
X1112913Y-1528484D02*
X1112913Y-1395150D01*
X1112913Y-1414198D02*
X1122437Y-1404674D01*
X1122437Y-1404674D02*
X1141484Y-1395150D01*
X1141484Y-1395150D02*
X1170056Y-1395150D01*
X1170056Y-1395150D02*
X1189103Y-1404674D01*
X1189103Y-1404674D02*
X1198627Y-1423722D01*
X1198627Y-1423722D02*
X1198627Y-1528484D01*
X1198627Y-1423722D02*
X1208151Y-1404674D01*
X1208151Y-1404674D02*
X1227198Y-1395150D01*
X1227198Y-1395150D02*
X1255770Y-1395150D01*
X1255770Y-1395150D02*
X1274818Y-1404674D01*
X1274818Y-1404674D02*
X1284341Y-1423722D01*
X1284341Y-1423722D02*
X1284341Y-1528484D01*
X1379579Y-1528484D02*
X1379579Y-1395150D01*
X1379579Y-1414198D02*
X1389103Y-1404674D01*
X1389103Y-1404674D02*
X1408151Y-1395150D01*
X1408151Y-1395150D02*
X1436722Y-1395150D01*
X1436722Y-1395150D02*
X1455770Y-1404674D01*
X1455770Y-1404674D02*
X1465294Y-1423722D01*
X1465294Y-1423722D02*
X1465294Y-1528484D01*
X1465294Y-1423722D02*
X1474817Y-1404674D01*
X1474817Y-1404674D02*
X1493865Y-1395150D01*
X1493865Y-1395150D02*
X1522436Y-1395150D01*
X1522436Y-1395150D02*
X1541484Y-1404674D01*
X1541484Y-1404674D02*
X1551008Y-1423722D01*
X1551008Y-1423722D02*
X1551008Y-1528484D01*
X1941484Y-1318960D02*
X1770056Y-1576103D01*
X2198627Y-1328484D02*
X2217675Y-1328484D01*
X2217675Y-1328484D02*
X2236722Y-1338008D01*
X2236722Y-1338008D02*
X2246246Y-1347531D01*
X2246246Y-1347531D02*
X2255770Y-1366579D01*
X2255770Y-1366579D02*
X2265294Y-1404674D01*
X2265294Y-1404674D02*
X2265294Y-1452293D01*
X2265294Y-1452293D02*
X2255770Y-1490388D01*
X2255770Y-1490388D02*
X2246246Y-1509436D01*
X2246246Y-1509436D02*
X2236722Y-1518960D01*
X2236722Y-1518960D02*
X2217675Y-1528484D01*
X2217675Y-1528484D02*
X2198627Y-1528484D01*
X2198627Y-1528484D02*
X2179580Y-1518960D01*
X2179580Y-1518960D02*
X2170056Y-1509436D01*
X2170056Y-1509436D02*
X2160532Y-1490388D01*
X2160532Y-1490388D02*
X2151008Y-1452293D01*
X2151008Y-1452293D02*
X2151008Y-1404674D01*
X2151008Y-1404674D02*
X2160532Y-1366579D01*
X2160532Y-1366579D02*
X2170056Y-1347531D01*
X2170056Y-1347531D02*
X2179580Y-1338008D01*
X2179580Y-1338008D02*
X2198627Y-1328484D01*
X2351008Y-1509436D02*
X2360532Y-1518960D01*
X2360532Y-1518960D02*
X2351008Y-1528484D01*
X2351008Y-1528484D02*
X2341484Y-1518960D01*
X2341484Y-1518960D02*
X2351008Y-1509436D01*
X2351008Y-1509436D02*
X2351008Y-1528484D01*
X2484341Y-1328484D02*
X2503389Y-1328484D01*
X2503389Y-1328484D02*
X2522437Y-1338008D01*
X2522437Y-1338008D02*
X2531961Y-1347531D01*
X2531961Y-1347531D02*
X2541484Y-1366579D01*
X2541484Y-1366579D02*
X2551008Y-1404674D01*
X2551008Y-1404674D02*
X2551008Y-1452293D01*
X2551008Y-1452293D02*
X2541484Y-1490388D01*
X2541484Y-1490388D02*
X2531961Y-1509436D01*
X2531961Y-1509436D02*
X2522437Y-1518960D01*
X2522437Y-1518960D02*
X2503389Y-1528484D01*
X2503389Y-1528484D02*
X2484341Y-1528484D01*
X2484341Y-1528484D02*
X2465294Y-1518960D01*
X2465294Y-1518960D02*
X2455770Y-1509436D01*
X2455770Y-1509436D02*
X2446246Y-1490388D01*
X2446246Y-1490388D02*
X2436722Y-1452293D01*
X2436722Y-1452293D02*
X2436722Y-1404674D01*
X2436722Y-1404674D02*
X2446246Y-1366579D01*
X2446246Y-1366579D02*
X2455770Y-1347531D01*
X2455770Y-1347531D02*
X2465294Y-1338008D01*
X2465294Y-1338008D02*
X2484341Y-1328484D01*
X2617675Y-1328484D02*
X2741484Y-1328484D01*
X2741484Y-1328484D02*
X2674818Y-1404674D01*
X2674818Y-1404674D02*
X2703389Y-1404674D01*
X2703389Y-1404674D02*
X2722437Y-1414198D01*
X2722437Y-1414198D02*
X2731961Y-1423722D01*
X2731961Y-1423722D02*
X2741484Y-1442769D01*
X2741484Y-1442769D02*
X2741484Y-1490388D01*
X2741484Y-1490388D02*
X2731961Y-1509436D01*
X2731961Y-1509436D02*
X2722437Y-1518960D01*
X2722437Y-1518960D02*
X2703389Y-1528484D01*
X2703389Y-1528484D02*
X2646246Y-1528484D01*
X2646246Y-1528484D02*
X2627199Y-1518960D01*
X2627199Y-1518960D02*
X2617675Y-1509436D01*
X2836722Y-1528484D02*
X2874818Y-1528484D01*
X2874818Y-1528484D02*
X2893865Y-1518960D01*
X2893865Y-1518960D02*
X2903389Y-1509436D01*
X2903389Y-1509436D02*
X2922437Y-1480865D01*
X2922437Y-1480865D02*
X2931960Y-1442769D01*
X2931960Y-1442769D02*
X2931960Y-1366579D01*
X2931960Y-1366579D02*
X2922437Y-1347531D01*
X2922437Y-1347531D02*
X2912913Y-1338008D01*
X2912913Y-1338008D02*
X2893865Y-1328484D01*
X2893865Y-1328484D02*
X2855770Y-1328484D01*
X2855770Y-1328484D02*
X2836722Y-1338008D01*
X2836722Y-1338008D02*
X2827199Y-1347531D01*
X2827199Y-1347531D02*
X2817675Y-1366579D01*
X2817675Y-1366579D02*
X2817675Y-1414198D01*
X2817675Y-1414198D02*
X2827199Y-1433246D01*
X2827199Y-1433246D02*
X2836722Y-1442769D01*
X2836722Y-1442769D02*
X2855770Y-1452293D01*
X2855770Y-1452293D02*
X2893865Y-1452293D01*
X2893865Y-1452293D02*
X2912913Y-1442769D01*
X2912913Y-1442769D02*
X2922437Y-1433246D01*
X2922437Y-1433246D02*
X2931960Y-1414198D01*
X3103389Y-1395150D02*
X3103389Y-1528484D01*
X3055770Y-1318960D02*
X3008151Y-1461817D01*
X3008151Y-1461817D02*
X3131960Y-1461817D01*
X3198627Y-1328484D02*
X3198627Y-1366579D01*
X3274818Y-1328484D02*
X3274818Y-1366579D01*
X3570056Y-1604674D02*
X3560532Y-1595150D01*
X3560532Y-1595150D02*
X3541484Y-1566579D01*
X3541484Y-1566579D02*
X3531961Y-1547531D01*
X3531961Y-1547531D02*
X3522437Y-1518960D01*
X3522437Y-1518960D02*
X3512913Y-1471341D01*
X3512913Y-1471341D02*
X3512913Y-1433246D01*
X3512913Y-1433246D02*
X3522437Y-1385627D01*
X3522437Y-1385627D02*
X3531961Y-1357055D01*
X3531961Y-1357055D02*
X3541484Y-1338008D01*
X3541484Y-1338008D02*
X3560532Y-1309436D01*
X3560532Y-1309436D02*
X3570056Y-1299912D01*
X3741484Y-1328484D02*
X3646246Y-1328484D01*
X3646246Y-1328484D02*
X3636722Y-1423722D01*
X3636722Y-1423722D02*
X3646246Y-1414198D01*
X3646246Y-1414198D02*
X3665294Y-1404674D01*
X3665294Y-1404674D02*
X3712913Y-1404674D01*
X3712913Y-1404674D02*
X3731961Y-1414198D01*
X3731961Y-1414198D02*
X3741484Y-1423722D01*
X3741484Y-1423722D02*
X3751008Y-1442769D01*
X3751008Y-1442769D02*
X3751008Y-1490388D01*
X3751008Y-1490388D02*
X3741484Y-1509436D01*
X3741484Y-1509436D02*
X3731961Y-1518960D01*
X3731961Y-1518960D02*
X3712913Y-1528484D01*
X3712913Y-1528484D02*
X3665294Y-1528484D01*
X3665294Y-1528484D02*
X3646246Y-1518960D01*
X3646246Y-1518960D02*
X3636722Y-1509436D01*
X3989103Y-1528484D02*
X3989103Y-1328484D01*
X4074818Y-1528484D02*
X4074818Y-1423722D01*
X4074818Y-1423722D02*
X4065294Y-1404674D01*
X4065294Y-1404674D02*
X4046246Y-1395150D01*
X4046246Y-1395150D02*
X4017675Y-1395150D01*
X4017675Y-1395150D02*
X3998627Y-1404674D01*
X3998627Y-1404674D02*
X3989103Y-1414198D01*
X4198627Y-1528484D02*
X4179580Y-1518960D01*
X4179580Y-1518960D02*
X4170056Y-1509436D01*
X4170056Y-1509436D02*
X4160532Y-1490388D01*
X4160532Y-1490388D02*
X4160532Y-1433246D01*
X4160532Y-1433246D02*
X4170056Y-1414198D01*
X4170056Y-1414198D02*
X4179580Y-1404674D01*
X4179580Y-1404674D02*
X4198627Y-1395150D01*
X4198627Y-1395150D02*
X4227199Y-1395150D01*
X4227199Y-1395150D02*
X4246246Y-1404674D01*
X4246246Y-1404674D02*
X4255770Y-1414198D01*
X4255770Y-1414198D02*
X4265294Y-1433246D01*
X4265294Y-1433246D02*
X4265294Y-1490388D01*
X4265294Y-1490388D02*
X4255770Y-1509436D01*
X4255770Y-1509436D02*
X4246246Y-1518960D01*
X4246246Y-1518960D02*
X4227199Y-1528484D01*
X4227199Y-1528484D02*
X4198627Y-1528484D01*
X4379580Y-1528484D02*
X4360532Y-1518960D01*
X4360532Y-1518960D02*
X4351008Y-1499912D01*
X4351008Y-1499912D02*
X4351008Y-1328484D01*
X4531961Y-1518960D02*
X4512913Y-1528484D01*
X4512913Y-1528484D02*
X4474818Y-1528484D01*
X4474818Y-1528484D02*
X4455770Y-1518960D01*
X4455770Y-1518960D02*
X4446246Y-1499912D01*
X4446246Y-1499912D02*
X4446246Y-1423722D01*
X4446246Y-1423722D02*
X4455770Y-1404674D01*
X4455770Y-1404674D02*
X4474818Y-1395150D01*
X4474818Y-1395150D02*
X4512913Y-1395150D01*
X4512913Y-1395150D02*
X4531961Y-1404674D01*
X4531961Y-1404674D02*
X4541485Y-1423722D01*
X4541485Y-1423722D02*
X4541485Y-1442769D01*
X4541485Y-1442769D02*
X4446246Y-1461817D01*
X4617675Y-1518960D02*
X4636723Y-1528484D01*
X4636723Y-1528484D02*
X4674818Y-1528484D01*
X4674818Y-1528484D02*
X4693866Y-1518960D01*
X4693866Y-1518960D02*
X4703389Y-1499912D01*
X4703389Y-1499912D02*
X4703389Y-1490388D01*
X4703389Y-1490388D02*
X4693866Y-1471341D01*
X4693866Y-1471341D02*
X4674818Y-1461817D01*
X4674818Y-1461817D02*
X4646246Y-1461817D01*
X4646246Y-1461817D02*
X4627199Y-1452293D01*
X4627199Y-1452293D02*
X4617675Y-1433246D01*
X4617675Y-1433246D02*
X4617675Y-1423722D01*
X4617675Y-1423722D02*
X4627199Y-1404674D01*
X4627199Y-1404674D02*
X4646246Y-1395150D01*
X4646246Y-1395150D02*
X4674818Y-1395150D01*
X4674818Y-1395150D02*
X4693866Y-1404674D01*
X4770056Y-1604674D02*
X4779580Y-1595150D01*
X4779580Y-1595150D02*
X4798627Y-1566579D01*
X4798627Y-1566579D02*
X4808151Y-1547531D01*
X4808151Y-1547531D02*
X4817675Y-1518960D01*
X4817675Y-1518960D02*
X4827199Y-1471341D01*
X4827199Y-1471341D02*
X4827199Y-1433246D01*
X4827199Y-1433246D02*
X4817675Y-1385627D01*
X4817675Y-1385627D02*
X4808151Y-1357055D01*
X4808151Y-1357055D02*
X4798627Y-1338008D01*
X4798627Y-1338008D02*
X4779580Y-1309436D01*
X4779580Y-1309436D02*
X4770056Y-1299912D01*
D15*
X-78507Y-1774500D02*
X-5007Y-1701000D01*
X-78507Y-1627500D01*
X-152007Y-1701000D01*
X-78507Y-1774500D01*
D11*
X360532Y-1792484D02*
X246246Y-1792484D01*
X303389Y-1792484D02*
X303389Y-1592484D01*
X303389Y-1592484D02*
X284341Y-1621055D01*
X284341Y-1621055D02*
X265294Y-1640103D01*
X265294Y-1640103D02*
X246246Y-1649627D01*
X446246Y-1773436D02*
X455770Y-1782960D01*
X455770Y-1782960D02*
X446246Y-1792484D01*
X446246Y-1792484D02*
X436722Y-1782960D01*
X436722Y-1782960D02*
X446246Y-1773436D01*
X446246Y-1773436D02*
X446246Y-1792484D01*
X627198Y-1659150D02*
X627198Y-1792484D01*
X579579Y-1582960D02*
X531960Y-1725817D01*
X531960Y-1725817D02*
X655770Y-1725817D01*
X712913Y-1592484D02*
X846246Y-1592484D01*
X846246Y-1592484D02*
X760532Y-1792484D01*
X960532Y-1592484D02*
X979579Y-1592484D01*
X979579Y-1592484D02*
X998627Y-1602008D01*
X998627Y-1602008D02*
X1008151Y-1611531D01*
X1008151Y-1611531D02*
X1017675Y-1630579D01*
X1017675Y-1630579D02*
X1027198Y-1668674D01*
X1027198Y-1668674D02*
X1027198Y-1716293D01*
X1027198Y-1716293D02*
X1017675Y-1754388D01*
X1017675Y-1754388D02*
X1008151Y-1773436D01*
X1008151Y-1773436D02*
X998627Y-1782960D01*
X998627Y-1782960D02*
X979579Y-1792484D01*
X979579Y-1792484D02*
X960532Y-1792484D01*
X960532Y-1792484D02*
X941484Y-1782960D01*
X941484Y-1782960D02*
X931960Y-1773436D01*
X931960Y-1773436D02*
X922436Y-1754388D01*
X922436Y-1754388D02*
X912913Y-1716293D01*
X912913Y-1716293D02*
X912913Y-1668674D01*
X912913Y-1668674D02*
X922436Y-1630579D01*
X922436Y-1630579D02*
X931960Y-1611531D01*
X931960Y-1611531D02*
X941484Y-1602008D01*
X941484Y-1602008D02*
X960532Y-1592484D01*
X1112913Y-1792484D02*
X1112913Y-1659150D01*
X1112913Y-1678198D02*
X1122437Y-1668674D01*
X1122437Y-1668674D02*
X1141484Y-1659150D01*
X1141484Y-1659150D02*
X1170056Y-1659150D01*
X1170056Y-1659150D02*
X1189103Y-1668674D01*
X1189103Y-1668674D02*
X1198627Y-1687722D01*
X1198627Y-1687722D02*
X1198627Y-1792484D01*
X1198627Y-1687722D02*
X1208151Y-1668674D01*
X1208151Y-1668674D02*
X1227198Y-1659150D01*
X1227198Y-1659150D02*
X1255770Y-1659150D01*
X1255770Y-1659150D02*
X1274818Y-1668674D01*
X1274818Y-1668674D02*
X1284341Y-1687722D01*
X1284341Y-1687722D02*
X1284341Y-1792484D01*
X1379579Y-1792484D02*
X1379579Y-1659150D01*
X1379579Y-1678198D02*
X1389103Y-1668674D01*
X1389103Y-1668674D02*
X1408151Y-1659150D01*
X1408151Y-1659150D02*
X1436722Y-1659150D01*
X1436722Y-1659150D02*
X1455770Y-1668674D01*
X1455770Y-1668674D02*
X1465294Y-1687722D01*
X1465294Y-1687722D02*
X1465294Y-1792484D01*
X1465294Y-1687722D02*
X1474817Y-1668674D01*
X1474817Y-1668674D02*
X1493865Y-1659150D01*
X1493865Y-1659150D02*
X1522436Y-1659150D01*
X1522436Y-1659150D02*
X1541484Y-1668674D01*
X1541484Y-1668674D02*
X1551008Y-1687722D01*
X1551008Y-1687722D02*
X1551008Y-1792484D01*
X1941484Y-1582960D02*
X1770056Y-1840103D01*
X2198627Y-1592484D02*
X2217675Y-1592484D01*
X2217675Y-1592484D02*
X2236722Y-1602008D01*
X2236722Y-1602008D02*
X2246246Y-1611531D01*
X2246246Y-1611531D02*
X2255770Y-1630579D01*
X2255770Y-1630579D02*
X2265294Y-1668674D01*
X2265294Y-1668674D02*
X2265294Y-1716293D01*
X2265294Y-1716293D02*
X2255770Y-1754388D01*
X2255770Y-1754388D02*
X2246246Y-1773436D01*
X2246246Y-1773436D02*
X2236722Y-1782960D01*
X2236722Y-1782960D02*
X2217675Y-1792484D01*
X2217675Y-1792484D02*
X2198627Y-1792484D01*
X2198627Y-1792484D02*
X2179580Y-1782960D01*
X2179580Y-1782960D02*
X2170056Y-1773436D01*
X2170056Y-1773436D02*
X2160532Y-1754388D01*
X2160532Y-1754388D02*
X2151008Y-1716293D01*
X2151008Y-1716293D02*
X2151008Y-1668674D01*
X2151008Y-1668674D02*
X2160532Y-1630579D01*
X2160532Y-1630579D02*
X2170056Y-1611531D01*
X2170056Y-1611531D02*
X2179580Y-1602008D01*
X2179580Y-1602008D02*
X2198627Y-1592484D01*
X2351008Y-1773436D02*
X2360532Y-1782960D01*
X2360532Y-1782960D02*
X2351008Y-1792484D01*
X2351008Y-1792484D02*
X2341484Y-1782960D01*
X2341484Y-1782960D02*
X2351008Y-1773436D01*
X2351008Y-1773436D02*
X2351008Y-1792484D01*
X2484341Y-1592484D02*
X2503389Y-1592484D01*
X2503389Y-1592484D02*
X2522437Y-1602008D01*
X2522437Y-1602008D02*
X2531961Y-1611531D01*
X2531961Y-1611531D02*
X2541484Y-1630579D01*
X2541484Y-1630579D02*
X2551008Y-1668674D01*
X2551008Y-1668674D02*
X2551008Y-1716293D01*
X2551008Y-1716293D02*
X2541484Y-1754388D01*
X2541484Y-1754388D02*
X2531961Y-1773436D01*
X2531961Y-1773436D02*
X2522437Y-1782960D01*
X2522437Y-1782960D02*
X2503389Y-1792484D01*
X2503389Y-1792484D02*
X2484341Y-1792484D01*
X2484341Y-1792484D02*
X2465294Y-1782960D01*
X2465294Y-1782960D02*
X2455770Y-1773436D01*
X2455770Y-1773436D02*
X2446246Y-1754388D01*
X2446246Y-1754388D02*
X2436722Y-1716293D01*
X2436722Y-1716293D02*
X2436722Y-1668674D01*
X2436722Y-1668674D02*
X2446246Y-1630579D01*
X2446246Y-1630579D02*
X2455770Y-1611531D01*
X2455770Y-1611531D02*
X2465294Y-1602008D01*
X2465294Y-1602008D02*
X2484341Y-1592484D01*
X2731961Y-1592484D02*
X2636722Y-1592484D01*
X2636722Y-1592484D02*
X2627199Y-1687722D01*
X2627199Y-1687722D02*
X2636722Y-1678198D01*
X2636722Y-1678198D02*
X2655770Y-1668674D01*
X2655770Y-1668674D02*
X2703389Y-1668674D01*
X2703389Y-1668674D02*
X2722437Y-1678198D01*
X2722437Y-1678198D02*
X2731961Y-1687722D01*
X2731961Y-1687722D02*
X2741484Y-1706769D01*
X2741484Y-1706769D02*
X2741484Y-1754388D01*
X2741484Y-1754388D02*
X2731961Y-1773436D01*
X2731961Y-1773436D02*
X2722437Y-1782960D01*
X2722437Y-1782960D02*
X2703389Y-1792484D01*
X2703389Y-1792484D02*
X2655770Y-1792484D01*
X2655770Y-1792484D02*
X2636722Y-1782960D01*
X2636722Y-1782960D02*
X2627199Y-1773436D01*
X2808151Y-1592484D02*
X2941484Y-1592484D01*
X2941484Y-1592484D02*
X2855770Y-1792484D01*
X3027199Y-1792484D02*
X3065294Y-1792484D01*
X3065294Y-1792484D02*
X3084341Y-1782960D01*
X3084341Y-1782960D02*
X3093865Y-1773436D01*
X3093865Y-1773436D02*
X3112913Y-1744865D01*
X3112913Y-1744865D02*
X3122437Y-1706769D01*
X3122437Y-1706769D02*
X3122437Y-1630579D01*
X3122437Y-1630579D02*
X3112913Y-1611531D01*
X3112913Y-1611531D02*
X3103389Y-1602008D01*
X3103389Y-1602008D02*
X3084341Y-1592484D01*
X3084341Y-1592484D02*
X3046246Y-1592484D01*
X3046246Y-1592484D02*
X3027199Y-1602008D01*
X3027199Y-1602008D02*
X3017675Y-1611531D01*
X3017675Y-1611531D02*
X3008151Y-1630579D01*
X3008151Y-1630579D02*
X3008151Y-1678198D01*
X3008151Y-1678198D02*
X3017675Y-1697246D01*
X3017675Y-1697246D02*
X3027199Y-1706769D01*
X3027199Y-1706769D02*
X3046246Y-1716293D01*
X3046246Y-1716293D02*
X3084341Y-1716293D01*
X3084341Y-1716293D02*
X3103389Y-1706769D01*
X3103389Y-1706769D02*
X3112913Y-1697246D01*
X3112913Y-1697246D02*
X3122437Y-1678198D01*
X3198627Y-1592484D02*
X3198627Y-1630579D01*
X3274818Y-1592484D02*
X3274818Y-1630579D01*
X3570056Y-1868674D02*
X3560532Y-1859150D01*
X3560532Y-1859150D02*
X3541484Y-1830579D01*
X3541484Y-1830579D02*
X3531961Y-1811531D01*
X3531961Y-1811531D02*
X3522437Y-1782960D01*
X3522437Y-1782960D02*
X3512913Y-1735341D01*
X3512913Y-1735341D02*
X3512913Y-1697246D01*
X3512913Y-1697246D02*
X3522437Y-1649627D01*
X3522437Y-1649627D02*
X3531961Y-1621055D01*
X3531961Y-1621055D02*
X3541484Y-1602008D01*
X3541484Y-1602008D02*
X3560532Y-1573436D01*
X3560532Y-1573436D02*
X3570056Y-1563912D01*
X3674818Y-1678198D02*
X3655770Y-1668674D01*
X3655770Y-1668674D02*
X3646246Y-1659150D01*
X3646246Y-1659150D02*
X3636722Y-1640103D01*
X3636722Y-1640103D02*
X3636722Y-1630579D01*
X3636722Y-1630579D02*
X3646246Y-1611531D01*
X3646246Y-1611531D02*
X3655770Y-1602008D01*
X3655770Y-1602008D02*
X3674818Y-1592484D01*
X3674818Y-1592484D02*
X3712913Y-1592484D01*
X3712913Y-1592484D02*
X3731961Y-1602008D01*
X3731961Y-1602008D02*
X3741484Y-1611531D01*
X3741484Y-1611531D02*
X3751008Y-1630579D01*
X3751008Y-1630579D02*
X3751008Y-1640103D01*
X3751008Y-1640103D02*
X3741484Y-1659150D01*
X3741484Y-1659150D02*
X3731961Y-1668674D01*
X3731961Y-1668674D02*
X3712913Y-1678198D01*
X3712913Y-1678198D02*
X3674818Y-1678198D01*
X3674818Y-1678198D02*
X3655770Y-1687722D01*
X3655770Y-1687722D02*
X3646246Y-1697246D01*
X3646246Y-1697246D02*
X3636722Y-1716293D01*
X3636722Y-1716293D02*
X3636722Y-1754388D01*
X3636722Y-1754388D02*
X3646246Y-1773436D01*
X3646246Y-1773436D02*
X3655770Y-1782960D01*
X3655770Y-1782960D02*
X3674818Y-1792484D01*
X3674818Y-1792484D02*
X3712913Y-1792484D01*
X3712913Y-1792484D02*
X3731961Y-1782960D01*
X3731961Y-1782960D02*
X3741484Y-1773436D01*
X3741484Y-1773436D02*
X3751008Y-1754388D01*
X3751008Y-1754388D02*
X3751008Y-1716293D01*
X3751008Y-1716293D02*
X3741484Y-1697246D01*
X3741484Y-1697246D02*
X3731961Y-1687722D01*
X3731961Y-1687722D02*
X3712913Y-1678198D01*
X3865294Y-1678198D02*
X3846246Y-1668674D01*
X3846246Y-1668674D02*
X3836722Y-1659150D01*
X3836722Y-1659150D02*
X3827199Y-1640103D01*
X3827199Y-1640103D02*
X3827199Y-1630579D01*
X3827199Y-1630579D02*
X3836722Y-1611531D01*
X3836722Y-1611531D02*
X3846246Y-1602008D01*
X3846246Y-1602008D02*
X3865294Y-1592484D01*
X3865294Y-1592484D02*
X3903389Y-1592484D01*
X3903389Y-1592484D02*
X3922437Y-1602008D01*
X3922437Y-1602008D02*
X3931961Y-1611531D01*
X3931961Y-1611531D02*
X3941484Y-1630579D01*
X3941484Y-1630579D02*
X3941484Y-1640103D01*
X3941484Y-1640103D02*
X3931961Y-1659150D01*
X3931961Y-1659150D02*
X3922437Y-1668674D01*
X3922437Y-1668674D02*
X3903389Y-1678198D01*
X3903389Y-1678198D02*
X3865294Y-1678198D01*
X3865294Y-1678198D02*
X3846246Y-1687722D01*
X3846246Y-1687722D02*
X3836722Y-1697246D01*
X3836722Y-1697246D02*
X3827199Y-1716293D01*
X3827199Y-1716293D02*
X3827199Y-1754388D01*
X3827199Y-1754388D02*
X3836722Y-1773436D01*
X3836722Y-1773436D02*
X3846246Y-1782960D01*
X3846246Y-1782960D02*
X3865294Y-1792484D01*
X3865294Y-1792484D02*
X3903389Y-1792484D01*
X3903389Y-1792484D02*
X3922437Y-1782960D01*
X3922437Y-1782960D02*
X3931961Y-1773436D01*
X3931961Y-1773436D02*
X3941484Y-1754388D01*
X3941484Y-1754388D02*
X3941484Y-1716293D01*
X3941484Y-1716293D02*
X3931961Y-1697246D01*
X3931961Y-1697246D02*
X3922437Y-1687722D01*
X3922437Y-1687722D02*
X3903389Y-1678198D01*
X4179580Y-1792484D02*
X4179580Y-1592484D01*
X4265294Y-1792484D02*
X4265294Y-1687722D01*
X4265294Y-1687722D02*
X4255770Y-1668674D01*
X4255770Y-1668674D02*
X4236723Y-1659150D01*
X4236723Y-1659150D02*
X4208151Y-1659150D01*
X4208151Y-1659150D02*
X4189103Y-1668674D01*
X4189103Y-1668674D02*
X4179580Y-1678198D01*
X4389104Y-1792484D02*
X4370056Y-1782960D01*
X4370056Y-1782960D02*
X4360532Y-1773436D01*
X4360532Y-1773436D02*
X4351008Y-1754388D01*
X4351008Y-1754388D02*
X4351008Y-1697246D01*
X4351008Y-1697246D02*
X4360532Y-1678198D01*
X4360532Y-1678198D02*
X4370056Y-1668674D01*
X4370056Y-1668674D02*
X4389104Y-1659150D01*
X4389104Y-1659150D02*
X4417675Y-1659150D01*
X4417675Y-1659150D02*
X4436723Y-1668674D01*
X4436723Y-1668674D02*
X4446246Y-1678198D01*
X4446246Y-1678198D02*
X4455770Y-1697246D01*
X4455770Y-1697246D02*
X4455770Y-1754388D01*
X4455770Y-1754388D02*
X4446246Y-1773436D01*
X4446246Y-1773436D02*
X4436723Y-1782960D01*
X4436723Y-1782960D02*
X4417675Y-1792484D01*
X4417675Y-1792484D02*
X4389104Y-1792484D01*
X4570056Y-1792484D02*
X4551008Y-1782960D01*
X4551008Y-1782960D02*
X4541485Y-1763912D01*
X4541485Y-1763912D02*
X4541485Y-1592484D01*
X4722437Y-1782960D02*
X4703389Y-1792484D01*
X4703389Y-1792484D02*
X4665294Y-1792484D01*
X4665294Y-1792484D02*
X4646246Y-1782960D01*
X4646246Y-1782960D02*
X4636723Y-1763912D01*
X4636723Y-1763912D02*
X4636723Y-1687722D01*
X4636723Y-1687722D02*
X4646246Y-1668674D01*
X4646246Y-1668674D02*
X4665294Y-1659150D01*
X4665294Y-1659150D02*
X4703389Y-1659150D01*
X4703389Y-1659150D02*
X4722437Y-1668674D01*
X4722437Y-1668674D02*
X4731961Y-1687722D01*
X4731961Y-1687722D02*
X4731961Y-1706769D01*
X4731961Y-1706769D02*
X4636723Y-1725817D01*
X4808151Y-1782960D02*
X4827199Y-1792484D01*
X4827199Y-1792484D02*
X4865294Y-1792484D01*
X4865294Y-1792484D02*
X4884342Y-1782960D01*
X4884342Y-1782960D02*
X4893866Y-1763912D01*
X4893866Y-1763912D02*
X4893866Y-1754388D01*
X4893866Y-1754388D02*
X4884342Y-1735341D01*
X4884342Y-1735341D02*
X4865294Y-1725817D01*
X4865294Y-1725817D02*
X4836723Y-1725817D01*
X4836723Y-1725817D02*
X4817675Y-1716293D01*
X4817675Y-1716293D02*
X4808151Y-1697246D01*
X4808151Y-1697246D02*
X4808151Y-1687722D01*
X4808151Y-1687722D02*
X4817675Y-1668674D01*
X4817675Y-1668674D02*
X4836723Y-1659150D01*
X4836723Y-1659150D02*
X4865294Y-1659150D01*
X4865294Y-1659150D02*
X4884342Y-1668674D01*
X4960532Y-1868674D02*
X4970056Y-1859150D01*
X4970056Y-1859150D02*
X4989104Y-1830579D01*
X4989104Y-1830579D02*
X4998627Y-1811531D01*
X4998627Y-1811531D02*
X5008151Y-1782960D01*
X5008151Y-1782960D02*
X5017675Y-1735341D01*
X5017675Y-1735341D02*
X5017675Y-1697246D01*
X5017675Y-1697246D02*
X5008151Y-1649627D01*
X5008151Y-1649627D02*
X4998627Y-1621055D01*
X4998627Y-1621055D02*
X4989104Y-1602008D01*
X4989104Y-1602008D02*
X4970056Y-1573436D01*
X4970056Y-1573436D02*
X4960532Y-1563912D01*
M02*
