M48
; DRILL file {KiCad 7.0.6} date Sun Dec  3 11:03:45 2023
; FORMAT={-:-/ absolute / metric / decimal}
; #@! TF.CreationDate,2023-12-03T11:03:45-05:00
; #@! TF.GenerationSoftware,Kicad,Pcbnew,7.0.6
; #@! TF.FileFunction,Plated,1,2,PTH
FMAT,2
METRIC
; #@! TA.AperFunction,Plated,PTH,ComponentDrill
T1C0.300
; #@! TA.AperFunction,Plated,PTH,ViaDrill
T2C0.400
; #@! TA.AperFunction,Plated,PTH,ComponentDrill
T3C0.600
; #@! TA.AperFunction,Plated,PTH,ComponentDrill
T4C1.000
; #@! TA.AperFunction,Plated,PTH,ComponentDrill
T5C1.470
%
G90
G05
T1
X17.775Y45.328
X17.775Y44.053
X17.775Y42.778
X19.05Y45.328
X19.05Y44.053
X19.05Y42.778
X20.325Y45.328
X20.325Y44.053
X20.325Y42.778
T2
X2.381Y73.819
X2.381Y54.769
X2.381Y16.669
X3.572Y27.98
X8.334Y43.629
X10.12Y46.434
X12.502Y43.458
X12.799Y47.625
X12.799Y46.732
X13.99Y61.317
X13.99Y41.672
X14.585Y65.553
X15.478Y47.625
X16.073Y59.531
X17.562Y65.553
X19.05Y50.006
X19.645Y27.98
X21.431Y73.819
X21.431Y54.769
X21.431Y16.669
X22.622Y27.98
X23.928Y42.267
X23.928Y40.616
X24.888Y40.616
X26.035Y59.531
X26.789Y43.16
X27.98Y43.16
X30.063Y45.38
X40.481Y73.819
X40.481Y54.769
X40.481Y35.719
X40.481Y16.669
X52.09Y43.16
X59.531Y73.819
X59.531Y54.769
X59.531Y35.719
X73.819Y11.906
X78.581Y73.819
X78.581Y54.769
X78.581Y35.719
X92.869Y11.906
X107.157Y73.819
X107.157Y54.769
X107.157Y35.719
X111.919Y11.906
X126.207Y73.819
X126.207Y54.769
X126.207Y35.719
X145.257Y73.819
X145.257Y54.769
X145.257Y35.719
X145.257Y16.669
X164.307Y73.819
X164.307Y54.769
X164.307Y35.719
X164.307Y16.669
X183.357Y73.819
X183.357Y54.769
X183.357Y35.719
X183.357Y16.669
T3
X56.5Y67.483
X57.77Y67.483
T4
X1.85Y46.157
X1.85Y43.617
X1.85Y41.077
X1.85Y38.537
X1.85Y35.997
T5
X5.715Y35.878
X6.985Y66.358
X6.985Y47.308
X6.985Y9.237
X9.366Y9.237
X12.065Y38.418
X13.335Y68.898
X13.335Y49.848
X13.335Y11.777
X15.716Y11.777
X24.765Y35.878
X26.035Y66.358
X26.035Y47.308
X26.035Y9.237
X30.797Y9.237
X31.115Y38.418
X32.385Y68.898
X32.385Y49.848
X32.385Y11.777
X37.147Y11.777
X45.085Y66.358
X45.085Y47.308
X45.085Y28.258
X45.085Y9.237
X51.435Y68.898
X51.435Y49.848
X51.435Y30.798
X51.435Y11.777
X52.229Y9.237
X58.579Y11.777
X64.135Y66.358
X64.135Y47.308
X64.135Y28.258
X70.485Y68.898
X70.485Y49.848
X70.485Y30.798
X78.422Y4.475
X83.185Y66.358
X83.185Y47.308
X83.185Y28.258
X84.772Y7.015
X85.566Y4.475
X89.535Y68.898
X89.535Y49.848
X89.535Y30.798
X91.916Y7.015
X97.473Y4.475
X103.823Y7.015
X111.76Y66.358
X111.76Y47.308
X111.76Y28.258
X116.523Y4.475
X118.11Y68.898
X118.11Y49.848
X118.11Y30.798
X118.904Y4.475
X122.873Y7.015
X125.254Y7.015
X130.81Y66.358
X130.81Y47.308
X130.81Y28.258
X137.16Y68.898
X137.16Y49.848
X137.16Y30.798
X149.86Y66.358
X149.86Y47.308
X149.86Y28.258
X149.86Y9.208
X156.21Y68.898
X156.21Y49.848
X156.21Y30.798
X156.21Y11.748
X168.91Y66.358
X168.91Y47.308
X168.91Y28.258
X168.91Y9.208
X175.26Y68.898
X175.26Y49.848
X175.26Y30.798
X175.26Y11.748
X187.96Y66.358
X187.96Y47.308
X187.96Y28.258
X187.96Y9.208
X194.31Y68.898
X194.31Y49.848
X194.31Y30.798
X194.31Y11.748
T0
M30
