  0
SECTION
  2
HEADER
  9
$ACADVER
  1
AC1032
  9
$ACADMAINTVER
 90
      228
  9
$DWGCODEPAGE
  3
ANSI_1252
  9
$REQUIREDVERSIONS
160
                 0
  9
$INSBASE
 10
0.0
 20
0.0
 30
0.0
  9
$EXTMIN
 10
1.000000000000000E+20
 20
1.000000000000000E+20
 30
1.000000000000000E+20
  9
$EXTMAX
 10
-1.000000000000000E+20
 20
-1.000000000000000E+20
 30
-1.000000000000000E+20
  9
$LIMMIN
 10
0.0
 20
0.0
  9
$LIMMAX
 10
12.0
 20
9.0
  9
$ORTHOMODE
 70
     0
  9
$REGENMODE
 70
     1
  9
$FILLMODE
 70
     1
  9
$QTEXTMODE
 70
     0
  9
$MIRRTEXT
 70
     0
  9
$LTSCALE
 40
1.0
  9
$ATTMODE
 70
     1
  9
$TEXTSIZE
 40
0.2
  9
$TRACEWID
 40
0.05
  9
$TEXTSTYLE
  7
Standard
  9
$CLAYER
  8
0
  9
$CELTYPE
  6
ByLayer
  9
$CECOLOR
 62
   256
  9
$CELTSCALE
 40
1.0
  9
$DISPSILH
 70
     0
  9
$DIMSCALE
 40
1.0
  9
$DIMASZ
 40
0.18
  9
$DIMEXO
 40
0.0625
  9
$DIMDLI
 40
0.38
  9
$DIMRND
 40
0.0
  9
$DIMDLE
 40
0.0
  9
$DIMEXE
 40
0.18
  9
$DIMTP
 40
0.0
  9
$DIMTM
 40
0.0
  9
$DIMTXT
 40
0.18
  9
$DIMCEN
 40
0.09
  9
$DIMTSZ
 40
0.0
  9
$DIMTOL
 70
     0
  9
$DIMLIM
 70
     0
  9
$DIMTIH
 70
     1
  9
$DIMTOH
 70
     1
  9
$DIMSE1
 70
     0
  9
$DIMSE2
 70
     0
  9
$DIMTAD
 70
     0
  9
$DIMZIN
 70
     0
  9
$DIMBLK
  1

  9
$DIMASO
 70
     1
  9
$DIMSHO
 70
     1
  9
$DIMPOST
  1

  9
$DIMAPOST
  1

  9
$DIMALT
 70
     0
  9
$DIMALTD
 70
     2
  9
$DIMALTF
 40
25.4
  9
$DIMLFAC
 40
1.0
  9
$DIMTOFL
 70
     0
  9
$DIMTVP
 40
0.0
  9
$DIMTIX
 70
     0
  9
$DIMSOXD
 70
     0
  9
$DIMSAH
 70
     0
  9
$DIMBLK1
  1

  9
$DIMBLK2
  1

  9
$DIMSTYLE
  2
Standard
  9
$DIMCLRD
 70
     0
  9
$DIMCLRE
 70
     0
  9
$DIMCLRT
 70
     0
  9
$DIMTFAC
 40
1.0
  9
$DIMGAP
 40
0.09
  9
$DIMJUST
 70
     0
  9
$DIMSD1
 70
     0
  9
$DIMSD2
 70
     0
  9
$DIMTOLJ
 70
     1
  9
$DIMTZIN
 70
     0
  9
$DIMALTZ
 70
     0
  9
$DIMALTTZ
 70
     0
  9
$DIMUPT
 70
     0
  9
$DIMDEC
 70
     4
  9
$DIMTDEC
 70
     4
  9
$DIMALTU
 70
     2
  9
$DIMALTTD
 70
     2
  9
$DIMTXSTY
  7
Standard
  9
$DIMAUNIT
 70
     0
  9
$DIMADEC
 70
     0
  9
$DIMALTRND
 40
0.0
  9
$DIMAZIN
 70
     0
  9
$DIMDSEP
 70
    46
  9
$DIMATFIT
 70
     3
  9
$DIMFRAC
 70
     0
  9
$DIMLDRBLK
  1

  9
$DIMLUNIT
 70
     2
  9
$DIMLWD
 70
    -2
  9
$DIMLWE
 70
    -2
  9
$DIMTMOVE
 70
     0
  9
$DIMFXL
 40
1.0
  9
$DIMFXLON
 70
     0
  9
$DIMJOGANG
 40
0.7853981633974483
  9
$DIMTFILL
 70
     0
  9
$DIMTFILLCLR
 70
     0
  9
$DIMARCSYM
 70
     0
  9
$DIMLTYPE
  6

  9
$DIMLTEX1
  6

  9
$DIMLTEX2
  6

  9
$DIMTXTDIRECTION
 70
     0
  9
$LUNITS
 70
     2
  9
$LUPREC
 70
     4
  9
$SKETCHINC
 40
0.1
  9
$FILLETRAD
 40
0.0
  9
$AUNITS
 70
     0
  9
$AUPREC
 70
     0
  9
$MENU
  1
.
  9
$ELEVATION
 40
0.0
  9
$PELEVATION
 40
0.0
  9
$THICKNESS
 40
0.0
  9
$LIMCHECK
 70
     0
  9
$CHAMFERA
 40
0.0
  9
$CHAMFERB
 40
0.0
  9
$CHAMFERC
 40
0.0
  9
$CHAMFERD
 40
0.0
  9
$SKPOLY
 70
     0
  9
$TDCREATE
 40
2460213.621875000
  9
$TDUCREATE
 40
2460213.788541667
  9
$TDUPDATE
 40
2460213.621875000
  9
$TDUUPDATE
 40
2460213.788541667
  9
$TDINDWG
 40
0.0000000000
  9
$TDUSRTIMER
 40
0.0000000000
  9
$USRTIMER
 70
     1
  9
$ANGBASE
 50
0.0
  9
$ANGDIR
 70
     0
  9
$PDMODE
 70
     0
  9
$PDSIZE
 40
0.0
  9
$PLINEWID
 40
0.0
  9
$SPLFRAME
 70
     0
  9
$SPLINETYPE
 70
     6
  9
$SPLINESEGS
 70
     8
  9
$HANDSEED
  5
9A
  9
$SURFTAB1
 70
     6
  9
$SURFTAB2
 70
     6
  9
$SURFTYPE
 70
     6
  9
$SURFU
 70
     6
  9
$SURFV
 70
     6
  9
$UCSBASE
  2

  9
$UCSNAME
  2

  9
$UCSORG
 10
0.0
 20
0.0
 30
0.0
  9
$UCSXDIR
 10
1.0
 20
0.0
 30
0.0
  9
$UCSYDIR
 10
0.0
 20
1.0
 30
0.0
  9
$UCSORTHOREF
  2

  9
$UCSORTHOVIEW
 70
     0
  9
$UCSORGTOP
 10
0.0
 20
0.0
 30
0.0
  9
$UCSORGBOTTOM
 10
0.0
 20
0.0
 30
0.0
  9
$UCSORGLEFT
 10
0.0
 20
0.0
 30
0.0
  9
$UCSORGRIGHT
 10
0.0
 20
0.0
 30
0.0
  9
$UCSORGFRONT
 10
0.0
 20
0.0
 30
0.0
  9
$UCSORGBACK
 10
0.0
 20
0.0
 30
0.0
  9
$PUCSBASE
  2

  9
$PUCSNAME
  2

  9
$PUCSORG
 10
0.0
 20
0.0
 30
0.0
  9
$PUCSXDIR
 10
1.0
 20
0.0
 30
0.0
  9
$PUCSYDIR
 10
0.0
 20
1.0
 30
0.0
  9
$PUCSORTHOREF
  2

  9
$PUCSORTHOVIEW
 70
     0
  9
$PUCSORGTOP
 10
0.0
 20
0.0
 30
0.0
  9
$PUCSORGBOTTOM
 10
0.0
 20
0.0
 30
0.0
  9
$PUCSORGLEFT
 10
0.0
 20
0.0
 30
0.0
  9
$PUCSORGRIGHT
 10
0.0
 20
0.0
 30
0.0
  9
$PUCSORGFRONT
 10
0.0
 20
0.0
 30
0.0
  9
$PUCSORGBACK
 10
0.0
 20
0.0
 30
0.0
  9
$USERI1
 70
     0
  9
$USERI2
 70
     0
  9
$USERI3
 70
     0
  9
$USERI4
 70
     0
  9
$USERI5
 70
     0
  9
$USERR1
 40
0.0
  9
$USERR2
 40
0.0
  9
$USERR3
 40
0.0
  9
$USERR4
 40
0.0
  9
$USERR5
 40
0.0
  9
$WORLDVIEW
 70
     1
  9
$SHADEDGE
 70
     3
  9
$SHADEDIF
 70
    70
  9
$TILEMODE
 70
     1
  9
$MAXACTVP
 70
    64
  9
$PINSBASE
 10
0.0
 20
0.0
 30
0.0
  9
$PLIMCHECK
 70
     0
  9
$PEXTMIN
 10
1.000000000000000E+20
 20
1.000000000000000E+20
 30
1.000000000000000E+20
  9
$PEXTMAX
 10
-1.000000000000000E+20
 20
-1.000000000000000E+20
 30
-1.000000000000000E+20
  9
$PLIMMIN
 10
0.0
 20
0.0
  9
$PLIMMAX
 10
12.0
 20
9.0
  9
$UNITMODE
 70
     0
  9
$VISRETAIN
 70
     1
  9
$PLINEGEN
 70
     0
  9
$PSLTSCALE
 70
     1
  9
$TREEDEPTH
 70
  3020
  9
$CMLSTYLE
  2
Standard
  9
$CMLJUST
 70
     0
  9
$CMLSCALE
 40
1.0
  9
$PROXYGRAPHICS
 70
     1
  9
$MEASUREMENT
 70
     0
  9
$CELWEIGHT
370
    -1
  9
$ENDCAPS
280
     0
  9
$JOINSTYLE
280
     0
  9
$LWDISPLAY
290
     1
  9
$INSUNITS
 70
     4
  9
$HYPERLINKBASE
  1

  9
$STYLESHEET
  1

  9
$XEDIT
290
     1
  9
$CEPSNTYPE
380
     0
  9
$PSTYLEMODE
290
     1
  9
$FINGERPRINTGUID
  2
{611EF3D8-5723-9149-BB40-F0D070858789}
  9
$VERSIONGUID
  2
{466935F1-05C4-4844-AB91-0E30CA694458}
  9
$EXTNAMES
290
     1
  9
$PSVPSCALE
 40
0.0
  9
$OLESTARTUP
290
     0
  9
$SORTENTS
280
   127
  9
$INDEXCTL
280
     0
  9
$HIDETEXT
280
     1
  9
$XCLIPFRAME
280
     2
  9
$HALOGAP
280
     0
  9
$OBSCOLOR
 70
   257
  9
$OBSLTYPE
280
     0
  9
$INTERSECTIONDISPLAY
280
     0
  9
$INTERSECTIONCOLOR
 70
   257
  9
$DIMASSOC
280
     2
  9
$PROJECTNAME
  1

  9
$CAMERADISPLAY
290
     0
  9
$LENSLENGTH
 40
50.0
  9
$CAMERAHEIGHT
 40
0.0
  9
$STEPSPERSEC
 40
2.0
  9
$STEPSIZE
 40
6.0
  9
$3DDWFPREC
 40
2.0
  9
$PSOLWIDTH
 40
0.25
  9
$PSOLHEIGHT
 40
4.0
  9
$LOFTANG1
 40
1.570796326794896
  9
$LOFTANG2
 40
1.570796326794896
  9
$LOFTMAG1
 40
0.0
  9
$LOFTMAG2
 40
0.0
  9
$LOFTPARAM
 70
     7
  9
$LOFTNORMALS
280
     1
  9
$LATITUDE
 40
37.795
  9
$LONGITUDE
 40
-122.394
  9
$NORTHDIRECTION
 40
0.0
  9
$TIMEZONE
 70
 -8000
  9
$LIGHTGLYPHDISPLAY
280
     1
  9
$TILEMODELIGHTSYNCH
280
     1
  9
$CMATERIAL
347
11
  9
$SOLIDHIST
280
     0
  9
$SHOWHIST
280
     1
  9
$DWFFRAME
280
     2
  9
$DGNFRAME
280
     0
  9
$REALWORLDSCALE
290
     1
  9
$INTERFERECOLOR
 62
     1
  9
$INTERFEREOBJVS
345
33
  9
$INTERFEREVPVS
346
30
  9
$CSHADOW
280
     0
  9
$SHADOWPLANELOCATION
 40
0.0
  0
ENDSEC
  0
SECTION
  2
CLASSES
  0
CLASS
  1
ACDBDICTIONARYWDFLT
  2
AcDbDictionaryWithDefault
  3
ObjectDBX Classes
 90
        0
 91
        1
280
     0
281
     0
  0
CLASS
  1
MATERIAL
  2
AcDbMaterial
  3
ObjectDBX Classes
 90
     1153
 91
        3
280
     0
281
     0
  0
CLASS
  1
VISUALSTYLE
  2
AcDbVisualStyle
  3
ObjectDBX Classes
 90
     4095
 91
       24
280
     0
281
     0
  0
CLASS
  1
SCALE
  2
AcDbScale
  3
ObjectDBX Classes
 90
     1153
 91
       17
280
     0
281
     0
  0
CLASS
  1
TABLESTYLE
  2
AcDbTableStyle
  3
ObjectDBX Classes
 90
     4095
 91
        1
280
     0
281
     0
  0
CLASS
  1
MLEADERSTYLE
  2
AcDbMLeaderStyle
  3
ACDB_MLEADERSTYLE_CLASS
 90
     4095
 91
        1
280
     0
281
     0
  0
CLASS
  1
ACDBSECTIONVIEWSTYLE
  2
AcDbSectionViewStyle
  3
ObjectDBX Classes
 90
     1025
 91
        1
280
     0
281
     0
  0
CLASS
  1
ACDBDETAILVIEWSTYLE
  2
AcDbDetailViewStyle
  3
ObjectDBX Classes
 90
     1025
 91
        1
280
     0
281
     0
  0
CLASS
  1
DICTIONARYVAR
  2
AcDbDictionaryVar
  3
ObjectDBX Classes
 90
        0
 91
        5
280
     0
281
     0
  0
CLASS
  1
CELLSTYLEMAP
  2
AcDbCellStyleMap
  3
ObjectDBX Classes
 90
     1152
 91
        1
280
     0
281
     0
  0
ENDSEC
  0
SECTION
  2
TABLES
  0
TABLE
  2
VPORT
  5
8
330
0
100
AcDbSymbolTable
 70
     1
  0
VPORT
  5
57
330
8
100
AcDbSymbolTableRecord
100
AcDbViewportTableRecord
  2
*Active
 70
     0
 10
0.0
 20
0.0
 11
1.0
 21
1.0
 12
0.0
 22
0.0
 13
0.0
 23
0.0
 14
1.0
 24
1.0
 15
0.0
 25
0.0
 16
0.0
 26
0.0
 36
1.0
 17
199.9999999499937
 27
99.99999997500566
 37
0.0
 40
203.9999999490116
 41
1.999999999999823
 42
50.0
 43
0.0
 44
0.0
 50
0.0
 51
0.0
 71
     0
 72
   100
 73
     1
 74
     1
 75
     0
 76
     0
 77
     0
 78
     0
281
     0
 65
     1
110
0.0
120
0.0
130
0.0
111
1.0
121
0.0
131
0.0
112
0.0
122
1.0
132
0.0
 79
     0
146
0.0
 60
     3
 61
     5
292
     1
282
     1
141
0.0
142
0.0
 63
   250
421
  3355443
  0
ENDTAB
  0
TABLE
  2
LTYPE
  5
5
330
0
100
AcDbSymbolTable
 70
     1
  0
LTYPE
  5
5B
330
5
100
AcDbSymbolTableRecord
100
AcDbLinetypeTableRecord
  2
ByBlock
 70
     0
  3

 72
    65
 73
     0
 40
0.0
  0
LTYPE
  5
5C
330
5
100
AcDbSymbolTableRecord
100
AcDbLinetypeTableRecord
  2
ByLayer
 70
     0
  3

 72
    65
 73
     0
 40
0.0
  0
LTYPE
  5
5D
330
5
100
AcDbSymbolTableRecord
100
AcDbLinetypeTableRecord
  2
Continuous
 70
     0
  3
Solid line
 72
    65
 73
     0
 40
0.0
  0
ENDTAB
  0
TABLE
  2
LAYER
  5
2
330
0
100
AcDbSymbolTable
 70
     1
  0
LAYER
  5
54
330
2
100
AcDbSymbolTableRecord
100
AcDbLayerTableRecord
  2
0
 70
     0
 62
     7
  6
Continuous
370
     0
390
F
347
21
348
0
  0
ENDTAB
  0
TABLE
  2
STYLE
  5
3
330
0
100
AcDbSymbolTable
 70
     2
  0
STYLE
  5
55
330
3
100
AcDbSymbolTableRecord
100
AcDbTextStyleTableRecord
  2
Standard
 70
     0
 40
0.0
 41
1.0
 50
0.0
 71
     0
 42
0.2
  3
txt
  4

  0
STYLE
  5
5A
330
3
100
AcDbSymbolTableRecord
100
AcDbTextStyleTableRecord
  2
Annotative
 70
     0
 40
0.0
 41
1.0
 50
0.0
 71
     0
 42
0.2
  3
txt
  4

1001
AcadAnnotative
1000
AnnotativeData
1002
{
1070
     1
1070
     1
1002
}
  0
ENDTAB
  0
TABLE
  2
VIEW
  5
6
330
0
100
AcDbSymbolTable
 70
     0
  0
ENDTAB
  0
TABLE
  2
UCS
  5
7
330
0
100
AcDbSymbolTable
 70
     0
  0
ENDTAB
  0
TABLE
  2
APPID
  5
9
330
0
100
AcDbSymbolTable
 70
     2
  0
APPID
  5
56
330
9
100
AcDbSymbolTableRecord
100
AcDbRegAppTableRecord
  2
ACAD
 70
     0
  0
APPID
  5
5E
330
9
100
AcDbSymbolTableRecord
100
AcDbRegAppTableRecord
  2
AcadAnnotative
 70
     0
  0
ENDTAB
  0
TABLE
  2
DIMSTYLE
  5
A
330
0
100
AcDbSymbolTable
 70
     2
100
AcDbDimStyleTable
 71
     0
  0
DIMSTYLE
105
58
330
A
100
AcDbSymbolTableRecord
100
AcDbDimStyleTableRecord
  2
Standard
 70
     0
340
55
  0
DIMSTYLE
105
59
330
A
100
AcDbSymbolTableRecord
100
AcDbDimStyleTableRecord
  2
Annotative
 70
     0
340
55
1001
AcadAnnotative
1000
AnnotativeData
1002
{
1070
     1
1070
     1
1002
}
  0
ENDTAB
  0
TABLE
  2
BLOCK_RECORD
  5
1
330
0
100
AcDbSymbolTable
 70
     1
  0
BLOCK_RECORD
  5
70
330
1
100
AcDbSymbolTableRecord
100
AcDbBlockTableRecord
  2
*Model_Space
340
73
 70
     0
280
     1
281
     0
  0
BLOCK_RECORD
  5
6C
330
1
100
AcDbSymbolTableRecord
100
AcDbBlockTableRecord
  2
*Paper_Space
340
6F
 70
     0
280
     1
281
     0
  0
BLOCK_RECORD
  5
74
330
1
100
AcDbSymbolTableRecord
100
AcDbBlockTableRecord
  2
*Paper_Space0
340
77
 70
     0
280
     1
281
     0
  0
ENDTAB
  0
ENDSEC
  0
SECTION
  2
BLOCKS
  0
BLOCK
  5
71
330
70
100
AcDbEntity
  8
0
100
AcDbBlockBegin
  2
*Model_Space
 70
     0
 10
0.0
 20
0.0
 30
0.0
  3
*Model_Space
  1

  0
ENDBLK
  5
72
330
70
100
AcDbEntity
  8
0
100
AcDbBlockEnd
  0
BLOCK
  5
6D
330
6C
100
AcDbEntity
 67
     1
  8
0
100
AcDbBlockBegin
  2
*Paper_Space
 70
     0
 10
0.0
 20
0.0
 30
0.0
  3
*Paper_Space
  1

  0
ENDBLK
  5
6E
330
6C
100
AcDbEntity
 67
     1
  8
0
100
AcDbBlockEnd
  0
BLOCK
  5
75
330
74
100
AcDbEntity
 67
     1
  8
0
100
AcDbBlockBegin
  2
*Paper_Space0
 70
     0
 10
0.0
 20
0.0
 30
0.0
  3
*Paper_Space0
  1

  0
ENDBLK
  5
76
330
74
100
AcDbEntity
 67
     1
  8
0
100
AcDbBlockEnd
  0
ENDSEC
  0
SECTION
  2
ENTITIES
  0
SPLINE
  5
78
330
70
100
AcDbEntity
  8
0
 62
    18
420
        0
370
    25
100
AcDbSpline
210
0.0
220
0.0
230
1.0
 70
     9
 71
     3
 72
    53
 73
    49
 74
     0
 42
0.0000000001
 43
0.0000000001
 40
0.0
 40
0.0
 40
0.0
 40
0.0
 40
1.0
 40
1.0
 40
1.0
 40
2.0
 40
2.0
 40
2.0
 40
3.0
 40
3.0
 40
3.0
 40
4.0
 40
4.0
 40
4.0
 40
5.0
 40
5.0
 40
5.0
 40
6.0
 40
6.0
 40
6.0
 40
7.0
 40
7.0
 40
7.0
 40
8.0
 40
8.0
 40
8.0
 40
9.0
 40
9.0
 40
9.0
 40
10.0
 40
10.0
 40
10.0
 40
11.0
 40
11.0
 40
11.0
 40
12.0
 40
12.0
 40
12.0
 40
13.0
 40
13.0
 40
13.0
 40
14.0
 40
14.0
 40
14.0
 40
15.0
 40
15.0
 40
15.0
 40
16.0
 40
16.0
 40
16.0
 40
16.0
 10
203.1370981319617
 20
73.49343015890408
 30
0.0
 10
203.4132405068768
 20
73.49343015887905
 30
0.0
 10
203.6370981319813
 20
73.7172877839437
 30
0.0
 10
203.6370981320069
 20
73.99343015885886
 30
0.0
 10
203.6370981320069
 20
73.99343015885886
 30
0.0
 10
203.6370981320968
 20
74.99843015885891
 30
0.0
 10
203.6370981320968
 20
74.99843015885891
 30
0.0
 10
203.6370981321212
 20
75.27457253377406
 30
0.0
 10
203.8609557572262
 20
75.49843015883872
 30
0.0
 10
204.137098132142
 20
75.49843015881369
 30
0.0
 10
204.137098132142
 20
75.49843015881369
 30
0.0
 10
210.1370981321416
 20
75.49843015827466
 30
0.0
 10
210.1370981321416
 20
75.49843015827466
 30
0.0
 10
210.4132405070574
 20
75.49843015825027
 30
0.0
 10
210.6370981321214
 20
75.2745725331452
 30
0.0
 10
210.6370981320964
 20
74.99843015823005
 30
0.0
 10
210.6370981320964
 20
74.99843015823005
 30
0.0
 10
210.6370981307501
 20
59.99843015823016
 30
0.0
 10
210.6370981307501
 20
59.99843015823016
 30
0.0
 10
210.6370981307251
 20
59.72228778331436
 30
0.0
 10
210.41324050562
 20
59.49843015825035
 30
0.0
 10
210.1370981307048
 20
59.49843015827537
 30
0.0
 10
210.1370981307048
 20
59.49843015827537
 30
0.0
 10
189.9130981307047
 20
59.49843016009139
 30
0.0
 10
189.9130981307047
 20
59.49843016009139
 30
0.0
 10
189.6369557557899
 20
59.49843016011577
 30
0.0
 10
189.4130981307253
 20
59.7222877852202
 30
0.0
 10
189.4130981307499
 20
59.998430160136
 30
0.0
 10
189.4130981307499
 20
59.998430160136
 30
0.0
 10
189.4130981320966
 20
74.99843016013589
 30
0.0
 10
189.4130981320966
 20
74.99843016013589
 30
0.0
 10
189.4130981321216
 20
75.27457253505104
 30
0.0
 10
189.636955757226
 20
75.49843016011634
 30
0.0
 10
189.9130981321412
 20
75.49843016009067
 30
0.0
 10
189.9130981321412
 20
75.49843016009067
 30
0.0
 10
195.9130981321414
 20
75.49843015955229
 30
0.0
 10
195.9130981321414
 20
75.49843015955229
 30
0.0
 10
196.1892405070566
 20
75.49843015952726
 30
0.0
 10
196.4130981321212
 20
75.27457253442282
 30
0.0
 10
196.4130981320962
 20
74.99843015950766
 30
0.0
 10
196.4130981320962
 20
74.99843015950766
 30
0.0
 10
196.4130981320063
 20
73.99343015950761
 30
0.0
 10
196.4130981320063
 20
73.99343015950761
 30
0.0
 10
196.4130981319813
 20
73.71728778459246
 30
0.0
 10
196.6369557570466
 20
73.49343015948739
 30
0.0
 10
196.9130981319617
 20
73.49343015946236
 30
0.0
 10
196.9130981319617
 20
73.49343015946236
 30
0.0
 10
203.1370981319617
 20
73.49343015890408
 30
0.0
 10
203.1370981319617
 20
73.49343015890408
 30
0.0
  0
SPLINE
  5
79
330
70
100
AcDbEntity
  8
0
 62
    18
420
        0
370
    25
100
AcDbSpline
210
0.0
220
0.0
230
1.0
 70
     9
 71
     3
 72
    44
 73
    40
 74
     0
 42
0.0000000001
 43
0.0000000001
 40
0.0
 40
0.0
 40
0.0
 40
0.0
 40
1.0
 40
1.0
 40
1.0
 40
2.0
 40
2.0
 40
2.0
 40
3.0
 40
3.0
 40
3.0
 40
4.0
 40
4.0
 40
4.0
 40
5.0
 40
5.0
 40
5.0
 40
6.0
 40
6.0
 40
6.0
 40
7.0
 40
7.0
 40
7.0
 40
8.0
 40
8.0
 40
8.0
 40
9.0
 40
9.0
 40
9.0
 40
10.0
 40
10.0
 40
10.0
 40
11.0
 40
11.0
 40
11.0
 40
12.0
 40
12.0
 40
12.0
 40
13.0
 40
13.0
 40
13.0
 40
13.0
 10
224.6000981319618
 20
73.49843015697643
 30
0.0
 10
224.876240506877
 20
73.4984301569514
 30
0.0
 10
225.1000981319821
 20
73.72228778201606
 30
0.0
 10
225.1000981320071
 20
73.99843015693121
 30
0.0
 10
225.1000981320071
 20
73.99843015693121
 30
0.0
 10
225.1000981320963
 20
74.99343015693122
 30
0.0
 10
225.1000981320963
 20
74.99343015693122
 30
0.0
 10
225.1000981321213
 20
75.26957253184638
 30
0.0
 10
225.3239557572258
 20
75.49343015691103
 30
0.0
 10
225.600098132141
 20
75.49343015688664
 30
0.0
 10
225.600098132141
 20
75.49343015688664
 30
0.0
 10
234.0130981321411
 20
75.49343015613072
 30
0.0
 10
234.0130981321411
 20
75.49343015613072
 30
0.0
 10
234.0130981321411
 20
75.49343015613072
 30
0.0
 10
234.0130981321424
 20
75.49843015613139
 30
0.0
 10
234.0130981321424
 20
75.49843015613139
 30
0.0
 10
234.2892405070576
 20
75.49843015610635
 30
0.0
 10
234.5130981321216
 20
75.27457253100128
 30
0.0
 10
234.5130981320965
 20
74.99843015608613
 30
0.0
 10
234.5130981320965
 20
74.99843015608613
 30
0.0
 10
234.5130981307503
 20
59.99843015608623
 30
0.0
 10
234.5130981307503
 20
59.99843015608623
 30
0.0
 10
234.5130981307253
 20
59.72228778117108
 30
0.0
 10
234.2892405056202
 20
59.49843015610643
 30
0.0
 10
234.013098130705
 20
59.49843015613082
 30
0.0
 10
234.013098130705
 20
59.49843015613082
 30
0.0
 10
212.5750981307049
 20
59.49843015805591
 30
0.0
 10
212.5750981307049
 20
59.49843015805591
 30
0.0
 10
212.2989557557891
 20
59.49843015808094
 30
0.0
 10
212.0750981307251
 20
59.72228778318537
 30
0.0
 10
212.0750981307502
 20
59.99843015810117
 30
0.0
 10
212.0750981307502
 20
59.99843015810117
 30
0.0
 10
212.0750981319174
 20
72.99843015810099
 30
0.0
 10
212.0750981319174
 20
72.99843015810099
 30
0.0
 10
212.0750981319424
 20
73.27457253301616
 30
0.0
 10
212.2989557570468
 20
73.4984301580808
 30
0.0
 10
212.575098131962
 20
73.49843015805577
 30
0.0
 10
212.575098131962
 20
73.49843015805577
 30
0.0
 10
224.6000981319618
 20
73.49843015697643
 30
0.0
 10
224.6000981319618
 20
73.49843015697643
 30
0.0
  0
SPLINE
  5
7A
330
70
100
AcDbEntity
  8
0
 62
    18
420
        0
370
    25
100
AcDbSpline
210
0.0
220
0.0
230
1.0
 70
    11
 71
     3
 72
   125
 73
   121
 74
     0
 42
0.0000000001
 43
0.0000000001
 40
0.0
 40
0.0
 40
0.0
 40
0.0
 40
1.0
 40
1.0
 40
1.0
 40
2.0
 40
2.0
 40
2.0
 40
3.0
 40
3.0
 40
3.0
 40
4.0
 40
4.0
 40
4.0
 40
5.0
 40
5.0
 40
5.0
 40
6.0
 40
6.0
 40
6.0
 40
7.0
 40
7.0
 40
7.0
 40
8.0
 40
8.0
 40
8.0
 40
9.0
 40
9.0
 40
9.0
 40
10.0
 40
10.0
 40
10.0
 40
11.0
 40
11.0
 40
11.0
 40
12.0
 40
12.0
 40
12.0
 40
13.0
 40
13.0
 40
13.0
 40
14.0
 40
14.0
 40
14.0
 40
15.0
 40
15.0
 40
15.0
 40
16.0
 40
16.0
 40
16.0
 40
17.0
 40
17.0
 40
17.0
 40
18.0
 40
18.0
 40
18.0
 40
19.0
 40
19.0
 40
19.0
 40
20.0
 40
20.0
 40
20.0
 40
21.0
 40
21.0
 40
21.0
 40
22.0
 40
22.0
 40
22.0
 40
23.0
 40
23.0
 40
23.0
 40
24.0
 40
24.0
 40
24.0
 40
25.0
 40
25.0
 40
25.0
 40
26.0
 40
26.0
 40
26.0
 40
27.0
 40
27.0
 40
27.0
 40
28.0
 40
28.0
 40
28.0
 40
29.0
 40
29.0
 40
29.0
 40
30.0
 40
30.0
 40
30.0
 40
31.0
 40
31.0
 40
31.0
 40
32.0
 40
32.0
 40
32.0
 40
33.0
 40
33.0
 40
33.0
 40
34.0
 40
34.0
 40
34.0
 40
35.0
 40
35.0
 40
35.0
 40
36.0
 40
36.0
 40
36.0
 40
37.0
 40
37.0
 40
37.0
 40
38.0
 40
38.0
 40
38.0
 40
39.0
 40
39.0
 40
39.0
 40
40.0
 40
40.0
 40
40.0
 40
40.0
 10
100.0125981343379
 20
99.95720295697806
 30
0.0
 10
100.0125981343379
 20
99.95720295697806
 30
0.0
 10
100.0122074851265
 20
62.56473941362568
 30
0.0
 10
100.0122074851265
 20
62.56473941362568
 30
0.0
 10
100.0122019435487
 20
62.0343064500679
 30
0.0
 10
100.2229102969098
 20
61.52559643699084
 30
0.0
 10
100.5979791152106
 20
61.15051976429859
 30
0.0
 10
100.5979791152106
 20
61.15051976429859
 30
0.0
 10
105.4263556471969
 20
56.32204212030543
 30
0.0
 10
105.4263556471969
 20
56.32204212030543
 30
0.0
 10
105.8014244768763
 20
55.94696543623395
 30
0.0
 10
106.3101300963704
 20
55.73624642909436
 30
0.0
 10
106.84056307602
 20
55.73624087520008
 30
0.0
 10
106.84056307602
 20
55.73624087520008
 30
0.0
 10
115.583711486731
 20
55.73614933014111
 30
0.0
 10
115.583711486731
 20
55.73614933014111
 30
0.0
 10
116.1141444663813
 20
55.73614377624747
 30
0.0
 10
116.6228544984276
 20
55.94685213054581
 30
0.0
 10
116.9979311824991
 20
56.3219209602249
 30
0.0
 10
116.9979311824991
 20
56.3219209602249
 30
0.0
 10
121.8264175370209
 20
61.15030620255761
 30
0.0
 10
121.8264175370209
 20
61.15030620255761
 30
0.0
 10
122.1955375020074
 20
61.51941843789193
 30
0.0
 10
122.6943426518757
 20
61.729586925067
 30
0.0
 10
123.2163131051764
 20
61.73593016608024
 30
0.0
 10
123.2163131051764
 20
61.73593016608024
 30
0.0
 10
157.2653671051763
 20
61.73593016302319
 30
0.0
 10
157.2653671051763
 20
61.73593016302319
 30
0.0
 10
158.6460789797524
 20
61.73593016289999
 30
0.0
 10
159.7653671050754
 20
60.61664203737589
 30
0.0
 10
159.7653671049515
 20
59.23593016279947
 30
0.0
 10
159.7653671048392
 20
57.98681497400332
 30
0.0
 10
160.7779750382699
 20
56.97420704039005
 30
0.0
 10
162.0270902270654
 20
56.97420704027904
 30
0.0
 10
162.0270902270654
 20
56.97420704027904
 30
0.0
 10
238.3215948012713
 20
56.97420703324024
 30
0.0
 10
238.3215948012713
 20
56.97420703324024
 30
0.0
 10
239.5706984426888
 20
56.97420703312858
 30
0.0
 10
240.5833015287586
 20
57.98679706692254
 30
0.0
 10
240.5833176294764
 20
59.23590070823603
 30
0.0
 10
240.5833176293488
 20
59.23591167928108
 30
0.0
 10
240.5833176292929
 20
59.2359226503101
 30
0.0
 10
240.583317629309
 20
59.2359336213558
 30
0.0
 10
240.5833197060928
 20
60.6166454959303
 30
0.0
 10
241.7026095150797
 20
61.73593193778626
 30
0.0
 10
243.0833213896555
 20
61.73592986100304
 30
0.0
 10
243.0833213896555
 20
61.73592986100304
 30
0.0
 10
277.1323754392594
 20
61.73587864646432
 30
0.0
 10
277.1323754392594
 20
61.73587864646432
 30
0.0
 10
277.662814633018
 20
61.7358778486091
 30
0.0
 10
278.1715275771349
 20
61.52515847938634
 30
0.0
 10
278.5466008007866
 20
61.15007740125116
 30
0.0
 10
278.5466008007866
 20
61.15007740125116
 30
0.0
 10
283.3763981643308
 20
56.32017889594523
 30
0.0
 10
283.3763981643308
 20
56.32017889594523
 30
0.0
 10
283.7514669940105
 20
55.94510221187374
 30
0.0
 10
284.2601726135052
 20
55.73438320473351
 30
0.0
 10
284.7906055931555
 20
55.73437765083987
 30
0.0
 10
284.7906055931555
 20
55.73437765083987
 30
0.0
 10
293.2090515687846
 20
55.73428950557492
 30
0.0
 10
293.2090515687846
 20
55.73428950557492
 30
0.0
 10
293.7394845484342
 20
55.73428395168065
 30
0.0
 10
294.2481945804806
 20
55.94499230597962
 30
0.0
 10
294.6232712645521
 20
56.32006113565871
 30
0.0
 10
294.6232712645521
 20
56.32006113565871
 30
0.0
 10
299.4517814932864
 20
61.14847025170473
 30
0.0
 10
299.4517814932864
 20
61.14847025170473
 30
0.0
 10
299.8268581773572
 20
61.52353908138383
 30
0.0
 10
300.0375771844975
 20
62.03224470087784
 30
0.0
 10
300.0375827383917
 20
62.5626776805275
 30
0.0
 10
300.0375827383917
 20
62.5626776805275
 30
0.0
 10
300.0379811525256
 20
137.107517363965
 30
0.0
 10
300.0379811525256
 20
137.107517363965
 30
0.0
 10
300.0379785433286
 20
137.6379514244483
 30
0.0
 10
299.8272619309129
 20
138.1466592502833
 30
0.0
 10
299.4521865647834
 20
138.5217309264331
 30
0.0
 10
299.4521865647834
 20
138.5217309264331
 30
0.0
 10
294.623726892562
 20
143.3501905995218
 30
0.0
 10
294.623726892562
 20
143.3501905995218
 30
0.0
 10
294.2486541357002
 20
143.7252633564516
 30
0.0
 10
293.7399463099211
 20
143.9359770372286
 30
0.0
 10
293.2095133302419
 20
143.9359770372758
 30
0.0
 10
293.2095133302419
 20
143.9359770372758
 30
0.0
 10
284.791067354152
 20
143.935977038032
 30
0.0
 10
284.791067354152
 20
143.935977038032
 30
0.0
 10
284.2606343744716
 20
143.9359770380795
 30
0.0
 10
283.7519265486539
 20
143.7252633573933
 30
0.0
 10
283.3768537917247
 20
143.3501906005311
 30
0.0
 10
283.3768537917247
 20
143.3501906005311
 30
0.0
 10
278.5483847740577
 20
138.5217215837305
 30
0.0
 10
278.5483847740577
 20
138.5217215837305
 30
0.0
 10
278.173311899629
 20
138.1466487093691
 30
0.0
 10
277.6646038779468
 20
137.9359350190028
 30
0.0
 10
277.1341707320984
 20
137.9359351462309
 30
0.0
 10
277.1341707320984
 20
137.9359351462309
 30
0.0
 10
123.2410274874046
 20
137.9359770525381
 30
0.0
 10
123.2410274874046
 20
137.9359770525381
 30
0.0
 10
122.7105945077257
 20
137.9359770525862
 30
0.0
 10
122.2018866819482
 20
138.1466907333626
 30
0.0
 10
121.8268139250857
 20
138.5217634902918
 30
0.0
 10
121.8268139250857
 20
138.5217634902918
 30
0.0
 10
116.9983868007729
 20
143.3501906154712
 30
0.0
 10
116.9983868007729
 20
143.3501906154712
 30
0.0
 10
116.6233140439098
 20
143.7252633724017
 30
0.0
 10
116.1146062181316
 20
143.9359770531781
 30
0.0
 10
115.5841732384521
 20
143.9359770532256
 30
0.0
 10
115.5841732384521
 20
143.9359770532256
 30
0.0
 10
106.8410248272631
 20
143.9359770540104
 30
0.0
 10
106.8410248272631
 20
143.9359770540104
 30
0.0
 10
106.3105918475839
 20
143.9359770540585
 30
0.0
 10
105.8018840217669
 20
143.7252633733729
 30
0.0
 10
105.4268112648367
 20
143.3501906165101
 30
0.0
 10
105.4268112648367
 20
143.3501906165101
 30
0.0
 10
100.5983841761489
 20
138.5217635286898
 30
0.0
 10
100.5983841761489
 20
138.5217635286898
 30
0.0
 10
100.2233114305986
 20
138.1466907832056
 30
0.0
 10
100.0125977507597
 20
137.637982976396
 30
0.0
 10
100.0125977383951
 20
137.1075500128094
 30
0.0
 10
100.0125977383951
 20
137.1075500128094
 30
0.0
 10
100.0125981343379
 20
99.95720295697806
 30
0.0
 10
100.0125981343379
 20
99.95720295697806
 30
0.0
  0
SPLINE
  5
7B
330
70
100
AcDbEntity
  8
0
 62
    18
420
        0
370
    25
100
AcDbSpline
210
0.0
220
0.0
230
1.0
 70
     9
 71
     3
 72
    44
 73
    40
 74
     0
 42
0.0000000001
 43
0.0000000001
 40
0.0
 40
0.0
 40
0.0
 40
0.0
 40
1.0
 40
1.0
 40
1.0
 40
2.0
 40
2.0
 40
2.0
 40
3.0
 40
3.0
 40
3.0
 40
4.0
 40
4.0
 40
4.0
 40
5.0
 40
5.0
 40
5.0
 40
6.0
 40
6.0
 40
6.0
 40
7.0
 40
7.0
 40
7.0
 40
8.0
 40
8.0
 40
8.0
 40
9.0
 40
9.0
 40
9.0
 40
10.0
 40
10.0
 40
10.0
 40
11.0
 40
11.0
 40
11.0
 40
12.0
 40
12.0
 40
12.0
 40
13.0
 40
13.0
 40
13.0
 40
13.0
 10
174.9502054333806
 20
73.99843016143465
 30
0.0
 10
174.9502054333555
 20
73.7222877865195
 30
0.0
 10
175.1740630584202
 20
73.49843016141441
 30
0.0
 10
175.4502054333353
 20
73.49843016138939
 30
0.0
 10
175.4502054333353
 20
73.49843016138939
 30
0.0
 10
187.4752054333349
 20
73.49843016031006
 30
0.0
 10
187.4752054333349
 20
73.49843016031006
 30
0.0
 10
187.751347808251
 20
73.49843016028502
 30
0.0
 10
187.975205433315
 20
73.27457253518059
 30
0.0
 10
187.9752054332906
 20
72.9984301602648
 30
0.0
 10
187.9752054332906
 20
72.9984301602648
 30
0.0
 10
187.9752054321233
 20
59.99843016026498
 30
0.0
 10
187.9752054321233
 20
59.99843016026498
 30
0.0
 10
187.9752054320983
 20
59.72228778534983
 30
0.0
 10
187.7513478069939
 20
59.49843016028518
 30
0.0
 10
187.4752054320781
 20
59.49843016031021
 30
0.0
 10
187.4752054320781
 20
59.49843016031021
 30
0.0
 10
166.0372054320786
 20
59.49843016223466
 30
0.0
 10
166.0372054320786
 20
59.49843016223466
 30
0.0
 10
165.7610630571625
 20
59.49843016226033
 30
0.0
 10
165.5372054320982
 20
59.72228778736411
 30
0.0
 10
165.5372054321232
 20
59.99843016227991
 30
0.0
 10
165.5372054321232
 20
59.99843016227991
 30
0.0
 10
165.5372054334695
 20
74.9984301622798
 30
0.0
 10
165.5372054334695
 20
74.9984301622798
 30
0.0
 10
165.5372054334945
 20
75.27457253719496
 30
0.0
 10
165.7610630585987
 20
75.49843016225961
 30
0.0
 10
166.0372054335147
 20
75.49843016223523
 30
0.0
 10
166.0372054335147
 20
75.49843016223523
 30
0.0
 10
174.4502054335143
 20
75.49843016147931
 30
0.0
 10
174.4502054335143
 20
75.49843016147931
 30
0.0
 10
174.4502054335143
 20
75.49843016147931
 30
0.0
 10
174.4502054335143
 20
75.49343016147993
 30
0.0
 10
174.4502054335143
 20
75.49343016147993
 30
0.0
 10
174.7263478084301
 20
75.49343016145491
 30
0.0
 10
174.9502054334941
 20
75.26957253634982
 30
0.0
 10
174.9502054334698
 20
74.99343016143467
 30
0.0
 10
174.9502054334698
 20
74.99343016143467
 30
0.0
 10
174.9502054333806
 20
73.99843016143465
 30
0.0
 10
174.9502054333806
 20
73.99843016143465
 30
0.0
  0
CIRCLE
  5
7C
330
70
100
AcDbEntity
  8
0
 62
    18
420
        0
370
    25
100
AcDbCircle
 10
288.9188276624626
 20
140.9359583778974
 30
0.0
 40
1.349999999662353
  0
CIRCLE
  5
7D
330
70
100
AcDbEntity
  8
0
 62
    18
420
        0
370
    25
100
AcDbCircle
 10
111.1311387528576
 20
140.9359770675498
 30
0.0
 40
1.349999999662473
  0
CIRCLE
  5
7E
330
70
100
AcDbEntity
  8
0
 62
    18
420
        0
370
    25
100
AcDbCircle
 10
111.1311387576322
 20
58.73407774244314
 30
0.0
 40
1.349999999662594
  0
CIRCLE
  5
7F
330
70
100
AcDbEntity
  8
0
 62
    18
420
        0
370
    25
100
AcDbCircle
 10
288.9188276576876
 20
58.73435223782415
 30
0.0
 40
1.349999999662353
  0
SPLINE
  5
80
330
70
100
AcDbEntity
  8
0
 62
    18
420
        0
370
    25
100
AcDbSpline
210
0.0
220
0.0
230
1.0
 70
     9
 71
     3
 72
    29
 73
    25
 74
     0
 42
0.0000000001
 43
0.0000000001
 40
0.0
 40
0.0
 40
0.0
 40
0.0
 40
1.0
 40
1.0
 40
1.0
 40
2.0
 40
2.0
 40
2.0
 40
3.0
 40
3.0
 40
3.0
 40
4.0
 40
4.0
 40
4.0
 40
5.0
 40
5.0
 40
5.0
 40
6.0
 40
6.0
 40
6.0
 40
7.0
 40
7.0
 40
7.0
 40
8.0
 40
8.0
 40
8.0
 40
8.0
 10
284.0122054069487
 20
78.26107772204491
 30
0.0
 10
284.0122054069487
 20
78.26107772204491
 30
0.0
 10
297.0122054036989
 20
78.26107772087766
 30
0.0
 10
297.0122054036989
 20
78.26107772087766
 30
0.0
 10
297.2883477785448
 20
78.26107772085264
 30
0.0
 10
297.5122054035536
 20
78.03722009580467
 30
0.0
 10
297.5122054035286
 20
77.76107772095818
 30
0.0
 10
297.5122054035286
 20
77.76107772095818
 30
0.0
 10
297.5122054023619
 20
64.76107772420792
 30
0.0
 10
297.5122054023619
 20
64.76107772420792
 30
0.0
 10
297.5122054023369
 20
64.48493534936144
 30
0.0
 10
297.2883477772883
 20
64.26107772435326
 30
0.0
 10
297.0122054024419
 20
64.26107772437764
 30
0.0
 10
297.0122054024419
 20
64.26107772437764
 30
0.0
 10
284.0122054056916
 20
64.26107772554553
 30
0.0
 10
284.0122054056916
 20
64.26107772554553
 30
0.0
 10
283.7360630308451
 20
64.26107772556992
 30
0.0
 10
283.5122054058369
 20
64.48493535061851
 30
0.0
 10
283.5122054058613
 20
64.76107772546502
 30
0.0
 10
283.5122054058613
 20
64.76107772546502
 30
0.0
 10
283.5122054070292
 20
77.76107772221526
 30
0.0
 10
283.5122054070292
 20
77.76107772221526
 30
0.0
 10
283.5122054070536
 20
78.03722009706112
 30
0.0
 10
283.7360630321029
 20
78.26107772206994
 30
0.0
 10
284.0122054069487
 20
78.26107772204491
 30
0.0
  0
SPLINE
  5
81
330
70
100
AcDbEntity
  8
0
 62
    18
420
        0
370
    25
100
AcDbSpline
210
0.0
220
0.0
230
1.0
 70
     9
 71
     3
 72
    29
 73
    25
 74
     0
 42
0.0000000001
 43
0.0000000001
 40
0.0
 40
0.0
 40
0.0
 40
0.0
 40
1.0
 40
1.0
 40
1.0
 40
2.0
 40
2.0
 40
2.0
 40
3.0
 40
3.0
 40
3.0
 40
4.0
 40
4.0
 40
4.0
 40
5.0
 40
5.0
 40
5.0
 40
6.0
 40
6.0
 40
6.0
 40
7.0
 40
7.0
 40
7.0
 40
8.0
 40
8.0
 40
8.0
 40
8.0
 10
264.9625981340143
 20
78.26107772375568
 30
0.0
 10
264.9625981340143
 20
78.26107772375568
 30
0.0
 10
277.9625981307646
 20
78.26107772258843
 30
0.0
 10
277.9625981307646
 20
78.26107772258843
 30
0.0
 10
278.2387405056111
 20
78.2610777225634
 30
0.0
 10
278.4625981306199
 20
78.03722009751481
 30
0.0
 10
278.4625981305949
 20
77.7610777226683
 30
0.0
 10
278.4625981305949
 20
77.7610777226683
 30
0.0
 10
278.4625981294277
 20
64.76107772591806
 30
0.0
 10
278.4625981294277
 20
64.76107772591806
 30
0.0
 10
278.4625981294033
 20
64.48493535107219
 30
0.0
 10
278.238740504354
 20
64.26107772606338
 30
0.0
 10
277.9625981295075
 20
64.2610777260884
 30
0.0
 10
277.9625981295075
 20
64.2610777260884
 30
0.0
 10
264.9625981327572
 20
64.26107772725565
 30
0.0
 10
264.9625981327572
 20
64.26107772725565
 30
0.0
 10
264.6864557579114
 20
64.26107772728068
 30
0.0
 10
264.4625981329026
 20
64.48493535232865
 30
0.0
 10
264.4625981329276
 20
64.76107772717579
 30
0.0
 10
264.4625981329276
 20
64.76107772717579
 30
0.0
 10
264.4625981340949
 20
77.76107772392603
 30
0.0
 10
264.4625981340949
 20
77.76107772392603
 30
0.0
 10
264.4625981341193
 20
78.03722009877188
 30
0.0
 10
264.6864557591685
 20
78.26107772378006
 30
0.0
 10
264.9625981340143
 20
78.26107772375568
 30
0.0
  0
SPLINE
  5
82
330
70
100
AcDbEntity
  8
0
 62
    18
420
        0
370
    25
100
AcDbSpline
210
0.0
220
0.0
230
1.0
 70
     9
 71
     3
 72
    29
 73
    25
 74
     0
 42
0.0000000001
 43
0.0000000001
 40
0.0
 40
0.0
 40
0.0
 40
0.0
 40
1.0
 40
1.0
 40
1.0
 40
2.0
 40
2.0
 40
2.0
 40
3.0
 40
3.0
 40
3.0
 40
4.0
 40
4.0
 40
4.0
 40
5.0
 40
5.0
 40
5.0
 40
6.0
 40
6.0
 40
6.0
 40
7.0
 40
7.0
 40
7.0
 40
8.0
 40
8.0
 40
8.0
 40
8.0
 10
245.9125981340142
 20
78.26107772546645
 30
0.0
 10
245.9125981340142
 20
78.26107772546645
 30
0.0
 10
258.9125981307644
 20
78.26107772429856
 30
0.0
 10
258.9125981307644
 20
78.26107772429856
 30
0.0
 10
259.1887405056109
 20
78.26107772427417
 30
0.0
 10
259.4125981306198
 20
78.03722009922492
 30
0.0
 10
259.4125981305948
 20
77.76107772437907
 30
0.0
 10
259.4125981305948
 20
77.76107772437907
 30
0.0
 10
259.4125981294275
 20
64.76107772762881
 30
0.0
 10
259.4125981294275
 20
64.76107772762881
 30
0.0
 10
259.4125981294031
 20
64.48493535278233
 30
0.0
 10
259.1887405043538
 20
64.26107772777415
 30
0.0
 10
258.9125981295079
 20
64.26107772779918
 30
0.0
 10
258.9125981295079
 20
64.26107772779918
 30
0.0
 10
245.9125981327577
 20
64.26107772896578
 30
0.0
 10
245.9125981327577
 20
64.26107772896578
 30
0.0
 10
245.6364557579112
 20
64.26107772899145
 30
0.0
 10
245.4125981329024
 20
64.48493535403942
 30
0.0
 10
245.4125981329274
 20
64.76107772888591
 30
0.0
 10
245.4125981329274
 20
64.76107772888591
 30
0.0
 10
245.4125981340947
 20
77.76107772563617
 30
0.0
 10
245.4125981340947
 20
77.76107772563617
 30
0.0
 10
245.4125981341191
 20
78.03722010048265
 30
0.0
 10
245.6364557591683
 20
78.26107772549083
 30
0.0
 10
245.9125981340142
 20
78.26107772546645
 30
0.0
  0
SPLINE
  5
83
330
70
100
AcDbEntity
  8
0
 62
    18
420
        0
370
    25
100
AcDbSpline
210
0.0
220
0.0
230
1.0
 70
     9
 71
     3
 72
    29
 73
    25
 74
     0
 42
0.0000000001
 43
0.0000000001
 40
0.0
 40
0.0
 40
0.0
 40
0.0
 40
1.0
 40
1.0
 40
1.0
 40
2.0
 40
2.0
 40
2.0
 40
3.0
 40
3.0
 40
3.0
 40
4.0
 40
4.0
 40
4.0
 40
5.0
 40
5.0
 40
5.0
 40
6.0
 40
6.0
 40
6.0
 40
7.0
 40
7.0
 40
7.0
 40
8.0
 40
8.0
 40
8.0
 40
8.0
 10
141.1374017704808
 20
78.2610777348744
 30
0.0
 10
141.1374017704808
 20
78.2610777348744
 30
0.0
 10
154.137401767231
 20
78.26107773370715
 30
0.0
 10
154.137401767231
 20
78.26107773370715
 30
0.0
 10
154.4135441420772
 20
78.26107773368213
 30
0.0
 10
154.637401767086
 20
78.03722010863352
 30
0.0
 10
154.637401767061
 20
77.76107773378767
 30
0.0
 10
154.637401767061
 20
77.76107773378767
 30
0.0
 10
154.6374017658941
 20
64.76107773703741
 30
0.0
 10
154.6374017658941
 20
64.76107773703741
 30
0.0
 10
154.6374017658687
 20
64.48493536219027
 30
0.0
 10
154.4135441408201
 20
64.26107773718209
 30
0.0
 10
154.1374017659736
 20
64.26107773720713
 30
0.0
 10
154.1374017659736
 20
64.26107773720713
 30
0.0
 10
141.1374017692237
 20
64.26107773837438
 30
0.0
 10
141.1374017692237
 20
64.26107773837438
 30
0.0
 10
140.8612593943775
 20
64.26107773839875
 30
0.0
 10
140.637401769369
 20
64.484935363448
 30
0.0
 10
140.637401769394
 20
64.76107773829387
 30
0.0
 10
140.637401769394
 20
64.76107773829387
 30
0.0
 10
140.6374017705613
 20
77.76107773504411
 30
0.0
 10
140.6374017705613
 20
77.76107773504411
 30
0.0
 10
140.637401770586
 20
78.03722010989061
 30
0.0
 10
140.8612593956346
 20
78.26107773489943
 30
0.0
 10
141.1374017704808
 20
78.2610777348744
 30
0.0
  0
SPLINE
  5
84
330
70
100
AcDbEntity
  8
0
 62
    18
420
        0
370
    25
100
AcDbSpline
210
0.0
220
0.0
230
1.0
 70
     9
 71
     3
 72
    29
 73
    25
 74
     0
 42
0.0000000001
 43
0.0000000001
 40
0.0
 40
0.0
 40
0.0
 40
0.0
 40
1.0
 40
1.0
 40
1.0
 40
2.0
 40
2.0
 40
2.0
 40
3.0
 40
3.0
 40
3.0
 40
4.0
 40
4.0
 40
4.0
 40
5.0
 40
5.0
 40
5.0
 40
6.0
 40
6.0
 40
6.0
 40
7.0
 40
7.0
 40
7.0
 40
8.0
 40
8.0
 40
8.0
 40
8.0
 10
122.0877944975465
 20
78.26107773658453
 30
0.0
 10
122.0877944975465
 20
78.26107773658453
 30
0.0
 10
135.0877944942964
 20
78.26107773541791
 30
0.0
 10
135.0877944942964
 20
78.26107773541791
 30
0.0
 10
135.3639368691439
 20
78.26107773539225
 30
0.0
 10
135.5877944941527
 20
78.03722011034429
 30
0.0
 10
135.5877944941277
 20
77.76107773549779
 30
0.0
 10
135.5877944941277
 20
77.76107773549779
 30
0.0
 10
135.5877944929604
 20
64.76107773874755
 30
0.0
 10
135.5877944929604
 20
64.76107773874755
 30
0.0
 10
135.5877944929354
 20
64.48493536390104
 30
0.0
 10
135.3639368678868
 20
64.26107773889286
 30
0.0
 10
135.0877944930393
 20
64.26107773891725
 30
0.0
 10
135.0877944930393
 20
64.26107773891725
 30
0.0
 10
122.0877944962894
 20
64.26107774008514
 30
0.0
 10
122.0877944962894
 20
64.26107774008514
 30
0.0
 10
121.8116521214432
 20
64.26107774010953
 30
0.0
 10
121.5877944964347
 20
64.48493536515814
 30
0.0
 10
121.5877944964598
 20
64.76107774000462
 30
0.0
 10
121.5877944964598
 20
64.76107774000462
 30
0.0
 10
121.587794497627
 20
77.76107773675488
 30
0.0
 10
121.587794497627
 20
77.76107773675488
 30
0.0
 10
121.587794497652
 20
78.03722011160073
 30
0.0
 10
121.8116521227003
 20
78.26107773660955
 30
0.0
 10
122.0877944975465
 20
78.26107773658453
 30
0.0
  0
SPLINE
  5
85
330
70
100
AcDbEntity
  8
0
 62
    18
420
        0
370
    25
100
AcDbSpline
210
0.0
220
0.0
230
1.0
 70
     9
 71
     3
 72
    29
 73
    25
 74
     0
 42
0.0000000001
 43
0.0000000001
 40
0.0
 40
0.0
 40
0.0
 40
0.0
 40
1.0
 40
1.0
 40
1.0
 40
2.0
 40
2.0
 40
2.0
 40
3.0
 40
3.0
 40
3.0
 40
4.0
 40
4.0
 40
4.0
 40
5.0
 40
5.0
 40
5.0
 40
6.0
 40
6.0
 40
6.0
 40
7.0
 40
7.0
 40
7.0
 40
8.0
 40
8.0
 40
8.0
 40
8.0
 10
103.0377944975466
 20
78.2610777382953
 30
0.0
 10
103.0377944975466
 20
78.2610777382953
 30
0.0
 10
116.0377944942972
 20
78.26107773712805
 30
0.0
 10
116.0377944942972
 20
78.26107773712805
 30
0.0
 10
116.3139368691437
 20
78.26107773710302
 30
0.0
 10
116.5377944941525
 20
78.03722011205441
 30
0.0
 10
116.5377944941275
 20
77.76107773720792
 30
0.0
 10
116.5377944941275
 20
77.76107773720792
 30
0.0
 10
116.5377944929602
 20
64.76107774045766
 30
0.0
 10
116.5377944929602
 20
64.76107774045766
 30
0.0
 10
116.5377944929352
 20
64.48493536561182
 30
0.0
 10
116.3139368678866
 20
64.26107774060364
 30
0.0
 10
116.0377944930401
 20
64.26107774062803
 30
0.0
 10
116.0377944930401
 20
64.26107774062803
 30
0.0
 10
103.0377944962895
 20
64.26107774179527
 30
0.0
 10
103.0377944962895
 20
64.26107774179527
 30
0.0
 10
102.761652121443
 20
64.2610777418203
 30
0.0
 10
102.5377944964342
 20
64.48493536686825
 30
0.0
 10
102.5377944964593
 20
64.7610777417154
 30
0.0
 10
102.5377944964593
 20
64.7610777417154
 30
0.0
 10
102.5377944976268
 20
77.76107773846566
 30
0.0
 10
102.5377944976268
 20
77.76107773846566
 30
0.0
 10
102.5377944976515
 20
78.0372201133115
 30
0.0
 10
102.7616521227001
 20
78.26107773832032
 30
0.0
 10
103.0377944975466
 20
78.2610777382953
 30
0.0
  0
SPLINE
  5
86
330
70
100
AcDbEntity
  8
0
 62
    18
420
        0
370
    25
100
AcDbSpline
210
0.0
220
0.0
230
1.0
 70
     9
 71
     3
 72
    29
 73
    25
 74
     0
 42
0.0000000001
 43
0.0000000001
 40
0.0
 40
0.0
 40
0.0
 40
0.0
 40
1.0
 40
1.0
 40
1.0
 40
2.0
 40
2.0
 40
2.0
 40
3.0
 40
3.0
 40
3.0
 40
4.0
 40
4.0
 40
4.0
 40
5.0
 40
5.0
 40
5.0
 40
6.0
 40
6.0
 40
6.0
 40
7.0
 40
7.0
 40
7.0
 40
8.0
 40
8.0
 40
8.0
 40
8.0
 10
179.2377945026787
 20
135.411077717166
 30
0.0
 10
179.2377945026787
 20
135.411077717166
 30
0.0
 10
192.237794499429
 20
135.4110777159984
 30
0.0
 10
192.237794499429
 20
135.4110777159984
 30
0.0
 10
192.5139368742755
 20
135.4110777159734
 30
0.0
 10
192.7377944992843
 20
135.1872200909251
 30
0.0
 10
192.7377944992593
 20
134.9110777160786
 30
0.0
 10
192.7377944992593
 20
134.9110777160786
 30
0.0
 10
192.737794498092
 20
121.9110777193284
 30
0.0
 10
192.737794498092
 20
121.9110777193284
 30
0.0
 10
192.737794498067
 20
121.6349353444819
 30
0.0
 10
192.5139368730184
 20
121.411077719473
 30
0.0
 10
192.2377944981719
 20
121.4110777194981
 30
0.0
 10
192.2377944981719
 20
121.4110777194981
 30
0.0
 10
179.2377945014216
 20
121.4110777206653
 30
0.0
 10
179.2377945014216
 20
121.4110777206653
 30
0.0
 10
178.9616521265758
 20
121.4110777206903
 30
0.0
 10
178.737794501567
 20
121.6349353457389
 30
0.0
 10
178.737794501592
 20
121.9110777205854
 30
0.0
 10
178.737794501592
 20
121.9110777205854
 30
0.0
 10
178.7377945027593
 20
134.9110777173357
 30
0.0
 10
178.7377945027593
 20
134.9110777173357
 30
0.0
 10
178.7377945027843
 20
135.1872200921822
 30
0.0
 10
178.9616521278329
 20
135.411077717191
 30
0.0
 10
179.2377945026787
 20
135.411077717166
 30
0.0
  0
SPLINE
  5
87
330
70
100
AcDbEntity
  8
0
 62
    18
420
        0
370
    25
100
AcDbSpline
210
0.0
220
0.0
230
1.0
 70
     9
 71
     3
 72
    29
 73
    25
 74
     0
 42
0.0000000001
 43
0.0000000001
 40
0.0
 40
0.0
 40
0.0
 40
0.0
 40
1.0
 40
1.0
 40
1.0
 40
2.0
 40
2.0
 40
2.0
 40
3.0
 40
3.0
 40
3.0
 40
4.0
 40
4.0
 40
4.0
 40
5.0
 40
5.0
 40
5.0
 40
6.0
 40
6.0
 40
6.0
 40
7.0
 40
7.0
 40
7.0
 40
8.0
 40
8.0
 40
8.0
 40
8.0
 10
160.1877945026785
 20
135.4110777188768
 30
0.0
 10
160.1877945026785
 20
135.4110777188768
 30
0.0
 10
173.1877944994288
 20
135.4110777177095
 30
0.0
 10
173.1877944994288
 20
135.4110777177095
 30
0.0
 10
173.4639368742753
 20
135.4110777176845
 30
0.0
 10
173.6877944992841
 20
135.1872200926359
 30
0.0
 10
173.6877944992588
 20
134.9110777177894
 30
0.0
 10
173.6877944992588
 20
134.9110777177894
 30
0.0
 10
173.6877944980919
 20
121.9110777210391
 30
0.0
 10
173.6877944980919
 20
121.9110777210391
 30
0.0
 10
173.6877944980668
 20
121.6349353461926
 30
0.0
 10
173.4639368730182
 20
121.4110777211838
 30
0.0
 10
173.1877944981717
 20
121.4110777212088
 30
0.0
 10
173.1877944981717
 20
121.4110777212088
 30
0.0
 10
160.1877945014211
 20
121.4110777223761
 30
0.0
 10
160.1877945014211
 20
121.4110777223761
 30
0.0
 10
159.9116521265756
 20
121.4110777224005
 30
0.0
 10
159.6877945015668
 20
121.6349353474497
 30
0.0
 10
159.6877945015918
 20
121.9110777222962
 30
0.0
 10
159.6877945015918
 20
121.9110777222962
 30
0.0
 10
159.6877945027591
 20
134.9110777190465
 30
0.0
 10
159.6877945027591
 20
134.9110777190465
 30
0.0
 10
159.6877945027841
 20
135.187220093893
 30
0.0
 10
159.9116521278327
 20
135.4110777189011
 30
0.0
 10
160.1877945026785
 20
135.4110777188768
 30
0.0
  0
SPLINE
  5
88
330
70
100
AcDbEntity
  8
0
 62
    18
420
        0
370
    25
100
AcDbSpline
210
0.0
220
0.0
230
1.0
 70
     9
 71
     3
 72
    29
 73
    25
 74
     0
 42
0.0000000001
 43
0.0000000001
 40
0.0
 40
0.0
 40
0.0
 40
0.0
 40
1.0
 40
1.0
 40
1.0
 40
2.0
 40
2.0
 40
2.0
 40
3.0
 40
3.0
 40
3.0
 40
4.0
 40
4.0
 40
4.0
 40
5.0
 40
5.0
 40
5.0
 40
6.0
 40
6.0
 40
6.0
 40
7.0
 40
7.0
 40
7.0
 40
8.0
 40
8.0
 40
8.0
 40
8.0
 10
141.1374017756131
 20
135.4110777205869
 30
0.0
 10
141.1374017756131
 20
135.4110777205869
 30
0.0
 10
154.137401772363
 20
135.4110777194196
 30
0.0
 10
154.137401772363
 20
135.4110777194196
 30
0.0
 10
154.4135441472095
 20
135.4110777193953
 30
0.0
 10
154.6374017722187
 20
135.187220094346
 30
0.0
 10
154.6374017721933
 20
134.9110777194995
 30
0.0
 10
154.6374017721933
 20
134.9110777194995
 30
0.0
 10
154.6374017710264
 20
121.9110777227492
 30
0.0
 10
154.6374017710264
 20
121.9110777227492
 30
0.0
 10
154.637401771001
 20
121.6349353479028
 30
0.0
 10
154.4135441459524
 20
121.4110777228946
 30
0.0
 10
154.1374017711059
 20
121.411077722919
 30
0.0
 10
154.1374017711059
 20
121.411077722919
 30
0.0
 10
141.137401774356
 20
121.4110777240862
 30
0.0
 10
141.137401774356
 20
121.4110777240862
 30
0.0
 10
140.8612593995095
 20
121.4110777241112
 30
0.0
 10
140.6374017745007
 20
121.6349353491598
 30
0.0
 10
140.6374017745257
 20
121.9110777240063
 30
0.0
 10
140.6374017745257
 20
121.9110777240063
 30
0.0
 10
140.6374017756927
 20
134.9110777207566
 30
0.0
 10
140.6374017756927
 20
134.9110777207566
 30
0.0
 10
140.637401775718
 20
135.1872200956031
 30
0.0
 10
140.8612594007666
 20
135.4110777206119
 30
0.0
 10
141.1374017756131
 20
135.4110777205869
 30
0.0
  0
SPLINE
  5
89
330
70
100
AcDbEntity
  8
0
 62
    18
420
        0
370
    25
100
AcDbSpline
210
0.0
220
0.0
230
1.0
 70
     9
 71
     3
 72
    29
 73
    25
 74
     0
 42
0.0000000001
 43
0.0000000001
 40
0.0
 40
0.0
 40
0.0
 40
0.0
 40
1.0
 40
1.0
 40
1.0
 40
2.0
 40
2.0
 40
2.0
 40
3.0
 40
3.0
 40
3.0
 40
4.0
 40
4.0
 40
4.0
 40
5.0
 40
5.0
 40
5.0
 40
6.0
 40
6.0
 40
6.0
 40
7.0
 40
7.0
 40
7.0
 40
8.0
 40
8.0
 40
8.0
 40
8.0
 10
122.0877945026788
 20
135.4110777222977
 30
0.0
 10
122.0877945026788
 20
135.4110777222977
 30
0.0
 10
135.0877944994291
 20
135.4110777211301
 30
0.0
 10
135.0877944994291
 20
135.4110777211301
 30
0.0
 10
135.3639368742752
 20
135.4110777211054
 30
0.0
 10
135.5877944992844
 20
135.1872200960568
 30
0.0
 10
135.5877944992593
 20
134.9110777212103
 30
0.0
 10
135.5877944992593
 20
134.9110777212103
 30
0.0
 10
135.5877944980921
 20
121.91107772446
 30
0.0
 10
135.5877944980921
 20
121.91107772446
 30
0.0
 10
135.5877944980671
 20
121.6349353496135
 30
0.0
 10
135.3639368730185
 20
121.4110777246047
 30
0.0
 10
135.087794498172
 20
121.4110777246297
 30
0.0
 10
135.087794498172
 20
121.4110777246297
 30
0.0
 10
122.0877945014217
 20
121.411077725797
 30
0.0
 10
122.0877945014217
 20
121.411077725797
 30
0.0
 10
121.8116521265759
 20
121.411077725822
 30
0.0
 10
121.587794501567
 20
121.6349353508706
 30
0.0
 10
121.5877945015921
 20
121.9110777257171
 30
0.0
 10
121.5877945015921
 20
121.9110777257171
 30
0.0
 10
121.587794502759
 20
134.9110777224673
 30
0.0
 10
121.587794502759
 20
134.9110777224673
 30
0.0
 10
121.587794502784
 20
135.1872200973138
 30
0.0
 10
121.8116521278326
 20
135.4110777223227
 30
0.0
 10
122.0877945026788
 20
135.4110777222977
 30
0.0
  0
SPLINE
  5
8A
330
70
100
AcDbEntity
  8
0
 62
    18
420
        0
370
    25
100
AcDbSpline
210
0.0
220
0.0
230
1.0
 70
     9
 71
     3
 72
    29
 73
    25
 74
     0
 42
0.0000000001
 43
0.0000000001
 40
0.0
 40
0.0
 40
0.0
 40
0.0
 40
1.0
 40
1.0
 40
1.0
 40
2.0
 40
2.0
 40
2.0
 40
3.0
 40
3.0
 40
3.0
 40
4.0
 40
4.0
 40
4.0
 40
5.0
 40
5.0
 40
5.0
 40
6.0
 40
6.0
 40
6.0
 40
7.0
 40
7.0
 40
7.0
 40
8.0
 40
8.0
 40
8.0
 40
8.0
 10
103.0379999748689
 20
135.4110777240084
 30
0.0
 10
103.0379999748689
 20
135.4110777240084
 30
0.0
 10
116.0379999716191
 20
135.4110777228411
 30
0.0
 10
116.0379999716191
 20
135.4110777228411
 30
0.0
 10
116.314142346465
 20
135.4110777228161
 30
0.0
 10
116.5379999714745
 20
135.1872200977675
 30
0.0
 10
116.5379999714488
 20
134.9110777229211
 30
0.0
 10
116.5379999714488
 20
134.9110777229211
 30
0.0
 10
116.5379999702822
 20
121.9110777261708
 30
0.0
 10
116.5379999702822
 20
121.9110777261708
 30
0.0
 10
116.5379999702572
 20
121.6349353513243
 30
0.0
 10
116.3141423452086
 20
121.4110777263155
 30
0.0
 10
116.0379999703621
 20
121.4110777263405
 30
0.0
 10
116.0379999703621
 20
121.4110777263405
 30
0.0
 10
103.0379999736112
 20
121.4110777275077
 30
0.0
 10
103.0379999736112
 20
121.4110777275077
 30
0.0
 10
102.7618575987653
 20
121.4110777275321
 30
0.0
 10
102.5379999737565
 20
121.6349353525814
 30
0.0
 10
102.5379999737822
 20
121.9110777274279
 30
0.0
 10
102.5379999737822
 20
121.9110777274279
 30
0.0
 10
102.5379999749494
 20
134.9110777241781
 30
0.0
 10
102.5379999749494
 20
134.9110777241781
 30
0.0
 10
102.5379999749738
 20
135.1872200990243
 30
0.0
 10
102.7618576000224
 20
135.4110777240325
 30
0.0
 10
103.0379999748689
 20
135.4110777240084
 30
0.0
  0
SPLINE
  5
8B
330
70
100
AcDbEntity
  8
0
 62
    18
420
        0
370
    25
100
AcDbSpline
210
0.0
220
0.0
230
1.0
 70
     9
 71
     3
 72
    29
 73
    25
 74
     0
 42
0.0000000001
 43
0.0000000001
 40
0.0
 40
0.0
 40
0.0
 40
0.0
 40
1.0
 40
1.0
 40
1.0
 40
2.0
 40
2.0
 40
2.0
 40
3.0
 40
3.0
 40
3.0
 40
4.0
 40
4.0
 40
4.0
 40
5.0
 40
5.0
 40
5.0
 40
6.0
 40
6.0
 40
6.0
 40
7.0
 40
7.0
 40
7.0
 40
8.0
 40
8.0
 40
8.0
 40
8.0
 10
118.4189999703952
 20
102.3610777314729
 30
0.0
 10
118.4189999703952
 20
102.3610777314729
 30
0.0
 10
103.0379999742407
 20
102.3610777314729
 30
0.0
 10
103.0379999742407
 20
102.3610777314729
 30
0.0
 10
102.7618575993942
 20
102.3610777314729
 30
0.0
 10
102.5379999743655
 20
102.5849353565017
 30
0.0
 10
102.5379999743655
 20
102.8610777313478
 30
0.0
 10
102.5379999743655
 20
102.8610777313478
 30
0.0
 10
102.5379999743655
 20
115.8610777280981
 30
0.0
 10
102.5379999743655
 20
115.8610777280981
 30
0.0
 10
102.5379999743655
 20
116.1372201029443
 30
0.0
 10
102.7618575993942
 20
116.361077727973
 30
0.0
 10
103.0379999742407
 20
116.361077727973
 30
0.0
 10
103.0379999742407
 20
116.361077727973
 30
0.0
 10
118.4189999703952
 20
116.361077727973
 30
0.0
 10
118.4189999703952
 20
116.361077727973
 30
0.0
 10
118.6951423452417
 20
116.361077727973
 30
0.0
 10
118.9189999702704
 20
116.1372201029443
 30
0.0
 10
118.9189999702704
 20
115.8610777280978
 30
0.0
 10
118.9189999702704
 20
115.8610777280978
 30
0.0
 10
118.9189999702704
 20
102.8610777313478
 30
0.0
 10
118.9189999702704
 20
102.8610777313478
 30
0.0
 10
118.9189999702704
 20
102.5849353565017
 30
0.0
 10
118.6951423452417
 20
102.3610777314729
 30
0.0
 10
118.4189999703952
 20
102.3610777314729
 30
0.0
  0
SPLINE
  5
8C
330
70
100
AcDbEntity
  8
0
 62
    18
420
        0
370
    25
100
AcDbSpline
210
0.0
220
0.0
230
1.0
 70
     9
 71
     3
 72
    29
 73
    25
 74
     0
 42
0.0000000001
 43
0.0000000001
 40
0.0
 40
0.0
 40
0.0
 40
0.0
 40
1.0
 40
1.0
 40
1.0
 40
2.0
 40
2.0
 40
2.0
 40
3.0
 40
3.0
 40
3.0
 40
4.0
 40
4.0
 40
4.0
 40
5.0
 40
5.0
 40
5.0
 40
6.0
 40
6.0
 40
6.0
 40
7.0
 40
7.0
 40
7.0
 40
8.0
 40
8.0
 40
8.0
 40
8.0
 10
196.9758749311402
 20
102.3610777312589
 30
0.0
 10
196.9758749311402
 20
102.3610777312589
 30
0.0
 10
122.0628749498685
 20
102.3610777312589
 30
0.0
 10
122.0628749498685
 20
102.3610777312589
 30
0.0
 10
121.7867325750223
 20
102.3610777312589
 30
0.0
 10
121.5628749499936
 20
102.5849353562876
 30
0.0
 10
121.5628749499936
 20
102.8610777311338
 30
0.0
 10
121.5628749499936
 20
102.8610777311338
 30
0.0
 10
121.5628749499936
 20
115.8610777278841
 30
0.0
 10
121.5628749499936
 20
115.8610777278841
 30
0.0
 10
121.5628749499936
 20
116.1372201027302
 30
0.0
 10
121.7867325750223
 20
116.361077727759
 30
0.0
 10
122.0628749498685
 20
116.361077727759
 30
0.0
 10
122.0628749498685
 20
116.361077727759
 30
0.0
 10
196.9758749311402
 20
116.361077727759
 30
0.0
 10
196.9758749311402
 20
116.361077727759
 30
0.0
 10
197.2520173059867
 20
116.361077727759
 30
0.0
 10
197.4758749310154
 20
116.1372201027302
 30
0.0
 10
197.4758749310154
 20
115.8610777278841
 30
0.0
 10
197.4758749310154
 20
115.8610777278841
 30
0.0
 10
197.4758749310154
 20
102.8610777311338
 30
0.0
 10
197.4758749310154
 20
102.8610777311338
 30
0.0
 10
197.4758749310154
 20
102.5849353562876
 30
0.0
 10
197.2520173059867
 20
102.3610777312589
 30
0.0
 10
196.9758749311402
 20
102.3610777312589
 30
0.0
  0
LWPOLYLINE
  5
8D
330
70
100
AcDbEntity
  8
0
 62
    18
420
        0
370
    25
100
AcDbPolyline
 90
        1
 70
     0
 43
0.0
 10
280.6313486067701
 20
121.411077720082
  0
SPLINE
  5
8E
330
70
100
AcDbEntity
  8
0
 62
    18
420
        0
370
    25
100
AcDbSpline
210
0.0
220
0.0
230
1.0
 70
     9
 71
     3
 72
    29
 73
    25
 74
     0
 42
0.0000000001
 43
0.0000000001
 40
0.0
 40
0.0
 40
0.0
 40
0.0
 40
1.0
 40
1.0
 40
1.0
 40
2.0
 40
2.0
 40
2.0
 40
3.0
 40
3.0
 40
3.0
 40
4.0
 40
4.0
 40
4.0
 40
5.0
 40
5.0
 40
5.0
 40
6.0
 40
6.0
 40
6.0
 40
7.0
 40
7.0
 40
7.0
 40
8.0
 40
8.0
 40
8.0
 40
8.0
 10
277.9619999305093
 20
102.3609999744209
 30
0.0
 10
277.9619999305093
 20
102.3609999744209
 30
0.0
 10
203.0499999492367
 20
102.3609999744209
 30
0.0
 10
203.0499999492367
 20
102.3609999744209
 30
0.0
 10
202.7738575743909
 20
102.3609999744209
 30
0.0
 10
202.5499999493622
 20
102.5848575994496
 30
0.0
 10
202.5499999493622
 20
102.8609999742958
 30
0.0
 10
202.5499999493622
 20
102.8609999742958
 30
0.0
 10
202.5499999493622
 20
115.860999971046
 30
0.0
 10
202.5499999493622
 20
115.860999971046
 30
0.0
 10
202.5499999493622
 20
116.1371423458922
 30
0.0
 10
202.7738575743909
 20
116.3609999709209
 30
0.0
 10
203.0499999492367
 20
116.3609999709209
 30
0.0
 10
203.0499999492367
 20
116.3609999709209
 30
0.0
 10
277.9619999305093
 20
116.3609999709209
 30
0.0
 10
277.9619999305093
 20
116.3609999709209
 30
0.0
 10
278.2381423053552
 20
116.3609999709209
 30
0.0
 10
278.4619999303839
 20
116.1371423458922
 30
0.0
 10
278.4619999303839
 20
115.860999971046
 30
0.0
 10
278.4619999303839
 20
115.860999971046
 30
0.0
 10
278.4619999303839
 20
102.8609999742958
 30
0.0
 10
278.4619999303839
 20
102.8609999742958
 30
0.0
 10
278.4619999303839
 20
102.5848575994496
 30
0.0
 10
278.2381423053552
 20
102.3609999744209
 30
0.0
 10
277.9619999305093
 20
102.3609999744209
 30
0.0
  0
SPLINE
  5
8F
330
70
100
AcDbEntity
  8
0
 62
    18
420
        0
370
    25
100
AcDbSpline
210
0.0
220
0.0
230
1.0
 70
     9
 71
     3
 72
    29
 73
    25
 74
     0
 42
0.0000000001
 43
0.0000000001
 40
0.0
 40
0.0
 40
0.0
 40
0.0
 40
1.0
 40
1.0
 40
1.0
 40
2.0
 40
2.0
 40
2.0
 40
3.0
 40
3.0
 40
3.0
 40
4.0
 40
4.0
 40
4.0
 40
5.0
 40
5.0
 40
5.0
 40
6.0
 40
6.0
 40
6.0
 40
7.0
 40
7.0
 40
7.0
 40
8.0
 40
8.0
 40
8.0
 40
8.0
 10
297.0119999257468
 20
83.31099997918377
 30
0.0
 10
297.0119999257468
 20
83.31099997918377
 30
0.0
 10
103.0379999742404
 20
83.31099997918377
 30
0.0
 10
103.0379999742404
 20
83.31099997918377
 30
0.0
 10
102.7618575993942
 20
83.31099997918377
 30
0.0
 10
102.5379999743655
 20
83.53485760421246
 30
0.0
 10
102.5379999743655
 20
83.81099997905833
 30
0.0
 10
102.5379999743655
 20
83.81099997905833
 30
0.0
 10
102.5379999743655
 20
96.81099997580858
 30
0.0
 10
102.5379999743655
 20
96.81099997580858
 30
0.0
 10
102.5379999743655
 20
97.08714235065507
 30
0.0
 10
102.7618575993942
 20
97.31099997568378
 30
0.0
 10
103.0379999742404
 20
97.31099997568378
 30
0.0
 10
103.0379999742404
 20
97.31099997568378
 30
0.0
 10
297.0119999257468
 20
97.31099997568378
 30
0.0
 10
297.0119999257468
 20
97.31099997568378
 30
0.0
 10
297.2881423005926
 20
97.31099997568378
 30
0.0
 10
297.5119999256214
 20
97.08714235065507
 30
0.0
 10
297.5119999256214
 20
96.81099997580858
 30
0.0
 10
297.5119999256214
 20
96.81099997580858
 30
0.0
 10
297.5119999256214
 20
83.81099997905833
 30
0.0
 10
297.5119999256214
 20
83.81099997905833
 30
0.0
 10
297.5119999256214
 20
83.53485760421246
 30
0.0
 10
297.2881423005926
 20
83.31099997918377
 30
0.0
 10
297.0119999257468
 20
83.31099997918377
 30
0.0
  0
SPLINE
  5
90
330
70
100
AcDbEntity
  8
0
 62
    18
420
        0
370
    25
100
AcDbSpline
210
0.0
220
0.0
230
1.0
 70
     8
 71
     3
 72
    83
 73
    79
 74
     0
 42
0.0000000001
 43
0.0000000001
 40
0.0
 40
0.0
 40
0.0
 40
0.0
 40
1.0
 40
1.0
 40
1.0
 40
2.0
 40
2.0
 40
2.0
 40
3.0
 40
3.0
 40
3.0
 40
4.0
 40
4.0
 40
4.0
 40
5.0
 40
5.0
 40
5.0
 40
6.0
 40
6.0
 40
6.0
 40
7.0
 40
7.0
 40
7.0
 40
8.0
 40
8.0
 40
8.0
 40
9.0
 40
9.0
 40
9.0
 40
10.0
 40
10.0
 40
10.0
 40
11.0
 40
11.0
 40
11.0
 40
12.0
 40
12.0
 40
12.0
 40
13.0
 40
13.0
 40
13.0
 40
14.0
 40
14.0
 40
14.0
 40
15.0
 40
15.0
 40
15.0
 40
16.0
 40
16.0
 40
16.0
 40
17.0
 40
17.0
 40
17.0
 40
18.0
 40
18.0
 40
18.0
 40
19.0
 40
19.0
 40
19.0
 40
20.0
 40
20.0
 40
20.0
 40
21.0
 40
21.0
 40
21.0
 40
22.0
 40
22.0
 40
22.0
 40
23.0
 40
23.0
 40
23.0
 40
24.0
 40
24.0
 40
24.0
 40
25.0
 40
25.0
 40
25.0
 40
26.0
 40
26.0
 40
26.0
 40
26.0
 10
280.6313481362635
 20
121.4059301519453
 30
0.0
 10
280.9074905111799
 20
121.4059301519202
 30
0.0
 10
281.1313481362439
 20
121.1820725268158
 30
0.0
 10
281.1313481362189
 20
120.9059301519007
 30
0.0
 10
281.1313481362189
 20
120.9059301519007
 30
0.0
 10
281.1313481353244
 20
110.9429301519005
 30
0.0
 10
281.1313481353244
 20
110.9429301519005
 30
0.0
 10
281.1313481352993
 20
110.6667877769847
 30
0.0
 10
280.9074905101943
 20
110.4429301519201
 30
0.0
 10
280.6313481352792
 20
110.4429301519451
 30
0.0
 10
280.3552057603639
 20
110.4429301519702
 30
0.0
 10
280.1313481352595
 20
110.2190725269055
 30
0.0
 10
280.1313481352345
 20
109.9429301519904
 30
0.0
 10
280.1313481352345
 20
109.9429301519904
 30
0.0
 10
280.1313481346961
 20
103.9429301519901
 30
0.0
 10
280.1313481346961
 20
103.9429301519901
 30
0.0
 10
280.1313481346711
 20
103.666787777075
 30
0.0
 10
280.3552057597351
 20
103.4429301519706
 30
0.0
 10
280.6313481346503
 20
103.4429301519455
 30
0.0
 10
280.9074905095667
 20
103.4429301519205
 30
0.0
 10
281.1313481346314
 20
103.2190725268161
 30
0.0
 10
281.1313481346057
 20
102.9429301519003
 30
0.0
 10
281.1313481346057
 20
102.9429301519003
 30
0.0
 10
281.131348134598
 20
102.8559301519005
 30
0.0
 10
281.131348134598
 20
102.8559301519005
 30
0.0
 10
281.1313481345736
 20
102.5797877769847
 30
0.0
 10
281.3552057596382
 20
102.3559301518803
 30
0.0
 10
281.6313481345534
 20
102.3559301518552
 30
0.0
 10
281.6313481345534
 20
102.3559301518552
 30
0.0
 10
297.0119999257468
 20
102.3609999744209
 30
0.0
 10
297.0119999257468
 20
102.3609999744209
 30
0.0
 10
297.2881423005933
 20
102.3609999744209
 30
0.0
 10
297.511999925622
 20
102.5848575994496
 30
0.0
 10
297.511999925622
 20
102.8609999742961
 30
0.0
 10
297.511999925622
 20
102.8609999742961
 30
0.0
 10
297.511999925622
 20
115.8609999710457
 30
0.0
 10
297.511999925622
 20
115.8609999710457
 30
0.0
 10
297.511999925622
 20
116.1371423458919
 30
0.0
 10
297.2881423005933
 20
116.3609999709206
 30
0.0
 10
297.0119999257468
 20
116.3609999709206
 30
0.0
 10
297.0119999257468
 20
116.3609999709206
 30
0.0
 10
295.631348135279
 20
116.3609999709209
 30
0.0
 10
295.631348135279
 20
116.3609999709209
 30
0.0
 10
295.3552057603639
 20
116.3609999709459
 30
0.0
 10
295.1313481352992
 20
116.5848575960504
 30
0.0
 10
295.1313481353242
 20
116.8609999709662
 30
0.0
 10
295.1313481353242
 20
116.8609999709662
 30
0.0
 10
295.1313481367495
 20
120.9109999697036
 30
0.0
 10
295.1313481367495
 20
120.9109999697036
 30
0.0
 10
295.1313481367751
 20
121.1871423446188
 30
0.0
 10
295.3552057618796
 20
121.4109999696834
 30
0.0
 10
295.6313481367947
 20
121.4109999696584
 30
0.0
 10
295.6313481367947
 20
121.4109999696584
 30
0.0
 10
297.0119999257468
 20
121.411077720082
 30
0.0
 10
297.0119999257468
 20
121.411077720082
 30
0.0
 10
297.2881423005933
 20
121.411077720082
 30
0.0
 10
297.511999925622
 20
121.6349353451107
 30
0.0
 10
297.511999925622
 20
121.9110777199569
 30
0.0
 10
297.511999925622
 20
121.9110777199569
 30
0.0
 10
297.511999925622
 20
134.9110777167072
 30
0.0
 10
297.511999925622
 20
134.9110777167072
 30
0.0
 10
297.511999925622
 20
135.1872200915533
 30
0.0
 10
297.2881423005933
 20
135.411077716582
 30
0.0
 10
297.0119999257468
 20
135.411077716582
 30
0.0
 10
297.0119999257468
 20
135.411077716582
 30
0.0
 10
198.3119999504221
 20
135.411077716582
 30
0.0
 10
198.3119999504221
 20
135.411077716582
 30
0.0
 10
198.0358575755762
 20
135.411077716582
 30
0.0
 10
197.8119999505472
 20
135.1872200915533
 30
0.0
 10
197.8119999505472
 20
134.9110777167072
 30
0.0
 10
197.8119999505472
 20
134.9110777167072
 30
0.0
 10
197.8119999505472
 20
121.9110777199569
 30
0.0
 10
197.8119999505472
 20
121.9110777199569
 30
0.0
 10
197.8119999505472
 20
121.6349353451107
 30
0.0
 10
198.0358575755762
 20
121.411077720082
 30
0.0
 10
198.3119999504221
 20
121.411077720082
 30
0.0
 10
198.3119999504221
 20
121.411077720082
 30
0.0
 10
280.6313486067701
 20
121.411077720082
 30
0.0
 10
280.6313486067701
 20
121.411077720082
 30
0.0
  0
ENDSEC
  0
SECTION
  2
OBJECTS
  0
DICTIONARY
  5
C
330
0
100
AcDbDictionary
281
     1
  3
ACAD_COLOR
350
63
  3
ACAD_DETAILVIEWSTYLE
350
6A
  3
ACAD_GROUP
350
D
  3
ACAD_LAYOUT
350
62
  3
ACAD_MATERIAL
350
10
  3
ACAD_MLEADERSTYLE
350
66
  3
ACAD_MLINESTYLE
350
5F
  3
ACAD_PLOTSETTINGS
350
61
  3
ACAD_PLOTSTYLENAME
350
E
  3
ACAD_SCALELIST
350
42
  3
ACAD_SECTIONVIEWSTYLE
350
68
  3
ACAD_TABLESTYLE
350
64
  3
ACAD_VISUALSTYLE
350
29
  3
ACDB_RECOMPOSE_DATA
350
99
  3
AcDbVariableDictionary
350
91
  0
DICTIONARY
  5
63
102
{ACAD_REACTORS
330
C
102
}
330
C
100
AcDbDictionary
281
     1
  0
DICTIONARY
  5
6A
102
{ACAD_REACTORS
330
C
102
}
330
C
100
AcDbDictionary
281
     1
  3
Imperial24
350
6B
  0
DICTIONARY
  5
D
102
{ACAD_REACTORS
330
C
102
}
330
C
100
AcDbDictionary
281
     1
  0
DICTIONARY
  5
62
102
{ACAD_REACTORS
330
C
102
}
330
C
100
AcDbDictionary
281
     1
  3
Layout1
350
6F
  3
Layout2
350
77
  3
Model
350
73
  0
DICTIONARY
  5
10
102
{ACAD_REACTORS
330
C
102
}
330
C
100
AcDbDictionary
281
     1
  3
ByBlock
350
19
  3
ByLayer
350
11
  3
Global
350
21
  0
DICTIONARY
  5
66
102
{ACAD_REACTORS
330
C
102
}
330
C
100
AcDbDictionary
281
     1
  3
Standard
350
67
  0
DICTIONARY
  5
5F
102
{ACAD_REACTORS
330
C
102
}
330
C
100
AcDbDictionary
281
     1
  3
Standard
350
60
  0
DICTIONARY
  5
61
102
{ACAD_REACTORS
330
C
102
}
330
C
100
AcDbDictionary
281
     1
  0
ACDBDICTIONARYWDFLT
  5
E
102
{ACAD_REACTORS
330
C
102
}
330
C
100
AcDbDictionary
281
     1
  3
Normal
350
F
100
AcDbDictionaryWithDefault
340
F
  0
DICTIONARY
  5
42
102
{ACAD_REACTORS
330
C
102
}
330
C
100
AcDbDictionary
281
     1
  3
A0
350
43
  3
A1
350
44
  3
A2
350
45
  3
A3
350
46
  3
A4
350
47
  3
A5
350
48
  3
A6
350
49
  3
A7
350
4A
  3
A8
350
4B
  3
A9
350
4C
  3
B0
350
4D
  3
B1
350
4E
  3
B2
350
4F
  3
B3
350
50
  3
B4
350
51
  3
B5
350
52
  3
B6
350
53
  0
DICTIONARY
  5
68
102
{ACAD_REACTORS
330
C
102
}
330
C
100
AcDbDictionary
281
     1
  3
Imperial24
350
69
  0
DICTIONARY
  5
64
102
{ACAD_REACTORS
330
C
102
}
330
C
100
AcDbDictionary
281
     1
  3
Standard
350
65
  0
DICTIONARY
  5
29
102
{ACAD_REACTORS
330
C
102
}
330
C
100
AcDbDictionary
281
     1
  3
2dWireframe
350
2F
  3
Basic
350
2E
  3
Brighten
350
35
  3
ColorChange
350
39
  3
Conceptual
350
32
  3
Dim
350
34
  3
EdgeColorOff
350
41
  3
Facepattern
350
38
  3
Flat
350
2A
  3
FlatWithEdges
350
2B
  3
Gouraud
350
2C
  3
GouraudWithEdges
350
2D
  3
Hidden
350
31
  3
JitterOff
350
3F
  3
Linepattern
350
37
  3
OverhangOff
350
40
  3
Realistic
350
33
  3
Shaded
350
3E
  3
Shaded with edges
350
3D
  3
Shades of Gray
350
3A
  3
Sketchy
350
3B
  3
Thicken
350
36
  3
Wireframe
350
30
  3
X-Ray
350
3C
  0
XRECORD
  5
99
102
{ACAD_REACTORS
330
C
102
}
330
C
100
AcDbXrecord
280
     1
 90
        1
330
65
  0
DICTIONARY
  5
91
102
{ACAD_REACTORS
330
C
102
}
330
C
100
AcDbDictionary
281
     1
  3
CANNOSCALE
350
96
  3
CMLEADERSTYLE
350
93
  3
CTABLESTYLE
350
92
  3
CVIEWDETAILSTYLE
350
94
  3
CVIEWSECTIONSTYLE
350
95
  0
ACDBDETAILVIEWSTYLE
  5
6B
102
{ACAD_REACTORS
330
6A
102
}
330
6A
100
AcDbModelDocViewStyle
 70
     0
  3
Imperial24
290
     1
300
Imperial24
 90
        0
100
AcDbDetailViewStyle
 70
     0
 71
     0
 90
        3
 71
     1
340
55
 62
   256
 40
0.24
340
0
 62
   256
 40
0.24
300

 40
0.36
280
     3
 71
     2
340
5D
 90
       25
 62
   256
 71
     3
340
55
 62
   256
 40
0.24
 90
        1
 40
0.75
 90
        1
300
%<\AcVar ViewType \f "%tc1">% %<\AcVar ViewDetailId>%\PSCALE %<\AcVar ViewScale \f "%sn">%
 71
     4
340
5D
 90
       25
 62
   256
340
5D
 90
       25
 62
   256
280
     0
  0
LAYOUT
  5
6F
102
{ACAD_REACTORS
330
62
102
}
330
62
100
AcDbPlotSettings
  1

  2

  4

  6

 40
0.0
 41
0.0
 42
0.0
 43
0.0
 44
0.0
 45
0.0
 46
0.0
 47
0.0
 48
0.0
 49
0.0
140
0.0
141
0.0
142
1.0
143
1.0
 70
   688
 72
     0
 73
     0
 74
     5
  7

 75
    16
147
1.0
 76
     0
 77
     2
 78
   300
148
0.0
149
0.0
100
AcDbLayout
  1
Layout1
 70
     1
 71
     1
 10
0.0
 20
0.0
 11
12.0
 21
9.0
 12
0.0
 22
0.0
 32
0.0
 14
0.0
 24
0.0
 34
0.0
 15
0.0
 25
0.0
 35
0.0
146
0.0
 13
0.0
 23
0.0
 33
0.0
 16
1.0
 26
0.0
 36
0.0
 17
0.0
 27
1.0
 37
0.0
 76
     0
330
6C
  0
LAYOUT
  5
77
102
{ACAD_REACTORS
330
62
102
}
330
62
100
AcDbPlotSettings
  1

  2

  4

  6

 40
0.0
 41
0.0
 42
0.0
 43
0.0
 44
0.0
 45
0.0
 46
0.0
 47
0.0
 48
0.0
 49
0.0
140
0.0
141
0.0
142
1.0
143
1.0
 70
   688
 72
     0
 73
     0
 74
     5
  7

 75
    16
147
1.0
 76
     0
 77
     2
 78
   300
148
0.0
149
0.0
100
AcDbLayout
  1
Layout2
 70
     1
 71
     2
 10
0.0
 20
0.0
 11
12.0
 21
9.0
 12
0.0
 22
0.0
 32
0.0
 14
0.0
 24
0.0
 34
0.0
 15
0.0
 25
0.0
 35
0.0
146
0.0
 13
0.0
 23
0.0
 33
0.0
 16
1.0
 26
0.0
 36
0.0
 17
0.0
 27
1.0
 37
0.0
 76
     0
330
74
  0
LAYOUT
  5
73
102
{ACAD_REACTORS
330
62
102
}
330
62
100
AcDbPlotSettings
  1

  2

  4

  6

 40
0.0
 41
0.0
 42
0.0
 43
0.0
 44
0.0
 45
0.0
 46
0.0
 47
0.0
 48
0.0
 49
0.0
140
0.0
141
0.0
142
1.0
143
1.0
 70
  1712
 72
     0
 73
     0
 74
     0
  7

 75
     0
147
1.0
 76
     0
 77
     2
 78
   300
148
0.0
149
0.0
100
AcDbLayout
  1
Model
 70
     1
 71
     0
 10
0.0
 20
0.0
 11
12.0
 21
9.0
 12
0.0
 22
0.0
 32
0.0
 14
0.0
 24
0.0
 34
0.0
 15
0.0
 25
0.0
 35
0.0
146
0.0
 13
0.0
 23
0.0
 33
0.0
 16
1.0
 26
0.0
 36
0.0
 17
0.0
 27
1.0
 37
0.0
 76
     0
330
70
  0
MATERIAL
  5
19
102
{ACAD_XDICTIONARY
360
1A
102
}
102
{ACAD_REACTORS
330
10
102
}
330
10
100
AcDbMaterial
  1
ByBlock
 72
     0
 43
0.0208333333333333
 43
0.0
 43
0.0
 43
0.0
 43
0.0
 43
0.0208333333333333
 43
0.0
 43
0.0
 43
0.0
 43
0.0
 43
1.0
 43
0.0
 43
0.0
 43
0.0
 43
0.0
 43
1.0
 77
     0
 47
0.0208333333333333
 47
0.0
 47
0.0
 47
0.0
 47
0.0
 47
0.0208333333333333
 47
0.0
 47
0.0
 47
0.0
 47
0.0
 47
1.0
 47
0.0
 47
0.0
 47
0.0
 47
0.0
 47
1.0
171
     0
 49
0.0208333333333333
 49
0.0
 49
0.0
 49
0.0
 49
0.0
 49
0.0208333333333333
 49
0.0
 49
0.0
 49
0.0
 49
0.0
 49
1.0
 49
0.0
 49
0.0
 49
0.0
 49
0.0
 49
1.0
175
     0
142
0.0208333333333333
142
0.0
142
0.0
142
0.0
142
0.0
142
0.0208333333333333
142
0.0
142
0.0
142
0.0
142
0.0
142
1.0
142
0.0
142
0.0
142
0.0
142
0.0
142
1.0
179
     0
144
0.0208333333333333
144
0.0
144
0.0
144
0.0
144
0.0
144
0.0208333333333333
144
0.0
144
0.0
144
0.0
144
0.0
144
1.0
144
0.0
144
0.0
144
0.0
144
0.0
144
1.0
147
0.0208333333333333
147
0.0
147
0.0
147
0.0
147
0.0
147
0.0208333333333333
147
0.0
147
0.0
147
0.0
147
0.0
147
1.0
147
0.0
147
0.0
147
0.0
147
0.0
147
1.0
  0
MATERIAL
  5
11
102
{ACAD_XDICTIONARY
360
12
102
}
102
{ACAD_REACTORS
330
10
102
}
330
10
100
AcDbMaterial
  1
ByLayer
 72
     0
 43
0.0208333333333333
 43
0.0
 43
0.0
 43
0.0
 43
0.0
 43
0.0208333333333333
 43
0.0
 43
0.0
 43
0.0
 43
0.0
 43
1.0
 43
0.0
 43
0.0
 43
0.0
 43
0.0
 43
1.0
 77
     0
 47
0.0208333333333333
 47
0.0
 47
0.0
 47
0.0
 47
0.0
 47
0.0208333333333333
 47
0.0
 47
0.0
 47
0.0
 47
0.0
 47
1.0
 47
0.0
 47
0.0
 47
0.0
 47
0.0
 47
1.0
171
     0
 49
0.0208333333333333
 49
0.0
 49
0.0
 49
0.0
 49
0.0
 49
0.0208333333333333
 49
0.0
 49
0.0
 49
0.0
 49
0.0
 49
1.0
 49
0.0
 49
0.0
 49
0.0
 49
0.0
 49
1.0
175
     0
142
0.0208333333333333
142
0.0
142
0.0
142
0.0
142
0.0
142
0.0208333333333333
142
0.0
142
0.0
142
0.0
142
0.0
142
1.0
142
0.0
142
0.0
142
0.0
142
0.0
142
1.0
179
     0
144
0.0208333333333333
144
0.0
144
0.0
144
0.0
144
0.0
144
0.0208333333333333
144
0.0
144
0.0
144
0.0
144
0.0
144
1.0
144
0.0
144
0.0
144
0.0
144
0.0
144
1.0
147
0.0208333333333333
147
0.0
147
0.0
147
0.0
147
0.0
147
0.0208333333333333
147
0.0
147
0.0
147
0.0
147
0.0
147
1.0
147
0.0
147
0.0
147
0.0
147
0.0
147
1.0
  0
MATERIAL
  5
21
102
{ACAD_XDICTIONARY
360
22
102
}
102
{ACAD_REACTORS
330
10
102
}
330
10
100
AcDbMaterial
  1
Global
 72
     0
 43
0.0208333333333333
 43
0.0
 43
0.0
 43
0.0
 43
0.0
 43
0.0208333333333333
 43
0.0
 43
0.0
 43
0.0
 43
0.0
 43
1.0
 43
0.0
 43
0.0
 43
0.0
 43
0.0
 43
1.0
 77
     0
 47
0.0208333333333333
 47
0.0
 47
0.0
 47
0.0
 47
0.0
 47
0.0208333333333333
 47
0.0
 47
0.0
 47
0.0
 47
0.0
 47
1.0
 47
0.0
 47
0.0
 47
0.0
 47
0.0
 47
1.0
171
     0
 49
0.0208333333333333
 49
0.0
 49
0.0
 49
0.0
 49
0.0
 49
0.0208333333333333
 49
0.0
 49
0.0
 49
0.0
 49
0.0
 49
1.0
 49
0.0
 49
0.0
 49
0.0
 49
0.0
 49
1.0
175
     0
142
0.0208333333333333
142
0.0
142
0.0
142
0.0
142
0.0
142
0.0208333333333333
142
0.0
142
0.0
142
0.0
142
0.0
142
1.0
142
0.0
142
0.0
142
0.0
142
0.0
142
1.0
179
     0
144
0.0208333333333333
144
0.0
144
0.0
144
0.0
144
0.0
144
0.0208333333333333
144
0.0
144
0.0
144
0.0
144
0.0
144
1.0
144
0.0
144
0.0
144
0.0
144
0.0
144
1.0
147
0.0208333333333333
147
0.0
147
0.0
147
0.0
147
0.0
147
0.0208333333333333
147
0.0
147
0.0
147
0.0
147
0.0
147
1.0
147
0.0
147
0.0
147
0.0
147
0.0
147
1.0
  0
MLEADERSTYLE
  5
67
102
{ACAD_REACTORS
330
66
102
}
330
66
100
AcDbMLeaderStyle
179
     2
170
     2
171
     1
172
     0
 90
        2
 40
0.0
 41
0.0
173
     1
 91
-1056964608
340
5B
 92
       -2
290
     1
 42
0.09
291
     1
 43
0.36
  3
Standard
 44
0.18
300

342
55
174
     1
178
     6
175
     1
176
     0
 93
-1056964608
 45
0.18
292
     0
297
     0
 46
0.18
 94
-1056964608
 47
1.0
 49
1.0
140
1.0
293
     1
141
0.0
294
     1
177
     0
142
1.0
295
     1
296
     0
143
0.125
271
     0
272
     9
273
     9
298
     1
  0
MLINESTYLE
  5
60
102
{ACAD_REACTORS
330
5F
102
}
330
5F
100
AcDbMlineStyle
  2
STANDARD
 70
     0
  3

 62
   256
 51
90.0
 52
90.0
 71
     2
 49
0.5
 62
   256
  6
BYLAYER
 49
-0.5
 62
   256
  6
BYLAYER
  0
ACDBPLACEHOLDER
  5
F
102
{ACAD_REACTORS
330
E
102
}
330
E
  0
SCALE
  5
43
102
{ACAD_REACTORS
330
42
102
}
330
42
100
AcDbScale
 70
     0
300
1:1
140
1.0
141
1.0
290
     1
  0
SCALE
  5
44
102
{ACAD_REACTORS
330
42
102
}
330
42
100
AcDbScale
 70
     0
300
1/128" = 1'-0"
140
0.0078125
141
12.0
290
     0
  0
SCALE
  5
45
102
{ACAD_REACTORS
330
42
102
}
330
42
100
AcDbScale
 70
     0
300
1/64" = 1'-0"
140
0.015625
141
12.0
290
     0
  0
SCALE
  5
46
102
{ACAD_REACTORS
330
42
102
}
330
42
100
AcDbScale
 70
     0
300
1/32" = 1'-0"
140
0.03125
141
12.0
290
     0
  0
SCALE
  5
47
102
{ACAD_REACTORS
330
42
102
}
330
42
100
AcDbScale
 70
     0
300
1/16" = 1'-0"
140
0.0625
141
12.0
290
     0
  0
SCALE
  5
48
102
{ACAD_REACTORS
330
42
102
}
330
42
100
AcDbScale
 70
     0
300
3/32" = 1'-0"
140
0.09375
141
12.0
290
     0
  0
SCALE
  5
49
102
{ACAD_REACTORS
330
42
102
}
330
42
100
AcDbScale
 70
     0
300
1/8" = 1'-0"
140
0.125
141
12.0
290
     0
  0
SCALE
  5
4A
102
{ACAD_REACTORS
330
42
102
}
330
42
100
AcDbScale
 70
     0
300
3/16" = 1'-0"
140
0.1875
141
12.0
290
     0
  0
SCALE
  5
4B
102
{ACAD_REACTORS
330
42
102
}
330
42
100
AcDbScale
 70
     0
300
1/4" = 1'-0"
140
0.25
141
12.0
290
     0
  0
SCALE
  5
4C
102
{ACAD_REACTORS
330
42
102
}
330
42
100
AcDbScale
 70
     0
300
3/8" = 1'-0"
140
0.375
141
12.0
290
     0
  0
SCALE
  5
4D
102
{ACAD_REACTORS
330
42
102
}
330
42
100
AcDbScale
 70
     0
300
1/2" = 1'-0"
140
0.5
141
12.0
290
     0
  0
SCALE
  5
4E
102
{ACAD_REACTORS
330
42
102
}
330
42
100
AcDbScale
 70
     0
300
3/4" = 1'-0"
140
0.75
141
12.0
290
     0
  0
SCALE
  5
4F
102
{ACAD_REACTORS
330
42
102
}
330
42
100
AcDbScale
 70
     0
300
1" = 1'-0"
140
1.0
141
12.0
290
     0
  0
SCALE
  5
50
102
{ACAD_REACTORS
330
42
102
}
330
42
100
AcDbScale
 70
     0
300
1-1/2" = 1'-0"
140
1.5
141
12.0
290
     0
  0
SCALE
  5
51
102
{ACAD_REACTORS
330
42
102
}
330
42
100
AcDbScale
 70
     0
300
3" = 1'-0"
140
3.0
141
12.0
290
     0
  0
SCALE
  5
52
102
{ACAD_REACTORS
330
42
102
}
330
42
100
AcDbScale
 70
     0
300
6" = 1'-0"
140
6.0
141
12.0
290
     0
  0
SCALE
  5
53
102
{ACAD_REACTORS
330
42
102
}
330
42
100
AcDbScale
 70
     0
300
1'-0" = 1'-0"
140
12.0
141
12.0
290
     0
  0
ACDBSECTIONVIEWSTYLE
  5
69
102
{ACAD_REACTORS
330
68
102
}
330
68
100
AcDbModelDocViewStyle
 70
     0
  3
Imperial24
290
     1
300
Imperial24
 90
        0
100
AcDbSectionViewStyle
 70
     0
 71
     0
 90
       78
 71
     1
340
55
 62
   256
 40
0.24
340
0
340
0
 62
   256
 40
0.24
300
I, O, Q, S, X, Z
 40
0.48
 90
        3
 40
0.18
 90
        1
 71
     2
340
5D
 90
       25
 62
   256
340
5D
 90
       50
 62
   256
 40
0.24
 40
0.0
 40
0.24
 71
     3
340
55
 62
   256
 40
0.24
 90
        1
 40
0.75
 90
        1
300
%<\AcVar ViewType \f "%tc1">% %<\AcVar ViewSectionStartId>%-%<\AcVar ViewSectionEndId>%\PSCALE %<\AcVar ViewScale \f "%sn">%
 71
     4
 62
   256
 62
   257
300
ANSI31
 40
1.0
 90
        0
290
     0
290
     0
 90
        6
 40
0.0
 40
1.570796326794896
 40
0.2617993877991494
 40
1.308996938995747
 40
-0.2617993877991494
 40
1.832595714594046
  0
TABLESTYLE
  5
65
102
{ACAD_XDICTIONARY
360
97
102
}
102
{ACAD_REACTORS
330
64
102
}
330
64
100
AcDbTableStyle
280
     0
  3
Standard
 70
     0
 71
     0
 40
0.06
 41
0.06
280
     0
281
     0
  7
Standard
140
0.18
170
     2
 62
     0
 63
     7
283
     0
 90
      512
 91
        0
  1

274
    -2
284
     1
 64
     0
275
    -2
285
     1
 65
     0
276
    -2
286
     1
 66
     0
277
    -2
287
     1
 67
     0
278
    -2
288
     1
 68
     0
279
    -2
289
     1
 69
     0
  7
Standard
140
0.25
170
     5
 62
     0
 63
     7
283
     0
 90
      512
 91
        0
  1

274
    -2
284
     1
 64
     0
275
    -2
285
     1
 65
     0
276
    -2
286
     1
 66
     0
277
    -2
287
     1
 67
     0
278
    -2
288
     1
 68
     0
279
    -2
289
     1
 69
     0
  7
Standard
140
0.18
170
     5
 62
     0
 63
     7
283
     0
 90
      512
 91
        0
  1

274
    -2
284
     1
 64
     0
275
    -2
285
     1
 65
     0
276
    -2
286
     1
 66
     0
277
    -2
287
     1
 67
     0
278
    -2
288
     1
 68
     0
279
    -2
289
     1
 69
     0
  0
VISUALSTYLE
  5
2F
102
{ACAD_REACTORS
330
29
102
}
330
29
100
AcDbVisualStyle
  2
2dWireframe
 70
     4
177
     3
291
     0
 70
    58
 90
        0
176
     1
 90
        2
176
     1
 90
        0
176
     1
 90
        0
176
     1
 40
0.6
176
     1
 40
30.0
176
     1
 62
     7
420
 16777215
176
     1
 90
        1
176
     1
 90
        4
176
     1
 62
     7
176
     1
 62
   257
176
     1
 90
        1
176
     1
 90
        1
176
     1
 40
1.0
176
     1
 90
        0
176
     1
 62
   257
176
     1
 40
1.0
176
     1
 90
        1
176
     1
 90
        6
176
     1
 90
        2
176
     1
 62
     7
176
     1
 90
        5
176
     1
 90
        0
176
     1
 90
        0
176
     1
290
     0
176
     1
 90
        1
176
     1
 40
0.0
176
     1
 90
        0
176
     1
290
     1
176
     1
290
     1
176
     1
290
     0
176
     1
290
     0
176
     1
290
     0
176
     1
290
     0
176
     1
290
     0
176
     1
290
     0
176
     1
290
     0
176
     1
 90
       50
176
     1
 40
0.0
176
     1
 40
1.0
176
     1
 90
        0
176
     1
 62
    18
420
        0
176
     1
 90
       50
176
     1
 90
        3
176
     1
 62
     5
420
      255
176
     1
290
     0
176
     1
 90
       50
176
     1
 90
       50
176
     1
 90
       50
176
     1
290
     0
176
     1
 90
       50
176
     1
 62
   256
176
     0
 40
1.0
176
     0
 90
        2
176
     1
  1
strokes_ogs.tif
176
     1
290
     0
176
     1
 40
1.0
176
     1
 40
1.0
176
     1
  0
VISUALSTYLE
  5
2E
102
{ACAD_REACTORS
330
29
102
}
330
29
100
AcDbVisualStyle
  2
Basic
 70
     7
177
     3
291
     1
 70
    58
 90
        1
176
     1
 90
        0
176
     1
 90
        1
176
     1
 90
        0
176
     1
 40
0.6
176
     1
 40
30.0
176
     1
 62
     7
420
 16777215
176
     1
 90
        0
176
     1
 90
        4
176
     1
 62
     7
176
     1
 62
   257
176
     1
 90
        1
176
     1
 90
        1
176
     1
 40
1.0
176
     1
 90
        8
176
     1
 62
     7
176
     1
 40
1.0
176
     1
 90
        1
176
     1
 90
        6
176
     1
 90
        2
176
     1
 62
     7
176
     1
 90
        5
176
     1
 90
        0
176
     1
 90
        0
176
     1
290
     0
176
     1
 90
        1
176
     1
 40
0.0
176
     1
 90
        0
176
     1
290
     0
176
     1
290
     1
176
     1
290
     1
176
     1
290
     0
176
     1
290
     0
176
     1
290
     0
176
     1
290
     0
176
     1
290
     0
176
     1
290
     0
176
     1
 90
       50
176
     1
 40
0.0
176
     1
 40
1.0
176
     1
 90
        0
176
     1
 62
    18
420
        0
176
     1
 90
       50
176
     1
 90
        3
176
     1
 62
     5
420
      255
176
     1
290
     0
176
     1
 90
       50
176
     1
 90
       50
176
     1
 90
       50
176
     1
290
     0
176
     1
 90
       50
176
     1
 62
   256
176
     0
 40
1.0
176
     0
 90
        2
176
     1
  1
strokes_ogs.tif
176
     1
290
     0
176
     1
 40
1.0
176
     1
 40
1.0
176
     1
  0
VISUALSTYLE
  5
35
102
{ACAD_REACTORS
330
29
102
}
330
29
100
AcDbVisualStyle
  2
Brighten
 70
    12
177
     3
291
     1
 70
    58
 90
        2
176
     1
 90
        2
176
     1
 90
        0
176
     1
 90
        0
176
     1
 40
0.6
176
     1
 40
30.0
176
     1
 62
     7
420
 16777215
176
     1
 90
        1
176
     1
 90
        4
176
     1
 62
     7
176
     1
 62
   257
176
     1
 90
        1
176
     1
 90
        1
176
     1
 40
1.0
176
     1
 90
        8
176
     1
 62
     7
176
     1
 40
1.0
176
     1
 90
        1
176
     1
 90
        6
176
     1
 90
        2
176
     1
 62
     7
176
     1
 90
        5
176
     1
 90
        0
176
     1
 90
        0
176
     1
290
     0
176
     1
 90
        1
176
     1
 40
50.0
176
     1
 90
        0
176
     1
290
     0
176
     1
290
     1
176
     1
290
     1
176
     1
290
     0
176
     1
290
     0
176
     1
290
     0
176
     1
290
     0
176
     1
290
     0
176
     1
290
     0
176
     1
 90
       50
176
     1
 40
0.0
176
     1
 40
1.0
176
     1
 90
        0
176
     1
 62
    18
420
        0
176
     1
 90
       50
176
     1
 90
        3
176
     1
 62
     5
420
      255
176
     1
290
     0
176
     1
 90
       50
176
     1
 90
       50
176
     1
 90
       50
176
     1
290
     0
176
     1
 90
       50
176
     1
 62
   256
176
     0
 40
1.0
176
     0
 90
        2
176
     1
  1
strokes_ogs.tif
176
     1
290
     0
176
     1
 40
1.0
176
     1
 40
1.0
176
     1
  0
VISUALSTYLE
  5
39
102
{ACAD_REACTORS
330
29
102
}
330
29
100
AcDbVisualStyle
  2
ColorChange
 70
    16
177
     3
291
     1
 70
    58
 90
        2
176
     1
 90
        2
176
     1
 90
        3
176
     1
 90
        0
176
     1
 40
0.6
176
     1
 40
30.0
176
     1
 62
     8
420
  8421504
176
     1
 90
        1
176
     1
 90
        4
176
     1
 62
     7
176
     1
 62
   257
176
     1
 90
        1
176
     1
 90
        1
176
     1
 40
1.0
176
     1
 90
        8
176
     1
 62
     8
420
  8421504
176
     1
 40
1.0
176
     1
 90
        1
176
     1
 90
        6
176
     1
 90
        2
176
     1
 62
     7
176
     1
 90
        5
176
     1
 90
        0
176
     1
 90
        0
176
     1
290
     0
176
     1
 90
        1
176
     1
 40
0.0
176
     1
 90
        0
176
     1
290
     0
176
     1
290
     1
176
     1
290
     1
176
     1
290
     0
176
     1
290
     0
176
     1
290
     0
176
     1
290
     0
176
     1
290
     0
176
     1
290
     0
176
     1
 90
       50
176
     1
 40
0.0
176
     1
 40
1.0
176
     1
 90
        0
176
     1
 62
    18
420
        0
176
     1
 90
       50
176
     1
 90
        3
176
     1
 62
     5
420
      255
176
     1
290
     0
176
     1
 90
       50
176
     1
 90
       50
176
     1
 90
       50
176
     1
290
     0
176
     1
 90
       50
176
     1
 62
   256
176
     0
 40
1.0
176
     0
 90
        2
176
     1
  1
strokes_ogs.tif
176
     1
290
     0
176
     1
 40
1.0
176
     1
 40
1.0
176
     1
  0
VISUALSTYLE
  5
32
102
{ACAD_REACTORS
330
29
102
}
330
29
100
AcDbVisualStyle
  2
Conceptual
 70
     9
177
     3
291
     0
 70
    58
 90
        3
176
     1
 90
        2
176
     1
 90
        0
176
     1
 90
        0
176
     1
 40
0.6
176
     1
 40
30.0
176
     1
 62
     7
420
 16777215
176
     1
 90
        2
176
     1
 90
        2
176
     1
 62
     7
176
     1
 62
   257
176
     1
 90
        1
176
     1
 90
        1
176
     1
 40
179.0
176
     1
 90
        8
176
     1
 62
     7
176
     1
 40
1.0
176
     1
 90
        1
176
     1
 90
        6
176
     1
 90
        2
176
     1
 62
     7
176
     1
 90
        3
176
     1
 90
        0
176
     1
 90
        0
176
     1
290
     0
176
     1
 90
        1
176
     1
 40
0.0
176
     1
 90
        0
176
     1
290
     0
176
     1
290
     1
176
     1
290
     1
176
     1
290
     0
176
     1
290
     0
176
     1
290
     0
176
     1
290
     0
176
     1
290
     0
176
     1
290
     0
176
     1
 90
       50
176
     1
 40
0.0
176
     1
 40
1.0
176
     1
 90
        0
176
     1
 62
    18
420
        0
176
     1
 90
       50
176
     1
 90
        3
176
     1
 62
     5
420
      255
176
     1
290
     0
176
     1
 90
       50
176
     1
 90
       50
176
     1
 90
       50
176
     1
290
     0
176
     1
 90
       50
176
     1
 62
   256
176
     0
 40
1.0
176
     0
 90
        2
176
     1
  1
strokes_ogs.tif
176
     1
290
     0
176
     1
 40
1.0
176
     1
 40
1.0
176
     1
  0
VISUALSTYLE
  5
34
102
{ACAD_REACTORS
330
29
102
}
330
29
100
AcDbVisualStyle
  2
Dim
 70
    11
177
     3
291
     1
 70
    58
 90
        2
176
     1
 90
        2
176
     1
 90
        0
176
     1
 90
        0
176
     1
 40
0.6
176
     1
 40
30.0
176
     1
 62
     7
420
 16777215
176
     1
 90
        1
176
     1
 90
        4
176
     1
 62
     7
176
     1
 62
   257
176
     1
 90
        1
176
     1
 90
        1
176
     1
 40
1.0
176
     1
 90
        8
176
     1
 62
     7
176
     1
 40
1.0
176
     1
 90
        1
176
     1
 90
        6
176
     1
 90
        2
176
     1
 62
     7
176
     1
 90
        5
176
     1
 90
        0
176
     1
 90
        0
176
     1
290
     0
176
     1
 90
        1
176
     1
 40
-50.0
176
     1
 90
        0
176
     1
290
     0
176
     1
290
     1
176
     1
290
     1
176
     1
290
     0
176
     1
290
     0
176
     1
290
     0
176
     1
290
     0
176
     1
290
     0
176
     1
290
     0
176
     1
 90
       50
176
     1
 40
0.0
176
     1
 40
1.0
176
     1
 90
        0
176
     1
 62
    18
420
        0
176
     1
 90
       50
176
     1
 90
        3
176
     1
 62
     5
420
      255
176
     1
290
     0
176
     1
 90
       50
176
     1
 90
       50
176
     1
 90
       50
176
     1
290
     0
176
     1
 90
       50
176
     1
 62
   256
176
     0
 40
1.0
176
     0
 90
        2
176
     1
  1
strokes_ogs.tif
176
     1
290
     0
176
     1
 40
1.0
176
     1
 40
1.0
176
     1
  0
VISUALSTYLE
  5
41
102
{ACAD_REACTORS
330
29
102
}
330
29
100
AcDbVisualStyle
  2
EdgeColorOff
 70
    22
177
     3
291
     1
 70
    58
 90
        2
176
     0
 90
        2
176
     0
 90
        0
176
     0
 90
        0
176
     0
 40
0.6
176
     0
 40
30.0
176
     0
 62
     7
420
 16777215
176
     0
 90
        1
176
     0
 90
        4
176
     0
 62
     7
176
     0
 62
   257
176
     0
 90
        1
176
     0
 90
        1
176
     0
 40
1.0
176
     0
 90
        8
176
     2
 62
     7
176
     0
 40
1.0
176
     0
 90
        1
176
     0
 90
        6
176
     0
 90
        2
176
     0
 62
     7
176
     0
 90
        5
176
     0
 90
        0
176
     0
 90
        0
176
     0
290
     0
176
     0
 90
        1
176
     0
 40
0.0
176
     0
 90
        0
176
     0
290
     0
176
     0
290
     1
176
     0
290
     1
176
     0
290
     0
176
     0
290
     0
176
     0
290
     0
176
     0
290
     0
176
     0
290
     0
176
     0
290
     0
176
     0
 90
       50
176
     0
 40
0.0
176
     0
 40
1.0
176
     0
 90
        0
176
     0
 62
    18
420
        0
176
     0
 90
       50
176
     0
 90
        3
176
     0
 62
     5
420
      255
176
     0
290
     0
176
     0
 90
       50
176
     0
 90
       50
176
     0
 90
       50
176
     0
290
     0
176
     0
 90
       50
176
     0
 62
   256
176
     0
 40
1.0
176
     0
 90
        2
176
     0
  1
strokes_ogs.tif
176
     0
290
     0
176
     0
 40
1.0
176
     0
 40
1.0
176
     0
  0
VISUALSTYLE
  5
38
102
{ACAD_REACTORS
330
29
102
}
330
29
100
AcDbVisualStyle
  2
Facepattern
 70
    15
177
     3
291
     1
 70
    58
 90
        2
176
     1
 90
        2
176
     1
 90
        0
176
     1
 90
        0
176
     1
 40
0.6
176
     1
 40
30.0
176
     1
 62
     7
420
 16777215
176
     1
 90
        1
176
     1
 90
        4
176
     1
 62
     7
176
     1
 62
   257
176
     1
 90
        1
176
     1
 90
        1
176
     1
 40
1.0
176
     1
 90
        8
176
     1
 62
     7
176
     1
 40
1.0
176
     1
 90
        1
176
     1
 90
        6
176
     1
 90
        2
176
     1
 62
     7
176
     1
 90
        5
176
     1
 90
        0
176
     1
 90
        0
176
     1
290
     0
176
     1
 90
        1
176
     1
 40
0.0
176
     1
 90
        0
176
     1
290
     0
176
     1
290
     1
176
     1
290
     1
176
     1
290
     0
176
     1
290
     0
176
     1
290
     0
176
     1
290
     0
176
     1
290
     0
176
     1
290
     0
176
     1
 90
       50
176
     1
 40
0.0
176
     1
 40
1.0
176
     1
 90
        0
176
     1
 62
    18
420
        0
176
     1
 90
       50
176
     1
 90
        3
176
     1
 62
     5
420
      255
176
     1
290
     0
176
     1
 90
       50
176
     1
 90
       50
176
     1
 90
       50
176
     1
290
     0
176
     1
 90
       50
176
     1
 62
   256
176
     0
 40
1.0
176
     0
 90
        2
176
     1
  1
strokes_ogs.tif
176
     1
290
     0
176
     1
 40
1.0
176
     1
 40
1.0
176
     1
  0
VISUALSTYLE
  5
2A
102
{ACAD_REACTORS
330
29
102
}
330
29
100
AcDbVisualStyle
  2
Flat
 70
     0
177
     3
291
     1
 70
    58
 90
        2
176
     1
 90
        1
176
     1
 90
        1
176
     1
 90
        2
176
     1
 40
0.6
176
     1
 40
30.0
176
     1
 62
     7
420
 16777215
176
     1
 90
        0
176
     1
 90
        0
176
     1
 62
     7
176
     1
 62
   257
176
     1
 90
        1
176
     1
 90
        1
176
     1
 40
1.0
176
     1
 90
        8
176
     1
 62
     7
176
     1
 40
1.0
176
     1
 90
        1
176
     1
 90
        6
176
     1
 90
        2
176
     1
 62
     7
176
     1
 90
        5
176
     1
 90
        0
176
     1
 90
        0
176
     1
290
     0
176
     1
 90
       13
176
     1
 40
0.0
176
     1
 90
        0
176
     1
290
     0
176
     1
290
     1
176
     1
290
     1
176
     1
290
     0
176
     1
290
     0
176
     1
290
     0
176
     1
290
     0
176
     1
290
     0
176
     1
290
     0
176
     1
 90
       50
176
     1
 40
0.0
176
     1
 40
1.0
176
     1
 90
        0
176
     1
 62
    18
420
        0
176
     1
 90
       50
176
     1
 90
        3
176
     1
 62
     5
420
      255
176
     1
290
     0
176
     1
 90
       50
176
     1
 90
       50
176
     1
 90
       50
176
     1
290
     0
176
     1
 90
       50
176
     1
 62
   256
176
     0
 40
1.0
176
     0
 90
        2
176
     1
  1
strokes_ogs.tif
176
     1
290
     0
176
     1
 40
1.0
176
     1
 40
1.0
176
     1
  0
VISUALSTYLE
  5
2B
102
{ACAD_REACTORS
330
29
102
}
330
29
100
AcDbVisualStyle
  2
FlatWithEdges
 70
     1
177
     3
291
     1
 70
    58
 90
        2
176
     1
 90
        1
176
     1
 90
        1
176
     1
 90
        2
176
     1
 40
0.6
176
     1
 40
30.0
176
     1
 62
     7
420
 16777215
176
     1
 90
        1
176
     1
 90
        0
176
     1
 62
     7
176
     1
 62
   257
176
     1
 90
        1
176
     1
 90
        1
176
     1
 40
1.0
176
     1
 90
        0
176
     1
 62
   257
176
     1
 40
1.0
176
     1
 90
        1
176
     1
 90
        6
176
     1
 90
        2
176
     1
 62
     7
176
     1
 90
        5
176
     1
 90
        0
176
     1
 90
        0
176
     1
290
     0
176
     1
 90
       13
176
     1
 40
0.0
176
     1
 90
        0
176
     1
290
     0
176
     1
290
     1
176
     1
290
     1
176
     1
290
     0
176
     1
290
     0
176
     1
290
     0
176
     1
290
     0
176
     1
290
     0
176
     1
290
     0
176
     1
 90
       50
176
     1
 40
0.0
176
     1
 40
1.0
176
     1
 90
        0
176
     1
 62
    18
420
        0
176
     1
 90
       50
176
     1
 90
        3
176
     1
 62
     5
420
      255
176
     1
290
     0
176
     1
 90
       50
176
     1
 90
       50
176
     1
 90
       50
176
     1
290
     0
176
     1
 90
       50
176
     1
 62
   256
176
     0
 40
1.0
176
     0
 90
        2
176
     1
  1
strokes_ogs.tif
176
     1
290
     0
176
     1
 40
1.0
176
     1
 40
1.0
176
     1
  0
VISUALSTYLE
  5
2C
102
{ACAD_REACTORS
330
29
102
}
330
29
100
AcDbVisualStyle
  2
Gouraud
 70
     2
177
     3
291
     1
 70
    58
 90
        2
176
     1
 90
        2
176
     1
 90
        1
176
     1
 90
        2
176
     1
 40
0.6
176
     1
 40
30.0
176
     1
 62
     7
420
 16777215
176
     1
 90
        0
176
     1
 90
        0
176
     1
 62
     7
176
     1
 62
   257
176
     1
 90
        1
176
     1
 90
        1
176
     1
 40
1.0
176
     1
 90
        0
176
     1
 62
     7
176
     1
 40
1.0
176
     1
 90
        1
176
     1
 90
        6
176
     1
 90
        2
176
     1
 62
     7
176
     1
 90
        5
176
     1
 90
        0
176
     1
 90
        0
176
     1
290
     0
176
     1
 90
       13
176
     1
 40
0.0
176
     1
 90
        0
176
     1
290
     0
176
     1
290
     1
176
     1
290
     1
176
     1
290
     0
176
     1
290
     0
176
     1
290
     0
176
     1
290
     0
176
     1
290
     0
176
     1
290
     0
176
     1
 90
       50
176
     1
 40
0.0
176
     1
 40
1.0
176
     1
 90
        0
176
     1
 62
    18
420
        0
176
     1
 90
       50
176
     1
 90
        3
176
     1
 62
     5
420
      255
176
     1
290
     0
176
     1
 90
       50
176
     1
 90
       50
176
     1
 90
       50
176
     1
290
     0
176
     1
 90
       50
176
     1
 62
   256
176
     0
 40
1.0
176
     0
 90
        2
176
     1
  1
strokes_ogs.tif
176
     1
290
     0
176
     1
 40
1.0
176
     1
 40
1.0
176
     1
  0
VISUALSTYLE
  5
2D
102
{ACAD_REACTORS
330
29
102
}
330
29
100
AcDbVisualStyle
  2
GouraudWithEdges
 70
     3
177
     3
291
     1
 70
    58
 90
        2
176
     1
 90
        2
176
     1
 90
        1
176
     1
 90
        2
176
     1
 40
0.6
176
     1
 40
30.0
176
     1
 62
     7
420
 16777215
176
     1
 90
        1
176
     1
 90
        0
176
     1
 62
     7
176
     1
 62
   257
176
     1
 90
        1
176
     1
 90
        1
176
     1
 40
1.0
176
     1
 90
        0
176
     1
 62
   257
176
     1
 40
1.0
176
     1
 90
        1
176
     1
 90
        6
176
     1
 90
        2
176
     1
 62
     7
176
     1
 90
        5
176
     1
 90
        0
176
     1
 90
        0
176
     1
290
     0
176
     1
 90
       13
176
     1
 40
0.0
176
     1
 90
        0
176
     1
290
     0
176
     1
290
     1
176
     1
290
     1
176
     1
290
     0
176
     1
290
     0
176
     1
290
     0
176
     1
290
     0
176
     1
290
     0
176
     1
290
     0
176
     1
 90
       50
176
     1
 40
0.0
176
     1
 40
1.0
176
     1
 90
        0
176
     1
 62
    18
420
        0
176
     1
 90
       50
176
     1
 90
        3
176
     1
 62
     5
420
      255
176
     1
290
     0
176
     1
 90
       50
176
     1
 90
       50
176
     1
 90
       50
176
     1
290
     0
176
     1
 90
       50
176
     1
 62
   256
176
     0
 40
1.0
176
     0
 90
        2
176
     1
  1
strokes_ogs.tif
176
     1
290
     0
176
     1
 40
1.0
176
     1
 40
1.0
176
     1
  0
VISUALSTYLE
  5
31
102
{ACAD_REACTORS
330
29
102
}
330
29
100
AcDbVisualStyle
  2
Hidden
 70
     6
177
     3
291
     0
 70
    58
 90
        1
176
     1
 90
        2
176
     1
 90
        2
176
     1
 90
        0
176
     1
 40
0.6
176
     1
 40
30.0
176
     1
 62
     7
420
 16777215
176
     1
 90
        2
176
     1
 90
        2
176
     1
 62
     7
176
     1
 62
   257
176
     1
 90
        2
176
     1
 90
        1
176
     1
 40
40.0
176
     1
 90
        0
176
     1
 62
   257
176
     1
 40
1.0
176
     1
 90
        1
176
     1
 90
        6
176
     1
 90
        2
176
     1
 62
     7
176
     1
 90
        3
176
     1
 90
        0
176
     1
 90
        0
176
     1
290
     0
176
     1
 90
        1
176
     1
 40
0.0
176
     1
 90
        0
176
     1
290
     0
176
     1
290
     1
176
     1
290
     1
176
     1
290
     0
176
     1
290
     0
176
     1
290
     0
176
     1
290
     0
176
     1
290
     0
176
     1
290
     0
176
     1
 90
       50
176
     1
 40
0.0
176
     1
 40
1.0
176
     1
 90
        0
176
     1
 62
    18
420
        0
176
     1
 90
       50
176
     1
 90
        3
176
     1
 62
     5
420
      255
176
     1
290
     0
176
     1
 90
       50
176
     1
 90
       50
176
     1
 90
       50
176
     1
290
     0
176
     1
 90
       50
176
     1
 62
   256
176
     0
 40
1.0
176
     0
 90
        2
176
     1
  1
strokes_ogs.tif
176
     1
290
     0
176
     1
 40
1.0
176
     1
 40
1.0
176
     1
  0
VISUALSTYLE
  5
3F
102
{ACAD_REACTORS
330
29
102
}
330
29
100
AcDbVisualStyle
  2
JitterOff
 70
    20
177
     3
291
     1
 70
    58
 90
        2
176
     0
 90
        2
176
     0
 90
        0
176
     0
 90
        0
176
     0
 40
0.6
176
     0
 40
30.0
176
     0
 62
     7
420
 16777215
176
     0
 90
        1
176
     0
 90
        4
176
     0
 62
     7
176
     0
 62
   257
176
     0
 90
        1
176
     0
 90
        1
176
     0
 40
1.0
176
     0
 90
       10
176
     2
 62
     7
176
     0
 40
1.0
176
     0
 90
        1
176
     0
 90
        6
176
     0
 90
        2
176
     0
 62
     7
176
     0
 90
        5
176
     0
 90
        0
176
     0
 90
        0
176
     0
290
     0
176
     0
 90
        1
176
     0
 40
0.0
176
     0
 90
        0
176
     0
290
     0
176
     0
290
     1
176
     0
290
     1
176
     0
290
     0
176
     0
290
     0
176
     0
290
     0
176
     0
290
     0
176
     0
290
     0
176
     0
290
     0
176
     0
 90
       50
176
     0
 40
0.0
176
     0
 40
1.0
176
     0
 90
        0
176
     0
 62
    18
420
        0
176
     0
 90
       50
176
     0
 90
        3
176
     0
 62
     5
420
      255
176
     0
290
     0
176
     0
 90
       50
176
     0
 90
       50
176
     0
 90
       50
176
     0
290
     0
176
     0
 90
       50
176
     0
 62
   256
176
     0
 40
1.0
176
     0
 90
        2
176
     0
  1
strokes_ogs.tif
176
     0
290
     0
176
     0
 40
1.0
176
     0
 40
1.0
176
     0
  0
VISUALSTYLE
  5
37
102
{ACAD_REACTORS
330
29
102
}
330
29
100
AcDbVisualStyle
  2
Linepattern
 70
    14
177
     3
291
     1
 70
    58
 90
        2
176
     1
 90
        2
176
     1
 90
        0
176
     1
 90
        0
176
     1
 40
0.6
176
     1
 40
30.0
176
     1
 62
     7
420
 16777215
176
     1
 90
        1
176
     1
 90
        4
176
     1
 62
     7
176
     1
 62
   257
176
     1
 90
        7
176
     1
 90
        7
176
     1
 40
1.0
176
     1
 90
        8
176
     1
 62
     7
176
     1
 40
1.0
176
     1
 90
        1
176
     1
 90
        6
176
     1
 90
        2
176
     1
 62
     7
176
     1
 90
        5
176
     1
 90
        0
176
     1
 90
        0
176
     1
290
     0
176
     1
 90
        1
176
     1
 40
0.0
176
     1
 90
        0
176
     1
290
     0
176
     1
290
     1
176
     1
290
     1
176
     1
290
     0
176
     1
290
     0
176
     1
290
     0
176
     1
290
     0
176
     1
290
     0
176
     1
290
     0
176
     1
 90
       50
176
     1
 40
0.0
176
     1
 40
1.0
176
     1
 90
        0
176
     1
 62
    18
420
        0
176
     1
 90
       50
176
     1
 90
        3
176
     1
 62
     5
420
      255
176
     1
290
     0
176
     1
 90
       50
176
     1
 90
       50
176
     1
 90
       50
176
     1
290
     0
176
     1
 90
       50
176
     1
 62
   256
176
     0
 40
1.0
176
     0
 90
        2
176
     1
  1
strokes_ogs.tif
176
     1
290
     0
176
     1
 40
1.0
176
     1
 40
1.0
176
     1
  0
VISUALSTYLE
  5
40
102
{ACAD_REACTORS
330
29
102
}
330
29
100
AcDbVisualStyle
  2
OverhangOff
 70
    21
177
     3
291
     1
 70
    58
 90
        2
176
     0
 90
        2
176
     0
 90
        0
176
     0
 90
        0
176
     0
 40
0.6
176
     0
 40
30.0
176
     0
 62
     7
420
 16777215
176
     0
 90
        1
176
     0
 90
        4
176
     0
 62
     7
176
     0
 62
   257
176
     0
 90
        1
176
     0
 90
        1
176
     0
 40
1.0
176
     0
 90
        9
176
     2
 62
     7
176
     0
 40
1.0
176
     0
 90
        1
176
     0
 90
        6
176
     0
 90
        2
176
     0
 62
     7
176
     0
 90
        5
176
     0
 90
        0
176
     0
 90
        0
176
     0
290
     0
176
     0
 90
        1
176
     0
 40
0.0
176
     0
 90
        0
176
     0
290
     0
176
     0
290
     1
176
     0
290
     1
176
     0
290
     0
176
     0
290
     0
176
     0
290
     0
176
     0
290
     0
176
     0
290
     0
176
     0
290
     0
176
     0
 90
       50
176
     0
 40
0.0
176
     0
 40
1.0
176
     0
 90
        0
176
     0
 62
    18
420
        0
176
     0
 90
       50
176
     0
 90
        3
176
     0
 62
     5
420
      255
176
     0
290
     0
176
     0
 90
       50
176
     0
 90
       50
176
     0
 90
       50
176
     0
290
     0
176
     0
 90
       50
176
     0
 62
   256
176
     0
 40
1.0
176
     0
 90
        2
176
     0
  1
strokes_ogs.tif
176
     0
290
     0
176
     0
 40
1.0
176
     0
 40
1.0
176
     0
  0
VISUALSTYLE
  5
33
102
{ACAD_REACTORS
330
29
102
}
330
29
100
AcDbVisualStyle
  2
Realistic
 70
     8
177
     3
291
     0
 70
    58
 90
        2
176
     1
 90
        3
176
     1
 90
        0
176
     1
 90
        2
176
     1
 40
0.6
176
     1
 40
30.0
176
     1
 62
     7
420
 16777215
176
     1
 90
        0
176
     1
 90
        0
176
     1
 62
     7
176
     1
 62
   257
176
     1
 90
        1
176
     1
 90
        1
176
     1
 40
1.0
176
     1
 90
        8
176
     1
 62
   257
176
     1
 40
1.0
176
     1
 90
        1
176
     1
 90
        6
176
     1
 90
        2
176
     1
 62
     7
176
     1
 90
        3
176
     1
 90
        0
176
     1
 90
        0
176
     1
290
     0
176
     1
 90
       13
176
     1
 40
0.0
176
     1
 90
        0
176
     1
290
     0
176
     1
290
     1
176
     1
290
     1
176
     1
290
     0
176
     1
290
     0
176
     1
290
     0
176
     1
290
     0
176
     1
290
     0
176
     1
290
     0
176
     1
 90
       50
176
     1
 40
0.0
176
     1
 40
1.0
176
     1
 90
        0
176
     1
 62
    18
420
        0
176
     1
 90
       50
176
     1
 90
        3
176
     1
 62
     5
420
      255
176
     1
290
     0
176
     1
 90
       50
176
     1
 90
       50
176
     1
 90
       50
176
     1
290
     0
176
     1
 90
       50
176
     1
 62
   256
176
     0
 40
1.0
176
     0
 90
        2
176
     1
  1
strokes_ogs.tif
176
     1
290
     0
176
     1
 40
1.0
176
     1
 40
1.0
176
     1
  0
VISUALSTYLE
  5
3E
102
{ACAD_REACTORS
330
29
102
}
330
29
100
AcDbVisualStyle
  2
Shaded
 70
    27
177
     3
291
     0
 70
    58
 90
        2
176
     1
 90
        2
176
     1
 90
        1
176
     1
 90
        2
176
     1
 40
0.6
176
     1
 40
30.0
176
     1
 62
     7
420
 16777215
176
     1
 90
        0
176
     1
 90
        4
176
     1
 62
     7
176
     1
 62
   257
176
     1
 90
        1
176
     1
 90
        1
176
     1
 40
1.0
176
     1
 90
        8
176
     1
 62
   257
176
     1
 40
1.0
176
     1
 90
        1
176
     1
 90
        6
176
     1
 90
        2
176
     1
 62
     8
420
  7895160
176
     1
 90
        3
176
     1
 90
        0
176
     1
 90
        0
176
     1
290
     0
176
     1
 90
        5
176
     1
 40
0.0
176
     1
 90
        0
176
     1
290
     0
176
     1
290
     1
176
     1
290
     1
176
     1
290
     0
176
     1
290
     0
176
     1
290
     0
176
     1
290
     0
176
     1
290
     0
176
     1
290
     0
176
     1
 90
       50
176
     1
 40
0.0
176
     1
 40
1.0
176
     1
 90
        0
176
     1
 62
    18
420
        0
176
     1
 90
       50
176
     1
 90
        3
176
     1
 62
     5
420
      255
176
     1
290
     0
176
     1
 90
       50
176
     1
 90
       50
176
     1
 90
       50
176
     1
290
     0
176
     1
 90
       50
176
     1
 62
   256
176
     0
 40
1.0
176
     0
 90
        2
176
     1
  1
strokes_ogs.tif
176
     1
290
     0
176
     1
 40
1.0
176
     1
 40
1.0
176
     1
  0
VISUALSTYLE
  5
3D
102
{ACAD_REACTORS
330
29
102
}
330
29
100
AcDbVisualStyle
  2
Shaded with edges
 70
    26
177
     3
291
     0
 70
    58
 90
        2
176
     1
 90
        2
176
     1
 90
        1
176
     1
 90
        2
176
     1
 40
0.6
176
     1
 40
30.0
176
     1
 62
     7
420
 16777215
176
     1
 90
        1
176
     1
 90
        2
176
     1
 62
     7
176
     1
 62
   257
176
     1
 90
        2
176
     1
 90
        1
176
     1
 40
1.0
176
     1
 90
        8
176
     1
 62
   257
176
     1
 40
1.0
176
     1
 90
        1
176
     1
 90
        6
176
     1
 90
        2
176
     1
 62
     7
176
     1
 90
        3
176
     1
 90
        0
176
     1
 90
        0
176
     1
290
     0
176
     1
 90
        5
176
     1
 40
0.0
176
     1
 90
        0
176
     1
290
     0
176
     1
290
     1
176
     1
290
     1
176
     1
290
     0
176
     1
290
     0
176
     1
290
     0
176
     1
290
     0
176
     1
290
     0
176
     1
290
     0
176
     1
 90
       50
176
     1
 40
0.0
176
     1
 40
1.0
176
     1
 90
        0
176
     1
 62
    18
420
        0
176
     1
 90
       50
176
     1
 90
        3
176
     1
 62
     5
420
      255
176
     1
290
     0
176
     1
 90
       50
176
     1
 90
       50
176
     1
 90
       50
176
     1
290
     0
176
     1
 90
       50
176
     1
 62
   256
176
     0
 40
1.0
176
     0
 90
        2
176
     1
  1
strokes_ogs.tif
176
     1
290
     0
176
     1
 40
1.0
176
     1
 40
1.0
176
     1
  0
VISUALSTYLE
  5
3A
102
{ACAD_REACTORS
330
29
102
}
330
29
100
AcDbVisualStyle
  2
Shades of Gray
 70
    23
177
     3
291
     0
 70
    58
 90
        2
176
     1
 90
        2
176
     1
 90
        3
176
     1
 90
        0
176
     1
 40
0.6
176
     1
 40
30.0
176
     1
 62
     7
420
 16777215
176
     1
 90
        2
176
     1
 90
        2
176
     1
 62
     7
176
     1
 62
     7
176
     1
 90
        1
176
     1
 90
        1
176
     1
 40
40.0
176
     1
 90
        8
176
     1
 62
     7
176
     1
 40
1.0
176
     1
 90
        1
176
     1
 90
        6
176
     1
 90
        2
176
     1
 62
     7
176
     1
 90
        3
176
     1
 90
        0
176
     1
 90
        0
176
     1
290
     0
176
     1
 90
        1
176
     1
 40
0.0
176
     1
 90
        0
176
     1
290
     0
176
     1
290
     1
176
     1
290
     1
176
     1
290
     0
176
     1
290
     0
176
     1
290
     0
176
     1
290
     0
176
     1
290
     0
176
     1
290
     0
176
     1
 90
       50
176
     1
 40
0.0
176
     1
 40
1.0
176
     1
 90
        0
176
     1
 62
    18
420
        0
176
     1
 90
       50
176
     1
 90
        3
176
     1
 62
     5
420
      255
176
     1
290
     0
176
     1
 90
       50
176
     1
 90
       50
176
     1
 90
       50
176
     1
290
     0
176
     1
 90
       50
176
     1
 62
   256
176
     0
 40
1.0
176
     0
 90
        2
176
     1
  1
strokes_ogs.tif
176
     1
290
     0
176
     1
 40
1.0
176
     1
 40
1.0
176
     1
  0
VISUALSTYLE
  5
3B
102
{ACAD_REACTORS
330
29
102
}
330
29
100
AcDbVisualStyle
  2
Sketchy
 70
    24
177
     3
291
     0
 70
    58
 90
        1
176
     1
 90
        2
176
     1
 90
        2
176
     1
 90
        0
176
     1
 40
0.6
176
     1
 40
30.0
176
     1
 62
     7
420
 16777215
176
     1
 90
        2
176
     1
 90
        2
176
     1
 62
     7
176
     1
 62
     7
176
     1
 90
        1
176
     1
 90
        1
176
     1
 40
40.0
176
     1
 90
       11
176
     1
 62
     7
176
     1
 40
1.0
176
     1
 90
        1
176
     1
 90
        6
176
     1
 90
        2
176
     1
 62
     7
176
     1
 90
        6
176
     1
 90
        0
176
     1
 90
        0
176
     1
290
     0
176
     1
 90
        1
176
     1
 40
0.0
176
     1
 90
        0
176
     1
290
     0
176
     1
290
     1
176
     1
290
     1
176
     1
290
     0
176
     1
290
     0
176
     1
290
     0
176
     1
290
     0
176
     1
290
     0
176
     1
290
     0
176
     1
 90
       50
176
     1
 40
0.0
176
     1
 40
1.0
176
     1
 90
        0
176
     1
 62
    18
420
        0
176
     1
 90
       50
176
     1
 90
        3
176
     1
 62
     5
420
      255
176
     1
290
     0
176
     1
 90
       50
176
     1
 90
       50
176
     1
 90
       50
176
     1
290
     0
176
     1
 90
       50
176
     1
 62
   256
176
     0
 40
1.0
176
     0
 90
        2
176
     1
  1
strokes_ogs.tif
176
     1
290
     0
176
     1
 40
1.0
176
     1
 40
1.0
176
     1
  0
VISUALSTYLE
  5
36
102
{ACAD_REACTORS
330
29
102
}
330
29
100
AcDbVisualStyle
  2
Thicken
 70
    13
177
     3
291
     1
 70
    58
 90
        2
176
     1
 90
        2
176
     1
 90
        0
176
     1
 90
        0
176
     1
 40
0.6
176
     1
 40
30.0
176
     1
 62
     7
420
 16777215
176
     1
 90
        1
176
     1
 90
        4
176
     1
 62
     7
176
     1
 62
   257
176
     1
 90
        1
176
     1
 90
        1
176
     1
 40
1.0
176
     1
 90
       12
176
     1
 62
     7
176
     1
 40
1.0
176
     1
 90
        1
176
     1
 90
        6
176
     1
 90
        2
176
     1
 62
     7
176
     1
 90
        5
176
     1
 90
        0
176
     1
 90
        0
176
     1
290
     0
176
     1
 90
        1
176
     1
 40
0.0
176
     1
 90
        0
176
     1
290
     0
176
     1
290
     1
176
     1
290
     1
176
     1
290
     0
176
     1
290
     0
176
     1
290
     0
176
     1
290
     0
176
     1
290
     0
176
     1
290
     0
176
     1
 90
       50
176
     1
 40
0.0
176
     1
 40
1.0
176
     1
 90
        0
176
     1
 62
    18
420
        0
176
     1
 90
       50
176
     1
 90
        3
176
     1
 62
     5
420
      255
176
     1
290
     0
176
     1
 90
       50
176
     1
 90
       50
176
     1
 90
       50
176
     1
290
     0
176
     1
 90
       50
176
     1
 62
   256
176
     0
 40
1.0
176
     0
 90
        2
176
     1
  1
strokes_ogs.tif
176
     1
290
     0
176
     1
 40
1.0
176
     1
 40
1.0
176
     1
  0
VISUALSTYLE
  5
30
102
{ACAD_REACTORS
330
29
102
}
330
29
100
AcDbVisualStyle
  2
Wireframe
 70
     5
177
     3
291
     0
 70
    58
 90
        0
176
     1
 90
        2
176
     1
 90
        0
176
     1
 90
        0
176
     1
 40
0.6
176
     1
 40
30.0
176
     1
 62
     7
420
 16777215
176
     1
 90
        1
176
     1
 90
        4
176
     1
 62
     7
176
     1
 62
   257
176
     1
 90
        1
176
     1
 90
        1
176
     1
 40
1.0
176
     1
 90
        0
176
     1
 62
   257
176
     1
 40
1.0
176
     1
 90
        1
176
     1
 90
        6
176
     1
 90
        2
176
     1
 62
     7
176
     1
 90
        3
176
     1
 90
        0
176
     1
 90
        0
176
     1
290
     0
176
     1
 90
        1
176
     1
 40
0.0
176
     1
 90
        0
176
     1
290
     0
176
     1
290
     1
176
     1
290
     1
176
     1
290
     0
176
     1
290
     0
176
     1
290
     0
176
     1
290
     0
176
     1
290
     0
176
     1
290
     0
176
     1
 90
       50
176
     1
 40
0.0
176
     1
 40
1.0
176
     1
 90
        0
176
     1
 62
    18
420
        0
176
     1
 90
       50
176
     1
 90
        3
176
     1
 62
     5
420
      255
176
     1
290
     0
176
     1
 90
       50
176
     1
 90
       50
176
     1
 90
       50
176
     1
290
     0
176
     1
 90
       50
176
     1
 62
   256
176
     0
 40
1.0
176
     0
 90
        2
176
     1
  1
strokes_ogs.tif
176
     1
290
     0
176
     1
 40
1.0
176
     1
 40
1.0
176
     1
  0
VISUALSTYLE
  5
3C
102
{ACAD_REACTORS
330
29
102
}
330
29
100
AcDbVisualStyle
  2
X-Ray
 70
    25
177
     3
291
     0
 70
    58
 90
        2
176
     1
 90
        2
176
     1
 90
        1
176
     1
 90
        1
176
     1
 40
0.5
176
     1
 40
30.0
176
     1
 62
     7
420
 16777215
176
     1
 90
        1
176
     1
 90
        0
176
     1
 62
     7
176
     1
 62
   257
176
     1
 90
        1
176
     1
 90
        1
176
     1
 40
1.0
176
     1
 90
        8
176
     1
 62
     7
176
     1
 40
1.0
176
     1
 90
        1
176
     1
 90
        6
176
     1
 90
        2
176
     1
 62
     7
176
     1
 90
        3
176
     1
 90
        0
176
     1
 90
        0
176
     1
290
     0
176
     1
 90
       13
176
     1
 40
0.0
176
     1
 90
        0
176
     1
290
     0
176
     1
290
     1
176
     1
290
     1
176
     1
290
     0
176
     1
290
     0
176
     1
290
     0
176
     1
290
     0
176
     1
290
     0
176
     1
290
     0
176
     1
 90
       50
176
     1
 40
0.0
176
     1
 40
1.0
176
     1
 90
        0
176
     1
 62
    18
420
        0
176
     1
 90
       50
176
     1
 90
        3
176
     1
 62
     5
420
      255
176
     1
290
     0
176
     1
 90
       50
176
     1
 90
       50
176
     1
 90
       50
176
     1
290
     0
176
     1
 90
       50
176
     1
 62
   256
176
     0
 40
1.0
176
     0
 90
        2
176
     1
  1
strokes_ogs.tif
176
     1
290
     0
176
     1
 40
1.0
176
     1
 40
1.0
176
     1
  0
DICTIONARYVAR
  5
96
102
{ACAD_REACTORS
330
91
102
}
330
91
100
DictionaryVariables
280
     0
  1
1:1
  0
DICTIONARYVAR
  5
93
102
{ACAD_REACTORS
330
91
102
}
330
91
100
DictionaryVariables
280
     0
  1
STANDARD
  0
DICTIONARYVAR
  5
92
102
{ACAD_REACTORS
330
91
102
}
330
91
100
DictionaryVariables
280
     0
  1
STANDARD
  0
DICTIONARYVAR
  5
94
102
{ACAD_REACTORS
330
91
102
}
330
91
100
DictionaryVariables
280
     0
  1
Imperial24
  0
DICTIONARYVAR
  5
95
102
{ACAD_REACTORS
330
91
102
}
330
91
100
DictionaryVariables
280
     0
  1
Imperial24
  0
DICTIONARY
  5
1A
330
19
100
AcDbDictionary
280
     1
281
     1
  3
BUMPTILE
360
1C
  3
DIFFUSETILE
360
1B
  3
OPACITYTILE
360
1F
  3
REFLECTIONTILE
360
1E
  3
REFRACTIONTILE
360
20
  3
SPECULARTILE
360
1D
  0
DICTIONARY
  5
12
330
11
100
AcDbDictionary
280
     1
281
     1
  3
BUMPTILE
360
14
  3
DIFFUSETILE
360
13
  3
OPACITYTILE
360
17
  3
REFLECTIONTILE
360
16
  3
REFRACTIONTILE
360
18
  3
SPECULARTILE
360
15
  0
DICTIONARY
  5
22
330
21
100
AcDbDictionary
280
     1
281
     1
  3
BUMPTILE
360
24
  3
DIFFUSETILE
360
23
  3
OPACITYTILE
360
27
  3
REFLECTIONTILE
360
26
  3
REFRACTIONTILE
360
28
  3
SPECULARTILE
360
25
  0
DICTIONARY
  5
97
330
65
100
AcDbDictionary
280
     1
281
     1
  3
ACAD_ROUNDTRIP_2008_TABLESTYLE_CELLSTYLEMAP
360
98
  0
XRECORD
  5
1C
102
{ACAD_REACTORS
330
1A
102
}
330
1A
100
AcDbXrecord
280
     1
270
     1
271
     1
  0
XRECORD
  5
1B
102
{ACAD_REACTORS
330
1A
102
}
330
1A
100
AcDbXrecord
280
     1
270
     1
271
     1
  0
XRECORD
  5
1F
102
{ACAD_REACTORS
330
1A
102
}
330
1A
100
AcDbXrecord
280
     1
270
     1
271
     1
  0
XRECORD
  5
1E
102
{ACAD_REACTORS
330
1A
102
}
330
1A
100
AcDbXrecord
280
     1
270
     1
271
     1
  0
XRECORD
  5
20
102
{ACAD_REACTORS
330
1A
102
}
330
1A
100
AcDbXrecord
280
     1
270
     1
271
     1
  0
XRECORD
  5
1D
102
{ACAD_REACTORS
330
1A
102
}
330
1A
100
AcDbXrecord
280
     1
270
     1
271
     1
  0
XRECORD
  5
14
102
{ACAD_REACTORS
330
12
102
}
330
12
100
AcDbXrecord
280
     1
270
     1
271
     1
  0
XRECORD
  5
13
102
{ACAD_REACTORS
330
12
102
}
330
12
100
AcDbXrecord
280
     1
270
     1
271
     1
  0
XRECORD
  5
17
102
{ACAD_REACTORS
330
12
102
}
330
12
100
AcDbXrecord
280
     1
270
     1
271
     1
  0
XRECORD
  5
16
102
{ACAD_REACTORS
330
12
102
}
330
12
100
AcDbXrecord
280
     1
270
     1
271
     1
  0
XRECORD
  5
18
102
{ACAD_REACTORS
330
12
102
}
330
12
100
AcDbXrecord
280
     1
270
     1
271
     1
  0
XRECORD
  5
15
102
{ACAD_REACTORS
330
12
102
}
330
12
100
AcDbXrecord
280
     1
270
     1
271
     1
  0
XRECORD
  5
24
102
{ACAD_REACTORS
330
22
102
}
330
22
100
AcDbXrecord
280
     1
270
     1
271
     1
  0
XRECORD
  5
23
102
{ACAD_REACTORS
330
22
102
}
330
22
100
AcDbXrecord
280
     1
270
     1
271
     1
  0
XRECORD
  5
27
102
{ACAD_REACTORS
330
22
102
}
330
22
100
AcDbXrecord
280
     1
270
     1
271
     1
  0
XRECORD
  5
26
102
{ACAD_REACTORS
330
22
102
}
330
22
100
AcDbXrecord
280
     1
270
     1
271
     1
  0
XRECORD
  5
28
102
{ACAD_REACTORS
330
22
102
}
330
22
100
AcDbXrecord
280
     1
270
     1
271
     1
  0
XRECORD
  5
25
102
{ACAD_REACTORS
330
22
102
}
330
22
100
AcDbXrecord
280
     1
270
     1
271
     1
  0
CELLSTYLEMAP
  5
98
102
{ACAD_REACTORS
330
97
102
}
330
97
100
AcDbCellStyleMap
 90
        3
300
CELLSTYLE
  1
TABLEFORMAT_BEGIN
 90
        5
170
     1
 91
        0
 92
    32768
 62
   257
 93
        1
300
CONTENTFORMAT
  1
CONTENTFORMAT_BEGIN
 90
        0
 91
        0
 92
      512
 93
        0
300

 40
0.0
140
1.0
 94
        5
 62
     0
340
55
144
0.25
309
CONTENTFORMAT_END
171
     0
 94
        0
309
TABLEFORMAT_END
  1
CELLSTYLE_BEGIN
 90
        1
 91
        1
300
_TITLE
309
CELLSTYLE_END
300
CELLSTYLE
  1
TABLEFORMAT_BEGIN
 90
        5
170
     1
 91
        0
 92
        0
 62
   257
 93
        1
300
CONTENTFORMAT
  1
CONTENTFORMAT_BEGIN
 90
        0
 91
        0
 92
      512
 93
        0
300

 40
0.0
140
1.0
 94
        5
 62
     0
340
55
144
0.18
309
CONTENTFORMAT_END
171
     0
 94
        0
309
TABLEFORMAT_END
  1
CELLSTYLE_BEGIN
 90
        2
 91
        1
300
_HEADER
309
CELLSTYLE_END
300
CELLSTYLE
  1
TABLEFORMAT_BEGIN
 90
        5
170
     1
 91
        0
 92
        0
 62
   257
 93
        1
300
CONTENTFORMAT
  1
CONTENTFORMAT_BEGIN
 90
        0
 91
        0
 92
      512
 93
        0
300

 40
0.0
140
1.0
 94
        2
 62
     0
340
55
144
0.18
309
CONTENTFORMAT_END
171
     0
 94
        0
309
TABLEFORMAT_END
  1
CELLSTYLE_BEGIN
 90
        3
 91
        2
300
_DATA
309
CELLSTYLE_END
  0
ENDSEC
  0
EOF
