0
SECTION
2
HEADER
9
$INSUNITS
70
4
9
$ACADVER
1
AC1014
9
$HANDSEED
5
FFFF
0
ENDSEC
0
SECTION
2
TABLES
0
TABLE
2
VPORT
5
8
100
AcDbSymbolTable
0
ENDTAB
0
TABLE
2
LTYPE
5
5
100
AcDbSymbolTable
0
LTYPE
5
14
100
AcDbSymbolTableRecord
100
AcDbLinetypeTableRecord
2
BYBLOCK
70
0
0
LTYPE
5
15
100
AcDbSymbolTableRecord
100
AcDbLinetypeTableRecord
2
BYLAYER
70
0
0
ENDTAB
0
TABLE
2
LAYER
5
2
100
AcDbSymbolTable
70
2
0
LAYER
5
50
100
AcDbSymbolTableRecord
100
AcDbLayerTableRecord
2
0
70
0
6
CONTINUOUS
0
ENDTAB
0
TABLE
2
STYLE
5
3
100
AcDbSymbolTable
70
1
0
STYLE
5
11
100
AcDbSymbolTableRecord
100
AcDbTextStyleTableRecord
2
STANDARD
70
0
0
ENDTAB
0
TABLE
2
VIEW
5
6
100
AcDbSymbolTable
70
0
0
ENDTAB
0
TABLE
2
UCS
5
7
100
AcDbSymbolTable
70
0
0
ENDTAB
0
TABLE
2
APPID
5
9
100
AcDbSymbolTable
70
2
0
APPID
5
12
100
AcDbSymbolTableRecord
100
AcDbRegAppTableRecord
2
ACAD
70
0
0
ENDTAB
0
TABLE
2
DIMSTYLE
5
A
100
AcDbSymbolTable
70
1
0
ENDTAB
0
TABLE
2
BLOCK_RECORD
5
1
100
AcDbSymbolTable
70
1
0
BLOCK_RECORD
5
1F
100
AcDbSymbolTableRecord
100
AcDbBlockTableRecord
2
*MODEL_SPACE
0
BLOCK_RECORD
5
1B
100
AcDbSymbolTableRecord
100
AcDbBlockTableRecord
2
*PAPER_SPACE
0
ENDTAB
0
ENDSEC
0
SECTION
2
BLOCKS
0
BLOCK
5
20
100
AcDbEntity
100
AcDbBlockBegin
2
*MODEL_SPACE
0
ENDBLK
5
21
100
AcDbEntity
100
AcDbBlockEnd
0
BLOCK
5
1C
100
AcDbEntity
100
AcDbBlockBegin
2
*PAPER_SPACE
0
ENDBLK
5
1D
100
AcDbEntity
100
AcDbBlockEnd
0
ENDSEC
0
SECTION
2
ENTITIES
0
CIRCLE
5
100
100
AcDbEntity
8
0
100
AcDbCircle
10
-233.93768981810766
20
42.774971773296528
30
0
40
1.1499999999999844
210
0
220
0
230
1
0
CIRCLE
5
101
100
AcDbEntity
8
0
100
AcDbCircle
10
-56.149570576145095
20
124.97473507858402
30
0
40
1.1500000000000021
210
0
220
0
230
1
0
CIRCLE
5
102
100
AcDbEntity
8
0
100
AcDbCircle
10
-233.93725947619998
20
124.97657791336951
30
0
40
1.1499999999999844
210
0
220
0
230
1
0
CIRCLE
5
103
100
AcDbEntity
8
0
100
AcDbCircle
10
-56.150000908502911
20
42.77495309960802
30
0
40
1.1500000000000021
210
0
220
0
230
1
0
LWPOLYLINE
5
104
100
AcDbEntity
8
0
100
AcDbPolyline
90
4
70
1
43
0.0
10
-228.45000000000002
20
105.45000000000002
10
-242.45000000000002
20
105.45000000000002
10
-242.45000000000002
20
119.45
10
-228.45000000000002
20
119.45
0
LWPOLYLINE
5
105
100
AcDbEntity
8
0
100
AcDbPolyline
90
4
70
1
43
0.0
10
-226.06875000000002
20
67.349999999999994
10
-240.06875000000002
20
67.349999999999994
10
-240.06875000000002
20
81.349999999999994
10
-226.06875000000002
20
81.349999999999994
0
LWPOLYLINE
5
106
100
AcDbEntity
8
0
100
AcDbPolyline
90
4
70
1
43
0.0
10
-209.40000000000001
20
105.45000000000002
10
-223.40000000000001
20
105.45000000000002
10
-223.40000000000001
20
119.45
10
-209.40000000000001
20
119.45
0
LWPOLYLINE
5
107
100
AcDbEntity
8
0
100
AcDbPolyline
90
4
70
1
43
0.0
10
-85.575000000000017
20
48.299999999999997
10
-99.574999999999989
20
48.299999999999997
10
-99.574999999999989
20
62.300000000000004
10
-85.575000000000017
20
62.300000000000004
0
LWPOLYLINE
5
108
100
AcDbEntity
8
0
100
AcDbPolyline
90
4
70
1
43
0.0
10
-104.62500000000003
20
48.299999999999997
10
-118.625
20
48.299999999999997
10
-118.625
20
62.300000000000004
10
-104.62500000000003
20
62.300000000000004
0
LWPOLYLINE
5
109
100
AcDbEntity
8
0
100
AcDbPolyline
90
4
70
1
43
0.0
10
-126.05625000000001
20
110.21250000000002
10
-140.05625000000003
20
110.21250000000002
10
-140.05625000000003
20
124.21250000000001
10
-126.05625000000001
20
124.21250000000001
0
LWPOLYLINE
5
110
100
AcDbEntity
8
0
100
AcDbPolyline
90
4
70
1
43
0.0
10
-142.72500000000002
20
48.299999999999997
10
-156.72499999999999
20
48.299999999999997
10
-156.72499999999999
20
62.300000000000004
10
-142.72500000000002
20
62.300000000000004
0
LWPOLYLINE
5
111
100
AcDbEntity
8
0
100
AcDbPolyline
90
4
70
1
43
0.0
10
-180.82499999999999
20
48.299999999999997
10
-194.82499999999999
20
48.299999999999997
10
-194.82499999999999
20
62.300000000000004
10
-180.82499999999999
20
62.300000000000004
0
LWPOLYLINE
5
112
100
AcDbEntity
8
0
100
AcDbPolyline
90
4
70
1
43
0.0
10
-223.68750000000003
20
48.299999999999997
10
-237.6875
20
48.299999999999997
10
-237.6875
20
62.300000000000004
10
-223.68750000000003
20
62.300000000000004
0
LWPOLYLINE
5
113
100
AcDbEntity
8
0
100
AcDbPolyline
90
4
70
1
43
0.0
10
-66.525000000000006
20
48.299999999999997
10
-80.52500000000002
20
48.299999999999997
10
-80.52500000000002
20
62.300000000000004
10
-66.525000000000006
20
62.300000000000004
0
LWPOLYLINE
5
114
100
AcDbEntity
8
0
100
AcDbPolyline
90
4
70
1
43
0.0
10
-123.67500000000004
20
48.299999999999997
10
-137.67500000000001
20
48.299999999999997
10
-137.67500000000001
20
62.300000000000004
10
-123.67500000000004
20
62.300000000000004
0
LWPOLYLINE
5
115
100
AcDbEntity
8
0
100
AcDbPolyline
90
4
70
1
43
0.0
10
-199.875
20
48.299999999999997
10
-213.875
20
48.299999999999997
10
-213.875
20
62.300000000000004
10
-199.875
20
62.300000000000004
0
LWPOLYLINE
5
116
100
AcDbEntity
8
0
100
AcDbPolyline
90
4
70
1
43
0.0
10
-161.77500000000003
20
48.299999999999997
10
-175.77500000000001
20
48.299999999999997
10
-175.77500000000001
20
62.300000000000004
10
-161.77500000000003
20
62.300000000000004
0
LWPOLYLINE
5
117
100
AcDbEntity
8
0
100
AcDbPolyline
90
4
70
1
43
0.0
10
-204.63750000000002
20
67.349999999999994
10
-218.63749999999999
20
67.349999999999994
10
-218.63749999999999
20
81.349999999999994
10
-204.63750000000002
20
81.349999999999994
0
LWPOLYLINE
5
118
100
AcDbEntity
8
0
100
AcDbPolyline
90
4
70
1
43
0.0
10
-76.050000000000011
20
86.400000000000006
10
-90.049999999999983
20
86.400000000000006
10
-90.049999999999983
20
100.40000000000003
10
-76.050000000000011
20
100.40000000000003
0
LWPOLYLINE
5
119
100
AcDbEntity
8
0
100
AcDbPolyline
90
4
70
1
43
0.0
10
-190.34999999999999
20
86.400000000000006
10
-204.34999999999999
20
86.400000000000006
10
-204.34999999999999
20
100.40000000000003
10
-190.34999999999999
20
100.40000000000003
0
LWPOLYLINE
5
120
100
AcDbEntity
8
0
100
AcDbPolyline
90
4
70
1
43
0.0
10
-171.30000000000001
20
86.40000000000002
10
-185.30000000000001
20
86.40000000000002
10
-185.30000000000001
20
100.40000000000001
10
-171.30000000000001
20
100.40000000000001
0
LWPOLYLINE
5
121
100
AcDbEntity
8
0
100
AcDbPolyline
90
4
70
1
43
0.0
10
-152.25
20
86.400000000000006
10
-166.25
20
86.400000000000006
10
-166.25
20
100.40000000000003
10
-152.25
20
100.40000000000003
0
LWPOLYLINE
5
122
100
AcDbEntity
8
0
100
AcDbPolyline
90
4
70
1
43
0.0
10
-133.19999999999999
20
86.400000000000006
10
-147.19999999999999
20
86.400000000000006
10
-147.19999999999999
20
100.40000000000003
10
-133.19999999999999
20
100.40000000000003
0
LWPOLYLINE
5
123
100
AcDbEntity
8
0
100
AcDbPolyline
90
4
70
1
43
0.0
10
-114.15000000000003
20
86.400000000000006
10
-128.15000000000001
20
86.400000000000006
10
-128.15000000000001
20
100.40000000000003
10
-114.15000000000003
20
100.40000000000003
0
LWPOLYLINE
5
124
100
AcDbEntity
8
0
100
AcDbPolyline
90
4
70
1
43
0.0
10
-228.45000000000002
20
86.400000000000006
10
-242.45000000000002
20
86.400000000000006
10
-242.45000000000002
20
100.40000000000003
10
-228.45000000000002
20
100.40000000000003
0
LWPOLYLINE
5
125
100
AcDbEntity
8
0
100
AcDbPolyline
90
4
70
1
43
0.0
10
-109.38750000000002
20
67.349999999999994
10
-123.38750000000002
20
67.349999999999994
10
-123.38750000000002
20
81.349999999999994
10
-109.38750000000002
20
81.349999999999994
0
LWPOLYLINE
5
126
100
AcDbEntity
8
0
100
AcDbPolyline
90
4
70
1
43
0.0
10
-209.40000000000001
20
86.400000000000006
10
-223.40000000000001
20
86.400000000000006
10
-223.40000000000001
20
100.40000000000003
10
-209.40000000000001
20
100.40000000000003
0
LWPOLYLINE
5
127
100
AcDbEntity
8
0
100
AcDbPolyline
90
4
70
1
43
0.0
10
-185.58750000000003
20
67.349999999999994
10
-199.58750000000003
20
67.349999999999994
10
-199.58750000000003
20
81.349999999999994
10
-185.58750000000003
20
81.349999999999994
0
LWPOLYLINE
5
128
100
AcDbEntity
8
0
100
AcDbPolyline
90
4
70
1
43
0.0
10
-92.718750000000014
20
105.45000000000002
10
-106.71875
20
105.45000000000002
10
-106.71875
20
119.45
10
-92.718750000000014
20
119.45
0
LWPOLYLINE
5
129
100
AcDbEntity
8
0
100
AcDbPolyline
90
4
70
1
43
0.0
10
-71.287499999999994
20
105.45000000000002
10
-85.287499999999994
20
105.45000000000002
10
-85.287499999999994
20
119.45
10
-71.287499999999994
20
119.45
0
LWPOLYLINE
5
130
100
AcDbEntity
8
0
100
AcDbPolyline
90
4
70
1
43
0.0
10
-50.133084409449147
20
105.46871330149123
10
-64.13308440944914
20
105.46871330149123
10
-64.13308440944914
20
119.46871330149122
10
-50.133084409449147
20
119.46871330149122
0
LWPOLYLINE
5
131
100
AcDbEntity
8
0
100
AcDbPolyline
90
4
70
1
43
0.0
10
-190.34999999999999
20
105.45000000000002
10
-204.34999999999999
20
105.45000000000002
10
-204.34999999999999
20
119.45
10
-190.34999999999999
20
119.45
0
LWPOLYLINE
5
132
100
AcDbEntity
8
0
100
AcDbPolyline
90
4
70
1
43
0.0
10
-166.53750000000002
20
67.349999999999994
10
-180.53750000000002
20
67.349999999999994
10
-180.53750000000002
20
81.349999999999994
10
-166.53750000000002
20
81.349999999999994
0
LWPOLYLINE
5
133
100
AcDbEntity
8
0
100
AcDbPolyline
90
4
70
1
43
0.0
10
-159.39375000000001
20
110.21250000000002
10
-173.39375000000001
20
110.21250000000002
10
-173.39375000000001
20
124.21250000000001
10
-159.39375000000001
20
124.21250000000001
0
LWPOLYLINE
5
134
100
AcDbEntity
8
0
100
AcDbPolyline
90
4
70
1
43
0.0
10
-49.856250000000024
20
67.349999999999994
10
-63.85625000000001
20
67.349999999999994
10
-63.85625000000001
20
81.349999999999994
10
-49.856250000000024
20
81.349999999999994
0
LWPOLYLINE
5
135
100
AcDbEntity
8
0
100
AcDbPolyline
90
4
70
1
43
0.0
10
-47.474999999999987
20
48.299999999999997
10
-61.475000000000009
20
48.299999999999997
10
-61.475000000000009
20
62.300000000000004
10
-47.474999999999987
20
62.300000000000004
0
LWPOLYLINE
5
136
100
AcDbEntity
8
0
100
AcDbPolyline
90
4
70
1
43
0.0
10
-95.100000000000023
20
86.400000000000006
10
-109.09999999999999
20
86.400000000000006
10
-109.09999999999999
20
100.40000000000003
10
-95.100000000000023
20
100.40000000000003
0
LWPOLYLINE
5
137
100
AcDbEntity
8
0
100
AcDbPolyline
90
4
70
1
43
0.0
10
-52.23749999999999
20
86.400000000000006
10
-66.237500000000011
20
86.400000000000006
10
-66.237500000000011
20
100.40000000000003
10
-52.23749999999999
20
100.40000000000003
0
LWPOLYLINE
5
138
100
AcDbEntity
8
0
100
AcDbPolyline
90
4
70
1
43
0.0
10
-147.26556091605968
20
67.181213814313296
10
-161.26556091605971
20
67.181213814313296
10
-161.26556091605971
20
81.181213814313281
10
-147.26556091605968
20
81.181213814313281
0
LWPOLYLINE
5
139
100
AcDbEntity
8
0
100
AcDbPolyline
90
4
70
1
43
0.0
10
-128.4375
20
67.349999999999994
10
-142.43750000000003
20
67.349999999999994
10
-142.43750000000003
20
81.349999999999994
10
-128.4375
20
81.349999999999994
0
LWPOLYLINE
5
140
100
AcDbEntity
8
0
100
AcDbPolyline
90
4
70
1
43
0.0
10
-71.287499999999994
20
67.349999999999994
10
-85.287499999999994
20
67.349999999999994
10
-85.287499999999994
20
81.349999999999994
10
-71.287499999999994
20
81.349999999999994
0
LWPOLYLINE
5
141
100
AcDbEntity
8
0
100
AcDbPolyline
90
4
70
1
43
0.0
10
-90.337500000000006
20
67.349999999999994
10
-104.33750000000001
20
67.349999999999994
10
-104.33750000000001
20
81.349999999999994
10
-90.337500000000006
20
81.349999999999994
0
LWPOLYLINE
5
142
100
AcDbEntity
8
0
100
AcDbPolyline
90
49
70
1
43
0.0
10
-113.92899660045599
20
124.23753210146111
42
0.41418023325495551
10
-116.42874126811054
20
126.73750293542827
10
-183.02074587268226
20
126.73672312231632
42
0.41421356237307005
10
-185.5207167195183
20
124.23669396949222
10
-185.52071949879544
20
124.47502944730518
42
-0.41421741839011306
10
-188.02072325875045
20
121.9750002943141
10
-222.06977730835391
20
121.97505150579573
42
-0.19891469765950978
10
-223.48400266993306
20
122.56085275088162
10
-228.31380003391149
20
127.39075125575363
42
0.19891236737964316
10
-229.72800746278793
20
127.97655250073213
10
-238.14645343841732
20
127.97664064524101
42
0.19891236737963455
10
-239.56067313413203
20
127.39086901502995
10
-244.38918336243304
20
122.56245989855115
42
0.19891236737968282
10
-244.97498460741159
20
121.14825246967477
10
-244.97499949214591
20
119.86186591623098
10
-244.97537486460999
20
48.160228457020004
42
0.024603351585904699
10
-244.97537486460598
20
47.935771542898735
10
-244.97537486460999
20
46.603412786194539
42
0.19891236737965734
10
-244.3895884269831
20
45.189199223821475
10
-239.56112875432851
20
40.36073955116688
42
0.19891236737964607
10
-238.14691519195543
20
39.774953113539979
10
-229.72846921586452
20
39.774953113539986
42
0.19891236737967705
10
-228.31425565349144
20
40.360739551166873
10
-223.4857866362571
20
45.189208568401249
42
-0.19891242969310183
10
-222.07157259434976
20
45.774995006028085
10
-68.178429349656966
20
45.774953113539993
42
-0.19891236737949905
10
-66.764215787285067
20
45.189166675913086
10
-61.935788662538876
20
40.36073955116688
42
0.19891236737965085
10
-60.521575100165805
20
39.774953113539986
10
-51.778426688976076
20
39.774953113539993
42
0.19891236737966311
10
-50.364213126602984
20
40.360739551166901
10
-45.535786038348647
20
45.189166639421231
42
0.19891236134499249
10
-44.949999600721753
20
46.603380155354444
10
-44.949999571242536
20
47.872944934665725
10
-44.95000000000001
20
55.300000000000004
10
-44.95000000000001
20
82.5
10
-44.950382867150012
20
119.55001987190002
42
0.024769493435352435
10
-44.949849358342426
20
119.77921726194617
10
-44.949622617519715
20
119.87662597529564
10
-44.949609354146027
20
121.1461907545376
42
0.19891236134500773
10
-45.535380984357573
20
122.56041040381248
10
-50.363757516777319
20
127.38888804737208
42
0.19891236737964946
10
-51.777964945653714
20
127.97468929235059
10
-60.521113356364182
20
127.97478083662432
42
0.19891236737966236
10
-61.935333052078931
20
127.38900920641322
10
-66.763819406167329
20
122.5606239636471
42
-0.19575337311216437
10
-68.153714974270216
20
121.97500000000002
10
-111.42899634513043
20
121.97499999999998
42
-0.41421387729023434
10
-113.92899634512899
20
124.47500268798555
0
ENDSEC
0
SECTION
2
OBJECTS
0
DICTIONARY
5
C
100
AcDbDictionary
3
ACAD_GROUP
350
D
3
ACAD_MLINESTYLE
350
17
0
DICTIONARY
5
D
100
AcDbDictionary
0
DICTIONARY
5
1A
330
C
100
AcDbDictionary
0
DICTIONARY
5
17
100
AcDbDictionary
0
ENDSEC
0
EOF
