%TF.GenerationSoftware,KiCad,Pcbnew,7.0.6*%
%TF.CreationDate,2023-08-05T15:27:19-04:00*%
%TF.ProjectId,cutiepie-symmetrical-uniform-stagger-plate,63757469-6570-4696-952d-73796d6d6574,rev?*%
%TF.SameCoordinates,Original*%
%TF.FileFunction,Drillmap*%
%TF.FilePolarity,Positive*%
%FSLAX45Y45*%
G04 Gerber Fmt 4.5, Leading zero omitted, Abs format (unit mm)*
G04 Created by KiCad (PCBNEW 7.0.6) date 2023-08-05 15:27:19*
%MOMM*%
%LPD*%
G01*
G04 APERTURE LIST*
%ADD10C,0.250000*%
%ADD11C,0.200000*%
G04 APERTURE END LIST*
D10*
X7069926Y-6447891D02*
X7062687Y-6473818D01*
X7043759Y-6491857D01*
X7019926Y-6497891D01*
X15592400Y-8907866D02*
X15618327Y-8915104D01*
X15636365Y-8934033D01*
X15642400Y-8957866D01*
X7574887Y-6447865D02*
X7574887Y-5147866D01*
X12387400Y-10307866D02*
X12361473Y-10300627D01*
X12343435Y-10281698D01*
X12337400Y-10257866D01*
X7308026Y-8344452D02*
X7300787Y-8370379D01*
X7281859Y-8388417D01*
X7258026Y-8394452D01*
X17149887Y-5097866D02*
X18449887Y-5097866D01*
X8527400Y-10257866D02*
X8527400Y-8957866D01*
X8974887Y-12162865D02*
X8967649Y-12188792D01*
X8948720Y-12206831D01*
X8924887Y-12212865D01*
X12784887Y-6447865D02*
X12777649Y-6473792D01*
X12758720Y-6491831D01*
X12734887Y-6497865D01*
X15107437Y-11289641D02*
X15729837Y-11289641D01*
X22309887Y-6447865D02*
X22302649Y-6473792D01*
X22283720Y-6491831D01*
X22259887Y-6497865D01*
X5719926Y-6497891D02*
X5693999Y-6490653D01*
X5675961Y-6471724D01*
X5669926Y-6447891D01*
X6654241Y-12765365D02*
G75*
G03*
X6654241Y-12765365I-125000J0D01*
G01*
X20007387Y-10812866D02*
X21307387Y-10812866D01*
X6146126Y-8957891D02*
X6153364Y-8931965D01*
X6172293Y-8913926D01*
X6196126Y-8907891D01*
X15057437Y-11239641D02*
X15064676Y-11265568D01*
X15083604Y-11283607D01*
X15107437Y-11289641D01*
X13766126Y-8344465D02*
X13766126Y-7044465D01*
X7069887Y-12162865D02*
X7062649Y-12188792D01*
X7043720Y-12206831D01*
X7019887Y-12212865D01*
X15166126Y-8344465D02*
X15158887Y-8370392D01*
X15139959Y-8388431D01*
X15116126Y-8394466D01*
X12019837Y-12689141D02*
X11993910Y-12681903D01*
X11975872Y-12662974D01*
X11969837Y-12639141D01*
X15671126Y-8344465D02*
X15671126Y-7044465D01*
X21912400Y-10307866D02*
X21886473Y-10300627D01*
X21868435Y-10281698D01*
X21862400Y-10257866D01*
X19724460Y-12465391D02*
X23129365Y-12465396D01*
X8101126Y-8394466D02*
X8075199Y-8387227D01*
X8057161Y-8368298D01*
X8051126Y-8344465D01*
X15592400Y-10307866D02*
X14292400Y-10307866D01*
X10829887Y-6497865D02*
X9529887Y-6497865D01*
X18449887Y-6497865D02*
X17149887Y-6497865D01*
X12734887Y-6497865D02*
X11434887Y-6497865D01*
X21386126Y-8344465D02*
X21386126Y-7044465D01*
X7308026Y-7044452D02*
X7308026Y-8344452D01*
X17626126Y-6994465D02*
X18926126Y-6994465D01*
X20909887Y-6447865D02*
X20909887Y-5147866D01*
X21862387Y-12162865D02*
X21862387Y-10862866D01*
X13766126Y-7044465D02*
X13773364Y-7018539D01*
X13792293Y-7000500D01*
X13816126Y-6994465D01*
X8051126Y-7044465D02*
X8058364Y-7018539D01*
X8077293Y-7000500D01*
X8101126Y-6994465D01*
X16429837Y-11089141D02*
X16455764Y-11096380D01*
X16473803Y-11115308D01*
X16479837Y-11139141D01*
X25167387Y-10862866D02*
X25167387Y-12162865D01*
X12911137Y-11239141D02*
X12918376Y-11265068D01*
X12937304Y-11283107D01*
X12961137Y-11289141D01*
X8924887Y-12212865D02*
X7624887Y-12212865D01*
X18976126Y-8344465D02*
X18968887Y-8370392D01*
X18949959Y-8388431D01*
X18926126Y-8394466D01*
X23767387Y-12162865D02*
X23767387Y-10862866D01*
X23341137Y-5097891D02*
X23315210Y-5105130D01*
X23297172Y-5124058D01*
X23291137Y-5147891D01*
X16594887Y-6447865D02*
X16587649Y-6473792D01*
X16568720Y-6491831D01*
X16544887Y-6497865D01*
X13687400Y-10307866D02*
X12387400Y-10307866D01*
X19957400Y-8957866D02*
X19964639Y-8931939D01*
X19983567Y-8913900D01*
X20007400Y-8907866D01*
X19054887Y-6497865D02*
X19028961Y-6490627D01*
X19010922Y-6471698D01*
X19004887Y-6447865D01*
X8924887Y-10812866D02*
X8950814Y-10820104D01*
X8968853Y-10839033D01*
X8974887Y-10862866D01*
X18052400Y-8957866D02*
X18059639Y-8931939D01*
X18078567Y-8913900D01*
X18102400Y-8907866D01*
X24979262Y-8294691D02*
X25079262Y-8294691D01*
X21307400Y-8907866D02*
X21333327Y-8915104D01*
X21351365Y-8934033D01*
X21357400Y-8957866D01*
X13211126Y-6994465D02*
X13237053Y-7001704D01*
X13255091Y-7020632D01*
X13261126Y-7044465D01*
X19452400Y-8957866D02*
X19452400Y-10257866D01*
X16623637Y-12639141D02*
X16623637Y-11339141D01*
X7258026Y-8394452D02*
X5958026Y-8394452D01*
X21357387Y-12162865D02*
X21350149Y-12188792D01*
X21331220Y-12206831D01*
X21307387Y-12212865D01*
X11356126Y-7044465D02*
X11356126Y-8344465D01*
X22786126Y-8344465D02*
X22778887Y-8370392D01*
X22759959Y-8388431D01*
X22736126Y-8394466D01*
X16479837Y-12639141D02*
X16472599Y-12665068D01*
X16453670Y-12683107D01*
X16429837Y-12689141D01*
X24929262Y-7544691D02*
X24929262Y-5957091D01*
X7019926Y-5097891D02*
X7045853Y-5105130D01*
X7063891Y-5124058D01*
X7069926Y-5147891D01*
X16429837Y-12689141D02*
X14407437Y-12689141D01*
X11969837Y-12639141D02*
X11969837Y-11139141D01*
X16544887Y-6497865D02*
X15244887Y-6497865D01*
X23212387Y-10812866D02*
X23238314Y-10820104D01*
X23256353Y-10839033D01*
X23262387Y-10862866D01*
X10829887Y-5097866D02*
X10855814Y-5105104D01*
X10873853Y-5124033D01*
X10879887Y-5147866D01*
X11861126Y-8344465D02*
X11861126Y-7044465D01*
X20404887Y-6447865D02*
X20397649Y-6473792D01*
X20378720Y-6491831D01*
X20354887Y-6497865D01*
X25129262Y-7644691D02*
X25122024Y-7618764D01*
X25103095Y-7600726D01*
X25079262Y-7594691D01*
X13339887Y-6497865D02*
X13313960Y-6490627D01*
X13295922Y-6471698D01*
X13289887Y-6447865D01*
X12861137Y-11089141D02*
X12861137Y-11089641D01*
X14242400Y-10257866D02*
X14242400Y-8957866D01*
X10482400Y-8907866D02*
X11782400Y-8907866D01*
X23479262Y-6498391D02*
X23505189Y-6505630D01*
X23523228Y-6524558D01*
X23529262Y-6548391D01*
X19054887Y-5097866D02*
X20354887Y-5097866D01*
X23895188Y-13065547D02*
X24737033Y-13065555D01*
X7496126Y-8907891D02*
X7522053Y-8915130D01*
X7540091Y-8934058D01*
X7546126Y-8957891D01*
X5719926Y-5097891D02*
X7019926Y-5097891D01*
X20959887Y-5097866D02*
X22259887Y-5097866D01*
X24878500Y-4303965D02*
X24856067Y-4284631D01*
X24831257Y-4268948D01*
X24804514Y-4257098D01*
X24776279Y-4249265D01*
X24746996Y-4245632D01*
X24737079Y-4245387D01*
X11434887Y-5097866D02*
X12734887Y-5097866D01*
X25167387Y-12162865D02*
X25160149Y-12188792D01*
X25141220Y-12206831D01*
X25117387Y-12212865D01*
X9529887Y-10812866D02*
X10829887Y-10812866D01*
X14639887Y-6497865D02*
X13339887Y-6497865D01*
X21307387Y-12212865D02*
X20007387Y-12212865D01*
X15007437Y-11089141D02*
X15033364Y-11096380D01*
X15051403Y-11115308D01*
X15057437Y-11139141D01*
X22309887Y-5147866D02*
X22309887Y-6447865D01*
X15671126Y-7044465D02*
X15678364Y-7018539D01*
X15697293Y-7000500D01*
X15721126Y-6994465D01*
X17576126Y-7044465D02*
X17583365Y-7018539D01*
X17602293Y-7000500D01*
X17626126Y-6994465D01*
X24737033Y-13065555D02*
X24766567Y-13063364D01*
X24795200Y-13056911D01*
X24822489Y-13046380D01*
X24847993Y-13031954D01*
X24871268Y-13013817D01*
X24878455Y-13006978D01*
X7258026Y-6994452D02*
X7283953Y-7001691D01*
X7301991Y-7020619D01*
X7308026Y-7044452D01*
X22736126Y-8394466D02*
X21436126Y-8394466D01*
X6974545Y-4245387D02*
X6100230Y-4245387D01*
X24691137Y-5157091D02*
X24691137Y-5147891D01*
X7624887Y-6497865D02*
X7598960Y-6490627D01*
X7580922Y-6471698D01*
X7574887Y-6447865D01*
X20354887Y-5097866D02*
X20380814Y-5105104D01*
X20398853Y-5124033D01*
X20404887Y-5147866D01*
X25129262Y-5257091D02*
X25122024Y-5231165D01*
X25103095Y-5213126D01*
X25079262Y-5207091D01*
X15829837Y-11089141D02*
X16429837Y-11089141D01*
X17547400Y-8957866D02*
X17547400Y-10257866D01*
X16147400Y-10257866D02*
X16147400Y-8957866D01*
X10879887Y-10862866D02*
X10879887Y-12162865D01*
X17071126Y-8344465D02*
X17063887Y-8370392D01*
X17044959Y-8388431D01*
X17021126Y-8394466D01*
X17576126Y-8344465D02*
X17576126Y-7044465D01*
X18867437Y-12639141D02*
X18860199Y-12665068D01*
X18841270Y-12683107D01*
X18817437Y-12689141D01*
X11306126Y-6994465D02*
X11332053Y-7001704D01*
X11350091Y-7020632D01*
X11356126Y-7044465D01*
X7115921Y-13006792D02*
X7598769Y-12523954D01*
X5475966Y-4786808D02*
X5456632Y-4809242D01*
X5440949Y-4834051D01*
X5429099Y-4860795D01*
X5421266Y-4889029D01*
X5417633Y-4918312D01*
X5417387Y-4928229D01*
X6196126Y-10307891D02*
X6170199Y-10300653D01*
X6152161Y-10281724D01*
X6146126Y-10257891D01*
X7598769Y-12523954D02*
X7620830Y-12504897D01*
X7645205Y-12489371D01*
X7671472Y-12477552D01*
X7699212Y-12469619D01*
X7728002Y-12465748D01*
X7737759Y-12465391D01*
X15194887Y-6447865D02*
X15194887Y-5147866D01*
X7624887Y-5097866D02*
X8924887Y-5097866D01*
X23341137Y-6498391D02*
X23479262Y-6498391D01*
X23429262Y-8244691D02*
X23436501Y-8270618D01*
X23455429Y-8288657D01*
X23479262Y-8294691D01*
X9877400Y-8907866D02*
X9903327Y-8915104D01*
X9921365Y-8934033D01*
X9927400Y-8957866D01*
X13261126Y-7044465D02*
X13261126Y-8344465D01*
X15779837Y-11239641D02*
X15779837Y-11139141D01*
X25167452Y-10257866D02*
X25160213Y-10283792D01*
X25141285Y-10301831D01*
X25117452Y-10307866D01*
X23262400Y-8957866D02*
X23262400Y-10257866D01*
X5417348Y-12382510D02*
X5419540Y-12412044D01*
X5425993Y-12440677D01*
X5436524Y-12467967D01*
X5450950Y-12493471D01*
X5469087Y-12516746D01*
X5475926Y-12523932D01*
X11782400Y-8907866D02*
X11808327Y-8915104D01*
X11826365Y-8934033D01*
X11832400Y-8957866D01*
X23753813Y-4303965D02*
X23270966Y-4786812D01*
X23262400Y-10257866D02*
X23255161Y-10283792D01*
X23236233Y-10301831D01*
X23212400Y-10307866D01*
X18926126Y-8394466D02*
X17626126Y-8394466D01*
X19957400Y-10257866D02*
X19957400Y-8957866D01*
X20007387Y-12212865D02*
X19981461Y-12205627D01*
X19963422Y-12186698D01*
X19957387Y-12162865D01*
X23479262Y-7594691D02*
X23453335Y-7601930D01*
X23435297Y-7620858D01*
X23429262Y-7644691D01*
X6974499Y-13065369D02*
X7004033Y-13063178D01*
X7032666Y-13056725D01*
X7059955Y-13046194D01*
X7085459Y-13031768D01*
X7108734Y-13013631D01*
X7115921Y-13006792D01*
X25129262Y-8244691D02*
X25129262Y-7644691D01*
X19474459Y-12715391D02*
X19475750Y-12689830D01*
X19479538Y-12665007D01*
X19489629Y-12629433D01*
X19504633Y-12596226D01*
X19524126Y-12565812D01*
X19547683Y-12538614D01*
X19574881Y-12515057D01*
X19605295Y-12495565D01*
X19638501Y-12480561D01*
X19674076Y-12470470D01*
X19698899Y-12466682D01*
X19724460Y-12465391D01*
X8924887Y-6497865D02*
X7624887Y-6497865D01*
X14292400Y-10307866D02*
X14266473Y-10300627D01*
X14248435Y-10281698D01*
X14242400Y-10257866D01*
X13737400Y-8957866D02*
X13737400Y-10257866D01*
X13211126Y-8394466D02*
X11911126Y-8394466D01*
X15244887Y-6497865D02*
X15218960Y-6490627D01*
X15200922Y-6471698D01*
X15194887Y-6447865D01*
X14242400Y-8957866D02*
X14249639Y-8931939D01*
X14268567Y-8913900D01*
X14292400Y-8907866D01*
X5719887Y-12212865D02*
X5693960Y-12205627D01*
X5675922Y-12186698D01*
X5669887Y-12162865D01*
X9401126Y-6994465D02*
X9427053Y-7001704D01*
X9445091Y-7020632D01*
X9451126Y-7044465D01*
X5958809Y-4303965D02*
X5475966Y-4786808D01*
X14213637Y-12639141D02*
X14206399Y-12665068D01*
X14187470Y-12683107D01*
X14163637Y-12689141D01*
X6100184Y-13065360D02*
X6974499Y-13065369D01*
X13737400Y-10257866D02*
X13730161Y-10283792D01*
X13711233Y-10301831D01*
X13687400Y-10307866D01*
X16594887Y-5147866D02*
X16594887Y-6447865D01*
X24879262Y-8403391D02*
X24905189Y-8396153D01*
X24923228Y-8377224D01*
X24929262Y-8353391D01*
X16479837Y-11139141D02*
X16479837Y-12639141D01*
X10482400Y-10307866D02*
X10456473Y-10300627D01*
X10438435Y-10281698D01*
X10432400Y-10257866D01*
X11969837Y-11139141D02*
X11977076Y-11113215D01*
X11996004Y-11095176D01*
X12019837Y-11089141D01*
X7496126Y-10307891D02*
X6196126Y-10307891D01*
X21357400Y-8957866D02*
X21357400Y-10257866D01*
X17926137Y-11239141D02*
X17926137Y-11139641D01*
X6146126Y-10257891D02*
X6146126Y-8957891D01*
X20831126Y-6994465D02*
X20857053Y-7001704D01*
X20875091Y-7020632D01*
X20881126Y-7044465D01*
X15729837Y-11289641D02*
X15755764Y-11282403D01*
X15773803Y-11263474D01*
X15779837Y-11239641D01*
X9479887Y-10862866D02*
X9487126Y-10836939D01*
X9506054Y-10818900D01*
X9529887Y-10812866D01*
X23212400Y-8907866D02*
X23238327Y-8915104D01*
X23256365Y-8934033D01*
X23262400Y-8957866D01*
X8101126Y-6994465D02*
X9401126Y-6994465D01*
X24641137Y-5097891D02*
X23341137Y-5097891D01*
X21307400Y-10307866D02*
X20007400Y-10307866D01*
X17976137Y-11089641D02*
X18817437Y-11089641D01*
X21436126Y-8394466D02*
X21410199Y-8387227D01*
X21392161Y-8368298D01*
X21386126Y-8344465D01*
X7574887Y-10862866D02*
X7582126Y-10836939D01*
X7601054Y-10818900D01*
X7624887Y-10812866D01*
X20831126Y-8394466D02*
X19531126Y-8394466D01*
X7019887Y-10812866D02*
X7045814Y-10820104D01*
X7063853Y-10839033D01*
X7069887Y-10862866D01*
X10829887Y-12212865D02*
X9529887Y-12212865D01*
X10432400Y-10257866D02*
X10432400Y-8957866D01*
X14213637Y-11339141D02*
X14213637Y-12639141D01*
X8051126Y-8344465D02*
X8051126Y-7044465D01*
X7546126Y-8957891D02*
X7546126Y-10257891D01*
X5669926Y-5147891D02*
X5677164Y-5121965D01*
X5696093Y-5103926D01*
X5719926Y-5097891D01*
X7069926Y-5147891D02*
X7069926Y-6447891D01*
X11434887Y-6497865D02*
X11408960Y-6490627D01*
X11390922Y-6471698D01*
X11384887Y-6447865D01*
X23529262Y-8344691D02*
X23529262Y-8353391D01*
X10006126Y-8394466D02*
X9980199Y-8387227D01*
X9962161Y-8368298D01*
X9956126Y-8344465D01*
X7598809Y-4786808D02*
X7115966Y-4303965D01*
X9927400Y-8957866D02*
X9927400Y-10257866D01*
X17876137Y-11289141D02*
X17902064Y-11281903D01*
X17920103Y-11262974D01*
X17926137Y-11239141D01*
X20909887Y-5147866D02*
X20917126Y-5121939D01*
X20936054Y-5103900D01*
X20959887Y-5097866D01*
X23270966Y-4786812D02*
X23248532Y-4806146D01*
X23223723Y-4821830D01*
X23196979Y-4833679D01*
X23168745Y-4841512D01*
X23139462Y-4845145D01*
X23129545Y-4845391D01*
X11832400Y-10257866D02*
X11825161Y-10283792D01*
X11806233Y-10301831D01*
X11782400Y-10307866D01*
X11384887Y-6447865D02*
X11384887Y-5147866D01*
X16673637Y-11289141D02*
X17876137Y-11289141D01*
X14357437Y-12639141D02*
X14357437Y-11139141D01*
X13816126Y-8394466D02*
X13790199Y-8387227D01*
X13772161Y-8368298D01*
X13766126Y-8344465D01*
X10879887Y-5147866D02*
X10879887Y-6447865D01*
X15642400Y-8957866D02*
X15642400Y-10257866D01*
X19004887Y-6447865D02*
X19004887Y-5147866D01*
X20881126Y-7044465D02*
X20881126Y-8344465D01*
X16147400Y-8957866D02*
X16154639Y-8931939D01*
X16173567Y-8913900D01*
X16197400Y-8907866D01*
X21862400Y-8957866D02*
X21869639Y-8931939D01*
X21888567Y-8913900D01*
X21912400Y-8907866D01*
X24737079Y-4245387D02*
X23895234Y-4245387D01*
X23291137Y-6448391D02*
X23298376Y-6474318D01*
X23317304Y-6492357D01*
X23341137Y-6498391D01*
X15779837Y-11139141D02*
X15787076Y-11113215D01*
X15806004Y-11095176D01*
X15829837Y-11089141D01*
X20354887Y-6497865D02*
X19054887Y-6497865D01*
X19248287Y-12941564D02*
X19282731Y-12938958D01*
X19315543Y-12931396D01*
X19346341Y-12919261D01*
X19374741Y-12902938D01*
X19400359Y-12882809D01*
X19422812Y-12859259D01*
X19441715Y-12832671D01*
X19456685Y-12803430D01*
X19467338Y-12771918D01*
X19473291Y-12738519D01*
X19474459Y-12715394D01*
X15116126Y-8394466D02*
X13816126Y-8394466D01*
X19474459Y-12715394D02*
X19474459Y-12715391D01*
X5958763Y-13006780D02*
X5981196Y-13026114D01*
X6006006Y-13041798D01*
X6032749Y-13053648D01*
X6060984Y-13061481D01*
X6090266Y-13065114D01*
X6100184Y-13065360D01*
X21912400Y-8907866D02*
X23212400Y-8907866D01*
X12337400Y-10257866D02*
X12337400Y-8957866D01*
X24929262Y-8353391D02*
X24929262Y-8344691D01*
X21862387Y-10862866D02*
X21869626Y-10836939D01*
X21888554Y-10818900D01*
X21912387Y-10812866D01*
X23212387Y-12212865D02*
X21912387Y-12212865D01*
X9529887Y-6497865D02*
X9503961Y-6490627D01*
X9485922Y-6471698D01*
X9479887Y-6447865D01*
X17021126Y-6994465D02*
X17047053Y-7001704D01*
X17065091Y-7020632D01*
X17071126Y-7044465D01*
X14689887Y-6447865D02*
X14682649Y-6473792D01*
X14663720Y-6491831D01*
X14639887Y-6497865D01*
X13289887Y-5147866D02*
X13297126Y-5121939D01*
X13316054Y-5103900D01*
X13339887Y-5097866D01*
X12734887Y-5097866D02*
X12760814Y-5105104D01*
X12778853Y-5124033D01*
X12784887Y-5147866D01*
X13261126Y-8344465D02*
X13253887Y-8370392D01*
X13234959Y-8388431D01*
X13211126Y-8394466D01*
X25361306Y-12524137D02*
X25380640Y-12501704D01*
X25396323Y-12476894D01*
X25408174Y-12450151D01*
X25416007Y-12421917D01*
X25419640Y-12392634D01*
X25419886Y-12382717D01*
X18052400Y-10257866D02*
X18052400Y-8957866D01*
X9479887Y-6447865D02*
X9479887Y-5147866D01*
X7574887Y-5147866D02*
X7582126Y-5121939D01*
X7601054Y-5103900D01*
X7624887Y-5097866D01*
X12019837Y-11089141D02*
X12861137Y-11089141D01*
X5417387Y-4928229D02*
X5417387Y-8643264D01*
X5669887Y-12162865D02*
X5669887Y-10862866D01*
X18499887Y-5147866D02*
X18499887Y-6447865D01*
X24979262Y-7594691D02*
X24953335Y-7587453D01*
X24935297Y-7568524D01*
X24929262Y-7544691D01*
X9479887Y-5147866D02*
X9487126Y-5121939D01*
X9506054Y-5103900D01*
X9529887Y-5097866D01*
X24433010Y-4545389D02*
G75*
G03*
X24433010Y-4545389I-125000J0D01*
G01*
X15194887Y-5147866D02*
X15202126Y-5121939D01*
X15221054Y-5103900D01*
X15244887Y-5097866D01*
X23579262Y-8403391D02*
X24879262Y-8403391D01*
X17497400Y-10307866D02*
X16197400Y-10307866D01*
X23753767Y-13006966D02*
X23776201Y-13026300D01*
X23801010Y-13041984D01*
X23827753Y-13053834D01*
X23855988Y-13061668D01*
X23885271Y-13065301D01*
X23895188Y-13065547D01*
X25167452Y-8957866D02*
X25167452Y-10257866D01*
X24929262Y-5957091D02*
X24936501Y-5931164D01*
X24955429Y-5913126D01*
X24979262Y-5907091D01*
X20959887Y-6497865D02*
X20933961Y-6490627D01*
X20915922Y-6471698D01*
X20909887Y-6447865D01*
X14163637Y-11289141D02*
X14189564Y-11296380D01*
X14207603Y-11315308D01*
X14213637Y-11339141D01*
X23479262Y-8294691D02*
X23505189Y-8301930D01*
X23523228Y-8320858D01*
X23529262Y-8344691D01*
X9877400Y-10307866D02*
X8577400Y-10307866D01*
X19004887Y-5147866D02*
X19012126Y-5121939D01*
X19031054Y-5103900D01*
X19054887Y-5097866D01*
X13339887Y-5097866D02*
X14639887Y-5097866D01*
X25079262Y-5907091D02*
X25105189Y-5899853D01*
X25123228Y-5880924D01*
X25129262Y-5857091D01*
X13289887Y-6447865D02*
X13289887Y-5147866D01*
X18926126Y-6994465D02*
X18952053Y-7001704D01*
X18970091Y-7020632D01*
X18976126Y-7044465D01*
X5475926Y-12523932D02*
X5958763Y-13006780D01*
X11392664Y-12715391D02*
X11395270Y-12749835D01*
X11402832Y-12782648D01*
X11414967Y-12813446D01*
X11431291Y-12841846D01*
X11451420Y-12867464D01*
X11474970Y-12889917D01*
X11501558Y-12908820D01*
X11530800Y-12923790D01*
X11562313Y-12934443D01*
X11595712Y-12940396D01*
X11618837Y-12941564D01*
X18817437Y-12689141D02*
X16673637Y-12689141D01*
X9479887Y-12162865D02*
X9479887Y-10862866D01*
X23817387Y-10812866D02*
X25117387Y-10812866D01*
X17099887Y-5147866D02*
X17107126Y-5121939D01*
X17126054Y-5103900D01*
X17149887Y-5097866D01*
X9927400Y-10257866D02*
X9920161Y-10283792D01*
X9901233Y-10301831D01*
X9877400Y-10307866D01*
X13816126Y-6994465D02*
X15116126Y-6994465D01*
X23895234Y-4245387D02*
X23865700Y-4247579D01*
X23837067Y-4254032D01*
X23809778Y-4264563D01*
X23784274Y-4278989D01*
X23760999Y-4297126D01*
X23753813Y-4303965D01*
X10006126Y-6994465D02*
X11306126Y-6994465D01*
X15721126Y-6994465D02*
X17021126Y-6994465D01*
X19957387Y-10862866D02*
X19964626Y-10836939D01*
X19983554Y-10818900D01*
X20007387Y-10812866D01*
X11356126Y-8344465D02*
X11348887Y-8370392D01*
X11329959Y-8388431D01*
X11306126Y-8394466D01*
X23817452Y-8907866D02*
X25117452Y-8907866D01*
X15244887Y-5097866D02*
X16544887Y-5097866D01*
X5719887Y-10812866D02*
X7019887Y-10812866D01*
X17547400Y-10257866D02*
X17540161Y-10283792D01*
X17521233Y-10301831D01*
X17497400Y-10307866D01*
X23291137Y-5147891D02*
X23291137Y-6448391D01*
X25117452Y-10307866D02*
X23817452Y-10307866D01*
X19481126Y-8344465D02*
X19481126Y-7044465D01*
X23529262Y-6548391D02*
X23529262Y-7544691D01*
X5908026Y-8344452D02*
X5908026Y-7044452D01*
X12337400Y-8957866D02*
X12344639Y-8931939D01*
X12363567Y-8913900D01*
X12387400Y-8907866D01*
X7737759Y-12465391D02*
X11142664Y-12465391D01*
X14689887Y-5147866D02*
X14689887Y-6447865D01*
X10432400Y-8957866D02*
X10439639Y-8931939D01*
X10458567Y-8913900D01*
X10482400Y-8907866D01*
X12784887Y-5147866D02*
X12784887Y-6447865D01*
X19531126Y-6994465D02*
X20831126Y-6994465D01*
X8974887Y-6447865D02*
X8967649Y-6473792D01*
X8948720Y-6491831D01*
X8924887Y-6497865D01*
X23767387Y-10862866D02*
X23774626Y-10836939D01*
X23793554Y-10818900D01*
X23817387Y-10812866D01*
X10879887Y-6447865D02*
X10872649Y-6473792D01*
X10853720Y-6491831D01*
X10829887Y-6497865D01*
X11306126Y-8394466D02*
X10006126Y-8394466D01*
X7019926Y-6497891D02*
X5719926Y-6497891D01*
X18499887Y-6447865D02*
X18492649Y-6473792D01*
X18473720Y-6491831D01*
X18449887Y-6497865D01*
X16544887Y-5097866D02*
X16570814Y-5105104D01*
X16588853Y-5124033D01*
X16594887Y-5147866D01*
X21386126Y-7044465D02*
X21393365Y-7018539D01*
X21412293Y-7000500D01*
X21436126Y-6994465D01*
X19531126Y-8394466D02*
X19505199Y-8387227D01*
X19487161Y-8368298D01*
X19481126Y-8344465D01*
X24878455Y-13006978D02*
X25361306Y-12524137D01*
X12911137Y-11139641D02*
X12911137Y-11239141D01*
X23817452Y-10307866D02*
X23791525Y-10300627D01*
X23773486Y-10281698D01*
X23767452Y-10257866D01*
X12961137Y-11289141D02*
X14163637Y-11289141D01*
X21357400Y-10257866D02*
X21350161Y-10283792D01*
X21331233Y-10301831D01*
X21307400Y-10307866D01*
X17021126Y-8394466D02*
X15721126Y-8394466D01*
X9956126Y-7044465D02*
X9963365Y-7018539D01*
X9982293Y-7000500D01*
X10006126Y-6994465D01*
X9451126Y-7044465D02*
X9451126Y-8344465D01*
X8974887Y-10862866D02*
X8974887Y-12162865D01*
X17099887Y-6447865D02*
X17099887Y-5147866D01*
X23129545Y-4845391D02*
X7740230Y-4845387D01*
X25117452Y-8907866D02*
X25143378Y-8915104D01*
X25161417Y-8934033D01*
X25167452Y-8957866D01*
X24433010Y-12765549D02*
G75*
G03*
X24433010Y-12765549I-125000J0D01*
G01*
X14357437Y-11139141D02*
X14364676Y-11113215D01*
X14383604Y-11095176D01*
X14407437Y-11089141D01*
X8577400Y-10307866D02*
X8551473Y-10300627D01*
X8533435Y-10281698D01*
X8527400Y-10257866D01*
X11911126Y-8394466D02*
X11885199Y-8387227D01*
X11867161Y-8368298D01*
X11861126Y-8344465D01*
X11384887Y-5147866D02*
X11392126Y-5121939D01*
X11411054Y-5103900D01*
X11434887Y-5097866D01*
X7115966Y-4303965D02*
X7093533Y-4284631D01*
X7068723Y-4268948D01*
X7041980Y-4257098D01*
X7013745Y-4249265D01*
X6984462Y-4245632D01*
X6974545Y-4245387D01*
X20007400Y-8907866D02*
X21307400Y-8907866D01*
X25079262Y-5207091D02*
X24741137Y-5207091D01*
X16197400Y-10307866D02*
X16171473Y-10300627D01*
X16153435Y-10281698D01*
X16147400Y-10257866D01*
X20404887Y-5147866D02*
X20404887Y-6447865D01*
X7019887Y-12212865D02*
X5719887Y-12212865D01*
X23767452Y-8957866D02*
X23774690Y-8931939D01*
X23793619Y-8913900D01*
X23817452Y-8907866D01*
X17626126Y-8394466D02*
X17600199Y-8387227D01*
X17582161Y-8368298D01*
X17576126Y-8344465D01*
X8924887Y-5097866D02*
X8950814Y-5105104D01*
X8968853Y-5124033D01*
X8974887Y-5147866D01*
X9529887Y-12212865D02*
X9503961Y-12205627D01*
X9485922Y-12186698D01*
X9479887Y-12162865D01*
X17071126Y-7044465D02*
X17071126Y-8344465D01*
X5958026Y-6994452D02*
X7258026Y-6994452D01*
X16197400Y-8907866D02*
X17497400Y-8907866D01*
X5417387Y-8643264D02*
X5417348Y-12382510D01*
X25117387Y-10812866D02*
X25143314Y-10820104D01*
X25161353Y-10839033D01*
X25167387Y-10862866D01*
X15642400Y-10257866D02*
X15635161Y-10283792D01*
X15616233Y-10301831D01*
X15592400Y-10307866D01*
X19481126Y-7044465D02*
X19488365Y-7018539D01*
X19507293Y-7000500D01*
X19531126Y-6994465D01*
X24929262Y-8344691D02*
X24936501Y-8318764D01*
X24955429Y-8300726D01*
X24979262Y-8294691D01*
X22736126Y-6994465D02*
X22762053Y-7001704D01*
X22780091Y-7020632D01*
X22786126Y-7044465D01*
X25361346Y-4786811D02*
X24878500Y-4303965D01*
X24979262Y-5907091D02*
X25079262Y-5907091D01*
X11618837Y-12941564D02*
X19248287Y-12941564D01*
X9401126Y-8394466D02*
X8101126Y-8394466D01*
X21357387Y-10862866D02*
X21357387Y-12162865D01*
X22786126Y-7044465D02*
X22786126Y-8344465D01*
X23529262Y-8353391D02*
X23536501Y-8379318D01*
X23555429Y-8397357D01*
X23579262Y-8403391D01*
X21862400Y-10257866D02*
X21862400Y-8957866D01*
X9529887Y-5097866D02*
X10829887Y-5097866D01*
X24691137Y-5147891D02*
X24683899Y-5121965D01*
X24664970Y-5103926D01*
X24641137Y-5097891D01*
X19402400Y-10307866D02*
X18102400Y-10307866D01*
X14292400Y-8907866D02*
X15592400Y-8907866D01*
X20007400Y-10307866D02*
X19981473Y-10300627D01*
X19963435Y-10281698D01*
X19957400Y-10257866D01*
X11782400Y-10307866D02*
X10482400Y-10307866D01*
X10879887Y-12162865D02*
X10872649Y-12188792D01*
X10853720Y-12206831D01*
X10829887Y-12212865D01*
X14163637Y-12689141D02*
X12019837Y-12689141D01*
X25419886Y-12382717D02*
X25419926Y-4928233D01*
X15721126Y-8394466D02*
X15695199Y-8387227D01*
X15677161Y-8368298D01*
X15671126Y-8344465D01*
X11832400Y-8957866D02*
X11832400Y-10257866D01*
X6100230Y-4245387D02*
X6070696Y-4247579D01*
X6042063Y-4254032D01*
X6014773Y-4264563D01*
X5989270Y-4278989D01*
X5965995Y-4297126D01*
X5958809Y-4303965D01*
X25129262Y-5857091D02*
X25129262Y-5257091D01*
X8527400Y-8957866D02*
X8534639Y-8931939D01*
X8553567Y-8913900D01*
X8577400Y-8907866D01*
X19452400Y-10257866D02*
X19445161Y-10283792D01*
X19426233Y-10301831D01*
X19402400Y-10307866D01*
X22259887Y-6497865D02*
X20959887Y-6497865D01*
X25079262Y-8294691D02*
X25105189Y-8287453D01*
X25123228Y-8268524D01*
X25129262Y-8244691D01*
X24741137Y-5207091D02*
X24715210Y-5199853D01*
X24697172Y-5180924D01*
X24691137Y-5157091D01*
X17497400Y-8907866D02*
X17523327Y-8915104D01*
X17541365Y-8934033D01*
X17547400Y-8957866D01*
X17149887Y-6497865D02*
X17123961Y-6490627D01*
X17105922Y-6471698D01*
X17099887Y-6447865D01*
X19957387Y-12162865D02*
X19957387Y-10862866D01*
X14407437Y-11089141D02*
X15007437Y-11089141D01*
X5908026Y-7044452D02*
X5915264Y-7018525D01*
X5934193Y-7000487D01*
X5958026Y-6994452D01*
X23262387Y-10862866D02*
X23262387Y-12162865D01*
X7740230Y-4845387D02*
X7710696Y-4843195D01*
X7682063Y-4836742D01*
X7654774Y-4826210D01*
X7629270Y-4811784D01*
X7605995Y-4793647D01*
X7598809Y-4786808D01*
X18867437Y-11139141D02*
X18867437Y-12639141D01*
X18817437Y-11089641D02*
X18817437Y-11089141D01*
X8577400Y-8907866D02*
X9877400Y-8907866D01*
X11911126Y-6994465D02*
X13211126Y-6994465D01*
X25419926Y-4928233D02*
X25417734Y-4898699D01*
X25411280Y-4870066D01*
X25400749Y-4842776D01*
X25386323Y-4817273D01*
X25368185Y-4793998D01*
X25361346Y-4786811D01*
X15116126Y-6994465D02*
X15142053Y-7001704D01*
X15160091Y-7020632D01*
X15166126Y-7044465D01*
X7574887Y-12162865D02*
X7574887Y-10862866D01*
X7546126Y-10257891D02*
X7538887Y-10283818D01*
X7519959Y-10301857D01*
X7496126Y-10307891D01*
X25079262Y-7594691D02*
X24979262Y-7594691D01*
X20881126Y-8344465D02*
X20873887Y-8370392D01*
X20854959Y-8388431D01*
X20831126Y-8394466D01*
X22259887Y-5097866D02*
X22285814Y-5105104D01*
X22303853Y-5124033D01*
X22309887Y-5147866D01*
X12387400Y-8907866D02*
X13687400Y-8907866D01*
X21912387Y-12212865D02*
X21886461Y-12205627D01*
X21868422Y-12186698D01*
X21862387Y-12162865D01*
X8974887Y-5147866D02*
X8974887Y-6447865D01*
X17926137Y-11139641D02*
X17933376Y-11113715D01*
X17952304Y-11095676D01*
X17976137Y-11089641D01*
X7069887Y-10862866D02*
X7069887Y-12162865D01*
X7624887Y-10812866D02*
X8924887Y-10812866D01*
X13687400Y-8907866D02*
X13713327Y-8915104D01*
X13731365Y-8934033D01*
X13737400Y-8957866D01*
X23429262Y-7644691D02*
X23429262Y-8244691D01*
X25117387Y-12212865D02*
X23817387Y-12212865D01*
X5958026Y-8394452D02*
X5932099Y-8387213D01*
X5914061Y-8368285D01*
X5908026Y-8344452D01*
X23767452Y-10257866D02*
X23767452Y-8957866D01*
X23212400Y-10307866D02*
X21912400Y-10307866D01*
X23262387Y-12162865D02*
X23255149Y-12188792D01*
X23236220Y-12206831D01*
X23212387Y-12212865D01*
X15057437Y-11139141D02*
X15057437Y-11239641D01*
X5669926Y-6447891D02*
X5669926Y-5147891D01*
X23129365Y-12465396D02*
X23158899Y-12467588D01*
X23187533Y-12474042D01*
X23214822Y-12484573D01*
X23240326Y-12499000D01*
X23263601Y-12517137D01*
X23270788Y-12523977D01*
X9451126Y-8344465D02*
X9443887Y-8370392D01*
X9424959Y-8388431D01*
X9401126Y-8394466D01*
X18817437Y-11089141D02*
X18843364Y-11096380D01*
X18861403Y-11115308D01*
X18867437Y-11139141D01*
X9956126Y-8344465D02*
X9956126Y-7044465D01*
X11142664Y-12465391D02*
X11168225Y-12466682D01*
X11193048Y-12470470D01*
X11228623Y-12480561D01*
X11261829Y-12495565D01*
X11292243Y-12515057D01*
X11319441Y-12538615D01*
X11342998Y-12565812D01*
X11362491Y-12596226D01*
X11377494Y-12629433D01*
X11387585Y-12665008D01*
X11391373Y-12689830D01*
X11392664Y-12715391D01*
X10829887Y-10812866D02*
X10855814Y-10820104D01*
X10873853Y-10839033D01*
X10879887Y-10862866D01*
X14639887Y-5097866D02*
X14665814Y-5105104D01*
X14683853Y-5124033D01*
X14689887Y-5147866D01*
X16673637Y-12689141D02*
X16647710Y-12681903D01*
X16629672Y-12662974D01*
X16623637Y-12639141D01*
X5669887Y-10862866D02*
X5677126Y-10836939D01*
X5696054Y-10818900D01*
X5719887Y-10812866D01*
X23529262Y-7544691D02*
X23522024Y-7570618D01*
X23503095Y-7588657D01*
X23479262Y-7594691D01*
X18102400Y-8907866D02*
X19402400Y-8907866D01*
X21436126Y-6994465D02*
X22736126Y-6994465D01*
X23270788Y-12523977D02*
X23753767Y-13006966D01*
X16623637Y-11339141D02*
X16630876Y-11313214D01*
X16649804Y-11295176D01*
X16673637Y-11289141D01*
X14407437Y-12689141D02*
X14381510Y-12681903D01*
X14363472Y-12662974D01*
X14357437Y-12639141D01*
X18449887Y-5097866D02*
X18475814Y-5105104D01*
X18493853Y-5124033D01*
X18499887Y-5147866D01*
X6654241Y-4545387D02*
G75*
G03*
X6654241Y-4545387I-125000J0D01*
G01*
X23817387Y-12212865D02*
X23791460Y-12205627D01*
X23773422Y-12186698D01*
X23767387Y-12162865D01*
X19402400Y-8907866D02*
X19428327Y-8915104D01*
X19446365Y-8934033D01*
X19452400Y-8957866D01*
X11861126Y-7044465D02*
X11868364Y-7018539D01*
X11887293Y-7000500D01*
X11911126Y-6994465D01*
X7624887Y-12212865D02*
X7598960Y-12205627D01*
X7580922Y-12186698D01*
X7574887Y-12162865D01*
X18102400Y-10307866D02*
X18076473Y-10300627D01*
X18058435Y-10281698D01*
X18052400Y-10257866D01*
X15166126Y-7044465D02*
X15166126Y-8344465D01*
X6196126Y-8907891D02*
X7496126Y-8907891D01*
X12861137Y-11089641D02*
X12887064Y-11096880D01*
X12905103Y-11115808D01*
X12911137Y-11139641D01*
X21912387Y-10812866D02*
X23212387Y-10812866D01*
X21307387Y-10812866D02*
X21333314Y-10820104D01*
X21351353Y-10839033D01*
X21357387Y-10862866D01*
X18976126Y-7044465D02*
X18976126Y-8344465D01*
D11*
X5665625Y-13389540D02*
X5665625Y-13189540D01*
X5665625Y-13189540D02*
X5713244Y-13189540D01*
X5713244Y-13189540D02*
X5741815Y-13199064D01*
X5741815Y-13199064D02*
X5760863Y-13218111D01*
X5760863Y-13218111D02*
X5770386Y-13237159D01*
X5770386Y-13237159D02*
X5779910Y-13275254D01*
X5779910Y-13275254D02*
X5779910Y-13303825D01*
X5779910Y-13303825D02*
X5770386Y-13341921D01*
X5770386Y-13341921D02*
X5760863Y-13360968D01*
X5760863Y-13360968D02*
X5741815Y-13380016D01*
X5741815Y-13380016D02*
X5713244Y-13389540D01*
X5713244Y-13389540D02*
X5665625Y-13389540D01*
X5865625Y-13389540D02*
X5865625Y-13256206D01*
X5865625Y-13294302D02*
X5875148Y-13275254D01*
X5875148Y-13275254D02*
X5884672Y-13265730D01*
X5884672Y-13265730D02*
X5903720Y-13256206D01*
X5903720Y-13256206D02*
X5922767Y-13256206D01*
X5989434Y-13389540D02*
X5989434Y-13256206D01*
X5989434Y-13189540D02*
X5979910Y-13199064D01*
X5979910Y-13199064D02*
X5989434Y-13208587D01*
X5989434Y-13208587D02*
X5998958Y-13199064D01*
X5998958Y-13199064D02*
X5989434Y-13189540D01*
X5989434Y-13189540D02*
X5989434Y-13208587D01*
X6113244Y-13389540D02*
X6094196Y-13380016D01*
X6094196Y-13380016D02*
X6084672Y-13360968D01*
X6084672Y-13360968D02*
X6084672Y-13189540D01*
X6218005Y-13389540D02*
X6198958Y-13380016D01*
X6198958Y-13380016D02*
X6189434Y-13360968D01*
X6189434Y-13360968D02*
X6189434Y-13189540D01*
X6446577Y-13389540D02*
X6446577Y-13189540D01*
X6446577Y-13189540D02*
X6513244Y-13332397D01*
X6513244Y-13332397D02*
X6579910Y-13189540D01*
X6579910Y-13189540D02*
X6579910Y-13389540D01*
X6760863Y-13389540D02*
X6760863Y-13284778D01*
X6760863Y-13284778D02*
X6751339Y-13265730D01*
X6751339Y-13265730D02*
X6732291Y-13256206D01*
X6732291Y-13256206D02*
X6694196Y-13256206D01*
X6694196Y-13256206D02*
X6675148Y-13265730D01*
X6760863Y-13380016D02*
X6741815Y-13389540D01*
X6741815Y-13389540D02*
X6694196Y-13389540D01*
X6694196Y-13389540D02*
X6675148Y-13380016D01*
X6675148Y-13380016D02*
X6665625Y-13360968D01*
X6665625Y-13360968D02*
X6665625Y-13341921D01*
X6665625Y-13341921D02*
X6675148Y-13322873D01*
X6675148Y-13322873D02*
X6694196Y-13313349D01*
X6694196Y-13313349D02*
X6741815Y-13313349D01*
X6741815Y-13313349D02*
X6760863Y-13303825D01*
X6856101Y-13256206D02*
X6856101Y-13456206D01*
X6856101Y-13265730D02*
X6875148Y-13256206D01*
X6875148Y-13256206D02*
X6913244Y-13256206D01*
X6913244Y-13256206D02*
X6932291Y-13265730D01*
X6932291Y-13265730D02*
X6941815Y-13275254D01*
X6941815Y-13275254D02*
X6951339Y-13294302D01*
X6951339Y-13294302D02*
X6951339Y-13351444D01*
X6951339Y-13351444D02*
X6941815Y-13370492D01*
X6941815Y-13370492D02*
X6932291Y-13380016D01*
X6932291Y-13380016D02*
X6913244Y-13389540D01*
X6913244Y-13389540D02*
X6875148Y-13389540D01*
X6875148Y-13389540D02*
X6856101Y-13380016D01*
X7037053Y-13370492D02*
X7046577Y-13380016D01*
X7046577Y-13380016D02*
X7037053Y-13389540D01*
X7037053Y-13389540D02*
X7027529Y-13380016D01*
X7027529Y-13380016D02*
X7037053Y-13370492D01*
X7037053Y-13370492D02*
X7037053Y-13389540D01*
X7037053Y-13265730D02*
X7046577Y-13275254D01*
X7046577Y-13275254D02*
X7037053Y-13284778D01*
X7037053Y-13284778D02*
X7027529Y-13275254D01*
X7027529Y-13275254D02*
X7037053Y-13265730D01*
X7037053Y-13265730D02*
X7037053Y-13284778D01*
M02*
