%TF.GenerationSoftware,KiCad,Pcbnew,7.0.6*%
%TF.CreationDate,2023-08-05T15:34:41-04:00*%
%TF.ProjectId,cutiepie-symmetrical-all-stagger-plate,63757469-6570-4696-952d-73796d6d6574,rev?*%
%TF.SameCoordinates,Original*%
%TF.FileFunction,Drillmap*%
%TF.FilePolarity,Positive*%
%FSLAX45Y45*%
G04 Gerber Fmt 4.5, Leading zero omitted, Abs format (unit mm)*
G04 Created by KiCad (PCBNEW 7.0.6) date 2023-08-05 15:34:41*
%MOMM*%
%LPD*%
G01*
G04 APERTURE LIST*
%ADD10C,0.250000*%
%ADD11C,0.200000*%
G04 APERTURE END LIST*
D10*
X12923188Y-6855064D02*
X12897261Y-6847826D01*
X12879223Y-6828897D01*
X12873188Y-6805064D01*
X23400629Y-11170064D02*
X24700629Y-11170064D01*
X21445668Y-11220064D02*
X21452907Y-11194137D01*
X21471835Y-11176099D01*
X21495668Y-11170064D01*
X24461736Y-13364166D02*
X24944587Y-12881325D01*
X15363118Y-11596829D02*
X15363118Y-11496329D01*
X5729479Y-9315064D02*
X5736718Y-9289138D01*
X5755646Y-9271099D01*
X5779479Y-9265064D01*
X14223188Y-5455064D02*
X14249115Y-5462303D01*
X14267153Y-5481231D01*
X14273188Y-5505064D01*
X14828149Y-6855064D02*
X14802222Y-6847826D01*
X14784183Y-6828897D01*
X14778149Y-6805064D01*
X6603188Y-11170064D02*
X6629115Y-11177303D01*
X6647153Y-11196231D01*
X6653188Y-11220064D01*
X19938188Y-6855064D02*
X18638188Y-6855064D01*
X14778149Y-5505064D02*
X14785387Y-5479138D01*
X14804316Y-5461099D01*
X14828149Y-5455064D01*
X24274418Y-5505079D02*
X24267180Y-5479152D01*
X24248251Y-5461114D01*
X24224418Y-5455079D01*
X15363118Y-11496329D02*
X15370357Y-11470402D01*
X15389285Y-11452364D01*
X15413118Y-11446329D01*
X22795668Y-12570064D02*
X21495668Y-12570064D01*
X5491282Y-7410064D02*
X5498520Y-7384137D01*
X5517449Y-7366099D01*
X5541282Y-7360064D01*
X25003167Y-12739904D02*
X25003207Y-5285420D01*
X15304399Y-7360064D02*
X16604399Y-7360064D01*
X16683188Y-5505064D02*
X16690426Y-5479138D01*
X16709355Y-5461099D01*
X16733188Y-5455064D01*
X7182090Y-5143996D02*
X6699247Y-4661153D01*
X23062543Y-6855579D02*
X23088470Y-6862818D01*
X23106508Y-6881746D01*
X23112543Y-6905579D01*
X18083188Y-5505064D02*
X18083188Y-6805064D01*
X17459418Y-11646329D02*
X17485345Y-11639090D01*
X17503384Y-11620162D01*
X17509418Y-11596329D01*
X5253188Y-11220064D02*
X5260427Y-11194137D01*
X5279355Y-11176099D01*
X5303188Y-11170064D01*
X20543149Y-6855064D02*
X20517222Y-6847826D01*
X20499183Y-6828897D01*
X20493149Y-6805064D01*
X15304399Y-8760064D02*
X15278472Y-8752826D01*
X15260433Y-8733897D01*
X15254399Y-8710064D01*
X14778149Y-6805064D02*
X14778149Y-5505064D01*
X20969399Y-7410064D02*
X20976637Y-7384137D01*
X20995566Y-7366099D01*
X21019399Y-7360064D01*
X22712825Y-5202579D02*
X7323511Y-5202575D01*
X11603129Y-13046329D02*
X11577202Y-13039090D01*
X11559164Y-13020162D01*
X11553129Y-12996329D01*
X19064438Y-8710064D02*
X19064438Y-7410064D01*
X17209438Y-8760064D02*
X17183511Y-8752826D01*
X17165473Y-8733897D01*
X17159438Y-8710064D01*
X22874418Y-5505079D02*
X22874418Y-6805579D01*
X13796929Y-11696329D02*
X13796929Y-12996329D01*
X6653188Y-11220064D02*
X6653188Y-12520064D01*
X24712543Y-8601879D02*
X24712543Y-8001879D01*
X12318188Y-6855064D02*
X11018188Y-6855064D01*
X10413149Y-12570064D02*
X9113149Y-12570064D01*
X10463149Y-11220064D02*
X10463149Y-12520064D01*
X8984438Y-8760064D02*
X7684438Y-8760064D01*
X8984438Y-7360064D02*
X9010365Y-7367303D01*
X9028403Y-7386231D01*
X9034438Y-7410064D01*
X6891282Y-8710064D02*
X6884043Y-8735991D01*
X6865115Y-8754030D01*
X6841282Y-8760064D01*
X19938188Y-5455064D02*
X19964115Y-5462303D01*
X19982153Y-5481231D01*
X19988188Y-5505064D01*
X14749438Y-7410064D02*
X14749438Y-8710064D01*
X21843149Y-5455064D02*
X21869076Y-5462303D01*
X21887114Y-5481231D01*
X21893149Y-5505064D01*
X20493149Y-5505064D02*
X20500387Y-5479138D01*
X20519316Y-5461099D01*
X20543149Y-5455064D01*
X7634438Y-8710064D02*
X7634438Y-7410064D01*
X11444438Y-7410064D02*
X11451676Y-7384137D01*
X11470605Y-7366099D01*
X11494438Y-7360064D01*
X12544429Y-11646329D02*
X13746929Y-11646329D01*
X18033188Y-6855064D02*
X16733188Y-6855064D01*
X7182050Y-12881142D02*
X7204111Y-12862085D01*
X7228485Y-12846558D01*
X7254753Y-12834740D01*
X7282493Y-12826806D01*
X7311282Y-12822936D01*
X7321040Y-12822579D01*
X10725945Y-12822579D02*
X10751506Y-12823870D01*
X10776329Y-12827658D01*
X10811904Y-12837749D01*
X10845110Y-12852753D01*
X10875524Y-12872245D01*
X10902722Y-12895802D01*
X10926279Y-12923000D01*
X10945772Y-12953414D01*
X10960775Y-12986621D01*
X10970866Y-13022195D01*
X10974654Y-13047018D01*
X10975945Y-13072579D01*
X10889399Y-8760064D02*
X9589399Y-8760064D01*
X19114438Y-8760064D02*
X19088511Y-8752826D01*
X19070473Y-8733897D01*
X19064438Y-8710064D01*
X18450718Y-12996329D02*
X18443480Y-13022256D01*
X18424551Y-13040294D01*
X18400718Y-13046329D01*
X16063118Y-11496329D02*
X16063118Y-12996329D01*
X10939399Y-8710064D02*
X10932160Y-8735991D01*
X10913232Y-8754030D01*
X10889399Y-8760064D01*
X7317579Y-10665064D02*
X5779479Y-10665064D01*
X5059247Y-5143996D02*
X5039913Y-5166429D01*
X5024230Y-5191239D01*
X5012380Y-5217982D01*
X5004547Y-5246217D01*
X5000914Y-5275500D01*
X5000668Y-5285417D01*
X24700629Y-9265064D02*
X24726556Y-9272303D01*
X24744594Y-9291231D01*
X24750629Y-9315064D01*
X21445668Y-12520064D02*
X21445668Y-11220064D01*
X24750629Y-9315064D02*
X24750629Y-10615064D01*
X22319399Y-8760064D02*
X21019399Y-8760064D01*
X18450718Y-11496329D02*
X18450718Y-12996329D01*
X5253188Y-5505064D02*
X5260427Y-5479138D01*
X5279355Y-5461099D01*
X5303188Y-5455064D01*
X20414438Y-7360064D02*
X20440365Y-7367303D01*
X20458403Y-7386231D01*
X20464438Y-7410064D01*
X19988188Y-6805064D02*
X19980949Y-6830991D01*
X19962021Y-6849030D01*
X19938188Y-6855064D01*
X6247522Y-4902575D02*
G75*
G03*
X6247522Y-4902575I-135000J0D01*
G01*
X22924418Y-6855579D02*
X23062543Y-6855579D01*
X16206918Y-12996329D02*
X16206918Y-11696329D01*
X6841282Y-7360064D02*
X6867209Y-7367303D01*
X6885247Y-7386231D01*
X6891282Y-7410064D01*
X20493149Y-6805064D02*
X20493149Y-5505064D01*
X13349438Y-7410064D02*
X13356676Y-7384137D01*
X13375605Y-7366099D01*
X13399438Y-7360064D01*
X23478515Y-4602575D02*
X23448981Y-4604766D01*
X23420348Y-4611220D01*
X23393058Y-4621751D01*
X23367555Y-4636177D01*
X23344280Y-4654314D01*
X23337094Y-4661153D01*
X21495668Y-12570064D02*
X21469741Y-12562826D01*
X21451703Y-12543897D01*
X21445668Y-12520064D01*
X20940668Y-12520064D02*
X20933430Y-12545991D01*
X20914501Y-12564030D01*
X20890668Y-12570064D01*
X14699438Y-7360064D02*
X14725365Y-7367303D01*
X14743403Y-7386231D01*
X14749438Y-7410064D01*
X9113149Y-12570064D02*
X9087222Y-12562826D01*
X9069183Y-12543897D01*
X9063149Y-12520064D01*
X23478469Y-13422734D02*
X24320314Y-13422743D01*
X12873188Y-6805064D02*
X12873188Y-5505064D01*
X8110629Y-10615064D02*
X8110629Y-9315064D01*
X7323511Y-5202575D02*
X7293977Y-5200383D01*
X7265344Y-5193929D01*
X7238054Y-5183398D01*
X7212551Y-5168972D01*
X7189276Y-5150835D01*
X7182090Y-5143996D01*
X22795668Y-11170064D02*
X22821595Y-11177303D01*
X22839633Y-11196231D01*
X22845668Y-11220064D01*
X12444429Y-11446329D02*
X12444429Y-11446829D01*
X10413149Y-11170064D02*
X10439076Y-11177303D01*
X10457114Y-11196231D01*
X10463149Y-11220064D01*
X5542090Y-4661153D02*
X5059247Y-5143996D01*
X21893149Y-6805064D02*
X21885910Y-6830991D01*
X21866982Y-6849030D01*
X21843149Y-6855064D01*
X9063149Y-11220064D02*
X9070387Y-11194137D01*
X9089316Y-11176099D01*
X9113149Y-11170064D01*
X17159438Y-7410064D02*
X17166677Y-7384137D01*
X17185605Y-7366099D01*
X17209438Y-7360064D01*
X19540668Y-11220064D02*
X19547907Y-11194137D01*
X19566835Y-11176099D01*
X19590668Y-11170064D01*
X14828149Y-5455064D02*
X16128149Y-5455064D01*
X25003207Y-5285420D02*
X25001015Y-5255886D01*
X24994561Y-5227253D01*
X24984030Y-5199964D01*
X24969604Y-5174460D01*
X24951466Y-5151186D01*
X24944627Y-5143999D01*
X8508188Y-11170064D02*
X8534115Y-11177303D01*
X8552153Y-11196231D01*
X8558188Y-11220064D01*
X12444429Y-11446829D02*
X12470356Y-11454068D01*
X12488394Y-11472996D01*
X12494429Y-11496829D01*
X14749438Y-8710064D02*
X14742199Y-8735991D01*
X14723271Y-8754030D01*
X14699438Y-8760064D01*
X7367579Y-9315064D02*
X7367579Y-10615064D01*
X5253188Y-12520064D02*
X5253188Y-11220064D01*
X24944587Y-12881325D02*
X24963921Y-12858892D01*
X24979604Y-12834082D01*
X24991455Y-12807339D01*
X24999288Y-12779105D01*
X25002921Y-12749822D01*
X25003167Y-12739904D01*
X22319399Y-7360064D02*
X22345326Y-7367303D01*
X22363364Y-7386231D01*
X22369399Y-7410064D01*
X6247522Y-13122764D02*
G75*
G03*
X6247522Y-13122764I-135000J0D01*
G01*
X14640718Y-11496329D02*
X14640718Y-11596829D01*
X10463149Y-12520064D02*
X10455910Y-12545991D01*
X10436982Y-12564030D01*
X10413149Y-12570064D01*
X23062543Y-7951879D02*
X23036616Y-7959118D01*
X23018578Y-7978046D01*
X23012543Y-8001879D01*
X9063149Y-6805064D02*
X9063149Y-5505064D01*
X8558188Y-6805064D02*
X8550949Y-6830991D01*
X8532021Y-6849030D01*
X8508188Y-6855064D01*
X19057740Y-13072579D02*
X19059031Y-13047018D01*
X19062819Y-13022195D01*
X19072910Y-12986620D01*
X19087914Y-12953414D01*
X19107407Y-12923000D01*
X19130964Y-12895802D01*
X19158162Y-12872245D01*
X19188576Y-12852753D01*
X19221782Y-12837749D01*
X19257357Y-12827658D01*
X19282180Y-12823870D01*
X19307741Y-12822579D01*
X24026291Y-13122737D02*
G75*
G03*
X24026291Y-13122737I-135000J0D01*
G01*
X9539399Y-7410064D02*
X9546637Y-7384137D01*
X9565566Y-7366099D01*
X9589399Y-7360064D01*
X5059206Y-12881120D02*
X5542044Y-13363968D01*
X13746929Y-13046329D02*
X11603129Y-13046329D01*
X13990718Y-11446329D02*
X14590718Y-11446329D01*
X19064438Y-7410064D02*
X19071677Y-7384137D01*
X19090605Y-7366099D01*
X19114438Y-7360064D01*
X8508188Y-12570064D02*
X7208188Y-12570064D01*
X9589399Y-7360064D02*
X10889399Y-7360064D01*
X6603188Y-12570064D02*
X5303188Y-12570064D01*
X11018188Y-6855064D02*
X10992261Y-6847826D01*
X10974223Y-6828897D01*
X10968188Y-6805064D01*
X18400718Y-11446329D02*
X18426645Y-11453568D01*
X18444684Y-11472496D01*
X18450718Y-11496329D01*
X11202117Y-13298751D02*
X18831568Y-13298751D01*
X22369399Y-8710064D02*
X22362160Y-8735991D01*
X22343232Y-8754030D01*
X22319399Y-8760064D01*
X12844438Y-8710064D02*
X12837199Y-8735991D01*
X12818271Y-8754030D01*
X12794438Y-8760064D01*
X24750629Y-10615064D02*
X24743390Y-10640991D01*
X24724462Y-10659030D01*
X24700629Y-10665064D01*
X5683465Y-13422548D02*
X6557780Y-13422557D01*
X24026291Y-4902576D02*
G75*
G03*
X24026291Y-4902576I-135000J0D01*
G01*
X8160629Y-9265064D02*
X24700629Y-9265064D01*
X23012543Y-8601879D02*
X23019782Y-8627806D01*
X23038710Y-8645844D01*
X23062543Y-8651879D01*
X10889399Y-7360064D02*
X10915326Y-7367303D01*
X10933364Y-7386231D01*
X10939399Y-7410064D01*
X14273188Y-5505064D02*
X14273188Y-6805064D01*
X5491282Y-8710064D02*
X5491282Y-7410064D01*
X11553129Y-11496329D02*
X11560368Y-11470402D01*
X11579296Y-11452364D01*
X11603129Y-11446329D01*
X6557780Y-13422557D02*
X6587313Y-13420366D01*
X6615947Y-13413913D01*
X6643236Y-13403382D01*
X6668740Y-13388956D01*
X6692015Y-13370819D01*
X6699202Y-13363980D01*
X16013118Y-13046329D02*
X13990718Y-13046329D01*
X23350629Y-11220064D02*
X23357868Y-11194137D01*
X23376796Y-11176099D01*
X23400629Y-11170064D01*
X12873188Y-5505064D02*
X12880426Y-5479138D01*
X12899355Y-5461099D01*
X12923188Y-5455064D01*
X24224418Y-5455079D02*
X22924418Y-5455079D01*
X16733188Y-6855064D02*
X16707261Y-6847826D01*
X16689223Y-6828897D01*
X16683188Y-6805064D01*
X8110629Y-9315064D02*
X8117868Y-9289138D01*
X8136796Y-9271099D01*
X8160629Y-9265064D01*
X19114438Y-7360064D02*
X20414438Y-7360064D01*
X12318188Y-5455064D02*
X12344115Y-5462303D01*
X12362153Y-5481231D01*
X12368188Y-5505064D01*
X8508188Y-6855064D02*
X7208188Y-6855064D01*
X24750629Y-11220064D02*
X24750629Y-12520064D01*
X16063118Y-12996329D02*
X16055880Y-13022256D01*
X16036951Y-13040294D01*
X16013118Y-13046329D01*
X21019399Y-8760064D02*
X20993472Y-8752826D01*
X20975433Y-8733897D01*
X20969399Y-8710064D01*
X16206918Y-11696329D02*
X16214157Y-11670402D01*
X16233085Y-11652364D01*
X16256918Y-11646329D01*
X14699438Y-8760064D02*
X13399438Y-8760064D01*
X5000629Y-12739698D02*
X5002821Y-12769232D01*
X5009274Y-12797865D01*
X5019805Y-12825155D01*
X5034230Y-12850659D01*
X5052368Y-12873934D01*
X5059206Y-12881120D01*
X5729479Y-10615064D02*
X5729479Y-9315064D01*
X11494438Y-8760064D02*
X11468511Y-8752826D01*
X11450473Y-8733897D01*
X11444438Y-8710064D01*
X23400629Y-12570064D02*
X23374702Y-12562826D01*
X23356664Y-12543897D01*
X23350629Y-12520064D01*
X23112543Y-8701879D02*
X23112543Y-8710579D01*
X18083188Y-6805064D02*
X18075949Y-6830991D01*
X18057021Y-6849030D01*
X18033188Y-6855064D01*
X10413149Y-6855064D02*
X9113149Y-6855064D01*
X24662543Y-8651879D02*
X24688470Y-8644641D01*
X24706508Y-8625712D01*
X24712543Y-8601879D01*
X6653188Y-5505064D02*
X6653188Y-6805064D01*
X10463149Y-6805064D02*
X10455910Y-6830991D01*
X10436982Y-6849030D01*
X10413149Y-6855064D01*
X18588188Y-6805064D02*
X18588188Y-5505064D01*
X24512543Y-7901879D02*
X24512543Y-6314279D01*
X24662543Y-6264279D02*
X24688470Y-6257040D01*
X24706508Y-6238112D01*
X24712543Y-6214279D01*
X12494429Y-11596329D02*
X12501668Y-11622256D01*
X12520596Y-11640294D01*
X12544429Y-11646329D01*
X24662543Y-7951879D02*
X24562543Y-7951879D01*
X11603129Y-11446329D02*
X12444429Y-11446329D01*
X17559418Y-11446829D02*
X18400718Y-11446829D01*
X7317579Y-9265064D02*
X7343506Y-9272303D01*
X7361544Y-9291231D01*
X7367579Y-9315064D01*
X21019399Y-7360064D02*
X22319399Y-7360064D01*
X12794438Y-8760064D02*
X11494438Y-8760064D01*
X14223188Y-6855064D02*
X12923188Y-6855064D01*
X6699202Y-13363980D02*
X7182050Y-12881142D01*
X23112543Y-7901879D02*
X23105305Y-7927806D01*
X23086376Y-7945844D01*
X23062543Y-7951879D01*
X7158188Y-5505064D02*
X7165426Y-5479138D01*
X7184355Y-5461099D01*
X7208188Y-5455064D01*
X7158188Y-6805064D02*
X7158188Y-5505064D01*
X6699247Y-4661153D02*
X6676814Y-4641819D01*
X6652004Y-4626136D01*
X6625260Y-4614286D01*
X6597026Y-4606453D01*
X6567743Y-4602820D01*
X6557826Y-4602575D01*
X24562543Y-8651879D02*
X24662543Y-8651879D01*
X11444438Y-8710064D02*
X11444438Y-7410064D01*
X16128149Y-5455064D02*
X16154075Y-5462303D01*
X16172114Y-5481231D01*
X16178149Y-5505064D01*
X5683511Y-4602575D02*
X5653977Y-4604766D01*
X5625344Y-4611220D01*
X5598054Y-4621751D01*
X5572551Y-4636177D01*
X5549276Y-4654314D01*
X5542090Y-4661153D01*
X18831568Y-13298751D02*
X18866011Y-13296145D01*
X18898824Y-13288583D01*
X18929622Y-13276449D01*
X18958022Y-13260125D01*
X18983640Y-13239997D01*
X19006092Y-13216447D01*
X19024996Y-13189859D01*
X19039966Y-13160618D01*
X19050619Y-13129105D01*
X19056572Y-13095707D01*
X19057740Y-13072582D01*
X10975945Y-13072579D02*
X10978551Y-13107023D01*
X10986113Y-13139836D01*
X10998248Y-13170634D01*
X11014572Y-13199034D01*
X11034701Y-13224652D01*
X11058251Y-13247105D01*
X11084839Y-13266008D01*
X11114081Y-13280978D01*
X11145594Y-13291631D01*
X11178993Y-13297584D01*
X11202117Y-13298751D01*
X7321040Y-12822579D02*
X10725945Y-12822579D01*
X24512543Y-8701879D02*
X24519782Y-8675952D01*
X24538710Y-8657914D01*
X24562543Y-8651879D01*
X23337048Y-13364154D02*
X23359482Y-13383488D01*
X23384291Y-13399172D01*
X23411034Y-13411022D01*
X23439269Y-13418855D01*
X23468551Y-13422488D01*
X23478469Y-13422734D01*
X9113149Y-11170064D02*
X10413149Y-11170064D01*
X14690718Y-11646829D02*
X15313118Y-11646829D01*
X5779479Y-9265064D02*
X7317579Y-9265064D01*
X24944627Y-5143999D02*
X24461781Y-4661153D01*
X12844438Y-7410064D02*
X12844438Y-8710064D01*
X20464438Y-8710064D02*
X20457199Y-8735991D01*
X20438271Y-8754030D01*
X20414438Y-8760064D01*
X16683188Y-6805064D02*
X16683188Y-5505064D01*
X16178149Y-6805064D02*
X16170910Y-6830991D01*
X16151982Y-6849030D01*
X16128149Y-6855064D01*
X13399438Y-7360064D02*
X14699438Y-7360064D01*
X12368188Y-5505064D02*
X12368188Y-6805064D01*
X13349438Y-8710064D02*
X13349438Y-7410064D01*
X24712543Y-6214279D02*
X24712543Y-5614279D01*
X24462543Y-8760579D02*
X24488470Y-8753341D01*
X24506508Y-8734412D01*
X24512543Y-8710579D01*
X22712646Y-12822584D02*
X22742180Y-12824776D01*
X22770814Y-12831230D01*
X22798103Y-12841761D01*
X22823607Y-12856187D01*
X22846882Y-12874325D01*
X22854069Y-12881164D01*
X16128149Y-6855064D02*
X14828149Y-6855064D01*
X17509418Y-11596329D02*
X17509418Y-11496829D01*
X24274418Y-5514279D02*
X24274418Y-5505079D01*
X18509438Y-8760064D02*
X17209438Y-8760064D01*
X19307741Y-12822579D02*
X22712646Y-12822584D01*
X5542044Y-13363968D02*
X5564477Y-13383302D01*
X5589287Y-13398986D01*
X5616030Y-13410836D01*
X5644264Y-13418669D01*
X5673547Y-13422302D01*
X5683465Y-13422548D01*
X9113149Y-6855064D02*
X9087222Y-6847826D01*
X9069183Y-6828897D01*
X9063149Y-6805064D01*
X24562543Y-7951879D02*
X24536616Y-7944640D01*
X24518578Y-7925712D01*
X24512543Y-7901879D01*
X24712543Y-5614279D02*
X24705305Y-5588352D01*
X24686376Y-5570314D01*
X24662543Y-5564279D01*
X18559438Y-7410064D02*
X18559438Y-8710064D01*
X24320314Y-13422743D02*
X24349847Y-13420552D01*
X24378481Y-13414099D01*
X24405770Y-13403568D01*
X24431274Y-13389142D01*
X24454549Y-13371005D01*
X24461736Y-13364166D01*
X7684438Y-8760064D02*
X7658511Y-8752826D01*
X7640473Y-8733897D01*
X7634438Y-8710064D01*
X7208188Y-12570064D02*
X7182261Y-12562826D01*
X7164223Y-12543897D01*
X7158188Y-12520064D01*
X19057740Y-13072582D02*
X19057740Y-13072579D01*
X16654399Y-7410064D02*
X16654399Y-8710064D01*
X5541282Y-8760064D02*
X5515355Y-8752826D01*
X5497317Y-8733897D01*
X5491282Y-8710064D01*
X17159438Y-8710064D02*
X17159438Y-7410064D01*
X13796929Y-12996329D02*
X13789690Y-13022256D01*
X13770762Y-13040294D01*
X13746929Y-13046329D01*
X15413118Y-11446329D02*
X16013118Y-11446329D01*
X24712543Y-8001879D02*
X24705305Y-7975952D01*
X24686376Y-7957914D01*
X24662543Y-7951879D01*
X7367579Y-10615064D02*
X7360340Y-10640991D01*
X7341412Y-10659030D01*
X7317579Y-10665064D01*
X6841282Y-8760064D02*
X5541282Y-8760064D01*
X23112543Y-6905579D02*
X23112543Y-7901879D01*
X24512543Y-6314279D02*
X24519782Y-6288352D01*
X24538710Y-6270314D01*
X24562543Y-6264279D01*
X5000668Y-5285417D02*
X5000668Y-9000452D01*
X18588188Y-5505064D02*
X18595427Y-5479138D01*
X18614355Y-5461099D01*
X18638188Y-5455064D01*
X14590718Y-11446329D02*
X14616645Y-11453568D01*
X14634683Y-11472496D01*
X14640718Y-11496329D01*
X5541282Y-7360064D02*
X6841282Y-7360064D01*
X8160629Y-10665064D02*
X8134702Y-10657826D01*
X8116664Y-10638897D01*
X8110629Y-10615064D01*
X7158188Y-11220064D02*
X7165426Y-11194137D01*
X7184355Y-11176099D01*
X7208188Y-11170064D01*
X5000668Y-9000452D02*
X5000629Y-12739698D01*
X15254399Y-7410064D02*
X15261637Y-7384137D01*
X15280566Y-7366099D01*
X15304399Y-7360064D01*
X16256918Y-11646329D02*
X17459418Y-11646329D01*
X12794438Y-7360064D02*
X12820365Y-7367303D01*
X12838403Y-7386231D01*
X12844438Y-7410064D01*
X7208188Y-11170064D02*
X8508188Y-11170064D01*
X22369399Y-7410064D02*
X22369399Y-8710064D01*
X21893149Y-5505064D02*
X21893149Y-6805064D01*
X7208188Y-6855064D02*
X7182261Y-6847826D01*
X7164223Y-6828897D01*
X7158188Y-6805064D01*
X15254399Y-8710064D02*
X15254399Y-7410064D01*
X9063149Y-12520064D02*
X9063149Y-11220064D01*
X20969399Y-8710064D02*
X20969399Y-7410064D01*
X15313118Y-11646829D02*
X15339045Y-11639590D01*
X15357083Y-11620662D01*
X15363118Y-11596829D01*
X24562543Y-6264279D02*
X24662543Y-6264279D01*
X5303188Y-6855064D02*
X5277261Y-6847826D01*
X5259223Y-6828897D01*
X5253188Y-6805064D01*
X19590668Y-12570064D02*
X19564741Y-12562826D01*
X19546703Y-12543897D01*
X19540668Y-12520064D01*
X20940668Y-11220064D02*
X20940668Y-12520064D01*
X7684438Y-7360064D02*
X8984438Y-7360064D01*
X9539399Y-8710064D02*
X9539399Y-7410064D01*
X6603188Y-6855064D02*
X5303188Y-6855064D01*
X10968188Y-5505064D02*
X10975427Y-5479138D01*
X10994355Y-5461099D01*
X11018188Y-5455064D01*
X23112543Y-8710579D02*
X23119782Y-8736506D01*
X23138710Y-8754544D01*
X23162543Y-8760579D01*
X11018188Y-5455064D02*
X12318188Y-5455064D01*
X24700629Y-12570064D02*
X23400629Y-12570064D01*
X16178149Y-5505064D02*
X16178149Y-6805064D01*
X20890668Y-11170064D02*
X20916595Y-11177303D01*
X20934634Y-11196231D01*
X20940668Y-11220064D01*
X24324418Y-5564279D02*
X24298491Y-5557041D01*
X24280453Y-5538112D01*
X24274418Y-5514279D01*
X5303188Y-11170064D02*
X6603188Y-11170064D01*
X18033188Y-5455064D02*
X18059115Y-5462303D01*
X18077153Y-5481231D01*
X18083188Y-5505064D01*
X12923188Y-5455064D02*
X14223188Y-5455064D01*
X23162543Y-8760579D02*
X24462543Y-8760579D01*
X17209438Y-7360064D02*
X18509438Y-7360064D01*
X9589399Y-8760064D02*
X9563472Y-8752826D01*
X9545433Y-8733897D01*
X9539399Y-8710064D01*
X8558188Y-11220064D02*
X8558188Y-12520064D01*
X10939399Y-7410064D02*
X10939399Y-8710064D01*
X16654399Y-8710064D02*
X16647160Y-8735991D01*
X16628232Y-8754030D01*
X16604399Y-8760064D01*
X16256918Y-13046329D02*
X16230991Y-13039090D01*
X16212953Y-13020162D01*
X16206918Y-12996329D01*
X23350629Y-12520064D02*
X23350629Y-11220064D01*
X18638188Y-6855064D02*
X18612261Y-6847826D01*
X18594223Y-6828897D01*
X18588188Y-6805064D01*
X22845668Y-12520064D02*
X22838430Y-12545991D01*
X22819501Y-12564030D01*
X22795668Y-12570064D01*
X13940718Y-11496329D02*
X13947957Y-11470402D01*
X13966885Y-11452364D01*
X13990718Y-11446329D01*
X12368188Y-6805064D02*
X12360949Y-6830991D01*
X12342021Y-6849030D01*
X12318188Y-6855064D01*
X19590668Y-11170064D02*
X20890668Y-11170064D01*
X10463149Y-5505064D02*
X10463149Y-6805064D01*
X12494429Y-11496829D02*
X12494429Y-11596329D01*
X23012543Y-8001879D02*
X23012543Y-8601879D01*
X9113149Y-5455064D02*
X10413149Y-5455064D01*
X11494438Y-7360064D02*
X12794438Y-7360064D01*
X21495668Y-11170064D02*
X22795668Y-11170064D01*
X6557826Y-4602575D02*
X5683511Y-4602575D01*
X6891282Y-7410064D02*
X6891282Y-8710064D01*
X5779479Y-10665064D02*
X5753552Y-10657826D01*
X5735514Y-10638897D01*
X5729479Y-10615064D01*
X24700629Y-10665064D02*
X8160629Y-10665064D01*
X22854069Y-12881164D02*
X23337048Y-13364154D01*
X13399438Y-8760064D02*
X13373511Y-8752826D01*
X13355473Y-8733897D01*
X13349438Y-8710064D01*
X17509418Y-11496829D02*
X17516657Y-11470902D01*
X17535585Y-11452864D01*
X17559418Y-11446829D01*
X6653188Y-6805064D02*
X6645949Y-6830991D01*
X6627021Y-6849030D01*
X6603188Y-6855064D01*
X24461781Y-4661153D02*
X24439348Y-4641819D01*
X24414538Y-4626136D01*
X24387794Y-4614286D01*
X24359560Y-4606453D01*
X24330277Y-4602820D01*
X24320360Y-4602575D01*
X16604399Y-7360064D02*
X16630325Y-7367303D01*
X16648364Y-7386231D01*
X16654399Y-7410064D01*
X22845668Y-11220064D02*
X22845668Y-12520064D01*
X10968188Y-6805064D02*
X10968188Y-5505064D01*
X24320360Y-4602575D02*
X23478515Y-4602575D01*
X14273188Y-6805064D02*
X14265949Y-6830991D01*
X14247021Y-6849030D01*
X14223188Y-6855064D01*
X18638188Y-5455064D02*
X19938188Y-5455064D01*
X5303188Y-5455064D02*
X6603188Y-5455064D01*
X24662543Y-5564279D02*
X24324418Y-5564279D01*
X16604399Y-8760064D02*
X15304399Y-8760064D01*
X19540668Y-12520064D02*
X19540668Y-11220064D01*
X20464438Y-7410064D02*
X20464438Y-8710064D01*
X22854247Y-5144000D02*
X22831813Y-5163334D01*
X22807004Y-5179017D01*
X22780260Y-5190867D01*
X22752026Y-5198700D01*
X22722743Y-5202333D01*
X22712825Y-5202579D01*
X23062543Y-8651879D02*
X23088470Y-8659118D01*
X23106508Y-8678046D01*
X23112543Y-8701879D01*
X13990718Y-13046329D02*
X13964791Y-13039090D01*
X13946753Y-13020162D01*
X13940718Y-12996329D01*
X13746929Y-11646329D02*
X13772856Y-11653568D01*
X13790894Y-11672496D01*
X13796929Y-11696329D01*
X6653188Y-12520064D02*
X6645949Y-12545991D01*
X6627021Y-12564030D01*
X6603188Y-12570064D01*
X9034438Y-8710064D02*
X9027199Y-8735991D01*
X9008271Y-8754030D01*
X8984438Y-8760064D01*
X20414438Y-8760064D02*
X19114438Y-8760064D01*
X16733188Y-5455064D02*
X18033188Y-5455064D01*
X18559438Y-8710064D02*
X18552199Y-8735991D01*
X18533271Y-8754030D01*
X18509438Y-8760064D01*
X21843149Y-6855064D02*
X20543149Y-6855064D01*
X9034438Y-7410064D02*
X9034438Y-8710064D01*
X22924418Y-5455079D02*
X22898491Y-5462318D01*
X22880453Y-5481246D01*
X22874418Y-5505079D01*
X8558188Y-5505064D02*
X8558188Y-6805064D01*
X13940718Y-12996329D02*
X13940718Y-11496329D01*
X7158188Y-12520064D02*
X7158188Y-11220064D01*
X16013118Y-11446329D02*
X16039045Y-11453568D01*
X16057083Y-11472496D01*
X16063118Y-11496329D01*
X24750629Y-12520064D02*
X24743390Y-12545991D01*
X24724462Y-12564030D01*
X24700629Y-12570064D01*
X18509438Y-7360064D02*
X18535365Y-7367303D01*
X18553403Y-7386231D01*
X18559438Y-7410064D01*
X10413149Y-5455064D02*
X10439076Y-5462303D01*
X10457114Y-5481231D01*
X10463149Y-5505064D01*
X20890668Y-12570064D02*
X19590668Y-12570064D01*
X5253188Y-6805064D02*
X5253188Y-5505064D01*
X7208188Y-5455064D02*
X8508188Y-5455064D01*
X6603188Y-5455064D02*
X6629115Y-5462303D01*
X6647153Y-5481231D01*
X6653188Y-5505064D01*
X8508188Y-5455064D02*
X8534115Y-5462303D01*
X8552153Y-5481231D01*
X8558188Y-5505064D01*
X8558188Y-12520064D02*
X8550949Y-12545991D01*
X8532021Y-12564030D01*
X8508188Y-12570064D01*
X5303188Y-12570064D02*
X5277261Y-12562826D01*
X5259223Y-12543897D01*
X5253188Y-12520064D01*
X22874418Y-6805579D02*
X22881657Y-6831506D01*
X22900585Y-6849544D01*
X22924418Y-6855579D01*
X18400718Y-11446829D02*
X18400718Y-11446329D01*
X20543149Y-5455064D02*
X21843149Y-5455064D01*
X14640718Y-11596829D02*
X14647957Y-11622756D01*
X14666885Y-11640794D01*
X14690718Y-11646829D01*
X11553129Y-12996329D02*
X11553129Y-11496329D01*
X7634438Y-7410064D02*
X7641676Y-7384137D01*
X7660605Y-7366099D01*
X7684438Y-7360064D01*
X24512543Y-8710579D02*
X24512543Y-8701879D01*
X24700629Y-11170064D02*
X24726556Y-11177303D01*
X24744594Y-11196231D01*
X24750629Y-11220064D01*
X18400718Y-13046329D02*
X16256918Y-13046329D01*
X9063149Y-5505064D02*
X9070387Y-5479138D01*
X9089316Y-5461099D01*
X9113149Y-5455064D01*
X23337094Y-4661153D02*
X22854247Y-5144000D01*
X19988188Y-5505064D02*
X19988188Y-6805064D01*
D11*
X5248906Y-13746728D02*
X5248906Y-13546728D01*
X5248906Y-13546728D02*
X5296525Y-13546728D01*
X5296525Y-13546728D02*
X5325096Y-13556251D01*
X5325096Y-13556251D02*
X5344144Y-13575299D01*
X5344144Y-13575299D02*
X5353667Y-13594347D01*
X5353667Y-13594347D02*
X5363191Y-13632442D01*
X5363191Y-13632442D02*
X5363191Y-13661013D01*
X5363191Y-13661013D02*
X5353667Y-13699108D01*
X5353667Y-13699108D02*
X5344144Y-13718156D01*
X5344144Y-13718156D02*
X5325096Y-13737204D01*
X5325096Y-13737204D02*
X5296525Y-13746728D01*
X5296525Y-13746728D02*
X5248906Y-13746728D01*
X5448906Y-13746728D02*
X5448906Y-13613394D01*
X5448906Y-13651489D02*
X5458429Y-13632442D01*
X5458429Y-13632442D02*
X5467953Y-13622918D01*
X5467953Y-13622918D02*
X5487001Y-13613394D01*
X5487001Y-13613394D02*
X5506048Y-13613394D01*
X5572715Y-13746728D02*
X5572715Y-13613394D01*
X5572715Y-13546728D02*
X5563191Y-13556251D01*
X5563191Y-13556251D02*
X5572715Y-13565775D01*
X5572715Y-13565775D02*
X5582239Y-13556251D01*
X5582239Y-13556251D02*
X5572715Y-13546728D01*
X5572715Y-13546728D02*
X5572715Y-13565775D01*
X5696524Y-13746728D02*
X5677477Y-13737204D01*
X5677477Y-13737204D02*
X5667953Y-13718156D01*
X5667953Y-13718156D02*
X5667953Y-13546728D01*
X5801286Y-13746728D02*
X5782239Y-13737204D01*
X5782239Y-13737204D02*
X5772715Y-13718156D01*
X5772715Y-13718156D02*
X5772715Y-13546728D01*
X6029858Y-13746728D02*
X6029858Y-13546728D01*
X6029858Y-13546728D02*
X6096525Y-13689585D01*
X6096525Y-13689585D02*
X6163191Y-13546728D01*
X6163191Y-13546728D02*
X6163191Y-13746728D01*
X6344144Y-13746728D02*
X6344144Y-13641966D01*
X6344144Y-13641966D02*
X6334620Y-13622918D01*
X6334620Y-13622918D02*
X6315572Y-13613394D01*
X6315572Y-13613394D02*
X6277477Y-13613394D01*
X6277477Y-13613394D02*
X6258429Y-13622918D01*
X6344144Y-13737204D02*
X6325096Y-13746728D01*
X6325096Y-13746728D02*
X6277477Y-13746728D01*
X6277477Y-13746728D02*
X6258429Y-13737204D01*
X6258429Y-13737204D02*
X6248905Y-13718156D01*
X6248905Y-13718156D02*
X6248905Y-13699108D01*
X6248905Y-13699108D02*
X6258429Y-13680061D01*
X6258429Y-13680061D02*
X6277477Y-13670537D01*
X6277477Y-13670537D02*
X6325096Y-13670537D01*
X6325096Y-13670537D02*
X6344144Y-13661013D01*
X6439382Y-13613394D02*
X6439382Y-13813394D01*
X6439382Y-13622918D02*
X6458429Y-13613394D01*
X6458429Y-13613394D02*
X6496525Y-13613394D01*
X6496525Y-13613394D02*
X6515572Y-13622918D01*
X6515572Y-13622918D02*
X6525096Y-13632442D01*
X6525096Y-13632442D02*
X6534620Y-13651489D01*
X6534620Y-13651489D02*
X6534620Y-13708632D01*
X6534620Y-13708632D02*
X6525096Y-13727680D01*
X6525096Y-13727680D02*
X6515572Y-13737204D01*
X6515572Y-13737204D02*
X6496525Y-13746728D01*
X6496525Y-13746728D02*
X6458429Y-13746728D01*
X6458429Y-13746728D02*
X6439382Y-13737204D01*
X6620334Y-13727680D02*
X6629858Y-13737204D01*
X6629858Y-13737204D02*
X6620334Y-13746728D01*
X6620334Y-13746728D02*
X6610810Y-13737204D01*
X6610810Y-13737204D02*
X6620334Y-13727680D01*
X6620334Y-13727680D02*
X6620334Y-13746728D01*
X6620334Y-13622918D02*
X6629858Y-13632442D01*
X6629858Y-13632442D02*
X6620334Y-13641966D01*
X6620334Y-13641966D02*
X6610810Y-13632442D01*
X6610810Y-13632442D02*
X6620334Y-13622918D01*
X6620334Y-13622918D02*
X6620334Y-13641966D01*
M02*
