%TF.GenerationSoftware,KiCad,Pcbnew,7.0.6*%
%TF.CreationDate,2023-08-05T15:34:36-04:00*%
%TF.ProjectId,cutiepie-symmetrical-all-stagger-plate,63757469-6570-4696-952d-73796d6d6574,rev?*%
%TF.SameCoordinates,Original*%
%TF.FileFunction,Profile,NP*%
%FSLAX46Y46*%
G04 Gerber Fmt 4.6, Leading zero omitted, Abs format (unit mm)*
G04 Created by KiCad (PCBNEW 7.0.6) date 2023-08-05 15:34:36*
%MOMM*%
%LPD*%
G01*
G04 APERTURE LIST*
%ADD10C,0.250000*%
%TA.AperFunction,Profile*%
%ADD11C,0.250000*%
%TD*%
G04 APERTURE END LIST*
D10*
X129231879Y-68550644D02*
X128972610Y-68478257D01*
X128792226Y-68288973D01*
X128731879Y-68050644D01*
D11*
X234006290Y-111700644D02*
X247006290Y-111700644D01*
D10*
X214456683Y-112200644D02*
X214529069Y-111941375D01*
X214718353Y-111760991D01*
X214956683Y-111700644D01*
D11*
X244617356Y-133641661D02*
X249445866Y-128813252D01*
X153631183Y-115968292D02*
X153631183Y-114963292D01*
D10*
X57294790Y-93150644D02*
X57367176Y-92891375D01*
X57556460Y-92710991D01*
X57794790Y-92650644D01*
X142231879Y-54550644D02*
X142491147Y-54623030D01*
X142671531Y-54812314D01*
X142731879Y-55050644D01*
X148281487Y-68550644D02*
X148022218Y-68478257D01*
X147841834Y-68288973D01*
X147781487Y-68050644D01*
X66031879Y-111700644D02*
X66291147Y-111773030D01*
X66471531Y-111962314D01*
X66531879Y-112200644D01*
D11*
X199381879Y-68550644D02*
X186381879Y-68550644D01*
D10*
X147781487Y-55050644D02*
X147853873Y-54791375D01*
X148043157Y-54610991D01*
X148281487Y-54550644D01*
X242744183Y-55050792D02*
X242671796Y-54791523D01*
X242482512Y-54611139D01*
X242244183Y-54550792D01*
X153631183Y-114963292D02*
X153703569Y-114704023D01*
X153892853Y-114523639D01*
X154131183Y-114463292D01*
D11*
X227956683Y-125700644D02*
X214956683Y-125700644D01*
D10*
X54912818Y-74100644D02*
X54985204Y-73841375D01*
X55174488Y-73660991D01*
X55412818Y-73600644D01*
D11*
X250031667Y-127399044D02*
X250032066Y-52854204D01*
X153043987Y-73600644D02*
X166043987Y-73600644D01*
D10*
X166831879Y-55050644D02*
X166904265Y-54791375D01*
X167093549Y-54610991D01*
X167331879Y-54550644D01*
D11*
X71820899Y-51439958D02*
X66992472Y-46611531D01*
D10*
X230625433Y-68555792D02*
X230884701Y-68628178D01*
X231065085Y-68817462D01*
X231125433Y-69055792D01*
D11*
X180831879Y-55050644D02*
X180831879Y-68050644D01*
D10*
X174594183Y-116463292D02*
X174853451Y-116390905D01*
X175033835Y-116201621D01*
X175094183Y-115963292D01*
X52531879Y-112200644D02*
X52604265Y-111941375D01*
X52793549Y-111760991D01*
X53031879Y-111700644D01*
X205431487Y-68550644D02*
X205172218Y-68478257D01*
X204991834Y-68288973D01*
X204931487Y-68050644D01*
X153043987Y-87600644D02*
X152784718Y-87528257D01*
X152604334Y-87338973D01*
X152543987Y-87100644D01*
D11*
X147781487Y-68050644D02*
X147781487Y-55050644D01*
D10*
X209693987Y-74100644D02*
X209766373Y-73841375D01*
X209955657Y-73660991D01*
X210193987Y-73600644D01*
D11*
X227128255Y-52025787D02*
X73235112Y-52025745D01*
D10*
X116031290Y-130463292D02*
X115772021Y-130390905D01*
X115591637Y-130201621D01*
X115531290Y-129963292D01*
D11*
X190644379Y-87100644D02*
X190644379Y-74100644D01*
D10*
X172094379Y-87600644D02*
X171835110Y-87528257D01*
X171654726Y-87338973D01*
X171594379Y-87100644D01*
D11*
X228744183Y-55050792D02*
X228744183Y-68055792D01*
X137969290Y-116963292D02*
X137969290Y-129963292D01*
X66531879Y-112200644D02*
X66531879Y-125200644D01*
X247125433Y-86018792D02*
X247125433Y-80018792D01*
X123181879Y-68550644D02*
X110181879Y-68550644D01*
X104131487Y-125700644D02*
X91131487Y-125700644D01*
X104631487Y-112200644D02*
X104631487Y-125200644D01*
X89844379Y-87600644D02*
X76844379Y-87600644D01*
D10*
X89844379Y-73600644D02*
X90103647Y-73673030D01*
X90284031Y-73862314D01*
X90344379Y-74100644D01*
X68912818Y-87100644D02*
X68840431Y-87359912D01*
X68651147Y-87540296D01*
X68412818Y-87600644D01*
X199381879Y-54550644D02*
X199641147Y-54623030D01*
X199821531Y-54812314D01*
X199881879Y-55050644D01*
D11*
X147494379Y-74100644D02*
X147494379Y-87100644D01*
D10*
X218431487Y-54550644D02*
X218690755Y-54623030D01*
X218871139Y-54812314D01*
X218931487Y-55050644D01*
X204931487Y-55050644D02*
X205003873Y-54791375D01*
X205193157Y-54610991D01*
X205431487Y-54550644D01*
D11*
X76344379Y-87100644D02*
X76344379Y-74100644D01*
D10*
X114444379Y-74100644D02*
X114516765Y-73841375D01*
X114706049Y-73660991D01*
X114944379Y-73600644D01*
D11*
X125444290Y-116463292D02*
X137469290Y-116463292D01*
X180331879Y-68550644D02*
X167331879Y-68550644D01*
D10*
X71820502Y-128811416D02*
X72041107Y-128620849D01*
X72284855Y-128465585D01*
X72547533Y-128347399D01*
X72824927Y-128268065D01*
X73112825Y-128229358D01*
X73210398Y-128225792D01*
X107259452Y-128225792D02*
X107515062Y-128238699D01*
X107763289Y-128276583D01*
X108119035Y-128377491D01*
X108451100Y-128527528D01*
X108755241Y-128722453D01*
X109027219Y-128958025D01*
X109262790Y-129230002D01*
X109457715Y-129534143D01*
X109607752Y-129866208D01*
X109708660Y-130221954D01*
X109746544Y-130470181D01*
X109759452Y-130725792D01*
D11*
X108893987Y-87600644D02*
X95893987Y-87600644D01*
D10*
X191144379Y-87600644D02*
X190885110Y-87528257D01*
X190704726Y-87338973D01*
X190644379Y-87100644D01*
X184507183Y-129963292D02*
X184434796Y-130222560D01*
X184245512Y-130402944D01*
X184007183Y-130463292D01*
D11*
X160631183Y-114963292D02*
X160631183Y-129963292D01*
D10*
X109393987Y-87100644D02*
X109321600Y-87359912D01*
X109132316Y-87540296D01*
X108893987Y-87600644D01*
D11*
X73175790Y-106650644D02*
X57794790Y-106650644D01*
D10*
X50592469Y-51439958D02*
X50399130Y-51664293D01*
X50242295Y-51912390D01*
X50123796Y-52179824D01*
X50045466Y-52462169D01*
X50009139Y-52754997D01*
X50006682Y-52854172D01*
X247006290Y-92650644D02*
X247265558Y-92723030D01*
X247445942Y-92912314D01*
X247506290Y-93150644D01*
D11*
X214456683Y-125200644D02*
X214456683Y-112200644D01*
X247506290Y-93150644D02*
X247506290Y-106150644D01*
X223193987Y-87600644D02*
X210193987Y-87600644D01*
X184507183Y-114963292D02*
X184507183Y-129963292D01*
D10*
X52531879Y-55050644D02*
X52604265Y-54791375D01*
X52793549Y-54610991D01*
X53031879Y-54550644D01*
X204144379Y-73600644D02*
X204403647Y-73673030D01*
X204584031Y-73862314D01*
X204644379Y-74100644D01*
X199881879Y-68050644D02*
X199809492Y-68309912D01*
X199620208Y-68490296D01*
X199381879Y-68550644D01*
D11*
X62475223Y-49025745D02*
G75*
G03*
X62475223Y-49025745I-1350000J0D01*
G01*
X229244183Y-68555792D02*
X230625433Y-68555792D01*
X162069183Y-129963292D02*
X162069183Y-116963292D01*
D10*
X68412818Y-73600644D02*
X68672086Y-73673030D01*
X68852470Y-73862314D01*
X68912818Y-74100644D01*
D11*
X204931487Y-68050644D02*
X204931487Y-55050644D01*
D10*
X133494379Y-74100644D02*
X133566765Y-73841375D01*
X133756049Y-73660991D01*
X133994379Y-73600644D01*
X234785152Y-46025745D02*
X234489812Y-46047663D01*
X234203481Y-46112195D01*
X233930585Y-46217507D01*
X233675551Y-46361768D01*
X233442803Y-46543142D01*
X233370939Y-46611531D01*
X214956683Y-125700644D02*
X214697414Y-125628257D01*
X214517030Y-125438973D01*
X214456683Y-125200644D01*
X209406683Y-125200644D02*
X209334296Y-125459912D01*
X209145012Y-125640296D01*
X208906683Y-125700644D01*
X146994379Y-73600644D02*
X147253647Y-73673030D01*
X147434031Y-73862314D01*
X147494379Y-74100644D01*
X91131487Y-125700644D02*
X90872218Y-125628257D01*
X90691834Y-125438973D01*
X90631487Y-125200644D01*
D11*
X234784690Y-134227344D02*
X243203136Y-134227432D01*
X128731879Y-68050644D02*
X128731879Y-55050644D01*
X81106290Y-106150644D02*
X81106290Y-93150644D01*
D10*
X73235112Y-52025745D02*
X72939772Y-52003826D01*
X72653441Y-51939294D01*
X72380545Y-51833981D01*
X72125511Y-51689721D01*
X71892763Y-51508346D01*
X71820899Y-51439958D01*
X227956683Y-111700644D02*
X228215951Y-111773030D01*
X228396335Y-111962314D01*
X228456683Y-112200644D01*
D11*
X124444290Y-114463292D02*
X124444290Y-114468292D01*
D10*
X104131487Y-111700644D02*
X104390755Y-111773030D01*
X104571139Y-111962314D01*
X104631487Y-112200644D01*
D11*
X55420896Y-46611531D02*
X50592469Y-51439958D01*
D10*
X218931487Y-68050644D02*
X218859100Y-68309912D01*
X218669816Y-68490296D01*
X218431487Y-68550644D01*
X90631487Y-112200644D02*
X90703873Y-111941375D01*
X90893157Y-111760991D01*
X91131487Y-111700644D01*
X171594379Y-74100644D02*
X171666765Y-73841375D01*
X171856049Y-73660991D01*
X172094379Y-73600644D01*
X195406683Y-112200644D02*
X195479069Y-111941375D01*
X195668353Y-111760991D01*
X195906683Y-111700644D01*
D11*
X148281487Y-54550644D02*
X161281487Y-54550644D01*
D10*
X250032066Y-52854204D02*
X250010146Y-52558864D01*
X249945612Y-52272533D01*
X249840298Y-51999637D01*
X249696036Y-51744603D01*
X249514660Y-51511855D01*
X249446271Y-51439991D01*
X85081879Y-111700644D02*
X85341147Y-111773030D01*
X85521531Y-111962314D01*
X85581879Y-112200644D01*
X124444290Y-114468292D02*
X124703558Y-114540678D01*
X124883942Y-114729962D01*
X124944290Y-114968292D01*
X147494379Y-87100644D02*
X147421992Y-87359912D01*
X147232708Y-87540296D01*
X146994379Y-87600644D01*
D11*
X73675790Y-93150644D02*
X73675790Y-106150644D01*
X52531879Y-125200644D02*
X52531879Y-112200644D01*
D10*
X249445866Y-128813252D02*
X249639206Y-128588918D01*
X249796044Y-128340822D01*
X249914546Y-128073389D01*
X249992878Y-127791046D01*
X250029208Y-127498218D01*
X250031667Y-127399044D01*
X223193987Y-73600644D02*
X223453255Y-73673030D01*
X223633639Y-73862314D01*
X223693987Y-74100644D01*
D11*
X62475223Y-131227644D02*
G75*
G03*
X62475223Y-131227644I-1350000J0D01*
G01*
X146407183Y-114963292D02*
X146407183Y-115968292D01*
D10*
X104631487Y-125200644D02*
X104559100Y-125459912D01*
X104369816Y-125640296D01*
X104131487Y-125700644D01*
X230625433Y-79518792D02*
X230366164Y-79591178D01*
X230185780Y-79780462D01*
X230125433Y-80018792D01*
D11*
X90631487Y-68050644D02*
X90631487Y-55050644D01*
D10*
X85581879Y-68050644D02*
X85509492Y-68309912D01*
X85320208Y-68490296D01*
X85081879Y-68550644D01*
X190577402Y-130725788D02*
X190590309Y-130470177D01*
X190628193Y-130221950D01*
X190729102Y-129866204D01*
X190879140Y-129534140D01*
X191074065Y-129229998D01*
X191309637Y-128958022D01*
X191581615Y-128722451D01*
X191885756Y-128527526D01*
X192217821Y-128377490D01*
X192573568Y-128276582D01*
X192821795Y-128238698D01*
X193077406Y-128225792D01*
D11*
X240262912Y-131227370D02*
G75*
G03*
X240262912Y-131227370I-1350000J0D01*
G01*
D10*
X95393987Y-74100644D02*
X95466373Y-73841375D01*
X95655657Y-73660991D01*
X95893987Y-73600644D01*
D11*
X50592064Y-128811202D02*
X55420440Y-133639680D01*
X137469290Y-130463292D02*
X116031290Y-130463292D01*
X139907183Y-114463292D02*
X145907183Y-114463292D01*
D10*
X190644379Y-74100644D02*
X190716765Y-73841375D01*
X190906049Y-73660991D01*
X191144379Y-73600644D01*
D11*
X85081879Y-125700644D02*
X72081879Y-125700644D01*
X95893987Y-73600644D02*
X108893987Y-73600644D01*
X66031879Y-125700644D02*
X53031879Y-125700644D01*
D10*
X110181879Y-68550644D02*
X109922610Y-68478257D01*
X109742226Y-68288973D01*
X109681879Y-68050644D01*
X184007183Y-114463292D02*
X184266451Y-114535678D01*
X184446835Y-114724962D01*
X184507183Y-114963292D01*
D11*
X112021175Y-132987515D02*
X188315680Y-132987515D01*
D10*
X223693987Y-87100644D02*
X223621600Y-87359912D01*
X223432316Y-87540296D01*
X223193987Y-87600644D01*
X128444379Y-87100644D02*
X128371992Y-87359912D01*
X128182708Y-87540296D01*
X127944379Y-87600644D01*
X247506290Y-106150644D02*
X247433903Y-106409912D01*
X247244619Y-106590296D01*
X247006290Y-106650644D01*
D11*
X56834648Y-134225481D02*
X65577796Y-134225573D01*
X240262912Y-49025763D02*
G75*
G03*
X240262912Y-49025763I-1350000J0D01*
G01*
X81606290Y-92650644D02*
X247006290Y-92650644D01*
D10*
X230125433Y-86018792D02*
X230197819Y-86278060D01*
X230387103Y-86458444D01*
X230625433Y-86518792D01*
X108893987Y-73600644D02*
X109153255Y-73673030D01*
X109333639Y-73862314D01*
X109393987Y-74100644D01*
D11*
X142731879Y-55050644D02*
X142731879Y-68050644D01*
X54912818Y-87100644D02*
X54912818Y-74100644D01*
D10*
X115531290Y-114963292D02*
X115603676Y-114704023D01*
X115792960Y-114523639D01*
X116031290Y-114463292D01*
X65577796Y-134225573D02*
X65873135Y-134203657D01*
X66159467Y-134139128D01*
X66432364Y-134033818D01*
X66687400Y-133889560D01*
X66920150Y-133708189D01*
X66992016Y-133639801D01*
D11*
X160131183Y-130463292D02*
X139907183Y-130463292D01*
D10*
X233506290Y-112200644D02*
X233578676Y-111941375D01*
X233767960Y-111760991D01*
X234006290Y-111700644D01*
X128731879Y-55050644D02*
X128804265Y-54791375D01*
X128993549Y-54610991D01*
X129231879Y-54550644D01*
D11*
X242244183Y-54550792D02*
X229244183Y-54550792D01*
D10*
X167331879Y-68550644D02*
X167072610Y-68478257D01*
X166892226Y-68288973D01*
X166831879Y-68050644D01*
X81106290Y-93150644D02*
X81178676Y-92891375D01*
X81367960Y-92710991D01*
X81606290Y-92650644D01*
D11*
X191144379Y-73600644D02*
X204144379Y-73600644D01*
D10*
X123181879Y-54550644D02*
X123441147Y-54623030D01*
X123621531Y-54812314D01*
X123681879Y-55050644D01*
D11*
X85081879Y-68550644D02*
X72081879Y-68550644D01*
X247506290Y-112200644D02*
X247506290Y-125200644D01*
D10*
X160631183Y-129963292D02*
X160558796Y-130222560D01*
X160369512Y-130402944D01*
X160131183Y-130463292D01*
X210193987Y-87600644D02*
X209934718Y-87528257D01*
X209754334Y-87338973D01*
X209693987Y-87100644D01*
X162069183Y-116963292D02*
X162141569Y-116704023D01*
X162330853Y-116523639D01*
X162569183Y-116463292D01*
D11*
X146994379Y-87600644D02*
X133994379Y-87600644D01*
D10*
X50006292Y-127396982D02*
X50028207Y-127692321D01*
X50092736Y-127978653D01*
X50198046Y-128251550D01*
X50342304Y-128506586D01*
X50523675Y-128739336D01*
X50592064Y-128811202D01*
D11*
X57294790Y-106150644D02*
X57294790Y-93150644D01*
D10*
X114944379Y-87600644D02*
X114685110Y-87528257D01*
X114504726Y-87338973D01*
X114444379Y-87100644D01*
X234006290Y-125700644D02*
X233747021Y-125628257D01*
X233566637Y-125438973D01*
X233506290Y-125200644D01*
D11*
X231125433Y-87018792D02*
X231125433Y-87105792D01*
D10*
X180831879Y-68050644D02*
X180759492Y-68309912D01*
X180570208Y-68490296D01*
X180331879Y-68550644D01*
D11*
X104131487Y-68550644D02*
X91131487Y-68550644D01*
D10*
X246625433Y-86518792D02*
X246884701Y-86446405D01*
X247065085Y-86257121D01*
X247125433Y-86018792D01*
D11*
X66531879Y-55050644D02*
X66531879Y-68050644D01*
D10*
X104631487Y-68050644D02*
X104559100Y-68309912D01*
X104369816Y-68490296D01*
X104131487Y-68550644D01*
D11*
X185881879Y-68050644D02*
X185881879Y-55050644D01*
X245125433Y-79018792D02*
X245125433Y-63142792D01*
D10*
X246625433Y-62642792D02*
X246884701Y-62570405D01*
X247065085Y-62381121D01*
X247125433Y-62142792D01*
X124944290Y-115963292D02*
X125016676Y-116222560D01*
X125205960Y-116402944D01*
X125444290Y-116463292D01*
D11*
X246625433Y-79518792D02*
X245625433Y-79518792D01*
X116031290Y-114463292D02*
X124444290Y-114463292D01*
X175594183Y-114468292D02*
X184007183Y-114468292D01*
D10*
X73175790Y-92650644D02*
X73435058Y-92723030D01*
X73615442Y-92912314D01*
X73675790Y-93150644D01*
D11*
X210193987Y-73600644D02*
X223193987Y-73600644D01*
X127944379Y-87600644D02*
X114944379Y-87600644D01*
X142231879Y-68550644D02*
X129231879Y-68550644D01*
X66992016Y-133639801D02*
X71820502Y-128811416D01*
D10*
X231125433Y-79018792D02*
X231053046Y-79278060D01*
X230863762Y-79458444D01*
X230625433Y-79518792D01*
X71581879Y-55050644D02*
X71654265Y-54791375D01*
X71843549Y-54610991D01*
X72081879Y-54550644D01*
D11*
X71581879Y-68050644D02*
X71581879Y-55050644D01*
D10*
X66992472Y-46611531D02*
X66768136Y-46418192D01*
X66520039Y-46261357D01*
X66252605Y-46142858D01*
X65970260Y-46064529D01*
X65677432Y-46028202D01*
X65578258Y-46025745D01*
D11*
X245625433Y-86518792D02*
X246625433Y-86518792D01*
X114444379Y-87100644D02*
X114444379Y-74100644D01*
D10*
X161281487Y-54550644D02*
X161540755Y-54623030D01*
X161721139Y-54812314D01*
X161781487Y-55050644D01*
X56835110Y-46025745D02*
X56539770Y-46047663D01*
X56253439Y-46112195D01*
X55980543Y-46217507D01*
X55725508Y-46361768D01*
X55492760Y-46543142D01*
X55420896Y-46611531D01*
X188315680Y-132987515D02*
X188660114Y-132961455D01*
X188988241Y-132885834D01*
X189296222Y-132764488D01*
X189580220Y-132601254D01*
X189836400Y-132399969D01*
X190060924Y-132164470D01*
X190249955Y-131898593D01*
X190399656Y-131606176D01*
X190506190Y-131291055D01*
X190565722Y-130957066D01*
X190577402Y-130725821D01*
X109759452Y-130725792D02*
X109785512Y-131070230D01*
X109861134Y-131398359D01*
X109982482Y-131706342D01*
X110145718Y-131990342D01*
X110347006Y-132246523D01*
X110582509Y-132471047D01*
X110848389Y-132660077D01*
X111140810Y-132809777D01*
X111455935Y-132916309D01*
X111789926Y-132975837D01*
X112021175Y-132987515D01*
D11*
X73210398Y-128225792D02*
X107259452Y-128225792D01*
D10*
X245125433Y-87018792D02*
X245197819Y-86759523D01*
X245387103Y-86579139D01*
X245625433Y-86518792D01*
X233370483Y-133641543D02*
X233594816Y-133834883D01*
X233842911Y-133991721D01*
X234110344Y-134110223D01*
X234392687Y-134188555D01*
X234685515Y-134224885D01*
X234784690Y-134227344D01*
D11*
X91131487Y-111700644D02*
X104131487Y-111700644D01*
X146907183Y-116468292D02*
X153131183Y-116468292D01*
X57794790Y-92650644D02*
X73175790Y-92650644D01*
X249446271Y-51439991D02*
X244617812Y-46611531D01*
X128444379Y-74100644D02*
X128444379Y-87100644D01*
D10*
X204644379Y-87100644D02*
X204571992Y-87359912D01*
X204382708Y-87540296D01*
X204144379Y-87600644D01*
D11*
X166831879Y-68050644D02*
X166831879Y-55050644D01*
D10*
X161781487Y-68050644D02*
X161709100Y-68309912D01*
X161519816Y-68490296D01*
X161281487Y-68550644D01*
D11*
X133994379Y-73600644D02*
X146994379Y-73600644D01*
X123681879Y-55050644D02*
X123681879Y-68050644D01*
X133494379Y-87100644D02*
X133494379Y-74100644D01*
X247125433Y-62142792D02*
X247125433Y-56142792D01*
D10*
X244625433Y-87605792D02*
X244884701Y-87533405D01*
X245065085Y-87344121D01*
X245125433Y-87105792D01*
X227126460Y-128225843D02*
X227421802Y-128247762D01*
X227708136Y-128312296D01*
X227981034Y-128417611D01*
X228236071Y-128561875D01*
X228468820Y-128743253D01*
X228540686Y-128811644D01*
D11*
X161281487Y-68550644D02*
X148281487Y-68550644D01*
X175094183Y-115963292D02*
X175094183Y-114968292D01*
X242744183Y-55142792D02*
X242744183Y-55050792D01*
X185094379Y-87600644D02*
X172094379Y-87600644D01*
X193077406Y-128225792D02*
X227126460Y-128225843D01*
D10*
X55420440Y-133639680D02*
X55644773Y-133833020D01*
X55892869Y-133989857D01*
X56160302Y-134108359D01*
X56442645Y-134186692D01*
X56735473Y-134223021D01*
X56834648Y-134225481D01*
X91131487Y-68550644D02*
X90872218Y-68478257D01*
X90691834Y-68288973D01*
X90631487Y-68050644D01*
X245625433Y-79518792D02*
X245366164Y-79446405D01*
X245185780Y-79257121D01*
X245125433Y-79018792D01*
X247125433Y-56142792D02*
X247053046Y-55883523D01*
X246863762Y-55703139D01*
X246625433Y-55642792D01*
D11*
X185594379Y-74100644D02*
X185594379Y-87100644D01*
D10*
X243203136Y-134227432D02*
X243498475Y-134205517D01*
X243784807Y-134140988D01*
X244057704Y-134035678D01*
X244312740Y-133891420D01*
X244545490Y-133710049D01*
X244617356Y-133641661D01*
X76844379Y-87600644D02*
X76585110Y-87528257D01*
X76404726Y-87338973D01*
X76344379Y-87100644D01*
X72081879Y-125700644D02*
X71822610Y-125628257D01*
X71642226Y-125438973D01*
X71581879Y-125200644D01*
X190577402Y-130725821D02*
X190577402Y-130725788D01*
D11*
X166543987Y-74100644D02*
X166543987Y-87100644D01*
D10*
X55412818Y-87600644D02*
X55153549Y-87528257D01*
X54973165Y-87338973D01*
X54912818Y-87100644D01*
D11*
X171594379Y-87100644D02*
X171594379Y-74100644D01*
D10*
X137969290Y-129963292D02*
X137896903Y-130222560D01*
X137707619Y-130402944D01*
X137469290Y-130463292D01*
D11*
X154131183Y-114463292D02*
X160131183Y-114463292D01*
D10*
X247125433Y-80018792D02*
X247053046Y-79759523D01*
X246863762Y-79579139D01*
X246625433Y-79518792D01*
X73675790Y-106150644D02*
X73603403Y-106409912D01*
X73414119Y-106590296D01*
X73175790Y-106650644D01*
D11*
X68412818Y-87600644D02*
X55412818Y-87600644D01*
X231125433Y-69055792D02*
X231125433Y-79018792D01*
D10*
X245125433Y-63142792D02*
X245197819Y-62883523D01*
X245387103Y-62703139D01*
X245625433Y-62642792D01*
D11*
X50006682Y-52854172D02*
X50006683Y-90004519D01*
D10*
X185881879Y-55050644D02*
X185954265Y-54791375D01*
X186143549Y-54610991D01*
X186381879Y-54550644D01*
X145907183Y-114463292D02*
X146166451Y-114535678D01*
X146346835Y-114724962D01*
X146407183Y-114963292D01*
D11*
X55412818Y-73600644D02*
X68412818Y-73600644D01*
D10*
X81606290Y-106650644D02*
X81347021Y-106578257D01*
X81166637Y-106388973D01*
X81106290Y-106150644D01*
X71581879Y-112200644D02*
X71654265Y-111941375D01*
X71843549Y-111760991D01*
X72081879Y-111700644D01*
D11*
X50006683Y-90004519D02*
X50006292Y-127396982D01*
D10*
X152543987Y-74100644D02*
X152616373Y-73841375D01*
X152805657Y-73660991D01*
X153043987Y-73600644D01*
D11*
X162569183Y-116463292D02*
X174594183Y-116463292D01*
D10*
X127944379Y-73600644D02*
X128203647Y-73673030D01*
X128384031Y-73862314D01*
X128444379Y-74100644D01*
D11*
X72081879Y-111700644D02*
X85081879Y-111700644D01*
X223693987Y-74100644D02*
X223693987Y-87100644D01*
X218931487Y-55050644D02*
X218931487Y-68050644D01*
D10*
X72081879Y-68550644D02*
X71822610Y-68478257D01*
X71642226Y-68288973D01*
X71581879Y-68050644D01*
D11*
X152543987Y-87100644D02*
X152543987Y-74100644D01*
X90631487Y-125200644D02*
X90631487Y-112200644D01*
X209693987Y-87100644D02*
X209693987Y-74100644D01*
D10*
X153131183Y-116468292D02*
X153390451Y-116395905D01*
X153570835Y-116206621D01*
X153631183Y-115968292D01*
D11*
X245625433Y-62642792D02*
X246625433Y-62642792D01*
D10*
X53031879Y-68550644D02*
X52772610Y-68478257D01*
X52592226Y-68288973D01*
X52531879Y-68050644D01*
X195906683Y-125700644D02*
X195647414Y-125628257D01*
X195467030Y-125438973D01*
X195406683Y-125200644D01*
D11*
X209406683Y-112200644D02*
X209406683Y-125200644D01*
X76844379Y-73600644D02*
X89844379Y-73600644D01*
X95393987Y-87100644D02*
X95393987Y-74100644D01*
X66031879Y-68550644D02*
X53031879Y-68550644D01*
D10*
X109681879Y-55050644D02*
X109754265Y-54791375D01*
X109943549Y-54610991D01*
X110181879Y-54550644D01*
X231125433Y-87105792D02*
X231197819Y-87365060D01*
X231387103Y-87545444D01*
X231625433Y-87605792D01*
D11*
X110181879Y-54550644D02*
X123181879Y-54550644D01*
X247006290Y-125700644D02*
X234006290Y-125700644D01*
X161781487Y-55050644D02*
X161781487Y-68050644D01*
D10*
X208906683Y-111700644D02*
X209165951Y-111773030D01*
X209346335Y-111962314D01*
X209406683Y-112200644D01*
X243244183Y-55642792D02*
X242984914Y-55570405D01*
X242804530Y-55381121D01*
X242744183Y-55142792D01*
D11*
X53031879Y-111700644D02*
X66031879Y-111700644D01*
D10*
X180331879Y-54550644D02*
X180591147Y-54623030D01*
X180771531Y-54812314D01*
X180831879Y-55050644D01*
D11*
X129231879Y-54550644D02*
X142231879Y-54550644D01*
X231625433Y-87605792D02*
X244625433Y-87605792D01*
X172094379Y-73600644D02*
X185094379Y-73600644D01*
D10*
X95893987Y-87600644D02*
X95634718Y-87528257D01*
X95454334Y-87338973D01*
X95393987Y-87100644D01*
D11*
X85581879Y-112200644D02*
X85581879Y-125200644D01*
X109393987Y-74100644D02*
X109393987Y-87100644D01*
D10*
X166543987Y-87100644D02*
X166471600Y-87359912D01*
X166282316Y-87540296D01*
X166043987Y-87600644D01*
X162569183Y-130463292D02*
X162309914Y-130390905D01*
X162129530Y-130201621D01*
X162069183Y-129963292D01*
D11*
X233506290Y-125200644D02*
X233506290Y-112200644D01*
D10*
X186381879Y-68550644D02*
X186122610Y-68478257D01*
X185942226Y-68288973D01*
X185881879Y-68050644D01*
X228456683Y-125200644D02*
X228384296Y-125459912D01*
X228195012Y-125640296D01*
X227956683Y-125700644D01*
X139407183Y-114963292D02*
X139479569Y-114704023D01*
X139668853Y-114523639D01*
X139907183Y-114463292D01*
X123681879Y-68050644D02*
X123609492Y-68309912D01*
X123420208Y-68490296D01*
X123181879Y-68550644D01*
D11*
X195906683Y-111700644D02*
X208906683Y-111700644D01*
X104631487Y-55050644D02*
X104631487Y-68050644D01*
X124944290Y-114968292D02*
X124944290Y-115963292D01*
X230125433Y-80018792D02*
X230125433Y-86018792D01*
X91131487Y-54550644D02*
X104131487Y-54550644D01*
X114944379Y-73600644D02*
X127944379Y-73600644D01*
X214956683Y-111700644D02*
X227956683Y-111700644D01*
X65578258Y-46025745D02*
X56835110Y-46025745D01*
X68912818Y-74100644D02*
X68912818Y-87100644D01*
D10*
X57794790Y-106650644D02*
X57535521Y-106578257D01*
X57355137Y-106388973D01*
X57294790Y-106150644D01*
D11*
X247006290Y-106650644D02*
X81606290Y-106650644D01*
X228540686Y-128811644D02*
X233370483Y-133641543D01*
D10*
X133994379Y-87600644D02*
X133735110Y-87528257D01*
X133554726Y-87338973D01*
X133494379Y-87100644D01*
X175094183Y-114968292D02*
X175166569Y-114709023D01*
X175355853Y-114528639D01*
X175594183Y-114468292D01*
X66531879Y-68050644D02*
X66459492Y-68309912D01*
X66270208Y-68490296D01*
X66031879Y-68550644D01*
X244617812Y-46611531D02*
X244393476Y-46418192D01*
X244145379Y-46261357D01*
X243877945Y-46142858D01*
X243595600Y-46064529D01*
X243302772Y-46028202D01*
X243203598Y-46025745D01*
X166043987Y-73600644D02*
X166303255Y-73673030D01*
X166483639Y-73862314D01*
X166543987Y-74100644D01*
D11*
X228456683Y-112200644D02*
X228456683Y-125200644D01*
X109681879Y-68050644D02*
X109681879Y-55050644D01*
X243203598Y-46025745D02*
X234785152Y-46025745D01*
D10*
X142731879Y-68050644D02*
X142659492Y-68309912D01*
X142470208Y-68490296D01*
X142231879Y-68550644D01*
D11*
X186381879Y-54550644D02*
X199381879Y-54550644D01*
X53031879Y-54550644D02*
X66031879Y-54550644D01*
X246625433Y-55642792D02*
X243244183Y-55642792D01*
X166043987Y-87600644D02*
X153043987Y-87600644D01*
X195406683Y-125200644D02*
X195406683Y-112200644D01*
X204644379Y-74100644D02*
X204644379Y-87100644D01*
D10*
X228542470Y-51440000D02*
X228318134Y-51633338D01*
X228070037Y-51790173D01*
X227802602Y-51908672D01*
X227520258Y-51987002D01*
X227227429Y-52023329D01*
X227128255Y-52025787D01*
X230625433Y-86518792D02*
X230884701Y-86591178D01*
X231065085Y-86780462D01*
X231125433Y-87018792D01*
X139907183Y-130463292D02*
X139647914Y-130390905D01*
X139467530Y-130201621D01*
X139407183Y-129963292D01*
X137469290Y-116463292D02*
X137728558Y-116535678D01*
X137908942Y-116724962D01*
X137969290Y-116963292D01*
X66531879Y-125200644D02*
X66459492Y-125459912D01*
X66270208Y-125640296D01*
X66031879Y-125700644D01*
X90344379Y-87100644D02*
X90271992Y-87359912D01*
X90082708Y-87540296D01*
X89844379Y-87600644D01*
D11*
X204144379Y-87600644D02*
X191144379Y-87600644D01*
X167331879Y-54550644D02*
X180331879Y-54550644D01*
D10*
X185594379Y-87100644D02*
X185521992Y-87359912D01*
X185332708Y-87540296D01*
X185094379Y-87600644D01*
D11*
X218431487Y-68550644D02*
X205431487Y-68550644D01*
X90344379Y-74100644D02*
X90344379Y-87100644D01*
D10*
X229244183Y-54550792D02*
X228984914Y-54623178D01*
X228804530Y-54812462D01*
X228744183Y-55050792D01*
D11*
X85581879Y-55050644D02*
X85581879Y-68050644D01*
X139407183Y-129963292D02*
X139407183Y-114963292D01*
X71581879Y-125200644D02*
X71581879Y-112200644D01*
D10*
X160131183Y-114463292D02*
X160390451Y-114535678D01*
X160570835Y-114724962D01*
X160631183Y-114963292D01*
X247506290Y-125200644D02*
X247433903Y-125459912D01*
X247244619Y-125640296D01*
X247006290Y-125700644D01*
X185094379Y-73600644D02*
X185353647Y-73673030D01*
X185534031Y-73862314D01*
X185594379Y-74100644D01*
X104131487Y-54550644D02*
X104390755Y-54623030D01*
X104571139Y-54812314D01*
X104631487Y-55050644D01*
D11*
X208906683Y-125700644D02*
X195906683Y-125700644D01*
X52531879Y-68050644D02*
X52531879Y-55050644D01*
X72081879Y-54550644D02*
X85081879Y-54550644D01*
D10*
X66031879Y-54550644D02*
X66291147Y-54623030D01*
X66471531Y-54812314D01*
X66531879Y-55050644D01*
X85081879Y-54550644D02*
X85341147Y-54623030D01*
X85521531Y-54812314D01*
X85581879Y-55050644D01*
X85581879Y-125200644D02*
X85509492Y-125459912D01*
X85320208Y-125640296D01*
X85081879Y-125700644D01*
X53031879Y-125700644D02*
X52772610Y-125628257D01*
X52592226Y-125438973D01*
X52531879Y-125200644D01*
X228744183Y-68055792D02*
X228816569Y-68315060D01*
X229005853Y-68495444D01*
X229244183Y-68555792D01*
D11*
X184007183Y-114468292D02*
X184007183Y-114463292D01*
X205431487Y-54550644D02*
X218431487Y-54550644D01*
D10*
X146407183Y-115968292D02*
X146479569Y-116227560D01*
X146668853Y-116407944D01*
X146907183Y-116468292D01*
D11*
X115531290Y-129963292D02*
X115531290Y-114963292D01*
D10*
X76344379Y-74100644D02*
X76416765Y-73841375D01*
X76606049Y-73660991D01*
X76844379Y-73600644D01*
D11*
X245125433Y-87105792D02*
X245125433Y-87018792D01*
D10*
X247006290Y-111700644D02*
X247265558Y-111773030D01*
X247445942Y-111962314D01*
X247506290Y-112200644D01*
D11*
X184007183Y-130463292D02*
X162569183Y-130463292D01*
D10*
X90631487Y-55050644D02*
X90703873Y-54791375D01*
X90893157Y-54610991D01*
X91131487Y-54550644D01*
D11*
X233370939Y-46611531D02*
X228542470Y-51440000D01*
X199881879Y-55050644D02*
X199881879Y-68050644D01*
M02*
