%TF.GenerationSoftware,KiCad,Pcbnew,7.0.6*%
%TF.CreationDate,2023-07-31T23:10:21-04:00*%
%TF.ProjectId,cutiepie2040-hotswap,63757469-6570-4696-9532-3034302d686f,rev?*%
%TF.SameCoordinates,PX2d6b3a0PY6f46b48*%
%TF.FileFunction,AssemblyDrawing,Bot*%
%FSLAX46Y46*%
G04 Gerber Fmt 4.6, Leading zero omitted, Abs format (unit mm)*
G04 Created by KiCad (PCBNEW 7.0.6) date 2023-07-31 23:10:21*
%MOMM*%
%LPD*%
G01*
G04 APERTURE LIST*
%ADD10C,0.100000*%
G04 APERTURE END LIST*
D10*
%TO.C,C_1V-Decoup2*%
X28044742Y50127256D02*
X28398295Y49773703D01*
X28398295Y49773703D02*
X29105402Y50480810D01*
X28751849Y50834363D02*
X28044742Y50127256D01*
X29105402Y50480810D02*
X28751849Y50834363D01*
%TO.C,D6*%
X38985891Y47415862D02*
X40785891Y47415862D01*
X40785891Y47415862D02*
X40785891Y50215862D01*
X39885891Y48065862D02*
X39885891Y48465862D01*
X39885891Y48465862D02*
X39335891Y48465862D01*
X39885891Y48465862D02*
X40435891Y48465862D01*
X39885891Y48465862D02*
X40285891Y49065862D01*
X39485891Y49065862D02*
X39885891Y48465862D01*
X39885891Y49065862D02*
X39885891Y49565862D01*
X40285891Y49065862D02*
X39485891Y49065862D01*
X38985891Y50215862D02*
X38985891Y47415862D01*
X40785891Y50215862D02*
X38985891Y50215862D01*
%TO.C,D14*%
X77085923Y47415862D02*
X78885923Y47415862D01*
X78885923Y47415862D02*
X78885923Y50215862D01*
X77985923Y48065862D02*
X77985923Y48465862D01*
X77985923Y48465862D02*
X77435923Y48465862D01*
X77985923Y48465862D02*
X78535923Y48465862D01*
X77985923Y48465862D02*
X78385923Y49065862D01*
X77585923Y49065862D02*
X77985923Y48465862D01*
X77985923Y49065862D02*
X77985923Y49565862D01*
X78385923Y49065862D02*
X77585923Y49065862D01*
X77085923Y50215862D02*
X77085923Y47415862D01*
X78885923Y50215862D02*
X77085923Y50215862D01*
%TO.C,C_Crystal1*%
X28300645Y31333111D02*
X28654198Y30979558D01*
X28654198Y30979558D02*
X29361305Y31686665D01*
X29007752Y32040218D02*
X28300645Y31333111D01*
X29361305Y31686665D02*
X29007752Y32040218D01*
%TO.C,SW2*%
X22993816Y26507874D02*
X22993816Y26007874D01*
X22993816Y26007874D02*
X23993816Y26007874D01*
X22993816Y22807874D02*
X23993816Y22807874D01*
X22993816Y22307874D02*
X22993816Y22807874D01*
X23493816Y26507874D02*
X23493816Y26007874D01*
X23493816Y22307874D02*
X23493816Y22807874D01*
X23593816Y25607874D02*
X24993816Y27007874D01*
X23593816Y23207874D02*
X23593816Y25607874D01*
X24193816Y25407874D02*
X24193816Y23407874D01*
X24193816Y23407874D02*
X25193816Y22407874D01*
X24493816Y26507874D02*
X22993816Y26507874D01*
X24493816Y22307874D02*
X22993816Y22307874D01*
X24993816Y27007874D02*
X27393816Y27007874D01*
X24993816Y21807874D02*
X23593816Y23207874D01*
X25193816Y26407874D02*
X24193816Y25407874D01*
X25193816Y22407874D02*
X27193816Y22407874D01*
X27193816Y26407874D02*
X25193816Y26407874D01*
X27193816Y22407874D02*
X28193816Y23407874D01*
X27393816Y27007874D02*
X28793816Y25607874D01*
X27393816Y21807874D02*
X24993816Y21807874D01*
X27893816Y26507874D02*
X29393816Y26507874D01*
X27893816Y22307874D02*
X29393816Y22307874D01*
X28193816Y25407874D02*
X27193816Y26407874D01*
X28193816Y23407874D02*
X28193816Y25407874D01*
X28793816Y25607874D02*
X28793816Y23207874D01*
X28793816Y23207874D02*
X27393816Y21807874D01*
X28893816Y26507874D02*
X28893816Y26007874D01*
X28893816Y22307874D02*
X28893816Y22807874D01*
X29393816Y26507874D02*
X29393816Y26007874D01*
X29393816Y26007874D02*
X28393816Y26007874D01*
X29393816Y22807874D02*
X28393816Y22807874D01*
X29393816Y22307874D02*
X29393816Y22807874D01*
X27193816Y24407874D02*
G75*
G03*
X27193816Y24407874I-1000000J0D01*
G01*
%TO.C,D37*%
X193767271Y28365846D02*
X195567271Y28365846D01*
X195567271Y28365846D02*
X195567271Y31165846D01*
X194667271Y29015846D02*
X194667271Y29415846D01*
X194667271Y29415846D02*
X194117271Y29415846D01*
X194667271Y29415846D02*
X195217271Y29415846D01*
X194667271Y29415846D02*
X195067271Y30015846D01*
X194267271Y30015846D02*
X194667271Y29415846D01*
X194667271Y30015846D02*
X194667271Y30515846D01*
X195067271Y30015846D02*
X194267271Y30015846D01*
X193767271Y31165846D02*
X193767271Y28365846D01*
X195567271Y31165846D02*
X193767271Y31165846D01*
%TO.C,R_Crystal1*%
X25111695Y34486706D02*
X25493533Y34104868D01*
X25493533Y34104868D02*
X26235995Y34847330D01*
X25854157Y35229168D02*
X25111695Y34486706D01*
X26235995Y34847330D02*
X25854157Y35229168D01*
%TO.C,R_Flash2*%
X17632076Y24975531D02*
X17632076Y24435531D01*
X17632076Y24435531D02*
X18682076Y24435531D01*
X18682076Y24975531D02*
X17632076Y24975531D01*
X18682076Y24435531D02*
X18682076Y24975531D01*
%TO.C,D17*%
X96135939Y47551801D02*
X97935939Y47551801D01*
X97935939Y47551801D02*
X97935939Y50351801D01*
X97035939Y48201801D02*
X97035939Y48601801D01*
X97035939Y48601801D02*
X96485939Y48601801D01*
X97035939Y48601801D02*
X97585939Y48601801D01*
X97035939Y48601801D02*
X97435939Y49201801D01*
X96635939Y49201801D02*
X97035939Y48601801D01*
X97035939Y49201801D02*
X97035939Y49701801D01*
X97435939Y49201801D02*
X96635939Y49201801D01*
X96135939Y50351801D02*
X96135939Y47551801D01*
X97935939Y50351801D02*
X96135939Y50351801D01*
%TO.C,R_Flash1*%
X39020724Y42635265D02*
X39560724Y42635265D01*
X39560724Y42635265D02*
X39560724Y43685265D01*
X39020724Y43685265D02*
X39020724Y42635265D01*
X39560724Y43685265D02*
X39020724Y43685265D01*
%TO.C,SW1*%
X34900096Y26507874D02*
X34900096Y26007874D01*
X34900096Y26007874D02*
X35900096Y26007874D01*
X34900096Y22807874D02*
X35900096Y22807874D01*
X34900096Y22307874D02*
X34900096Y22807874D01*
X35400096Y26507874D02*
X35400096Y26007874D01*
X35400096Y22307874D02*
X35400096Y22807874D01*
X35500096Y25607874D02*
X36900096Y27007874D01*
X35500096Y23207874D02*
X35500096Y25607874D01*
X36100096Y25407874D02*
X36100096Y23407874D01*
X36100096Y23407874D02*
X37100096Y22407874D01*
X36400096Y26507874D02*
X34900096Y26507874D01*
X36400096Y22307874D02*
X34900096Y22307874D01*
X36900096Y27007874D02*
X39300096Y27007874D01*
X36900096Y21807874D02*
X35500096Y23207874D01*
X37100096Y26407874D02*
X36100096Y25407874D01*
X37100096Y22407874D02*
X39100096Y22407874D01*
X39100096Y26407874D02*
X37100096Y26407874D01*
X39100096Y22407874D02*
X40100096Y23407874D01*
X39300096Y27007874D02*
X40700096Y25607874D01*
X39300096Y21807874D02*
X36900096Y21807874D01*
X39800096Y26507874D02*
X41300096Y26507874D01*
X39800096Y22307874D02*
X41300096Y22307874D01*
X40100096Y25407874D02*
X39100096Y26407874D01*
X40100096Y23407874D02*
X40100096Y25407874D01*
X40700096Y25607874D02*
X40700096Y23207874D01*
X40700096Y23207874D02*
X39300096Y21807874D01*
X40800096Y26507874D02*
X40800096Y26007874D01*
X40800096Y22307874D02*
X40800096Y22807874D01*
X41300096Y26507874D02*
X41300096Y26007874D01*
X41300096Y26007874D02*
X40300096Y26007874D01*
X41300096Y22807874D02*
X40300096Y22807874D01*
X41300096Y22307874D02*
X41300096Y22807874D01*
X39100096Y24407874D02*
G75*
G03*
X39100096Y24407874I-1000000J0D01*
G01*
%TO.C,R_Flash3*%
X19715676Y24975531D02*
X19715676Y24435531D01*
X19715676Y24435531D02*
X20765676Y24435531D01*
X20765676Y24975531D02*
X19715676Y24975531D01*
X20765676Y24435531D02*
X20765676Y24975531D01*
%TO.C,D8*%
X34223387Y6934578D02*
X36023387Y6934578D01*
X36023387Y6934578D02*
X36023387Y9734578D01*
X35123387Y7584578D02*
X35123387Y7984578D01*
X35123387Y7984578D02*
X34573387Y7984578D01*
X35123387Y7984578D02*
X35673387Y7984578D01*
X35123387Y7984578D02*
X35523387Y8584578D01*
X34723387Y8584578D02*
X35123387Y7984578D01*
X35123387Y8584578D02*
X35123387Y9084578D01*
X35523387Y8584578D02*
X34723387Y8584578D01*
X34223387Y9734578D02*
X34223387Y6934578D01*
X36023387Y9734578D02*
X34223387Y9734578D01*
%TO.C,D20*%
X110423718Y66763453D02*
X112223718Y66763453D01*
X112223718Y66763453D02*
X112223718Y69563453D01*
X111323718Y67413453D02*
X111323718Y67813453D01*
X111323718Y67813453D02*
X110773718Y67813453D01*
X111323718Y67813453D02*
X111873718Y67813453D01*
X111323718Y67813453D02*
X111723718Y68413453D01*
X110923718Y68413453D02*
X111323718Y67813453D01*
X111323718Y68413453D02*
X111323718Y68913453D01*
X111723718Y68413453D02*
X110923718Y68413453D01*
X110423718Y69563453D02*
X110423718Y66763453D01*
X112223718Y69563453D02*
X110423718Y69563453D01*
%TO.C,D15*%
X81848427Y28365846D02*
X83648427Y28365846D01*
X83648427Y28365846D02*
X83648427Y31165846D01*
X82748427Y29015846D02*
X82748427Y29415846D01*
X82748427Y29415846D02*
X82198427Y29415846D01*
X82748427Y29415846D02*
X83298427Y29415846D01*
X82748427Y29415846D02*
X83148427Y30015846D01*
X82348427Y30015846D02*
X82748427Y29415846D01*
X82748427Y30015846D02*
X82748427Y30515846D01*
X83148427Y30015846D02*
X82348427Y30015846D01*
X81848427Y31165846D02*
X81848427Y28365846D01*
X83648427Y31165846D02*
X81848427Y31165846D01*
%TO.C,D31*%
X167573499Y66763453D02*
X169373499Y66763453D01*
X169373499Y66763453D02*
X169373499Y69563453D01*
X168473499Y67413453D02*
X168473499Y67813453D01*
X168473499Y67813453D02*
X167923499Y67813453D01*
X168473499Y67813453D02*
X169023499Y67813453D01*
X168473499Y67813453D02*
X168873499Y68413453D01*
X168073499Y68413453D02*
X168473499Y67813453D01*
X168473499Y68413453D02*
X168473499Y68913453D01*
X168873499Y68413453D02*
X168073499Y68413453D01*
X167573499Y69563453D02*
X167573499Y66763453D01*
X169373499Y69563453D02*
X167573499Y69563453D01*
%TO.C,C_3V-Decoup2*%
X21181304Y49506376D02*
X21681304Y49506376D01*
X21681304Y49506376D02*
X21681304Y50506376D01*
X21181304Y50506376D02*
X21181304Y49506376D01*
X21681304Y50506376D02*
X21181304Y50506376D01*
%TO.C,D13*%
X72323622Y66763453D02*
X74123622Y66763453D01*
X74123622Y66763453D02*
X74123622Y69563453D01*
X73223622Y67413453D02*
X73223622Y67813453D01*
X73223622Y67813453D02*
X72673622Y67813453D01*
X73223622Y67813453D02*
X73773622Y67813453D01*
X73223622Y67813453D02*
X73623622Y68413453D01*
X72823622Y68413453D02*
X73223622Y67813453D01*
X73223622Y68413453D02*
X73223622Y68913453D01*
X73623622Y68413453D02*
X72823622Y68413453D01*
X72323622Y69563453D02*
X72323622Y66763453D01*
X74123622Y69563453D02*
X72323622Y69563453D01*
%TO.C,D23*%
X125901589Y6934578D02*
X127701589Y6934578D01*
X127701589Y6934578D02*
X127701589Y9734578D01*
X126801589Y7584578D02*
X126801589Y7984578D01*
X126801589Y7984578D02*
X126251589Y7984578D01*
X126801589Y7984578D02*
X127351589Y7984578D01*
X126801589Y7984578D02*
X127201589Y8584578D01*
X126401589Y8584578D02*
X126801589Y7984578D01*
X126801589Y8584578D02*
X126801589Y9084578D01*
X127201589Y8584578D02*
X126401589Y8584578D01*
X125901589Y9734578D02*
X125901589Y6934578D01*
X127701589Y9734578D02*
X125901589Y9734578D01*
%TO.C,C_3V-Decoup7*%
X22669589Y49506376D02*
X23169589Y49506376D01*
X23169589Y49506376D02*
X23169589Y50506376D01*
X22669589Y50506376D02*
X22669589Y49506376D01*
X23169589Y50506376D02*
X22669589Y50506376D01*
%TO.C,D32*%
X172336003Y47415862D02*
X174136003Y47415862D01*
X174136003Y47415862D02*
X174136003Y50215862D01*
X173236003Y48065862D02*
X173236003Y48465862D01*
X173236003Y48465862D02*
X172686003Y48465862D01*
X173236003Y48465862D02*
X173786003Y48465862D01*
X173236003Y48465862D02*
X173636003Y49065862D01*
X172836003Y49065862D02*
X173236003Y48465862D01*
X173236003Y49065862D02*
X173236003Y49565862D01*
X173636003Y49065862D02*
X172836003Y49065862D01*
X172336003Y50215862D02*
X172336003Y47415862D01*
X174136003Y50215862D02*
X172336003Y50215862D01*
%TO.C,D4*%
X15173371Y6934578D02*
X16973371Y6934578D01*
X16973371Y6934578D02*
X16973371Y9734578D01*
X16073371Y7584578D02*
X16073371Y7984578D01*
X16073371Y7984578D02*
X15523371Y7984578D01*
X16073371Y7984578D02*
X16623371Y7984578D01*
X16073371Y7984578D02*
X16473371Y8584578D01*
X15673371Y8584578D02*
X16073371Y7984578D01*
X16073371Y8584578D02*
X16073371Y9084578D01*
X16473371Y8584578D02*
X15673371Y8584578D01*
X15173371Y9734578D02*
X15173371Y6934578D01*
X16973371Y9734578D02*
X15173371Y9734578D01*
%TO.C,C_3V-Decoup9*%
X32099299Y41874323D02*
X31599299Y41874323D01*
X31599299Y41874323D02*
X31599299Y40874323D01*
X32099299Y40874323D02*
X32099299Y41874323D01*
X31599299Y40874323D02*
X32099299Y40874323D01*
%TO.C,C_3V-Decoup4*%
X20443019Y42612608D02*
X20443019Y43112608D01*
X20443019Y43112608D02*
X19443019Y43112608D01*
X19443019Y42612608D02*
X20443019Y42612608D01*
X19443019Y43112608D02*
X19443019Y42612608D01*
%TO.C,D26*%
X138998475Y28365846D02*
X140798475Y28365846D01*
X140798475Y28365846D02*
X140798475Y31165846D01*
X139898475Y29015846D02*
X139898475Y29415846D01*
X139898475Y29415846D02*
X139348475Y29415846D01*
X139898475Y29415846D02*
X140448475Y29415846D01*
X139898475Y29415846D02*
X140298475Y30015846D01*
X139498475Y30015846D02*
X139898475Y29415846D01*
X139898475Y30015846D02*
X139898475Y30515846D01*
X140298475Y30015846D02*
X139498475Y30015846D01*
X138998475Y31165846D02*
X138998475Y28365846D01*
X140798475Y31165846D02*
X138998475Y31165846D01*
%TO.C,D28*%
X153285987Y47415862D02*
X155085987Y47415862D01*
X155085987Y47415862D02*
X155085987Y50215862D01*
X154185987Y48065862D02*
X154185987Y48465862D01*
X154185987Y48465862D02*
X153635987Y48465862D01*
X154185987Y48465862D02*
X154735987Y48465862D01*
X154185987Y48465862D02*
X154585987Y49065862D01*
X153785987Y49065862D02*
X154185987Y48465862D01*
X154185987Y49065862D02*
X154185987Y49565862D01*
X154585987Y49065862D02*
X153785987Y49065862D01*
X153285987Y50215862D02*
X153285987Y47415862D01*
X155085987Y50215862D02*
X153285987Y50215862D01*
%TO.C,R_DATA1*%
X23036934Y54735724D02*
X22655096Y54353886D01*
X22655096Y54353886D02*
X23397558Y53611424D01*
X23779396Y53993262D02*
X23036934Y54735724D01*
X23397558Y53611424D02*
X23779396Y53993262D01*
%TO.C,C_3V-Decoup8*%
X25311205Y35736765D02*
X24957652Y36090318D01*
X24957652Y36090318D02*
X24250545Y35383211D01*
X24604098Y35029658D02*
X25311205Y35736765D01*
X24250545Y35383211D02*
X24604098Y35029658D01*
%TO.C,C_Flash1*%
X40874323Y45791521D02*
X40874323Y45291521D01*
X40874323Y45291521D02*
X41874323Y45291521D01*
X41874323Y45791521D02*
X40874323Y45791521D01*
X41874323Y45291521D02*
X41874323Y45791521D01*
%TO.C,D10*%
X58035907Y47415862D02*
X59835907Y47415862D01*
X59835907Y47415862D02*
X59835907Y50215862D01*
X58935907Y48065862D02*
X58935907Y48465862D01*
X58935907Y48465862D02*
X58385907Y48465862D01*
X58935907Y48465862D02*
X59485907Y48465862D01*
X58935907Y48465862D02*
X59335907Y49065862D01*
X58535907Y49065862D02*
X58935907Y48465862D01*
X58935907Y49065862D02*
X58935907Y49565862D01*
X59335907Y49065862D02*
X58535907Y49065862D01*
X58035907Y50215862D02*
X58035907Y47415862D01*
X59835907Y50215862D02*
X58035907Y50215862D01*
%TO.C,D35*%
X191386019Y66763453D02*
X193186019Y66763453D01*
X193186019Y66763453D02*
X193186019Y69563453D01*
X192286019Y67413453D02*
X192286019Y67813453D01*
X192286019Y67813453D02*
X191736019Y67813453D01*
X192286019Y67813453D02*
X192836019Y67813453D01*
X192286019Y67813453D02*
X192686019Y68413453D01*
X191886019Y68413453D02*
X192286019Y67813453D01*
X192286019Y68413453D02*
X192286019Y68913453D01*
X192686019Y68413453D02*
X191886019Y68413453D01*
X191386019Y69563453D02*
X191386019Y66763453D01*
X193186019Y69563453D02*
X191386019Y69563453D01*
%TO.C,D38*%
X193767271Y6934578D02*
X195567271Y6934578D01*
X195567271Y6934578D02*
X195567271Y9734578D01*
X194667271Y7584578D02*
X194667271Y7984578D01*
X194667271Y7984578D02*
X194117271Y7984578D01*
X194667271Y7984578D02*
X195217271Y7984578D01*
X194667271Y7984578D02*
X195067271Y8584578D01*
X194267271Y8584578D02*
X194667271Y7984578D01*
X194667271Y8584578D02*
X194667271Y9084578D01*
X195067271Y8584578D02*
X194267271Y8584578D01*
X193767271Y9734578D02*
X193767271Y6934578D01*
X195567271Y9734578D02*
X193767271Y9734578D01*
%TO.C,D19*%
X87801557Y6934578D02*
X89601557Y6934578D01*
X89601557Y6934578D02*
X89601557Y9734578D01*
X88701557Y7584578D02*
X88701557Y7984578D01*
X88701557Y7984578D02*
X88151557Y7984578D01*
X88701557Y7984578D02*
X89251557Y7984578D01*
X88701557Y7984578D02*
X89101557Y8584578D01*
X88301557Y8584578D02*
X88701557Y7984578D01*
X88701557Y8584578D02*
X88701557Y9084578D01*
X89101557Y8584578D02*
X88301557Y8584578D01*
X87801557Y9734578D02*
X87801557Y6934578D01*
X89601557Y9734578D02*
X87801557Y9734578D01*
%TO.C,U3*%
X14028164Y62155627D02*
X16603164Y62155627D01*
X16603164Y62155627D02*
X16928164Y62480627D01*
X16928164Y62480627D02*
X16928164Y63455627D01*
X14028164Y63455627D02*
X14028164Y62155627D01*
X16928164Y63455627D02*
X14028164Y63455627D01*
%TO.C,D25*%
X134235971Y47415862D02*
X136035971Y47415862D01*
X136035971Y47415862D02*
X136035971Y50215862D01*
X135135971Y48065862D02*
X135135971Y48465862D01*
X135135971Y48465862D02*
X134585971Y48465862D01*
X135135971Y48465862D02*
X135685971Y48465862D01*
X135135971Y48465862D02*
X135535971Y49065862D01*
X134735971Y49065862D02*
X135135971Y48465862D01*
X135135971Y49065862D02*
X135135971Y49565862D01*
X135535971Y49065862D02*
X134735971Y49065862D01*
X134235971Y50215862D02*
X134235971Y47415862D01*
X136035971Y50215862D02*
X134235971Y50215862D01*
%TO.C,D11*%
X62798411Y28365846D02*
X64598411Y28365846D01*
X64598411Y28365846D02*
X64598411Y31165846D01*
X63698411Y29015846D02*
X63698411Y29415846D01*
X63698411Y29415846D02*
X63148411Y29415846D01*
X63698411Y29415846D02*
X64248411Y29415846D01*
X63698411Y29415846D02*
X64098411Y30015846D01*
X63298411Y30015846D02*
X63698411Y29415846D01*
X63698411Y30015846D02*
X63698411Y30515846D01*
X64098411Y30015846D02*
X63298411Y30015846D01*
X62798411Y31165846D02*
X62798411Y28365846D01*
X64598411Y31165846D02*
X62798411Y31165846D01*
%TO.C,C_1V-Decoup3*%
X24469304Y36578666D02*
X24115751Y36932219D01*
X24115751Y36932219D02*
X23408644Y36225112D01*
X23762197Y35871559D02*
X24469304Y36578666D01*
X23408644Y36225112D02*
X23762197Y35871559D01*
%TO.C,D18*%
X100898443Y28365846D02*
X102698443Y28365846D01*
X102698443Y28365846D02*
X102698443Y31165846D01*
X101798443Y29015846D02*
X101798443Y29415846D01*
X101798443Y29415846D02*
X101248443Y29415846D01*
X101798443Y29415846D02*
X102348443Y29415846D01*
X101798443Y29415846D02*
X102198443Y30015846D01*
X101398443Y30015846D02*
X101798443Y29415846D01*
X101798443Y30015846D02*
X101798443Y30515846D01*
X102198443Y30015846D02*
X101398443Y30015846D01*
X100898443Y31165846D02*
X100898443Y28365846D01*
X102698443Y31165846D02*
X100898443Y31165846D01*
%TO.C,D34*%
X177098507Y6934578D02*
X178898507Y6934578D01*
X178898507Y6934578D02*
X178898507Y9734578D01*
X177998507Y7584578D02*
X177998507Y7984578D01*
X177998507Y7984578D02*
X177448507Y7984578D01*
X177998507Y7984578D02*
X178548507Y7984578D01*
X177998507Y7984578D02*
X178398507Y8584578D01*
X177598507Y8584578D02*
X177998507Y7984578D01*
X177998507Y8584578D02*
X177998507Y9084578D01*
X178398507Y8584578D02*
X177598507Y8584578D01*
X177098507Y9734578D02*
X177098507Y6934578D01*
X178898507Y9734578D02*
X177098507Y9734578D01*
%TO.C,D2*%
X17554623Y47415862D02*
X19354623Y47415862D01*
X19354623Y47415862D02*
X19354623Y50215862D01*
X18454623Y48065862D02*
X18454623Y48465862D01*
X18454623Y48465862D02*
X17904623Y48465862D01*
X18454623Y48465862D02*
X19004623Y48465862D01*
X18454623Y48465862D02*
X18854623Y49065862D01*
X18054623Y49065862D02*
X18454623Y48465862D01*
X18454623Y49065862D02*
X18454623Y49565862D01*
X18854623Y49065862D02*
X18054623Y49065862D01*
X17554623Y50215862D02*
X17554623Y47415862D01*
X19354623Y50215862D02*
X17554623Y50215862D01*
%TO.C,D3*%
X19935875Y28365846D02*
X21735875Y28365846D01*
X21735875Y28365846D02*
X21735875Y31165846D01*
X20835875Y29015846D02*
X20835875Y29415846D01*
X20835875Y29415846D02*
X20285875Y29415846D01*
X20835875Y29415846D02*
X21385875Y29415846D01*
X20835875Y29415846D02*
X21235875Y30015846D01*
X20435875Y30015846D02*
X20835875Y29415846D01*
X20835875Y30015846D02*
X20835875Y30515846D01*
X21235875Y30015846D02*
X20435875Y30015846D01*
X19935875Y31165846D02*
X19935875Y28365846D01*
X21735875Y31165846D02*
X19935875Y31165846D01*
%TO.C,D29*%
X158048491Y28365846D02*
X159848491Y28365846D01*
X159848491Y28365846D02*
X159848491Y31165846D01*
X158948491Y29015846D02*
X158948491Y29415846D01*
X158948491Y29415846D02*
X158398491Y29415846D01*
X158948491Y29415846D02*
X159498491Y29415846D01*
X158948491Y29415846D02*
X159348491Y30015846D01*
X158548491Y30015846D02*
X158948491Y29415846D01*
X158948491Y30015846D02*
X158948491Y30515846D01*
X159348491Y30015846D02*
X158548491Y30015846D01*
X158048491Y31165846D02*
X158048491Y28365846D01*
X159848491Y31165846D02*
X158048491Y31165846D01*
%TO.C,D16*%
X91373670Y66763453D02*
X93173670Y66763453D01*
X93173670Y66763453D02*
X93173670Y69563453D01*
X92273670Y67413453D02*
X92273670Y67813453D01*
X92273670Y67813453D02*
X91723670Y67813453D01*
X92273670Y67813453D02*
X92823670Y67813453D01*
X92273670Y67813453D02*
X92673670Y68413453D01*
X91873670Y68413453D02*
X92273670Y67813453D01*
X92273670Y68413453D02*
X92273670Y68913453D01*
X92673670Y68413453D02*
X91873670Y68413453D01*
X91373670Y69563453D02*
X91373670Y66763453D01*
X93173670Y69563453D02*
X91373670Y69563453D01*
%TO.C,C_3V-Decoup6*%
X31051642Y46982149D02*
X31051642Y46482149D01*
X31051642Y46482149D02*
X32051642Y46482149D01*
X32051642Y46982149D02*
X31051642Y46982149D01*
X32051642Y46482149D02*
X32051642Y46982149D01*
%TO.C,D30*%
X158048491Y6934578D02*
X159848491Y6934578D01*
X159848491Y6934578D02*
X159848491Y9734578D01*
X158948491Y7584578D02*
X158948491Y7984578D01*
X158948491Y7984578D02*
X158398491Y7984578D01*
X158948491Y7984578D02*
X159498491Y7984578D01*
X158948491Y7984578D02*
X159348491Y8584578D01*
X158548491Y8584578D02*
X158948491Y7984578D01*
X158948491Y8584578D02*
X158948491Y9084578D01*
X159348491Y8584578D02*
X158548491Y8584578D01*
X158048491Y9734578D02*
X158048491Y6934578D01*
X159848491Y9734578D02*
X158048491Y9734578D01*
%TO.C,D1*%
X15173478Y66763453D02*
X16973478Y66763453D01*
X16973478Y66763453D02*
X16973478Y69563453D01*
X16073478Y67413453D02*
X16073478Y67813453D01*
X16073478Y67813453D02*
X15523478Y67813453D01*
X16073478Y67813453D02*
X16623478Y67813453D01*
X16073478Y67813453D02*
X16473478Y68413453D01*
X15673478Y68413453D02*
X16073478Y67813453D01*
X16073478Y68413453D02*
X16073478Y68913453D01*
X16473478Y68413453D02*
X15673478Y68413453D01*
X15173478Y69563453D02*
X15173478Y66763453D01*
X16973478Y69563453D02*
X15173478Y69563453D01*
%TO.C,C_3V-Decoup1*%
X15498164Y49276376D02*
X15498164Y49776376D01*
X15498164Y49776376D02*
X14498164Y49776376D01*
X14498164Y49276376D02*
X15498164Y49276376D01*
X14498164Y49776376D02*
X14498164Y49276376D01*
%TO.C,C_LD1*%
X17907077Y64285627D02*
X18407077Y64285627D01*
X18407077Y64285627D02*
X18407077Y65285627D01*
X17907077Y65285627D02*
X17907077Y64285627D01*
X18407077Y65285627D02*
X17907077Y65285627D01*
%TO.C,R_RST1*%
X17632077Y26577874D02*
X17632077Y26037874D01*
X17632077Y26037874D02*
X18682077Y26037874D01*
X18682077Y26577874D02*
X17632077Y26577874D01*
X18682077Y26037874D02*
X18682077Y26577874D01*
%TO.C,U2*%
X33103700Y42628984D02*
X37333700Y42628984D01*
X37333700Y42628984D02*
X38333700Y43628984D01*
X38333700Y43628984D02*
X38333700Y47858984D01*
X33103700Y47858984D02*
X33103700Y42628984D01*
X38333700Y47858984D02*
X33103700Y47858984D01*
%TO.C,D33*%
X177098507Y28365846D02*
X178898507Y28365846D01*
X178898507Y28365846D02*
X178898507Y31165846D01*
X177998507Y29015846D02*
X177998507Y29415846D01*
X177998507Y29415846D02*
X177448507Y29415846D01*
X177998507Y29415846D02*
X178548507Y29415846D01*
X177998507Y29415846D02*
X178398507Y30015846D01*
X177598507Y30015846D02*
X177998507Y29415846D01*
X177998507Y30015846D02*
X177998507Y30515846D01*
X178398507Y30015846D02*
X177598507Y30015846D01*
X177098507Y31165846D02*
X177098507Y28365846D01*
X178898507Y31165846D02*
X177098507Y31165846D01*
%TO.C,D36*%
X193767271Y47415862D02*
X195567271Y47415862D01*
X195567271Y47415862D02*
X195567271Y50215862D01*
X194667271Y48065862D02*
X194667271Y48465862D01*
X194667271Y48465862D02*
X194117271Y48465862D01*
X194667271Y48465862D02*
X195217271Y48465862D01*
X194667271Y48465862D02*
X195067271Y49065862D01*
X194267271Y49065862D02*
X194667271Y48465862D01*
X194667271Y49065862D02*
X194667271Y49565862D01*
X195067271Y49065862D02*
X194267271Y49065862D01*
X193767271Y50215862D02*
X193767271Y47415862D01*
X195567271Y50215862D02*
X193767271Y50215862D01*
%TO.C,D7*%
X43748395Y28365846D02*
X45548395Y28365846D01*
X45548395Y28365846D02*
X45548395Y31165846D01*
X44648395Y29015846D02*
X44648395Y29415846D01*
X44648395Y29415846D02*
X44098395Y29415846D01*
X44648395Y29415846D02*
X45198395Y29415846D01*
X44648395Y29415846D02*
X45048395Y30015846D01*
X44248395Y30015846D02*
X44648395Y29415846D01*
X44648395Y30015846D02*
X44648395Y30515846D01*
X45048395Y30015846D02*
X44248395Y30015846D01*
X43748395Y31165846D02*
X43748395Y28365846D01*
X45548395Y31165846D02*
X43748395Y31165846D01*
%TO.C,D12*%
X53273403Y6934578D02*
X55073403Y6934578D01*
X55073403Y6934578D02*
X55073403Y9734578D01*
X54173403Y7584578D02*
X54173403Y7984578D01*
X54173403Y7984578D02*
X53623403Y7984578D01*
X54173403Y7984578D02*
X54723403Y7984578D01*
X54173403Y7984578D02*
X54573403Y8584578D01*
X53773403Y8584578D02*
X54173403Y7984578D01*
X54173403Y8584578D02*
X54173403Y9084578D01*
X54573403Y8584578D02*
X53773403Y8584578D01*
X53273403Y9734578D02*
X53273403Y6934578D01*
X55073403Y9734578D02*
X53273403Y9734578D01*
%TO.C,C_1V-Decoup1*%
X23860217Y49506376D02*
X24360217Y49506376D01*
X24360217Y49506376D02*
X24360217Y50506376D01*
X23860217Y50506376D02*
X23860217Y49506376D01*
X24360217Y50506376D02*
X23860217Y50506376D01*
%TO.C,C_3V-Decoup3*%
X25887270Y50127256D02*
X26240823Y49773703D01*
X26240823Y49773703D02*
X26947930Y50480810D01*
X26594377Y50834363D02*
X25887270Y50127256D01*
X26947930Y50480810D02*
X26594377Y50834363D01*
%TO.C,D22*%
X119948459Y28365846D02*
X121748459Y28365846D01*
X121748459Y28365846D02*
X121748459Y31165846D01*
X120848459Y29015846D02*
X120848459Y29415846D01*
X120848459Y29415846D02*
X120298459Y29415846D01*
X120848459Y29415846D02*
X121398459Y29415846D01*
X120848459Y29415846D02*
X121248459Y30015846D01*
X120448459Y30015846D02*
X120848459Y29415846D01*
X120848459Y30015846D02*
X120848459Y30515846D01*
X121248459Y30015846D02*
X120448459Y30015846D01*
X119948459Y31165846D02*
X119948459Y28365846D01*
X121748459Y31165846D02*
X119948459Y31165846D01*
%TO.C,U1*%
X29778188Y39362608D02*
X29778188Y45362608D01*
X29778188Y45362608D02*
X28778188Y46362608D01*
X28778188Y46362608D02*
X22778188Y46362608D01*
X22778188Y39362608D02*
X29778188Y39362608D01*
X22778188Y46362608D02*
X22778188Y39362608D01*
%TO.C,J2*%
X3119880Y39282794D02*
X3119880Y51347794D01*
X3119880Y51347794D02*
X2484880Y51982794D01*
X2484880Y51982794D02*
X579880Y51982794D01*
X579880Y39282794D02*
X3119880Y39282794D01*
X579880Y51982794D02*
X579880Y39282794D01*
%TO.C,D27*%
X148523483Y66763453D02*
X150323483Y66763453D01*
X150323483Y66763453D02*
X150323483Y69563453D01*
X149423483Y67413453D02*
X149423483Y67813453D01*
X149423483Y67813453D02*
X148873483Y67813453D01*
X149423483Y67813453D02*
X149973483Y67813453D01*
X149423483Y67813453D02*
X149823483Y68413453D01*
X149023483Y68413453D02*
X149423483Y67813453D01*
X149423483Y68413453D02*
X149423483Y68913453D01*
X149823483Y68413453D02*
X149023483Y68413453D01*
X148523483Y69563453D02*
X148523483Y66763453D01*
X150323483Y69563453D02*
X148523483Y69563453D01*
%TO.C,C_Crystal2*%
X25511211Y30687544D02*
X25864764Y31041097D01*
X25864764Y31041097D02*
X25157657Y31748204D01*
X24804104Y31394651D02*
X25511211Y30687544D01*
X25157657Y31748204D02*
X24804104Y31394651D01*
%TO.C,D9*%
X53273574Y66763453D02*
X55073574Y66763453D01*
X55073574Y66763453D02*
X55073574Y69563453D01*
X54173574Y67413453D02*
X54173574Y67813453D01*
X54173574Y67813453D02*
X53623574Y67813453D01*
X54173574Y67813453D02*
X54723574Y67813453D01*
X54173574Y67813453D02*
X54573574Y68413453D01*
X53773574Y68413453D02*
X54173574Y67813453D01*
X54173574Y68413453D02*
X54173574Y68913453D01*
X54573574Y68413453D02*
X53773574Y68413453D01*
X53273574Y69563453D02*
X53273574Y66763453D01*
X55073574Y69563453D02*
X53273574Y69563453D01*
%TO.C,D24*%
X129473467Y66763453D02*
X131273467Y66763453D01*
X131273467Y66763453D02*
X131273467Y69563453D01*
X130373467Y67413453D02*
X130373467Y67813453D01*
X130373467Y67813453D02*
X129823467Y67813453D01*
X130373467Y67813453D02*
X130923467Y67813453D01*
X130373467Y67813453D02*
X130773467Y68413453D01*
X129973467Y68413453D02*
X130373467Y67813453D01*
X130373467Y68413453D02*
X130373467Y68913453D01*
X130773467Y68413453D02*
X129973467Y68413453D01*
X129473467Y69563453D02*
X129473467Y66763453D01*
X131273467Y69563453D02*
X129473467Y69563453D01*
%TO.C,C_3V-Decoup5*%
X21451304Y46482149D02*
X21451304Y46982149D01*
X21451304Y46982149D02*
X20451304Y46982149D01*
X20451304Y46482149D02*
X21451304Y46482149D01*
X20451304Y46982149D02*
X20451304Y46482149D01*
%TO.C,R_DATA2*%
X22143963Y53842753D02*
X21762125Y53460915D01*
X21762125Y53460915D02*
X22504587Y52718453D01*
X22886425Y53100291D02*
X22143963Y53842753D01*
X22504587Y52718453D02*
X22886425Y53100291D01*
%TO.C,C_LD2*%
X12549251Y64285627D02*
X13049251Y64285627D01*
X13049251Y64285627D02*
X13049251Y65285627D01*
X12549251Y65285627D02*
X12549251Y64285627D01*
X13049251Y65285627D02*
X12549251Y65285627D01*
%TO.C,J1*%
X24824880Y65805627D02*
X24824880Y59805627D01*
X20574880Y65805627D02*
X24824880Y65805627D01*
X20574880Y65805627D02*
X20574880Y59805627D01*
X20574880Y64805627D02*
X21281987Y64305627D01*
X21281987Y64305627D02*
X20574880Y63805627D01*
X20574880Y59805627D02*
X24824880Y59805627D01*
%TO.C,D21*%
X115185955Y47415862D02*
X116985955Y47415862D01*
X116985955Y47415862D02*
X116985955Y50215862D01*
X116085955Y48065862D02*
X116085955Y48465862D01*
X116085955Y48465862D02*
X115535955Y48465862D01*
X116085955Y48465862D02*
X116635955Y48465862D01*
X116085955Y48465862D02*
X116485955Y49065862D01*
X115685955Y49065862D02*
X116085955Y48465862D01*
X116085955Y49065862D02*
X116085955Y49565862D01*
X116485955Y49065862D02*
X115685955Y49065862D01*
X115185955Y50215862D02*
X115185955Y47415862D01*
X116985955Y50215862D02*
X115185955Y50215862D01*
%TO.C,Y1*%
X25213458Y32864664D02*
X27476199Y35127405D01*
X25920564Y32157557D02*
X25920564Y33571770D01*
X26981225Y31096897D02*
X25213458Y32864664D01*
X27476199Y35127405D02*
X29243966Y33359638D01*
X29243966Y33359638D02*
X26981225Y31096897D01*
%TO.C,D5*%
X34223526Y66763453D02*
X36023526Y66763453D01*
X36023526Y66763453D02*
X36023526Y69563453D01*
X35123526Y67413453D02*
X35123526Y67813453D01*
X35123526Y67813453D02*
X34573526Y67813453D01*
X35123526Y67813453D02*
X35673526Y67813453D01*
X35123526Y67813453D02*
X35523526Y68413453D01*
X34723526Y68413453D02*
X35123526Y67813453D01*
X35123526Y68413453D02*
X35123526Y68913453D01*
X35523526Y68413453D02*
X34723526Y68413453D01*
X34223526Y69563453D02*
X34223526Y66763453D01*
X36023526Y69563453D02*
X34223526Y69563453D01*
%TD*%
M02*
